<svg height="400" viewBox="(0, 0, 400, 400)" width="400" xmlns="http://www.w3.org/2000/svg">
<path d="M140.3,374.9 L140.6,374.8 L140.8,374.9 L141.0,374.9 L141.6,375.0 L141.9,375.2 L142.1,375.4 L142.1,375.5 L142.0,375.9 L141.9,376.2 L141.8,376.4 L141.6,376.7 L141.5,376.8 L141.6,377.0 L141.7,377.1 L141.8,377.2 L142.5,377.6 L142.8,377.6 L143.9,377.7 L144.0,377.7 L144.1,377.6 L144.2,377.5 L144.0,377.1 L144.0,376.7 L144.0,376.6 L143.9,376.4 L143.9,376.2 L144.0,375.9 L144.2,375.5 L144.2,375.3 L144.1,375.0 L144.2,374.8 L144.3,374.6 L144.4,374.5 L145.0,374.8 L145.2,374.8 L145.3,375.0 L145.6,375.2 L145.8,375.2 L146.0,375.2 L146.3,375.3 L146.6,375.4 L147.0,375.4 L147.4,375.3 L148.2,375.4 L148.6,375.5 L148.8,375.4 L149.0,375.3 L149.3,375.2 L149.4,375.2 L149.5,375.3 L149.5,375.5 L149.4,375.6 L149.1,375.8 L148.7,376.1 L148.5,376.2 L148.3,376.3 L148.1,376.3 L147.5,376.4 L147.4,376.5 L147.4,376.5 L147.4,376.6 L147.4,376.7 L147.5,376.8 L147.7,376.7 L148.2,376.8 L148.7,376.8 L149.0,376.8 L149.3,376.7 L150.0,376.4 L150.7,376.4 L151.0,376.4 L151.7,376.2 L151.8,376.2 L151.9,376.3 L152.3,376.6 L152.8,376.8 L153.2,377.0 L153.5,377.1 L154.0,377.1 L154.2,377.1 L154.3,377.1 L154.7,377.3 L155.2,377.7 L155.2,377.8 L155.6,378.1 L156.0,378.5 L156.3,378.7 L156.7,378.9 L157.5,379.1 L157.9,379.3 L158.2,379.6 L158.3,379.8 L158.6,380.1 L159.0,380.3 L159.7,380.5 L160.3,380.8 L161.4,381.0 L161.6,381.1 L161.9,381.4 L162.0,381.6 L162.1,381.6 L162.3,381.8 L163.5,382.6 L164.4,383.0 L164.5,383.1 L164.8,383.0 L164.9,383.0 L165.6,383.0 L166.0,383.2 L166.1,383.2 L166.1,383.1 L166.2,383.1 L166.2,383.2 L166.5,383.5 L166.6,383.7 L166.6,383.9 L166.7,384.0 L166.7,384.2 L167.0,384.5 L167.5,385.3 L167.6,385.5 L167.7,385.7 L167.7,385.9 L167.6,386.3 L167.7,386.4 L167.8,386.7 L167.9,386.8 L168.1,387.0 L168.2,387.2 L168.5,387.4 L168.6,387.5 L168.7,387.6 L168.7,388.0 L168.8,388.2 L168.9,388.4 L169.2,388.9 L169.3,389.0 L169.7,389.4 L169.8,389.5 L169.9,389.6 L169.9,389.8 L170.1,389.8 L170.5,389.9 L170.8,390.0 L171.2,390.0 L171.4,390.0 L171.6,389.9 L171.9,389.9 L172.1,389.8 L172.4,389.6 L172.5,389.4 L172.7,389.1 L172.8,388.9 L173.2,388.2 L173.3,388.1 L173.8,388.0 L174.0,388.0 L174.1,387.9 L174.4,387.7 L174.8,387.1 L175.4,386.5 L175.7,386.0 L175.9,385.8 L176.3,385.7 L176.7,385.6 L176.9,385.5 L177.1,385.4 L177.5,384.9 L178.1,384.5 L178.3,384.3 L178.4,383.9 L178.5,383.7 L178.7,383.4 L179.8,382.2 L179.9,382.0 L180.0,381.8 L180.1,381.7 L180.3,381.5 L180.5,381.4 L180.8,381.3 L181.1,381.2 L181.5,381.2 L181.7,381.0 L182.2,380.7 L182.4,380.6 L182.5,380.6 L182.8,380.6 L183.1,380.6 L183.8,380.8 L183.9,380.8 L184.0,380.9 L184.5,381.0 L185.1,381.1 L185.3,381.1 L185.5,381.1 L185.8,381.1 L187.1,380.7 L187.3,380.7 L187.6,380.5 L188.1,380.1 L188.9,379.3 L189.3,379.0 L189.7,378.8 L190.3,378.5 L190.7,378.3 L190.8,378.3 L191.0,378.1 L191.5,377.5 L191.7,377.3 L191.9,377.2 L192.1,377.1 L192.5,377.1 L193.0,377.1 L193.2,377.1 L194.0,377.2 L194.3,377.1 L194.6,377.0 L194.8,376.9 L194.9,376.8 L195.2,376.2 L195.5,375.9 L195.5,375.9 L195.6,375.9 L195.8,375.7 L196.9,375.0 L196.9,375.0 L197.0,374.9 L197.1,374.9 L197.9,374.4 L198.1,374.3 L198.3,374.1 L199.4,372.8 L199.5,372.7 L199.7,372.5 L200.2,372.1 L200.2,372.0 L200.3,371.7 L200.4,371.6 L200.6,371.4 L200.7,371.3 L201.3,370.9 L201.6,370.6 L201.8,370.3 L202.1,369.8 L202.7,368.9 L203.0,368.5 L203.4,368.3 L203.6,368.1 L203.9,368.0 L204.1,367.8 L204.3,367.6 L204.4,367.5 L204.5,367.1 L204.6,366.8 L204.6,366.7 L204.5,366.4 L204.2,366.1 L204.2,366.0 L204.1,365.7 L204.1,365.5 L204.2,365.3 L204.4,364.9 L204.6,364.7 L204.9,364.5 L205.2,364.4 L205.6,364.1 L205.8,363.9 L205.9,363.8 L205.9,363.7 L205.9,363.6 L206.0,363.4 L206.0,363.1 L206.0,363.0 L205.9,362.7 L205.2,362.9 L205.1,362.9 L204.7,362.9 L203.9,362.7 L203.5,362.7 L203.5,362.6 L203.4,362.6 L203.1,362.2 L202.4,361.8 L202.2,361.6 L201.9,361.0 L201.7,360.7 L200.3,359.6 L199.9,359.4 L199.8,359.2 L199.7,359.0 L199.7,358.9 L199.8,358.5 L199.9,358.4 L200.4,358.0 L200.4,357.9 L200.5,357.8 L200.5,357.8 L200.4,357.7 L200.3,357.5 L200.1,357.3 L199.5,356.7 L199.1,356.3 L198.9,356.1 L198.8,355.9 L198.8,355.7 L198.9,355.4 L198.9,355.3 L198.8,355.1 L198.5,355.0 L198.4,354.8 L198.4,354.7 L198.4,354.4 L198.4,354.2 L198.8,353.6 L198.8,353.5 L198.8,353.4 L198.7,353.0 L198.7,352.9 L198.6,352.8 L198.6,352.7 L198.5,352.5 L198.4,352.4 L198.4,352.3 L198.7,351.9 L198.7,351.7 L198.6,351.4 L198.6,351.3 L198.5,351.2 L198.5,351.1 L198.3,351.0 L198.2,351.0 L197.9,350.8 L197.8,350.7 L197.7,350.6 L197.3,349.6 L197.3,349.4 L197.3,349.4 L197.4,349.0 L197.5,348.7 L197.6,348.6 L197.8,348.4 L197.9,348.2 L198.0,347.8 L198.2,347.4 L198.2,347.1 L198.3,346.9 L198.3,346.5 L198.3,346.0 L198.4,345.7 L198.5,345.3 L198.7,344.4 L198.7,344.2 L198.6,344.1 L198.5,343.9 L198.5,343.9 L198.1,343.8 L198.0,343.7 L197.9,343.5 L197.8,342.9 L197.8,342.8 L197.7,342.7 L197.6,342.7 L197.4,342.7 L197.1,342.7 L196.9,342.7 L196.6,342.6 L196.4,342.4 L196.3,342.2 L196.2,341.9 L196.1,341.8 L196.0,341.7 L195.8,341.6 L195.6,341.6 L195.1,341.5 L194.8,341.5 L194.6,341.5 L194.2,341.3 L194.1,341.3 L194.0,341.2 L194.0,341.2 L193.9,341.1 L193.8,341.0 L193.7,340.6 L193.5,340.0 L193.4,339.9 L193.0,339.6 L192.4,339.0 L192.2,338.6 L192.0,338.3 L191.5,337.7 L191.3,337.4 L191.2,337.2 L191.3,336.5 L191.2,336.4 L191.0,335.7 L190.9,334.6 L190.7,334.0 L190.6,333.6 L190.6,333.3 L190.6,333.2 L190.6,333.2 L190.6,333.0 L190.9,332.3 L191.0,332.0 L191.1,331.4 L191.3,330.6 L191.2,330.4 L191.1,330.4 L191.1,330.4 L191.1,330.4 L191.0,330.5 L191.0,330.9 L190.8,331.3 L190.8,331.6 L190.7,331.7 L190.4,332.1 L190.2,332.4 L190.2,332.5 L190.1,332.5 L189.9,332.5 L189.7,332.3 L189.3,332.2 L189.0,332.1 L188.1,332.0 L188.0,331.9 L188.0,331.9 L187.9,331.7 L188.0,331.6 L188.1,331.2 L188.1,331.1 L188.0,331.0 L187.9,330.9 L186.9,330.5 L186.8,330.5 L186.6,330.3 L186.4,330.0 L186.4,330.0 L185.9,329.7 L185.8,329.5 L185.7,329.3 L185.6,329.1 L185.6,329.0 L185.4,329.0 L185.0,329.1 L184.9,329.1 L183.3,327.8 L183.0,327.6 L182.8,327.3 L182.6,327.0 L182.6,326.8 L182.5,326.7 L182.5,326.5 L182.6,325.6 L182.5,325.3 L182.4,325.1 L182.4,325.0 L182.3,324.9 L182.1,324.9 L182.0,324.6 L181.9,324.5 L181.9,324.4 L181.9,324.2 L182.1,323.6 L182.2,323.5 L182.3,323.4 L182.7,323.2 L182.7,323.2 L182.7,323.1 L182.7,323.0 L182.6,322.9 L182.5,323.0 L182.3,323.2 L181.9,323.5 L181.6,323.8 L180.7,324.6 L180.3,324.9 L180.0,324.9 L179.7,324.8 L179.5,324.7 L179.4,324.6 L179.2,324.1 L179.1,324.0 L178.9,323.9 L178.7,324.0 L178.5,324.1 L178.3,324.4 L178.2,324.5 L178.1,324.5 L178.0,324.5 L177.6,324.1 L177.0,324.0 L176.7,323.9 L176.6,323.6 L176.4,323.0 L176.3,322.9 L176.1,322.8 L175.9,322.8 L175.4,323.0 L175.3,323.0 L175.2,323.0 L175.2,322.8 L175.3,322.7 L176.0,322.6 L176.3,322.5 L176.6,322.7 L176.9,323.3 L177.2,323.3 L177.5,323.1 L177.9,322.6 L178.2,322.4 L178.6,322.4 L179.2,322.5 L179.3,322.5 L179.3,322.3 L179.3,322.0 L179.4,321.8 L179.7,321.2 L179.8,321.0 L180.1,320.8 L180.1,320.7 L180.1,320.6 L180.1,320.6 L180.0,320.6 L179.9,320.6 L179.2,321.4 L178.9,321.5 L178.6,321.6 L178.2,321.6 L178.1,321.6 L178.0,321.6 L177.5,321.3 L177.0,321.0 L176.8,321.0 L176.3,320.9 L176.2,320.8 L176.1,320.7 L176.0,320.5 L176.0,320.4 L175.8,320.3 L175.1,320.2 L174.4,320.2 L174.3,320.1 L174.0,320.0 L173.8,319.9 L173.5,319.7 L172.9,319.0 L172.3,318.2 L171.9,317.9 L171.6,317.7 L171.5,317.7 L171.4,317.7 L171.2,317.8 L170.9,318.1 L170.6,318.3 L170.4,318.4 L170.2,318.5 L169.9,318.5 L169.7,318.5 L169.6,318.4 L169.5,318.4 L169.1,318.1 L168.6,317.6 L168.5,317.5 L168.4,317.5 L168.1,317.4 L167.8,317.4 L167.2,317.4 L167.0,317.4 L166.6,317.3 L166.6,317.3 L166.4,317.2 L166.3,317.1 L166.3,317.1 L165.8,316.7 L165.7,316.6 L165.6,316.6 L165.2,316.5 L164.9,316.5 L164.6,316.4 L164.0,316.1 L163.7,315.9 L163.2,315.6 L163.0,315.4 L162.4,314.9 L162.3,314.8 L162.2,314.7 L161.6,314.3 L161.4,314.0 L161.1,313.6 L160.9,313.4 L160.9,313.3 L160.7,313.1 L160.5,313.1 L160.4,313.0 L160.0,313.0 L159.8,313.0 L159.6,312.9 L159.4,312.8 L159.2,312.6 L159.2,312.5 L159.1,312.2 L159.0,311.7 L158.8,311.4 L158.7,311.2 L158.6,311.2 L158.3,311.0 L158.2,310.9 L158.2,310.7 L158.2,310.4 L158.2,310.3 L158.0,310.1 L158.0,310.0 L157.8,309.7 L158.1,309.5 L158.4,309.5 L158.4,309.5 L158.5,309.4 L158.5,309.4 L158.7,309.4 L158.7,309.3 L158.8,309.3 L158.9,309.3 L159.1,309.2 L159.2,309.2 L159.6,308.9 L160.3,308.4 L160.8,308.1 L161.3,307.7 L161.4,307.6 L161.4,307.5 L161.5,307.3 L161.6,307.0 L161.6,306.7 L161.6,306.6 L161.6,306.4 L162.0,305.8 L162.2,305.5 L162.3,305.5 L162.6,305.2 L163.5,304.8 L163.6,304.7 L163.8,304.5 L164.1,304.1 L164.1,304.0 L164.2,303.7 L164.3,303.6 L164.4,303.5 L164.8,303.2 L165.1,303.0 L165.5,302.5 L165.5,302.4 L166.3,301.2 L167.3,300.3 L167.3,300.3 L167.5,300.0 L167.7,299.8 L168.0,299.5 L168.3,299.2 L168.4,299.1 L168.5,299.0 L168.5,298.9 L168.5,298.5 L168.5,298.3 L168.6,298.1 L168.8,297.9 L168.9,297.7 L169.2,297.4 L169.6,297.2 L169.8,297.2 L169.9,297.2 L170.1,297.1 L170.6,297.2 L170.8,297.2 L171.0,297.2 L171.1,297.0 L171.3,296.8 L171.3,296.6 L171.5,296.4 L171.8,296.2 L172.2,295.8 L172.4,295.7 L172.4,295.6 L172.5,295.5 L172.4,295.2 L172.4,294.6 L172.4,294.1 L172.4,293.5 L172.4,293.4 L172.5,292.9 L172.6,292.5 L172.8,291.9 L172.8,291.9 L172.8,291.4 L172.9,291.1 L173.0,291.0 L173.1,291.0 L173.3,290.9 L173.4,290.9 L173.5,290.9 L173.6,291.0 L173.8,291.1 L174.0,291.1 L174.3,291.1 L174.8,291.0 L175.4,290.7 L175.5,290.6 L175.9,290.5 L176.3,290.4 L176.5,290.3 L176.8,290.2 L176.9,290.1 L177.0,290.1 L177.1,290.0 L177.3,289.9 L177.5,289.7 L177.7,289.6 L177.9,289.5 L177.9,289.4 L178.0,289.3 L178.0,289.2 L178.0,288.7 L178.0,288.5 L178.2,288.2 L178.4,288.0 L178.6,287.9 L178.7,287.9 L178.8,287.9 L179.4,288.1 L179.4,288.1 L179.6,288.2 L179.9,288.3 L180.3,288.3 L180.7,288.4 L180.9,288.4 L181.6,288.7 L181.8,288.7 L182.4,288.9 L183.0,289.0 L183.1,289.1 L183.7,289.6 L183.8,289.7 L183.9,289.7 L184.5,289.7 L185.1,289.9 L186.0,290.0 L186.2,290.1 L186.4,290.3 L186.7,290.7 L186.9,291.0 L187.4,291.3 L187.8,291.6 L188.0,291.7 L188.3,291.7 L188.6,291.8 L189.0,291.8 L189.2,291.7 L189.2,291.6 L189.2,291.6 L189.2,291.5 L189.2,291.4 L189.1,291.4 L189.0,291.4 L188.5,291.3 L188.4,291.3 L188.3,291.2 L188.0,290.9 L187.7,290.6 L187.7,290.5 L187.6,290.3 L187.7,290.2 L187.8,289.8 L188.0,289.3 L188.1,289.0 L188.3,288.8 L188.5,288.6 L188.7,288.5 L188.9,288.4 L189.1,288.2 L189.2,288.2 L189.3,288.2 L189.3,288.3 L189.0,288.5 L188.9,288.6 L188.5,289.3 L188.5,289.4 L188.5,289.4 L188.6,289.5 L188.6,289.4 L188.9,289.1 L189.1,288.9 L190.1,288.3 L190.4,288.0 L190.5,287.8 L190.5,287.7 L190.5,287.6 L190.5,287.5 L190.5,287.4 L190.3,287.2 L190.0,286.9 L189.8,286.9 L189.5,286.8 L189.2,286.7 L188.8,286.5 L188.8,286.5 L188.8,286.4 L188.9,286.4 L189.5,286.6 L189.6,286.6 L189.6,286.6 L189.7,286.5 L189.6,286.5 L189.4,286.4 L189.3,286.4 L189.2,286.3 L189.2,286.2 L189.3,285.7 L189.2,284.5 L189.1,284.3 L188.9,284.1 L188.7,284.0 L188.1,283.8 L187.9,283.7 L187.8,283.6 L187.8,283.6 L187.8,283.5 L187.9,283.4 L188.2,283.0 L188.3,282.9 L188.5,282.8 L189.5,282.6 L190.2,282.3 L190.2,282.3 L190.3,282.4 L190.3,282.4 L190.2,282.5 L190.1,282.5 L189.8,282.6 L189.2,283.0 L189.2,283.1 L189.2,283.1 L189.2,283.2 L189.3,283.2 L189.3,283.2 L189.5,283.1 L189.8,283.0 L190.6,282.7 L191.0,282.6 L191.7,282.0 L192.1,281.7 L192.2,281.6 L192.2,281.4 L192.2,281.3 L192.1,280.5 L192.0,279.8 L191.7,279.1 L191.6,278.5 L191.6,278.2 L191.7,277.9 L191.9,277.6 L192.6,276.8 L193.1,276.3 L193.9,275.6 L194.0,275.5 L194.3,274.8 L194.6,274.2 L195.0,272.8 L195.0,272.3 L195.0,271.6 L194.9,271.5 L194.8,271.3 L194.5,270.9 L193.9,270.3 L193.8,270.1 L193.8,269.9 L194.3,269.0 L194.4,268.7 L194.7,268.0 L194.9,267.6 L195.0,267.4 L195.3,267.2 L196.3,266.6 L196.6,266.4 L197.1,266.1 L197.2,265.9 L198.3,265.0 L198.5,264.7 L198.9,264.4 L200.7,262.8 L200.8,262.7 L200.8,262.6 L200.8,262.6 L200.9,262.5 L201.1,262.4 L201.5,262.0 L201.6,261.9 L201.4,261.8 L201.1,261.5 L201.0,261.3 L200.9,261.0 L200.9,261.0 L200.8,260.7 L200.7,260.2 L200.6,260.0 L200.6,259.3 L200.6,259.2 L200.5,259.2 L200.5,258.9 L200.4,258.8 L200.0,256.4 L199.9,255.9 L199.9,255.8 L199.6,255.3 L199.2,254.8 L199.1,254.6 L199.0,254.5 L198.4,253.9 L198.1,253.7 L197.7,253.3 L197.5,253.0 L197.1,252.1 L196.7,251.2 L196.6,251.0 L196.5,250.8 L196.2,250.4 L196.1,250.3 L195.7,250.0 L195.1,249.8 L194.9,249.7 L194.6,249.7 L194.4,249.7 L194.1,249.8 L193.4,250.0 L193.3,250.1 L193.1,250.1 L192.9,250.0 L192.7,249.9 L191.9,249.3 L190.9,248.5 L190.9,248.4 L190.5,248.2 L190.1,248.0 L189.5,247.8 L189.0,247.7 L188.6,247.6 L188.2,247.6 L187.7,247.6 L187.2,247.6 L186.5,247.7 L186.2,247.8 L185.9,247.9 L185.8,247.8 L185.9,247.2 L186.0,246.2 L186.0,245.8 L186.1,245.7 L186.2,245.5 L186.4,245.3 L186.7,245.1 L187.0,245.0 L187.2,245.0 L187.5,244.9 L188.3,244.8 L190.9,244.9 L191.2,244.8 L191.6,244.7 L192.0,244.4 L192.1,244.3 L192.4,243.8 L192.5,243.7 L192.5,243.5 L192.6,243.3 L192.5,243.0 L192.5,242.7 L192.4,242.6 L192.3,242.4 L190.9,241.1 L190.7,240.9 L190.5,240.7 L190.2,240.0 L190.1,239.8 L190.0,239.3 L190.0,239.1 L190.1,238.8 L190.3,238.5 L190.5,238.2 L190.7,238.0 L190.8,237.9 L191.1,237.8 L191.8,237.6 L192.1,237.4 L192.8,237.4 L193.0,237.3 L193.2,237.2 L193.3,237.0 L193.4,236.7 L193.4,236.4 L193.3,236.0 L192.9,235.2 L192.7,234.6 L192.6,234.3 L192.6,234.1 L192.6,233.8 L193.0,231.8 L193.1,231.7 L194.0,230.2 L194.1,230.0 L194.2,229.9 L194.7,229.5 L194.8,229.4 L194.8,229.3 L194.8,229.2 L194.7,229.2 L194.6,229.2 L193.7,230.1 L192.7,231.3 L192.4,231.7 L191.4,233.6 L191.3,233.9 L191.1,234.6 L191.1,235.0 L191.1,235.2 L191.2,235.5 L191.2,235.6 L191.1,235.8 L190.9,235.9 L190.8,235.9 L190.6,235.8 L190.4,235.7 L190.2,235.6 L190.1,235.6 L189.5,235.9 L188.1,236.5 L187.4,236.7 L186.9,236.9 L186.7,237.1 L186.6,237.1 L186.5,237.2 L186.4,237.1 L186.4,237.1 L186.4,237.0 L186.4,236.9 L186.5,236.8 L188.0,235.9 L188.3,235.7 L188.4,235.6 L188.7,235.3 L188.9,235.0 L189.0,234.7 L189.2,234.1 L189.2,233.7 L189.3,233.4 L189.6,233.0 L189.9,232.1 L190.1,231.7 L190.2,231.6 L190.2,231.1 L190.3,230.9 L190.6,230.6 L190.6,230.5 L190.6,230.0 L190.6,229.7 L190.6,229.3 L190.6,229.1 L190.7,228.9 L191.7,226.9 L191.9,226.6 L192.0,226.3 L192.9,225.3 L193.1,225.2 L193.3,225.0 L194.0,224.8 L194.2,224.8 L194.2,224.7 L194.4,224.4 L194.6,224.2 L194.7,224.1 L195.0,224.0 L195.7,224.0 L195.8,224.0 L196.0,223.9 L196.3,223.7 L196.4,223.7 L196.6,223.6 L198.3,223.7 L198.4,223.7 L198.5,223.6 L198.7,223.4 L198.7,223.3 L199.0,222.5 L199.2,222.2 L199.3,222.0 L199.6,221.8 L200.1,221.3 L200.3,220.9 L200.5,220.6 L200.7,220.4 L200.8,220.1 L200.9,219.4 L201.0,219.0 L200.9,218.9 L200.9,218.8 L200.8,218.7 L200.8,218.3 L200.9,217.9 L200.9,217.7 L200.8,217.2 L201.0,217.0 L201.8,216.3 L202.5,215.7 L202.7,215.6 L202.8,215.5 L203.2,215.1 L203.3,215.1 L203.4,215.0 L203.5,214.9 L204.1,214.7 L204.4,214.6 L205.7,213.7 L206.1,213.3 L206.5,213.0 L206.7,212.6 L206.9,212.5 L207.0,212.4 L207.2,212.3 L207.6,212.2 L208.0,212.2 L208.3,212.1 L208.9,211.9 L209.0,211.8 L209.1,211.8 L209.1,211.8 L209.3,211.9 L209.5,211.8 L209.6,211.8 L209.6,211.8 L209.5,211.7 L209.4,211.5 L209.4,211.4 L209.2,211.0 L208.8,210.2 L208.5,209.8 L208.3,209.7 L208.3,209.7 L207.5,209.3 L207.0,209.1 L206.7,209.0 L206.1,208.7 L205.7,208.5 L205.2,208.1 L205.0,208.0 L204.9,207.8 L204.7,207.7 L204.7,207.5 L204.6,207.0 L204.5,206.8 L204.3,206.4 L204.2,206.2 L203.8,205.8 L202.6,204.5 L202.2,203.8 L202.0,203.6 L201.9,203.4 L201.7,203.3 L201.5,203.1 L200.7,202.7 L198.7,201.3 L198.6,201.2 L198.4,201.0 L198.3,200.7 L198.2,200.5 L198.2,200.3 L198.4,199.4 L198.4,199.3 L198.4,199.1 L198.3,199.0 L198.2,199.0 L198.1,199.0 L198.0,199.1 L197.7,199.3 L197.5,199.4 L197.4,199.4 L197.3,199.3 L197.2,199.1 L197.2,198.6 L197.0,198.2 L196.8,198.0 L196.5,197.7 L196.0,197.4 L195.8,197.2 L195.7,197.1 L195.6,197.0 L195.5,196.5 L195.5,196.4 L195.4,196.4 L195.4,196.4 L195.3,196.4 L195.1,196.5 L195.0,196.5 L194.9,196.5 L194.0,196.1 L193.7,196.0 L193.5,195.8 L192.3,194.9 L192.2,194.7 L192.1,194.3 L192.0,194.0 L191.9,192.8 L191.8,192.6 L191.7,192.6 L191.6,192.5 L191.4,192.5 L191.3,192.5 L191.2,192.5 L191.1,192.6 L191.0,192.8 L190.8,193.6 L190.7,193.8 L190.6,193.9 L190.4,194.0 L190.1,194.1 L189.1,194.1 L187.9,194.2 L187.8,194.2 L187.3,194.5 L187.0,194.6 L186.8,194.7 L186.4,194.7 L186.1,194.6 L185.8,194.6 L185.4,194.4 L185.1,194.2 L184.8,194.0 L184.7,193.8 L184.5,193.5 L184.2,192.9 L183.8,191.5 L183.5,191.0 L183.4,190.9 L183.3,190.8 L183.1,190.7 L183.0,190.7 L182.9,190.7 L182.7,190.8 L182.6,190.9 L182.6,191.1 L182.5,191.3 L182.5,191.6 L182.5,191.8 L182.6,192.6 L182.7,192.7 L182.6,192.8 L182.5,192.9 L182.2,193.2 L181.9,193.4 L181.7,193.7 L181.5,194.3 L181.3,194.5 L181.1,194.7 L180.9,194.8 L180.6,194.9 L180.2,194.9 L180.0,194.8 L179.8,194.7 L179.1,194.2 L178.9,194.1 L178.8,193.8 L178.6,193.6 L178.4,193.2 L178.3,192.9 L178.2,192.5 L178.2,192.0 L178.1,191.3 L177.7,189.3 L177.4,186.9 L177.3,186.6 L177.2,186.3 L177.1,186.2 L176.9,186.0 L176.4,185.5 L176.3,185.4 L176.0,185.3 L175.5,185.2 L175.4,185.2 L175.0,184.9 L174.9,184.8 L174.7,184.8 L174.6,184.8 L174.5,184.9 L174.3,185.1 L174.3,185.2 L174.3,185.4 L174.5,185.7 L174.5,185.8 L174.5,185.9 L174.5,186.0 L174.4,186.1 L174.3,186.2 L173.8,186.3 L173.1,186.5 L172.8,186.6 L172.5,186.7 L172.2,186.7 L171.8,186.6 L171.5,186.6 L171.1,186.5 L171.0,186.4 L170.8,186.4 L170.3,186.2 L169.8,185.9 L169.7,185.9 L169.3,185.7 L168.8,185.5 L168.7,185.5 L168.2,185.4 L168.0,185.4 L167.9,185.3 L167.8,185.3 L167.7,185.3 L167.6,185.3 L167.5,185.2 L167.4,185.1 L167.3,185.0 L167.3,184.9 L167.3,184.8 L167.5,184.1 L167.7,183.9 L167.8,183.6 L168.0,183.4 L168.1,183.2 L168.2,183.0 L168.2,182.8 L168.5,181.3 L168.6,180.5 L168.7,180.1 L168.7,179.2 L168.6,177.8 L168.6,177.4 L168.6,177.1 L168.7,176.8 L168.8,176.5 L169.1,176.0 L169.4,175.7 L169.8,175.2 L169.9,175.0 L170.3,174.8 L170.4,174.7 L170.5,174.6 L170.5,174.5 L170.6,174.3 L170.5,174.1 L170.4,174.0 L170.3,174.0 L170.2,173.9 L170.0,173.9 L169.7,173.8 L169.3,173.7 L168.9,173.6 L168.7,173.6 L168.4,173.7 L168.0,173.7 L167.5,173.8 L167.1,173.8 L166.7,173.7 L166.3,173.6 L166.1,173.4 L165.9,173.2 L165.4,172.6 L165.2,172.2 L165.1,172.1 L165.0,171.7 L165.0,171.4 L165.0,171.2 L165.2,169.9 L165.3,169.4 L165.4,169.1 L165.5,169.0 L165.9,168.5 L166.2,168.1 L167.3,166.8 L167.5,166.5 L167.6,166.4 L167.6,166.2 L167.6,166.1 L167.6,165.8 L167.5,165.6 L167.3,165.3 L167.0,165.0 L166.0,164.2 L165.5,163.7 L165.1,163.4 L165.0,163.3 L164.7,163.3 L164.0,163.2 L163.8,163.1 L163.6,163.1 L163.5,162.9 L163.4,162.9 L163.2,162.6 L163.2,162.4 L163.2,162.3 L163.2,162.1 L163.3,161.7 L163.6,161.1 L163.7,160.9 L164.0,160.1 L164.2,159.6 L164.3,159.2 L164.3,158.8 L164.3,158.2 L164.2,157.7 L164.0,157.0 L164.0,156.6 L164.0,156.4 L164.1,156.1 L164.3,155.3 L164.8,153.6 L164.9,153.2 L164.8,152.9 L165.0,152.9 L165.0,152.6 L164.9,152.5 L165.0,152.4 L165.2,152.3 L165.3,152.2 L165.4,152.3 L165.6,152.4 L166.1,152.8 L166.3,152.9 L167.5,153.4 L167.6,153.4 L167.8,153.5 L168.6,153.8 L168.8,153.9 L168.9,154.0 L169.3,154.6 L170.2,155.6 L170.5,155.9 L170.6,155.9 L171.2,156.1 L171.4,156.2 L171.5,156.3 L171.6,156.5 L171.6,156.8 L171.6,157.1 L171.6,157.3 L171.6,157.5 L171.9,158.4 L171.9,158.7 L171.9,159.0 L172.1,159.5 L172.2,159.6 L172.5,159.6 L172.9,159.6 L173.4,159.3 L175.3,158.7 L176.4,158.4 L176.5,158.4 L176.7,158.4 L176.7,158.4 L176.8,158.5 L176.8,158.6 L176.8,158.7 L176.8,159.0 L176.8,159.1 L176.9,159.3 L177.0,159.4 L177.2,159.5 L177.3,159.4 L177.4,159.3 L177.5,159.2 L177.8,158.7 L178.0,158.6 L178.8,158.2 L179.1,158.1 L179.3,158.1 L179.6,158.1 L179.8,158.2 L180.0,158.3 L180.1,158.4 L180.1,158.4 L180.2,158.6 L180.3,159.1 L180.4,159.2 L180.5,159.3 L180.6,159.3 L180.7,159.2 L181.0,158.8 L181.2,158.6 L181.3,158.5 L181.4,158.5 L182.2,158.1 L182.5,158.0 L182.7,158.0 L182.9,158.1 L183.1,158.2 L183.3,158.3 L184.5,158.3 L184.6,158.3 L184.7,158.4 L184.7,158.5 L184.9,159.3 L185.1,159.6 L185.2,159.6 L185.3,159.7 L185.4,159.7 L185.7,159.5 L185.7,159.4 L185.7,159.1 L185.7,159.0 L185.7,157.9 L185.7,157.6 L185.9,157.3 L186.0,157.1 L186.2,156.9 L186.4,156.7 L187.0,156.4 L187.1,156.4 L187.2,156.4 L187.4,156.4 L187.5,156.4 L187.6,156.4 L187.6,156.3 L187.8,156.4 L188.0,156.6 L188.2,157.0 L188.4,157.3 L188.6,157.5 L188.7,157.6 L188.8,157.7 L189.0,157.8 L189.2,157.9 L189.6,158.3 L189.9,158.5 L190.0,158.6 L190.2,159.1 L190.2,159.2 L190.3,159.2 L190.4,159.2 L190.5,159.2 L190.6,159.1 L190.8,159.1 L190.9,159.1 L191.0,159.1 L191.2,159.1 L191.8,159.5 L191.9,159.6 L191.9,160.0 L192.0,160.1 L192.1,160.2 L192.1,160.2 L192.2,160.2 L192.4,160.1 L192.6,160.0 L192.8,160.0 L193.0,160.1 L193.2,160.0 L193.4,160.0 L193.5,159.9 L194.4,160.0 L195.1,160.1 L195.4,160.2 L195.7,160.2 L196.1,160.1 L197.0,160.1 L197.2,160.1 L197.3,160.2 L197.5,160.5 L197.6,160.8 L197.7,160.8 L197.7,160.8 L197.8,160.8 L197.9,160.7 L198.1,160.3 L198.3,160.2 L198.7,159.9 L199.1,159.7 L199.3,159.6 L199.8,159.6 L200.4,159.5 L200.7,159.5 L201.6,159.7 L201.8,159.8 L202.0,159.9 L202.4,160.3 L202.5,160.3 L202.9,160.3 L203.2,160.3 L203.6,160.4 L203.8,160.5 L204.0,160.7 L204.1,160.8 L204.8,160.9 L205.1,160.9 L205.4,161.0 L205.9,161.2 L206.1,161.4 L206.3,161.5 L206.6,161.6 L207.0,161.6 L207.4,161.6 L207.6,161.6 L207.9,161.7 L208.1,161.9 L208.2,162.0 L208.4,162.0 L208.7,161.8 L208.9,161.8 L209.2,161.8 L209.6,161.9 L209.9,162.0 L210.6,162.0 L210.8,162.0 L211.4,162.0 L211.6,161.9 L211.9,162.0 L212.0,162.0 L212.6,161.9 L213.1,161.7 L213.2,161.6 L213.6,161.5 L213.8,161.4 L214.1,161.2 L214.7,161.1 L214.9,161.0 L215.3,160.8 L215.9,160.7 L216.4,160.5 L216.8,160.5 L217.1,160.5 L217.3,160.4 L217.5,160.0 L217.8,159.8 L218.1,159.7 L218.9,159.7 L219.7,159.9 L220.4,159.9 L220.7,159.8 L220.8,159.7 L221.4,159.1 L221.7,158.9 L221.8,158.8 L222.0,158.8 L222.1,158.8 L222.3,158.8 L222.8,159.2 L223.1,159.5 L223.2,159.6 L223.4,159.6 L223.8,159.7 L224.3,159.7 L224.8,159.7 L225.0,159.6 L225.3,159.4 L225.4,159.2 L225.6,158.9 L225.6,158.8 L225.7,158.8 L225.8,158.8 L226.0,158.8 L226.0,158.9 L226.2,159.1 L226.3,159.4 L226.4,159.5 L226.8,159.7 L227.1,160.0 L227.1,160.0 L227.3,160.1 L227.5,160.3 L227.6,160.4 L227.7,160.4 L227.8,160.5 L228.0,160.5 L228.1,160.4 L228.5,160.0 L228.8,159.9 L229.3,159.6 L229.4,159.5 L229.7,159.2 L230.1,158.6 L230.2,158.3 L230.5,157.7 L230.6,157.6 L230.7,157.4 L230.8,157.3 L231.0,157.3 L231.9,157.1 L232.2,157.1 L232.9,157.1 L234.6,157.2 L234.8,157.2 L235.0,157.1 L235.3,157.0 L235.7,156.8 L237.3,155.6 L237.7,155.2 L238.4,154.4 L238.6,154.3 L240.4,153.3 L240.8,153.2 L241.6,153.0 L242.7,152.6 L243.4,152.4 L243.8,152.3 L246.4,151.8 L247.6,151.6 L248.9,151.4 L249.2,151.2 L249.5,151.1 L250.5,150.0 L250.7,149.8 L250.9,149.7 L251.2,149.6 L251.9,149.4 L252.2,149.3 L252.4,149.2 L252.7,149.0 L253.0,148.6 L253.3,148.3 L253.4,148.1 L253.5,147.8 L253.5,147.6 L253.5,146.9 L253.5,146.8 L253.5,146.6 L253.5,146.0 L253.5,146.0 L253.5,145.8 L253.4,145.5 L253.4,145.3 L253.4,145.1 L253.4,144.8 L253.8,144.2 L253.9,143.6 L254.2,143.0 L254.2,142.9 L254.3,142.8 L254.5,142.7 L254.8,142.6 L255.1,142.5 L255.6,142.4 L255.8,142.3 L256.3,142.3 L256.4,142.3 L256.9,142.4 L257.1,142.5 L257.7,142.5 L258.2,142.5 L258.4,142.6 L258.6,142.6 L258.7,142.7 L258.8,142.7 L258.8,142.6 L259.1,142.6 L259.3,142.6 L259.7,142.6 L259.6,142.4 L259.5,141.9 L259.4,141.7 L259.3,141.1 L259.1,140.7 L258.7,139.9 L258.6,139.6 L258.4,139.3 L258.3,139.0 L257.8,138.5 L257.6,138.2 L257.4,137.8 L257.3,137.7 L257.1,137.4 L257.0,137.1 L257.0,136.5 L257.0,135.8 L257.1,135.4 L257.1,134.9 L257.3,134.5 L257.3,134.3 L257.3,134.2 L257.3,134.0 L257.3,133.9 L257.1,133.4 L256.6,132.7 L256.4,132.3 L256.3,131.9 L256.2,131.2 L256.0,131.0 L255.6,130.6 L255.4,130.5 L255.2,130.4 L255.0,130.4 L254.6,130.0 L254.2,129.8 L253.8,129.7 L253.4,129.4 L253.0,129.1 L252.0,128.2 L251.8,128.0 L251.7,127.6 L251.6,127.2 L251.5,126.7 L251.6,126.4 L251.7,126.1 L252.1,125.0 L252.1,124.8 L251.9,124.5 L251.9,124.4 L251.9,124.1 L251.9,124.0 L251.8,123.7 L251.5,123.4 L251.3,123.2 L251.2,123.1 L251.0,122.9 L251.0,122.7 L250.9,122.5 L251.0,122.0 L251.0,121.6 L251.0,120.6 L251.0,120.3 L251.0,119.9 L250.9,119.3 L250.9,119.1 L250.9,118.9 L251.0,118.7 L251.1,118.5 L251.5,118.2 L251.9,117.9 L252.3,117.6 L252.4,117.5 L252.5,117.4 L252.6,117.1 L252.7,117.0 L252.7,116.8 L252.7,116.6 L252.7,116.4 L252.6,116.0 L252.1,114.9 L252.0,114.5 L252.0,114.4 L251.8,114.3 L251.5,114.0 L250.8,113.2 L250.0,112.4 L249.6,112.2 L249.3,111.9 L249.0,111.6 L248.8,111.6 L248.7,111.6 L248.5,111.6 L248.4,111.6 L248.3,111.5 L248.2,111.4 L248.2,111.3 L248.3,111.2 L248.4,111.0 L248.5,110.6 L248.7,110.1 L249.1,108.7 L249.2,108.3 L249.1,107.6 L249.1,107.1 L249.2,106.7 L249.5,105.1 L249.6,104.7 L249.6,104.6 L250.4,103.6 L250.8,103.2 L251.3,102.6 L251.4,102.5 L251.7,102.3 L252.1,102.2 L252.3,102.1 L252.5,102.0 L252.5,101.9 L252.7,101.4 L252.8,101.2 L253.2,100.8 L253.3,100.7 L253.3,100.6 L253.3,100.3 L252.9,99.4 L252.8,99.2 L252.6,99.0 L252.5,98.9 L252.4,98.7 L252.4,98.5 L252.4,98.3 L253.0,97.2 L253.1,97.0 L253.3,96.9 L253.7,96.8 L254.2,96.4 L254.5,96.2 L254.9,96.1 L255.0,96.1 L255.1,96.1 L255.4,96.3 L255.6,96.4 L255.8,96.4 L256.0,96.3 L256.2,96.3 L256.4,96.1 L256.6,96.0 L256.8,95.8 L256.9,95.7 L256.9,95.3 L257.0,95.1 L257.1,94.9 L257.1,94.7 L257.0,94.5 L256.4,93.8 L256.0,93.5 L255.8,93.3 L255.8,92.9 L255.6,92.3 L255.6,92.1 L255.7,91.8 L255.7,91.3 L255.7,91.0 L255.7,90.7 L255.5,90.2 L255.2,89.4 L255.1,89.2 L255.2,88.8 L255.2,88.7 L255.3,88.5 L255.7,88.2 L256.1,87.9 L256.2,87.9 L256.4,87.8 L256.7,87.8 L257.4,87.5 L257.6,87.3 L257.7,87.0 L257.8,86.6 L257.8,86.4 L257.4,85.4 L257.4,85.2 L257.0,84.9 L257.0,84.8 L257.0,84.7 L257.0,84.6 L257.0,84.6 L257.2,84.3 L257.2,84.2 L257.2,84.1 L257.1,84.0 L256.8,84.0 L256.2,84.0 L255.9,84.0 L255.7,83.9 L255.5,83.8 L255.3,83.6 L255.2,83.4 L255.1,83.3 L254.7,83.2 L254.4,83.1 L254.3,83.1 L254.1,83.1 L254.0,83.3 L253.8,83.4 L253.5,83.6 L252.7,83.9 L252.3,84.2 L252.0,84.4 L251.5,84.6 L251.2,84.8 L251.0,84.9 L251.0,84.9 L250.9,84.8 L250.8,84.7 L250.8,84.7 L250.8,84.3 L250.8,83.9 L250.8,83.3 L250.8,83.2 L251.1,82.5 L251.4,81.5 L251.6,81.2 L251.8,80.8 L252.2,80.2 L252.4,80.0 L252.6,79.9 L253.1,79.3 L253.9,78.2 L254.3,77.7 L254.8,77.0 L255.0,76.6 L255.1,76.4 L255.2,76.1 L255.3,75.6 L255.2,74.5 L254.9,73.4 L254.9,73.4 L254.8,73.3 L254.8,73.1 L254.7,72.9 L254.6,72.4 L254.6,72.2 L254.6,72.1 L254.6,72.0 L254.5,72.0 L254.5,72.0 L254.4,72.0 L254.3,72.1 L253.9,72.0 L253.8,72.1 L253.8,71.8 L253.8,71.7 L253.7,71.5 L253.6,71.3 L253.5,71.2 L253.4,71.2 L253.3,71.2 L253.2,71.2 L252.8,71.4 L252.8,71.5 L252.5,71.5 L252.5,71.5 L252.4,71.4 L252.4,71.3 L252.4,71.2 L252.5,71.2 L252.3,71.1 L252.0,71.2 L251.8,70.5 L251.7,70.1 L251.6,69.9 L251.6,69.8 L251.7,69.6 L251.8,69.4 L251.7,69.0 L251.6,68.8 L251.5,68.6 L251.4,68.6 L251.3,68.5 L250.8,68.6 L250.6,68.5 L250.2,68.1 L249.8,67.8 L249.6,67.5 L249.4,67.3 L249.2,67.2 L248.6,67.1 L248.5,67.1 L248.4,67.0 L248.3,66.8 L248.3,66.6 L248.3,66.5 L248.4,66.4 L248.4,66.2 L248.4,66.2 L248.2,65.8 L248.1,65.4 L248.0,65.3 L248.1,65.1 L248.0,65.0 L247.6,64.4 L247.5,64.2 L247.2,64.1 L247.0,63.9 L247.0,63.9 L246.7,63.8 L246.4,63.6 L246.4,63.5 L246.1,63.6 L246.0,63.6 L245.4,63.5 L245.2,63.4 L245.0,63.3 L244.7,63.0 L244.6,62.9 L244.6,62.8 L244.5,62.6 L244.3,62.4 L244.0,62.0 L244.0,61.9 L244.0,61.7 L243.9,61.6 L243.8,61.5 L243.6,61.4 L243.6,61.3 L243.4,60.9 L243.1,60.5 L243.0,60.4 L242.9,60.4 L242.7,60.3 L242.5,60.1 L242.4,60.0 L242.3,59.8 L242.3,59.6 L242.3,59.4 L242.4,59.3 L242.4,59.1 L242.5,59.0 L242.4,58.9 L242.3,58.8 L242.2,58.6 L242.1,58.4 L242.1,58.2 L242.1,58.1 L241.9,57.8 L241.8,57.4 L241.7,57.3 L241.4,57.2 L240.3,56.9 L240.2,56.9 L240.0,56.9 L239.9,56.9 L239.7,56.8 L239.6,56.7 L239.6,56.6 L239.7,56.1 L239.7,55.9 L239.6,55.7 L239.3,55.3 L239.1,55.1 L238.8,54.9 L238.6,54.8 L238.5,54.8 L238.4,54.9 L238.1,55.2 L238.0,55.2 L237.9,55.2 L237.8,55.2 L237.5,54.9 L237.4,54.8 L237.2,54.7 L237.1,54.7 L237.0,54.6 L236.9,54.5 L236.8,54.3 L236.8,54.2 L236.7,54.1 L236.6,54.0 L236.3,54.0 L235.9,53.9 L235.3,53.5 L234.8,53.4 L234.2,53.4 L234.2,53.4 L234.1,53.4 L234.1,53.3 L234.1,53.0 L234.1,52.8 L234.1,52.4 L233.9,52.3 L233.7,52.1 L233.2,51.7 L233.0,51.5 L232.8,51.2 L232.7,51.2 L232.6,50.7 L232.6,50.6 L232.6,50.6 L232.7,50.5 L232.8,50.5 L233.6,50.4 L234.0,50.3 L234.1,50.3 L234.2,50.2 L234.2,50.2 L234.2,50.0 L234.2,49.7 L234.1,49.2 L234.2,49.1 L234.3,49.0 L234.3,48.9 L234.3,48.8 L234.3,48.7 L234.2,48.5 L233.9,48.3 L233.9,48.2 L233.9,48.1 L233.9,48.1 L234.0,47.8 L234.1,47.7 L234.2,47.6 L234.3,47.6 L234.9,47.5 L235.1,47.4 L235.2,47.4 L235.3,47.3 L235.4,47.2 L235.5,46.7 L235.5,46.4 L235.5,45.9 L235.5,45.8 L235.2,45.3 L235.1,45.2 L235.2,45.1 L235.3,45.0 L235.6,45.0 L235.8,44.9 L235.8,44.8 L235.9,44.7 L235.9,44.3 L235.9,44.2 L236.0,44.1 L236.2,44.0 L236.4,44.1 L236.6,44.1 L236.7,44.1 L236.8,44.0 L236.9,43.8 L237.0,43.8 L237.7,43.8 L238.1,43.7 L238.2,43.7 L238.3,43.8 L238.4,43.8 L238.4,43.9 L238.5,44.0 L238.4,44.2 L238.4,44.3 L238.4,44.4 L238.5,44.4 L238.6,44.4 L238.7,44.4 L238.7,44.2 L238.7,44.1 L238.6,43.9 L238.4,43.6 L238.3,43.5 L238.2,43.5 L238.1,43.4 L236.9,43.3 L236.5,43.4 L236.4,43.5 L236.0,43.3 L235.8,43.3 L235.7,43.3 L235.5,43.5 L235.5,43.6 L235.4,43.8 L235.4,43.9 L235.2,43.9 L235.2,43.9 L235.0,43.8 L234.9,43.7 L234.8,43.7 L234.7,43.7 L234.7,43.7 L234.6,43.8 L234.5,44.0 L233.9,44.5 L233.5,45.0 L233.5,45.1 L233.5,45.2 L233.7,45.7 L233.7,45.8 L233.7,45.9 L233.6,45.9 L233.4,45.9 L233.2,45.9 L232.1,45.8 L231.9,45.8 L231.7,45.9 L231.5,46.0 L231.3,46.1 L231.0,46.7 L230.9,46.9 L230.7,46.9 L230.5,47.0 L229.9,47.1 L229.7,47.1 L229.4,47.0 L229.3,47.0 L229.2,47.0 L229.0,46.9 L228.8,46.9 L228.5,46.9 L228.2,47.0 L227.7,47.2 L227.3,47.3 L227.0,47.5 L226.8,47.6 L226.6,47.7 L226.3,48.0 L226.2,48.1 L226.1,48.1 L226.0,48.1 L226.0,48.0 L225.8,47.8 L225.6,47.6 L225.3,47.0 L225.3,46.9 L225.1,46.8 L225.0,46.7 L224.9,46.7 L224.7,46.8 L224.6,46.9 L224.5,47.2 L224.4,47.2 L224.4,47.2 L224.3,47.2 L224.2,47.2 L224.0,47.0 L223.7,46.8 L223.6,46.8 L223.6,46.6 L223.6,46.6 L223.8,46.4 L223.9,46.3 L223.9,46.1 L223.9,46.0 L223.9,45.7 L223.8,45.5 L223.7,45.3 L223.6,45.1 L223.5,44.8 L223.4,44.5 L223.4,44.4 L223.5,44.3 L223.6,44.0 L223.9,43.5 L224.1,43.0 L224.2,42.9 L224.2,42.7 L224.2,42.6 L224.1,42.5 L224.0,42.2 L223.7,41.7 L223.7,41.6 L223.6,41.2 L223.6,40.9 L223.7,40.7 L223.8,40.4 L224.0,40.0 L224.1,39.9 L224.4,39.7 L224.5,39.7 L224.6,39.4 L224.7,38.9 L224.7,38.8 L224.7,38.6 L224.5,38.3 L224.4,38.2 L224.3,38.1 L224.1,38.1 L224.0,38.1 L223.9,38.0 L223.9,37.8 L224.0,37.7 L224.1,37.7 L224.4,37.6 L224.5,37.5 L224.5,37.4 L224.6,37.0 L224.8,36.4 L224.8,36.0 L224.8,35.8 L224.6,35.3 L224.6,35.2 L224.6,35.0 L224.7,34.6 L224.7,34.5 L224.6,34.2 L224.6,34.1 L224.6,33.9 L224.8,33.5 L225.0,33.1 L225.1,32.9 L225.1,32.6 L225.1,32.5 L224.9,32.2 L224.8,32.0 L224.6,31.5 L224.5,31.3 L224.2,31.0 L224.1,30.8 L224.1,30.7 L224.1,30.4 L224.0,29.9 L223.9,29.5 L223.9,29.5 L223.8,29.4 L223.8,29.3 L223.8,29.2 L223.9,28.8 L224.0,28.5 L224.0,28.2 L223.8,27.5 L223.8,26.6 L223.8,26.4 L223.7,26.2 L223.4,25.6 L222.8,24.8 L222.6,24.5 L222.5,24.2 L222.4,24.0 L222.4,23.5 L222.2,22.8 L222.2,22.4 L222.1,22.3 L222.0,21.9 L221.9,21.7 L221.8,21.6 L221.6,21.5 L221.1,21.2 L220.8,20.9 L220.4,20.7 L219.9,20.5 L219.0,20.4 L218.8,20.4 L218.1,20.5 L217.6,20.4 L217.2,20.3 L217.1,20.3 L217.0,20.3 L217.0,20.2 L216.8,20.2 L216.8,20.1 L216.5,20.0 L216.4,19.9 L216.3,19.8 L216.2,19.5 L216.1,19.3 L215.8,19.1 L215.4,19.0 L215.2,18.8 L214.9,18.7 L214.4,18.6 L214.3,18.5 L214.2,18.4 L213.9,17.9 L213.8,17.6 L213.7,17.5 L213.5,17.4 L213.4,17.4 L213.1,17.6 L212.8,17.6 L212.6,17.7 L212.0,17.7 L211.6,17.6 L211.1,17.5 L210.7,17.4 L210.6,17.4 L210.3,17.3 L210.1,17.2 L210.2,17.1 L210.3,16.9 L210.4,16.7 L210.4,16.6 L210.4,16.1 L210.4,16.0 L210.5,15.8 L211.2,14.8 L211.7,13.8 L211.9,13.4 L212.2,13.0 L212.6,12.5 L212.9,12.2 L213.4,11.8 L213.8,11.5 L214.2,11.2 L214.5,11.1 L214.7,10.8 L214.7,10.7 L214.7,10.6 L214.7,10.5 L214.6,10.5 L214.5,10.4 L214.2,10.5 L214.1,10.5 L213.7,10.3 L213.6,10.3 L213.5,10.3 L213.1,10.6 L212.9,10.9 L212.9,10.9 L212.8,10.8 L212.8,10.8 L212.8,10.7 L213.1,10.5 L213.2,10.3 L213.4,10.0" fill="transparent" id="track" stroke="black" stroke-width="2"/>
<g>
<circle cx="170.171" cy="389.176" fill="Gray" id="wp-0/circle" r="2.000"/>
<text font-size="16.0" id="wp-1/text" text-anchor="end" x="163.171" y="397.176">
Walke
</text>
<circle cx="182.110" cy="324.854" fill="Blue" id="wp-1/circle" r="3.000"/>
<text font-size="16.0" id="wp-2/text" text-anchor="start" x="186.499" y="322.854">
Freiersberg
</text>
<circle cx="156.336" cy="310.286" fill="Gray" id="wp-2/circle" r="2.000"/>
<text font-size="16.0" id="wp-3/text" text-anchor="start" x="61.894" y="328.286">
Bad Peterstal
</text>
<circle cx="175.799" cy="290.058" fill="Gray" id="wp-3/circle" r="2.000"/>
<text font-size="16.0" id="wp-4/text" text-anchor="end" x="168.799" y="293.058">
Bad Griesbach
</text>
<circle cx="201.585" cy="261.914" fill="Blue" id="wp-4/circle" r="3.000"/>
<text font-size="16.0" id="wp-5/text" text-anchor="start" x="205.574" y="264.914">
Alexanderschanze
</text>
<circle cx="208.878" cy="211.233" fill="Gray" id="wp-5/circle" r="2.000"/>
<text font-size="16.0" id="wp-6/text" text-anchor="start" x="212.162" y="209.233">
Obertal
</text>
<circle cx="209.378" cy="211.404" fill="Black" id="wp-6/circle" r="4.000"/>
<text font-size="16.0" id="wp-7/text" text-anchor="start" x="206.767" y="229.404">
K3
</text>
<circle cx="164.811" cy="152.778" fill="Blue" id="wp-7/circle" r="3.000"/>
<text font-size="16.0" id="wp-8/text" text-anchor="start" x="116.527" y="145.778">
Seibelseckle
</text>
<circle cx="167.556" cy="185.255" fill="Blue" id="wp-8/circle" r="3.000"/>
<text font-size="16.0" id="wp-9/text" text-anchor="start" x="102.651" y="203.255">
Ruhestein
</text>
<circle cx="257.665" cy="141.540" fill="Gray" id="wp-9/circle" r="2.000"/>
<text font-size="16.0" id="wp-10/text" text-anchor="start" x="262.107" y="154.540">
Schönmünzach
</text>
<circle cx="243.155" cy="60.517" fill="Gray" id="wp-10/circle" r="2.000"/>
<text font-size="16.0" id="wp-11/text" text-anchor="start" x="149.281" y="83.517">
Bermersbach
</text>
<circle cx="239.926" cy="45.294" fill="Red" id="wp-11/circle" r="3.000"/>
<text font-size="16.0" id="wp-12/text" text-anchor="start" x="246.105" y="43.294">
Hartkopf
</text>
<circle cx="229.072" cy="46.973" fill="Blue" id="wp-12/circle" r="3.000"/>
<text font-size="16.0" id="wp-13/text" text-anchor="start" x="150.167" y="64.973">
Rote Lache
</text>
<circle cx="253.703" cy="73.840" fill="Gray" id="wp-13/circle" r="2.000"/>
<text font-size="16.0" id="wp-14/text" text-anchor="start" x="256.967" y="71.840">
Forbach
</text>
<circle cx="281.103" cy="388.588" fill="Gray" id="wp-14/circle" r="5.000"/>
<text font-size="16.0" id="wp-19/text" text-anchor="start" x="287.692" y="396.588">
Alpirsbach
</text>
<circle cx="131.875" cy="266.532" fill="Gray" id="wp-15/circle" r="5.000"/>
<text font-size="16.0" id="wp-20/text" text-anchor="end" x="124.875" y="264.532">
Oppenau
</text>
<circle cx="286.021" cy="277.277" fill="Gray" id="wp-16/circle" r="5.000"/>
<text font-size="16.0" id="wp-21/text" text-anchor="start" x="282.810" y="295.277">
Freudenstadt
</text>
<circle cx="261.533" cy="236.540" fill="Gray" id="wp-17/circle" r="5.000"/>
<text font-size="16.0" id="wp-22/text" text-anchor="start" x="265.996" y="234.540">
Baiersbronn
</text>
<circle cx="112.962" cy="59.188" fill="Gray" id="wp-18/circle" r="5.000"/>
<text font-size="16.0" id="wp-23/text" text-anchor="start" x="116.846" y="57.188">
Bühl
</text>
</g>
<g>
<g/>
<g/>
<g/>
<g/>
<g/>
<g/>
<g/>
<g/>
<g/>
<g/>
<g/>
</g>
</svg>