<svg height="400" viewBox="(0, 0, 400, 400)" width="400" xmlns="http://www.w3.org/2000/svg">
<path d="M143.5,365.7 L143.7,365.6 L143.9,365.6 L144.1,365.7 L144.7,365.8 L145.0,365.9 L145.1,366.1 L145.2,366.3 L145.1,366.6 L144.9,367.0 L144.9,367.1 L144.7,367.4 L144.6,367.5 L144.6,367.7 L144.7,367.8 L144.9,367.9 L145.6,368.2 L145.8,368.3 L146.8,368.4 L147.0,368.4 L147.1,368.3 L147.1,368.2 L147.0,367.8 L147.0,367.4 L146.9,367.3 L146.8,367.1 L146.8,367.0 L146.9,366.6 L147.1,366.2 L147.1,366.0 L147.0,365.8 L147.1,365.6 L147.2,365.4 L147.3,365.3 L147.9,365.6 L148.0,365.6 L148.2,365.8 L148.4,365.9 L148.7,366.0 L148.8,366.0 L149.2,366.1 L149.5,366.1 L149.8,366.1 L150.2,366.1 L150.9,366.2 L151.3,366.3 L151.5,366.2 L151.7,366.1 L151.9,366.0 L152.1,366.0 L152.2,366.1 L152.2,366.2 L152.0,366.4 L151.8,366.6 L151.4,366.9 L151.2,366.9 L151.0,367.0 L150.8,367.0 L150.2,367.1 L150.2,367.2 L150.1,367.2 L150.1,367.3 L150.2,367.4 L150.3,367.5 L150.4,367.4 L150.9,367.5 L151.4,367.5 L151.7,367.5 L152.0,367.4 L152.7,367.1 L153.3,367.1 L153.6,367.1 L154.2,367.0 L154.3,367.0 L154.4,367.0 L154.8,367.3 L155.3,367.5 L155.7,367.7 L155.9,367.7 L156.4,367.8 L156.6,367.8 L156.7,367.8 L157.1,368.0 L157.5,368.4 L157.6,368.4 L157.9,368.7 L158.3,369.1 L158.6,369.3 L159.0,369.5 L159.7,369.6 L160.1,369.9 L160.4,370.1 L160.5,370.3 L160.7,370.6 L161.2,370.8 L161.8,371.0 L162.4,371.3 L163.4,371.5 L163.6,371.6 L163.9,371.9 L164.0,372.0 L164.1,372.1 L164.3,372.2 L165.4,373.0 L166.3,373.4 L166.4,373.4 L166.7,373.4 L166.8,373.4 L167.4,373.4 L167.8,373.5 L167.9,373.5 L167.9,373.5 L168.0,373.5 L168.0,373.5 L168.3,373.8 L168.4,374.0 L168.4,374.2 L168.4,374.3 L168.5,374.5 L168.8,374.8 L169.3,375.6 L169.3,375.7 L169.4,375.9 L169.4,376.1 L169.3,376.5 L169.4,376.6 L169.5,376.9 L169.6,376.9 L169.7,377.2 L169.9,377.3 L170.2,377.5 L170.3,377.7 L170.3,377.8 L170.4,378.1 L170.4,378.3 L170.5,378.5 L170.8,379.0 L170.9,379.1 L171.3,379.5 L171.4,379.5 L171.4,379.7 L171.5,379.8 L171.6,379.8 L172.0,379.9 L172.4,380.0 L172.8,380.0 L173.0,380.0 L173.1,379.9 L173.3,379.9 L173.5,379.8 L173.8,379.6 L173.9,379.5 L174.1,379.2 L174.2,379.0 L174.6,378.3 L174.7,378.2 L175.2,378.2 L175.4,378.1 L175.5,378.0 L175.7,377.8 L176.1,377.3 L176.7,376.7 L177.0,376.2 L177.2,376.1 L177.5,375.9 L177.9,375.8 L178.1,375.7 L178.3,375.6 L178.7,375.2 L179.2,374.8 L179.4,374.6 L179.6,374.2 L179.7,374.0 L179.8,373.7 L180.8,372.6 L180.9,372.5 L181.1,372.3 L181.2,372.1 L181.4,371.9 L181.5,371.8 L181.8,371.7 L182.1,371.7 L182.4,371.6 L182.7,371.5 L183.1,371.2 L183.3,371.1 L183.4,371.1 L183.7,371.1 L183.9,371.1 L184.6,371.3 L184.8,371.3 L184.9,371.3 L185.3,371.4 L185.9,371.6 L186.0,371.6 L186.3,371.6 L186.5,371.5 L187.8,371.2 L188.0,371.2 L188.3,371.0 L188.7,370.6 L189.5,369.9 L189.9,369.6 L190.2,369.4 L190.9,369.1 L191.2,368.9 L191.3,368.9 L191.4,368.8 L191.9,368.2 L192.1,368.0 L192.3,367.9 L192.5,367.8 L192.9,367.8 L193.4,367.7 L193.6,367.8 L194.3,367.8 L194.6,367.8 L194.9,367.7 L195.1,367.6 L195.2,367.5 L195.5,366.9 L195.7,366.7 L195.8,366.6 L195.8,366.6 L196.1,366.4 L197.0,365.8 L197.1,365.8 L197.2,365.7 L197.3,365.7 L198.0,365.2 L198.2,365.1 L198.4,364.9 L199.5,363.7 L199.5,363.6 L199.7,363.4 L200.2,363.0 L200.2,362.9 L200.3,362.7 L200.4,362.6 L200.5,362.4 L200.7,362.3 L201.2,361.9 L201.5,361.6 L201.7,361.3 L202.0,360.8 L202.5,360.0 L202.8,359.7 L203.2,359.4 L203.4,359.3 L203.7,359.1 L203.9,359.0 L204.1,358.8 L204.2,358.6 L204.3,358.3 L204.3,358.1 L204.3,357.9 L204.2,357.7 L204.0,357.4 L204.0,357.2 L203.9,357.0 L203.9,356.8 L204.0,356.6 L204.1,356.3 L204.3,356.0 L204.6,355.9 L204.9,355.7 L205.3,355.5 L205.5,355.3 L205.6,355.2 L205.6,355.1 L205.6,355.0 L205.7,354.8 L205.7,354.6 L205.7,354.4 L205.6,354.2 L205.0,354.3 L204.8,354.3 L204.5,354.3 L203.7,354.2 L203.4,354.1 L203.3,354.1 L203.2,354.0 L203.0,353.7 L202.3,353.3 L202.1,353.1 L201.8,352.5 L201.6,352.3 L200.3,351.2 L199.9,351.0 L199.8,350.8 L199.7,350.7 L199.7,350.5 L199.8,350.2 L199.9,350.0 L200.4,349.7 L200.4,349.6 L200.4,349.5 L200.4,349.5 L200.4,349.4 L200.3,349.2 L200.1,349.0 L199.6,348.5 L199.2,348.1 L199.0,347.9 L198.9,347.7 L198.9,347.5 L198.9,347.3 L198.9,347.1 L198.8,347.0 L198.6,346.8 L198.5,346.6 L198.5,346.5 L198.5,346.3 L198.5,346.1 L198.8,345.6 L198.9,345.4 L198.9,345.3 L198.8,344.9 L198.7,344.9 L198.7,344.7 L198.7,344.7 L198.5,344.5 L198.5,344.4 L198.5,344.3 L198.7,343.9 L198.8,343.7 L198.7,343.4 L198.7,343.3 L198.6,343.2 L198.6,343.2 L198.4,343.0 L198.3,343.0 L198.0,342.9 L197.9,342.8 L197.9,342.7 L197.5,341.7 L197.4,341.6 L197.4,341.5 L197.6,341.2 L197.6,340.9 L197.7,340.7 L197.9,340.6 L198.0,340.4 L198.1,340.0 L198.3,339.6 L198.3,339.4 L198.4,339.1 L198.4,338.8 L198.4,338.3 L198.5,338.0 L198.6,337.6 L198.7,336.8 L198.7,336.6 L198.7,336.5 L198.6,336.3 L198.5,336.3 L198.2,336.2 L198.1,336.1 L198.0,336.0 L197.9,335.4 L197.9,335.3 L197.8,335.2 L197.7,335.2 L197.5,335.2 L197.2,335.2 L197.1,335.2 L196.8,335.1 L196.6,334.9 L196.5,334.7 L196.4,334.4 L196.3,334.3 L196.2,334.2 L196.0,334.1 L195.9,334.1 L195.3,334.1 L195.1,334.1 L194.9,334.0 L194.5,333.9 L194.4,333.8 L194.4,333.8 L194.3,333.8 L194.2,333.7 L194.2,333.6 L194.0,333.2 L193.9,332.7 L193.7,332.5 L193.3,332.2 L192.8,331.7 L192.6,331.3 L192.4,331.1 L191.9,330.5 L191.7,330.2 L191.7,330.0 L191.7,329.4 L191.7,329.2 L191.5,328.5 L191.3,327.6 L191.2,326.9 L191.1,326.6 L191.1,326.3 L191.1,326.2 L191.1,326.2 L191.1,326.0 L191.4,325.3 L191.5,325.1 L191.5,324.5 L191.7,323.7 L191.7,323.6 L191.6,323.5 L191.6,323.5 L191.5,323.5 L191.5,323.6 L191.5,324.0 L191.3,324.4 L191.2,324.7 L191.2,324.8 L190.9,325.1 L190.7,325.5 L190.7,325.5 L190.6,325.6 L190.5,325.5 L190.3,325.4 L189.9,325.2 L189.6,325.1 L188.7,325.0 L188.6,325.0 L188.6,324.9 L188.6,324.8 L188.6,324.7 L188.7,324.3 L188.7,324.2 L188.7,324.1 L188.5,324.0 L187.6,323.7 L187.5,323.6 L187.3,323.4 L187.2,323.2 L187.1,323.1 L186.7,322.9 L186.5,322.7 L186.5,322.5 L186.4,322.3 L186.3,322.2 L186.2,322.2 L185.8,322.3 L185.7,322.3 L184.1,321.1 L183.9,320.9 L183.7,320.6 L183.5,320.3 L183.5,320.2 L183.4,320.0 L183.4,319.8 L183.5,319.0 L183.4,318.7 L183.4,318.5 L183.3,318.4 L183.2,318.4 L183.1,318.3 L182.9,318.1 L182.9,318.0 L182.9,317.9 L182.9,317.6 L183.0,317.1 L183.1,317.0 L183.2,316.9 L183.6,316.8 L183.6,316.7 L183.6,316.6 L183.6,316.5 L183.5,316.5 L183.4,316.5 L183.2,316.7 L182.8,317.0 L182.5,317.2 L181.7,318.1 L181.3,318.3 L181.0,318.3 L180.8,318.2 L180.6,318.1 L180.5,318.0 L180.3,317.5 L180.2,317.4 L180.0,317.4 L179.8,317.5 L179.7,317.6 L179.5,317.9 L179.4,318.0 L179.2,318.0 L179.1,317.9 L178.8,317.6 L178.3,317.5 L178.0,317.4 L177.8,317.1 L177.6,316.6 L177.6,316.5 L177.4,316.3 L177.2,316.3 L176.7,316.5 L176.6,316.5 L176.5,316.5 L176.5,316.4 L176.6,316.3 L177.3,316.1 L177.5,316.1 L177.8,316.3 L178.2,316.8 L178.4,316.8 L178.7,316.6 L179.0,316.1 L179.4,316.0 L179.7,315.9 L180.3,316.0 L180.4,316.0 L180.4,315.9 L180.4,315.6 L180.4,315.4 L180.7,314.8 L180.9,314.6 L181.1,314.5 L181.2,314.3 L181.1,314.3 L181.1,314.3 L181.0,314.2 L181.0,314.3 L180.3,315.0 L180.0,315.1 L179.7,315.2 L179.4,315.2 L179.2,315.2 L179.1,315.2 L178.7,314.9 L178.3,314.7 L178.1,314.6 L177.6,314.5 L177.5,314.5 L177.4,314.3 L177.3,314.1 L177.2,314.0 L177.1,314.0 L176.4,313.8 L175.8,313.8 L175.7,313.8 L175.3,313.7 L175.1,313.6 L174.9,313.4 L174.3,312.8 L173.8,312.0 L173.3,311.7 L173.1,311.6 L173.0,311.5 L172.9,311.5 L172.7,311.6 L172.4,311.9 L172.1,312.1 L172.0,312.2 L171.8,312.2 L171.5,312.2 L171.3,312.2 L171.2,312.2 L171.1,312.1 L170.7,311.9 L170.3,311.4 L170.2,311.3 L170.1,311.3 L169.8,311.2 L169.5,311.2 L168.9,311.2 L168.8,311.2 L168.4,311.1 L168.4,311.1 L168.1,311.0 L168.1,311.0 L168.1,310.9 L167.6,310.6 L167.5,310.5 L167.4,310.5 L167.1,310.4 L166.7,310.3 L166.5,310.3 L165.9,310.0 L165.6,309.8 L165.2,309.5 L164.9,309.4 L164.4,308.9 L164.3,308.8 L164.2,308.7 L163.7,308.3 L163.4,308.0 L163.1,307.6 L163.0,307.4 L162.9,307.3 L162.8,307.2 L162.6,307.1 L162.4,307.1 L162.1,307.1 L162.0,307.1 L161.7,307.0 L161.6,306.9 L161.4,306.6 L161.3,306.5 L161.3,306.3 L161.1,305.8 L160.9,305.5 L160.8,305.4 L160.8,305.3 L160.5,305.1 L160.4,305.1 L160.4,304.9 L160.4,304.6 L160.4,304.5 L160.2,304.3 L160.2,304.2 L160.0,303.9 L160.4,303.8 L160.6,303.7 L160.6,303.7 L160.7,303.7 L160.7,303.7 L160.9,303.6 L160.9,303.6 L161.0,303.6 L161.1,303.5 L161.2,303.5 L161.3,303.4 L161.7,303.1 L162.4,302.7 L162.9,302.4 L163.3,302.1 L163.4,302.0 L163.5,301.8 L163.5,301.7 L163.6,301.4 L163.6,301.1 L163.6,301.0 L163.6,300.8 L164.0,300.2 L164.2,299.9 L164.3,299.9 L164.5,299.7 L165.4,299.3 L165.5,299.2 L165.7,299.0 L165.9,298.6 L166.0,298.5 L166.1,298.3 L166.2,298.1 L166.3,298.1 L166.7,297.8 L166.9,297.6 L167.3,297.1 L167.3,297.1 L168.1,295.9 L169.0,295.1 L169.1,295.0 L169.2,294.8 L169.4,294.5 L169.7,294.2 L169.9,294.0 L170.1,293.9 L170.1,293.8 L170.2,293.7 L170.2,293.3 L170.2,293.1 L170.2,292.9 L170.4,292.7 L170.5,292.6 L170.8,292.3 L171.2,292.1 L171.4,292.1 L171.5,292.0 L171.7,292.0 L172.1,292.1 L172.3,292.1 L172.5,292.0 L172.6,291.9 L172.8,291.7 L172.8,291.5 L173.0,291.3 L173.3,291.1 L173.7,290.8 L173.8,290.7 L173.9,290.6 L173.9,290.4 L173.9,290.1 L173.9,289.6 L173.8,289.1 L173.9,288.6 L173.9,288.5 L174.0,288.0 L174.0,287.6 L174.2,287.1 L174.2,287.0 L174.2,286.6 L174.3,286.3 L174.4,286.2 L174.5,286.2 L174.7,286.1 L174.8,286.1 L174.9,286.1 L175.0,286.2 L175.2,286.3 L175.3,286.3 L175.6,286.3 L176.1,286.2 L176.7,285.9 L176.8,285.9 L177.1,285.7 L177.6,285.6 L177.8,285.6 L178.0,285.5 L178.2,285.4 L178.2,285.4 L178.3,285.3 L178.5,285.2 L178.7,285.0 L178.9,284.9 L179.0,284.8 L179.1,284.7 L179.1,284.6 L179.2,284.5 L179.1,284.0 L179.2,283.8 L179.3,283.6 L179.5,283.4 L179.7,283.3 L179.8,283.2 L179.9,283.2 L180.5,283.5 L180.5,283.5 L180.7,283.5 L180.9,283.6 L181.3,283.6 L181.7,283.7 L181.9,283.8 L182.6,284.0 L182.7,284.0 L183.3,284.2 L183.9,284.4 L184.0,284.4 L184.6,284.9 L184.7,285.0 L184.8,285.0 L185.3,285.0 L185.9,285.1 L186.7,285.3 L186.9,285.4 L187.2,285.6 L187.4,285.9 L187.6,286.2 L188.1,286.5 L188.5,286.8 L188.6,286.8 L188.9,286.9 L189.2,286.9 L189.6,286.9 L189.7,286.9 L189.8,286.8 L189.8,286.7 L189.8,286.7 L189.8,286.6 L189.7,286.6 L189.6,286.6 L189.1,286.5 L189.0,286.5 L188.9,286.4 L188.6,286.2 L188.3,285.8 L188.3,285.7 L188.3,285.5 L188.3,285.4 L188.5,285.0 L188.6,284.6 L188.7,284.4 L188.9,284.2 L189.1,284.0 L189.3,283.9 L189.5,283.8 L189.7,283.6 L189.8,283.6 L189.8,283.6 L189.8,283.7 L189.6,283.8 L189.5,284.0 L189.1,284.6 L189.1,284.7 L189.1,284.7 L189.2,284.8 L189.2,284.7 L189.4,284.4 L189.6,284.2 L190.6,283.6 L190.9,283.4 L191.0,283.2 L191.0,283.1 L191.0,283.0 L191.0,282.9 L191.0,282.8 L190.8,282.6 L190.5,282.4 L190.3,282.3 L190.1,282.2 L189.8,282.1 L189.4,282.0 L189.4,281.9 L189.4,281.9 L189.5,281.8 L190.0,282.0 L190.1,282.1 L190.2,282.0 L190.2,282.0 L190.2,281.9 L190.0,281.9 L189.9,281.8 L189.8,281.8 L189.8,281.7 L189.8,281.1 L189.8,280.0 L189.7,279.9 L189.5,279.7 L189.3,279.6 L188.8,279.4 L188.5,279.3 L188.5,279.2 L188.4,279.2 L188.4,279.1 L188.5,279.0 L188.8,278.6 L188.9,278.5 L189.1,278.4 L190.0,278.2 L190.7,278.0 L190.7,278.0 L190.8,278.1 L190.8,278.1 L190.7,278.1 L190.6,278.2 L190.4,278.3 L189.8,278.6 L189.7,278.7 L189.7,278.8 L189.8,278.8 L189.8,278.8 L189.9,278.8 L190.1,278.7 L190.3,278.6 L191.1,278.4 L191.4,278.2 L192.1,277.7 L192.5,277.4 L192.6,277.3 L192.6,277.2 L192.6,277.0 L192.5,276.2 L192.4,275.6 L192.2,274.9 L192.1,274.4 L192.1,274.1 L192.1,273.8 L192.3,273.5 L193.0,272.8 L193.5,272.3 L194.2,271.6 L194.3,271.5 L194.6,270.9 L194.8,270.3 L195.2,269.0 L195.3,268.5 L195.2,267.8 L195.2,267.7 L195.1,267.5 L194.8,267.2 L194.3,266.6 L194.1,266.4 L194.1,266.2 L194.6,265.3 L194.7,265.1 L195.0,264.4 L195.1,264.0 L195.3,263.8 L195.5,263.6 L196.5,263.1 L196.8,262.9 L197.2,262.6 L197.4,262.4 L198.4,261.5 L198.6,261.3 L199.0,261.0 L200.6,259.5 L200.7,259.4 L200.7,259.3 L200.8,259.3 L200.8,259.3 L201.0,259.1 L201.4,258.7 L201.5,258.7 L201.3,258.5 L201.1,258.3 L200.9,258.0 L200.8,257.8 L200.9,257.8 L200.8,257.5 L200.6,257.0 L200.6,256.9 L200.5,256.1 L200.5,256.1 L200.5,256.0 L200.5,255.8 L200.4,255.7 L200.0,253.4 L199.9,253.0 L199.9,252.8 L199.6,252.4 L199.3,252.0 L199.2,251.7 L199.1,251.7 L198.5,251.0 L198.2,250.9 L197.8,250.5 L197.6,250.2 L197.2,249.4 L196.9,248.5 L196.8,248.3 L196.7,248.1 L196.4,247.7 L196.3,247.6 L196.0,247.4 L195.4,247.2 L195.1,247.1 L194.9,247.1 L194.7,247.1 L194.4,247.2 L193.8,247.4 L193.6,247.5 L193.5,247.4 L193.3,247.4 L193.1,247.3 L192.3,246.7 L191.4,246.0 L191.4,245.9 L191.0,245.6 L190.6,245.5 L190.0,245.3 L189.6,245.2 L189.2,245.1 L188.8,245.1 L188.4,245.1 L187.9,245.1 L187.2,245.2 L186.9,245.3 L186.6,245.4 L186.6,245.3 L186.6,244.8 L186.7,243.8 L186.8,243.4 L186.8,243.3 L187.0,243.1 L187.1,243.0 L187.4,242.8 L187.6,242.6 L187.8,242.6 L188.1,242.5 L189.0,242.5 L191.4,242.5 L191.6,242.5 L192.1,242.3 L192.4,242.1 L192.5,242.0 L192.8,241.5 L192.9,241.4 L192.9,241.2 L192.9,241.0 L192.9,240.7 L192.9,240.5 L192.8,240.4 L192.7,240.2 L191.4,239.0 L191.2,238.7 L191.0,238.5 L190.7,237.9 L190.6,237.7 L190.6,237.3 L190.6,237.1 L190.6,236.7 L190.8,236.4 L191.0,236.2 L191.2,236.0 L191.3,235.9 L191.6,235.8 L192.2,235.6 L192.6,235.5 L193.2,235.4 L193.4,235.3 L193.5,235.2 L193.6,235.1 L193.8,234.8 L193.8,234.5 L193.7,234.1 L193.3,233.4 L193.1,232.8 L193.0,232.5 L193.0,232.3 L193.0,232.0 L193.4,230.2 L193.5,230.0 L194.3,228.6 L194.4,228.4 L194.5,228.3 L195.0,227.9 L195.1,227.8 L195.1,227.7 L195.1,227.7 L195.0,227.7 L194.9,227.7 L194.0,228.5 L193.1,229.6 L192.8,230.0 L191.8,231.9 L191.7,232.2 L191.6,232.8 L191.5,233.1 L191.6,233.3 L191.6,233.7 L191.6,233.7 L191.6,233.9 L191.4,234.0 L191.3,234.0 L191.1,233.9 L190.9,233.8 L190.7,233.8 L190.6,233.8 L190.0,234.0 L188.7,234.6 L188.0,234.8 L187.6,235.0 L187.4,235.1 L187.3,235.2 L187.2,235.2 L187.1,235.2 L187.1,235.1 L187.1,235.0 L187.1,235.0 L187.2,234.8 L188.6,234.0 L188.9,233.9 L189.0,233.7 L189.3,233.4 L189.5,233.2 L189.6,232.9 L189.8,232.3 L189.8,231.9 L189.9,231.7 L190.1,231.2 L190.5,230.4 L190.6,230.1 L190.7,229.9 L190.7,229.5 L190.8,229.3 L191.1,229.0 L191.1,228.9 L191.1,228.4 L191.1,228.2 L191.1,227.7 L191.1,227.6 L191.2,227.4 L192.1,225.5 L192.3,225.2 L192.4,224.9 L193.3,224.0 L193.4,223.9 L193.7,223.7 L194.3,223.5 L194.5,223.5 L194.6,223.4 L194.7,223.1 L194.9,222.9 L195.0,222.9 L195.3,222.8 L195.9,222.7 L196.0,222.7 L196.2,222.6 L196.5,222.5 L196.6,222.4 L196.7,222.4 L198.4,222.5 L198.5,222.5 L198.6,222.4 L198.8,222.2 L198.8,222.1 L199.0,221.3 L199.2,221.1 L199.3,220.9 L199.6,220.6 L200.1,220.2 L200.3,219.8 L200.5,219.5 L200.7,219.3 L200.8,219.0 L200.9,218.4 L200.9,218.0 L200.9,217.9 L200.8,217.8 L200.8,217.8 L200.7,217.3 L200.8,216.9 L200.8,216.8 L200.7,216.3 L200.9,216.1 L201.7,215.5 L202.4,214.9 L202.6,214.7 L202.7,214.6 L203.1,214.3 L203.1,214.3 L203.2,214.2 L203.4,214.1 L203.8,213.9 L204.2,213.8 L205.4,213.0 L205.8,212.6 L206.1,212.3 L206.4,212.0 L206.5,211.8 L206.6,211.7 L206.8,211.6 L207.2,211.6 L207.5,211.5 L207.9,211.4 L208.4,211.3 L208.6,211.2 L208.6,211.2 L208.7,211.2 L208.9,211.2 L209.0,211.2 L209.1,211.2 L209.1,211.1 L209.0,211.1 L208.9,210.9 L208.9,210.8 L208.8,210.4 L208.3,209.7 L208.0,209.2 L207.9,209.1 L207.9,209.1 L207.1,208.8 L206.7,208.6 L206.4,208.5 L205.8,208.3 L205.4,208.0 L204.9,207.7 L204.8,207.6 L204.6,207.4 L204.5,207.3 L204.4,207.1 L204.3,206.7 L204.3,206.4 L204.1,206.1 L204.0,205.9 L203.6,205.5 L202.4,204.3 L202.1,203.6 L201.9,203.4 L201.8,203.2 L201.6,203.1 L201.4,202.9 L200.7,202.6 L198.8,201.2 L198.6,201.1 L198.5,200.9 L198.4,200.7 L198.3,200.5 L198.3,200.3 L198.5,199.5 L198.5,199.3 L198.5,199.2 L198.4,199.1 L198.3,199.0 L198.2,199.1 L198.1,199.1 L197.8,199.4 L197.7,199.4 L197.6,199.4 L197.5,199.3 L197.4,199.2 L197.3,198.6 L197.1,198.3 L197.0,198.1 L196.7,197.8 L196.2,197.5 L196.0,197.4 L195.9,197.3 L195.8,197.1 L195.8,196.7 L195.7,196.6 L195.7,196.6 L195.6,196.5 L195.5,196.6 L195.4,196.7 L195.3,196.7 L195.1,196.7 L194.3,196.3 L194.1,196.2 L193.8,196.1 L192.7,195.2 L192.6,195.0 L192.5,194.6 L192.4,194.3 L192.3,193.1 L192.2,193.0 L192.2,193.0 L192.0,192.9 L191.9,192.9 L191.8,192.9 L191.7,192.9 L191.6,193.0 L191.5,193.1 L191.3,193.9 L191.2,194.1 L191.1,194.2 L190.9,194.3 L190.6,194.4 L189.7,194.4 L188.5,194.5 L188.4,194.6 L188.0,194.8 L187.7,194.9 L187.5,195.0 L187.1,195.0 L186.8,194.9 L186.5,194.9 L186.1,194.7 L185.8,194.5 L185.6,194.3 L185.5,194.1 L185.3,193.8 L185.1,193.2 L184.6,192.0 L184.4,191.5 L184.3,191.3 L184.2,191.2 L184.0,191.2 L183.9,191.2 L183.8,191.2 L183.6,191.3 L183.6,191.4 L183.5,191.5 L183.4,191.7 L183.4,192.0 L183.4,192.3 L183.6,193.0 L183.6,193.1 L183.5,193.2 L183.5,193.3 L183.1,193.5 L182.9,193.8 L182.7,194.0 L182.4,194.6 L182.3,194.8 L182.1,194.9 L181.9,195.1 L181.6,195.1 L181.3,195.1 L181.0,195.1 L180.9,195.0 L180.2,194.5 L180.1,194.4 L179.9,194.2 L179.7,193.9 L179.6,193.6 L179.5,193.3 L179.4,192.9 L179.3,192.4 L179.3,191.7 L178.9,189.8 L178.6,187.6 L178.5,187.3 L178.4,187.0 L178.3,186.9 L178.1,186.7 L177.6,186.3 L177.5,186.2 L177.3,186.1 L176.8,186.0 L176.7,185.9 L176.4,185.7 L176.2,185.6 L176.1,185.6 L175.9,185.6 L175.8,185.7 L175.7,185.9 L175.7,186.0 L175.7,186.2 L175.8,186.4 L175.9,186.6 L175.9,186.7 L175.8,186.8 L175.7,186.9 L175.6,186.9 L175.2,187.0 L174.5,187.3 L174.2,187.3 L173.9,187.4 L173.7,187.4 L173.3,187.3 L173.0,187.3 L172.6,187.2 L172.5,187.1 L172.3,187.1 L171.9,186.9 L171.4,186.7 L171.3,186.6 L170.9,186.5 L170.4,186.3 L170.4,186.2 L169.8,186.1 L169.7,186.1 L169.6,186.1 L169.5,186.1 L169.4,186.1 L169.3,186.0 L169.2,186.0 L169.1,185.9 L169.0,185.8 L169.0,185.7 L169.0,185.6 L169.3,185.0 L169.4,184.7 L169.5,184.5 L169.7,184.2 L169.8,184.1 L169.9,183.9 L169.9,183.7 L170.2,182.3 L170.3,181.6 L170.3,181.2 L170.4,180.3 L170.3,178.9 L170.2,178.6 L170.3,178.3 L170.3,178.0 L170.5,177.7 L170.7,177.3 L171.0,176.9 L171.4,176.5 L171.5,176.3 L171.8,176.1 L171.9,176.0 L172.0,175.9 L172.1,175.8 L172.1,175.7 L172.1,175.5 L172.0,175.4 L171.9,175.3 L171.7,175.3 L171.6,175.2 L171.3,175.2 L170.9,175.0 L170.5,175.0 L170.3,175.0 L170.1,175.0 L169.7,175.1 L169.2,175.2 L168.8,175.2 L168.5,175.1 L168.1,175.0 L167.9,174.8 L167.7,174.6 L167.2,174.1 L167.0,173.7 L166.9,173.6 L166.8,173.2 L166.8,172.9 L166.9,172.7 L167.0,171.5 L167.2,171.0 L167.3,170.8 L167.3,170.6 L167.7,170.1 L168.0,169.8 L169.0,168.5 L169.2,168.3 L169.3,168.1 L169.3,167.9 L169.3,167.8 L169.3,167.6 L169.2,167.4 L169.0,167.1 L168.7,166.8 L167.8,166.1 L167.3,165.6 L166.9,165.3 L166.8,165.3 L166.6,165.2 L165.9,165.1 L165.7,165.1 L165.6,165.0 L165.4,164.9 L165.3,164.8 L165.2,164.6 L165.1,164.4 L165.1,164.2 L165.1,164.1 L165.2,163.7 L165.5,163.1 L165.6,163.0 L165.9,162.2 L166.1,161.8 L166.1,161.3 L166.2,160.9 L166.2,160.4 L166.1,160.0 L165.9,159.2 L165.9,158.9 L165.9,158.7 L165.9,158.4 L166.1,157.7 L166.6,156.1 L166.7,155.7 L166.7,155.4 L166.8,155.3 L166.8,155.1 L166.8,155.0 L166.8,154.9 L167.0,154.8 L167.1,154.7 L167.3,154.8 L167.4,154.9 L167.9,155.3 L168.1,155.4 L169.3,155.8 L169.3,155.9 L169.5,156.0 L170.3,156.2 L170.4,156.3 L170.6,156.5 L170.9,157.0 L171.8,157.9 L172.0,158.2 L172.1,158.2 L172.7,158.4 L172.9,158.5 L173.0,158.6 L173.1,158.7 L173.1,159.0 L173.1,159.4 L173.1,159.5 L173.1,159.8 L173.3,160.6 L173.4,160.9 L173.4,161.2 L173.5,161.6 L173.6,161.7 L173.9,161.7 L174.3,161.7 L174.8,161.5 L176.6,160.9 L177.6,160.6 L177.8,160.6 L177.9,160.6 L177.9,160.6 L178.0,160.7 L178.0,160.7 L178.0,160.9 L178.0,161.2 L178.0,161.3 L178.1,161.5 L178.2,161.6 L178.4,161.6 L178.5,161.6 L178.5,161.5 L178.6,161.3 L179.0,160.9 L179.2,160.8 L179.9,160.4 L180.2,160.3 L180.4,160.3 L180.7,160.3 L180.9,160.4 L181.0,160.5 L181.1,160.5 L181.2,160.6 L181.2,160.8 L181.3,161.2 L181.4,161.4 L181.5,161.4 L181.7,161.4 L181.7,161.4 L182.0,161.0 L182.2,160.8 L182.3,160.7 L182.4,160.6 L183.1,160.3 L183.4,160.2 L183.6,160.2 L183.8,160.3 L183.9,160.4 L184.2,160.5 L185.3,160.5 L185.4,160.5 L185.5,160.6 L185.5,160.7 L185.7,161.4 L185.9,161.7 L186.0,161.8 L186.1,161.8 L186.2,161.8 L186.4,161.7 L186.5,161.5 L186.5,161.3 L186.5,161.2 L186.5,160.1 L186.5,159.8 L186.6,159.5 L186.7,159.4 L186.9,159.2 L187.1,159.0 L187.7,158.7 L187.8,158.7 L187.9,158.7 L188.1,158.7 L188.2,158.7 L188.3,158.7 L188.3,158.6 L188.5,158.7 L188.6,158.9 L188.9,159.2 L189.0,159.5 L189.2,159.7 L189.3,159.9 L189.4,159.9 L189.6,160.0 L189.7,160.1 L190.2,160.5 L190.4,160.7 L190.5,160.8 L190.7,161.2 L190.8,161.3 L190.8,161.4 L190.9,161.4 L191.0,161.4 L191.1,161.3 L191.2,161.2 L191.4,161.2 L191.5,161.2 L191.7,161.3 L192.3,161.6 L192.4,161.7 L192.4,162.1 L192.4,162.2 L192.5,162.3 L192.6,162.3 L192.6,162.3 L192.8,162.2 L193.0,162.1 L193.1,162.1 L193.4,162.2 L193.5,162.1 L193.7,162.1 L193.9,162.0 L194.7,162.1 L195.4,162.2 L195.7,162.3 L195.9,162.3 L196.3,162.2 L197.1,162.2 L197.3,162.2 L197.5,162.3 L197.7,162.5 L197.7,162.8 L197.8,162.9 L197.9,162.9 L198.0,162.9 L198.0,162.7 L198.2,162.4 L198.4,162.3 L198.7,162.0 L199.1,161.8 L199.4,161.7 L199.8,161.7 L200.4,161.6 L200.6,161.7 L201.5,161.9 L201.7,161.9 L201.9,162.1 L202.3,162.4 L202.4,162.4 L202.8,162.4 L203.1,162.4 L203.4,162.5 L203.6,162.6 L203.7,162.8 L203.9,162.8 L204.6,163.0 L204.8,163.0 L205.1,163.1 L205.5,163.2 L205.8,163.4 L206.0,163.5 L206.3,163.6 L206.7,163.6 L207.0,163.6 L207.2,163.7 L207.4,163.7 L207.7,163.9 L207.8,164.0 L207.9,164.0 L208.2,163.8 L208.4,163.8 L208.7,163.8 L209.1,163.9 L209.4,164.0 L210.0,164.0 L210.2,164.0 L210.8,164.0 L211.0,164.0 L211.3,164.0 L211.4,164.0 L211.9,163.9 L212.4,163.7 L212.5,163.6 L212.9,163.6 L213.1,163.4 L213.4,163.3 L213.9,163.1 L214.1,163.0 L214.5,162.9 L215.1,162.8 L215.5,162.6 L215.9,162.6 L216.2,162.6 L216.4,162.5 L216.6,162.1 L216.9,161.9 L217.1,161.8 L217.9,161.8 L218.7,162.0 L219.3,162.0 L219.6,161.9 L219.7,161.8 L220.3,161.3 L220.6,161.1 L220.7,161.0 L220.8,160.9 L221.0,160.9 L221.1,161.0 L221.6,161.4 L221.8,161.6 L222.0,161.7 L222.1,161.8 L222.6,161.8 L223.0,161.9 L223.5,161.8 L223.7,161.7 L223.9,161.5 L224.0,161.4 L224.2,161.1 L224.3,161.0 L224.4,160.9 L224.5,160.9 L224.6,161.0 L224.7,161.1 L224.8,161.3 L224.9,161.5 L225.0,161.7 L225.4,161.9 L225.7,162.1 L225.7,162.1 L225.9,162.2 L226.1,162.4 L226.2,162.5 L226.3,162.5 L226.4,162.5 L226.5,162.5 L226.7,162.5 L227.0,162.1 L227.3,162.0 L227.7,161.8 L227.9,161.6 L228.1,161.4 L228.5,160.8 L228.6,160.5 L228.9,159.9 L229.0,159.8 L229.1,159.6 L229.2,159.6 L229.4,159.5 L230.2,159.4 L230.5,159.3 L231.1,159.4 L232.8,159.4 L233.0,159.4 L233.2,159.4 L233.5,159.3 L233.8,159.1 L235.3,157.9 L235.7,157.6 L236.4,156.8 L236.6,156.7 L238.3,155.8 L238.6,155.7 L239.4,155.5 L240.5,155.1 L241.1,154.9 L241.5,154.8 L244.0,154.3 L245.1,154.1 L246.3,153.9 L246.6,153.8 L246.9,153.7 L247.9,152.6 L248.0,152.5 L248.3,152.3 L248.5,152.3 L249.2,152.1 L249.4,152.0 L249.6,151.9 L249.9,151.7 L250.2,151.3 L250.5,151.0 L250.6,150.8 L250.7,150.6 L250.7,150.4 L250.7,149.7 L250.7,149.6 L250.7,149.4 L250.7,148.9 L250.7,148.8 L250.7,148.7 L250.6,148.4 L250.6,148.2 L250.6,148.0 L250.6,147.7 L250.9,147.1 L251.1,146.6 L251.3,146.0 L251.4,145.9 L251.5,145.8 L251.6,145.7 L251.9,145.6 L252.2,145.5 L252.7,145.4 L252.9,145.4 L253.3,145.3 L253.5,145.3 L253.9,145.5 L254.1,145.5 L254.7,145.6 L255.1,145.6 L255.3,145.6 L255.5,145.7 L255.6,145.7 L255.7,145.7 L255.7,145.6 L256.0,145.6 L256.2,145.6 L256.5,145.6 L256.5,145.5 L256.4,145.0 L256.3,144.8 L256.2,144.2 L256.0,143.8 L255.6,143.0 L255.5,142.8 L255.4,142.5 L255.2,142.2 L254.8,141.7 L254.6,141.5 L254.4,141.1 L254.3,141.0 L254.1,140.7 L254.0,140.4 L254.0,139.9 L254.0,139.2 L254.1,138.8 L254.1,138.3 L254.2,137.9 L254.3,137.8 L254.3,137.6 L254.3,137.5 L254.3,137.4 L254.1,136.9 L253.6,136.2 L253.4,135.9 L253.3,135.5 L253.2,134.8 L253.1,134.6 L252.7,134.2 L252.5,134.1 L252.3,134.1 L252.1,134.0 L251.7,133.7 L251.3,133.5 L251.0,133.4 L250.6,133.1 L250.2,132.8 L249.3,132.0 L249.1,131.8 L249.0,131.5 L248.9,131.0 L248.8,130.6 L248.8,130.3 L249.0,130.0 L249.3,128.9 L249.3,128.8 L249.2,128.5 L249.2,128.3 L249.2,128.1 L249.2,128.0 L249.1,127.8 L248.8,127.4 L248.6,127.3 L248.5,127.2 L248.4,127.0 L248.3,126.8 L248.2,126.5 L248.3,126.1 L248.3,125.7 L248.3,124.8 L248.3,124.5 L248.3,124.1 L248.2,123.6 L248.2,123.3 L248.3,123.1 L248.3,122.9 L248.4,122.8 L248.8,122.5 L249.1,122.3 L249.6,122.0 L249.6,121.9 L249.7,121.8 L249.8,121.5 L249.9,121.3 L250.0,121.2 L250.0,121.0 L249.9,120.8 L249.8,120.5 L249.3,119.4 L249.3,119.0 L249.2,118.9 L249.1,118.8 L248.8,118.5 L248.2,117.8 L247.4,117.0 L247.0,116.8 L246.7,116.5 L246.4,116.3 L246.3,116.2 L246.1,116.2 L246.0,116.3 L245.8,116.3 L245.7,116.2 L245.7,116.1 L245.7,116.0 L245.7,115.8 L245.9,115.7 L245.9,115.4 L246.1,114.8 L246.5,113.5 L246.6,113.1 L246.5,112.5 L246.6,112.0 L246.6,111.6 L246.9,110.1 L247.0,109.7 L247.0,109.6 L247.7,108.7 L248.1,108.3 L248.6,107.8 L248.7,107.6 L249.0,107.5 L249.4,107.3 L249.6,107.2 L249.7,107.1 L249.8,107.0 L250.0,106.6 L250.0,106.4 L250.4,106.0 L250.5,106.0 L250.5,105.8 L250.5,105.6 L250.1,104.7 L250.0,104.5 L249.8,104.3 L249.7,104.2 L249.6,104.0 L249.6,103.9 L249.6,103.7 L250.2,102.6 L250.3,102.5 L250.5,102.4 L250.9,102.2 L251.3,101.9 L251.6,101.7 L252.0,101.6 L252.1,101.6 L252.2,101.6 L252.5,101.7 L252.7,101.8 L252.9,101.8 L253.1,101.8 L253.2,101.7 L253.5,101.6 L253.6,101.5 L253.8,101.3 L253.9,101.2 L253.9,100.8 L254.0,100.7 L254.1,100.4 L254.1,100.2 L254.0,100.1 L253.4,99.4 L253.0,99.1 L252.9,98.9 L252.8,98.5 L252.7,98.0 L252.7,97.7 L252.7,97.5 L252.7,97.0 L252.8,96.7 L252.7,96.4 L252.6,95.9 L252.3,95.2 L252.2,95.0 L252.3,94.7 L252.3,94.5 L252.4,94.4 L252.7,94.1 L253.1,93.8 L253.2,93.8 L253.4,93.7 L253.7,93.7 L254.4,93.4 L254.6,93.2 L254.6,93.0 L254.8,92.6 L254.8,92.4 L254.4,91.4 L254.3,91.3 L254.0,91.0 L254.0,90.9 L254.0,90.8 L254.0,90.7 L254.0,90.6 L254.2,90.4 L254.2,90.3 L254.2,90.2 L254.1,90.1 L253.9,90.1 L253.3,90.1 L252.9,90.1 L252.7,90.0 L252.6,89.9 L252.4,89.7 L252.3,89.5 L252.2,89.4 L251.8,89.3 L251.5,89.2 L251.4,89.2 L251.3,89.3 L251.1,89.5 L251.0,89.6 L250.7,89.7 L249.9,90.0 L249.6,90.3 L249.3,90.5 L248.8,90.7 L248.5,90.9 L248.4,90.9 L248.3,90.9 L248.2,90.9 L248.1,90.8 L248.1,90.7 L248.1,90.4 L248.2,90.0 L248.1,89.5 L248.2,89.3 L248.4,88.7 L248.7,87.8 L248.9,87.5 L249.1,87.1 L249.5,86.5 L249.6,86.3 L249.8,86.2 L250.3,85.7 L251.1,84.6 L251.5,84.2 L251.9,83.5 L252.1,83.1 L252.2,82.9 L252.3,82.6 L252.4,82.1 L252.3,81.1 L252.0,80.1 L252.0,80.0 L251.9,80.0 L251.9,79.8 L251.8,79.6 L251.7,79.1 L251.7,79.0 L251.7,78.8 L251.7,78.8 L251.7,78.7 L251.6,78.8 L251.6,78.8 L251.4,78.8 L251.1,78.8 L251.0,78.8 L251.0,78.6 L251.0,78.5 L250.9,78.2 L250.8,78.1 L250.7,78.0 L250.6,78.0 L250.5,78.0 L250.4,78.0 L250.1,78.2 L250.0,78.2 L249.8,78.2 L249.7,78.2 L249.7,78.2 L249.6,78.1 L249.7,78.0 L249.7,77.9 L249.6,77.9 L249.2,78.0 L249.1,77.3 L249.0,76.9 L248.9,76.7 L248.8,76.7 L249.0,76.5 L249.1,76.2 L249.0,75.9 L248.9,75.7 L248.8,75.6 L248.7,75.5 L248.6,75.5 L248.1,75.5 L248.0,75.4 L247.5,75.0 L247.2,74.7 L247.0,74.5 L246.8,74.3 L246.6,74.2 L246.0,74.1 L246.0,74.1 L245.9,74.0 L245.8,73.8 L245.7,73.6 L245.8,73.5 L245.9,73.4 L245.9,73.3 L245.9,73.2 L245.7,72.9 L245.5,72.5 L245.5,72.4 L245.5,72.2 L245.5,72.1 L245.1,71.5 L245.0,71.4 L244.7,71.2 L244.5,71.1 L244.5,71.0 L244.3,71.0 L244.0,70.7 L243.9,70.7 L243.7,70.8 L243.6,70.8 L243.1,70.6 L242.8,70.6 L242.7,70.5 L242.3,70.2 L242.2,70.1 L242.2,70.0 L242.2,69.8 L242.0,69.6 L241.7,69.3 L241.7,69.2 L241.6,69.0 L241.6,68.9 L241.5,68.8 L241.3,68.7 L241.3,68.6 L241.1,68.2 L240.8,67.8 L240.7,67.8 L240.6,67.8 L240.4,67.7 L240.2,67.5 L240.2,67.4 L240.1,67.2 L240.1,67.0 L240.1,66.8 L240.1,66.7 L240.2,66.5 L240.2,66.4 L240.2,66.3 L240.1,66.2 L240.0,66.1 L239.9,65.9 L239.9,65.7 L239.9,65.5 L239.7,65.3 L239.6,64.9 L239.5,64.8 L239.2,64.7 L238.2,64.4 L238.1,64.4 L237.9,64.4 L237.8,64.4 L237.6,64.4 L237.5,64.2 L237.5,64.1 L237.6,63.6 L237.6,63.5 L237.5,63.3 L237.2,62.9 L237.0,62.7 L236.8,62.5 L236.6,62.4 L236.5,62.5 L236.4,62.5 L236.1,62.8 L236.0,62.9 L235.9,62.9 L235.8,62.8 L235.5,62.5 L235.4,62.4 L235.2,62.4 L235.1,62.3 L235.0,62.2 L235.0,62.1 L234.9,61.9 L234.9,61.9 L234.8,61.8 L234.6,61.7 L234.4,61.7 L234.0,61.5 L233.4,61.2 L233.0,61.1 L232.4,61.1 L232.4,61.1 L232.3,61.1 L232.3,61.0 L232.3,60.8 L232.3,60.5 L232.3,60.1 L232.2,60.0 L231.9,59.9 L231.4,59.5 L231.2,59.3 L231.0,59.1 L231.0,59.0 L230.9,58.6 L230.9,58.5 L230.9,58.4 L230.9,58.4 L231.0,58.3 L231.8,58.2 L232.2,58.2 L232.3,58.2 L232.4,58.1 L232.4,58.1 L232.4,57.9 L232.4,57.6 L232.3,57.1 L232.4,57.1 L232.5,56.9 L232.5,56.8 L232.5,56.8 L232.5,56.6 L232.4,56.5 L232.1,56.3 L232.1,56.2 L232.1,56.1 L232.1,56.1 L232.2,55.8 L232.3,55.7 L232.4,55.7 L232.5,55.6 L233.0,55.5 L233.3,55.5 L233.4,55.4 L233.5,55.3 L233.5,55.2 L233.6,54.8 L233.7,54.5 L233.6,54.0 L233.6,53.9 L233.3,53.4 L233.3,53.3 L233.3,53.2 L233.4,53.1 L233.8,53.1 L233.9,53.0 L234.0,53.0 L234.0,52.9 L234.0,52.5 L234.0,52.4 L234.1,52.3 L234.3,52.2 L234.4,52.3 L234.7,52.3 L234.7,52.3 L234.8,52.2 L235.0,52.0 L235.0,52.0 L235.7,52.0 L236.1,51.9 L236.2,51.9 L236.3,52.0 L236.4,52.0 L236.4,52.1 L236.4,52.2 L236.4,52.4 L236.4,52.5 L236.4,52.6 L236.5,52.6 L236.6,52.6 L236.6,52.6 L236.7,52.4 L236.7,52.3 L236.6,52.1 L236.4,51.8 L236.3,51.8 L236.2,51.7 L236.1,51.7 L234.9,51.6 L234.6,51.7 L234.4,51.7 L234.1,51.6 L233.9,51.5 L233.8,51.6 L233.7,51.7 L233.6,51.8 L233.6,52.0 L233.5,52.1 L233.4,52.1 L233.3,52.1 L233.2,52.0 L233.1,51.9 L233.0,51.9 L232.9,51.9 L232.8,51.9 L232.8,52.0 L232.7,52.2 L232.1,52.7 L231.7,53.2 L231.7,53.2 L231.7,53.4 L231.9,53.8 L231.9,53.9 L231.9,54.0 L231.8,54.0 L231.7,54.0 L231.4,54.0 L230.4,53.9 L230.2,53.9 L230.0,54.0 L229.8,54.1 L229.7,54.2 L229.4,54.7 L229.2,54.9 L229.1,55.0 L228.8,55.1 L228.3,55.1 L228.1,55.1 L227.9,55.1 L227.8,55.1 L227.6,55.0 L227.5,55.0 L227.3,55.0 L227.0,55.0 L226.8,55.1 L226.3,55.3 L225.9,55.4 L225.5,55.5 L225.4,55.6 L225.2,55.7 L224.9,56.0 L224.8,56.1 L224.7,56.1 L224.7,56.1 L224.6,56.0 L224.4,55.8 L224.3,55.6 L224.0,55.1 L224.0,55.0 L223.8,54.8 L223.7,54.8 L223.6,54.8 L223.4,54.9 L223.3,55.0 L223.2,55.2 L223.1,55.2 L223.1,55.3 L223.0,55.3 L222.9,55.3 L222.7,55.0 L222.4,54.9 L222.4,54.8 L222.4,54.7 L222.4,54.6 L222.6,54.5 L222.6,54.4 L222.6,54.2 L222.6,54.1 L222.6,53.8 L222.6,53.6 L222.5,53.5 L222.3,53.2 L222.2,53.0 L222.2,52.7 L222.2,52.6 L222.2,52.5 L222.3,52.3 L222.7,51.7 L222.8,51.3 L222.9,51.1 L222.9,51.0 L222.9,50.9 L222.8,50.8 L222.7,50.5 L222.5,50.1 L222.4,49.9 L222.4,49.5 L222.4,49.3 L222.4,49.1 L222.5,48.8 L222.7,48.5 L222.8,48.4 L223.1,48.2 L223.2,48.1 L223.3,47.9 L223.4,47.4 L223.4,47.3 L223.4,47.1 L223.2,46.8 L223.1,46.7 L223.0,46.7 L222.8,46.6 L222.7,46.6 L222.7,46.5 L222.7,46.4 L222.8,46.3 L222.8,46.2 L223.1,46.1 L223.2,46.1 L223.2,46.0 L223.3,45.6 L223.5,45.0 L223.5,44.6 L223.5,44.5 L223.3,44.0 L223.3,43.8 L223.3,43.7 L223.4,43.3 L223.4,43.2 L223.3,42.9 L223.3,42.8 L223.4,42.6 L223.5,42.3 L223.7,41.9 L223.8,41.7 L223.8,41.4 L223.8,41.3 L223.6,41.0 L223.5,40.9 L223.3,40.3 L223.2,40.2 L222.9,39.9 L222.9,39.7 L222.8,39.6 L222.8,39.3 L222.7,38.9 L222.7,38.5 L222.7,38.4 L222.6,38.3 L222.5,38.3 L222.5,38.2 L222.7,37.9 L222.8,37.5 L222.8,37.3 L222.6,36.6 L222.6,35.7 L222.5,35.5 L222.4,35.3 L222.1,34.8 L221.6,34.0 L221.4,33.7 L221.3,33.5 L221.2,33.3 L221.2,32.8 L221.0,32.1 L221.0,31.8 L221.0,31.7 L220.8,31.2 L220.7,31.1 L220.6,31.0 L220.5,30.9 L220.0,30.7 L219.7,30.4 L219.3,30.1 L218.9,29.9 L218.0,29.9 L217.8,29.9 L217.2,29.9 L216.7,29.9 L216.3,29.8 L216.2,29.7 L216.1,29.7 L216.1,29.7 L216.0,29.6 L215.9,29.6 L215.6,29.5 L215.5,29.4 L215.5,29.3 L215.4,29.0 L215.2,28.8 L215.0,28.6 L214.6,28.5 L214.4,28.3 L214.1,28.2 L213.7,28.1 L213.5,28.1 L213.4,28.0 L213.2,27.4 L213.1,27.2 L213.0,27.1 L212.8,27.0 L212.7,27.1 L212.4,27.2 L212.1,27.2 L211.9,27.3 L211.4,27.3 L211.0,27.2 L210.5,27.1 L210.2,27.1 L210.1,27.0 L209.7,26.9 L209.6,26.8 L209.7,26.8 L209.8,26.6 L209.9,26.4 L209.9,26.2 L209.8,25.8 L209.9,25.7 L209.9,25.5 L210.6,24.5 L211.1,23.6 L211.3,23.2 L211.6,22.8 L212.0,22.4 L212.2,22.1 L212.7,21.7 L213.1,21.4 L213.5,21.2 L213.7,21.0 L213.9,20.8 L214.0,20.6 L213.9,20.6 L213.9,20.5 L213.9,20.4 L213.7,20.4 L213.5,20.5 L213.3,20.5 L213.0,20.2 L212.9,20.3 L212.8,20.3 L212.4,20.6 L212.3,20.8 L212.2,20.8 L212.1,20.8 L212.1,20.7 L212.1,20.7 L212.4,20.5 L212.5,20.3 L212.7,20.0" fill="transparent" id="track" stroke="black" stroke-linejoin="miter" stroke-miterlimit="1" stroke-width="2"/>
<g>
<g>
<circle cx="208.8844440481971" cy="210.80385119913262" fill="Blue" id="wp-347/circle" r="5"/>
</g>
<rect fill="white" fill-opacity="0.75" height="12" id="label-bg" width="15.610526315789485" x="212.8844440481971" y="204.80385119913262"/>
<text font-size="16.0" id="wp-347/text" text-anchor="start" x="212.884" y="216.804">
K3
</text>
<g>
<circle cx="201.96444732038617" cy="360.84614466914354" fill="Black" id="wp-139/circle" r="3"/>
</g>
<rect fill="white" fill-opacity="0.75" height="12" id="label-bg" width="24.610526315789485" x="205.96444732038617" y="364.84614466914354"/>
<text font-size="16.0" id="wp-139/text" text-anchor="start" x="205.964" y="376.846">
P10
</text>
<g>
<circle cx="201.50111974219635" cy="258.65568086396524" fill="Green" id="wp-243/circle" r="3"/>
</g>
<rect fill="white" fill-opacity="0.75" height="12" id="label-bg" width="129.0105263157895" x="205.50111974219635" y="252.65568086396524"/>
<text font-size="16.0" id="wp-243/text" text-anchor="start" x="205.501" y="264.656">
Alexanderschanze
</text>
<g>
<circle cx="166.66286688954915" cy="155.26328192129586" fill="Green" id="wp-394/circle" r="3"/>
</g>
<rect fill="white" fill-opacity="0.75" height="12" id="label-bg" width="86.28421052631577" x="123.52076162639125" y="139.26328192129586"/>
<text font-size="16.0" id="wp-394/text" text-anchor="start" x="123.521" y="151.263">
Seibelseckle
</text>
<g>
<circle cx="169.26368613742488" cy="186.03071166787413" fill="Green" id="wp-407/circle" r="3"/>
</g>
<rect fill="white" fill-opacity="0.75" height="12" id="label-bg" width="67.90526315789474" x="97.35842297953015" y="180.03071166787413"/>
<text font-size="16.0" id="wp-407/text" text-anchor="end" x="165.264" y="192.031">
Ruhestein
</text>
<g>
<circle cx="183.05119164594817" cy="318.2828342486391" fill="Green" id="wp-168/circle" r="3"/>
</g>
<rect fill="white" fill-opacity="0.75" height="12" id="label-bg" width="78.61052631578946" x="187.05119164594817" y="302.2828342486391"/>
<text font-size="16.0" id="wp-168/text" text-anchor="start" x="187.051" y="314.283">
Freiersberg
</text>
<g>
<circle cx="227.54213199826427" cy="55.02693762892886" fill="Green" id="wp-591/circle" r="3"/>
</g>
<rect fill="white" fill-opacity="0.75" height="12" id="label-bg" width="76.90526315789475" x="146.63686884036952" y="59.02693762892886"/>
<text font-size="16.0" id="wp-591/text" text-anchor="end" x="223.542" y="71.027">
Rote Lache
</text>
<g>
<circle cx="237.8250895534684" cy="53.4368541554868" fill="Green" id="wp-585/circle" r="3"/>
</g>
<rect fill="white" fill-opacity="0.75" height="12" id="label-bg" width="56.82105263157894" x="241.8250895534684" y="47.4368541554868"/>
<text font-size="16.0" id="wp-585/text" text-anchor="start" x="241.825" y="59.437">
Hartkopf
</text>
<g>
<circle cx="238.14049116787373" cy="4.509944806159183" fill="Black" id="wp-647/circle" r="5"/>
<circle cx="238.14049116787373" cy="4.509944806159183" fill="white" id="wp-647/circle-little-white" r="3.5"/>
<circle cx="238.14049116787373" cy="4.509944806159183" fill="black" id="wp-647/circle-little-white" r="2.5"/>
</g>
<rect fill="white" fill-opacity="0.75" height="12" id="label-bg" width="75.57894736842104" x="224.5615437994527" y="6.509944806159183"/>
<text font-size="16.0" id="wp-647/text" text-anchor="start" x="224.562" y="18.510">
Gernsbach
</text>
<g>
<circle cx="250.8769344219263" cy="80.47959704220557" fill="Black" id="wp-600/circle" r="4"/>
<circle cx="250.8769344219263" cy="80.47959704220557" fill="white" id="wp-600/circle-little-white" r="2.5"/>
</g>
<rect fill="white" fill-opacity="0.75" height="12" id="label-bg" width="54.73684210526318" x="254.8769344219263" y="74.47959704220557"/>
<text font-size="16.0" id="wp-600/text" text-anchor="start" x="254.877" y="86.480">
Forbach
</text>
<g>
<circle cx="180.06405873775202" cy="6.8176515534869395" fill="Black" id="wp-639/circle" r="5"/>
<circle cx="180.06405873775202" cy="6.8176515534869395" fill="white" id="wp-639/circle-little-white" r="3.5"/>
<circle cx="180.06405873775202" cy="6.8176515534869395" fill="black" id="wp-639/circle-little-white" r="2.5"/>
</g>
<rect fill="white" fill-opacity="0.75" height="12" id="label-bg" width="94.90526315789475" x="86.06405873775202" y="8.81765155348694"/>
<text font-size="16.0" id="wp-639/text" text-anchor="start" x="86.064" y="20.818">
Baden-Baden
</text>
<g>
<circle cx="158.6341659518148" cy="304.4811638955289" fill="Black" id="wp-174/circle" r="4"/>
<circle cx="158.6341659518148" cy="304.4811638955289" fill="white" id="wp-174/circle-little-white" r="2.5"/>
</g>
<rect fill="white" fill-opacity="0.75" height="12" id="label-bg" width="92.44210526315788" x="64.6341659518148" y="290.4811638955289"/>
<text font-size="16.0" id="wp-174/text" text-anchor="start" x="64.634" y="302.481">
Bad Peterstal
</text>
<g>
<circle cx="169.78507036139126" cy="420.55125948887144" fill="Black" id="wp-12/circle" r="5"/>
<circle cx="169.78507036139126" cy="420.55125948887144" fill="white" id="wp-12/circle-little-white" r="3.5"/>
<circle cx="169.78507036139126" cy="420.55125948887144" fill="black" id="wp-12/circle-little-white" r="2.5"/>
</g>
<rect fill="white" fill-opacity="0.75" height="12" id="label-bg" width="52.084210526315786" x="107.78507036139126" y="374.55125948887144"/>
<text font-size="16.0" id="wp-12/text" text-anchor="end" x="159.869" y="386.551">
Wolfach
</text>
<g>
<circle cx="171.74110539228604" cy="379.21973961572803" fill="Black" id="wp-94/circle" r="4"/>
<circle cx="171.74110539228604" cy="379.21973961572803" fill="white" id="wp-94/circle-little-white" r="2.5"/>
</g>
<rect fill="white" fill-opacity="0.75" height="12" id="label-bg" width="38.347368421052636" x="175.74110539228604" y="383.21973961572803"/>
<text font-size="16.0" id="wp-94/text" text-anchor="start" x="175.741" y="395.220">
Walke
</text>
<g>
<circle cx="135.46067806534757" cy="263.03047631427035" fill="Black" id="wp-216/circle" r="5"/>
<circle cx="135.46067806534757" cy="263.03047631427035" fill="white" id="wp-216/circle-little-white" r="3.5"/>
<circle cx="135.46067806534757" cy="263.03047631427035" fill="black" id="wp-216/circle-little-white" r="2.5"/>
</g>
<rect fill="white" fill-opacity="0.75" height="12" id="label-bg" width="62.78947368421052" x="102.67120438113704" y="249.03047631427035"/>
<text font-size="16.0" id="wp-216/text" text-anchor="start" x="102.671" y="261.030">
Oppenau
</text>
<g>
<circle cx="177.07260120185856" cy="285.31854240613757" fill="Black" id="wp-229/circle" r="4"/>
<circle cx="177.07260120185856" cy="285.31854240613757" fill="white" id="wp-229/circle-little-white" r="2.5"/>
</g>
<rect fill="white" fill-opacity="0.75" height="12" id="label-bg" width="102.2" x="70.87260120185856" y="269.31854240613757"/>
<text font-size="16.0" id="wp-229/text" text-anchor="end" x="173.073" y="281.319">
Bad Griesbach
</text>
<g>
<circle cx="258.29444105916446" cy="234.61662113300554" fill="Black" id="wp-348/circle" r="5"/>
<circle cx="258.29444105916446" cy="234.61662113300554" fill="white" id="wp-348/circle-little-white" r="3.5"/>
<circle cx="258.29444105916446" cy="234.61662113300554" fill="black" id="wp-348/circle-little-white" r="2.5"/>
</g>
<rect fill="white" fill-opacity="0.75" height="12" id="label-bg" width="83.53684210526316" x="204.7575989539013" y="236.61662113300554"/>
<text font-size="16.0" id="wp-348/text" text-anchor="start" x="204.758" y="248.617">
Baiersbronn
</text>
<g>
<circle cx="208.41092693625978" cy="210.6421891599166" fill="Black" id="wp-319/circle" r="4"/>
<circle cx="208.41092693625978" cy="210.6421891599166" fill="white" id="wp-319/circle-little-white" r="2.5"/>
</g>
<rect fill="white" fill-opacity="0.75" height="12" id="label-bg" width="49.7157894736842" x="220.6951374625756" y="180.6421891599166"/>
<text font-size="16.0" id="wp-319/text" text-anchor="start" x="220.695" y="192.642">
Obertal
</text>
<g>
<circle cx="254.63005960553346" cy="144.61687823021202" fill="Black" id="wp-438/circle" r="4"/>
<circle cx="254.63005960553346" cy="144.61687823021202" fill="white" id="wp-438/circle-little-white" r="2.5"/>
</g>
<rect fill="white" fill-opacity="0.75" height="12" id="label-bg" width="106.55789473684212" x="258.63005960553346" y="138.61687823021202"/>
<text font-size="16.0" id="wp-438/text" text-anchor="start" x="258.630" y="150.617">
Schönmünzach
</text>
<g>
<circle cx="241.48301368629473" cy="428.03730085669304" fill="Black" id="wp-39/circle" r="5"/>
<circle cx="241.48301368629473" cy="428.03730085669304" fill="white" id="wp-39/circle-little-white" r="3.5"/>
<circle cx="241.48301368629473" cy="428.03730085669304" fill="black" id="wp-39/circle-little-white" r="2.5"/>
</g>
<rect fill="white" fill-opacity="0.75" height="12" id="label-bg" width="61.46315789473684" x="242.0198557915579" y="382.03730085669304"/>
<text font-size="16.0" id="wp-39/text" text-anchor="start" x="242.020" y="394.037">
Schiltach
</text>
<g>
<circle cx="250.8769344219263" cy="80.47959704220557" fill="Black" id="wp-600/circle" r="4"/>
<circle cx="250.8769344219263" cy="80.47959704220557" fill="white" id="wp-600/circle-little-white" r="2.5"/>
</g>
<rect fill="white" fill-opacity="0.75" height="12" id="label-bg" width="54.73684210526318" x="254.8769344219263" y="74.47959704220557"/>
<text font-size="16.0" id="wp-600/text" text-anchor="start" x="254.877" y="86.480">
Forbach
</text>
<g>
<circle cx="158.6341659518148" cy="304.4811638955289" fill="Black" id="wp-174/circle" r="4"/>
<circle cx="158.6341659518148" cy="304.4811638955289" fill="white" id="wp-174/circle-little-white" r="2.5"/>
</g>
<rect fill="white" fill-opacity="0.75" height="12" id="label-bg" width="92.44210526315788" x="64.6341659518148" y="290.4811638955289"/>
<text font-size="16.0" id="wp-174/text" text-anchor="start" x="64.634" y="302.481">
Bad Peterstal
</text>
<g>
<circle cx="171.74110539228604" cy="379.21973961572803" fill="Black" id="wp-94/circle" r="4"/>
<circle cx="171.74110539228604" cy="379.21973961572803" fill="white" id="wp-94/circle-little-white" r="2.5"/>
</g>
<rect fill="white" fill-opacity="0.75" height="12" id="label-bg" width="38.347368421052636" x="175.74110539228604" y="383.21973961572803"/>
<text font-size="16.0" id="wp-94/text" text-anchor="start" x="175.741" y="395.220">
Walke
</text>
<g>
<circle cx="177.07260120185856" cy="285.31854240613757" fill="Black" id="wp-229/circle" r="4"/>
<circle cx="177.07260120185856" cy="285.31854240613757" fill="white" id="wp-229/circle-little-white" r="2.5"/>
</g>
<rect fill="white" fill-opacity="0.75" height="12" id="label-bg" width="102.2" x="70.87260120185856" y="269.31854240613757"/>
<text font-size="16.0" id="wp-229/text" text-anchor="end" x="173.073" y="281.319">
Bad Griesbach
</text>
<g>
<circle cx="208.41092693625978" cy="210.6421891599166" fill="Black" id="wp-319/circle" r="4"/>
<circle cx="208.41092693625978" cy="210.6421891599166" fill="white" id="wp-319/circle-little-white" r="2.5"/>
</g>
<rect fill="white" fill-opacity="0.75" height="12" id="label-bg" width="49.7157894736842" x="220.6951374625756" y="180.6421891599166"/>
<text font-size="16.0" id="wp-319/text" text-anchor="start" x="220.695" y="192.642">
Obertal
</text>
<g>
<circle cx="254.63005960553346" cy="144.61687823021202" fill="Black" id="wp-438/circle" r="4"/>
<circle cx="254.63005960553346" cy="144.61687823021202" fill="white" id="wp-438/circle-little-white" r="2.5"/>
</g>
<rect fill="white" fill-opacity="0.75" height="12" id="label-bg" width="106.55789473684212" x="258.63005960553346" y="138.61687823021202"/>
<text font-size="16.0" id="wp-438/text" text-anchor="start" x="258.630" y="150.617">
Schönmünzach
</text>
</g>
<g>
<g/>
<g/>
<g/>
<g/>
<g/>
</g>
</svg>