<svg height="400" viewBox="(0, 0, 400, 400)" width="400" xmlns="http://www.w3.org/2000/svg">
<path d="M299.5,380.0 L299.5,379.9 L299.4,379.9 L299.2,379.9 L299.2,379.9 L298.8,379.9 L298.8,379.9 L298.8,379.8 L298.5,379.7 L298.3,379.6 L297.9,379.3 L297.7,379.2 L297.0,378.9 L296.9,378.9 L296.8,378.8 L296.7,378.6 L296.7,378.2 L296.7,377.9 L296.6,377.8 L296.4,377.6 L296.2,377.6 L295.9,377.4 L295.7,377.3 L295.6,377.1 L295.5,376.6 L295.4,376.4 L295.4,376.3 L295.2,376.1 L294.9,375.7 L294.8,375.6 L294.4,375.1 L293.9,374.7 L293.8,374.5 L293.7,374.2 L293.6,373.9 L293.6,373.6 L293.6,373.4 L293.7,373.1 L294.0,372.5 L294.2,371.9 L294.3,371.4 L294.4,371.2 L294.5,370.4 L294.6,370.2 L294.4,369.9 L294.3,369.7 L294.0,369.2 L293.9,368.8 L293.8,368.5 L293.4,365.1 L293.1,363.0 L293.0,362.0 L292.9,361.6 L292.8,360.6 L292.8,360.5 L292.9,360.5 L292.8,360.1 L292.5,359.4 L290.7,356.6 L290.6,356.6 L290.5,356.6 L290.0,356.3 L289.9,356.1 L289.4,355.5 L288.6,354.4 L288.3,354.2 L288.1,354.0 L288.0,353.8 L287.8,353.4 L287.8,353.2 L287.3,352.5 L287.0,352.0 L287.0,352.0 L286.9,351.9 L286.8,351.8 L286.9,351.7 L287.0,351.3 L287.0,351.1 L287.1,351.0 L287.1,350.9 L287.1,350.4 L287.1,350.3 L287.0,350.3 L286.8,350.3 L286.7,350.2 L286.6,350.1 L286.2,349.6 L285.8,349.1 L285.4,348.5 L285.2,348.5 L285.1,348.5 L284.9,348.5 L284.8,348.5 L284.6,348.5 L284.4,348.4 L283.9,347.8 L283.5,347.4 L283.4,347.3 L283.2,347.1 L282.9,347.0 L282.5,346.9 L281.9,346.7 L281.7,346.6 L281.5,346.4 L281.4,346.3 L281.1,346.1 L280.9,345.8 L280.9,345.7 L280.6,345.5 L280.5,345.2 L280.4,345.1 L280.4,344.9 L280.4,344.5 L280.4,344.4 L280.4,344.0 L280.4,344.0 L280.5,343.9 L280.6,343.8 L280.6,343.8 L280.7,343.8 L280.8,343.7 L281.0,343.5 L281.0,343.4 L280.8,343.3 L280.4,343.2 L280.1,343.1 L279.8,343.1 L279.6,343.2 L279.4,343.2 L279.2,343.3 L278.9,343.4 L277.9,344.1 L277.6,344.2 L277.4,344.3 L277.1,344.4 L276.2,344.5 L276.0,344.5 L275.7,344.5 L275.3,344.5 L275.1,344.4 L274.8,344.3 L272.4,342.9 L271.5,342.4 L270.6,342.0 L269.8,341.7 L269.2,341.4 L268.8,341.1 L268.5,340.7 L268.1,340.1 L267.9,339.7 L267.8,339.2 L267.7,338.9 L267.6,338.6 L267.4,338.4 L267.2,338.2 L266.9,338.0 L266.0,337.6 L265.5,337.3 L264.7,336.8 L263.9,336.0 L263.4,335.6 L263.0,334.8 L262.8,333.2 L262.7,332.6 L262.4,332.0 L262.0,331.7 L261.2,331.3 L260.6,331.1 L260.0,330.9 L259.5,330.7 L259.3,330.6 L258.8,330.3 L258.4,330.1 L257.2,330.0 L255.9,330.0 L255.3,330.1 L254.7,330.2 L254.3,330.2 L254.1,330.1 L253.8,330.0 L253.5,329.7 L253.3,329.4 L252.8,329.0 L252.5,329.0 L252.5,328.9 L252.1,329.0 L251.8,329.1 L251.1,329.7 L250.9,329.9 L250.7,330.1 L250.1,330.8 L250.0,330.9 L249.8,331.0 L249.6,331.1 L249.3,331.1 L249.1,331.1 L248.9,331.0 L246.9,330.0 L246.5,329.8 L246.4,329.6 L246.3,329.5 L246.2,329.3 L246.1,328.7 L245.9,328.4 L245.8,328.2 L245.7,328.1 L245.5,327.8 L245.3,327.7 L244.5,327.2 L243.7,326.7 L243.5,326.5 L243.3,326.4 L242.9,326.3 L241.9,326.1 L241.6,326.1 L240.8,325.9 L239.1,325.6 L238.6,325.5 L238.3,325.3 L237.9,325.0 L237.6,324.7 L237.3,324.5 L237.1,324.4 L235.4,323.7 L234.8,323.4 L234.5,323.2 L234.3,323.1 L234.0,322.9 L233.9,322.9 L233.8,322.8 L233.8,322.8 L233.7,322.7 L233.7,322.6 L233.5,322.4 L233.3,322.0 L233.0,321.5 L232.9,321.2 L232.9,321.0 L233.2,320.3 L233.2,320.1 L233.2,319.9 L233.2,319.7 L233.2,319.4 L233.1,318.8 L233.0,318.6 L232.9,318.3 L232.8,318.1 L232.3,317.6 L232.2,317.4 L232.1,317.3 L232.1,316.6 L232.0,316.4 L231.9,316.1 L231.7,315.8 L231.7,315.8 L231.6,315.6 L231.4,315.5 L230.3,314.8 L229.9,314.5 L229.7,314.3 L229.5,314.0 L229.4,313.8 L229.2,313.4 L229.1,313.1 L228.7,311.8 L228.3,310.4 L228.2,309.9 L228.0,309.9 L227.8,309.9 L227.6,309.9 L227.6,309.9 L227.3,309.9 L225.3,310.1 L225.2,310.1 L224.9,309.9 L224.4,309.8 L224.0,309.7 L223.7,309.7 L223.5,309.7 L222.8,309.5 L222.6,309.5 L222.5,309.4 L222.2,309.2 L221.6,308.9 L221.5,308.9 L221.0,308.7 L220.7,308.6 L220.5,308.5 L220.0,308.5 L219.9,308.5 L219.8,308.5 L219.4,308.4 L219.2,308.3 L218.9,308.1 L218.5,307.9 L218.3,307.7 L218.2,307.7 L217.4,307.2 L216.9,307.1 L216.5,307.0 L215.8,306.6 L215.6,306.6 L215.3,306.5 L214.6,306.5 L214.4,306.4 L214.3,306.4 L214.3,306.4 L214.2,306.2 L214.1,306.1 L214.1,305.9 L214.1,305.8 L214.0,305.7 L213.9,305.7 L213.8,305.8 L213.7,305.9 L213.6,305.9 L213.5,306.3 L213.4,306.4 L213.2,306.5 L213.1,306.5 L212.9,306.5 L212.7,306.5 L212.4,306.4 L212.3,306.4 L211.7,306.2 L211.2,305.9 L211.0,305.8 L209.8,305.3 L209.0,305.0 L208.7,304.9 L208.4,304.8 L208.1,304.7 L207.2,304.6 L206.7,304.5 L206.5,304.4 L206.1,304.2 L205.6,303.7 L205.3,303.6 L205.2,303.6 L204.6,303.5 L203.9,303.4 L203.6,303.3 L203.4,303.3 L203.1,303.4 L203.0,303.4 L202.6,303.4 L202.2,303.3 L201.3,303.2 L201.0,303.1 L200.2,303.1 L200.1,303.1 L200.1,303.1 L199.3,302.7 L199.1,302.6 L198.7,302.3 L198.7,302.3 L198.6,302.2 L198.5,302.1 L198.4,302.0 L198.1,302.0 L197.7,301.9 L197.2,301.8 L196.8,301.6 L196.5,301.7 L195.8,301.6 L195.5,301.6 L195.2,301.6 L194.8,301.5 L194.6,301.5 L194.3,301.3 L194.2,301.3 L193.9,301.3 L193.6,301.3 L193.2,301.4 L193.0,301.5 L192.8,301.7 L192.7,301.7 L192.3,301.8 L191.5,301.9 L191.2,301.9 L190.6,301.8 L190.4,301.8 L189.1,301.9 L188.5,301.9 L187.7,301.8 L187.5,301.8 L187.4,301.8 L187.2,301.7 L186.7,301.4 L186.5,301.4 L186.3,301.3 L185.5,301.3 L184.7,301.3 L184.2,301.3 L183.9,301.4 L183.5,301.6 L183.2,301.8 L183.0,301.8 L182.4,301.8 L182.0,302.0 L181.6,302.0 L181.3,302.0 L180.8,301.8 L180.1,301.6 L179.9,301.6 L179.8,301.6 L179.3,301.6 L179.0,301.5 L178.9,301.4 L178.7,301.2 L178.1,301.0 L177.4,300.4 L177.2,300.3 L177.0,300.0 L176.9,299.9 L176.9,299.8 L176.8,299.8 L176.5,299.7 L175.8,299.4 L175.6,299.4 L175.5,299.5 L175.4,299.5 L175.3,299.6 L175.3,299.7 L175.3,299.9 L175.4,299.9 L175.4,300.0 L175.8,300.2 L175.9,300.2 L175.9,300.3 L176.0,300.7 L176.1,300.8 L176.2,301.0 L176.2,301.1 L176.2,301.2 L176.2,301.2 L176.1,301.4 L176.0,301.8 L176.0,301.9 L175.9,302.0 L175.9,302.0 L174.8,302.6 L174.5,302.8 L173.9,303.0 L173.4,303.1 L173.1,303.1 L172.9,303.1 L172.6,303.0 L172.3,302.9 L171.9,302.8 L171.7,302.8 L170.8,302.4 L170.5,302.2 L170.1,302.1 L169.6,301.9 L168.7,301.7 L168.3,301.6 L168.0,301.6 L167.6,301.7 L167.3,301.8 L165.7,302.5 L164.9,302.8 L164.7,302.8 L164.4,302.8 L164.1,302.6 L163.7,302.3 L163.5,302.1 L163.3,301.8 L163.2,301.6 L163.1,301.4 L162.8,301.1 L162.0,300.2 L161.9,300.0 L161.6,299.2 L161.3,298.7 L161.3,298.6 L161.2,297.6 L161.0,296.9 L160.9,296.5 L160.5,295.8 L160.0,295.1 L159.8,294.8 L159.4,294.1 L159.3,293.9 L159.2,293.7 L159.1,293.1 L159.0,292.9 L159.0,292.8 L159.0,292.7 L158.8,292.4 L158.2,291.6 L157.2,290.1 L156.8,289.6 L156.7,289.5 L156.6,289.5 L156.5,289.3 L156.4,289.2 L156.4,288.9 L156.4,288.7 L156.5,287.2 L156.5,287.0 L156.6,286.6 L157.0,285.8 L157.1,285.6 L157.1,285.5 L157.0,285.3 L157.0,285.2 L157.0,285.2 L156.9,284.9 L156.9,284.7 L157.0,284.7 L157.1,284.7 L157.1,284.6 L157.2,284.6 L157.3,284.6 L157.4,284.6 L157.5,284.6 L157.6,284.6 L158.2,284.6 L158.7,284.6 L158.7,284.6 L159.3,284.4 L159.5,284.3 L159.5,284.3 L159.6,284.2 L159.7,284.1 L159.9,283.9 L159.9,283.8 L159.9,283.8 L160.0,283.7 L160.0,283.6 L160.1,283.5 L160.1,283.4 L160.2,283.3 L160.3,283.2 L160.3,283.2 L160.5,282.8 L160.8,282.4 L161.0,282.3 L161.1,282.1 L161.2,282.1 L161.5,281.8 L161.7,281.7 L162.0,281.6 L162.0,281.6 L162.1,281.6 L162.1,281.6 L162.3,281.6 L162.5,281.5 L162.6,281.5 L162.7,281.5 L162.8,281.4 L162.8,281.4 L163.1,281.2 L163.4,280.9 L163.5,280.8 L163.8,280.7 L164.1,280.5 L164.3,280.3 L164.6,280.0 L164.7,279.9 L164.8,279.8 L164.8,279.8 L164.8,279.6 L164.7,279.2 L164.5,278.9 L163.9,278.1 L164.0,278.1 L164.1,278.0 L164.3,278.0 L164.3,278.0 L164.6,277.9 L164.5,277.7 L164.5,277.5 L164.4,277.5 L164.4,277.4 L164.4,277.3 L164.3,277.2 L164.3,277.1 L164.3,277.1 L164.2,276.6 L164.1,276.4 L163.8,276.5 L163.5,276.6 L163.3,276.7 L163.3,276.9 L163.4,277.1 L163.4,277.1 L163.6,277.7 L164.0,277.5 L164.4,277.3 L164.3,277.2 L164.3,277.1 L164.3,277.1 L164.2,276.6 L164.1,276.4 L163.8,275.6 L163.5,275.7 L163.2,275.8 L163.2,276.2 L163.3,276.7 L163.3,276.9 L163.4,277.1 L163.4,277.1 L163.6,277.7 L164.0,277.5 L164.4,277.3 L164.3,277.2 L164.3,277.1 L164.3,277.1 L164.2,276.6 L164.1,276.4 L163.8,275.6 L163.5,275.7 L163.2,275.8 L163.2,275.4 L163.0,275.4 L162.9,275.3 L162.9,275.3 L162.8,274.9 L162.6,274.8 L162.5,274.7 L162.2,274.5 L162.1,274.4 L162.0,274.3 L161.6,273.6 L161.5,273.4 L161.1,273.0 L160.8,272.7 L160.7,272.5 L160.0,271.5 L159.9,271.4 L159.7,271.0 L159.5,270.6 L159.3,270.2 L159.2,269.7 L159.1,269.1 L159.0,268.5 L158.9,268.1 L158.9,268.0 L158.8,267.8 L158.7,267.6 L158.3,267.2 L157.5,266.1 L157.3,265.6 L157.2,265.2 L157.1,264.8 L156.9,264.5 L156.7,264.2 L156.4,263.9 L156.3,263.8 L156.2,263.8 L156.1,263.6 L156.0,263.5 L154.8,261.7 L154.6,261.3 L154.4,260.8 L154.2,260.4 L154.1,260.2 L153.1,258.1 L153.0,258.0 L152.5,256.8 L152.3,256.3 L151.8,254.2 L151.7,253.8 L151.7,253.8 L151.6,253.7 L151.4,253.2 L151.1,252.6 L150.8,252.1 L150.5,251.7 L150.3,251.1 L150.2,251.0 L150.1,250.7 L149.9,250.4 L149.8,250.2 L149.8,250.1 L149.8,249.9 L149.9,249.4 L150.0,249.0 L150.2,248.6 L150.4,248.4 L150.4,248.3 L150.3,248.0 L150.2,247.5 L150.1,247.2 L150.0,247.0 L149.5,246.4 L149.4,246.2 L149.4,246.1 L149.4,245.8 L149.4,245.6 L149.4,245.1 L149.4,245.0 L149.2,244.7 L149.1,244.6 L148.7,244.4 L148.7,244.3 L148.6,244.2 L148.5,243.9 L148.3,243.5 L148.0,243.0 L148.0,242.8 L148.0,242.6 L148.0,242.5 L148.2,242.2 L148.2,242.1 L148.2,242.1 L148.2,242.0 L147.9,241.9 L147.9,241.8 L147.9,241.7 L147.9,241.6 L148.0,241.2 L148.0,241.0 L148.0,240.8 L147.9,240.6 L147.6,240.1 L147.4,239.6 L147.3,239.3 L147.2,239.0 L147.0,238.7 L146.9,238.5 L146.8,238.4 L146.5,238.4 L146.4,238.3 L146.2,237.9 L146.1,237.8 L146.0,237.7 L146.0,237.5 L146.1,237.4 L146.4,237.0 L146.4,236.9 L146.5,236.7 L146.5,236.5 L146.5,236.3 L146.3,235.1 L146.1,234.2 L146.1,234.0 L146.1,233.6 L146.0,233.0 L145.9,231.9 L145.9,231.7 L145.8,231.6 L145.8,231.5 L145.7,231.3 L145.9,231.1 L146.2,230.6 L146.5,230.0 L146.7,229.4 L146.8,229.1 L146.6,228.2 L146.7,227.5 L146.9,227.3 L147.0,227.2 L147.0,227.0 L146.8,226.7 L146.6,226.5 L146.3,226.3 L146.1,226.1 L145.7,225.8 L145.4,225.5 L145.2,225.4 L145.0,225.1 L145.0,225.0 L145.0,224.9 L145.2,224.7 L145.2,224.6 L145.2,224.5 L145.1,224.2 L145.1,224.1 L145.1,224.0 L145.0,223.8 L144.9,223.5 L144.8,223.5 L144.8,223.4 L144.9,223.1 L144.8,223.0 L144.7,222.8 L144.5,222.5 L144.6,222.1 L144.7,221.8 L144.7,221.7 L144.5,221.4 L144.3,221.2 L144.1,220.9 L144.0,220.8 L144.0,220.6 L144.0,220.4 L144.1,220.1 L144.3,219.6 L144.3,219.5 L144.7,219.1 L145.2,218.7 L145.6,218.2 L145.9,217.8 L146.2,217.6 L146.3,217.4 L146.4,217.2 L146.6,216.9 L146.6,216.8 L147.1,216.5 L148.3,215.5 L149.4,214.8 L149.4,214.7 L149.5,214.6 L149.6,214.5 L149.6,214.3 L149.5,213.6 L149.4,213.3 L149.4,213.2 L149.4,213.0 L149.5,212.4 L149.5,211.9 L149.4,211.6 L149.4,211.5 L149.4,211.4 L149.6,211.2 L149.6,211.1 L149.6,211.1 L149.6,211.0 L149.4,210.8 L149.2,210.6 L149.1,210.5 L149.1,210.4 L149.2,210.2 L149.3,210.2 L149.4,210.0 L149.8,209.7 L150.1,209.5 L150.5,209.3 L151.1,208.9 L151.3,208.9 L151.5,208.9 L151.9,208.6 L152.1,208.5 L152.1,208.2 L152.2,208.1 L152.2,207.7 L152.4,207.5 L152.6,207.3 L152.7,207.1 L152.9,206.9 L152.9,206.8 L153.1,206.6 L153.2,206.5 L153.6,206.5 L153.8,206.4 L153.8,206.3 L155.2,204.9 L155.5,204.8 L156.0,204.6 L156.8,204.4 L157.1,204.4 L157.3,204.3 L157.4,204.3 L157.4,204.3 L157.9,204.0 L158.0,203.9 L158.5,203.8 L158.6,203.8 L158.9,203.8 L159.1,203.8 L159.2,203.8 L159.5,203.7 L159.5,203.5 L159.5,203.5 L159.2,202.6 L159.1,202.3 L159.0,202.1 L158.9,201.9 L158.8,201.9 L158.7,201.8 L158.4,201.8 L158.2,201.7 L158.1,201.6 L158.1,201.3 L158.0,201.2 L157.7,201.0 L157.7,201.0 L157.3,200.8 L157.1,200.7 L156.7,200.6 L156.3,200.4 L156.0,200.3 L155.7,200.2 L155.6,200.1 L155.5,200.0 L155.3,199.8 L155.1,199.7 L154.8,199.5 L154.6,199.4 L154.4,199.3 L153.9,199.1 L153.7,199.1 L153.6,199.0 L153.0,198.8 L152.9,198.6 L152.7,198.4 L152.2,197.7 L152.1,197.4 L151.9,197.3 L151.7,197.1 L151.4,197.1 L151.2,197.1 L151.0,197.1 L150.8,197.2 L150.7,197.3 L150.6,197.5 L150.6,197.5 L150.6,197.7 L150.6,197.8 L150.8,198.1 L150.8,198.4 L150.8,198.5 L150.8,198.6 L150.7,198.7 L150.6,198.8 L149.4,199.4 L149.3,199.5 L149.1,199.6 L149.0,199.8 L148.9,200.3 L148.8,200.4 L148.4,200.8 L148.0,201.1 L147.9,201.2 L147.5,201.4 L146.8,201.5 L146.8,201.5 L146.3,201.6 L145.9,201.8 L145.5,202.0 L145.1,202.3 L144.8,202.6 L144.6,202.9 L144.5,203.3 L144.2,204.1 L144.1,204.3 L143.8,204.8 L143.4,205.1 L142.7,205.7 L142.6,205.8 L142.5,205.9 L142.4,206.0 L142.4,206.1 L142.4,206.1 L142.4,206.3 L142.4,206.4 L142.5,206.6 L142.6,206.7 L142.8,206.8 L142.9,206.9 L143.0,207.1 L143.1,207.2 L143.1,207.4 L143.1,207.7 L143.1,207.9 L143.1,208.0 L143.0,208.0 L142.9,208.2 L142.7,208.3 L142.5,208.5 L142.3,208.5 L141.8,208.5 L141.6,208.5 L141.3,208.6 L141.2,208.7 L141.0,208.9 L140.8,209.0 L140.7,209.3 L140.6,209.6 L140.4,209.8 L140.1,210.4 L139.9,210.7 L139.9,211.0 L140.0,211.7 L140.0,212.1 L140.1,212.3 L140.4,213.1 L140.4,213.2 L140.4,213.3 L140.4,213.4 L140.3,213.5 L140.3,213.5 L140.2,213.6 L140.1,213.6 L139.6,213.5 L139.2,213.3 L139.2,213.2 L139.1,213.2 L139.0,213.2 L138.9,213.3 L138.8,213.3 L138.5,214.0 L138.3,214.3 L138.0,214.6 L137.8,215.1 L137.7,215.2 L137.6,215.2 L137.5,215.2 L137.4,215.1 L137.4,215.0 L137.4,214.9 L137.5,214.8 L137.8,214.6 L137.9,214.5 L138.1,214.3 L138.2,214.1 L138.3,213.9 L138.4,213.6 L138.5,213.0 L138.5,212.8 L138.6,212.6 L138.7,212.5 L138.9,212.2 L139.0,212.1 L139.0,211.8 L138.9,211.5 L138.5,210.5 L138.5,210.2 L138.5,210.1 L138.5,209.7 L138.8,209.2 L138.8,208.8 L138.9,208.0 L138.9,207.1 L138.9,206.5 L138.9,206.1 L138.6,205.2 L138.6,204.9 L138.6,204.7 L138.7,204.5 L139.1,203.5 L139.2,202.8 L139.5,202.3 L139.5,202.0 L139.5,201.8 L139.3,200.8 L139.2,200.3 L139.1,199.7 L139.0,199.5 L138.8,199.3 L138.5,199.1 L138.4,198.9 L138.3,198.9 L138.3,198.6 L138.3,198.3 L138.5,197.9 L138.5,197.7 L138.5,197.6 L138.5,197.4 L138.2,197.0 L138.1,196.9 L138.1,196.8 L138.1,196.6 L138.2,196.4 L138.2,196.3 L138.4,196.1 L138.5,195.9 L138.6,195.6 L138.9,195.2 L138.9,195.0 L138.9,194.9 L138.9,194.7 L138.8,194.5 L138.7,194.3 L138.5,194.1 L138.5,193.8 L138.5,193.7 L138.6,193.5 L138.9,193.2 L138.9,193.1 L139.0,192.9 L139.0,192.3 L139.0,191.3 L139.0,191.1 L139.2,190.5 L139.2,190.3 L139.1,190.2 L139.0,190.0 L138.9,189.9 L138.5,189.6 L138.2,189.2 L138.0,189.0 L138.0,188.8 L138.1,188.4 L138.2,188.2 L138.3,188.1 L138.4,188.0 L138.8,187.7 L138.9,187.5 L139.0,187.3 L139.1,187.0 L139.0,186.7 L139.0,186.6 L138.9,186.4 L138.7,186.1 L138.5,185.8 L138.5,185.2 L138.4,184.4 L138.3,183.8 L138.3,183.6 L138.3,183.4 L138.5,182.9 L138.5,182.6 L138.5,182.3 L138.6,182.0 L138.8,181.4 L138.9,181.1 L138.9,180.9 L139.0,180.6 L139.1,180.1 L139.1,179.8 L139.0,179.5 L138.8,178.7 L138.8,178.4 L138.7,178.2 L138.7,178.2 L138.6,178.0 L138.4,177.9 L138.3,177.7 L138.3,177.7 L138.3,177.6 L138.2,177.1 L138.2,176.7 L138.2,176.5 L138.2,176.4 L138.3,176.2 L138.6,175.9 L138.7,175.8 L138.7,175.7 L138.8,175.0 L138.8,174.9 L138.9,174.8 L138.9,174.7 L139.0,174.6 L139.2,174.5 L139.4,174.2 L139.4,174.0 L139.5,173.8 L139.5,173.4 L139.5,172.9 L139.6,172.7 L139.6,172.6 L139.5,172.4 L139.4,172.4 L139.3,172.3 L139.1,172.3 L139.0,172.2 L139.0,172.2 L138.9,172.2 L138.9,172.2 L138.9,172.2 L138.9,172.1 L138.9,172.1 L138.9,172.1 L138.9,171.9 L138.9,171.8 L139.0,171.7 L139.7,171.1 L139.9,170.9 L139.9,170.8 L139.9,170.5 L139.7,169.6 L139.7,169.2 L139.7,169.1 L139.7,168.9 L140.0,168.6 L140.1,168.3 L140.1,167.8 L140.2,167.3 L140.1,166.7 L140.0,166.5 L139.9,166.2 L139.8,166.0 L139.6,165.7 L139.6,165.7 L139.4,165.5 L139.4,165.4 L139.3,165.2 L139.2,164.9 L139.2,164.9 L139.2,164.4 L139.3,164.1 L139.3,164.0 L139.7,163.5 L139.9,163.3 L140.0,163.0 L140.3,161.8 L140.3,161.5 L140.3,161.3 L140.3,161.2 L140.2,161.1 L140.1,160.8 L140.0,160.7 L139.8,160.6 L139.7,160.5 L139.7,160.4 L139.6,160.3 L139.6,160.0 L139.7,159.9 L139.9,159.1 L140.0,158.6 L140.0,158.4 L140.0,158.2 L140.0,157.7 L139.9,157.4 L139.7,156.8 L139.6,156.7 L139.6,156.6 L139.6,156.4 L139.6,156.1 L139.7,155.9 L139.7,155.7 L140.1,155.0 L140.2,154.7 L140.2,154.5 L140.2,154.2 L140.2,153.9 L140.2,153.6 L140.2,153.4 L140.1,153.0 L140.1,152.8 L140.0,152.5 L140.0,152.4 L140.0,152.3 L140.0,152.2 L139.9,152.1 L139.9,152.0 L139.8,151.8 L139.6,151.6 L139.3,151.3 L139.3,151.3 L139.2,151.3 L139.2,151.3 L139.2,151.2 L139.1,151.2 L139.0,151.2 L138.9,151.1 L138.7,151.0 L138.3,151.0 L138.2,150.9 L138.0,150.8 L137.9,150.8 L137.7,150.5 L137.1,149.7 L136.9,149.5 L136.7,149.3 L136.4,148.8 L136.2,148.5 L136.2,148.4 L136.0,148.2 L135.6,147.8 L135.5,147.7 L135.5,147.7 L135.3,147.5 L134.7,146.9 L134.6,146.8 L134.4,146.4 L134.3,146.4 L134.1,146.2 L133.8,146.1 L133.5,146.0 L133.1,145.9 L133.0,145.8 L132.6,145.5 L132.5,145.4 L132.2,145.3 L131.9,145.3 L131.8,145.3 L131.7,145.3 L131.4,145.2 L131.1,145.2 L131.0,145.1 L130.7,144.8 L130.4,144.7 L130.3,144.7 L130.0,144.6 L129.9,144.5 L129.9,144.4 L129.8,144.3 L129.7,144.2 L129.6,144.2 L129.6,144.0 L129.7,143.8 L129.7,143.7 L129.7,143.6 L129.6,143.4 L129.5,143.2 L129.5,143.0 L129.8,142.5 L129.9,142.4 L130.0,142.0 L130.3,141.5 L130.7,141.0 L131.2,140.4 L131.3,140.2 L131.8,139.2 L132.0,138.8 L132.1,138.7 L132.5,138.2 L132.7,138.0 L133.0,137.3 L133.3,136.9 L133.5,136.6 L134.0,136.1 L134.7,135.5 L134.9,135.3 L135.5,134.2 L135.6,134.1 L135.7,134.0 L136.0,133.8 L136.4,133.6 L136.7,133.5 L137.5,133.3 L137.7,133.2 L138.1,133.0 L138.7,132.7 L139.4,132.4 L139.3,132.3 L139.4,132.1 L139.4,132.0 L139.5,132.0 L139.8,131.9 L139.9,131.9 L140.1,131.7 L140.4,131.6 L140.5,131.5 L140.6,131.4 L140.9,131.2 L141.3,130.8 L141.5,130.5 L141.8,130.2 L142.2,129.8 L142.5,129.7 L142.5,129.6 L142.6,129.5 L142.5,129.4 L142.7,129.4 L142.9,129.4 L143.0,129.3 L143.1,129.2 L143.2,129.2 L143.2,129.1 L143.1,128.9 L143.1,128.7 L143.1,128.1 L143.1,128.0 L143.1,127.8 L142.8,127.5 L142.8,127.5 L142.8,127.4 L143.0,127.1 L143.0,127.0 L143.0,126.3 L143.0,126.0 L143.0,125.6 L143.1,125.5 L143.1,125.5 L143.2,125.5 L143.3,125.5 L143.4,125.5 L143.6,125.7 L143.6,125.7 L143.7,125.7 L143.8,125.6 L144.2,124.9 L144.6,124.2 L144.6,124.1 L144.6,124.0 L144.3,123.8 L144.0,123.6 L143.9,123.3 L143.9,123.2 L143.8,123.1 L143.6,122.8 L143.5,122.6 L143.5,122.6 L143.2,122.2 L142.7,121.7 L142.6,121.4 L142.1,121.0 L141.9,120.8 L141.6,120.5 L141.4,120.4 L141.1,120.2 L140.9,120.1 L140.7,119.8 L140.6,119.8 L140.1,119.8 L139.9,119.7 L139.6,119.7 L139.1,119.6 L138.8,119.6 L138.6,119.6 L138.4,119.5 L138.2,119.3 L137.9,119.0 L137.8,118.9 L137.8,118.9 L137.1,118.9 L136.6,118.9 L136.4,118.9 L135.5,118.8 L135.4,118.8 L135.1,119.0 L134.9,119.0 L134.7,119.0 L134.4,119.0 L134.3,119.0 L134.1,119.1 L133.5,119.2 L133.2,119.2 L132.8,119.3 L132.6,119.2 L132.3,119.1 L132.2,119.0 L131.9,118.8 L131.7,118.7 L131.6,118.7 L131.5,118.7 L130.2,118.8 L129.4,118.7 L129.1,118.7 L128.8,118.9 L128.8,118.9 L128.6,118.9 L127.7,118.5 L127.3,118.4 L126.9,118.2 L126.7,118.1 L126.4,117.9 L125.8,117.2 L125.6,117.0 L125.5,116.9 L125.4,116.8 L125.2,116.6 L125.1,116.5 L124.7,116.3 L124.6,116.3 L124.2,116.2 L124.0,116.2 L123.6,115.9 L123.5,115.9 L123.1,115.8 L122.6,115.6 L122.1,115.5 L122.0,115.4 L121.7,115.1 L121.4,115.1 L121.3,115.0 L120.9,114.7 L120.6,114.6 L120.0,114.3 L119.7,114.2 L119.5,114.1 L119.2,113.8 L119.0,113.7 L118.6,113.6 L118.5,113.5 L117.6,113.1 L117.3,112.9 L117.1,112.8 L117.0,112.7 L117.0,112.6 L116.7,112.5 L116.3,112.2 L115.8,111.8 L115.5,111.8 L115.1,111.6 L114.4,111.6 L114.3,111.5 L114.0,111.4 L113.8,111.3 L113.7,111.3 L113.5,111.3 L113.4,111.3 L113.3,111.3 L113.2,111.6 L112.9,111.6 L112.7,111.6 L112.3,111.6 L112.2,111.6 L112.0,111.5 L112.0,111.3 L112.0,110.9 L111.9,110.7 L111.7,110.5 L111.5,110.3 L111.4,110.2 L111.3,110.0 L111.3,109.9 L111.2,109.7 L111.2,109.5 L111.1,109.5 L110.9,109.2 L110.7,109.1 L110.6,108.9 L110.5,108.8 L110.4,108.6 L110.3,108.5 L110.2,108.4 L110.2,108.3 L110.1,108.2 L110.0,108.1 L109.9,108.1 L109.9,107.9 L109.8,107.7 L109.6,107.2 L109.4,107.0 L109.2,106.7 L108.3,106.0 L108.2,105.8 L107.9,105.2 L107.9,105.1 L107.8,105.0 L107.4,104.8 L107.3,104.7 L107.3,104.5 L107.3,104.4 L107.3,104.0 L107.3,103.8 L107.0,103.2 L106.8,102.8 L106.6,102.6 L106.3,102.2 L105.6,101.5 L105.4,101.2 L105.2,100.9 L105.0,100.7 L104.7,100.1 L104.3,99.5 L103.7,98.8 L103.0,98.0 L102.9,97.9 L101.4,95.9 L101.4,95.8 L101.4,95.8 L101.3,95.6 L101.2,95.4 L100.8,94.4 L100.8,94.3 L100.7,93.7 L100.7,93.6 L100.6,93.6 L100.7,93.6 L100.7,93.5 L100.7,92.9 L100.6,92.0 L100.6,91.8 L100.5,91.5 L100.5,91.3 L100.5,91.2 L100.5,91.1 L100.5,91.0 L100.5,90.7 L100.6,90.4 L100.7,90.1 L100.7,89.8 L100.8,89.6 L100.9,89.5 L101.6,89.7 L102.0,89.8 L102.2,89.8 L102.5,89.9 L102.8,90.0 L102.9,90.1 L103.0,90.2 L103.1,90.1 L103.2,90.1 L103.4,90.1 L103.5,90.2 L103.6,90.1 L103.7,90.1 L103.8,89.9 L103.8,89.4 L104.1,89.4 L104.2,89.4 L104.2,89.5 L104.2,90.0 L104.5,89.9 L105.1,89.9 L105.5,89.9 L106.4,89.7 L107.9,89.4 L109.1,89.0 L109.9,89.0 L110.7,88.9 L110.7,88.8 L112.4,88.0 L112.5,87.9 L112.5,87.9 L112.3,87.2 L112.2,87.2 L112.8,87.0 L112.9,85.8 L112.9,85.5 L112.8,85.2 L112.7,84.7 L112.6,84.6 L112.3,84.1 L112.2,83.9 L112.1,83.7 L112.1,83.7 L112.1,83.3 L112.0,83.2 L112.2,83.1 L112.5,83.0 L112.7,82.8 L113.1,82.4 L113.4,82.3 L113.6,82.3 L114.1,82.2 L114.2,82.2 L114.3,82.2 L114.6,82.2 L114.8,82.3 L115.0,82.4 L115.2,82.5 L115.3,82.5 L115.3,82.6 L115.6,82.7 L115.8,82.8 L116.1,82.9 L116.3,82.9 L116.5,83.0 L116.5,82.9 L117.9,82.9 L118.3,83.0 L118.7,82.9 L119.0,82.8 L119.4,82.6 L119.6,82.4 L119.6,82.3 L119.7,82.1 L119.8,81.6 L119.8,81.4 L119.9,81.3 L119.9,81.3 L120.0,81.3 L120.0,81.2 L120.3,80.9 L120.5,80.7 L120.7,80.2 L120.7,79.8 L120.6,79.3 L120.5,79.0 L120.5,78.6 L120.5,77.9 L120.5,77.4 L120.5,77.2 L120.4,76.9 L120.4,76.6 L120.5,75.9 L120.6,75.5 L120.6,75.1 L120.7,74.6 L120.9,74.4 L121.0,74.1 L121.0,74.0 L121.0,73.9 L120.8,73.5 L120.8,73.2 L120.8,72.9 L120.9,72.5 L121.1,71.8 L121.1,71.8 L121.1,71.6 L121.2,71.4 L121.2,70.6 L121.2,70.5 L120.9,69.7 L120.5,69.2 L120.1,68.7 L119.9,68.5 L119.9,68.4 L119.7,67.8 L119.4,66.5 L119.2,66.4 L119.1,66.2 L118.6,64.2 L118.5,64.0 L118.0,63.4 L117.4,63.0 L117.2,62.9 L117.0,62.7 L116.8,61.9 L116.6,61.5 L116.6,61.1 L116.5,60.9 L116.2,60.4 L115.9,60.2 L115.6,59.8 L115.3,59.4 L115.2,59.1 L115.1,59.0 L115.0,59.0 L114.0,58.1 L113.8,57.9 L113.7,57.7 L113.7,57.2 L113.6,56.7 L113.6,56.5 L113.3,56.1 L113.3,56.0 L113.3,55.9 L113.3,55.8 L113.5,55.4 L113.7,55.0 L113.7,54.8 L113.7,54.7 L113.7,54.5 L113.7,54.3 L113.9,53.5 L114.0,53.2 L114.0,53.1 L113.9,52.7 L113.8,52.1 L113.8,51.9 L113.8,51.7 L114.4,50.7 L114.7,50.4 L114.9,50.1 L115.1,49.7 L115.2,49.7 L115.2,49.7 L115.3,49.7 L115.3,49.8 L115.3,49.8 L115.4,50.0 L115.5,50.1 L115.5,50.1 L115.7,50.1 L115.8,50.2 L115.8,50.2 L115.8,50.4 L115.8,50.5 L115.9,50.6 L116.0,50.7 L116.4,50.8 L116.5,50.9 L116.6,51.1 L116.7,51.3 L116.7,51.4 L116.8,51.4 L116.8,51.4 L116.8,50.9 L116.7,50.7 L116.7,50.5 L117.8,50.1 L117.9,49.9 L117.8,49.7 L117.6,49.6 L117.3,49.2 L117.2,48.9 L117.0,48.6 L117.0,48.3 L117.1,47.8 L117.2,47.6 L117.1,47.5 L116.7,47.1 L116.7,46.9 L116.7,46.5 L116.4,46.1 L116.3,46.0 L116.2,45.5 L116.0,44.9 L116.0,44.9 L116.3,44.8 L116.6,44.6 L117.7,44.4 L118.2,43.9 L118.4,43.8 L118.6,43.6 L118.7,43.5 L118.8,43.3 L118.8,43.1 L118.9,42.8 L119.0,42.2 L119.0,41.7 L118.9,41.4 L118.9,41.2 L118.9,40.7 L118.9,40.3 L118.9,40.2 L118.9,40.1 L118.8,39.7 L118.9,39.6 L119.4,39.3 L119.6,39.2 L119.9,38.9 L119.9,38.8 L120.2,38.6 L120.4,38.6 L121.1,38.4 L121.1,38.4 L121.5,38.4 L121.6,38.4 L121.9,38.6 L122.1,38.7 L122.2,38.7 L122.2,38.6 L122.3,38.5 L122.3,38.2 L122.3,37.8 L122.3,37.7 L122.1,37.5 L121.3,36.7 L121.1,36.6 L120.9,36.5 L120.8,36.5 L120.6,36.4 L120.4,36.3 L120.3,36.2 L120.2,36.1 L120.1,35.9 L120.1,35.8 L120.2,35.7 L120.4,35.6 L120.5,35.5 L121.2,35.3 L121.8,35.1 L122.7,34.9 L122.9,34.9 L123.0,34.8 L123.1,34.8 L123.2,34.8 L124.0,35.3 L124.2,35.3 L124.5,35.2 L124.9,35.2 L125.4,35.2 L125.7,35.3 L126.0,35.5 L126.5,35.9 L126.5,36.0 L126.6,36.1 L126.6,36.6 L126.6,36.8 L126.7,37.1 L126.9,37.2 L126.9,37.2 L127.0,37.2 L127.0,37.1 L127.1,36.8 L127.2,36.7 L127.4,36.6 L128.2,36.3 L128.4,36.2 L128.5,36.2 L128.6,36.2 L128.8,36.3 L129.0,36.4 L129.0,36.3 L129.1,36.3 L129.4,36.0 L129.5,35.8 L129.6,35.7 L129.6,35.5 L129.6,35.1 L129.6,34.9 L129.8,34.6 L129.9,34.4 L130.0,34.3 L130.2,34.3 L130.2,34.3 L130.5,34.2 L130.7,34.2 L130.9,34.1 L131.3,34.6 L131.6,34.8 L132.0,34.9 L132.2,35.1 L132.2,35.2 L132.2,35.5 L132.2,35.8 L132.3,36.4 L132.4,36.6 L132.5,36.7 L132.8,37.0 L133.0,37.1 L133.2,37.0 L133.7,36.9 L133.9,36.9 L134.5,36.8 L135.3,36.4 L135.4,36.3 L135.6,36.2 L136.0,35.7 L136.2,35.4 L137.3,34.1 L138.0,33.5 L138.2,33.3 L138.6,32.6 L138.7,31.9 L138.8,31.8 L138.9,31.7 L139.1,31.7 L139.4,31.6 L139.7,31.4 L139.8,31.3 L140.0,31.3 L140.1,31.3 L140.1,31.3 L140.2,31.3 L140.3,31.4 L140.4,31.6 L140.6,32.1 L140.7,32.2 L140.7,32.3 L141.1,32.4 L141.5,32.5 L141.7,32.5 L142.1,32.0 L142.3,31.8 L142.6,31.7 L142.8,31.6 L143.0,31.4 L143.0,31.3 L143.1,31.1 L142.9,29.5 L142.9,28.7 L143.0,28.1 L143.0,27.7 L143.2,27.4 L143.4,27.1 L143.8,26.7 L144.1,26.5 L144.3,26.4 L144.6,26.3 L144.8,26.3 L145.0,26.3 L145.5,26.4 L145.7,26.4 L146.1,26.5 L146.3,26.5 L146.6,26.4 L146.8,25.7 L146.9,25.3 L146.9,25.1 L146.9,24.7 L146.9,24.5 L146.9,24.3 L147.3,23.6 L148.4,22.6 L149.1,22.4 L149.5,22.1 L149.7,22.1 L149.9,22.1 L150.1,22.1 L150.6,22.2 L150.9,22.4 L151.0,22.5 L151.1,22.7 L151.0,23.0 L150.9,23.3 L150.8,23.5 L150.6,23.7 L150.6,23.8 L150.6,24.0 L150.7,24.1 L150.8,24.2 L151.4,24.5 L151.6,24.6 L152.6,24.6 L152.8,24.6 L152.9,24.6 L152.9,24.4 L152.8,24.1 L152.8,23.7 L152.7,23.6 L152.6,23.5 L152.6,23.3 L152.7,23.0 L152.9,22.6 L152.9,22.4 L152.8,22.2 L152.9,22.0 L153.0,21.9 L153.1,21.8 L153.6,22.0 L153.8,22.1 L153.9,22.2 L154.1,22.4 L154.3,22.4 L154.5,22.4 L154.8,22.5 L155.1,22.5 L155.4,22.5 L155.8,22.5 L156.5,22.6 L156.9,22.7 L157.0,22.6 L157.2,22.5 L157.4,22.4 L157.6,22.4 L157.7,22.5 L157.6,22.6 L157.5,22.8 L157.3,22.9 L156.9,23.2 L156.7,23.3 L156.5,23.4 L156.4,23.4 L155.8,23.5 L155.8,23.5 L155.7,23.6 L155.7,23.7 L155.8,23.7 L155.9,23.8 L156.0,23.8 L156.5,23.8 L156.9,23.8 L157.2,23.8 L157.4,23.7 L158.1,23.4 L158.7,23.4 L158.9,23.4 L159.6,23.3 L159.7,23.3 L159.7,23.3 L160.1,23.6 L160.5,23.8 L160.9,24.0 L161.2,24.0 L161.6,24.1 L161.8,24.1 L161.9,24.1 L162.3,24.3 L162.7,24.6 L162.7,24.7 L163.0,25.0 L163.4,25.3 L163.7,25.5 L164.0,25.7 L164.7,25.8 L165.1,26.1 L165.3,26.3 L165.4,26.4 L165.7,26.8 L166.1,26.9 L166.7,27.1 L167.2,27.4 L168.2,27.5 L168.4,27.6 L168.6,27.9 L168.8,28.1 L168.8,28.1 L169.0,28.3 L170.1,29.0 L170.9,29.4 L171.0,29.4 L171.2,29.3 L171.3,29.3 L171.9,29.3 L172.3,29.5 L172.3,29.5 L172.4,29.4 L172.4,29.4 L172.5,29.5 L172.7,29.8 L172.8,29.9 L172.8,30.1 L172.8,30.2 L172.9,30.4 L173.2,30.7 L173.6,31.4 L173.7,31.5 L173.8,31.7 L173.8,31.9 L173.7,32.2 L173.7,32.4 L173.9,32.6 L173.9,32.7 L174.1,32.9 L174.2,33.0 L174.5,33.2 L174.6,33.3 L174.7,33.4 L174.7,33.8 L174.7,33.9 L174.8,34.1 L175.1,34.6 L175.2,34.7 L175.6,35.0 L175.6,35.1 L175.7,35.2 L175.7,35.3 L175.9,35.3 L176.2,35.4 L176.6,35.5 L176.9,35.5 L177.1,35.5 L177.3,35.5 L177.5,35.4 L177.7,35.3 L177.9,35.1 L178.0,35.0 L178.2,34.7 L178.3,34.6 L178.7,33.9 L178.8,33.8 L179.2,33.8 L179.4,33.7 L179.5,33.7 L179.7,33.5 L180.0,33.0 L180.6,32.4 L180.9,32.0 L181.1,31.8 L181.4,31.7 L181.8,31.6 L181.9,31.5 L182.1,31.4 L182.5,31.0 L183.0,30.6 L183.2,30.4 L183.3,30.1 L183.4,29.9 L183.5,29.7 L184.5,28.6 L184.6,28.5 L184.7,28.3 L184.8,28.2 L185.0,28.0 L185.1,27.9 L185.4,27.8 L185.7,27.7 L186.0,27.7 L186.2,27.6 L186.7,27.3 L186.8,27.2 L186.9,27.2 L187.2,27.2 L187.4,27.2 L188.0,27.3 L188.2,27.4 L188.3,27.4 L188.7,27.5 L189.2,27.6 L189.4,27.7 L189.6,27.6 L189.8,27.6 L191.0,27.3 L191.2,27.3 L191.4,27.1 L191.9,26.8 L192.6,26.1 L193.0,25.8 L193.3,25.6 L193.9,25.3 L194.2,25.2 L194.3,25.1 L194.4,25.0 L194.9,24.4 L195.1,24.3 L195.3,24.2 L195.5,24.1 L195.8,24.1 L196.2,24.0 L196.4,24.1 L197.1,24.1 L197.4,24.1 L197.6,24.0 L197.8,23.9 L197.9,23.8 L198.2,23.2 L198.4,23.0 L198.5,23.0 L198.5,23.0 L198.8,22.8 L199.7,22.3 L199.7,22.2 L199.8,22.2 L199.9,22.1 L200.6,21.7 L200.8,21.6 L201.0,21.4 L201.9,20.3 L202.0,20.2 L202.2,20.0" fill="transparent" id="track" stroke="black" stroke-linejoin="miter" stroke-miterlimit="1" stroke-width="2"/>
<g>
<g>
<circle cx="100.86360563969629" cy="89.5287504798107" fill="Blue" id="0/wp/circle" r="5"/>
</g>
<g transform="translate(100.86360563969629 89.5287504798107)">
<rect fill="white" fill-opacity="0.75" height="12" id="label-bg" width="71.22105263157896" x="-75.22105263157896" y="-16"/>
<text font-size="16.0" id="0/wp/text" text-anchor="end" x="-4.000" y="-4.000">
K2 (12:53)
</text>
</g>
<g>
<circle cx="164.79221806031455" cy="279.75506631628014" fill="Blue" id="1/wp/circle" r="5"/>
</g>
<g transform="translate(164.79221806031455 279.75506631628014)">
<rect fill="white" fill-opacity="0.75" height="12" id="label-bg" width="71.22105263157896" x="4" y="-16"/>
<text font-size="16.0" id="1/wp/text" text-anchor="start" x="4.000" y="-4.000">
K1 (10:04)
</text>
</g>
<g>
<circle cx="200.21621321180737" cy="303.10146547783734" fill="Black" id="2/wp/circle" r="3"/>
</g>
<g transform="translate(200.21621321180737 303.10146547783734)">
<rect fill="white" fill-opacity="0.75" height="12" id="label-bg" width="36.73684210526316" x="4" y="-16"/>
<text font-size="16.0" id="2/wp/text" text-anchor="start" x="4.000" y="-4.000">
09:25
</text>
</g>
<g>
<circle cx="144.0213170091729" cy="220.58317245065336" fill="Black" id="3/wp/circle" r="3"/>
</g>
<g transform="translate(144.0213170091729 220.58317245065336)">
<rect fill="white" fill-opacity="0.75" height="12" id="label-bg" width="36.73684210526316" x="-40.73684210526316" y="4"/>
<text font-size="16.0" id="3/wp/text" text-anchor="end" x="-4.000" y="16.000">
10:45
</text>
</g>
<g>
<circle cx="130.68215531536498" cy="141.00695077534692" fill="Black" id="4/wp/circle" r="3"/>
</g>
<g transform="translate(130.68215531536498 141.00695077534692)">
<rect fill="white" fill-opacity="0.75" height="12" id="label-bg" width="36.73684210526316" x="-40.73684210526316" y="-16"/>
<text font-size="16.0" id="4/wp/text" text-anchor="end" x="-4.000" y="-4.000">
12:06
</text>
</g>
<g>
<circle cx="114.35930680906313" cy="50.74462636941098" fill="Black" id="5/wp/circle" r="3"/>
</g>
<g transform="translate(114.35930680906313 50.74462636941098)">
<rect fill="white" fill-opacity="0.75" height="12" id="label-bg" width="36.73684210526316" x="-40.73684210526316" y="-16"/>
<text font-size="16.0" id="5/wp/text" text-anchor="end" x="-4.000" y="-4.000">
13:26
</text>
</g>
<g>
<circle cx="165.6846040918981" cy="279.4396756756869" fill="Black" id="6/wp/circle" r="5"/>
<circle cx="165.6846040918981" cy="279.4396756756869" fill="white" id="6/wp/circle-little-white" r="3.5"/>
<circle cx="165.6846040918981" cy="279.4396756756869" fill="black" id="6/wp/circle-little-white" r="2.5"/>
</g>
<g transform="translate(165.6846040918981 279.4396756756869)">
<rect fill="white" fill-opacity="0.75" height="12" id="label-bg" width="80.03157894736842" x="-62" y="34"/>
<text font-size="16.0" id="6/wp/text" text-anchor="start" x="-62.000" y="46.000">
Furtwangen
</text>
</g>
<path d="M165.68,309.44 L165.68,281.44" fill="transparent" id="link" stroke="black" stroke-linejoin="miter" stroke-miterlimit="1"/>
<g>
<circle cx="299.43781611643044" cy="379.9308229592243" fill="Black" id="8/wp/circle" r="5"/>
<circle cx="299.43781611643044" cy="379.9308229592243" fill="white" id="8/wp/circle-little-white" r="3.5"/>
<circle cx="299.43781611643044" cy="379.9308229592243" fill="black" id="8/wp/circle-little-white" r="2.5"/>
</g>
<g transform="translate(299.43781611643044 379.9308229592243)">
<rect fill="white" fill-opacity="0.75" height="12" id="label-bg" width="82.30526315789474" x="4" y="-16"/>
<text font-size="16.0" id="8/wp/text" text-anchor="start" x="4.000" y="-4.000">
Bräunlingen
</text>
</g>
<g>
<circle cx="259.4547475154477" cy="330.65709768687884" fill="Black" id="9/wp/circle" r="3"/>
</g>
<g transform="translate(259.4547475154477 330.65709768687884)">
<rect fill="white" fill-opacity="0.75" height="12" id="label-bg" width="36.73684210526316" x="4" y="-16"/>
<text font-size="16.0" id="9/wp/text" text-anchor="start" x="4.000" y="-4.000">
08:45
</text>
</g>
<g>
<circle cx="164.57128646005913" cy="277.87746951875306" fill="Black" id="10/wp/circle" r="3"/>
</g>
<g transform="translate(164.57128646005913 277.87746951875306)">
<rect fill="white" fill-opacity="0.75" height="12" id="label-bg" width="36.73684210526316" x="-62" y="-14"/>
<text font-size="16.0" id="10/wp/text" text-anchor="end" x="-25.263" y="-2.000">
10:05
</text>
</g>
<path d="M143.31,277.88 L162.57,277.88" fill="transparent" id="link" stroke="black" stroke-linejoin="miter" stroke-miterlimit="1"/>
<g>
<circle cx="138.6190397888604" cy="205.17075679136906" fill="Black" id="11/wp/circle" r="3"/>
</g>
<g transform="translate(138.6190397888604 205.17075679136906)">
<rect fill="white" fill-opacity="0.75" height="12" id="label-bg" width="36.73684210526316" x="-40.73684210526316" y="-16"/>
<text font-size="16.0" id="11/wp/text" text-anchor="end" x="-4.000" y="-4.000">
11:26
</text>
</g>
<g>
<circle cx="105.3749401001869" cy="101.19980145846057" fill="Black" id="12/wp/circle" r="3"/>
</g>
<g transform="translate(105.3749401001869 101.19980145846057)">
<rect fill="white" fill-opacity="0.75" height="12" id="label-bg" width="36.73684210526316" x="-40.73684210526316" y="4"/>
<text font-size="16.0" id="12/wp/text" text-anchor="end" x="-4.000" y="16.000">
12:46
</text>
</g>
<g>
<circle cx="150.85298837686787" cy="23.313389304563316" fill="Black" id="13/wp/circle" r="3"/>
</g>
<g transform="translate(150.85298837686787 23.313389304563316)">
<rect fill="white" fill-opacity="0.75" height="12" id="label-bg" width="36.73684210526316" x="4" y="-16"/>
<text font-size="16.0" id="13/wp/text" text-anchor="start" x="4.000" y="-4.000">
14:06
</text>
</g>
<g>
<circle cx="179.50304303108624" cy="214.134271782219" fill="Black" id="14/wp/circle" r="5"/>
<circle cx="179.50304303108624" cy="214.134271782219" fill="white" id="14/wp/circle-little-white" r="3.5"/>
<circle cx="179.50304303108624" cy="214.134271782219" fill="black" id="14/wp/circle-little-white" r="2.5"/>
</g>
<g transform="translate(179.50304303108624 214.134271782219)">
<rect fill="white" fill-opacity="0.75" height="12" id="label-bg" width="46.873684210526314" x="4" y="4"/>
<text font-size="16.0" id="14/wp/text" text-anchor="start" x="4.000" y="16.000">
Triberg
</text>
</g>
<g>
<circle cx="160.1980064945028" cy="203.39320142353972" fill="Black" id="15/wp/circle" r="4"/>
<circle cx="160.1980064945028" cy="203.39320142353972" fill="white" id="15/wp/circle-little-white" r="2.5"/>
</g>
<g transform="translate(160.1980064945028 203.39320142353972)">
<rect fill="white" fill-opacity="0.75" height="12" id="label-bg" width="184.14736842105265" x="4" y="-16"/>
<text font-size="16.0" id="15/wp/text" text-anchor="start" x="4.000" y="-4.000">
Schonach im Schwarzwald
</text>
</g>
<g>
<circle cx="111.95331727392113" cy="110.68307477001508" fill="Black" id="16/wp/circle" r="4"/>
<circle cx="111.95331727392113" cy="110.68307477001508" fill="white" id="16/wp/circle-little-white" r="2.5"/>
</g>
<g transform="translate(111.95331727392113 110.68307477001508)">
<rect fill="white" fill-opacity="0.75" height="12" id="label-bg" width="83.34736842105264" x="4" y="-16"/>
<text font-size="16.0" id="16/wp/text" text-anchor="start" x="4.000" y="-4.000">
Mühlenbach
</text>
</g>
<g>
<circle cx="147.6961089531187" cy="86.00487266633354" fill="Black" id="17/wp/circle" r="5"/>
<circle cx="147.6961089531187" cy="86.00487266633354" fill="white" id="17/wp/circle-little-white" r="3.5"/>
<circle cx="147.6961089531187" cy="86.00487266633354" fill="black" id="17/wp/circle-little-white" r="2.5"/>
</g>
<g transform="translate(147.6961089531187 86.00487266633354)">
<rect fill="white" fill-opacity="0.75" height="12" id="label-bg" width="58.71578947368421" x="4" y="-16"/>
<text font-size="16.0" id="17/wp/text" text-anchor="start" x="4.000" y="-4.000">
Hausach
</text>
</g>
<g>
<circle cx="112.42476754552172" cy="82.51991341241228" fill="Black" id="18/wp/circle" r="4"/>
<circle cx="112.42476754552172" cy="82.51991341241228" fill="white" id="18/wp/circle-little-white" r="2.5"/>
</g>
<g transform="translate(112.42476754552172 82.51991341241228)">
<rect fill="white" fill-opacity="0.75" height="12" id="label-bg" width="83.34736842105264" x="10.652631578947364" y="-30"/>
<text font-size="16.0" id="18/wp/text" text-anchor="start" x="10.653" y="-18.000">
Fischerbach
</text>
</g>
<path d="M120.13,68.28 L113.38,80.76" fill="transparent" id="link" stroke="black" stroke-linejoin="miter" stroke-miterlimit="1"/>
<g>
<circle cx="86.83572576388633" cy="32.09663281439498" fill="Black" id="19/wp/circle" r="5"/>
<circle cx="86.83572576388633" cy="32.09663281439498" fill="white" id="19/wp/circle-little-white" r="3.5"/>
<circle cx="86.83572576388633" cy="32.09663281439498" fill="black" id="19/wp/circle-little-white" r="2.5"/>
</g>
<g transform="translate(86.83572576388633 32.09663281439498)">
<rect fill="white" fill-opacity="0.75" height="12" id="label-bg" width="145.6842105263158" x="-83.68421052631581" y="-30"/>
<text font-size="16.0" id="19/wp/text" text-anchor="start" x="-83.684" y="-18.000">
Zell am Harmersbach
</text>
</g>
<path d="M86.84,18.10 L86.84,30.10" fill="transparent" id="link" stroke="black" stroke-linejoin="miter" stroke-miterlimit="1"/>
<g>
<circle cx="129.35612163021415" cy="143.80561390856383" fill="Black" id="20/wp/circle" r="4"/>
<circle cx="129.35612163021415" cy="143.80561390856383" fill="white" id="20/wp/circle-little-white" r="2.5"/>
</g>
<g transform="translate(129.35612163021415 143.80561390856383)">
<rect fill="white" fill-opacity="0.75" height="12" id="label-bg" width="90.45263157894736" x="-94.45263157894736" y="4"/>
<text font-size="16.0" id="20/wp/text" text-anchor="end" x="-4.000" y="16.000">
Oberprechtal
</text>
</g>
<g>
<circle cx="175.9719121377575" cy="34.800147415651736" fill="Black" id="22/wp/circle" r="4"/>
<circle cx="175.9719121377575" cy="34.800147415651736" fill="white" id="22/wp/circle-little-white" r="2.5"/>
</g>
<g transform="translate(175.9719121377575 34.800147415651736)">
<rect fill="white" fill-opacity="0.75" height="12" id="label-bg" width="38.347368421052636" x="23.652631578947364" y="-30"/>
<text font-size="16.0" id="22/wp/text" text-anchor="start" x="23.653" y="-18.000">
Walke
</text>
</g>
<path d="M196.02,19.99 L177.58,33.61" fill="transparent" id="link" stroke="black" stroke-linejoin="miter" stroke-miterlimit="1"/>
<g>
<circle cx="90.16529820481901" cy="177.46482558042044" fill="Black" id="26/wp/circle" r="5"/>
<circle cx="90.16529820481901" cy="177.46482558042044" fill="white" id="26/wp/circle-little-white" r="3.5"/>
<circle cx="90.16529820481901" cy="177.46482558042044" fill="black" id="26/wp/circle-little-white" r="2.5"/>
</g>
<g transform="translate(90.16529820481901 177.46482558042044)">
<rect fill="white" fill-opacity="0.75" height="12" id="label-bg" width="44.22105263157895" x="-48.22105263157895" y="4"/>
<text font-size="16.0" id="26/wp/text" text-anchor="end" x="-4.000" y="16.000">
Elzach
</text>
</g>
</g>
</svg>