<svg height="400" viewBox="(0, 0, 400, 400)" width="400" xmlns="http://www.w3.org/2000/svg">
<path d="M300.9,384.7 L300.9,384.5 L300.8,384.5 L300.6,384.6 L300.5,384.6 L300.2,384.6 L300.2,384.5 L300.1,384.5 L299.9,384.4 L299.6,384.2 L299.3,383.9 L299.0,383.8 L298.3,383.5 L298.2,383.5 L298.1,383.4 L298.1,383.2 L298.0,382.8 L298.0,382.5 L297.9,382.3 L297.7,382.2 L297.5,382.1 L297.2,382.0 L297.0,381.8 L296.9,381.6 L296.8,381.2 L296.7,381.0 L296.6,380.8 L296.5,380.6 L296.2,380.2 L296.0,380.1 L295.6,379.6 L295.2,379.1 L295.1,379.0 L295.0,378.7 L294.9,378.4 L294.8,378.1 L294.9,377.8 L295.0,377.5 L295.3,376.9 L295.5,376.3 L295.6,375.8 L295.7,375.5 L295.8,374.8 L295.9,374.6 L295.7,374.2 L295.6,374.1 L295.3,373.5 L295.2,373.1 L295.1,372.8 L294.7,369.3 L294.5,367.1 L294.3,366.2 L294.3,365.7 L294.1,364.7 L294.2,364.6 L294.2,364.5 L294.1,364.2 L293.8,363.4 L292.0,360.6 L291.9,360.6 L291.8,360.6 L291.3,360.2 L291.2,360.1 L290.6,359.4 L289.8,358.3 L289.5,358.1 L289.3,357.9 L289.2,357.6 L289.1,357.2 L289.0,357.0 L288.5,356.3 L288.2,355.8 L288.2,355.8 L288.1,355.7 L288.0,355.6 L288.1,355.5 L288.2,355.0 L288.3,354.9 L288.3,354.8 L288.3,354.7 L288.3,354.2 L288.3,354.0 L288.2,354.0 L288.1,354.0 L287.9,353.9 L287.8,353.8 L287.4,353.3 L287.0,352.8 L286.6,352.2 L286.4,352.1 L286.3,352.1 L286.1,352.2 L285.9,352.2 L285.7,352.2 L285.6,352.1 L285.0,351.4 L284.6,351.0 L284.6,351.0 L284.3,350.8 L284.0,350.6 L283.6,350.5 L283.0,350.3 L282.7,350.2 L282.6,350.0 L282.4,349.9 L282.2,349.6 L282.0,349.4 L281.9,349.3 L281.7,349.0 L281.5,348.8 L281.5,348.6 L281.4,348.4 L281.4,348.0 L281.4,347.9 L281.4,347.6 L281.5,347.5 L281.5,347.4 L281.6,347.3 L281.7,347.3 L281.8,347.3 L281.9,347.2 L282.0,347.0 L282.1,347.0 L281.9,346.8 L281.5,346.7 L281.2,346.6 L280.9,346.6 L280.7,346.6 L280.5,346.7 L280.2,346.8 L279.9,346.9 L278.9,347.6 L278.6,347.7 L278.3,347.8 L278.0,347.9 L277.2,348.0 L276.9,348.0 L276.6,348.0 L276.3,347.9 L276.0,347.9 L275.7,347.8 L273.3,346.3 L272.3,345.8 L271.3,345.4 L270.5,345.0 L270.0,344.8 L269.5,344.4 L269.2,344.1 L268.8,343.5 L268.6,343.0 L268.5,342.5 L268.4,342.2 L268.3,341.9 L268.1,341.6 L267.9,341.4 L267.6,341.3 L266.7,340.9 L266.1,340.6 L265.4,340.0 L264.5,339.2 L264.0,338.7 L263.6,337.9 L263.4,336.2 L263.3,335.7 L263.0,335.1 L262.6,334.7 L261.8,334.3 L261.2,334.1 L260.6,333.9 L260.0,333.6 L259.9,333.6 L259.3,333.2 L258.9,333.1 L257.7,333.0 L256.4,333.0 L255.7,333.0 L255.1,333.1 L254.7,333.1 L254.5,333.0 L254.2,332.9 L253.9,332.6 L253.6,332.3 L253.2,331.9 L252.9,331.8 L252.8,331.8 L252.4,331.9 L252.1,332.0 L251.4,332.6 L251.2,332.8 L250.9,333.0 L250.4,333.7 L250.2,333.8 L250.0,334.0 L249.8,334.0 L249.6,334.0 L249.4,334.0 L249.1,333.9 L247.0,332.8 L246.7,332.6 L246.6,332.5 L246.5,332.3 L246.4,332.1 L246.2,331.5 L246.1,331.3 L246.0,331.0 L245.8,330.9 L245.6,330.6 L245.4,330.5 L244.6,330.0 L243.8,329.4 L243.6,329.3 L243.4,329.2 L243.0,329.0 L242.0,328.9 L241.6,328.8 L240.8,328.6 L239.1,328.3 L238.6,328.2 L238.2,327.9 L237.8,327.6 L237.5,327.3 L237.2,327.1 L237.0,327.0 L235.3,326.3 L234.6,326.0 L234.3,325.8 L234.1,325.7 L233.8,325.5 L233.7,325.4 L233.7,325.4 L233.7,325.3 L233.5,325.2 L233.5,325.2 L233.4,324.9 L233.1,324.5 L232.8,324.0 L232.7,323.7 L232.7,323.5 L233.0,322.8 L233.1,322.6 L233.1,322.4 L233.1,322.2 L233.0,321.8 L232.9,321.2 L232.9,321.0 L232.8,320.7 L232.6,320.5 L232.1,320.0 L232.0,319.8 L231.9,319.7 L231.9,318.9 L231.9,318.7 L231.7,318.4 L231.5,318.1 L231.5,318.1 L231.4,317.9 L231.2,317.8 L230.1,317.1 L229.7,316.7 L229.5,316.6 L229.3,316.2 L229.1,316.0 L229.0,315.7 L228.9,315.4 L228.5,314.0 L228.1,312.5 L228.0,312.0 L227.8,312.0 L227.6,312.0 L227.4,312.0 L227.3,312.0 L227.0,312.1 L225.0,312.2 L224.9,312.2 L224.5,312.0 L224.1,311.9 L223.7,311.8 L223.3,311.8 L223.2,311.8 L222.4,311.6 L222.2,311.5 L222.1,311.5 L221.9,311.3 L221.2,311.0 L221.1,311.0 L220.6,310.7 L220.2,310.6 L220.1,310.6 L219.6,310.6 L219.5,310.6 L219.3,310.5 L218.9,310.4 L218.7,310.3 L218.4,310.1 L218.0,309.9 L217.8,309.7 L217.7,309.7 L216.8,309.2 L216.4,309.1 L215.9,308.9 L215.2,308.5 L215.0,308.5 L214.7,308.5 L214.0,308.4 L213.8,308.4 L213.7,308.3 L213.7,308.3 L213.5,308.2 L213.5,308.1 L213.5,307.8 L213.5,307.7 L213.4,307.7 L213.3,307.6 L213.2,307.7 L213.1,307.8 L213.0,307.8 L212.8,308.3 L212.7,308.4 L212.6,308.4 L212.4,308.4 L212.2,308.4 L212.0,308.4 L211.8,308.4 L211.6,308.3 L211.0,308.1 L210.5,307.8 L210.3,307.7 L209.1,307.2 L208.3,306.8 L207.9,306.7 L207.6,306.6 L207.3,306.5 L206.4,306.4 L205.9,306.3 L205.6,306.2 L205.3,306.0 L204.7,305.5 L204.5,305.3 L204.4,305.3 L203.7,305.3 L203.0,305.1 L202.7,305.1 L202.5,305.1 L202.2,305.2 L202.0,305.2 L201.7,305.1 L201.3,305.0 L200.3,304.9 L200.0,304.8 L199.2,304.8 L199.1,304.8 L199.1,304.8 L198.3,304.4 L198.1,304.3 L197.7,304.0 L197.6,303.9 L197.6,303.9 L197.5,303.7 L197.4,303.7 L197.0,303.6 L196.6,303.5 L196.1,303.4 L195.7,303.3 L195.4,303.3 L194.7,303.2 L194.4,303.2 L194.1,303.2 L193.7,303.1 L193.5,303.1 L193.1,302.9 L193.0,302.9 L192.8,302.9 L192.4,302.9 L192.1,303.0 L191.8,303.1 L191.6,303.3 L191.5,303.3 L191.0,303.3 L190.2,303.5 L190.0,303.5 L189.3,303.4 L189.1,303.4 L187.8,303.5 L187.2,303.5 L186.4,303.4 L186.2,303.4 L186.0,303.3 L185.8,303.3 L185.3,302.9 L185.1,302.9 L184.9,302.8 L184.1,302.8 L183.2,302.8 L182.7,302.8 L182.4,302.9 L182.0,303.1 L181.7,303.2 L181.5,303.3 L180.9,303.3 L180.4,303.5 L180.1,303.5 L179.7,303.4 L179.2,303.3 L178.5,303.1 L178.3,303.0 L178.2,303.0 L177.7,303.0 L177.4,302.9 L177.3,302.8 L177.1,302.7 L176.5,302.4 L175.7,301.8 L175.6,301.7 L175.4,301.3 L175.3,301.3 L175.2,301.2 L175.1,301.2 L174.8,301.1 L174.1,300.8 L173.9,300.7 L173.8,300.8 L173.7,300.9 L173.6,301.0 L173.6,301.0 L173.6,301.2 L173.7,301.3 L173.7,301.4 L174.1,301.6 L174.2,301.6 L174.2,301.7 L174.3,302.1 L174.4,302.2 L174.5,302.4 L174.5,302.5 L174.5,302.6 L174.5,302.6 L174.4,302.8 L174.3,303.2 L174.3,303.3 L174.2,303.4 L174.2,303.5 L173.1,304.1 L172.7,304.2 L172.2,304.4 L171.6,304.5 L171.3,304.5 L171.1,304.5 L170.8,304.4 L170.5,304.3 L170.1,304.2 L169.9,304.2 L169.0,303.8 L168.6,303.6 L168.2,303.4 L167.8,303.3 L166.7,303.0 L166.4,303.0 L166.0,303.0 L165.6,303.0 L165.3,303.1 L163.7,303.8 L162.8,304.1 L162.6,304.1 L162.4,304.1 L162.0,303.9 L161.6,303.6 L161.4,303.4 L161.2,303.1 L161.1,302.9 L161.0,302.7 L160.7,302.4 L159.9,301.4 L159.8,301.2 L159.5,300.4 L159.2,299.9 L159.2,299.8 L159.1,298.8 L158.9,298.1 L158.8,297.6 L158.4,296.9 L157.9,296.2 L157.7,295.8 L157.3,295.2 L157.2,295.0 L157.1,294.8 L157.0,294.1 L156.9,293.9 L156.9,293.8 L156.9,293.7 L156.7,293.4 L156.0,292.5 L155.0,291.0 L154.6,290.5 L154.5,290.4 L154.5,290.4 L154.4,290.2 L154.3,290.1 L154.2,289.8 L154.2,289.6 L154.3,288.1 L154.4,287.8 L154.5,287.4 L155.0,286.6 L155.0,286.4 L155.0,286.3 L154.9,286.1 L154.9,286.0 L154.9,285.9 L154.8,285.7 L154.9,285.5 L154.9,285.5 L155.0,285.4 L155.1,285.4 L155.1,285.4 L155.2,285.4 L155.3,285.4 L155.4,285.4 L155.6,285.4 L156.1,285.4 L156.7,285.3 L156.7,285.3 L157.3,285.2 L157.5,285.1 L157.5,285.1 L157.6,285.0 L157.7,284.9 L157.9,284.7 L157.9,284.6 L157.9,284.6 L158.0,284.5 L158.0,284.4 L158.1,284.3 L158.2,284.2 L158.3,284.1 L158.3,284.0 L158.3,283.9 L158.6,283.5 L158.9,283.2 L159.0,283.0 L159.2,282.9 L159.2,282.8 L159.6,282.6 L159.8,282.5 L160.1,282.4 L160.1,282.4 L160.2,282.4 L160.2,282.4 L160.4,282.3 L160.6,282.3 L160.7,282.3 L160.8,282.2 L160.9,282.2 L160.9,282.2 L161.2,282.0 L161.6,281.7 L161.7,281.6 L161.9,281.4 L162.3,281.2 L162.5,281.0 L162.8,280.8 L162.9,280.7 L163.0,280.6 L163.0,280.5 L163.0,280.3 L162.9,279.9 L162.7,279.6 L162.1,278.8 L162.2,278.7 L162.3,278.7 L162.5,278.6 L162.5,278.6 L162.8,278.6 L162.7,278.4 L162.7,278.2 L162.7,278.1 L162.6,278.1 L162.6,278.0 L162.6,277.9 L162.5,277.8 L162.5,277.7 L162.4,277.3 L162.3,277.0 L162.0,277.2 L161.7,277.3 L161.5,277.3 L161.5,277.5 L161.6,277.8 L161.6,277.8 L161.8,278.3 L162.2,278.1 L162.6,278.0 L162.6,277.9 L162.5,277.8 L162.5,277.7 L162.4,277.3 L162.3,277.0 L162.0,276.2 L161.7,276.3 L161.4,276.4 L161.4,276.8 L161.5,277.3 L161.5,277.5 L161.6,277.8 L161.6,277.8 L161.8,278.3 L162.2,278.1 L162.6,278.0 L162.6,277.9 L162.5,277.8 L162.5,277.7 L162.4,277.3 L162.3,277.0 L162.0,276.2 L161.7,276.3 L161.4,276.4 L161.4,276.0 L161.2,276.0 L161.1,275.9 L161.1,275.8 L161.0,275.5 L160.8,275.3 L160.7,275.3 L160.4,275.1 L160.2,275.0 L160.1,274.9 L159.8,274.2 L159.6,273.9 L159.3,273.5 L159.0,273.2 L158.9,273.0 L158.1,271.9 L158.1,271.9 L157.8,271.4 L157.6,271.0 L157.5,270.7 L157.3,270.1 L157.3,269.5 L157.2,268.8 L157.0,268.4 L157.0,268.4 L156.9,268.2 L156.8,268.0 L156.5,267.5 L155.7,266.3 L155.4,265.9 L155.3,265.5 L155.2,265.0 L155.1,264.7 L154.9,264.4 L154.5,264.1 L154.4,264.0 L154.4,264.0 L154.2,263.8 L154.1,263.7 L152.9,261.9 L152.7,261.5 L152.5,261.0 L152.3,260.6 L152.2,260.3 L151.2,258.1 L151.1,258.0 L150.6,256.8 L150.4,256.2 L149.9,254.1 L149.8,253.8 L149.7,253.7 L149.7,253.6 L149.5,253.1 L149.2,252.5 L148.9,252.0 L148.6,251.6 L148.4,251.0 L148.3,250.8 L148.2,250.5 L148.0,250.2 L147.9,250.0 L147.9,249.9 L147.8,249.7 L147.9,249.2 L148.1,248.8 L148.3,248.4 L148.5,248.1 L148.5,248.1 L148.4,247.7 L148.3,247.2 L148.2,246.9 L148.1,246.7 L147.6,246.1 L147.5,245.9 L147.5,245.8 L147.5,245.5 L147.5,245.3 L147.5,244.8 L147.5,244.6 L147.3,244.4 L147.2,244.3 L146.9,244.1 L146.8,244.0 L146.7,243.9 L146.7,243.6 L146.5,243.1 L146.1,242.6 L146.1,242.4 L146.1,242.2 L146.1,242.1 L146.3,241.8 L146.3,241.7 L146.3,241.7 L146.3,241.6 L146.1,241.5 L146.0,241.4 L146.0,241.3 L146.0,241.2 L146.1,240.8 L146.1,240.6 L146.1,240.4 L146.0,240.1 L145.7,239.6 L145.6,239.1 L145.4,238.8 L145.3,238.5 L145.2,238.2 L145.1,238.0 L144.9,237.9 L144.7,237.8 L144.6,237.8 L144.3,237.4 L144.2,237.2 L144.1,237.1 L144.2,237.0 L144.2,236.9 L144.5,236.4 L144.6,236.3 L144.6,236.2 L144.7,235.9 L144.7,235.7 L144.4,234.5 L144.3,233.6 L144.3,233.4 L144.2,232.9 L144.2,232.4 L144.0,231.3 L144.1,231.0 L144.0,230.9 L144.0,230.8 L143.9,230.6 L144.1,230.4 L144.4,229.9 L144.7,229.3 L145.0,228.7 L145.0,228.4 L144.9,227.4 L145.0,226.7 L145.2,226.5 L145.2,226.4 L145.3,226.2 L145.1,225.8 L144.9,225.6 L144.6,225.4 L144.3,225.2 L143.9,225.0 L143.6,224.7 L143.5,224.5 L143.2,224.2 L143.2,224.1 L143.2,224.0 L143.4,223.8 L143.4,223.7 L143.4,223.6 L143.3,223.3 L143.3,223.2 L143.3,223.1 L143.3,222.8 L143.1,222.6 L143.1,222.5 L143.1,222.4 L143.1,222.1 L143.1,222.1 L143.0,221.9 L142.8,221.5 L142.9,221.1 L142.9,220.9 L142.9,220.8 L142.7,220.4 L142.6,220.2 L142.3,219.9 L142.3,219.8 L142.3,219.6 L142.3,219.4 L142.3,219.1 L142.5,218.6 L142.6,218.5 L143.0,218.1 L143.5,217.7 L143.9,217.2 L144.3,216.8 L144.5,216.5 L144.6,216.4 L144.8,216.1 L144.9,215.8 L145.0,215.7 L145.4,215.4 L146.7,214.4 L147.8,213.7 L147.9,213.6 L148.0,213.5 L148.0,213.4 L148.1,213.2 L148.0,212.5 L147.9,212.2 L147.9,212.0 L147.9,211.9 L148.0,211.2 L148.0,210.8 L147.9,210.5 L147.9,210.4 L147.9,210.2 L148.1,210.1 L148.1,210.0 L148.1,209.9 L148.1,209.8 L147.9,209.6 L147.7,209.4 L147.6,209.3 L147.7,209.2 L147.7,209.0 L147.8,209.0 L147.9,208.8 L148.4,208.5 L148.6,208.3 L149.0,208.2 L149.7,207.7 L149.9,207.7 L150.0,207.7 L150.5,207.4 L150.7,207.3 L150.7,207.0 L150.8,206.9 L150.8,206.5 L151.0,206.3 L151.2,206.1 L151.4,205.9 L151.5,205.7 L151.6,205.5 L151.7,205.4 L151.9,205.3 L152.3,205.2 L152.4,205.2 L152.5,205.1 L154.0,203.7 L154.2,203.5 L154.8,203.4 L155.6,203.2 L155.9,203.1 L156.1,203.1 L156.2,203.1 L156.2,203.0 L156.7,202.7 L156.9,202.6 L157.3,202.5 L157.4,202.5 L157.7,202.5 L157.9,202.5 L158.0,202.5 L158.3,202.5 L158.4,202.3 L158.3,202.2 L158.0,201.4 L157.9,201.0 L157.8,200.8 L157.8,200.6 L157.7,200.6 L157.6,200.5 L157.2,200.5 L157.1,200.4 L157.0,200.3 L156.9,199.9 L156.9,199.9 L156.6,199.7 L156.5,199.6 L156.2,199.5 L155.9,199.4 L155.5,199.2 L155.1,199.1 L154.8,199.0 L154.5,198.8 L154.4,198.7 L154.3,198.6 L154.0,198.5 L153.9,198.4 L153.6,198.1 L153.4,198.0 L153.1,197.9 L152.6,197.7 L152.5,197.7 L152.3,197.6 L151.8,197.3 L151.6,197.2 L151.4,197.0 L151.0,196.3 L150.8,196.0 L150.6,195.8 L150.4,195.7 L150.1,195.6 L149.9,195.6 L149.7,195.6 L149.5,195.7 L149.4,195.9 L149.3,196.0 L149.3,196.1 L149.3,196.3 L149.3,196.4 L149.4,196.7 L149.5,196.9 L149.5,197.0 L149.4,197.1 L149.4,197.2 L149.3,197.3 L148.0,197.9 L147.9,198.0 L147.8,198.1 L147.7,198.3 L147.5,198.8 L147.4,198.9 L147.0,199.4 L146.6,199.7 L146.4,199.8 L146.0,200.0 L145.4,200.1 L145.3,200.1 L144.8,200.2 L144.5,200.3 L144.0,200.6 L143.6,200.9 L143.3,201.2 L143.1,201.5 L142.9,201.8 L142.6,202.7 L142.5,202.9 L142.2,203.4 L141.8,203.7 L141.0,204.3 L140.9,204.4 L140.8,204.5 L140.8,204.6 L140.7,204.8 L140.7,204.8 L140.7,205.0 L140.8,205.1 L140.9,205.3 L141.0,205.4 L141.1,205.5 L141.2,205.6 L141.4,205.7 L141.4,205.9 L141.5,206.1 L141.5,206.4 L141.5,206.6 L141.4,206.6 L141.4,206.7 L141.2,206.9 L141.1,207.0 L140.8,207.1 L140.6,207.2 L140.1,207.2 L140.0,207.2 L139.7,207.3 L139.5,207.4 L139.2,207.6 L139.1,207.7 L139.0,208.0 L138.8,208.3 L138.7,208.5 L138.3,209.1 L138.2,209.4 L138.2,209.7 L138.2,210.5 L138.3,210.9 L138.3,211.1 L138.6,211.9 L138.7,212.0 L138.6,212.1 L138.6,212.2 L138.5,212.3 L138.5,212.3 L138.4,212.4 L138.3,212.4 L137.8,212.3 L137.4,212.0 L137.4,212.0 L137.3,212.0 L137.2,212.0 L137.1,212.0 L137.0,212.1 L136.7,212.8 L136.5,213.1 L136.2,213.4 L135.9,213.9 L135.8,214.0 L135.7,214.0 L135.6,214.0 L135.5,213.9 L135.5,213.8 L135.5,213.7 L135.6,213.5 L135.9,213.4 L136.1,213.3 L136.3,213.1 L136.4,212.9 L136.5,212.7 L136.6,212.4 L136.7,211.8 L136.7,211.6 L136.8,211.4 L136.9,211.3 L137.1,211.0 L137.2,210.8 L137.2,210.6 L137.1,210.2 L136.7,209.2 L136.7,208.9 L136.7,208.8 L136.8,208.4 L137.0,207.8 L137.1,207.4 L137.2,206.6 L137.2,205.7 L137.2,205.1 L137.1,204.7 L136.9,203.7 L136.9,203.5 L136.9,203.3 L136.9,203.0 L137.4,202.1 L137.5,201.3 L137.8,200.8 L137.9,200.5 L137.9,200.3 L137.7,199.3 L137.6,198.7 L137.4,198.1 L137.3,197.9 L137.2,197.7 L136.8,197.5 L136.7,197.3 L136.7,197.3 L136.6,197.0 L136.6,196.7 L136.8,196.3 L136.9,196.1 L136.9,195.9 L136.8,195.8 L136.5,195.4 L136.5,195.3 L136.5,195.2 L136.4,195.0 L136.5,194.7 L136.6,194.6 L136.7,194.5 L136.9,194.2 L137.0,193.9 L137.2,193.5 L137.3,193.4 L137.3,193.2 L137.3,193.0 L137.2,192.8 L137.1,192.6 L136.9,192.4 L136.9,192.1 L136.9,192.0 L137.0,191.8 L137.3,191.5 L137.4,191.3 L137.4,191.2 L137.4,190.6 L137.4,189.5 L137.5,189.3 L137.6,188.8 L137.6,188.6 L137.6,188.4 L137.5,188.3 L137.4,188.1 L137.0,187.7 L136.6,187.4 L136.5,187.1 L136.5,187.0 L136.5,186.6 L136.6,186.4 L136.7,186.3 L136.8,186.2 L137.3,185.8 L137.4,185.7 L137.5,185.4 L137.6,185.1 L137.5,184.9 L137.5,184.7 L137.4,184.6 L137.2,184.2 L137.0,183.9 L136.9,183.3 L136.9,182.5 L136.8,181.9 L136.8,181.6 L136.8,181.5 L137.0,180.9 L137.0,180.7 L137.1,180.3 L137.1,180.0 L137.4,179.4 L137.4,179.1 L137.5,178.9 L137.6,178.6 L137.6,178.1 L137.6,177.8 L137.6,177.4 L137.4,176.7 L137.4,176.3 L137.3,176.1 L137.3,176.1 L137.1,175.9 L137.0,175.8 L136.9,175.7 L136.9,175.6 L136.8,175.5 L136.7,175.0 L136.7,174.6 L136.8,174.4 L136.8,174.2 L136.9,174.1 L137.2,173.8 L137.3,173.7 L137.3,173.5 L137.4,172.9 L137.4,172.7 L137.5,172.6 L137.6,172.6 L137.6,172.5 L137.8,172.4 L138.0,172.0 L138.1,171.8 L138.1,171.6 L138.1,171.2 L138.2,170.7 L138.2,170.5 L138.2,170.4 L138.2,170.2 L138.1,170.2 L138.0,170.1 L137.7,170.0 L137.7,170.0 L137.6,170.0 L137.6,170.0 L137.6,170.0 L137.5,169.9 L137.5,169.9 L137.5,169.9 L137.5,169.9 L137.5,169.7 L137.6,169.6 L137.7,169.5 L138.4,168.8 L138.5,168.6 L138.6,168.5 L138.6,168.3 L138.4,167.3 L138.4,166.9 L138.4,166.8 L138.5,166.6 L138.7,166.3 L138.8,166.0 L138.9,165.5 L138.9,165.0 L138.8,164.3 L138.8,164.1 L138.7,163.9 L138.6,163.7 L138.3,163.3 L138.3,163.3 L138.2,163.1 L138.1,163.0 L138.0,162.8 L138.0,162.5 L138.0,162.5 L137.9,162.0 L138.0,161.7 L138.1,161.6 L138.5,161.1 L138.6,160.9 L138.7,160.6 L139.1,159.4 L139.1,159.0 L139.1,158.9 L139.1,158.7 L139.1,158.6 L138.9,158.4 L138.8,158.2 L138.6,158.1 L138.5,158.0 L138.5,157.9 L138.4,157.8 L138.4,157.6 L138.5,157.4 L138.7,156.6 L138.8,156.1 L138.9,155.9 L138.9,155.6 L138.9,155.2 L138.8,154.9 L138.5,154.3 L138.4,154.1 L138.4,154.0 L138.4,153.8 L138.5,153.5 L138.5,153.3 L138.6,153.1 L139.0,152.4 L139.1,152.1 L139.1,151.9 L139.0,151.6 L139.1,151.2 L139.1,151.0 L139.1,150.7 L139.0,150.3 L139.0,150.1 L138.9,149.9 L138.9,149.7 L138.9,149.6 L138.9,149.5 L138.8,149.5 L138.8,149.3 L138.7,149.1 L138.5,148.9 L138.2,148.6 L138.2,148.6 L138.1,148.6 L138.1,148.6 L138.0,148.5 L138.0,148.5 L137.9,148.5 L137.8,148.4 L137.6,148.3 L137.2,148.3 L137.1,148.2 L136.9,148.1 L136.8,148.0 L136.6,147.7 L136.0,146.9 L135.7,146.7 L135.6,146.5 L135.3,146.0 L135.1,145.7 L135.0,145.6 L134.9,145.4 L134.5,145.0 L134.4,144.9 L134.3,144.9 L134.1,144.7 L133.6,144.1 L133.4,143.9 L133.2,143.6 L133.1,143.5 L132.9,143.4 L132.6,143.2 L132.3,143.1 L131.9,143.0 L131.8,142.9 L131.4,142.6 L131.2,142.5 L131.0,142.4 L130.7,142.3 L130.5,142.3 L130.5,142.3 L130.2,142.3 L129.9,142.2 L129.8,142.2 L129.4,141.9 L129.2,141.8 L129.1,141.7 L128.8,141.7 L128.7,141.6 L128.6,141.4 L128.5,141.3 L128.4,141.3 L128.3,141.3 L128.4,141.1 L128.4,140.8 L128.4,140.7 L128.4,140.7 L128.3,140.4 L128.2,140.2 L128.2,140.0 L128.6,139.4 L128.6,139.4 L128.8,139.0 L129.1,138.4 L129.5,138.0 L130.0,137.3 L130.1,137.2 L130.7,136.2 L130.8,135.7 L130.9,135.6 L131.4,135.2 L131.6,134.9 L131.9,134.2 L132.2,133.8 L132.5,133.5 L133.0,133.0 L133.6,132.4 L133.8,132.2 L134.4,131.1 L134.5,131.0 L134.6,130.9 L135.0,130.7 L135.5,130.5 L135.7,130.4 L136.5,130.2 L136.8,130.1 L137.1,129.9 L137.7,129.6 L138.5,129.3 L138.4,129.1 L138.5,129.0 L138.6,128.9 L138.7,128.9 L138.9,128.8 L139.0,128.7 L139.2,128.6 L139.5,128.5 L139.7,128.4 L139.8,128.3 L140.0,128.1 L140.5,127.7 L140.7,127.4 L141.0,127.1 L141.5,126.7 L141.7,126.5 L141.7,126.4 L141.8,126.3 L141.8,126.2 L141.9,126.2 L142.1,126.2 L142.3,126.1 L142.4,126.1 L142.4,126.0 L142.4,125.9 L142.4,125.7 L142.4,125.5 L142.4,125.0 L142.4,124.8 L142.3,124.6 L142.0,124.3 L142.0,124.3 L142.0,124.2 L142.2,123.9 L142.3,123.8 L142.3,123.1 L142.3,122.8 L142.3,122.4 L142.3,122.3 L142.4,122.2 L142.5,122.2 L142.6,122.2 L142.6,122.3 L142.9,122.5 L142.9,122.5 L143.0,122.5 L143.0,122.4 L143.5,121.6 L144.0,121.0 L144.0,120.9 L143.9,120.8 L143.6,120.5 L143.3,120.3 L143.2,120.0 L143.2,119.9 L143.1,119.8 L143.0,119.5 L142.9,119.3 L142.8,119.3 L142.5,118.9 L142.0,118.3 L141.9,118.1 L141.4,117.7 L141.2,117.4 L140.9,117.1 L140.7,117.0 L140.4,116.8 L140.2,116.7 L140.0,116.4 L139.8,116.4 L139.4,116.4 L139.1,116.3 L138.8,116.3 L138.4,116.2 L138.0,116.2 L137.8,116.2 L137.6,116.1 L137.4,115.9 L137.1,115.5 L137.1,115.5 L137.0,115.5 L136.3,115.4 L135.8,115.5 L135.6,115.4 L134.6,115.3 L134.5,115.3 L134.2,115.5 L134.1,115.5 L133.8,115.5 L133.6,115.5 L133.4,115.5 L133.2,115.6 L132.6,115.7 L132.3,115.7 L131.8,115.8 L131.7,115.7 L131.3,115.6 L131.2,115.5 L131.0,115.3 L130.8,115.2 L130.7,115.2 L130.5,115.2 L129.3,115.3 L128.4,115.2 L128.1,115.2 L127.8,115.3 L127.8,115.3 L127.6,115.3 L126.7,114.9 L126.2,114.8 L125.8,114.6 L125.7,114.5 L125.4,114.3 L124.7,113.5 L124.6,113.4 L124.5,113.3 L124.3,113.2 L124.1,113.0 L124.1,112.9 L123.6,112.7 L123.5,112.6 L123.1,112.6 L122.9,112.5 L122.5,112.2 L122.4,112.2 L122.0,112.1 L121.5,111.9 L121.0,111.8 L120.9,111.7 L120.5,111.4 L120.2,111.3 L120.1,111.3 L119.8,111.0 L119.5,110.9 L118.9,110.5 L118.5,110.4 L118.3,110.3 L118.0,110.0 L117.8,110.0 L117.4,109.8 L117.3,109.8 L116.4,109.3 L116.1,109.1 L115.9,109.0 L115.8,108.8 L115.7,108.8 L115.5,108.6 L115.1,108.3 L114.5,108.0 L114.3,107.9 L113.8,107.8 L113.1,107.7 L113.0,107.7 L112.7,107.5 L112.5,107.4 L112.4,107.4 L112.1,107.4 L112.1,107.4 L112.0,107.5 L111.8,107.7 L111.5,107.7 L111.3,107.7 L111.0,107.7 L110.9,107.7 L110.7,107.6 L110.7,107.4 L110.6,107.0 L110.5,106.8 L110.4,106.6 L110.2,106.3 L110.0,106.2 L110.0,106.1 L109.9,106.0 L109.9,105.8 L109.8,105.6 L109.8,105.5 L109.6,105.3 L109.4,105.1 L109.2,104.9 L109.1,104.8 L109.0,104.6 L108.9,104.5 L108.9,104.4 L108.8,104.3 L108.7,104.1 L108.7,104.1 L108.5,104.1 L108.5,103.9 L108.5,103.7 L108.2,103.2 L108.1,103.0 L107.8,102.7 L106.9,101.9 L106.8,101.7 L106.6,101.1 L106.5,101.0 L106.4,100.9 L106.0,100.7 L105.9,100.6 L105.9,100.4 L105.9,100.3 L106.0,99.9 L105.9,99.6 L105.6,99.1 L105.4,98.7 L105.2,98.4 L104.9,98.0 L104.2,97.3 L104.0,97.0 L103.8,96.7 L103.6,96.4 L103.3,95.9 L102.9,95.2 L102.3,94.5 L101.6,93.7 L101.5,93.6 L100.0,91.5 L100.0,91.5 L99.9,91.4 L99.9,91.3 L99.7,91.0 L99.4,90.0 L99.3,89.8 L99.3,89.3 L99.3,89.2 L99.2,89.1 L99.3,89.1 L99.3,89.0 L99.3,88.5 L99.2,87.6 L99.2,87.3 L99.2,87.0 L99.1,86.8 L99.1,86.7 L99.1,86.6 L99.1,86.5 L99.1,86.2 L99.2,85.9 L99.3,85.6 L99.4,85.3 L99.5,85.1 L99.5,85.0 L100.2,85.2 L100.7,85.3 L100.8,85.3 L101.2,85.4 L101.5,85.5 L101.6,85.6 L101.6,85.7 L101.8,85.6 L101.9,85.6 L102.1,85.7 L102.2,85.7 L102.3,85.7 L102.4,85.6 L102.5,85.4 L102.6,84.9 L102.8,84.9 L102.9,85.0 L103.0,85.0 L102.9,85.5 L103.2,85.5 L103.9,85.5 L104.2,85.4 L105.2,85.3 L106.7,84.9 L108.0,84.6 L108.7,84.6 L109.5,84.5 L109.6,84.4 L111.3,83.6 L111.5,83.5 L111.5,83.5 L111.2,82.8 L111.2,82.7 L111.7,82.6 L111.8,81.3 L111.8,81.1 L111.8,80.8 L111.7,80.2 L111.6,80.1 L111.3,79.6 L111.2,79.4 L111.1,79.2 L111.1,79.2 L111.1,78.8 L111.0,78.7 L111.2,78.6 L111.5,78.5 L111.8,78.3 L112.1,77.9 L112.4,77.8 L112.6,77.7 L113.1,77.7 L113.3,77.7 L113.3,77.7 L113.6,77.7 L113.9,77.8 L114.1,77.9 L114.3,78.0 L114.3,78.0 L114.4,78.1 L114.7,78.2 L114.9,78.3 L115.2,78.4 L115.4,78.5 L115.6,78.5 L115.6,78.4 L117.0,78.5 L117.4,78.5 L117.8,78.5 L118.2,78.4 L118.5,78.1 L118.8,77.9 L118.8,77.8 L118.9,77.6 L119.0,77.2 L119.0,77.0 L119.1,76.9 L119.1,76.8 L119.2,76.8 L119.2,76.7 L119.5,76.5 L119.7,76.2 L119.9,75.7 L120.0,75.3 L119.9,74.8 L119.8,74.5 L119.7,74.1 L119.7,73.3 L119.8,72.9 L119.8,72.7 L119.7,72.4 L119.7,72.0 L119.8,71.3 L119.9,70.9 L119.9,70.5 L120.0,70.0 L120.2,69.8 L120.3,69.5 L120.3,69.4 L120.3,69.3 L120.2,68.9 L120.1,68.6 L120.1,68.2 L120.2,67.9 L120.4,67.2 L120.4,67.1 L120.5,66.9 L120.6,66.7 L120.6,65.9 L120.6,65.8 L120.3,65.0 L119.8,64.5 L119.4,64.0 L119.2,63.8 L119.2,63.7 L119.1,63.1 L118.7,61.7 L118.6,61.6 L118.5,61.4 L118.0,59.4 L117.9,59.1 L117.3,58.6 L116.7,58.1 L116.5,58.0 L116.4,57.8 L116.1,57.0 L116.0,56.5 L115.9,56.2 L115.8,55.9 L115.6,55.5 L115.2,55.2 L114.9,54.8 L114.7,54.4 L114.6,54.1 L114.5,54.0 L114.3,54.0 L113.4,53.1 L113.1,52.8 L113.1,52.6 L113.0,52.1 L113.0,51.6 L112.9,51.5 L112.6,51.0 L112.6,50.9 L112.6,50.8 L112.6,50.7 L112.9,50.3 L113.1,49.9 L113.1,49.7 L113.1,49.6 L113.1,49.4 L113.1,49.2 L113.3,48.4 L113.4,48.0 L113.4,47.9 L113.3,47.6 L113.2,46.9 L113.2,46.7 L113.2,46.6 L113.8,45.6 L114.1,45.2 L114.3,45.0 L114.6,44.5 L114.6,44.5 L114.7,44.5 L114.7,44.5 L114.8,44.6 L114.8,44.7 L114.9,44.8 L114.9,44.9 L115.0,44.9 L115.2,44.9 L115.2,45.0 L115.3,45.0 L115.2,45.2 L115.2,45.3 L115.3,45.5 L115.5,45.6 L115.8,45.7 L116.0,45.8 L116.1,45.9 L116.2,46.2 L116.2,46.3 L116.3,46.3 L116.3,46.3 L116.3,45.7 L116.2,45.6 L116.2,45.3 L117.3,45.0 L117.4,44.8 L117.3,44.6 L117.2,44.4 L116.8,44.1 L116.7,43.7 L116.5,43.4 L116.6,43.1 L116.7,42.6 L116.7,42.4 L116.7,42.3 L116.2,41.8 L116.2,41.7 L116.2,41.3 L116.0,40.9 L115.9,40.7 L115.8,40.3 L115.5,39.7 L115.6,39.6 L115.9,39.5 L116.2,39.4 L117.2,39.1 L117.8,38.7 L118.0,38.5 L118.2,38.4 L118.3,38.3 L118.5,38.0 L118.5,37.8 L118.5,37.5 L118.6,36.9 L118.6,36.4 L118.5,36.1 L118.5,35.8 L118.5,35.4 L118.6,35.0 L118.5,34.8 L118.5,34.7 L118.5,34.4 L118.6,34.3 L119.1,34.0 L119.3,33.9 L119.6,33.5 L119.6,33.4 L119.9,33.3 L120.1,33.2 L120.8,33.1 L120.9,33.1 L121.2,33.0 L121.4,33.1 L121.7,33.3 L121.8,33.4 L121.9,33.4 L122.0,33.3 L122.0,33.2 L122.1,32.9 L122.1,32.5 L122.0,32.3 L121.9,32.1 L121.1,31.4 L120.9,31.2 L120.7,31.1 L120.5,31.1 L120.4,31.0 L120.2,30.9 L120.0,30.8 L119.9,30.7 L119.8,30.5 L119.8,30.4 L119.9,30.3 L120.2,30.1 L120.3,30.1 L121.0,29.9 L121.5,29.7 L122.5,29.5 L122.8,29.5 L122.8,29.4 L122.9,29.4 L123.0,29.4 L123.8,29.9 L124.0,29.9 L124.3,29.8 L124.8,29.8 L125.3,29.9 L125.5,30.0 L125.8,30.1 L126.4,30.6 L126.4,30.6 L126.4,30.7 L126.4,31.2 L126.5,31.5 L126.6,31.8 L126.7,31.9 L126.8,31.9 L126.9,31.9 L126.9,31.8 L127.0,31.5 L127.1,31.4 L127.3,31.3 L128.1,31.0 L128.3,30.9 L128.4,30.9 L128.5,30.9 L128.8,31.0 L128.9,31.1 L129.0,31.0 L129.1,31.0 L129.4,30.7 L129.5,30.5 L129.6,30.4 L129.6,30.2 L129.6,29.8 L129.6,29.6 L129.7,29.2 L129.9,29.1 L130.0,29.0 L130.1,28.9 L130.2,28.9 L130.5,28.9 L130.7,28.8 L131.0,28.8 L131.3,29.3 L131.6,29.5 L132.0,29.6 L132.2,29.8 L132.3,30.0 L132.2,30.3 L132.3,30.5 L132.3,31.2 L132.4,31.3 L132.5,31.5 L132.8,31.8 L133.0,31.8 L133.2,31.8 L133.7,31.7 L133.9,31.6 L134.5,31.5 L135.3,31.1 L135.5,31.1 L135.7,31.0 L136.1,30.5 L136.3,30.2 L137.5,28.8 L138.2,28.2 L138.4,28.0 L138.8,27.3 L138.9,26.6 L139.0,26.5 L139.1,26.5 L139.4,26.4 L139.7,26.3 L139.9,26.1 L140.0,26.0 L140.3,26.0 L140.3,26.0 L140.4,26.0 L140.5,26.0 L140.6,26.1 L140.7,26.3 L140.8,26.8 L141.0,27.0 L141.0,27.0 L141.4,27.2 L141.8,27.3 L142.0,27.2 L142.4,26.8 L142.6,26.6 L142.9,26.5 L143.1,26.4 L143.3,26.2 L143.4,26.0 L143.4,25.9 L143.3,24.3 L143.3,23.5 L143.3,22.8 L143.4,22.4 L143.5,22.1 L143.7,21.8 L144.2,21.3 L144.5,21.1 L144.7,21.0 L145.0,21.0 L145.3,21.0 L145.5,21.0 L145.9,21.1 L146.1,21.1 L146.5,21.2 L146.7,21.2 L147.1,21.1 L147.3,20.3 L147.4,20.0 L147.4,19.7 L147.4,19.4 L147.4,19.2 L147.4,18.9 L147.8,18.3 L148.9,17.3 L149.6,17.0 L150.1,16.8 L150.3,16.7 L150.5,16.7 L150.6,16.8 L151.2,16.9 L151.5,17.0 L151.6,17.2 L151.7,17.3 L151.6,17.7 L151.4,18.0 L151.4,18.2 L151.2,18.4 L151.1,18.5 L151.2,18.7 L151.2,18.8 L151.4,18.9 L152.0,19.2 L152.2,19.3 L153.2,19.4 L153.4,19.3 L153.5,19.3 L153.5,19.2 L153.4,18.8 L153.4,18.5 L153.4,18.3 L153.2,18.2 L153.3,18.0 L153.4,17.7 L153.6,17.3 L153.6,17.1 L153.5,16.9 L153.5,16.7 L153.6,16.5 L153.8,16.5 L154.3,16.7 L154.4,16.8 L154.6,16.9 L154.8,17.1 L155.0,17.1 L155.2,17.1 L155.5,17.2 L155.8,17.3 L156.1,17.2 L156.5,17.2 L157.2,17.3 L157.6,17.4 L157.8,17.3 L157.9,17.2 L158.2,17.1 L158.3,17.1 L158.4,17.3 L158.4,17.4 L158.3,17.5 L158.0,17.7 L157.6,18.0 L157.5,18.0 L157.3,18.1 L157.1,18.1 L156.5,18.2 L156.5,18.3 L156.4,18.3 L156.4,18.4 L156.5,18.5 L156.6,18.5 L156.7,18.5 L157.2,18.6 L157.6,18.5 L157.9,18.6 L158.2,18.4 L158.8,18.2 L159.5,18.2 L159.7,18.2 L160.4,18.1 L160.4,18.1 L160.5,18.1 L160.9,18.4 L161.3,18.6 L161.7,18.8 L162.0,18.9 L162.4,18.9 L162.6,18.9 L162.8,18.9 L163.1,19.1 L163.5,19.5 L163.6,19.5 L163.9,19.8 L164.3,20.2 L164.6,20.4 L164.9,20.6 L165.6,20.7 L166.0,21.0 L166.2,21.2 L166.3,21.3 L166.6,21.7 L167.0,21.8 L167.6,22.0 L168.1,22.3 L169.1,22.5 L169.3,22.6 L169.5,22.9 L169.7,23.0 L169.8,23.1 L170.0,23.2 L171.0,24.0 L171.9,24.4 L172.0,24.4 L172.2,24.3 L172.3,24.3 L172.9,24.4 L173.3,24.5 L173.4,24.5 L173.4,24.5 L173.5,24.5 L173.5,24.5 L173.8,24.8 L173.8,25.0 L173.8,25.1 L173.9,25.3 L174.0,25.4 L174.2,25.7 L174.7,26.5 L174.7,26.6 L174.8,26.8 L174.8,27.0 L174.7,27.3 L174.8,27.5 L174.9,27.7 L175.0,27.8 L175.1,28.0 L175.3,28.2 L175.6,28.4 L175.6,28.5 L175.7,28.6 L175.7,28.9 L175.8,29.1 L175.9,29.3 L176.2,29.7 L176.3,29.9 L176.6,30.2 L176.7,30.3 L176.7,30.4 L176.8,30.5 L176.9,30.5 L177.3,30.6 L177.6,30.7 L178.0,30.7 L178.2,30.7 L178.4,30.7 L178.6,30.6 L178.7,30.5 L179.0,30.4 L179.1,30.2 L179.3,29.9 L179.4,29.8 L179.8,29.1 L179.9,29.0 L180.4,29.0 L180.5,28.9 L180.6,28.9 L180.9,28.6 L181.2,28.2 L181.8,27.6 L182.1,27.2 L182.3,27.0 L182.6,26.9 L183.0,26.8 L183.1,26.7 L183.3,26.6 L183.7,26.2 L184.2,25.8 L184.4,25.6 L184.6,25.3 L184.7,25.1 L184.8,24.8 L185.8,23.7 L185.9,23.6 L186.0,23.4 L186.1,23.3 L186.3,23.1 L186.4,23.0 L186.7,22.9 L187.1,22.9 L187.3,22.8 L187.6,22.7 L188.0,22.4 L188.2,22.3 L188.3,22.3 L188.6,22.3 L188.8,22.3 L189.4,22.5 L189.6,22.5 L189.7,22.6 L190.1,22.7 L190.6,22.8 L190.8,22.8 L191.1,22.8 L191.3,22.8 L192.5,22.5 L192.6,22.4 L192.9,22.3 L193.4,21.9 L194.1,21.3 L194.5,21.0 L194.8,20.8 L195.4,20.5 L195.8,20.3 L195.9,20.3 L196.0,20.2 L196.5,19.6 L196.7,19.5 L196.9,19.3 L197.1,19.3 L197.4,19.2 L197.9,19.2 L198.0,19.2 L198.7,19.3 L199.1,19.3 L199.3,19.2 L199.5,19.1 L199.6,19.0 L199.9,18.4 L200.1,18.2 L200.2,18.2 L200.2,18.2 L200.5,18.0 L201.4,17.4 L201.4,17.4 L201.6,17.3 L201.6,17.3 L202.4,16.9 L202.5,16.7 L202.7,16.6 L203.7,15.4 L203.8,15.3" fill="transparent" id="track" stroke="black" stroke-width="2"/>
<g>
<circle cx="162.991" cy="280.483" id="wp-4/circle" r="4.000"/>
<text font-size="16.0" id="wp-4/text" text-anchor="start" x="165.381" y="298.483">
K1
</text>
<circle cx="99.504" cy="85.009" id="wp-12/circle" r="4.000"/>
<text font-size="16.0" id="wp-12/text" text-anchor="start" x="81.894" y="78.009">
K2
</text>
<circle cx="328.205" cy="364.885" fill="Gray" id="wp-2/circle" r="5.000"/>
<text font-size="16.0" id="wp-1/text" text-anchor="start" x="319.984" y="352.885">
Donaueschingen
</text>
<circle cx="300.821" cy="384.597" fill="Gray" id="wp-3/circle" r="5.000"/>
<text font-size="16.0" id="wp-2/text" text-anchor="start" x="225.516" y="402.597">
Bräunlingen
</text>
<circle cx="324.217" cy="387.413" fill="Gray" id="wp-4/circle" r="5.000"/>
<text font-size="16.0" id="wp-3/text" text-anchor="start" x="328.365" y="400.413">
Huefingen
</text>
<circle cx="87.769" cy="173.222" fill="Gray" id="wp-5/circle" r="5.000"/>
<text font-size="16.0" id="wp-4/text" text-anchor="start" x="41.548" y="191.222">
Elzach
</text>
<circle cx="178.801" cy="213.359" fill="Gray" id="wp-6/circle" r="5.000"/>
<text font-size="16.0" id="wp-5/text" text-anchor="start" x="174.927" y="231.359">
Triberg
</text>
<circle cx="163.913" cy="280.169" fill="Gray" id="wp-7/circle" r="5.000"/>
<text font-size="16.0" id="wp-6/text" text-anchor="start" x="171.881" y="278.169">
Furtwangen
</text>
<circle cx="348.056" cy="306.379" fill="Gray" id="wp-8/circle" r="5.000"/>
<text font-size="16.0" id="wp-7/text" text-anchor="start" x="351.750" y="304.379">
Diirä
</text>
<circle cx="97.522" cy="87.121" fill="Gray" id="wp-9/circle" r="5.000"/>
<text font-size="16.0" id="wp-8/text" text-anchor="start" x="-41.920" y="105.121">
Haslach im Kinzigtal
</text>
<circle cx="147.525" cy="81.952" fill="Gray" id="wp-10/circle" r="5.000"/>
<text font-size="16.0" id="wp-9/text" text-anchor="start" x="151.810" y="79.952">
Hausach
</text>
<circle cx="85.846" cy="26.209" fill="Gray" id="wp-11/circle" r="5.000"/>
<text font-size="16.0" id="wp-10/text" text-anchor="start" x="-61.838" y="44.209">
Zell am Harmersbach
</text>
<circle cx="174.744" cy="69.493" fill="Gray" id="wp-12/circle" r="5.000"/>
<text font-size="16.0" id="wp-11/text" text-anchor="start" x="165.660" y="62.493">
Wolfach
</text>
<circle cx="243.490" cy="77.299" fill="Gray" id="wp-13/circle" r="5.000"/>
<text font-size="16.0" id="wp-12/text" text-anchor="start" x="240.026" y="95.299">
Schiltach
</text>
<circle cx="179.146" cy="142.603" fill="Gray" id="wp-14/circle" r="5.000"/>
<text font-size="16.0" id="wp-13/text" text-anchor="start" x="184.167" y="145.603">
Hornberg
</text>
<circle cx="143.735" cy="289.774" fill="Blue" id="wp-15/circle" r="3.000"/>
<text font-size="16.0" id="wp-2/text" text-anchor="start" x="25.798" y="307.774">
Passhöhe Neueck
</text>
<circle cx="158.749" cy="248.443" fill="Blue" id="wp-16/circle" r="3.000"/>
<text font-size="16.0" id="wp-4/text" text-anchor="start" x="163.707" y="251.443">
Passhöhe Escheck
</text>
<circle cx="288.906" cy="351.580" fill="Gray" id="wp-17/circle" r="3.000"/>
<text font-size="16.0" id="wp-0/text" text-anchor="end" x="281.906" y="364.580">
Wolterdingen
</text>
<circle cx="295.149" cy="365.852" fill="Gray" id="wp-18/circle" r="3.000"/>
<text font-size="16.0" id="wp-1/text" text-anchor="start" x="300.854" y="373.852">
Bruggen
</text>
<circle cx="159.079" cy="202.154" fill="Gray" id="wp-19/circle" r="3.000"/>
<text font-size="16.0" id="wp-2/text" text-anchor="start" x="162.932" y="200.154">
Schonach im Schwarzwald
</text>
<circle cx="128.077" cy="140.825" fill="Gray" id="wp-20/circle" r="3.000"/>
<text font-size="16.0" id="wp-3/text" text-anchor="start" x="35.624" y="158.825">
Oberprechtal
</text>
<circle cx="111.432" cy="77.989" fill="Gray" id="wp-21/circle" r="3.000"/>
<text font-size="16.0" id="wp-4/text" text-anchor="end" x="104.432" y="60.989">
Fischerbach
</text>
<circle cx="110.616" cy="106.757" fill="Gray" id="wp-22/circle" r="3.000"/>
<text font-size="16.0" id="wp-5/text" text-anchor="start" x="114.269" y="104.757">
Mühlenbach
</text>
<circle cx="177.020" cy="29.983" fill="Gray" id="wp-23/circle" r="3.000"/>
<text font-size="16.0" id="wp-6/text" text-anchor="start" x="186.673" y="42.983">
Walke
</text>
</g>
<g/>
</svg>