<svg height="400" viewBox="(0, 0, 400, 400)" width="400" xmlns="http://www.w3.org/2000/svg">
<path d="M299.5,380.0 L299.6,379.9 L299.5,379.9 L299.2,379.9 L299.2,379.9 L298.9,379.9 L298.9,379.9 L298.8,379.8 L298.6,379.7 L298.3,379.6 L298.0,379.3 L297.7,379.2 L297.0,378.9 L296.9,378.9 L296.9,378.8 L296.8,378.6 L296.7,378.2 L296.7,377.9 L296.6,377.8 L296.5,377.6 L296.2,377.6 L296.0,377.4 L295.8,377.3 L295.7,377.1 L295.5,376.6 L295.5,376.4 L295.4,376.3 L295.3,376.1 L294.9,375.7 L294.8,375.6 L294.4,375.1 L294.0,374.6 L293.9,374.5 L293.8,374.2 L293.7,373.9 L293.6,373.6 L293.7,373.3 L293.8,373.1 L294.0,372.5 L294.2,371.9 L294.4,371.4 L294.4,371.1 L294.6,370.4 L294.6,370.2 L294.4,369.9 L294.3,369.7 L294.1,369.2 L294.0,368.8 L293.9,368.5 L293.4,365.1 L293.2,362.9 L293.1,362.0 L293.0,361.6 L292.9,360.6 L292.9,360.5 L292.9,360.4 L292.8,360.1 L292.5,359.4 L290.7,356.6 L290.6,356.6 L290.5,356.6 L290.1,356.2 L289.9,356.1 L289.4,355.5 L288.7,354.4 L288.3,354.2 L288.1,354.0 L288.0,353.8 L287.9,353.4 L287.8,353.2 L287.3,352.5 L287.1,352.0 L287.0,352.0 L286.9,351.9 L286.9,351.8 L287.0,351.7 L287.1,351.3 L287.1,351.1 L287.1,351.0 L287.1,350.9 L287.1,350.4 L287.1,350.3 L287.0,350.3 L286.9,350.3 L286.7,350.2 L286.6,350.0 L286.2,349.6 L285.9,349.1 L285.4,348.5 L285.3,348.4 L285.2,348.5 L284.9,348.5 L284.8,348.5 L284.6,348.5 L284.5,348.4 L283.9,347.8 L283.6,347.4 L283.5,347.3 L283.2,347.1 L282.9,347.0 L282.5,346.9 L282.0,346.7 L281.7,346.5 L281.5,346.4 L281.4,346.3 L281.2,346.1 L281.0,345.8 L280.9,345.7 L280.7,345.5 L280.5,345.2 L280.5,345.1 L280.4,344.9 L280.4,344.5 L280.4,344.3 L280.4,344.0 L280.5,343.9 L280.5,343.9 L280.6,343.8 L280.7,343.8 L280.8,343.8 L280.8,343.7 L281.0,343.5 L281.0,343.4 L280.8,343.3 L280.5,343.2 L280.1,343.1 L279.9,343.1 L279.7,343.1 L279.5,343.2 L279.2,343.3 L278.9,343.4 L278.0,344.1 L277.7,344.2 L277.4,344.3 L277.1,344.4 L276.3,344.4 L276.1,344.5 L275.7,344.5 L275.4,344.4 L275.1,344.4 L274.8,344.3 L272.5,342.9 L271.5,342.4 L270.6,342.0 L269.8,341.6 L269.3,341.4 L268.8,341.1 L268.5,340.7 L268.1,340.1 L267.9,339.6 L267.8,339.2 L267.8,338.9 L267.6,338.6 L267.4,338.3 L267.2,338.2 L266.9,338.0 L266.0,337.6 L265.5,337.3 L264.8,336.8 L264.0,336.0 L263.5,335.6 L263.0,334.8 L262.9,333.1 L262.7,332.6 L262.4,332.0 L262.0,331.7 L261.2,331.3 L260.6,331.1 L260.1,330.9 L259.5,330.6 L259.4,330.6 L258.8,330.3 L258.4,330.1 L257.2,330.0 L256.0,330.0 L255.3,330.1 L254.7,330.1 L254.4,330.1 L254.2,330.1 L253.9,329.9 L253.6,329.7 L253.3,329.3 L252.9,329.0 L252.6,328.9 L252.5,328.9 L252.1,329.0 L251.8,329.1 L251.1,329.7 L250.9,329.8 L250.7,330.1 L250.2,330.7 L250.0,330.9 L249.8,331.0 L249.6,331.1 L249.4,331.1 L249.2,331.1 L248.9,331.0 L246.9,329.9 L246.6,329.7 L246.4,329.6 L246.3,329.4 L246.2,329.2 L246.1,328.7 L246.0,328.4 L245.8,328.2 L245.7,328.0 L245.5,327.8 L245.3,327.7 L244.5,327.2 L243.7,326.6 L243.5,326.5 L243.3,326.4 L242.9,326.3 L242.0,326.1 L241.6,326.0 L240.9,325.9 L239.1,325.6 L238.6,325.5 L238.3,325.3 L237.9,324.9 L237.6,324.7 L237.3,324.5 L237.1,324.4 L235.5,323.7 L234.8,323.4 L234.5,323.2 L234.3,323.1 L234.0,322.9 L233.9,322.8 L233.9,322.8 L233.8,322.8 L233.7,322.6 L233.7,322.6 L233.6,322.4 L233.3,322.0 L233.0,321.5 L232.9,321.2 L232.9,320.9 L233.2,320.3 L233.2,320.1 L233.3,319.9 L233.2,319.7 L233.2,319.3 L233.1,318.8 L233.1,318.5 L232.9,318.2 L232.8,318.0 L232.3,317.6 L232.2,317.4 L232.1,317.3 L232.1,316.5 L232.0,316.3 L231.9,316.0 L231.7,315.7 L231.7,315.7 L231.6,315.6 L231.4,315.4 L230.4,314.7 L229.9,314.4 L229.8,314.3 L229.5,313.9 L229.4,313.7 L229.2,313.4 L229.1,313.1 L228.7,311.8 L228.3,310.3 L228.2,309.8 L228.0,309.8 L227.8,309.8 L227.6,309.9 L227.6,309.9 L227.3,309.9 L225.3,310.0 L225.2,310.0 L224.9,309.9 L224.4,309.8 L224.0,309.7 L223.7,309.7 L223.5,309.7 L222.8,309.5 L222.6,309.4 L222.5,309.4 L222.3,309.2 L221.6,308.9 L221.5,308.9 L221.0,308.6 L220.7,308.5 L220.5,308.5 L220.0,308.5 L219.9,308.5 L219.8,308.5 L219.4,308.3 L219.2,308.3 L218.9,308.0 L218.5,307.9 L218.3,307.7 L218.2,307.7 L217.4,307.1 L216.9,307.1 L216.5,306.9 L215.8,306.6 L215.6,306.5 L215.3,306.5 L214.6,306.4 L214.4,306.4 L214.3,306.4 L214.3,306.3 L214.2,306.2 L214.1,306.1 L214.2,305.9 L214.1,305.8 L214.0,305.7 L213.9,305.7 L213.8,305.7 L213.7,305.8 L213.6,305.9 L213.5,306.3 L213.4,306.4 L213.3,306.5 L213.1,306.5 L212.9,306.5 L212.7,306.5 L212.4,306.4 L212.3,306.4 L211.7,306.1 L211.2,305.9 L211.0,305.8 L209.8,305.3 L209.1,305.0 L208.7,304.8 L208.4,304.8 L208.1,304.7 L207.2,304.6 L206.7,304.5 L206.5,304.4 L206.2,304.2 L205.6,303.7 L205.3,303.5 L205.2,303.5 L204.6,303.5 L203.9,303.3 L203.6,303.3 L203.4,303.3 L203.1,303.4 L203.0,303.4 L202.6,303.4 L202.2,303.3 L201.3,303.1 L201.0,303.1 L200.2,303.1 L200.1,303.0 L200.1,303.0 L199.3,302.7 L199.1,302.6 L198.7,302.3 L198.7,302.2 L198.6,302.2 L198.5,302.0 L198.4,302.0 L198.1,301.9 L197.7,301.8 L197.2,301.8 L196.8,301.6 L196.5,301.6 L195.8,301.5 L195.5,301.6 L195.2,301.5 L194.8,301.5 L194.6,301.4 L194.3,301.3 L194.1,301.2 L193.9,301.2 L193.6,301.3 L193.2,301.4 L193.0,301.5 L192.8,301.6 L192.7,301.7 L192.3,301.7 L191.4,301.9 L191.2,301.9 L190.6,301.8 L190.4,301.8 L189.1,301.9 L188.5,301.9 L187.7,301.8 L187.5,301.8 L187.4,301.8 L187.2,301.7 L186.7,301.4 L186.5,301.3 L186.3,301.3 L185.5,301.2 L184.7,301.3 L184.2,301.3 L183.9,301.3 L183.5,301.6 L183.2,301.7 L183.0,301.8 L182.4,301.8 L182.0,301.9 L181.6,302.0 L181.2,301.9 L180.8,301.8 L180.0,301.6 L179.9,301.5 L179.7,301.5 L179.3,301.5 L179.0,301.4 L178.9,301.4 L178.7,301.2 L178.1,300.9 L177.4,300.4 L177.2,300.2 L177.0,299.9 L176.9,299.8 L176.8,299.8 L176.7,299.8 L176.5,299.7 L175.8,299.4 L175.6,299.3 L175.5,299.4 L175.4,299.5 L175.3,299.6 L175.3,299.6 L175.3,299.8 L175.4,299.9 L175.4,300.0 L175.8,300.2 L175.9,300.2 L175.9,300.3 L176.0,300.6 L176.1,300.8 L176.2,300.9 L176.2,301.0 L176.2,301.1 L176.2,301.2 L176.1,301.4 L176.0,301.7 L176.0,301.8 L175.9,301.9 L175.9,302.0 L174.8,302.6 L174.5,302.7 L173.9,302.9 L173.4,303.0 L173.1,303.1 L172.8,303.0 L172.6,303.0 L172.3,302.8 L171.9,302.8 L171.7,302.7 L170.8,302.4 L170.5,302.2 L170.1,302.0 L169.6,301.9 L168.6,301.6 L168.3,301.6 L167.9,301.6 L167.5,301.6 L167.2,301.7 L165.7,302.4 L164.9,302.8 L164.6,302.8 L164.4,302.7 L164.0,302.5 L163.6,302.2 L163.5,302.0 L163.3,301.7 L163.2,301.5 L163.1,301.4 L162.8,301.1 L162.0,300.1 L161.9,299.9 L161.5,299.1 L161.3,298.7 L161.2,298.6 L161.1,297.6 L161.0,296.9 L160.8,296.5 L160.5,295.7 L160.0,295.0 L159.8,294.7 L159.4,294.1 L159.3,293.9 L159.2,293.7 L159.1,293.0 L159.0,292.9 L159.0,292.8 L158.9,292.6 L158.8,292.3 L158.1,291.5 L157.1,290.0 L156.7,289.6 L156.6,289.5 L156.6,289.4 L156.5,289.3 L156.4,289.1 L156.4,288.9 L156.4,288.7 L156.4,287.2 L156.5,286.9 L156.6,286.6 L157.0,285.7 L157.1,285.6 L157.1,285.5 L157.0,285.3 L157.0,285.2 L157.0,285.1 L156.9,284.8 L156.9,284.7 L156.9,284.6 L157.0,284.6 L157.1,284.6 L157.2,284.6 L157.3,284.6 L157.4,284.6 L157.5,284.6 L157.6,284.6 L158.1,284.6 L158.7,284.5 L158.7,284.5 L159.3,284.4 L159.5,284.3 L159.5,284.2 L159.6,284.2 L159.7,284.0 L159.9,283.8 L159.9,283.8 L159.9,283.8 L160.0,283.7 L160.0,283.6 L160.1,283.5 L160.1,283.4 L160.2,283.2 L160.3,283.2 L160.3,283.1 L160.5,282.7 L160.8,282.4 L160.9,282.2 L161.1,282.1 L161.1,282.0 L161.5,281.8 L161.7,281.7 L161.9,281.6 L162.0,281.6 L162.1,281.6 L162.1,281.6 L162.3,281.5 L162.5,281.5 L162.6,281.5 L162.7,281.4 L162.7,281.4 L162.8,281.4 L163.0,281.2 L163.4,280.9 L163.5,280.8 L163.8,280.6 L164.1,280.4 L164.3,280.2 L164.6,280.0 L164.7,279.9 L164.8,279.8 L164.8,279.7 L164.7,279.5 L164.6,279.1 L164.5,278.8 L163.9,278.0 L164.0,278.0 L164.1,278.0 L164.3,277.9 L164.3,277.9 L164.6,277.8 L164.5,277.7 L164.5,277.5 L164.4,277.4 L164.4,277.4 L164.4,277.3 L164.3,277.1 L164.3,277.1 L164.3,277.0 L164.1,276.6 L164.1,276.4 L163.7,276.5 L163.5,276.6 L163.3,276.6 L163.3,276.8 L163.3,277.1 L163.3,277.1 L163.6,277.6 L164.0,277.4 L164.4,277.3 L164.3,277.1 L164.3,277.1 L164.3,277.0 L164.1,276.6 L164.1,276.4 L163.8,275.6 L163.5,275.7 L163.2,275.7 L163.2,276.2 L163.3,276.6 L163.3,276.8 L163.3,277.1 L163.3,277.1 L163.6,277.6 L164.0,277.4 L164.4,277.3 L164.3,277.1 L164.3,277.1 L164.3,277.0 L164.1,276.6 L164.1,276.4 L163.8,275.6 L163.5,275.7 L163.2,275.7 L163.2,275.4 L163.0,275.3 L162.9,275.3 L162.9,275.2 L162.8,274.9 L162.6,274.7 L162.5,274.7 L162.2,274.5 L162.0,274.4 L162.0,274.3 L161.6,273.6 L161.5,273.4 L161.1,273.0 L160.8,272.6 L160.7,272.5 L159.9,271.4 L159.9,271.4 L159.7,270.9 L159.5,270.6 L159.3,270.2 L159.2,269.6 L159.1,269.1 L159.0,268.4 L158.9,268.0 L158.9,268.0 L158.8,267.7 L158.7,267.6 L158.3,267.1 L157.5,266.0 L157.3,265.5 L157.2,265.2 L157.1,264.7 L156.9,264.4 L156.7,264.1 L156.4,263.9 L156.2,263.7 L156.2,263.7 L156.0,263.5 L155.9,263.4 L154.8,261.7 L154.5,261.3 L154.4,260.8 L154.2,260.4 L154.1,260.1 L153.1,258.0 L153.0,257.9 L152.5,256.8 L152.3,256.2 L151.7,254.1 L151.6,253.8 L151.6,253.7 L151.6,253.6 L151.4,253.2 L151.1,252.5 L150.8,252.1 L150.5,251.6 L150.3,251.1 L150.2,250.9 L150.0,250.6 L149.9,250.3 L149.8,250.1 L149.7,250.0 L149.7,249.8 L149.8,249.3 L150.0,248.9 L150.2,248.6 L150.3,248.3 L150.3,248.3 L150.2,247.9 L150.1,247.4 L150.0,247.1 L149.9,246.9 L149.5,246.4 L149.4,246.2 L149.4,246.0 L149.3,245.8 L149.3,245.5 L149.4,245.0 L149.3,244.9 L149.2,244.7 L149.1,244.6 L148.7,244.4 L148.6,244.3 L148.6,244.2 L148.5,243.9 L148.3,243.5 L148.0,242.9 L147.9,242.8 L147.9,242.6 L148.0,242.4 L148.2,242.2 L148.2,242.1 L148.2,242.0 L148.1,242.0 L147.9,241.8 L147.9,241.8 L147.9,241.7 L147.9,241.5 L148.0,241.1 L148.0,240.9 L147.9,240.8 L147.9,240.5 L147.6,240.0 L147.4,239.6 L147.3,239.2 L147.2,239.0 L147.0,238.6 L146.9,238.5 L146.8,238.4 L146.5,238.3 L146.4,238.2 L146.1,237.9 L146.0,237.7 L146.0,237.6 L146.0,237.5 L146.0,237.4 L146.3,236.9 L146.4,236.8 L146.5,236.7 L146.5,236.4 L146.5,236.2 L146.3,235.0 L146.1,234.2 L146.1,234.0 L146.0,233.5 L146.0,233.0 L145.8,231.9 L145.9,231.7 L145.8,231.5 L145.8,231.4 L145.7,231.3 L145.9,231.0 L146.2,230.6 L146.4,229.9 L146.7,229.3 L146.8,229.1 L146.6,228.1 L146.7,227.4 L146.9,227.2 L146.9,227.1 L147.0,226.9 L146.8,226.6 L146.6,226.4 L146.3,226.2 L146.0,226.0 L145.6,225.8 L145.3,225.5 L145.2,225.3 L145.0,225.0 L145.0,224.9 L145.0,224.8 L145.1,224.6 L145.2,224.5 L145.1,224.4 L145.0,224.2 L145.0,224.0 L145.0,223.9 L145.0,223.7 L144.8,223.4 L144.8,223.4 L144.8,223.3 L144.8,223.0 L144.8,222.9 L144.7,222.7 L144.5,222.4 L144.6,222.0 L144.6,221.7 L144.6,221.7 L144.4,221.3 L144.3,221.1 L144.1,220.8 L144.0,220.7 L144.0,220.5 L144.0,220.3 L144.1,220.0 L144.2,219.5 L144.3,219.4 L144.7,219.0 L145.2,218.6 L145.6,218.1 L145.9,217.7 L146.1,217.5 L146.2,217.3 L146.4,217.1 L146.6,216.8 L146.6,216.7 L147.0,216.4 L148.2,215.4 L149.3,214.7 L149.4,214.6 L149.5,214.5 L149.5,214.4 L149.6,214.2 L149.5,213.5 L149.4,213.2 L149.4,213.1 L149.4,212.9 L149.5,212.3 L149.4,211.8 L149.4,211.6 L149.4,211.4 L149.4,211.3 L149.6,211.1 L149.6,211.0 L149.6,211.0 L149.6,210.9 L149.4,210.7 L149.2,210.5 L149.1,210.4 L149.1,210.3 L149.2,210.2 L149.3,210.1 L149.4,209.9 L149.8,209.6 L150.1,209.4 L150.4,209.3 L151.1,208.8 L151.3,208.8 L151.4,208.8 L151.9,208.5 L152.0,208.4 L152.1,208.1 L152.2,208.0 L152.2,207.6 L152.3,207.4 L152.6,207.2 L152.7,207.1 L152.8,206.8 L152.9,206.7 L153.1,206.5 L153.2,206.5 L153.6,206.4 L153.7,206.3 L153.8,206.2 L155.2,204.9 L155.5,204.7 L156.0,204.5 L156.8,204.3 L157.1,204.3 L157.3,204.3 L157.4,204.2 L157.4,204.2 L157.8,203.9 L158.0,203.8 L158.5,203.7 L158.5,203.7 L158.8,203.7 L159.1,203.7 L159.1,203.7 L159.5,203.6 L159.5,203.4 L159.5,203.4 L159.2,202.6 L159.0,202.2 L158.9,202.0 L158.9,201.8 L158.8,201.8 L158.7,201.7 L158.3,201.7 L158.2,201.6 L158.1,201.5 L158.0,201.2 L158.0,201.1 L157.7,200.9 L157.7,200.9 L157.3,200.7 L157.0,200.6 L156.7,200.5 L156.3,200.3 L156.0,200.2 L155.7,200.1 L155.6,200.0 L155.4,199.9 L155.2,199.7 L155.1,199.6 L154.8,199.4 L154.6,199.3 L154.4,199.2 L153.9,199.1 L153.7,199.0 L153.6,198.9 L153.0,198.7 L152.8,198.5 L152.7,198.3 L152.2,197.6 L152.0,197.3 L151.9,197.2 L151.6,197.0 L151.3,197.0 L151.2,197.0 L150.9,197.0 L150.8,197.1 L150.7,197.3 L150.6,197.4 L150.6,197.4 L150.6,197.7 L150.6,197.7 L150.7,198.0 L150.8,198.3 L150.8,198.4 L150.7,198.5 L150.7,198.6 L150.6,198.7 L149.4,199.3 L149.2,199.4 L149.1,199.5 L149.0,199.7 L148.8,200.2 L148.8,200.3 L148.3,200.7 L148.0,201.1 L147.8,201.1 L147.4,201.3 L146.8,201.4 L146.7,201.4 L146.2,201.6 L145.9,201.7 L145.5,201.9 L145.1,202.2 L144.8,202.5 L144.6,202.8 L144.4,203.2 L144.1,204.0 L144.0,204.2 L143.7,204.7 L143.4,205.0 L142.6,205.6 L142.5,205.7 L142.4,205.8 L142.4,205.9 L142.3,206.0 L142.3,206.0 L142.3,206.2 L142.4,206.4 L142.5,206.5 L142.6,206.6 L142.7,206.8 L142.8,206.8 L143.0,207.0 L143.0,207.1 L143.1,207.3 L143.1,207.6 L143.1,207.8 L143.0,207.9 L143.0,207.9 L142.9,208.1 L142.7,208.3 L142.5,208.4 L142.3,208.4 L141.8,208.4 L141.6,208.4 L141.3,208.5 L141.1,208.6 L140.9,208.8 L140.8,209.0 L140.7,209.2 L140.5,209.5 L140.4,209.7 L140.0,210.3 L139.9,210.6 L139.9,210.9 L139.9,211.6 L140.0,212.0 L140.1,212.3 L140.4,213.0 L140.4,213.1 L140.4,213.2 L140.3,213.3 L140.3,213.4 L140.2,213.5 L140.1,213.5 L140.0,213.5 L139.6,213.4 L139.2,213.2 L139.1,213.1 L139.0,213.1 L139.0,213.1 L138.9,213.2 L138.8,213.3 L138.5,213.9 L138.3,214.2 L138.0,214.5 L137.8,215.0 L137.6,215.1 L137.5,215.1 L137.4,215.1 L137.4,215.0 L137.3,214.9 L137.4,214.8 L137.5,214.7 L137.8,214.5 L137.9,214.4 L138.1,214.2 L138.2,214.1 L138.3,213.8 L138.4,213.5 L138.4,212.9 L138.5,212.8 L138.6,212.6 L138.7,212.4 L138.9,212.2 L139.0,212.0 L139.0,211.7 L138.8,211.4 L138.5,210.4 L138.4,210.1 L138.4,210.0 L138.5,209.7 L138.7,209.1 L138.8,208.7 L138.9,207.9 L138.9,207.0 L138.9,206.4 L138.8,206.0 L138.6,205.1 L138.6,204.8 L138.6,204.6 L138.6,204.4 L139.0,203.4 L139.2,202.7 L139.4,202.2 L139.5,201.9 L139.5,201.7 L139.3,200.7 L139.2,200.2 L139.0,199.6 L139.0,199.4 L138.8,199.2 L138.5,199.0 L138.4,198.8 L138.3,198.8 L138.2,198.5 L138.3,198.2 L138.5,197.8 L138.5,197.6 L138.5,197.5 L138.4,197.3 L138.1,196.9 L138.1,196.8 L138.1,196.7 L138.1,196.5 L138.1,196.3 L138.2,196.2 L138.3,196.0 L138.5,195.8 L138.6,195.5 L138.8,195.1 L138.9,195.0 L138.9,194.8 L138.9,194.6 L138.8,194.4 L138.6,194.2 L138.5,194.0 L138.5,193.7 L138.5,193.6 L138.6,193.4 L138.8,193.1 L138.9,193.0 L139.0,192.8 L139.0,192.2 L139.0,191.2 L139.0,191.0 L139.1,190.5 L139.1,190.3 L139.1,190.1 L139.0,190.0 L138.9,189.8 L138.5,189.5 L138.1,189.1 L138.0,188.9 L138.0,188.7 L138.0,188.3 L138.2,188.1 L138.2,188.0 L138.3,187.9 L138.8,187.6 L138.9,187.4 L139.0,187.2 L139.0,186.9 L139.0,186.6 L138.9,186.5 L138.9,186.3 L138.6,186.0 L138.5,185.7 L138.4,185.1 L138.4,184.3 L138.3,183.7 L138.3,183.5 L138.3,183.3 L138.5,182.8 L138.5,182.5 L138.5,182.2 L138.5,181.9 L138.8,181.3 L138.8,181.0 L138.9,180.8 L139.0,180.5 L139.0,180.0 L139.0,179.7 L139.0,179.4 L138.8,178.6 L138.8,178.3 L138.7,178.1 L138.7,178.1 L138.5,177.9 L138.4,177.8 L138.3,177.6 L138.3,177.6 L138.2,177.5 L138.1,177.0 L138.1,176.6 L138.2,176.4 L138.2,176.3 L138.3,176.1 L138.6,175.8 L138.7,175.7 L138.7,175.6 L138.7,174.9 L138.8,174.8 L138.8,174.7 L138.9,174.6 L139.0,174.5 L139.1,174.4 L139.3,174.1 L139.4,173.9 L139.4,173.7 L139.4,173.3 L139.5,172.8 L139.5,172.6 L139.5,172.5 L139.5,172.3 L139.4,172.3 L139.3,172.2 L139.0,172.2 L139.0,172.1 L138.9,172.1 L138.9,172.1 L138.9,172.1 L138.9,172.1 L138.8,172.0 L138.8,172.0 L138.8,172.0 L138.8,171.8 L138.9,171.7 L139.0,171.6 L139.7,171.0 L139.8,170.8 L139.9,170.6 L139.9,170.4 L139.7,169.5 L139.6,169.1 L139.7,169.0 L139.7,168.8 L139.9,168.4 L140.0,168.2 L140.1,167.7 L140.1,167.2 L140.0,166.5 L140.0,166.4 L139.9,166.1 L139.8,165.9 L139.6,165.6 L139.5,165.6 L139.4,165.4 L139.3,165.3 L139.3,165.1 L139.2,164.8 L139.2,164.8 L139.2,164.3 L139.2,164.0 L139.3,163.9 L139.7,163.4 L139.8,163.2 L139.9,162.9 L140.2,161.7 L140.3,161.4 L140.3,161.2 L140.3,161.1 L140.2,161.0 L140.1,160.7 L139.9,160.6 L139.8,160.5 L139.7,160.4 L139.6,160.3 L139.6,160.2 L139.6,159.9 L139.6,159.8 L139.9,159.0 L140.0,158.5 L140.0,158.3 L140.0,158.1 L140.0,157.6 L139.9,157.3 L139.6,156.7 L139.6,156.6 L139.5,156.4 L139.5,156.3 L139.6,156.0 L139.6,155.8 L139.7,155.6 L140.1,154.9 L140.2,154.6 L140.2,154.4 L140.1,154.1 L140.2,153.8 L140.2,153.5 L140.2,153.2 L140.1,152.9 L140.0,152.7 L140.0,152.4 L140.0,152.3 L139.9,152.1 L139.9,152.1 L139.9,152.0 L139.9,151.9 L139.8,151.7 L139.6,151.5 L139.3,151.2 L139.2,151.2 L139.2,151.2 L139.2,151.2 L139.1,151.1 L139.1,151.1 L139.0,151.0 L138.9,151.0 L138.7,150.9 L138.3,150.9 L138.2,150.8 L138.0,150.7 L137.9,150.6 L137.7,150.4 L137.1,149.6 L136.8,149.3 L136.7,149.1 L136.4,148.6 L136.2,148.4 L136.1,148.3 L136.0,148.1 L135.6,147.7 L135.5,147.6 L135.4,147.6 L135.2,147.4 L134.7,146.8 L134.6,146.6 L134.4,146.3 L134.3,146.2 L134.1,146.1 L133.8,146.0 L133.5,145.9 L133.0,145.7 L132.9,145.7 L132.6,145.4 L132.4,145.3 L132.1,145.2 L131.9,145.1 L131.7,145.1 L131.7,145.1 L131.4,145.1 L131.1,145.0 L131.0,145.0 L130.6,144.7 L130.4,144.6 L130.3,144.6 L130.0,144.5 L129.9,144.4 L129.8,144.3 L129.7,144.2 L129.6,144.1 L129.6,144.1 L129.6,143.9 L129.6,143.7 L129.6,143.6 L129.6,143.5 L129.5,143.3 L129.5,143.0 L129.5,142.9 L129.8,142.3 L129.8,142.3 L130.0,141.9 L130.3,141.3 L130.6,140.9 L131.2,140.3 L131.3,140.1 L131.8,139.1 L131.9,138.7 L132.0,138.6 L132.5,138.1 L132.7,137.9 L133.0,137.2 L133.2,136.8 L133.5,136.5 L134.0,136.0 L134.7,135.4 L134.8,135.1 L135.4,134.1 L135.5,134.0 L135.6,133.9 L135.9,133.7 L136.4,133.5 L136.7,133.4 L137.4,133.2 L137.7,133.1 L138.0,132.9 L138.6,132.6 L139.4,132.3 L139.2,132.1 L139.3,132.0 L139.4,131.9 L139.5,131.9 L139.7,131.8 L139.9,131.7 L140.1,131.6 L140.4,131.5 L140.5,131.4 L140.6,131.3 L140.9,131.1 L141.3,130.7 L141.5,130.4 L141.8,130.1 L142.2,129.7 L142.4,129.5 L142.5,129.5 L142.5,129.4 L142.5,129.3 L142.7,129.2 L142.8,129.2 L143.0,129.2 L143.1,129.1 L143.2,129.1 L143.2,129.0 L143.1,128.7 L143.1,128.5 L143.1,128.0 L143.1,127.9 L143.0,127.7 L142.7,127.4 L142.7,127.3 L142.8,127.3 L142.9,127.0 L143.0,126.8 L143.0,126.2 L143.0,125.9 L143.0,125.5 L143.0,125.4 L143.1,125.4 L143.2,125.3 L143.2,125.3 L143.3,125.4 L143.5,125.6 L143.6,125.6 L143.7,125.6 L143.7,125.5 L144.1,124.7 L144.6,124.1 L144.6,124.0 L144.6,123.9 L144.2,123.7 L144.0,123.4 L143.9,123.2 L143.8,123.1 L143.8,122.9 L143.6,122.7 L143.5,122.5 L143.5,122.5 L143.2,122.1 L142.7,121.5 L142.5,121.3 L142.1,120.9 L141.9,120.6 L141.5,120.3 L141.4,120.3 L141.1,120.1 L140.9,120.0 L140.6,119.7 L140.5,119.6 L140.1,119.7 L139.8,119.6 L139.5,119.5 L139.1,119.5 L138.8,119.5 L138.6,119.5 L138.3,119.4 L138.1,119.2 L137.9,118.9 L137.8,118.8 L137.7,118.8 L137.1,118.8 L136.6,118.8 L136.4,118.7 L135.4,118.7 L135.3,118.7 L135.0,118.8 L134.9,118.9 L134.6,118.9 L134.4,118.9 L134.2,118.9 L134.0,118.9 L133.4,119.1 L133.2,119.1 L132.7,119.2 L132.6,119.1 L132.2,118.9 L132.1,118.9 L131.9,118.7 L131.7,118.6 L131.6,118.6 L131.4,118.6 L130.2,118.7 L129.4,118.6 L129.1,118.6 L128.8,118.7 L128.7,118.8 L128.6,118.7 L127.7,118.4 L127.2,118.2 L126.9,118.1 L126.7,118.0 L126.4,117.8 L125.7,117.0 L125.6,116.9 L125.5,116.8 L125.4,116.7 L125.2,116.5 L125.1,116.4 L124.7,116.2 L124.5,116.2 L124.2,116.1 L124.0,116.0 L123.6,115.8 L123.5,115.7 L123.1,115.6 L122.6,115.5 L122.1,115.3 L122.0,115.3 L121.6,115.0 L121.4,114.9 L121.2,114.9 L120.9,114.6 L120.6,114.5 L120.0,114.1 L119.7,114.0 L119.5,113.9 L119.1,113.7 L119.0,113.6 L118.6,113.5 L118.5,113.4 L117.6,113.0 L117.3,112.8 L117.1,112.7 L117.0,112.5 L116.9,112.4 L116.7,112.3 L116.3,112.0 L115.7,111.7 L115.5,111.6 L115.0,111.5 L114.4,111.5 L114.2,111.4 L113.9,111.3 L113.8,111.2 L113.6,111.2 L113.4,111.2 L113.3,111.2 L113.2,111.2 L113.1,111.4 L112.8,111.5 L112.6,111.5 L112.3,111.5 L112.2,111.5 L112.0,111.4 L112.0,111.2 L111.9,110.8 L111.8,110.6 L111.7,110.4 L111.5,110.2 L111.3,110.0 L111.3,109.9 L111.2,109.8 L111.2,109.6 L111.1,109.4 L111.1,109.3 L110.9,109.1 L110.7,108.9 L110.5,108.8 L110.4,108.7 L110.3,108.5 L110.2,108.4 L110.2,108.3 L110.1,108.2 L110.0,108.0 L110.0,107.9 L109.8,108.0 L109.8,107.8 L109.8,107.6 L109.5,107.1 L109.4,106.9 L109.1,106.6 L108.3,105.8 L108.2,105.6 L107.9,105.1 L107.9,105.0 L107.8,104.9 L107.4,104.7 L107.3,104.6 L107.2,104.4 L107.2,104.3 L107.3,103.9 L107.2,103.6 L107.0,103.1 L106.7,102.7 L106.5,102.4 L106.3,102.1 L105.6,101.3 L105.3,101.1 L105.1,100.8 L105.0,100.5 L104.7,100.0 L104.2,99.3 L103.6,98.7 L102.9,97.9 L102.8,97.8 L101.3,95.7 L101.3,95.7 L101.3,95.7 L101.2,95.5 L101.1,95.2 L100.7,94.3 L100.7,94.1 L100.6,93.6 L100.6,93.5 L100.6,93.4 L100.6,93.4 L100.6,93.3 L100.6,92.8 L100.6,91.9 L100.5,91.6 L100.5,91.3 L100.5,91.2 L100.5,91.1 L100.5,91.0 L100.4,90.8 L100.5,90.5 L100.5,90.3 L100.6,89.9 L100.7,89.7 L100.8,89.5 L100.8,89.4 L101.5,89.5 L102.0,89.6 L102.1,89.7 L102.5,89.8 L102.7,89.9 L102.8,90.0 L102.9,90.0 L103.0,89.9 L103.2,89.9 L103.3,90.0 L103.4,90.0 L103.5,90.0 L103.6,89.9 L103.7,89.7 L103.8,89.3 L104.0,89.3 L104.2,89.3 L104.2,89.4 L104.2,89.8 L104.5,89.8 L105.1,89.8 L105.4,89.7 L106.4,89.6 L107.8,89.2 L109.1,88.9 L109.8,88.9 L110.6,88.7 L110.7,88.7 L112.3,87.8 L112.5,87.8 L112.5,87.7 L112.2,87.1 L112.2,87.0 L112.7,86.8 L112.8,85.6 L112.8,85.4 L112.8,85.1 L112.6,84.5 L112.6,84.5 L112.3,83.9 L112.2,83.8 L112.1,83.6 L112.1,83.6 L112.1,83.2 L112.0,83.1 L112.2,83.0 L112.5,82.8 L112.7,82.7 L113.1,82.3 L113.3,82.2 L113.6,82.1 L114.0,82.1 L114.2,82.0 L114.2,82.0 L114.5,82.1 L114.8,82.1 L114.9,82.2 L115.2,82.3 L115.2,82.4 L115.3,82.4 L115.6,82.5 L115.8,82.7 L116.0,82.8 L116.3,82.8 L116.4,82.8 L116.4,82.8 L117.8,82.8 L118.2,82.8 L118.6,82.8 L119.0,82.7 L119.3,82.4 L119.6,82.2 L119.6,82.1 L119.7,81.9 L119.7,81.5 L119.7,81.3 L119.8,81.2 L119.9,81.1 L119.9,81.1 L119.9,81.0 L120.2,80.8 L120.5,80.5 L120.7,80.1 L120.7,79.6 L120.6,79.2 L120.5,78.8 L120.4,78.5 L120.4,77.7 L120.5,77.2 L120.5,77.1 L120.4,76.8 L120.4,76.4 L120.5,75.7 L120.5,75.3 L120.6,74.9 L120.6,74.5 L120.8,74.3 L120.9,74.0 L120.9,73.8 L120.9,73.7 L120.8,73.3 L120.7,73.1 L120.8,72.7 L120.8,72.4 L121.0,71.7 L121.1,71.6 L121.1,71.4 L121.2,71.2 L121.2,70.4 L121.2,70.3 L120.8,69.6 L120.4,69.0 L120.0,68.6 L119.8,68.4 L119.8,68.2 L119.7,67.7 L119.3,66.3 L119.2,66.2 L119.1,66.0 L118.6,64.0 L118.4,63.8 L117.9,63.3 L117.3,62.8 L117.1,62.8 L117.0,62.5 L116.7,61.7 L116.6,61.3 L116.5,61.0 L116.4,60.7 L116.1,60.3 L115.8,60.0 L115.5,59.6 L115.3,59.3 L115.2,59.0 L115.1,58.9 L115.0,58.8 L114.0,57.9 L113.8,57.7 L113.7,57.5 L113.7,57.0 L113.6,56.5 L113.5,56.4 L113.2,55.9 L113.2,55.8 L113.2,55.7 L113.3,55.6 L113.5,55.2 L113.7,54.8 L113.7,54.7 L113.7,54.5 L113.7,54.3 L113.7,54.2 L113.9,53.4 L114.0,53.0 L114.0,52.9 L113.9,52.5 L113.7,51.9 L113.7,51.7 L113.8,51.6 L114.3,50.6 L114.7,50.2 L114.8,50.0 L115.1,49.6 L115.1,49.5 L115.2,49.5 L115.2,49.6 L115.3,49.7 L115.3,49.7 L115.4,49.8 L115.4,49.9 L115.5,49.9 L115.7,49.9 L115.7,50.0 L115.7,50.0 L115.7,50.2 L115.7,50.3 L115.8,50.5 L116.0,50.6 L116.3,50.7 L116.5,50.8 L116.6,50.9 L116.7,51.2 L116.7,51.3 L116.8,51.3 L116.8,51.2 L116.8,50.7 L116.7,50.6 L116.7,50.3 L117.8,49.9 L117.9,49.8 L117.8,49.6 L117.6,49.4 L117.3,49.1 L117.2,48.8 L117.0,48.4 L117.0,48.1 L117.1,47.7 L117.1,47.5 L117.1,47.3 L116.7,46.9 L116.6,46.8 L116.7,46.3 L116.4,45.9 L116.3,45.8 L116.2,45.4 L115.9,44.8 L116.0,44.7 L116.3,44.6 L116.6,44.5 L117.6,44.2 L118.2,43.8 L118.3,43.6 L118.6,43.5 L118.7,43.4 L118.8,43.1 L118.8,42.9 L118.9,42.6 L118.9,42.1 L118.9,41.5 L118.8,41.2 L118.8,41.0 L118.8,40.6 L118.9,40.1 L118.8,40.0 L118.8,39.9 L118.8,39.6 L118.9,39.4 L119.4,39.1 L119.5,39.0 L119.8,38.7 L119.9,38.6 L120.1,38.5 L120.4,38.4 L121.0,38.3 L121.1,38.2 L121.5,38.2 L121.6,38.2 L121.9,38.5 L122.0,38.5 L122.1,38.5 L122.2,38.5 L122.2,38.4 L122.3,38.1 L122.3,37.7 L122.2,37.5 L122.1,37.3 L121.3,36.6 L121.1,36.4 L120.9,36.3 L120.7,36.3 L120.6,36.2 L120.4,36.2 L120.2,36.1 L120.1,36.0 L120.1,35.7 L120.1,35.7 L120.1,35.6 L120.4,35.4 L120.5,35.3 L121.2,35.1 L121.7,34.9 L122.7,34.7 L122.9,34.7 L123.0,34.7 L123.0,34.6 L123.1,34.6 L123.9,35.1 L124.1,35.1 L124.4,35.0 L124.9,35.0 L125.4,35.1 L125.6,35.1 L125.9,35.3 L126.4,35.7 L126.5,35.8 L126.5,35.9 L126.5,36.4 L126.6,36.7 L126.7,37.0 L126.8,37.1 L126.9,37.1 L127.0,37.0 L127.0,36.9 L127.1,36.6 L127.2,36.5 L127.4,36.4 L128.1,36.1 L128.4,36.0 L128.4,36.0 L128.5,36.1 L128.8,36.2 L129.0,36.2 L129.0,36.2 L129.1,36.1 L129.4,35.8 L129.5,35.7 L129.6,35.5 L129.6,35.4 L129.6,34.9 L129.6,34.8 L129.7,34.4 L129.8,34.2 L130.0,34.1 L130.1,34.1 L130.2,34.1 L130.5,34.0 L130.6,34.0 L130.9,33.9 L131.3,34.4 L131.5,34.7 L131.9,34.7 L132.1,34.9 L132.2,35.1 L132.2,35.4 L132.2,35.6 L132.3,36.3 L132.3,36.4 L132.4,36.6 L132.7,36.8 L133.0,36.9 L133.2,36.9 L133.6,36.8 L133.8,36.7 L134.4,36.6 L135.2,36.2 L135.4,36.1 L135.5,36.1 L136.0,35.6 L136.2,35.3 L137.3,33.9 L138.0,33.3 L138.1,33.1 L138.6,32.4 L138.7,31.7 L138.8,31.6 L138.9,31.6 L139.1,31.5 L139.4,31.4 L139.6,31.2 L139.8,31.1 L140.0,31.1 L140.0,31.1 L140.1,31.1 L140.2,31.1 L140.3,31.2 L140.4,31.4 L140.6,31.9 L140.7,32.0 L140.7,32.1 L141.1,32.3 L141.5,32.3 L141.6,32.3 L142.1,31.8 L142.3,31.7 L142.6,31.5 L142.8,31.4 L142.9,31.3 L143.0,31.1 L143.0,31.0 L142.9,29.4 L142.9,28.6 L142.9,27.9 L143.0,27.5 L143.2,27.2 L143.3,26.9 L143.7,26.5 L144.0,26.3 L144.3,26.2 L144.6,26.1 L144.8,26.1 L145.0,26.1 L145.4,26.3 L145.6,26.3 L146.0,26.3 L146.2,26.3 L146.6,26.2 L146.8,25.5 L146.9,25.2 L146.9,24.9 L146.9,24.5 L146.9,24.3 L146.9,24.1 L147.2,23.5 L148.4,22.5 L149.0,22.2 L149.5,21.9 L149.7,21.9 L149.9,21.9 L150.0,21.9 L150.6,22.1 L150.8,22.2 L151.0,22.4 L151.0,22.5 L151.0,22.8 L150.8,23.1 L150.8,23.3 L150.6,23.5 L150.5,23.7 L150.6,23.8 L150.6,23.9 L150.8,24.0 L151.4,24.3 L151.6,24.4 L152.6,24.5 L152.8,24.4 L152.8,24.4 L152.9,24.3 L152.7,23.9 L152.8,23.6 L152.7,23.4 L152.6,23.3 L152.6,23.1 L152.7,22.8 L152.9,22.4 L152.9,22.3 L152.8,22.0 L152.9,21.9 L152.9,21.7 L153.1,21.6 L153.6,21.9 L153.7,21.9 L153.9,22.1 L154.1,22.2 L154.3,22.2 L154.5,22.2 L154.8,22.3 L155.1,22.4 L155.4,22.4 L155.7,22.3 L156.5,22.4 L156.8,22.5 L157.0,22.4 L157.2,22.3 L157.4,22.2 L157.6,22.2 L157.6,22.3 L157.6,22.5 L157.5,22.6 L157.3,22.8 L156.9,23.0 L156.7,23.1 L156.5,23.2 L156.3,23.2 L155.8,23.3 L155.7,23.3 L155.7,23.4 L155.7,23.5 L155.8,23.6 L155.8,23.6 L156.0,23.6 L156.4,23.7 L156.9,23.6 L157.2,23.6 L157.4,23.5 L158.1,23.2 L158.7,23.3 L158.9,23.2 L159.5,23.1 L159.6,23.1 L159.7,23.2 L160.0,23.4 L160.5,23.6 L160.9,23.8 L161.1,23.9 L161.6,23.9 L161.7,23.9 L161.9,23.9 L162.2,24.1 L162.6,24.4 L162.7,24.5 L163.0,24.8 L163.4,25.1 L163.7,25.4 L164.0,25.5 L164.7,25.6 L165.1,25.9 L165.3,26.1 L165.4,26.3 L165.6,26.6 L166.1,26.7 L166.6,26.9 L167.2,27.2 L168.2,27.4 L168.3,27.4 L168.6,27.8 L168.7,27.9 L168.8,27.9 L169.0,28.1 L170.0,28.8 L170.9,29.2 L171.0,29.2 L171.2,29.1 L171.3,29.1 L171.9,29.2 L172.3,29.3 L172.3,29.3 L172.4,29.3 L172.4,29.3 L172.5,29.3 L172.7,29.6 L172.8,29.7 L172.8,29.9 L172.8,30.0 L172.9,30.2 L173.2,30.5 L173.6,31.2 L173.7,31.3 L173.8,31.5 L173.8,31.7 L173.7,32.1 L173.7,32.2 L173.9,32.4 L173.9,32.5 L174.1,32.7 L174.2,32.8 L174.5,33.0 L174.6,33.2 L174.7,33.3 L174.7,33.6 L174.7,33.8 L174.8,34.0 L175.1,34.4 L175.2,34.5 L175.6,34.9 L175.6,34.9 L175.7,35.0 L175.7,35.2 L175.9,35.1 L176.2,35.2 L176.5,35.3 L176.9,35.4 L177.1,35.3 L177.3,35.3 L177.5,35.2 L177.6,35.2 L177.9,35.0 L178.0,34.9 L178.2,34.6 L178.3,34.4 L178.7,33.7 L178.8,33.7 L179.2,33.6 L179.4,33.6 L179.5,33.5 L179.7,33.3 L180.0,32.8 L180.6,32.2 L180.9,31.8 L181.1,31.7 L181.4,31.5 L181.8,31.4 L181.9,31.4 L182.1,31.2 L182.5,30.8 L183.0,30.5 L183.2,30.3 L183.3,29.9 L183.4,29.7 L183.5,29.5 L184.5,28.4 L184.6,28.3 L184.7,28.1 L184.8,28.0 L185.0,27.8 L185.1,27.7 L185.4,27.6 L185.7,27.6 L186.0,27.5 L186.2,27.4 L186.7,27.1 L186.8,27.0 L186.9,27.0 L187.2,27.0 L187.4,27.0 L188.0,27.2 L188.2,27.2 L188.3,27.2 L188.6,27.3 L189.2,27.5 L189.4,27.5 L189.6,27.5 L189.8,27.4 L191.0,27.1 L191.2,27.1 L191.4,27.0 L191.9,26.6 L192.6,25.9 L193.0,25.6 L193.3,25.4 L193.9,25.2 L194.2,25.0 L194.3,24.9 L194.4,24.8 L194.9,24.3 L195.1,24.1 L195.3,24.0 L195.5,23.9 L195.8,23.9 L196.2,23.9 L196.4,23.9 L197.1,24.0 L197.4,23.9 L197.6,23.8 L197.8,23.7 L197.9,23.6 L198.2,23.1 L198.4,22.9 L198.5,22.8 L198.5,22.8 L198.8,22.6 L199.7,22.1 L199.7,22.1 L199.8,22.0 L199.9,21.9 L200.6,21.5 L200.8,21.4 L201.0,21.2 L201.9,20.1 L202.0,20.0" fill="transparent" id="track" stroke="black" stroke-linejoin="miter" stroke-miterlimit="1" stroke-width="2"/>
<g>
<g>
<circle cx="299.48768806430326" cy="379.9307882642388" fill="Black" id="wp-0/circle" r="5"/>
<circle cx="299.48768806430326" cy="379.9307882642388" fill="white" id="wp-0/circle-little-white" r="3.5"/>
<circle cx="299.48768806430326" cy="379.9307882642388" fill="black" id="wp-0/circle-little-white" r="2.5"/>
</g>
<rect fill="white" fill-opacity="0.75" height="12" id="label-bg" width="82.30526315789473" x="305.1824249064085" y="380.9307882642388"/>
<text font-size="16.0" id="wp-0/text" text-anchor="start" x="305.182" y="392.931">
Bräunlingen
</text>
<g>
<circle cx="165.6673935808194" cy="279.3892407461135" fill="Black" id="wp-1/circle" r="5"/>
<circle cx="165.6673935808194" cy="279.3892407461135" fill="white" id="wp-1/circle-little-white" r="3.5"/>
<circle cx="165.6673935808194" cy="279.3892407461135" fill="black" id="wp-1/circle-little-white" r="2.5"/>
</g>
<rect fill="white" fill-opacity="0.75" height="12" id="label-bg" width="80.03157894736842" x="173.635814633451" y="275.3892407461135"/>
<text font-size="16.0" id="wp-1/text" text-anchor="start" x="173.636" y="287.389">
Furtwangen
</text>
<g>
<circle cx="164.7745599827931" cy="279.70478956742954" fill="Blue" id="wp-2/circle" r="5"/>
</g>
<rect fill="white" fill-opacity="0.75" height="12" id="label-bg" width="15.610526315789485" x="137.16403366700365" y="265.70478956742954"/>
<text font-size="16.0" id="wp-2/text" text-anchor="end" x="152.775" y="277.705">
K1
</text>
<g>
<circle cx="160.17804424047517" cy="203.30462621747938" fill="Black" id="wp-3/circle" r="4"/>
<circle cx="160.17804424047517" cy="203.30462621747938" fill="white" id="wp-3/circle-little-white" r="2.5"/>
</g>
<rect fill="white" fill-opacity="0.75" height="12" id="label-bg" width="184.14736842105265" x="164.03067581942253" y="189.30462621747938"/>
<text font-size="16.0" id="wp-3/text" text-anchor="start" x="164.031" y="201.305">
Schonach im Schwarzwald
</text>
<g>
<circle cx="111.9091584242733" cy="110.54800181507017" fill="Black" id="wp-4/circle" r="4"/>
<circle cx="111.9091584242733" cy="110.54800181507017" fill="white" id="wp-4/circle-little-white" r="2.5"/>
</g>
<rect fill="white" fill-opacity="0.75" height="12" id="label-bg" width="83.34736842105264" x="31.561790003220665" y="116.54800181507017"/>
<text font-size="16.0" id="wp-4/text" text-anchor="start" x="31.562" y="128.548">
Mühlenbach
</text>
<g>
<circle cx="98.90297881987135" cy="91.47344700666508" fill="Black" id="wp-5/circle" r="5"/>
<circle cx="98.90297881987135" cy="91.47344700666508" fill="white" id="wp-5/circle-little-white" r="3.5"/>
<circle cx="98.90297881987135" cy="91.47344700666508" fill="black" id="wp-5/circle-little-white" r="2.5"/>
</g>
<rect fill="white" fill-opacity="0.75" height="12" id="label-bg" width="137.44210526315788" x="114.46087355671347" y="92.47344700666508"/>
<text font-size="16.0" id="wp-5/text" text-anchor="start" x="114.461" y="104.473">
Haslach im Kinzigtal
</text>
<g>
<circle cx="112.38084514659477" cy="82.3707155322627" fill="Black" id="wp-6/circle" r="4"/>
<circle cx="112.38084514659477" cy="82.3707155322627" fill="white" id="wp-6/circle-little-white" r="2.5"/>
</g>
<rect fill="white" fill-opacity="0.75" height="12" id="label-bg" width="83.34736842105264" x="27.03347672554213" y="63.37071553226269"/>
<text font-size="16.0" id="wp-6/text" text-anchor="start" x="27.033" y="75.371">
Fischerbach
</text>
<g>
<circle cx="100.8138848666058" cy="89.38306780514904" fill="Blue" id="wp-7/circle" r="5"/>
</g>
<rect fill="white" fill-opacity="0.75" height="12" id="label-bg" width="15.610526315789471" x="78.20335855081633" y="80.38306780514904"/>
<text font-size="16.0" id="wp-7/text" text-anchor="end" x="93.814" y="92.383">
K2
</text>
<g>
<circle cx="179.49276300675228" cy="214.05108364238913" fill="Black" id="wp-8/circle" r="5"/>
<circle cx="179.49276300675228" cy="214.05108364238913" fill="white" id="wp-8/circle-little-white" r="3.5"/>
<circle cx="179.49276300675228" cy="214.05108364238913" fill="black" id="wp-8/circle-little-white" r="2.5"/>
</g>
<rect fill="white" fill-opacity="0.75" height="12" id="label-bg" width="46.87368421052631" x="155.61907879622598" y="220.05108364238913"/>
<text font-size="16.0" id="wp-8/text" text-anchor="start" x="155.619" y="232.051">
Triberg
</text>
<g>
<circle cx="235.44964810598867" cy="217.4104822799709" fill="Black" id="wp-9/circle" r="5"/>
<circle cx="235.44964810598867" cy="217.4104822799709" fill="white" id="wp-9/circle-little-white" r="3.5"/>
<circle cx="235.44964810598867" cy="217.4104822799709" fill="black" id="wp-9/circle-little-white" r="2.5"/>
</g>
<rect fill="white" fill-opacity="0.75" height="12" id="label-bg" width="83.06315789473683" x="240.38649021125184" y="208.4104822799709"/>
<text font-size="16.0" id="wp-9/text" text-anchor="start" x="240.386" y="220.410">
St. Georgen
</text>
<g>
<circle cx="179.13987269312292" cy="144.89775803405428" fill="Black" id="wp-10/circle" r="5"/>
<circle cx="179.13987269312292" cy="144.89775803405428" fill="white" id="wp-10/circle-little-white" r="3.5"/>
<circle cx="179.13987269312292" cy="144.89775803405428" fill="black" id="wp-10/circle-little-white" r="2.5"/>
</g>
<rect fill="white" fill-opacity="0.75" height="12" id="label-bg" width="62.978947368421046" x="144.16092532470188" y="150.89775803405428"/>
<text font-size="16.0" id="wp-10/text" text-anchor="start" x="144.161" y="162.898">
Hornberg
</text>
<g>
<circle cx="264.436249519018" cy="134.36422042554477" fill="Black" id="wp-11/circle" r="5"/>
<circle cx="264.436249519018" cy="134.36422042554477" fill="white" id="wp-11/circle-little-white" r="3.5"/>
<circle cx="264.436249519018" cy="134.36422042554477" fill="black" id="wp-11/circle-little-white" r="2.5"/>
</g>
<rect fill="white" fill-opacity="0.75" height="12" id="label-bg" width="83.82105263157894" x="258.6151968874391" y="140.36422042554477"/>
<text font-size="16.0" id="wp-11/text" text-anchor="start" x="258.615" y="152.364">
Schramberg
</text>
<g>
<circle cx="174.1260977556094" cy="73.37490439519752" fill="Black" id="wp-12/circle" r="5"/>
<circle cx="174.1260977556094" cy="73.37490439519752" fill="white" id="wp-12/circle-little-white" r="3.5"/>
<circle cx="174.1260977556094" cy="73.37490439519752" fill="black" id="wp-12/circle-little-white" r="2.5"/>
</g>
<rect fill="white" fill-opacity="0.75" height="12" id="label-bg" width="52.084210526315786" x="165.04188722929362" y="54.37490439519752"/>
<text font-size="16.0" id="wp-12/text" text-anchor="start" x="165.042" y="66.375">
Wolfach
</text>
<g>
<circle cx="147.66987650926967" cy="85.8574226293349" fill="Black" id="wp-13/circle" r="5"/>
<circle cx="147.66987650926967" cy="85.8574226293349" fill="white" id="wp-13/circle-little-white" r="3.5"/>
<circle cx="147.66987650926967" cy="85.8574226293349" fill="black" id="wp-13/circle-little-white" r="2.5"/>
</g>
<rect fill="white" fill-opacity="0.75" height="12" id="label-bg" width="58.7157894736842" x="151.95408703558547" y="71.8574226293349"/>
<text font-size="16.0" id="wp-13/text" text-anchor="start" x="151.954" y="83.857">
Hausach
</text>
<g>
<circle cx="241.34220545340577" cy="80.39299361052326" fill="Black" id="wp-14/circle" r="5"/>
<circle cx="241.34220545340577" cy="80.39299361052326" fill="white" id="wp-14/circle-little-white" r="3.5"/>
<circle cx="241.34220545340577" cy="80.39299361052326" fill="black" id="wp-14/circle-little-white" r="2.5"/>
</g>
<rect fill="white" fill-opacity="0.75" height="12" id="label-bg" width="61.46315789473684" x="242.87904755866893" y="61.39299361052326"/>
<text font-size="16.0" id="wp-14/text" text-anchor="start" x="242.879" y="73.393">
Schiltach
</text>
</g>
<g>
<g/>
<g/>
<g/>
<g/>
<g/>
<g/>
<g/>
<g/>
<g/>
<g/>
<g/>
</g>
</svg>