<svg height="400" viewBox="(0, 0, 400, 400)" width="400" xmlns="http://www.w3.org/2000/svg">
<path d="M305.1,390.0 L305.1,389.9 L305.0,389.9 L304.8,389.9 L304.7,389.9 L304.4,389.9 L304.4,389.9 L304.3,389.8 L304.0,389.7 L303.8,389.6 L303.4,389.3 L303.2,389.1 L302.4,388.9 L302.3,388.8 L302.2,388.7 L302.2,388.6 L302.1,388.1 L302.1,387.8 L302.0,387.6 L301.8,387.5 L301.6,387.4 L301.3,387.3 L301.1,387.1 L301.0,386.9 L300.8,386.4 L300.8,386.2 L300.7,386.1 L300.6,385.9 L300.2,385.5 L300.1,385.3 L299.6,384.8 L299.2,384.4 L299.1,384.2 L299.0,383.9 L298.9,383.6 L298.8,383.3 L298.9,383.0 L299.0,382.7 L299.3,382.1 L299.5,381.5 L299.6,380.9 L299.7,380.7 L299.8,379.9 L299.9,379.7 L299.7,379.3 L299.6,379.1 L299.3,378.6 L299.2,378.2 L299.1,377.8 L298.6,374.2 L298.4,372.0 L298.2,371.0 L298.2,370.5 L298.0,369.6 L298.1,369.4 L298.1,369.4 L298.0,369.0 L297.6,368.2 L295.8,365.3 L295.7,365.3 L295.6,365.3 L295.1,364.9 L294.9,364.8 L294.4,364.1 L293.6,363.0 L293.2,362.7 L293.0,362.6 L292.9,362.3 L292.8,361.9 L292.7,361.7 L292.1,360.9 L291.9,360.5 L291.9,360.4 L291.8,360.3 L291.7,360.3 L291.8,360.1 L291.9,359.7 L291.9,359.5 L291.9,359.4 L291.9,359.3 L291.9,358.8 L292.0,358.6 L291.8,358.6 L291.7,358.6 L291.5,358.5 L291.4,358.4 L291.0,357.9 L290.6,357.4 L290.2,356.7 L290.0,356.7 L289.9,356.7 L289.6,356.7 L289.5,356.8 L289.3,356.7 L289.2,356.6 L288.6,356.0 L288.2,355.6 L288.1,355.5 L287.9,355.3 L287.5,355.1 L287.1,355.0 L286.5,354.8 L286.2,354.7 L286.1,354.6 L285.9,354.4 L285.7,354.2 L285.5,353.9 L285.4,353.8 L285.2,353.6 L285.0,353.3 L284.9,353.1 L284.9,352.9 L284.9,352.5 L284.9,352.4 L284.9,352.0 L284.9,351.9 L285.0,351.9 L285.1,351.8 L285.2,351.8 L285.3,351.7 L285.3,351.7 L285.5,351.5 L285.5,351.4 L285.3,351.2 L285.0,351.1 L284.6,351.1 L284.3,351.1 L284.1,351.1 L283.9,351.1 L283.6,351.2 L283.3,351.4 L282.3,352.1 L282.0,352.2 L281.7,352.3 L281.4,352.4 L280.5,352.5 L280.3,352.5 L279.9,352.5 L279.6,352.5 L279.3,352.4 L279.0,352.3 L276.5,350.8 L275.5,350.3 L274.5,349.8 L273.7,349.5 L273.1,349.3 L272.6,348.9 L272.3,348.5 L271.9,347.9 L271.7,347.4 L271.6,346.9 L271.5,346.6 L271.4,346.3 L271.1,346.0 L270.9,345.8 L270.7,345.7 L269.7,345.3 L269.1,345.0 L268.4,344.4 L267.5,343.6 L267.0,343.1 L266.5,342.3 L266.4,340.5 L266.2,340.0 L265.9,339.4 L265.4,339.0 L264.6,338.6 L264.0,338.3 L263.4,338.1 L262.8,337.9 L262.7,337.8 L262.1,337.5 L261.6,337.3 L260.4,337.2 L259.1,337.2 L258.4,337.3 L257.8,337.4 L257.4,337.4 L257.2,337.3 L256.9,337.1 L256.6,336.9 L256.2,336.5 L255.8,336.2 L255.5,336.1 L255.4,336.1 L255.0,336.1 L254.7,336.3 L254.0,336.9 L253.8,337.1 L253.5,337.3 L253.0,338.0 L252.8,338.2 L252.6,338.3 L252.3,338.4 L252.1,338.4 L251.9,338.4 L251.6,338.3 L249.5,337.2 L249.1,336.9 L249.0,336.8 L248.9,336.6 L248.8,336.4 L248.6,335.9 L248.5,335.6 L248.4,335.3 L248.3,335.2 L248.0,334.9 L247.8,334.8 L247.0,334.2 L246.2,333.7 L246.0,333.5 L245.7,333.4 L245.3,333.3 L244.3,333.1 L243.9,333.0 L243.1,332.9 L241.3,332.6 L240.8,332.4 L240.4,332.2 L240.0,331.9 L239.7,331.6 L239.3,331.4 L239.2,331.3 L237.4,330.6 L236.7,330.2 L236.4,330.0 L236.2,329.9 L235.9,329.7 L235.8,329.7 L235.7,329.6 L235.7,329.6 L235.6,329.5 L235.6,329.4 L235.4,329.2 L235.1,328.7 L234.8,328.2 L234.7,327.9 L234.8,327.7 L235.0,327.0 L235.1,326.8 L235.1,326.5 L235.1,326.3 L235.0,326.0 L235.0,325.4 L234.9,325.1 L234.8,324.8 L234.6,324.6 L234.1,324.1 L234.0,323.9 L233.9,323.8 L233.9,323.0 L233.8,322.8 L233.7,322.5 L233.5,322.2 L233.4,322.1 L233.3,322.0 L233.2,321.9 L232.0,321.1 L231.6,320.8 L231.4,320.6 L231.1,320.3 L231.0,320.1 L230.9,319.7 L230.8,319.4 L230.3,318.0 L229.9,316.5 L229.8,315.9 L229.6,315.9 L229.4,316.0 L229.2,316.0 L229.1,316.0 L228.8,316.0 L226.8,316.1 L226.6,316.1 L226.2,316.0 L225.8,315.9 L225.4,315.8 L225.0,315.8 L224.9,315.8 L224.1,315.6 L223.8,315.5 L223.7,315.4 L223.5,315.3 L222.8,315.0 L222.7,314.9 L222.2,314.7 L221.8,314.6 L221.6,314.5 L221.2,314.5 L221.0,314.5 L220.9,314.5 L220.5,314.3 L220.3,314.3 L220.0,314.0 L219.6,313.9 L219.3,313.7 L219.2,313.6 L218.3,313.1 L217.9,313.0 L217.4,312.9 L216.7,312.5 L216.5,312.5 L216.2,312.4 L215.4,312.3 L215.2,312.3 L215.1,312.3 L215.1,312.2 L215.0,312.1 L214.9,312.0 L214.9,311.8 L214.9,311.7 L214.8,311.6 L214.7,311.6 L214.6,311.6 L214.4,311.7 L214.4,311.8 L214.2,312.2 L214.1,312.3 L214.0,312.4 L213.8,312.4 L213.6,312.4 L213.4,312.4 L213.1,312.3 L213.0,312.3 L212.3,312.0 L211.8,311.8 L211.6,311.7 L210.3,311.1 L209.6,310.8 L209.1,310.6 L208.9,310.6 L208.5,310.5 L207.6,310.4 L207.0,310.3 L206.8,310.2 L206.5,310.0 L205.9,309.5 L205.6,309.3 L205.5,309.3 L204.8,309.2 L204.1,309.1 L203.8,309.0 L203.6,309.0 L203.3,309.1 L203.1,309.2 L202.8,309.1 L202.3,309.0 L201.4,308.9 L201.1,308.8 L200.2,308.8 L200.1,308.8 L200.1,308.8 L199.3,308.4 L199.1,308.3 L198.7,308.0 L198.6,307.9 L198.5,307.8 L198.4,307.7 L198.3,307.6 L198.0,307.6 L197.6,307.5 L197.1,307.4 L196.6,307.2 L196.3,307.3 L195.6,307.2 L195.3,307.2 L195.0,307.2 L194.5,307.1 L194.3,307.1 L194.0,306.9 L193.8,306.9 L193.6,306.9 L193.3,306.9 L192.9,307.0 L192.6,307.1 L192.4,307.3 L192.3,307.3 L191.8,307.4 L191.0,307.6 L190.7,307.6 L190.0,307.4 L189.9,307.4 L188.5,307.5 L187.9,307.5 L187.0,307.4 L186.8,307.4 L186.7,307.4 L186.5,307.3 L186.0,307.0 L185.7,306.9 L185.5,306.9 L184.7,306.9 L183.8,306.9 L183.3,306.9 L183.0,307.0 L182.5,307.2 L182.3,307.4 L182.1,307.4 L181.5,307.5 L181.0,307.6 L180.6,307.6 L180.2,307.6 L179.7,307.5 L178.9,307.2 L178.8,307.2 L178.6,307.2 L178.2,307.2 L177.8,307.1 L177.7,307.0 L177.5,306.8 L176.9,306.5 L176.1,306.0 L175.9,305.8 L175.7,305.5 L175.6,305.4 L175.6,305.3 L175.5,305.3 L175.2,305.2 L174.5,304.9 L174.3,304.9 L174.1,304.9 L174.0,305.0 L174.0,305.1 L173.9,305.2 L174.0,305.4 L174.0,305.4 L174.1,305.5 L174.5,305.7 L174.5,305.8 L174.6,305.9 L174.6,306.2 L174.7,306.4 L174.8,306.5 L174.9,306.6 L174.9,306.7 L174.9,306.8 L174.8,307.0 L174.7,307.4 L174.7,307.5 L174.6,307.6 L174.5,307.7 L173.4,308.3 L173.0,308.4 L172.5,308.6 L171.9,308.8 L171.6,308.8 L171.3,308.7 L171.1,308.7 L170.8,308.5 L170.4,308.5 L170.1,308.4 L169.2,308.1 L168.8,307.9 L168.4,307.7 L167.9,307.6 L166.9,307.3 L166.5,307.2 L166.2,307.2 L165.7,307.3 L165.4,307.4 L163.8,308.1 L162.9,308.5 L162.7,308.5 L162.4,308.4 L162.0,308.2 L161.6,307.9 L161.4,307.7 L161.3,307.4 L161.1,307.2 L161.0,307.0 L160.7,306.7 L159.9,305.7 L159.8,305.5 L159.4,304.6 L159.1,304.2 L159.1,304.1 L159.0,303.0 L158.8,302.3 L158.7,301.8 L158.3,301.1 L157.8,300.3 L157.5,300.0 L157.1,299.3 L157.0,299.1 L156.9,298.9 L156.8,298.2 L156.7,298.0 L156.7,297.9 L156.7,297.8 L156.5,297.5 L155.8,296.6 L154.7,295.0 L154.3,294.6 L154.2,294.5 L154.2,294.4 L154.1,294.3 L154.0,294.1 L153.9,293.8 L153.9,293.6 L154.0,292.0 L154.1,291.8 L154.2,291.4 L154.6,290.5 L154.7,290.4 L154.7,290.2 L154.6,290.0 L154.6,289.9 L154.6,289.8 L154.5,289.5 L154.5,289.4 L154.6,289.3 L154.6,289.3 L154.7,289.3 L154.8,289.3 L154.9,289.3 L155.0,289.3 L155.1,289.3 L155.2,289.3 L155.8,289.3 L156.4,289.2 L156.4,289.2 L157.0,289.1 L157.2,289.0 L157.3,288.9 L157.3,288.9 L157.5,288.7 L157.6,288.5 L157.6,288.5 L157.7,288.4 L157.7,288.3 L157.8,288.2 L157.8,288.1 L157.9,288.0 L158.0,287.9 L158.0,287.8 L158.1,287.7 L158.3,287.3 L158.6,286.9 L158.8,286.8 L158.9,286.6 L159.0,286.6 L159.3,286.3 L159.6,286.2 L159.8,286.1 L159.8,286.1 L159.9,286.1 L160.0,286.1 L160.2,286.1 L160.4,286.0 L160.5,286.0 L160.6,285.9 L160.7,285.9 L160.7,285.9 L161.0,285.7 L161.4,285.4 L161.5,285.3 L161.7,285.1 L162.1,284.9 L162.3,284.7 L162.6,284.4 L162.8,284.3 L162.8,284.2 L162.8,284.1 L162.8,283.9 L162.7,283.5 L162.5,283.2 L161.8,282.4 L162.0,282.3 L162.1,282.3 L162.3,282.2 L162.3,282.2 L162.6,282.1 L162.5,282.0 L162.5,281.8 L162.4,281.7 L162.4,281.7 L162.4,281.6 L162.3,281.4 L162.3,281.4 L162.3,281.3 L162.2,280.8 L162.1,280.6 L161.7,280.7 L161.4,280.8 L161.2,280.9 L161.2,281.1 L161.3,281.4 L161.3,281.4 L161.6,281.9 L162.0,281.7 L162.4,281.6 L162.3,281.4 L162.3,281.4 L162.3,281.3 L162.2,280.8 L162.1,280.6 L161.8,279.8 L161.5,279.9 L161.1,279.9 L161.2,280.4 L161.2,280.9 L161.2,281.1 L161.3,281.4 L161.3,281.4 L161.6,281.9 L162.0,281.7 L162.4,281.6 L162.3,281.4 L162.3,281.4 L162.3,281.3 L162.2,280.8 L162.1,280.6 L161.8,279.8 L161.5,279.9 L161.1,279.9 L161.1,279.6 L160.9,279.5 L160.9,279.4 L160.8,279.4 L160.7,279.1 L160.5,278.9 L160.4,278.8 L160.1,278.6 L159.9,278.5 L159.8,278.4 L159.5,277.7 L159.3,277.4 L158.9,277.0 L158.6,276.6 L158.5,276.5 L157.7,275.4 L157.7,275.3 L157.4,274.9 L157.2,274.5 L157.1,274.1 L156.9,273.5 L156.9,272.9 L156.7,272.2 L156.6,271.8 L156.6,271.8 L156.5,271.5 L156.4,271.3 L156.0,270.8 L155.2,269.7 L154.9,269.2 L154.8,268.8 L154.7,268.3 L154.5,268.0 L154.3,267.7 L154.0,267.4 L153.8,267.3 L153.8,267.2 L153.6,267.1 L153.5,266.9 L152.2,265.1 L152.0,264.7 L151.8,264.1 L151.7,263.7 L151.6,263.5 L150.5,261.3 L150.4,261.1 L149.8,259.9 L149.6,259.3 L149.1,257.1 L149.0,256.8 L148.9,256.7 L148.9,256.6 L148.7,256.1 L148.4,255.5 L148.0,255.0 L147.8,254.5 L147.5,253.9 L147.4,253.7 L147.3,253.5 L147.1,253.1 L147.0,252.9 L146.9,252.8 L146.9,252.6 L147.0,252.1 L147.2,251.6 L147.4,251.3 L147.6,251.0 L147.6,250.9 L147.5,250.6 L147.4,250.0 L147.3,249.7 L147.2,249.5 L146.7,248.9 L146.6,248.7 L146.5,248.6 L146.5,248.3 L146.5,248.1 L146.6,247.5 L146.5,247.4 L146.3,247.1 L146.2,247.0 L145.9,246.8 L145.8,246.7 L145.7,246.6 L145.6,246.3 L145.4,245.9 L145.1,245.3 L145.1,245.1 L145.0,244.9 L145.1,244.8 L145.3,244.5 L145.3,244.4 L145.3,244.3 L145.3,244.3 L145.0,244.1 L145.0,244.1 L145.0,244.0 L145.0,243.8 L145.1,243.4 L145.1,243.2 L145.0,243.0 L145.0,242.8 L144.6,242.3 L144.5,241.8 L144.3,241.4 L144.2,241.1 L144.1,240.8 L144.0,240.6 L143.8,240.5 L143.5,240.4 L143.4,240.3 L143.1,240.0 L143.0,239.8 L143.0,239.7 L143.0,239.6 L143.0,239.4 L143.4,239.0 L143.4,238.8 L143.5,238.7 L143.5,238.4 L143.5,238.2 L143.3,237.0 L143.1,236.1 L143.1,235.9 L143.0,235.4 L143.0,234.8 L142.8,233.6 L142.9,233.4 L142.8,233.3 L142.7,233.2 L142.7,233.0 L142.8,232.7 L143.2,232.3 L143.5,231.6 L143.8,231.0 L143.8,230.7 L143.6,229.7 L143.8,229.0 L143.9,228.7 L144.0,228.6 L144.0,228.4 L143.8,228.1 L143.6,227.8 L143.3,227.6 L143.0,227.4 L142.6,227.2 L142.3,226.9 L142.2,226.7 L141.9,226.4 L141.9,226.3 L141.9,226.2 L142.1,226.0 L142.1,225.8 L142.1,225.8 L142.0,225.5 L142.0,225.4 L142.0,225.3 L141.9,225.0 L141.8,224.7 L141.8,224.7 L141.7,224.6 L141.8,224.3 L141.8,224.2 L141.6,224.0 L141.4,223.6 L141.5,223.2 L141.6,223.0 L141.6,222.9 L141.3,222.5 L141.2,222.3 L141.0,222.0 L140.9,221.8 L140.9,221.6 L140.9,221.4 L141.0,221.1 L141.1,220.6 L141.2,220.5 L141.6,220.1 L142.1,219.6 L142.5,219.1 L142.9,218.7 L143.1,218.5 L143.3,218.3 L143.4,218.0 L143.6,217.7 L143.6,217.6 L144.1,217.3 L145.4,216.3 L146.5,215.5 L146.6,215.4 L146.7,215.3 L146.7,215.2 L146.8,215.0 L146.7,214.3 L146.6,213.9 L146.6,213.8 L146.6,213.6 L146.6,213.0 L146.6,212.5 L146.6,212.2 L146.6,212.1 L146.6,212.0 L146.8,211.8 L146.8,211.7 L146.8,211.6 L146.8,211.5 L146.6,211.3 L146.3,211.1 L146.3,210.9 L146.3,210.8 L146.4,210.7 L146.4,210.6 L146.6,210.5 L147.0,210.1 L147.3,210.0 L147.7,209.8 L148.4,209.3 L148.6,209.3 L148.7,209.3 L149.2,209.0 L149.4,208.8 L149.4,208.6 L149.5,208.4 L149.5,208.0 L149.7,207.8 L150.0,207.7 L150.1,207.5 L150.2,207.2 L150.3,207.1 L150.4,206.9 L150.6,206.8 L151.0,206.7 L151.2,206.7 L151.3,206.6 L152.7,205.1 L153.0,205.0 L153.5,204.8 L154.4,204.6 L154.7,204.5 L154.9,204.5 L155.0,204.4 L155.0,204.4 L155.5,204.1 L155.7,204.0 L156.2,203.9 L156.2,203.9 L156.6,203.9 L156.8,203.9 L156.9,203.9 L157.2,203.8 L157.2,203.6 L157.2,203.6 L156.9,202.7 L156.8,202.4 L156.7,202.1 L156.6,201.9 L156.5,201.9 L156.4,201.8 L156.0,201.8 L155.9,201.7 L155.8,201.6 L155.7,201.2 L155.7,201.1 L155.4,201.0 L155.3,200.9 L154.9,200.8 L154.6,200.7 L154.3,200.5 L153.9,200.4 L153.6,200.3 L153.2,200.1 L153.1,200.0 L153.0,199.9 L152.7,199.7 L152.6,199.6 L152.3,199.4 L152.1,199.3 L151.8,199.2 L151.3,199.0 L151.1,198.9 L151.0,198.9 L150.4,198.6 L150.2,198.4 L150.0,198.2 L149.6,197.5 L149.4,197.2 L149.2,197.0 L148.9,196.9 L148.6,196.8 L148.5,196.8 L148.2,196.9 L148.1,196.9 L147.9,197.1 L147.8,197.2 L147.8,197.3 L147.8,197.5 L147.9,197.6 L148.0,197.9 L148.1,198.2 L148.1,198.3 L148.0,198.4 L147.9,198.5 L147.8,198.6 L146.5,199.3 L146.4,199.3 L146.3,199.5 L146.2,199.7 L146.0,200.2 L145.9,200.3 L145.5,200.8 L145.1,201.1 L144.9,201.2 L144.5,201.4 L143.9,201.5 L143.8,201.5 L143.2,201.6 L142.9,201.8 L142.4,202.0 L142.0,202.3 L141.7,202.7 L141.5,202.9 L141.4,203.3 L141.0,204.2 L140.9,204.5 L140.6,204.9 L140.2,205.3 L139.5,205.9 L139.3,206.0 L139.2,206.1 L139.2,206.2 L139.1,206.4 L139.1,206.4 L139.1,206.6 L139.2,206.7 L139.3,206.9 L139.4,207.0 L139.5,207.1 L139.6,207.2 L139.8,207.4 L139.9,207.5 L139.9,207.8 L139.9,208.0 L139.9,208.2 L139.9,208.3 L139.8,208.4 L139.7,208.6 L139.5,208.7 L139.3,208.8 L139.1,208.9 L138.5,208.9 L138.4,208.9 L138.1,209.0 L137.9,209.1 L137.6,209.3 L137.5,209.5 L137.4,209.7 L137.2,210.0 L137.1,210.3 L136.7,210.9 L136.6,211.2 L136.6,211.5 L136.6,212.3 L136.7,212.7 L136.7,212.9 L137.1,213.7 L137.1,213.8 L137.1,213.9 L137.0,214.1 L137.0,214.2 L136.9,214.2 L136.8,214.2 L136.7,214.3 L136.2,214.2 L135.8,213.9 L135.7,213.9 L135.6,213.8 L135.6,213.9 L135.5,213.9 L135.4,214.0 L135.1,214.7 L134.8,215.0 L134.5,215.3 L134.3,215.8 L134.2,215.9 L134.1,216.0 L133.9,215.9 L133.9,215.8 L133.8,215.7 L133.9,215.6 L134.0,215.5 L134.3,215.3 L134.5,215.2 L134.6,215.0 L134.8,214.8 L134.9,214.6 L134.9,214.3 L135.0,213.6 L135.1,213.5 L135.2,213.2 L135.3,213.1 L135.5,212.8 L135.6,212.7 L135.6,212.4 L135.5,212.1 L135.0,211.0 L135.0,210.7 L135.0,210.6 L135.1,210.2 L135.3,209.6 L135.4,209.2 L135.5,208.3 L135.5,207.4 L135.5,206.8 L135.4,206.3 L135.2,205.4 L135.2,205.1 L135.2,204.9 L135.2,204.6 L135.7,203.6 L135.8,202.8 L136.1,202.3 L136.1,202.0 L136.1,201.8 L135.9,200.7 L135.8,200.2 L135.7,199.5 L135.6,199.3 L135.4,199.2 L135.1,198.9 L134.9,198.8 L134.9,198.7 L134.8,198.4 L134.8,198.1 L135.0,197.7 L135.1,197.5 L135.1,197.3 L135.0,197.2 L134.7,196.7 L134.7,196.7 L134.6,196.6 L134.6,196.3 L134.7,196.1 L134.8,196.0 L134.9,195.8 L135.1,195.6 L135.2,195.3 L135.4,194.8 L135.5,194.7 L135.5,194.5 L135.5,194.3 L135.4,194.1 L135.2,193.9 L135.1,193.6 L135.0,193.4 L135.1,193.3 L135.2,193.1 L135.5,192.7 L135.5,192.6 L135.6,192.4 L135.6,191.8 L135.6,190.7 L135.6,190.5 L135.7,189.9 L135.7,189.7 L135.7,189.5 L135.6,189.4 L135.5,189.3 L135.1,188.9 L134.7,188.5 L134.6,188.3 L134.5,188.1 L134.6,187.7 L134.7,187.5 L134.8,187.3 L134.9,187.2 L135.4,186.9 L135.5,186.7 L135.6,186.5 L135.7,186.2 L135.6,185.9 L135.6,185.8 L135.5,185.6 L135.2,185.3 L135.1,184.9 L135.0,184.3 L134.9,183.4 L134.9,182.8 L134.9,182.6 L134.9,182.4 L135.0,181.8 L135.1,181.6 L135.1,181.2 L135.1,180.9 L135.4,180.3 L135.4,180.0 L135.5,179.7 L135.6,179.4 L135.7,178.9 L135.7,178.6 L135.6,178.2 L135.4,177.4 L135.4,177.1 L135.3,176.9 L135.2,176.8 L135.1,176.7 L135.0,176.5 L134.9,176.4 L134.8,176.4 L134.8,176.2 L134.7,175.8 L134.7,175.3 L134.7,175.1 L134.8,174.9 L134.9,174.8 L135.2,174.4 L135.3,174.3 L135.3,174.2 L135.3,173.6 L135.4,173.4 L135.4,173.3 L135.5,173.2 L135.6,173.1 L135.8,173.0 L136.0,172.7 L136.0,172.4 L136.1,172.2 L136.1,171.8 L136.1,171.3 L136.2,171.1 L136.2,171.0 L136.1,170.8 L136.0,170.7 L135.9,170.7 L135.6,170.6 L135.6,170.6 L135.5,170.6 L135.5,170.6 L135.5,170.5 L135.5,170.5 L135.5,170.5 L135.4,170.4 L135.4,170.4 L135.4,170.2 L135.5,170.1 L135.6,170.0 L136.3,169.3 L136.5,169.1 L136.5,169.0 L136.5,168.7 L136.3,167.8 L136.3,167.4 L136.3,167.2 L136.4,167.0 L136.6,166.7 L136.7,166.5 L136.8,165.9 L136.8,165.4 L136.7,164.7 L136.7,164.5 L136.5,164.3 L136.4,164.0 L136.2,163.7 L136.2,163.7 L136.0,163.5 L136.0,163.3 L135.9,163.1 L135.8,162.8 L135.8,162.8 L135.8,162.3 L135.9,162.0 L135.9,161.8 L136.4,161.4 L136.5,161.1 L136.6,160.8 L136.9,159.6 L137.0,159.2 L137.0,159.1 L136.9,158.9 L136.9,158.8 L136.7,158.5 L136.6,158.4 L136.4,158.3 L136.3,158.2 L136.3,158.1 L136.2,158.0 L136.2,157.7 L136.3,157.5 L136.5,156.7 L136.6,156.2 L136.7,156.0 L136.7,155.7 L136.6,155.3 L136.6,154.9 L136.3,154.3 L136.2,154.2 L136.2,154.0 L136.2,153.8 L136.2,153.5 L136.3,153.3 L136.4,153.1 L136.7,152.4 L136.8,152.1 L136.8,151.8 L136.8,151.5 L136.8,151.2 L136.8,150.9 L136.8,150.6 L136.8,150.3 L136.7,150.0 L136.7,149.8 L136.6,149.6 L136.6,149.5 L136.6,149.4 L136.6,149.3 L136.5,149.2 L136.4,149.0 L136.2,148.8 L135.9,148.5 L135.9,148.5 L135.8,148.5 L135.8,148.4 L135.7,148.4 L135.7,148.4 L135.6,148.3 L135.5,148.3 L135.2,148.2 L134.9,148.1 L134.7,148.1 L134.6,148.0 L134.5,147.9 L134.2,147.6 L133.6,146.8 L133.3,146.5 L133.2,146.3 L132.9,145.8 L132.6,145.5 L132.6,145.4 L132.4,145.2 L132.0,144.8 L131.9,144.7 L131.8,144.6 L131.6,144.5 L131.1,143.9 L130.9,143.7 L130.7,143.3 L130.6,143.3 L130.4,143.1 L130.1,143.0 L129.8,142.9 L129.3,142.7 L129.2,142.7 L128.9,142.4 L128.7,142.3 L128.4,142.1 L128.1,142.1 L128.0,142.1 L127.9,142.1 L127.6,142.1 L127.3,142.0 L127.1,141.9 L126.8,141.7 L126.5,141.5 L126.4,141.5 L126.1,141.4 L126.0,141.3 L125.9,141.2 L125.8,141.1 L125.7,141.0 L125.7,141.0 L125.7,140.8 L125.7,140.6 L125.7,140.5 L125.7,140.4 L125.6,140.1 L125.5,139.9 L125.6,139.8 L125.9,139.1 L125.9,139.1 L126.1,138.6 L126.4,138.1 L126.8,137.6 L127.4,136.9 L127.5,136.8 L128.0,135.7 L128.2,135.3 L128.3,135.1 L128.8,134.7 L128.9,134.4 L129.3,133.7 L129.5,133.2 L129.8,132.9 L130.3,132.4 L131.0,131.8 L131.2,131.5 L131.8,130.4 L131.9,130.3 L132.0,130.2 L132.4,130.0 L132.9,129.8 L133.1,129.7 L133.9,129.5 L134.2,129.4 L134.6,129.2 L135.2,128.8 L136.0,128.5 L135.9,128.4 L136.0,128.2 L136.0,128.1 L136.2,128.1 L136.4,128.0 L136.5,128.0 L136.7,127.8 L137.0,127.7 L137.2,127.6 L137.3,127.5 L137.6,127.3 L138.0,126.9 L138.2,126.5 L138.5,126.2 L139.0,125.8 L139.2,125.6 L139.3,125.6 L139.3,125.4 L139.3,125.3 L139.5,125.3 L139.7,125.3 L139.8,125.2 L140.0,125.2 L140.0,125.1 L140.0,125.0 L139.9,124.8 L139.9,124.6 L139.9,124.0 L139.9,123.9 L139.9,123.7 L139.6,123.4 L139.6,123.3 L139.6,123.2 L139.8,122.9 L139.8,122.8 L139.8,122.1 L139.8,121.7 L139.8,121.3 L139.9,121.3 L139.9,121.2 L140.0,121.2 L140.1,121.2 L140.2,121.2 L140.4,121.4 L140.5,121.4 L140.5,121.4 L140.6,121.4 L141.0,120.6 L141.5,119.9 L141.5,119.8 L141.5,119.7 L141.1,119.4 L140.9,119.2 L140.8,118.9 L140.7,118.8 L140.7,118.7 L140.5,118.4 L140.4,118.2 L140.3,118.1 L140.0,117.8 L139.5,117.2 L139.3,116.9 L138.9,116.5 L138.7,116.2 L138.3,115.9 L138.1,115.9 L137.8,115.7 L137.6,115.5 L137.3,115.2 L137.2,115.2 L136.8,115.2 L136.5,115.1 L136.2,115.1 L135.7,115.0 L135.4,115.0 L135.2,115.0 L134.9,114.9 L134.7,114.7 L134.4,114.3 L134.4,114.3 L134.3,114.3 L133.6,114.2 L133.1,114.3 L132.8,114.2 L131.9,114.2 L131.7,114.2 L131.4,114.3 L131.3,114.4 L131.0,114.4 L130.8,114.3 L130.6,114.3 L130.4,114.4 L129.7,114.6 L129.4,114.6 L129.0,114.7 L128.8,114.6 L128.5,114.4 L128.4,114.4 L128.1,114.2 L127.9,114.1 L127.8,114.1 L127.6,114.1 L126.3,114.1 L125.4,114.1 L125.1,114.1 L124.9,114.2 L124.8,114.2 L124.6,114.2 L123.7,113.8 L123.2,113.7 L122.8,113.5 L122.6,113.4 L122.3,113.2 L121.6,112.4 L121.5,112.3 L121.4,112.2 L121.2,112.1 L121.0,111.8 L120.9,111.8 L120.5,111.5 L120.3,111.5 L120.0,111.4 L119.8,111.4 L119.3,111.1 L119.2,111.0 L118.8,110.9 L118.3,110.8 L117.7,110.6 L117.6,110.6 L117.3,110.2 L117.0,110.2 L116.9,110.2 L116.5,109.8 L116.2,109.7 L115.6,109.4 L115.2,109.2 L115.0,109.1 L114.6,108.9 L114.5,108.8 L114.1,108.6 L114.0,108.6 L113.0,108.1 L112.7,108.0 L112.5,107.8 L112.4,107.7 L112.3,107.6 L112.1,107.5 L111.6,107.1 L111.1,106.8 L110.8,106.7 L110.3,106.6 L109.6,106.5 L109.5,106.5 L109.2,106.3 L109.0,106.3 L108.8,106.2 L108.6,106.2 L108.5,106.2 L108.4,106.3 L108.3,106.5 L108.0,106.6 L107.8,106.6 L107.4,106.6 L107.3,106.6 L107.1,106.4 L107.1,106.2 L107.0,105.8 L106.9,105.6 L106.8,105.4 L106.5,105.2 L106.4,105.0 L106.3,104.9 L106.3,104.8 L106.3,104.6 L106.2,104.4 L106.1,104.3 L105.9,104.0 L105.7,103.9 L105.6,103.7 L105.5,103.6 L105.3,103.4 L105.2,103.3 L105.2,103.2 L105.1,103.1 L105.0,102.9 L105.0,102.8 L104.8,102.9 L104.8,102.7 L104.8,102.5 L104.5,101.9 L104.3,101.7 L104.1,101.4 L103.2,100.6 L103.1,100.4 L102.8,99.8 L102.7,99.7 L102.6,99.6 L102.2,99.4 L102.1,99.3 L102.1,99.1 L102.1,99.0 L102.1,98.5 L102.0,98.3 L101.8,97.7 L101.5,97.3 L101.4,97.0 L101.1,96.6 L100.3,95.9 L100.1,95.6 L99.9,95.3 L99.7,95.0 L99.4,94.4 L98.9,93.7 L98.3,93.1 L97.5,92.2 L97.4,92.1 L95.9,89.9 L95.8,89.9 L95.8,89.9 L95.7,89.7 L95.6,89.4 L95.2,88.4 L95.2,88.2 L95.1,87.6 L95.1,87.6 L95.1,87.5 L95.1,87.5 L95.1,87.4 L95.1,86.8 L95.0,85.9 L95.0,85.6 L95.0,85.3 L94.9,85.1 L94.9,85.0 L94.9,84.9 L94.9,84.8 L94.9,84.4 L95.0,84.2 L95.1,83.8 L95.2,83.6 L95.3,83.3 L95.3,83.2 L96.0,83.4 L96.5,83.5 L96.7,83.5 L97.1,83.6 L97.3,83.7 L97.4,83.8 L97.5,83.9 L97.6,83.8 L97.8,83.8 L98.0,83.9 L98.1,83.9 L98.2,83.9 L98.3,83.8 L98.4,83.6 L98.5,83.1 L98.7,83.1 L98.8,83.2 L98.9,83.2 L98.8,83.7 L99.2,83.7 L99.8,83.7 L100.2,83.6 L101.2,83.4 L102.7,83.1 L104.0,82.7 L104.8,82.7 L105.6,82.6 L105.7,82.5 L107.5,81.6 L107.6,81.5 L107.6,81.5 L107.3,80.8 L107.3,80.7 L107.9,80.6 L108.0,79.3 L108.0,79.0 L107.9,78.7 L107.8,78.1 L107.7,78.0 L107.4,77.5 L107.3,77.3 L107.2,77.1 L107.2,77.1 L107.2,76.7 L107.1,76.6 L107.3,76.5 L107.6,76.3 L107.8,76.2 L108.2,75.7 L108.5,75.6 L108.8,75.6 L109.2,75.5 L109.4,75.5 L109.5,75.5 L109.8,75.5 L110.0,75.6 L110.2,75.7 L110.4,75.8 L110.5,75.8 L110.6,75.9 L110.9,76.0 L111.1,76.1 L111.4,76.3 L111.6,76.3 L111.8,76.3 L111.8,76.3 L113.3,76.3 L113.7,76.3 L114.1,76.2 L114.5,76.1 L114.8,75.9 L115.1,75.7 L115.1,75.6 L115.2,75.4 L115.3,74.9 L115.3,74.7 L115.4,74.6 L115.4,74.5 L115.5,74.5 L115.5,74.4 L115.8,74.2 L116.1,73.9 L116.3,73.4 L116.3,73.0 L116.2,72.5 L116.1,72.1 L116.0,71.7 L116.0,70.9 L116.1,70.4 L116.0,70.2 L116.0,69.9 L116.0,69.6 L116.0,68.8 L116.1,68.4 L116.2,68.0 L116.2,67.5 L116.4,67.3 L116.5,67.0 L116.6,66.8 L116.5,66.7 L116.4,66.3 L116.3,66.0 L116.4,65.6 L116.4,65.3 L116.6,64.6 L116.7,64.5 L116.7,64.3 L116.8,64.1 L116.8,63.2 L116.8,63.1 L116.5,62.3 L116.0,61.8 L115.6,61.3 L115.4,61.1 L115.4,60.9 L115.2,60.3 L114.8,58.9 L114.7,58.8 L114.6,58.6 L114.0,56.5 L113.9,56.3 L113.4,55.7 L112.8,55.2 L112.5,55.1 L112.4,54.9 L112.1,54.1 L112.0,53.6 L111.9,53.2 L111.8,53.0 L111.5,52.5 L111.1,52.2 L110.8,51.8 L110.6,51.4 L110.5,51.1 L110.4,51.0 L110.2,51.0 L109.2,50.1 L109.0,49.8 L108.9,49.6 L108.9,49.1 L108.8,48.5 L108.7,48.4 L108.4,47.9 L108.4,47.8 L108.4,47.7 L108.4,47.6 L108.7,47.2 L108.9,46.7 L108.9,46.6 L108.9,46.4 L108.9,46.2 L108.9,46.1 L109.1,45.2 L109.2,44.8 L109.2,44.7 L109.1,44.4 L108.9,43.7 L108.9,43.5 L109.0,43.3 L109.6,42.3 L109.9,41.9 L110.1,41.6 L110.3,41.2 L110.4,41.2 L110.5,41.2 L110.5,41.2 L110.5,41.3 L110.6,41.3 L110.7,41.5 L110.7,41.6 L110.8,41.6 L111.0,41.6 L111.0,41.7 L111.1,41.7 L111.0,41.9 L111.0,42.0 L111.1,42.1 L111.3,42.3 L111.7,42.4 L111.8,42.5 L111.9,42.6 L112.0,42.9 L112.1,43.0 L112.1,43.0 L112.2,43.0 L112.2,42.4 L112.1,42.3 L112.1,42.0 L113.2,41.6 L113.3,41.4 L113.2,41.2 L113.0,41.0 L112.7,40.7 L112.6,40.3 L112.4,40.0 L112.4,39.7 L112.5,39.2 L112.5,39.0 L112.5,38.8 L112.0,38.4 L112.0,38.3 L112.0,37.8 L111.7,37.4 L111.7,37.2 L111.5,36.8 L111.2,36.1 L111.3,36.1 L111.6,36.0 L112.0,35.8 L113.1,35.6 L113.6,35.1 L113.8,34.9 L114.1,34.8 L114.2,34.7 L114.3,34.4 L114.3,34.2 L114.4,33.9 L114.4,33.3 L114.4,32.7 L114.3,32.4 L114.3,32.2 L114.3,31.7 L114.4,31.3 L114.3,31.1 L114.3,31.0 L114.3,30.7 L114.4,30.5 L114.9,30.2 L115.1,30.1 L115.4,29.7 L115.4,29.7 L115.7,29.5 L116.0,29.4 L116.6,29.3 L116.7,29.2 L117.1,29.2 L117.2,29.3 L117.6,29.5 L117.7,29.5 L117.8,29.5 L117.9,29.5 L117.9,29.4 L118.0,29.1 L118.0,28.7 L117.9,28.5 L117.7,28.3 L116.9,27.5 L116.7,27.4 L116.5,27.2 L116.3,27.2 L116.2,27.1 L116.0,27.0 L115.8,26.9 L115.7,26.9 L115.6,26.6 L115.6,26.5 L115.7,26.4 L115.9,26.2 L116.1,26.2 L116.8,26.0 L117.4,25.8 L118.4,25.6 L118.6,25.5 L118.7,25.5 L118.7,25.4 L118.9,25.4 L119.7,26.0 L119.9,25.9 L120.2,25.8 L120.7,25.8 L121.2,25.9 L121.5,26.0 L121.8,26.1 L122.3,26.6 L122.4,26.7 L122.4,26.8 L122.4,27.3 L122.5,27.6 L122.6,27.9 L122.8,28.0 L122.8,28.0 L122.9,28.0 L122.9,27.8 L123.1,27.5 L123.2,27.4 L123.3,27.3 L124.1,27.0 L124.4,26.9 L124.5,26.9 L124.6,27.0 L124.9,27.1 L125.0,27.1 L125.1,27.1 L125.2,27.0 L125.4,26.7 L125.6,26.5 L125.7,26.4 L125.7,26.2 L125.7,25.8 L125.7,25.6 L125.8,25.2 L125.9,25.0 L126.1,24.9 L126.2,24.9 L126.3,24.9 L126.6,24.8 L126.8,24.8 L127.1,24.7 L127.5,25.2 L127.7,25.5 L128.2,25.6 L128.3,25.7 L128.4,25.9 L128.4,26.2 L128.4,26.5 L128.5,27.2 L128.6,27.3 L128.7,27.5 L129.0,27.8 L129.2,27.8 L129.5,27.8 L129.9,27.7 L130.1,27.6 L130.8,27.5 L131.6,27.1 L131.8,27.0 L132.0,26.9 L132.4,26.4 L132.7,26.1 L133.8,24.7 L134.5,24.1 L134.7,23.8 L135.2,23.1 L135.3,22.3 L135.4,22.3 L135.5,22.2 L135.7,22.2 L136.0,22.0 L136.3,21.8 L136.4,21.8 L136.7,21.7 L136.7,21.7 L136.8,21.7 L136.9,21.7 L137.0,21.9 L137.1,22.0 L137.3,22.5 L137.4,22.7 L137.4,22.8 L137.8,22.9 L138.2,23.0 L138.4,23.0 L138.9,22.5 L139.1,22.3 L139.4,22.2 L139.6,22.1 L139.8,21.9 L139.8,21.7 L139.9,21.6 L139.7,19.9 L139.7,19.0 L139.8,18.4 L139.9,17.9 L140.0,17.6 L140.2,17.3 L140.6,16.8 L140.9,16.6 L141.2,16.5 L141.5,16.5 L141.8,16.4 L142.0,16.5 L142.4,16.6 L142.6,16.6 L143.0,16.7 L143.2,16.6 L143.6,16.6 L143.8,15.8 L143.9,15.4 L143.9,15.2 L143.9,14.8 L143.9,14.6 L143.9,14.3 L144.3,13.6 L145.5,12.6 L146.2,12.3 L146.7,12.1 L146.9,12.0 L147.1,12.0 L147.3,12.0 L147.8,12.2 L148.1,12.3 L148.3,12.5 L148.3,12.6 L148.2,13.0 L148.1,13.3 L148.0,13.5 L147.8,13.7 L147.8,13.9 L147.8,14.0 L147.9,14.1 L148.1,14.2 L148.7,14.6 L148.9,14.6 L150.0,14.7 L150.1,14.7 L150.2,14.6 L150.2,14.5 L150.1,14.1 L150.1,13.8 L150.1,13.6 L150.0,13.5 L150.0,13.3 L150.1,13.0 L150.3,12.6 L150.3,12.4 L150.2,12.1 L150.2,12.0 L150.3,11.8 L150.5,11.7 L151.0,12.0 L151.2,12.0 L151.3,12.2 L151.5,12.3 L151.8,12.4 L151.9,12.4 L152.3,12.5 L152.6,12.5 L152.9,12.5 L153.3,12.4 L154.0,12.6 L154.4,12.6 L154.6,12.5 L154.8,12.4 L155.0,12.3 L155.2,12.4 L155.3,12.5 L155.2,12.6 L155.1,12.7 L154.9,12.9 L154.5,13.2 L154.3,13.3 L154.1,13.3 L153.9,13.4 L153.3,13.5 L153.3,13.5 L153.2,13.6 L153.2,13.7 L153.3,13.8 L153.4,13.8 L153.5,13.8 L154.0,13.9 L154.5,13.8 L154.8,13.8 L155.1,13.7 L155.7,13.4 L156.4,13.4 L156.6,13.4 L157.3,13.3 L157.4,13.3 L157.5,13.3 L157.8,13.6 L158.3,13.8 L158.7,14.1 L159.0,14.1 L159.5,14.1 L159.6,14.1 L159.8,14.1 L160.1,14.3 L160.6,14.7 L160.6,14.8 L160.9,15.1 L161.4,15.4 L161.7,15.7 L162.0,15.8 L162.7,16.0 L163.1,16.2 L163.4,16.5 L163.5,16.6 L163.7,16.9 L164.2,17.1 L164.8,17.3 L165.4,17.6 L166.4,17.8 L166.6,17.9 L166.8,18.2 L167.0,18.3 L167.1,18.4 L167.3,18.5 L168.4,19.3 L169.3,19.7 L169.3,19.7 L169.6,19.6 L169.7,19.6 L170.3,19.7 L170.7,19.8 L170.8,19.8 L170.9,19.8 L170.9,19.8 L170.9,19.8 L171.2,20.1 L171.3,20.3 L171.3,20.4 L171.3,20.6 L171.4,20.7 L171.7,21.1 L172.2,21.8 L172.2,21.9 L172.3,22.2 L172.3,22.4 L172.2,22.7 L172.3,22.9 L172.4,23.1 L172.5,23.2 L172.6,23.4 L172.8,23.6 L173.1,23.8 L173.2,23.9 L173.2,24.0 L173.3,24.3 L173.3,24.5 L173.4,24.7 L173.7,25.2 L173.8,25.3 L174.2,25.7 L174.3,25.7 L174.3,25.9 L174.4,26.0 L174.5,26.0 L174.9,26.1 L175.2,26.2 L175.6,26.2 L175.8,26.2 L176.0,26.2 L176.2,26.1 L176.4,26.0 L176.7,25.8 L176.8,25.7 L177.0,25.4 L177.1,25.2 L177.5,24.5 L177.6,24.4 L178.1,24.4 L178.2,24.3 L178.3,24.2 L178.6,24.0 L178.9,23.5 L179.5,22.9 L179.8,22.5 L180.0,22.3 L180.4,22.1 L180.8,22.1 L180.9,22.0 L181.1,21.9 L181.5,21.4 L182.0,21.0 L182.2,20.8 L182.4,20.5 L182.5,20.3 L182.6,20.0 L183.6,18.9 L183.7,18.8 L183.9,18.5 L184.0,18.4 L184.1,18.2 L184.3,18.1 L184.6,18.0 L184.9,18.0 L185.2,17.9 L185.5,17.8 L185.9,17.5 L186.1,17.4 L186.2,17.4 L186.5,17.4 L186.7,17.4 L187.4,17.6 L187.5,17.6 L187.6,17.6 L188.0,17.7 L188.6,17.9 L188.8,17.9 L189.0,17.9 L189.3,17.8 L190.5,17.5 L190.7,17.5 L191.0,17.3 L191.4,16.9 L192.2,16.2 L192.6,15.9 L192.9,15.7 L193.5,15.4 L193.9,15.3 L194.0,15.2 L194.1,15.1 L194.6,14.5 L194.8,14.3 L195.0,14.2 L195.2,14.1 L195.5,14.1 L196.0,14.1 L196.2,14.1 L196.9,14.2 L197.3,14.1 L197.5,14.1 L197.7,13.9 L197.8,13.8 L198.1,13.2 L198.3,13.0 L198.4,13.0 L198.4,13.0 L198.7,12.8 L199.7,12.2 L199.7,12.2 L199.8,12.1 L199.9,12.1 L200.6,11.6 L200.8,11.5 L201.0,11.3 L202.1,10.1 L202.1,10.0" fill="transparent" id="track" stroke="black" stroke-width="2"/>
<g>
<circle cx="305.015" cy="389.927" fill="Gray" id="wp-0/circle" r="5.000"/>
<text font-size="16.0" id="wp-40/text" text-anchor="start" x="309.710" y="397.927">
Bräunlingen
</text>
<circle cx="292.566" cy="356.100" fill="Gray" id="wp-1/circle" r="2.000"/>
<text font-size="16.0" id="wp-85/text" text-anchor="start" x="291.345" y="349.100">
Wolterdingen
</text>
<circle cx="299.068" cy="370.716" fill="Gray" id="wp-2/circle" r="2.000"/>
<text font-size="16.0" id="wp-87/text" text-anchor="start" x="304.773" y="373.716">
Bruggen
</text>
<circle cx="332.918" cy="369.488" fill="Gray" id="wp-3/circle" r="5.000"/>
<text font-size="16.0" id="wp-91/text" text-anchor="end" x="310.918" y="347.488">
Donaueschingen
</text>
<circle cx="239.099" cy="327.871" fill="Red" id="wp-4/circle" r="3.000"/>
<text font-size="16.0" id="wp-133/text" text-anchor="start" x="156.594" y="345.871">
Geschwend
</text>
<circle cx="143.976" cy="249.467" fill="Red" id="wp-5/circle" r="3.000"/>
<text font-size="16.0" id="wp-174/text" text-anchor="start" x="74.071" y="267.467">
Katzenbühl
</text>
<circle cx="163.760" cy="283.800" fill="Gray" id="wp-6/circle" r="5.000"/>
<text font-size="16.0" id="wp-177/text" text-anchor="start" x="161.728" y="301.800">
Furtwangen
</text>
<circle cx="331.180" cy="273.334" fill="Gray" id="wp-7/circle" r="5.000"/>
<text font-size="16.0" id="wp-202/text" text-anchor="start" x="207.085" y="266.334">
Villingen-Schwenningen
</text>
<circle cx="157.966" cy="203.488" fill="Gray" id="wp-8/circle" r="2.000"/>
<text font-size="16.0" id="wp-230/text" text-anchor="start" x="161.818" y="216.488">
Schonach im Schwarzwald
</text>
<circle cx="146.017" cy="208.462" fill="Red" id="wp-9/circle" r="3.000"/>
<text font-size="16.0" id="wp-235/text" text-anchor="start" x="155.374" y="196.462">
Gitschbühl
</text>
<circle cx="136.729" cy="218.317" fill="Red" id="wp-10/circle" r="3.000"/>
<text font-size="16.0" id="wp-237/text" text-anchor="start" x="50.150" y="236.317">
Ochsenberg
</text>
<circle cx="148.610" cy="215.529" fill="Red" id="wp-11/circle" r="3.000"/>
<text font-size="16.0" id="wp-238/text" text-anchor="start" x="149.988" y="233.529">
Blindenhöhe
</text>
<circle cx="143.014" cy="204.959" fill="Red" id="wp-12/circle" r="3.000"/>
<text font-size="16.0" id="wp-239/text" text-anchor="end" x="131.014" y="202.959">
Rotenberg
</text>
<circle cx="178.353" cy="214.832" fill="Gray" id="wp-13/circle" r="5.000"/>
<text font-size="16.0" id="wp-241/text" text-anchor="end" x="156.353" y="192.832">
Triberg
</text>
<circle cx="237.419" cy="218.378" fill="Gray" id="wp-14/circle" r="5.000"/>
<text font-size="16.0" id="wp-259/text" text-anchor="start" x="232.356" y="236.378">
St. Georgen
</text>
<circle cx="84.307" cy="174.477" fill="Gray" id="wp-15/circle" r="5.000"/>
<text font-size="16.0" id="wp-273/text" text-anchor="end" x="62.307" y="152.477">
Elzach
</text>
<circle cx="125.394" cy="140.559" fill="Gray" id="wp-16/circle" r="2.000"/>
<text font-size="16.0" id="wp-356/text" text-anchor="start" x="32.941" y="168.559">
Oberprechtal
</text>
<circle cx="125.503" cy="132.734" fill="Red" id="wp-17/circle" r="3.000"/>
<text font-size="16.0" id="wp-367/text" text-anchor="start" x="18.745" y="150.734">
Schulmathisbühl
</text>
<circle cx="132.850" cy="128.105" fill="Red" id="wp-18/circle" r="3.000"/>
<text font-size="16.0" id="wp-378/text" text-anchor="start" x="138.345" y="146.105">
Landwassereck
</text>
<circle cx="137.983" cy="118.558" fill="Red" id="wp-19/circle" r="3.000"/>
<text font-size="16.0" id="wp-384/text" text-anchor="start" x="127.183" y="111.558">
Haldenberg
</text>
<circle cx="177.981" cy="141.837" fill="Gray" id="wp-20/circle" r="5.000"/>
<text font-size="16.0" id="wp-387/text" text-anchor="start" x="178.002" y="164.837">
Hornberg
</text>
<circle cx="268.016" cy="130.718" fill="Gray" id="wp-21/circle" r="5.000"/>
<text font-size="16.0" id="wp-430/text" text-anchor="start" x="262.195" y="148.718">
Schramberg
</text>
<circle cx="93.286" cy="85.444" fill="Gray" id="wp-22/circle" r="5.000"/>
<text font-size="16.0" id="wp-453/text" text-anchor="start" x="113.844" y="93.444">
Haslach im Kinzigtal
</text>
<circle cx="107.513" cy="75.836" fill="Gray" id="wp-23/circle" r="2.000"/>
<text font-size="16.0" id="wp-458/text" text-anchor="start" x="22.166" y="68.836">
Fischerbach
</text>
<circle cx="107.015" cy="105.578" fill="Gray" id="wp-24/circle" r="2.000"/>
<text font-size="16.0" id="wp-459/text" text-anchor="start" x="30.668" y="123.578">
Mühlenbach
</text>
<circle cx="144.763" cy="79.516" fill="Gray" id="wp-25/circle" r="5.000"/>
<text font-size="16.0" id="wp-462/text" text-anchor="start" x="124.047" y="72.516">
Hausach
</text>
<circle cx="172.689" cy="66.340" fill="Gray" id="wp-26/circle" r="5.000"/>
<text font-size="16.0" id="wp-472/text" text-anchor="start" x="188.604" y="69.340">
Wolfach
</text>
<circle cx="243.639" cy="73.748" fill="Gray" id="wp-27/circle" r="5.000"/>
<text font-size="16.0" id="wp-492/text" text-anchor="start" x="245.176" y="66.748">
Schiltach
</text>
<circle cx="80.489" cy="22.584" fill="Gray" id="wp-28/circle" r="5.000"/>
<text font-size="16.0" id="wp-524/text" text-anchor="end" x="58.489" y="0.584">
Zell am Harmersbach
</text>
<circle cx="132.438" cy="31.069" fill="Red" id="wp-29/circle" r="3.000"/>
<text font-size="16.0" id="wp-531/text" text-anchor="start" x="42.354" y="19.069">
Brandenkopf
</text>
<circle cx="174.624" cy="25.440" fill="Gray" id="wp-30/circle" r="2.000"/>
<text font-size="16.0" id="wp-541/text" text-anchor="start" x="194.277" y="48.440">
Walke
</text>
<circle cx="179.285" cy="27.468" fill="Red" id="wp-31/circle" r="3.000"/>
<text font-size="16.0" id="wp-546/text" text-anchor="start" x="193.464" y="30.468">
Webersköpfle
</text>
<circle cx="154.904" cy="17.357" fill="Red" id="wp-32/circle" r="3.000"/>
<text font-size="16.0" id="wp-623/text" text-anchor="end" x="137.904" y="15.357">
Wintereck
</text>
<circle cx="142.101" cy="20.088" fill="Red" id="wp-33/circle" r="3.000"/>
<text font-size="16.0" id="wp-624/text" text-anchor="end" x="135.101" y="18.088">
Reiherskopf
</text>
<circle cx="168.973" cy="16.686" fill="Red" id="wp-34/circle" r="3.000"/>
<text font-size="16.0" id="wp-637/text" text-anchor="start" x="139.057" y="44.686">
Höllköpfle
</text>
<circle cx="162.818" cy="284.133" fill="Black" id="wp-35/circle" r="4.000"/>
<text font-size="16.0" id="wp-1436/text" text-anchor="start" x="165.207" y="277.133">
K1
</text>
<circle cx="95.304" cy="83.238" fill="Black" id="wp-36/circle" r="4.000"/>
<text font-size="16.0" id="wp-1437/text" text-anchor="end" x="88.304" y="86.238">
K2
</text>
</g>
<g>
<g/>
<g/>
<g/>
<g/>
<g/>
<g/>
<g/>
<g/>
<g/>
<g/>
<g/>
</g>
</svg>