<svg height="400" viewBox="(0, 0, 400, 400)" width="400" xmlns="http://www.w3.org/2000/svg">
<path d="M303.8,390.0 L303.8,389.9 L303.7,389.9 L303.5,389.9 L303.4,389.9 L303.1,389.9 L303.1,389.9 L303.0,389.8 L302.8,389.7 L302.5,389.6 L302.1,389.2 L301.9,389.1 L301.1,388.8 L301.0,388.8 L301.0,388.7 L300.9,388.5 L300.8,388.1 L300.8,387.8 L300.7,387.6 L300.6,387.5 L300.3,387.4 L300.0,387.3 L299.8,387.1 L299.7,386.9 L299.6,386.4 L299.5,386.2 L299.4,386.1 L299.3,385.8 L298.9,385.4 L298.8,385.3 L298.4,384.8 L297.9,384.3 L297.8,384.1 L297.7,383.8 L297.6,383.5 L297.6,383.2 L297.6,382.9 L297.7,382.6 L298.0,382.1 L298.2,381.4 L298.4,380.9 L298.4,380.6 L298.6,379.8 L298.7,379.6 L298.4,379.3 L298.3,379.1 L298.1,378.6 L297.9,378.1 L297.9,377.7 L297.4,374.1 L297.2,371.9 L297.1,371.0 L297.0,370.5 L296.9,369.5 L296.9,369.4 L296.9,369.3 L296.8,368.9 L296.5,368.1 L294.6,365.2 L294.5,365.2 L294.4,365.2 L293.9,364.8 L293.8,364.7 L293.3,364.0 L292.4,362.9 L292.1,362.6 L291.9,362.4 L291.8,362.2 L291.6,361.7 L291.5,361.6 L291.0,360.8 L290.8,360.3 L290.7,360.3 L290.7,360.2 L290.6,360.1 L290.7,360.0 L290.8,359.5 L290.8,359.4 L290.8,359.3 L290.8,359.2 L290.8,358.6 L290.8,358.5 L290.7,358.5 L290.6,358.5 L290.4,358.4 L290.3,358.2 L289.9,357.7 L289.5,357.2 L289.1,356.6 L288.9,356.5 L288.8,356.5 L288.5,356.6 L288.4,356.6 L288.2,356.5 L288.1,356.5 L287.5,355.8 L287.1,355.4 L287.0,355.3 L286.7,355.1 L286.4,355.0 L286.0,354.8 L285.4,354.7 L285.1,354.5 L285.0,354.4 L284.8,354.2 L284.6,354.0 L284.4,353.7 L284.3,353.6 L284.1,353.3 L283.9,353.1 L283.8,352.9 L283.8,352.7 L283.8,352.3 L283.8,352.2 L283.8,351.8 L283.8,351.7 L283.9,351.7 L284.0,351.6 L284.1,351.6 L284.2,351.5 L284.2,351.5 L284.4,351.3 L284.5,351.2 L284.2,351.0 L283.9,350.9 L283.5,350.9 L283.2,350.9 L283.0,350.9 L282.8,350.9 L282.5,351.0 L282.2,351.2 L281.2,351.8 L280.9,352.0 L280.6,352.1 L280.3,352.2 L279.4,352.2 L279.2,352.2 L278.8,352.2 L278.5,352.2 L278.2,352.1 L277.9,352.0 L275.4,350.6 L274.4,350.0 L273.4,349.6 L272.5,349.2 L272.0,349.0 L271.5,348.6 L271.2,348.2 L270.8,347.6 L270.6,347.1 L270.5,346.6 L270.4,346.3 L270.3,346.0 L270.0,345.7 L269.8,345.5 L269.6,345.4 L268.6,344.9 L268.0,344.6 L267.3,344.1 L266.4,343.2 L265.9,342.7 L265.4,341.9 L265.3,340.2 L265.1,339.6 L264.8,339.0 L264.4,338.6 L263.5,338.2 L262.9,338.0 L262.3,337.7 L261.7,337.5 L261.6,337.5 L261.0,337.1 L260.6,336.9 L259.3,336.8 L258.0,336.8 L257.3,336.9 L256.7,336.9 L256.3,336.9 L256.1,336.9 L255.8,336.7 L255.5,336.5 L255.2,336.1 L254.7,335.7 L254.4,335.6 L254.3,335.6 L254.0,335.7 L253.6,335.8 L252.9,336.4 L252.7,336.6 L252.4,336.9 L251.8,337.5 L251.6,337.7 L251.4,337.8 L251.2,337.9 L251.0,337.9 L250.8,337.9 L250.5,337.8 L248.4,336.6 L248.0,336.4 L247.9,336.3 L247.8,336.1 L247.7,335.9 L247.5,335.3 L247.4,335.0 L247.3,334.8 L247.2,334.6 L246.9,334.4 L246.7,334.3 L245.9,333.7 L245.1,333.1 L244.9,333.0 L244.6,332.9 L244.2,332.8 L243.2,332.6 L242.8,332.5 L242.0,332.3 L240.2,332.0 L239.7,331.9 L239.3,331.6 L238.9,331.3 L238.6,331.0 L238.2,330.8 L238.1,330.7 L236.3,330.0 L235.6,329.6 L235.3,329.4 L235.1,329.3 L234.8,329.1 L234.7,329.0 L234.6,329.0 L234.6,329.0 L234.5,328.8 L234.5,328.8 L234.3,328.5 L234.0,328.1 L233.7,327.6 L233.7,327.3 L233.7,327.0 L233.9,326.4 L234.0,326.1 L234.0,325.9 L234.0,325.7 L234.0,325.3 L233.9,324.7 L233.8,324.5 L233.7,324.2 L233.6,323.9 L233.0,323.5 L232.9,323.3 L232.8,323.1 L232.8,322.4 L232.8,322.2 L232.6,321.8 L232.4,321.5 L232.4,321.5 L232.3,321.4 L232.1,321.2 L231.0,320.4 L230.6,320.1 L230.4,319.9 L230.1,319.6 L230.0,319.4 L229.8,319.0 L229.7,318.7 L229.3,317.3 L228.9,315.8 L228.8,315.2 L228.6,315.3 L228.4,315.3 L228.2,315.3 L228.1,315.3 L227.8,315.3 L225.7,315.4 L225.6,315.4 L225.2,315.3 L224.8,315.1 L224.4,315.1 L224.0,315.1 L223.8,315.1 L223.1,314.8 L222.8,314.8 L222.7,314.7 L222.5,314.5 L221.8,314.2 L221.7,314.2 L221.2,313.9 L220.8,313.8 L220.6,313.8 L220.1,313.8 L220.0,313.8 L219.8,313.7 L219.4,313.6 L219.3,313.5 L219.0,313.3 L218.6,313.1 L218.3,312.9 L218.2,312.9 L217.3,312.3 L216.9,312.2 L216.4,312.1 L215.6,311.7 L215.5,311.7 L215.1,311.6 L214.4,311.5 L214.2,311.5 L214.1,311.5 L214.0,311.4 L213.9,311.3 L213.9,311.2 L213.9,310.9 L213.9,310.8 L213.8,310.8 L213.7,310.7 L213.5,310.8 L213.4,310.9 L213.4,310.9 L213.2,311.4 L213.1,311.5 L213.0,311.5 L212.8,311.6 L212.6,311.6 L212.4,311.5 L212.1,311.5 L211.9,311.4 L211.3,311.2 L210.8,310.9 L210.6,310.8 L209.3,310.3 L208.5,309.9 L208.1,309.8 L207.8,309.7 L207.5,309.6 L206.6,309.5 L206.0,309.4 L205.8,309.3 L205.5,309.1 L204.8,308.6 L204.6,308.4 L204.5,308.4 L203.8,308.3 L203.1,308.2 L202.7,308.1 L202.6,308.1 L202.2,308.2 L202.1,308.2 L201.8,308.2 L201.3,308.1 L200.3,307.9 L200.0,307.9 L199.2,307.8 L199.1,307.8 L199.0,307.8 L198.3,307.4 L198.0,307.3 L197.6,307.0 L197.6,306.9 L197.5,306.9 L197.4,306.7 L197.3,306.7 L196.9,306.6 L196.5,306.5 L196.0,306.4 L195.6,306.2 L195.3,306.3 L194.5,306.2 L194.2,306.2 L193.9,306.2 L193.5,306.1 L193.3,306.1 L192.9,305.9 L192.8,305.9 L192.6,305.8 L192.2,305.9 L191.8,306.0 L191.6,306.1 L191.3,306.3 L191.2,306.3 L190.8,306.3 L189.9,306.5 L189.7,306.5 L189.0,306.4 L188.8,306.4 L187.5,306.5 L186.8,306.5 L186.0,306.4 L185.8,306.3 L185.6,306.3 L185.4,306.2 L184.9,305.9 L184.7,305.8 L184.4,305.8 L183.6,305.7 L182.7,305.8 L182.2,305.8 L181.9,305.8 L181.5,306.1 L181.2,306.2 L181.0,306.3 L180.4,306.3 L179.9,306.4 L179.5,306.5 L179.1,306.4 L178.6,306.3 L177.8,306.0 L177.7,306.0 L177.5,306.0 L177.1,306.0 L176.7,305.9 L176.6,305.8 L176.4,305.6 L175.8,305.3 L175.0,304.8 L174.9,304.6 L174.6,304.3 L174.6,304.2 L174.5,304.1 L174.4,304.1 L174.1,304.0 L173.4,303.7 L173.2,303.6 L173.0,303.7 L172.9,303.8 L172.9,303.9 L172.9,304.0 L172.9,304.1 L172.9,304.2 L173.0,304.3 L173.4,304.5 L173.5,304.6 L173.5,304.7 L173.5,305.0 L173.6,305.2 L173.8,305.3 L173.8,305.4 L173.8,305.5 L173.8,305.6 L173.7,305.8 L173.6,306.2 L173.6,306.3 L173.5,306.4 L173.4,306.4 L172.3,307.1 L171.9,307.2 L171.4,307.4 L170.8,307.5 L170.5,307.5 L170.2,307.5 L170.0,307.4 L169.7,307.3 L169.2,307.2 L169.0,307.2 L168.1,306.8 L167.7,306.6 L167.3,306.4 L166.8,306.3 L165.8,306.0 L165.4,305.9 L165.0,305.9 L164.6,306.0 L164.3,306.1 L162.7,306.8 L161.8,307.1 L161.5,307.1 L161.3,307.1 L160.9,306.9 L160.5,306.6 L160.3,306.4 L160.1,306.1 L160.0,305.8 L159.9,305.7 L159.6,305.4 L158.8,304.3 L158.6,304.1 L158.3,303.3 L158.0,302.8 L158.0,302.7 L157.9,301.6 L157.7,300.9 L157.6,300.5 L157.2,299.7 L156.7,298.9 L156.5,298.6 L156.0,297.9 L155.9,297.7 L155.9,297.5 L155.7,296.8 L155.7,296.6 L155.7,296.5 L155.6,296.4 L155.4,296.1 L154.8,295.2 L153.7,293.6 L153.3,293.1 L153.2,293.1 L153.2,293.0 L153.0,292.8 L153.0,292.7 L152.9,292.4 L152.9,292.2 L153.0,290.6 L153.1,290.4 L153.2,290.0 L153.7,289.1 L153.7,288.9 L153.7,288.8 L153.6,288.6 L153.6,288.5 L153.6,288.4 L153.5,288.1 L153.5,288.0 L153.6,287.9 L153.7,287.9 L153.8,287.9 L153.8,287.9 L153.9,287.9 L154.0,287.9 L154.1,287.9 L154.3,287.9 L154.8,287.9 L155.4,287.8 L155.4,287.8 L156.0,287.7 L156.2,287.6 L156.3,287.5 L156.4,287.5 L156.5,287.3 L156.7,287.1 L156.7,287.1 L156.7,287.1 L156.8,286.9 L156.8,286.9 L156.9,286.8 L157.0,286.7 L157.0,286.5 L157.1,286.4 L157.1,286.3 L157.4,285.9 L157.7,285.6 L157.8,285.4 L158.0,285.3 L158.1,285.2 L158.4,285.0 L158.6,284.9 L158.9,284.8 L158.9,284.8 L159.0,284.7 L159.1,284.7 L159.2,284.7 L159.5,284.7 L159.6,284.6 L159.7,284.6 L159.7,284.6 L159.8,284.6 L160.1,284.4 L160.5,284.0 L160.6,283.9 L160.8,283.8 L161.2,283.5 L161.4,283.4 L161.7,283.1 L161.9,283.0 L161.9,282.9 L161.9,282.8 L161.9,282.6 L161.8,282.2 L161.6,281.9 L161.0,281.1 L161.1,281.0 L161.2,281.0 L161.4,280.9 L161.5,280.9 L161.7,280.8 L161.7,280.7 L161.6,280.5 L161.6,280.4 L161.6,280.4 L161.5,280.2 L161.5,280.1 L161.5,280.0 L161.4,280.0 L161.3,279.5 L161.2,279.3 L160.9,279.4 L160.6,279.5 L160.3,279.5 L160.4,279.7 L160.4,280.0 L160.4,280.0 L160.7,280.6 L161.1,280.4 L161.5,280.2 L161.5,280.1 L161.5,280.0 L161.4,280.0 L161.3,279.5 L161.2,279.3 L160.9,278.4 L160.6,278.5 L160.3,278.6 L160.3,279.0 L160.3,279.5 L160.4,279.7 L160.4,280.0 L160.4,280.0 L160.7,280.6 L161.1,280.4 L161.5,280.2 L161.5,280.1 L161.5,280.0 L161.4,280.0 L161.3,279.5 L161.2,279.3 L160.9,278.4 L160.6,278.5 L160.3,278.6 L160.3,278.2 L160.1,278.2 L160.0,278.1 L160.0,278.0 L159.8,277.7 L159.7,277.5 L159.6,277.5 L159.2,277.2 L159.1,277.1 L159.0,277.0 L158.7,276.3 L158.5,276.1 L158.1,275.7 L157.8,275.3 L157.7,275.1 L156.9,274.0 L156.9,274.0 L156.6,273.5 L156.4,273.1 L156.3,272.7 L156.1,272.1 L156.1,271.5 L155.9,270.8 L155.8,270.4 L155.8,270.4 L155.7,270.1 L155.6,269.9 L155.2,269.5 L154.4,268.3 L154.1,267.8 L154.0,267.4 L153.9,266.9 L153.8,266.6 L153.6,266.3 L153.2,266.0 L153.1,265.9 L153.0,265.8 L152.9,265.6 L152.7,265.5 L151.5,263.7 L151.3,263.2 L151.1,262.7 L151.0,262.3 L150.9,262.1 L149.8,259.8 L149.7,259.7 L149.2,258.5 L149.0,257.9 L148.4,255.7 L148.3,255.3 L148.3,255.3 L148.3,255.1 L148.1,254.7 L147.7,254.0 L147.4,253.5 L147.1,253.0 L146.9,252.4 L146.8,252.3 L146.7,252.0 L146.5,251.7 L146.4,251.5 L146.3,251.4 L146.3,251.1 L146.4,250.6 L146.6,250.2 L146.8,249.8 L147.0,249.5 L147.0,249.5 L146.9,249.1 L146.8,248.6 L146.7,248.3 L146.6,248.1 L146.1,247.5 L146.0,247.3 L146.0,247.1 L146.0,246.8 L146.0,246.6 L146.0,246.1 L146.0,245.9 L145.8,245.7 L145.7,245.6 L145.3,245.4 L145.2,245.3 L145.2,245.1 L145.1,244.8 L144.9,244.4 L144.6,243.8 L144.5,243.7 L144.5,243.5 L144.6,243.3 L144.8,243.0 L144.8,242.9 L144.8,242.9 L144.7,242.8 L144.5,242.7 L144.5,242.6 L144.5,242.5 L144.5,242.4 L144.6,241.9 L144.6,241.7 L144.5,241.6 L144.5,241.3 L144.2,240.8 L144.0,240.3 L143.8,239.9 L143.8,239.6 L143.6,239.3 L143.5,239.1 L143.3,239.0 L143.1,238.9 L143.0,238.8 L142.7,238.5 L142.6,238.3 L142.5,238.2 L142.5,238.1 L142.6,237.9 L142.9,237.5 L143.0,237.4 L143.0,237.2 L143.1,236.9 L143.1,236.7 L142.8,235.5 L142.7,234.6 L142.7,234.4 L142.6,233.9 L142.6,233.3 L142.4,232.2 L142.5,231.9 L142.4,231.8 L142.3,231.7 L142.3,231.5 L142.5,231.2 L142.8,230.8 L143.1,230.1 L143.4,229.5 L143.5,229.2 L143.3,228.2 L143.4,227.5 L143.6,227.3 L143.6,227.1 L143.7,226.9 L143.5,226.6 L143.3,226.4 L143.0,226.2 L142.7,226.0 L142.3,225.7 L142.0,225.4 L141.8,225.2 L141.6,224.9 L141.6,224.8 L141.6,224.7 L141.8,224.5 L141.8,224.4 L141.8,224.3 L141.7,224.0 L141.7,223.9 L141.7,223.8 L141.6,223.5 L141.5,223.3 L141.4,223.2 L141.4,223.1 L141.5,222.8 L141.4,222.7 L141.3,222.5 L141.1,222.2 L141.2,221.7 L141.3,221.5 L141.3,221.4 L141.1,221.0 L140.9,220.8 L140.7,220.5 L140.6,220.4 L140.6,220.2 L140.6,219.9 L140.7,219.6 L140.9,219.1 L140.9,219.0 L141.3,218.6 L141.9,218.2 L142.3,217.7 L142.6,217.3 L142.9,217.0 L143.0,216.9 L143.2,216.6 L143.4,216.3 L143.4,216.2 L143.9,215.8 L145.1,214.8 L146.3,214.1 L146.4,214.0 L146.5,213.9 L146.5,213.8 L146.6,213.6 L146.5,212.9 L146.4,212.5 L146.4,212.4 L146.4,212.2 L146.5,211.5 L146.5,211.1 L146.4,210.8 L146.4,210.7 L146.4,210.5 L146.6,210.4 L146.6,210.2 L146.6,210.2 L146.6,210.1 L146.4,209.9 L146.2,209.6 L146.1,209.5 L146.1,209.4 L146.2,209.3 L146.3,209.2 L146.4,209.1 L146.9,208.7 L147.2,208.6 L147.5,208.4 L148.2,207.9 L148.4,207.9 L148.6,207.9 L149.1,207.6 L149.2,207.5 L149.3,207.2 L149.4,207.1 L149.4,206.7 L149.6,206.5 L149.8,206.3 L150.0,206.1 L150.1,205.9 L150.2,205.7 L150.3,205.5 L150.5,205.5 L150.9,205.4 L151.1,205.3 L151.2,205.2 L152.6,203.8 L152.9,203.7 L153.5,203.5 L154.3,203.3 L154.7,203.2 L154.8,203.2 L154.9,203.1 L155.0,203.1 L155.4,202.8 L155.6,202.7 L156.1,202.6 L156.2,202.6 L156.5,202.6 L156.7,202.6 L156.8,202.6 L157.1,202.5 L157.2,202.3 L157.1,202.3 L156.8,201.4 L156.7,201.1 L156.6,200.8 L156.5,200.7 L156.5,200.6 L156.3,200.5 L156.0,200.5 L155.8,200.4 L155.8,200.3 L155.7,199.9 L155.6,199.9 L155.3,199.7 L155.3,199.6 L154.9,199.5 L154.6,199.4 L154.2,199.2 L153.8,199.1 L153.5,198.9 L153.2,198.8 L153.1,198.7 L152.9,198.6 L152.7,198.4 L152.6,198.3 L152.2,198.1 L152.1,198.0 L151.8,197.9 L151.3,197.7 L151.1,197.6 L150.9,197.5 L150.4,197.3 L150.2,197.1 L150.0,196.9 L149.5,196.1 L149.4,195.9 L149.2,195.7 L148.9,195.5 L148.6,195.5 L148.5,195.5 L148.2,195.5 L148.1,195.6 L147.9,195.7 L147.8,195.8 L147.8,195.9 L147.8,196.2 L147.8,196.3 L148.0,196.6 L148.1,196.8 L148.0,196.9 L148.0,197.1 L147.9,197.1 L147.8,197.2 L146.5,197.9 L146.4,198.0 L146.3,198.1 L146.1,198.3 L145.9,198.8 L145.9,198.9 L145.4,199.4 L145.0,199.7 L144.9,199.8 L144.4,200.0 L143.8,200.1 L143.7,200.1 L143.2,200.2 L142.8,200.3 L142.4,200.6 L142.0,200.9 L141.6,201.2 L141.5,201.5 L141.3,201.9 L141.0,202.8 L140.8,203.0 L140.5,203.5 L140.1,203.8 L139.3,204.4 L139.2,204.5 L139.1,204.6 L139.1,204.7 L139.0,204.9 L139.0,204.9 L139.0,205.1 L139.0,205.2 L139.1,205.4 L139.3,205.5 L139.4,205.7 L139.5,205.7 L139.7,205.9 L139.7,206.1 L139.8,206.3 L139.8,206.5 L139.8,206.8 L139.7,206.8 L139.7,206.9 L139.6,207.1 L139.4,207.2 L139.1,207.4 L138.9,207.4 L138.4,207.4 L138.2,207.4 L137.9,207.5 L137.7,207.6 L137.5,207.8 L137.4,208.0 L137.2,208.2 L137.1,208.5 L136.9,208.8 L136.5,209.3 L136.4,209.7 L136.4,210.0 L136.4,210.8 L136.5,211.2 L136.6,211.4 L136.9,212.2 L136.9,212.3 L136.9,212.4 L136.8,212.6 L136.8,212.6 L136.7,212.7 L136.6,212.7 L136.5,212.7 L136.0,212.6 L135.6,212.4 L135.5,212.3 L135.4,212.3 L135.4,212.3 L135.3,212.4 L135.2,212.5 L134.8,213.2 L134.6,213.5 L134.3,213.8 L134.1,214.3 L133.9,214.4 L133.8,214.4 L133.7,214.4 L133.7,214.3 L133.6,214.2 L133.7,214.1 L133.8,213.9 L134.1,213.8 L134.3,213.6 L134.4,213.5 L134.6,213.3 L134.7,213.1 L134.7,212.8 L134.8,212.1 L134.9,211.9 L135.0,211.7 L135.1,211.6 L135.3,211.3 L135.4,211.1 L135.4,210.9 L135.3,210.5 L134.9,209.4 L134.8,209.1 L134.8,209.0 L134.9,208.7 L135.2,208.1 L135.3,207.6 L135.3,206.8 L135.4,205.9 L135.4,205.3 L135.3,204.8 L135.1,203.8 L135.1,203.6 L135.1,203.4 L135.1,203.1 L135.6,202.1 L135.7,201.3 L136.0,200.8 L136.1,200.5 L136.1,200.3 L135.9,199.2 L135.8,198.7 L135.6,198.0 L135.5,197.8 L135.4,197.7 L135.0,197.4 L134.9,197.3 L134.9,197.2 L134.8,196.9 L134.8,196.6 L135.0,196.2 L135.1,196.0 L135.0,195.8 L135.0,195.7 L134.7,195.2 L134.7,195.2 L134.6,195.0 L134.6,194.8 L134.7,194.6 L134.8,194.5 L134.9,194.3 L135.1,194.1 L135.2,193.8 L135.4,193.3 L135.5,193.2 L135.5,193.1 L135.5,192.8 L135.4,192.6 L135.2,192.4 L135.1,192.1 L135.1,191.9 L135.1,191.8 L135.2,191.6 L135.5,191.2 L135.6,191.1 L135.6,190.9 L135.6,190.3 L135.6,189.2 L135.6,189.0 L135.8,188.4 L135.8,188.2 L135.8,188.1 L135.7,187.9 L135.6,187.8 L135.1,187.4 L134.8,187.0 L134.6,186.8 L134.6,186.6 L134.7,186.2 L134.8,186.0 L134.9,185.9 L135.0,185.8 L135.5,185.4 L135.6,185.3 L135.7,185.0 L135.8,184.7 L135.7,184.4 L135.7,184.3 L135.6,184.1 L135.3,183.8 L135.2,183.4 L135.1,182.9 L135.1,182.0 L135.0,181.4 L135.0,181.1 L135.0,180.9 L135.2,180.4 L135.2,180.1 L135.2,179.7 L135.3,179.5 L135.5,178.8 L135.6,178.5 L135.7,178.3 L135.8,178.0 L135.8,177.5 L135.8,177.1 L135.8,176.8 L135.6,176.0 L135.6,175.6 L135.5,175.4 L135.4,175.4 L135.3,175.2 L135.2,175.1 L135.1,175.0 L135.1,174.9 L135.0,174.8 L134.9,174.3 L134.9,173.9 L134.9,173.7 L135.0,173.5 L135.1,173.4 L135.4,173.0 L135.5,172.9 L135.5,172.8 L135.6,172.1 L135.6,172.0 L135.7,171.8 L135.8,171.8 L135.8,171.7 L136.0,171.6 L136.2,171.2 L136.3,171.0 L136.3,170.8 L136.3,170.4 L136.4,169.9 L136.4,169.6 L136.4,169.6 L136.4,169.4 L136.3,169.3 L136.2,169.3 L135.9,169.2 L135.9,169.2 L135.8,169.1 L135.8,169.1 L135.8,169.1 L135.7,169.1 L135.7,169.0 L135.7,169.0 L135.7,169.0 L135.7,168.8 L135.8,168.7 L135.9,168.6 L136.6,167.9 L136.8,167.7 L136.8,167.6 L136.8,167.3 L136.6,166.4 L136.6,166.0 L136.6,165.8 L136.7,165.6 L136.9,165.3 L137.0,165.0 L137.1,164.5 L137.1,164.0 L137.0,163.3 L137.0,163.1 L136.9,162.9 L136.8,162.6 L136.6,162.3 L136.5,162.3 L136.4,162.1 L136.3,161.9 L136.2,161.7 L136.2,161.4 L136.2,161.4 L136.2,160.9 L136.2,160.6 L136.3,160.5 L136.7,160.0 L136.9,159.7 L137.0,159.4 L137.3,158.2 L137.4,157.9 L137.4,157.7 L137.3,157.6 L137.3,157.4 L137.1,157.2 L137.0,157.0 L136.8,156.9 L136.7,156.8 L136.7,156.7 L136.6,156.6 L136.6,156.3 L136.7,156.1 L137.0,155.3 L137.1,154.8 L137.1,154.6 L137.1,154.4 L137.1,153.9 L137.0,153.5 L136.7,153.0 L136.7,152.8 L136.6,152.7 L136.6,152.5 L136.7,152.2 L136.8,151.9 L136.8,151.8 L137.2,151.0 L137.3,150.7 L137.3,150.5 L137.3,150.2 L137.3,149.8 L137.3,149.5 L137.3,149.3 L137.3,148.9 L137.2,148.7 L137.2,148.4 L137.1,148.3 L137.1,148.1 L137.1,148.0 L137.1,148.0 L137.0,147.9 L136.9,147.7 L136.7,147.4 L136.4,147.1 L136.4,147.1 L136.3,147.1 L136.3,147.1 L136.3,147.1 L136.2,147.0 L136.1,147.0 L136.0,146.9 L135.8,146.8 L135.4,146.8 L135.2,146.7 L135.1,146.6 L135.0,146.5 L134.7,146.2 L134.1,145.4 L133.9,145.2 L133.7,144.9 L133.4,144.4 L133.2,144.1 L133.1,144.0 L133.0,143.8 L132.6,143.4 L132.5,143.3 L132.4,143.3 L132.2,143.1 L131.6,142.5 L131.5,142.3 L131.3,142.0 L131.2,141.9 L131.0,141.7 L130.7,141.6 L130.3,141.5 L129.9,141.3 L129.8,141.3 L129.4,141.0 L129.3,140.9 L129.0,140.7 L128.7,140.7 L128.5,140.7 L128.5,140.7 L128.1,140.7 L127.9,140.6 L127.7,140.5 L127.4,140.2 L127.1,140.1 L127.0,140.0 L126.7,140.0 L126.6,139.9 L126.5,139.8 L126.4,139.6 L126.3,139.6 L126.3,139.6 L126.3,139.4 L126.3,139.1 L126.3,139.0 L126.3,138.9 L126.2,138.7 L126.2,138.4 L126.2,138.3 L126.5,137.7 L126.5,137.6 L126.7,137.2 L127.1,136.7 L127.4,136.2 L128.0,135.5 L128.1,135.3 L128.7,134.3 L128.8,133.9 L128.9,133.7 L129.4,133.3 L129.6,133.1 L129.9,132.3 L130.2,131.9 L130.5,131.6 L131.0,131.0 L131.7,130.4 L131.9,130.2 L132.6,129.1 L132.7,129.0 L132.8,128.9 L133.1,128.7 L133.6,128.5 L133.9,128.3 L134.7,128.2 L135.0,128.1 L135.3,127.9 L135.9,127.6 L136.7,127.3 L136.6,127.1 L136.7,126.9 L136.8,126.9 L136.9,126.8 L137.1,126.7 L137.3,126.7 L137.5,126.5 L137.8,126.4 L137.9,126.3 L138.0,126.2 L138.3,126.0 L138.8,125.6 L139.0,125.3 L139.3,125.0 L139.8,124.6 L140.0,124.4 L140.1,124.3 L140.1,124.2 L140.1,124.1 L140.2,124.1 L140.4,124.1 L140.6,124.0 L140.7,123.9 L140.8,123.9 L140.8,123.8 L140.7,123.6 L140.7,123.4 L140.7,122.8 L140.7,122.7 L140.6,122.5 L140.4,122.1 L140.3,122.1 L140.4,122.0 L140.6,121.7 L140.6,121.6 L140.6,120.9 L140.6,120.5 L140.7,120.1 L140.7,120.1 L140.7,120.0 L140.8,120.0 L140.9,120.0 L141.0,120.0 L141.2,120.2 L141.3,120.2 L141.3,120.2 L141.4,120.2 L141.8,119.4 L142.3,118.7 L142.3,118.6 L142.3,118.5 L142.0,118.3 L141.7,118.0 L141.6,117.7 L141.6,117.6 L141.5,117.5 L141.3,117.2 L141.2,117.0 L141.2,117.0 L140.9,116.6 L140.4,116.0 L140.2,115.7 L139.7,115.3 L139.5,115.0 L139.2,114.7 L139.0,114.7 L138.7,114.4 L138.5,114.3 L138.2,114.0 L138.1,114.0 L137.7,114.0 L137.4,113.9 L137.1,113.9 L136.6,113.8 L136.2,113.8 L136.0,113.7 L135.8,113.7 L135.6,113.5 L135.3,113.1 L135.2,113.1 L135.2,113.0 L134.5,113.0 L134.0,113.0 L133.7,113.0 L132.7,112.9 L132.6,112.9 L132.3,113.1 L132.2,113.1 L131.9,113.1 L131.7,113.1 L131.5,113.1 L131.3,113.1 L130.6,113.3 L130.3,113.3 L129.9,113.4 L129.7,113.3 L129.3,113.1 L129.3,113.1 L129.0,112.8 L128.8,112.8 L128.7,112.7 L128.5,112.7 L127.2,112.8 L126.3,112.7 L126.0,112.8 L125.8,112.9 L125.7,112.9 L125.5,112.9 L124.6,112.5 L124.1,112.3 L123.7,112.2 L123.5,112.1 L123.2,111.8 L122.5,111.0 L122.4,110.9 L122.3,110.8 L122.2,110.7 L122.0,110.4 L121.9,110.4 L121.4,110.2 L121.3,110.1 L120.9,110.1 L120.7,110.0 L120.3,109.7 L120.2,109.6 L119.7,109.5 L119.2,109.4 L118.7,109.2 L118.6,109.2 L118.2,108.8 L117.9,108.8 L117.8,108.7 L117.5,108.4 L117.2,108.3 L116.5,107.9 L116.2,107.8 L116.0,107.7 L115.6,107.5 L115.4,107.4 L115.0,107.2 L114.9,107.1 L114.0,106.7 L113.7,106.5 L113.5,106.3 L113.4,106.2 L113.3,106.1 L113.1,106.0 L112.6,105.7 L112.1,105.3 L111.8,105.3 L111.3,105.1 L110.6,105.1 L110.5,105.0 L110.2,104.8 L110.0,104.8 L109.8,104.7 L109.6,104.7 L109.5,104.7 L109.4,104.8 L109.3,105.0 L109.0,105.1 L108.8,105.1 L108.4,105.1 L108.3,105.0 L108.1,104.9 L108.1,104.7 L108.0,104.3 L108.0,104.1 L107.8,103.9 L107.6,103.6 L107.4,103.5 L107.4,103.4 L107.3,103.3 L107.3,103.1 L107.2,102.9 L107.2,102.8 L106.9,102.5 L106.8,102.3 L106.6,102.2 L106.5,102.1 L106.4,101.9 L106.3,101.8 L106.2,101.6 L106.2,101.6 L106.1,101.4 L106.1,101.3 L105.9,101.4 L105.9,101.1 L105.8,100.9 L105.5,100.4 L105.4,100.2 L105.1,99.9 L104.3,99.0 L104.1,98.9 L103.9,98.2 L103.8,98.2 L103.7,98.1 L103.3,97.8 L103.2,97.7 L103.2,97.6 L103.2,97.4 L103.3,97.0 L103.2,96.7 L102.9,96.2 L102.7,95.7 L102.5,95.5 L102.2,95.1 L101.5,94.3 L101.2,94.0 L101.0,93.7 L100.8,93.4 L100.5,92.9 L100.1,92.2 L99.5,91.5 L98.7,90.7 L98.6,90.5 L97.1,88.4 L97.1,88.3 L97.0,88.3 L97.0,88.1 L96.8,87.8 L96.5,86.8 L96.4,86.7 L96.4,86.1 L96.4,86.0 L96.3,85.9 L96.4,85.9 L96.4,85.8 L96.4,85.3 L96.3,84.3 L96.3,84.0 L96.2,83.7 L96.2,83.6 L96.2,83.5 L96.2,83.3 L96.2,83.2 L96.2,82.9 L96.3,82.6 L96.4,82.3 L96.5,82.0 L96.6,81.8 L96.6,81.7 L97.3,81.8 L97.8,82.0 L98.0,82.0 L98.4,82.1 L98.6,82.2 L98.7,82.3 L98.8,82.4 L98.9,82.3 L99.1,82.3 L99.3,82.4 L99.3,82.4 L99.4,82.4 L99.6,82.3 L99.7,82.1 L99.8,81.6 L100.0,81.6 L100.1,81.6 L100.2,81.7 L100.1,82.2 L100.4,82.2 L101.1,82.2 L101.5,82.1 L102.5,82.0 L104.0,81.6 L105.3,81.2 L106.1,81.3 L106.9,81.1 L107.0,81.1 L108.8,80.2 L108.9,80.1 L108.9,80.1 L108.6,79.4 L108.6,79.3 L109.2,79.2 L109.3,77.9 L109.3,77.6 L109.3,77.3 L109.1,76.7 L109.1,76.7 L108.7,76.1 L108.7,76.0 L108.5,75.7 L108.5,75.7 L108.5,75.3 L108.5,75.2 L108.7,75.1 L109.0,75.0 L109.2,74.8 L109.6,74.4 L109.9,74.3 L110.1,74.2 L110.6,74.2 L110.8,74.1 L110.8,74.1 L111.1,74.2 L111.4,74.2 L111.6,74.3 L111.8,74.5 L111.9,74.5 L111.9,74.5 L112.2,74.7 L112.5,74.8 L112.7,74.9 L113.0,75.0 L113.1,75.0 L113.2,74.9 L114.6,75.0 L115.1,75.0 L115.5,75.0 L115.8,74.9 L116.2,74.6 L116.5,74.4 L116.5,74.3 L116.6,74.1 L116.6,73.6 L116.6,73.4 L116.7,73.3 L116.8,73.3 L116.8,73.2 L116.9,73.1 L117.1,72.9 L117.4,72.6 L117.6,72.1 L117.7,71.7 L117.5,71.2 L117.5,70.8 L117.4,70.4 L117.4,69.7 L117.5,69.2 L117.5,69.0 L117.4,68.7 L117.4,68.3 L117.5,67.6 L117.6,67.2 L117.6,66.7 L117.7,66.3 L117.9,66.1 L118.0,65.7 L118.0,65.6 L118.0,65.5 L117.9,65.1 L117.8,64.8 L117.8,64.4 L117.9,64.1 L118.1,63.4 L118.1,63.3 L118.2,63.1 L118.3,62.9 L118.3,62.0 L118.3,61.9 L117.9,61.1 L117.5,60.6 L117.1,60.1 L116.9,59.9 L116.9,59.7 L116.8,59.1 L116.4,57.7 L116.2,57.6 L116.1,57.4 L115.6,55.3 L115.5,55.1 L114.9,54.5 L114.3,54.0 L114.1,53.9 L114.0,53.7 L113.7,52.9 L113.6,52.4 L113.5,52.0 L113.4,51.8 L113.1,51.3 L112.8,51.0 L112.5,50.6 L112.2,50.2 L112.1,49.9 L112.0,49.8 L111.9,49.8 L110.9,48.8 L110.6,48.6 L110.5,48.4 L110.5,47.8 L110.4,47.3 L110.4,47.2 L110.1,46.7 L110.1,46.6 L110.1,46.5 L110.1,46.4 L110.3,46.0 L110.6,45.5 L110.6,45.4 L110.6,45.2 L110.6,45.0 L110.6,44.9 L110.8,44.0 L110.9,43.7 L110.9,43.5 L110.8,43.2 L110.7,42.5 L110.7,42.3 L110.7,42.2 L111.3,41.1 L111.7,40.7 L111.8,40.5 L112.1,40.1 L112.2,40.0 L112.2,40.0 L112.3,40.1 L112.3,40.2 L112.3,40.2 L112.4,40.4 L112.5,40.4 L112.6,40.4 L112.7,40.5 L112.8,40.5 L112.8,40.5 L112.8,40.8 L112.8,40.9 L112.9,41.0 L113.0,41.1 L113.4,41.2 L113.6,41.3 L113.7,41.5 L113.8,41.8 L113.8,41.9 L113.9,41.9 L113.9,41.8 L113.9,41.3 L113.8,41.1 L113.8,40.9 L115.0,40.5 L115.1,40.3 L114.9,40.1 L114.8,39.9 L114.4,39.6 L114.3,39.2 L114.1,38.8 L114.2,38.5 L114.3,38.1 L114.3,37.9 L114.3,37.7 L113.8,37.3 L113.8,37.1 L113.8,36.7 L113.5,36.3 L113.5,36.1 L113.3,35.7 L113.1,35.0 L113.1,35.0 L113.4,34.9 L113.8,34.7 L114.9,34.5 L115.5,34.0 L115.6,33.8 L115.9,33.7 L116.0,33.6 L116.1,33.3 L116.1,33.1 L116.2,32.8 L116.3,32.2 L116.2,31.7 L116.2,31.4 L116.2,31.1 L116.2,30.7 L116.2,30.2 L116.2,30.1 L116.2,30.0 L116.1,29.6 L116.3,29.5 L116.8,29.2 L116.9,29.1 L117.2,28.7 L117.3,28.6 L117.5,28.5 L117.8,28.4 L118.5,28.3 L118.6,28.2 L119.0,28.2 L119.1,28.3 L119.4,28.5 L119.6,28.6 L119.7,28.5 L119.7,28.5 L119.8,28.4 L119.9,28.1 L119.8,27.7 L119.8,27.5 L119.6,27.3 L118.8,26.5 L118.6,26.4 L118.4,26.2 L118.2,26.2 L118.1,26.1 L117.9,26.0 L117.7,25.9 L117.6,25.9 L117.5,25.6 L117.5,25.5 L117.6,25.4 L117.9,25.2 L118.0,25.2 L118.7,25.0 L119.3,24.8 L120.3,24.6 L120.5,24.6 L120.6,24.5 L120.6,24.4 L120.8,24.5 L121.6,25.0 L121.8,25.0 L122.1,24.9 L122.6,24.9 L123.1,25.0 L123.4,25.0 L123.7,25.2 L124.2,25.7 L124.3,25.7 L124.3,25.9 L124.3,26.4 L124.4,26.7 L124.5,27.0 L124.6,27.1 L124.7,27.1 L124.8,27.0 L124.8,26.9 L124.9,26.6 L125.0,26.5 L125.2,26.4 L126.0,26.1 L126.2,26.0 L126.3,26.0 L126.4,26.1 L126.7,26.2 L126.9,26.2 L126.9,26.2 L127.0,26.1 L127.3,25.8 L127.5,25.7 L127.5,25.5 L127.6,25.3 L127.6,24.9 L127.6,24.7 L127.7,24.3 L127.8,24.2 L128.0,24.0 L128.1,24.0 L128.2,24.0 L128.5,24.0 L128.7,23.9 L129.0,23.8 L129.4,24.4 L129.6,24.6 L130.0,24.7 L130.2,24.9 L130.3,25.0 L130.3,25.4 L130.3,25.6 L130.3,26.3 L130.4,26.5 L130.5,26.6 L130.8,26.9 L131.1,27.0 L131.3,27.0 L131.8,26.9 L132.0,26.8 L132.6,26.7 L133.5,26.3 L133.7,26.2 L133.8,26.1 L134.3,25.6 L134.5,25.3 L135.6,23.9 L136.4,23.3 L136.6,23.1 L137.1,22.3 L137.2,21.6 L137.3,21.5 L137.4,21.5 L137.6,21.4 L137.9,21.3 L138.2,21.1 L138.3,21.0 L138.6,21.0 L138.6,21.0 L138.7,21.0 L138.8,21.0 L138.9,21.1 L139.0,21.3 L139.1,21.8 L139.2,22.0 L139.3,22.0 L139.7,22.2 L140.1,22.3 L140.3,22.2 L140.7,21.8 L141.0,21.6 L141.3,21.5 L141.5,21.3 L141.6,21.2 L141.7,21.0 L141.8,20.9 L141.6,19.2 L141.6,18.4 L141.7,17.7 L141.8,17.2 L141.9,16.9 L142.1,16.6 L142.6,16.2 L142.9,16.0 L143.1,15.9 L143.4,15.8 L143.7,15.8 L143.9,15.8 L144.3,16.0 L144.5,16.0 L145.0,16.0 L145.2,16.0 L145.6,15.9 L145.8,15.2 L145.8,14.8 L145.9,14.5 L145.9,14.2 L145.9,13.9 L145.9,13.7 L146.3,13.0 L147.4,12.0 L148.2,11.7 L148.6,11.5 L148.8,11.4 L149.1,11.4 L149.2,11.5 L149.8,11.6 L150.1,11.7 L150.2,11.9 L150.3,12.1 L150.2,12.4 L150.0,12.7 L150.0,12.9 L149.8,13.2 L149.7,13.3 L149.7,13.4 L149.8,13.5 L150.0,13.7 L150.7,14.0 L150.9,14.1 L151.9,14.2 L152.1,14.1 L152.1,14.1 L152.2,14.0 L152.0,13.6 L152.1,13.2 L152.0,13.1 L151.9,12.9 L151.9,12.8 L152.0,12.4 L152.2,12.0 L152.2,11.9 L152.1,11.6 L152.2,11.4 L152.3,11.2 L152.4,11.2 L153.0,11.4 L153.1,11.5 L153.3,11.7 L153.5,11.8 L153.7,11.8 L153.9,11.8 L154.2,11.9 L154.5,12.0 L154.8,12.0 L155.2,11.9 L156.0,12.1 L156.4,12.1 L156.6,12.1 L156.7,11.9 L157.0,11.8 L157.1,11.9 L157.2,12.0 L157.2,12.1 L157.1,12.2 L156.8,12.4 L156.4,12.7 L156.2,12.8 L156.0,12.8 L155.8,12.9 L155.3,13.0 L155.2,13.0 L155.2,13.1 L155.2,13.2 L155.2,13.2 L155.3,13.3 L155.5,13.3 L155.9,13.4 L156.4,13.3 L156.7,13.3 L157.0,13.2 L157.7,12.9 L158.3,13.0 L158.5,12.9 L159.2,12.8 L159.3,12.8 L159.4,12.9 L159.7,13.2 L160.2,13.4 L160.6,13.6 L160.9,13.6 L161.4,13.7 L161.5,13.7 L161.7,13.7 L162.0,13.9 L162.5,14.2 L162.5,14.3 L162.8,14.6 L163.2,15.0 L163.5,15.2 L163.9,15.4 L164.6,15.5 L165.0,15.8 L165.2,16.0 L165.4,16.2 L165.6,16.5 L166.0,16.7 L166.6,16.9 L167.2,17.2 L168.2,17.4 L168.4,17.5 L168.7,17.8 L168.8,17.9 L168.9,18.0 L169.1,18.1 L170.2,18.9 L171.1,19.3 L171.1,19.3 L171.4,19.3 L171.5,19.3 L172.1,19.3 L172.5,19.5 L172.6,19.4 L172.7,19.4 L172.7,19.4 L172.7,19.4 L173.0,19.8 L173.1,19.9 L173.1,20.1 L173.1,20.2 L173.2,20.4 L173.5,20.7 L173.9,21.5 L174.0,21.6 L174.1,21.8 L174.1,22.0 L174.0,22.4 L174.0,22.5 L174.2,22.7 L174.2,22.8 L174.4,23.0 L174.6,23.2 L174.9,23.4 L174.9,23.5 L175.0,23.6 L175.0,24.0 L175.1,24.2 L175.2,24.4 L175.5,24.8 L175.6,24.9 L175.9,25.3 L176.0,25.4 L176.1,25.5 L176.1,25.6 L176.2,25.6 L176.6,25.7 L177.0,25.8 L177.3,25.9 L177.5,25.8 L177.7,25.8 L177.9,25.7 L178.1,25.7 L178.4,25.5 L178.5,25.3 L178.7,25.0 L178.8,24.9 L179.2,24.2 L179.3,24.1 L179.8,24.1 L179.9,24.0 L180.1,23.9 L180.3,23.7 L180.7,23.2 L181.2,22.6 L181.6,22.2 L181.8,22.0 L182.1,21.9 L182.5,21.8 L182.7,21.7 L182.9,21.6 L183.3,21.2 L183.8,20.8 L184.0,20.6 L184.1,20.2 L184.2,20.0 L184.4,19.8 L185.4,18.7 L185.5,18.5 L185.6,18.3 L185.7,18.2 L185.9,18.0 L186.0,17.9 L186.3,17.8 L186.7,17.8 L187.0,17.7 L187.2,17.6 L187.7,17.3 L187.8,17.2 L188.0,17.2 L188.3,17.2 L188.5,17.2 L189.1,17.4 L189.3,17.4 L189.4,17.4 L189.8,17.6 L190.4,17.7 L190.5,17.7 L190.8,17.7 L191.0,17.7 L192.2,17.4 L192.4,17.3 L192.7,17.2 L193.2,16.8 L194.0,16.1 L194.3,15.8 L194.7,15.6 L195.3,15.3 L195.6,15.2 L195.8,15.1 L195.9,15.0 L196.4,14.4 L196.6,14.2 L196.8,14.1 L197.0,14.1 L197.3,14.0 L197.8,14.0 L198.0,14.0 L198.7,14.1 L199.0,14.1 L199.3,14.0 L199.5,13.8 L199.6,13.7 L199.9,13.2 L200.1,13.0 L200.2,12.9 L200.2,12.9 L200.5,12.7 L201.4,12.2 L201.5,12.1 L201.6,12.1 L201.7,12.0 L202.4,11.6 L202.6,11.5 L202.8,11.3 L203.8,10.1 L203.9,10.0" fill="transparent" id="track" stroke="black" stroke-width="2"/>
<g>
<circle cx="303.732" cy="389.926" fill="Gray" id="wp-0/circle" r="5.000"/>
<text font-size="16.0" id="wp-1/text" text-anchor="start" x="308.427" y="397.926">
Bräunlingen
</text>
<circle cx="291.473" cy="355.957" fill="Gray" id="wp-1/circle" r="2.000"/>
<text font-size="16.0" id="wp-7/text" text-anchor="start" x="290.252" y="348.957">
Wolterdingen
</text>
<circle cx="297.896" cy="370.640" fill="Gray" id="wp-2/circle" r="2.000"/>
<text font-size="16.0" id="wp-8/text" text-anchor="start" x="303.601" y="373.640">
Bruggen
</text>
<circle cx="331.907" cy="369.645" fill="Gray" id="wp-3/circle" r="5.000"/>
<text font-size="16.0" id="wp-9/text" text-anchor="end" x="309.907" y="347.645">
Donaueschingen
</text>
<circle cx="238.025" cy="327.272" fill="Red" id="wp-4/circle" r="3.000"/>
<text font-size="16.0" id="wp-18/text" text-anchor="start" x="155.520" y="345.272">
Geschwend
</text>
<circle cx="143.404" cy="247.970" fill="Red" id="wp-5/circle" r="3.000"/>
<text font-size="16.0" id="wp-19/text" text-anchor="start" x="73.498" y="265.970">
Katzenbühl
</text>
<circle cx="162.871" cy="282.484" fill="Gray" id="wp-6/circle" r="5.000"/>
<text font-size="16.0" id="wp-20/text" text-anchor="start" x="160.839" y="300.484">
Furtwangen
</text>
<circle cx="330.794" cy="273.440" fill="Gray" id="wp-7/circle" r="5.000"/>
<text font-size="16.0" id="wp-22/text" text-anchor="start" x="211.699" y="266.440">
Villingen-Schwenningen
</text>
<circle cx="157.898" cy="202.217" fill="Gray" id="wp-8/circle" r="2.000"/>
<text font-size="16.0" id="wp-23/text" text-anchor="start" x="161.750" y="215.217">
Schonach im Schwarzwald
</text>
<circle cx="145.886" cy="207.054" fill="Red" id="wp-9/circle" r="3.000"/>
<text font-size="16.0" id="wp-24/text" text-anchor="start" x="155.244" y="195.054">
Gitschbühl
</text>
<circle cx="136.483" cy="216.789" fill="Red" id="wp-10/circle" r="3.000"/>
<text font-size="16.0" id="wp-26/text" text-anchor="start" x="49.904" y="234.789">
Ochsenberg
</text>
<circle cx="148.406" cy="214.134" fill="Red" id="wp-11/circle" r="3.000"/>
<text font-size="16.0" id="wp-27/text" text-anchor="start" x="149.785" y="232.134">
Blindenhöhe
</text>
<circle cx="142.918" cy="203.526" fill="Red" id="wp-12/circle" r="3.000"/>
<text font-size="16.0" id="wp-28/text" text-anchor="end" x="130.918" y="201.526">
Rotenberg
</text>
<circle cx="178.189" cy="213.745" fill="Gray" id="wp-13/circle" r="5.000"/>
<text font-size="16.0" id="wp-29/text" text-anchor="end" x="156.189" y="191.745">
Triberg
</text>
<circle cx="237.287" cy="217.836" fill="Gray" id="wp-14/circle" r="5.000"/>
<text font-size="16.0" id="wp-30/text" text-anchor="start" x="232.224" y="235.836">
St. Georgen
</text>
<circle cx="84.529" cy="172.448" fill="Gray" id="wp-15/circle" r="5.000"/>
<text font-size="16.0" id="wp-31/text" text-anchor="end" x="72.529" y="185.448">
Elzach
</text>
<circle cx="126.000" cy="139.116" fill="Gray" id="wp-16/circle" r="2.000"/>
<text font-size="16.0" id="wp-34/text" text-anchor="start" x="33.547" y="157.116">
Oberprechtal
</text>
<circle cx="126.196" cy="131.321" fill="Red" id="wp-17/circle" r="3.000"/>
<text font-size="16.0" id="wp-37/text" text-anchor="end" x="119.196" y="129.321">
Schulmathisbühl
</text>
<circle cx="133.588" cy="126.791" fill="Red" id="wp-18/circle" r="3.000"/>
<text font-size="16.0" id="wp-40/text" text-anchor="start" x="139.083" y="144.791">
Landwassereck
</text>
<circle cx="138.820" cy="117.338" fill="Red" id="wp-19/circle" r="3.000"/>
<text font-size="16.0" id="wp-44/text" text-anchor="start" x="128.020" y="110.338">
Haldenberg
</text>
<circle cx="178.544" cy="140.946" fill="Gray" id="wp-20/circle" r="5.000"/>
<text font-size="16.0" id="wp-45/text" text-anchor="start" x="178.565" y="163.946">
Hornberg
</text>
<circle cx="268.618" cy="130.677" fill="Gray" id="wp-21/circle" r="5.000"/>
<text font-size="16.0" id="wp-46/text" text-anchor="start" x="262.797" y="148.677">
Schramberg
</text>
<circle cx="94.563" cy="83.862" fill="Gray" id="wp-22/circle" r="5.000"/>
<text font-size="16.0" id="wp-47/text" text-anchor="start" x="115.121" y="91.862">
Haslach im Kinzigtal
</text>
<circle cx="108.875" cy="74.467" fill="Gray" id="wp-23/circle" r="2.000"/>
<text font-size="16.0" id="wp-48/text" text-anchor="start" x="23.528" y="67.467">
Fischerbach
</text>
<circle cx="108.035" cy="104.065" fill="Gray" id="wp-24/circle" r="2.000"/>
<text font-size="16.0" id="wp-49/text" text-anchor="end" x="101.035" y="112.065">
Mühlenbach
</text>
<circle cx="146.010" cy="78.544" fill="Gray" id="wp-25/circle" r="5.000"/>
<text font-size="16.0" id="wp-52/text" text-anchor="start" x="125.295" y="71.544">
Hausach
</text>
<circle cx="174.015" cy="65.725" fill="Gray" id="wp-26/circle" r="5.000"/>
<text font-size="16.0" id="wp-53/text" text-anchor="start" x="189.931" y="63.725">
Wolfach
</text>
<circle cx="244.745" cy="73.757" fill="Gray" id="wp-27/circle" r="5.000"/>
<text font-size="16.0" id="wp-54/text" text-anchor="start" x="246.282" y="66.757">
Schiltach
</text>
<circle cx="82.551" cy="21.191" fill="Gray" id="wp-28/circle" r="5.000"/>
<text font-size="16.0" id="wp-55/text" text-anchor="end" x="60.551" y="-0.809">
Zell am Harmersbach
</text>
<circle cx="134.241" cy="30.226" fill="Red" id="wp-29/circle" r="3.000"/>
<text font-size="16.0" id="wp-57/text" text-anchor="start" x="44.157" y="18.226">
Brandenkopf
</text>
<circle cx="176.357" cy="25.075" fill="Gray" id="wp-30/circle" r="2.000"/>
<text font-size="16.0" id="wp-58/text" text-anchor="end" x="154.357" y="3.075">
Walke
</text>
<circle cx="180.983" cy="27.137" fill="Red" id="wp-31/circle" r="3.000"/>
<text font-size="16.0" id="wp-59/text" text-anchor="start" x="195.162" y="45.137">
Webersköpfle
</text>
<circle cx="156.782" cy="16.839" fill="Red" id="wp-32/circle" r="3.000"/>
<text font-size="16.0" id="wp-62/text" text-anchor="end" x="139.782" y="14.839">
Wintereck
</text>
<circle cx="143.993" cy="19.417" fill="Red" id="wp-33/circle" r="3.000"/>
<text font-size="16.0" id="wp-63/text" text-anchor="end" x="136.993" y="17.417">
Reiherskopf
</text>
<circle cx="170.812" cy="16.318" fill="Red" id="wp-34/circle" r="3.000"/>
<text font-size="16.0" id="wp-68/text" text-anchor="start" x="140.897" y="44.318">
Höllköpfle
</text>
<circle cx="161.923" cy="282.807" fill="Black" id="wp-35/circle" r="4.000"/>
<text font-size="16.0" id="wp-155/text" text-anchor="start" x="164.312" y="275.807">
K1
</text>
<circle cx="96.603" cy="81.690" fill="Black" id="wp-36/circle" r="4.000"/>
<text font-size="16.0" id="wp-156/text" text-anchor="end" x="89.603" y="84.690">
K2
</text>
</g>
<g>
<g/>
<g/>
<g/>
<g/>
<g/>
<g/>
<g/>
<g/>
<g/>
<g/>
<g/>
</g>
</svg>