<svg height="400" viewBox="(0, 0, 400, 400)" width="400" xmlns="http://www.w3.org/2000/svg">
<path d="M294.8,400.0 L294.3,399.6 L294.0,399.4 L293.6,399.3 L292.8,399.2 L292.5,399.1 L291.8,398.7 L291.7,398.6 L290.8,397.9 L290.0,397.3 L289.5,397.1 L289.4,397.0 L289.3,396.9 L289.3,396.6 L288.2,396.2 L287.9,396.2 L287.7,396.2 L287.2,396.4 L286.3,396.8 L286.2,396.9 L286.1,396.8 L285.9,396.6 L285.9,396.6 L285.7,396.5 L284.8,396.9 L284.6,396.9 L284.3,396.9 L284.1,396.8 L283.7,396.5 L283.2,395.9 L283.1,395.8 L283.1,395.8 L282.8,395.3 L282.8,394.8 L282.8,394.5 L282.8,394.2 L282.9,393.8 L282.9,393.5 L282.9,393.3 L282.8,392.8 L282.7,392.6 L282.4,392.1 L282.2,391.9 L281.8,391.6 L281.8,391.5 L281.7,391.4 L281.6,391.4 L281.6,391.5 L281.3,391.3 L281.0,391.1 L280.7,390.8 L280.5,390.5 L280.5,390.4 L280.2,389.9 L280.1,389.5 L280.0,389.1 L279.9,388.7 L280.0,388.6 L280.0,388.3 L280.0,388.1 L279.9,387.8 L279.9,387.5 L279.9,387.3 L279.8,387.3 L279.7,386.8 L279.3,385.9 L279.1,385.2 L279.0,385.0 L278.9,384.6 L278.6,384.1 L278.3,383.4 L278.2,383.3 L278.1,382.7 L277.8,382.1 L277.6,381.9 L277.4,381.8 L277.2,381.8 L276.8,381.0 L276.6,380.2 L276.7,379.8 L276.7,379.5 L276.8,379.4 L276.9,379.2 L277.5,378.8 L278.1,378.4 L279.0,377.7 L279.5,377.5 L279.7,377.4 L280.0,377.4 L280.3,377.0 L280.4,376.9 L280.7,376.7 L281.1,376.6 L281.2,376.5 L281.3,376.3 L281.4,375.9 L281.4,375.6 L281.3,375.5 L281.3,375.4 L281.2,375.3 L281.0,375.2 L280.7,375.1 L280.4,375.2 L279.9,375.4 L279.7,375.5 L279.3,375.5 L278.9,375.4 L278.5,375.5 L278.2,375.5 L277.1,376.0 L276.9,376.0 L276.5,376.0 L276.1,375.8 L275.4,375.5 L275.1,375.3 L274.8,374.8 L274.5,374.5 L274.3,374.4 L273.7,374.3 L273.4,374.2 L273.3,374.0 L272.6,373.2 L272.3,372.7 L272.2,372.8 L272.0,372.9 L271.9,372.9 L271.7,372.9 L269.1,372.6 L267.9,372.6 L267.3,372.6 L266.5,372.7 L265.5,372.9 L265.0,372.9 L264.0,373.1 L263.0,373.5 L261.8,372.4 L261.6,372.1 L261.1,371.8 L260.4,371.4 L258.2,370.3 L256.9,369.8 L256.0,369.6 L255.6,369.5 L253.6,369.2 L253.0,369.0 L252.5,368.8 L250.1,368.4 L248.5,367.9 L248.3,367.8 L247.9,367.8 L247.5,367.8 L246.8,367.7 L246.4,367.3 L245.4,366.4 L244.3,365.0 L243.3,364.0 L242.8,363.0 L242.3,361.8 L242.3,360.8 L242.2,360.7 L242.1,360.6 L241.9,360.4 L241.8,360.4 L241.7,360.3 L241.6,360.3 L241.3,360.1 L241.2,359.9 L241.1,359.6 L241.0,359.3 L241.0,359.1 L240.8,358.6 L240.7,358.4 L240.3,357.5 L240.1,357.1 L239.9,356.8 L239.7,356.4 L239.5,356.0 L239.2,355.4 L238.9,354.8 L238.7,354.4 L238.5,353.9 L238.4,353.9 L238.2,353.8 L238.1,353.6 L238.0,353.6 L238.0,353.6 L237.3,353.0 L237.1,352.8 L236.9,352.6 L236.8,352.4 L236.3,351.9 L236.3,351.8 L236.0,350.9 L235.8,350.8 L235.4,350.7 L235.3,350.7 L235.2,350.7 L234.8,351.0 L234.7,350.7 L234.5,350.3 L234.3,349.6 L233.9,348.6 L233.7,347.4 L233.6,346.9 L232.6,345.1 L232.1,344.7 L231.8,344.5 L230.7,344.0 L230.0,343.9 L229.3,343.8 L229.2,343.7 L228.8,343.5 L228.3,343.3 L228.1,343.1 L228.0,343.1 L227.9,343.0 L227.3,343.0 L225.8,343.0 L225.8,342.9 L225.9,342.7 L225.9,342.5 L225.9,342.3 L225.7,342.2 L224.8,342.1 L224.4,342.1 L224.2,342.0 L223.2,341.9 L223.0,341.9 L222.8,341.7 L222.5,341.4 L222.4,341.4 L222.2,341.4 L222.2,341.3 L222.1,341.3 L222.0,341.3 L222.0,341.3 L221.9,341.4 L221.8,341.3 L220.7,340.3 L220.5,340.2 L220.5,340.2 L220.4,340.2 L220.2,340.3 L220.1,340.4 L219.7,340.3 L219.7,340.3 L219.6,340.3 L219.6,340.3 L219.3,340.2 L219.2,340.2 L218.1,340.7 L217.8,340.9 L217.7,340.9 L217.6,340.9 L217.2,341.0 L216.9,341.1 L216.6,341.2 L216.0,341.4 L215.9,341.5 L215.8,341.5 L215.5,341.7 L215.2,341.8 L215.1,341.8 L214.9,341.8 L214.8,341.8 L214.7,341.8 L213.9,341.5 L212.7,341.3 L212.6,341.2 L211.3,341.2 L211.1,341.2 L211.1,340.9 L211.1,340.4 L211.1,340.3 L211.1,340.3 L211.0,340.3 L211.0,340.4 L210.5,340.4 L210.5,340.3 L210.1,340.5 L209.9,340.3 L209.6,340.1 L208.5,339.4 L207.9,340.1 L207.3,340.7 L206.7,341.3 L206.6,341.2 L206.5,341.2 L206.3,341.2 L206.2,341.2 L206.0,341.3 L205.1,342.1 L204.4,342.6 L204.3,342.5 L203.9,342.0 L203.7,341.9 L203.5,342.1 L202.9,342.7 L202.0,343.5 L201.8,343.6 L201.6,343.6 L199.9,342.8 L199.7,342.7 L198.7,342.3 L197.8,341.8 L195.9,340.4 L195.0,341.3 L194.0,342.9 L193.4,343.9 L193.3,344.0 L192.7,344.8 L192.0,345.7 L191.7,345.9 L191.7,346.0 L191.6,346.1 L189.6,344.2 L189.5,344.1 L189.4,344.1 L187.7,342.9 L184.4,340.6 L182.7,339.6 L181.1,338.6 L179.4,337.8 L179.3,337.7 L179.2,337.7 L179.1,337.7 L179.1,337.6 L176.7,336.4 L174.7,335.4 L174.6,335.3 L174.5,335.3 L174.1,335.1 L172.6,334.3 L172.3,334.2 L172.1,334.2 L172.0,334.2 L172.0,334.2 L171.9,334.1 L171.9,334.1 L171.8,334.0 L171.6,333.9 L171.5,333.7 L170.9,333.3 L170.9,333.3 L170.9,333.4 L170.3,332.9 L170.2,332.8 L170.2,332.9 L169.8,332.5 L169.4,332.3 L169.3,332.2 L169.2,332.1 L169.0,332.0 L168.6,331.6 L168.6,331.6 L168.1,331.2 L167.8,331.0 L167.9,330.9 L167.9,330.8 L166.8,330.0 L165.1,328.7 L164.6,328.3 L164.2,328.1 L163.6,327.9 L162.6,327.6 L162.3,327.5 L162.2,327.5 L161.7,327.3 L161.6,327.2 L161.1,327.1 L160.9,327.1 L160.6,327.1 L160.3,327.0 L160.2,327.0 L160.0,327.0 L159.8,326.9 L159.4,326.6 L159.1,326.4 L158.4,325.9 L158.2,325.8 L157.6,325.1 L157.1,324.6 L157.0,324.5 L156.9,324.4 L156.9,324.2 L156.9,324.0 L156.9,322.9 L157.0,322.2 L157.4,321.2 L157.5,320.7 L157.6,320.5 L158.1,319.7 L158.2,319.6 L158.4,318.3 L158.3,316.3 L158.1,315.8 L157.6,315.0 L157.1,314.1 L156.5,313.2 L156.1,312.2 L156.0,311.6 L155.9,310.8 L155.9,310.4 L155.8,310.1 L155.6,309.8 L155.1,309.2 L154.8,308.7 L154.6,308.4 L154.4,308.0 L154.4,307.8 L154.3,307.0 L154.2,307.1 L154.1,306.4 L153.7,305.0 L153.5,304.2 L153.4,303.3 L153.3,302.8 L153.4,301.8 L153.6,300.8 L153.7,300.5 L153.9,300.2 L154.2,299.9 L154.3,299.8 L154.4,299.8 L154.4,299.7 L154.4,299.6 L154.3,299.5 L154.3,299.4 L154.1,299.4 L153.9,299.4 L153.8,299.3 L153.0,298.7 L152.0,297.9 L151.8,297.8 L151.2,297.3 L150.7,296.9 L150.0,296.5 L149.1,296.1 L148.0,295.6 L145.9,295.0 L143.3,294.1 L142.6,293.9 L141.9,293.7 L141.2,293.4 L139.4,292.6 L138.9,292.4 L138.5,292.3 L138.5,292.3 L136.4,291.6 L134.8,291.1 L133.1,290.5 L131.5,290.0 L131.1,289.8 L130.6,289.5 L129.5,289.2 L125.0,287.5 L121.2,286.3 L121.0,286.2 L117.3,285.1 L116.8,284.8 L116.4,284.5 L116.1,284.3 L115.6,283.8 L115.4,283.4 L115.3,283.2 L115.1,283.0 L113.1,280.4 L112.6,279.7 L112.3,279.3 L112.2,279.1 L112.2,279.0 L112.0,279.0 L111.6,278.8 L111.4,278.6 L111.3,278.5 L110.8,278.1 L110.1,277.5 L109.8,277.1 L109.3,276.6 L108.6,275.6 L108.6,275.6 L108.1,275.0 L107.1,274.1 L106.3,273.3 L106.1,273.1 L105.2,272.3 L105.7,271.8 L106.4,271.2 L106.8,270.7 L107.3,270.1 L107.7,269.6 L108.1,269.0 L108.1,268.9 L108.2,268.8 L108.3,268.8 L108.9,268.7 L109.1,268.7 L109.3,268.6 L109.5,268.4 L109.8,268.1 L110.1,267.6 L110.4,267.3 L110.6,267.2 L110.8,267.1 L111.1,267.0 L112.0,266.7 L112.2,266.9 L112.3,266.9 L112.4,267.0 L112.8,267.1 L113.3,266.5 L113.7,266.1 L114.0,265.9 L115.1,265.5 L116.7,264.7 L117.7,264.2 L118.2,264.0 L119.6,263.6 L119.8,263.5 L121.3,263.2 L121.9,263.0 L124.2,262.1 L124.4,262.1 L126.0,262.0 L126.2,262.0 L126.2,261.8 L126.2,261.5 L126.3,261.1 L126.5,260.7 L126.8,260.3 L128.0,258.8 L130.5,256.8 L132.9,254.7 L133.1,254.6 L136.1,254.0 L136.3,254.0 L136.5,253.8 L137.3,253.1 L138.1,252.5 L138.3,252.4 L138.5,252.4 L139.1,252.3 L144.3,250.8 L144.5,250.7 L144.6,250.6 L146.6,246.0 L148.5,241.5 L148.7,241.0 L149.7,238.9 L150.7,237.0 L151.3,235.9 L152.5,234.0 L152.5,233.9 L152.4,233.8 L152.4,233.7 L152.5,233.7 L152.6,233.6 L152.8,233.4 L153.0,233.2 L153.1,233.1 L153.7,232.9 L154.1,232.8 L154.5,232.6 L154.8,232.3 L155.1,232.0 L155.5,231.3 L155.7,230.8 L156.3,229.8 L156.3,229.5 L156.4,229.2 L156.3,228.9 L155.9,227.5 L155.8,227.2 L156.7,217.9 L156.7,217.7 L156.8,216.2 L156.7,215.8 L155.7,214.2 L154.4,212.6 L151.9,209.3 L151.6,208.9 L151.4,208.6 L151.3,208.2 L151.4,207.2 L151.6,206.4 L151.9,205.9 L152.3,205.5 L152.7,205.4 L155.5,204.7 L156.0,204.5 L156.2,204.3 L156.9,203.6 L157.5,203.1 L157.8,202.6 L158.2,202.4 L158.6,202.2 L159.0,202.0 L159.7,201.8 L160.0,201.6 L160.4,201.1 L161.1,200.4 L161.5,199.9 L161.7,199.6 L162.3,198.5 L162.7,198.0 L163.0,197.7 L163.2,197.6 L164.3,197.1 L165.3,196.7 L165.4,196.6 L165.8,196.0 L166.1,195.6 L166.5,195.1 L166.6,194.7 L166.6,194.2 L166.8,194.0 L167.1,193.7 L167.6,193.3 L168.1,192.9 L168.3,192.6 L168.5,192.2 L168.9,191.4 L169.0,191.2 L169.1,191.2 L169.2,191.1 L169.8,191.2 L170.2,191.4 L171.4,192.0 L172.7,192.8 L172.9,192.9 L173.3,192.9 L173.6,192.9 L173.9,192.6 L174.4,192.1 L174.6,192.2 L176.3,192.9 L176.7,193.0 L176.9,193.0 L177.0,192.9 L177.2,192.8 L177.6,192.3 L177.9,191.8 L178.3,190.6 L179.9,188.3 L180.0,188.1 L180.2,187.6 L180.2,187.4 L180.3,186.4 L180.4,186.1 L180.7,185.4 L184.5,180.5 L184.8,180.1 L185.1,179.9 L185.4,179.7 L187.3,178.9 L187.6,178.7 L188.1,178.4 L188.3,178.1 L188.7,177.6 L191.2,174.3 L193.1,171.7 L193.3,171.3 L193.7,169.8 L193.8,169.5 L194.7,168.3 L195.1,167.9 L195.9,167.3 L196.1,167.1 L196.2,166.8 L197.5,164.4 L199.8,159.9 L200.8,157.8 L203.0,153.2 L203.4,152.1 L203.4,151.9 L203.4,151.9 L203.5,151.5 L203.4,151.2 L203.3,151.0 L202.9,150.4 L202.8,150.3 L202.6,150.3 L202.5,150.3 L202.4,150.3 L202.3,150.4 L201.6,151.8 L201.4,152.0 L201.3,152.1 L201.2,152.1 L200.9,152.0 L199.7,151.6 L199.5,151.4 L199.4,151.3 L199.4,151.2 L198.9,150.8 L197.9,150.6 L197.5,149.7 L197.5,149.6 L197.4,149.5 L197.2,149.1 L197.3,149.0 L197.4,148.9 L197.3,148.8 L197.2,148.6 L197.1,148.1 L197.2,147.9 L198.5,144.3 L198.6,143.6 L198.7,143.3 L198.9,143.0 L199.0,142.9 L198.9,142.6 L199.4,141.6 L199.8,140.7 L199.9,140.4 L201.3,138.7 L201.4,138.4 L201.4,138.1 L201.4,137.8 L201.3,137.1 L201.3,136.6 L201.3,136.5 L201.5,136.3 L201.5,136.2 L201.5,136.0 L201.3,136.0 L201.3,135.8 L201.4,134.9 L201.4,133.3 L201.4,132.7 L202.0,129.4 L202.6,127.2 L202.8,126.6 L203.0,126.2 L203.3,125.8 L203.3,125.8 L203.4,125.7 L203.6,125.6 L203.6,125.5 L203.6,125.4 L203.5,125.3 L203.4,125.1 L203.5,125.1 L203.3,124.7 L203.3,124.0 L203.2,123.7 L203.2,123.6 L202.9,121.9 L202.9,121.6 L203.1,120.6 L203.0,120.4 L203.0,120.3 L202.9,120.3 L202.7,120.2 L202.4,120.0 L202.3,120.0 L202.0,119.5 L202.0,119.4 L201.8,119.1 L201.8,118.9 L201.8,118.9 L201.6,118.4 L201.6,118.4 L201.6,118.3 L201.6,118.2 L202.1,117.4 L202.7,116.5 L203.4,115.5 L203.4,115.4 L203.4,114.4 L203.5,114.1 L203.6,113.5 L203.5,113.4 L203.5,113.2 L203.3,113.0 L203.3,112.9 L203.2,112.7 L203.2,112.7 L203.1,112.6 L203.0,112.5 L202.8,112.1 L202.7,111.9 L202.5,111.4 L202.3,110.7 L202.1,110.6 L201.6,110.3 L201.5,110.2 L201.1,109.9 L201.0,109.9 L200.9,109.8 L201.0,109.6 L201.1,109.4 L201.2,109.2 L201.2,109.0 L201.2,108.7 L201.2,108.3 L201.3,108.0 L201.3,108.0 L201.3,107.6 L201.3,107.4 L201.4,107.3 L201.4,107.2 L201.4,107.2 L201.4,107.0 L201.4,106.9 L201.5,106.8 L201.7,106.7 L203.1,106.1 L204.0,105.7 L204.2,105.7 L204.3,105.7 L204.3,105.7 L204.4,105.7 L204.5,105.6 L204.6,105.5 L204.5,105.4 L204.8,105.1 L205.4,104.6 L206.3,103.8 L211.8,99.2 L214.1,97.1 L214.4,96.9 L214.5,96.8 L215.0,96.3 L218.6,93.2 L218.7,93.1 L221.3,91.0 L221.7,90.5 L222.6,89.7 L223.5,89.0 L226.3,86.6 L226.9,86.0 L227.1,85.7 L227.3,85.4 L227.7,84.6 L231.5,77.5 L232.4,75.9 L232.9,74.8 L234.4,72.1 L237.1,66.9 L237.3,66.6 L238.0,65.2 L239.1,63.5 L239.5,62.7 L239.6,62.2 L239.8,61.6 L240.3,57.8 L240.4,57.2 L240.7,56.4 L241.0,55.9 L241.5,55.2 L242.2,54.4 L242.8,53.9 L243.3,53.6 L244.4,52.9 L245.0,52.6 L245.9,52.2 L246.3,52.1 L247.7,51.7 L247.8,51.6 L248.2,51.5 L248.6,51.3 L248.9,51.1 L249.2,50.8 L249.5,50.5 L249.9,50.0 L250.4,49.5 L250.7,49.1 L251.2,48.8 L251.7,48.4 L252.3,48.2 L252.9,48.0 L252.9,48.1 L254.1,47.8 L254.6,47.6 L255.1,47.4 L256.2,46.9 L257.0,46.6 L257.2,46.5 L257.4,46.6 L257.4,46.7 L257.5,46.7 L257.6,46.7 L257.7,46.7 L257.8,46.6 L257.8,46.5 L258.3,46.4 L258.6,46.5 L258.7,46.5 L258.7,46.3 L259.2,46.3 L259.4,46.1 L259.6,46.0 L259.8,45.7 L260.1,45.2 L260.2,45.0 L260.7,44.3 L261.0,43.9 L261.3,43.7 L261.7,43.5 L262.5,43.3 L262.7,43.2 L263.3,43.0 L263.6,42.8 L263.9,42.7 L264.8,42.0 L265.8,41.2 L266.3,40.9 L266.7,40.7 L266.9,40.7 L267.6,40.7 L268.4,40.8 L269.7,41.0 L269.9,41.0 L269.9,40.7 L270.0,40.3 L270.0,40.3 L270.4,38.5 L270.5,38.0 L271.1,36.8 L271.0,36.8 L271.0,36.8 L271.1,36.4 L271.1,36.1 L271.2,35.9 L271.3,35.8 L272.1,33.1 L272.3,32.4 L272.6,31.9 L273.7,30.6 L274.1,30.1 L275.4,28.7 L275.5,28.6 L275.5,28.4 L275.6,28.2 L275.6,28.0 L275.3,24.8 L275.2,23.6 L275.2,23.3 L275.3,22.7 L275.2,22.5 L275.2,22.4 L275.2,22.3 L275.4,22.1 L275.4,21.9 L275.4,21.7 L275.5,21.6 L275.6,21.4 L276.0,20.1 L276.2,19.6 L276.3,19.5 L276.5,18.9 L276.6,18.6 L276.6,18.1 L276.6,18.0 L276.7,18.0 L276.8,17.8 L276.8,17.2 L276.8,16.3 L276.8,15.5 L276.9,14.9 L277.0,14.6 L277.1,14.6 L277.2,14.3 L277.6,13.7 L278.0,13.0 L278.3,12.4 L278.4,12.0 L278.5,11.7 L278.5,11.4 L278.6,11.4 L278.6,11.3 L278.7,11.3 L278.8,11.2 L278.9,10.7 L279.3,9.9 L279.7,9.3 L280.0,9.0 L279.8,8.9 L279.4,8.7 L279.4,8.6 L279.5,8.4 L279.7,8.1 L279.9,7.9 L280.3,7.7 L280.3,7.6 L280.5,7.4 L280.6,7.2 L281.2,7.0 L281.2,6.9 L281.4,6.8 L281.7,6.8 L281.8,6.8 L282.0,6.7 L282.0,6.8 L282.1,6.7 L282.2,6.6 L282.3,6.5 L282.6,6.2 L282.7,6.1 L282.9,5.4 L283.0,4.8 L283.0,4.7 L283.0,4.3 L282.9,4.0 L282.8,3.9 L282.7,3.7 L282.6,3.6 L282.5,3.3 L282.4,3.1 L282.4,3.0 L282.1,2.1 L282.0,2.0 L281.9,1.8 L281.5,1.4 L280.7,0.5 L280.6,0.3 L280.6,0.1 L280.5,0.0" fill="transparent" id="track" stroke="black" stroke-width="2"/>
<g>
<circle cx="280.537" cy="0.000" id="wp-460/circle" r="4.000"/>
<text font-size="16.0" id="wp-460/text" text-anchor="start" x="282.926" y="-7.000">
K4
</text>
<circle cx="283.005" cy="172.128" fill="Gray" id="wp-1/circle" r="5.000"/>
<text font-size="16.0" id="wp-20/text" text-anchor="start" x="274.889" y="190.128">
Durmersheim
</text>
<circle cx="224.293" cy="278.433" fill="Gray" id="wp-2/circle" r="5.000"/>
<text font-size="16.0" id="wp-22/text" text-anchor="start" x="220.419" y="296.433">
Rastatt
</text>
<circle cx="320.097" cy="121.836" fill="Gray" id="wp-3/circle" r="5.000"/>
<text font-size="16.0" id="wp-23/text" text-anchor="start" x="316.718" y="139.836">
Rheinstetten
</text>
<circle cx="161.350" cy="329.498" fill="Gray" id="wp-4/circle" r="3.000"/>
<text font-size="16.0" id="wp-5/text" text-anchor="start" x="97.792" y="347.498">
Iffezheim
</text>
<circle cx="108.093" cy="268.830" fill="Gray" id="wp-5/circle" r="3.000"/>
<text font-size="16.0" id="wp-6/text" text-anchor="start" x="43.683" y="261.830">
Beinheim
</text>
<circle cx="196.085" cy="111.299" fill="Gray" id="wp-6/circle" r="3.000"/>
<text font-size="16.0" id="wp-7/text" text-anchor="start" x="109.979" y="129.299">
Lauterbourg
</text>
<circle cx="219.668" cy="98.828" fill="Gray" id="wp-7/circle" r="3.000"/>
<text font-size="16.0" id="wp-8/text" text-anchor="start" x="217.373" y="116.828">
Berg
</text>
<circle cx="262.677" cy="48.826" fill="Gray" id="wp-8/circle" r="3.000"/>
<text font-size="16.0" id="wp-9/text" text-anchor="start" x="268.014" y="61.826">
Hagenbach
</text>
</g>
<g/>
</svg>