<svg height="400" viewBox="(0, 0, 400, 400)" width="400" xmlns="http://www.w3.org/2000/svg">
<path d="M284.1,377.4 L283.6,377.0 L283.4,376.9 L283.0,376.7 L282.3,376.6 L282.0,376.6 L281.5,376.3 L281.3,376.2 L280.5,375.5 L279.8,375.0 L279.4,374.8 L279.3,374.7 L279.2,374.6 L279.2,374.4 L278.2,374.0 L278.0,374.0 L277.7,374.0 L277.3,374.2 L276.6,374.5 L276.4,374.6 L276.4,374.5 L276.2,374.4 L276.2,374.3 L276.0,374.3 L275.2,374.6 L275.0,374.6 L274.8,374.6 L274.6,374.5 L274.2,374.3 L273.8,373.8 L273.7,373.7 L273.7,373.6 L273.5,373.2 L273.4,372.7 L273.4,372.5 L273.4,372.2 L273.5,371.9 L273.6,371.7 L273.5,371.4 L273.4,371.0 L273.3,370.8 L273.1,370.4 L272.9,370.2 L272.5,369.9 L272.5,369.8 L272.5,369.8 L272.4,369.8 L272.3,369.8 L272.1,369.7 L271.9,369.5 L271.6,369.2 L271.4,368.9 L271.4,368.9 L271.1,368.4 L271.0,368.1 L270.9,367.7 L270.9,367.4 L270.9,367.2 L270.9,367.0 L270.9,366.8 L270.9,366.6 L270.9,366.3 L270.9,366.2 L270.8,366.1 L270.7,365.7 L270.4,364.8 L270.1,364.3 L270.1,364.1 L269.9,363.7 L269.8,363.3 L269.4,362.7 L269.4,362.6 L269.2,362.0 L269.0,361.5 L268.8,361.3 L268.7,361.2 L268.4,361.2 L268.1,360.5 L268.0,359.8 L268.0,359.4 L268.0,359.2 L268.1,359.1 L268.2,358.9 L268.7,358.6 L269.3,358.2 L270.1,357.6 L270.5,357.4 L270.6,357.3 L270.9,357.4 L271.2,357.0 L271.3,356.9 L271.6,356.7 L272.0,356.6 L272.1,356.5 L272.1,356.3 L272.2,356.0 L272.2,355.8 L272.1,355.7 L272.1,355.6 L272.0,355.5 L271.9,355.4 L271.6,355.3 L271.3,355.4 L270.8,355.6 L270.7,355.6 L270.3,355.6 L269.9,355.6 L269.6,355.6 L269.4,355.7 L268.4,356.1 L268.2,356.1 L267.9,356.1 L267.5,356.0 L266.9,355.6 L266.6,355.4 L266.3,355.0 L266.1,354.8 L265.9,354.7 L265.3,354.5 L265.1,354.5 L265.0,354.3 L264.4,353.6 L264.1,353.2 L264.1,353.2 L263.9,353.3 L263.8,353.3 L263.6,353.4 L261.3,353.1 L260.2,353.1 L259.7,353.1 L259.0,353.1 L258.1,353.3 L257.6,353.3 L256.8,353.6 L255.9,353.9 L254.8,352.9 L254.6,352.7 L254.2,352.3 L253.6,352.0 L251.6,351.0 L250.5,350.6 L249.7,350.4 L249.3,350.4 L247.5,350.0 L247.0,349.9 L246.6,349.7 L244.4,349.4 L243.0,348.9 L242.8,348.8 L242.5,348.8 L242.1,348.9 L241.5,348.7 L241.1,348.4 L240.3,347.5 L239.3,346.4 L238.4,345.5 L237.9,344.5 L237.5,343.5 L237.5,342.6 L237.5,342.5 L237.4,342.4 L237.2,342.3 L237.1,342.2 L237.0,342.2 L236.9,342.1 L236.6,342.0 L236.5,341.9 L236.4,341.6 L236.4,341.2 L236.3,341.1 L236.1,340.6 L236.1,340.5 L235.7,339.7 L235.6,339.4 L235.4,339.1 L235.2,338.7 L235.0,338.3 L234.8,337.8 L234.5,337.3 L234.3,336.9 L234.1,336.5 L234.0,336.5 L233.9,336.4 L233.8,336.3 L233.7,336.2 L233.7,336.2 L233.1,335.7 L232.9,335.5 L232.8,335.3 L232.6,335.2 L232.2,334.8 L232.2,334.7 L232.0,333.8 L231.8,333.8 L231.4,333.7 L231.3,333.7 L231.2,333.7 L230.8,333.9 L230.7,333.7 L230.6,333.3 L230.4,332.6 L230.1,331.8 L229.9,330.7 L229.8,330.3 L228.9,328.7 L228.5,328.3 L228.2,328.2 L227.2,327.8 L226.6,327.6 L226.0,327.5 L225.9,327.5 L225.5,327.3 L225.1,327.1 L224.9,326.9 L224.8,326.9 L224.7,326.9 L224.2,326.8 L222.9,326.8 L222.9,326.7 L222.9,326.6 L223.0,326.4 L223.0,326.2 L222.8,326.1 L222.0,326.0 L221.6,326.0 L221.5,326.0 L220.6,325.9 L220.4,325.8 L220.2,325.7 L220.0,325.4 L219.9,325.4 L219.7,325.4 L219.7,325.3 L219.6,325.3 L219.5,325.3 L219.5,325.3 L219.4,325.4 L219.3,325.3 L218.3,324.4 L218.2,324.3 L218.1,324.3 L218.1,324.3 L218.0,324.4 L217.8,324.5 L217.5,324.5 L217.5,324.4 L217.4,324.4 L217.4,324.4 L217.1,324.4 L217.1,324.4 L216.1,324.8 L215.8,324.9 L215.7,325.0 L215.6,324.9 L215.3,325.1 L215.0,325.2 L214.8,325.2 L214.2,325.4 L214.1,325.5 L214.0,325.5 L213.8,325.6 L213.5,325.7 L213.4,325.8 L213.3,325.8 L213.2,325.8 L213.0,325.7 L212.4,325.5 L211.3,325.3 L211.1,325.3 L210.0,325.3 L209.9,325.3 L209.9,325.0 L209.9,324.5 L209.9,324.4 L209.8,324.4 L209.8,324.4 L209.8,324.6 L209.3,324.6 L209.3,324.5 L208.9,324.7 L208.8,324.4 L208.5,324.3 L207.6,323.7 L207.0,324.2 L206.5,324.8 L205.9,325.3 L205.8,325.2 L205.7,325.2 L205.6,325.2 L205.5,325.3 L205.4,325.3 L204.5,326.0 L203.9,326.5 L203.8,326.4 L203.4,326.0 L203.3,325.8 L203.1,326.0 L202.6,326.6 L201.8,327.3 L201.6,327.4 L201.4,327.4 L199.9,326.7 L199.8,326.6 L198.9,326.2 L198.1,325.7 L196.3,324.5 L195.5,325.4 L194.7,326.7 L194.1,327.6 L194.1,327.8 L193.5,328.4 L192.9,329.2 L192.7,329.4 L192.6,329.5 L192.6,329.6 L190.8,327.9 L190.7,327.8 L190.6,327.8 L189.1,326.7 L186.1,324.7 L184.7,323.8 L183.2,323.0 L181.8,322.2 L181.7,322.1 L181.5,322.1 L181.5,322.1 L181.4,322.1 L179.3,320.9 L177.5,320.1 L177.5,320.0 L177.3,320.0 L177.0,319.8 L175.7,319.1 L175.4,319.0 L175.3,319.0 L175.2,319.1 L175.1,319.0 L175.1,319.0 L175.1,318.9 L175.0,318.9 L174.8,318.8 L174.7,318.6 L174.2,318.2 L174.2,318.2 L174.2,318.3 L173.6,317.9 L173.6,317.8 L173.6,317.9 L173.2,317.6 L172.9,317.3 L172.7,317.2 L172.7,317.2 L172.5,317.1 L172.1,316.7 L172.2,316.7 L171.7,316.3 L171.4,316.2 L171.5,316.1 L171.5,316.0 L170.6,315.3 L169.0,314.1 L168.6,313.8 L168.2,313.6 L167.7,313.5 L166.8,313.2 L166.6,313.1 L166.5,313.0 L166.0,312.9 L165.9,312.8 L165.5,312.7 L165.3,312.7 L165.1,312.7 L164.8,312.7 L164.7,312.7 L164.5,312.6 L164.3,312.6 L164.0,312.3 L163.7,312.1 L163.1,311.7 L162.9,311.5 L162.4,311.0 L162.0,310.6 L161.9,310.4 L161.8,310.3 L161.8,310.2 L161.8,309.9 L161.7,309.0 L161.9,308.4 L162.2,307.5 L162.3,307.1 L162.4,306.8 L162.9,306.2 L162.9,306.1 L163.1,305.0 L163.0,303.1 L162.8,302.7 L162.4,302.0 L161.9,301.2 L161.4,300.4 L161.1,299.6 L160.9,299.0 L160.9,298.3 L160.9,298.0 L160.8,297.7 L160.6,297.4 L160.2,296.9 L159.9,296.4 L159.8,296.2 L159.6,295.8 L159.5,295.6 L159.5,294.9 L159.4,294.9 L159.3,294.4 L158.9,293.1 L158.7,292.4 L158.6,291.6 L158.6,291.2 L158.7,290.3 L158.8,289.4 L159.0,289.1 L159.1,288.8 L159.4,288.6 L159.5,288.6 L159.6,288.5 L159.6,288.4 L159.6,288.3 L159.5,288.2 L159.4,288.2 L159.3,288.2 L159.1,288.2 L159.0,288.1 L158.3,287.6 L157.4,286.8 L157.3,286.7 L156.8,286.3 L156.3,286.0 L155.6,285.6 L154.9,285.2 L153.9,284.8 L152.1,284.2 L149.7,283.5 L149.1,283.3 L148.5,283.1 L147.8,282.8 L146.2,282.2 L145.8,282.0 L145.5,281.9 L145.4,281.8 L143.6,281.2 L142.1,280.8 L140.7,280.3 L139.3,279.8 L138.9,279.7 L138.4,279.4 L137.5,279.1 L133.5,277.6 L130.1,276.6 L129.9,276.5 L126.7,275.4 L126.2,275.2 L125.8,275.0 L125.6,274.7 L125.2,274.3 L125.0,274.0 L124.9,273.8 L124.7,273.6 L123.0,271.3 L122.5,270.7 L122.2,270.3 L122.2,270.2 L122.1,270.1 L122.0,270.1 L121.6,269.8 L121.4,269.7 L121.3,269.6 L120.9,269.3 L120.3,268.7 L120.0,268.4 L119.6,267.9 L118.9,267.1 L118.9,267.1 L118.4,266.5 L117.6,265.7 L116.9,265.0 L116.7,264.9 L115.9,264.1 L116.3,263.7 L116.9,263.2 L117.4,262.7 L117.8,262.2 L118.1,261.7 L118.5,261.2 L118.5,261.1 L118.5,261.0 L118.7,261.0 L119.2,261.0 L119.4,260.9 L119.6,260.8 L119.7,260.7 L120.0,260.4 L120.3,260.0 L120.5,259.7 L120.7,259.6 L120.9,259.5 L121.2,259.4 L122.0,259.2 L122.1,259.3 L122.3,259.4 L122.3,259.4 L122.6,259.5 L123.1,258.9 L123.5,258.6 L123.7,258.4 L124.7,258.1 L126.1,257.3 L127.0,256.9 L127.5,256.8 L128.7,256.4 L128.9,256.4 L130.2,256.0 L130.7,255.9 L132.7,255.1 L133.0,255.0 L134.4,255.0 L134.5,255.0 L134.5,254.8 L134.6,254.5 L134.6,254.2 L134.9,253.8 L135.1,253.5 L136.1,252.2 L138.4,250.4 L140.5,248.5 L140.7,248.4 L143.3,247.9 L143.5,247.9 L143.7,247.7 L144.4,247.1 L145.1,246.6 L145.3,246.5 L145.5,246.5 L145.9,246.4 L150.6,245.1 L150.8,245.0 L150.9,244.8 L152.6,240.8 L154.3,236.8 L154.5,236.4 L155.4,234.5 L156.3,232.8 L156.8,231.8 L157.8,230.2 L157.8,230.0 L157.8,230.0 L157.8,229.9 L157.9,229.9 L158.0,229.8 L158.1,229.6 L158.3,229.4 L158.4,229.3 L158.9,229.2 L159.3,229.1 L159.6,228.9 L159.9,228.7 L160.2,228.4 L160.5,227.8 L160.7,227.3 L161.2,226.4 L161.3,226.2 L161.3,225.9 L161.3,225.6 L160.9,224.4 L160.8,224.1 L161.6,215.9 L161.6,215.7 L161.7,214.4 L161.6,214.0 L160.7,212.6 L159.6,211.1 L157.3,208.2 L157.0,207.9 L156.9,207.6 L156.8,207.3 L156.9,206.4 L157.1,205.6 L157.3,205.2 L157.7,204.9 L158.1,204.7 L160.6,204.2 L161.0,204.0 L161.1,203.9 L161.7,203.2 L162.3,202.7 L162.6,202.3 L162.9,202.1 L163.3,201.9 L163.7,201.7 L164.3,201.6 L164.5,201.4 L164.9,201.0 L165.5,200.4 L165.8,200.0 L166.0,199.6 L166.5,198.7 L166.9,198.3 L167.2,198.0 L167.3,197.9 L168.4,197.4 L169.3,197.1 L169.4,197.0 L169.6,196.5 L169.9,196.1 L170.3,195.7 L170.4,195.3 L170.4,194.9 L170.5,194.7 L170.8,194.4 L171.3,194.1 L171.7,193.7 L171.9,193.4 L172.1,193.1 L172.4,192.4 L172.5,192.2 L172.6,192.2 L172.7,192.1 L173.2,192.2 L173.6,192.4 L174.7,192.9 L175.8,193.6 L176.0,193.7 L176.3,193.7 L176.6,193.7 L176.8,193.5 L177.3,193.0 L177.5,193.1 L179.0,193.7 L179.3,193.8 L179.5,193.8 L179.6,193.7 L179.8,193.6 L180.1,193.2 L180.4,192.7 L180.8,191.7 L182.2,189.6 L182.3,189.4 L182.4,189.0 L182.5,188.8 L182.5,187.9 L182.6,187.7 L182.8,187.1 L186.2,182.7 L186.5,182.3 L186.8,182.2 L187.1,182.0 L188.7,181.3 L189.0,181.1 L189.4,180.8 L189.6,180.6 L190.0,180.1 L192.2,177.2 L193.9,174.9 L194.0,174.5 L194.4,173.2 L194.5,173.0 L195.3,171.9 L195.6,171.5 L196.3,171.0 L196.5,170.8 L196.7,170.5 L197.8,168.4 L199.8,164.5 L200.7,162.6 L202.6,158.5 L203.0,157.6 L203.0,157.4 L203.0,157.3 L203.1,157.0 L203.0,156.7 L202.9,156.5 L202.6,156.0 L202.4,155.9 L202.3,155.9 L202.2,155.9 L202.1,155.9 L202.0,156.0 L201.4,157.3 L201.3,157.4 L201.1,157.5 L201.0,157.5 L200.8,157.5 L199.7,157.1 L199.5,156.9 L199.5,156.8 L199.4,156.7 L199.1,156.4 L198.1,156.2 L197.8,155.4 L197.8,155.3 L197.7,155.2 L197.5,154.9 L197.6,154.8 L197.7,154.7 L197.6,154.6 L197.5,154.4 L197.5,154.0 L197.5,153.8 L198.7,150.6 L198.7,150.0 L198.8,149.7 L199.0,149.5 L199.1,149.3 L199.1,149.1 L199.5,148.2 L199.8,147.4 L199.9,147.2 L201.2,145.7 L201.3,145.4 L201.3,145.1 L201.3,144.8 L201.1,144.2 L201.1,143.8 L201.2,143.6 L201.3,143.5 L201.3,143.4 L201.3,143.3 L201.2,143.2 L201.1,143.1 L201.2,142.2 L201.2,140.9 L201.3,140.3 L201.8,137.4 L202.3,135.4 L202.5,134.9 L202.7,134.5 L203.0,134.2 L202.9,134.2 L203.1,134.1 L203.2,134.0 L203.2,133.9 L203.2,133.8 L203.1,133.7 L203.0,133.6 L203.1,133.6 L203.0,133.3 L202.9,132.6 L202.8,132.3 L202.8,132.3 L202.6,130.8 L202.6,130.4 L202.7,129.6 L202.7,129.4 L202.6,129.3 L202.6,129.3 L202.4,129.2 L202.1,129.1 L202.1,129.0 L201.8,128.6 L201.7,128.5 L201.6,128.2 L201.6,128.1 L201.6,128.1 L201.4,127.7 L201.4,127.6 L201.4,127.6 L201.4,127.5 L201.9,126.8 L202.4,125.9 L203.0,125.1 L203.0,125.0 L203.1,124.1 L203.1,123.8 L203.2,123.3 L203.1,123.1 L203.1,123.0 L203.0,122.8 L202.9,122.8 L202.8,122.6 L202.8,122.6 L202.8,122.5 L202.7,122.4 L202.5,122.0 L202.4,121.9 L202.2,121.4 L202.1,120.8 L201.8,120.7 L201.4,120.4 L201.3,120.4 L201.0,120.1 L200.9,120.1 L200.8,120.0 L200.9,119.9 L201.0,119.7 L201.0,119.5 L201.0,119.3 L201.1,119.0 L201.1,118.6 L201.1,118.4 L201.1,118.4 L201.2,118.0 L201.2,117.9 L201.2,117.8 L201.2,117.7 L201.2,117.7 L201.3,117.5 L201.2,117.4 L201.3,117.3 L201.5,117.3 L202.8,116.7 L203.5,116.4 L203.7,116.3 L203.8,116.4 L203.8,116.4 L203.9,116.4 L204.0,116.3 L204.1,116.2 L204.0,116.1 L204.2,115.8 L204.8,115.4 L205.6,114.7 L210.4,110.6 L212.5,108.8 L212.8,108.5 L212.9,108.5 L213.3,108.1 L216.5,105.3 L216.6,105.2 L218.8,103.3 L219.3,102.9 L220.1,102.2 L220.9,101.5 L223.3,99.4 L223.9,98.9 L224.1,98.6 L224.2,98.4 L224.6,97.7 L227.9,91.4 L228.7,89.9 L229.2,89.0 L230.5,86.5 L232.9,82.0 L233.1,81.7 L233.7,80.5 L234.7,78.9 L235.0,78.3 L235.1,77.8 L235.3,77.3 L235.7,73.9 L235.8,73.4 L236.1,72.6 L236.3,72.2 L236.8,71.5 L237.4,70.8 L238.0,70.4 L238.4,70.1 L239.4,69.6 L239.9,69.3 L240.7,68.9 L241.1,68.8 L242.3,68.5 L242.4,68.4 L242.7,68.3 L243.1,68.1 L243.3,67.9 L243.6,67.7 L243.9,67.4 L244.2,67.0 L244.7,66.5 L245.0,66.2 L245.4,65.9 L245.9,65.6 L246.4,65.3 L246.9,65.2 L246.9,65.3 L248.0,65.0 L248.4,64.8 L248.9,64.6 L249.9,64.2 L250.5,63.9 L250.7,63.9 L250.9,64.0 L251.0,64.1 L251.0,64.1 L251.1,64.0 L251.1,64.0 L251.2,63.9 L251.3,63.8 L251.7,63.8 L252.0,63.8 L252.0,63.8 L252.1,63.7 L252.5,63.6 L252.7,63.5 L252.9,63.4 L253.0,63.2 L253.3,62.7 L253.4,62.5 L253.8,61.9 L254.1,61.5 L254.4,61.4 L254.7,61.2 L255.4,61.0 L255.6,60.9 L256.1,60.7 L256.4,60.6 L256.7,60.5 L257.5,59.8 L258.3,59.2 L258.8,58.9 L259.2,58.8 L259.4,58.7 L260.0,58.7 L260.7,58.8 L261.8,59.0 L262.0,59.0 L262.0,58.7 L262.1,58.4 L262.1,58.3 L262.4,56.8 L262.5,56.3 L263.0,55.3 L263.0,55.3 L262.9,55.2 L263.1,54.9 L263.1,54.6 L263.2,54.5 L263.3,54.4 L263.9,52.0 L264.2,51.3 L264.4,51.0 L265.4,49.7 L265.7,49.3 L266.8,48.1 L266.9,48.0 L267.0,47.8 L267.0,47.6 L267.0,47.4 L266.8,44.6 L266.7,43.5 L266.7,43.3 L266.8,42.7 L266.7,42.6 L266.7,42.5 L266.7,42.4 L266.9,42.2 L266.9,42.1 L266.9,41.9 L266.9,41.8 L267.1,41.6 L267.4,40.4 L267.6,40.0 L267.7,39.9 L267.9,39.4 L267.9,39.1 L268.0,38.7 L267.9,38.6 L268.0,38.6 L268.1,38.4 L268.1,37.9 L268.1,37.1 L268.1,36.4 L268.2,35.8 L268.3,35.6 L268.4,35.6 L268.5,35.3 L268.8,34.8 L269.2,34.2 L269.4,33.6 L269.6,33.3 L269.6,33.0 L269.6,32.7 L269.7,32.7 L269.7,32.6 L269.8,32.6 L269.9,32.5 L270.0,32.1 L270.4,31.4 L270.7,30.8 L270.9,30.6 L270.8,30.5 L270.4,30.3 L270.4,30.3 L270.5,30.1 L270.7,29.8 L270.9,29.6 L271.2,29.4 L271.2,29.4 L271.4,29.2 L271.5,29.0 L272.0,28.8 L272.0,28.8 L272.2,28.6 L272.5,28.7 L272.6,28.7 L272.7,28.6 L272.7,28.6 L272.8,28.6 L272.9,28.5 L273.0,28.4 L273.2,28.2 L273.3,28.0 L273.5,27.4 L273.6,26.9 L273.6,26.7 L273.6,26.4 L273.5,26.1 L273.5,26.1 L273.4,25.9 L273.3,25.8 L273.2,25.6 L273.1,25.4 L273.1,25.3 L272.8,24.5 L272.8,24.4 L272.6,24.2 L272.3,23.9 L271.6,23.1 L271.5,22.9 L271.4,22.7 L271.4,22.6" fill="transparent" id="track" stroke="black" stroke-width="2"/>
<g>
<circle cx="271.429" cy="22.618" id="wp-460/circle" r="4.000"/>
<text font-size="16.0" id="wp-460/text" text-anchor="end" x="264.429" y="25.618">
K4
</text>
<circle cx="246.176" cy="390.948" fill="Gray" id="wp-1/circle" r="5.000"/>
<text font-size="16.0" id="wp-18/text" text-anchor="start" x="249.271" y="403.948">
Baden-Baden
</text>
<circle cx="273.618" cy="175.280" fill="Gray" id="wp-2/circle" r="5.000"/>
<text font-size="16.0" id="wp-20/text" text-anchor="start" x="260.502" y="193.280">
Durmersheim
</text>
<circle cx="221.546" cy="269.563" fill="Gray" id="wp-3/circle" r="5.000"/>
<text font-size="16.0" id="wp-22/text" text-anchor="start" x="217.672" y="287.563">
Rastatt
</text>
<circle cx="306.515" cy="130.676" fill="Gray" id="wp-4/circle" r="5.000"/>
<text font-size="16.0" id="wp-23/text" text-anchor="start" x="303.136" y="148.676">
Rheinstetten
</text>
<circle cx="271.990" cy="22.511" fill="Gray" id="wp-5/circle" r="5.000"/>
<text font-size="16.0" id="wp-25/text" text-anchor="start" x="276.779" y="35.511">
Wörth
</text>
<circle cx="165.721" cy="314.853" fill="Gray" id="wp-6/circle" r="3.000"/>
<text font-size="16.0" id="wp-5/text" text-anchor="start" x="102.163" y="332.853">
Iffezheim
</text>
<circle cx="118.487" cy="261.046" fill="Gray" id="wp-7/circle" r="3.000"/>
<text font-size="16.0" id="wp-6/text" text-anchor="start" x="54.077" y="254.046">
Beinheim
</text>
<circle cx="196.527" cy="121.330" fill="Gray" id="wp-8/circle" r="3.000"/>
<text font-size="16.0" id="wp-7/text" text-anchor="start" x="110.422" y="139.330">
Lauterbourg
</text>
<circle cx="217.444" cy="110.270" fill="Gray" id="wp-9/circle" r="3.000"/>
<text font-size="16.0" id="wp-8/text" text-anchor="start" x="215.149" y="128.270">
Berg
</text>
<circle cx="255.589" cy="65.922" fill="Gray" id="wp-10/circle" r="3.000"/>
<text font-size="16.0" id="wp-9/text" text-anchor="start" x="260.926" y="78.922">
Hagenbach
</text>
</g>
<g/>
</svg>