<svg height="400" viewBox="(0, 0, 400, 400)" width="400" xmlns="http://www.w3.org/2000/svg">
<path d="M189.7,400.0 L189.8,399.9 L189.9,399.6 L190.0,399.5 L190.2,399.4 L190.3,399.2 L190.9,398.8 L191.2,398.5 L191.4,398.1 L191.8,397.7 L192.4,396.7 L192.7,396.4 L193.1,396.1 L193.4,396.0 L193.7,395.8 L193.9,395.6 L194.1,395.4 L194.2,395.3 L194.3,394.9 L194.4,394.6 L194.4,394.5 L194.3,394.2 L194.1,393.8 L194.0,393.7 L194.0,393.5 L194.0,393.2 L194.0,393.0 L194.2,392.6 L194.4,392.4 L194.7,392.2 L195.1,392.0 L195.5,391.8 L195.7,391.6 L195.8,391.5 L195.8,391.4 L195.9,391.2 L195.9,391.1 L195.9,390.8 L195.9,390.7 L195.8,390.4 L195.1,390.5 L194.9,390.5 L194.6,390.5 L193.7,390.3 L193.4,390.3 L193.3,390.2 L193.2,390.2 L192.9,389.8 L192.1,389.3 L192.0,389.2 L191.7,388.5 L191.5,388.2 L190.0,387.1 L189.6,386.8 L189.5,386.6 L189.4,386.4 L189.4,386.3 L189.5,385.9 L189.6,385.8 L190.1,385.4 L190.2,385.3 L190.2,385.2 L190.2,385.2 L190.2,385.1 L190.0,384.9 L189.8,384.6 L189.2,384.0 L188.8,383.7 L188.6,383.4 L188.5,383.2 L188.5,383.0 L188.5,382.7 L188.5,382.5 L188.5,382.4 L188.2,382.2 L188.1,382.0 L188.0,381.9 L188.0,381.7 L188.1,381.4 L188.5,380.8 L188.5,380.7 L188.5,380.5 L188.4,380.1 L188.4,380.1 L188.3,379.9 L188.3,379.9 L188.2,379.7 L188.1,379.6 L188.1,379.4 L188.4,379.0 L188.4,378.8 L188.3,378.5 L188.3,378.4 L188.3,378.3 L188.2,378.2 L188.0,378.1 L187.9,378.1 L187.6,377.9 L187.5,377.8 L187.4,377.7 L187.0,376.6 L187.0,376.5 L187.0,376.4 L187.1,376.0 L187.2,375.7 L187.3,375.6 L187.5,375.3 L187.6,375.2 L187.7,374.7 L188.0,374.3 L188.0,374.0 L188.0,373.8 L188.1,373.4 L188.1,372.9 L188.2,372.5 L188.3,372.2 L188.4,371.2 L188.4,371.0 L188.4,370.9 L188.3,370.7 L188.2,370.7 L187.9,370.6 L187.8,370.5 L187.7,370.3 L187.6,369.7 L187.5,369.6 L187.4,369.5 L187.3,369.4 L187.2,369.4 L186.8,369.5 L186.7,369.4 L186.4,369.3 L186.1,369.1 L186.0,368.9 L185.9,368.6 L185.8,368.5 L185.7,368.4 L185.5,368.3 L185.3,368.3 L184.7,368.2 L184.5,368.2 L184.3,368.1 L183.9,368.0 L183.7,367.9 L183.7,367.9 L183.6,367.9 L183.5,367.8 L183.5,367.6 L183.3,367.2 L183.2,366.7 L183.0,366.5 L182.6,366.2 L182.0,365.6 L181.8,365.2 L181.5,364.9 L181.0,364.2 L180.8,363.9 L180.8,363.7 L180.8,363.0 L180.8,362.8 L180.6,362.1 L180.4,361.0 L180.2,360.3 L180.2,359.9 L180.1,359.7 L180.1,359.5 L180.1,359.5 L180.1,359.3 L180.5,358.6 L180.6,358.3 L180.7,357.7 L180.9,356.8 L180.9,356.6 L180.8,356.6 L180.7,356.6 L180.7,356.6 L180.6,356.7 L180.6,357.1 L180.4,357.5 L180.3,357.9 L180.3,358.0 L180.0,358.4 L179.8,358.7 L179.7,358.8 L179.6,358.8 L179.5,358.8 L179.2,358.6 L178.9,358.4 L178.5,358.3 L177.5,358.2 L177.5,358.2 L177.4,358.1 L177.4,358.0 L177.4,357.8 L177.6,357.4 L177.6,357.3 L177.5,357.2 L177.3,357.1 L176.3,356.7 L176.2,356.6 L176.0,356.4 L175.9,356.2 L175.8,356.1 L175.3,355.8 L175.2,355.6 L175.1,355.4 L175.0,355.2 L174.9,355.1 L174.8,355.1 L174.4,355.2 L174.3,355.2 L172.6,353.9 L172.3,353.6 L172.1,353.3 L171.9,353.0 L171.8,352.8 L171.8,352.6 L171.8,352.5 L171.9,351.5 L171.8,351.2 L171.7,351.1 L171.7,350.9 L171.6,350.8 L171.4,350.8 L171.3,350.5 L171.2,350.4 L171.2,350.3 L171.2,350.1 L171.4,349.5 L171.5,349.3 L171.6,349.2 L172.0,349.1 L172.1,349.0 L172.1,348.9 L172.0,348.8 L171.9,348.8 L171.8,348.8 L171.6,349.0 L171.2,349.3 L170.9,349.6 L169.9,350.5 L169.5,350.7 L169.2,350.8 L168.9,350.7 L168.7,350.6 L168.6,350.4 L168.4,349.9 L168.2,349.8 L168.1,349.8 L167.8,349.8 L167.7,350.0 L167.5,350.3 L167.4,350.4 L167.2,350.4 L167.1,350.3 L166.7,350.0 L166.1,349.9 L165.8,349.7 L165.6,349.4 L165.4,348.8 L165.4,348.7 L165.2,348.6 L164.9,348.5 L164.5,348.8 L164.3,348.8 L164.3,348.7 L164.2,348.6 L164.3,348.5 L165.1,348.3 L165.3,348.3 L165.7,348.5 L166.0,349.1 L166.3,349.1 L166.7,348.9 L167.0,348.3 L167.4,348.2 L167.8,348.1 L168.3,348.3 L168.5,348.2 L168.5,348.1 L168.5,347.8 L168.6,347.6 L168.9,346.9 L169.1,346.7 L169.3,346.6 L169.4,346.4 L169.3,346.4 L169.3,346.3 L169.2,346.3 L169.2,346.3 L168.4,347.1 L168.1,347.3 L167.8,347.3 L167.4,347.3 L167.2,347.3 L167.1,347.3 L166.6,347.0 L166.2,346.7 L165.9,346.7 L165.4,346.5 L165.3,346.5 L165.2,346.4 L165.1,346.2 L165.0,346.0 L164.9,346.0 L164.1,345.8 L163.5,345.8 L163.3,345.8 L163.0,345.7 L162.7,345.5 L162.5,345.3 L161.9,344.6 L161.3,343.8 L160.8,343.4 L160.5,343.3 L160.4,343.2 L160.3,343.3 L160.1,343.3 L159.8,343.6 L159.5,343.9 L159.3,343.9 L159.0,344.0 L158.7,344.0 L158.5,344.0 L158.4,344.0 L158.3,343.9 L157.9,343.6 L157.4,343.1 L157.3,343.0 L157.2,342.9 L156.9,342.9 L156.6,342.9 L155.9,342.9 L155.8,342.9 L155.4,342.8 L155.3,342.7 L155.1,342.6 L155.0,342.6 L155.0,342.5 L154.5,342.1 L154.3,342.0 L154.2,342.0 L153.9,341.9 L153.5,341.9 L153.3,341.8 L152.7,341.5 L152.3,341.3 L151.8,340.9 L151.6,340.8 L150.9,340.2 L150.9,340.1 L150.8,340.1 L150.2,339.5 L149.9,339.3 L149.6,338.8 L149.4,338.6 L149.4,338.5 L149.2,338.3 L149.1,338.3 L148.9,338.3 L148.5,338.3 L148.3,338.2 L148.0,338.1 L147.9,338.0 L147.7,337.8 L147.6,337.6 L147.6,337.4 L147.4,336.9 L147.2,336.5 L147.1,336.4 L147.0,336.3 L146.7,336.1 L146.6,336.0 L146.6,335.8 L146.6,335.5 L146.6,335.4 L146.5,335.1 L146.4,335.1 L146.3,334.7 L146.6,334.6 L146.8,334.5 L146.9,334.5 L146.9,334.5 L147.0,334.5 L147.2,334.4 L147.2,334.4 L147.3,334.4 L147.4,334.3 L147.6,334.3 L147.7,334.2 L148.1,333.9 L148.9,333.4 L149.4,333.1 L149.9,332.8 L150.0,332.7 L150.0,332.5 L150.1,332.3 L150.2,332.0 L150.2,331.7 L150.2,331.6 L150.2,331.4 L150.6,330.7 L150.9,330.4 L150.9,330.4 L151.2,330.2 L152.2,329.7 L152.4,329.6 L152.5,329.4 L152.8,329.0 L152.9,328.9 L153.0,328.6 L153.1,328.5 L153.2,328.4 L153.6,328.1 L153.9,327.9 L154.3,327.4 L154.3,327.3 L155.2,326.1 L156.2,325.2 L156.3,325.1 L156.4,324.8 L156.6,324.6 L157.0,324.2 L157.2,324.0 L157.4,323.9 L157.5,323.8 L157.5,323.7 L157.5,323.2 L157.5,323.0 L157.6,322.8 L157.8,322.6 L157.9,322.5 L158.2,322.2 L158.7,321.9 L158.8,321.9 L158.9,321.9 L159.2,321.9 L159.7,321.9 L159.9,322.0 L160.1,321.9 L160.2,321.8 L160.4,321.5 L160.5,321.3 L160.7,321.1 L160.9,320.9 L161.4,320.5 L161.6,320.4 L161.6,320.3 L161.6,320.1 L161.6,319.8 L161.6,319.2 L161.6,318.7 L161.6,318.1 L161.6,318.0 L161.7,317.4 L161.8,317.0 L162.0,316.5 L162.0,316.4 L162.0,315.9 L162.1,315.7 L162.2,315.5 L162.3,315.5 L162.5,315.4 L162.6,315.4 L162.7,315.4 L162.9,315.5 L163.1,315.6 L163.3,315.7 L163.6,315.6 L164.1,315.5 L164.7,315.2 L164.9,315.2 L165.3,315.0 L165.7,314.9 L165.9,314.8 L166.2,314.8 L166.4,314.7 L166.4,314.6 L166.5,314.6 L166.7,314.4 L167.0,314.2 L167.2,314.1 L167.4,314.0 L167.4,313.9 L167.5,313.8 L167.5,313.6 L167.5,313.1 L167.5,312.9 L167.7,312.7 L167.9,312.4 L168.1,312.3 L168.3,312.3 L168.3,312.3 L168.9,312.6 L169.0,312.6 L169.1,312.6 L169.4,312.7 L169.8,312.8 L170.3,312.8 L170.6,312.9 L171.3,313.2 L171.4,313.2 L172.1,313.4 L172.6,313.6 L172.8,313.6 L173.5,314.2 L173.5,314.3 L173.7,314.3 L174.3,314.3 L174.9,314.5 L175.8,314.6 L176.0,314.7 L176.3,314.9 L176.5,315.3 L176.7,315.6 L177.2,316.0 L177.7,316.3 L177.9,316.4 L178.2,316.4 L178.5,316.5 L178.9,316.5 L179.1,316.4 L179.1,316.3 L179.2,316.3 L179.2,316.2 L179.1,316.1 L179.0,316.1 L179.0,316.0 L178.4,316.0 L178.3,316.0 L178.2,315.9 L177.9,315.6 L177.6,315.2 L177.5,315.2 L177.5,314.9 L177.5,314.8 L177.7,314.4 L177.8,313.9 L178.0,313.6 L178.2,313.4 L178.4,313.2 L178.7,313.1 L178.8,313.0 L179.1,312.8 L179.2,312.8 L179.2,312.8 L179.2,312.9 L178.9,313.1 L178.8,313.2 L178.4,313.9 L178.4,314.0 L178.4,314.1 L178.5,314.1 L178.5,314.0 L178.8,313.7 L179.0,313.5 L180.1,312.9 L180.4,312.6 L180.5,312.4 L180.5,312.2 L180.5,312.1 L180.5,312.0 L180.5,311.9 L180.3,311.7 L180.0,311.5 L179.8,311.4 L179.5,311.3 L179.2,311.2 L178.8,311.0 L178.8,311.0 L178.8,310.9 L178.9,310.9 L179.4,311.1 L179.6,311.1 L179.6,311.1 L179.6,311.1 L179.6,311.0 L179.4,310.9 L179.3,310.9 L179.2,310.8 L179.2,310.7 L179.3,310.1 L179.2,308.9 L179.1,308.7 L178.9,308.5 L178.7,308.4 L178.1,308.2 L177.8,308.1 L177.8,308.0 L177.7,307.9 L177.7,307.9 L177.8,307.8 L178.2,307.4 L178.3,307.2 L178.5,307.1 L179.5,306.9 L180.2,306.7 L180.3,306.7 L180.3,306.8 L180.3,306.8 L180.3,306.8 L180.1,306.9 L179.9,307.0 L179.2,307.4 L179.2,307.5 L179.2,307.5 L179.2,307.6 L179.3,307.6 L179.3,307.6 L179.5,307.4 L179.8,307.3 L180.6,307.1 L181.0,306.9 L181.8,306.4 L182.2,306.0 L182.3,305.9 L182.3,305.8 L182.3,305.6 L182.3,304.8 L182.1,304.1 L181.9,303.3 L181.8,302.7 L181.8,302.4 L181.9,302.1 L182.0,301.8 L182.8,301.0 L183.3,300.5 L184.1,299.7 L184.3,299.6 L184.6,298.9 L184.9,298.3 L185.3,296.8 L185.4,296.3 L185.3,295.6 L185.3,295.5 L185.2,295.2 L184.9,294.8 L184.3,294.2 L184.1,294.0 L184.1,293.8 L184.6,292.9 L184.7,292.6 L185.0,291.9 L185.3,291.4 L185.4,291.2 L185.7,291.0 L186.8,290.4 L187.1,290.2 L187.5,289.9 L187.8,289.7 L188.8,288.7 L189.1,288.5 L189.5,288.1 L191.3,286.5 L191.4,286.4 L191.5,286.4 L191.5,286.3 L191.6,286.3 L191.8,286.1 L192.2,285.7 L192.3,285.6 L192.1,285.5 L191.8,285.2 L191.7,284.9 L191.6,284.7 L191.6,284.7 L191.5,284.4 L191.4,283.8 L191.3,283.6 L191.3,282.9 L191.3,282.8 L191.2,282.7 L191.2,282.5 L191.1,282.4 L190.7,279.8 L190.6,279.4 L190.6,279.2 L190.3,278.7 L189.9,278.3 L189.8,278.0 L189.7,277.9 L189.0,277.3 L188.7,277.0 L188.3,276.6 L188.1,276.3 L187.7,275.4 L187.3,274.4 L187.2,274.2 L187.1,274.0 L186.8,273.6 L186.7,273.5 L186.3,273.2 L185.7,273.0 L185.4,272.9 L185.1,272.9 L184.9,272.9 L184.6,273.0 L183.9,273.2 L183.8,273.3 L183.6,273.2 L183.4,273.2 L183.2,273.1 L182.4,272.5 L181.3,271.6 L181.3,271.5 L180.9,271.3 L180.5,271.1 L179.8,270.8 L179.3,270.7 L179.0,270.7 L178.5,270.6 L178.0,270.6 L177.5,270.6 L176.7,270.7 L176.4,270.8 L176.1,270.9 L176.0,270.8 L176.1,270.2 L176.2,269.2 L176.3,268.8 L176.4,268.6 L176.5,268.4 L176.7,268.3 L177.0,268.1 L177.2,267.9 L177.5,267.9 L177.8,267.8 L178.7,267.8 L181.4,267.8 L181.6,267.8 L182.1,267.6 L182.5,267.3 L182.6,267.3 L182.9,266.8 L183.0,266.6 L183.1,266.4 L183.1,266.2 L183.1,265.9 L183.0,265.6 L183.0,265.5 L182.8,265.3 L181.4,264.0 L181.2,263.7 L181.0,263.5 L180.7,262.8 L180.6,262.5 L180.5,262.1 L180.5,261.9 L180.6,261.5 L180.8,261.2 L181.0,260.9 L181.2,260.7 L181.4,260.6 L181.7,260.5 L182.4,260.3 L182.7,260.1 L183.5,260.1 L183.7,260.0 L183.8,259.8 L183.9,259.7 L184.0,259.4 L184.0,259.1 L183.9,258.6 L183.6,257.9 L183.3,257.2 L183.2,256.9 L183.2,256.6 L183.2,256.3 L183.7,254.3 L183.8,254.2 L184.7,252.6 L184.8,252.5 L184.9,252.3 L185.4,251.9 L185.5,251.8 L185.6,251.7 L185.5,251.6 L185.5,251.6 L185.3,251.6 L184.4,252.6 L183.3,253.8 L183.1,254.1 L182.0,256.2 L181.9,256.5 L181.7,257.2 L181.6,257.5 L181.6,257.8 L181.7,258.1 L181.7,258.2 L181.7,258.4 L181.5,258.5 L181.3,258.5 L181.1,258.4 L180.9,258.3 L180.7,258.3 L180.6,258.3 L180.0,258.5 L178.5,259.1 L177.8,259.3 L177.3,259.6 L177.1,259.7 L177.0,259.8 L176.9,259.8 L176.8,259.8 L176.7,259.7 L176.7,259.6 L176.7,259.5 L176.8,259.4 L178.4,258.5 L178.7,258.3 L178.9,258.2 L179.2,257.9 L179.4,257.6 L179.5,257.3 L179.7,256.6 L179.7,256.3 L179.8,255.9 L180.1,255.5 L180.5,254.6 L180.7,254.2 L180.7,254.1 L180.8,253.6 L180.9,253.4 L181.1,253.1 L181.2,253.0 L181.2,252.4 L181.2,252.1 L181.2,251.6 L181.3,251.5 L181.3,251.3 L182.3,249.2 L182.5,248.9 L182.7,248.6 L183.6,247.6 L183.8,247.5 L184.1,247.3 L184.8,247.1 L184.9,247.0 L185.0,246.9 L185.2,246.6 L185.4,246.5 L185.5,246.4 L185.9,246.3 L186.5,246.2 L186.7,246.2 L186.9,246.1 L187.2,245.9 L187.3,245.9 L187.5,245.9 L189.3,246.0 L189.3,246.0 L189.5,245.9 L189.7,245.7 L189.7,245.5 L190.0,244.7 L190.2,244.4 L190.3,244.2 L190.6,244.0 L191.1,243.5 L191.4,243.0 L191.6,242.8 L191.8,242.5 L191.9,242.2 L192.1,241.5 L192.1,241.1 L192.0,241.0 L192.0,240.9 L192.0,240.8 L191.9,240.3 L192.0,239.9 L192.0,239.8 L191.9,239.2 L192.1,239.1 L193.0,238.4 L193.7,237.7 L193.9,237.6 L194.1,237.5 L194.5,237.1 L194.5,237.1 L194.7,237.0 L194.8,236.9 L195.3,236.7 L195.7,236.5 L197.0,235.7 L197.5,235.3 L197.9,234.9 L198.1,234.6 L198.3,234.4 L198.4,234.3 L198.6,234.2 L199.1,234.2 L199.4,234.1 L199.8,234.0 L200.4,233.8 L200.5,233.8 L200.6,233.8 L200.7,233.8 L200.9,233.8 L201.0,233.8 L201.1,233.7 L201.1,233.7 L201.0,233.6 L200.9,233.4 L200.9,233.3 L200.8,232.9 L200.3,232.1 L200.0,231.6 L199.8,231.5 L199.8,231.5 L199.0,231.1 L198.5,230.9 L198.2,230.8 L197.5,230.5 L197.1,230.3 L196.6,229.9 L196.4,229.8 L196.2,229.6 L196.1,229.4 L196.0,229.2 L196.0,228.7 L195.9,228.5 L195.7,228.1 L195.6,227.9 L195.1,227.4 L193.9,226.1 L193.5,225.4 L193.3,225.1 L193.2,225.0 L193.0,224.8 L192.8,224.6 L192.0,224.2 L189.9,222.7 L189.8,222.6 L189.6,222.4 L189.5,222.1 L189.4,221.9 L189.4,221.7 L189.6,220.8 L189.6,220.6 L189.6,220.5 L189.5,220.4 L189.4,220.3 L189.3,220.4 L189.2,220.4 L188.8,220.7 L188.7,220.7 L188.6,220.7 L188.5,220.7 L188.4,220.5 L188.3,219.9 L188.1,219.5 L188.0,219.3 L187.6,219.0 L187.1,218.7 L186.9,218.5 L186.8,218.4 L186.7,218.2 L186.7,217.8 L186.6,217.7 L186.6,217.6 L186.5,217.6 L186.4,217.6 L186.3,217.7 L186.1,217.8 L186.0,217.7 L185.0,217.3 L184.8,217.2 L184.5,217.0 L183.4,216.1 L183.2,215.9 L183.1,215.5 L183.0,215.1 L182.9,213.8 L182.8,213.7 L182.8,213.6 L182.6,213.5 L182.4,213.5 L182.3,213.5 L182.2,213.6 L182.1,213.7 L182.0,213.8 L181.8,214.7 L181.7,214.9 L181.5,215.0 L181.3,215.1 L181.0,215.1 L180.0,215.2 L178.8,215.3 L178.6,215.3 L178.2,215.6 L177.9,215.7 L177.6,215.8 L177.2,215.8 L176.9,215.7 L176.5,215.6 L176.1,215.5 L175.8,215.2 L175.6,215.0 L175.4,214.8 L175.2,214.5 L175.0,213.9 L174.5,212.4 L174.3,211.9 L174.1,211.8 L174.0,211.7 L173.8,211.6 L173.7,211.6 L173.5,211.6 L173.4,211.7 L173.3,211.8 L173.2,212.0 L173.1,212.2 L173.1,212.5 L173.1,212.8 L173.3,213.5 L173.3,213.7 L173.3,213.8 L173.2,213.9 L172.8,214.1 L172.6,214.4 L172.4,214.7 L172.1,215.3 L171.9,215.5 L171.7,215.7 L171.4,215.8 L171.1,215.9 L170.8,215.9 L170.5,215.8 L170.3,215.7 L169.6,215.2 L169.4,215.1 L169.3,214.8 L169.1,214.5 L168.9,214.2 L168.8,213.8 L168.7,213.4 L168.7,212.8 L168.6,212.1 L168.2,210.1 L167.9,207.6 L167.8,207.2 L167.7,207.0 L167.6,206.9 L167.4,206.6 L166.9,206.1 L166.7,206.1 L166.5,205.9 L166.0,205.9 L165.8,205.8 L165.5,205.5 L165.3,205.4 L165.2,205.4 L165.0,205.4 L164.9,205.5 L164.7,205.7 L164.7,205.8 L164.7,206.0 L164.9,206.3 L164.9,206.5 L164.9,206.6 L164.9,206.7 L164.8,206.8 L164.7,206.8 L164.2,206.9 L163.4,207.2 L163.1,207.3 L162.8,207.3 L162.5,207.3 L162.1,207.3 L161.8,207.2 L161.4,207.1 L161.2,207.0 L161.0,207.0 L160.6,206.8 L160.0,206.5 L159.9,206.5 L159.5,206.3 L159.0,206.1 L158.9,206.0 L158.3,205.9 L158.1,205.9 L158.0,205.9 L158.0,205.9 L157.8,205.9 L157.7,205.8 L157.6,205.7 L157.5,205.6 L157.5,205.5 L157.4,205.5 L157.4,205.3 L157.7,204.6 L157.9,204.4 L158.0,204.1 L158.2,203.8 L158.3,203.7 L158.4,203.4 L158.4,203.2 L158.7,201.7 L158.9,200.9 L158.9,200.5 L159.0,199.6 L158.9,198.0 L158.9,197.7 L158.9,197.3 L159.0,197.0 L159.1,196.7 L159.4,196.3 L159.7,195.9 L160.1,195.4 L160.3,195.2 L160.6,195.0 L160.7,194.9 L160.8,194.8 L160.9,194.7 L160.9,194.5 L160.9,194.3 L160.8,194.2 L160.7,194.1 L160.5,194.1 L160.3,194.0 L160.0,193.9 L159.6,193.8 L159.2,193.8 L159.0,193.8 L158.7,193.8 L158.3,193.9 L157.8,193.9 L157.3,193.9 L156.9,193.9 L156.6,193.7 L156.3,193.5 L156.1,193.3 L155.6,192.7 L155.3,192.3 L155.3,192.1 L155.2,191.7 L155.2,191.4 L155.2,191.2 L155.4,189.9 L155.6,189.4 L155.7,189.1 L155.8,188.9 L156.1,188.4 L156.5,188.0 L157.7,186.7 L157.9,186.4 L157.9,186.2 L158.0,186.0 L158.0,185.9 L157.9,185.7 L157.8,185.5 L157.6,185.1 L157.3,184.8 L156.4,184.0 L155.8,183.4 L155.4,183.1 L155.3,183.1 L155.0,183.0 L154.3,182.9 L154.1,182.9 L153.9,182.8 L153.7,182.6 L153.6,182.6 L153.5,182.3 L153.4,182.1 L153.4,181.9 L153.4,181.7 L153.5,181.4 L153.8,180.7 L153.9,180.6 L154.3,179.7 L154.5,179.2 L154.6,178.8 L154.6,178.3 L154.6,177.7 L154.5,177.3 L154.3,176.5 L154.3,176.1 L154.3,175.9 L154.4,175.6 L154.6,174.8 L155.2,173.0 L155.2,172.6 L155.2,172.3 L155.4,172.2 L155.4,172.0 L155.3,171.8 L155.4,171.8 L155.6,171.6 L155.7,171.6 L155.9,171.6 L156.0,171.7 L156.5,172.2 L156.8,172.3 L158.0,172.8 L158.1,172.8 L158.3,172.9 L159.2,173.2 L159.3,173.4 L159.4,173.5 L159.8,174.1 L160.8,175.1 L161.1,175.4 L161.1,175.4 L161.8,175.6 L162.0,175.7 L162.1,175.9 L162.2,176.0 L162.2,176.3 L162.2,176.7 L162.2,176.9 L162.2,177.1 L162.4,178.0 L162.5,178.3 L162.5,178.7 L162.7,179.2 L162.8,179.3 L163.1,179.3 L163.5,179.2 L164.0,179.0 L166.0,178.4 L167.2,178.1 L167.3,178.1 L167.4,178.1 L167.5,178.1 L167.6,178.2 L167.6,178.3 L167.6,178.4 L167.5,178.7 L167.5,178.8 L167.7,179.0 L167.8,179.1 L168.0,179.2 L168.1,179.2 L168.2,179.1 L168.3,178.9 L168.7,178.5 L168.9,178.3 L169.7,177.9 L170.0,177.8 L170.2,177.8 L170.5,177.8 L170.7,177.9 L170.9,178.0 L171.0,178.1 L171.0,178.2 L171.1,178.3 L171.2,178.8 L171.3,179.0 L171.4,179.0 L171.6,179.0 L171.6,179.0 L171.9,178.6 L172.2,178.4 L172.3,178.3 L172.4,178.2 L173.2,177.8 L173.5,177.7 L173.7,177.7 L173.9,177.8 L174.1,177.9 L174.3,178.0 L175.5,178.0 L175.7,178.1 L175.8,178.2 L175.8,178.3 L176.0,179.1 L176.2,179.4 L176.3,179.5 L176.4,179.5 L176.6,179.5 L176.8,179.3 L176.8,179.2 L176.8,178.9 L176.8,178.8 L176.8,177.7 L176.9,177.3 L177.0,177.0 L177.1,176.8 L177.3,176.6 L177.6,176.4 L178.2,176.2 L178.3,176.2 L178.4,176.1 L178.6,176.2 L178.8,176.2 L178.8,176.1 L178.8,176.1 L179.1,176.2 L179.2,176.3 L179.5,176.7 L179.6,177.0 L179.8,177.3 L179.9,177.4 L180.1,177.5 L180.3,177.6 L180.4,177.7 L180.9,178.1 L181.2,178.3 L181.3,178.4 L181.4,178.9 L181.5,179.0 L181.6,179.1 L181.7,179.1 L181.8,179.1 L181.9,179.0 L182.1,178.9 L182.2,178.9 L182.3,178.9 L182.5,179.0 L183.2,179.4 L183.3,179.5 L183.3,179.9 L183.3,180.0 L183.4,180.1 L183.5,180.1 L183.6,180.1 L183.8,180.0 L184.0,179.9 L184.1,179.9 L184.4,180.0 L184.6,179.9 L184.8,179.9 L185.0,179.8 L185.8,179.9 L186.6,180.0 L186.9,180.1 L187.1,180.1 L187.6,180.1 L188.5,180.1 L188.7,180.1 L188.9,180.2 L189.1,180.4 L189.1,180.8 L189.2,180.8 L189.3,180.8 L189.4,180.8 L189.5,180.7 L189.7,180.3 L189.9,180.1 L190.3,179.9 L190.7,179.6 L191.0,179.6 L191.4,179.6 L192.1,179.5 L192.4,179.5 L193.3,179.7 L193.5,179.8 L193.7,179.9 L194.1,180.3 L194.3,180.4 L194.7,180.3 L195.0,180.3 L195.4,180.4 L195.6,180.6 L195.8,180.7 L195.9,180.8 L196.7,181.0 L196.9,181.0 L197.3,181.1 L197.7,181.3 L198.0,181.5 L198.2,181.6 L198.5,181.7 L198.9,181.7 L199.3,181.7 L199.6,181.7 L199.8,181.8 L200.0,182.0 L200.2,182.1 L200.3,182.1 L200.6,181.9 L200.9,181.9 L201.1,181.9 L201.6,182.0 L202.0,182.1 L202.6,182.2 L202.8,182.2 L203.4,182.1 L203.7,182.1 L204.0,182.2 L204.1,182.2 L204.7,182.1 L205.2,181.8 L205.4,181.8 L205.7,181.7 L206.0,181.6 L206.3,181.4 L206.9,181.2 L207.1,181.1 L207.5,181.0 L208.2,180.9 L208.7,180.7 L209.1,180.7 L209.4,180.6 L209.6,180.5 L209.9,180.2 L210.2,179.9 L210.4,179.8 L211.3,179.9 L212.1,180.0 L212.8,180.0 L213.2,180.0 L213.3,179.9 L213.9,179.3 L214.2,179.1 L214.4,179.0 L214.5,178.9 L214.6,178.9 L214.8,179.0 L215.3,179.4 L215.6,179.7 L215.8,179.8 L215.9,179.8 L216.4,179.9 L216.9,179.9 L217.4,179.9 L217.6,179.8 L217.9,179.6 L218.0,179.4 L218.2,179.1 L218.3,179.0 L218.4,179.0 L218.5,179.0 L218.6,179.0 L218.7,179.1 L218.8,179.3 L219.0,179.6 L219.1,179.8 L219.4,180.0 L219.8,180.2 L219.8,180.3 L220.0,180.4 L220.3,180.6 L220.4,180.7 L220.5,180.7 L220.5,180.7 L220.7,180.7 L220.9,180.7 L221.3,180.3 L221.6,180.1 L222.0,179.9 L222.2,179.7 L222.5,179.5 L222.9,178.8 L223.1,178.6 L223.3,177.9 L223.4,177.7 L223.6,177.6 L223.7,177.5 L223.9,177.5 L224.8,177.3 L225.1,177.3 L225.8,177.3 L227.6,177.4 L227.8,177.4 L228.0,177.3 L228.4,177.2 L228.8,177.0 L230.4,175.8 L230.8,175.4 L231.6,174.6 L231.8,174.4 L233.7,173.5 L234.0,173.4 L234.9,173.1 L236.1,172.7 L236.8,172.5 L237.2,172.4 L239.9,171.9 L241.1,171.7 L242.5,171.5 L242.8,171.4 L243.1,171.2 L244.2,170.0 L244.4,169.9 L244.6,169.8 L244.9,169.7 L245.6,169.5 L245.9,169.4 L246.1,169.3 L246.4,169.1 L246.8,168.7 L247.1,168.4 L247.2,168.1 L247.3,167.9 L247.3,167.7 L247.3,166.9 L247.3,166.8 L247.3,166.6 L247.3,166.0 L247.3,166.0 L247.3,165.8 L247.2,165.5 L247.2,165.3 L247.2,165.1 L247.3,164.8 L247.6,164.1 L247.8,163.5 L248.1,162.9 L248.1,162.7 L248.2,162.7 L248.4,162.6 L248.7,162.4 L249.0,162.4 L249.5,162.3 L249.8,162.2 L250.2,162.2 L250.4,162.2 L250.9,162.3 L251.1,162.4 L251.8,162.4 L252.2,162.4 L252.4,162.5 L252.7,162.5 L252.7,162.6 L252.9,162.6 L252.9,162.5 L253.1,162.5 L253.4,162.5 L253.7,162.5 L253.7,162.3 L253.6,161.8 L253.5,161.6 L253.4,161.0 L253.2,160.5 L252.8,159.7 L252.7,159.4 L252.5,159.1 L252.3,158.8 L251.9,158.2 L251.7,158.0 L251.5,157.5 L251.3,157.4 L251.2,157.2 L251.1,156.8 L251.0,156.2 L251.1,155.4 L251.1,155.0 L251.2,154.5 L251.3,154.1 L251.4,153.9 L251.4,153.8 L251.4,153.6 L251.4,153.5 L251.1,153.0 L250.6,152.3 L250.5,151.8 L250.4,151.4 L250.2,150.7 L250.1,150.5 L249.6,150.0 L249.4,149.9 L249.2,149.9 L249.0,149.8 L248.6,149.4 L248.2,149.2 L247.8,149.1 L247.3,148.8 L247.0,148.5 L245.9,147.5 L245.8,147.3 L245.6,147.0 L245.5,146.5 L245.5,146.0 L245.5,145.7 L245.6,145.4 L246.0,144.2 L246.0,144.0 L245.9,143.7 L245.9,143.6 L245.9,143.4 L245.9,143.2 L245.7,142.9 L245.5,142.6 L245.3,142.4 L245.1,142.3 L245.0,142.1 L244.9,141.9 L244.8,141.6 L244.9,141.2 L245.0,140.7 L244.9,139.7 L245.0,139.3 L245.0,138.9 L244.9,138.4 L244.9,138.1 L244.9,137.9 L245.0,137.7 L245.1,137.6 L245.5,137.2 L245.9,136.9 L246.4,136.6 L246.4,136.5 L246.5,136.4 L246.6,136.1 L246.7,136.0 L246.8,135.8 L246.8,135.6 L246.8,135.4 L246.6,135.0 L246.1,133.8 L246.1,133.4 L246.0,133.3 L245.8,133.2 L245.5,132.8 L244.8,132.1 L244.0,131.2 L243.6,130.9 L243.3,130.6 L242.9,130.4 L242.8,130.3 L242.7,130.3 L242.5,130.4 L242.3,130.4 L242.2,130.3 L242.1,130.2 L242.1,130.0 L242.2,129.9 L242.4,129.7 L242.4,129.4 L242.7,128.8 L243.1,127.4 L243.1,126.9 L243.1,126.2 L243.2,125.8 L243.2,125.3 L243.5,123.7 L243.6,123.2 L243.7,123.1 L244.5,122.1 L244.9,121.7 L245.4,121.1 L245.6,121.0 L245.9,120.8 L246.3,120.6 L246.5,120.6 L246.6,120.4 L246.7,120.3 L246.9,119.8 L247.0,119.7 L247.5,119.2 L247.5,119.2 L247.5,119.0 L247.5,118.7 L247.1,117.8 L247.0,117.6 L246.8,117.4 L246.7,117.2 L246.6,117.0 L246.6,116.9 L246.6,116.6 L247.2,115.5 L247.3,115.3 L247.5,115.2 L248.0,115.1 L248.4,114.7 L248.8,114.5 L249.2,114.4 L249.3,114.4 L249.5,114.4 L249.7,114.6 L250.0,114.7 L250.2,114.7 L250.4,114.6 L250.5,114.6 L250.8,114.4 L251.0,114.3 L251.1,114.1 L251.3,114.0 L251.3,113.6 L251.4,113.4 L251.5,113.2 L251.5,113.0 L251.4,112.8 L250.8,112.1 L250.3,111.7 L250.2,111.5 L250.1,111.0 L250.0,110.5 L250.0,110.2 L250.0,109.9 L250.0,109.4 L250.1,109.1 L250.0,108.8 L249.9,108.2 L249.5,107.4 L249.5,107.2 L249.5,106.8 L249.6,106.7 L249.7,106.5 L250.1,106.2 L250.5,106.0 L250.6,105.9 L250.8,105.9 L251.1,105.8 L251.9,105.5 L252.1,105.3 L252.2,105.0 L252.3,104.6 L252.3,104.4 L251.9,103.3 L251.9,103.2 L251.5,102.8 L251.5,102.7 L251.5,102.7 L251.5,102.5 L251.5,102.5 L251.7,102.2 L251.7,102.1 L251.7,102.0 L251.6,101.9 L251.3,101.9 L250.7,101.9 L250.3,101.9 L250.1,101.8 L250.0,101.7 L249.8,101.4 L249.7,101.3 L249.5,101.1 L249.1,101.0 L248.8,100.9 L248.7,100.9 L248.5,101.0 L248.4,101.2 L248.2,101.3 L247.9,101.4 L247.0,101.8 L246.7,102.0 L246.3,102.3 L245.8,102.5 L245.4,102.7 L245.3,102.7 L245.2,102.7 L245.1,102.7 L245.1,102.6 L245.1,102.5 L245.1,102.2 L245.1,101.8 L245.1,101.2 L245.1,101.0 L245.4,100.3 L245.7,99.3 L245.9,98.9 L246.1,98.5 L246.6,97.9 L246.7,97.7 L247.0,97.6 L247.5,97.0 L248.3,95.9 L248.8,95.4 L249.3,94.7 L249.5,94.3 L249.6,94.0 L249.7,93.7 L249.8,93.2 L249.7,92.1 L249.4,90.9 L249.4,90.9 L249.3,90.8 L249.3,90.6 L249.2,90.4 L249.1,89.9 L249.1,89.7 L249.1,89.6 L249.1,89.5 L249.1,89.4 L249.0,89.5 L248.9,89.5 L248.8,89.5 L248.4,89.5 L248.3,89.5 L248.3,89.3 L248.3,89.2 L248.2,88.9 L248.1,88.7 L248.0,88.7 L247.9,88.6 L247.8,88.6 L247.6,88.7 L247.3,88.9 L247.2,88.9 L247.0,88.9 L246.9,88.9 L246.8,88.8 L246.8,88.8 L246.9,88.6 L246.9,88.6 L246.8,88.5 L246.4,88.6 L246.2,87.8 L246.1,87.5 L246.0,87.3 L246.0,87.2 L246.1,87.0 L246.2,86.7 L246.1,86.3 L246.0,86.1 L245.9,86.0 L245.8,85.9 L245.7,85.9 L245.2,85.9 L245.0,85.8 L244.5,85.4 L244.2,85.1 L244.0,84.8 L243.8,84.6 L243.6,84.5 L242.9,84.4 L242.8,84.3 L242.8,84.2 L242.6,84.0 L242.6,83.8 L242.7,83.7 L242.8,83.6 L242.8,83.5 L242.8,83.4 L242.5,83.0 L242.4,82.6 L242.4,82.5 L242.4,82.3 L242.4,82.2 L242.0,81.5 L241.8,81.4 L241.5,81.2 L241.3,81.0 L241.3,81.0 L241.0,80.9 L240.7,80.7 L240.6,80.7 L240.4,80.7 L240.3,80.7 L239.7,80.6 L239.4,80.5 L239.3,80.4 L238.9,80.1 L238.8,80.0 L238.8,79.8 L238.7,79.6 L238.5,79.5 L238.2,79.1 L238.2,79.0 L238.2,78.8 L238.1,78.6 L238.0,78.5 L237.8,78.4 L237.8,78.3 L237.6,77.9 L237.3,77.5 L237.2,77.4 L237.1,77.4 L236.9,77.3 L236.7,77.1 L236.6,77.0 L236.5,76.8 L236.5,76.6 L236.5,76.3 L236.5,76.3 L236.6,76.0 L236.6,76.0 L236.6,75.8 L236.5,75.7 L236.4,75.5 L236.3,75.3 L236.3,75.1 L236.3,75.0 L236.1,74.7 L236.0,74.3 L235.8,74.2 L235.6,74.1 L234.5,73.7 L234.3,73.7 L234.1,73.8 L234.0,73.7 L233.8,73.7 L233.7,73.5 L233.7,73.4 L233.8,72.9 L233.8,72.7 L233.7,72.5 L233.4,72.1 L233.2,71.9 L232.9,71.6 L232.7,71.6 L232.6,71.6 L232.5,71.6 L232.1,72.0 L232.0,72.0 L231.9,72.0 L231.8,71.9 L231.5,71.6 L231.4,71.5 L231.2,71.5 L231.1,71.4 L231.0,71.3 L230.9,71.2 L230.9,71.0 L230.8,70.9 L230.7,70.8 L230.6,70.8 L230.3,70.7 L229.9,70.6 L229.3,70.2 L228.8,70.1 L228.2,70.1 L228.1,70.1 L228.0,70.0 L228.0,69.9 L228.0,69.7 L228.1,69.4 L228.0,69.0 L227.9,68.9 L227.6,68.7 L227.1,68.3 L226.9,68.1 L226.7,67.8 L226.6,67.7 L226.5,67.3 L226.5,67.2 L226.5,67.1 L226.6,67.1 L226.7,67.0 L227.5,66.9 L227.9,66.9 L228.0,66.9 L228.1,66.8 L228.2,66.8 L228.2,66.6 L228.1,66.3 L228.1,65.7 L228.1,65.7 L228.3,65.5 L228.3,65.4 L228.3,65.3 L228.3,65.2 L228.2,65.0 L227.9,64.8 L227.8,64.7 L227.8,64.6 L227.8,64.6 L228.0,64.3 L228.1,64.2 L228.2,64.1 L228.3,64.1 L228.9,64.0 L229.1,63.9 L229.3,63.9 L229.4,63.8 L229.4,63.6 L229.5,63.2 L229.6,62.8 L229.6,62.3 L229.5,62.2 L229.2,61.7 L229.2,61.6 L229.2,61.5 L229.4,61.4 L229.7,61.4 L229.9,61.3 L229.9,61.2 L229.9,61.1 L230.0,60.7 L230.0,60.6 L230.1,60.4 L230.2,60.4 L230.5,60.5 L230.7,60.5 L230.8,60.4 L230.9,60.4 L231.0,60.2 L231.1,60.1 L231.9,60.1 L232.2,60.1 L232.4,60.1 L232.5,60.2 L232.6,60.2 L232.6,60.3 L232.6,60.4 L232.6,60.6 L232.6,60.7 L232.6,60.8 L232.7,60.8 L232.8,60.8 L232.8,60.8 L232.9,60.6 L232.9,60.5 L232.8,60.3 L232.6,60.0 L232.5,59.9 L232.4,59.8 L232.2,59.8 L231.0,59.7 L230.6,59.8 L230.5,59.8 L230.1,59.7 L229.9,59.6 L229.8,59.7 L229.6,59.8 L229.5,60.0 L229.5,60.2 L229.4,60.3 L229.3,60.3 L229.2,60.3 L229.1,60.1 L229.0,60.0 L228.9,60.0 L228.8,60.0 L228.7,60.1 L228.6,60.1 L228.5,60.4 L227.9,60.9 L227.5,61.4 L227.5,61.5 L227.5,61.6 L227.7,62.1 L227.7,62.2 L227.6,62.3 L227.6,62.3 L227.4,62.3 L227.1,62.3 L226.0,62.2 L225.8,62.2 L225.6,62.3 L225.4,62.4 L225.2,62.5 L224.9,63.1 L224.7,63.3 L224.6,63.4 L224.3,63.5 L223.7,63.5 L223.5,63.5 L223.2,63.4 L223.1,63.4 L223.0,63.4 L222.8,63.4 L222.6,63.3 L222.3,63.3 L222.0,63.4 L221.5,63.6 L221.0,63.7 L220.7,63.9 L220.5,64.0 L220.3,64.1 L220.0,64.4 L219.9,64.5 L219.8,64.5 L219.7,64.5 L219.6,64.4 L219.5,64.2 L219.3,64.0 L219.0,63.4 L219.0,63.3 L218.8,63.2 L218.7,63.1 L218.6,63.1 L218.4,63.2 L218.3,63.3 L218.1,63.5 L218.1,63.6 L218.0,63.6 L217.9,63.6 L217.8,63.6 L217.6,63.3 L217.3,63.2 L217.2,63.1 L217.2,63.0 L217.3,62.9 L217.4,62.7 L217.5,62.6 L217.5,62.5 L217.5,62.3 L217.5,62.0 L217.4,61.8 L217.4,61.6 L217.2,61.3 L217.1,61.1 L217.1,60.8 L217.1,60.7 L217.1,60.6 L217.2,60.3 L217.6,59.7 L217.8,59.2 L217.8,59.1 L217.8,59.0 L217.8,58.8 L217.8,58.7 L217.7,58.4 L217.4,57.9 L217.3,57.8 L217.3,57.3 L217.3,57.1 L217.3,56.8 L217.4,56.5 L217.7,56.2 L217.8,56.1 L218.1,55.8 L218.2,55.8 L218.3,55.6 L218.5,55.0 L218.5,54.9 L218.4,54.7 L218.2,54.4 L218.1,54.3 L218.0,54.2 L217.8,54.2 L217.7,54.1 L217.6,54.0 L217.7,53.9 L217.7,53.8 L217.8,53.7 L218.1,53.7 L218.2,53.6 L218.3,53.5 L218.3,53.0 L218.6,52.5 L218.6,52.0 L218.6,51.8 L218.3,51.3 L218.3,51.2 L218.3,50.9 L218.5,50.6 L218.5,50.4 L218.4,50.2 L218.4,50.0 L218.4,49.8 L218.6,49.5 L218.8,49.0 L218.9,48.9 L218.9,48.5 L218.9,48.4 L218.7,48.1 L218.6,47.9 L218.4,47.3 L218.3,47.2 L218.0,46.8 L217.9,46.7 L217.9,46.5 L217.9,46.2 L217.8,45.7 L217.7,45.3 L217.7,45.2 L217.6,45.1 L217.6,45.1 L217.6,45.0 L217.7,44.6 L217.8,44.2 L217.9,44.0 L217.6,43.2 L217.7,42.3 L217.6,42.1 L217.5,41.9 L217.2,41.3 L216.6,40.4 L216.4,40.1 L216.3,39.8 L216.2,39.6 L216.1,39.1 L216.0,38.4 L216.0,38.0 L215.9,37.9 L215.8,37.4 L215.7,37.2 L215.6,37.1 L215.4,37.0 L214.9,36.7 L214.6,36.4 L214.1,36.1 L213.7,36.0 L212.7,35.9 L212.4,35.9 L211.8,35.9 L211.3,35.9 L210.9,35.8 L210.7,35.7 L210.6,35.7 L210.6,35.7 L210.5,35.6 L210.4,35.5 L210.1,35.4 L210.0,35.3 L209.9,35.2 L209.8,34.9 L209.7,34.7 L209.4,34.5 L209.0,34.3 L208.7,34.1 L208.5,34.0 L208.0,33.9 L207.8,33.9 L207.7,33.8 L207.5,33.2 L207.4,32.9 L207.2,32.8 L207.0,32.7 L206.9,32.7 L206.6,32.9 L206.3,32.9 L206.1,33.0 L205.5,33.0 L205.1,32.9 L204.6,32.8 L204.2,32.7 L204.1,32.7 L203.7,32.6 L203.6,32.4 L203.6,32.4 L203.8,32.2 L203.8,32.0 L203.8,31.8 L203.8,31.4 L203.8,31.2 L203.9,31.0 L204.6,29.9 L205.2,28.9 L205.4,28.5 L205.7,28.1 L206.2,27.6 L206.5,27.3 L207.0,26.9 L207.4,26.6 L207.9,26.3 L208.1,26.2 L208.3,25.9 L208.4,25.8 L208.4,25.7 L208.3,25.6 L208.3,25.6 L208.1,25.5 L207.9,25.6 L207.7,25.6 L207.3,25.3 L207.2,25.3 L207.1,25.4 L206.7,25.7 L206.5,26.0 L206.5,26.0 L206.4,25.9 L206.4,25.8 L206.4,25.8 L206.7,25.6 L206.8,25.4 L207.0,25.1 L207.2,25.0 L207.7,24.9 L208.0,24.7 L208.2,24.6 L208.4,24.4 L208.5,24.2 L208.6,23.8 L208.7,23.6 L208.8,23.4 L209.0,23.2 L209.1,23.2 L209.2,23.3 L209.5,23.6 L209.8,23.8 L210.1,24.1 L210.6,24.4 L211.0,24.6 L211.2,24.7 L211.3,24.6 L211.8,24.3 L212.3,23.9 L212.4,23.7 L212.5,23.6 L212.6,23.4 L212.7,23.0 L212.7,22.8 L212.7,22.7 L212.6,22.5 L212.3,22.3 L212.2,22.1 L212.1,22.0 L212.1,21.8 L212.2,21.7 L212.3,21.6 L212.4,21.6 L212.5,21.6 L213.6,21.8 L213.9,21.7 L214.1,21.7 L214.3,21.5 L214.7,21.2 L214.9,21.0 L215.1,20.6 L215.3,20.4 L215.3,20.0 L215.5,19.8 L215.8,19.4 L216.2,19.2 L216.5,18.9 L217.1,18.6 L217.6,18.3 L217.7,18.1 L217.8,18.0 L218.0,17.9 L218.3,17.9 L219.6,17.2 L219.8,17.1 L220.5,16.9 L221.2,16.9 L221.4,16.8 L221.5,16.7 L221.6,16.6 L221.7,16.4 L221.6,16.1 L221.6,16.0 L221.6,15.9 L221.7,15.9 L221.8,15.8 L221.9,15.9 L222.1,15.9 L222.2,15.9 L222.5,15.4 L222.7,15.2 L222.7,15.1 L222.7,14.9 L222.4,14.5 L222.3,14.4 L222.3,14.3 L222.4,14.3 L222.5,14.3 L222.7,14.3 L222.8,14.2 L222.8,14.2 L222.9,14.1 L223.0,14.0 L223.0,13.7 L223.1,13.4 L223.1,13.1 L223.1,12.9 L222.9,12.6 L222.9,12.4 L222.9,12.3 L223.0,12.3 L223.2,12.2 L223.4,12.1 L223.5,12.0 L223.5,11.6 L223.6,11.5 L223.7,11.5 L223.8,11.5 L223.9,11.4 L225.0,10.6 L225.2,10.5 L225.5,10.3 L226.1,10.1 L226.8,9.9 L227.6,9.7 L228.1,9.6 L229.4,9.3 L229.5,9.3 L230.0,9.3 L230.4,9.4 L230.6,9.4 L230.7,9.4 L230.8,9.4 L230.9,9.3 L230.9,9.3 L230.9,9.3 L231.1,9.2 L231.2,9.1 L231.4,9.1 L231.6,9.1 L231.8,9.0 L232.2,9.0 L232.3,9.0 L232.5,9.1 L232.7,9.1 L232.8,9.1 L232.9,9.1 L233.0,9.1 L233.3,9.2 L233.4,9.2 L233.6,9.1 L233.6,9.1 L233.8,9.0 L233.9,8.9 L233.9,8.9 L234.4,8.7 L234.4,8.6 L234.4,8.5 L234.2,8.2 L234.1,8.0 L234.1,7.9 L234.0,7.4 L233.9,7.3 L233.8,7.1 L233.8,6.9 L233.7,6.4 L233.7,6.4 L233.6,6.1 L233.6,5.6 L233.6,6.1 L233.7,6.4 L233.7,6.4 L233.8,6.9 L233.8,7.1 L233.9,7.3 L234.0,7.4 L234.1,7.9 L234.1,8.0 L234.2,8.2 L234.4,8.5 L234.4,8.6 L234.4,8.7 L233.9,8.9 L233.9,8.9 L233.8,9.0 L233.6,8.5 L233.6,8.4 L233.2,7.8 L233.0,7.7 L232.8,7.6 L232.7,7.5 L232.5,7.1 L232.5,6.9 L232.4,6.7 L232.3,6.7 L232.2,6.7 L231.7,6.9 L231.2,7.0 L231.0,7.0 L230.9,7.0 L230.8,6.8 L230.8,6.7 L230.7,6.6 L230.5,6.5 L230.3,6.3 L229.9,6.6 L229.4,7.1 L229.3,7.0 L229.0,6.9 L228.6,6.8 L228.3,6.7 L228.1,6.7 L228.0,6.6 L228.0,6.5 L227.8,6.2 L227.7,6.0 L227.4,5.6 L226.6,5.1 L226.5,5.0 L226.2,4.9 L226.1,4.9 L225.9,4.9 L225.6,5.0 L224.5,5.3 L224.2,5.3 L223.9,5.4 L223.4,5.3 L222.6,5.1 L222.2,5.0 L221.9,4.9 L221.8,4.7 L221.7,4.5 L221.4,4.4 L221.1,4.3 L220.3,3.8 L220.2,3.8 L219.8,4.0 L219.6,4.0 L219.1,4.2 L218.8,4.3 L218.7,4.5 L218.6,4.5 L218.4,4.6 L218.1,5.1 L217.8,5.3 L217.8,5.1 L217.8,5.0 L217.7,4.7 L217.2,4.3 L217.0,4.2 L216.8,4.1 L216.3,4.1 L215.9,4.0 L215.4,3.9 L215.2,3.8 L214.7,3.7 L214.3,3.6 L214.0,3.4 L213.7,3.2 L213.5,3.0 L213.4,2.9 L213.4,2.8 L213.4,2.7 L213.8,2.2 L213.7,2.1 L213.6,2.2 L213.5,2.2 L213.2,2.4 L213.1,2.5 L212.9,2.7 L212.7,2.8 L212.6,2.8 L212.1,2.6 L211.9,2.6 L211.5,2.6 L211.3,2.7 L210.9,2.8 L210.7,2.9 L210.4,2.9 L209.9,2.8 L209.7,2.8 L209.5,2.9 L209.1,3.1 L208.4,3.6 L208.3,3.6 L208.0,4.0 L207.6,4.5 L207.1,4.9 L206.9,4.8 L206.9,4.7 L206.8,4.6 L204.6,2.0 L204.4,1.7 L204.2,1.4 L204.0,0.7 L203.8,0.5 L203.7,0.3 L203.6,0.2 L203.4,0.1 L203.2,0.1 L202.8,0.0 L202.6,0.0 L201.9,0.1 L201.8,0.1 L201.6,0.1" fill="transparent" id="track" stroke="black" stroke-width="2"/>
<g>
<circle cx="200.899" cy="233.316" id="wp-281/circle" r="4.000"/>
<text font-size="16.0" id="wp-281/text" text-anchor="start" x="198.288" y="251.316">
K3
</text>
<circle cx="119.716" cy="289.667" fill="Gray" id="wp-1/circle" r="5.000"/>
<text font-size="16.0" id="wp-15/text" text-anchor="start" x="54.927" y="307.667">
Oppenau
</text>
<circle cx="254.896" cy="259.848" fill="Gray" id="wp-2/circle" r="5.000"/>
<text font-size="16.0" id="wp-16/text" text-anchor="start" x="259.359" y="272.848">
Baiersbronn
</text>
<circle cx="234.951" cy="8.441" fill="Gray" id="wp-3/circle" r="5.000"/>
<text font-size="16.0" id="wp-17/text" text-anchor="start" x="232.372" y="26.441">
Gernsbach
</text>
<circle cx="171.394" cy="350.758" fill="Blue" id="wp-4/circle" r="3.000"/>
<text font-size="16.0" id="wp-5/text" text-anchor="start" x="175.783" y="348.758">
Freiersberg
</text>
<circle cx="155.196" cy="172.143" fill="Blue" id="wp-5/circle" r="3.000"/>
<text font-size="16.0" id="wp-6/text" text-anchor="start" x="121.912" y="165.143">
Seibelseckle
</text>
<circle cx="192.302" cy="285.615" fill="Blue" id="wp-6/circle" r="3.000"/>
<text font-size="16.0" id="wp-7/text" text-anchor="start" x="196.292" y="293.615">
Alexanderschanze
</text>
<circle cx="157.704" cy="205.800" fill="Blue" id="wp-7/circle" r="3.000"/>
<text font-size="16.0" id="wp-8/text" text-anchor="start" x="92.799" y="223.800">
Ruhestein
</text>
<circle cx="211.329" cy="24.629" fill="Blue" id="wp-8/circle" r="3.000"/>
<text font-size="16.0" id="wp-9/text" text-anchor="end" x="204.329" y="22.629">
Nachtigall
</text>
<circle cx="222.884" cy="63.383" fill="Blue" id="wp-9/circle" r="3.000"/>
<text font-size="16.0" id="wp-10/text" text-anchor="start" x="143.979" y="81.383">
Rote Lache
</text>
<circle cx="144.698" cy="335.355" fill="Gray" id="wp-10/circle" r="3.000"/>
<text font-size="16.0" id="wp-3/text" text-anchor="start" x="50.256" y="353.355">
Bad Peterstal
</text>
<circle cx="248.166" cy="91.360" fill="Gray" id="wp-11/circle" r="3.000"/>
<text font-size="16.0" id="wp-4/text" text-anchor="start" x="251.429" y="89.360">
Forbach
</text>
</g>
<g/>
</svg>