<svg height="400" viewBox="(0, 0, 400, 400)" width="400" xmlns="http://www.w3.org/2000/svg">
<path d="M283.9,390.0 L284.0,389.9 L284.0,389.9 L284.0,389.6 L284.0,389.3 L284.0,388.7 L284.0,388.6 L284.1,388.5 L284.2,388.4 L284.2,388.3 L284.1,388.1 L284.0,387.9 L283.7,387.7 L283.7,387.6 L283.6,387.5 L283.7,387.4 L283.8,387.1 L283.9,387.0 L284.0,387.0 L284.1,386.9 L284.8,386.8 L285.1,386.7 L285.2,386.7 L285.3,386.5 L285.4,386.4 L285.5,385.9 L285.6,385.5 L285.6,385.0 L285.5,384.8 L285.2,384.2 L285.2,384.1 L285.2,384.0 L285.3,383.9 L285.7,383.9 L285.9,383.8 L286.0,383.7 L286.0,383.6 L286.0,383.2 L286.1,383.0 L286.2,382.9 L286.3,382.9 L286.6,382.9 L286.8,382.9 L286.9,382.9 L287.0,382.8 L287.2,382.6 L287.3,382.6 L288.1,382.5 L288.5,382.5 L288.7,382.5 L288.8,382.6 L288.9,382.6 L288.9,382.7 L289.0,382.8 L288.9,383.1 L288.9,383.2 L288.9,383.3 L289.1,383.3 L289.1,383.3 L289.2,383.2 L289.2,383.1 L289.2,383.0 L289.1,382.7 L288.9,382.4 L288.8,382.3 L288.7,382.2 L288.5,382.2 L287.2,382.0 L286.8,382.2 L286.6,382.2 L286.1,382.0 L286.0,382.0 L285.8,382.0 L285.6,382.2 L285.5,382.4 L285.5,382.6 L285.4,382.7 L285.3,382.7 L285.2,382.7 L285.0,382.5 L284.9,382.4 L284.8,382.4 L284.7,382.4 L284.6,382.4 L284.5,382.5 L284.4,382.8 L283.7,383.4 L283.3,383.9 L283.2,384.0 L283.2,384.2 L283.5,384.7 L283.5,384.8 L283.4,384.9 L283.4,385.0 L283.2,385.0 L282.9,385.0 L281.6,384.8 L281.5,384.8 L281.2,384.9 L280.9,385.0 L280.8,385.2 L280.4,385.8 L280.2,386.0 L280.1,386.1 L279.8,386.2 L279.1,386.3 L278.9,386.3 L278.6,386.2 L278.4,386.2 L278.3,386.1 L278.1,386.1 L277.9,386.1 L277.5,386.1 L277.2,386.2 L276.6,386.4 L276.1,386.5 L275.7,386.7 L275.5,386.8 L275.4,387.0 L275.0,387.3 L274.9,387.3 L274.8,387.4 L274.7,387.3 L274.6,387.3 L274.4,387.1 L274.2,386.8 L273.9,386.1 L273.8,386.0 L273.6,385.9 L273.5,385.8 L273.4,385.8 L273.2,385.9 L273.1,386.0 L272.9,386.3 L272.9,386.4 L272.8,386.4 L272.7,386.4 L272.6,386.4 L272.3,386.1 L272.0,385.9 L271.9,385.9 L271.9,385.7 L272.0,385.6 L272.1,385.4 L272.2,385.3 L272.2,385.1 L272.2,385.0 L272.2,384.7 L272.2,384.4 L272.1,384.2 L271.9,383.9 L271.8,383.6 L271.7,383.3 L271.7,383.2 L271.8,383.0 L271.9,382.7 L272.3,382.1 L272.5,381.5 L272.6,381.4 L272.6,381.2 L272.6,381.1 L272.5,380.9 L272.4,380.6 L272.1,380.1 L272.0,379.9 L272.0,379.4 L272.0,379.2 L272.0,378.9 L272.1,378.6 L272.4,378.2 L272.5,378.0 L272.9,377.8 L273.0,377.7 L273.1,377.5 L273.3,376.9 L273.3,376.7 L273.2,376.5 L273.0,376.2 L272.9,376.1 L272.7,376.0 L272.5,376.0 L272.4,375.9 L272.4,375.8 L272.4,375.6 L272.5,375.5 L272.6,375.5 L272.9,375.4 L273.0,375.3 L273.1,375.2 L273.2,374.7 L273.4,374.0 L273.4,373.6 L273.4,373.4 L273.2,372.8 L273.1,372.6 L273.1,372.4 L273.3,371.9 L273.3,371.8 L273.2,371.5 L273.2,371.3 L273.2,371.1 L273.4,370.7 L273.7,370.3 L273.7,370.1 L273.8,369.7 L273.8,369.6 L273.5,369.2 L273.4,369.0 L273.2,368.4 L273.1,368.2 L272.8,367.8 L272.7,367.6 L272.6,367.5 L272.6,367.2 L272.5,366.6 L272.5,366.1 L272.4,366.1 L272.3,365.9 L272.3,365.9 L272.3,365.8 L272.5,365.4 L272.6,364.9 L272.6,364.6 L272.4,363.8 L272.4,362.8 L272.3,362.5 L272.2,362.3 L271.9,361.7 L271.2,360.7 L271.0,360.3 L270.8,360.0 L270.8,359.8 L270.7,359.2 L270.5,358.5 L270.5,358.0 L270.5,357.9 L270.3,357.4 L270.2,357.1 L270.1,357.0 L269.9,356.9 L269.3,356.6 L269.0,356.3 L268.5,356.0 L268.0,355.8 L266.9,355.7 L266.6,355.7 L265.9,355.8 L265.3,355.7 L264.9,355.6 L264.7,355.5 L264.6,355.5 L264.6,355.4 L264.4,355.4 L264.3,355.3 L264.0,355.2 L263.9,355.1 L263.8,354.9 L263.7,354.6 L263.5,354.4 L263.3,354.1 L262.8,354.0 L262.5,353.8 L262.2,353.6 L261.7,353.5 L261.5,353.5 L261.4,353.4 L261.1,352.7 L261.0,352.4 L260.8,352.2 L260.6,352.2 L260.5,352.2 L260.1,352.4 L259.8,352.4 L259.5,352.5 L258.9,352.5 L258.5,352.4 L257.9,352.3 L257.5,352.2 L257.4,352.2 L256.9,352.0 L256.8,351.9 L256.9,351.8 L257.0,351.6 L257.1,351.4 L257.1,351.2 L257.1,350.7 L257.1,350.5 L257.2,350.3 L258.0,349.1 L258.6,348.0 L258.8,347.6 L259.2,347.1 L259.7,346.6 L260.0,346.2 L260.6,345.7 L261.1,345.4 L261.5,345.1 L261.8,344.9 L262.0,344.7 L262.1,344.5 L262.1,344.4 L262.1,344.3 L262.0,344.3 L261.8,344.2 L261.5,344.3 L261.3,344.3 L260.9,344.0 L260.8,344.0 L260.7,344.1 L260.3,344.4 L260.1,344.7 L260.0,344.7 L259.9,344.7 L259.9,344.6 L259.9,344.5 L260.2,344.3 L260.4,344.1 L260.6,343.7 L260.8,343.6 L261.4,343.5 L261.7,343.4 L261.9,343.3 L262.1,343.0 L262.2,342.7 L262.3,342.3 L262.5,342.1 L262.6,341.8 L262.8,341.7 L262.9,341.7 L263.0,341.8 L263.3,342.1 L263.6,342.4 L264.0,342.6 L264.6,343.0 L265.0,343.2 L265.3,343.3 L265.4,343.2 L265.9,342.8 L266.4,342.4 L266.6,342.3 L266.7,342.1 L266.8,341.8 L266.9,341.4 L266.9,341.2 L266.9,341.1 L266.7,340.9 L266.5,340.6 L266.3,340.4 L266.3,340.3 L266.3,340.1 L266.4,340.0 L266.4,339.9 L266.6,339.8 L266.7,339.9 L267.9,340.1 L268.2,340.0 L268.5,339.9 L268.7,339.8 L269.2,339.5 L269.4,339.2 L269.6,338.8 L269.7,338.5 L269.8,338.1 L270.0,337.9 L270.4,337.5 L270.7,337.2 L271.2,336.9 L271.8,336.5 L272.3,336.2 L272.5,336.0 L272.6,335.9 L272.8,335.8 L273.1,335.7 L274.6,335.0 L274.8,334.9 L275.6,334.7 L276.3,334.6 L276.5,334.6 L276.6,334.5 L276.8,334.4 L276.8,334.2 L276.7,333.8 L276.7,333.7 L276.8,333.6 L276.8,333.5 L277.0,333.5 L277.1,333.6 L277.3,333.6 L277.4,333.5 L277.8,333.0 L277.9,332.8 L278.0,332.7 L278.0,332.5 L277.6,332.1 L277.6,331.9 L277.6,331.8 L277.6,331.8 L277.7,331.7 L277.9,331.7 L278.0,331.7 L278.1,331.7 L278.2,331.6 L278.3,331.5 L278.4,331.2 L278.4,330.8 L278.4,330.4 L278.4,330.2 L278.2,329.9 L278.1,329.7 L278.2,329.6 L278.3,329.6 L278.6,329.5 L278.7,329.4 L278.8,329.2 L278.8,328.8 L279.0,328.7 L279.1,328.7 L279.2,328.7 L279.3,328.6 L280.5,327.8 L280.8,327.6 L281.1,327.4 L281.7,327.2 L282.5,326.9 L283.4,326.7 L284.0,326.6 L285.4,326.3 L285.5,326.3 L286.1,326.3 L286.5,326.4 L286.7,326.3 L286.8,326.3 L286.9,326.3 L287.0,326.3 L287.1,326.3 L287.1,326.3 L287.3,326.1 L287.4,326.1 L287.6,326.0 L287.8,326.0 L288.1,326.0 L288.5,325.9 L288.6,325.9 L288.9,326.1 L289.0,326.1 L289.1,326.1 L289.2,326.1 L289.4,326.1 L289.7,326.2 L289.9,326.2 L290.0,326.1 L290.0,326.0 L290.3,325.9 L290.3,325.9 L290.4,325.8 L290.9,325.6 L291.0,325.5 L290.9,325.4 L290.7,325.0 L290.6,324.9 L290.6,324.7 L290.4,324.2 L290.4,324.0 L290.3,323.9 L290.2,323.6 L290.1,323.1 L290.1,323.0 L290.1,322.8 L290.0,322.2 L290.1,322.8 L290.1,323.0 L290.1,323.1 L290.2,323.6 L290.3,323.9 L290.4,324.0 L290.4,324.2 L290.6,324.7 L290.6,324.9 L290.7,325.0 L290.9,325.4 L291.0,325.5 L290.9,325.6 L290.4,325.8 L290.3,325.9 L290.3,325.9 L290.1,325.4 L290.0,325.2 L289.6,324.6 L289.4,324.5 L289.1,324.4 L289.0,324.3 L288.9,323.9 L288.8,323.7 L288.7,323.4 L288.6,323.4 L288.5,323.4 L287.9,323.6 L287.3,323.7 L287.2,323.7 L287.1,323.7 L287.0,323.5 L286.9,323.3 L286.9,323.3 L286.6,323.1 L286.4,323.0 L286.0,323.3 L285.3,323.8 L285.2,323.7 L285.0,323.6 L284.5,323.5 L284.2,323.4 L284.0,323.4 L283.9,323.3 L283.8,323.1 L283.7,322.9 L283.5,322.6 L283.1,322.1 L282.3,321.6 L282.1,321.5 L281.8,321.4 L281.7,321.4 L281.5,321.4 L281.2,321.5 L280.0,321.9 L279.6,321.9 L279.3,321.9 L278.7,321.9 L277.9,321.6 L277.5,321.5 L277.1,321.4 L276.9,321.2 L276.8,321.0 L276.5,320.8 L276.2,320.7 L275.4,320.2 L275.2,320.2 L274.8,320.4 L274.5,320.5 L274.0,320.6 L273.7,320.8 L273.6,320.9 L273.4,321.0 L273.2,321.0 L272.9,321.6 L272.6,321.8 L272.6,321.6 L272.6,321.5 L272.4,321.2 L271.9,320.8 L271.6,320.6 L271.4,320.5 L270.8,320.5 L270.5,320.4 L269.9,320.3 L269.7,320.2 L269.1,320.1 L268.7,319.9 L268.3,319.7 L268.0,319.5 L267.8,319.3 L267.7,319.2 L267.7,319.1 L267.7,319.0 L268.1,318.5 L268.0,318.3 L267.9,318.4 L267.8,318.5 L267.5,318.7 L267.4,318.8 L267.2,319.0 L266.9,319.1 L266.8,319.1 L266.2,318.9 L266.1,318.9 L265.5,318.9 L265.3,319.0 L264.9,319.1 L264.7,319.1 L264.4,319.2 L263.8,319.1 L263.6,319.1 L263.4,319.2 L262.9,319.4 L262.2,319.9 L262.1,320.0 L261.7,320.4 L261.2,320.9 L260.7,321.4 L260.5,321.3 L260.5,321.2 L260.4,321.1 L257.9,318.2 L257.7,317.8 L257.5,317.5 L257.2,316.8 L257.1,316.5 L256.9,316.3 L256.8,316.2 L256.6,316.1 L256.4,316.0 L256.0,316.0 L255.7,316.0 L255.0,316.1 L254.8,316.1 L254.6,316.1 L254.3,315.9 L254.0,315.8 L253.6,315.5 L253.4,315.3 L253.0,315.2 L252.5,315.1 L252.2,315.0 L251.7,314.8 L251.6,314.7 L250.9,314.1 L250.3,313.7 L249.9,313.5 L249.8,313.5 L249.7,313.3 L249.8,313.2 L248.9,312.9 L248.7,312.8 L248.5,312.9 L248.1,313.0 L247.5,313.3 L247.3,313.4 L247.3,313.3 L247.2,313.2 L247.1,313.1 L247.0,313.1 L246.3,313.4 L246.1,313.4 L245.9,313.4 L245.8,313.3 L245.5,313.1 L245.1,312.6 L245.0,312.6 L245.0,312.5 L244.8,312.1 L244.7,311.8 L244.7,311.5 L244.8,311.3 L244.9,311.0 L244.9,310.8 L244.9,310.6 L244.8,310.2 L244.7,310.1 L244.5,309.7 L244.3,309.6 L244.0,309.3 L244.0,309.2 L244.0,309.2 L243.9,309.2 L243.8,309.2 L243.6,309.1 L243.4,309.0 L243.2,308.7 L243.0,308.5 L243.0,308.4 L242.8,308.0 L242.7,307.7 L242.6,307.4 L242.6,307.1 L242.6,307.0 L242.6,306.8 L242.6,306.6 L242.6,306.5 L242.6,306.2 L242.6,306.1 L242.5,306.1 L242.4,305.7 L242.1,304.9 L241.9,304.5 L241.9,304.3 L241.8,304.0 L241.6,303.6 L241.3,303.1 L241.3,303.0 L241.2,302.5 L241.0,302.0 L240.8,301.9 L240.7,301.8 L240.5,301.8 L240.2,301.2 L240.1,300.6 L240.1,300.3 L240.1,300.1 L240.2,300.0 L240.3,299.9 L240.7,299.5 L241.2,299.3 L241.9,298.7 L242.2,298.5 L242.4,298.5 L242.6,298.5 L242.9,298.1 L243.0,298.1 L243.2,298.0 L243.5,297.8 L243.6,297.8 L243.7,297.6 L243.7,297.4 L243.7,297.1 L243.7,297.0 L243.6,297.0 L243.6,296.9 L243.4,296.8 L243.2,296.7 L243.0,296.8 L242.5,297.0 L242.4,297.0 L242.1,297.0 L241.8,297.0 L241.5,297.0 L241.3,297.0 L240.4,297.4 L240.3,297.4 L240.0,297.4 L239.7,297.3 L239.1,297.0 L238.9,296.8 L238.6,296.5 L238.4,296.3 L238.3,296.2 L237.8,296.1 L237.6,296.0 L237.5,295.9 L237.0,295.3 L236.8,294.9 L236.7,294.9 L236.5,295.0 L236.5,295.0 L236.3,295.0 L234.3,294.8 L233.4,294.8 L233.0,294.8 L232.3,294.9 L231.6,295.0 L231.2,295.0 L230.4,295.2 L229.7,295.5 L228.7,294.6 L228.6,294.4 L228.2,294.2 L227.6,293.9 L226.0,293.0 L225.0,292.7 L224.3,292.5 L224.0,292.5 L222.5,292.2 L222.0,292.1 L221.6,291.9 L219.8,291.6 L218.6,291.2 L218.4,291.1 L218.1,291.1 L217.8,291.2 L217.3,291.0 L216.9,290.8 L216.2,290.0 L215.3,289.0 L214.6,288.3 L214.2,287.4 L213.9,286.5 L213.8,285.8 L213.8,285.7 L213.7,285.6 L213.5,285.5 L213.4,285.5 L213.4,285.4 L213.3,285.4 L213.0,285.2 L213.0,285.1 L212.9,284.9 L212.8,284.6 L212.8,284.5 L212.6,284.1 L212.6,284.0 L212.3,283.2 L212.2,283.0 L212.0,282.8 L211.8,282.4 L211.7,282.1 L211.5,281.6 L211.3,281.2 L211.1,280.9 L210.9,280.5 L210.8,280.5 L210.7,280.4 L210.6,280.3 L210.6,280.3 L210.5,280.3 L210.0,279.8 L209.9,279.7 L209.7,279.5 L209.6,279.4 L209.3,279.0 L209.2,278.9 L209.0,278.2 L208.9,278.2 L208.6,278.1 L208.5,278.1 L208.4,278.1 L208.1,278.3 L208.0,278.1 L207.9,277.8 L207.7,277.2 L207.4,276.5 L207.2,275.5 L207.2,275.2 L206.4,273.8 L206.0,273.5 L205.8,273.3 L204.9,273.0 L204.4,272.9 L203.9,272.8 L203.8,272.7 L203.5,272.6 L203.2,272.4 L203.0,272.3 L202.9,272.2 L202.8,272.2 L202.3,272.2 L201.2,272.2 L201.2,272.1 L201.3,272.0 L201.3,271.8 L201.3,271.6 L201.1,271.6 L200.4,271.5 L200.1,271.5 L200.0,271.4 L199.2,271.3 L199.1,271.3 L198.9,271.2 L198.7,271.0 L198.6,270.9 L198.5,270.9 L198.5,270.9 L198.4,270.9 L198.3,270.9 L198.3,270.9 L198.2,270.9 L198.1,270.9 L197.3,270.1 L197.2,270.0 L197.1,270.0 L197.1,270.0 L197.0,270.1 L196.9,270.2 L196.6,270.1 L196.5,270.1 L196.5,270.1 L196.4,270.1 L196.3,270.0 L196.2,270.1 L195.3,270.4 L195.1,270.6 L195.0,270.6 L195.0,270.5 L194.6,270.7 L194.4,270.7 L194.2,270.8 L193.7,271.0 L193.6,271.0 L193.6,271.1 L193.3,271.2 L193.1,271.2 L193.0,271.3 L192.9,271.3 L192.8,271.3 L192.7,271.2 L192.1,271.1 L191.2,270.9 L191.1,270.8 L190.1,270.8 L190.0,270.8 L190.0,270.6 L190.0,270.2 L190.0,270.1 L190.0,270.1 L189.9,270.1 L189.9,270.2 L189.5,270.2 L189.5,270.1 L189.2,270.3 L189.0,270.1 L188.8,270.0 L188.0,269.5 L187.5,269.9 L187.1,270.4 L186.6,270.9 L186.5,270.8 L186.4,270.8 L186.3,270.8 L186.2,270.8 L186.1,270.9 L185.4,271.5 L184.9,271.9 L184.8,271.8 L184.5,271.4 L184.3,271.3 L184.2,271.5 L183.7,272.0 L183.0,272.6 L182.8,272.7 L182.7,272.6 L181.4,272.0 L181.3,272.0 L180.5,271.6 L179.8,271.2 L178.3,270.2 L177.6,270.9 L176.9,272.1 L176.4,272.9 L176.4,273.0 L175.9,273.5 L175.4,274.2 L175.2,274.4 L175.1,274.5 L175.1,274.5 L173.6,273.1 L173.5,273.1 L173.4,273.0 L172.1,272.1 L169.5,270.4 L168.3,269.6 L167.0,268.8 L165.8,268.2 L165.7,268.1 L165.6,268.1 L165.5,268.1 L165.5,268.1 L163.7,267.1 L162.1,266.3 L162.1,266.3 L162.0,266.3 L161.7,266.1 L160.5,265.6 L160.3,265.5 L160.2,265.5 L160.1,265.5 L160.1,265.5 L160.0,265.4 L160.0,265.3 L160.0,265.3 L159.8,265.2 L159.7,265.1 L159.3,264.8 L159.3,264.8 L159.2,264.8 L158.8,264.5 L158.7,264.4 L158.7,264.5 L158.4,264.2 L158.1,264.0 L158.0,263.9 L157.9,263.9 L157.8,263.8 L157.5,263.5 L157.5,263.5 L157.1,263.1 L156.9,263.0 L156.9,262.9 L157.0,262.9 L156.1,262.2 L154.8,261.2 L154.4,261.0 L154.1,260.8 L153.7,260.7 L152.9,260.4 L152.7,260.3 L152.6,260.3 L152.2,260.2 L152.1,260.1 L151.8,260.0 L151.6,260.0 L151.4,260.0 L151.2,260.0 L151.1,260.0 L150.9,260.0 L150.8,259.9 L150.4,259.7 L150.2,259.5 L149.7,259.1 L149.5,259.0 L149.1,258.5 L148.7,258.2 L148.6,258.0 L148.6,257.9 L148.5,257.8 L148.5,257.6 L148.5,256.8 L148.7,256.3 L148.9,255.5 L149.0,255.2 L149.1,254.9 L149.5,254.4 L149.5,254.3 L149.7,253.3 L149.6,251.8 L149.4,251.4 L149.1,250.8 L148.7,250.1 L148.2,249.4 L147.9,248.7 L147.8,248.2 L147.8,247.6 L147.8,247.3 L147.7,247.1 L147.6,246.8 L147.2,246.4 L146.9,246.0 L146.8,245.7 L146.7,245.4 L146.6,245.2 L146.6,244.7 L146.5,244.7 L146.4,244.2 L146.1,243.1 L145.9,242.5 L145.8,241.8 L145.8,241.4 L145.9,240.7 L146.0,239.9 L146.1,239.7 L146.3,239.4 L146.5,239.2 L146.6,239.2 L146.6,239.1 L146.7,239.1 L146.7,239.0 L146.6,238.9 L146.5,238.9 L146.4,238.9 L146.3,238.9 L146.2,238.8 L145.5,238.4 L144.8,237.7 L144.7,237.6 L144.2,237.3 L143.8,237.0 L143.2,236.6 L142.6,236.3 L141.7,236.0 L140.2,235.5 L138.1,234.8 L137.6,234.7 L137.1,234.5 L136.5,234.3 L135.2,233.7 L134.8,233.5 L134.5,233.4 L134.5,233.4 L132.8,232.9 L131.6,232.5 L130.3,232.1 L129.1,231.7 L128.8,231.5 L128.4,231.3 L127.6,231.0 L124.1,229.8 L121.3,228.9 L121.1,228.8 L118.3,227.9 L117.9,227.7 L117.6,227.5 L117.3,227.3 L117.0,226.9 L116.8,226.6 L116.7,226.5 L116.6,226.3 L115.1,224.3 L114.7,223.8 L114.4,223.5 L114.4,223.4 L114.3,223.3 L114.2,223.3 L113.9,223.1 L113.8,222.9 L113.7,222.9 L113.3,222.6 L112.8,222.1 L112.5,221.8 L112.2,221.4 L111.6,220.7 L111.6,220.7 L111.2,220.2 L110.5,219.5 L109.9,218.9 L109.7,218.8 L109.0,218.1 L109.4,217.8 L109.9,217.3 L110.3,216.9 L110.6,216.5 L110.9,216.1 L111.2,215.6 L111.3,215.5 L111.3,215.4 L111.4,215.4 L111.9,215.4 L112.0,215.4 L112.2,215.3 L112.3,215.2 L112.5,214.9 L112.8,214.6 L113.0,214.3 L113.2,214.2 L113.3,214.1 L113.6,214.1 L114.2,213.9 L114.4,214.0 L114.5,214.0 L114.5,214.1 L114.8,214.2 L115.2,213.7 L115.5,213.4 L115.8,213.2 L116.6,212.9 L117.8,212.3 L118.6,212.0 L119.0,211.8 L120.1,211.5 L120.2,211.4 L121.3,211.2 L121.8,211.0 L123.5,210.4 L123.7,210.3 L124.9,210.3 L125.1,210.2 L125.0,210.1 L125.1,209.9 L125.2,209.6 L125.3,209.3 L125.6,208.9 L126.4,207.9 L128.4,206.3 L130.2,204.7 L130.4,204.6 L132.7,204.2 L132.8,204.1 L133.0,204.0 L133.5,203.5 L134.2,203.0 L134.3,203.0 L134.5,202.9 L134.9,202.9 L138.9,201.7 L139.0,201.6 L139.2,201.5 L140.6,198.0 L142.1,194.6 L142.3,194.2 L143.0,192.6 L143.8,191.1 L144.3,190.3 L145.2,188.9 L145.2,188.8 L145.1,188.7 L145.1,188.6 L145.2,188.6 L145.3,188.6 L145.4,188.4 L145.5,188.2 L145.6,188.1 L146.1,188.1 L146.4,188.0 L146.7,187.8 L147.0,187.6 L147.2,187.3 L147.5,186.8 L147.7,186.4 L148.1,185.6 L148.1,185.4 L148.1,185.2 L148.1,185.0 L147.8,183.9 L147.7,183.6 L148.4,176.6 L148.4,176.4 L148.5,175.3 L148.4,175.0 L147.7,173.8 L146.6,172.5 L144.7,170.0 L144.5,169.6 L144.4,169.5 L144.3,169.1 L144.3,168.4 L144.5,167.7 L144.7,167.4 L145.0,167.1 L145.4,167.0 L147.5,166.5 L147.9,166.3 L148.0,166.2 L148.5,165.6 L149.0,165.2 L149.3,164.9 L149.6,164.7 L149.8,164.5 L150.2,164.4 L150.7,164.2 L150.9,164.1 L151.2,163.7 L151.7,163.2 L152.0,162.8 L152.2,162.6 L152.7,161.7 L153.0,161.4 L153.2,161.1 L153.4,161.0 L154.2,160.6 L155.0,160.4 L155.1,160.3 L155.3,159.9 L155.6,159.5 L155.9,159.1 L156.0,158.9 L156.0,158.4 L156.1,158.3 L156.4,158.1 L156.7,157.8 L157.1,157.4 L157.3,157.2 L157.4,156.9 L157.7,156.3 L157.8,156.2 L157.9,156.2 L158.0,156.1 L158.4,156.2 L158.7,156.3 L159.7,156.8 L160.6,157.4 L160.8,157.4 L161.1,157.4 L161.3,157.4 L161.5,157.3 L161.9,156.9 L162.1,156.9 L163.4,157.4 L163.7,157.5 L163.8,157.5 L163.9,157.5 L164.1,157.4 L164.4,157.0 L164.6,156.6 L164.9,155.7 L166.1,153.9 L166.2,153.8 L166.4,153.4 L166.4,153.2 L166.5,152.5 L166.5,152.3 L166.7,151.7 L169.6,147.9 L169.9,147.7 L170.1,147.5 L170.4,147.4 L171.8,146.7 L172.0,146.6 L172.4,146.3 L172.6,146.1 L172.9,145.7 L174.7,143.2 L176.2,141.2 L176.4,140.9 L176.7,139.8 L176.8,139.6 L177.4,138.6 L177.7,138.4 L178.3,137.9 L178.5,137.7 L178.6,137.5 L179.6,135.6 L181.3,132.3 L182.1,130.6 L183.7,127.1 L184.1,126.3 L184.1,126.1 L184.1,126.1 L184.2,125.8 L184.1,125.5 L184.0,125.4 L183.7,125.0 L183.6,124.9 L183.5,124.9 L183.4,124.9 L183.3,124.9 L183.2,125.0 L182.7,126.1 L182.6,126.2 L182.5,126.2 L182.4,126.2 L182.2,126.2 L181.3,125.9 L181.1,125.8 L181.0,125.6 L181.0,125.5 L180.7,125.3 L179.9,125.1 L179.6,124.4 L179.6,124.3 L179.5,124.2 L179.4,124.0 L179.4,123.9 L179.5,123.8 L179.4,123.7 L179.3,123.6 L179.3,123.2 L179.3,123.1 L180.3,120.3 L180.4,119.8 L180.5,119.5 L180.7,119.3 L180.7,119.2 L180.7,119.0 L181.1,118.3 L181.3,117.5 L181.4,117.4 L182.5,116.0 L182.6,115.8 L182.6,115.6 L182.6,115.3 L182.5,114.8 L182.5,114.4 L182.5,114.3 L182.6,114.2 L182.6,114.1 L182.6,114.0 L182.5,114.0 L182.5,113.8 L182.6,113.1 L182.5,111.9 L182.6,111.4 L183.0,108.9 L183.5,107.2 L183.6,106.8 L183.8,106.4 L184.0,106.2 L184.0,106.2 L184.1,106.1 L184.2,106.0 L184.3,105.9 L184.3,105.8 L184.2,105.8 L184.1,105.6 L184.1,105.6 L184.0,105.4 L184.0,104.8 L183.9,104.5 L183.9,104.5 L183.7,103.2 L183.7,102.9 L183.8,102.2 L183.8,102.1 L183.8,101.9 L183.7,101.9 L183.6,101.8 L183.3,101.7 L183.3,101.7 L183.0,101.4 L183.0,101.3 L182.9,101.0 L182.8,100.9 L182.8,100.9 L182.7,100.5 L182.7,100.5 L182.7,100.4 L182.7,100.4 L183.1,99.8 L183.6,99.0 L184.1,98.3 L184.1,98.2 L184.1,97.4 L184.2,97.2 L184.2,96.8 L184.2,96.6 L184.1,96.5 L184.0,96.4 L184.0,96.3 L183.9,96.2 L183.9,96.1 L183.9,96.1 L183.8,96.0 L183.6,95.7 L183.5,95.5 L183.4,95.2 L183.3,94.6 L183.1,94.5 L182.7,94.3 L182.6,94.3 L182.3,94.0 L182.3,94.0 L182.2,93.9 L182.3,93.8 L182.4,93.6 L182.4,93.5 L182.4,93.3 L182.4,93.1 L182.4,92.8 L182.5,92.5 L182.5,92.5 L182.5,92.2 L182.5,92.1 L182.5,92.0 L182.6,92.0 L182.6,91.9 L182.6,91.8 L182.6,91.7 L182.6,91.6 L182.8,91.6 L183.9,91.1 L184.5,90.8 L184.7,90.8 L184.7,90.8 L184.8,90.8 L184.9,90.8 L185.0,90.7 L185.0,90.6 L184.9,90.5 L185.1,90.3 L185.6,90.0 L186.3,89.3 L190.5,85.8 L192.3,84.2 L192.5,84.0 L192.6,84.0 L193.0,83.6 L195.7,81.3 L195.8,81.2 L197.7,79.5 L198.1,79.2 L198.8,78.6 L199.5,78.0 L201.6,76.2 L202.1,75.7 L202.2,75.5 L202.4,75.3 L202.7,74.7 L205.6,69.2 L206.2,68.0 L206.7,67.2 L207.8,65.1 L209.8,61.2 L210.0,60.9 L210.5,59.9 L211.4,58.5 L211.7,57.9 L211.8,57.6 L211.9,57.1 L212.3,54.2 L212.4,53.8 L212.6,53.1 L212.8,52.7 L213.2,52.2 L213.7,51.6 L214.2,51.2 L214.6,51.0 L215.4,50.5 L215.9,50.2 L216.5,49.9 L216.9,49.8 L217.9,49.5 L218.1,49.5 L218.3,49.4 L218.6,49.2 L218.8,49.1 L219.1,48.9 L219.3,48.6 L219.6,48.3 L220.0,47.8 L220.3,47.5 L220.6,47.3 L221.0,47.0 L221.5,46.8 L221.9,46.7 L221.9,46.8 L222.8,46.5 L223.2,46.4 L223.6,46.2 L224.5,45.8 L225.0,45.6 L225.2,45.6 L225.3,45.6 L225.4,45.7 L225.4,45.7 L225.5,45.7 L225.6,45.7 L225.6,45.6 L225.7,45.5 L226.0,45.5 L226.3,45.5 L226.3,45.5 L226.4,45.4 L226.8,45.4 L226.9,45.3 L227.1,45.1 L227.2,45.0 L227.4,44.6 L227.5,44.4 L227.9,43.8 L228.1,43.5 L228.4,43.4 L228.7,43.3 L229.3,43.1 L229.4,43.0 L229.9,42.8 L230.1,42.7 L230.3,42.7 L231.1,42.1 L231.8,41.5 L232.2,41.2 L232.5,41.1 L232.7,41.1 L233.2,41.1 L233.8,41.2 L234.7,41.3 L234.9,41.3 L234.9,41.1 L235.0,40.8 L235.0,40.8 L235.3,39.5 L235.4,39.0 L235.8,38.2 L235.8,38.1 L235.7,38.1 L235.9,37.8 L235.9,37.6 L235.9,37.5 L236.0,37.4 L236.6,35.3 L236.8,34.7 L237.0,34.4 L237.8,33.4 L238.2,33.0 L239.1,32.0 L239.2,31.8 L239.2,31.7 L239.3,31.5 L239.3,31.4 L239.0,29.0 L238.9,28.0 L238.9,27.8 L239.0,27.3 L239.0,27.2 L239.0,27.1 L239.0,27.1 L239.1,26.9 L239.2,26.8 L239.1,26.6 L239.2,26.5 L239.3,26.3 L239.6,25.3 L239.7,25.0 L239.8,24.9 L240.0,24.4 L240.1,24.2 L240.1,23.8 L240.0,23.8 L240.1,23.8 L240.2,23.6 L240.2,23.1 L240.2,22.5 L240.2,21.8 L240.3,21.4 L240.3,21.2 L240.4,21.2 L240.5,20.9 L240.8,20.5 L241.1,20.0 L241.3,19.5 L241.4,19.2 L241.5,18.9 L241.5,18.7 L241.6,18.7 L241.6,18.6 L241.7,18.6 L241.7,18.6 L241.8,18.2 L242.1,17.5 L242.4,17.1 L242.6,16.9 L242.5,16.8 L242.2,16.6 L242.2,16.6 L242.2,16.4 L242.4,16.2 L242.6,16.0 L242.8,15.9 L242.9,15.8 L243.0,15.7 L243.1,15.5 L243.5,15.4 L243.6,15.3 L243.7,15.2 L244.0,15.2 L244.0,15.2 L244.2,15.1 L244.2,15.2 L244.2,15.1 L244.3,15.1 L244.4,15.0 L244.6,14.8 L244.7,14.7 L244.9,14.1 L244.9,13.7 L244.9,13.6 L244.9,13.3 L244.8,13.0 L244.8,13.0 L244.7,12.8 L244.7,12.7 L244.6,12.6 L244.5,12.4 L244.5,12.3 L244.2,11.6 L244.2,11.5 L244.1,11.4 L243.8,11.1 L243.2,10.4 L243.1,10.2 L243.1,10.1 L243.1,10.0" fill="transparent" id="track" stroke="black" stroke-width="2"/>
<g>
<circle cx="243.053" cy="10.000" id="wp-3/circle" r="4.000"/>
<text font-size="16.0" id="wp-3/text" text-anchor="start" x="250.442" y="18.000">
K4
</text>
<circle cx="291.533" cy="325.317" fill="Gray" id="wp-1/circle" r="5.000"/>
<text font-size="16.0" id="wp-17/text" text-anchor="start" x="298.954" y="333.317">
Gernsbach
</text>
<circle cx="221.289" cy="327.444" fill="Gray" id="wp-2/circle" r="5.000"/>
<text font-size="16.0" id="wp-18/text" text-anchor="start" x="124.384" y="345.444">
Baden-Baden
</text>
<circle cx="363.630" cy="287.528" fill="Gray" id="wp-3/circle" r="5.000"/>
<text font-size="16.0" id="wp-19/text" text-anchor="start" x="298.030" y="280.528">
Bad Herrenalb
</text>
<circle cx="244.939" cy="141.571" fill="Gray" id="wp-4/circle" r="5.000"/>
<text font-size="16.0" id="wp-20/text" text-anchor="start" x="221.824" y="159.571">
Durmersheim
</text>
<circle cx="279.156" cy="282.529" fill="Gray" id="wp-5/circle" r="5.000"/>
<text font-size="16.0" id="wp-21/text" text-anchor="start" x="250.366" y="300.529">
Gaggenau
</text>
<circle cx="200.061" cy="222.829" fill="Gray" id="wp-6/circle" r="5.000"/>
<text font-size="16.0" id="wp-22/text" text-anchor="start" x="196.188" y="240.829">
Rastatt
</text>
<circle cx="273.292" cy="103.129" fill="Gray" id="wp-7/circle" r="5.000"/>
<text font-size="16.0" id="wp-23/text" text-anchor="start" x="269.913" y="121.129">
Rheinstetten
</text>
<circle cx="265.385" cy="343.237" fill="Blue" id="wp-8/circle" r="3.000"/>
<text font-size="16.0" id="wp-9/text" text-anchor="start" x="272.469" y="351.237">
Nachtigall
</text>
<circle cx="278.176" cy="386.137" fill="Blue" id="wp-9/circle" r="3.000"/>
<text font-size="16.0" id="wp-10/text" text-anchor="start" x="279.271" y="379.137">
Rote Lache
</text>
<circle cx="151.949" cy="261.861" fill="Gray" id="wp-10/circle" r="3.000"/>
<text font-size="16.0" id="wp-5/text" text-anchor="start" x="88.391" y="279.861">
Iffezheim
</text>
<circle cx="111.241" cy="215.489" fill="Gray" id="wp-11/circle" r="3.000"/>
<text font-size="16.0" id="wp-6/text" text-anchor="start" x="46.830" y="208.489">
Beinheim
</text>
<circle cx="178.499" cy="95.075" fill="Gray" id="wp-12/circle" r="3.000"/>
<text font-size="16.0" id="wp-7/text" text-anchor="start" x="92.394" y="113.075">
Lauterbourg
</text>
<circle cx="196.526" cy="85.542" fill="Gray" id="wp-13/circle" r="3.000"/>
<text font-size="16.0" id="wp-8/text" text-anchor="start" x="194.231" y="103.542">
Berg
</text>
<circle cx="229.401" cy="47.321" fill="Gray" id="wp-14/circle" r="3.000"/>
<text font-size="16.0" id="wp-9/text" text-anchor="start" x="234.738" y="60.321">
Hagenbach
</text>
</g>
<g/>
</svg>