<svg height="400" viewBox="(0, 0, 400, 400)" width="400" xmlns="http://www.w3.org/2000/svg">
<path d="M284.7,390.0 L284.8,389.9 L284.9,389.9 L284.9,389.6 L284.8,389.3 L284.8,388.7 L284.8,388.7 L285.0,388.5 L285.0,388.4 L285.0,388.3 L285.0,388.1 L284.9,387.9 L284.6,387.7 L284.5,387.6 L284.5,387.5 L284.5,387.4 L284.7,387.1 L284.7,387.0 L284.8,387.0 L285.0,386.9 L285.6,386.8 L285.9,386.7 L286.1,386.7 L286.2,386.5 L286.2,386.4 L286.3,385.9 L286.4,385.5 L286.4,385.0 L286.3,384.8 L286.0,384.2 L286.0,384.1 L286.0,384.0 L286.1,383.9 L286.5,383.9 L286.7,383.8 L286.7,383.7 L286.8,383.6 L286.8,383.2 L286.8,383.0 L286.9,382.9 L287.1,382.8 L287.3,382.9 L287.6,382.9 L287.7,382.9 L287.8,382.8 L288.0,382.6 L288.1,382.5 L288.9,382.5 L289.3,382.5 L289.4,382.5 L289.5,382.5 L289.6,382.6 L289.7,382.7 L289.7,382.8 L289.7,383.0 L289.7,383.2 L289.7,383.2 L289.8,383.3 L289.9,383.3 L290.0,383.2 L290.0,383.1 L290.0,383.0 L289.9,382.7 L289.7,382.3 L289.6,382.3 L289.5,382.2 L289.3,382.1 L287.9,382.0 L287.5,382.2 L287.3,382.2 L286.9,382.0 L286.7,382.0 L286.6,382.0 L286.4,382.2 L286.3,382.4 L286.3,382.6 L286.2,382.7 L286.1,382.7 L286.0,382.7 L285.8,382.5 L285.7,382.4 L285.6,382.4 L285.5,382.4 L285.4,382.5 L285.3,382.5 L285.2,382.8 L284.5,383.4 L284.1,383.9 L284.0,384.0 L284.0,384.2 L284.3,384.7 L284.3,384.8 L284.3,384.9 L284.2,385.0 L284.0,385.0 L283.7,385.0 L282.4,384.8 L282.3,384.9 L282.0,384.9 L281.8,385.1 L281.6,385.3 L281.3,385.8 L281.1,386.1 L280.9,386.2 L280.6,386.3 L279.9,386.3 L279.7,386.3 L279.4,386.3 L279.3,386.2 L279.2,386.2 L279.0,386.2 L278.7,386.1 L278.3,386.2 L278.1,386.2 L277.5,386.5 L277.0,386.6 L276.6,386.8 L276.4,386.9 L276.2,387.0 L275.9,387.4 L275.8,387.4 L275.7,387.5 L275.6,387.4 L275.5,387.4 L275.3,387.1 L275.1,386.9 L274.8,386.2 L274.7,386.1 L274.5,386.0 L274.4,385.9 L274.3,385.9 L274.0,386.0 L273.9,386.1 L273.8,386.4 L273.7,386.5 L273.6,386.5 L273.5,386.5 L273.5,386.5 L273.2,386.2 L272.9,386.0 L272.8,386.0 L272.8,385.8 L272.8,385.7 L273.0,385.5 L273.1,385.4 L273.1,385.3 L273.1,385.1 L273.1,384.8 L273.0,384.5 L272.9,384.3 L272.7,384.0 L272.7,383.8 L272.6,383.4 L272.6,383.3 L272.6,383.1 L272.7,382.9 L273.2,382.2 L273.4,381.7 L273.4,381.5 L273.4,381.4 L273.4,381.2 L273.4,381.1 L273.2,380.7 L272.9,380.2 L272.8,380.1 L272.8,379.6 L272.8,379.3 L272.8,379.0 L273.0,378.7 L273.2,378.3 L273.3,378.2 L273.7,377.9 L273.8,377.9 L273.9,377.6 L274.1,377.0 L274.1,376.8 L274.0,376.6 L273.8,376.3 L273.7,376.2 L273.5,376.1 L273.3,376.1 L273.2,376.0 L273.2,375.9 L273.2,375.8 L273.3,375.7 L273.4,375.6 L273.6,375.5 L273.8,375.4 L273.8,375.3 L273.9,374.8 L274.2,374.2 L274.2,373.7 L274.2,373.5 L273.9,372.9 L273.9,372.7 L273.9,372.5 L274.0,372.1 L274.0,371.9 L273.9,371.6 L273.9,371.5 L274.0,371.2 L274.1,370.9 L274.4,370.4 L274.5,370.2 L274.5,369.8 L274.5,369.7 L274.2,369.3 L274.1,369.1 L273.9,368.5 L273.9,368.3 L273.5,367.9 L273.4,367.8 L273.4,367.6 L273.3,367.3 L273.2,366.7 L273.2,366.3 L273.1,366.2 L273.0,366.1 L273.0,366.0 L273.0,365.9 L273.1,365.5 L273.3,365.1 L273.3,364.8 L273.0,364.0 L273.1,363.0 L273.0,362.7 L272.9,362.5 L272.5,361.9 L271.9,360.9 L271.6,360.5 L271.5,360.2 L271.4,360.0 L271.4,359.4 L271.2,358.6 L271.1,358.2 L271.1,358.1 L270.9,357.6 L270.8,357.3 L270.7,357.2 L270.5,357.1 L269.9,356.8 L269.6,356.5 L269.1,356.2 L268.6,356.0 L267.5,355.9 L267.3,355.9 L266.5,356.0 L266.0,355.9 L265.5,355.8 L265.3,355.7 L265.3,355.7 L265.2,355.7 L265.1,355.6 L265.0,355.6 L264.7,355.4 L264.6,355.3 L264.5,355.2 L264.4,354.9 L264.2,354.6 L263.9,354.4 L263.4,354.2 L263.2,354.0 L262.9,353.9 L262.3,353.8 L262.2,353.8 L262.0,353.6 L261.7,353.0 L261.6,352.6 L261.5,352.5 L261.3,352.5 L261.1,352.5 L260.8,352.7 L260.4,352.7 L260.2,352.8 L259.6,352.8 L259.1,352.7 L258.5,352.6 L258.1,352.5 L258.0,352.5 L257.6,352.3 L257.4,352.2 L257.5,352.2 L257.7,351.9 L257.7,351.7 L257.7,351.5 L257.7,351.0 L257.7,350.8 L257.8,350.7 L258.6,349.4 L259.2,348.3 L259.4,347.9 L259.8,347.4 L260.3,346.9 L260.6,346.6 L261.2,346.0 L261.6,345.7 L262.1,345.4 L262.4,345.2 L262.6,345.0 L262.7,344.8 L262.7,344.7 L262.6,344.6 L262.5,344.6 L262.4,344.5 L262.1,344.6 L261.9,344.6 L261.5,344.3 L261.4,344.3 L261.2,344.4 L260.9,344.7 L260.6,345.0 L260.6,345.0 L260.5,345.0 L260.5,344.9 L260.5,344.8 L260.8,344.6 L261.0,344.4 L261.2,344.0 L261.4,343.9 L261.9,343.8 L262.3,343.7 L262.4,343.5 L262.7,343.2 L262.8,343.0 L262.9,342.6 L263.0,342.4 L263.1,342.1 L263.3,342.0 L263.5,342.0 L263.6,342.1 L263.8,342.4 L264.2,342.6 L264.6,342.9 L265.1,343.2 L265.5,343.4 L265.8,343.5 L265.9,343.5 L266.5,343.1 L267.0,342.7 L267.1,342.5 L267.2,342.3 L267.4,342.1 L267.4,341.6 L267.4,341.5 L267.4,341.3 L267.2,341.1 L267.0,340.9 L266.8,340.7 L266.8,340.5 L266.8,340.4 L266.9,340.2 L266.9,340.1 L267.1,340.1 L267.2,340.1 L268.4,340.3 L268.7,340.3 L269.0,340.2 L269.2,340.1 L269.6,339.7 L269.8,339.5 L270.1,339.1 L270.2,338.7 L270.3,338.3 L270.4,338.1 L270.8,337.7 L271.2,337.4 L271.6,337.1 L272.2,336.8 L272.7,336.4 L272.9,336.2 L273.0,336.1 L273.2,336.0 L273.5,335.9 L275.0,335.2 L275.2,335.1 L276.0,334.9 L276.7,334.8 L276.9,334.8 L277.0,334.7 L277.2,334.6 L277.2,334.3 L277.1,334.0 L277.1,333.8 L277.2,333.7 L277.2,333.7 L277.3,333.7 L277.5,333.8 L277.7,333.8 L277.8,333.7 L278.2,333.2 L278.3,333.0 L278.3,332.9 L278.3,332.6 L278.0,332.2 L277.9,332.1 L277.9,332.0 L278.0,331.9 L278.1,331.9 L278.3,331.9 L278.4,331.9 L278.5,331.8 L278.6,331.7 L278.6,331.6 L278.7,331.3 L278.8,331.0 L278.8,330.6 L278.8,330.4 L278.5,330.0 L278.5,329.9 L278.5,329.8 L278.6,329.7 L278.9,329.7 L279.1,329.6 L279.2,329.4 L279.2,329.0 L279.3,328.9 L279.4,328.9 L279.5,328.8 L279.7,328.8 L280.8,327.9 L281.1,327.7 L281.4,327.5 L282.0,327.3 L282.8,327.1 L283.7,326.8 L284.3,326.8 L285.7,326.4 L285.8,326.4 L286.4,326.4 L286.7,326.5 L287.0,326.4 L287.1,326.4 L287.2,326.4 L287.3,326.4 L287.3,326.4 L287.4,326.4 L287.6,326.2 L287.7,326.2 L287.9,326.1 L288.1,326.1 L288.4,326.1 L288.7,326.0 L288.9,326.0 L289.1,326.1 L289.3,326.2 L289.4,326.2 L289.5,326.1 L289.6,326.2 L290.0,326.2 L290.1,326.2 L290.3,326.2 L290.3,326.1 L290.5,326.0 L290.6,325.9 L290.7,325.9 L291.2,325.6 L291.2,325.6 L291.2,325.4 L291.0,325.1 L290.9,324.9 L290.8,324.8 L290.7,324.3 L290.6,324.1 L290.6,323.9 L290.5,323.7 L290.4,323.2 L290.3,323.1 L290.3,322.8 L290.2,322.3 L290.3,322.8 L290.3,323.1 L290.4,323.2 L290.5,323.7 L290.6,323.9 L290.6,324.1 L290.7,324.3 L290.8,324.8 L290.9,324.9 L291.0,325.1 L291.2,325.4 L291.2,325.6 L291.2,325.6 L290.7,325.9 L290.6,325.9 L290.5,326.0 L290.3,325.4 L290.2,325.3 L289.8,324.7 L289.7,324.6 L289.4,324.5 L289.2,324.3 L289.1,324.0 L289.0,323.7 L288.9,323.5 L288.8,323.4 L288.7,323.5 L288.1,323.7 L287.6,323.8 L287.4,323.8 L287.4,323.8 L287.2,323.6 L287.2,323.4 L287.1,323.4 L286.9,323.2 L286.7,323.1 L286.2,323.4 L285.6,323.9 L285.5,323.8 L285.2,323.7 L284.8,323.6 L284.4,323.6 L284.3,323.5 L284.2,323.4 L284.1,323.3 L283.9,323.0 L283.8,322.8 L283.4,322.3 L282.6,321.7 L282.4,321.7 L282.1,321.6 L282.0,321.6 L281.8,321.5 L281.4,321.7 L280.2,322.0 L279.9,322.0 L279.5,322.1 L279.0,322.0 L278.2,321.8 L277.7,321.7 L277.4,321.6 L277.2,321.4 L277.1,321.1 L276.8,321.0 L276.5,320.9 L275.6,320.4 L275.5,320.4 L275.1,320.6 L274.8,320.7 L274.3,320.8 L274.0,321.0 L273.8,321.1 L273.7,321.2 L273.5,321.3 L273.2,321.8 L272.9,322.1 L272.9,321.8 L272.9,321.7 L272.7,321.4 L272.2,321.0 L271.9,320.8 L271.7,320.8 L271.1,320.7 L270.8,320.6 L270.2,320.5 L270.0,320.5 L269.4,320.4 L269.0,320.2 L268.6,320.0 L268.3,319.8 L268.1,319.6 L268.0,319.5 L268.0,319.4 L268.0,319.2 L268.4,318.7 L268.3,318.6 L268.2,318.7 L268.0,318.7 L267.8,318.9 L267.7,319.1 L267.5,319.2 L267.2,319.4 L267.1,319.4 L266.5,319.2 L266.4,319.2 L265.8,319.2 L265.6,319.3 L265.2,319.4 L265.0,319.4 L264.7,319.5 L264.1,319.4 L263.9,319.4 L263.7,319.5 L263.2,319.7 L262.5,320.2 L262.4,320.3 L262.1,320.7 L261.6,321.2 L261.0,321.7 L260.8,321.7 L260.8,321.5 L260.7,321.4 L258.2,318.5 L258.0,318.2 L257.8,317.9 L257.5,317.2 L257.4,316.8 L257.2,316.7 L257.1,316.6 L256.9,316.5 L256.7,316.4 L256.3,316.4 L256.0,316.4 L255.3,316.5 L255.1,316.5 L254.9,316.5 L254.6,316.3 L254.3,316.2 L253.9,315.9 L253.7,315.7 L253.3,315.6 L252.8,315.5 L252.5,315.5 L252.0,315.2 L251.9,315.1 L251.2,314.6 L250.6,314.1 L250.2,314.0 L250.2,313.9 L250.1,313.8 L250.1,313.6 L249.2,313.3 L249.0,313.3 L248.8,313.3 L248.4,313.5 L247.8,313.8 L247.7,313.9 L247.6,313.8 L247.5,313.6 L247.5,313.6 L247.3,313.6 L246.6,313.8 L246.5,313.9 L246.3,313.9 L246.1,313.8 L245.8,313.6 L245.4,313.1 L245.4,313.1 L245.3,313.0 L245.1,312.6 L245.1,312.2 L245.1,312.0 L245.1,311.8 L245.2,311.5 L245.2,311.3 L245.2,311.1 L245.1,310.7 L245.0,310.6 L244.8,310.2 L244.6,310.1 L244.3,309.8 L244.3,309.7 L244.3,309.7 L244.2,309.7 L244.1,309.7 L243.9,309.6 L243.7,309.5 L243.5,309.2 L243.3,309.0 L243.3,309.0 L243.1,308.6 L243.0,308.2 L242.9,307.9 L242.9,307.7 L242.9,307.5 L242.9,307.3 L242.9,307.2 L242.9,307.0 L242.8,306.7 L242.8,306.6 L242.8,306.6 L242.7,306.2 L242.4,305.5 L242.2,305.0 L242.1,304.8 L242.0,304.5 L241.9,304.1 L241.6,303.6 L241.5,303.5 L241.4,303.1 L241.2,302.6 L241.1,302.4 L240.9,302.4 L240.7,302.4 L240.4,301.8 L240.3,301.2 L240.3,300.8 L240.4,300.6 L240.4,300.5 L240.5,300.4 L241.0,300.1 L241.4,299.8 L242.1,299.2 L242.4,299.1 L242.6,299.0 L242.8,299.0 L243.1,298.7 L243.2,298.6 L243.4,298.5 L243.7,298.3 L243.8,298.3 L243.9,298.1 L243.9,297.9 L243.9,297.6 L243.9,297.6 L243.8,297.5 L243.8,297.4 L243.6,297.3 L243.4,297.2 L243.1,297.3 L242.7,297.5 L242.6,297.5 L242.3,297.6 L242.0,297.5 L241.7,297.5 L241.5,297.6 L240.6,297.9 L240.5,298.0 L240.2,298.0 L239.9,297.8 L239.3,297.6 L239.1,297.4 L238.8,297.0 L238.6,296.8 L238.5,296.8 L238.0,296.7 L237.8,296.6 L237.7,296.5 L237.2,295.8 L236.9,295.5 L236.9,295.5 L236.7,295.6 L236.7,295.6 L236.5,295.6 L234.5,295.4 L233.6,295.5 L233.2,295.4 L232.5,295.5 L231.8,295.7 L231.4,295.7 L230.6,295.9 L229.9,296.2 L228.9,295.3 L228.8,295.1 L228.4,294.8 L227.9,294.6 L226.2,293.7 L225.2,293.4 L224.5,293.2 L224.2,293.2 L222.7,292.9 L222.2,292.8 L221.9,292.6 L220.0,292.4 L218.8,292.0 L218.6,291.9 L218.3,291.9 L218.0,291.9 L217.5,291.8 L217.2,291.6 L216.4,290.8 L215.5,289.8 L214.8,289.1 L214.4,288.3 L214.0,287.4 L214.0,286.6 L214.0,286.5 L213.9,286.4 L213.7,286.3 L213.6,286.3 L213.5,286.2 L213.4,286.2 L213.2,286.1 L213.1,286.0 L213.1,285.7 L213.0,285.4 L213.0,285.3 L212.8,284.9 L212.8,284.8 L212.4,284.1 L212.3,283.8 L212.2,283.6 L212.0,283.3 L211.8,282.9 L211.6,282.5 L211.4,282.1 L211.2,281.7 L211.0,281.4 L211.0,281.4 L210.9,281.3 L210.7,281.2 L210.7,281.1 L210.6,281.1 L210.2,280.7 L210.0,280.5 L209.9,280.4 L209.8,280.3 L209.4,279.9 L209.3,279.8 L209.2,279.1 L209.0,279.0 L208.7,279.0 L208.6,279.0 L208.5,279.0 L208.2,279.2 L208.1,279.0 L208.0,278.7 L207.8,278.1 L207.5,277.4 L207.3,276.4 L207.3,276.0 L206.5,274.7 L206.1,274.4 L205.9,274.2 L205.0,273.9 L204.5,273.8 L204.0,273.7 L203.9,273.7 L203.6,273.5 L203.2,273.3 L203.1,273.2 L203.0,273.2 L202.9,273.2 L202.4,273.1 L201.3,273.1 L201.3,273.1 L201.4,272.9 L201.4,272.7 L201.4,272.6 L201.2,272.5 L200.5,272.5 L200.2,272.4 L200.1,272.4 L199.3,272.3 L199.2,272.3 L199.0,272.2 L198.8,272.0 L198.7,271.9 L198.6,271.9 L198.6,271.9 L198.5,271.9 L198.4,271.9 L198.4,271.9 L198.3,271.9 L198.2,271.9 L197.4,271.1 L197.3,271.0 L197.2,271.0 L197.1,271.0 L197.0,271.1 L196.9,271.2 L196.7,271.1 L196.6,271.1 L196.6,271.1 L196.5,271.1 L196.3,271.1 L196.3,271.1 L195.4,271.4 L195.2,271.6 L195.1,271.6 L195.1,271.6 L194.7,271.7 L194.5,271.8 L194.3,271.8 L193.8,272.0 L193.8,272.1 L193.7,272.1 L193.4,272.2 L193.2,272.3 L193.1,272.3 L193.0,272.3 L192.9,272.3 L192.8,272.3 L192.3,272.1 L191.3,271.9 L191.2,271.9 L190.2,271.9 L190.1,271.9 L190.1,271.7 L190.1,271.2 L190.1,271.2 L190.1,271.2 L190.0,271.2 L190.0,271.3 L189.6,271.3 L189.6,271.2 L189.3,271.4 L189.1,271.2 L188.9,271.1 L188.1,270.6 L187.6,271.0 L187.2,271.5 L186.7,272.0 L186.6,271.9 L186.6,271.9 L186.4,271.9 L186.3,271.9 L186.2,272.0 L185.5,272.6 L185.0,273.0 L184.9,272.9 L184.6,272.6 L184.5,272.5 L184.3,272.6 L183.9,273.1 L183.2,273.7 L183.0,273.8 L182.9,273.8 L181.6,273.2 L181.4,273.2 L180.7,272.8 L180.0,272.4 L178.5,271.4 L177.8,272.1 L177.1,273.3 L176.6,274.1 L176.6,274.2 L176.1,274.8 L175.6,275.4 L175.4,275.6 L175.3,275.7 L175.3,275.8 L173.8,274.3 L173.7,274.3 L173.6,274.3 L172.3,273.3 L169.7,271.7 L168.5,270.9 L167.2,270.2 L165.9,269.5 L165.9,269.5 L165.7,269.5 L165.7,269.5 L165.6,269.4 L163.8,268.5 L162.3,267.7 L162.2,267.7 L162.1,267.7 L161.8,267.5 L160.7,267.0 L160.4,266.9 L160.3,266.9 L160.2,266.9 L160.2,266.9 L160.2,266.8 L160.2,266.7 L160.1,266.7 L159.9,266.6 L159.8,266.5 L159.4,266.2 L159.4,266.2 L159.4,266.2 L158.9,265.9 L158.9,265.8 L158.8,265.9 L158.5,265.6 L158.2,265.4 L158.1,265.3 L158.1,265.3 L158.0,265.2 L157.6,264.9 L157.6,264.9 L157.2,264.6 L157.0,264.4 L157.0,264.4 L157.1,264.3 L156.3,263.7 L154.9,262.7 L154.6,262.4 L154.2,262.3 L153.8,262.1 L153.0,261.9 L152.8,261.8 L152.7,261.8 L152.3,261.7 L152.2,261.6 L151.9,261.5 L151.7,261.5 L151.5,261.5 L151.3,261.5 L151.2,261.5 L151.0,261.5 L150.9,261.4 L150.6,261.2 L150.3,261.0 L149.8,260.6 L149.6,260.5 L149.2,260.0 L148.8,259.7 L148.7,259.5 L148.7,259.5 L148.6,259.4 L148.6,259.2 L148.6,258.3 L148.7,257.8 L149.0,257.0 L149.0,256.7 L149.2,256.5 L149.5,255.9 L149.6,255.8 L149.7,254.9 L149.6,253.3 L149.5,252.9 L149.1,252.3 L148.7,251.6 L148.2,250.9 L147.9,250.2 L147.8,249.8 L147.8,249.1 L147.8,248.8 L147.7,248.6 L147.5,248.4 L147.1,247.9 L146.9,247.5 L146.8,247.3 L146.6,247.0 L146.6,246.8 L146.5,246.2 L146.4,246.3 L146.4,245.8 L146.0,244.7 L145.9,244.1 L145.8,243.4 L145.8,243.0 L145.8,242.2 L145.9,241.5 L146.0,241.2 L146.2,241.0 L146.4,240.8 L146.5,240.7 L146.5,240.7 L146.6,240.6 L146.5,240.5 L146.5,240.5 L146.4,240.4 L146.3,240.4 L146.2,240.4 L146.0,240.4 L145.4,239.9 L144.7,239.3 L144.5,239.2 L144.1,238.8 L143.7,238.5 L143.1,238.2 L142.5,237.9 L141.6,237.6 L140.0,237.1 L138.0,236.4 L137.5,236.3 L136.9,236.2 L136.4,235.9 L135.0,235.4 L134.6,235.2 L134.4,235.1 L134.3,235.1 L132.7,234.6 L131.5,234.2 L130.2,233.8 L129.0,233.4 L128.7,233.3 L128.3,233.1 L127.4,232.8 L124.0,231.6 L121.1,230.7 L120.9,230.6 L118.1,229.8 L117.7,229.6 L117.4,229.4 L117.2,229.2 L116.8,228.8 L116.6,228.5 L116.6,228.4 L116.4,228.2 L114.9,226.2 L114.5,225.7 L114.2,225.4 L114.2,225.3 L114.1,225.2 L114.0,225.2 L113.7,225.0 L113.5,224.9 L113.5,224.8 L113.1,224.5 L112.6,224.0 L112.3,223.8 L112.0,223.4 L111.4,222.7 L111.4,222.6 L111.0,222.2 L110.3,221.5 L109.6,220.9 L109.4,220.7 L108.8,220.1 L109.1,219.8 L109.6,219.3 L110.0,218.9 L110.3,218.5 L110.6,218.0 L110.9,217.6 L111.0,217.5 L111.0,217.4 L111.1,217.4 L111.6,217.4 L111.7,217.3 L111.9,217.3 L112.0,217.1 L112.2,216.9 L112.5,216.5 L112.7,216.3 L112.8,216.2 L113.0,216.1 L113.2,216.0 L113.9,215.8 L114.1,215.9 L114.2,216.0 L114.2,216.0 L114.5,216.1 L114.9,215.6 L115.2,215.3 L115.4,215.1 L116.2,214.8 L117.4,214.2 L118.2,213.8 L118.6,213.7 L119.7,213.3 L119.8,213.3 L121.0,213.0 L121.4,212.8 L123.1,212.2 L123.3,212.1 L124.5,212.1 L124.7,212.0 L124.7,211.9 L124.7,211.7 L124.8,211.4 L124.9,211.1 L125.2,210.7 L126.0,209.6 L127.9,208.0 L129.7,206.4 L129.9,206.3 L132.2,205.9 L132.3,205.8 L132.5,205.7 L133.0,205.2 L133.7,204.7 L133.8,204.6 L134.0,204.6 L134.4,204.5 L138.4,203.3 L138.5,203.3 L138.6,203.1 L140.1,199.6 L141.5,196.2 L141.7,195.8 L142.4,194.2 L143.2,192.7 L143.6,191.9 L144.5,190.4 L144.5,190.3 L144.4,190.2 L144.5,190.2 L144.5,190.1 L144.6,190.1 L144.7,189.9 L144.9,189.8 L145.0,189.7 L145.4,189.6 L145.7,189.5 L146.0,189.3 L146.3,189.1 L146.5,188.9 L146.8,188.3 L146.9,187.9 L147.3,187.1 L147.4,186.9 L147.4,186.7 L147.4,186.5 L147.0,185.4 L147.0,185.1 L147.6,178.1 L147.6,177.9 L147.7,176.8 L147.6,176.4 L146.8,175.3 L145.8,174.0 L143.8,171.5 L143.6,171.2 L143.5,171.0 L143.4,170.7 L143.4,169.9 L143.6,169.3 L143.8,168.9 L144.1,168.6 L144.4,168.5 L146.6,167.9 L146.9,167.8 L147.1,167.7 L147.6,167.1 L148.0,166.7 L148.3,166.3 L148.6,166.1 L148.9,166.0 L149.2,165.8 L149.8,165.7 L150.0,165.5 L150.3,165.1 L150.8,164.6 L151.1,164.3 L151.2,164.0 L151.7,163.1 L152.0,162.8 L152.2,162.5 L152.3,162.5 L153.2,162.0 L154.0,161.8 L154.1,161.7 L154.3,161.2 L154.6,160.9 L154.8,160.5 L154.9,160.2 L154.9,159.8 L155.0,159.7 L155.3,159.4 L155.7,159.2 L156.1,158.8 L156.2,158.6 L156.4,158.2 L156.7,157.7 L156.8,157.5 L156.8,157.5 L156.9,157.4 L157.3,157.5 L157.7,157.6 L158.6,158.1 L159.6,158.7 L159.7,158.7 L160.0,158.7 L160.2,158.7 L160.5,158.6 L160.9,158.2 L161.0,158.2 L162.3,158.7 L162.6,158.8 L162.8,158.8 L162.9,158.8 L163.0,158.6 L163.3,158.2 L163.5,157.9 L163.8,156.9 L165.0,155.2 L165.1,155.0 L165.3,154.7 L165.3,154.5 L165.3,153.7 L165.4,153.5 L165.6,153.0 L168.4,149.1 L168.7,148.9 L168.9,148.7 L169.2,148.6 L170.6,147.9 L170.9,147.8 L171.2,147.5 L171.4,147.3 L171.7,146.9 L173.5,144.4 L174.9,142.4 L175.1,142.0 L175.4,140.9 L175.5,140.7 L176.2,139.7 L176.4,139.4 L177.0,139.0 L177.2,138.8 L177.3,138.6 L178.3,136.7 L180.0,133.3 L180.7,131.7 L182.3,128.1 L182.6,127.3 L182.7,127.1 L182.7,127.1 L182.7,126.8 L182.7,126.5 L182.6,126.4 L182.3,126.0 L182.2,125.9 L182.1,125.9 L182.0,125.9 L181.9,125.9 L181.8,126.0 L181.3,127.1 L181.2,127.2 L181.1,127.2 L181.0,127.3 L180.8,127.2 L179.8,126.9 L179.7,126.8 L179.6,126.7 L179.6,126.6 L179.3,126.3 L178.4,126.2 L178.1,125.5 L178.2,125.4 L178.1,125.3 L177.9,125.0 L178.0,124.9 L178.1,124.9 L178.0,124.8 L177.9,124.6 L177.9,124.3 L177.9,124.1 L178.9,121.3 L178.9,120.8 L179.0,120.5 L179.2,120.3 L179.2,120.2 L179.2,120.0 L179.6,119.3 L179.8,118.5 L179.9,118.4 L181.0,117.0 L181.0,116.8 L181.1,116.6 L181.0,116.3 L180.9,115.8 L180.9,115.4 L181.0,115.3 L181.1,115.2 L181.1,115.1 L181.1,115.0 L181.0,114.9 L180.9,114.8 L181.0,114.1 L181.0,112.9 L181.0,112.4 L181.4,109.9 L181.9,108.2 L182.0,107.7 L182.2,107.4 L182.4,107.1 L182.4,107.1 L182.5,107.0 L182.6,107.0 L182.6,106.9 L182.6,106.8 L182.5,106.7 L182.5,106.6 L182.5,106.6 L182.4,106.3 L182.3,105.7 L182.3,105.5 L182.3,105.4 L182.1,104.1 L182.1,103.9 L182.2,103.1 L182.1,103.0 L182.1,102.9 L182.0,102.9 L181.9,102.8 L181.7,102.7 L181.6,102.6 L181.3,102.3 L181.3,102.2 L181.2,102.0 L181.2,101.8 L181.2,101.8 L181.1,101.5 L181.0,101.4 L181.0,101.4 L181.0,101.3 L181.4,100.7 L181.9,100.0 L182.4,99.2 L182.4,99.1 L182.4,98.3 L182.4,98.1 L182.5,97.7 L182.5,97.6 L182.4,97.4 L182.3,97.3 L182.3,97.2 L182.2,97.1 L182.2,97.1 L182.1,97.0 L182.1,96.9 L181.9,96.6 L181.8,96.4 L181.7,96.1 L181.5,95.6 L181.3,95.4 L180.9,95.2 L180.9,95.2 L180.6,95.0 L180.5,94.9 L180.4,94.9 L180.5,94.7 L180.6,94.6 L180.6,94.4 L180.6,94.2 L180.6,94.0 L180.7,93.7 L180.7,93.5 L180.7,93.5 L180.7,93.2 L180.7,93.1 L180.8,93.0 L180.8,92.9 L180.8,92.8 L180.8,92.7 L180.8,92.6 L180.8,92.6 L181.0,92.5 L182.1,92.0 L182.8,91.7 L182.9,91.7 L183.0,91.7 L183.0,91.7 L183.1,91.7 L183.2,91.6 L183.2,91.5 L183.1,91.4 L183.3,91.2 L183.8,90.8 L184.5,90.2 L188.6,86.6 L190.4,85.0 L190.6,84.8 L190.7,84.8 L191.1,84.4 L193.8,82.0 L193.9,81.9 L195.8,80.2 L196.2,79.9 L196.9,79.3 L197.6,78.7 L199.6,76.9 L200.1,76.4 L200.3,76.2 L200.4,76.0 L200.7,75.4 L203.6,69.9 L204.2,68.6 L204.6,67.8 L205.7,65.6 L207.7,61.7 L207.9,61.4 L208.4,60.4 L209.2,59.0 L209.5,58.5 L209.6,58.1 L209.8,57.6 L210.1,54.7 L210.2,54.2 L210.4,53.6 L210.6,53.2 L211.0,52.6 L211.5,52.0 L212.0,51.7 L212.4,51.4 L213.2,50.9 L213.6,50.7 L214.3,50.4 L214.7,50.2 L215.7,49.9 L215.9,49.9 L216.1,49.8 L216.4,49.6 L216.6,49.5 L216.9,49.2 L217.1,49.0 L217.4,48.6 L217.8,48.2 L218.0,47.9 L218.4,47.7 L218.8,47.4 L219.2,47.2 L219.7,47.0 L219.7,47.1 L220.6,46.9 L221.0,46.7 L221.4,46.6 L222.2,46.1 L222.8,45.9 L223.0,45.9 L223.1,46.0 L223.2,46.0 L223.2,46.0 L223.3,46.0 L223.3,46.0 L223.4,45.9 L223.5,45.8 L223.8,45.8 L224.0,45.8 L224.1,45.8 L224.1,45.7 L224.5,45.7 L224.7,45.6 L224.8,45.4 L225.0,45.3 L225.2,44.9 L225.3,44.7 L225.6,44.1 L225.9,43.8 L226.1,43.7 L226.4,43.6 L227.0,43.4 L227.1,43.3 L227.6,43.1 L227.9,43.0 L228.1,42.9 L228.8,42.3 L229.5,41.8 L229.9,41.5 L230.2,41.4 L230.4,41.4 L230.9,41.4 L231.5,41.4 L232.5,41.5 L232.6,41.6 L232.7,41.3 L232.7,41.0 L232.7,41.0 L233.0,39.7 L233.1,39.2 L233.5,38.4 L233.5,38.3 L233.4,38.3 L233.6,38.0 L233.6,37.8 L233.6,37.7 L233.7,37.6 L234.2,35.5 L234.4,34.9 L234.6,34.6 L235.5,33.5 L235.8,33.2 L236.7,32.1 L236.8,32.0 L236.9,31.8 L236.9,31.7 L236.9,31.5 L236.6,29.1 L236.5,28.1 L236.5,27.9 L236.6,27.4 L236.6,27.3 L236.6,27.2 L236.6,27.2 L236.7,27.0 L236.7,26.9 L236.7,26.7 L236.8,26.6 L236.9,26.4 L237.2,25.4 L237.3,25.1 L237.4,25.0 L237.5,24.5 L237.6,24.3 L237.6,23.9 L237.6,23.9 L237.7,23.8 L237.7,23.7 L237.8,23.2 L237.7,22.6 L237.7,21.9 L237.8,21.4 L237.9,21.3 L237.9,21.2 L238.0,21.0 L238.3,20.5 L238.6,20.0 L238.9,19.5 L239.0,19.2 L239.0,19.0 L239.0,18.8 L239.1,18.7 L239.1,18.7 L239.2,18.7 L239.2,18.6 L239.3,18.2 L239.6,17.6 L239.9,17.1 L240.1,16.9 L240.0,16.9 L239.6,16.7 L239.7,16.6 L239.7,16.5 L239.9,16.2 L240.1,16.0 L240.3,15.9 L240.4,15.9 L240.5,15.7 L240.6,15.5 L241.0,15.4 L241.0,15.3 L241.2,15.2 L241.4,15.2 L241.5,15.2 L241.6,15.2 L241.7,15.2 L241.7,15.1 L241.8,15.1 L241.9,15.0 L242.1,14.8 L242.2,14.7 L242.3,14.1 L242.4,13.7 L242.4,13.6 L242.4,13.3 L242.3,13.0 L242.3,13.0 L242.2,12.8 L242.1,12.7 L242.0,12.6 L242.0,12.4 L241.9,12.3 L241.7,11.6 L241.6,11.5 L241.5,11.4 L241.2,11.1 L240.6,10.4 L240.6,10.3 L240.5,10.1 L240.5,10.0" fill="transparent" id="track" stroke="black" stroke-width="2"/>
<g>
<circle cx="291.408" cy="384.282" fill="Red" id="wp-0/circle" r="3.000"/>
<text font-size="16.0" id="wp-0/text" text-anchor="start" x="297.587" y="397.282">
Hartkopf
</text>
<circle cx="279.027" cy="386.197" fill="Blue" id="wp-1/circle" r="3.000"/>
<text font-size="16.0" id="wp-1/text" text-anchor="start" x="280.121" y="379.197">
Rote Lache
</text>
<circle cx="291.787" cy="325.372" fill="Gray" id="wp-2/circle" r="5.000"/>
<text font-size="16.0" id="wp-2/text" text-anchor="start" x="299.209" y="333.372">
Gernsbach
</text>
<circle cx="244.036" cy="309.054" fill="Gray" id="wp-3/circle" r="2.000"/>
<text font-size="16.0" id="wp-3/text" text-anchor="start" x="144.762" y="327.054">
Ebersteinburg
</text>
<circle cx="265.913" cy="343.498" fill="Blue" id="wp-4/circle" r="3.000"/>
<text font-size="16.0" id="wp-4/text" text-anchor="start" x="272.997" y="351.498">
Nachtigall
</text>
<circle cx="152.082" cy="263.355" fill="Gray" id="wp-5/circle" r="2.000"/>
<text font-size="16.0" id="wp-5/text" text-anchor="start" x="88.525" y="281.355">
Iffezheim
</text>
<circle cx="208.937" cy="279.708" fill="Gray" id="wp-6/circle" r="2.000"/>
<text font-size="16.0" id="wp-6/text" text-anchor="start" x="212.348" y="277.708">
Haueneberstein
</text>
<circle cx="110.945" cy="217.447" fill="Gray" id="wp-7/circle" r="2.000"/>
<text font-size="16.0" id="wp-7/text" text-anchor="end" x="103.945" y="215.447">
Beinheim
</text>
<circle cx="156.585" cy="156.269" fill="Gray" id="wp-8/circle" r="2.000"/>
<text font-size="16.0" id="wp-8/text" text-anchor="end" x="149.585" y="159.269">
Munchhausen
</text>
<circle cx="176.750" cy="96.052" fill="Gray" id="wp-9/circle" r="2.000"/>
<text font-size="16.0" id="wp-9/text" text-anchor="start" x="90.645" y="114.052">
Lauterbourg
</text>
<circle cx="194.676" cy="86.298" fill="Gray" id="wp-10/circle" r="2.000"/>
<text font-size="16.0" id="wp-10/text" text-anchor="start" x="191.603" y="104.298">
Berg (Pfalz)
</text>
<circle cx="227.178" cy="47.610" fill="Gray" id="wp-11/circle" r="2.000"/>
<text font-size="16.0" id="wp-11/text" text-anchor="start" x="222.514" y="65.610">
Hagenbach
</text>
<circle cx="240.480" cy="10.000" fill="Black" id="wp-12/circle" r="4.000"/>
<text font-size="16.0" id="wp-13/text" text-anchor="start" x="247.869" y="18.000">
K4
</text>
<circle cx="221.861" cy="328.150" fill="Gray" id="wp-13/circle" r="5.000"/>
<text font-size="16.0" id="wp-16/text" text-anchor="start" x="124.955" y="346.150">
Baden-Baden
</text>
<circle cx="279.082" cy="282.731" fill="Gray" id="wp-14/circle" r="5.000"/>
<text font-size="16.0" id="wp-17/text" text-anchor="start" x="250.292" y="260.731">
Gaggenau
</text>
<circle cx="363.305" cy="287.039" fill="Gray" id="wp-15/circle" r="5.000"/>
<text font-size="16.0" id="wp-18/text" text-anchor="start" x="297.705" y="305.039">
Bad Herrenalb
</text>
<circle cx="199.641" cy="223.794" fill="Gray" id="wp-16/circle" r="5.000"/>
<text font-size="16.0" id="wp-19/text" text-anchor="start" x="190.768" y="241.794">
Rastatt
</text>
<circle cx="289.267" cy="194.803" fill="Gray" id="wp-17/circle" r="5.000"/>
<text font-size="16.0" id="wp-20/text" text-anchor="start" x="280.867" y="212.803">
Malsch
</text>
<circle cx="243.636" cy="141.982" fill="Gray" id="wp-18/circle" r="5.000"/>
<text font-size="16.0" id="wp-21/text" text-anchor="start" x="250.520" y="149.982">
Durmersheim
</text>
<circle cx="271.615" cy="103.182" fill="Gray" id="wp-19/circle" r="5.000"/>
<text font-size="16.0" id="wp-22/text" text-anchor="start" x="228.236" y="121.182">
Rheinstetten
</text>
<circle cx="341.463" cy="132.652" fill="Gray" id="wp-20/circle" r="5.000"/>
<text font-size="16.0" id="wp-23/text" text-anchor="start" x="325.368" y="125.652">
Ettlingen
</text>
<circle cx="338.456" cy="61.527" fill="Gray" id="wp-21/circle" r="5.000"/>
<text font-size="16.0" id="wp-24/text" text-anchor="start" x="325.919" y="79.527">
Karlsruhe
</text>
</g>
<g>
<g/>
<g/>
<g/>
<g/>
<g/>
<g/>
<g/>
<g/>
<g/>
<g/>
<g/>
</g>
</svg>