<svg height="400" viewBox="(0, 0, 400, 400)" width="400" xmlns="http://www.w3.org/2000/svg">
<path d="M194.8,380.0 L194.9,379.9 L194.9,379.7 L195.0,379.6 L195.1,379.5 L195.3,379.4 L195.7,379.0 L196.0,378.7 L196.1,378.5 L196.4,378.1 L196.9,377.3 L197.2,377.0 L197.5,376.8 L197.7,376.7 L197.9,376.6 L198.1,376.4 L198.3,376.3 L198.4,376.1 L198.5,375.8 L198.5,375.6 L198.5,375.5 L198.4,375.3 L198.2,375.0 L198.2,374.9 L198.2,374.7 L198.2,374.5 L198.2,374.3 L198.3,374.0 L198.5,373.8 L198.8,373.6 L199.0,373.5 L199.4,373.3 L199.5,373.1 L199.6,373.0 L199.6,373.0 L199.7,372.8 L199.7,372.7 L199.7,372.5 L199.7,372.4 L199.7,372.1 L199.1,372.3 L198.9,372.3 L198.7,372.2 L197.9,372.1 L197.7,372.1 L197.6,372.0 L197.5,372.0 L197.3,371.7 L196.7,371.3 L196.5,371.2 L196.3,370.6 L196.1,370.4 L194.9,369.5 L194.6,369.3 L194.5,369.1 L194.4,369.0 L194.4,368.8 L194.5,368.6 L194.6,368.4 L195.0,368.1 L195.0,368.1 L195.1,368.0 L195.1,367.9 L195.0,367.9 L194.9,367.7 L194.7,367.5 L194.3,367.0 L193.9,366.7 L193.7,366.5 L193.7,366.4 L193.6,366.2 L193.7,366.0 L193.7,365.8 L193.6,365.7 L193.4,365.6 L193.3,365.4 L193.3,365.3 L193.3,365.1 L193.3,364.9 L193.6,364.4 L193.6,364.3 L193.6,364.2 L193.6,363.9 L193.5,363.8 L193.5,363.7 L193.5,363.7 L193.4,363.5 L193.3,363.4 L193.3,363.3 L193.5,362.9 L193.5,362.8 L193.5,362.6 L193.5,362.5 L193.4,362.3 L193.4,362.3 L193.2,362.2 L193.2,362.2 L192.9,362.0 L192.8,361.9 L192.8,361.9 L192.4,361.0 L192.4,360.9 L192.4,360.8 L192.5,360.5 L192.5,360.3 L192.6,360.2 L192.8,360.0 L192.9,359.9 L193.0,359.5 L193.1,359.1 L193.2,358.9 L193.2,358.7 L193.2,358.4 L193.3,358.0 L193.3,357.7 L193.4,357.4 L193.5,356.6 L193.5,356.5 L193.5,356.4 L193.4,356.2 L193.4,356.2 L193.1,356.1 L193.0,356.0 L192.9,355.9 L192.8,355.4 L192.8,355.3 L192.7,355.2 L192.6,355.2 L192.5,355.2 L192.2,355.2 L192.1,355.2 L191.8,355.1 L191.6,354.9 L191.6,354.8 L191.4,354.5 L191.4,354.4 L191.3,354.3 L191.1,354.3 L191.0,354.2 L190.5,354.2 L190.3,354.2 L190.1,354.1 L189.8,354.0 L189.7,354.0 L189.6,354.0 L189.6,353.9 L189.5,353.9 L189.4,353.7 L189.3,353.4 L189.2,352.9 L189.1,352.8 L188.7,352.6 L188.2,352.1 L188.1,351.8 L187.9,351.5 L187.5,351.0 L187.3,350.7 L187.3,350.6 L187.3,350.0 L187.3,349.8 L187.1,349.2 L186.9,348.4 L186.8,347.8 L186.7,347.5 L186.7,347.3 L186.7,347.2 L186.7,347.2 L186.7,347.0 L187.0,346.4 L187.1,346.2 L187.1,345.7 L187.3,344.9 L187.3,344.8 L187.2,344.8 L187.1,344.8 L187.1,344.8 L187.1,344.9 L187.1,345.2 L186.9,345.6 L186.9,345.8 L186.8,345.9 L186.6,346.2 L186.4,346.5 L186.3,346.6 L186.3,346.6 L186.2,346.6 L186.0,346.4 L185.7,346.3 L185.4,346.2 L184.6,346.1 L184.5,346.1 L184.5,346.0 L184.5,345.9 L184.5,345.8 L184.6,345.5 L184.6,345.4 L184.5,345.3 L184.4,345.2 L183.6,344.9 L183.5,344.8 L183.3,344.7 L183.2,344.5 L183.1,344.4 L182.8,344.2 L182.6,344.0 L182.6,343.9 L182.5,343.7 L182.5,343.6 L182.3,343.6 L182.0,343.7 L181.9,343.7 L180.5,342.6 L180.3,342.4 L180.1,342.2 L180.0,341.9 L179.9,341.8 L179.9,341.6 L179.9,341.5 L179.9,340.8 L179.9,340.5 L179.8,340.3 L179.8,340.3 L179.7,340.2 L179.5,340.1 L179.4,339.9 L179.4,339.8 L179.4,339.7 L179.4,339.5 L179.5,339.1 L179.6,339.0 L179.7,338.9 L180.0,338.8 L180.1,338.7 L180.1,338.6 L180.0,338.5 L179.9,338.5 L179.9,338.5 L179.7,338.7 L179.3,339.0 L179.1,339.2 L178.4,339.9 L178.0,340.1 L177.7,340.1 L177.5,340.1 L177.4,340.0 L177.3,339.9 L177.1,339.4 L177.0,339.4 L176.8,339.3 L176.6,339.4 L176.5,339.5 L176.4,339.8 L176.3,339.8 L176.1,339.8 L176.1,339.8 L175.7,339.5 L175.3,339.4 L175.0,339.3 L174.9,339.1 L174.7,338.6 L174.6,338.5 L174.5,338.4 L174.3,338.4 L173.9,338.5 L173.8,338.6 L173.7,338.5 L173.7,338.4 L173.8,338.3 L174.4,338.2 L174.6,338.2 L174.9,338.3 L175.2,338.8 L175.4,338.8 L175.7,338.6 L176.0,338.2 L176.3,338.1 L176.6,338.0 L177.0,338.1 L177.2,338.1 L177.2,338.0 L177.2,337.7 L177.2,337.5 L177.5,337.0 L177.6,336.9 L177.8,336.7 L177.9,336.6 L177.8,336.6 L177.8,336.5 L177.7,336.5 L177.7,336.5 L177.1,337.2 L176.8,337.3 L176.6,337.3 L176.3,337.4 L176.1,337.3 L176.1,337.3 L175.7,337.1 L175.3,336.9 L175.1,336.8 L174.7,336.7 L174.6,336.7 L174.5,336.6 L174.4,336.4 L174.3,336.3 L174.2,336.3 L173.6,336.1 L173.1,336.2 L173.0,336.1 L172.7,336.0 L172.5,335.9 L172.3,335.7 L171.8,335.2 L171.3,334.5 L170.9,334.2 L170.7,334.1 L170.6,334.1 L170.5,334.1 L170.3,334.2 L170.1,334.4 L169.8,334.6 L169.6,334.7 L169.5,334.7 L169.2,334.7 L169.0,334.7 L168.9,334.7 L168.8,334.6 L168.5,334.4 L168.1,334.0 L168.1,333.9 L168.0,333.9 L167.7,333.8 L167.5,333.8 L166.9,333.8 L166.8,333.8 L166.5,333.7 L166.4,333.7 L166.2,333.6 L166.2,333.6 L166.2,333.6 L165.7,333.2 L165.6,333.2 L165.6,333.1 L165.3,333.1 L165.0,333.0 L164.8,333.0 L164.3,332.7 L164.0,332.5 L163.6,332.3 L163.4,332.1 L162.9,331.7 L162.8,331.7 L162.7,331.6 L162.2,331.2 L162.0,331.0 L161.8,330.6 L161.6,330.4 L161.6,330.3 L161.4,330.2 L161.3,330.1 L161.2,330.1 L160.8,330.1 L160.7,330.1 L160.5,330.0 L160.4,329.9 L160.2,329.7 L160.2,329.6 L160.1,329.4 L160.0,329.0 L159.8,328.7 L159.7,328.6 L159.7,328.5 L159.4,328.4 L159.3,328.3 L159.3,328.2 L159.3,327.9 L159.3,327.8 L159.2,327.6 L159.2,327.5 L159.0,327.3 L159.3,327.2 L159.5,327.1 L159.5,327.1 L159.6,327.1 L159.6,327.1 L159.8,327.0 L159.8,327.0 L159.9,327.0 L159.9,327.0 L160.1,326.9 L160.2,326.8 L160.5,326.6 L161.1,326.2 L161.6,325.9 L161.9,325.7 L162.0,325.6 L162.1,325.5 L162.1,325.3 L162.2,325.0 L162.2,324.8 L162.2,324.7 L162.2,324.5 L162.5,324.0 L162.8,323.8 L162.8,323.7 L163.0,323.5 L163.8,323.2 L163.9,323.1 L164.0,322.9 L164.3,322.6 L164.4,322.5 L164.4,322.3 L164.5,322.2 L164.6,322.1 L164.9,321.9 L165.2,321.6 L165.5,321.2 L165.5,321.2 L166.2,320.1 L167.0,319.4 L167.1,319.3 L167.2,319.1 L167.4,318.9 L167.6,318.7 L167.8,318.5 L167.9,318.4 L168.0,318.3 L168.0,318.2 L168.0,317.8 L168.1,317.7 L168.1,317.5 L168.3,317.3 L168.4,317.2 L168.6,317.0 L169.0,316.8 L169.1,316.7 L169.2,316.7 L169.4,316.7 L169.8,316.8 L170.0,316.8 L170.1,316.7 L170.2,316.6 L170.4,316.4 L170.4,316.2 L170.6,316.1 L170.8,315.9 L171.2,315.6 L171.3,315.5 L171.4,315.4 L171.4,315.3 L171.4,315.0 L171.4,314.6 L171.3,314.1 L171.4,313.6 L171.4,313.6 L171.4,313.1 L171.5,312.8 L171.6,312.3 L171.6,312.2 L171.7,311.8 L171.8,311.6 L171.8,311.5 L171.9,311.5 L172.1,311.4 L172.1,311.4 L172.2,311.5 L172.4,311.5 L172.6,311.6 L172.7,311.6 L172.9,311.6 L173.4,311.5 L173.9,311.3 L174.0,311.2 L174.3,311.1 L174.6,311.0 L174.8,310.9 L175.0,310.9 L175.2,310.8 L175.2,310.8 L175.3,310.7 L175.4,310.6 L175.7,310.4 L175.8,310.3 L176.0,310.2 L176.0,310.2 L176.0,310.1 L176.1,309.9 L176.0,309.5 L176.1,309.4 L176.2,309.1 L176.4,309.0 L176.5,308.9 L176.7,308.9 L176.8,308.9 L177.2,309.1 L177.3,309.1 L177.4,309.1 L177.6,309.2 L178.0,309.2 L178.3,309.3 L178.6,309.3 L179.1,309.5 L179.2,309.6 L179.8,309.7 L180.3,309.9 L180.3,309.9 L180.9,310.4 L181.0,310.4 L181.1,310.4 L181.6,310.4 L182.1,310.5 L182.8,310.7 L183.0,310.8 L183.2,310.9 L183.4,311.3 L183.6,311.5 L184.0,311.8 L184.4,312.0 L184.5,312.1 L184.8,312.1 L185.0,312.2 L185.4,312.1 L185.5,312.1 L185.6,312.0 L185.6,312.0 L185.6,311.9 L185.5,311.9 L185.5,311.8 L185.4,311.8 L185.0,311.8 L184.9,311.7 L184.8,311.7 L184.5,311.5 L184.3,311.2 L184.2,311.1 L184.2,310.9 L184.2,310.8 L184.4,310.5 L184.5,310.1 L184.6,309.9 L184.7,309.7 L185.0,309.5 L185.1,309.4 L185.3,309.3 L185.5,309.1 L185.6,309.1 L185.6,309.2 L185.6,309.2 L185.4,309.4 L185.3,309.5 L184.9,310.1 L184.9,310.2 L184.9,310.2 L185.0,310.2 L185.0,310.2 L185.2,309.9 L185.4,309.7 L186.3,309.2 L186.5,309.0 L186.6,308.8 L186.6,308.7 L186.6,308.6 L186.6,308.5 L186.6,308.4 L186.4,308.3 L186.2,308.1 L186.0,308.0 L185.8,308.0 L185.5,307.9 L185.2,307.7 L185.2,307.7 L185.2,307.6 L185.3,307.6 L185.7,307.8 L185.8,307.8 L185.9,307.8 L185.9,307.7 L185.9,307.7 L185.7,307.6 L185.6,307.6 L185.5,307.5 L185.5,307.5 L185.6,307.0 L185.5,306.0 L185.5,305.8 L185.3,305.7 L185.1,305.6 L184.6,305.4 L184.4,305.3 L184.4,305.3 L184.3,305.2 L184.3,305.2 L184.4,305.1 L184.7,304.7 L184.8,304.7 L184.9,304.6 L185.7,304.4 L186.3,304.2 L186.4,304.2 L186.4,304.2 L186.4,304.3 L186.4,304.3 L186.2,304.3 L186.1,304.4 L185.6,304.7 L185.5,304.8 L185.5,304.9 L185.6,304.9 L185.6,304.9 L185.6,304.9 L185.8,304.8 L186.0,304.7 L186.7,304.5 L187.0,304.4 L187.7,303.9 L188.0,303.6 L188.0,303.6 L188.1,303.4 L188.1,303.3 L188.0,302.6 L187.9,302.1 L187.7,301.4 L187.6,301.0 L187.6,300.7 L187.6,300.4 L187.8,300.2 L188.4,299.5 L188.8,299.1 L189.5,298.5 L189.6,298.4 L189.9,297.8 L190.1,297.3 L190.4,296.1 L190.5,295.7 L190.4,295.1 L190.4,295.0 L190.3,294.8 L190.0,294.5 L189.5,294.0 L189.4,293.8 L189.4,293.6 L189.8,292.9 L189.9,292.7 L190.2,292.1 L190.3,291.7 L190.5,291.5 L190.7,291.4 L191.5,290.9 L191.8,290.7 L192.2,290.5 L192.3,290.3 L193.2,289.5 L193.4,289.3 L193.7,289.0 L195.2,287.6 L195.3,287.6 L195.3,287.5 L195.4,287.5 L195.4,287.5 L195.6,287.3 L195.9,287.0 L196.0,287.0 L195.9,286.8 L195.6,286.6 L195.5,286.4 L195.4,286.2 L195.4,286.2 L195.3,285.9 L195.2,285.5 L195.2,285.3 L195.1,284.7 L195.1,284.6 L195.1,284.6 L195.1,284.4 L195.0,284.3 L194.7,282.2 L194.6,281.9 L194.6,281.8 L194.3,281.3 L194.0,281.0 L193.9,280.7 L193.8,280.7 L193.3,280.1 L193.0,280.0 L192.7,279.6 L192.5,279.4 L192.2,278.7 L191.8,277.9 L191.8,277.7 L191.7,277.5 L191.5,277.2 L191.3,277.1 L191.1,276.9 L190.5,276.7 L190.3,276.6 L190.1,276.6 L189.9,276.6 L189.7,276.7 L189.1,276.9 L189.0,276.9 L188.8,276.9 L188.7,276.9 L188.5,276.8 L187.8,276.3 L187.0,275.6 L187.0,275.5 L186.6,275.3 L186.3,275.2 L185.7,275.0 L185.4,274.9 L185.1,274.9 L184.7,274.8 L184.3,274.8 L183.8,274.8 L183.2,274.9 L183.0,275.0 L182.7,275.1 L182.7,275.0 L182.7,274.5 L182.8,273.7 L182.9,273.3 L182.9,273.2 L183.0,273.1 L183.2,272.9 L183.4,272.7 L183.6,272.7 L183.8,272.6 L184.1,272.6 L184.8,272.5 L187.0,272.5 L187.2,272.5 L187.6,272.4 L187.9,272.1 L188.0,272.1 L188.2,271.6 L188.3,271.5 L188.3,271.4 L188.4,271.2 L188.4,270.9 L188.3,270.7 L188.3,270.6 L188.1,270.4 L187.0,269.4 L186.8,269.2 L186.6,269.0 L186.4,268.4 L186.3,268.2 L186.2,267.8 L186.2,267.7 L186.3,267.4 L186.4,267.1 L186.6,266.9 L186.8,266.7 L186.9,266.7 L187.2,266.5 L187.7,266.4 L188.0,266.2 L188.6,266.2 L188.8,266.1 L188.9,266.0 L189.0,265.9 L189.1,265.6 L189.1,265.4 L189.0,265.0 L188.7,264.4 L188.5,263.9 L188.4,263.6 L188.4,263.4 L188.4,263.1 L188.8,261.5 L188.8,261.4 L189.6,260.1 L189.7,260.0 L189.8,259.9 L190.2,259.5 L190.2,259.4 L190.3,259.4 L190.2,259.3 L190.2,259.3 L190.1,259.3 L189.3,260.1 L188.5,261.1 L188.2,261.4 L187.4,263.0 L187.3,263.3 L187.1,263.9 L187.1,264.1 L187.1,264.3 L187.2,264.6 L187.2,264.7 L187.1,264.8 L187.0,264.9 L186.9,264.9 L186.7,264.9 L186.5,264.8 L186.4,264.7 L186.3,264.7 L185.8,264.9 L184.6,265.5 L184.0,265.6 L183.6,265.8 L183.4,265.9 L183.3,266.0 L183.2,266.0 L183.2,266.0 L183.1,265.9 L183.1,265.8 L183.2,265.8 L183.2,265.7 L184.5,264.9 L184.7,264.8 L184.9,264.7 L185.1,264.4 L185.3,264.2 L185.4,263.9 L185.5,263.4 L185.6,263.1 L185.6,262.8 L185.9,262.5 L186.2,261.7 L186.3,261.4 L186.3,261.3 L186.4,260.9 L186.5,260.8 L186.7,260.5 L186.7,260.4 L186.7,260.0 L186.7,259.7 L186.7,259.3 L186.8,259.2 L186.8,259.1 L187.6,257.4 L187.8,257.1 L187.9,256.9 L188.7,256.0 L188.8,255.9 L189.0,255.8 L189.6,255.6 L189.7,255.5 L189.8,255.5 L189.9,255.2 L190.1,255.1 L190.2,255.0 L190.5,254.9 L191.0,254.9 L191.1,254.9 L191.3,254.8 L191.5,254.6 L191.6,254.6 L191.8,254.6 L193.2,254.7 L193.3,254.7 L193.4,254.6 L193.5,254.4 L193.6,254.3 L193.8,253.6 L193.9,253.4 L194.1,253.2 L194.3,253.0 L194.7,252.6 L194.9,252.2 L195.1,252.0 L195.3,251.8 L195.4,251.6 L195.5,251.0 L195.5,250.7 L195.4,250.6 L195.4,250.5 L195.4,250.5 L195.3,250.1 L195.4,249.7 L195.4,249.6 L195.3,249.1 L195.5,249.0 L196.2,248.4 L196.8,247.9 L196.9,247.8 L197.0,247.7 L197.4,247.4 L197.4,247.4 L197.5,247.3 L197.7,247.2 L198.1,247.1 L198.4,246.9 L199.5,246.2 L199.8,245.9 L200.1,245.6 L200.3,245.3 L200.5,245.1 L200.5,245.1 L200.7,245.0 L201.1,244.9 L201.4,244.9 L201.7,244.8 L202.2,244.7 L202.3,244.6 L202.3,244.6 L202.4,244.6 L202.6,244.6 L202.7,244.6 L202.7,244.6 L202.7,244.6 L202.7,244.5 L202.6,244.4 L202.6,244.3 L202.5,243.9 L202.1,243.2 L201.8,242.9 L201.7,242.8 L201.7,242.8 L201.0,242.5 L200.6,242.3 L200.3,242.2 L199.8,242.0 L199.5,241.8 L199.1,241.5 L198.9,241.4 L198.8,241.2 L198.7,241.1 L198.6,240.9 L198.5,240.6 L198.5,240.4 L198.3,240.0 L198.2,239.9 L197.8,239.5 L196.8,238.4 L196.5,237.9 L196.3,237.6 L196.2,237.5 L196.1,237.4 L195.9,237.2 L195.3,236.9 L193.6,235.7 L193.4,235.6 L193.3,235.4 L193.2,235.2 L193.2,235.0 L193.2,234.9 L193.3,234.1 L193.3,234.0 L193.3,233.9 L193.3,233.8 L193.2,233.8 L193.1,233.8 L193.0,233.8 L192.7,234.0 L192.6,234.1 L192.5,234.1 L192.4,234.0 L192.3,233.9 L192.3,233.4 L192.1,233.1 L192.0,232.9 L191.7,232.7 L191.3,232.4 L191.1,232.3 L191.0,232.2 L190.9,232.0 L190.9,231.7 L190.9,231.6 L190.8,231.5 L190.7,231.5 L190.7,231.6 L190.6,231.6 L190.4,231.7 L190.3,231.7 L189.6,231.4 L189.4,231.2 L189.1,231.1 L188.2,230.3 L188.1,230.2 L188.0,229.8 L187.9,229.6 L187.8,228.5 L187.7,228.4 L187.7,228.3 L187.5,228.3 L187.4,228.2 L187.3,228.2 L187.2,228.3 L187.1,228.4 L187.1,228.5 L186.9,229.2 L186.8,229.4 L186.7,229.5 L186.5,229.6 L186.3,229.6 L185.5,229.6 L184.4,229.7 L184.3,229.8 L184.0,230.0 L183.7,230.1 L183.5,230.1 L183.1,230.1 L182.9,230.1 L182.6,230.0 L182.3,229.9 L182.0,229.7 L181.8,229.5 L181.7,229.3 L181.5,229.1 L181.3,228.6 L180.9,227.4 L180.7,227.0 L180.6,226.9 L180.5,226.8 L180.4,226.8 L180.3,226.8 L180.2,226.8 L180.1,226.9 L180.0,226.9 L179.9,227.1 L179.8,227.2 L179.8,227.5 L179.8,227.7 L180.0,228.3 L180.0,228.4 L180.0,228.6 L179.9,228.6 L179.6,228.8 L179.4,229.1 L179.2,229.3 L179.0,229.8 L178.9,229.9 L178.7,230.1 L178.5,230.2 L178.2,230.3 L177.9,230.3 L177.8,230.2 L177.6,230.1 L177.0,229.7 L176.9,229.6 L176.7,229.4 L176.6,229.2 L176.4,228.9 L176.3,228.6 L176.2,228.2 L176.2,227.8 L176.2,227.2 L175.8,225.6 L175.5,223.5 L175.5,223.3 L175.4,223.1 L175.3,222.9 L175.1,222.8 L174.7,222.4 L174.6,222.3 L174.4,222.2 L174.0,222.1 L173.9,222.1 L173.6,221.9 L173.4,221.8 L173.3,221.8 L173.2,221.8 L173.1,221.9 L173.0,222.0 L172.9,222.1 L173.0,222.3 L173.1,222.5 L173.1,222.6 L173.1,222.7 L173.1,222.8 L173.0,222.9 L172.9,222.9 L172.5,223.0 L171.9,223.2 L171.7,223.3 L171.4,223.3 L171.2,223.3 L170.8,223.3 L170.6,223.3 L170.2,223.2 L170.1,223.1 L170.0,223.1 L169.6,222.9 L169.1,222.7 L169.0,222.7 L168.7,222.6 L168.3,222.4 L168.2,222.3 L167.7,222.3 L167.6,222.2 L167.5,222.2 L167.5,222.2 L167.4,222.2 L167.2,222.2 L167.2,222.1 L167.1,222.0 L167.0,221.9 L167.0,221.9 L167.0,221.7 L167.2,221.2 L167.3,221.0 L167.5,220.8 L167.6,220.6 L167.7,220.4 L167.8,220.2 L167.8,220.1 L168.1,218.8 L168.2,218.2 L168.2,217.8 L168.2,217.1 L168.1,215.8 L168.1,215.5 L168.1,215.2 L168.2,215.0 L168.3,214.7 L168.5,214.4 L168.8,214.0 L169.1,213.7 L169.2,213.5 L169.5,213.3 L169.6,213.2 L169.7,213.2 L169.8,213.0 L169.8,212.9 L169.7,212.8 L169.6,212.7 L169.6,212.6 L169.5,212.6 L169.3,212.5 L169.0,212.5 L168.7,212.4 L168.4,212.3 L168.2,212.3 L167.9,212.4 L167.6,212.4 L167.2,212.5 L166.8,212.5 L166.5,212.4 L166.2,212.3 L166.0,212.1 L165.8,212.0 L165.4,211.5 L165.2,211.2 L165.2,211.0 L165.1,210.7 L165.1,210.4 L165.1,210.2 L165.2,209.2 L165.4,208.8 L165.4,208.5 L165.5,208.4 L165.8,208.0 L166.1,207.7 L167.0,206.6 L167.2,206.3 L167.3,206.2 L167.3,206.0 L167.3,205.9 L167.2,205.7 L167.2,205.6 L167.0,205.3 L166.8,205.0 L166.0,204.3 L165.5,203.9 L165.2,203.7 L165.1,203.6 L164.8,203.6 L164.3,203.5 L164.1,203.5 L163.9,203.4 L163.8,203.3 L163.7,203.2 L163.6,203.1 L163.5,202.9 L163.5,202.7 L163.5,202.6 L163.6,202.2 L163.9,201.7 L163.9,201.6 L164.3,200.9 L164.4,200.5 L164.5,200.1 L164.5,199.8 L164.5,199.3 L164.4,198.9 L164.2,198.3 L164.2,198.0 L164.2,197.8 L164.3,197.5 L164.5,196.9 L164.9,195.4 L165.0,195.1 L164.9,194.8 L165.1,194.8 L165.1,194.6 L165.0,194.5 L165.1,194.4 L165.2,194.3 L165.3,194.3 L165.5,194.3 L165.6,194.4 L166.0,194.7 L166.2,194.8 L167.2,195.2 L167.3,195.3 L167.4,195.3 L168.2,195.6 L168.3,195.7 L168.4,195.8 L168.7,196.2 L169.5,197.1 L169.7,197.3 L169.8,197.4 L170.3,197.5 L170.5,197.6 L170.6,197.7 L170.6,197.8 L170.7,198.1 L170.7,198.4 L170.6,198.5 L170.7,198.7 L170.9,199.4 L170.9,199.7 L170.9,200.0 L171.1,200.4 L171.1,200.5 L171.4,200.5 L171.7,200.4 L172.2,200.3 L173.8,199.7 L174.7,199.5 L174.8,199.5 L174.9,199.5 L175.0,199.5 L175.0,199.6 L175.1,199.6 L175.1,199.7 L175.0,200.0 L175.0,200.1 L175.1,200.2 L175.2,200.3 L175.4,200.4 L175.4,200.4 L175.5,200.3 L175.6,200.1 L175.9,199.8 L176.1,199.7 L176.8,199.3 L177.0,199.2 L177.2,199.2 L177.5,199.2 L177.6,199.3 L177.7,199.3 L177.8,199.4 L177.9,199.5 L177.9,199.6 L178.0,200.0 L178.1,200.2 L178.2,200.2 L178.3,200.2 L178.4,200.2 L178.6,199.8 L178.8,199.7 L178.9,199.6 L179.0,199.5 L179.6,199.2 L179.8,199.1 L180.1,199.1 L180.2,199.2 L180.3,199.3 L180.5,199.4 L181.5,199.4 L181.6,199.4 L181.7,199.5 L181.7,199.6 L181.9,200.2 L182.0,200.4 L182.1,200.5 L182.2,200.5 L182.4,200.5 L182.5,200.4 L182.6,200.3 L182.6,200.1 L182.6,200.0 L182.6,199.1 L182.6,198.8 L182.7,198.5 L182.8,198.4 L183.0,198.2 L183.2,198.0 L183.6,197.8 L183.7,197.8 L183.8,197.8 L184.0,197.8 L184.1,197.8 L184.2,197.8 L184.2,197.7 L184.4,197.8 L184.5,197.9 L184.7,198.2 L184.9,198.5 L185.0,198.7 L185.1,198.8 L185.2,198.9 L185.4,199.0 L185.5,199.0 L185.9,199.3 L186.1,199.6 L186.2,199.6 L186.3,200.1 L186.4,200.1 L186.5,200.2 L186.5,200.2 L186.6,200.1 L186.7,200.1 L186.8,200.0 L187.0,200.0 L187.1,200.0 L187.2,200.1 L187.8,200.4 L187.8,200.5 L187.8,200.8 L187.9,200.9 L187.9,201.0 L188.0,201.0 L188.1,201.0 L188.3,200.9 L188.4,200.8 L188.5,200.8 L188.8,200.9 L188.9,200.8 L189.0,200.8 L189.2,200.8 L189.9,200.8 L190.5,200.9 L190.8,201.0 L191.0,201.0 L191.3,200.9 L192.1,200.9 L192.3,200.9 L192.4,201.0 L192.6,201.2 L192.6,201.5 L192.7,201.5 L192.7,201.5 L192.8,201.5 L192.9,201.4 L193.1,201.1 L193.2,201.0 L193.5,200.8 L193.9,200.5 L194.1,200.5 L194.5,200.5 L195.0,200.4 L195.2,200.4 L196.0,200.6 L196.1,200.7 L196.3,200.8 L196.7,201.1 L196.8,201.1 L197.1,201.1 L197.4,201.1 L197.7,201.2 L197.9,201.3 L198.0,201.4 L198.1,201.5 L198.7,201.6 L199.0,201.6 L199.2,201.7 L199.6,201.8 L199.8,202.0 L200.0,202.1 L200.3,202.1 L200.6,202.1 L200.9,202.2 L201.1,202.2 L201.3,202.3 L201.5,202.4 L201.6,202.5 L201.7,202.5 L202.0,202.3 L202.2,202.3 L202.4,202.3 L202.8,202.4 L203.1,202.5 L203.6,202.5 L203.8,202.5 L204.3,202.5 L204.5,202.5 L204.7,202.5 L204.8,202.5 L205.3,202.4 L205.7,202.2 L205.8,202.2 L206.1,202.1 L206.4,202.0 L206.6,201.9 L207.1,201.7 L207.2,201.7 L207.6,201.5 L208.1,201.4 L208.5,201.3 L208.8,201.3 L209.1,201.2 L209.3,201.1 L209.5,200.8 L209.7,200.6 L209.9,200.5 L210.6,200.6 L211.3,200.7 L211.9,200.7 L212.1,200.7 L212.3,200.6 L212.8,200.1 L213.0,199.9 L213.1,199.8 L213.2,199.8 L213.4,199.8 L213.5,199.8 L213.9,200.1 L214.1,200.4 L214.3,200.5 L214.4,200.5 L214.8,200.6 L215.2,200.6 L215.6,200.5 L215.8,200.5 L216.0,200.3 L216.1,200.1 L216.2,199.9 L216.3,199.8 L216.4,199.8 L216.5,199.8 L216.6,199.8 L216.7,199.9 L216.8,200.1 L216.9,200.3 L217.0,200.4 L217.3,200.6 L217.5,200.8 L217.6,200.8 L217.8,200.9 L217.9,201.1 L218.0,201.2 L218.1,201.2 L218.2,201.2 L218.3,201.2 L218.4,201.2 L218.8,200.8 L219.0,200.7 L219.4,200.5 L219.5,200.4 L219.7,200.2 L220.1,199.6 L220.2,199.4 L220.4,198.9 L220.5,198.8 L220.6,198.6 L220.7,198.6 L220.8,198.5 L221.6,198.4 L221.9,198.4 L222.4,198.4 L223.9,198.4 L224.1,198.4 L224.2,198.4 L224.5,198.3 L224.8,198.1 L226.2,197.1 L226.5,196.8 L227.1,196.1 L227.3,196.0 L228.8,195.2 L229.1,195.1 L229.8,194.9 L230.8,194.6 L231.3,194.4 L231.7,194.3 L233.9,193.9 L234.9,193.7 L236.0,193.5 L236.2,193.4 L236.4,193.3 L237.3,192.3 L237.5,192.2 L237.7,192.1 L237.9,192.0 L238.5,191.9 L238.7,191.8 L238.9,191.7 L239.1,191.5 L239.5,191.2 L239.7,191.0 L239.8,190.7 L239.8,190.5 L239.9,190.4 L239.9,189.8 L239.9,189.7 L239.9,189.5 L239.9,189.0 L239.9,189.0 L239.8,188.8 L239.8,188.6 L239.7,188.4 L239.8,188.3 L239.8,188.0 L240.1,187.4 L240.2,187.0 L240.4,186.4 L240.5,186.3 L240.5,186.3 L240.7,186.2 L240.9,186.1 L241.2,186.0 L241.6,185.9 L241.8,185.9 L242.2,185.9 L242.3,185.9 L242.8,186.0 L242.9,186.0 L243.4,186.1 L243.8,186.1 L244.0,186.1 L244.2,186.1 L244.2,186.2 L244.3,186.2 L244.4,186.1 L244.6,186.1 L244.8,186.1 L245.1,186.1 L245.1,186.0 L245.0,185.6 L244.9,185.3 L244.8,184.9 L244.6,184.5 L244.3,183.8 L244.2,183.6 L244.0,183.3 L243.9,183.1 L243.5,182.6 L243.4,182.4 L243.2,182.1 L243.1,182.0 L242.9,181.8 L242.9,181.5 L242.8,181.0 L242.8,180.4 L242.9,180.0 L242.9,179.6 L243.0,179.2 L243.1,179.1 L243.1,179.0 L243.1,178.8 L243.1,178.8 L242.9,178.3 L242.4,177.8 L242.3,177.4 L242.2,177.1 L242.1,176.5 L242.0,176.3 L241.6,175.9 L241.5,175.9 L241.3,175.8 L241.1,175.8 L240.8,175.5 L240.4,175.3 L240.2,175.2 L239.7,174.9 L239.5,174.7 L238.6,173.9 L238.5,173.8 L238.4,173.5 L238.3,173.1 L238.2,172.7 L238.2,172.4 L238.3,172.2 L238.7,171.2 L238.7,171.1 L238.5,170.8 L238.5,170.7 L238.5,170.5 L238.5,170.4 L238.4,170.2 L238.2,169.9 L238.0,169.8 L237.9,169.7 L237.8,169.5 L237.7,169.3 L237.7,169.1 L237.7,168.7 L237.8,168.4 L237.7,167.6 L237.8,167.2 L237.7,166.9 L237.7,166.5 L237.7,166.2 L237.7,166.1 L237.8,165.9 L237.8,165.8 L238.1,165.5 L238.5,165.3 L238.9,165.0 L238.9,164.9 L239.0,164.9 L239.1,164.6 L239.2,164.5 L239.2,164.3 L239.2,164.2 L239.2,164.0 L239.1,163.7 L238.6,162.7 L238.6,162.4 L238.6,162.3 L238.4,162.2 L238.2,161.9 L237.6,161.3 L236.9,160.6 L236.6,160.4 L236.3,160.1 L236.0,159.9 L235.9,159.9 L235.8,159.9 L235.7,159.9 L235.5,159.9 L235.4,159.9 L235.4,159.8 L235.4,159.7 L235.4,159.6 L235.6,159.4 L235.6,159.1 L235.8,158.7 L236.1,157.5 L236.2,157.1 L236.2,156.5 L236.2,156.2 L236.2,155.8 L236.5,154.5 L236.6,154.1 L236.6,154.0 L237.2,153.2 L237.6,152.9 L238.0,152.3 L238.1,152.2 L238.4,152.1 L238.7,152.0 L238.9,151.9 L239.0,151.8 L239.0,151.7 L239.2,151.3 L239.3,151.2 L239.6,150.8 L239.7,150.7 L239.7,150.6 L239.7,150.4 L239.4,149.6 L239.2,149.5 L239.1,149.3 L239.0,149.2 L238.9,149.0 L238.9,148.9 L238.9,148.7 L239.4,147.8 L239.5,147.6 L239.7,147.5 L240.0,147.4 L240.4,147.1 L240.7,146.9 L241.0,146.8 L241.1,146.8 L241.2,146.9 L241.5,147.0 L241.7,147.0 L241.8,147.0 L242.0,147.0 L242.1,147.0 L242.3,146.8 L242.5,146.7 L242.6,146.6 L242.7,146.5 L242.8,146.2 L242.8,146.0 L242.9,145.8 L242.9,145.6 L242.8,145.5 L242.3,144.9 L241.9,144.7 L241.8,144.4 L241.8,144.1 L241.6,143.6 L241.6,143.4 L241.7,143.2 L241.7,142.7 L241.7,142.5 L241.7,142.3 L241.6,141.8 L241.3,141.1 L241.2,141.0 L241.3,140.7 L241.3,140.5 L241.4,140.4 L241.7,140.1 L242.0,139.9 L242.1,139.9 L242.3,139.8 L242.6,139.8 L243.2,139.5 L243.3,139.4 L243.4,139.2 L243.5,138.8 L243.5,138.6 L243.2,137.8 L243.1,137.7 L242.8,137.4 L242.8,137.3 L242.8,137.2 L242.8,137.1 L242.9,137.1 L243.0,136.9 L243.0,136.8 L243.0,136.7 L242.9,136.6 L242.7,136.6 L242.2,136.6 L241.9,136.6 L241.7,136.5 L241.6,136.4 L241.4,136.2 L241.3,136.1 L241.2,136.0 L240.9,135.9 L240.6,135.8 L240.5,135.8 L240.4,135.9 L240.3,136.0 L240.1,136.1 L239.9,136.2 L239.2,136.5 L238.9,136.8 L238.6,136.9 L238.1,137.1 L237.9,137.3 L237.8,137.3 L237.7,137.3 L237.6,137.3 L237.6,137.2 L237.6,137.2 L237.6,136.9 L237.6,136.5 L237.6,136.0 L237.6,135.9 L237.8,135.3 L238.1,134.5 L238.2,134.2 L238.4,133.9 L238.8,133.4 L238.9,133.2 L239.1,133.1 L239.5,132.6 L240.2,131.7 L240.6,131.3 L241.0,130.7 L241.2,130.4 L241.2,130.2 L241.3,129.9 L241.4,129.5 L241.3,128.6 L241.0,127.7 L241.0,127.6 L241.0,127.6 L240.9,127.4 L240.9,127.2 L240.8,126.8 L240.8,126.7 L240.8,126.5 L240.8,126.5 L240.7,126.4 L240.7,126.5 L240.6,126.5 L240.5,126.5 L240.2,126.5 L240.1,126.5 L240.1,126.3 L240.1,126.2 L240.0,126.0 L240.0,125.9 L239.9,125.8 L239.8,125.8 L239.7,125.8 L239.6,125.8 L239.3,126.0 L239.2,126.0 L239.1,126.0 L239.0,126.0 L238.9,126.0 L238.9,125.9 L238.9,125.8 L239.0,125.8 L238.9,125.7 L238.6,125.8 L238.4,125.2 L238.3,124.9 L238.2,124.7 L238.2,124.6 L238.4,124.4 L238.4,124.2 L238.3,123.9 L238.3,123.8 L238.2,123.6 L238.1,123.6 L238.0,123.5 L237.6,123.5 L237.4,123.5 L237.0,123.1 L236.8,122.9 L236.6,122.7 L236.4,122.5 L236.2,122.4 L235.7,122.3 L235.6,122.3 L235.6,122.2 L235.5,122.0 L235.5,121.9 L235.5,121.8 L235.6,121.7 L235.6,121.6 L235.6,121.6 L235.4,121.3 L235.3,120.9 L235.2,120.8 L235.3,120.7 L235.2,120.6 L234.9,120.0 L234.8,119.9 L234.5,119.8 L234.4,119.6 L234.3,119.6 L234.1,119.5 L233.9,119.3 L233.8,119.3 L233.6,119.4 L233.6,119.4 L233.1,119.2 L232.8,119.2 L232.7,119.1 L232.4,118.8 L232.3,118.8 L232.3,118.7 L232.3,118.5 L232.1,118.3 L231.9,118.0 L231.8,118.0 L231.8,117.8 L231.8,117.7 L231.7,117.6 L231.5,117.5 L231.5,117.4 L231.4,117.1 L231.1,116.7 L231.0,116.7 L230.9,116.7 L230.7,116.6 L230.5,116.4 L230.5,116.3 L230.4,116.2 L230.4,116.0 L230.4,115.8 L230.4,115.8 L230.5,115.6 L230.5,115.5 L230.5,115.4 L230.4,115.3 L230.3,115.2 L230.3,115.0 L230.3,114.8 L230.2,114.7 L230.1,114.5 L230.0,114.2 L229.9,114.1 L229.7,114.0 L228.7,113.7 L228.6,113.7 L228.4,113.7 L228.3,113.7 L228.2,113.6 L228.1,113.5 L228.1,113.4 L228.2,113.0 L228.2,112.8 L228.1,112.7 L227.8,112.3 L227.7,112.2 L227.4,112.0 L227.3,111.9 L227.2,111.9 L227.1,112.0 L226.8,112.3 L226.7,112.3 L226.7,112.3 L226.6,112.3 L226.3,112.0 L226.2,111.9 L226.1,111.9 L226.0,111.8 L225.9,111.7 L225.9,111.7 L225.8,111.5 L225.7,111.4 L225.7,111.3 L225.6,111.3 L225.4,111.2 L225.0,111.1 L224.5,110.9 L224.1,110.8 L223.6,110.8 L223.5,110.7 L223.5,110.7 L223.4,110.6 L223.4,110.4 L223.5,110.2 L223.4,109.9 L223.3,109.8 L223.1,109.6 L222.7,109.3 L222.5,109.1 L222.3,108.9 L222.3,108.8 L222.2,108.5 L222.2,108.4 L222.2,108.3 L222.3,108.3 L222.3,108.3 L223.0,108.2 L223.4,108.2 L223.5,108.1 L223.5,108.1 L223.5,108.0 L223.6,107.9 L223.5,107.7 L223.5,107.2 L223.5,107.1 L223.6,107.0 L223.7,106.9 L223.7,106.9 L223.6,106.7 L223.5,106.6 L223.3,106.4 L223.3,106.4 L223.3,106.3 L223.3,106.2 L223.4,106.0 L223.4,105.9 L223.5,105.9 L223.6,105.9 L224.1,105.8 L224.3,105.7 L224.4,105.7 L224.5,105.6 L224.6,105.5 L224.6,105.1 L224.7,104.8 L224.7,104.4 L224.6,104.3 L224.4,103.9 L224.3,103.8 L224.4,103.7 L224.5,103.6 L224.8,103.6 L224.9,103.5 L224.9,103.5 L225.0,103.4 L225.0,103.1 L225.0,103.0 L225.1,102.9 L225.2,102.8 L225.4,102.9 L225.6,102.9 L225.6,102.8 L225.7,102.8 L225.9,102.6 L225.9,102.6 L226.5,102.6 L226.8,102.5 L226.9,102.6 L227.0,102.6 L227.1,102.7 L227.1,102.7 L227.2,102.8 L227.1,103.0 L227.1,103.1 L227.1,103.1 L227.2,103.2 L227.3,103.1 L227.3,103.1 L227.4,103.0 L227.3,102.9 L227.3,102.7 L227.1,102.5 L227.1,102.4 L227.0,102.3 L226.8,102.3 L225.8,102.2 L225.5,102.3 L225.4,102.3 L225.0,102.2 L224.9,102.2 L224.8,102.2 L224.7,102.4 L224.6,102.5 L224.6,102.6 L224.5,102.7 L224.4,102.7 L224.4,102.7 L224.2,102.6 L224.2,102.5 L224.1,102.5 L224.0,102.5 L223.9,102.5 L223.9,102.6 L223.8,102.8 L223.3,103.3 L223.0,103.6 L222.9,103.7 L222.9,103.8 L223.1,104.2 L223.1,104.3 L223.1,104.4 L223.0,104.4 L222.9,104.4 L222.7,104.4 L221.7,104.3 L221.6,104.3 L221.4,104.4 L221.2,104.5 L221.1,104.6 L220.9,105.0 L220.7,105.2 L220.6,105.3 L220.4,105.4 L219.9,105.4 L219.7,105.4 L219.5,105.4 L219.4,105.3 L219.3,105.3 L219.2,105.3 L219.0,105.3 L218.7,105.3 L218.5,105.3 L218.1,105.5 L217.7,105.6 L217.4,105.7 L217.3,105.8 L217.2,105.9 L216.9,106.2 L216.8,106.2 L216.7,106.2 L216.6,106.2 L216.6,106.2 L216.4,106.0 L216.3,105.8 L216.1,105.3 L216.0,105.3 L215.9,105.2 L215.8,105.1 L215.7,105.1 L215.5,105.2 L215.5,105.3 L215.3,105.5 L215.3,105.5 L215.2,105.5 L215.2,105.5 L215.1,105.5 L214.9,105.3 L214.6,105.2 L214.6,105.2 L214.6,105.0 L214.6,105.0 L214.8,104.8 L214.8,104.7 L214.8,104.6 L214.8,104.5 L214.8,104.3 L214.8,104.1 L214.7,103.9 L214.6,103.7 L214.5,103.5 L214.5,103.3 L214.5,103.2 L214.5,103.0 L214.6,102.8 L214.9,102.4 L215.0,102.0 L215.1,101.8 L215.1,101.7 L215.1,101.6 L215.0,101.5 L214.9,101.3 L214.7,100.9 L214.6,100.8 L214.6,100.4 L214.6,100.2 L214.6,100.0 L214.7,99.8 L214.9,99.5 L215.0,99.4 L215.3,99.2 L215.3,99.2 L215.4,98.9 L215.6,98.5 L215.6,98.4 L215.5,98.2 L215.4,98.0 L215.3,97.9 L215.2,97.9 L215.0,97.8 L214.9,97.8 L214.9,97.7 L214.9,97.6 L215.0,97.5 L215.0,97.5 L215.2,97.4 L215.3,97.3 L215.4,97.2 L215.4,96.9 L215.6,96.4 L215.7,96.1 L215.6,95.9 L215.4,95.5 L215.4,95.3 L215.4,95.2 L215.5,94.9 L215.5,94.7 L215.4,94.5 L215.4,94.4 L215.5,94.2 L215.6,94.0 L215.8,93.6 L215.8,93.5 L215.9,93.2 L215.9,93.1 L215.7,92.8 L215.6,92.7 L215.5,92.2 L215.4,92.1 L215.1,91.8 L215.0,91.7 L215.0,91.6 L215.0,91.3 L214.9,90.9 L214.9,90.6 L214.9,90.5 L214.8,90.4 L214.8,90.4 L214.8,90.3 L214.9,90.0 L215.0,89.7 L215.0,89.5 L214.8,88.9 L214.8,88.1 L214.7,87.9 L214.7,87.7 L214.4,87.3 L213.9,86.6 L213.7,86.3 L213.6,86.1 L213.6,85.9 L213.5,85.5 L213.4,84.9 L213.4,84.6 L213.4,84.5 L213.2,84.1 L213.1,83.9 L213.1,83.8 L212.9,83.8 L212.5,83.6 L212.2,83.3 L211.9,83.1 L211.5,82.9 L210.7,82.9 L210.5,82.9 L210.0,82.9 L209.6,82.9 L209.2,82.8 L209.1,82.8 L209.0,82.7 L209.0,82.7 L208.9,82.7 L208.8,82.6 L208.6,82.5 L208.5,82.4 L208.4,82.3 L208.3,82.1 L208.2,81.9 L208.0,81.8 L207.7,81.6 L207.5,81.5 L207.2,81.4 L206.8,81.3 L206.7,81.3 L206.6,81.2 L206.4,80.7 L206.3,80.5 L206.2,80.4 L206.1,80.4 L206.0,80.4 L205.7,80.5 L205.5,80.5 L205.3,80.6 L204.8,80.6 L204.5,80.5 L204.0,80.4 L203.7,80.4 L203.7,80.4 L203.3,80.2 L203.2,80.1 L203.3,80.1 L203.4,79.9 L203.4,79.8 L203.5,79.6 L203.4,79.3 L203.4,79.1 L203.5,79.0 L204.1,78.1 L204.5,77.3 L204.7,76.9 L205.0,76.6 L205.3,76.2 L205.6,75.9 L206.0,75.6 L206.3,75.3 L206.7,75.1 L206.9,75.0 L207.1,74.8 L207.1,74.6 L207.1,74.6 L207.1,74.5 L207.0,74.5 L206.9,74.4 L206.7,74.5 L206.5,74.5 L206.2,74.3 L206.1,74.3 L206.0,74.3 L205.8,74.6 L205.6,74.8 L205.5,74.8 L205.5,74.8 L205.5,74.7 L205.5,74.7 L205.7,74.5 L205.8,74.4 L206.0,74.1 L206.1,74.0 L206.5,73.9 L206.8,73.8 L206.9,73.7 L207.1,73.5 L207.2,73.3 L207.2,73.0 L207.3,72.9 L207.5,72.7 L207.6,72.6 L207.7,72.6 L207.8,72.6 L208.0,72.9 L208.2,73.1 L208.5,73.3 L208.9,73.5 L209.2,73.6 L209.4,73.7 L209.5,73.7 L209.9,73.4 L210.3,73.1 L210.4,73.0 L210.5,72.8 L210.6,72.6 L210.6,72.3 L210.6,72.2 L210.6,72.1 L210.5,71.9 L210.3,71.7 L210.2,71.6 L210.2,71.5 L210.1,71.4 L210.2,71.3 L210.3,71.2 L210.4,71.2 L210.4,71.2 L211.4,71.3 L211.6,71.3 L211.8,71.2 L211.9,71.1 L212.3,70.9 L212.4,70.7 L212.6,70.4 L212.7,70.2 L212.8,69.9 L212.9,69.7 L213.1,69.4 L213.4,69.2 L213.7,69.0 L214.2,68.7 L214.5,68.4 L214.7,68.3 L214.8,68.2 L214.9,68.1 L215.2,68.1 L216.2,67.5 L216.4,67.5 L217.0,67.3 L217.5,67.3 L217.6,67.2 L217.7,67.2 L217.8,67.1 L217.9,66.9 L217.8,66.6 L217.8,66.5 L217.8,66.5 L217.9,66.4 L218.0,66.4 L218.1,66.5 L218.2,66.5 L218.3,66.4 L218.6,66.1 L218.7,65.9 L218.7,65.8 L218.7,65.6 L218.4,65.3 L218.4,65.3 L218.4,65.2 L218.5,65.1 L218.5,65.1 L218.7,65.1 L218.8,65.1 L218.8,65.0 L218.9,65.0 L218.9,64.9 L219.0,64.7 L219.0,64.4 L219.0,64.1 L219.0,64.0 L218.9,63.7 L218.8,63.6 L218.8,63.5 L218.9,63.5 L219.1,63.4 L219.3,63.4 L219.3,63.2 L219.3,62.9 L219.4,62.9 L219.5,62.8 L219.6,62.8 L219.7,62.8 L220.5,62.1 L220.7,62.0 L221.0,61.9 L221.4,61.7 L222.1,61.5 L222.7,61.3 L223.1,61.3 L224.2,61.0 L224.3,61.0 L224.7,61.0 L224.9,61.1 L225.1,61.0 L225.2,61.0 L225.3,61.0 L225.4,61.0 L225.4,61.0 L225.4,61.0 L225.6,60.9 L225.6,60.8 L225.8,60.8 L225.9,60.8 L226.1,60.8 L226.4,60.7 L226.5,60.7 L226.7,60.8 L226.8,60.9 L226.9,60.8 L227.0,60.8 L227.1,60.8 L227.4,60.9 L227.4,60.9 L227.5,60.8 L227.6,60.8 L227.7,60.7 L227.8,60.7 L227.9,60.6 L228.2,60.4 L228.3,60.4 L228.2,60.3 L228.1,60.0 L228.0,59.9 L228.0,59.8 L227.8,59.4 L227.8,59.3 L227.8,59.2 L227.7,59.0 L227.6,58.6 L227.6,58.6 L227.6,58.4 L227.5,58.0 L227.6,58.4 L227.6,58.6 L227.6,58.6 L227.7,59.0 L227.8,59.2 L227.8,59.3 L227.8,59.4 L228.0,59.8 L228.0,59.9 L228.1,60.0 L228.2,60.3 L228.3,60.4 L228.2,60.4 L227.9,60.6 L227.8,60.7 L227.7,60.7 L227.6,60.3 L227.5,60.2 L227.2,59.8 L227.1,59.7 L226.9,59.6 L226.8,59.5 L226.7,59.2 L226.6,59.0 L226.6,58.9 L226.5,58.8 L226.4,58.8 L226.0,59.0 L225.6,59.1 L225.5,59.1 L225.4,59.1 L225.3,59.0 L225.3,58.8 L225.2,58.8 L225.1,58.7 L224.9,58.6 L224.6,58.8 L224.1,59.2 L224.0,59.1 L223.8,59.0 L223.5,59.0 L223.2,58.9 L223.1,58.9 L223.0,58.8 L222.9,58.7 L222.9,58.5 L222.7,58.3 L222.4,57.9 L221.9,57.6 L221.7,57.5 L221.5,57.4 L221.4,57.4 L221.3,57.4 L221.0,57.5 L220.1,57.8 L219.9,57.8 L219.6,57.8 L219.2,57.8 L218.6,57.6 L218.3,57.5 L218.0,57.4 L217.9,57.3 L217.8,57.1 L217.6,57.0 L217.3,56.9 L216.7,56.6 L216.6,56.6 L216.3,56.7 L216.1,56.8 L215.7,56.9 L215.5,57.0 L215.4,57.1 L215.3,57.2 L215.1,57.2 L214.9,57.6 L214.7,57.8 L214.7,57.6 L214.7,57.6 L214.6,57.3 L214.2,57.0 L214.0,56.9 L213.8,56.9 L213.4,56.8 L213.1,56.7 L212.7,56.7 L212.5,56.6 L212.1,56.5 L211.8,56.4 L211.5,56.3 L211.3,56.1 L211.1,56.0 L211.1,55.9 L211.1,55.8 L211.1,55.7 L211.3,55.3 L211.3,55.2 L211.2,55.3 L211.1,55.3 L210.9,55.5 L210.8,55.6 L210.7,55.7 L210.5,55.8 L210.4,55.8 L210.0,55.7 L209.8,55.7 L209.5,55.7 L209.3,55.7 L209.0,55.8 L208.8,55.9 L208.6,55.9 L208.2,55.8 L208.0,55.8 L207.9,55.9 L207.5,56.1 L207.0,56.5 L206.9,56.5 L206.7,56.8 L206.3,57.2 L205.9,57.6 L205.7,57.5 L205.7,57.4 L205.7,57.3 L203.8,55.2 L203.7,55.0 L203.5,54.7 L203.3,54.2 L203.2,53.9 L203.1,53.8 L203.0,53.7 L202.9,53.7 L202.7,53.6 L202.4,53.6 L202.2,53.6 L201.6,53.7 L201.5,53.7 L201.4,53.7 L201.1,53.6 L200.9,53.4 L200.6,53.2 L200.5,53.1 L200.2,53.0 L199.8,53.0 L199.6,52.9 L199.2,52.7 L199.1,52.7 L198.6,52.2 L198.2,51.9 L197.9,51.8 L197.8,51.8 L197.8,51.7 L197.8,51.5 L197.2,51.3 L197.0,51.3 L196.8,51.3 L196.6,51.4 L196.1,51.7 L196.0,51.7 L196.0,51.7 L195.9,51.6 L195.8,51.5 L195.7,51.5 L195.2,51.7 L195.1,51.7 L194.9,51.7 L194.8,51.7 L194.6,51.5 L194.3,51.2 L194.3,51.1 L194.3,51.1 L194.1,50.8 L194.1,50.5 L194.1,50.4 L194.1,50.2 L194.1,50.0 L194.2,49.8 L194.2,49.7 L194.1,49.4 L194.0,49.3 L193.9,49.0 L193.7,48.9 L193.5,48.7 L193.5,48.7 L193.5,48.6 L193.4,48.6 L193.4,48.7 L193.2,48.6 L193.1,48.5 L192.9,48.3 L192.8,48.1 L192.8,48.1 L192.6,47.8 L192.5,47.6 L192.5,47.3 L192.4,47.1 L192.5,47.0 L192.5,46.9 L192.5,46.8 L192.4,46.6 L192.4,46.4 L192.4,46.4 L192.4,46.3 L192.3,46.0 L192.1,45.5 L191.9,45.2 L191.9,45.0 L191.8,44.8 L191.7,44.5 L191.5,44.1 L191.4,44.1 L191.4,43.7 L191.2,43.4 L191.1,43.3 L191.0,43.2 L190.8,43.2 L190.6,42.8 L190.5,42.3 L190.6,42.1 L190.6,41.9 L190.6,41.9 L190.7,41.8 L191.0,41.5 L191.4,41.3 L191.9,40.9 L192.1,40.8 L192.2,40.7 L192.4,40.7 L192.6,40.5 L192.6,40.4 L192.8,40.3 L193.1,40.2 L193.1,40.2 L193.2,40.1 L193.2,39.9 L193.2,39.7 L193.2,39.7 L193.1,39.6 L193.1,39.5 L193.0,39.5 L192.8,39.4 L192.6,39.5 L192.3,39.6 L192.2,39.6 L192.0,39.7 L191.8,39.6 L191.5,39.6 L191.4,39.7 L190.8,39.9 L190.7,40.0 L190.5,40.0 L190.2,39.9 L189.8,39.7 L189.7,39.5 L189.4,39.3 L189.3,39.1 L189.2,39.1 L188.8,39.0 L188.7,38.9 L188.6,38.9 L188.2,38.4 L188.0,38.1 L188.0,38.2 L187.9,38.2 L187.9,38.2 L187.7,38.2 L186.3,38.1 L185.6,38.1 L185.3,38.1 L184.8,38.1 L184.2,38.2 L183.9,38.3 L183.4,38.4 L182.8,38.6 L182.1,38.0 L182.0,37.8 L181.7,37.6 L181.3,37.4 L180.1,36.8 L179.4,36.6 L178.9,36.4 L178.6,36.4 L177.5,36.2 L177.2,36.1 L176.9,36.0 L175.5,35.8 L174.6,35.5 L174.5,35.5 L174.3,35.5 L174.0,35.5 L173.7,35.4 L173.4,35.2 L172.9,34.7 L172.2,33.9 L171.7,33.4 L171.3,32.8 L171.1,32.1 L171.0,31.5 L171.0,31.5 L171.0,31.4 L170.8,31.3 L170.8,31.3 L170.7,31.3 L170.6,31.2 L170.5,31.1 L170.4,31.1 L170.3,30.9 L170.3,30.7 L170.3,30.6 L170.2,30.3 L170.1,30.2 L169.9,29.7 L169.8,29.5 L169.7,29.3 L169.5,29.1 L169.4,28.8 L169.3,28.5 L169.1,28.2 L169.0,27.9 L168.9,27.7 L168.8,27.7 L168.7,27.6 L168.6,27.5 L168.6,27.5 L168.6,27.5 L168.2,27.2 L168.1,27.0 L168.0,26.9 L167.9,26.8 L167.6,26.6 L167.6,26.5 L167.5,26.0 L167.4,25.9 L167.1,25.9 L167.1,25.9 L167.0,25.9 L166.7,26.0 L166.7,25.9 L166.6,25.7 L166.5,25.2 L166.2,24.7 L166.1,24.0 L166.1,23.7 L165.5,22.7 L165.2,22.5 L165.0,22.4 L164.4,22.1 L164.0,22.0 L163.6,22.0 L163.6,22.0 L163.3,21.8 L163.1,21.7 L163.0,21.6 L162.9,21.6 L162.8,21.6 L162.5,21.6 L161.7,21.5 L161.7,21.5 L161.7,21.4 L161.7,21.3 L161.7,21.1 L161.6,21.1 L161.1,21.1 L160.9,21.0 L160.7,21.0 L160.2,21.0 L160.1,20.9 L159.9,20.8 L159.8,20.7 L159.7,20.7 L159.6,20.7 L159.6,20.6 L159.5,20.6 L159.5,20.6 L159.5,20.6 L159.4,20.7 L159.4,20.6 L158.7,20.1 L158.7,20.0 L158.6,20.0 L158.6,20.0 L158.5,20.1 L158.4,20.1 L158.2,20.1 L158.2,20.1 L158.1,20.1 L158.1,20.1 L158.0,20.0 L157.9,20.0 L157.3,20.3 L157.1,20.4 L157.0,20.4 L157.0,20.4 L156.8,20.5 L156.6,20.5 L156.5,20.6 L156.1,20.7 L156.1,20.8 L156.0,20.8 L155.8,20.9 L155.7,20.9 L155.6,21.0 L155.5,21.0 L155.4,21.0 L155.4,20.9 L154.9,20.8" fill="transparent" id="track" stroke="black" stroke-linejoin="miter" stroke-miterlimit="1" stroke-width="2"/>
<g>
<g>
<circle cx="202.57927310862306" cy="244.2528765804418" fill="Blue" id="0/wp/circle" r="5"/>
</g>
<g transform="translate(202.57927310862306 244.2528765804418)">
<rect fill="white" fill-opacity="0.75" height="12" id="label-bg" width="71.22105263157896" x="4" y="-16"/>
<text font-size="16.0" id="0/wp/text" text-anchor="start" x="4.000" y="-4.000">
K3 (17:14)
</text>
</g>
<g>
<circle cx="186.62281124089623" cy="308.8068693117639" fill="Black" id="1/wp/circle" r="3"/>
</g>
<g transform="translate(186.62281124089623 308.8068693117639)">
<rect fill="white" fill-opacity="0.75" height="12" id="label-bg" width="36.73684210526316" x="4" y="4"/>
<text font-size="16.0" id="1/wp/text" text-anchor="start" x="4.000" y="16.000">
16:06
</text>
</g>
<g>
<circle cx="187.97809865739055" cy="229.84120319187787" fill="Black" id="2/wp/circle" r="3"/>
</g>
<g transform="translate(187.97809865739055 229.84120319187787)">
<rect fill="white" fill-opacity="0.75" height="12" id="label-bg" width="36.73684210526316" x="-40.73684210526316" y="4"/>
<text font-size="16.0" id="2/wp/text" text-anchor="end" x="-4.000" y="16.000">
17:27
</text>
</g>
<g>
<circle cx="196.40729949767865" cy="378.0762167130597" fill="Black" id="3/wp/circle" r="3"/>
</g>
<g transform="translate(196.40729949767865 378.0762167130597)">
<rect fill="white" fill-opacity="0.75" height="12" id="label-bg" width="36.73684210526316" x="-40.73684210526316" y="4"/>
<text font-size="16.0" id="3/wp/text" text-anchor="end" x="-4.000" y="16.000">
14:46
</text>
</g>
<g>
<circle cx="224.61841284718412" cy="104.298560215404" fill="Black" id="4/wp/circle" r="3"/>
</g>
<g transform="translate(224.61841284718412 104.298560215404)">
<rect fill="white" fill-opacity="0.75" height="12" id="label-bg" width="36.73684210526316" x="4" y="-16"/>
<text font-size="16.0" id="4/wp/text" text-anchor="start" x="4.000" y="-4.000">
20:07
</text>
</g>
<g>
<circle cx="196.55894374272157" cy="51.42760064976028" fill="Black" id="5/wp/circle" r="3"/>
</g>
<g transform="translate(196.55894374272157 51.42760064976028)">
<rect fill="white" fill-opacity="0.75" height="12" id="label-bg" width="36.73684210526316" x="4" y="-16"/>
<text font-size="16.0" id="5/wp/text" text-anchor="start" x="4.000" y="-4.000">
21:27
</text>
</g>
<g>
<circle cx="176.8742526310225" cy="62.31674413258952" fill="Black" id="6/wp/circle" r="5"/>
<circle cx="176.8742526310225" cy="62.31674413258952" fill="white" id="6/wp/circle-little-white" r="3.5"/>
<circle cx="176.8742526310225" cy="62.31674413258952" fill="black" id="6/wp/circle-little-white" r="2.5"/>
</g>
<g transform="translate(176.8742526310225 62.31674413258952)">
<rect fill="white" fill-opacity="0.75" height="12" id="label-bg" width="94.90526315789474" x="-98.90526315789474" y="-16"/>
<text font-size="16.0" id="6/wp/text" text-anchor="end" x="-4.000" y="-4.000">
Baden-Baden
</text>
</g>
<g>
<circle cx="195.9940557205091" cy="286.9321207395915" fill="Green" id="7/wp/circle" r="3"/>
</g>
<g transform="translate(195.9940557205091 286.9321207395915)">
<rect fill="white" fill-opacity="0.75" height="12" id="label-bg" width="129.0105263157895" x="4" y="-16"/>
<text font-size="16.0" id="7/wp/text" text-anchor="start" x="4.000" y="-4.000">
Alexanderschanze
</text>
</g>
<g>
<circle cx="228.6728621500015" cy="60.2584909705547" fill="Black" id="8/wp/circle" r="5"/>
<circle cx="228.6728621500015" cy="60.2584909705547" fill="white" id="8/wp/circle-little-white" r="3.5"/>
<circle cx="228.6728621500015" cy="60.2584909705547" fill="black" id="8/wp/circle-little-white" r="2.5"/>
</g>
<g transform="translate(228.6728621500015 60.2584909705547)">
<rect fill="white" fill-opacity="0.75" height="12" id="label-bg" width="75.57894736842105" x="4" y="4"/>
<text font-size="16.0" id="8/wp/text" text-anchor="start" x="4.000" y="16.000">
Gernsbach
</text>
</g>
<g>
<circle cx="164.9216743718598" cy="194.7160138617146" fill="Green" id="9/wp/circle" r="3"/>
</g>
<g transform="translate(164.9216743718598 194.7160138617146)">
<rect fill="white" fill-opacity="0.75" height="12" id="label-bg" width="86.28421052631579" x="-90.28421052631579" y="-16"/>
<text font-size="16.0" id="9/wp/text" text-anchor="end" x="-4.000" y="-4.000">
Seibelseckle
</text>
</g>
<g>
<circle cx="167.2413557815653" cy="222.15761129907696" fill="Green" id="10/wp/circle" r="3"/>
</g>
<g transform="translate(167.2413557815653 222.15761129907696)">
<rect fill="white" fill-opacity="0.75" height="12" id="label-bg" width="67.90526315789474" x="-71.90526315789474" y="-6"/>
<text font-size="16.0" id="10/wp/text" text-anchor="end" x="-4.000" y="6.000">
Ruhestein
</text>
</g>
<g>
<circle cx="179.5384887870414" cy="340.1138246711671" fill="Green" id="11/wp/circle" r="3"/>
</g>
<g transform="translate(179.5384887870414 340.1138246711671)">
<rect fill="white" fill-opacity="0.75" height="12" id="label-bg" width="78.61052631578947" x="-82.61052631578947" y="4"/>
<text font-size="16.0" id="11/wp/text" text-anchor="end" x="-4.000" y="16.000">
Freiersberg
</text>
</g>
<g>
<circle cx="219.22014191225207" cy="105.31480513805946" fill="Green" id="12/wp/circle" r="3"/>
</g>
<g transform="translate(219.22014191225207 105.31480513805946)">
<rect fill="white" fill-opacity="0.75" height="12" id="label-bg" width="76.90526315789475" x="-80.90526315789475" y="4"/>
<text font-size="16.0" id="12/wp/text" text-anchor="end" x="-4.000" y="16.000">
Rote Lache
</text>
</g>
<g>
<circle cx="228.39155414979268" cy="103.89660313258719" fill="Green" id="13/wp/circle" r="3"/>
</g>
<g transform="translate(228.39155414979268 103.89660313258719)">
<rect fill="white" fill-opacity="0.75" height="12" id="label-bg" width="56.82105263157895" x="-62" y="34"/>
<text font-size="16.0" id="13/wp/text" text-anchor="end" x="-5.179" y="46.000">
Hartkopf
</text>
</g>
<path d="M225.41,133.91 L228.19,105.89" fill="transparent" id="link" stroke="black" stroke-linejoin="miter" stroke-miterlimit="1"/>
<g>
<circle cx="209.505874980091" cy="73.68565888923331" fill="Green" id="14/wp/circle" r="3"/>
</g>
<g transform="translate(209.505874980091 73.68565888923331)">
<rect fill="white" fill-opacity="0.75" height="12" id="label-bg" width="65.9157894736842" x="-30" y="-62"/>
<text font-size="16.0" id="14/wp/text" text-anchor="start" x="-30.000" y="-50.000">
Nachtigall
</text>
</g>
<path d="M209.51,27.69 L196.56,31.43 L196.56,51.43 L209.51,71.69" fill="transparent" id="link" stroke="black" stroke-linejoin="miter" stroke-miterlimit="1"/>
<g>
<circle cx="177.19392081307979" cy="337.9669132231502" fill="Black" id="15/wp/circle" r="3"/>
</g>
<g transform="translate(177.19392081307979 337.9669132231502)">
<rect fill="white" fill-opacity="0.75" height="12" id="label-bg" width="36.73684210526316" x="25.263157894736842" y="2"/>
<text font-size="16.0" id="15/wp/text" text-anchor="start" x="25.263" y="14.000">
15:26
</text>
</g>
<path d="M198.46,337.97 L179.19,337.97" fill="transparent" id="link" stroke="black" stroke-linejoin="miter" stroke-miterlimit="1"/>
<g>
<circle cx="188.68348216655977" cy="264.3885257723887" fill="Black" id="16/wp/circle" r="3"/>
</g>
<g transform="translate(188.68348216655977 264.3885257723887)">
<rect fill="white" fill-opacity="0.75" height="12" id="label-bg" width="36.73684210526316" x="25.263157894736842" y="-14"/>
<text font-size="16.0" id="16/wp/text" text-anchor="start" x="25.263" y="-2.000">
16:47
</text>
</g>
<path d="M209.95,264.39 L190.68,264.39" fill="transparent" id="link" stroke="black" stroke-linejoin="miter" stroke-miterlimit="1"/>
<g>
<circle cx="167.2355964705166" cy="195.20758268533973" fill="Black" id="17/wp/circle" r="3"/>
</g>
<g transform="translate(167.2355964705166 195.20758268533973)">
<rect fill="white" fill-opacity="0.75" height="12" id="label-bg" width="36.73684210526316" x="4" y="-16"/>
<text font-size="16.0" id="17/wp/text" text-anchor="start" x="4.000" y="-4.000">
18:07
</text>
</g>
<g>
<circle cx="224.2231867311848" cy="198.3862978180914" fill="Black" id="18/wp/circle" r="3"/>
</g>
<g transform="translate(224.2231867311848 198.3862978180914)">
<rect fill="white" fill-opacity="0.75" height="12" id="label-bg" width="36.73684210526316" x="4" y="4"/>
<text font-size="16.0" id="18/wp/text" text-anchor="start" x="4.000" y="16.000">
18:47
</text>
</g>
<g>
<circle cx="210.2756148274002" cy="73.08530839357991" fill="Black" id="19/wp/circle" r="3"/>
</g>
<g transform="translate(210.2756148274002 73.08530839357991)">
<rect fill="white" fill-opacity="0.75" height="12" id="label-bg" width="36.73684210526316" x="-62" y="2"/>
<text font-size="16.0" id="19/wp/text" text-anchor="end" x="-25.263" y="14.000">
20:47
</text>
</g>
<path d="M189.01,73.09 L208.28,73.09" fill="transparent" id="link" stroke="black" stroke-linejoin="miter" stroke-miterlimit="1"/>
<g>
<circle cx="238.91682718549237" cy="148.6941391177097" fill="Black" id="20/wp/circle" r="3"/>
</g>
<g transform="translate(238.91682718549237 148.6941391177097)">
<rect fill="white" fill-opacity="0.75" height="12" id="label-bg" width="36.73684210526316" x="4" y="4"/>
<text font-size="16.0" id="20/wp/text" text-anchor="start" x="4.000" y="16.000">
19:27
</text>
</g>
<g>
<circle cx="240.03254839745023" cy="128.01613700369126" fill="Black" id="21/wp/circle" r="4"/>
<circle cx="240.03254839745023" cy="128.01613700369126" fill="white" id="21/wp/circle-little-white" r="2.5"/>
</g>
<g transform="translate(240.03254839745023 128.01613700369126)">
<rect fill="white" fill-opacity="0.75" height="12" id="label-bg" width="54.736842105263165" x="4" y="-16"/>
<text font-size="16.0" id="21/wp/text" text-anchor="start" x="4.000" y="-4.000">
Forbach
</text>
</g>
<g>
<circle cx="219.26114397990023" cy="28.671971773837868" fill="Black" id="22/wp/circle" r="5"/>
<circle cx="219.26114397990023" cy="28.671971773837868" fill="white" id="22/wp/circle-little-white" r="3.5"/>
<circle cx="219.26114397990023" cy="28.671971773837868" fill="black" id="22/wp/circle-little-white" r="2.5"/>
</g>
<g transform="translate(219.26114397990023 28.671971773837868)">
<rect fill="white" fill-opacity="0.75" height="12" id="label-bg" width="71.78947368421052" x="22.21052631578948" y="2"/>
<text font-size="16.0" id="22/wp/text" text-anchor="start" x="22.211" y="14.000">
Gaggenau
</text>
</g>
<path d="M237.47,28.67 L221.26,28.67" fill="transparent" id="link" stroke="black" stroke-linejoin="miter" stroke-miterlimit="1"/>
<g>
<circle cx="137.09231352076222" cy="290.83401883790066" fill="Black" id="25/wp/circle" r="5"/>
<circle cx="137.09231352076222" cy="290.83401883790066" fill="white" id="25/wp/circle-little-white" r="3.5"/>
<circle cx="137.09231352076222" cy="290.83401883790066" fill="black" id="25/wp/circle-little-white" r="2.5"/>
</g>
<g transform="translate(137.09231352076222 290.83401883790066)">
<rect fill="white" fill-opacity="0.75" height="12" id="label-bg" width="62.78947368421052" x="-66.78947368421052" y="-16"/>
<text font-size="16.0" id="25/wp/text" text-anchor="end" x="-4.000" y="-4.000">
Oppenau
</text>
</g>
</g>
</svg>