<svg height="400" viewBox="(0, 0, 400, 400)" width="400" xmlns="http://www.w3.org/2000/svg">
<path d="M138.9,374.5 L139.1,374.4 L139.4,374.5 L139.6,374.5 L140.2,374.6 L140.5,374.8 L140.7,375.0 L140.7,375.1 L140.6,375.5 L140.5,375.9 L140.4,376.1 L140.2,376.3 L140.1,376.4 L140.1,376.6 L140.2,376.7 L140.4,376.8 L141.1,377.2 L141.3,377.3 L142.4,377.4 L142.6,377.4 L142.7,377.3 L142.7,377.2 L142.6,376.7 L142.6,376.4 L142.6,376.2 L142.5,376.1 L142.5,375.9 L142.6,375.5 L142.8,375.1 L142.8,374.9 L142.7,374.6 L142.8,374.5 L142.9,374.2 L143.0,374.1 L143.6,374.5 L143.8,374.5 L143.9,374.7 L144.2,374.8 L144.4,374.9 L144.6,374.9 L145.0,375.0 L145.3,375.0 L145.6,375.0 L146.0,375.0 L146.8,375.1 L147.3,375.2 L147.5,375.1 L147.6,375.0 L147.9,374.9 L148.1,374.9 L148.2,375.0 L148.1,375.2 L148.0,375.3 L147.8,375.5 L147.3,375.8 L147.1,375.9 L146.9,376.0 L146.7,376.0 L146.1,376.1 L146.0,376.2 L146.0,376.2 L146.0,376.3 L146.0,376.4 L146.1,376.5 L146.3,376.4 L146.8,376.5 L147.3,376.5 L147.7,376.5 L147.9,376.4 L148.7,376.1 L149.3,376.1 L149.6,376.1 L150.3,376.0 L150.4,376.0 L150.5,376.0 L150.9,376.3 L151.4,376.5 L151.9,376.8 L152.1,376.8 L152.7,376.9 L152.8,376.9 L153.0,376.9 L153.4,377.1 L153.8,377.5 L153.9,377.6 L154.2,377.9 L154.7,378.3 L155.0,378.5 L155.4,378.7 L156.2,378.9 L156.6,379.2 L156.8,379.4 L157.0,379.6 L157.2,379.9 L157.7,380.1 L158.4,380.4 L159.0,380.6 L160.1,380.8 L160.3,380.9 L160.5,381.3 L160.7,381.4 L160.8,381.5 L161.0,381.7 L162.2,382.5 L163.1,382.9 L163.2,383.0 L163.5,382.9 L163.6,382.9 L164.3,382.9 L164.7,383.1 L164.8,383.1 L164.8,383.1 L164.9,383.1 L164.9,383.1 L165.2,383.4 L165.3,383.6 L165.3,383.8 L165.3,383.9 L165.4,384.1 L165.7,384.4 L166.2,385.3 L166.3,385.4 L166.4,385.6 L166.4,385.9 L166.3,386.2 L166.3,386.4 L166.5,386.6 L166.5,386.7 L166.7,387.0 L166.9,387.1 L167.2,387.4 L167.3,387.5 L167.4,387.6 L167.4,388.0 L167.5,388.2 L167.6,388.4 L167.9,388.9 L168.0,389.0 L168.4,389.4 L168.4,389.5 L168.5,389.6 L168.5,389.8 L168.7,389.7 L169.1,389.9 L169.5,390.0 L169.9,390.0 L170.1,390.0 L170.3,389.9 L170.5,389.9 L170.7,389.8 L171.0,389.6 L171.1,389.4 L171.3,389.1 L171.5,388.9 L171.9,388.2 L172.0,388.1 L172.6,388.1 L172.7,388.0 L172.8,387.9 L173.1,387.7 L173.5,387.1 L174.1,386.5 L174.5,386.0 L174.7,385.9 L175.0,385.7 L175.5,385.6 L175.6,385.5 L175.8,385.4 L176.3,385.0 L176.8,384.5 L177.0,384.3 L177.2,384.0 L177.3,383.7 L177.5,383.4 L178.6,382.2 L178.7,382.1 L178.9,381.9 L178.9,381.7 L179.1,381.5 L179.3,381.4 L179.6,381.3 L180.0,381.3 L180.3,381.2 L180.6,381.1 L181.1,380.7 L181.2,380.7 L181.4,380.7 L181.7,380.6 L181.9,380.7 L182.6,380.9 L182.8,380.9 L182.9,380.9 L183.3,381.0 L183.9,381.2 L184.1,381.2 L184.4,381.2 L184.7,381.2 L186.0,380.9 L186.2,380.8 L186.5,380.7 L187.0,380.2 L187.8,379.5 L188.2,379.1 L188.6,379.0 L189.3,378.6 L189.6,378.5 L189.8,378.4 L189.9,378.3 L190.4,377.6 L190.6,377.5 L190.9,377.4 L191.1,377.3 L191.4,377.2 L192.0,377.2 L192.2,377.2 L192.9,377.3 L193.3,377.3 L193.6,377.2 L193.8,377.0 L193.9,376.9 L194.2,376.3 L194.5,376.1 L194.5,376.0 L194.6,376.0 L194.8,375.8 L195.9,375.2 L195.9,375.2 L196.1,375.1 L196.1,375.1 L197.0,374.6 L197.1,374.5 L197.4,374.3 L198.5,373.0 L198.6,372.9 L198.7,372.7 L199.2,372.3 L199.3,372.2 L199.4,371.9 L199.5,371.8 L199.6,371.6 L199.8,371.5 L200.4,371.1 L200.6,370.8 L200.9,370.5 L201.2,370.0 L201.8,369.1 L202.1,368.8 L202.5,368.5 L202.8,368.4 L203.0,368.2 L203.2,368.0 L203.4,367.8 L203.5,367.7 L203.7,367.3 L203.7,367.1 L203.7,366.9 L203.6,366.7 L203.4,366.3 L203.3,366.2 L203.3,365.9 L203.3,365.7 L203.4,365.5 L203.5,365.1 L203.8,364.9 L204.0,364.7 L204.4,364.6 L204.8,364.3 L205.0,364.1 L205.1,364.0 L205.1,364.0 L205.1,363.8 L205.2,363.7 L205.2,363.4 L205.2,363.2 L205.1,363.0 L204.4,363.1 L204.2,363.1 L203.9,363.1 L203.1,362.9 L202.7,362.9 L202.7,362.8 L202.6,362.8 L202.3,362.4 L201.6,361.9 L201.4,361.8 L201.1,361.1 L200.9,360.9 L199.5,359.8 L199.1,359.5 L199.0,359.3 L198.9,359.2 L198.9,359.0 L199.0,358.7 L199.1,358.5 L199.6,358.1 L199.6,358.1 L199.7,358.0 L199.7,357.9 L199.6,357.8 L199.5,357.7 L199.3,357.4 L198.7,356.8 L198.3,356.5 L198.1,356.2 L198.0,356.0 L198.0,355.8 L198.1,355.6 L198.1,355.4 L198.0,355.3 L197.8,355.1 L197.6,354.9 L197.6,354.8 L197.6,354.5 L197.7,354.3 L198.0,353.7 L198.0,353.6 L198.0,353.5 L197.9,353.1 L197.9,353.0 L197.9,352.9 L197.8,352.8 L197.7,352.6 L197.7,352.5 L197.7,352.4 L197.9,352.0 L197.9,351.8 L197.9,351.5 L197.9,351.4 L197.8,351.3 L197.7,351.2 L197.5,351.1 L197.5,351.1 L197.2,350.9 L197.1,350.8 L197.0,350.7 L196.6,349.6 L196.6,349.5 L196.6,349.4 L196.7,349.1 L196.8,348.8 L196.9,348.6 L197.1,348.4 L197.2,348.3 L197.3,347.9 L197.5,347.4 L197.5,347.2 L197.6,346.9 L197.6,346.6 L197.6,346.1 L197.7,345.7 L197.8,345.4 L198.0,344.4 L198.0,344.3 L198.0,344.2 L197.9,344.0 L197.8,343.9 L197.4,343.8 L197.3,343.7 L197.2,343.6 L197.1,343.0 L197.1,342.9 L197.0,342.8 L196.9,342.7 L196.7,342.7 L196.4,342.7 L196.3,342.7 L196.0,342.6 L195.8,342.4 L195.7,342.2 L195.5,341.9 L195.4,341.8 L195.3,341.7 L195.2,341.6 L195.0,341.6 L194.4,341.6 L194.1,341.5 L194.0,341.5 L193.6,341.3 L193.4,341.3 L193.4,341.3 L193.3,341.2 L193.2,341.1 L193.2,341.0 L193.0,340.6 L192.9,340.0 L192.7,339.8 L192.3,339.6 L191.7,339.0 L191.5,338.6 L191.3,338.3 L190.8,337.7 L190.6,337.4 L190.6,337.2 L190.6,336.5 L190.6,336.3 L190.4,335.6 L190.2,334.6 L190.0,333.9 L190.0,333.5 L190.0,333.3 L189.9,333.2 L189.9,333.1 L189.9,332.9 L190.3,332.2 L190.4,331.9 L190.5,331.4 L190.7,330.5 L190.7,330.4 L190.5,330.3 L190.5,330.3 L190.5,330.3 L190.4,330.4 L190.4,330.8 L190.2,331.2 L190.2,331.5 L190.1,331.6 L189.8,332.0 L189.6,332.4 L189.5,332.4 L189.5,332.5 L189.3,332.4 L189.1,332.3 L188.7,332.1 L188.4,332.0 L187.5,331.9 L187.4,331.8 L187.3,331.8 L187.3,331.6 L187.3,331.5 L187.5,331.1 L187.5,331.0 L187.4,330.9 L187.2,330.8 L186.3,330.4 L186.2,330.3 L186.0,330.2 L185.8,329.9 L185.7,329.9 L185.3,329.6 L185.2,329.4 L185.1,329.2 L185.0,329.0 L184.9,328.9 L184.8,328.9 L184.4,328.9 L184.3,328.9 L182.6,327.7 L182.4,327.4 L182.2,327.1 L182.0,326.9 L181.9,326.7 L181.9,326.5 L181.9,326.3 L182.0,325.4 L181.9,325.1 L181.8,325.0 L181.8,324.9 L181.7,324.8 L181.5,324.7 L181.4,324.5 L181.3,324.4 L181.3,324.2 L181.4,324.0 L181.5,323.5 L181.6,323.3 L181.7,323.2 L182.1,323.1 L182.1,323.0 L182.2,322.9 L182.1,322.8 L182.0,322.8 L181.9,322.8 L181.7,323.0 L181.3,323.3 L181.0,323.6 L180.1,324.4 L179.6,324.7 L179.4,324.7 L179.1,324.6 L178.9,324.5 L178.8,324.4 L178.6,323.8 L178.5,323.7 L178.3,323.7 L178.1,323.8 L177.9,323.9 L177.7,324.2 L177.6,324.3 L177.4,324.3 L177.4,324.3 L177.0,323.9 L176.4,323.8 L176.1,323.7 L175.9,323.4 L175.7,322.8 L175.7,322.7 L175.5,322.6 L175.3,322.5 L174.8,322.7 L174.7,322.8 L174.6,322.7 L174.6,322.6 L174.7,322.5 L175.4,322.3 L175.7,322.3 L176.0,322.5 L176.3,323.0 L176.6,323.1 L176.9,322.9 L177.3,322.3 L177.6,322.2 L178.0,322.2 L178.6,322.3 L178.7,322.2 L178.7,322.1 L178.7,321.8 L178.8,321.6 L179.1,321.0 L179.3,320.8 L179.5,320.6 L179.5,320.5 L179.5,320.4 L179.5,320.4 L179.4,320.4 L179.3,320.4 L178.6,321.1 L178.3,321.3 L178.0,321.4 L177.6,321.4 L177.5,321.4 L177.4,321.3 L176.9,321.1 L176.4,320.8 L176.2,320.7 L175.7,320.6 L175.6,320.6 L175.5,320.4 L175.4,320.2 L175.4,320.1 L175.2,320.0 L174.5,319.9 L173.8,319.9 L173.7,319.9 L173.4,319.7 L173.2,319.6 L172.9,319.4 L172.3,318.7 L171.7,318.0 L171.3,317.6 L171.0,317.4 L170.9,317.4 L170.8,317.4 L170.6,317.5 L170.3,317.8 L170.0,318.0 L169.8,318.1 L169.6,318.1 L169.3,318.2 L169.1,318.1 L168.9,318.1 L168.8,318.1 L168.5,317.7 L168.0,317.2 L167.9,317.2 L167.8,317.1 L167.5,317.0 L167.2,317.0 L166.5,317.1 L166.4,317.1 L166.0,316.9 L166.0,316.9 L165.7,316.8 L165.7,316.8 L165.6,316.7 L165.1,316.3 L165.0,316.3 L164.9,316.2 L164.6,316.2 L164.2,316.1 L164.0,316.0 L163.4,315.7 L163.0,315.5 L162.6,315.2 L162.4,315.0 L161.8,314.5 L161.7,314.4 L161.6,314.3 L161.0,313.8 L160.8,313.6 L160.5,313.2 L160.3,312.9 L160.2,312.8 L160.1,312.7 L159.9,312.6 L159.7,312.6 L159.4,312.6 L159.2,312.6 L158.9,312.5 L158.8,312.4 L158.6,312.1 L158.6,312.0 L158.5,311.7 L158.3,311.2 L158.2,310.9 L158.1,310.8 L158.0,310.7 L157.7,310.5 L157.6,310.4 L157.6,310.3 L157.6,309.9 L157.5,309.8 L157.4,309.6 L157.4,309.5 L157.2,309.2 L157.5,309.1 L157.8,309.0 L157.8,309.0 L157.9,309.0 L157.9,308.9 L158.1,308.9 L158.1,308.9 L158.2,308.8 L158.3,308.8 L158.5,308.7 L158.6,308.7 L159.0,308.4 L159.7,308.0 L160.3,307.6 L160.7,307.3 L160.8,307.2 L160.9,307.1 L161.0,306.9 L161.0,306.6 L161.0,306.3 L161.0,306.1 L161.1,305.9 L161.5,305.3 L161.7,305.1 L161.7,305.0 L162.0,304.8 L163.0,304.4 L163.1,304.3 L163.2,304.1 L163.5,303.7 L163.6,303.5 L163.7,303.3 L163.8,303.2 L163.9,303.1 L164.3,302.8 L164.6,302.6 L165.0,302.1 L165.0,302.0 L165.9,300.8 L166.8,299.9 L166.9,299.9 L167.1,299.6 L167.3,299.4 L167.6,299.1 L167.8,298.8 L168.0,298.7 L168.1,298.6 L168.1,298.5 L168.1,298.1 L168.1,297.9 L168.2,297.7 L168.3,297.5 L168.5,297.3 L168.8,297.0 L169.2,296.8 L169.4,296.8 L169.5,296.8 L169.7,296.8 L170.2,296.8 L170.4,296.9 L170.6,296.8 L170.7,296.7 L170.9,296.4 L171.0,296.2 L171.1,296.0 L171.4,295.8 L171.9,295.5 L172.0,295.3 L172.1,295.3 L172.1,295.1 L172.1,294.8 L172.1,294.2 L172.0,293.7 L172.1,293.1 L172.1,293.0 L172.2,292.5 L172.3,292.1 L172.4,291.6 L172.4,291.5 L172.5,291.0 L172.6,290.8 L172.7,290.7 L172.8,290.6 L173.0,290.5 L173.0,290.5 L173.2,290.6 L173.3,290.6 L173.5,290.7 L173.6,290.8 L173.9,290.7 L174.5,290.6 L175.1,290.3 L175.2,290.3 L175.6,290.1 L176.0,290.0 L176.2,290.0 L176.5,289.9 L176.7,289.8 L176.7,289.8 L176.8,289.7 L177.0,289.6 L177.3,289.4 L177.4,289.3 L177.6,289.1 L177.6,289.1 L177.7,289.0 L177.7,288.8 L177.7,288.3 L177.8,288.2 L177.9,287.9 L178.2,287.6 L178.3,287.6 L178.5,287.5 L178.6,287.5 L179.1,287.8 L179.2,287.8 L179.3,287.9 L179.6,287.9 L180.0,288.0 L180.4,288.1 L180.7,288.1 L181.4,288.4 L181.5,288.4 L182.2,288.6 L182.7,288.8 L182.8,288.8 L183.5,289.4 L183.6,289.4 L183.7,289.4 L184.3,289.4 L184.9,289.6 L185.7,289.8 L186.0,289.9 L186.2,290.1 L186.4,290.5 L186.6,290.7 L187.2,291.1 L187.6,291.4 L187.8,291.4 L188.0,291.5 L188.3,291.6 L188.8,291.5 L188.9,291.5 L189.0,291.4 L189.0,291.3 L189.0,291.3 L189.0,291.2 L188.9,291.2 L188.8,291.1 L188.3,291.1 L188.2,291.1 L188.1,291.0 L187.8,290.7 L187.5,290.4 L187.4,290.3 L187.4,290.0 L187.4,289.9 L187.6,289.5 L187.7,289.0 L187.8,288.8 L188.1,288.6 L188.3,288.4 L188.5,288.3 L188.7,288.2 L188.9,288.0 L189.0,288.0 L189.1,288.0 L189.1,288.1 L188.8,288.3 L188.7,288.4 L188.3,289.1 L188.2,289.2 L188.3,289.2 L188.3,289.2 L188.4,289.2 L188.7,288.8 L188.9,288.7 L189.9,288.1 L190.2,287.8 L190.3,287.6 L190.3,287.5 L190.3,287.4 L190.3,287.3 L190.3,287.1 L190.1,287.0 L189.8,286.7 L189.6,286.6 L189.3,286.6 L189.0,286.5 L188.7,286.3 L188.6,286.2 L188.7,286.2 L188.8,286.2 L189.3,286.4 L189.4,286.4 L189.4,286.4 L189.5,286.3 L189.4,286.3 L189.2,286.2 L189.1,286.2 L189.0,286.1 L189.0,286.0 L189.1,285.4 L189.0,284.3 L189.0,284.1 L188.8,283.9 L188.6,283.8 L188.0,283.6 L187.7,283.5 L187.7,283.4 L187.6,283.3 L187.6,283.3 L187.7,283.2 L188.0,282.7 L188.2,282.6 L188.3,282.5 L189.3,282.3 L190.0,282.1 L190.1,282.1 L190.1,282.2 L190.1,282.2 L190.1,282.3 L189.9,282.3 L189.7,282.4 L189.1,282.8 L189.0,282.8 L189.0,282.9 L189.1,283.0 L189.1,283.0 L189.2,283.0 L189.4,282.8 L189.6,282.7 L190.4,282.5 L190.8,282.3 L191.6,281.8 L192.0,281.5 L192.1,281.4 L192.1,281.2 L192.1,281.0 L192.0,280.2 L191.9,279.6 L191.6,278.8 L191.5,278.3 L191.6,277.9 L191.6,277.7 L191.8,277.4 L192.5,276.6 L193.0,276.1 L193.8,275.4 L193.9,275.2 L194.3,274.6 L194.5,274.0 L195.0,272.6 L195.0,272.1 L195.0,271.4 L194.9,271.3 L194.8,271.0 L194.5,270.7 L193.9,270.0 L193.8,269.8 L193.8,269.6 L194.3,268.7 L194.4,268.5 L194.7,267.8 L194.9,267.4 L195.1,267.1 L195.3,267.0 L196.4,266.4 L196.7,266.2 L197.1,265.9 L197.3,265.7 L198.4,264.8 L198.6,264.5 L199.0,264.2 L200.8,262.6 L200.9,262.5 L200.9,262.5 L201.0,262.4 L201.0,262.4 L201.2,262.2 L201.6,261.8 L201.7,261.8 L201.5,261.6 L201.3,261.3 L201.1,261.1 L201.0,260.8 L201.0,260.8 L200.9,260.5 L200.8,260.0 L200.8,259.8 L200.7,259.1 L200.7,259.0 L200.7,259.0 L200.7,258.7 L200.5,258.6 L200.2,256.2 L200.1,255.7 L200.1,255.6 L199.8,255.1 L199.4,254.6 L199.3,254.3 L199.2,254.3 L198.6,253.7 L198.3,253.5 L197.9,253.0 L197.6,252.7 L197.3,251.9 L196.9,250.9 L196.8,250.7 L196.7,250.5 L196.4,250.1 L196.3,250.0 L195.9,249.8 L195.3,249.5 L195.1,249.5 L194.8,249.5 L194.6,249.5 L194.3,249.5 L193.6,249.8 L193.5,249.8 L193.3,249.8 L193.1,249.7 L192.9,249.6 L192.1,249.0 L191.1,248.2 L191.1,248.1 L190.7,247.9 L190.3,247.7 L189.6,247.5 L189.2,247.3 L188.8,247.3 L188.4,247.2 L187.9,247.2 L187.4,247.3 L186.6,247.4 L186.4,247.5 L186.0,247.6 L186.0,247.5 L186.0,246.9 L186.2,245.9 L186.2,245.5 L186.3,245.3 L186.4,245.1 L186.6,245.0 L186.9,244.8 L187.2,244.7 L187.4,244.6 L187.7,244.6 L188.6,244.5 L191.2,244.5 L191.4,244.5 L191.9,244.4 L192.3,244.1 L192.3,244.0 L192.6,243.5 L192.7,243.4 L192.8,243.2 L192.8,243.0 L192.8,242.7 L192.7,242.4 L192.7,242.3 L192.5,242.1 L191.2,240.8 L190.9,240.6 L190.8,240.3 L190.5,239.7 L190.4,239.5 L190.3,239.0 L190.3,238.8 L190.4,238.4 L190.6,238.1 L190.8,237.9 L191.0,237.7 L191.1,237.6 L191.4,237.5 L192.1,237.3 L192.5,237.1 L193.2,237.0 L193.3,237.0 L193.5,236.8 L193.6,236.7 L193.7,236.4 L193.7,236.1 L193.6,235.7 L193.3,234.9 L193.0,234.3 L193.0,234.0 L192.9,233.7 L193.0,233.4 L193.4,231.5 L193.5,231.3 L194.4,229.9 L194.5,229.7 L194.6,229.6 L195.1,229.2 L195.2,229.0 L195.2,229.0 L195.2,228.9 L195.1,228.9 L195.0,228.9 L194.1,229.8 L193.0,231.0 L192.8,231.3 L191.7,233.3 L191.6,233.6 L191.4,234.3 L191.4,234.6 L191.4,234.8 L191.5,235.2 L191.5,235.3 L191.4,235.4 L191.3,235.5 L191.1,235.5 L190.9,235.5 L190.7,235.4 L190.5,235.3 L190.4,235.3 L189.8,235.5 L188.4,236.2 L187.7,236.4 L187.2,236.6 L187.0,236.7 L186.9,236.8 L186.8,236.8 L186.7,236.8 L186.7,236.7 L186.7,236.6 L186.7,236.5 L186.8,236.4 L188.3,235.5 L188.6,235.4 L188.8,235.2 L189.0,234.9 L189.2,234.6 L189.4,234.3 L189.5,233.7 L189.6,233.4 L189.7,233.1 L189.9,232.6 L190.3,231.7 L190.5,231.4 L190.5,231.2 L190.6,230.8 L190.7,230.6 L190.9,230.3 L191.0,230.2 L191.0,229.7 L191.0,229.4 L191.0,228.9 L191.0,228.7 L191.1,228.6 L192.1,226.6 L192.3,226.2 L192.4,226.0 L193.3,225.0 L193.5,224.9 L193.8,224.7 L194.5,224.5 L194.6,224.5 L194.7,224.4 L194.9,224.1 L195.0,223.9 L195.2,223.8 L195.5,223.7 L196.1,223.7 L196.3,223.7 L196.5,223.6 L196.7,223.4 L196.9,223.4 L197.0,223.3 L198.8,223.4 L198.9,223.4 L199.0,223.3 L199.2,223.2 L199.2,223.0 L199.5,222.2 L199.6,221.9 L199.8,221.8 L200.1,221.5 L200.6,221.0 L200.8,220.6 L201.0,220.4 L201.2,220.1 L201.4,219.8 L201.5,219.1 L201.5,218.8 L201.4,218.6 L201.4,218.5 L201.4,218.5 L201.3,218.0 L201.4,217.6 L201.4,217.5 L201.3,216.9 L201.5,216.8 L202.3,216.1 L203.1,215.5 L203.3,215.3 L203.4,215.2 L203.8,214.9 L203.8,214.8 L204.0,214.7 L204.1,214.7 L204.6,214.5 L205.0,214.3 L206.3,213.5 L206.7,213.1 L207.1,212.7 L207.3,212.4 L207.5,212.2 L207.6,212.2 L207.8,212.1 L208.2,212.0 L208.6,211.9 L208.9,211.9 L209.5,211.7 L209.7,211.7 L209.7,211.7 L209.8,211.7 L210.0,211.7 L210.1,211.6 L210.2,211.6 L210.2,211.6 L210.2,211.5 L210.1,211.3 L210.0,211.2 L209.9,210.8 L209.4,210.0 L209.1,209.5 L209.0,209.4 L209.0,209.4 L208.2,209.1 L207.7,208.9 L207.4,208.8 L206.8,208.5 L206.3,208.2 L205.9,207.9 L205.7,207.8 L205.5,207.6 L205.4,207.4 L205.3,207.2 L205.2,206.8 L205.2,206.6 L205.0,206.2 L204.9,206.0 L204.4,205.5 L203.2,204.2 L202.9,203.6 L202.7,203.3 L202.5,203.1 L202.4,203.0 L202.2,202.8 L201.4,202.4 L199.4,201.0 L199.2,200.9 L199.1,200.6 L199.0,200.4 L198.9,200.2 L198.9,200.0 L199.1,199.1 L199.1,198.9 L199.1,198.8 L199.0,198.7 L199.0,198.7 L198.8,198.7 L198.7,198.7 L198.4,199.0 L198.2,199.1 L198.1,199.0 L198.0,199.0 L197.9,198.8 L197.9,198.2 L197.7,197.8 L197.5,197.6 L197.2,197.4 L196.7,197.1 L196.5,196.9 L196.4,196.8 L196.3,196.6 L196.3,196.2 L196.2,196.1 L196.2,196.0 L196.1,196.0 L196.0,196.0 L195.9,196.1 L195.7,196.2 L195.6,196.2 L194.7,195.8 L194.4,195.6 L194.2,195.5 L193.1,194.5 L192.9,194.4 L192.8,194.0 L192.8,193.6 L192.6,192.4 L192.5,192.3 L192.5,192.2 L192.3,192.1 L192.2,192.1 L192.1,192.1 L191.9,192.1 L191.8,192.2 L191.8,192.4 L191.6,193.2 L191.5,193.4 L191.3,193.5 L191.1,193.6 L190.8,193.7 L189.8,193.7 L188.6,193.8 L188.5,193.8 L188.0,194.1 L187.8,194.2 L187.5,194.2 L187.1,194.3 L186.8,194.2 L186.5,194.1 L186.1,194.0 L185.8,193.8 L185.5,193.5 L185.4,193.3 L185.2,193.0 L185.0,192.4 L184.5,191.0 L184.3,190.6 L184.1,190.4 L184.0,190.3 L183.9,190.2 L183.7,190.2 L183.6,190.3 L183.5,190.3 L183.4,190.4 L183.3,190.6 L183.2,190.8 L183.2,191.1 L183.2,191.4 L183.3,192.1 L183.4,192.2 L183.3,192.4 L183.2,192.5 L182.9,192.7 L182.6,192.9 L182.4,193.2 L182.2,193.8 L182.0,194.0 L181.8,194.2 L181.5,194.3 L181.2,194.4 L180.9,194.4 L180.7,194.3 L180.5,194.2 L179.8,193.7 L179.6,193.6 L179.4,193.3 L179.3,193.0 L179.1,192.7 L179.0,192.4 L178.9,191.9 L178.9,191.4 L178.8,190.8 L178.5,188.8 L178.1,186.3 L178.0,186.0 L177.9,185.8 L177.8,185.6 L177.6,185.4 L177.1,185.0 L177.0,184.9 L176.7,184.8 L176.3,184.7 L176.1,184.6 L175.8,184.3 L175.6,184.3 L175.5,184.3 L175.4,184.3 L175.2,184.3 L175.1,184.5 L175.0,184.7 L175.1,184.9 L175.2,185.1 L175.3,185.3 L175.3,185.4 L175.2,185.5 L175.1,185.6 L175.0,185.6 L174.5,185.7 L173.8,186.0 L173.5,186.0 L173.2,186.1 L172.9,186.1 L172.5,186.0 L172.2,186.0 L171.8,185.9 L171.7,185.8 L171.5,185.8 L171.1,185.6 L170.5,185.3 L170.4,185.3 L170.1,185.1 L169.5,184.9 L169.5,184.9 L168.9,184.8 L168.7,184.7 L168.6,184.7 L168.6,184.7 L168.4,184.7 L168.3,184.6 L168.2,184.6 L168.1,184.4 L168.0,184.4 L168.0,184.3 L168.0,184.1 L168.3,183.5 L168.4,183.2 L168.6,183.0 L168.8,182.7 L168.8,182.6 L168.9,182.3 L169.0,182.2 L169.3,180.7 L169.4,179.9 L169.5,179.5 L169.5,178.6 L169.4,177.1 L169.4,176.8 L169.4,176.5 L169.5,176.1 L169.6,175.8 L169.9,175.4 L170.2,175.0 L170.6,174.6 L170.8,174.4 L171.1,174.2 L171.2,174.1 L171.3,174.0 L171.4,173.9 L171.4,173.7 L171.4,173.5 L171.2,173.4 L171.2,173.4 L171.0,173.3 L170.8,173.2 L170.5,173.2 L170.1,173.0 L169.7,173.0 L169.5,173.0 L169.2,173.0 L168.8,173.1 L168.3,173.2 L167.9,173.2 L167.5,173.1 L167.2,172.9 L166.9,172.7 L166.7,172.5 L166.2,172.0 L166.0,171.6 L165.9,171.4 L165.9,171.0 L165.8,170.7 L165.9,170.5 L166.1,169.3 L166.2,168.7 L166.3,168.5 L166.4,168.3 L166.8,167.8 L167.1,167.4 L168.2,166.2 L168.4,165.9 L168.5,165.7 L168.5,165.5 L168.5,165.4 L168.5,165.2 L168.4,165.0 L168.2,164.7 L167.9,164.3 L167.0,163.5 L166.4,163.0 L166.1,162.7 L165.9,162.7 L165.6,162.6 L165.0,162.5 L164.8,162.5 L164.6,162.4 L164.4,162.3 L164.3,162.2 L164.2,162.0 L164.1,161.7 L164.1,161.6 L164.1,161.4 L164.2,161.0 L164.5,160.4 L164.6,160.2 L165.0,159.4 L165.2,158.9 L165.2,158.5 L165.3,158.1 L165.3,157.5 L165.2,157.1 L165.0,156.3 L165.0,156.0 L165.0,155.7 L165.1,155.4 L165.3,154.7 L165.8,153.0 L165.9,152.6 L165.9,152.2 L166.0,152.2 L166.0,151.9 L166.0,151.8 L166.0,151.7 L166.2,151.6 L166.3,151.6 L166.5,151.6 L166.6,151.7 L167.1,152.1 L167.4,152.2 L168.6,152.7 L168.7,152.8 L168.8,152.9 L169.7,153.2 L169.9,153.3 L170.0,153.4 L170.3,154.0 L171.3,155.0 L171.5,155.2 L171.6,155.3 L172.2,155.5 L172.4,155.6 L172.5,155.7 L172.6,155.9 L172.7,156.1 L172.6,156.5 L172.6,156.7 L172.6,156.9 L172.9,157.8 L172.9,158.1 L172.9,158.4 L173.1,158.9 L173.2,159.0 L173.5,159.0 L173.9,159.0 L174.4,158.8 L176.3,158.2 L177.4,157.8 L177.5,157.8 L177.7,157.9 L177.7,157.9 L177.8,158.0 L177.8,158.0 L177.8,158.2 L177.8,158.5 L177.8,158.5 L177.9,158.8 L178.0,158.9 L178.2,158.9 L178.3,158.9 L178.4,158.8 L178.5,158.7 L178.9,158.2 L179.0,158.1 L179.9,157.6 L180.2,157.5 L180.4,157.5 L180.7,157.6 L180.8,157.6 L181.0,157.7 L181.1,157.8 L181.2,157.9 L181.2,158.1 L181.3,158.5 L181.4,158.7 L181.5,158.8 L181.7,158.8 L181.7,158.7 L182.0,158.3 L182.3,158.1 L182.4,158.0 L182.5,158.0 L183.3,157.6 L183.5,157.5 L183.8,157.5 L183.9,157.6 L184.1,157.7 L184.3,157.8 L185.5,157.8 L185.6,157.9 L185.7,158.0 L185.8,158.1 L186.0,158.8 L186.1,159.1 L186.2,159.2 L186.3,159.2 L186.5,159.2 L186.7,159.1 L186.8,158.9 L186.8,158.6 L186.8,158.6 L186.8,157.5 L186.8,157.1 L186.9,156.8 L187.0,156.7 L187.2,156.4 L187.5,156.3 L188.0,156.0 L188.1,156.0 L188.3,156.0 L188.5,156.0 L188.6,156.0 L188.7,155.9 L188.7,155.9 L188.9,156.0 L189.1,156.1 L189.3,156.5 L189.5,156.8 L189.6,157.1 L189.8,157.2 L189.9,157.3 L190.1,157.4 L190.2,157.5 L190.7,157.8 L191.0,158.1 L191.0,158.2 L191.2,158.7 L191.3,158.8 L191.4,158.8 L191.4,158.8 L191.5,158.8 L191.7,158.7 L191.8,158.7 L191.9,158.6 L192.1,158.7 L192.3,158.7 L192.9,159.1 L193.0,159.2 L193.0,159.6 L193.0,159.7 L193.1,159.8 L193.2,159.8 L193.3,159.8 L193.5,159.7 L193.7,159.6 L193.8,159.6 L194.1,159.7 L194.2,159.6 L194.4,159.6 L194.6,159.5 L195.5,159.6 L196.2,159.7 L196.5,159.8 L196.7,159.8 L197.1,159.8 L198.0,159.7 L198.3,159.8 L198.4,159.9 L198.6,160.1 L198.7,160.4 L198.7,160.5 L198.8,160.5 L198.9,160.4 L199.0,160.3 L199.2,160.0 L199.4,159.8 L199.8,159.6 L200.2,159.3 L200.4,159.3 L200.9,159.3 L201.5,159.2 L201.8,159.2 L202.7,159.4 L202.8,159.5 L203.1,159.6 L203.5,160.0 L203.6,160.0 L204.0,160.0 L204.3,160.0 L204.7,160.1 L204.9,160.3 L205.0,160.4 L205.2,160.5 L205.9,160.7 L206.2,160.7 L206.5,160.8 L206.9,160.9 L207.2,161.1 L207.4,161.2 L207.7,161.3 L208.1,161.3 L208.5,161.3 L208.7,161.4 L208.9,161.5 L209.2,161.7 L209.3,161.7 L209.4,161.7 L209.8,161.6 L210.0,161.5 L210.3,161.6 L210.7,161.7 L211.0,161.7 L211.7,161.8 L211.9,161.8 L212.5,161.7 L212.7,161.7 L213.0,161.8 L213.1,161.8 L213.7,161.7 L214.2,161.5 L214.3,161.4 L214.7,161.3 L215.0,161.2 L215.2,161.0 L215.8,160.9 L216.0,160.8 L216.4,160.6 L217.1,160.6 L217.5,160.4 L217.9,160.4 L218.2,160.3 L218.4,160.2 L218.7,159.9 L219.0,159.6 L219.2,159.5 L220.0,159.6 L220.9,159.7 L221.5,159.7 L221.9,159.7 L222.0,159.6 L222.6,159.0 L222.9,158.8 L223.0,158.7 L223.2,158.7 L223.3,158.7 L223.5,158.7 L223.9,159.1 L224.2,159.4 L224.4,159.5 L224.5,159.5 L225.0,159.6 L225.5,159.6 L226.0,159.6 L226.2,159.5 L226.4,159.3 L226.5,159.1 L226.7,158.8 L226.8,158.7 L226.9,158.7 L227.0,158.7 L227.1,158.8 L227.2,158.9 L227.3,159.0 L227.5,159.3 L227.6,159.5 L227.9,159.7 L228.3,159.9 L228.3,160.0 L228.5,160.1 L228.7,160.3 L228.8,160.3 L228.9,160.4 L229.0,160.4 L229.2,160.4 L229.3,160.3 L229.7,159.9 L230.0,159.8 L230.4,159.6 L230.6,159.4 L230.8,159.2 L231.3,158.5 L231.4,158.3 L231.7,157.7 L231.8,157.5 L231.9,157.3 L232.0,157.3 L232.2,157.2 L233.1,157.1 L233.4,157.1 L234.1,157.1 L235.8,157.2 L236.0,157.2 L236.2,157.1 L236.6,157.0 L236.9,156.8 L238.5,155.6 L238.9,155.3 L239.6,154.5 L239.9,154.3 L241.7,153.4 L242.0,153.3 L242.9,153.1 L244.0,152.7 L244.7,152.4 L245.1,152.4 L247.7,151.9 L248.9,151.7 L250.2,151.5 L250.5,151.4 L250.8,151.2 L251.9,150.1 L252.0,150.0 L252.3,149.8 L252.6,149.7 L253.2,149.6 L253.5,149.5 L253.7,149.4 L254.0,149.1 L254.4,148.8 L254.6,148.5 L254.8,148.2 L254.8,148.0 L254.9,147.8 L254.9,147.1 L254.9,147.0 L254.9,146.8 L254.9,146.2 L254.9,146.1 L254.9,146.0 L254.8,145.7 L254.7,145.5 L254.8,145.3 L254.8,145.0 L255.1,144.3 L255.3,143.8 L255.6,143.1 L255.6,143.0 L255.7,143.0 L255.9,142.8 L256.2,142.7 L256.5,142.7 L257.0,142.6 L257.2,142.5 L257.7,142.5 L257.9,142.5 L258.4,142.6 L258.6,142.7 L259.2,142.7 L259.6,142.7 L259.8,142.8 L260.0,142.8 L260.1,142.9 L260.2,142.9 L260.2,142.8 L260.5,142.8 L260.7,142.8 L261.1,142.8 L261.1,142.6 L261.0,142.1 L260.9,141.9 L260.8,141.3 L260.5,140.9 L260.1,140.1 L260.1,139.8 L259.9,139.5 L259.7,139.2 L259.3,138.6 L259.1,138.4 L258.9,138.0 L258.8,137.9 L258.6,137.6 L258.5,137.3 L258.4,136.7 L258.5,136.0 L258.6,135.6 L258.6,135.1 L258.7,134.7 L258.8,134.5 L258.8,134.4 L258.8,134.2 L258.8,134.1 L258.6,133.6 L258.0,132.9 L257.9,132.5 L257.8,132.1 L257.7,131.4 L257.6,131.2 L257.1,130.7 L256.9,130.7 L256.7,130.6 L256.5,130.5 L256.1,130.2 L255.7,130.0 L255.4,129.8 L254.9,129.5 L254.5,129.3 L253.5,128.3 L253.4,128.1 L253.2,127.8 L253.1,127.3 L253.1,126.9 L253.1,126.5 L253.2,126.2 L253.6,125.1 L253.6,125.0 L253.5,124.6 L253.5,124.5 L253.5,124.3 L253.4,124.1 L253.3,123.9 L253.1,123.5 L252.9,123.4 L252.7,123.3 L252.6,123.1 L252.5,122.9 L252.5,122.6 L252.5,122.2 L252.6,121.7 L252.6,120.8 L252.6,120.4 L252.6,120.0 L252.5,119.5 L252.5,119.2 L252.5,119.0 L252.6,118.8 L252.7,118.7 L253.1,118.4 L253.5,118.1 L253.9,117.8 L254.0,117.7 L254.1,117.6 L254.2,117.3 L254.3,117.1 L254.3,117.0 L254.4,116.8 L254.3,116.6 L254.2,116.2 L253.7,115.0 L253.7,114.7 L253.6,114.6 L253.4,114.5 L253.2,114.1 L252.5,113.4 L251.6,112.6 L251.3,112.3 L251.0,112.0 L250.6,111.8 L250.5,111.7 L250.4,111.7 L250.2,111.8 L250.0,111.7 L249.9,111.7 L249.9,111.6 L249.8,111.4 L249.9,111.3 L250.1,111.1 L250.2,110.8 L250.4,110.2 L250.8,108.9 L250.8,108.4 L250.8,107.7 L250.8,107.3 L250.9,106.9 L251.2,105.3 L251.3,104.8 L251.4,104.7 L252.1,103.8 L252.5,103.4 L253.0,102.8 L253.2,102.7 L253.5,102.5 L253.9,102.3 L254.1,102.3 L254.2,102.1 L254.3,102.0 L254.5,101.6 L254.6,101.4 L255.0,101.0 L255.1,100.9 L255.1,100.8 L255.0,100.5 L254.7,99.6 L254.5,99.4 L254.4,99.2 L254.2,99.0 L254.2,98.9 L254.1,98.7 L254.2,98.5 L254.7,97.4 L254.9,97.2 L255.1,97.1 L255.5,97.0 L255.9,96.6 L256.3,96.4 L256.7,96.3 L256.8,96.3 L256.9,96.3 L257.2,96.5 L257.4,96.6 L257.6,96.6 L257.8,96.5 L258.0,96.5 L258.2,96.3 L258.4,96.2 L258.6,96.1 L258.7,95.9 L258.7,95.5 L258.8,95.4 L258.9,95.1 L258.9,94.9 L258.8,94.7 L258.2,94.0 L257.8,93.7 L257.6,93.5 L257.6,93.1 L257.4,92.5 L257.4,92.3 L257.5,92.0 L257.5,91.5 L257.5,91.2 L257.5,90.9 L257.3,90.4 L257.0,89.6 L257.0,89.4 L257.0,89.0 L257.1,88.9 L257.2,88.7 L257.5,88.4 L257.9,88.2 L258.0,88.1 L258.2,88.1 L258.6,88.0 L259.3,87.7 L259.5,87.5 L259.6,87.3 L259.7,86.8 L259.7,86.7 L259.3,85.6 L259.2,85.5 L258.9,85.1 L258.9,85.0 L258.9,85.0 L258.9,84.9 L258.9,84.8 L259.1,84.6 L259.1,84.5 L259.1,84.3 L259.0,84.3 L258.7,84.2 L258.1,84.2 L257.8,84.2 L257.6,84.1 L257.4,84.0 L257.2,83.8 L257.1,83.6 L257.0,83.5 L256.6,83.4 L256.3,83.3 L256.2,83.3 L256.0,83.3 L255.9,83.5 L255.7,83.6 L255.4,83.8 L254.6,84.1 L254.2,84.4 L253.9,84.6 L253.4,84.8 L253.0,85.0 L252.9,85.0 L252.8,85.0 L252.8,85.0 L252.7,84.9 L252.7,84.8 L252.7,84.5 L252.7,84.1 L252.7,83.5 L252.7,83.3 L253.0,82.7 L253.3,81.7 L253.5,81.4 L253.7,81.0 L254.1,80.4 L254.3,80.2 L254.5,80.1 L255.0,79.5 L255.9,78.4 L256.3,77.9 L256.8,77.2 L257.0,76.9 L257.1,76.6 L257.2,76.3 L257.2,75.8 L257.2,74.8 L256.9,73.6 L256.9,73.6 L256.8,73.6 L256.8,73.3 L256.7,73.1 L256.6,72.6 L256.6,72.5 L256.6,72.3 L256.6,72.3 L256.5,72.2 L256.5,72.2 L256.4,72.3 L256.3,72.3 L255.9,72.3 L255.8,72.3 L255.8,72.1 L255.8,71.9 L255.7,71.7 L255.6,71.5 L255.5,71.5 L255.4,71.4 L255.3,71.4 L255.2,71.4 L254.8,71.6 L254.8,71.7 L254.5,71.7 L254.5,71.7 L254.4,71.6 L254.4,71.5 L254.4,71.4 L254.5,71.4 L254.3,71.3 L254.0,71.4 L253.8,70.7 L253.7,70.3 L253.6,70.1 L253.6,70.0 L253.7,69.8 L253.8,69.6 L253.7,69.2 L253.6,69.0 L253.5,68.8 L253.4,68.8 L253.3,68.8 L252.8,68.8 L252.6,68.7 L252.2,68.3 L251.9,68.0 L251.6,67.7 L251.4,67.5 L251.2,67.4 L250.6,67.3 L250.5,67.2 L250.5,67.2 L250.3,66.9 L250.3,66.8 L250.4,66.7 L250.5,66.5 L250.5,66.4 L250.5,66.4 L250.2,66.0 L250.1,65.6 L250.1,65.5 L250.1,65.3 L250.1,65.2 L249.7,64.6 L249.6,64.4 L249.2,64.3 L249.1,64.1 L249.0,64.0 L248.8,64.0 L248.5,63.7 L248.4,63.7 L248.2,63.8 L248.1,63.8 L247.5,63.6 L247.2,63.5 L247.1,63.4 L246.7,63.1 L246.6,63.0 L246.6,62.9 L246.6,62.7 L246.3,62.5 L246.1,62.2 L246.0,62.1 L246.0,61.9 L246.0,61.7 L245.9,61.6 L245.7,61.5 L245.7,61.5 L245.5,61.1 L245.2,60.6 L245.1,60.6 L244.9,60.6 L244.8,60.4 L244.6,60.3 L244.5,60.2 L244.4,60.0 L244.4,59.8 L244.4,59.5 L244.4,59.5 L244.5,59.2 L244.5,59.2 L244.5,59.1 L244.4,58.9 L244.3,58.8 L244.2,58.6 L244.2,58.4 L244.2,58.2 L244.0,58.0 L243.9,57.6 L243.8,57.5 L243.5,57.3 L242.4,57.0 L242.3,57.0 L242.1,57.0 L242.0,57.0 L241.8,57.0 L241.7,56.8 L241.7,56.7 L241.8,56.2 L241.8,56.0 L241.7,55.8 L241.4,55.4 L241.2,55.2 L240.9,55.0 L240.8,54.9 L240.7,54.9 L240.5,55.0 L240.2,55.3 L240.1,55.4 L240.0,55.3 L239.9,55.3 L239.6,55.0 L239.5,54.9 L239.3,54.8 L239.2,54.8 L239.1,54.7 L239.0,54.6 L239.0,54.4 L238.9,54.3 L238.8,54.2 L238.7,54.1 L238.5,54.1 L238.0,53.9 L237.4,53.6 L236.9,53.5 L236.4,53.5 L236.3,53.5 L236.2,53.4 L236.2,53.3 L236.2,53.1 L236.3,52.8 L236.2,52.5 L236.1,52.3 L235.8,52.2 L235.3,51.7 L235.1,51.6 L234.9,51.3 L234.9,51.2 L234.7,50.8 L234.7,50.7 L234.8,50.6 L234.8,50.6 L234.9,50.5 L235.8,50.4 L236.1,50.4 L236.2,50.4 L236.3,50.3 L236.3,50.3 L236.4,50.1 L236.3,49.8 L236.3,49.3 L236.3,49.2 L236.5,49.1 L236.5,49.0 L236.5,48.9 L236.5,48.8 L236.4,48.6 L236.1,48.4 L236.0,48.3 L236.0,48.2 L236.0,48.2 L236.2,47.9 L236.3,47.8 L236.4,47.7 L236.5,47.7 L237.0,47.6 L237.3,47.5 L237.4,47.5 L237.5,47.4 L237.6,47.3 L237.7,46.8 L237.7,46.5 L237.7,46.0 L237.7,45.9 L237.4,45.4 L237.3,45.3 L237.4,45.2 L237.5,45.1 L237.8,45.1 L238.0,45.0 L238.1,44.9 L238.1,44.8 L238.1,44.4 L238.1,44.3 L238.2,44.2 L238.4,44.2 L238.6,44.2 L238.8,44.2 L238.9,44.2 L239.0,44.1 L239.1,43.9 L239.2,43.9 L239.9,43.9 L240.3,43.8 L240.4,43.9 L240.5,43.9 L240.6,44.0 L240.7,44.0 L240.7,44.1 L240.6,44.3 L240.6,44.5 L240.6,44.5 L240.8,44.6 L240.8,44.5 L240.9,44.5 L240.9,44.4 L240.9,44.3 L240.8,44.1 L240.6,43.7 L240.6,43.7 L240.4,43.6 L240.3,43.6 L239.1,43.4 L238.7,43.6 L238.6,43.6 L238.2,43.4 L238.0,43.4 L237.9,43.4 L237.7,43.6 L237.7,43.7 L237.7,43.9 L237.6,44.0 L237.5,44.0 L237.4,44.0 L237.2,43.9 L237.1,43.8 L237.0,43.8 L237.0,43.8 L236.9,43.8 L236.8,43.9 L236.7,44.1 L236.1,44.6 L235.7,45.1 L235.7,45.2 L235.7,45.3 L235.9,45.8 L235.9,45.9 L235.9,46.0 L235.8,46.0 L235.6,46.0 L235.4,46.0 L234.3,45.9 L234.1,45.9 L233.9,45.9 L233.7,46.1 L233.5,46.2 L233.2,46.7 L233.0,46.9 L232.9,47.0 L232.6,47.1 L232.0,47.1 L231.9,47.1 L231.6,47.1 L231.5,47.1 L231.4,47.0 L231.2,47.0 L231.0,47.0 L230.6,47.0 L230.4,47.0 L229.9,47.3 L229.5,47.4 L229.1,47.5 L229.0,47.6 L228.8,47.7 L228.5,48.0 L228.4,48.1 L228.3,48.1 L228.2,48.1 L228.1,48.0 L227.9,47.8 L227.8,47.6 L227.5,47.0 L227.5,46.9 L227.3,46.8 L227.2,46.8 L227.1,46.8 L226.9,46.8 L226.8,46.9 L226.7,47.2 L226.6,47.2 L226.5,47.2 L226.4,47.2 L226.4,47.2 L226.1,47.0 L225.8,46.8 L225.8,46.8 L225.8,46.6 L225.8,46.6 L226.0,46.4 L226.0,46.3 L226.1,46.2 L226.1,46.0 L226.1,45.7 L226.0,45.5 L225.9,45.3 L225.8,45.1 L225.7,44.8 L225.6,44.5 L225.6,44.4 L225.7,44.3 L225.8,44.1 L226.1,43.5 L226.3,43.0 L226.4,42.9 L226.4,42.8 L226.4,42.6 L226.3,42.5 L226.2,42.2 L225.9,41.8 L225.9,41.6 L225.8,41.2 L225.8,41.0 L225.9,40.7 L226.0,40.4 L226.2,40.1 L226.3,40.0 L226.7,39.7 L226.7,39.7 L226.8,39.5 L227.0,38.9 L227.0,38.8 L226.9,38.6 L226.8,38.3 L226.7,38.2 L226.5,38.2 L226.3,38.1 L226.2,38.1 L226.2,38.0 L226.2,37.9 L226.3,37.8 L226.4,37.7 L226.6,37.6 L226.7,37.6 L226.8,37.4 L226.9,37.0 L227.1,36.5 L227.1,36.0 L227.1,35.9 L226.9,35.4 L226.9,35.2 L226.9,35.0 L227.0,34.6 L227.0,34.5 L226.9,34.3 L226.9,34.1 L226.9,33.9 L227.1,33.6 L227.3,33.2 L227.4,33.0 L227.4,32.7 L227.4,32.5 L227.2,32.2 L227.1,32.1 L226.9,31.5 L226.9,31.3 L226.5,31.0 L226.5,30.9 L226.4,30.7 L226.4,30.5 L226.3,30.0 L226.3,29.6 L226.3,29.5 L226.2,29.4 L226.1,29.3 L226.1,29.2 L226.3,28.9 L226.4,28.5 L226.4,28.3 L226.2,27.6 L226.2,26.7 L226.1,26.4 L226.1,26.2 L225.7,25.7 L225.2,24.9 L225.0,24.5 L224.8,24.3 L224.8,24.0 L224.7,23.5 L224.6,22.9 L224.6,22.5 L224.5,22.4 L224.4,21.9 L224.3,21.7 L224.2,21.6 L224.0,21.5 L223.5,21.3 L223.2,21.0 L222.8,20.7 L222.3,20.5 L221.4,20.4 L221.2,20.4 L220.5,20.5 L220.1,20.4 L219.6,20.3 L219.5,20.3 L219.4,20.3 L219.4,20.2 L219.3,20.2 L219.2,20.1 L218.9,20.0 L218.8,19.9 L218.7,19.8 L218.6,19.5 L218.5,19.3 L218.3,19.1 L217.8,19.0 L217.6,18.8 L217.3,18.7 L216.9,18.6 L216.7,18.5 L216.6,18.4 L216.4,17.8 L216.2,17.5 L216.1,17.4 L215.9,17.4 L215.8,17.4 L215.5,17.6 L215.2,17.6 L215.0,17.6 L214.4,17.6 L214.1,17.6 L213.6,17.5 L213.2,17.4 L213.1,17.4 L212.7,17.2 L212.6,17.1 L212.7,17.1 L212.8,16.9 L212.8,16.7 L212.9,16.5 L212.8,16.1 L212.9,15.9 L212.9,15.8 L213.6,14.7 L214.2,13.7 L214.4,13.4 L214.7,13.0 L215.1,12.5 L215.4,12.2 L215.9,11.8 L216.3,11.5 L216.7,11.2 L217.0,11.1 L217.2,10.8 L217.2,10.7 L217.2,10.6 L217.2,10.5 L217.1,10.5 L217.0,10.4 L216.7,10.5 L216.6,10.5 L216.2,10.3 L216.1,10.3 L216.0,10.3 L215.6,10.6 L215.4,10.9 L215.4,10.9 L215.3,10.8 L215.3,10.7 L215.3,10.7 L215.6,10.5 L215.7,10.3 L216.0,10.0" fill="transparent" id="track" stroke="black" stroke-width="2"/>
<g>
<circle cx="210.014" cy="211.210" id="wp-281/circle" r="4.000"/>
<text font-size="16.0" id="wp-281/text" text-anchor="start" x="207.403" y="229.210">
K3
</text>
<circle cx="280.660" cy="389.569" fill="Gray" id="wp-1/circle" r="5.000"/>
<text font-size="16.0" id="wp-14/text" text-anchor="start" x="287.250" y="397.569">
Alpirsbach
</text>
<circle cx="131.577" cy="265.655" fill="Gray" id="wp-2/circle" r="5.000"/>
<text font-size="16.0" id="wp-15/text" text-anchor="start" x="66.787" y="283.655">
Oppenau
</text>
<circle cx="262.185" cy="236.844" fill="Gray" id="wp-3/circle" r="5.000"/>
<text font-size="16.0" id="wp-16/text" text-anchor="start" x="266.648" y="249.844">
Baiersbronn
</text>
<circle cx="181.507" cy="324.680" fill="Blue" id="wp-4/circle" r="3.000"/>
<text font-size="16.0" id="wp-5/text" text-anchor="start" x="185.896" y="322.680">
Freiersberg
</text>
<circle cx="165.857" cy="152.105" fill="Blue" id="wp-5/circle" r="3.000"/>
<text font-size="16.0" id="wp-6/text" text-anchor="start" x="137.573" y="145.105">
Seibelseckle
</text>
<circle cx="201.708" cy="261.740" fill="Blue" id="wp-6/circle" r="3.000"/>
<text font-size="16.0" id="wp-7/text" text-anchor="start" x="205.697" y="269.740">
Alexanderschanze
</text>
<circle cx="168.280" cy="184.624" fill="Blue" id="wp-7/circle" r="3.000"/>
<text font-size="16.0" id="wp-8/text" text-anchor="start" x="103.374" y="202.624">
Ruhestein
</text>
<circle cx="231.256" cy="47.023" fill="Blue" id="wp-8/circle" r="3.000"/>
<text font-size="16.0" id="wp-10/text" text-anchor="start" x="152.350" y="65.023">
Rote Lache
</text>
<circle cx="155.714" cy="309.798" fill="Gray" id="wp-9/circle" r="3.000"/>
<text font-size="16.0" id="wp-3/text" text-anchor="start" x="61.272" y="327.798">
Bad Peterstal
</text>
<circle cx="255.682" cy="74.055" fill="Gray" id="wp-10/circle" r="3.000"/>
<text font-size="16.0" id="wp-4/text" text-anchor="start" x="258.945" y="72.055">
Forbach
</text>
</g>
<g/>
</svg>