<svg height="400" viewBox="(0, 0, 400, 400)" width="400" xmlns="http://www.w3.org/2000/svg">
<path d="M280.3,380.0 L280.4,379.9 L280.4,379.9 L280.4,379.7 L280.4,379.4 L280.3,378.8 L280.4,378.7 L280.5,378.6 L280.5,378.5 L280.5,378.4 L280.5,378.2 L280.4,378.0 L280.1,377.8 L280.1,377.7 L280.0,377.6 L280.0,377.6 L280.2,377.3 L280.3,377.2 L280.4,377.1 L280.5,377.1 L281.1,377.0 L281.4,376.9 L281.5,376.8 L281.6,376.7 L281.7,376.6 L281.8,376.1 L281.8,375.8 L281.8,375.2 L281.8,375.1 L281.4,374.5 L281.4,374.4 L281.5,374.3 L281.6,374.3 L282.0,374.2 L282.1,374.1 L282.2,374.1 L282.2,373.9 L282.2,373.5 L282.3,373.4 L282.4,373.3 L282.5,373.2 L282.7,373.3 L283.0,373.3 L283.1,373.2 L283.2,373.2 L283.3,373.0 L283.4,372.9 L284.2,372.9 L284.6,372.9 L284.7,372.9 L284.8,372.9 L284.9,373.0 L285.0,373.1 L285.0,373.2 L284.9,373.4 L284.9,373.5 L285.0,373.6 L285.1,373.6 L285.2,373.6 L285.2,373.6 L285.3,373.4 L285.3,373.3 L285.2,373.1 L285.0,372.7 L284.9,372.7 L284.8,372.6 L284.6,372.6 L283.3,372.4 L282.9,372.6 L282.7,372.6 L282.3,372.4 L282.2,372.4 L282.0,372.5 L281.8,372.6 L281.8,372.8 L281.7,373.0 L281.7,373.1 L281.5,373.1 L281.5,373.1 L281.3,372.9 L281.2,372.8 L281.1,372.8 L281.0,372.8 L280.9,372.9 L280.8,372.9 L280.7,373.2 L280.1,373.8 L279.7,374.3 L279.6,374.3 L279.6,374.5 L279.9,375.0 L279.9,375.1 L279.8,375.2 L279.7,375.2 L279.6,375.2 L279.3,375.2 L278.1,375.1 L277.9,375.1 L277.7,375.2 L277.5,375.3 L277.3,375.5 L277.0,376.1 L276.8,376.3 L276.6,376.4 L276.4,376.5 L275.7,376.5 L275.5,376.5 L275.2,376.5 L275.1,376.4 L275.0,376.4 L274.8,376.4 L274.6,376.3 L274.2,376.4 L274.0,376.4 L273.4,376.7 L273.0,376.8 L272.6,376.9 L272.4,377.0 L272.2,377.2 L271.9,377.5 L271.8,377.6 L271.7,377.6 L271.6,377.6 L271.5,377.5 L271.3,377.3 L271.1,377.1 L270.8,376.4 L270.8,376.3 L270.6,376.2 L270.5,376.2 L270.4,376.1 L270.1,376.2 L270.1,376.3 L269.9,376.6 L269.9,376.6 L269.8,376.7 L269.7,376.7 L269.6,376.7 L269.4,376.4 L269.0,376.3 L269.0,376.2 L269.0,376.0 L269.0,376.0 L269.2,375.8 L269.2,375.7 L269.3,375.5 L269.3,375.3 L269.2,375.1 L269.2,374.8 L269.1,374.6 L268.9,374.3 L268.8,374.1 L268.8,373.8 L268.8,373.6 L268.8,373.5 L268.9,373.2 L269.3,372.6 L269.5,372.1 L269.6,372.0 L269.6,371.8 L269.5,371.7 L269.5,371.5 L269.4,371.2 L269.1,370.7 L269.0,370.6 L268.9,370.1 L269.0,369.9 L269.0,369.6 L269.1,369.3 L269.4,368.9 L269.5,368.8 L269.8,368.6 L269.9,368.5 L270.0,368.3 L270.2,367.7 L270.2,367.5 L270.1,367.3 L269.9,367.0 L269.8,366.9 L269.7,366.9 L269.4,366.8 L269.3,366.8 L269.3,366.7 L269.3,366.5 L269.4,366.4 L269.5,366.4 L269.8,366.3 L269.9,366.2 L270.0,366.1 L270.0,365.6 L270.3,365.0 L270.3,364.6 L270.3,364.4 L270.0,363.8 L270.0,363.6 L270.0,363.4 L270.1,363.0 L270.1,362.9 L270.0,362.6 L270.0,362.5 L270.1,362.2 L270.2,361.9 L270.5,361.4 L270.6,361.2 L270.6,360.9 L270.6,360.8 L270.3,360.4 L270.2,360.2 L270.0,359.6 L270.0,359.5 L269.6,359.1 L269.5,358.9 L269.5,358.8 L269.5,358.5 L269.4,358.0 L269.3,357.5 L269.3,357.5 L269.2,357.4 L269.2,357.3 L269.2,357.2 L269.3,356.8 L269.4,356.4 L269.4,356.1 L269.2,355.4 L269.2,354.4 L269.1,354.1 L269.1,353.9 L268.7,353.3 L268.1,352.5 L267.8,352.1 L267.7,351.8 L267.7,351.6 L267.6,351.0 L267.4,350.3 L267.4,349.9 L267.4,349.8 L267.2,349.3 L267.1,349.1 L267.0,348.9 L266.8,348.8 L266.3,348.6 L265.9,348.3 L265.5,348.0 L265.0,347.8 L263.9,347.7 L263.7,347.7 L263.0,347.8 L262.5,347.7 L262.1,347.6 L261.9,347.5 L261.8,347.5 L261.8,347.5 L261.7,347.4 L261.6,347.4 L261.3,347.2 L261.2,347.1 L261.1,347.0 L261.0,346.7 L260.8,346.5 L260.6,346.3 L260.1,346.1 L259.8,345.9 L259.6,345.8 L259.0,345.7 L258.9,345.7 L258.8,345.6 L258.5,344.9 L258.4,344.6 L258.2,344.5 L258.0,344.5 L257.9,344.5 L257.6,344.6 L257.3,344.7 L257.0,344.7 L256.4,344.7 L256.0,344.7 L255.5,344.6 L255.0,344.5 L255.0,344.5 L254.6,344.3 L254.4,344.2 L254.5,344.2 L254.6,343.9 L254.7,343.7 L254.7,343.5 L254.7,343.1 L254.7,342.9 L254.8,342.7 L255.5,341.6 L256.1,340.5 L256.3,340.1 L256.6,339.7 L257.1,339.2 L257.4,338.8 L257.9,338.4 L258.4,338.0 L258.8,337.8 L259.1,337.6 L259.3,337.3 L259.4,337.2 L259.4,337.1 L259.3,337.0 L259.3,336.9 L259.1,336.9 L258.8,337.0 L258.6,337.0 L258.2,336.7 L258.1,336.7 L258.0,336.8 L257.7,337.1 L257.4,337.4 L257.4,337.4 L257.3,337.3 L257.3,337.3 L257.3,337.2 L257.6,337.0 L257.8,336.8 L258.0,336.4 L258.1,336.3 L258.7,336.2 L259.0,336.1 L259.1,336.0 L259.4,335.7 L259.4,335.5 L259.6,335.1 L259.7,334.9 L259.8,334.6 L260.0,334.5 L260.1,334.5 L260.2,334.6 L260.5,334.9 L260.8,335.1 L261.2,335.4 L261.7,335.7 L262.1,335.9 L262.3,336.0 L262.4,335.9 L263.0,335.6 L263.4,335.2 L263.6,335.0 L263.7,334.9 L263.8,334.6 L263.9,334.2 L263.9,334.0 L263.8,333.9 L263.7,333.7 L263.4,333.4 L263.3,333.3 L263.3,333.1 L263.3,333.0 L263.3,332.8 L263.4,332.8 L263.5,332.7 L263.6,332.7 L264.8,332.9 L265.1,332.9 L265.3,332.8 L265.6,332.7 L266.0,332.4 L266.2,332.1 L266.4,331.7 L266.5,331.4 L266.6,331.1 L266.7,330.8 L267.1,330.5 L267.4,330.2 L267.8,329.9 L268.4,329.6 L268.9,329.2 L269.1,329.1 L269.2,329.0 L269.3,328.9 L269.7,328.8 L271.0,328.1 L271.2,328.0 L272.0,327.8 L272.7,327.7 L272.8,327.7 L273.0,327.6 L273.1,327.5 L273.2,327.3 L273.1,326.9 L273.1,326.8 L273.1,326.7 L273.2,326.7 L273.3,326.7 L273.4,326.7 L273.6,326.7 L273.7,326.7 L274.0,326.2 L274.2,326.0 L274.2,325.9 L274.2,325.7 L273.9,325.3 L273.8,325.2 L273.8,325.1 L273.9,325.0 L274.0,325.0 L274.2,325.0 L274.3,324.9 L274.4,324.9 L274.4,324.8 L274.5,324.7 L274.6,324.4 L274.6,324.1 L274.6,323.7 L274.6,323.5 L274.4,323.2 L274.4,323.1 L274.4,323.0 L274.5,322.9 L274.7,322.9 L274.9,322.7 L275.0,322.6 L275.0,322.2 L275.1,322.1 L275.2,322.1 L275.4,322.1 L275.5,322.0 L276.5,321.2 L276.8,321.0 L277.1,320.8 L277.7,320.6 L278.5,320.4 L279.3,320.2 L279.8,320.1 L281.2,319.7 L281.3,319.7 L281.8,319.8 L282.2,319.8 L282.4,319.8 L282.5,319.8 L282.6,319.8 L282.7,319.7 L282.7,319.7 L282.8,319.7 L283.0,319.6 L283.1,319.5 L283.3,319.5 L283.4,319.5 L283.7,319.4 L284.1,319.4 L284.2,319.4 L284.5,319.5 L284.6,319.5 L284.7,319.5 L284.8,319.5 L284.9,319.5 L285.3,319.6 L285.4,319.6 L285.5,319.5 L285.6,319.5 L285.8,319.3 L285.8,319.3 L285.9,319.3 L286.4,319.0 L286.4,319.0 L286.4,318.8 L286.2,318.5 L286.1,318.3 L286.1,318.2 L285.9,317.7 L285.8,317.5 L285.8,317.4 L285.7,317.2 L285.6,316.7 L285.6,316.6 L285.6,316.4 L285.5,315.8 L285.6,316.4 L285.6,316.6 L285.6,316.7 L285.7,317.2 L285.8,317.4 L285.8,317.5 L285.9,317.7 L286.1,318.2 L286.1,318.3 L286.2,318.5 L286.4,318.8 L286.4,319.0 L286.4,319.0 L285.9,319.3 L285.8,319.3 L285.8,319.3 L285.6,318.8 L285.5,318.7 L285.1,318.1 L285.0,318.1 L284.7,318.0 L284.5,317.8 L284.4,317.4 L284.4,317.2 L284.2,317.0 L284.2,316.9 L284.0,317.0 L283.5,317.2 L283.0,317.3 L282.8,317.3 L282.8,317.3 L282.6,317.1 L282.6,316.9 L282.5,316.9 L282.3,316.7 L282.1,316.6 L281.7,316.9 L281.1,317.4 L281.0,317.3 L280.8,317.2 L280.3,317.1 L280.0,317.1 L279.8,317.0 L279.7,316.9 L279.6,316.8 L279.5,316.5 L279.4,316.3 L279.0,315.8 L278.2,315.3 L278.1,315.3 L277.8,315.2 L277.6,315.2 L277.5,315.1 L277.1,315.3 L276.0,315.6 L275.7,315.6 L275.4,315.7 L274.8,315.6 L274.1,315.3 L273.7,315.3 L273.3,315.2 L273.1,315.0 L273.0,314.8 L272.8,314.6 L272.4,314.5 L271.7,314.1 L271.5,314.1 L271.1,314.2 L270.9,314.3 L270.3,314.5 L270.1,314.6 L270.0,314.8 L269.8,314.8 L269.6,314.9 L269.3,315.4 L269.1,315.6 L269.1,315.4 L269.1,315.3 L268.9,315.0 L268.4,314.6 L268.2,314.5 L267.9,314.4 L267.4,314.3 L267.1,314.3 L266.5,314.2 L266.3,314.1 L265.7,314.0 L265.4,313.9 L265.0,313.7 L264.7,313.5 L264.5,313.3 L264.4,313.2 L264.4,313.1 L264.4,313.0 L264.8,312.5 L264.7,312.4 L264.6,312.4 L264.5,312.5 L264.2,312.7 L264.1,312.8 L263.9,313.0 L263.7,313.1 L263.6,313.1 L263.0,312.9 L262.9,312.9 L262.4,312.9 L262.2,313.0 L261.7,313.1 L261.6,313.2 L261.3,313.2 L260.7,313.1 L260.5,313.1 L260.4,313.2 L259.9,313.4 L259.2,313.9 L259.1,314.0 L258.8,314.3 L258.3,314.9 L257.8,315.3 L257.6,315.3 L257.6,315.1 L257.5,315.0 L255.2,312.3 L255.0,312.0 L254.8,311.7 L254.5,311.0 L254.4,310.7 L254.2,310.5 L254.1,310.4 L253.9,310.3 L253.7,310.3 L253.3,310.2 L253.1,310.2 L252.4,310.3 L252.2,310.3 L252.0,310.3 L251.7,310.2 L251.4,310.0 L251.0,309.8 L250.9,309.7 L250.5,309.5 L250.0,309.5 L249.8,309.4 L249.3,309.1 L249.2,309.1 L248.5,308.5 L247.9,308.1 L247.6,308.0 L247.5,307.9 L247.4,307.8 L247.5,307.6 L246.6,307.3 L246.4,307.3 L246.2,307.4 L245.9,307.5 L245.3,307.8 L245.2,307.9 L245.1,307.8 L245.0,307.6 L245.0,307.6 L244.8,307.6 L244.2,307.8 L244.0,307.9 L243.8,307.9 L243.7,307.8 L243.4,307.6 L243.0,307.2 L243.0,307.1 L242.9,307.1 L242.8,306.7 L242.7,306.3 L242.7,306.1 L242.7,305.9 L242.8,305.7 L242.8,305.5 L242.8,305.3 L242.7,304.9 L242.6,304.8 L242.4,304.4 L242.3,304.3 L242.0,304.0 L242.0,304.0 L241.9,303.9 L241.9,303.9 L241.8,304.0 L241.6,303.9 L241.4,303.7 L241.2,303.5 L241.0,303.3 L241.0,303.2 L240.8,302.8 L240.7,302.5 L240.7,302.2 L240.6,302.0 L240.6,301.9 L240.6,301.7 L240.6,301.5 L240.6,301.3 L240.6,301.1 L240.6,301.0 L240.5,301.0 L240.4,300.6 L240.2,299.9 L240.0,299.5 L239.9,299.3 L239.8,299.0 L239.7,298.7 L239.4,298.2 L239.4,298.1 L239.2,297.6 L239.0,297.2 L238.9,297.0 L238.8,297.0 L238.6,297.0 L238.3,296.4 L238.2,295.9 L238.2,295.5 L238.2,295.3 L238.3,295.2 L238.4,295.1 L238.8,294.8 L239.2,294.5 L239.9,294.0 L240.2,293.9 L240.3,293.8 L240.6,293.8 L240.8,293.5 L240.9,293.4 L241.1,293.3 L241.4,293.2 L241.5,293.1 L241.6,293.0 L241.6,292.7 L241.6,292.5 L241.5,292.4 L241.5,292.4 L241.5,292.3 L241.3,292.2 L241.1,292.1 L240.9,292.2 L240.5,292.4 L240.3,292.4 L240.1,292.4 L239.8,292.4 L239.5,292.4 L239.3,292.4 L238.5,292.8 L238.3,292.8 L238.1,292.8 L237.8,292.7 L237.3,292.4 L237.1,292.3 L236.8,291.9 L236.6,291.7 L236.5,291.7 L236.0,291.6 L235.8,291.5 L235.7,291.4 L235.3,290.8 L235.0,290.5 L235.0,290.5 L234.8,290.6 L234.8,290.6 L234.6,290.6 L232.7,290.4 L231.9,290.4 L231.4,290.4 L230.8,290.5 L230.1,290.6 L229.7,290.6 L229.0,290.8 L228.3,291.1 L227.4,290.3 L227.3,290.1 L226.9,289.8 L226.4,289.6 L224.8,288.8 L223.9,288.5 L223.2,288.3 L222.9,288.3 L221.5,288.0 L221.1,287.9 L220.7,287.7 L218.9,287.5 L217.8,287.1 L217.6,287.1 L217.4,287.1 L217.1,287.1 L216.6,287.0 L216.3,286.7 L215.6,286.1 L214.7,285.1 L214.0,284.4 L213.6,283.6 L213.3,282.8 L213.3,282.0 L213.2,282.0 L213.2,281.9 L213.0,281.8 L212.9,281.7 L212.8,281.7 L212.7,281.7 L212.5,281.5 L212.4,281.4 L212.4,281.2 L212.3,280.9 L212.3,280.8 L212.1,280.4 L212.1,280.4 L211.8,279.7 L211.7,279.4 L211.5,279.2 L211.3,278.9 L211.2,278.6 L211.0,278.2 L210.8,277.7 L210.6,277.4 L210.5,277.1 L210.4,277.1 L210.3,277.0 L210.2,276.9 L210.1,276.9 L210.1,276.8 L209.6,276.4 L209.5,276.3 L209.3,276.1 L209.2,276.0 L208.9,275.7 L208.8,275.6 L208.7,274.9 L208.5,274.9 L208.2,274.8 L208.2,274.8 L208.0,274.8 L207.8,275.0 L207.7,274.8 L207.6,274.5 L207.4,274.0 L207.1,273.3 L206.9,272.4 L206.9,272.0 L206.1,270.8 L205.8,270.5 L205.6,270.3 L204.8,270.0 L204.3,269.9 L203.8,269.8 L203.7,269.8 L203.4,269.7 L203.1,269.5 L202.9,269.4 L202.8,269.3 L202.7,269.3 L202.3,269.3 L201.3,269.3 L201.3,269.2 L201.3,269.1 L201.3,268.9 L201.3,268.8 L201.1,268.7 L200.5,268.6 L200.2,268.6 L200.1,268.6 L199.4,268.5 L199.2,268.5 L199.0,268.4 L198.8,268.2 L198.8,268.1 L198.7,268.1 L198.7,268.1 L198.5,268.1 L198.5,268.1 L198.5,268.1 L198.4,268.1 L198.3,268.1 L197.5,267.4 L197.4,267.3 L197.4,267.3 L197.3,267.3 L197.2,267.4 L197.1,267.4 L196.8,267.4 L196.8,267.4 L196.7,267.4 L196.7,267.4 L196.5,267.3 L196.5,267.3 L195.7,267.7 L195.4,267.8 L195.4,267.8 L195.3,267.8 L195.0,267.9 L194.8,268.0 L194.6,268.0 L194.1,268.2 L194.1,268.3 L194.0,268.3 L193.8,268.4 L193.6,268.5 L193.5,268.5 L193.4,268.5 L193.3,268.5 L193.2,268.5 L192.7,268.3 L191.8,268.1 L191.7,268.1 L190.8,268.1 L190.6,268.1 L190.6,267.9 L190.6,267.5 L190.6,267.4 L190.6,267.4 L190.5,267.4 L190.5,267.6 L190.2,267.6 L190.2,267.5 L189.9,267.6 L189.7,267.5 L189.5,267.3 L188.8,266.8 L188.3,267.3 L187.9,267.7 L187.4,268.2 L187.3,268.1 L187.3,268.1 L187.2,268.1 L187.1,268.2 L187.0,268.2 L186.3,268.8 L185.8,269.1 L185.7,269.1 L185.4,268.8 L185.3,268.6 L185.1,268.8 L184.7,269.3 L184.1,269.9 L183.9,269.9 L183.8,269.9 L182.6,269.4 L182.4,269.3 L181.7,269.0 L181.0,268.6 L179.6,267.6 L179.0,268.3 L178.3,269.4 L177.8,270.2 L177.8,270.3 L177.4,270.8 L176.9,271.5 L176.7,271.7 L176.6,271.7 L176.6,271.8 L175.1,270.4 L175.1,270.4 L174.9,270.3 L173.7,269.5 L171.3,267.9 L170.1,267.2 L168.9,266.5 L167.7,265.9 L167.7,265.8 L167.5,265.8 L167.5,265.8 L167.5,265.8 L165.7,264.9 L164.3,264.2 L164.2,264.1 L164.1,264.1 L163.9,264.0 L162.8,263.4 L162.5,263.3 L162.4,263.3 L162.3,263.4 L162.3,263.4 L162.3,263.3 L162.3,263.2 L162.2,263.2 L162.0,263.1 L161.9,263.0 L161.6,262.7 L161.5,262.7 L161.5,262.7 L161.1,262.4 L161.0,262.4 L161.0,262.4 L160.7,262.2 L160.4,262.0 L160.3,261.9 L160.3,261.9 L160.2,261.8 L159.8,261.5 L159.9,261.5 L159.5,261.2 L159.3,261.0 L159.3,261.0 L159.3,260.9 L158.6,260.3 L157.3,259.4 L157.0,259.2 L156.6,259.0 L156.2,258.9 L155.5,258.6 L155.3,258.6 L155.2,258.5 L154.8,258.4 L154.7,258.4 L154.4,258.3 L154.3,258.3 L154.1,258.3 L153.8,258.2 L153.8,258.2 L153.6,258.2 L153.5,258.2 L153.2,258.0 L152.9,257.8 L152.4,257.5 L152.3,257.3 L151.9,256.9 L151.5,256.5 L151.4,256.4 L151.4,256.3 L151.3,256.2 L151.3,256.1 L151.3,255.2 L151.4,254.8 L151.7,254.0 L151.7,253.7 L151.8,253.5 L152.2,253.0 L152.3,252.9 L152.4,252.0 L152.3,250.5 L152.1,250.1 L151.8,249.6 L151.4,248.9 L150.9,248.3 L150.7,247.6 L150.6,247.1 L150.6,246.6 L150.5,246.3 L150.4,246.0 L150.3,245.8 L149.9,245.4 L149.7,245.0 L149.6,244.8 L149.4,244.5 L149.4,244.3 L149.4,243.8 L149.3,243.8 L149.2,243.4 L148.8,242.4 L148.7,241.8 L148.6,241.1 L148.6,240.7 L148.7,240.0 L148.8,239.3 L148.9,239.1 L149.0,238.8 L149.2,238.6 L149.3,238.6 L149.4,238.6 L149.4,238.5 L149.4,238.4 L149.3,238.3 L149.2,238.3 L149.1,238.3 L149.0,238.3 L148.9,238.2 L148.3,237.8 L147.6,237.2 L147.5,237.1 L147.0,236.8 L146.6,236.5 L146.1,236.2 L145.5,235.9 L144.7,235.6 L143.2,235.1 L141.3,234.5 L140.8,234.4 L140.3,234.2 L139.7,234.1 L138.4,233.5 L138.1,233.3 L137.8,233.3 L137.8,233.2 L136.2,232.8 L135.1,232.4 L133.9,232.0 L132.7,231.7 L132.4,231.5 L132.1,231.3 L131.3,231.1 L128.0,229.9 L125.3,229.1 L125.1,229.0 L122.4,228.2 L122.1,228.0 L121.7,227.8 L121.5,227.6 L121.2,227.3 L121.0,227.0 L120.9,226.9 L120.8,226.7 L119.4,224.8 L119.0,224.4 L118.7,224.1 L118.7,223.9 L118.7,223.9 L118.6,223.9 L118.2,223.7 L118.1,223.6 L118.0,223.5 L117.7,223.2 L117.2,222.8 L116.9,222.5 L116.6,222.1 L116.0,221.5 L116.0,221.4 L115.7,221.0 L115.0,220.4 L114.4,219.8 L114.2,219.7 L113.6,219.1 L113.9,218.7 L114.4,218.3 L114.7,217.9 L115.1,217.5 L115.3,217.1 L115.6,216.7 L115.7,216.5 L115.7,216.5 L115.8,216.5 L116.2,216.5 L116.4,216.4 L116.5,216.3 L116.6,216.2 L116.8,216.0 L117.1,215.6 L117.3,215.4 L117.4,215.3 L117.6,215.2 L117.8,215.2 L118.4,214.9 L118.6,215.1 L118.7,215.1 L118.7,215.1 L119.0,215.3 L119.4,214.8 L119.7,214.5 L119.9,214.3 L120.6,214.0 L121.8,213.4 L122.5,213.1 L122.9,213.0 L123.9,212.6 L124.0,212.6 L125.1,212.3 L125.6,212.2 L127.2,211.5 L127.4,211.5 L128.5,211.4 L128.6,211.4 L128.6,211.3 L128.7,211.0 L128.7,210.8 L128.9,210.5 L129.1,210.2 L129.9,209.1 L131.7,207.6 L133.4,206.1 L133.6,206.0 L135.7,205.6 L135.9,205.5 L136.0,205.4 L136.6,204.9 L137.2,204.5 L137.3,204.4 L137.5,204.4 L137.9,204.3 L141.6,203.2 L141.8,203.1 L141.9,203.0 L143.2,199.6 L144.6,196.4 L144.7,196.0 L145.4,194.5 L146.2,193.1 L146.6,192.3 L147.4,190.9 L147.4,190.8 L147.4,190.8 L147.4,190.7 L147.5,190.7 L147.5,190.6 L147.6,190.5 L147.8,190.3 L147.9,190.2 L148.3,190.1 L148.6,190.0 L148.9,189.9 L149.1,189.7 L149.3,189.4 L149.6,188.9 L149.7,188.5 L150.1,187.8 L150.2,187.6 L150.2,187.4 L150.2,187.2 L149.8,186.1 L149.8,185.9 L150.3,179.2 L150.3,179.0 L150.4,178.0 L150.3,177.7 L149.6,176.6 L148.6,175.4 L146.8,173.0 L146.5,172.7 L146.4,172.5 L146.4,172.2 L146.4,171.5 L146.5,170.9 L146.7,170.5 L147.0,170.3 L147.4,170.1 L149.4,169.6 L149.7,169.5 L149.9,169.4 L150.3,168.8 L150.8,168.5 L151.0,168.1 L151.3,167.9 L151.6,167.8 L151.9,167.6 L152.4,167.5 L152.6,167.3 L152.9,167.0 L153.3,166.5 L153.6,166.1 L153.8,165.9 L154.2,165.1 L154.5,164.7 L154.7,164.5 L154.9,164.4 L155.7,164.0 L156.4,163.8 L156.5,163.7 L156.7,163.3 L157.0,163.0 L157.2,162.6 L157.3,162.3 L157.3,161.9 L157.4,161.8 L157.7,161.6 L158.0,161.3 L158.4,160.9 L158.5,160.7 L158.7,160.4 L159.0,159.9 L159.0,159.7 L159.1,159.8 L159.2,159.7 L159.6,159.7 L159.9,159.9 L160.8,160.3 L161.7,160.8 L161.9,160.9 L162.1,160.9 L162.3,160.9 L162.6,160.7 L162.9,160.4 L163.1,160.4 L164.3,160.9 L164.6,161.0 L164.7,161.0 L164.8,160.9 L165.0,160.8 L165.2,160.4 L165.4,160.1 L165.7,159.2 L166.9,157.5 L167.0,157.4 L167.1,157.0 L167.1,156.9 L167.2,156.2 L167.2,155.9 L167.4,155.5 L170.1,151.8 L170.3,151.5 L170.6,151.4 L170.8,151.3 L172.1,150.7 L172.4,150.5 L172.7,150.3 L172.9,150.1 L173.2,149.7 L174.9,147.3 L176.3,145.4 L176.4,145.1 L176.7,144.0 L176.8,143.8 L177.4,142.9 L177.7,142.6 L178.2,142.2 L178.4,142.0 L178.5,141.8 L179.4,140.0 L181.0,136.8 L181.8,135.3 L183.3,131.9 L183.6,131.1 L183.6,131.0 L183.6,130.9 L183.6,130.7 L183.6,130.4 L183.5,130.3 L183.2,129.9 L183.1,129.8 L183.0,129.8 L182.9,129.8 L182.8,129.8 L182.8,129.9 L182.3,130.9 L182.2,131.0 L182.1,131.1 L182.0,131.1 L181.8,131.1 L180.9,130.8 L180.7,130.6 L180.7,130.5 L180.7,130.4 L180.3,130.2 L179.6,130.1 L179.3,129.4 L179.3,129.3 L179.2,129.2 L179.1,129.0 L179.2,128.9 L179.2,128.8 L179.1,128.7 L179.1,128.6 L179.0,128.3 L179.1,128.1 L180.0,125.4 L180.0,125.0 L180.1,124.7 L180.3,124.5 L180.3,124.4 L180.3,124.2 L180.6,123.5 L180.9,122.8 L181.0,122.7 L182.0,121.4 L182.0,121.2 L182.1,121.0 L182.0,120.7 L181.9,120.2 L181.9,119.9 L182.0,119.7 L182.1,119.6 L182.1,119.5 L182.1,119.4 L182.0,119.4 L181.9,119.3 L182.0,118.6 L182.0,117.5 L182.0,117.0 L182.4,114.6 L182.8,113.0 L183.0,112.6 L183.1,112.3 L183.3,112.0 L183.3,112.0 L183.4,111.9 L183.5,111.9 L183.6,111.8 L183.5,111.7 L183.4,111.6 L183.4,111.5 L183.4,111.5 L183.3,111.2 L183.3,110.7 L183.2,110.4 L183.2,110.4 L183.0,109.2 L183.0,108.9 L183.1,108.2 L183.1,108.1 L183.0,108.0 L183.0,108.0 L182.9,107.9 L182.6,107.8 L182.6,107.8 L182.3,107.4 L182.3,107.4 L182.2,107.1 L182.2,107.0 L182.1,107.0 L182.0,106.7 L182.0,106.6 L182.0,106.6 L182.0,106.5 L182.4,105.9 L182.8,105.2 L183.3,104.5 L183.3,104.4 L183.3,103.7 L183.4,103.5 L183.4,103.1 L183.4,103.0 L183.3,102.8 L183.2,102.7 L183.2,102.6 L183.1,102.5 L183.1,102.5 L183.1,102.4 L183.0,102.3 L182.8,102.0 L182.8,101.9 L182.6,101.6 L182.5,101.1 L182.3,100.9 L181.9,100.8 L181.9,100.7 L181.6,100.5 L181.5,100.5 L181.5,100.4 L181.5,100.3 L181.6,100.1 L181.6,100.0 L181.6,99.8 L181.7,99.6 L181.7,99.3 L181.7,99.1 L181.7,99.1 L181.7,98.8 L181.8,98.7 L181.8,98.6 L181.8,98.5 L181.8,98.5 L181.8,98.3 L181.8,98.3 L181.9,98.2 L182.0,98.1 L183.0,97.7 L183.7,97.4 L183.8,97.4 L183.9,97.4 L183.9,97.4 L183.9,97.4 L184.1,97.3 L184.1,97.2 L184.0,97.1 L184.2,97.0 L184.7,96.6 L185.3,96.0 L189.2,92.6 L190.9,91.1 L191.1,90.9 L191.2,90.8 L191.6,90.5 L194.2,88.2 L194.2,88.2 L196.0,86.5 L196.4,86.2 L197.0,85.7 L197.7,85.1 L199.6,83.4 L200.1,82.9 L200.3,82.7 L200.4,82.5 L200.7,81.9 L203.4,76.7 L204.0,75.5 L204.4,74.7 L205.4,72.7 L207.3,69.0 L207.5,68.7 L208.0,67.7 L208.8,66.4 L209.0,65.9 L209.1,65.6 L209.3,65.1 L209.6,62.3 L209.7,61.9 L209.9,61.3 L210.1,60.9 L210.4,60.4 L210.9,59.8 L211.4,59.5 L211.7,59.2 L212.5,58.8 L212.9,58.5 L213.6,58.2 L213.9,58.1 L214.9,57.8 L215.0,57.8 L215.3,57.7 L215.5,57.5 L215.8,57.4 L216.0,57.2 L216.2,57.0 L216.5,56.6 L216.8,56.2 L217.1,55.9 L217.4,55.7 L217.8,55.4 L218.2,55.2 L218.7,55.1 L218.6,55.2 L219.5,54.9 L219.9,54.8 L220.3,54.6 L221.1,54.2 L221.6,54.0 L221.8,54.0 L221.9,54.1 L221.9,54.1 L222.0,54.1 L222.1,54.1 L222.1,54.1 L222.2,54.0 L222.2,54.0 L222.5,53.9 L222.8,53.9 L222.8,54.0 L222.8,53.8 L223.2,53.8 L223.4,53.7 L223.5,53.6 L223.6,53.4 L223.9,53.0 L224.0,52.9 L224.3,52.3 L224.5,52.0 L224.7,51.9 L225.0,51.8 L225.6,51.6 L225.7,51.5 L226.2,51.4 L226.4,51.3 L226.6,51.2 L227.3,50.6 L227.9,50.1 L228.3,49.8 L228.6,49.7 L228.8,49.7 L229.3,49.7 L229.9,49.8 L230.8,49.9 L230.9,49.9 L230.9,49.7 L231.0,49.4 L231.0,49.3 L231.2,48.1 L231.4,47.7 L231.8,46.9 L231.7,46.8 L231.7,46.8 L231.8,46.6 L231.8,46.3 L231.9,46.2 L231.9,46.1 L232.4,44.1 L232.6,43.6 L232.8,43.3 L233.6,42.3 L233.9,42.0 L234.8,40.9 L234.9,40.8 L234.9,40.7 L235.0,40.5 L235.0,40.4 L234.7,38.1 L234.6,37.2 L234.6,37.0 L234.7,36.5 L234.7,36.4 L234.7,36.3 L234.7,36.3 L234.8,36.1 L234.8,36.0 L234.8,35.8 L234.8,35.7 L234.9,35.6 L235.2,34.6 L235.4,34.3 L235.4,34.2 L235.6,33.8 L235.6,33.5 L235.7,33.2 L235.6,33.1 L235.7,33.1 L235.7,33.0 L235.8,32.5 L235.7,31.9 L235.8,31.3 L235.8,30.8 L235.9,30.7 L235.9,30.6 L236.0,30.4 L236.3,30.0 L236.6,29.5 L236.8,29.0 L236.9,28.8 L237.0,28.5 L237.0,28.3 L237.0,28.3 L237.0,28.2 L237.1,28.2 L237.2,28.2 L237.3,27.8 L237.5,27.2 L237.8,26.7 L238.0,26.5 L237.9,26.5 L237.6,26.3 L237.6,26.3 L237.6,26.1 L237.8,25.9 L238.0,25.7 L238.2,25.6 L238.2,25.5 L238.3,25.4 L238.4,25.3 L238.8,25.1 L238.9,25.0 L239.0,24.9 L239.3,25.0 L239.3,25.0 L239.4,24.9 L239.5,24.9 L239.5,24.9 L239.6,24.8 L239.7,24.7 L239.9,24.5 L240.0,24.4 L240.1,23.9 L240.2,23.5 L240.2,23.4 L240.2,23.1 L240.1,22.9 L240.0,22.8 L239.9,22.7 L239.9,22.6 L239.8,22.4 L239.8,22.2 L239.7,22.2 L239.5,21.5 L239.4,21.4 L239.3,21.3 L239.1,21.0 L238.5,20.4 L238.4,20.2 L238.4,20.1 L238.3,20.0" fill="transparent" id="track" stroke="black" stroke-linejoin="miter" stroke-miterlimit="1" stroke-width="2"/>
<g>
<g>
<circle cx="238.34934164433253" cy="20" fill="Blue" id="wp-circle/0" r="5"/>
</g>
<g transform="translate(238.34934164433253 20)">
<rect fill="white" fill-opacity="0.75" height="12" id="label-bg" width="15.610526315789475" x="4" y="-16"/>
<text font-size="16.0" id="wp-text/0" text-anchor="start" x="4.000" y="-4.000">
K4
</text>
</g>
<g>
<circle cx="245.88534323053136" cy="307.47926478035515" fill="Black" id="wp-circle/1" r="3"/>
</g>
<g transform="translate(245.88534323053136 307.47926478035515)">
<rect fill="white" fill-opacity="0.75" height="12" id="label-bg" width="24.610526315789475" x="4" y="-16"/>
<text font-size="16.0" id="wp-text/1" text-anchor="start" x="4.000" y="-4.000">
P20
</text>
</g>
<g>
<circle cx="238.80743485409585" cy="19.90802201290353" fill="Black" id="wp-circle/2" r="5"/>
<circle cx="238.80743485409585" cy="19.90802201290353" fill="white" id="wp-circle/2-little-white" r="3.5"/>
<circle cx="238.80743485409585" cy="19.90802201290353" fill="black" id="wp-circle/2-little-white" r="2.5"/>
</g>
<g transform="translate(238.80743485409585 19.90802201290353)">
<rect fill="white" fill-opacity="0.75" height="12" id="label-bg" width="107.12631578947368" x="-111.12631578947368" y="-16"/>
<text font-size="16.0" id="wp-text/2" text-anchor="end" x="-4.000" y="-4.000">
Wörth am Rhein
</text>
</g>
<g>
<circle cx="274.8672565043271" cy="376.3968160661898" fill="Green" id="wp-circle/3" r="3"/>
</g>
<g transform="translate(274.8672565043271 376.3968160661898)">
<rect fill="white" fill-opacity="0.75" height="12" id="label-bg" width="76.90526315789475" x="-80.90526315789475" y="4"/>
<text font-size="16.0" id="wp-text/3" text-anchor="end" x="-4.000" y="16.000">
Rote Lache
</text>
</g>
<g>
<circle cx="286.9565518753143" cy="318.7732879601099" fill="Black" id="wp-circle/4" r="5"/>
<circle cx="286.9565518753143" cy="318.7732879601099" fill="white" id="wp-circle/4-little-white" r="3.5"/>
<circle cx="286.9565518753143" cy="318.7732879601099" fill="black" id="wp-circle/4-little-white" r="2.5"/>
</g>
<g transform="translate(286.9565518753143 318.7732879601099)">
<rect fill="white" fill-opacity="0.75" height="12" id="label-bg" width="75.57894736842105" x="4" y="-16"/>
<text font-size="16.0" id="wp-text/4" text-anchor="start" x="4.000" y="-4.000">
Gernsbach
</text>
</g>
<g>
<circle cx="286.5967807809393" cy="374.5830457959746" fill="Green" id="wp-circle/5" r="3"/>
</g>
<g transform="translate(286.5967807809393 374.5830457959746)">
<rect fill="white" fill-opacity="0.75" height="12" id="label-bg" width="56.82105263157895" x="4" y="-16"/>
<text font-size="16.0" id="wp-text/5" text-anchor="start" x="4.000" y="-4.000">
Hartkopf
</text>
</g>
<g>
<circle cx="262.44346321501416" cy="335.9455933792924" fill="Green" id="wp-circle/6" r="3"/>
</g>
<g transform="translate(262.44346321501416 335.9455933792924)">
<rect fill="white" fill-opacity="0.75" height="12" id="label-bg" width="65.9157894736842" x="-69.9157894736842" y="-16"/>
<text font-size="16.0" id="wp-text/6" text-anchor="end" x="-4.000" y="-4.000">
Nachtigall
</text>
</g>
<g>
<circle cx="220.71015141795579" cy="321.40563397249934" fill="Black" id="wp-circle/7" r="5"/>
<circle cx="220.71015141795579" cy="321.40563397249934" fill="white" id="wp-circle/7-little-white" r="3.5"/>
<circle cx="220.71015141795579" cy="321.40563397249934" fill="black" id="wp-circle/7-little-white" r="2.5"/>
</g>
<g transform="translate(220.71015141795579 321.40563397249934)">
<rect fill="white" fill-opacity="0.75" height="12" id="label-bg" width="94.90526315789474" x="-64.90526315789474" y="18"/>
<text font-size="16.0" id="wp-text/7" text-anchor="start" x="-64.905" y="30.000">
Baden-Baden
</text>
</g>
<g>
<circle cx="225.74721704058175" cy="55.63018839331926" fill="Black" id="wp-circle/8" r="4"/>
<circle cx="225.74721704058175" cy="55.63018839331926" fill="white" id="wp-circle/8-little-white" r="2.5"/>
</g>
<g transform="translate(225.74721704058175 55.63018839331926)">
<rect fill="white" fill-opacity="0.75" height="12" id="label-bg" width="77.66315789473684" x="4" y="4"/>
<text font-size="16.0" id="wp-text/8" text-anchor="start" x="4.000" y="16.000">
Hagenbach
</text>
</g>
<g>
<circle cx="274.91969496586535" cy="278.3765819637192" fill="Black" id="wp-circle/9" r="5"/>
<circle cx="274.91969496586535" cy="278.3765819637192" fill="white" id="wp-circle/9-little-white" r="3.5"/>
<circle cx="274.91969496586535" cy="278.3765819637192" fill="black" id="wp-circle/9-little-white" r="2.5"/>
</g>
<g transform="translate(274.91969496586535 278.3765819637192)">
<rect fill="white" fill-opacity="0.75" height="12" id="label-bg" width="71.78947368421052" x="4" y="-16"/>
<text font-size="16.0" id="wp-text/9" text-anchor="start" x="4.000" y="-4.000">
Gaggenau
</text>
</g>
<g>
<circle cx="154.60437523696692" cy="260.020385309268" fill="Black" id="wp-circle/10" r="4"/>
<circle cx="154.60437523696692" cy="260.020385309268" fill="white" id="wp-circle/10-little-white" r="2.5"/>
</g>
<g transform="translate(154.60437523696692 260.020385309268)">
<rect fill="white" fill-opacity="0.75" height="12" id="label-bg" width="61.557894736842115" x="4" y="-16"/>
<text font-size="16.0" id="wp-text/10" text-anchor="start" x="4.000" y="-4.000">
Iffezheim
</text>
</g>
<g>
<circle cx="196.4412800256996" cy="221.4780902003331" fill="Black" id="wp-circle/11" r="5"/>
<circle cx="196.4412800256996" cy="221.4780902003331" fill="white" id="wp-circle/11-little-white" r="3.5"/>
<circle cx="196.4412800256996" cy="221.4780902003331" fill="black" id="wp-circle/11-little-white" r="2.5"/>
</g>
<g transform="translate(196.4412800256996 221.4780902003331)">
<rect fill="white" fill-opacity="0.75" height="12" id="label-bg" width="46.87368421052632" x="4" y="-16"/>
<text font-size="16.0" id="wp-text/11" text-anchor="start" x="4.000" y="-4.000">
Rastatt
</text>
</g>
<g>
<circle cx="177.973886468616" cy="101.52296866766119" fill="Black" id="wp-circle/12" r="4"/>
<circle cx="177.973886468616" cy="101.52296866766119" fill="white" id="wp-circle/12-little-white" r="2.5"/>
</g>
<g transform="translate(177.973886468616 101.52296866766119)">
<rect fill="white" fill-opacity="0.75" height="12" id="label-bg" width="84.10526315789474" x="-88.10526315789474" y="-16"/>
<text font-size="16.0" id="wp-text/12" text-anchor="end" x="-4.000" y="-4.000">
Lauterbourg
</text>
</g>
<g>
<circle cx="191.72769754146339" cy="-7.581612333706289" fill="Black" id="wp-circle/13" r="5"/>
<circle cx="191.72769754146339" cy="-7.581612333706289" fill="white" id="wp-circle/13-little-white" r="3.5"/>
<circle cx="191.72769754146339" cy="-7.581612333706289" fill="black" id="wp-circle/13-little-white" r="2.5"/>
</g>
<g transform="translate(191.72769754146339 -7.581612333706289)">
<rect fill="white" fill-opacity="0.75" height="12" id="label-bg" width="46.11578947368421" x="-62" y="34"/>
<text font-size="16.0" id="wp-text/13" text-anchor="end" x="-15.884" y="46.000">
Kandel
</text>
</g>
<g>
<circle cx="194.95644714502032" cy="92.28243428822316" fill="Black" id="wp-circle/14" r="4"/>
<circle cx="194.95644714502032" cy="92.28243428822316" fill="white" id="wp-circle/14-little-white" r="2.5"/>
</g>
<g transform="translate(194.95644714502032 92.28243428822316)">
<rect fill="white" fill-opacity="0.75" height="12" id="label-bg" width="81.07368421052632" x="4" y="4"/>
<text font-size="16.0" id="wp-text/14" text-anchor="start" x="4.000" y="16.000">
Berg (Pfalz)
</text>
</g>
<g>
<circle cx="241.3392124314678" cy="145.03579257471574" fill="Black" id="wp-circle/15" r="5"/>
<circle cx="241.3392124314678" cy="145.03579257471574" fill="white" id="wp-circle/15-little-white" r="3.5"/>
<circle cx="241.3392124314678" cy="145.03579257471574" fill="black" id="wp-circle/15-little-white" r="2.5"/>
</g>
<g transform="translate(241.3392124314678 145.03579257471574)">
<rect fill="white" fill-opacity="0.75" height="12" id="label-bg" width="91.1157894736842" x="4" y="-16"/>
<text font-size="16.0" id="wp-text/15" text-anchor="start" x="4.000" y="-4.000">
Durmersheim
</text>
</g>
<g>
<circle cx="162.0462443786755" cy="146.6523660665698" fill="Black" id="wp-circle/16" r="4"/>
<circle cx="162.0462443786755" cy="146.6523660665698" fill="white" id="wp-circle/16-little-white" r="2.5"/>
</g>
<g transform="translate(162.0462443786755 146.6523660665698)">
<rect fill="white" fill-opacity="0.75" height="12" id="label-bg" width="55.21052631578947" x="-59.21052631578947" y="-16"/>
<text font-size="16.0" id="wp-text/16" text-anchor="end" x="-4.000" y="-4.000">
Mothern
</text>
</g>
<g>
<circle cx="267.8457735343163" cy="108.27741392697499" fill="Black" id="wp-circle/17" r="5"/>
<circle cx="267.8457735343163" cy="108.27741392697499" fill="white" id="wp-circle/17-little-white" r="3.5"/>
<circle cx="267.8457735343163" cy="108.27741392697499" fill="black" id="wp-circle/17-little-white" r="2.5"/>
</g>
<g transform="translate(267.8457735343163 108.27741392697499)">
<rect fill="white" fill-opacity="0.75" height="12" id="label-bg" width="86.37894736842105" x="-56.37894736842105" y="-30"/>
<text font-size="16.0" id="wp-text/17" text-anchor="start" x="-56.379" y="-18.000">
Rheinstetten
</text>
</g>
<g>
<circle cx="115.63239443718976" cy="216.52834331276972" fill="Black" id="wp-circle/18" r="4"/>
<circle cx="115.63239443718976" cy="216.52834331276972" fill="white" id="wp-circle/18-little-white" r="2.5"/>
</g>
<g transform="translate(115.63239443718976 216.52834331276972)">
<rect fill="white" fill-opacity="0.75" height="12" id="label-bg" width="62.41052631578948" x="-66.41052631578948" y="-16"/>
<text font-size="16.0" id="wp-text/18" text-anchor="end" x="-4.000" y="-4.000">
Beinheim
</text>
</g>
<g>
<circle cx="354.7098147732286" cy="282.4581304198218" fill="Black" id="wp-circle/19" r="5"/>
<circle cx="354.7098147732286" cy="282.4581304198218" fill="white" id="wp-circle/19-little-white" r="3.5"/>
<circle cx="354.7098147732286" cy="282.4581304198218" fill="black" id="wp-circle/19-little-white" r="2.5"/>
</g>
<g transform="translate(354.7098147732286 282.4581304198218)">
<rect fill="white" fill-opacity="0.75" height="12" id="label-bg" width="98.6" x="-68.6" y="2"/>
<text font-size="16.0" id="wp-text/19" text-anchor="start" x="-68.600" y="14.000">
Bad Herrenalb
</text>
</g>
<g>
<circle cx="149.39384372416953" cy="389.5969532557501" fill="Black" id="wp-circle/25" r="5"/>
<circle cx="149.39384372416953" cy="389.5969532557501" fill="white" id="wp-circle/25-little-white" r="3.5"/>
<circle cx="149.39384372416953" cy="389.5969532557501" fill="black" id="wp-circle/25-little-white" r="2.5"/>
</g>
<g transform="translate(149.39384372416953 389.5969532557501)">
<rect fill="white" fill-opacity="0.75" height="12" id="label-bg" width="28.11578947368421" x="4" y="-16"/>
<text font-size="16.0" id="wp-text/25" text-anchor="start" x="4.000" y="-4.000">
Bühl
</text>
</g>
</g>
</svg>