<svg height="400" viewBox="(0, 0, 400, 400)" width="400" xmlns="http://www.w3.org/2000/svg">
<path d="M190.6,383.8 L190.6,383.7 L190.7,383.5 L190.8,383.4 L191.0,383.2 L191.1,383.1 L191.6,382.7 L191.9,382.4 L192.1,382.1 L192.4,381.7 L193.0,380.8 L193.3,380.5 L193.7,380.2 L193.9,380.1 L194.2,380.0 L194.4,379.8 L194.6,379.6 L194.7,379.5 L194.8,379.1 L194.8,378.9 L194.8,378.7 L194.8,378.5 L194.5,378.2 L194.5,378.0 L194.4,377.8 L194.4,377.6 L194.5,377.4 L194.7,377.0 L194.9,376.8 L195.1,376.7 L195.5,376.5 L195.8,376.3 L196.0,376.1 L196.1,376.0 L196.1,375.9 L196.2,375.8 L196.2,375.6 L196.2,375.4 L196.2,375.2 L196.2,375.0 L195.5,375.1 L195.3,375.1 L195.0,375.1 L194.2,374.9 L193.9,374.9 L193.8,374.8 L193.8,374.8 L193.5,374.5 L192.8,374.0 L192.6,373.8 L192.3,373.2 L192.2,373.0 L190.8,371.9 L190.5,371.7 L190.3,371.5 L190.2,371.4 L190.2,371.2 L190.3,370.9 L190.4,370.7 L190.9,370.4 L191.0,370.3 L191.0,370.2 L191.0,370.2 L191.0,370.1 L190.8,369.9 L190.6,369.7 L190.1,369.1 L189.7,368.8 L189.5,368.5 L189.4,368.4 L189.4,368.2 L189.5,367.9 L189.5,367.8 L189.4,367.6 L189.2,367.5 L189.0,367.3 L189.0,367.2 L189.0,367.0 L189.1,366.7 L189.4,366.2 L189.4,366.1 L189.4,365.9 L189.3,365.6 L189.3,365.5 L189.3,365.4 L189.2,365.3 L189.1,365.1 L189.1,365.0 L189.1,364.9 L189.3,364.5 L189.3,364.4 L189.3,364.1 L189.3,364.0 L189.2,363.8 L189.1,363.8 L189.0,363.7 L188.9,363.6 L188.6,363.5 L188.5,363.4 L188.5,363.3 L188.1,362.3 L188.0,362.2 L188.0,362.1 L188.1,361.8 L188.2,361.5 L188.3,361.3 L188.5,361.2 L188.6,361.0 L188.7,360.6 L188.9,360.2 L189.0,360.0 L189.0,359.7 L189.0,359.4 L189.1,358.9 L189.1,358.6 L189.2,358.2 L189.4,357.4 L189.4,357.2 L189.4,357.1 L189.3,356.9 L189.2,356.9 L188.9,356.8 L188.7,356.7 L188.7,356.5 L188.6,356.0 L188.5,355.9 L188.4,355.8 L188.3,355.7 L188.2,355.7 L187.9,355.7 L187.8,355.7 L187.5,355.6 L187.3,355.5 L187.2,355.3 L187.0,354.9 L187.0,354.8 L186.9,354.7 L186.7,354.7 L186.5,354.7 L186.0,354.6 L185.7,354.6 L185.5,354.5 L185.2,354.4 L185.0,354.3 L185.0,354.3 L184.9,354.3 L184.9,354.2 L184.8,354.1 L184.6,353.7 L184.5,353.2 L184.4,353.0 L184.0,352.7 L183.4,352.2 L183.2,351.8 L183.0,351.5 L182.6,350.9 L182.4,350.6 L182.3,350.4 L182.4,349.8 L182.3,349.6 L182.1,349.0 L182.0,348.0 L181.8,347.4 L181.8,347.0 L181.8,346.7 L181.7,346.6 L181.7,346.6 L181.7,346.4 L182.1,345.7 L182.2,345.5 L182.2,344.9 L182.4,344.1 L182.4,344.0 L182.3,343.9 L182.3,343.9 L182.2,343.9 L182.2,344.0 L182.2,344.4 L181.9,344.8 L181.9,345.1 L181.9,345.2 L181.6,345.6 L181.4,345.9 L181.3,345.9 L181.3,346.0 L181.1,345.9 L180.9,345.8 L180.6,345.6 L180.2,345.5 L179.4,345.4 L179.3,345.4 L179.3,345.3 L179.2,345.2 L179.2,345.1 L179.4,344.7 L179.4,344.6 L179.3,344.5 L179.2,344.4 L178.3,344.0 L178.1,343.9 L177.9,343.8 L177.8,343.5 L177.7,343.5 L177.3,343.2 L177.2,343.0 L177.1,342.8 L177.1,342.7 L177.0,342.6 L176.8,342.5 L176.5,342.6 L176.3,342.6 L174.8,341.4 L174.5,341.2 L174.3,340.9 L174.2,340.6 L174.1,340.5 L174.1,340.3 L174.1,340.1 L174.1,339.3 L174.1,339.0 L174.0,338.8 L173.9,338.7 L173.9,338.6 L173.7,338.6 L173.6,338.4 L173.6,338.3 L173.5,338.1 L173.6,337.9 L173.7,337.4 L173.8,337.2 L173.9,337.2 L174.3,337.0 L174.3,337.0 L174.3,336.9 L174.3,336.8 L174.2,336.7 L174.1,336.8 L173.9,337.0 L173.5,337.2 L173.2,337.5 L172.4,338.3 L171.9,338.6 L171.7,338.6 L171.4,338.5 L171.3,338.4 L171.2,338.2 L170.9,337.8 L170.8,337.7 L170.7,337.6 L170.4,337.7 L170.3,337.8 L170.1,338.1 L170.0,338.2 L169.8,338.2 L169.8,338.2 L169.4,337.8 L168.9,337.7 L168.6,337.6 L168.4,337.4 L168.2,336.8 L168.2,336.7 L168.0,336.5 L167.8,336.5 L167.3,336.7 L167.2,336.7 L167.2,336.7 L167.1,336.6 L167.2,336.5 L167.9,336.3 L168.1,336.3 L168.4,336.5 L168.8,337.0 L169.0,337.0 L169.4,336.8 L169.7,336.3 L170.0,336.2 L170.4,336.2 L170.9,336.3 L171.0,336.2 L171.1,336.1 L171.0,335.8 L171.1,335.6 L171.4,335.1 L171.6,334.9 L171.8,334.7 L171.8,334.6 L171.8,334.5 L171.8,334.5 L171.7,334.5 L171.7,334.5 L170.9,335.2 L170.7,335.3 L170.4,335.4 L170.0,335.4 L169.9,335.4 L169.8,335.4 L169.3,335.1 L168.9,334.9 L168.7,334.8 L168.2,334.7 L168.1,334.6 L168.0,334.5 L167.9,334.3 L167.9,334.2 L167.8,334.1 L167.0,334.0 L166.4,334.0 L166.3,334.0 L166.0,333.9 L165.8,333.7 L165.5,333.5 L164.9,332.9 L164.4,332.2 L164.0,331.8 L163.7,331.7 L163.6,331.7 L163.5,331.7 L163.3,331.7 L163.0,332.0 L162.7,332.2 L162.6,332.3 L162.4,332.3 L162.1,332.4 L161.9,332.3 L161.7,332.3 L161.7,332.3 L161.3,332.0 L160.9,331.5 L160.8,331.4 L160.7,331.4 L160.4,331.3 L160.1,331.3 L159.5,331.3 L159.4,331.3 L159.0,331.2 L158.9,331.2 L158.7,331.1 L158.7,331.0 L158.6,331.0 L158.1,330.6 L158.0,330.5 L157.9,330.5 L157.6,330.4 L157.3,330.4 L157.0,330.3 L156.5,330.0 L156.1,329.8 L155.7,329.5 L155.5,329.4 L154.9,328.9 L154.8,328.8 L154.7,328.7 L154.2,328.3 L154.0,328.0 L153.7,327.6 L153.5,327.4 L153.5,327.3 L153.3,327.2 L153.2,327.1 L153.0,327.1 L152.6,327.1 L152.5,327.0 L152.2,326.9 L152.1,326.8 L151.9,326.6 L151.9,326.5 L151.8,326.3 L151.7,325.8 L151.5,325.5 L151.4,325.3 L151.3,325.3 L151.0,325.1 L150.9,325.0 L150.9,324.9 L151.0,324.5 L150.9,324.4 L150.8,324.2 L150.8,324.1 L150.6,323.8 L150.9,323.7 L151.1,323.6 L151.2,323.6 L151.2,323.6 L151.3,323.6 L151.4,323.5 L151.5,323.5 L151.6,323.5 L151.6,323.5 L151.8,323.4 L151.9,323.3 L152.3,323.1 L153.0,322.6 L153.5,322.3 L153.9,322.0 L154.0,321.9 L154.1,321.8 L154.2,321.6 L154.2,321.3 L154.2,321.0 L154.2,320.9 L154.3,320.7 L154.6,320.1 L154.9,319.9 L154.9,319.9 L155.2,319.6 L156.1,319.2 L156.2,319.1 L156.3,319.0 L156.6,318.6 L156.7,318.4 L156.8,318.2 L156.9,318.1 L157.0,318.0 L157.4,317.8 L157.6,317.5 L158.0,317.1 L158.0,317.0 L158.8,315.9 L159.7,315.0 L159.8,314.9 L160.0,314.7 L160.1,314.5 L160.5,314.2 L160.7,314.0 L160.8,313.9 L160.9,313.7 L160.9,313.7 L160.9,313.2 L161.0,313.1 L161.0,312.9 L161.2,312.7 L161.3,312.5 L161.6,312.3 L162.0,312.1 L162.1,312.0 L162.3,312.0 L162.5,312.0 L162.9,312.1 L163.1,312.1 L163.3,312.0 L163.4,311.9 L163.6,311.6 L163.7,311.5 L163.8,311.3 L164.1,311.1 L164.5,310.8 L164.7,310.6 L164.7,310.6 L164.8,310.4 L164.7,310.1 L164.7,309.6 L164.7,309.1 L164.7,308.6 L164.7,308.5 L164.8,307.9 L164.9,307.6 L165.1,307.1 L165.1,307.0 L165.1,306.5 L165.2,306.3 L165.3,306.2 L165.4,306.1 L165.6,306.1 L165.7,306.1 L165.8,306.1 L165.9,306.2 L166.1,306.3 L166.2,306.3 L166.5,306.3 L167.0,306.2 L167.6,305.9 L167.7,305.8 L168.1,305.7 L168.5,305.6 L168.7,305.5 L168.9,305.5 L169.1,305.4 L169.1,305.4 L169.2,305.3 L169.4,305.2 L169.7,305.0 L169.8,304.9 L170.0,304.7 L170.0,304.7 L170.1,304.6 L170.1,304.4 L170.1,304.0 L170.1,303.8 L170.3,303.5 L170.5,303.3 L170.7,303.3 L170.8,303.2 L170.9,303.2 L171.5,303.5 L171.5,303.5 L171.6,303.5 L171.9,303.6 L172.3,303.7 L172.7,303.7 L172.9,303.8 L173.6,304.0 L173.7,304.1 L174.3,304.3 L174.9,304.4 L175.0,304.4 L175.6,305.0 L175.7,305.0 L175.8,305.0 L176.4,305.0 L176.9,305.2 L177.7,305.4 L178.0,305.5 L178.2,305.6 L178.4,306.0 L178.6,306.3 L179.1,306.6 L179.5,306.9 L179.7,306.9 L179.9,307.0 L180.2,307.0 L180.6,307.0 L180.8,307.0 L180.8,306.9 L180.9,306.8 L180.8,306.8 L180.8,306.7 L180.7,306.7 L180.7,306.7 L180.2,306.6 L180.1,306.6 L179.9,306.5 L179.7,306.2 L179.4,305.9 L179.3,305.8 L179.3,305.6 L179.3,305.5 L179.5,305.1 L179.6,304.7 L179.7,304.4 L179.9,304.2 L180.2,304.0 L180.4,303.9 L180.5,303.8 L180.8,303.7 L180.9,303.6 L180.9,303.7 L180.9,303.7 L180.7,303.9 L180.6,304.0 L180.1,304.7 L180.1,304.8 L180.1,304.8 L180.2,304.8 L180.3,304.8 L180.5,304.5 L180.7,304.3 L181.7,303.7 L182.0,303.5 L182.1,303.3 L182.1,303.2 L182.1,303.1 L182.1,303.0 L182.0,302.9 L181.9,302.7 L181.6,302.5 L181.4,302.4 L181.2,302.3 L180.9,302.2 L180.5,302.0 L180.5,302.0 L180.5,301.9 L180.6,301.9 L181.1,302.1 L181.2,302.1 L181.2,302.1 L181.3,302.1 L181.3,302.0 L181.1,302.0 L181.0,301.9 L180.9,301.8 L180.9,301.8 L180.9,301.2 L180.9,300.1 L180.8,299.9 L180.6,299.8 L180.4,299.7 L179.9,299.5 L179.6,299.3 L179.6,299.3 L179.5,299.2 L179.5,299.2 L179.6,299.1 L179.9,298.7 L180.0,298.6 L180.2,298.5 L181.1,298.3 L181.8,298.1 L181.9,298.1 L181.9,298.1 L181.9,298.2 L181.9,298.2 L181.7,298.2 L181.5,298.3 L180.9,298.7 L180.9,298.8 L180.9,298.8 L180.9,298.9 L181.0,298.9 L181.0,298.9 L181.2,298.7 L181.4,298.7 L182.2,298.5 L182.6,298.3 L183.3,297.8 L183.7,297.5 L183.7,297.4 L183.8,297.2 L183.8,297.0 L183.7,296.3 L183.6,295.7 L183.3,294.9 L183.2,294.4 L183.3,294.1 L183.3,293.8 L183.5,293.6 L184.2,292.8 L184.7,292.3 L185.4,291.7 L185.5,291.5 L185.9,290.9 L186.1,290.4 L186.5,289.0 L186.6,288.5 L186.5,287.9 L186.5,287.7 L186.4,287.5 L186.1,287.2 L185.5,286.6 L185.4,286.4 L185.4,286.2 L185.9,285.3 L186.0,285.1 L186.3,284.4 L186.5,284.0 L186.6,283.8 L186.8,283.6 L187.8,283.1 L188.1,282.9 L188.6,282.6 L188.7,282.5 L189.7,281.6 L190.0,281.3 L190.4,281.0 L192.0,279.5 L192.1,279.4 L192.2,279.4 L192.2,279.3 L192.3,279.3 L192.4,279.1 L192.8,278.8 L192.9,278.7 L192.8,278.5 L192.5,278.3 L192.4,278.0 L192.2,277.8 L192.3,277.8 L192.2,277.5 L192.1,277.0 L192.0,276.9 L192.0,276.2 L192.0,276.1 L191.9,276.0 L191.9,275.8 L191.8,275.7 L191.5,273.4 L191.4,272.9 L191.4,272.8 L191.1,272.4 L190.7,271.9 L190.6,271.7 L190.6,271.6 L189.9,271.0 L189.7,270.8 L189.3,270.4 L189.1,270.1 L188.7,269.3 L188.3,268.4 L188.3,268.2 L188.1,268.0 L187.9,267.7 L187.8,267.5 L187.4,267.3 L186.8,267.1 L186.6,267.0 L186.3,267.0 L186.1,267.0 L185.9,267.1 L185.2,267.3 L185.1,267.3 L184.9,267.3 L184.8,267.3 L184.6,267.1 L183.8,266.6 L182.8,265.8 L182.8,265.7 L182.4,265.5 L182.1,265.3 L181.5,265.1 L181.0,265.0 L180.7,264.9 L180.3,264.9 L179.8,264.9 L179.3,264.9 L178.6,265.0 L178.3,265.1 L178.0,265.2 L178.0,265.1 L178.0,264.6 L178.1,263.6 L178.2,263.2 L178.3,263.1 L178.4,262.9 L178.6,262.7 L178.9,262.5 L179.1,262.4 L179.3,262.4 L179.6,262.3 L180.4,262.3 L182.9,262.3 L183.1,262.3 L183.6,262.2 L183.9,261.9 L184.0,261.8 L184.3,261.4 L184.4,261.2 L184.4,261.0 L184.5,260.8 L184.5,260.6 L184.4,260.3 L184.3,260.2 L184.2,260.0 L182.9,258.8 L182.7,258.5 L182.5,258.3 L182.2,257.7 L182.1,257.5 L182.1,257.1 L182.1,256.8 L182.2,256.5 L182.3,256.2 L182.6,256.0 L182.7,255.8 L182.9,255.7 L183.2,255.6 L183.8,255.4 L184.1,255.3 L184.8,255.2 L185.0,255.1 L185.1,255.0 L185.2,254.9 L185.3,254.6 L185.3,254.3 L185.2,253.9 L184.9,253.2 L184.7,252.6 L184.6,252.3 L184.6,252.1 L184.6,251.8 L185.0,249.9 L185.1,249.8 L185.9,248.4 L186.0,248.2 L186.2,248.1 L186.6,247.7 L186.7,247.6 L186.7,247.5 L186.7,247.4 L186.7,247.4 L186.5,247.5 L185.7,248.3 L184.7,249.4 L184.4,249.8 L183.4,251.6 L183.3,251.9 L183.1,252.6 L183.1,252.9 L183.1,253.1 L183.2,253.4 L183.2,253.5 L183.1,253.7 L183.0,253.7 L182.8,253.8 L182.7,253.7 L182.5,253.6 L182.3,253.5 L182.1,253.5 L181.6,253.8 L180.2,254.4 L179.6,254.5 L179.1,254.7 L178.9,254.9 L178.8,254.9 L178.7,254.9 L178.7,254.9 L178.6,254.9 L178.6,254.8 L178.6,254.7 L178.7,254.6 L180.2,253.8 L180.4,253.6 L180.6,253.5 L180.8,253.2 L181.0,252.9 L181.2,252.6 L181.3,252.0 L181.4,251.7 L181.5,251.4 L181.7,251.0 L182.1,250.1 L182.2,249.8 L182.3,249.7 L182.3,249.2 L182.4,249.1 L182.7,248.8 L182.7,248.7 L182.7,248.2 L182.7,247.9 L182.7,247.5 L182.8,247.3 L182.8,247.1 L183.8,245.3 L183.9,244.9 L184.1,244.7 L185.0,243.8 L185.1,243.6 L185.4,243.5 L186.0,243.3 L186.2,243.2 L186.3,243.1 L186.4,242.9 L186.6,242.7 L186.7,242.6 L187.0,242.5 L187.6,242.5 L187.7,242.5 L187.9,242.4 L188.2,242.2 L188.3,242.2 L188.5,242.2 L190.1,242.3 L190.2,242.2 L190.4,242.1 L190.5,242.0 L190.6,241.9 L190.8,241.1 L191.0,240.8 L191.1,240.7 L191.4,240.4 L191.9,239.9 L192.1,239.5 L192.3,239.3 L192.5,239.1 L192.6,238.8 L192.7,238.1 L192.7,237.8 L192.7,237.7 L192.6,237.6 L192.6,237.5 L192.5,237.1 L192.7,236.7 L192.7,236.6 L192.6,236.0 L192.7,235.9 L193.5,235.3 L194.2,234.7 L194.4,234.5 L194.5,234.4 L194.9,234.1 L195.0,234.1 L195.1,234.0 L195.2,233.9 L195.7,233.7 L196.0,233.6 L197.3,232.8 L197.7,232.4 L198.0,232.1 L198.3,231.8 L198.4,231.6 L198.5,231.5 L198.7,231.4 L199.1,231.4 L199.5,231.3 L199.8,231.3 L200.3,231.1 L200.5,231.0 L200.5,231.0 L200.6,231.0 L200.8,231.0 L200.9,231.0 L201.0,231.0 L201.0,231.0 L201.0,230.9 L200.9,230.7 L200.8,230.6 L200.7,230.2 L200.3,229.5 L200.0,229.0 L199.8,228.9 L199.8,228.9 L199.1,228.6 L198.6,228.4 L198.3,228.3 L197.7,228.1 L197.3,227.8 L196.9,227.5 L196.7,227.3 L196.5,227.2 L196.4,227.0 L196.4,226.8 L196.3,226.4 L196.2,226.2 L196.1,225.8 L195.9,225.7 L195.5,225.2 L194.4,224.0 L194.0,223.4 L193.8,223.1 L193.7,222.9 L193.6,222.8 L193.4,222.7 L192.7,222.2 L190.7,220.9 L190.6,220.8 L190.4,220.6 L190.3,220.3 L190.3,220.1 L190.3,220.0 L190.5,219.1 L190.5,218.9 L190.5,218.8 L190.4,218.7 L190.3,218.7 L190.2,218.7 L190.1,218.8 L189.8,219.0 L189.6,219.1 L189.5,219.0 L189.4,219.0 L189.3,218.8 L189.3,218.3 L189.1,217.9 L188.9,217.7 L188.6,217.4 L188.2,217.2 L188.0,217.0 L187.9,216.9 L187.8,216.7 L187.7,216.3 L187.7,216.2 L187.7,216.2 L187.6,216.2 L187.5,216.2 L187.4,216.3 L187.2,216.3 L187.1,216.3 L186.3,215.9 L186.0,215.8 L185.8,215.6 L184.7,214.8 L184.6,214.6 L184.5,214.2 L184.4,213.9 L184.3,212.7 L184.2,212.6 L184.2,212.5 L184.0,212.4 L183.9,212.4 L183.8,212.4 L183.6,212.5 L183.5,212.6 L183.5,212.7 L183.3,213.5 L183.2,213.7 L183.0,213.8 L182.8,213.9 L182.5,213.9 L181.6,214.0 L180.5,214.0 L180.3,214.1 L179.9,214.4 L179.6,214.4 L179.4,214.5 L179.0,214.5 L178.7,214.5 L178.4,214.4 L178.0,214.2 L177.8,214.0 L177.5,213.8 L177.4,213.6 L177.2,213.3 L177.0,212.7 L176.5,211.4 L176.3,211.0 L176.2,210.8 L176.1,210.7 L175.9,210.7 L175.8,210.7 L175.7,210.7 L175.6,210.8 L175.5,210.9 L175.4,211.0 L175.3,211.2 L175.3,211.5 L175.3,211.7 L175.5,212.4 L175.5,212.6 L175.4,212.7 L175.4,212.8 L175.0,213.0 L174.8,213.2 L174.6,213.5 L174.3,214.0 L174.2,214.2 L174.0,214.4 L173.7,214.6 L173.5,214.6 L173.1,214.6 L172.9,214.5 L172.7,214.4 L172.1,214.0 L171.9,213.8 L171.7,213.6 L171.6,213.3 L171.4,213.0 L171.3,212.7 L171.2,212.3 L171.2,211.8 L171.2,211.2 L170.8,209.3 L170.5,207.0 L170.4,206.7 L170.3,206.4 L170.2,206.3 L170.0,206.1 L169.5,205.6 L169.4,205.6 L169.2,205.5 L168.7,205.4 L168.6,205.3 L168.3,205.1 L168.1,205.0 L168.0,205.0 L167.9,205.0 L167.7,205.1 L167.6,205.2 L167.6,205.4 L167.6,205.6 L167.7,205.8 L167.8,205.9 L167.8,206.1 L167.7,206.1 L167.6,206.2 L167.5,206.3 L167.1,206.4 L166.4,206.6 L166.1,206.7 L165.8,206.7 L165.5,206.7 L165.2,206.7 L164.9,206.6 L164.5,206.5 L164.4,206.5 L164.2,206.4 L163.8,206.2 L163.2,206.0 L163.2,206.0 L162.8,205.8 L162.3,205.6 L162.2,205.5 L161.7,205.5 L161.5,205.4 L161.4,205.4 L161.4,205.4 L161.3,205.4 L161.1,205.3 L161.0,205.3 L161.0,205.2 L160.9,205.1 L160.9,205.0 L160.8,204.9 L161.1,204.3 L161.3,204.0 L161.4,203.8 L161.6,203.5 L161.6,203.4 L161.7,203.2 L161.8,203.0 L162.1,201.6 L162.2,200.8 L162.3,200.4 L162.3,199.6 L162.2,198.2 L162.2,197.9 L162.2,197.6 L162.3,197.3 L162.4,197.0 L162.7,196.6 L163.0,196.2 L163.3,195.8 L163.5,195.6 L163.8,195.4 L163.9,195.3 L164.0,195.2 L164.1,195.1 L164.1,194.9 L164.1,194.8 L163.9,194.6 L163.9,194.6 L163.7,194.5 L163.5,194.5 L163.3,194.4 L162.9,194.3 L162.5,194.3 L162.3,194.3 L162.0,194.3 L161.6,194.4 L161.2,194.4 L160.8,194.4 L160.4,194.3 L160.1,194.2 L159.8,194.0 L159.6,193.8 L159.2,193.3 L159.0,192.9 L158.9,192.8 L158.8,192.4 L158.8,192.1 L158.8,191.9 L159.0,190.7 L159.2,190.2 L159.3,190.0 L159.4,189.8 L159.7,189.3 L160.0,189.0 L161.1,187.8 L161.3,187.5 L161.3,187.3 L161.4,187.2 L161.4,187.1 L161.3,186.8 L161.2,186.6 L161.0,186.3 L160.8,186.0 L159.9,185.3 L159.4,184.8 L159.0,184.5 L158.9,184.4 L158.6,184.4 L158.0,184.3 L157.8,184.2 L157.6,184.2 L157.4,184.1 L157.4,184.0 L157.2,183.8 L157.2,183.5 L157.1,183.4 L157.2,183.2 L157.3,182.9 L157.6,182.3 L157.6,182.1 L158.0,181.4 L158.2,180.9 L158.2,180.5 L158.3,180.1 L158.3,179.5 L158.2,179.1 L158.0,178.4 L158.0,178.1 L158.0,177.8 L158.1,177.5 L158.3,176.8 L158.8,175.2 L158.9,174.8 L158.9,174.5 L159.0,174.5 L159.0,174.2 L158.9,174.1 L159.0,174.1 L159.2,173.9 L159.3,173.9 L159.4,173.9 L159.6,174.0 L160.1,174.4 L160.3,174.5 L161.4,175.0 L161.5,175.0 L161.6,175.1 L162.5,175.4 L162.6,175.5 L162.7,175.6 L163.1,176.2 L164.0,177.1 L164.2,177.4 L164.3,177.4 L164.9,177.6 L165.0,177.7 L165.2,177.8 L165.2,178.0 L165.3,178.2 L165.3,178.6 L165.2,178.7 L165.3,179.0 L165.5,179.8 L165.5,180.1 L165.5,180.4 L165.7,180.9 L165.8,180.9 L166.0,181.0 L166.5,180.9 L166.9,180.7 L168.8,180.2 L169.8,179.9 L169.9,179.8 L170.1,179.9 L170.1,179.9 L170.2,180.0 L170.2,180.0 L170.2,180.2 L170.2,180.4 L170.2,180.5 L170.3,180.7 L170.4,180.8 L170.6,180.9 L170.6,180.9 L170.7,180.8 L170.8,180.6 L171.2,180.2 L171.4,180.1 L172.1,179.7 L172.4,179.6 L172.6,179.6 L172.9,179.6 L173.1,179.7 L173.3,179.8 L173.3,179.8 L173.4,179.9 L173.4,180.1 L173.5,180.5 L173.6,180.7 L173.7,180.7 L173.9,180.7 L173.9,180.7 L174.2,180.3 L174.4,180.1 L174.5,180.0 L174.6,180.0 L175.4,179.6 L175.6,179.5 L175.9,179.5 L176.0,179.6 L176.2,179.7 L176.4,179.8 L177.5,179.8 L177.6,179.9 L177.7,180.0 L177.8,180.1 L178.0,180.8 L178.1,181.0 L178.2,181.1 L178.3,181.2 L178.4,181.1 L178.6,181.0 L178.7,180.9 L178.7,180.6 L178.7,180.5 L178.7,179.5 L178.7,179.2 L178.9,178.9 L179.0,178.7 L179.2,178.5 L179.4,178.3 L179.9,178.1 L180.0,178.1 L180.2,178.1 L180.4,178.1 L180.5,178.1 L180.5,178.0 L180.6,178.0 L180.8,178.1 L180.9,178.2 L181.1,178.6 L181.3,178.9 L181.4,179.1 L181.6,179.2 L181.7,179.3 L181.9,179.4 L182.0,179.5 L182.5,179.9 L182.7,180.1 L182.8,180.2 L183.0,180.6 L183.0,180.7 L183.1,180.8 L183.2,180.8 L183.3,180.8 L183.4,180.7 L183.5,180.6 L183.6,180.6 L183.8,180.6 L183.9,180.7 L184.6,181.1 L184.6,181.2 L184.6,181.5 L184.7,181.6 L184.8,181.7 L184.8,181.7 L184.9,181.7 L185.1,181.6 L185.3,181.5 L185.4,181.5 L185.7,181.6 L185.8,181.6 L186.0,181.5 L186.2,181.5 L187.0,181.5 L187.7,181.7 L188.0,181.7 L188.2,181.7 L188.6,181.7 L189.4,181.7 L189.7,181.7 L189.8,181.8 L190.0,182.0 L190.0,182.3 L190.1,182.4 L190.2,182.4 L190.3,182.3 L190.4,182.2 L190.5,181.9 L190.7,181.7 L191.1,181.5 L191.5,181.3 L191.7,181.2 L192.1,181.2 L192.7,181.1 L193.0,181.2 L193.8,181.4 L194.0,181.4 L194.2,181.6 L194.6,181.9 L194.7,182.0 L195.1,181.9 L195.4,181.9 L195.7,182.0 L196.0,182.2 L196.1,182.3 L196.2,182.4 L196.9,182.5 L197.2,182.5 L197.5,182.6 L197.9,182.8 L198.2,183.0 L198.4,183.1 L198.7,183.1 L199.0,183.1 L199.4,183.2 L199.6,183.2 L199.8,183.3 L200.0,183.5 L200.1,183.6 L200.3,183.5 L200.6,183.4 L200.8,183.4 L201.1,183.4 L201.5,183.5 L201.8,183.5 L202.4,183.6 L202.6,183.6 L203.2,183.6 L203.4,183.6 L203.7,183.6 L203.8,183.6 L204.3,183.5 L204.8,183.3 L204.9,183.3 L205.3,183.2 L205.5,183.0 L205.8,182.9 L206.3,182.7 L206.5,182.7 L206.9,182.5 L207.5,182.4 L208.0,182.3 L208.4,182.2 L208.6,182.2 L208.8,182.1 L209.1,181.8 L209.3,181.6 L209.6,181.4 L210.4,181.5 L211.1,181.7 L211.8,181.7 L212.1,181.6 L212.2,181.5 L212.8,181.0 L213.1,180.8 L213.2,180.7 L213.3,180.6 L213.5,180.6 L213.6,180.7 L214.1,181.0 L214.3,181.3 L214.5,181.4 L214.6,181.5 L215.1,181.6 L215.5,181.6 L216.0,181.5 L216.2,181.4 L216.4,181.2 L216.6,181.1 L216.7,180.8 L216.8,180.7 L216.9,180.7 L217.0,180.7 L217.1,180.7 L217.2,180.8 L217.3,181.0 L217.4,181.3 L217.5,181.4 L217.9,181.6 L218.2,181.8 L218.2,181.9 L218.4,182.0 L218.6,182.2 L218.7,182.2 L218.8,182.3 L218.9,182.3 L219.1,182.3 L219.2,182.2 L219.6,181.9 L219.8,181.7 L220.3,181.5 L220.4,181.4 L220.6,181.1 L221.1,180.5 L221.2,180.3 L221.5,179.7 L221.5,179.5 L221.7,179.4 L221.8,179.3 L221.9,179.3 L222.8,179.1 L223.1,179.1 L223.7,179.1 L225.4,179.2 L225.6,179.2 L225.7,179.2 L226.1,179.1 L226.4,178.9 L228.0,177.7 L228.3,177.4 L229.0,176.6 L229.2,176.5 L231.0,175.6 L231.3,175.5 L232.1,175.3 L233.2,174.9 L233.8,174.7 L234.2,174.6 L236.7,174.2 L237.8,174.0 L239.1,173.8 L239.4,173.7 L239.6,173.5 L240.6,172.5 L240.8,172.4 L241.0,172.2 L241.3,172.1 L241.9,172.0 L242.2,171.9 L242.4,171.8 L242.7,171.6 L243.0,171.2 L243.3,171.0 L243.4,170.7 L243.5,170.5 L243.5,170.3 L243.5,169.6 L243.5,169.5 L243.5,169.3 L243.5,168.8 L243.5,168.7 L243.5,168.6 L243.4,168.3 L243.4,168.1 L243.4,167.9 L243.4,167.6 L243.8,167.0 L243.9,166.5 L244.2,165.9 L244.2,165.8 L244.3,165.7 L244.5,165.6 L244.7,165.5 L245.0,165.4 L245.5,165.3 L245.7,165.3 L246.2,165.2 L246.3,165.2 L246.8,165.4 L247.0,165.4 L247.6,165.5 L248.0,165.5 L248.2,165.5 L248.4,165.6 L248.5,165.7 L248.6,165.6 L248.6,165.6 L248.8,165.5 L249.1,165.5 L249.4,165.5 L249.4,165.4 L249.3,164.9 L249.2,164.7 L249.1,164.1 L248.9,163.7 L248.5,162.9 L248.4,162.7 L248.3,162.4 L248.1,162.1 L247.7,161.6 L247.5,161.4 L247.3,161.0 L247.2,160.9 L247.0,160.6 L246.9,160.3 L246.9,159.8 L246.9,159.1 L247.0,158.7 L247.0,158.2 L247.2,157.8 L247.3,157.6 L247.3,157.5 L247.2,157.3 L247.2,157.3 L247.0,156.8 L246.5,156.1 L246.4,155.7 L246.3,155.4 L246.1,154.7 L246.0,154.5 L245.6,154.1 L245.4,154.0 L245.2,153.9 L245.1,153.9 L244.6,153.5 L244.3,153.4 L244.0,153.2 L243.5,152.9 L243.2,152.7 L242.2,151.8 L242.1,151.6 L241.9,151.3 L241.8,150.8 L241.8,150.4 L241.8,150.1 L241.9,149.8 L242.3,148.7 L242.3,148.6 L242.2,148.3 L242.2,148.2 L242.2,147.9 L242.1,147.8 L242.0,147.6 L241.8,147.2 L241.6,147.1 L241.4,147.0 L241.3,146.8 L241.3,146.6 L241.2,146.3 L241.3,145.9 L241.3,145.5 L241.3,144.6 L241.3,144.3 L241.3,143.9 L241.3,143.4 L241.2,143.1 L241.3,142.9 L241.3,142.7 L241.4,142.6 L241.8,142.3 L242.2,142.0 L242.6,141.8 L242.7,141.7 L242.7,141.6 L242.9,141.3 L242.9,141.1 L243.0,141.0 L243.0,140.8 L243.0,140.6 L242.9,140.2 L242.4,139.1 L242.4,138.8 L242.3,138.7 L242.1,138.6 L241.9,138.3 L241.2,137.6 L240.4,136.8 L240.1,136.5 L239.8,136.2 L239.5,136.0 L239.3,136.0 L239.2,136.0 L239.0,136.0 L238.9,136.0 L238.8,135.9 L238.7,135.8 L238.7,135.7 L238.8,135.6 L238.9,135.4 L239.0,135.1 L239.2,134.6 L239.6,133.3 L239.7,132.8 L239.6,132.2 L239.7,131.8 L239.7,131.4 L240.0,129.9 L240.1,129.4 L240.2,129.3 L240.9,128.4 L241.3,128.1 L241.7,127.5 L241.9,127.4 L242.2,127.2 L242.6,127.1 L242.7,127.0 L242.9,126.9 L242.9,126.8 L243.1,126.3 L243.2,126.2 L243.6,125.8 L243.7,125.7 L243.7,125.6 L243.6,125.3 L243.3,124.5 L243.2,124.2 L243.0,124.1 L242.9,123.9 L242.8,123.7 L242.8,123.6 L242.8,123.4 L243.4,122.3 L243.5,122.2 L243.7,122.1 L244.1,121.9 L244.5,121.6 L244.8,121.4 L245.2,121.3 L245.3,121.3 L245.5,121.3 L245.7,121.5 L245.9,121.6 L246.1,121.6 L246.3,121.5 L246.4,121.5 L246.7,121.3 L246.8,121.2 L247.0,121.1 L247.1,120.9 L247.2,120.6 L247.2,120.4 L247.3,120.2 L247.3,120.0 L247.2,119.8 L246.7,119.2 L246.3,118.9 L246.1,118.6 L246.1,118.2 L245.9,117.7 L245.9,117.5 L246.0,117.2 L246.0,116.7 L246.0,116.4 L246.0,116.2 L245.9,115.7 L245.5,114.9 L245.5,114.7 L245.5,114.4 L245.6,114.2 L245.7,114.1 L246.0,113.8 L246.4,113.6 L246.5,113.5 L246.7,113.5 L247.0,113.4 L247.7,113.1 L247.9,112.9 L248.0,112.7 L248.1,112.3 L248.1,112.1 L247.7,111.1 L247.7,111.0 L247.3,110.7 L247.3,110.6 L247.3,110.5 L247.3,110.4 L247.4,110.4 L247.5,110.1 L247.5,110.0 L247.5,109.9 L247.4,109.9 L247.2,109.8 L246.6,109.8 L246.3,109.8 L246.1,109.7 L245.9,109.6 L245.7,109.4 L245.7,109.3 L245.5,109.1 L245.1,109.0 L244.9,108.9 L244.7,108.9 L244.6,109.0 L244.4,109.2 L244.3,109.3 L244.0,109.4 L243.2,109.7 L242.9,110.0 L242.5,110.2 L242.1,110.4 L241.7,110.6 L241.6,110.6 L241.6,110.6 L241.5,110.6 L241.4,110.5 L241.4,110.4 L241.4,110.1 L241.5,109.7 L241.4,109.2 L241.5,109.0 L241.7,108.4 L242.0,107.4 L242.2,107.1 L242.4,106.7 L242.8,106.2 L243.0,106.0 L243.2,105.9 L243.7,105.3 L244.4,104.3 L244.8,103.9 L245.3,103.2 L245.5,102.8 L245.6,102.6 L245.7,102.3 L245.7,101.8 L245.7,100.8 L245.4,99.8 L245.4,99.7 L245.3,99.7 L245.3,99.5 L245.2,99.2 L245.1,98.8 L245.1,98.6 L245.2,98.5 L245.1,98.4 L245.1,98.4 L245.0,98.4 L245.0,98.4 L244.9,98.5 L244.5,98.4 L244.4,98.5 L244.4,98.2 L244.4,98.1 L244.3,97.9 L244.2,97.8 L244.1,97.7 L244.0,97.6 L243.9,97.6 L243.8,97.7 L243.5,97.9 L243.4,97.9 L243.2,97.9 L243.1,97.9 L243.1,97.8 L243.0,97.8 L243.1,97.6 L243.1,97.6 L243.0,97.5 L242.6,97.6 L242.5,96.9 L242.4,96.6 L242.3,96.4 L242.3,96.3 L242.4,96.1 L242.5,95.9 L242.4,95.5 L242.3,95.4 L242.2,95.2 L242.1,95.1 L242.0,95.1 L241.5,95.1 L241.4,95.0 L240.9,94.6 L240.6,94.4 L240.4,94.1 L240.2,93.9 L240.0,93.9 L239.5,93.7 L239.4,93.7 L239.3,93.6 L239.2,93.4 L239.2,93.2 L239.2,93.1 L239.3,93.0 L239.3,92.9 L239.3,92.9 L239.1,92.5 L239.0,92.1 L238.9,92.0 L239.0,91.8 L238.9,91.7 L238.6,91.1 L238.5,91.0 L238.1,90.8 L238.0,90.7 L237.9,90.6 L237.7,90.6 L237.4,90.3 L237.4,90.3 L237.1,90.4 L237.0,90.4 L236.5,90.2 L236.2,90.1 L236.1,90.0 L235.7,89.8 L235.7,89.7 L235.6,89.6 L235.6,89.4 L235.4,89.2 L235.1,88.9 L235.1,88.8 L235.1,88.6 L235.0,88.4 L235.0,88.3 L234.8,88.2 L234.7,88.2 L234.6,87.8 L234.3,87.4 L234.2,87.3 L234.1,87.3 L233.9,87.2 L233.7,87.0 L233.6,86.9 L233.5,86.7 L233.5,86.6 L233.6,86.3 L233.6,86.3 L233.7,86.1 L233.7,86.0 L233.6,85.9 L233.5,85.7 L233.5,85.6 L233.4,85.4 L233.4,85.2 L233.3,85.1 L233.2,84.8 L233.1,84.5 L232.9,84.4 L232.7,84.3 L231.7,84.0 L231.5,83.9 L231.3,84.0 L231.2,84.0 L231.1,83.9 L231.0,83.7 L231.0,83.7 L231.1,83.2 L231.1,83.0 L231.0,82.8 L230.7,82.4 L230.5,82.2 L230.2,82.0 L230.1,82.0 L230.0,82.0 L229.9,82.0 L229.5,82.3 L229.4,82.4 L229.3,82.4 L229.3,82.3 L229.0,82.0 L228.9,81.9 L228.7,81.9 L228.6,81.8 L228.5,81.7 L228.4,81.6 L228.4,81.4 L228.3,81.3 L228.2,81.3 L228.1,81.2 L227.9,81.2 L227.5,81.0 L226.9,80.7 L226.4,80.6 L225.9,80.6 L225.8,80.6 L225.8,80.5 L225.7,80.5 L225.7,80.2 L225.8,80.0 L225.7,79.6 L225.6,79.5 L225.4,79.3 L224.9,78.9 L224.7,78.8 L224.5,78.5 L224.5,78.4 L224.3,78.0 L224.3,77.9 L224.4,77.9 L224.4,77.8 L224.5,77.8 L225.3,77.7 L225.7,77.7 L225.8,77.6 L225.8,77.6 L225.9,77.5 L225.9,77.3 L225.8,77.1 L225.8,76.6 L225.9,76.5 L226.0,76.4 L226.0,76.3 L226.0,76.2 L226.0,76.1 L225.9,75.9 L225.6,75.7 L225.6,75.6 L225.6,75.6 L225.6,75.5 L225.7,75.2 L225.8,75.2 L225.9,75.1 L226.0,75.1 L226.5,75.0 L226.8,74.9 L226.9,74.9 L227.0,74.8 L227.0,74.7 L227.1,74.2 L227.2,73.9 L227.2,73.5 L227.1,73.4 L226.8,72.9 L226.8,72.8 L226.9,72.7 L227.0,72.6 L227.3,72.6 L227.4,72.5 L227.5,72.4 L227.5,72.3 L227.5,72.0 L227.6,71.8 L227.7,71.7 L227.8,71.7 L228.0,71.8 L228.2,71.8 L228.3,71.7 L228.4,71.7 L228.5,71.5 L228.6,71.5 L229.3,71.5 L229.6,71.4 L229.7,71.4 L229.8,71.5 L229.9,71.5 L230.0,71.6 L230.0,71.7 L229.9,71.9 L229.9,72.0 L230.0,72.1 L230.1,72.1 L230.1,72.1 L230.2,72.0 L230.2,71.9 L230.2,71.8 L230.1,71.6 L230.0,71.3 L229.9,71.2 L229.8,71.2 L229.6,71.1 L228.5,71.0 L228.2,71.1 L228.0,71.2 L227.6,71.0 L227.5,71.0 L227.4,71.0 L227.2,71.2 L227.1,71.3 L227.1,71.5 L227.0,71.6 L226.9,71.6 L226.9,71.6 L226.7,71.4 L226.6,71.4 L226.5,71.3 L226.5,71.3 L226.4,71.4 L226.3,71.4 L226.2,71.7 L225.6,72.2 L225.3,72.6 L225.2,72.7 L225.2,72.8 L225.5,73.3 L225.5,73.3 L225.4,73.4 L225.3,73.5 L225.2,73.5 L224.9,73.5 L223.9,73.3 L223.8,73.3 L223.5,73.4 L223.3,73.5 L223.2,73.7 L222.9,74.2 L222.7,74.3 L222.6,74.4 L222.3,74.5 L221.8,74.5 L221.6,74.5 L221.4,74.5 L221.3,74.5 L221.1,74.4 L221.0,74.4 L220.8,74.4 L220.4,74.4 L220.2,74.5 L219.8,74.7 L219.3,74.8 L219.0,74.9 L218.9,75.0 L218.7,75.1 L218.4,75.4 L218.3,75.4 L218.2,75.5 L218.1,75.4 L218.1,75.4 L217.9,75.2 L217.7,75.0 L217.5,74.4 L217.4,74.3 L217.3,74.2 L217.2,74.2 L217.1,74.2 L216.9,74.3 L216.8,74.3 L216.7,74.6 L216.6,74.6 L216.5,74.6 L216.5,74.7 L216.4,74.6 L216.2,74.4 L215.9,74.3 L215.8,74.2 L215.8,74.1 L215.9,74.0 L216.0,73.8 L216.1,73.7 L216.1,73.6 L216.1,73.5 L216.1,73.2 L216.0,73.0 L216.0,72.8 L215.8,72.6 L215.7,72.4 L215.7,72.1 L215.7,72.0 L215.7,71.8 L215.8,71.6 L216.2,71.1 L216.3,70.6 L216.4,70.5 L216.4,70.4 L216.4,70.2 L216.4,70.1 L216.2,69.9 L216.0,69.4 L215.9,69.3 L215.9,68.9 L215.9,68.7 L215.9,68.4 L216.0,68.1 L216.2,67.8 L216.3,67.7 L216.7,67.5 L216.7,67.5 L216.8,67.2 L217.0,66.7 L217.0,66.6 L216.9,66.4 L216.8,66.2 L216.7,66.1 L216.5,66.0 L216.3,66.0 L216.2,65.9 L216.2,65.8 L216.2,65.7 L216.3,65.6 L216.4,65.6 L216.6,65.5 L216.7,65.4 L216.8,65.3 L216.9,64.9 L217.1,64.4 L217.1,64.0 L217.1,63.8 L216.9,63.4 L216.8,63.2 L216.9,63.0 L217.0,62.7 L217.0,62.5 L216.9,62.3 L216.9,62.2 L216.9,62.0 L217.1,61.7 L217.3,61.3 L217.4,61.1 L217.4,60.8 L217.4,60.7 L217.1,60.4 L217.1,60.2 L216.9,59.7 L216.9,59.5 L216.6,59.2 L216.5,59.1 L216.4,58.9 L216.4,58.7 L216.3,58.2 L216.3,57.8 L216.3,57.8 L216.2,57.7 L216.1,57.6 L216.2,57.5 L216.3,57.2 L216.4,56.8 L216.4,56.6 L216.2,55.9 L216.2,55.1 L216.2,54.8 L216.1,54.7 L215.8,54.1 L215.2,53.4 L215.0,53.0 L214.9,52.8 L214.9,52.6 L214.8,52.1 L214.7,51.5 L214.7,51.1 L214.6,51.0 L214.5,50.6 L214.4,50.4 L214.3,50.3 L214.2,50.2 L213.7,50.0 L213.4,49.7 L213.0,49.4 L212.6,49.2 L211.6,49.1 L211.4,49.1 L210.8,49.2 L210.4,49.2 L210.0,49.1 L209.8,49.0 L209.8,49.0 L209.7,49.0 L209.6,48.9 L209.5,48.9 L209.3,48.7 L209.2,48.6 L209.1,48.5 L209.0,48.3 L208.9,48.1 L208.7,47.9 L208.3,47.7 L208.0,47.6 L207.8,47.5 L207.3,47.4 L207.2,47.3 L207.1,47.2 L206.9,46.7 L206.8,46.4 L206.6,46.3 L206.5,46.3 L206.4,46.3 L206.1,46.4 L205.8,46.5 L205.6,46.5 L205.0,46.5 L204.7,46.4 L204.2,46.3 L203.8,46.3 L203.8,46.2 L203.4,46.1 L203.3,46.0 L203.3,46.0 L203.5,45.8 L203.5,45.6 L203.5,45.4 L203.5,45.0 L203.5,44.9 L203.6,44.7 L204.3,43.7 L204.8,42.8 L205.0,42.4 L205.3,42.0 L205.7,41.6 L206.0,41.3 L206.4,40.9 L206.8,40.6 L207.2,40.4 L207.5,40.2 L207.6,40.0 L207.7,39.9 L207.7,39.8 L207.7,39.7 L207.6,39.7 L207.5,39.6 L207.2,39.7 L207.1,39.7 L206.7,39.5 L206.6,39.5 L206.5,39.5 L206.2,39.8 L206.0,40.0 L205.9,40.1 L205.9,40.0 L205.9,39.9 L205.9,39.9 L206.1,39.7 L206.3,39.5 L206.5,39.2 L206.6,39.1 L207.1,39.0 L207.4,38.9 L207.5,38.8 L207.7,38.6 L207.8,38.4 L207.9,38.1 L208.0,37.9 L208.1,37.6 L208.3,37.5 L208.4,37.5 L208.5,37.6 L208.7,37.9 L209.0,38.1 L209.3,38.3 L209.8,38.6 L210.1,38.8 L210.3,38.8 L210.4,38.8 L210.9,38.5 L211.3,38.2 L211.4,38.0 L211.5,37.9 L211.6,37.6 L211.7,37.3 L211.7,37.2 L211.7,37.0 L211.5,36.9 L211.3,36.6 L211.2,36.5 L211.2,36.4 L211.2,36.3 L211.2,36.1 L211.3,36.0 L211.4,36.0 L211.5,36.0 L212.5,36.2 L212.8,36.2 L213.0,36.1 L213.2,36.0 L213.5,35.7 L213.7,35.5 L213.9,35.2 L214.0,34.9 L214.1,34.6 L214.2,34.4 L214.5,34.0 L214.9,33.8 L215.2,33.6 L215.7,33.3 L216.1,33.0 L216.3,32.8 L216.4,32.7 L216.5,32.7 L216.8,32.6 L218.0,32.0 L218.2,31.9 L218.9,31.7 L219.5,31.7 L219.6,31.7 L219.8,31.6 L219.9,31.5 L219.9,31.3 L219.8,31.0 L219.8,30.9 L219.9,30.8 L219.9,30.8 L220.0,30.7 L220.1,30.8 L220.3,30.8 L220.4,30.8 L220.7,30.4 L220.8,30.2 L220.9,30.1 L220.8,29.9 L220.6,29.5 L220.5,29.4 L220.5,29.4 L220.6,29.3 L220.6,29.3 L220.8,29.3 L220.9,29.3 L221.0,29.2 L221.1,29.1 L221.1,29.1 L221.2,28.8 L221.2,28.5 L221.2,28.2 L221.2,28.0 L221.0,27.7 L221.0,27.6 L221.0,27.5 L221.1,27.5 L221.3,27.4 L221.5,27.3 L221.6,27.2 L221.6,26.9 L221.7,26.8 L221.8,26.8 L221.9,26.7 L222.0,26.7 L222.9,26.0 L223.2,25.8 L223.4,25.7 L224.0,25.5 L224.7,25.3 L225.3,25.1 L225.8,25.0 L227.0,24.7 L227.2,24.7 L227.6,24.8 L227.9,24.8 L228.1,24.8 L228.2,24.8 L228.3,24.8 L228.4,24.8 L228.4,24.7 L228.4,24.7 L228.6,24.6 L228.7,24.6 L228.9,24.5 L229.0,24.5 L229.3,24.5 L229.6,24.5 L229.7,24.5 L229.9,24.6 L230.0,24.6 L230.1,24.6 L230.2,24.6 L230.3,24.6 L230.6,24.7 L230.7,24.7 L230.8,24.6 L230.9,24.5 L231.1,24.4 L231.1,24.4 L231.2,24.4 L231.6,24.1 L231.7,24.1 L231.6,24.0 L231.4,23.7 L231.4,23.6 L231.3,23.4 L231.2,23.0 L231.1,22.8 L231.1,22.7 L231.0,22.5 L230.9,22.1 L230.9,22.0 L230.9,21.8 L230.9,21.4 L230.9,21.8 L230.9,22.0 L230.9,22.1 L231.0,22.5 L231.1,22.7 L231.1,22.8 L231.2,23.0 L231.3,23.4 L231.4,23.6 L231.4,23.7 L231.6,24.0 L231.7,24.1 L231.6,24.1 L231.2,24.4 L231.1,24.4 L231.1,24.4 L230.9,24.0 L230.8,23.9 L230.5,23.4 L230.4,23.3 L230.1,23.2 L230.0,23.1 L229.9,22.8 L229.8,22.6 L229.8,22.3 L229.7,22.3 L229.6,22.3 L229.1,22.5 L228.6,22.6 L228.5,22.6 L228.4,22.6 L228.3,22.5 L228.3,22.3 L228.3,22.3 L228.1,22.1 L227.9,22.0 L227.5,22.3 L227.0,22.7 L226.9,22.6 L226.7,22.5 L226.3,22.4 L226.0,22.4 L225.9,22.3 L225.8,22.2 L225.7,22.1 L225.6,21.9 L225.5,21.7 L225.1,21.3 L224.5,20.9 L224.3,20.8 L224.1,20.7 L224.0,20.7 L223.8,20.7 L223.5,20.8 L222.5,21.1 L222.2,21.1 L221.9,21.1 L221.5,21.1 L220.8,20.8 L220.4,20.8 L220.1,20.7 L220.0,20.5 L219.9,20.3 L219.7,20.2 L219.4,20.1 L218.7,19.7 L218.6,19.7 L218.2,19.8 L218.0,19.9 L217.5,20.1 L217.3,20.2 L217.2,20.3 L217.1,20.4 L216.9,20.4 L216.6,20.8 L216.4,21.0 L216.4,20.9 L216.4,20.8 L216.3,20.5 L215.8,20.2 L215.6,20.0 L215.4,20.0 L214.9,19.9 L214.7,19.8 L214.2,19.8 L214.0,19.7 L213.5,19.6 L213.2,19.5 L212.9,19.3 L212.6,19.1 L212.4,19.0 L212.4,18.9 L212.3,18.8 L212.4,18.7 L212.7,18.2 L212.6,18.1 L212.5,18.2 L212.4,18.2 L212.2,18.4 L212.1,18.5 L211.9,18.7 L211.7,18.8 L211.6,18.8 L211.1,18.6 L211.0,18.6 L210.5,18.6 L210.3,18.7 L210.0,18.8 L209.8,18.8 L209.6,18.8 L209.1,18.8 L208.9,18.8 L208.8,18.8 L208.3,19.1 L207.7,19.5 L207.7,19.5 L207.4,19.8 L207.0,20.3 L206.5,20.7 L206.3,20.6 L206.3,20.5 L206.2,20.4 L204.2,18.0 L204.0,17.7 L203.9,17.5 L203.6,16.9 L203.5,16.6 L203.4,16.5 L203.3,16.4 L203.1,16.3 L203.0,16.2 L202.6,16.2 L202.4,16.2 L201.8,16.3 L201.6,16.3 L201.5,16.3" fill="transparent" id="track" stroke="black" stroke-width="2"/>
<g>
<circle cx="200.826" cy="230.620" id="wp-281/circle" r="4.000"/>
<text font-size="16.0" id="wp-281/text" text-anchor="start" x="198.215" y="248.620">
K3
</text>
<circle cx="126.213" cy="282.411" fill="Gray" id="wp-1/circle" r="5.000"/>
<text font-size="16.0" id="wp-15/text" text-anchor="start" x="61.423" y="300.411">
Oppenau
</text>
<circle cx="250.454" cy="255.005" fill="Gray" id="wp-2/circle" r="5.000"/>
<text font-size="16.0" id="wp-16/text" text-anchor="start" x="254.917" y="268.005">
Baiersbronn
</text>
<circle cx="232.122" cy="23.942" fill="Gray" id="wp-3/circle" r="5.000"/>
<text font-size="16.0" id="wp-17/text" text-anchor="start" x="229.543" y="41.942">
Gernsbach
</text>
<circle cx="173.709" cy="338.558" fill="Blue" id="wp-4/circle" r="3.000"/>
<text font-size="16.0" id="wp-5/text" text-anchor="start" x="178.098" y="336.558">
Freiersberg
</text>
<circle cx="158.822" cy="174.397" fill="Blue" id="wp-5/circle" r="3.000"/>
<text font-size="16.0" id="wp-6/text" text-anchor="start" x="105.538" y="167.397">
Seibelseckle
</text>
<circle cx="192.925" cy="278.687" fill="Blue" id="wp-6/circle" r="3.000"/>
<text font-size="16.0" id="wp-7/text" text-anchor="start" x="196.915" y="286.687">
Alexanderschanze
</text>
<circle cx="161.127" cy="205.331" fill="Blue" id="wp-7/circle" r="3.000"/>
<text font-size="16.0" id="wp-8/text" text-anchor="start" x="96.221" y="223.331">
Ruhestein
</text>
<circle cx="210.412" cy="38.820" fill="Blue" id="wp-8/circle" r="3.000"/>
<text font-size="16.0" id="wp-9/text" text-anchor="end" x="203.412" y="36.820">
Nachtigall
</text>
<circle cx="221.032" cy="74.438" fill="Blue" id="wp-9/circle" r="3.000"/>
<text font-size="16.0" id="wp-10/text" text-anchor="start" x="142.127" y="92.438">
Rote Lache
</text>
<circle cx="149.173" cy="324.402" fill="Gray" id="wp-10/circle" r="3.000"/>
<text font-size="16.0" id="wp-3/text" text-anchor="start" x="54.731" y="342.402">
Bad Peterstal
</text>
<circle cx="244.268" cy="100.152" fill="Gray" id="wp-11/circle" r="3.000"/>
<text font-size="16.0" id="wp-4/text" text-anchor="start" x="247.531" y="98.152">
Forbach
</text>
</g>
<g/>
</svg>