<svg height="400" viewBox="(0, 0, 400, 400)" width="400" xmlns="http://www.w3.org/2000/svg">
<path d="M288.6,380.0 L288.6,379.9 L288.5,379.9 L288.3,379.9 L288.3,379.9 L288.0,379.9 L288.0,379.9 L287.9,379.9 L287.7,379.8 L287.5,379.6 L287.2,379.4 L287.0,379.2 L286.3,379.0 L286.3,379.0 L286.2,378.9 L286.1,378.8 L286.1,378.4 L286.1,378.2 L286.0,378.0 L285.8,377.9 L285.6,377.8 L285.4,377.7 L285.2,377.6 L285.1,377.4 L285.0,377.0 L285.0,376.8 L284.9,376.7 L284.8,376.5 L284.5,376.2 L284.4,376.1 L284.0,375.6 L283.6,375.2 L283.5,375.1 L283.4,374.8 L283.4,374.6 L283.3,374.3 L283.3,374.1 L283.4,373.8 L283.7,373.3 L283.9,372.8 L284.0,372.4 L284.0,372.1 L284.2,371.5 L284.2,371.3 L284.0,371.0 L283.9,370.8 L283.7,370.4 L283.6,370.0 L283.5,369.7 L283.2,366.7 L282.9,364.8 L282.8,364.0 L282.8,363.6 L282.6,362.8 L282.7,362.7 L282.7,362.6 L282.6,362.3 L282.3,361.7 L280.7,359.2 L280.6,359.2 L280.6,359.2 L280.2,358.9 L280.0,358.8 L279.6,358.2 L278.9,357.2 L278.6,357.0 L278.4,356.9 L278.3,356.7 L278.2,356.3 L278.1,356.1 L277.7,355.5 L277.5,355.1 L277.5,355.1 L277.4,355.0 L277.3,354.9 L277.4,354.8 L277.5,354.4 L277.5,354.3 L277.5,354.2 L277.5,354.1 L277.5,353.7 L277.5,353.6 L277.4,353.5 L277.3,353.6 L277.2,353.5 L277.1,353.3 L276.7,352.9 L276.4,352.5 L276.0,352.0 L275.9,351.9 L275.8,351.9 L275.6,352.0 L275.5,352.0 L275.3,351.9 L275.2,351.9 L274.7,351.3 L274.4,351.0 L274.3,350.9 L274.1,350.7 L273.8,350.6 L273.4,350.5 L273.0,350.4 L272.7,350.2 L272.6,350.1 L272.4,350.0 L272.2,349.8 L272.1,349.6 L272.0,349.5 L271.8,349.3 L271.7,349.0 L271.6,348.9 L271.6,348.7 L271.5,348.4 L271.5,348.3 L271.6,348.0 L271.6,347.9 L271.6,347.9 L271.7,347.8 L271.8,347.8 L271.9,347.8 L271.9,347.7 L272.1,347.5 L272.1,347.5 L271.9,347.3 L271.6,347.2 L271.3,347.2 L271.1,347.2 L270.9,347.2 L270.7,347.2 L270.5,347.3 L270.2,347.4 L269.4,348.0 L269.1,348.2 L268.9,348.2 L268.6,348.3 L267.9,348.4 L267.7,348.4 L267.4,348.4 L267.1,348.4 L266.8,348.3 L266.6,348.2 L264.5,347.0 L263.6,346.5 L262.8,346.2 L262.1,345.9 L261.6,345.6 L261.2,345.4 L260.9,345.0 L260.6,344.5 L260.5,344.1 L260.4,343.7 L260.3,343.4 L260.2,343.1 L260.0,342.9 L259.8,342.8 L259.6,342.6 L258.8,342.3 L258.3,342.0 L257.6,341.6 L256.9,340.9 L256.5,340.5 L256.1,339.8 L255.9,338.3 L255.8,337.8 L255.5,337.3 L255.2,337.0 L254.5,336.7 L253.9,336.4 L253.4,336.3 L252.9,336.1 L252.8,336.0 L252.3,335.7 L252.0,335.6 L250.9,335.5 L249.8,335.5 L249.2,335.6 L248.7,335.6 L248.4,335.6 L248.2,335.6 L247.9,335.4 L247.7,335.3 L247.4,334.9 L247.0,334.6 L246.8,334.6 L246.7,334.5 L246.4,334.6 L246.1,334.7 L245.5,335.2 L245.3,335.4 L245.1,335.6 L244.6,336.2 L244.5,336.3 L244.3,336.4 L244.1,336.5 L243.9,336.5 L243.8,336.5 L243.5,336.4 L241.7,335.4 L241.4,335.3 L241.3,335.2 L241.2,335.0 L241.1,334.8 L241.0,334.4 L240.9,334.1 L240.8,333.9 L240.7,333.8 L240.5,333.6 L240.3,333.4 L239.6,333.0 L238.9,332.5 L238.7,332.4 L238.5,332.3 L238.2,332.2 L237.3,332.1 L237.0,332.0 L236.4,331.9 L234.8,331.6 L234.4,331.5 L234.1,331.3 L233.7,331.0 L233.5,330.8 L233.2,330.6 L233.0,330.5 L231.6,329.9 L231.0,329.6 L230.7,329.4 L230.5,329.4 L230.3,329.2 L230.2,329.1 L230.1,329.1 L230.1,329.1 L230.0,329.0 L230.0,328.9 L229.9,328.7 L229.6,328.3 L229.4,327.9 L229.3,327.6 L229.3,327.4 L229.5,326.9 L229.6,326.7 L229.6,326.5 L229.6,326.3 L229.5,326.0 L229.5,325.5 L229.4,325.3 L229.3,325.0 L229.2,324.9 L228.7,324.5 L228.6,324.3 L228.6,324.2 L228.6,323.5 L228.5,323.4 L228.4,323.1 L228.2,322.8 L228.2,322.8 L228.1,322.7 L228.0,322.6 L227.0,321.9 L226.6,321.6 L226.5,321.5 L226.2,321.2 L226.1,321.0 L226.0,320.7 L225.9,320.4 L225.6,319.3 L225.2,318.0 L225.1,317.6 L224.9,317.6 L224.8,317.6 L224.6,317.6 L224.5,317.6 L224.3,317.6 L222.6,317.7 L222.5,317.7 L222.1,317.6 L221.8,317.5 L221.4,317.4 L221.1,317.4 L221.0,317.4 L220.3,317.3 L220.1,317.2 L220.0,317.1 L219.8,317.0 L219.2,316.7 L219.1,316.7 L218.7,316.5 L218.4,316.4 L218.2,316.4 L217.8,316.4 L217.7,316.4 L217.6,316.3 L217.2,316.2 L217.1,316.2 L216.9,316.0 L216.5,315.8 L216.3,315.7 L216.2,315.6 L215.5,315.2 L215.1,315.1 L214.7,315.0 L214.0,314.7 L213.9,314.6 L213.6,314.6 L213.0,314.5 L212.8,314.5 L212.8,314.5 L212.7,314.4 L212.6,314.3 L212.6,314.2 L212.6,314.0 L212.6,314.0 L212.5,313.9 L212.4,313.9 L212.3,313.9 L212.2,314.0 L212.1,314.0 L212.0,314.4 L211.9,314.5 L211.8,314.6 L211.6,314.6 L211.5,314.6 L211.3,314.6 L211.1,314.5 L210.9,314.5 L210.4,314.3 L210.0,314.1 L209.8,314.0 L208.7,313.5 L208.1,313.2 L207.7,313.1 L207.5,313.0 L207.2,313.0 L206.4,312.9 L205.9,312.8 L205.7,312.7 L205.5,312.6 L204.9,312.1 L204.7,312.0 L204.6,311.9 L204.1,311.9 L203.5,311.8 L203.2,311.7 L203.0,311.8 L202.7,311.8 L202.6,311.8 L202.3,311.8 L202.0,311.7 L201.1,311.6 L200.9,311.6 L200.2,311.5 L200.1,311.5 L200.1,311.5 L199.4,311.2 L199.2,311.1 L198.9,310.9 L198.8,310.8 L198.8,310.7 L198.7,310.6 L198.6,310.6 L198.3,310.5 L198.0,310.4 L197.5,310.4 L197.2,310.2 L196.9,310.2 L196.3,310.2 L196.0,310.2 L195.8,310.2 L195.4,310.1 L195.2,310.1 L194.9,310.0 L194.8,309.9 L194.6,309.9 L194.3,310.0 L194.0,310.0 L193.8,310.1 L193.6,310.3 L193.5,310.3 L193.1,310.3 L192.4,310.5 L192.2,310.5 L191.6,310.4 L191.5,310.4 L190.3,310.5 L189.8,310.5 L189.1,310.4 L188.9,310.4 L188.8,310.4 L188.6,310.3 L188.2,310.0 L188.0,310.0 L187.8,309.9 L187.1,309.9 L186.3,310.0 L185.9,309.9 L185.7,310.0 L185.3,310.2 L185.1,310.3 L184.9,310.4 L184.4,310.4 L183.9,310.5 L183.7,310.6 L183.3,310.5 L182.9,310.4 L182.2,310.2 L182.1,310.2 L182.0,310.2 L181.6,310.2 L181.3,310.1 L181.2,310.0 L181.0,309.9 L180.5,309.6 L179.9,309.2 L179.7,309.0 L179.5,308.7 L179.5,308.7 L179.4,308.6 L179.3,308.6 L179.1,308.6 L178.5,308.2 L178.3,308.2 L178.2,308.3 L178.1,308.3 L178.0,308.4 L178.0,308.5 L178.0,308.6 L178.1,308.7 L178.1,308.8 L178.5,309.0 L178.5,309.0 L178.6,309.1 L178.6,309.4 L178.7,309.5 L178.8,309.6 L178.8,309.7 L178.8,309.8 L178.8,309.8 L178.7,310.0 L178.7,310.3 L178.6,310.4 L178.6,310.5 L178.5,310.6 L177.6,311.1 L177.3,311.2 L176.8,311.4 L176.3,311.5 L176.1,311.5 L175.8,311.5 L175.6,311.4 L175.4,311.3 L175.0,311.3 L174.8,311.2 L174.0,310.9 L173.7,310.8 L173.4,310.6 L173.0,310.5 L172.1,310.3 L171.8,310.2 L171.5,310.2 L171.1,310.3 L170.9,310.4 L169.5,311.0 L168.7,311.3 L168.5,311.3 L168.3,311.2 L168.0,311.1 L167.6,310.8 L167.5,310.6 L167.3,310.4 L167.2,310.2 L167.2,310.1 L166.9,309.8 L166.2,308.9 L166.1,308.8 L165.8,308.0 L165.5,307.6 L165.5,307.6 L165.4,306.7 L165.3,306.0 L165.1,305.7 L164.8,305.0 L164.4,304.4 L164.2,304.1 L163.8,303.5 L163.8,303.4 L163.7,303.2 L163.6,302.6 L163.5,302.5 L163.5,302.4 L163.5,302.3 L163.3,302.0 L162.8,301.3 L161.9,299.9 L161.5,299.5 L161.4,299.5 L161.4,299.4 L161.3,299.3 L161.2,299.1 L161.2,298.9 L161.2,298.7 L161.2,297.4 L161.3,297.2 L161.4,296.9 L161.8,296.1 L161.8,296.0 L161.8,295.9 L161.7,295.7 L161.7,295.6 L161.7,295.6 L161.6,295.3 L161.7,295.2 L161.7,295.1 L161.8,295.1 L161.8,295.1 L161.9,295.1 L162.0,295.1 L162.1,295.1 L162.2,295.1 L162.3,295.1 L162.7,295.1 L163.3,295.0 L163.3,295.0 L163.8,294.9 L163.9,294.8 L164.0,294.8 L164.0,294.7 L164.2,294.6 L164.3,294.4 L164.3,294.4 L164.3,294.4 L164.4,294.3 L164.4,294.2 L164.5,294.1 L164.5,294.0 L164.6,293.9 L164.6,293.8 L164.7,293.8 L164.9,293.4 L165.1,293.1 L165.2,293.0 L165.4,292.9 L165.4,292.8 L165.7,292.6 L165.9,292.5 L166.1,292.4 L166.1,292.4 L166.2,292.4 L166.3,292.4 L166.4,292.4 L166.6,292.3 L166.7,292.3 L166.8,292.3 L166.8,292.2 L166.9,292.2 L167.1,292.1 L167.4,291.8 L167.5,291.7 L167.7,291.6 L168.0,291.4 L168.2,291.2 L168.5,291.0 L168.6,290.9 L168.6,290.8 L168.7,290.7 L168.6,290.6 L168.5,290.2 L168.4,290.0 L167.8,289.3 L167.9,289.2 L168.0,289.2 L168.2,289.2 L168.2,289.1 L168.5,289.1 L168.4,289.0 L168.4,288.8 L168.3,288.7 L168.3,288.7 L168.3,288.6 L168.3,288.5 L168.2,288.4 L168.2,288.4 L168.1,288.0 L168.0,287.8 L167.7,287.9 L167.5,288.0 L167.3,288.0 L167.3,288.2 L167.4,288.4 L167.4,288.4 L167.6,288.9 L167.9,288.7 L168.3,288.6 L168.3,288.5 L168.2,288.4 L168.2,288.4 L168.1,288.0 L168.0,287.8 L167.8,287.1 L167.5,287.2 L167.2,287.2 L167.3,287.6 L167.3,288.0 L167.3,288.2 L167.4,288.4 L167.4,288.4 L167.6,288.9 L167.9,288.7 L168.3,288.6 L168.3,288.5 L168.2,288.4 L168.2,288.4 L168.1,288.0 L168.0,287.8 L167.8,287.1 L167.5,287.2 L167.2,287.2 L167.2,286.9 L167.1,286.8 L167.0,286.8 L167.0,286.7 L166.9,286.5 L166.7,286.3 L166.6,286.3 L166.3,286.1 L166.2,286.0 L166.1,285.9 L165.8,285.3 L165.7,285.1 L165.4,284.8 L165.1,284.4 L165.0,284.3 L164.3,283.4 L164.3,283.3 L164.1,282.9 L163.9,282.6 L163.8,282.3 L163.7,281.8 L163.6,281.3 L163.5,280.7 L163.4,280.3 L163.4,280.3 L163.3,280.1 L163.2,280.0 L162.9,279.5 L162.2,278.5 L162.0,278.1 L161.9,277.8 L161.8,277.4 L161.7,277.1 L161.5,276.9 L161.2,276.6 L161.1,276.5 L161.0,276.5 L160.9,276.4 L160.8,276.2 L159.7,274.7 L159.5,274.3 L159.4,273.9 L159.3,273.6 L159.2,273.3 L158.2,271.5 L158.2,271.3 L157.7,270.3 L157.5,269.8 L157.1,268.0 L157.0,267.7 L157.0,267.6 L156.9,267.5 L156.8,267.1 L156.5,266.6 L156.2,266.2 L156.0,265.8 L155.7,265.3 L155.7,265.1 L155.5,264.9 L155.4,264.6 L155.3,264.4 L155.3,264.4 L155.3,264.1 L155.4,263.7 L155.5,263.3 L155.6,263.0 L155.8,262.8 L155.8,262.8 L155.7,262.5 L155.6,262.0 L155.5,261.7 L155.5,261.6 L155.0,261.1 L155.0,260.9 L154.9,260.8 L154.9,260.5 L154.9,260.3 L155.0,259.9 L154.9,259.8 L154.8,259.6 L154.7,259.5 L154.4,259.3 L154.3,259.2 L154.2,259.1 L154.2,258.9 L154.0,258.5 L153.7,258.0 L153.7,257.9 L153.7,257.7 L153.7,257.6 L153.9,257.3 L153.9,257.3 L153.9,257.2 L153.8,257.2 L153.6,257.0 L153.6,257.0 L153.6,256.9 L153.6,256.8 L153.7,256.4 L153.7,256.2 L153.7,256.1 L153.6,255.9 L153.3,255.5 L153.2,255.0 L153.1,254.7 L153.0,254.5 L152.8,254.2 L152.7,254.1 L152.6,254.0 L152.4,253.9 L152.3,253.8 L152.1,253.5 L152.0,253.4 L151.9,253.3 L152.0,253.2 L152.0,253.1 L152.3,252.7 L152.3,252.6 L152.4,252.4 L152.4,252.2 L152.4,252.0 L152.2,251.0 L152.1,250.2 L152.0,250.0 L152.0,249.6 L151.9,249.2 L151.8,248.2 L151.8,248.0 L151.8,247.9 L151.7,247.8 L151.7,247.6 L151.8,247.4 L152.1,247.0 L152.3,246.5 L152.6,245.9 L152.6,245.7 L152.5,244.8 L152.6,244.2 L152.7,244.0 L152.8,243.9 L152.8,243.8 L152.6,243.5 L152.5,243.3 L152.2,243.1 L152.0,243.0 L151.6,242.7 L151.4,242.5 L151.2,242.3 L151.0,242.0 L151.0,242.0 L151.0,241.9 L151.2,241.7 L151.2,241.6 L151.2,241.5 L151.1,241.3 L151.1,241.2 L151.1,241.1 L151.0,240.9 L150.9,240.7 L150.9,240.6 L150.9,240.5 L150.9,240.3 L150.9,240.2 L150.8,240.0 L150.6,239.8 L150.7,239.4 L150.7,239.2 L150.7,239.1 L150.5,238.8 L150.4,238.6 L150.2,238.4 L150.2,238.2 L150.2,238.1 L150.2,237.9 L150.2,237.6 L150.4,237.2 L150.4,237.1 L150.8,236.8 L151.2,236.4 L151.6,235.9 L151.9,235.6 L152.1,235.4 L152.2,235.3 L152.3,235.0 L152.4,234.8 L152.5,234.7 L152.9,234.4 L153.9,233.5 L154.9,232.9 L155.0,232.8 L155.1,232.7 L155.1,232.7 L155.1,232.5 L155.0,231.9 L155.0,231.6 L154.9,231.5 L154.9,231.3 L155.0,230.7 L155.0,230.4 L155.0,230.1 L154.9,230.0 L155.0,229.9 L155.1,229.7 L155.2,229.6 L155.2,229.6 L155.1,229.5 L155.0,229.4 L154.8,229.1 L154.7,229.0 L154.7,229.0 L154.8,228.9 L154.9,228.8 L155.0,228.7 L155.3,228.4 L155.6,228.2 L155.9,228.1 L156.5,227.7 L156.6,227.7 L156.8,227.6 L157.2,227.4 L157.3,227.3 L157.4,227.1 L157.4,226.9 L157.5,226.6 L157.6,226.4 L157.8,226.3 L157.9,226.1 L158.0,225.9 L158.1,225.8 L158.2,225.6 L158.3,225.6 L158.7,225.5 L158.8,225.4 L158.9,225.4 L160.1,224.1 L160.4,224.0 L160.8,223.8 L161.6,223.7 L161.8,223.6 L162.0,223.6 L162.1,223.6 L162.1,223.6 L162.5,223.3 L162.6,223.2 L163.0,223.1 L163.1,223.1 L163.4,223.1 L163.6,223.1 L163.6,223.1 L163.9,223.0 L163.9,222.9 L163.9,222.8 L163.7,222.1 L163.6,221.8 L163.5,221.6 L163.4,221.5 L163.3,221.4 L163.2,221.3 L162.9,221.3 L162.8,221.3 L162.7,221.1 L162.7,220.9 L162.6,220.8 L162.4,220.7 L162.3,220.6 L162.0,220.5 L161.8,220.4 L161.5,220.3 L161.1,220.1 L160.9,220.0 L160.6,219.9 L160.5,219.8 L160.4,219.7 L160.2,219.6 L160.0,219.5 L159.8,219.3 L159.6,219.2 L159.4,219.1 L158.9,219.0 L158.8,218.9 L158.7,218.9 L158.2,218.6 L158.0,218.5 L157.9,218.3 L157.5,217.7 L157.3,217.5 L157.2,217.3 L157.0,217.2 L156.7,217.1 L156.6,217.1 L156.3,217.2 L156.2,217.2 L156.1,217.4 L156.0,217.5 L156.0,217.6 L156.0,217.7 L156.0,217.8 L156.2,218.1 L156.2,218.3 L156.2,218.4 L156.2,218.5 L156.1,218.6 L156.0,218.6 L154.9,219.2 L154.8,219.3 L154.7,219.4 L154.6,219.5 L154.5,220.0 L154.4,220.1 L154.0,220.5 L153.7,220.8 L153.6,220.8 L153.2,221.0 L152.7,221.1 L152.6,221.1 L152.2,221.2 L151.9,221.3 L151.5,221.5 L151.1,221.8 L150.9,222.1 L150.7,222.3 L150.6,222.6 L150.3,223.4 L150.2,223.6 L149.9,224.0 L149.6,224.3 L149.0,224.8 L148.9,224.9 L148.8,225.0 L148.7,225.1 L148.7,225.2 L148.7,225.2 L148.7,225.4 L148.7,225.5 L148.8,225.6 L148.9,225.7 L149.0,225.8 L149.1,225.9 L149.2,226.0 L149.3,226.2 L149.4,226.4 L149.4,226.6 L149.3,226.8 L149.3,226.8 L149.3,226.9 L149.2,227.1 L149.0,227.2 L148.8,227.3 L148.6,227.3 L148.2,227.3 L148.0,227.3 L147.8,227.4 L147.6,227.5 L147.4,227.6 L147.3,227.8 L147.2,228.0 L147.1,228.3 L147.0,228.5 L146.6,229.0 L146.5,229.2 L146.5,229.5 L146.6,230.2 L146.6,230.5 L146.7,230.7 L146.9,231.4 L147.0,231.5 L147.0,231.6 L146.9,231.7 L146.9,231.8 L146.8,231.8 L146.7,231.8 L146.6,231.8 L146.2,231.8 L145.9,231.5 L145.8,231.5 L145.7,231.5 L145.7,231.5 L145.6,231.5 L145.6,231.6 L145.2,232.2 L145.1,232.5 L144.8,232.7 L144.6,233.2 L144.5,233.3 L144.4,233.3 L144.3,233.2 L144.3,233.2 L144.2,233.1 L144.3,233.0 L144.4,232.9 L144.6,232.7 L144.8,232.6 L144.9,232.5 L145.0,232.3 L145.1,232.1 L145.1,231.9 L145.2,231.3 L145.3,231.2 L145.3,231.0 L145.4,230.9 L145.6,230.6 L145.7,230.5 L145.7,230.3 L145.6,230.0 L145.2,229.1 L145.2,228.8 L145.2,228.7 L145.3,228.4 L145.5,227.9 L145.5,227.6 L145.6,226.8 L145.6,226.1 L145.6,225.5 L145.6,225.1 L145.4,224.3 L145.3,224.1 L145.3,223.9 L145.4,223.7 L145.8,222.9 L145.9,222.2 L146.1,221.8 L146.2,221.5 L146.2,221.4 L146.0,220.4 L145.9,220.0 L145.8,219.4 L145.7,219.3 L145.5,219.1 L145.3,218.9 L145.1,218.8 L145.1,218.7 L145.0,218.5 L145.1,218.3 L145.2,217.9 L145.3,217.7 L145.3,217.6 L145.2,217.5 L145.0,217.1 L144.9,217.0 L144.9,216.9 L144.9,216.7 L144.9,216.5 L145.0,216.4 L145.1,216.3 L145.3,216.1 L145.4,215.8 L145.6,215.5 L145.6,215.3 L145.6,215.2 L145.6,215.0 L145.5,214.9 L145.4,214.7 L145.3,214.5 L145.2,214.2 L145.3,214.1 L145.3,214.0 L145.6,213.7 L145.6,213.6 L145.7,213.4 L145.7,212.9 L145.7,212.0 L145.7,211.8 L145.8,211.3 L145.8,211.2 L145.8,211.0 L145.7,210.9 L145.6,210.8 L145.3,210.4 L144.9,210.1 L144.8,209.9 L144.8,209.8 L144.9,209.5 L145.0,209.3 L145.0,209.2 L145.1,209.1 L145.5,208.8 L145.6,208.7 L145.7,208.4 L145.8,208.2 L145.7,207.9 L145.7,207.8 L145.6,207.7 L145.4,207.4 L145.3,207.1 L145.2,206.6 L145.1,205.8 L145.1,205.3 L145.1,205.1 L145.1,205.0 L145.2,204.5 L145.3,204.3 L145.3,204.0 L145.3,203.7 L145.5,203.2 L145.6,202.9 L145.6,202.7 L145.7,202.5 L145.8,202.1 L145.8,201.8 L145.7,201.5 L145.5,200.8 L145.5,200.5 L145.4,200.3 L145.4,200.3 L145.3,200.2 L145.2,200.0 L145.1,199.9 L145.1,199.9 L145.0,199.8 L145.0,199.4 L144.9,199.0 L145.0,198.8 L145.0,198.7 L145.1,198.6 L145.3,198.3 L145.4,198.2 L145.5,198.1 L145.5,197.5 L145.5,197.4 L145.6,197.3 L145.6,197.2 L145.7,197.2 L145.8,197.1 L146.0,196.8 L146.1,196.6 L146.1,196.4 L146.1,196.1 L146.1,195.6 L146.2,195.4 L146.2,195.4 L146.1,195.2 L146.1,195.2 L146.0,195.1 L145.7,195.0 L145.7,195.0 L145.7,195.0 L145.6,195.0 L145.6,195.0 L145.6,195.0 L145.6,194.9 L145.6,194.9 L145.6,194.9 L145.6,194.7 L145.6,194.6 L145.7,194.5 L146.3,194.0 L146.5,193.8 L146.5,193.7 L146.5,193.5 L146.3,192.7 L146.3,192.3 L146.3,192.2 L146.4,192.0 L146.5,191.7 L146.6,191.5 L146.7,191.1 L146.7,190.6 L146.6,190.1 L146.6,189.9 L146.5,189.7 L146.4,189.5 L146.2,189.2 L146.2,189.2 L146.1,189.0 L146.0,188.9 L145.9,188.7 L145.9,188.5 L145.9,188.5 L145.9,188.1 L145.9,187.8 L146.0,187.7 L146.3,187.3 L146.5,187.0 L146.6,186.8 L146.8,185.8 L146.9,185.5 L146.9,185.3 L146.8,185.2 L146.8,185.1 L146.7,184.9 L146.5,184.7 L146.4,184.6 L146.3,184.6 L146.3,184.5 L146.2,184.4 L146.2,184.2 L146.3,184.0 L146.5,183.3 L146.6,182.9 L146.6,182.7 L146.6,182.5 L146.6,182.1 L146.5,181.8 L146.3,181.3 L146.2,181.2 L146.2,181.1 L146.2,180.9 L146.2,180.6 L146.3,180.5 L146.4,180.3 L146.7,179.7 L146.7,179.4 L146.8,179.2 L146.7,179.0 L146.8,178.7 L146.8,178.4 L146.7,178.2 L146.7,177.9 L146.7,177.7 L146.6,177.5 L146.6,177.4 L146.6,177.2 L146.5,177.2 L146.5,177.1 L146.5,177.0 L146.4,176.8 L146.2,176.6 L146.0,176.4 L145.9,176.4 L145.9,176.4 L145.9,176.4 L145.8,176.3 L145.8,176.3 L145.7,176.3 L145.6,176.2 L145.4,176.2 L145.1,176.1 L145.0,176.0 L144.8,176.0 L144.7,175.9 L144.5,175.6 L144.0,175.0 L143.8,174.7 L143.7,174.6 L143.4,174.1 L143.2,173.9 L143.2,173.8 L143.0,173.6 L142.7,173.3 L142.6,173.2 L142.5,173.2 L142.4,173.0 L141.9,172.5 L141.8,172.3 L141.6,172.1 L141.5,172.0 L141.3,171.9 L141.1,171.8 L140.8,171.7 L140.4,171.5 L140.3,171.5 L140.0,171.3 L139.9,171.2 L139.6,171.1 L139.4,171.0 L139.3,171.0 L139.2,171.0 L138.9,171.0 L138.7,170.9 L138.6,170.9 L138.3,170.6 L138.1,170.5 L138.0,170.5 L137.7,170.4 L137.6,170.4 L137.6,170.2 L137.5,170.1 L137.4,170.1 L137.3,170.1 L137.4,169.9 L137.4,169.7 L137.4,169.6 L137.4,169.6 L137.3,169.4 L137.2,169.1 L137.2,169.0 L137.5,168.5 L137.6,168.5 L137.7,168.1 L138.0,167.6 L138.3,167.2 L138.8,166.7 L138.9,166.5 L139.3,165.7 L139.4,165.2 L139.5,165.1 L139.9,164.7 L140.1,164.5 L140.4,163.9 L140.6,163.5 L140.8,163.3 L141.3,162.8 L141.8,162.3 L142.0,162.1 L142.5,161.1 L142.6,161.1 L142.7,161.0 L143.0,160.8 L143.4,160.6 L143.6,160.5 L144.3,160.4 L144.6,160.3 L144.9,160.1 L145.4,159.8 L146.1,159.6 L145.9,159.4 L146.0,159.3 L146.1,159.2 L146.2,159.2 L146.4,159.1 L146.5,159.1 L146.7,159.0 L146.9,158.9 L147.0,158.8 L147.1,158.7 L147.4,158.5 L147.8,158.2 L147.9,157.9 L148.2,157.6 L148.6,157.3 L148.8,157.1 L148.8,157.1 L148.9,157.0 L148.8,156.9 L149.0,156.9 L149.1,156.8 L149.3,156.8 L149.4,156.7 L149.4,156.7 L149.4,156.6 L149.4,156.4 L149.4,156.2 L149.4,155.8 L149.4,155.6 L149.3,155.5 L149.1,155.2 L149.0,155.2 L149.1,155.1 L149.2,154.9 L149.3,154.7 L149.3,154.2 L149.3,153.8 L149.3,153.5 L149.3,153.4 L149.4,153.4 L149.4,153.4 L149.5,153.4 L149.6,153.4 L149.8,153.6 L149.8,153.6 L149.9,153.6 L149.9,153.5 L150.3,152.9 L150.7,152.3 L150.7,152.2 L150.7,152.1 L150.4,151.9 L150.2,151.7 L150.1,151.5 L150.0,151.4 L150.0,151.2 L149.8,151.0 L149.7,150.9 L149.7,150.8 L149.4,150.5 L149.0,150.0 L148.9,149.8 L148.5,149.4 L148.3,149.2 L148.0,148.9 L147.9,148.9 L147.5,148.7 L147.4,148.6 L147.2,148.4 L147.1,148.3 L146.7,148.3 L146.5,148.3 L146.2,148.2 L145.8,148.2 L145.5,148.2 L145.3,148.1 L145.1,148.1 L145.0,147.9 L144.7,147.6 L144.7,147.6 L144.6,147.6 L144.0,147.5 L143.6,147.6 L143.4,147.5 L142.5,147.4 L142.4,147.5 L142.2,147.6 L142.1,147.6 L141.8,147.6 L141.6,147.6 L141.5,147.6 L141.3,147.7 L140.8,147.8 L140.5,147.8 L140.1,147.9 L140.0,147.8 L139.7,147.7 L139.6,147.7 L139.4,147.5 L139.2,147.4 L139.1,147.4 L139.0,147.4 L137.9,147.4 L137.1,147.4 L136.9,147.4 L136.7,147.5 L136.6,147.5 L136.5,147.5 L135.6,147.2 L135.2,147.1 L134.9,146.9 L134.8,146.8 L134.5,146.6 L133.9,146.0 L133.8,145.9 L133.7,145.8 L133.6,145.7 L133.4,145.5 L133.3,145.4 L133.0,145.2 L132.8,145.2 L132.5,145.2 L132.4,145.1 L132.0,144.9 L131.9,144.8 L131.5,144.7 L131.1,144.6 L130.7,144.5 L130.6,144.4 L130.3,144.2 L130.0,144.1 L129.9,144.1 L129.6,143.8 L129.4,143.7 L128.8,143.4 L128.5,143.3 L128.3,143.2 L128.0,143.0 L127.9,142.9 L127.6,142.8 L127.5,142.8 L126.6,142.4 L126.4,142.2 L126.2,142.1 L126.1,142.0 L126.1,141.9 L125.9,141.8 L125.5,141.5 L125.0,141.3 L124.8,141.2 L124.4,141.1 L123.8,141.0 L123.7,141.0 L123.4,140.9 L123.2,140.8 L123.1,140.8 L122.9,140.8 L122.9,140.8 L122.8,140.8 L122.7,141.0 L122.4,141.1 L122.2,141.1 L121.9,141.1 L121.9,141.0 L121.7,141.0 L121.7,140.8 L121.6,140.4 L121.5,140.2 L121.4,140.1 L121.2,139.9 L121.1,139.8 L121.0,139.7 L121.0,139.6 L121.0,139.4 L120.9,139.2 L120.9,139.1 L120.7,138.9 L120.5,138.8 L120.4,138.6 L120.3,138.5 L120.2,138.4 L120.1,138.3 L120.1,138.2 L120.0,138.1 L119.9,138.0 L119.9,137.9 L119.8,137.9 L119.8,137.8 L119.7,137.6 L119.5,137.1 L119.3,137.0 L119.1,136.7 L118.4,136.0 L118.3,135.8 L118.0,135.3 L118.0,135.3 L117.9,135.2 L117.6,135.0 L117.5,134.9 L117.4,134.8 L117.4,134.7 L117.5,134.3 L117.4,134.1 L117.2,133.6 L117.0,133.2 L116.8,133.0 L116.6,132.7 L116.0,132.0 L115.8,131.8 L115.6,131.5 L115.4,131.3 L115.2,130.8 L114.8,130.2 L114.2,129.7 L113.6,129.0 L113.5,128.9 L112.2,127.0 L112.2,127.0 L112.2,127.0 L112.1,126.8 L112.0,126.6 L111.7,125.7 L111.6,125.6 L111.6,125.1 L111.6,125.0 L111.5,125.0 L111.6,125.0 L111.6,124.9 L111.6,124.4 L111.5,123.6 L111.5,123.4 L111.5,123.1 L111.4,123.0 L111.4,122.9 L111.4,122.8 L111.4,122.7 L111.4,122.4 L111.5,122.2 L111.6,121.9 L111.6,121.7 L111.7,121.5 L111.7,121.4 L112.4,121.5 L112.8,121.6 L112.9,121.6 L113.2,121.7 L113.4,121.8 L113.5,121.9 L113.6,121.9 L113.7,121.9 L113.8,121.9 L114.0,121.9 L114.1,121.9 L114.1,121.9 L114.3,121.9 L114.3,121.7 L114.4,121.3 L114.6,121.3 L114.7,121.3 L114.7,121.4 L114.7,121.8 L115.0,121.7 L115.5,121.8 L115.9,121.7 L116.7,121.6 L118.0,121.3 L119.1,120.9 L119.7,120.9 L120.5,120.8 L120.5,120.8 L122.0,120.0 L122.1,120.0 L122.1,119.9 L121.9,119.4 L121.9,119.3 L122.3,119.1 L122.4,118.1 L122.4,117.8 L122.4,117.6 L122.2,117.1 L122.2,117.0 L121.9,116.5 L121.9,116.4 L121.8,116.2 L121.8,116.2 L121.8,115.9 L121.7,115.8 L121.9,115.7 L122.1,115.6 L122.3,115.4 L122.6,115.1 L122.9,115.0 L123.1,114.9 L123.5,114.9 L123.6,114.9 L123.7,114.9 L123.9,114.9 L124.1,114.9 L124.3,115.0 L124.5,115.1 L124.6,115.1 L124.6,115.2 L124.9,115.3 L125.1,115.4 L125.3,115.5 L125.5,115.5 L125.6,115.5 L125.7,115.5 L126.9,115.5 L127.3,115.5 L127.6,115.5 L127.9,115.4 L128.2,115.2 L128.4,115.0 L128.5,114.9 L128.5,114.8 L128.6,114.4 L128.6,114.2 L128.7,114.1 L128.7,114.0 L128.8,114.0 L128.8,113.9 L129.0,113.7 L129.2,113.5 L129.4,113.1 L129.4,112.7 L129.3,112.3 L129.3,112.0 L129.2,111.7 L129.2,111.0 L129.2,110.6 L129.2,110.4 L129.2,110.2 L129.2,109.9 L129.2,109.2 L129.3,108.9 L129.3,108.5 L129.4,108.1 L129.5,107.9 L129.6,107.7 L129.7,107.6 L129.6,107.4 L129.5,107.1 L129.5,106.9 L129.5,106.6 L129.6,106.3 L129.7,105.6 L129.8,105.6 L129.8,105.4 L129.8,105.2 L129.9,104.5 L129.8,104.4 L129.6,103.7 L129.2,103.3 L128.8,102.9 L128.7,102.7 L128.7,102.6 L128.5,102.1 L128.2,100.9 L128.1,100.8 L128.0,100.6 L127.5,98.8 L127.4,98.6 L127.0,98.2 L126.4,97.8 L126.3,97.7 L126.1,97.5 L125.9,96.8 L125.8,96.4 L125.7,96.1 L125.6,95.9 L125.4,95.5 L125.1,95.2 L124.8,94.9 L124.6,94.6 L124.5,94.3 L124.4,94.2 L124.3,94.2 L123.4,93.4 L123.3,93.2 L123.2,93.0 L123.2,92.6 L123.1,92.1 L123.1,92.0 L122.8,91.6 L122.8,91.5 L122.8,91.4 L122.8,91.3 L123.0,91.0 L123.2,90.6 L123.2,90.5 L123.2,90.4 L123.2,90.2 L123.2,90.0 L123.4,89.4 L123.4,89.0 L123.4,88.9 L123.4,88.6 L123.2,88.0 L123.2,87.9 L123.3,87.7 L123.8,86.9 L124.1,86.5 L124.2,86.3 L124.4,86.0 L124.5,85.9 L124.5,85.9 L124.6,86.0 L124.6,86.0 L124.6,86.0 L124.7,86.2 L124.7,86.3 L124.8,86.3 L124.9,86.3 L125.0,86.3 L125.0,86.4 L125.0,86.5 L125.0,86.6 L125.1,86.7 L125.2,86.8 L125.5,86.9 L125.7,87.0 L125.8,87.2 L125.8,87.4 L125.9,87.5 L125.9,87.5 L126.0,87.4 L125.9,87.0 L125.9,86.8 L125.9,86.6 L126.8,86.3 L126.9,86.1 L126.8,86.0 L126.7,85.8 L126.4,85.5 L126.3,85.2 L126.1,84.9 L126.1,84.7 L126.2,84.3 L126.3,84.1 L126.2,84.0 L125.8,83.6 L125.8,83.5 L125.8,83.1 L125.6,82.7 L125.5,82.6 L125.4,82.2 L125.2,81.7 L125.2,81.6 L125.5,81.6 L125.8,81.4 L126.7,81.2 L127.2,80.8 L127.3,80.6 L127.5,80.5 L127.6,80.4 L127.7,80.2 L127.7,80.1 L127.8,79.8 L127.9,79.3 L127.8,78.8 L127.8,78.5 L127.8,78.3 L127.8,77.9 L127.8,77.6 L127.8,77.4 L127.8,77.4 L127.7,77.1 L127.8,76.9 L128.3,76.7 L128.4,76.6 L128.7,76.3 L128.7,76.2 L128.9,76.1 L129.1,76.0 L129.7,75.9 L129.8,75.9 L130.1,75.9 L130.2,75.9 L130.5,76.1 L130.6,76.1 L130.7,76.1 L130.8,76.1 L130.8,76.0 L130.9,75.7 L130.8,75.4 L130.8,75.2 L130.7,75.1 L130.0,74.4 L129.8,74.3 L129.6,74.2 L129.5,74.1 L129.3,74.1 L129.2,74.0 L129.0,73.9 L128.9,73.9 L128.9,73.7 L128.9,73.6 L128.9,73.5 L129.1,73.3 L129.3,73.3 L129.9,73.1 L130.3,72.9 L131.2,72.8 L131.4,72.7 L131.5,72.7 L131.5,72.6 L131.6,72.7 L132.3,73.1 L132.5,73.1 L132.8,73.0 L133.2,73.0 L133.6,73.0 L133.8,73.1 L134.1,73.2 L134.5,73.6 L134.6,73.7 L134.6,73.8 L134.6,74.2 L134.7,74.5 L134.8,74.7 L134.9,74.8 L134.9,74.8 L135.0,74.8 L135.0,74.7 L135.1,74.4 L135.2,74.3 L135.4,74.3 L136.0,74.0 L136.2,73.9 L136.3,73.9 L136.4,73.9 L136.7,74.0 L136.8,74.0 L136.8,74.0 L136.9,74.0 L137.1,73.7 L137.3,73.6 L137.3,73.4 L137.3,73.3 L137.3,72.9 L137.4,72.8 L137.5,72.5 L137.6,72.3 L137.7,72.2 L137.8,72.2 L137.9,72.2 L138.2,72.1 L138.3,72.1 L138.5,72.0 L138.9,72.5 L139.1,72.7 L139.4,72.8 L139.6,72.9 L139.7,73.1 L139.7,73.3 L139.7,73.5 L139.7,74.1 L139.8,74.2 L139.9,74.4 L140.1,74.6 L140.3,74.7 L140.5,74.7 L140.9,74.6 L141.1,74.5 L141.7,74.4 L142.4,74.1 L142.5,74.0 L142.6,73.9 L143.0,73.5 L143.2,73.2 L144.2,72.0 L144.8,71.5 L145.0,71.3 L145.3,70.7 L145.4,70.0 L145.5,70.0 L145.6,69.9 L145.8,69.9 L146.1,69.8 L146.3,69.6 L146.4,69.6 L146.6,69.5 L146.6,69.5 L146.7,69.5 L146.8,69.5 L146.9,69.6 L147.0,69.8 L147.1,70.2 L147.2,70.4 L147.2,70.4 L147.6,70.6 L147.9,70.6 L148.1,70.6 L148.5,70.2 L148.7,70.0 L148.9,69.9 L149.1,69.8 L149.2,69.7 L149.3,69.5 L149.3,69.4 L149.2,68.0 L149.2,67.3 L149.2,66.7 L149.3,66.3 L149.4,66.1 L149.6,65.8 L149.9,65.4 L150.2,65.2 L150.4,65.2 L150.7,65.1 L150.9,65.1 L151.1,65.1 L151.4,65.2 L151.6,65.2 L152.0,65.3 L152.2,65.2 L152.5,65.2 L152.7,64.5 L152.7,64.2 L152.7,64.0 L152.7,63.7 L152.7,63.5 L152.7,63.3 L153.1,62.7 L154.0,61.8 L154.6,61.6 L155.0,61.4 L155.2,61.3 L155.4,61.3 L155.5,61.4 L156.0,61.5 L156.3,61.6 L156.4,61.7 L156.4,61.9 L156.4,62.2 L156.2,62.4 L156.2,62.6 L156.0,62.8 L156.0,62.9 L156.0,63.0 L156.1,63.1 L156.2,63.2 L156.8,63.5 L156.9,63.6 L157.8,63.6 L158.0,63.6 L158.0,63.5 L158.1,63.4 L157.9,63.1 L158.0,62.8 L157.9,62.7 L157.8,62.6 L157.8,62.4 L157.9,62.1 L158.1,61.8 L158.1,61.7 L158.0,61.5 L158.1,61.3 L158.1,61.1 L158.2,61.1 L158.7,61.3 L158.8,61.3 L159.0,61.5 L159.2,61.6 L159.3,61.6 L159.5,61.6 L159.8,61.7 L160.0,61.7 L160.3,61.7 L160.6,61.7 L161.2,61.8 L161.6,61.9 L161.7,61.8 L161.9,61.7 L162.1,61.6 L162.2,61.6 L162.3,61.7 L162.3,61.8 L162.2,61.9 L162.0,62.1 L161.6,62.3 L161.5,62.4 L161.3,62.5 L161.1,62.5 L160.7,62.6 L160.6,62.6 L160.6,62.7 L160.6,62.8 L160.6,62.8 L160.7,62.9 L160.8,62.8 L161.2,62.9 L161.6,62.9 L161.9,62.9 L162.1,62.8 L162.7,62.5 L163.2,62.5 L163.4,62.5 L164.0,62.4 L164.1,62.4 L164.2,62.5 L164.4,62.7 L164.9,62.9 L165.2,63.1 L165.4,63.1 L165.8,63.1 L166.0,63.1 L166.1,63.1 L166.4,63.3 L166.8,63.6 L166.8,63.7 L167.1,63.9 L167.4,64.2 L167.7,64.4 L168.0,64.5 L168.6,64.7 L168.9,64.9 L169.1,65.1 L169.2,65.2 L169.4,65.5 L169.8,65.6 L170.3,65.8 L170.8,66.0 L171.7,66.2 L171.8,66.3 L172.0,66.5 L172.2,66.7 L172.2,66.7 L172.4,66.8 L173.3,67.5 L174.1,67.8 L174.2,67.8 L174.4,67.8 L174.5,67.8 L175.0,67.8 L175.3,67.9 L175.4,67.9 L175.4,67.9 L175.5,67.9 L175.5,67.9 L175.7,68.2 L175.8,68.3 L175.8,68.5 L175.8,68.6 L175.9,68.7 L176.1,69.0 L176.5,69.6 L176.6,69.7 L176.7,69.9 L176.7,70.1 L176.6,70.4 L176.6,70.5 L176.7,70.7 L176.8,70.8 L176.9,70.9 L177.1,71.1 L177.3,71.3 L177.4,71.4 L177.4,71.5 L177.5,71.7 L177.5,71.9 L177.6,72.1 L177.9,72.4 L177.9,72.6 L178.2,72.9 L178.3,72.9 L178.4,73.0 L178.4,73.1 L178.5,73.1 L178.8,73.2 L179.1,73.3 L179.5,73.3 L179.6,73.3 L179.8,73.3 L179.9,73.2 L180.1,73.1 L180.3,73.0 L180.4,72.9 L180.6,72.6 L180.7,72.5 L181.0,71.9 L181.1,71.8 L181.5,71.8 L181.6,71.7 L181.7,71.7 L181.9,71.5 L182.2,71.0 L182.7,70.5 L183.0,70.2 L183.2,70.0 L183.4,69.9 L183.8,69.8 L183.9,69.8 L184.1,69.7 L184.4,69.3 L184.8,69.0 L185.0,68.8 L185.1,68.5 L185.2,68.3 L185.3,68.1 L186.2,67.1 L186.3,67.0 L186.4,66.9 L186.5,66.7 L186.6,66.6 L186.7,66.5 L187.0,66.4 L187.3,66.4 L187.5,66.3 L187.7,66.2 L188.1,65.9 L188.2,65.9 L188.4,65.9 L188.6,65.9 L188.8,65.9 L189.3,66.0 L189.5,66.1 L189.6,66.1 L189.9,66.2 L190.4,66.3 L190.5,66.3 L190.8,66.3 L191.0,66.3 L192.0,66.0 L192.1,65.9 L192.4,65.8 L192.8,65.5 L193.4,64.9 L193.7,64.6 L194.0,64.5 L194.5,64.2 L194.8,64.1 L194.9,64.0 L195.0,63.9 L195.4,63.4 L195.6,63.3 L195.8,63.2 L196.0,63.1 L196.2,63.1 L196.7,63.1 L196.8,63.1 L197.4,63.2 L197.7,63.1 L197.9,63.1 L198.1,62.9 L198.1,62.8 L198.4,62.4 L198.6,62.2 L198.7,62.2 L198.7,62.1 L198.9,62.0 L199.7,61.5 L199.7,61.5 L199.8,61.4 L199.9,61.4 L200.5,61.0 L200.7,60.9 L200.9,60.7 L201.7,59.7 L201.8,59.6 L201.9,59.5 L202.3,59.1 L202.4,59.1 L202.4,58.9 L202.5,58.8 L202.6,58.6 L202.8,58.5 L203.2,58.2 L203.4,57.9 L203.6,57.7 L203.8,57.3 L204.3,56.6 L204.5,56.4 L204.8,56.1 L205.1,56.0 L205.3,55.9 L205.4,55.8 L205.6,55.6 L205.6,55.5 L205.8,55.2 L205.8,55.0 L205.8,54.9 L205.7,54.7 L205.5,54.4 L205.5,54.3 L205.5,54.1 L205.5,54.0 L205.5,53.8 L205.6,53.5 L205.8,53.3 L206.0,53.2 L206.3,53.1 L206.6,52.9 L206.8,52.7 L206.8,52.6 L206.8,52.6 L206.9,52.4 L206.9,52.3 L206.9,52.1 L206.9,52.0 L206.9,51.8 L206.3,51.9 L206.2,51.9 L205.9,51.9 L205.2,51.8 L205.0,51.7 L204.9,51.7 L204.9,51.6 L204.7,51.4 L204.1,51.0 L203.9,50.9 L203.7,50.4 L203.5,50.2 L202.4,49.3 L202.1,49.1 L202.0,49.0 L201.9,48.8 L201.9,48.7 L202.0,48.4 L202.1,48.3 L202.5,48.0 L202.5,48.0 L202.6,47.9 L202.6,47.8 L202.5,47.8 L202.4,47.6 L202.2,47.5 L201.8,47.0 L201.5,46.7 L201.3,46.5 L201.2,46.4 L201.2,46.2 L201.3,46.0 L201.3,45.9 L201.2,45.8 L201.0,45.6 L200.9,45.5 L200.9,45.4 L200.9,45.2 L200.9,45.0 L201.2,44.6 L201.2,44.5 L201.2,44.4 L201.1,44.0 L201.1,44.0 L201.1,43.9 L201.1,43.9 L201.0,43.7 L200.9,43.6 L200.9,43.5 L201.1,43.2 L201.1,43.1 L201.1,42.8 L201.1,42.7 L201.0,42.6 L201.0,42.6 L200.8,42.5 L200.8,42.5 L200.5,42.3 L200.4,42.2 L200.4,42.2 L200.1,41.4 L200.1,41.3 L200.1,41.2 L200.1,40.9 L200.2,40.7 L200.3,40.6 L200.5,40.4 L200.5,40.3 L200.6,40.0 L200.8,39.6 L200.8,39.4 L200.8,39.2 L200.9,38.9 L200.9,38.6 L200.9,38.3 L201.0,38.0 L201.1,37.3 L201.1,37.1 L201.1,37.0 L201.0,36.9 L201.0,36.8 L200.7,36.8 L200.6,36.7 L200.5,36.6 L200.4,36.1 L200.4,36.0 L200.3,35.9 L200.3,35.9 L200.1,35.9 L199.9,35.9 L199.8,35.9 L199.5,35.8 L199.4,35.7 L199.3,35.5 L199.2,35.3 L199.1,35.2 L199.0,35.1 L198.9,35.1 L198.7,35.0 L198.3,35.0 L198.1,35.0 L197.9,35.0 L197.6,34.8 L197.5,34.8 L197.5,34.8 L197.4,34.8 L197.4,34.7 L197.3,34.6 L197.2,34.2 L197.1,33.8 L197.0,33.7 L196.6,33.5 L196.2,33.0 L196.0,32.7 L195.8,32.5 L195.5,32.0 L195.3,31.8 L195.3,31.6 L195.3,31.1 L195.3,30.9 L195.1,30.4 L195.0,29.6 L194.8,29.1 L194.8,28.7 L194.7,28.5 L194.7,28.4 L194.7,28.4 L194.7,28.3 L195.0,27.7 L195.1,27.5 L195.1,27.0 L195.3,26.3 L195.3,26.2 L195.2,26.2 L195.1,26.2 L195.1,26.2 L195.1,26.3 L195.1,26.6 L194.9,26.9 L194.9,27.2 L194.9,27.2 L194.6,27.6 L194.5,27.8 L194.4,27.9 L194.4,27.9 L194.2,27.9 L194.1,27.7 L193.8,27.6 L193.5,27.5 L192.8,27.5 L192.7,27.4 L192.7,27.4 L192.6,27.3 L192.7,27.2 L192.8,26.9 L192.8,26.7 L192.7,26.7 L192.6,26.6 L191.8,26.3 L191.7,26.2 L191.6,26.1 L191.5,25.9 L191.4,25.9 L191.0,25.6 L190.9,25.5 L190.9,25.3 L190.8,25.2 L190.8,25.1 L190.6,25.1 L190.3,25.2 L190.2,25.1 L189.0,24.2 L188.7,24.0 L188.6,23.8 L188.4,23.5 L188.4,23.4 L188.4,23.3 L188.4,23.1 L188.4,22.4 L188.4,22.2 L188.3,22.0 L188.2,22.0 L188.2,21.9 L188.0,21.8 L188.0,21.7 L187.9,21.6 L187.9,21.5 L187.9,21.3 L188.0,20.9 L188.1,20.7 L188.2,20.7 L188.5,20.6 L188.5,20.5 L188.5,20.4 L188.5,20.3 L188.4,20.3 L188.3,20.3 L188.2,20.5 L187.9,20.7 L187.6,21.0 L186.9,21.6 L186.6,21.8 L186.4,21.9 L186.1,21.8 L186.0,21.7 L185.9,21.6 L185.8,21.2 L185.6,21.1 L185.5,21.1 L185.3,21.2 L185.2,21.3 L185.1,21.5 L185.0,21.5 L184.8,21.6 L184.8,21.5 L184.5,21.3 L184.0,21.2 L183.8,21.1 L183.7,20.9 L183.5,20.4 L183.5,20.3 L183.3,20.2 L183.1,20.2 L182.8,20.4 L182.7,20.4 L182.6,20.3 L182.6,20.2 L182.7,20.2 L183.2,20.0 L183.4,20.0 L183.7,20.1" fill="transparent" id="track" stroke="black" stroke-linejoin="miter" stroke-miterlimit="1" stroke-width="2"/>
<g>
<g>
<circle cx="111.73682559276858" cy="121.38746196973807" fill="Blue" id="0/wp/circle" r="5"/>
</g>
<g transform="translate(111.73682559276858 121.38746196973807)">
<rect fill="white" fill-opacity="0.75" height="12" id="label-bg" width="71.22105263157896" x="-75.22105263157896" y="-16"/>
<text font-size="16.0" id="0/wp/text" text-anchor="end" x="-4.000" y="-4.000">
K2 (12:53)
</text>
</g>
<g>
<circle cx="168.65378635276875" cy="290.7498701938821" fill="Blue" id="1/wp/circle" r="5"/>
</g>
<g transform="translate(168.65378635276875 290.7498701938821)">
<rect fill="white" fill-opacity="0.75" height="12" id="label-bg" width="71.22105263157896" x="4" y="-16"/>
<text font-size="16.0" id="1/wp/text" text-anchor="start" x="4.000" y="-4.000">
K1 (10:04)
</text>
</g>
<g>
<circle cx="288.5844180532522" cy="380" fill="Blue" id="2/wp/circle" r="5"/>
</g>
<g transform="translate(288.5844180532522 380)">
<rect fill="white" fill-opacity="0.75" height="12" id="label-bg" width="86.37894736842107" x="4" y="-16"/>
<text font-size="16.0" id="2/wp/text" text-anchor="start" x="4.000" y="-4.000">
Start (08:05)
</text>
</g>
<g>
<circle cx="145.35126649140557" cy="224.34592276248077" fill="Black" id="3/wp/circle" r="3"/>
</g>
<g transform="translate(145.35126649140557 224.34592276248077)">
<rect fill="white" fill-opacity="0.75" height="12" id="label-bg" width="36.73684210526316" x="-40.73684210526316" y="-16"/>
<text font-size="16.0" id="3/wp/text" text-anchor="end" x="-4.000" y="-4.000">
11:26
</text>
</g>
<g>
<circle cx="115.75335961001838" cy="131.7784391148234" fill="Black" id="4/wp/circle" r="3"/>
</g>
<g transform="translate(115.75335961001838 131.7784391148234)">
<rect fill="white" fill-opacity="0.75" height="12" id="label-bg" width="36.73684210526316" x="-40.73684210526316" y="4"/>
<text font-size="16.0" id="4/wp/text" text-anchor="end" x="-4.000" y="16.000">
12:46
</text>
</g>
<g>
<circle cx="168.45708639720488" cy="289.0782070808964" fill="Black" id="5/wp/circle" r="3"/>
</g>
<g transform="translate(168.45708639720488 289.0782070808964)">
<rect fill="white" fill-opacity="0.75" height="12" id="label-bg" width="36.73684210526316" x="4" y="4"/>
<text font-size="16.0" id="5/wp/text" text-anchor="start" x="4.000" y="16.000">
10:05
</text>
</g>
<g>
<circle cx="200.19249907711583" cy="311.535650373542" fill="Black" id="6/wp/circle" r="3"/>
</g>
<g transform="translate(200.19249907711583 311.535650373542)">
<rect fill="white" fill-opacity="0.75" height="12" id="label-bg" width="36.73684210526316" x="-40.73684210526316" y="4"/>
<text font-size="16.0" id="6/wp/text" text-anchor="end" x="-4.000" y="16.000">
09:25
</text>
</g>
<g>
<circle cx="252.933786659838" cy="336.06899745825285" fill="Black" id="7/wp/circle" r="3"/>
</g>
<g transform="translate(252.933786659838 336.06899745825285)">
<rect fill="white" fill-opacity="0.75" height="12" id="label-bg" width="36.73684210526316" x="4" y="-16"/>
<text font-size="16.0" id="7/wp/text" text-anchor="start" x="4.000" y="-4.000">
08:45
</text>
</g>
<g>
<circle cx="169.4482960225273" cy="290.4690714085664" fill="Black" id="8/wp/circle" r="5"/>
<circle cx="169.4482960225273" cy="290.4690714085664" fill="white" id="8/wp/circle-little-white" r="3.5"/>
<circle cx="169.4482960225273" cy="290.4690714085664" fill="black" id="8/wp/circle-little-white" r="2.5"/>
</g>
<g transform="translate(169.4482960225273 290.4690714085664)">
<rect fill="white" fill-opacity="0.75" height="12" id="label-bg" width="80.03157894736842" x="-62" y="50"/>
<text font-size="16.0" id="8/wp/text" text-anchor="start" x="-62.000" y="62.000">
Furtwangen
</text>
</g>
<path d="M169.45,336.47 L155.46,331.54 L155.46,311.54 L169.45,292.47" fill="transparent" id="link" stroke="black" stroke-linejoin="miter" stroke-miterlimit="1"/>
<g>
<circle cx="188.0427184299083" cy="21.824950053254724" fill="Green" id="9/wp/circle" r="3"/>
</g>
<g transform="translate(188.0427184299083 21.824950053254724)">
<rect fill="white" fill-opacity="0.75" height="12" id="label-bg" width="78.61052631578947" x="4" y="-16"/>
<text font-size="16.0" id="9/wp/text" text-anchor="start" x="4.000" y="-4.000">
Freiersberg
</text>
</g>
<g>
<circle cx="110.03635941913217" cy="123.24763669069216" fill="Black" id="10/wp/circle" r="5"/>
<circle cx="110.03635941913217" cy="123.24763669069216" fill="white" id="10/wp/circle-little-white" r="3.5"/>
<circle cx="110.03635941913217" cy="123.24763669069216" fill="black" id="10/wp/circle-little-white" r="2.5"/>
</g>
<g transform="translate(110.03635941913217 123.24763669069216)">
<rect fill="white" fill-opacity="0.75" height="12" id="label-bg" width="137.44210526315788" x="-94" y="-78"/>
<text font-size="16.0" id="10/wp/text" text-anchor="start" x="-94.000" y="-66.000">
Haslach im Kinzigtal
</text>
</g>
<path d="M110.04,61.25 L123.75,66.86 L123.75,86.86 L110.04,121.25" fill="transparent" id="link" stroke="black" stroke-linejoin="miter" stroke-miterlimit="1"/>
<g>
<circle cx="150.161025203829" cy="238.06791396611516" fill="Black" id="11/wp/circle" r="3"/>
</g>
<g transform="translate(150.161025203829 238.06791396611516)">
<rect fill="white" fill-opacity="0.75" height="12" id="label-bg" width="36.73684210526316" x="-40.73684210526316" y="4"/>
<text font-size="16.0" id="11/wp/text" text-anchor="end" x="-4.000" y="16.000">
10:45
</text>
</g>
<g>
<circle cx="138.2848947209327" cy="167.2195642987972" fill="Black" id="12/wp/circle" r="3"/>
</g>
<g transform="translate(138.2848947209327 167.2195642987972)">
<rect fill="white" fill-opacity="0.75" height="12" id="label-bg" width="36.73684210526316" x="-40.73684210526316" y="4"/>
<text font-size="16.0" id="12/wp/text" text-anchor="end" x="-4.000" y="16.000">
12:06
</text>
</g>
<g>
<circle cx="123.75232639593924" cy="86.85715720450389" fill="Black" id="13/wp/circle" r="3"/>
</g>
<g transform="translate(123.75232639593924 86.85715720450389)">
<rect fill="white" fill-opacity="0.75" height="12" id="label-bg" width="36.73684210526316" x="-40.73684210526316" y="-16"/>
<text font-size="16.0" id="13/wp/text" text-anchor="end" x="-4.000" y="-4.000">
13:26
</text>
</g>
<g>
<circle cx="156.24340297548997" cy="62.43456167957993" fill="Black" id="14/wp/circle" r="3"/>
</g>
<g transform="translate(156.24340297548997 62.43456167957993)">
<rect fill="white" fill-opacity="0.75" height="12" id="label-bg" width="36.73684210526316" x="4" y="-16"/>
<text font-size="16.0" id="14/wp/text" text-anchor="start" x="4.000" y="-4.000">
14:06
</text>
</g>
<g>
<circle cx="203.8210696141714" cy="57.333318942233745" fill="Black" id="15/wp/circle" r="3"/>
</g>
<g transform="translate(203.8210696141714 57.333318942233745)">
<rect fill="white" fill-opacity="0.75" height="12" id="label-bg" width="36.73684210526316" x="4" y="4"/>
<text font-size="16.0" id="15/wp/text" text-anchor="start" x="4.000" y="16.000">
14:46
</text>
</g>
<g>
<circle cx="181.75113691154002" cy="232.3263248342373" fill="Black" id="16/wp/circle" r="5"/>
<circle cx="181.75113691154002" cy="232.3263248342373" fill="white" id="16/wp/circle-little-white" r="3.5"/>
<circle cx="181.75113691154002" cy="232.3263248342373" fill="black" id="16/wp/circle-little-white" r="2.5"/>
</g>
<g transform="translate(181.75113691154002 232.3263248342373)">
<rect fill="white" fill-opacity="0.75" height="12" id="label-bg" width="46.873684210526314" x="4" y="4"/>
<text font-size="16.0" id="16/wp/text" text-anchor="start" x="4.000" y="16.000">
Triberg
</text>
</g>
<g>
<circle cx="164.56346514113375" cy="222.76332859550894" fill="Black" id="17/wp/circle" r="4"/>
<circle cx="164.56346514113375" cy="222.76332859550894" fill="white" id="17/wp/circle-little-white" r="2.5"/>
</g>
<g transform="translate(164.56346514113375 222.76332859550894)">
<rect fill="white" fill-opacity="0.75" height="12" id="label-bg" width="184.14736842105265" x="4" y="-16"/>
<text font-size="16.0" id="17/wp/text" text-anchor="start" x="4.000" y="-4.000">
Schonach im Schwarzwald
</text>
</g>
<g>
<circle cx="153.43276818330378" cy="118.25008094990335" fill="Black" id="18/wp/circle" r="5"/>
<circle cx="153.43276818330378" cy="118.25008094990335" fill="white" id="18/wp/circle-little-white" r="3.5"/>
<circle cx="153.43276818330378" cy="118.25008094990335" fill="black" id="18/wp/circle-little-white" r="2.5"/>
</g>
<g transform="translate(153.43276818330378 118.25008094990335)">
<rect fill="white" fill-opacity="0.75" height="12" id="label-bg" width="58.71578947368421" x="4" y="-16"/>
<text font-size="16.0" id="18/wp/text" text-anchor="start" x="4.000" y="-4.000">
Hausach
</text>
</g>
<g>
<circle cx="121.61022434217284" cy="140.22159272808858" fill="Black" id="19/wp/circle" r="4"/>
<circle cx="121.61022434217284" cy="140.22159272808858" fill="white" id="19/wp/circle-little-white" r="2.5"/>
</g>
<g transform="translate(121.61022434217284 140.22159272808858)">
<rect fill="white" fill-opacity="0.75" height="12" id="label-bg" width="83.34736842105264" x="4" y="-16"/>
<text font-size="16.0" id="19/wp/text" text-anchor="start" x="4.000" y="-4.000">
Mühlenbach
</text>
</g>
<g>
<circle cx="176.97547944769258" cy="107.14220882022346" fill="Black" id="20/wp/circle" r="5"/>
<circle cx="176.97547944769258" cy="107.14220882022346" fill="white" id="20/wp/circle-little-white" r="3.5"/>
<circle cx="176.97547944769258" cy="107.14220882022346" fill="black" id="20/wp/circle-little-white" r="2.5"/>
</g>
<g transform="translate(176.97547944769258 107.14220882022346)">
<rect fill="white" fill-opacity="0.75" height="12" id="label-bg" width="52.08421052631579" x="-30" y="-30"/>
<text font-size="16.0" id="20/wp/text" text-anchor="start" x="-30.000" y="-18.000">
Wolfach
</text>
</g>
<path d="M176.98,93.14 L176.98,105.14" fill="transparent" id="link" stroke="black" stroke-linejoin="miter" stroke-miterlimit="1"/>
<g>
<circle cx="122.02996623227409" cy="115.14734992548256" fill="Black" id="21/wp/circle" r="4"/>
<circle cx="122.02996623227409" cy="115.14734992548256" fill="white" id="21/wp/circle-little-white" r="2.5"/>
</g>
<g transform="translate(122.02996623227409 115.14734992548256)">
<rect fill="white" fill-opacity="0.75" height="12" id="label-bg" width="83.34736842105264" x="-78" y="-94"/>
<text font-size="16.0" id="21/wp/text" text-anchor="start" x="-78.000" y="-82.000">
Fischerbach
</text>
</g>
<path d="M122.03,37.15 L156.24,42.43 L156.24,62.43 L142.98,73.14 L122.03,113.15" fill="transparent" id="link" stroke="black" stroke-linejoin="miter" stroke-miterlimit="1"/>
</g>
</svg>