<svg height="400" viewBox="(0, 0, 400, 400)" width="400" xmlns="http://www.w3.org/2000/svg">
<path d="M309.3,400.0 L309.3,399.9 L309.2,399.9 L308.9,399.9 L308.9,399.9 L308.5,399.9 L308.5,399.9 L308.5,399.8 L308.2,399.7 L307.9,399.5 L307.5,399.2 L307.2,399.0 L306.4,398.8 L306.4,398.7 L306.3,398.6 L306.2,398.5 L306.1,398.0 L306.1,397.7 L306.0,397.5 L305.8,397.4 L305.6,397.3 L305.3,397.1 L305.1,396.9 L304.9,396.7 L304.8,396.2 L304.7,396.0 L304.7,395.8 L304.5,395.6 L304.1,395.2 L304.0,395.0 L303.5,394.5 L303.1,394.0 L303.0,393.8 L302.8,393.5 L302.8,393.2 L302.7,392.9 L302.7,392.5 L302.8,392.2 L303.2,391.6 L303.4,391.0 L303.5,390.4 L303.6,390.1 L303.8,389.3 L303.9,389.1 L303.6,388.7 L303.5,388.5 L303.2,388.0 L303.1,387.5 L303.0,387.1 L302.6,383.3 L302.3,381.0 L302.2,380.0 L302.1,379.4 L302.0,378.4 L302.0,378.3 L302.0,378.2 L301.9,377.8 L301.6,377.0 L299.6,373.9 L299.5,373.9 L299.4,373.9 L298.9,373.5 L298.7,373.4 L298.2,372.6 L297.3,371.5 L296.9,371.2 L296.7,371.0 L296.6,370.7 L296.5,370.3 L296.4,370.1 L295.8,369.3 L295.5,368.8 L295.5,368.7 L295.4,368.6 L295.3,368.5 L295.4,368.4 L295.6,367.9 L295.6,367.8 L295.6,367.6 L295.6,367.5 L295.6,367.0 L295.6,366.8 L295.5,366.8 L295.4,366.8 L295.2,366.7 L295.1,366.6 L294.7,366.0 L294.2,365.5 L293.8,364.8 L293.6,364.8 L293.5,364.8 L293.2,364.8 L293.1,364.8 L292.9,364.8 L292.7,364.7 L292.1,364.0 L291.7,363.6 L291.6,363.5 L291.3,363.3 L291.0,363.1 L290.5,363.0 L289.9,362.8 L289.6,362.6 L289.4,362.5 L289.3,362.3 L289.0,362.1 L288.8,361.8 L288.7,361.7 L288.5,361.4 L288.3,361.1 L288.3,361.0 L288.2,360.8 L288.2,360.3 L288.2,360.2 L288.2,359.8 L288.2,359.7 L288.3,359.6 L288.4,359.6 L288.5,359.6 L288.6,359.5 L288.7,359.5 L288.9,359.2 L288.9,359.2 L288.7,359.0 L288.3,358.9 L287.9,358.8 L287.6,358.8 L287.4,358.8 L287.1,358.9 L286.8,359.0 L286.5,359.1 L285.5,359.8 L285.1,360.0 L284.8,360.1 L284.5,360.2 L283.6,360.2 L283.3,360.3 L282.9,360.3 L282.6,360.2 L282.3,360.2 L282.0,360.0 L279.3,358.5 L278.3,357.9 L277.3,357.4 L276.4,357.1 L275.8,356.8 L275.3,356.4 L274.9,356.0 L274.5,355.4 L274.3,354.8 L274.2,354.3 L274.1,354.0 L274.0,353.7 L273.7,353.4 L273.5,353.2 L273.2,353.0 L272.2,352.5 L271.6,352.2 L270.8,351.7 L269.9,350.8 L269.4,350.3 L268.9,349.4 L268.7,347.6 L268.6,346.9 L268.2,346.3 L267.7,345.9 L266.9,345.5 L266.2,345.2 L265.6,345.0 L265.0,344.7 L264.8,344.7 L264.2,344.3 L263.8,344.1 L262.4,344.0 L261.0,344.0 L260.3,344.1 L259.7,344.1 L259.3,344.1 L259.0,344.1 L258.7,343.9 L258.4,343.7 L258.1,343.2 L257.6,342.9 L257.3,342.8 L257.2,342.8 L256.8,342.8 L256.4,343.0 L255.7,343.6 L255.4,343.8 L255.2,344.1 L254.6,344.8 L254.4,345.0 L254.2,345.1 L253.9,345.2 L253.7,345.2 L253.5,345.2 L253.2,345.1 L250.9,343.8 L250.6,343.6 L250.4,343.5 L250.3,343.3 L250.2,343.0 L250.0,342.5 L249.9,342.2 L249.8,341.9 L249.6,341.7 L249.4,341.5 L249.2,341.3 L248.3,340.7 L247.4,340.1 L247.2,340.0 L247.0,339.9 L246.5,339.7 L245.5,339.5 L245.1,339.5 L244.2,339.3 L242.3,338.9 L241.8,338.8 L241.4,338.6 L241.0,338.2 L240.6,337.9 L240.3,337.7 L240.1,337.6 L238.2,336.8 L237.5,336.4 L237.2,336.2 L236.9,336.1 L236.6,335.9 L236.5,335.8 L236.5,335.8 L236.5,335.8 L236.3,335.6 L236.3,335.5 L236.1,335.3 L235.8,334.8 L235.5,334.3 L235.4,334.0 L235.4,333.7 L235.7,333.0 L235.8,332.8 L235.8,332.5 L235.8,332.3 L235.8,331.9 L235.7,331.3 L235.6,331.0 L235.5,330.7 L235.3,330.5 L234.8,330.0 L234.6,329.8 L234.5,329.6 L234.6,328.8 L234.5,328.6 L234.3,328.2 L234.1,327.9 L234.1,327.9 L234.0,327.7 L233.8,327.6 L232.6,326.8 L232.2,326.4 L232.0,326.2 L231.7,325.9 L231.5,325.7 L231.4,325.3 L231.3,324.9 L230.8,323.5 L230.4,321.9 L230.3,321.3 L230.1,321.3 L229.9,321.3 L229.7,321.3 L229.6,321.4 L229.3,321.4 L227.1,321.5 L227.0,321.5 L226.6,321.3 L226.1,321.2 L225.7,321.1 L225.2,321.1 L225.1,321.1 L224.3,320.9 L224.0,320.8 L223.9,320.7 L223.7,320.5 L223.0,320.2 L222.8,320.2 L222.3,319.9 L221.9,319.8 L221.7,319.8 L221.2,319.8 L221.1,319.7 L220.9,319.7 L220.5,319.6 L220.3,319.5 L220.0,319.2 L219.5,319.0 L219.2,318.9 L219.1,318.8 L218.2,318.2 L217.7,318.1 L217.3,318.0 L216.5,317.6 L216.3,317.5 L215.9,317.5 L215.2,317.4 L215.0,317.4 L214.9,317.3 L214.8,317.3 L214.7,317.1 L214.7,317.0 L214.7,316.8 L214.6,316.7 L214.5,316.6 L214.4,316.6 L214.3,316.6 L214.1,316.7 L214.1,316.8 L213.9,317.2 L213.8,317.4 L213.6,317.4 L213.5,317.4 L213.2,317.4 L213.0,317.4 L212.7,317.4 L212.6,317.3 L211.9,317.0 L211.4,316.8 L211.1,316.6 L209.8,316.1 L209.0,315.7 L208.5,315.6 L208.2,315.5 L207.9,315.4 L206.9,315.3 L206.3,315.1 L206.1,315.1 L205.8,314.8 L205.1,314.3 L204.8,314.1 L204.7,314.1 L204.0,314.0 L203.3,313.8 L202.9,313.8 L202.7,313.8 L202.3,313.9 L202.2,313.9 L201.8,313.9 L201.4,313.8 L200.3,313.6 L200.0,313.5 L199.2,313.5 L199.0,313.5 L199.0,313.5 L198.2,313.1 L197.9,313.0 L197.5,312.6 L197.4,312.6 L197.4,312.5 L197.3,312.3 L197.2,312.3 L196.8,312.2 L196.4,312.1 L195.8,312.0 L195.4,311.8 L195.0,311.9 L194.3,311.8 L193.9,311.8 L193.6,311.8 L193.1,311.7 L193.0,311.6 L192.6,311.5 L192.4,311.4 L192.2,311.4 L191.8,311.5 L191.4,311.6 L191.1,311.7 L190.9,311.9 L190.8,311.9 L190.3,311.9 L189.4,312.1 L189.1,312.1 L188.4,312.0 L188.2,311.9 L186.8,312.1 L186.1,312.1 L185.2,312.0 L185.0,311.9 L184.9,311.9 L184.7,311.8 L184.1,311.5 L183.9,311.4 L183.6,311.4 L182.8,311.3 L181.8,311.4 L181.3,311.3 L181.0,311.4 L180.5,311.7 L180.2,311.8 L180.0,311.9 L179.3,311.9 L178.8,312.0 L178.5,312.1 L178.0,312.0 L177.5,311.9 L176.7,311.6 L176.5,311.6 L176.3,311.6 L175.9,311.6 L175.5,311.5 L175.4,311.4 L175.2,311.2 L174.5,310.9 L173.7,310.3 L173.5,310.1 L173.3,309.8 L173.2,309.7 L173.1,309.6 L173.0,309.6 L172.7,309.5 L172.0,309.1 L171.8,309.1 L171.6,309.2 L171.5,309.2 L171.5,309.4 L171.4,309.4 L171.5,309.6 L171.5,309.7 L171.6,309.8 L172.0,310.0 L172.1,310.1 L172.1,310.2 L172.2,310.5 L172.2,310.7 L172.4,310.9 L172.4,311.0 L172.4,311.1 L172.4,311.1 L172.3,311.4 L172.2,311.7 L172.2,311.9 L172.1,312.0 L172.0,312.0 L170.9,312.7 L170.5,312.9 L169.9,313.1 L169.3,313.2 L169.0,313.2 L168.7,313.2 L168.4,313.1 L168.1,312.9 L167.6,312.9 L167.4,312.8 L166.4,312.4 L166.0,312.2 L165.6,312.0 L165.1,311.9 L164.0,311.6 L163.6,311.5 L163.2,311.5 L162.8,311.6 L162.4,311.7 L160.7,312.4 L159.8,312.8 L159.5,312.8 L159.2,312.7 L158.8,312.5 L158.4,312.2 L158.2,311.9 L158.0,311.6 L157.9,311.4 L157.8,311.3 L157.5,310.9 L156.6,309.8 L156.5,309.6 L156.1,308.7 L155.8,308.2 L155.8,308.1 L155.7,307.0 L155.5,306.2 L155.3,305.7 L154.9,304.9 L154.4,304.2 L154.2,303.8 L153.7,303.1 L153.6,302.9 L153.5,302.7 L153.4,301.9 L153.4,301.7 L153.3,301.6 L153.3,301.5 L153.1,301.1 L152.4,300.2 L151.3,298.5 L150.8,298.0 L150.8,297.9 L150.7,297.9 L150.6,297.7 L150.5,297.5 L150.4,297.2 L150.4,297.0 L150.5,295.4 L150.6,295.1 L150.8,294.7 L151.2,293.8 L151.3,293.6 L151.3,293.5 L151.2,293.3 L151.2,293.1 L151.2,293.1 L151.1,292.8 L151.1,292.6 L151.1,292.6 L151.2,292.5 L151.3,292.5 L151.4,292.5 L151.5,292.5 L151.6,292.5 L151.7,292.5 L151.9,292.5 L152.5,292.5 L153.1,292.4 L153.1,292.4 L153.7,292.3 L153.9,292.2 L154.0,292.1 L154.1,292.1 L154.2,291.9 L154.4,291.7 L154.4,291.7 L154.4,291.6 L154.5,291.5 L154.6,291.4 L154.6,291.3 L154.7,291.2 L154.8,291.0 L154.8,291.0 L154.9,290.9 L155.1,290.5 L155.4,290.1 L155.6,289.9 L155.8,289.7 L155.9,289.7 L156.2,289.4 L156.5,289.3 L156.7,289.2 L156.8,289.2 L156.9,289.2 L156.9,289.2 L157.1,289.2 L157.3,289.1 L157.4,289.1 L157.6,289.0 L157.6,289.0 L157.7,289.0 L158.0,288.8 L158.4,288.4 L158.5,288.4 L158.8,288.2 L159.1,287.9 L159.4,287.8 L159.7,287.5 L159.8,287.4 L159.9,287.2 L159.9,287.2 L159.9,287.0 L159.8,286.5 L159.6,286.2 L158.9,285.3 L159.0,285.3 L159.2,285.3 L159.4,285.2 L159.4,285.2 L159.7,285.1 L159.7,284.9 L159.6,284.7 L159.5,284.6 L159.5,284.6 L159.5,284.5 L159.5,284.3 L159.4,284.3 L159.4,284.2 L159.3,283.7 L159.2,283.4 L158.8,283.6 L158.5,283.7 L158.3,283.7 L158.3,283.9 L158.4,284.2 L158.4,284.2 L158.6,284.8 L159.0,284.6 L159.5,284.5 L159.5,284.3 L159.4,284.3 L159.4,284.2 L159.3,283.7 L159.2,283.4 L158.9,282.6 L158.5,282.7 L158.2,282.7 L158.2,283.2 L158.3,283.7 L158.3,283.9 L158.4,284.2 L158.4,284.2 L158.6,284.8 L159.0,284.6 L159.5,284.5 L159.5,284.3 L159.4,284.3 L159.4,284.2 L159.3,283.7 L159.2,283.4 L158.9,282.6 L158.5,282.7 L158.2,282.7 L158.2,282.3 L158.0,282.3 L157.9,282.2 L157.9,282.1 L157.7,281.8 L157.5,281.6 L157.4,281.5 L157.1,281.3 L156.9,281.2 L156.8,281.1 L156.5,280.3 L156.3,280.1 L155.9,279.6 L155.6,279.2 L155.4,279.1 L154.6,277.9 L154.6,277.9 L154.3,277.4 L154.1,276.9 L154.0,276.5 L153.8,275.9 L153.7,275.3 L153.6,274.6 L153.5,274.1 L153.5,274.1 L153.4,273.8 L153.3,273.6 L152.8,273.1 L152.0,271.9 L151.7,271.3 L151.6,270.9 L151.5,270.4 L151.3,270.1 L151.1,269.8 L150.8,269.5 L150.6,269.3 L150.6,269.3 L150.4,269.1 L150.3,269.0 L149.0,267.0 L148.7,266.6 L148.5,266.0 L148.4,265.6 L148.3,265.3 L147.1,263.0 L147.1,262.8 L146.5,261.6 L146.3,260.9 L145.7,258.6 L145.6,258.2 L145.6,258.2 L145.5,258.0 L145.3,257.5 L145.0,256.8 L144.6,256.3 L144.4,255.8 L144.1,255.2 L144.0,255.0 L143.9,254.7 L143.7,254.4 L143.5,254.2 L143.5,254.1 L143.5,253.8 L143.6,253.3 L143.8,252.8 L144.0,252.4 L144.2,252.1 L144.2,252.1 L144.1,251.7 L144.0,251.1 L143.9,250.8 L143.8,250.6 L143.3,250.0 L143.2,249.8 L143.1,249.6 L143.1,249.3 L143.1,249.0 L143.2,248.5 L143.1,248.3 L143.0,248.1 L142.8,248.0 L142.5,247.8 L142.4,247.6 L142.3,247.5 L142.2,247.2 L142.0,246.7 L141.7,246.1 L141.6,246.0 L141.6,245.7 L141.7,245.6 L141.9,245.3 L141.9,245.2 L141.9,245.1 L141.8,245.1 L141.6,244.9 L141.5,244.8 L141.5,244.8 L141.6,244.6 L141.7,244.1 L141.7,243.9 L141.6,243.7 L141.5,243.5 L141.2,242.9 L141.1,242.4 L140.9,242.0 L140.8,241.7 L140.6,241.3 L140.5,241.2 L140.3,241.1 L140.1,241.0 L140.0,240.9 L139.6,240.5 L139.5,240.3 L139.5,240.2 L139.5,240.1 L139.6,239.9 L139.9,239.5 L140.0,239.3 L140.0,239.2 L140.1,238.9 L140.1,238.7 L139.8,237.4 L139.7,236.4 L139.6,236.2 L139.6,235.6 L139.5,235.1 L139.4,233.8 L139.5,233.6 L139.4,233.5 L139.3,233.4 L139.3,233.2 L139.4,232.9 L139.8,232.4 L140.1,231.7 L140.4,231.0 L140.5,230.7 L140.3,229.7 L140.4,228.9 L140.6,228.7 L140.7,228.5 L140.7,228.3 L140.5,228.0 L140.3,227.8 L140.0,227.5 L139.7,227.3 L139.3,227.1 L138.9,226.7 L138.8,226.5 L138.5,226.2 L138.5,226.1 L138.5,226.0 L138.7,225.8 L138.7,225.6 L138.7,225.5 L138.6,225.3 L138.6,225.1 L138.6,225.0 L138.5,224.7 L138.4,224.5 L138.4,224.4 L138.4,224.3 L138.4,224.0 L138.4,223.9 L138.3,223.7 L138.0,223.3 L138.2,222.9 L138.2,222.6 L138.2,222.5 L138.0,222.1 L137.8,221.9 L137.6,221.6 L137.5,221.4 L137.5,221.2 L137.5,221.0 L137.6,220.7 L137.8,220.1 L137.8,220.0 L138.2,219.6 L138.8,219.1 L139.3,218.6 L139.6,218.2 L139.9,217.9 L140.0,217.7 L140.2,217.5 L140.4,217.2 L140.4,217.0 L140.9,216.7 L142.3,215.6 L143.5,214.8 L143.6,214.7 L143.7,214.6 L143.7,214.5 L143.8,214.3 L143.6,213.5 L143.6,213.2 L143.5,213.0 L143.6,212.8 L143.7,212.2 L143.7,211.7 L143.6,211.4 L143.6,211.2 L143.6,211.1 L143.8,210.9 L143.8,210.8 L143.8,210.7 L143.8,210.7 L143.6,210.4 L143.3,210.2 L143.3,210.0 L143.3,209.9 L143.4,209.8 L143.5,209.7 L143.6,209.6 L144.1,209.2 L144.4,209.0 L144.8,208.8 L145.5,208.3 L145.7,208.3 L145.9,208.3 L146.4,208.0 L146.6,207.9 L146.6,207.6 L146.7,207.4 L146.7,207.0 L146.9,206.8 L147.2,206.6 L147.3,206.4 L147.5,206.2 L147.6,206.0 L147.7,205.8 L147.9,205.8 L148.4,205.6 L148.5,205.6 L148.6,205.5 L150.1,204.0 L150.4,203.8 L151.0,203.6 L151.9,203.4 L152.3,203.4 L152.4,203.4 L152.5,203.3 L152.6,203.3 L153.1,202.9 L153.3,202.8 L153.8,202.7 L153.9,202.7 L154.2,202.7 L154.5,202.8 L154.5,202.7 L154.9,202.7 L154.9,202.5 L154.9,202.4 L154.6,201.5 L154.4,201.1 L154.3,200.8 L154.2,200.7 L154.2,200.6 L154.0,200.6 L153.7,200.5 L153.5,200.5 L153.4,200.3 L153.3,199.9 L153.3,199.8 L153.0,199.7 L152.9,199.6 L152.5,199.4 L152.2,199.3 L151.8,199.2 L151.4,199.0 L151.1,198.9 L150.7,198.7 L150.6,198.6 L150.5,198.5 L150.2,198.3 L150.1,198.2 L149.7,198.0 L149.5,197.9 L149.3,197.8 L148.7,197.5 L148.5,197.5 L148.4,197.4 L147.8,197.1 L147.6,196.9 L147.4,196.7 L146.9,195.9 L146.7,195.6 L146.5,195.5 L146.3,195.3 L145.9,195.2 L145.8,195.2 L145.5,195.3 L145.3,195.4 L145.2,195.5 L145.1,195.6 L145.1,195.7 L145.1,196.0 L145.1,196.1 L145.3,196.4 L145.3,196.6 L145.3,196.8 L145.2,196.9 L145.2,197.0 L145.0,197.1 L143.7,197.8 L143.6,197.8 L143.4,198.0 L143.3,198.2 L143.1,198.7 L143.0,198.9 L142.6,199.3 L142.1,199.7 L142.0,199.8 L141.5,200.0 L140.8,200.1 L140.8,200.1 L140.2,200.2 L139.8,200.3 L139.3,200.6 L138.9,200.9 L138.6,201.3 L138.4,201.6 L138.2,202.0 L137.8,202.9 L137.7,203.2 L137.4,203.7 L137.0,204.0 L136.2,204.7 L136.0,204.7 L135.9,204.9 L135.9,205.0 L135.8,205.2 L135.8,205.2 L135.8,205.4 L135.8,205.5 L135.9,205.7 L136.1,205.8 L136.2,206.0 L136.3,206.1 L136.5,206.2 L136.6,206.4 L136.6,206.6 L136.7,206.9 L136.6,207.1 L136.6,207.2 L136.5,207.3 L136.4,207.5 L136.2,207.6 L135.9,207.7 L135.7,207.8 L135.2,207.8 L135.0,207.8 L134.6,207.9 L134.4,208.0 L134.2,208.2 L134.1,208.4 L133.9,208.6 L133.8,209.0 L133.6,209.2 L133.2,209.8 L133.1,210.2 L133.0,210.5 L133.1,211.3 L133.2,211.8 L133.2,212.0 L133.5,212.8 L133.6,213.0 L133.6,213.1 L133.5,213.2 L133.4,213.3 L133.4,213.4 L133.3,213.4 L133.1,213.4 L132.7,213.3 L132.3,213.0 L132.2,213.0 L132.1,213.0 L132.0,213.0 L131.9,213.0 L131.8,213.1 L131.4,213.9 L131.2,214.2 L130.9,214.5 L130.6,215.0 L130.5,215.1 L130.4,215.2 L130.2,215.1 L130.2,215.0 L130.1,214.9 L130.2,214.8 L130.3,214.7 L130.6,214.5 L130.8,214.4 L131.0,214.2 L131.1,214.0 L131.2,213.7 L131.3,213.4 L131.4,212.7 L131.4,212.6 L131.6,212.3 L131.6,212.2 L131.9,211.9 L132.0,211.7 L132.0,211.4 L131.9,211.1 L131.4,209.9 L131.4,209.6 L131.4,209.5 L131.5,209.1 L131.8,208.5 L131.8,208.0 L131.9,207.1 L132.0,206.2 L132.0,205.5 L131.9,205.0 L131.7,204.0 L131.6,203.8 L131.6,203.5 L131.7,203.3 L132.2,202.2 L132.3,201.4 L132.6,200.9 L132.7,200.5 L132.7,200.3 L132.5,199.2 L132.4,198.6 L132.2,197.9 L132.1,197.7 L132.0,197.5 L131.6,197.3 L131.5,197.1 L131.4,197.1 L131.3,196.7 L131.4,196.5 L131.6,196.0 L131.6,195.8 L131.6,195.6 L131.6,195.5 L131.3,195.0 L131.2,194.9 L131.2,194.8 L131.2,194.6 L131.2,194.3 L131.3,194.2 L131.5,194.0 L131.7,193.7 L131.8,193.4 L132.0,193.0 L132.1,192.8 L132.1,192.7 L132.1,192.5 L132.0,192.2 L131.8,192.0 L131.7,191.7 L131.7,191.5 L131.7,191.3 L131.8,191.1 L132.1,190.8 L132.2,190.6 L132.2,190.4 L132.3,189.8 L132.2,188.6 L132.3,188.5 L132.4,187.8 L132.4,187.6 L132.4,187.4 L132.3,187.3 L132.2,187.1 L131.7,186.7 L131.3,186.4 L131.2,186.1 L131.2,185.9 L131.3,185.5 L131.4,185.2 L131.5,185.1 L131.6,185.0 L132.1,184.7 L132.2,184.5 L132.3,184.2 L132.4,183.9 L132.3,183.6 L132.3,183.5 L132.2,183.3 L131.9,182.9 L131.8,182.5 L131.7,182.0 L131.6,181.0 L131.6,180.4 L131.6,180.1 L131.6,179.9 L131.8,179.3 L131.8,179.1 L131.8,178.7 L131.9,178.4 L132.2,177.7 L132.2,177.4 L132.3,177.1 L132.4,176.8 L132.5,176.3 L132.5,175.9 L132.4,175.6 L132.2,174.7 L132.2,174.4 L132.1,174.1 L132.1,174.1 L131.9,173.9 L131.8,173.8 L131.7,173.6 L131.6,173.6 L131.6,173.5 L131.5,173.0 L131.5,172.5 L131.5,172.3 L131.6,172.1 L131.7,172.0 L132.0,171.6 L132.1,171.5 L132.1,171.3 L132.2,170.6 L132.2,170.5 L132.3,170.4 L132.4,170.3 L132.5,170.2 L132.6,170.1 L132.8,169.7 L132.9,169.5 L133.0,169.3 L133.0,168.8 L133.0,168.3 L133.1,168.0 L133.1,167.9 L133.0,167.8 L133.0,167.7 L132.8,167.6 L132.5,167.6 L132.5,167.5 L132.4,167.5 L132.4,167.5 L132.4,167.5 L132.4,167.4 L132.3,167.4 L132.3,167.4 L132.3,167.4 L132.3,167.2 L132.4,167.0 L132.5,166.9 L133.3,166.2 L133.4,166.0 L133.5,165.9 L133.5,165.6 L133.3,164.6 L133.2,164.2 L133.3,164.0 L133.3,163.8 L133.6,163.5 L133.7,163.2 L133.8,162.7 L133.8,162.1 L133.7,161.4 L133.7,161.2 L133.6,160.9 L133.4,160.7 L133.2,160.3 L133.2,160.3 L133.0,160.1 L133.0,159.9 L132.9,159.7 L132.8,159.4 L132.8,159.4 L132.8,158.9 L132.9,158.5 L133.0,158.4 L133.4,157.9 L133.5,157.6 L133.7,157.3 L134.0,156.0 L134.1,155.6 L134.1,155.5 L134.0,155.3 L134.0,155.2 L133.8,154.9 L133.7,154.7 L133.5,154.6 L133.4,154.5 L133.3,154.4 L133.3,154.3 L133.3,154.0 L133.4,153.8 L133.6,152.9 L133.8,152.5 L133.8,152.2 L133.8,152.0 L133.8,151.5 L133.7,151.1 L133.4,150.5 L133.3,150.3 L133.3,150.2 L133.3,150.0 L133.4,149.6 L133.4,149.4 L133.5,149.2 L133.9,148.4 L134.0,148.1 L134.0,147.9 L134.0,147.5 L134.0,147.2 L134.0,146.9 L134.0,146.6 L134.0,146.2 L133.9,146.0 L133.8,145.7 L133.8,145.6 L133.8,145.4 L133.8,145.3 L133.8,145.3 L133.7,145.1 L133.6,144.9 L133.4,144.6 L133.1,144.4 L133.0,144.3 L133.0,144.3 L133.0,144.3 L132.9,144.3 L132.9,144.2 L132.7,144.2 L132.6,144.1 L132.4,144.0 L132.0,144.0 L131.8,143.9 L131.7,143.8 L131.6,143.7 L131.3,143.4 L130.7,142.5 L130.4,142.3 L130.2,142.1 L129.9,141.5 L129.7,141.2 L129.6,141.1 L129.4,140.9 L129.0,140.5 L128.9,140.3 L128.8,140.3 L128.6,140.1 L128.0,139.5 L127.9,139.2 L127.7,138.9 L127.6,138.8 L127.3,138.7 L127.0,138.5 L126.7,138.4 L126.2,138.2 L126.1,138.2 L125.7,137.9 L125.5,137.8 L125.2,137.6 L124.9,137.6 L124.8,137.5 L124.7,137.5 L124.4,137.5 L124.1,137.4 L123.9,137.4 L123.6,137.1 L123.3,136.9 L123.2,136.9 L122.9,136.8 L122.7,136.7 L122.7,136.6 L122.6,136.4 L122.4,136.4 L122.4,136.4 L122.4,136.2 L122.5,135.9 L122.5,135.8 L122.4,135.7 L122.4,135.5 L122.3,135.2 L122.3,135.1 L122.7,134.4 L122.7,134.4 L122.9,133.9 L123.2,133.3 L123.6,132.8 L124.2,132.1 L124.3,131.9 L124.9,130.9 L125.1,130.4 L125.2,130.3 L125.7,129.8 L125.9,129.5 L126.2,128.7 L126.5,128.3 L126.8,128.0 L127.4,127.4 L128.1,126.8 L128.3,126.5 L129.0,125.3 L129.1,125.2 L129.2,125.2 L129.6,125.0 L130.1,124.7 L130.4,124.6 L131.2,124.4 L131.5,124.3 L131.9,124.1 L132.6,123.7 L133.4,123.4 L133.2,123.3 L133.4,123.1 L133.5,123.0 L133.6,123.0 L133.8,122.9 L134.0,122.8 L134.2,122.7 L134.5,122.5 L134.6,122.4 L134.8,122.3 L135.1,122.1 L135.6,121.7 L135.8,121.4 L136.1,121.0 L136.6,120.6 L136.8,120.4 L136.9,120.3 L136.9,120.2 L136.9,120.1 L137.1,120.1 L137.3,120.1 L137.5,120.0 L137.6,119.9 L137.6,119.9 L137.7,119.8 L137.6,119.5 L137.6,119.3 L137.6,118.7 L137.6,118.6 L137.5,118.4 L137.2,118.1 L137.2,118.0 L137.2,117.9 L137.4,117.6 L137.5,117.4 L137.5,116.7 L137.5,116.3 L137.5,115.9 L137.6,115.8 L137.6,115.8 L137.7,115.8 L137.8,115.8 L137.9,115.8 L138.1,116.0 L138.2,116.0 L138.3,116.0 L138.3,116.0 L138.8,115.1 L139.3,114.4 L139.3,114.3 L139.3,114.2 L138.9,114.0 L138.6,113.7 L138.5,113.4 L138.5,113.3 L138.4,113.1 L138.2,112.8 L138.1,112.6 L138.1,112.6 L137.8,112.2 L137.2,111.6 L137.1,111.3 L136.6,110.8 L136.4,110.5 L136.0,110.2 L135.8,110.2 L135.4,109.9 L135.2,109.8 L135.0,109.5 L134.8,109.4 L134.4,109.4 L134.1,109.4 L133.7,109.3 L133.3,109.2 L132.9,109.2 L132.7,109.2 L132.4,109.1 L132.2,108.9 L131.9,108.5 L131.8,108.5 L131.8,108.5 L131.0,108.4 L130.5,108.4 L130.2,108.4 L129.2,108.3 L129.1,108.3 L128.8,108.5 L128.6,108.5 L128.3,108.5 L128.1,108.5 L127.9,108.5 L127.6,108.6 L127.0,108.7 L126.7,108.7 L126.2,108.8 L126.0,108.7 L125.6,108.6 L125.5,108.5 L125.2,108.3 L125.1,108.2 L124.9,108.2 L124.8,108.1 L123.4,108.2 L122.5,108.2 L122.1,108.2 L121.9,108.3 L121.8,108.3 L121.6,108.3 L120.6,107.9 L120.1,107.7 L119.7,107.5 L119.5,107.4 L119.2,107.2 L118.4,106.4 L118.3,106.2 L118.2,106.1 L118.1,106.0 L117.8,105.7 L117.8,105.7 L117.3,105.4 L117.1,105.4 L116.7,105.3 L116.5,105.3 L116.1,104.9 L116.0,104.9 L115.5,104.8 L115.0,104.6 L114.4,104.4 L114.3,104.4 L113.9,104.0 L113.6,104.0 L113.5,103.9 L113.1,103.6 L112.8,103.5 L112.1,103.1 L111.8,103.0 L111.5,102.8 L111.2,102.6 L111.0,102.5 L110.6,102.3 L110.5,102.3 L109.4,101.8 L109.1,101.6 L108.9,101.4 L108.8,101.3 L108.7,101.2 L108.5,101.1 L108.0,100.7 L107.4,100.3 L107.1,100.3 L106.7,100.1 L105.9,100.1 L105.8,100.0 L105.4,99.8 L105.2,99.7 L105.1,99.7 L104.9,99.7 L104.8,99.7 L104.7,99.8 L104.5,100.0 L104.2,100.1 L104.0,100.1 L103.6,100.1 L103.5,100.0 L103.2,99.9 L103.3,99.7 L103.2,99.3 L103.1,99.0 L103.0,98.8 L102.7,98.6 L102.6,98.4 L102.5,98.3 L102.5,98.2 L102.4,98.0 L102.3,97.7 L102.3,97.7 L102.1,97.4 L101.9,97.2 L101.7,97.0 L101.6,96.9 L101.4,96.7 L101.4,96.6 L101.3,96.5 L101.2,96.4 L101.1,96.2 L101.1,96.1 L100.9,96.2 L100.9,95.9 L100.9,95.7 L100.6,95.2 L100.4,94.9 L100.1,94.6 L99.2,93.7 L99.1,93.5 L98.8,92.9 L98.8,92.8 L98.7,92.7 L98.2,92.4 L98.1,92.3 L98.1,92.2 L98.1,92.0 L98.2,91.6 L98.1,91.3 L97.8,90.7 L97.5,90.3 L97.4,90.0 L97.0,89.6 L96.3,88.8 L96.0,88.4 L95.8,88.1 L95.6,87.8 L95.3,87.2 L94.8,86.5 L94.2,85.8 L93.4,84.9 L93.3,84.8 L91.7,82.5 L91.6,82.5 L91.6,82.4 L91.5,82.2 L91.4,81.9 L91.0,80.9 L91.0,80.7 L90.9,80.1 L90.9,80.0 L90.9,79.9 L90.9,79.9 L90.9,79.8 L90.9,79.2 L90.9,78.2 L90.8,77.9 L90.8,77.6 L90.8,77.5 L90.7,77.3 L90.7,77.2 L90.7,77.1 L90.8,76.7 L90.8,76.5 L91.0,76.1 L91.0,75.8 L91.1,75.6 L91.2,75.5 L91.9,75.6 L92.4,75.8 L92.6,75.8 L93.0,75.9 L93.3,76.0 L93.4,76.1 L93.5,76.2 L93.6,76.1 L93.8,76.1 L94.0,76.2 L94.0,76.2 L94.1,76.2 L94.3,76.1 L94.4,75.9 L94.5,75.4 L94.7,75.4 L94.9,75.4 L94.9,75.5 L94.9,76.0 L95.2,76.0 L95.9,76.0 L96.3,75.9 L97.3,75.7 L98.9,75.4 L100.3,75.0 L101.1,75.0 L102.0,74.9 L102.1,74.8 L104.0,73.9 L104.1,73.8 L104.1,73.8 L103.8,73.1 L103.8,73.0 L104.4,72.8 L104.5,71.5 L104.5,71.2 L104.5,70.9 L104.3,70.3 L104.3,70.2 L103.9,69.6 L103.9,69.4 L103.7,69.2 L103.7,69.2 L103.7,68.8 L103.7,68.6 L103.9,68.5 L104.2,68.4 L104.4,68.2 L104.8,67.8 L105.1,67.6 L105.4,67.6 L105.9,67.5 L106.1,67.5 L106.1,67.5 L106.5,67.5 L106.7,67.6 L106.9,67.7 L107.2,67.9 L107.2,67.9 L107.3,67.9 L107.6,68.1 L107.9,68.2 L108.1,68.3 L108.4,68.4 L108.5,68.4 L108.6,68.3 L110.1,68.4 L110.6,68.4 L111.0,68.4 L111.4,68.3 L111.8,68.0 L112.1,67.8 L112.1,67.7 L112.2,67.5 L112.2,67.0 L112.3,66.8 L112.4,66.6 L112.4,66.6 L112.5,66.6 L112.5,66.5 L112.8,66.2 L113.1,65.9 L113.3,65.4 L113.3,65.0 L113.2,64.4 L113.1,64.0 L113.1,63.6 L113.1,62.8 L113.1,62.3 L113.1,62.1 L113.0,61.8 L113.0,61.4 L113.1,60.6 L113.2,60.2 L113.3,59.7 L113.3,59.3 L113.5,59.0 L113.7,58.7 L113.7,58.5 L113.7,58.4 L113.5,58.0 L113.5,57.7 L113.5,57.3 L113.6,56.9 L113.8,56.2 L113.8,56.1 L113.9,55.9 L114.0,55.7 L114.0,54.8 L114.0,54.7 L113.6,53.8 L113.2,53.2 L112.7,52.7 L112.5,52.5 L112.5,52.3 L112.4,51.7 L112.0,50.2 L111.8,50.1 L111.7,49.8 L111.2,47.7 L111.0,47.4 L110.5,46.8 L109.8,46.3 L109.6,46.2 L109.5,46.0 L109.1,45.1 L109.0,44.6 L109.0,44.2 L108.9,44.0 L108.5,43.5 L108.2,43.2 L107.8,42.8 L107.6,42.4 L107.5,42.0 L107.4,41.9 L107.2,41.9 L106.2,40.9 L105.9,40.6 L105.8,40.4 L105.8,39.8 L105.7,39.3 L105.7,39.1 L105.4,38.6 L105.3,38.5 L105.3,38.4 L105.4,38.3 L105.6,37.9 L105.9,37.4 L105.9,37.3 L105.9,37.1 L105.9,36.9 L105.9,36.7 L106.1,35.8 L106.2,35.4 L106.2,35.3 L106.1,34.9 L106.0,34.2 L106.0,34.0 L106.0,33.9 L106.6,32.7 L107.0,32.3 L107.2,32.1 L107.5,31.6 L107.6,31.6 L107.6,31.6 L107.7,31.6 L107.7,31.7 L107.7,31.8 L107.8,31.9 L107.9,32.0 L108.0,32.1 L108.1,32.1 L108.2,32.1 L108.2,32.2 L108.2,32.4 L108.2,32.5 L108.3,32.6 L108.5,32.8 L108.8,32.9 L109.0,33.0 L109.1,33.2 L109.2,33.4 L109.3,33.5 L109.3,33.5 L109.4,33.5 L109.4,32.9 L109.3,32.8 L109.3,32.5 L110.5,32.1 L110.6,31.9 L110.5,31.7 L110.3,31.5 L109.9,31.1 L109.8,30.8 L109.6,30.4 L109.6,30.0 L109.7,29.6 L109.8,29.4 L109.7,29.2 L109.3,28.7 L109.2,28.6 L109.3,28.1 L109.0,27.6 L108.9,27.5 L108.8,27.0 L108.5,26.4 L108.6,26.3 L108.9,26.2 L109.2,26.0 L110.4,25.8 L111.0,25.3 L111.2,25.1 L111.4,24.9 L111.6,24.8 L111.7,24.5 L111.7,24.4 L111.8,24.0 L111.8,23.4 L111.8,22.8 L111.8,22.5 L111.7,22.2 L111.8,21.7 L111.8,21.3 L111.8,21.1 L111.7,21.0 L111.7,20.6 L111.9,20.5 L112.4,20.2 L112.5,20.1 L112.9,19.7 L113.0,19.6 L113.2,19.5 L113.5,19.4 L114.2,19.2 L114.3,19.2 L114.7,19.2 L114.8,19.2 L115.2,19.5 L115.3,19.5 L115.4,19.5 L115.5,19.5 L115.6,19.4 L115.6,19.0 L115.6,18.6 L115.5,18.4 L115.4,18.2 L114.5,17.4 L114.3,17.2 L114.1,17.1 L113.9,17.0 L113.7,16.9 L113.6,16.9 L113.4,16.8 L113.3,16.7 L113.2,16.4 L113.2,16.3 L113.3,16.2 L113.5,16.0 L113.7,16.0 L114.5,15.8 L115.0,15.6 L116.1,15.4 L116.3,15.3 L116.4,15.3 L116.5,15.2 L116.6,15.2 L117.5,15.8 L117.7,15.8 L118.0,15.6 L118.6,15.7 L119.1,15.7 L119.4,15.8 L119.7,16.0 L120.2,16.5 L120.3,16.6 L120.3,16.7 L120.3,17.2 L120.4,17.5 L120.5,17.9 L120.7,18.0 L120.7,18.0 L120.8,17.9 L120.8,17.8 L121.0,17.5 L121.1,17.4 L121.3,17.3 L122.1,16.9 L122.4,16.9 L122.5,16.9 L122.6,16.9 L122.9,17.0 L123.0,17.0 L123.1,17.0 L123.2,16.9 L123.5,16.6 L123.6,16.5 L123.7,16.3 L123.7,16.1 L123.8,15.7 L123.8,15.5 L123.9,15.1 L124.0,14.9 L124.2,14.8 L124.3,14.7 L124.4,14.7 L124.8,14.7 L124.9,14.6 L125.2,14.6 L125.6,15.1 L125.9,15.4 L126.4,15.5 L126.5,15.6 L126.6,15.8 L126.6,16.2 L126.6,16.4 L126.7,17.1 L126.8,17.3 L126.9,17.5 L127.2,17.8 L127.4,17.9 L127.7,17.8 L128.2,17.7 L128.4,17.7 L129.1,17.6 L130.0,17.1 L130.2,17.1 L130.3,17.0 L130.8,16.4 L131.1,16.1 L132.3,14.6 L133.0,14.0 L133.2,13.7 L133.7,13.0 L133.9,12.2 L134.0,12.1 L134.1,12.1 L134.3,12.0 L134.7,11.9 L134.9,11.7 L135.1,11.6 L135.3,11.5 L135.4,11.5 L135.5,11.6 L135.5,11.6 L135.7,11.7 L135.8,11.9 L135.9,12.4 L136.0,12.6 L136.1,12.7 L136.5,12.8 L136.9,12.9 L137.1,12.9 L137.6,12.4 L137.9,12.2 L138.2,12.1 L138.4,11.9 L138.6,11.8 L138.7,11.6 L138.7,11.4 L138.6,9.7 L138.6,8.8 L138.6,8.1 L138.7,7.6 L138.9,7.3 L139.1,7.0 L139.5,6.5 L139.8,6.3 L140.1,6.2 L140.4,6.1 L140.7,6.1 L140.9,6.1 L141.4,6.3 L141.6,6.3 L142.1,6.3 L142.3,6.3 L142.7,6.2 L142.9,5.4 L143.0,5.1 L143.0,4.8 L143.0,4.4 L143.0,4.2 L143.0,3.9 L143.4,3.2 L144.7,2.1 L145.4,1.8 L145.9,1.6 L146.1,1.5 L146.4,1.5 L146.6,1.5 L147.1,1.7 L147.4,1.8 L147.6,2.0 L147.7,2.2 L147.6,2.6 L147.4,2.9 L147.3,3.1 L147.1,3.3 L147.1,3.5 L147.1,3.6 L147.2,3.7 L147.4,3.8 L148.1,4.2 L148.3,4.3 L149.4,4.4 L149.5,4.4 L149.6,4.3 L149.7,4.2 L149.5,3.7 L149.5,3.4 L149.5,3.2 L149.4,3.1 L149.4,2.9 L149.5,2.5 L149.7,2.2 L149.7,2.0 L149.6,1.7 L149.7,1.5 L149.8,1.3 L149.9,1.2 L150.5,1.5 L150.7,1.6 L150.8,1.8 L151.0,1.9 L151.3,1.9 L151.4,1.9 L151.8,2.0 L152.1,2.1 L152.5,2.1 L152.9,2.0 L153.6,2.2 L154.1,2.2 L154.3,2.2 L154.4,2.0 L154.7,1.9 L154.9,2.0 L155.0,2.1 L154.9,2.2 L154.8,2.3 L154.6,2.6 L154.1,2.8 L153.9,2.9 L153.7,3.0 L153.5,3.0 L152.9,3.1 L152.8,3.2 L152.8,3.2 L152.8,3.3 L152.9,3.4 L153.0,3.5 L153.1,3.4 L153.6,3.5 L154.1,3.5 L154.5,3.5 L154.7,3.4 L155.4,3.1 L156.1,3.1 L156.4,3.1 L157.1,3.0 L157.2,3.0 L157.3,3.0 L157.6,3.3 L158.1,3.5 L158.6,3.8 L158.8,3.8 L159.3,3.9 L159.5,3.9 L159.7,3.9 L160.0,4.1 L160.5,4.5 L160.5,4.5 L160.9,4.9 L161.3,5.3 L161.6,5.5 L162.0,5.7 L162.7,5.8 L163.1,6.1 L163.4,6.3 L163.5,6.5 L163.8,6.9 L164.2,7.0 L164.9,7.3 L165.5,7.5 L166.6,7.7 L166.8,7.8 L167.0,8.2 L167.2,8.3 L167.3,8.4 L167.5,8.6 L168.6,9.3 L169.5,9.8 L169.6,9.8 L169.9,9.7 L170.0,9.7 L170.7,9.8 L171.1,10.0 L171.1,9.9 L171.2,9.9 L171.3,9.9 L171.3,9.9 L171.6,10.3 L171.6,10.4 L171.7,10.6 L171.7,10.8 L171.8,10.9 L172.1,11.3 L172.6,12.1 L172.6,12.2 L172.7,12.4 L172.7,12.6 L172.6,13.0 L172.7,13.2 L172.8,13.4 L172.9,13.5 L173.1,13.7 L173.2,13.9 L173.5,14.1 L173.6,14.2 L173.7,14.4 L173.7,14.7 L173.8,14.9 L173.9,15.1 L174.2,15.6 L174.3,15.7 L174.7,16.1 L174.7,16.2 L174.8,16.3 L174.8,16.4 L175.0,16.4 L175.4,16.5 L175.8,16.7 L176.2,16.7 L176.4,16.7 L176.6,16.6 L176.8,16.6 L177.0,16.5 L177.3,16.3 L177.4,16.1 L177.6,15.8 L177.7,15.6 L178.1,14.9 L178.2,14.8 L178.7,14.8 L178.9,14.7 L179.0,14.7 L179.3,14.4 L179.6,13.9 L180.2,13.3 L180.6,12.8 L180.8,12.7 L181.2,12.5 L181.6,12.4 L181.7,12.3 L182.0,12.2 L182.4,11.8 L182.9,11.3 L183.1,11.1 L183.3,10.8 L183.4,10.5 L183.5,10.3 L184.6,9.1 L184.7,9.0 L184.9,8.8 L185.0,8.6 L185.2,8.4 L185.3,8.3 L185.6,8.2 L186.0,8.2 L186.3,8.1 L186.6,8.0 L187.0,7.7 L187.2,7.6 L187.3,7.6 L187.7,7.6 L187.9,7.6 L188.6,7.8 L188.7,7.8 L188.8,7.8 L189.2,7.9 L189.9,8.1 L190.0,8.1 L190.3,8.1 L190.6,8.1 L191.8,7.8 L192.0,7.7 L192.3,7.6 L192.9,7.2 L193.7,6.4 L194.0,6.1 L194.4,5.9 L195.1,5.6 L195.4,5.4 L195.5,5.4 L195.7,5.2 L196.2,4.6 L196.4,4.5 L196.6,4.3 L196.8,4.3 L197.2,4.2 L197.7,4.2 L197.9,4.2 L198.6,4.3 L199.0,4.3 L199.2,4.2 L199.5,4.0 L199.6,3.9 L199.9,3.3 L200.1,3.1 L200.2,3.1 L200.2,3.1 L200.5,2.9 L201.5,2.3 L201.5,2.3 L201.7,2.2 L201.7,2.1 L202.6,1.6 L202.7,1.5 L203.0,1.3 L204.0,0.1 L204.1,0.0" fill="transparent" id="track" stroke="black" stroke-width="2"/>
<g>
<circle cx="159.918" cy="287.165" id="wp-36/circle" r="4.000"/>
<text font-size="16.0" id="wp-36/text" text-anchor="start" x="162.308" y="305.165">
K1
</text>
<circle cx="91.161" cy="75.463" id="wp-119/circle" r="4.000"/>
<text font-size="16.0" id="wp-119/text" text-anchor="start" x="73.550" y="68.463">
K2
</text>
<circle cx="338.849" cy="378.574" fill="Gray" id="wp-2/circle" r="5.000"/>
<text font-size="16.0" id="wp-1/text" text-anchor="start" x="335.628" y="396.574">
Donaueschingen
</text>
<circle cx="309.192" cy="399.922" fill="Gray" id="wp-3/circle" r="5.000"/>
<text font-size="16.0" id="wp-2/text" text-anchor="start" x="233.886" y="417.922">
Bräunlingen
</text>
<circle cx="78.451" cy="170.998" fill="Gray" id="wp-4/circle" r="5.000"/>
<text font-size="16.0" id="wp-4/text" text-anchor="start" x="82.230" y="168.998">
Elzach
</text>
<circle cx="177.041" cy="214.469" fill="Gray" id="wp-5/circle" r="5.000"/>
<text font-size="16.0" id="wp-5/text" text-anchor="start" x="173.167" y="232.469">
Triberg
</text>
<circle cx="160.917" cy="286.825" fill="Gray" id="wp-6/circle" r="5.000"/>
<text font-size="16.0" id="wp-6/text" text-anchor="start" x="168.885" y="284.825">
Furtwangen
</text>
<circle cx="360.348" cy="315.211" fill="Gray" id="wp-7/circle" r="5.000"/>
<text font-size="16.0" id="wp-7/text" text-anchor="start" x="363.958" y="313.211">
Bad Dürrheim
</text>
<circle cx="89.014" cy="77.749" fill="Gray" id="wp-8/circle" r="5.000"/>
<text font-size="16.0" id="wp-8/text" text-anchor="start" x="-50.428" y="95.749">
Haslach im Kinzigtal
</text>
<circle cx="143.169" cy="72.151" fill="Gray" id="wp-9/circle" r="5.000"/>
<text font-size="16.0" id="wp-9/text" text-anchor="start" x="147.453" y="80.151">
Hausach
</text>
<circle cx="76.369" cy="11.781" fill="Gray" id="wp-10/circle" r="5.000"/>
<text font-size="16.0" id="wp-10/text" text-anchor="start" x="-71.315" y="29.781">
Zell am Harmersbach
</text>
<circle cx="172.648" cy="58.658" fill="Gray" id="wp-11/circle" r="5.000"/>
<text font-size="16.0" id="wp-11/text" text-anchor="start" x="178.563" y="56.658">
Wolfach
</text>
<circle cx="247.100" cy="67.112" fill="Gray" id="wp-12/circle" r="5.000"/>
<text font-size="16.0" id="wp-12/text" text-anchor="start" x="243.637" y="85.112">
Schiltach
</text>
<circle cx="177.414" cy="137.838" fill="Gray" id="wp-13/circle" r="5.000"/>
<text font-size="16.0" id="wp-13/text" text-anchor="start" x="182.435" y="145.838">
Hornberg
</text>
<circle cx="139.064" cy="297.228" fill="Blue" id="wp-14/circle" r="3.000"/>
<text font-size="16.0" id="wp-2/text" text-anchor="start" x="21.127" y="315.228">
Passhöhe Neueck
</text>
<circle cx="155.324" cy="252.465" fill="Blue" id="wp-15/circle" r="3.000"/>
<text font-size="16.0" id="wp-4/text" text-anchor="start" x="160.282" y="255.465">
Passhöhe Escheck
</text>
<circle cx="155.682" cy="202.333" fill="Gray" id="wp-16/circle" r="3.000"/>
<text font-size="16.0" id="wp-0/text" text-anchor="start" x="160.966" y="200.333">
Schonach
</text>
<circle cx="104.079" cy="67.860" fill="Gray" id="wp-17/circle" r="3.000"/>
<text font-size="16.0" id="wp-1/text" text-anchor="start" x="18.732" y="50.860">
Fischerbach
</text>
<circle cx="103.195" cy="99.016" fill="Gray" id="wp-18/circle" r="3.000"/>
<text font-size="16.0" id="wp-2/text" text-anchor="start" x="106.848" y="97.016">
Mühlenbach
</text>
</g>
<g/>
</svg>