<svg height="400" viewBox="(0, 0, 400, 400)" width="400" xmlns="http://www.w3.org/2000/svg">
<path d="M285.5,380.0 L285.1,379.7 L284.9,379.5 L284.5,379.4 L283.8,379.3 L283.5,379.2 L282.9,378.9 L282.8,378.8 L281.9,378.1 L281.2,377.6 L280.8,377.4 L280.7,377.4 L280.6,377.2 L280.6,377.0 L279.6,376.6 L279.4,376.6 L279.1,376.7 L278.7,376.8 L277.9,377.2 L277.8,377.3 L277.7,377.2 L277.6,377.0 L277.5,377.0 L277.4,377.0 L276.6,377.3 L276.3,377.3 L276.1,377.3 L275.9,377.2 L275.6,377.0 L275.1,376.4 L275.1,376.4 L275.0,376.3 L274.8,375.8 L274.7,375.4 L274.7,375.2 L274.8,374.9 L274.8,374.6 L274.9,374.3 L274.9,374.1 L274.8,373.6 L274.7,373.4 L274.4,373.0 L274.2,372.9 L273.8,372.5 L273.8,372.5 L273.8,372.4 L273.7,372.4 L273.6,372.4 L273.4,372.3 L273.1,372.1 L272.9,371.9 L272.7,371.6 L272.6,371.5 L272.4,371.1 L272.3,370.7 L272.2,370.3 L272.2,370.0 L272.2,369.9 L272.2,369.6 L272.2,369.4 L272.1,369.2 L272.1,368.9 L272.1,368.8 L272.0,368.7 L271.9,368.3 L271.6,367.4 L271.3,366.9 L271.3,366.7 L271.2,366.3 L271.0,365.9 L270.6,365.2 L270.6,365.1 L270.4,364.6 L270.2,364.0 L270.0,363.9 L269.9,363.8 L269.6,363.8 L269.3,363.1 L269.1,362.4 L269.1,362.0 L269.2,361.7 L269.2,361.6 L269.4,361.5 L269.9,361.1 L270.4,360.8 L271.2,360.1 L271.6,359.9 L271.8,359.8 L272.1,359.9 L272.4,359.4 L272.5,359.3 L272.8,359.2 L273.1,359.1 L273.2,359.0 L273.3,358.8 L273.3,358.5 L273.3,358.2 L273.3,358.1 L273.3,358.1 L273.2,358.0 L273.0,357.8 L272.8,357.8 L272.5,357.8 L272.0,358.1 L271.8,358.1 L271.5,358.1 L271.1,358.1 L270.7,358.1 L270.5,358.1 L269.5,358.6 L269.3,358.6 L269.0,358.6 L268.6,358.5 L268.0,358.2 L267.7,357.9 L267.4,357.5 L267.2,357.3 L267.0,357.2 L266.4,357.1 L266.2,357.0 L266.1,356.9 L265.5,356.1 L265.2,355.7 L265.1,355.7 L264.9,355.9 L264.9,355.9 L264.6,355.9 L262.3,355.6 L261.3,355.7 L260.7,355.6 L260.0,355.7 L259.1,355.9 L258.6,355.9 L257.8,356.1 L256.9,356.5 L255.8,355.5 L255.6,355.2 L255.2,354.9 L254.5,354.6 L252.5,353.6 L251.4,353.2 L250.6,353.0 L250.2,353.0 L248.4,352.7 L247.9,352.5 L247.4,352.3 L245.2,352.0 L243.8,351.5 L243.6,351.5 L243.3,351.5 L242.9,351.5 L242.3,351.4 L241.9,351.1 L241.1,350.2 L240.0,349.1 L239.2,348.2 L238.6,347.2 L238.2,346.1 L238.2,345.2 L238.1,345.2 L238.0,345.1 L237.8,344.9 L237.7,344.9 L237.6,344.8 L237.5,344.8 L237.3,344.6 L237.2,344.5 L237.1,344.2 L237.0,343.9 L237.0,343.8 L236.8,343.3 L236.7,343.1 L236.4,342.3 L236.2,342.0 L236.1,341.7 L235.8,341.4 L235.6,340.9 L235.4,340.4 L235.1,339.9 L234.9,339.5 L234.7,339.1 L234.6,339.1 L234.5,339.0 L234.4,338.9 L234.3,338.8 L234.2,338.8 L233.7,338.3 L233.5,338.1 L233.3,337.9 L233.2,337.8 L232.8,337.4 L232.7,337.3 L232.5,336.4 L232.3,336.3 L232.0,336.3 L231.8,336.3 L231.7,336.3 L231.4,336.5 L231.3,336.3 L231.2,335.9 L230.9,335.2 L230.6,334.4 L230.3,333.3 L230.3,332.8 L229.3,331.3 L228.9,330.9 L228.6,330.7 L227.6,330.3 L227.0,330.2 L226.4,330.1 L226.3,330.0 L225.9,329.9 L225.5,329.6 L225.3,329.5 L225.2,329.5 L225.1,329.4 L224.6,329.4 L223.3,329.4 L223.3,329.3 L223.3,329.2 L223.3,329.0 L223.4,328.8 L223.1,328.7 L222.3,328.6 L222.0,328.6 L221.8,328.6 L220.9,328.5 L220.8,328.4 L220.5,328.3 L220.3,328.0 L220.2,328.0 L220.1,328.0 L220.1,327.9 L219.9,327.9 L219.9,327.9 L219.8,327.9 L219.8,328.0 L219.6,327.9 L218.6,327.0 L218.5,326.9 L218.4,326.9 L218.4,327.0 L218.3,327.0 L218.1,327.1 L217.8,327.1 L217.8,327.1 L217.7,327.0 L217.6,327.0 L217.4,327.0 L217.3,327.0 L216.3,327.4 L216.1,327.6 L216.0,327.6 L215.9,327.6 L215.5,327.7 L215.3,327.8 L215.0,327.8 L214.4,328.1 L214.4,328.2 L214.3,328.2 L214.0,328.3 L213.8,328.4 L213.7,328.4 L213.5,328.5 L213.4,328.5 L213.3,328.4 L212.6,328.2 L211.5,328.0 L211.4,328.0 L210.3,328.0 L210.1,328.0 L210.1,327.7 L210.1,327.2 L210.1,327.1 L210.0,327.1 L210.0,327.1 L210.0,327.3 L209.5,327.3 L209.5,327.2 L209.2,327.4 L209.0,327.1 L208.7,327.0 L207.8,326.4 L207.2,326.9 L206.7,327.5 L206.1,328.1 L206.0,328.0 L205.9,328.0 L205.8,328.0 L205.7,328.0 L205.5,328.1 L204.7,328.8 L204.1,329.2 L204.0,329.1 L203.6,328.8 L203.5,328.6 L203.3,328.8 L202.8,329.4 L201.9,330.1 L201.7,330.2 L201.6,330.2 L200.1,329.5 L199.9,329.4 L199.0,329.0 L198.2,328.6 L196.4,327.3 L195.6,328.2 L194.8,329.6 L194.2,330.5 L194.2,330.7 L193.6,331.3 L193.0,332.1 L192.8,332.4 L192.7,332.5 L192.7,332.5 L190.9,330.8 L190.8,330.8 L190.6,330.7 L189.1,329.7 L186.1,327.7 L184.6,326.8 L183.1,325.9 L181.7,325.1 L181.6,325.1 L181.4,325.1 L181.4,325.1 L181.3,325.0 L179.2,323.9 L177.4,323.0 L177.3,323.0 L177.2,323.0 L176.9,322.8 L175.5,322.1 L175.2,322.0 L175.1,322.0 L175.0,322.1 L174.9,322.1 L174.9,322.0 L174.9,321.9 L174.8,321.9 L174.6,321.8 L174.5,321.6 L174.0,321.2 L174.0,321.2 L173.9,321.3 L173.4,320.9 L173.4,320.8 L173.3,320.9 L172.9,320.6 L172.6,320.3 L172.5,320.2 L172.4,320.2 L172.3,320.1 L171.9,319.7 L171.9,319.7 L171.4,319.4 L171.2,319.2 L171.2,319.1 L171.3,319.0 L170.3,318.3 L168.7,317.1 L168.3,316.8 L167.9,316.6 L167.4,316.5 L166.5,316.2 L166.2,316.1 L166.2,316.1 L165.6,315.9 L165.5,315.9 L165.2,315.8 L164.9,315.8 L164.7,315.7 L164.4,315.7 L164.4,315.7 L164.1,315.7 L164.0,315.6 L163.6,315.4 L163.3,315.1 L162.7,314.7 L162.5,314.6 L162.0,314.0 L161.6,313.6 L161.4,313.4 L161.4,313.3 L161.3,313.2 L161.3,313.0 L161.3,312.0 L161.5,311.4 L161.8,310.5 L161.8,310.1 L161.9,309.8 L162.4,309.2 L162.5,309.0 L162.6,307.9 L162.5,306.1 L162.3,305.6 L161.9,305.0 L161.4,304.1 L160.8,303.3 L160.5,302.5 L160.4,301.9 L160.4,301.2 L160.3,300.8 L160.2,300.6 L160.0,300.3 L159.6,299.7 L159.3,299.3 L159.2,299.0 L159.0,298.6 L158.9,298.4 L158.9,297.8 L158.7,297.8 L158.6,297.2 L158.2,296.0 L158.1,295.2 L158.0,294.4 L157.9,294.0 L158.0,293.1 L158.1,292.2 L158.3,291.9 L158.4,291.6 L158.7,291.4 L158.8,291.3 L158.9,291.3 L158.9,291.2 L158.9,291.1 L158.8,291.0 L158.7,291.0 L158.6,291.0 L158.4,291.0 L158.3,290.9 L157.6,290.4 L156.7,289.6 L156.5,289.5 L156.0,289.1 L155.5,288.7 L154.8,288.4 L154.1,288.0 L153.0,287.6 L151.2,287.0 L148.8,286.3 L148.2,286.1 L147.6,285.9 L146.9,285.7 L145.3,285.0 L144.8,284.8 L144.6,284.7 L144.5,284.7 L142.6,284.1 L141.2,283.6 L139.6,283.1 L138.2,282.7 L137.8,282.5 L137.4,282.3 L136.4,282.0 L132.3,280.6 L129.0,279.5 L128.7,279.4 L125.5,278.4 L125.0,278.2 L124.6,277.9 L124.3,277.7 L123.9,277.3 L123.7,277.0 L123.6,276.8 L123.4,276.6 L121.7,274.2 L121.2,273.7 L120.9,273.3 L120.8,273.1 L120.8,273.1 L120.6,273.1 L120.2,272.8 L120.1,272.7 L120.0,272.6 L119.5,272.2 L118.9,271.7 L118.6,271.4 L118.2,270.9 L117.5,270.0 L117.5,270.0 L117.0,269.5 L116.2,268.7 L115.5,268.0 L115.2,267.8 L114.5,267.1 L114.9,266.6 L115.5,266.1 L115.9,265.6 L116.3,265.1 L116.6,264.6 L117.0,264.1 L117.0,264.0 L117.1,263.9 L117.2,263.9 L117.7,263.8 L117.9,263.8 L118.1,263.7 L118.3,263.6 L118.5,263.2 L118.8,262.8 L119.0,262.6 L119.2,262.4 L119.4,262.3 L119.7,262.2 L120.5,262.0 L120.7,262.1 L120.8,262.2 L120.9,262.2 L121.2,262.4 L121.6,261.7 L122.0,261.4 L122.3,261.2 L123.2,260.8 L124.6,260.1 L125.5,259.7 L126.0,259.5 L127.3,259.1 L127.4,259.0 L128.8,258.7 L129.3,258.5 L131.3,257.7 L131.6,257.7 L133.0,257.6 L133.2,257.6 L133.1,257.4 L133.2,257.1 L133.3,256.8 L133.5,256.4 L133.7,256.0 L134.7,254.7 L137.0,252.9 L139.1,251.0 L139.3,250.9 L142.0,250.3 L142.1,250.3 L142.3,250.1 L143.0,249.5 L143.7,249.0 L143.9,248.9 L144.1,248.8 L144.6,248.7 L149.3,247.3 L149.4,247.3 L149.6,247.1 L151.3,243.0 L152.9,238.9 L153.1,238.5 L154.0,236.6 L154.9,234.8 L155.5,233.9 L156.4,232.2 L156.4,232.0 L156.4,231.9 L156.4,231.9 L156.5,231.8 L156.5,231.8 L156.7,231.6 L156.9,231.4 L157.0,231.3 L157.5,231.2 L157.9,231.1 L158.3,230.8 L158.5,230.6 L158.8,230.3 L159.1,229.7 L159.3,229.2 L159.8,228.3 L159.9,228.0 L159.9,227.8 L159.9,227.5 L159.4,226.2 L159.4,225.9 L160.1,217.6 L160.1,217.4 L160.2,216.1 L160.1,215.7 L159.2,214.3 L158.0,212.8 L155.7,209.9 L155.4,209.5 L155.2,209.3 L155.1,208.9 L155.2,208.0 L155.4,207.3 L155.6,206.8 L156.0,206.5 L156.4,206.3 L158.9,205.7 L159.3,205.5 L159.5,205.4 L160.1,204.7 L160.6,204.3 L160.9,203.8 L161.3,203.6 L161.6,203.4 L162.0,203.2 L162.6,203.0 L162.9,202.9 L163.2,202.4 L163.8,201.8 L164.2,201.4 L164.4,201.1 L164.9,200.1 L165.2,199.7 L165.5,199.4 L165.7,199.3 L166.7,198.8 L167.6,198.4 L167.7,198.3 L168.0,197.8 L168.3,197.5 L168.6,197.0 L168.7,196.7 L168.7,196.2 L168.9,196.0 L169.2,195.7 L169.6,195.4 L170.1,194.9 L170.3,194.7 L170.5,194.3 L170.8,193.6 L170.9,193.4 L171.0,193.5 L171.1,193.3 L171.5,193.4 L172.0,193.6 L173.0,194.2 L174.2,194.8 L174.4,194.9 L174.7,194.9 L175.0,194.9 L175.3,194.7 L175.7,194.2 L175.9,194.3 L177.4,194.8 L177.8,194.9 L177.9,195.0 L178.1,194.9 L178.2,194.8 L178.6,194.3 L178.8,193.9 L179.2,192.8 L180.6,190.7 L180.7,190.5 L180.9,190.1 L180.9,189.9 L181.0,189.0 L181.0,188.7 L181.3,188.1 L184.6,183.6 L184.9,183.3 L185.2,183.1 L185.5,182.9 L187.1,182.2 L187.5,182.0 L187.8,181.7 L188.1,181.5 L188.4,181.0 L190.6,178.0 L192.3,175.6 L192.5,175.2 L192.8,173.9 L192.9,173.7 L193.7,172.5 L194.0,172.2 L194.7,171.6 L194.9,171.4 L195.1,171.2 L196.2,169.0 L198.2,165.0 L199.1,163.1 L201.0,158.9 L201.3,157.9 L201.4,157.7 L201.4,157.7 L201.4,157.4 L201.4,157.0 L201.3,156.9 L200.9,156.4 L200.8,156.3 L200.7,156.2 L200.5,156.2 L200.4,156.3 L200.3,156.4 L199.7,157.7 L199.6,157.8 L199.5,157.9 L199.3,157.9 L199.1,157.8 L198.0,157.5 L197.8,157.3 L197.7,157.2 L197.7,157.1 L197.3,156.8 L196.4,156.6 L196.0,155.8 L196.1,155.6 L195.9,155.6 L195.8,155.3 L195.9,155.2 L195.9,155.1 L195.8,155.0 L195.7,154.8 L195.7,154.4 L195.7,154.2 L196.9,150.9 L197.0,150.3 L197.0,150.0 L197.2,149.7 L197.3,149.6 L197.2,149.3 L197.7,148.5 L198.0,147.6 L198.1,147.4 L199.3,145.9 L199.4,145.6 L199.5,145.3 L199.4,145.0 L199.3,144.4 L199.3,143.9 L199.3,143.8 L199.5,143.7 L199.5,143.5 L199.5,143.4 L199.4,143.4 L199.3,143.2 L199.4,142.4 L199.3,141.0 L199.4,140.4 L199.9,137.5 L200.4,135.5 L200.6,134.9 L200.8,134.5 L201.0,134.2 L201.0,134.2 L201.1,134.1 L201.3,134.0 L201.3,133.9 L201.3,133.8 L201.2,133.7 L201.1,133.6 L201.1,133.5 L201.0,133.2 L201.0,132.6 L200.9,132.2 L200.9,132.2 L200.6,130.7 L200.6,130.4 L200.7,129.5 L200.7,129.4 L200.7,129.2 L200.6,129.2 L200.4,129.1 L200.2,129.0 L200.1,128.9 L199.8,128.5 L199.8,128.4 L199.6,128.1 L199.6,128.0 L199.6,128.0 L199.4,127.6 L199.4,127.5 L199.4,127.5 L199.4,127.4 L199.9,126.7 L200.4,125.8 L201.0,124.9 L201.0,124.8 L201.0,123.9 L201.1,123.6 L201.1,123.1 L201.1,123.0 L201.0,122.8 L200.9,122.6 L200.9,122.6 L200.8,122.4 L200.8,122.4 L200.7,122.3 L200.6,122.2 L200.4,121.8 L200.3,121.6 L200.2,121.2 L200.0,120.6 L199.8,120.5 L199.3,120.2 L199.2,120.2 L198.9,119.9 L198.8,119.9 L198.7,119.8 L198.8,119.6 L198.9,119.4 L198.9,119.3 L198.9,119.1 L199.0,118.8 L199.0,118.4 L199.0,118.2 L199.0,118.1 L199.1,117.8 L199.1,117.7 L199.1,117.5 L199.1,117.5 L199.1,117.4 L199.1,117.2 L199.1,117.2 L199.2,117.1 L199.4,117.0 L200.7,116.4 L201.4,116.1 L201.6,116.0 L201.7,116.1 L201.7,116.1 L201.8,116.1 L201.9,116.0 L202.0,115.9 L201.9,115.7 L202.1,115.5 L202.7,115.1 L203.5,114.3 L208.4,110.1 L210.4,108.2 L210.7,108.0 L210.8,107.9 L211.2,107.5 L214.5,104.7 L214.6,104.6 L216.8,102.6 L217.3,102.2 L218.1,101.5 L218.9,100.8 L221.3,98.6 L221.9,98.0 L222.0,97.8 L222.2,97.6 L222.6,96.9 L225.9,90.4 L226.7,88.9 L227.2,87.9 L228.4,85.4 L230.8,80.8 L231.0,80.5 L231.6,79.3 L232.6,77.7 L232.9,77.0 L233.1,76.5 L233.2,76.0 L233.6,72.5 L233.7,72.0 L234.0,71.3 L234.2,70.8 L234.6,70.1 L235.3,69.4 L235.8,69.0 L236.3,68.7 L237.3,68.1 L237.8,67.8 L238.6,67.4 L239.0,67.3 L240.2,67.0 L240.4,66.9 L240.7,66.8 L241.0,66.6 L241.3,66.4 L241.6,66.2 L241.8,65.9 L242.2,65.4 L242.6,64.9 L242.9,64.6 L243.3,64.3 L243.8,64.0 L244.4,63.7 L244.9,63.6 L244.9,63.7 L245.9,63.3 L246.4,63.2 L246.9,63.0 L247.9,62.5 L248.5,62.2 L248.7,62.2 L248.9,62.3 L249.0,62.4 L249.0,62.4 L249.1,62.4 L249.2,62.3 L249.2,62.2 L249.3,62.1 L249.7,62.1 L250.0,62.1 L250.1,62.1 L250.1,62.0 L250.5,61.9 L250.8,61.8 L250.9,61.7 L251.1,61.5 L251.3,61.0 L251.5,60.8 L251.8,60.1 L252.1,59.8 L252.4,59.6 L252.8,59.5 L253.5,59.2 L253.6,59.2 L254.2,58.9 L254.5,58.8 L254.7,58.7 L255.6,58.0 L256.4,57.3 L256.9,57.0 L257.3,56.9 L257.4,56.9 L258.0,56.9 L258.8,56.9 L259.9,57.1 L260.1,57.1 L260.1,56.9 L260.2,56.5 L260.2,56.4 L260.5,54.9 L260.6,54.3 L261.1,53.3 L261.1,53.3 L261.0,53.3 L261.2,53.0 L261.2,52.7 L261.3,52.5 L261.4,52.4 L262.0,50.0 L262.2,49.3 L262.4,48.9 L263.5,47.7 L263.8,47.2 L264.9,46.0 L265.0,45.8 L265.1,45.7 L265.1,45.5 L265.1,45.3 L264.8,42.4 L264.7,41.3 L264.7,41.0 L264.8,40.5 L264.8,40.3 L264.7,40.3 L264.8,40.2 L264.9,40.0 L264.9,39.9 L264.9,39.6 L264.9,39.5 L265.1,39.3 L265.5,38.1 L265.6,37.7 L265.7,37.6 L265.9,37.1 L266.0,36.8 L266.0,36.4 L265.9,36.3 L266.0,36.3 L266.1,36.1 L266.1,35.6 L266.1,34.8 L266.1,34.0 L266.2,33.5 L266.3,33.2 L266.3,33.2 L266.5,32.9 L266.8,32.4 L267.1,31.8 L267.4,31.2 L267.5,30.9 L267.6,30.6 L267.6,30.3 L267.7,30.3 L267.7,30.2 L267.8,30.2 L267.9,30.1 L268.0,29.7 L268.3,28.9 L268.7,28.4 L268.9,28.1 L268.8,28.1 L268.3,27.9 L268.4,27.8 L268.4,27.6 L268.6,27.3 L268.9,27.1 L269.1,27.0 L269.2,26.9 L269.3,26.7 L269.4,26.5 L269.9,26.3 L270.0,26.3 L270.1,26.1 L270.4,26.2 L270.5,26.2 L270.7,26.1 L270.7,26.1 L270.8,26.0 L270.9,26.0 L271.0,25.9 L271.2,25.6 L271.3,25.5 L271.5,24.9 L271.6,24.3 L271.6,24.2 L271.6,23.9 L271.4,23.6 L271.4,23.5 L271.3,23.3 L271.3,23.2 L271.2,23.0 L271.1,22.8 L271.0,22.7 L270.7,21.9 L270.7,21.8 L270.6,21.6 L270.2,21.2 L269.5,20.5 L269.4,20.3 L269.3,20.1 L269.3,20.0" fill="transparent" id="track" stroke="black" stroke-linejoin="miter" stroke-miterlimit="1" stroke-width="2"/>
<g>
<g>
<circle cx="269.3377867608415" cy="20.070391492990893" fill="Blue" id="0/wp/circle" r="5"/>
</g>
<g transform="translate(269.3377867608415 20.070391492990893)">
<rect fill="white" fill-opacity="0.75" height="12" id="label-bg" width="71.22105263157896" x="4" y="-16"/>
<text font-size="16.0" id="0/wp/text" text-anchor="start" x="4.000" y="-4.000">
K4 (00:54)
</text>
</g>
<g>
<circle cx="164.38878236954588" cy="201.05299509908218" fill="Black" id="1/wp/circle" r="3"/>
</g>
<g transform="translate(164.38878236954588 201.05299509908218)">
<rect fill="white" fill-opacity="0.75" height="12" id="label-bg" width="36.73684210526316" x="-40.73684210526316" y="-16"/>
<text font-size="16.0" id="1/wp/text" text-anchor="end" x="-4.000" y="-4.000">
23:28
</text>
</g>
<g>
<circle cx="200.6592495420764" cy="116.44136592644645" fill="Black" id="2/wp/circle" r="3"/>
</g>
<g transform="translate(200.6592495420764 116.44136592644645)">
<rect fill="white" fill-opacity="0.75" height="12" id="label-bg" width="36.73684210526316" x="-40.73684210526316" y="-16"/>
<text font-size="16.0" id="2/wp/text" text-anchor="end" x="-4.000" y="-4.000">
00:08
</text>
</g>
<g>
<circle cx="278.67715527360997" cy="376.8170479122491" fill="Black" id="3/wp/circle" r="3"/>
</g>
<g transform="translate(278.67715527360997 376.8170479122491)">
<rect fill="white" fill-opacity="0.75" height="12" id="label-bg" width="36.73684210526316" x="4" y="-16"/>
<text font-size="16.0" id="3/wp/text" text-anchor="start" x="4.000" y="-4.000">
21:27
</text>
</g>
<g>
<circle cx="125.46789719069693" cy="278.419857361092" fill="Black" id="4/wp/circle" r="3"/>
</g>
<g transform="translate(125.46789719069693 278.419857361092)">
<rect fill="white" fill-opacity="0.75" height="12" id="label-bg" width="36.73684210526316" x="4" y="-16"/>
<text font-size="16.0" id="4/wp/text" text-anchor="start" x="4.000" y="-4.000">
22:48
</text>
</g>
<g>
<circle cx="205.66233289893808" cy="328.01441460539354" fill="Black" id="5/wp/circle" r="3"/>
</g>
<g transform="translate(205.66233289893808 328.01441460539354)">
<rect fill="white" fill-opacity="0.75" height="12" id="label-bg" width="36.73684210526316" x="4" y="-16"/>
<text font-size="16.0" id="5/wp/text" text-anchor="start" x="4.000" y="-4.000">
22:07
</text>
</g>
<g>
<circle cx="266.1908347482786" cy="33.45231932562456" fill="Black" id="6/wp/circle" r="3"/>
</g>
<g transform="translate(266.1908347482786 33.45231932562456)">
<rect fill="white" fill-opacity="0.75" height="12" id="label-bg" width="36.73684210526316" x="-40.73684210526316" y="-16"/>
<text font-size="16.0" id="6/wp/text" text-anchor="end" x="-4.000" y="-4.000">
00:48
</text>
</g>
<g>
<circle cx="259.68833611613263" cy="309.86666238071484" fill="Black" id="7/wp/circle" r="5"/>
<circle cx="259.68833611613263" cy="309.86666238071484" fill="white" id="7/wp/circle-little-white" r="3.5"/>
<circle cx="259.68833611613263" cy="309.86666238071484" fill="black" id="7/wp/circle-little-white" r="2.5"/>
</g>
<g transform="translate(259.68833611613263 309.86666238071484)">
<rect fill="white" fill-opacity="0.75" height="12" id="label-bg" width="85.90526315789472" x="4" y="-16"/>
<text font-size="16.0" id="7/wp/text" text-anchor="start" x="4.000" y="-4.000">
Kuppenheim
</text>
</g>
<g>
<circle cx="253.68186824630993" cy="64.22391524055274" fill="Black" id="8/wp/circle" r="4"/>
<circle cx="253.68186824630993" cy="64.22391524055274" fill="white" id="8/wp/circle-little-white" r="2.5"/>
</g>
<g transform="translate(253.68186824630993 64.22391524055274)">
<rect fill="white" fill-opacity="0.75" height="12" id="label-bg" width="77.66315789473684" x="4" y="4"/>
<text font-size="16.0" id="8/wp/text" text-anchor="start" x="4.000" y="16.000">
Hagenbach
</text>
</g>
<g>
<circle cx="217.30756507720253" cy="270.07305281377194" fill="Black" id="9/wp/circle" r="5"/>
<circle cx="217.30756507720253" cy="270.07305281377194" fill="white" id="9/wp/circle-little-white" r="3.5"/>
<circle cx="217.30756507720253" cy="270.07305281377194" fill="black" id="9/wp/circle-little-white" r="2.5"/>
</g>
<g transform="translate(217.30756507720253 270.07305281377194)">
<rect fill="white" fill-opacity="0.75" height="12" id="label-bg" width="46.87368421052632" x="4" y="-16"/>
<text font-size="16.0" id="9/wp/text" text-anchor="start" x="4.000" y="-4.000">
Rastatt
</text>
</g>
<g>
<circle cx="165.37992128032693" cy="317.9114524668403" fill="Black" id="10/wp/circle" r="4"/>
<circle cx="165.37992128032693" cy="317.9114524668403" fill="white" id="10/wp/circle-little-white" r="2.5"/>
</g>
<g transform="translate(165.37992128032693 317.9114524668403)">
<rect fill="white" fill-opacity="0.75" height="12" id="label-bg" width="61.557894736842115" x="-65.55789473684212" y="4"/>
<text font-size="16.0" id="10/wp/text" text-anchor="end" x="-4.000" y="16.000">
Iffezheim
</text>
</g>
<g>
<circle cx="273.0345327617424" cy="175.1934621231485" fill="Black" id="11/wp/circle" r="5"/>
<circle cx="273.0345327617424" cy="175.1934621231485" fill="white" id="11/wp/circle-little-white" r="3.5"/>
<circle cx="273.0345327617424" cy="175.1934621231485" fill="black" id="11/wp/circle-little-white" r="2.5"/>
</g>
<g transform="translate(273.0345327617424 175.1934621231485)">
<rect fill="white" fill-opacity="0.75" height="12" id="label-bg" width="91.1157894736842" x="4" y="-16"/>
<text font-size="16.0" id="11/wp/text" text-anchor="start" x="4.000" y="-4.000">
Durmersheim
</text>
</g>
<g>
<circle cx="194.3859785178829" cy="121.18568043251435" fill="Black" id="12/wp/circle" r="4"/>
<circle cx="194.3859785178829" cy="121.18568043251435" fill="white" id="12/wp/circle-little-white" r="2.5"/>
</g>
<g transform="translate(194.3859785178829 121.18568043251435)">
<rect fill="white" fill-opacity="0.75" height="12" id="label-bg" width="84.10526315789474" x="-88.10526315789474" y="4"/>
<text font-size="16.0" id="12/wp/text" text-anchor="end" x="-4.000" y="16.000">
Lauterbourg
</text>
</g>
<g>
<circle cx="305.9342721229468" cy="129.5692458334961" fill="Black" id="13/wp/circle" r="5"/>
<circle cx="305.9342721229468" cy="129.5692458334961" fill="white" id="13/wp/circle-little-white" r="3.5"/>
<circle cx="305.9342721229468" cy="129.5692458334961" fill="black" id="13/wp/circle-little-white" r="2.5"/>
</g>
<g transform="translate(305.9342721229468 129.5692458334961)">
<rect fill="white" fill-opacity="0.75" height="12" id="label-bg" width="86.37894736842105" x="4" y="-16"/>
<text font-size="16.0" id="13/wp/text" text-anchor="start" x="4.000" y="-4.000">
Rheinstetten
</text>
</g>
<g>
<circle cx="215.46460194895008" cy="109.71640037532052" fill="Black" id="14/wp/circle" r="4"/>
<circle cx="215.46460194895008" cy="109.71640037532052" fill="white" id="14/wp/circle-little-white" r="2.5"/>
</g>
<g transform="translate(215.46460194895008 109.71640037532052)">
<rect fill="white" fill-opacity="0.75" height="12" id="label-bg" width="81.07368421052632" x="4" y="4"/>
<text font-size="16.0" id="14/wp/text" text-anchor="start" x="4.000" y="16.000">
Berg (Pfalz)
</text>
</g>
<g>
<circle cx="170.6738796259824" cy="191.9923874621236" fill="Black" id="15/wp/circle" r="4"/>
<circle cx="170.6738796259824" cy="191.9923874621236" fill="white" id="15/wp/circle-little-white" r="2.5"/>
</g>
<g transform="translate(170.6738796259824 191.9923874621236)">
<rect fill="white" fill-opacity="0.75" height="12" id="label-bg" width="96.89473684210526" x="-2.89473684210526" y="18"/>
<text font-size="16.0" id="15/wp/text" text-anchor="start" x="-2.895" y="30.000">
Munchhausen
</text>
</g>
<path d="M170.67,205.99 L170.67,193.99" fill="transparent" id="link" stroke="black" stroke-linejoin="miter" stroke-miterlimit="1"/>
<g>
<circle cx="327.7462058270903" cy="243.55114593081817" fill="Black" id="16/wp/circle" r="5"/>
<circle cx="327.7462058270903" cy="243.55114593081817" fill="white" id="16/wp/circle-little-white" r="3.5"/>
<circle cx="327.7462058270903" cy="243.55114593081817" fill="black" id="16/wp/circle-little-white" r="2.5"/>
</g>
<g transform="translate(327.7462058270903 243.55114593081817)">
<rect fill="white" fill-opacity="0.75" height="12" id="label-bg" width="46.400000000000006" x="4" y="-16"/>
<text font-size="16.0" id="16/wp/text" text-anchor="start" x="4.000" y="-4.000">
Malsch
</text>
</g>
<g>
<circle cx="160.01500554120958" cy="286.55922858767735" fill="Black" id="17/wp/circle" r="4"/>
<circle cx="160.01500554120958" cy="286.55922858767735" fill="white" id="17/wp/circle-little-white" r="2.5"/>
</g>
<g transform="translate(160.01500554120958 286.55922858767735)">
<rect fill="white" fill-opacity="0.75" height="12" id="label-bg" width="77.18947368421053" x="4" y="4"/>
<text font-size="16.0" id="17/wp/text" text-anchor="start" x="4.000" y="16.000">
Wintersdorf
</text>
</g>
<g>
<circle cx="232.2334444041744" cy="337.1402894541825" fill="Black" id="18/wp/circle" r="4"/>
<circle cx="232.2334444041744" cy="337.1402894541825" fill="white" id="18/wp/circle-little-white" r="2.5"/>
</g>
<g transform="translate(232.2334444041744 337.1402894541825)">
<rect fill="white" fill-opacity="0.75" height="12" id="label-bg" width="109.58947368421052" x="-113.58947368421052" y="4"/>
<text font-size="16.0" id="18/wp/text" text-anchor="end" x="-4.000" y="16.000">
Haueneberstein
</text>
</g>
<g>
<circle cx="273.50489808387465" cy="371.6480082381386" fill="Black" id="19/wp/circle" r="4"/>
<circle cx="273.50489808387465" cy="371.6480082381386" fill="white" id="19/wp/circle-little-white" r="2.5"/>
</g>
<g transform="translate(273.50489808387465 371.6480082381386)">
<rect fill="white" fill-opacity="0.75" height="12" id="label-bg" width="97.27368421052633" x="-101.27368421052633" y="4"/>
<text font-size="16.0" id="19/wp/text" text-anchor="end" x="-4.000" y="16.000">
Ebersteinburg
</text>
</g>
</g>
</svg>