<svg height="400" width="1420" xmlns="http://www.w3.org/2000/svg">
<g font-size="18" id="world" shape-rendering="crispEdges">
<g id="BG"/>
<g id="SB" transform="translate(71 360)">
<text text-anchor="middle" x="0" y="17">
200
</text>
<text text-anchor="middle" x="245" y="17">
220
</text>
<text text-anchor="middle" x="490" y="17">
240
</text>
<text text-anchor="middle" x="735" y="17">
260
</text>
<text text-anchor="middle" x="980" y="17">
280
</text>
<text text-anchor="middle" x="1225" y="17">
300
</text>
</g>
<g id="SD" transform="translate(71 0)">
<path d="M0,0 L1347.5,0" stroke="black" stroke-width="3"/>
<path d="M0,0 L0,358.5" stroke="black" stroke-width="3"/>
<path d="M0,358.5 L1347.5,358.5" stroke="black" stroke-width="3"/>
<path d="M1347.5,0 L1347.5,358.5" stroke="black" stroke-width="3"/>
<path d="M0,343.5 L1347.5,343.5" stroke="black" stroke-width="1"/>
<path d="M0,0 L0,358.5" stroke="black" stroke-width="1"/>
<path d="M245,0 L245,358.5" stroke="black" stroke-width="1"/>
<path d="M490,0 L490,358.5" stroke="black" stroke-width="1"/>
<path d="M735,0 L735,358.5" stroke="black" stroke-width="1"/>
<path d="M980,0 L980,358.5" stroke="black" stroke-width="1"/>
<path d="M1225,0 L1225,358.5" stroke="black" stroke-width="1"/>
<path d="M122.5,15 L122.5,358.5" stroke="black" stroke-dasharray="1.0,2.5,5.0,5.0,10.0,5.0"/>
<path d="M367.5,15 L367.5,358.5" stroke="black" stroke-dasharray="1.0,2.5,5.0,5.0,10.0,5.0"/>
<path d="M612.5,15 L612.5,358.5" stroke="black" stroke-dasharray="1.0,2.5,5.0,5.0,10.0,5.0"/>
<path d="M857.5,15 L857.5,358.5" stroke="black" stroke-dasharray="1.0,2.5,5.0,5.0,10.0,5.0"/>
<path d="M1102.5,15 L1102.5,358.5" stroke="black" stroke-dasharray="1.0,2.5,5.0,5.0,10.0,5.0"/>
<path d="M1347.5,15 L1347.5,358.5" stroke="black" stroke-dasharray="1.0,2.5,5.0,5.0,10.0,5.0"/>
<path d="M0,358.5 L1347.5,358.5" stroke="black" stroke-width="1"/>
<path d="M0,307.2857 L1347.5,307.2857" stroke="black" stroke-width="1"/>
<path d="M0,256.07144 L1347.5,256.07144" stroke="black" stroke-width="1"/>
<path d="M0,204.85715 L1347.5,204.85715" stroke="black" stroke-width="1"/>
<path d="M0,153.64285 L1347.5,153.64285" stroke="black" stroke-width="1"/>
<path d="M0,102.42857 L1347.5,102.42857" stroke="black" stroke-width="1"/>
<path d="M0,51.214287 L1347.5,51.214287" stroke="black" stroke-width="1"/>
<path d="M0,0 L1347.5,0" stroke="black" stroke-width="1"/>
<path d="M0,332.89285 L1347.5,332.89285" stroke="black" stroke-dasharray="1.0,2.5,5.0,5.0,10.0,5.0"/>
<path d="M0,281.67856 L1347.5,281.67856" stroke="black" stroke-dasharray="1.0,2.5,5.0,5.0,10.0,5.0"/>
<path d="M0,230.46428 L1347.5,230.46428" stroke="black" stroke-dasharray="1.0,2.5,5.0,5.0,10.0,5.0"/>
<path d="M0,179.25 L1347.5,179.25" stroke="black" stroke-dasharray="1.0,2.5,5.0,5.0,10.0,5.0"/>
<path d="M0,128.03572 L1347.5,128.03572" stroke="black" stroke-dasharray="1.0,2.5,5.0,5.0,10.0,5.0"/>
<path d="M0,76.82143 L1347.5,76.82143" stroke="black" stroke-dasharray="1.0,2.5,5.0,5.0,10.0,5.0"/>
<path d="M0,25.607143 L1347.5,25.607143" stroke="black" stroke-dasharray="1.0,2.5,5.0,5.0,10.0,5.0"/>
<path d="M0,-25.607143 L1347.5,-25.607143" stroke="black" stroke-dasharray="1.0,2.5,5.0,5.0,10.0,5.0"/>
<text font-size="14" text-anchor="end" x="112.5" y="354.5">
0.8%
</text>
<text font-size="14" text-anchor="end" x="235" y="354.5">
0.3%
</text>
<text font-size="14" text-anchor="end" x="357.5" y="354.5">
0.2%
</text>
<text font-size="14" text-anchor="end" x="480" y="354.5">
0.2%
</text>
<text font-size="14" text-anchor="end" x="602.5" y="354.5">
0.3%
</text>
<text font-size="14" text-anchor="end" x="725" y="354.5">
0.1%
</text>
<path d="M0.4,177.1 L1.0,177.1 L1.3,174.7 L3.5,166.8 L4.8,164.9 L9.0,166.6 L10.2,164.6 L12.3,159.9 L13.5,153.9 L15.9,147.3 L16.2,144.6 L19.2,141.6 L22.2,144.6 L24.6,151.2 L26.4,163.2 L28.6,172.7 L28.8,172.7 L29.3,176.8 L31.6,184.3 L34.4,186.2 L39.8,194.1 L42.5,201.2 L44.1,208.6 L45.6,211.9 L46.7,216.7 L48.6,219.2 L52.5,228.5 L54.8,230.1 L56.3,232.9 L59.8,232.3 L64.2,243.5 L67.5,247.9 L71.0,258.8 L74.7,263.4 L80.2,276.0 L84.4,279.0 L87.9,286.1 L94.8,291.6 L109.3,297.0 L115.4,297.2 L125.7,294.6 L137.2,296.3 L150.4,294.5 L153.3,296.3 L161.1,294.8 L177.7,296.8 L184.2,295.8 L187.9,297.2 L190.4,300.0 L196.9,300.8 L203.9,298.0 L214.1,299.7 L230.7,297.4 L237.3,299.5 L242.6,296.0 L254.9,300.2 L284.6,299.0 L291.0,301.1 L322.5,300.0 L327.1,301.1 L332.0,298.7 L338.3,300.7 L354.7,298.8 L370.3,299.7 L377.2,302.6 L390.1,300.8 L411.6,302.2 L432.0,299.1 L445.2,301.8 L451.5,300.7 L460.4,303.3 L475.1,304.1 L486.4,301.8 L490.2,297.5 L499.7,299.9 L512.4,296.4 L516.5,292.4 L525.1,295.3 L546.9,293.6 L557.1,295.7 L563.8,294.4 L565.7,295.3 L568.2,299.0 L575.0,300.4 L581.4,306.4 L593.4,304.2 L605.0,305.5 L614.1,302.3 L620.9,303.7 L625.4,306.5 L634.5,306.0 L638.1,304.1" fill="transparent" id="track" stroke="black" stroke-linejoin="miter" stroke-miterlimit="1" stroke-width="2"/>
<g>
<g>
<circle cx="642.3010465936509" cy="305.8517142857143" fill="Blue" id="0/wp" r="5"/>
</g>
<g transform="translate(642.3010465936509 305.8517142857143)">
<rect fill="white" fill-opacity="0.75" height="12" id="label-bg" width="71.22105263157891" x="-35.61052631578946" y="-298.8517142857143"/>
<text font-size="16.0" id="0/wp/text" text-anchor="start" x="-35.611" y="-286.852">
K4 (00:54)
</text>
</g>
<g>
<circle cx="642.3010465936509" cy="305.8517142857143" fill="Blue" id="1/wp" r="5"/>
</g>
<g>
<circle cx="642.3010465936509" cy="305.8517142857143" fill="Black" id="3/wp" r="5"/>
<circle cx="642.3010465936509" cy="305.8517142857143" fill="white" id="3/wp-little-white" r="3.5"/>
<circle cx="642.3010465936509" cy="305.8517142857143" fill="black" id="3/wp-little-white" r="2.5"/>
</g>
<g transform="translate(642.3010465936509 305.8517142857143)">
<rect fill="white" fill-opacity="0.75" height="12" id="label-bg" width="107.12631578947368" x="4" y="-16"/>
<text font-size="16.0" id="3/wp/text" text-anchor="start" x="4.000" y="-4.000">
Wörth am Rhein
</text>
</g>
<g>
<circle cx="585.114468917307" cy="305.1859285714286" fill="Black" id="4/wp" r="4"/>
<circle cx="585.114468917307" cy="305.1859285714286" fill="white" id="4/wp-little-white" r="2.5"/>
</g>
<g transform="translate(585.114468917307 305.1859285714286)">
<rect fill="white" fill-opacity="0.75" height="12" id="label-bg" width="77.66315789473684" x="-81.66315789473684" y="4"/>
<text font-size="16.0" id="4/wp/text" text-anchor="end" x="-4.000" y="16.000">
Hagenbach
</text>
</g>
<g>
<circle cx="184.6157006946869" cy="295.55764285714287" fill="Black" id="5/wp" r="4"/>
<circle cx="184.6157006946869" cy="295.55764285714287" fill="white" id="5/wp-little-white" r="2.5"/>
</g>
<g transform="translate(184.6157006946869 295.55764285714287)">
<rect fill="white" fill-opacity="0.75" height="12" id="label-bg" width="61.557894736842115" x="4" y="-16"/>
<text font-size="16.0" id="5/wp/text" text-anchor="start" x="4.000" y="-4.000">
Iffezheim
</text>
</g>
<g>
<circle cx="496.7391625156815" cy="299.3475" fill="Black" id="6/wp" r="4"/>
<circle cx="496.7391625156815" cy="299.3475" fill="white" id="6/wp-little-white" r="2.5"/>
</g>
<g transform="translate(496.7391625156815 299.3475)">
<rect fill="white" fill-opacity="0.75" height="12" id="label-bg" width="84.10526315789474" x="-88.10526315789474" y="-16"/>
<text font-size="16.0" id="6/wp/text" text-anchor="end" x="-4.000" y="-4.000">
Lauterbourg
</text>
</g>
<g>
<circle cx="516.5120993827823" cy="292.68964285714287" fill="Black" id="7/wp" r="4"/>
<circle cx="516.5120993827823" cy="292.68964285714287" fill="white" id="7/wp-little-white" r="2.5"/>
</g>
<g transform="translate(516.5120993827823 292.68964285714287)">
<rect fill="white" fill-opacity="0.75" height="12" id="label-bg" width="81.07368421052632" x="4" y="-16"/>
<text font-size="16.0" id="7/wp/text" text-anchor="start" x="4.000" y="-4.000">
Berg (Pfalz)
</text>
</g>
<g>
<circle cx="276.3968361735715" cy="299.3987142857143" fill="Black" id="8/wp" r="4"/>
<circle cx="276.3968361735715" cy="299.3987142857143" fill="white" id="8/wp-little-white" r="2.5"/>
</g>
<g transform="translate(276.3968361735715 299.3987142857143)">
<rect fill="white" fill-opacity="0.75" height="12" id="label-bg" width="62.41052631578948" x="4" y="-16"/>
<text font-size="16.0" id="8/wp/text" text-anchor="start" x="4.000" y="-4.000">
Beinheim
</text>
</g>
<g>
<circle cx="389.1032450693051" cy="300.26935714285713" fill="Black" id="9/wp" r="4"/>
<circle cx="389.1032450693051" cy="300.26935714285713" fill="white" id="9/wp-little-white" r="2.5"/>
</g>
<g transform="translate(389.1032450693051 300.26935714285713)">
<rect fill="white" fill-opacity="0.75" height="12" id="label-bg" width="96.89473684210526" x="-48.44736842105263" y="24"/>
<text font-size="16.0" id="9/wp/text" text-anchor="start" x="-48.447" y="36.000">
Munchhausen
</text>
</g>
<g>
<circle cx="218.16344649043003" cy="298.8865714285714" fill="Black" id="10/wp" r="4"/>
<circle cx="218.16344649043003" cy="298.8865714285714" fill="white" id="10/wp-little-white" r="2.5"/>
</g>
<g transform="translate(218.16344649043003 298.8865714285714)">
<rect fill="white" fill-opacity="0.75" height="12" id="label-bg" width="77.18947368421053" x="-38.59473684210526" y="4"/>
<text font-size="16.0" id="10/wp/text" text-anchor="start" x="-38.595" y="16.000">
Wintersdorf
</text>
</g>
<g>
<circle cx="93.0395602675776" cy="290.5898571428571" fill="Black" id="11/wp" r="4"/>
<circle cx="93.0395602675776" cy="290.5898571428571" fill="white" id="11/wp-little-white" r="2.5"/>
</g>
<g transform="translate(93.0395602675776 290.5898571428571)">
<rect fill="white" fill-opacity="0.75" height="12" id="label-bg" width="109.58947368421052" x="-54.79473684210526" y="24"/>
<text font-size="16.0" id="11/wp/text" text-anchor="start" x="-54.795" y="36.000">
Haueneberstein
</text>
</g>
<g>
<circle cx="19.16637268256909" cy="140.89050000000003" fill="Black" id="12/wp" r="4"/>
<circle cx="19.16637268256909" cy="140.89050000000003" fill="white" id="12/wp-little-white" r="2.5"/>
</g>
<g transform="translate(19.16637268256909 140.89050000000003)">
<rect fill="white" fill-opacity="0.75" height="12" id="label-bg" width="97.27368421052633" x="4" y="-16"/>
<text font-size="16.0" id="12/wp/text" text-anchor="start" x="4.000" y="-4.000">
Ebersteinburg
</text>
</g>
</g>
</g>
<g id="SL" transform="translate(0 0)">
<text text-anchor="end" x="66" y="363.5">
0
</text>
<text text-anchor="end" x="66" y="312.2857142857143">
100
</text>
<text text-anchor="end" x="66" y="261.07142857142856">
200
</text>
<text text-anchor="end" x="66" y="209.85714285714286">
300
</text>
<text text-anchor="end" x="66" y="158.64285714285714">
400
</text>
<text text-anchor="end" x="66" y="107.42857142857144">
500
</text>
<text text-anchor="end" x="66" y="56.21428571428572">
600
</text>
<text text-anchor="end" x="66" y="5">
700
</text>
</g>
</g>
</svg>