<svg height="400" width="1420" xmlns="http://www.w3.org/2000/svg">
<g font-family="Libertinus Serif" font-size="15" id="world" shape-rendering="crispEdges">
<g id="BG"/>
<g id="SB" transform="translate(0 360)">
<text text-anchor="middle" x="0" y="14.5">
160
</text>
<text text-anchor="middle" x="236.41666666666674" y="14.5">
180
</text>
<text text-anchor="middle" x="472.83333333333326" y="14.5">
200
</text>
<text text-anchor="middle" x="709.2499999999998" y="14.5">
220
</text>
<text text-anchor="middle" x="945.6666666666667" y="14.5">
240
</text>
<text text-anchor="middle" x="1182.0833333333333" y="14.5">
260
</text>
</g>
<g id="SD" transform="translate(0 0)">
<path d="M0,0 L0,358.5 L1418.5,358.5 L1418.5,0 L0,0" fill="lightgray" id="bg"/>
<path d="M0,0 L1418.5,0" stroke="black" stroke-width="3"/>
<path d="M0,0 L0,358.5" stroke="black" stroke-width="3"/>
<path d="M0,358.5 L1418.5,358.5" stroke="black" stroke-width="3"/>
<path d="M1418.5,0 L1418.5,358.5" stroke="black" stroke-width="3"/>
<path d="M0,0 L0,358.5" stroke="black" stroke-width="1"/>
<path d="M236.41667,0 L236.41667,358.5" stroke="black" stroke-width="1"/>
<path d="M472.83334,0 L472.83334,358.5" stroke="black" stroke-width="1"/>
<path d="M709.25,0 L709.25,358.5" stroke="black" stroke-width="1"/>
<path d="M945.6667,0 L945.6667,358.5" stroke="black" stroke-width="1"/>
<path d="M1182.0834,0 L1182.0834,358.5" stroke="black" stroke-width="1"/>
<path d="M118.208336,0 L118.208336,358.5" stroke="black" stroke-dasharray="1.0,2.5,5.0,5.0,10.0,5.0"/>
<path d="M354.625,0 L354.625,358.5" stroke="black" stroke-dasharray="1.0,2.5,5.0,5.0,10.0,5.0"/>
<path d="M591.0417,0 L591.0417,358.5" stroke="black" stroke-dasharray="1.0,2.5,5.0,5.0,10.0,5.0"/>
<path d="M827.4583,0 L827.4583,358.5" stroke="black" stroke-dasharray="1.0,2.5,5.0,5.0,10.0,5.0"/>
<path d="M1063.875,0 L1063.875,358.5" stroke="black" stroke-dasharray="1.0,2.5,5.0,5.0,10.0,5.0"/>
<path d="M1300.2916,0 L1300.2916,358.5" stroke="black" stroke-dasharray="1.0,2.5,5.0,5.0,10.0,5.0"/>
<path d="M0,358.5 L1418.5,358.5" stroke="black" stroke-width="1"/>
<path d="M0,286.8 L1418.5,286.8" stroke="black" stroke-width="1"/>
<path d="M0,215.1 L1418.5,215.1" stroke="black" stroke-width="1"/>
<path d="M0,143.4 L1418.5,143.4" stroke="black" stroke-width="1"/>
<path d="M0,71.7 L1418.5,71.7" stroke="black" stroke-width="1"/>
<path d="M0,322.65 L1418.5,322.65" stroke="black" stroke-dasharray="1.0,2.5,5.0,5.0,10.0,5.0"/>
<path d="M0,250.95 L1418.5,250.95" stroke="black" stroke-dasharray="1.0,2.5,5.0,5.0,10.0,5.0"/>
<path d="M0,179.25 L1418.5,179.25" stroke="black" stroke-dasharray="1.0,2.5,5.0,5.0,10.0,5.0"/>
<path d="M0,107.55 L1418.5,107.55" stroke="black" stroke-dasharray="1.0,2.5,5.0,5.0,10.0,5.0"/>
<path d="M0,35.85 L1418.5,35.85" stroke="black" stroke-dasharray="1.0,2.5,5.0,5.0,10.0,5.0"/>
<path d="M0.3,159.4 L1.3,160.8 L1.5,161.6 L1.8,162.7 L2.0,163.4 L2.2,163.4 L3.5,163.2 L3.9,164.4 L4.8,161.2 L7.3,167.0 L7.5,167.0 L7.8,166.8 L8.3,165.8 L8.9,166.1 L11.7,166.3 L12.4,166.0 L13.9,167.6 L14.3,168.2 L17.2,167.6 L17.6,168.2 L18.8,172.6 L20.5,174.1 L21.5,175.4 L22.1,175.6 L25.8,176.4 L27.4,175.2 L29.2,175.1 L29.7,176.5 L30.1,176.5 L32.3,175.0 L32.5,174.3 L33.0,174.2 L33.4,175.0 L34.3,175.2 L34.7,176.6 L35.1,180.1 L35.6,183.1 L36.3,185.0 L36.9,185.2 L37.3,185.3 L37.6,185.5 L37.9,185.7 L38.9,186.9 L39.0,187.1 L39.3,187.6 L40.1,187.4 L40.2,187.2 L40.4,186.6 L40.8,185.5 L41.1,185.4 L41.4,186.0 L41.8,186.8 L42.8,187.2 L43.6,186.7 L44.6,188.8 L44.8,188.3 L44.9,188.0 L45.2,188.1 L45.6,188.9 L46.1,188.2 L46.8,188.7 L47.1,188.6 L47.7,189.2 L48.0,190.3 L48.7,190.0 L49.0,189.1 L49.8,188.6 L50.5,190.7 L50.7,190.8 L51.1,191.3 L51.2,190.9 L51.4,192.0 L51.5,192.3 L51.8,193.1 L52.2,193.2 L52.6,191.3 L52.8,190.7 L53.5,189.5 L53.9,188.9 L54.7,185.4 L55.4,187.6 L56.6,189.0 L57.0,187.9 L57.5,188.5 L58.0,188.5 L59.0,187.9 L59.4,187.8 L60.0,188.0 L60.3,189.8 L60.7,191.0 L61.1,190.7 L62.0,190.4 L63.0,191.5 L63.6,190.0 L64.3,191.8 L64.9,189.5 L65.1,188.3 L65.3,188.2 L65.6,188.0 L65.7,187.7 L66.5,186.1 L67.7,188.4 L68.3,188.1 L68.8,187.4 L69.8,187.5 L70.1,187.7 L71.1,188.6 L71.3,189.1 L71.7,191.1 L71.9,192.2 L72.7,192.3 L73.3,193.6 L73.8,193.4 L74.6,194.1 L75.2,193.6 L77.1,195.0 L77.5,195.6 L77.9,194.1 L78.6,192.6 L79.3,196.4 L79.7,197.9 L80.2,195.9 L81.8,191.7 L82.0,192.3 L82.5,195.4 L82.7,195.3 L83.0,194.5 L83.2,194.2 L83.6,194.4 L84.2,196.0 L84.5,197.4 L84.8,199.5 L85.1,199.5 L85.4,198.6 L85.8,198.1 L86.5,196.3 L87.0,196.5 L88.4,199.5 L88.9,197.9 L89.5,198.1 L90.2,200.8 L90.5,200.9 L90.9,200.8 L91.2,200.3 L91.4,199.6 L92.0,201.6 L92.7,203.8 L93.5,201.8 L93.6,201.1 L93.8,200.8 L94.3,200.9 L94.5,200.4 L94.8,200.5 L95.0,201.1 L95.3,201.5 L95.9,201.3 L97.7,203.1 L98.1,202.6 L98.3,202.9 L98.6,204.2 L99.2,205.7 L100.6,206.3 L102.2,206.4 L102.9,206.4 L103.5,205.9 L104.0,207.0 L104.2,207.8 L104.4,208.9 L104.6,211.2 L104.8,212.2 L105.0,212.2 L105.2,211.9 L105.4,211.5 L105.6,210.5 L105.9,208.1 L106.4,209.7 L107.2,210.7 L109.2,213.6 L109.9,213.7 L110.8,214.1 L111.4,215.4 L112.0,215.9 L114.2,219.4 L114.9,220.0 L115.1,219.9 L116.8,215.5 L117.5,217.0 L118.6,219.5 L118.9,220.2 L119.3,220.7 L120.0,220.7 L120.2,220.4 L120.5,219.8 L120.7,220.1 L121.4,223.0 L121.6,222.9 L122.5,219.1 L122.6,218.8 L122.8,219.5 L123.2,221.9 L124.5,225.3 L124.9,226.0 L125.2,226.6 L125.5,227.1 L125.8,227.7 L126.0,227.5 L126.3,226.3 L128.0,223.6 L128.3,224.6 L128.6,225.0 L129.2,225.1 L130.1,228.3 L130.6,229.2 L131.2,230.2 L131.4,230.3 L131.5,230.2 L132.0,230.7 L132.3,231.3 L132.6,231.8 L132.8,231.9 L133.1,231.9 L133.5,231.8 L133.8,231.9 L134.1,231.7 L134.4,231.2 L134.9,231.6 L135.1,231.6 L135.5,231.6 L135.7,231.0 L136.0,230.1 L137.3,233.5 L138.0,234.0 L138.4,232.3 L139.0,229.4 L139.8,229.3 L140.1,229.9 L140.5,230.1 L141.2,231.3 L141.7,231.1 L142.1,231.8 L142.8,233.0 L144.0,233.6 L144.3,234.3 L144.8,232.8 L145.0,232.5 L145.3,232.4 L145.9,233.3 L146.6,233.3 L146.8,233.6 L147.0,234.4 L147.5,235.9 L148.6,230.4 L148.9,230.4 L149.3,231.1 L149.9,228.7 L150.2,228.9 L151.7,232.3 L151.9,232.9 L152.6,236.8 L152.8,237.3 L152.9,237.5 L153.0,237.4 L153.1,237.4 L153.5,236.9 L153.6,236.6 L153.8,236.1 L154.0,235.5 L154.3,234.3 L155.2,235.2 L155.6,236.3 L156.0,237.4 L156.2,238.0 L156.6,237.1 L156.9,235.6 L157.1,235.4 L157.7,237.6 L158.2,238.0 L158.3,237.5 L158.6,237.7 L158.9,238.4 L159.2,238.1 L159.6,238.1 L160.9,235.9 L161.5,236.0 L162.1,236.1 L162.8,240.6 L163.4,241.8 L163.5,242.2 L163.6,242.3 L163.7,242.4 L163.9,242.3 L164.0,242.2 L164.5,242.7 L165.0,241.5 L165.8,242.4 L166.1,242.7 L167.1,243.2 L168.5,244.0 L169.0,244.7 L169.6,244.8 L170.6,244.2 L171.0,244.6 L171.4,244.2 L172.4,245.6 L174.3,246.8 L175.2,248.4 L176.4,249.3 L177.0,247.9 L177.4,247.4 L177.8,247.9 L178.5,248.6 L179.9,252.1 L181.6,252.8 L181.6,253.0 L181.7,253.5 L182.1,253.2 L182.4,252.5 L183.0,252.2 L183.3,251.9 L183.5,251.1 L183.6,250.9 L183.7,251.2 L183.8,251.8 L183.9,252.3 L184.1,253.2 L184.6,252.5 L184.8,251.4 L185.1,250.9 L185.3,250.7 L185.6,250.3 L185.9,250.3 L186.0,250.0 L186.2,249.9 L186.3,249.6 L186.5,248.6 L187.1,246.7 L187.2,246.5 L187.5,245.9 L187.6,246.0 L187.7,246.1 L187.8,246.4 L188.0,246.3 L188.1,246.2 L188.3,245.5 L188.8,245.5 L189.8,241.9 L190.3,242.1 L190.7,242.4 L190.8,242.7 L191.2,246.4 L191.5,248.2 L192.1,246.5 L192.3,246.6 L192.6,246.6 L192.7,246.7 L192.9,246.3 L193.6,241.5 L193.8,241.2 L194.7,240.5 L195.3,239.7 L195.8,238.7 L196.1,237.4 L196.5,236.9 L197.3,236.8 L197.5,236.2 L197.6,236.0 L198.0,235.4 L198.2,235.7 L198.3,236.1 L198.6,236.1 L198.7,235.5 L198.8,235.3 L199.4,233.6 L200.0,232.0 L200.2,231.5 L200.4,230.2 L200.6,229.6 L201.6,225.4 L201.9,224.8 L202.4,225.7 L202.7,224.5 L202.8,224.5 L203.2,226.1 L203.7,224.8 L203.8,224.6 L204.1,225.5 L204.3,225.3 L205.1,222.2 L205.5,221.8 L205.8,221.7 L206.4,221.1 L206.6,220.7 L206.7,220.0 L207.0,218.6 L207.4,218.6 L208.0,217.8 L208.2,216.8 L208.5,215.0 L208.7,214.1 L208.9,214.2 L209.2,214.8 L209.3,214.7 L209.9,212.4 L210.6,211.4 L210.8,211.2 L211.0,210.9 L211.3,210.3 L211.6,209.9 L211.8,209.4 L212.1,208.3 L212.4,207.4 L212.7,206.1 L212.8,206.0 L213.2,207.0 L213.2,207.3 L213.4,207.0 L213.7,206.0 L213.9,205.7 L214.2,205.5 L214.5,206.5 L214.7,206.7 L215.1,206.1 L215.7,207.0 L215.9,206.8 L216.3,207.7 L217.8,205.1 L218.0,204.7 L218.4,202.4 L218.5,201.0 L218.7,199.0 L219.0,197.4 L219.1,197.4 L219.8,202.8 L220.1,204.2 L220.4,204.8 L221.1,204.0 L221.5,203.8 L222.0,203.6 L222.2,202.8 L222.4,202.1 L222.6,200.8 L223.2,192.8 L223.4,191.9 L223.5,191.3 L223.6,191.6 L224.2,193.3 L224.4,191.7 L224.7,189.1 L224.9,188.5 L225.0,188.8 L225.2,189.3 L225.5,190.7 L225.7,190.9 L225.8,190.9 L226.0,190.0 L226.4,186.8 L227.0,185.3 L228.0,184.0 L228.6,183.8 L229.4,175.7 L229.5,174.8 L229.6,174.5 L229.8,175.1 L230.1,178.7 L230.5,184.3 L231.0,185.2 L231.3,183.6 L231.7,175.8 L232.6,175.5 L233.0,173.6 L233.4,171.1 L233.6,170.9 L234.2,168.7 L234.3,168.4 L234.4,168.1 L234.5,168.0 L234.7,168.5 L235.9,170.7 L236.4,171.8 L236.5,172.4 L236.7,172.3 L236.8,171.9 L237.0,170.3 L237.4,166.0 L238.1,161.1 L238.3,161.6 L238.5,164.9 L238.7,165.6 L238.8,165.1 L239.0,163.7 L239.3,161.2 L239.7,157.6 L239.9,157.3 L240.0,157.6 L240.1,158.4 L240.5,159.7 L240.6,159.8 L240.8,160.0 L240.9,160.4 L241.8,160.2 L242.1,159.5 L242.3,159.4 L242.5,159.7 L242.7,160.0 L243.3,155.6 L243.8,151.4 L244.4,148.8 L244.6,148.4 L245.5,143.1 L245.6,143.0 L245.8,143.5 L245.9,144.9 L246.4,148.4 L246.7,149.0 L246.8,148.7 L246.9,147.5 L247.5,142.7 L247.7,142.1 L247.9,142.9 L248.1,144.5 L248.4,146.4 L248.7,145.7 L248.8,144.6 L249.0,142.8 L249.3,140.5 L249.4,140.6 L250.4,140.5 L250.9,138.2 L251.1,137.8 L251.2,137.7 L251.4,137.9 L251.5,138.3 L251.6,138.6 L252.0,139.9 L252.1,139.8 L252.2,139.4 L252.4,137.9 L252.5,137.3 L252.6,136.9 L252.8,136.8 L252.9,137.1 L253.2,136.8 L253.7,134.6 L253.9,134.1 L254.1,133.9 L254.3,134.0 L255.9,132.8 L256.5,133.4 L256.7,134.2 L257.3,132.9 L257.5,131.9 L257.7,130.0 L258.0,128.3 L258.2,128.3 L258.4,129.7 L258.6,130.5 L258.8,130.5 L258.9,130.2 L259.2,128.0 L259.4,126.6 L259.5,125.7 L259.6,124.9 L259.7,124.5 L259.9,124.3 L260.2,125.5 L261.3,122.1 L262.2,117.0 L262.3,116.8 L262.5,117.6 L263.2,120.9 L263.3,121.4 L263.5,122.1 L263.6,122.4 L263.8,122.3 L264.2,120.2 L265.7,117.4 L265.9,117.3 L266.3,116.6 L266.6,115.7 L266.9,115.4 L267.7,115.9 L268.1,115.9 L268.3,115.9 L268.7,115.8 L269.5,110.8 L269.8,110.1 L270.1,109.5 L270.3,109.1 L270.5,108.6 L270.7,108.2 L271.0,108.2 L271.5,109.1 L271.8,109.8 L272.6,110.2 L273.2,112.7 L273.7,114.8 L274.0,115.5 L274.3,116.1 L274.9,116.0 L275.0,115.8 L275.2,115.8 L275.3,116.2 L275.4,117.0 L275.8,119.7 L276.1,121.2 L277.0,122.2 L277.2,122.6 L277.5,123.2 L277.6,123.5 L277.8,123.9 L278.1,124.4 L278.3,124.7 L278.7,125.0 L278.7,125.0 L278.9,125.1 L279.0,125.3 L279.1,125.5 L279.6,126.4 L280.0,126.2 L280.1,126.0 L280.3,125.9 L280.4,126.0 L280.8,127.3 L280.9,127.7 L281.1,127.8 L281.3,128.1 L281.7,128.8 L282.0,129.1 L282.3,130.9 L282.7,131.5 L283.1,132.0 L283.5,133.0 L283.6,133.7 L283.8,134.9 L284.2,137.6 L285.1,141.3 L285.8,143.8 L286.0,144.2 L286.2,144.2 L286.4,144.3 L286.6,144.3 L287.0,144.8 L287.7,144.2 L288.0,144.4 L288.6,146.3 L288.9,147.3 L289.3,149.1 L289.7,150.9 L290.2,151.4 L290.5,151.7 L291.0,154.8 L291.1,155.4 L291.5,156.4 L292.3,159.6 L292.4,160.4 L292.8,161.5 L293.2,163.3 L293.4,163.6 L293.6,162.8 L293.9,160.4 L294.0,159.2 L294.2,158.6 L294.3,158.6 L294.5,159.3 L294.7,160.5 L295.0,163.8 L295.2,165.2 L295.4,165.7 L296.0,164.9 L296.8,170.6 L297.4,173.2 L297.6,175.1 L298.4,175.1 L298.6,175.5 L298.9,176.6 L299.4,179.0 L299.6,179.5 L300.0,179.2 L300.2,179.7 L300.5,181.2 L301.0,182.9 L301.6,187.1 L301.9,188.4 L302.3,189.5 L302.5,189.7 L303.1,187.2 L303.3,188.0 L304.1,192.0 L304.4,192.4 L305.0,190.5 L305.3,190.1 L305.5,190.6 L305.8,192.6 L306.5,196.0 L307.1,198.1 L307.2,198.0 L307.4,197.2 L307.5,197.1 L307.6,197.6 L308.1,200.0 L308.7,199.7 L309.0,201.3 L310.0,200.2 L311.3,207.7 L311.6,208.1 L311.9,207.8 L312.8,209.0 L314.2,211.4 L314.8,211.6 L315.2,211.8 L315.5,213.4 L316.2,216.9 L317.1,215.5 L317.7,219.4 L317.8,220.7 L318.5,223.3 L318.8,223.8 L319.0,223.8 L319.2,222.8 L320.0,221.6 L320.6,225.2 L321.4,230.1 L322.0,232.2 L323.4,236.1 L323.6,236.5 L324.5,242.2 L325.2,243.2 L325.8,244.5 L326.0,245.1 L326.1,245.3 L326.2,245.6 L326.4,245.9 L326.5,246.1 L326.9,246.8 L327.1,246.9 L327.3,247.2 L327.7,248.7 L328.1,249.8 L328.5,249.6 L329.1,249.5 L329.5,248.3 L329.9,247.6 L330.6,248.3 L330.8,248.2 L331.0,248.5 L331.9,251.2 L332.3,252.8 L332.5,252.5 L332.8,252.9 L332.9,253.2 L333.4,255.1 L333.8,256.2 L334.2,257.3 L334.9,258.7 L335.4,259.7 L336.2,259.2 L336.7,260.3 L336.8,260.5 L337.4,261.6 L337.6,261.5 L337.8,261.1 L338.1,259.7 L338.4,258.5 L338.6,257.3 L339.2,255.6 L339.4,255.5 L339.7,255.1 L341.4,252.9 L343.0,252.1 L343.6,251.6 L344.3,250.1 L345.2,249.2 L345.7,249.8 L346.7,246.3 L347.3,245.9 L348.0,244.2 L348.4,243.0 L348.9,242.2 L349.1,241.9 L349.2,241.9 L349.3,241.9 L349.4,241.9 L349.7,241.7 L350.0,242.0 L350.2,241.7 L350.8,236.9 L351.0,235.8 L351.2,235.3 L351.8,235.6 L352.2,235.9 L352.3,235.1 L352.4,233.3 L352.5,232.1 L352.6,231.9 L353.1,233.6 L353.4,233.3 L353.9,230.3 L354.2,230.7 L354.9,232.5 L355.3,232.8 L355.6,232.2 L356.0,229.9 L356.3,228.3 L356.8,226.2 L357.2,224.7 L357.5,222.9 L357.8,222.1 L358.0,222.0 L358.1,222.1 L358.6,223.0 L359.1,222.9 L359.7,221.8 L360.5,220.4 L361.0,220.2 L361.4,220.4 L361.6,220.5 L362.4,220.8 L363.2,223.6 L363.4,223.5 L363.7,223.3 L364.1,223.2 L364.6,221.9 L364.8,221.7 L365.0,221.4 L365.3,220.7 L365.8,220.4 L366.0,220.3 L366.2,220.2 L366.4,220.3 L366.6,221.1 L366.8,221.7 L366.9,222.5 L367.0,223.2 L368.6,228.3 L369.0,229.1 L369.3,229.8 L369.6,230.2 L370.3,231.3 L370.7,232.0 L371.2,232.8 L371.6,233.3 L372.1,233.0 L372.5,233.7 L373.1,234.9 L373.7,237.0 L374.3,239.8 L375.2,241.9 L375.9,242.6 L376.2,242.6 L376.5,242.6 L376.7,242.8 L377.1,243.4 L379.1,247.8 L379.4,248.3 L380.4,251.0 L381.3,255.4 L381.5,256.7 L381.7,257.0 L381.9,257.3 L382.2,256.4 L382.7,251.1 L382.8,249.8 L382.9,249.8 L383.1,250.9 L383.2,252.9 L383.4,255.8 L383.6,258.6 L383.8,258.8 L384.5,259.4 L384.8,260.3 L385.0,260.3 L385.3,259.6 L386.0,255.9 L386.1,255.5 L386.2,255.8 L386.3,256.5 L386.4,257.4 L386.7,260.1 L386.8,261.2 L387.0,262.0 L387.1,262.6 L387.3,263.2 L387.7,264.7 L388.1,265.6 L388.5,265.4 L388.8,265.2 L389.3,263.4 L389.5,263.1 L389.6,263.8 L389.7,265.3 L390.1,268.6 L390.4,270.3 L390.6,270.6 L391.1,268.6 L391.3,269.1 L391.4,270.3 L391.6,272.2 L391.7,273.6 L393.5,279.6 L393.9,279.0 L394.3,279.2 L395.1,281.2 L396.2,283.7 L397.2,284.0 L397.9,286.2 L399.7,289.3 L399.9,289.8 L400.6,290.9 L401.0,291.6 L401.3,292.7 L401.4,293.1 L401.5,293.6 L401.7,293.8 L401.8,293.9 L401.8,293.9 L402.1,293.6 L402.2,293.5 L402.5,293.3 L402.7,293.4 L403.1,294.1 L403.5,294.8 L403.7,295.0 L404.1,295.3 L404.2,295.4 L404.4,295.5 L404.5,295.7 L404.7,295.9 L405.1,296.3 L405.3,296.6 L405.5,297.1 L405.6,297.3 L405.9,298.1 L406.0,298.5 L406.1,298.8 L406.7,299.3 L406.8,299.1 L407.1,299.3 L407.5,299.5 L407.8,299.6 L408.0,299.7 L408.6,299.6 L408.8,299.7 L409.0,299.8 L409.4,300.1 L410.0,299.7 L410.1,299.6 L410.4,299.4 L411.1,299.8 L411.8,299.4 L412.1,299.6 L412.2,299.7 L412.8,300.1 L413.2,299.8 L413.3,299.7 L413.6,299.6 L414.2,299.7 L414.4,299.6 L414.6,299.5 L415.1,299.3 L415.3,299.1 L415.4,299.3 L416.1,298.8 L416.2,298.5 L416.3,298.1 L417.0,297.3 L417.2,297.4 L418.1,297.7 L418.2,297.6 L418.7,297.6 L418.9,298.4 L419.4,298.8 L419.7,298.8 L420.0,298.7 L420.1,298.6 L420.3,298.5 L421.1,297.7 L421.7,296.4 L421.9,296.0 L422.0,295.9 L422.3,295.6 L422.5,295.3 L422.6,295.2 L422.9,294.6 L423.2,293.4 L423.9,293.6 L424.9,295.1 L425.1,294.6 L425.4,294.0 L426.0,293.2 L426.4,292.8 L426.7,292.8 L426.8,292.7 L427.0,292.6 L427.4,291.9 L427.7,291.5 L428.5,290.6 L429.7,289.5 L429.9,289.5 L430.3,289.0 L430.5,289.0 L430.6,288.9 L431.1,288.2 L432.6,287.7 L433.1,287.2 L433.5,286.6 L434.2,285.4 L435.2,284.3 L435.7,285.2 L436.2,284.7 L436.5,284.2 L436.8,283.2 L437.2,283.6 L437.7,283.2 L438.8,280.8 L439.0,281.0 L439.6,281.3 L439.9,280.9 L440.6,280.6 L441.0,280.6 L441.2,280.3 L441.4,279.9 L441.7,279.0 L442.4,278.4 L442.9,278.0 L443.2,277.5 L443.3,277.3 L443.7,276.2 L444.6,273.0 L444.9,271.6 L445.2,269.7 L445.9,267.9 L446.3,267.2 L447.1,265.1 L447.4,264.2 L448.1,261.3 L448.6,259.3 L449.1,256.7 L449.5,253.0 L449.9,250.4 L450.1,249.1 L450.2,248.5 L450.4,248.1 L451.1,247.5 L451.3,246.4 L451.5,246.2 L451.7,246.0 L452.1,244.3 L452.3,243.6 L452.6,242.8 L453.0,242.4 L453.1,242.1 L453.8,239.6 L454.0,239.0 L454.7,237.7 L455.0,237.5 L455.5,236.6 L455.7,236.7 L456.1,237.0 L456.8,234.1 L457.1,233.5 L457.3,233.1 L458.0,231.2 L459.1,229.8 L459.2,229.8 L459.8,228.9 L460.7,227.8 L461.6,228.2 L461.9,227.3 L462.0,226.8 L462.2,226.5 L466.8,229.6 L467.3,232.3 L467.8,233.0 L468.7,232.0 L469.1,232.0 L469.4,231.6 L469.6,231.6 L469.9,231.4 L470.1,231.3 L470.7,230.9 L471.0,231.3 L471.9,232.6 L472.1,234.3 L472.3,235.8 L472.7,236.8 L473.2,235.9 L473.8,232.5 L474.1,231.0 L474.5,228.3 L475.2,224.7 L475.5,223.3 L476.2,221.8 L476.4,221.2 L477.5,220.6 L478.4,223.2 L478.9,222.2 L479.0,222.0 L479.2,223.3 L479.4,227.1 L480.5,225.0 L480.8,224.2 L481.0,223.7 L481.5,223.7 L482.4,223.7 L482.5,224.1 L482.7,224.1 L482.9,223.8 L483.0,223.7 L483.1,223.3 L484.0,220.9 L484.2,220.3 L484.5,219.4 L484.7,218.4 L485.1,217.2 L485.9,215.8 L486.0,215.5 L486.1,215.2 L486.6,213.5 L487.0,212.4 L487.3,212.0 L487.6,211.7 L487.9,210.9 L488.2,210.4 L488.4,209.9 L488.9,209.1 L489.1,208.4 L489.6,207.2 L489.9,206.7 L490.4,205.8 L490.5,205.7 L490.6,205.7 L490.7,205.6 L490.7,205.6 L491.0,205.9 L491.3,206.2 L491.7,206.4 L492.1,206.7 L492.1,206.8 L492.7,207.5 L493.1,207.8 L493.5,208.1 L493.8,208.5 L494.0,208.6 L494.2,208.8 L494.4,209.0 L494.6,209.4 L495.0,209.6 L495.1,209.7 L495.2,210.1 L495.7,211.5 L496.6,214.8 L497.2,216.8 L497.4,217.2 L497.8,218.7 L498.3,220.7 L499.1,223.2 L499.2,223.3 L499.8,225.4 L500.4,228.1 L500.6,229.5 L500.8,230.9 L501.1,232.8 L501.9,234.4 L502.6,235.9 L503.1,237.0 L503.3,237.6 L503.4,237.7 L503.6,237.6 L504.3,238.0 L505.0,237.8 L506.0,238.3 L506.5,237.3 L506.7,236.8 L507.0,235.7 L507.5,237.8 L507.6,238.4 L508.0,238.8 L508.4,239.8 L508.5,240.2 L508.7,241.2 L509.0,242.2 L509.3,242.6 L509.4,242.7 L509.5,242.8 L509.6,243.1 L509.9,243.2 L510.1,243.6 L510.4,243.7 L511.0,242.7 L511.2,242.6 L511.5,243.2 L512.0,244.3 L512.3,245.2 L512.5,245.6 L513.7,249.3 L513.9,249.7 L514.2,250.2 L514.7,250.6 L515.4,252.7 L515.7,253.2 L516.3,255.0 L516.6,256.3 L516.8,256.6 L517.4,257.3 L517.6,258.2 L517.9,258.8 L518.8,260.2 L519.4,261.6 L519.4,261.8 L519.7,263.1 L519.7,263.4 L520.0,264.3 L522.4,267.3 L523.5,265.7 L524.0,266.3 L524.8,268.2 L525.7,270.2 L526.2,270.7 L527.1,270.7 L528.1,273.0 L529.7,268.8 L530.0,269.1 L530.5,271.3 L531.3,271.5 L533.6,275.8 L534.8,278.4 L535.7,278.7 L536.1,279.1 L537.9,281.2 L538.5,282.6 L539.0,283.8 L541.3,286.8 L542.8,290.5 L543.1,291.0 L543.4,291.5 L543.8,291.2 L544.4,291.4 L545.0,292.6 L546.2,295.6 L547.8,295.8 L549.1,299.5 L550.2,299.8 L551.4,302.1 L552.3,300.8 L552.4,301.0 L552.6,301.5 L552.8,302.3 L552.9,302.5 L553.0,302.6 L553.2,302.4 L553.5,301.5 L553.6,300.9 L554.0,301.4 L554.3,302.8 L554.4,303.4 L555.0,304.6 L555.1,304.8 L556.1,306.2 L556.4,306.6 L556.8,306.9 L557.2,307.1 L557.7,307.6 L558.3,308.0 L558.9,307.9 L559.3,308.3 L559.8,309.0 L559.9,309.1 L560.1,309.3 L560.2,309.5 L560.3,309.6 L560.4,309.6 L561.1,309.4 L561.4,309.4 L561.7,309.6 L561.9,309.9 L562.5,310.9 L562.6,311.0 L563.5,311.5 L563.7,311.6 L564.1,311.8 L564.2,311.9 L564.4,311.9 L564.8,311.8 L565.1,311.7 L565.5,311.9 L566.2,312.5 L567.2,312.1 L568.3,312.5 L568.8,312.7 L570.7,313.4 L571.3,313.6 L571.6,313.3 L572.7,313.4 L573.4,313.5 L574.1,314.0 L574.1,314.2 L574.6,314.8 L575.1,314.5 L575.3,314.3 L575.4,314.2 L575.5,314.2 L576.1,314.6 L577.4,315.4 L577.5,315.4 L577.6,315.5 L577.9,315.4 L578.1,315.4 L578.3,315.4 L579.2,315.3 L579.5,315.7 L579.7,316.0 L580.6,316.3 L580.8,316.0 L581.1,315.6 L581.4,315.4 L581.5,315.3 L581.7,315.5 L581.7,315.4 L581.9,315.5 L581.9,315.7 L582.0,315.7 L582.1,315.9 L582.3,316.1 L583.6,315.7 L583.8,315.6 L583.9,315.4 L583.9,315.3 L584.1,315.3 L584.2,315.5 L584.6,315.4 L584.6,315.4 L584.7,315.4 L584.7,315.4 L585.0,315.5 L585.0,315.6 L586.2,316.4 L586.5,315.7 L586.6,315.5 L586.7,315.5 L587.1,315.0 L587.3,315.1 L587.6,315.1 L588.3,314.8 L588.4,314.8 L588.5,314.8 L588.8,314.8 L589.1,314.8 L589.2,314.9 L589.3,314.9 L589.4,314.9 L589.6,315.0 L590.3,314.8 L591.4,315.0 L591.6,315.0 L592.8,313.7 L593.0,313.4 L593.2,313.5 L593.8,313.5 L593.8,313.4 L593.9,313.4 L594.0,313.5 L594.1,313.4 L594.5,314.1 L594.7,314.0 L595.1,314.4 L595.4,314.4 L595.7,314.4 L596.9,314.1 L597.7,313.7 L598.5,314.2 L599.3,313.8 L599.4,313.8 L599.5,313.9 L599.6,314.0 L599.8,314.2 L599.9,314.1 L601.1,313.8 L601.8,314.1 L602.0,314.2 L602.5,314.7 L602.8,314.9 L603.0,315.0 L603.8,315.3 L605.0,314.5 L605.2,314.8 L605.3,315.1 L607.1,315.1 L607.2,315.0 L608.3,314.8 L609.2,314.4 L611.5,315.0 L612.7,314.5 L614.4,314.3 L615.5,314.4 L615.6,314.4 L616.5,314.0 L617.5,313.9 L617.9,313.5 L618.0,313.5 L618.1,313.7 L620.6,314.3 L620.8,314.4 L620.9,314.6 L622.8,316.5 L626.5,313.3 L628.3,314.1 L630.1,314.4 L631.8,314.4 L631.9,314.3 L632.0,314.2 L632.1,314.2 L632.2,314.2 L634.7,314.4 L636.8,314.9 L636.8,314.9 L637.0,314.9 L637.4,314.8 L638.9,315.2 L639.3,315.1 L639.4,315.2 L639.5,315.3 L639.5,315.3 L639.6,315.2 L639.7,315.2 L639.8,315.2 L640.0,314.8 L640.2,315.0 L640.9,314.8 L640.9,314.7 L641.0,314.7 L641.7,314.6 L641.7,314.8 L641.8,314.8 L642.3,315.5 L642.7,315.7 L642.9,315.7 L642.9,315.6 L643.1,315.5 L643.7,315.4 L643.7,315.3 L644.3,315.2 L644.7,314.9 L644.8,314.9 L644.8,314.9 L646.1,315.1 L648.1,314.6 L648.6,315.1 L649.1,314.9 L649.7,314.4 L650.6,314.4 L650.9,314.4 L651.0,314.4 L651.5,314.4 L651.6,314.3 L652.0,314.4 L652.3,314.5 L652.5,314.5 L652.8,314.8 L652.9,314.9 L653.2,315.2 L653.3,315.4 L653.8,316.1 L654.2,316.8 L654.9,316.7 L655.2,316.7 L655.9,317.4 L656.6,317.7 L656.8,317.9 L656.9,318.0 L657.0,318.0 L657.3,318.0 L658.3,317.7 L658.9,317.2 L659.9,317.3 L660.4,317.6 L660.6,317.4 L661.5,318.2 L661.6,318.3 L662.8,317.6 L664.7,318.9 L665.2,318.0 L666.0,317.0 L667.0,316.6 L668.0,316.2 L669.0,316.5 L669.6,315.8 L670.3,315.6 L670.7,315.7 L671.0,316.2 L671.3,316.8 L672.0,316.9 L672.6,316.8 L672.9,316.6 L673.3,315.7 L673.6,315.5 L674.3,316.2 L674.4,316.1 L675.0,316.7 L676.4,317.1 L677.1,317.1 L678.0,316.8 L678.4,317.2 L679.4,318.0 L680.3,317.6 L680.6,317.7 L680.9,317.6 L681.3,317.3 L681.5,317.3 L681.5,317.3 L681.6,317.2 L681.8,317.1 L681.9,316.9 L682.0,316.9 L682.1,316.8 L682.3,316.6 L682.4,316.5 L683.4,316.8 L684.6,318.0 L684.8,318.0 L685.4,317.5 L686.1,316.4 L686.9,317.0 L687.7,316.8 L688.9,317.1 L690.8,315.8 L693.4,316.4 L694.1,316.1 L694.8,315.6 L695.5,315.4 L697.3,315.2 L697.8,315.9 L698.1,316.8 L698.2,317.0 L700.2,317.3 L701.8,317.3 L703.4,317.1 L705.0,315.0 L705.4,314.8 L705.9,314.0 L707.0,315.3 L711.4,317.2 L715.1,316.5 L715.3,317.1 L718.8,318.1 L719.4,317.7 L719.9,317.4 L720.2,317.7 L720.9,318.2 L721.2,317.7 L721.4,317.4 L721.8,317.3 L724.8,318.0 L725.5,317.4 L726.1,317.0 L726.2,317.0 L726.3,317.0 L726.4,316.9 L726.9,317.1 L727.2,317.2 L727.3,317.2 L727.9,317.1 L728.7,317.2 L729.2,317.5 L729.8,317.7 L730.9,317.7 L731.0,317.7 L731.7,316.9 L732.9,318.0 L733.9,318.1 L734.2,317.9 L735.4,317.3 L736.0,317.3 L736.8,317.5 L737.5,317.0 L738.1,316.8 L738.8,317.1 L739.4,317.2 L739.5,317.1 L739.6,317.1 L739.8,317.2 L740.3,317.3 L740.5,317.3 L740.7,317.3 L741.0,317.4 L741.4,317.7 L741.9,318.2 L742.3,317.8 L742.5,317.5 L742.8,317.4 L743.1,317.7 L743.9,318.0 L744.2,318.0 L744.3,317.9 L744.4,317.8 L744.7,317.4 L745.5,316.8 L746.1,317.0 L746.4,317.2 L747.4,316.5 L749.1,316.8 L750.1,317.2 L750.6,317.2 L752.0,317.7 L752.2,317.9 L753.6,318.8 L754.2,318.8 L756.4,318.0 L756.7,318.0 L758.1,318.4 L758.3,318.2 L758.4,318.1 L758.8,317.7 L759.1,317.5 L759.5,317.4 L760.0,317.8 L761.7,318.5 L764.7,318.0 L767.7,317.8 L767.9,317.8 L770.7,317.5 L770.9,317.8 L771.2,318.1 L772.1,318.1 L773.0,317.8 L773.2,317.6 L773.5,317.5 L774.0,317.6 L779.0,317.8 L779.2,317.6 L779.4,317.3 L784.0,317.8 L788.5,318.7 L789.0,318.4 L791.1,316.3 L793.2,316.6 L794.3,317.0 L796.4,316.4 L796.5,316.6 L796.6,316.6 L796.7,316.8 L796.8,317.0 L796.8,317.1 L797.1,317.8 L797.4,317.8 L797.6,317.6 L798.1,317.6 L798.5,318.0 L798.9,318.6 L799.3,318.8 L799.7,319.0 L800.4,317.7 L801.0,317.8 L802.0,317.6 L802.3,317.1 L802.6,317.0 L802.9,317.1 L804.3,317.7 L804.5,317.5 L813.2,316.6 L813.4,316.6 L814.7,316.9 L815.1,316.9 L816.8,316.7 L818.8,317.8 L822.7,317.7 L823.2,317.8 L823.4,317.5 L823.8,317.1 L824.8,317.7 L825.5,316.8 L826.0,316.6 L826.6,316.9 L827.0,317.5 L829.7,317.3 L830.1,316.6 L830.4,317.1 L831.3,317.9 L832.0,317.7 L832.6,317.9 L833.0,317.8 L833.4,318.5 L833.9,319.6 L834.5,320.4 L834.8,320.2 L835.4,319.0 L836.3,319.1 L836.9,318.8 L837.3,318.6 L838.4,319.2 L839.0,319.4 L839.4,319.1 L839.6,319.0 L840.7,319.0 L841.7,319.8 L841.9,319.9 L842.5,319.4 L843.0,318.8 L843.6,318.9 L843.9,319.1 L844.4,318.5 L844.7,317.9 L845.1,316.8 L845.6,318.4 L846.3,319.0 L846.6,319.6 L847.0,320.2 L847.8,318.2 L848.1,317.8 L848.1,317.8 L848.3,317.7 L848.8,317.6 L849.3,317.9 L850.5,317.4 L851.9,318.5 L852.1,318.6 L852.5,318.5 L852.7,318.5 L853.1,318.8 L853.7,319.2 L853.9,319.2 L855.6,318.4 L856.0,318.7 L856.2,319.1 L856.3,319.3 L856.5,319.4 L857.1,318.8 L857.6,318.7 L858.8,319.4 L861.4,318.2 L861.6,318.2 L862.1,318.3 L862.3,318.4 L863.2,318.5 L863.5,319.1 L864.2,319.4 L870.0,319.0 L870.4,319.4 L870.7,319.1 L871.1,318.6 L873.0,317.9 L873.4,317.8 L873.9,318.0 L874.2,318.0 L874.8,318.6 L878.6,318.1 L881.6,317.9 L882.0,317.6 L883.4,317.5 L883.7,317.1 L885.1,317.5 L885.6,317.4 L886.5,318.1 L886.8,317.2 L887.1,317.3 L889.7,316.6 L894.3,317.8 L896.5,317.7 L901.2,317.8 L902.2,318.4 L902.4,318.6 L902.5,318.7 L902.8,319.0 L903.2,319.0 L903.4,318.8 L904.0,318.8 L904.2,318.8 L904.3,319.0 L904.4,319.2 L904.5,319.3 L904.7,319.5 L906.2,318.2 L906.3,318.1 L906.5,318.1 L906.6,318.0 L906.8,318.1 L908.0,316.8 L908.3,317.4 L908.4,317.8 L908.6,318.1 L909.1,319.0 L910.1,318.7 L911.0,319.4 L911.1,319.3 L911.3,319.2 L911.6,319.1 L911.8,319.1 L911.9,319.1 L912.0,319.1 L912.3,319.1 L912.7,318.8 L912.9,318.8 L916.5,320.5 L917.1,319.7 L917.4,319.5 L917.8,319.7 L917.9,319.8 L918.2,319.8 L919.2,319.9 L920.1,320.1 L920.3,320.0 L922.4,320.0 L922.7,320.1 L923.0,319.8 L923.3,319.3 L924.0,319.7 L924.4,319.5 L924.6,319.6 L924.8,319.6 L924.9,319.6 L925.0,319.6 L925.1,319.8 L925.3,319.9 L926.2,319.6 L927.7,320.9 L928.2,320.8 L931.3,320.3 L933.4,320.2 L934.0,320.2 L934.5,319.8 L934.9,319.4 L934.9,319.4 L935.1,319.3 L935.3,319.1 L935.4,319.0 L935.5,319.0 L935.7,319.2 L935.8,319.1 L935.9,319.1 L936.2,318.9 L936.9,319.2 L937.2,319.5 L937.3,319.5 L938.9,320.1 L939.2,320.2 L940.1,319.5 L940.2,319.5 L940.4,319.4 L940.5,319.4 L940.7,319.4 L941.0,319.4 L941.1,319.4 L941.6,319.2 L941.7,319.2 L942.1,318.9 L942.2,318.7 L942.2,318.7 L942.7,318.2 L942.8,318.1 L942.8,318.1 L942.9,318.0 L943.8,316.9 L944.8,317.1 L945.9,316.7 L946.0,316.4 L947.0,314.5 L947.2,314.5 L947.8,315.1 L947.9,315.3 L948.1,315.4 L948.3,315.7 L948.4,315.9 L948.6,316.2 L948.6,316.2 L948.7,316.3 L948.9,316.5 L949.3,316.4 L949.5,316.2 L950.0,316.1 L950.6,316.6 L950.9,316.9 L951.4,317.1 L951.5,317.1 L952.0,317.0 L952.1,317.1 L952.2,317.1 L952.4,317.0 L952.6,317.1 L952.7,317.5 L953.0,317.9 L953.3,318.3 L953.6,318.1 L953.9,318.0 L953.9,317.9 L954.3,317.8 L954.4,317.7 L954.5,317.5 L954.6,317.4 L954.7,317.4 L954.8,317.2 L954.9,317.1 L955.1,316.9 L955.3,316.6 L956.7,316.4 L957.6,315.9 L957.8,316.3 L957.9,316.7 L957.9,316.8 L958.0,316.7 L958.2,316.5 L958.3,316.3 L958.5,316.1 L958.8,315.8 L959.5,315.7 L960.7,315.0 L967.3,315.0 L970.1,312.4 L970.5,312.1 L970.6,312.0 L971.2,312.4 L975.7,313.2 L975.8,313.1 L978.9,314.3 L979.5,314.6 L980.6,314.4 L981.7,313.9 L985.0,313.4 L985.9,313.9 L986.2,313.7 L986.5,313.7 L987.3,313.2 L994.8,314.0 L996.5,314.2 L997.6,313.2 L1000.5,312.9 L1005.9,312.9 L1006.3,312.8 L1007.7,314.2 L1009.6,314.4 L1010.4,314.2 L1010.8,314.6 L1011.4,315.0 L1015.0,313.9 L1015.5,314.0 L1016.4,313.5 L1016.9,313.4 L1017.7,313.1 L1018.7,313.7 L1019.4,315.4 L1020.0,316.4 L1021.2,316.9 L1021.7,316.9 L1022.7,317.7 L1023.1,317.9 L1024.4,316.7 L1024.6,317.0 L1024.9,317.5 L1025.3,317.9 L1025.7,318.0 L1026.0,316.9 L1026.4,315.6 L1027.0,315.9 L1027.7,317.7 L1028.2,318.3 L1028.7,318.8 L1029.3,318.9 L1029.9,320.1 L1030.5,321.1 L1030.6,321.3 L1031.7,321.3 L1032.2,321.3 L1032.8,320.9 L1033.9,321.3 L1034.6,321.9 L1034.8,322.2 L1035.0,322.4 L1035.1,322.5 L1035.2,322.6 L1035.3,322.6 L1035.3,322.6 L1035.5,322.5 L1035.6,322.3 L1036.0,321.9 L1036.3,321.6 L1036.4,321.5 L1036.5,321.4 L1037.0,320.8 L1037.2,320.9 L1037.4,321.2 L1037.7,321.2 L1038.3,321.0 L1038.5,321.0 L1039.3,321.0 L1039.8,320.9 L1040.1,320.8 L1040.5,320.9 L1041.3,321.3 L1041.5,321.5 L1042.1,321.2 L1042.4,321.2 L1042.6,321.1 L1043.8,320.5 L1044.9,320.8 L1045.5,320.6 L1045.9,320.1 L1046.1,320.2 L1046.7,320.6 L1047.5,320.5 L1048.6,320.9 L1048.8,320.6 L1049.1,320.7 L1049.4,320.7 L1049.5,320.7 L1051.1,321.3 L1051.7,321.4 L1052.8,321.4 L1052.9,321.4 L1053.0,321.3 L1053.4,321.3 L1053.7,321.5 L1053.8,321.7 L1054.0,321.8 L1056.6,321.5 L1057.3,321.2 L1057.8,321.0 L1059.4,320.4 L1060.0,320.5 L1061.7,319.9 L1061.9,319.9 L1062.1,319.8 L1062.3,319.5 L1062.5,319.2 L1065.4,318.8 L1066.6,319.7 L1066.9,319.9 L1067.4,319.4 L1067.6,319.0 L1067.7,318.7 L1067.7,318.7 L1068.0,319.0 L1068.1,319.2 L1068.4,319.2 L1068.5,319.2 L1068.7,319.5 L1070.0,319.1 L1070.4,320.3 L1070.6,320.5 L1071.2,320.5 L1071.5,320.7 L1071.9,320.2 L1072.0,320.0 L1072.1,320.1 L1072.3,319.8 L1072.9,320.0 L1073.7,320.2 L1074.5,322.4 L1075.0,322.5 L1075.3,322.3 L1075.4,322.1 L1075.7,321.6 L1076.3,321.9 L1077.0,321.9 L1077.7,322.0 L1078.1,322.0 L1078.4,322.0 L1078.7,321.8 L1078.8,321.8 L1078.8,321.8 L1079.0,321.8 L1079.1,321.7 L1079.5,321.0 L1080.4,321.4 L1081.1,321.7 L1081.4,321.5 L1081.6,321.5 L1082.1,321.3 L1082.1,321.3 L1082.3,321.2 L1082.7,321.4 L1083.0,321.8 L1083.3,322.0 L1083.4,322.1 L1083.7,322.2 L1083.9,322.0 L1084.4,321.8 L1084.5,321.8 L1084.7,322.0 L1085.1,321.9 L1085.1,321.8 L1085.3,321.6 L1085.4,321.6 L1085.5,321.5 L1085.6,321.4 L1085.7,321.5 L1086.1,321.6 L1086.3,321.5 L1086.9,321.0 L1087.5,320.9 L1087.7,320.7 L1088.0,320.2 L1088.3,319.5 L1088.4,319.5 L1088.6,319.5 L1088.7,319.5 L1089.0,319.7 L1089.2,320.1 L1089.3,320.2 L1090.2,321.2 L1090.3,321.3 L1090.5,321.4 L1091.0,321.6 L1092.1,321.2 L1092.3,321.4 L1092.6,321.6 L1092.6,321.6" fill="transparent" id="track" stroke="black" stroke-width="2"/>
<g>
<circle cx="1092.632" cy="321.646" id="wp-460/circle" r="4.000"/>
<text font-size="16.0" id="wp-460/text" text-anchor="start" x="1094.632" y="293.646">
K4
</text>
<circle cx="406.843" cy="299.132" fill="Gray" id="wp-1/circle" r="5.000"/>
<text font-size="16.0" id="wp-17/text" text-anchor="start" x="408.843" y="316.132">
Gernsbach
</text>
<circle cx="1092.632" cy="321.646" fill="Gray" id="wp-2/circle" r="5.000"/>
<text font-size="16.0" id="wp-25/text" text-anchor="start" x="1094.632" y="338.646">
Wörth
</text>
<circle cx="361.552" cy="220.477" fill="Blue" id="wp-3/circle" r="3.000"/>
<text font-size="16.0" id="wp-9/text" text-anchor="start" x="363.552" y="217.477">
Nachtigall
</text>
<circle cx="270.690" cy="108.159" fill="Blue" id="wp-4/circle" r="3.000"/>
<text font-size="16.0" id="wp-10/text" text-anchor="start" x="272.690" y="105.159">
Rote Lache
</text>
<circle cx="181.728" cy="253.459" fill="Gray" id="wp-5/circle" r="3.000"/>
<text font-size="16.0" id="wp-4/text" text-anchor="start" x="183.728" y="270.459">
Forbach
</text>
<circle cx="650.981" cy="314.440" fill="Gray" id="wp-6/circle" r="3.000"/>
<text font-size="16.0" id="wp-5/text" text-anchor="start" x="652.981" y="311.440">
Iffezheim
</text>
<circle cx="739.547" cy="317.129" fill="Gray" id="wp-7/circle" r="3.000"/>
<text font-size="16.0" id="wp-6/text" text-anchor="start" x="741.547" y="314.129">
Beinheim
</text>
<circle cx="952.170" cy="317.093" fill="Gray" id="wp-8/circle" r="3.000"/>
<text font-size="16.0" id="wp-7/text" text-anchor="start" x="954.170" y="289.093">
Lauterbourg
</text>
<circle cx="971.250" cy="312.433" fill="Gray" id="wp-9/circle" r="3.000"/>
<text font-size="16.0" id="wp-8/text" text-anchor="start" x="973.250" y="309.433">
Berg
</text>
<circle cx="1037.449" cy="321.180" fill="Gray" id="wp-10/circle" r="3.000"/>
<text font-size="16.0" id="wp-9/text" text-anchor="start" x="1039.449" y="313.180">
Hagenbach
</text>
</g>
</g>
<g id="SL" transform="translate(0 0)">
<text text-anchor="end" x="0" y="363.5">
0
</text>
<text text-anchor="end" x="0" y="291.8">
200
</text>
<text text-anchor="end" x="0" y="220.1">
400
</text>
<text text-anchor="end" x="0" y="148.4">
600
</text>
<text text-anchor="end" x="0" y="76.69999999999999">
800
</text>
</g>
</g>
</svg>