<svg height="400" width="1420" xmlns="http://www.w3.org/2000/svg">
<g font-family="Libertinus Serif" font-size="15" id="world" shape-rendering="crispEdges">
<g id="BG"/>
<g id="SB" transform="translate(0 360)">
<text text-anchor="middle" x="-0.21393091400159392" y="14.5">
180
</text>
<text text-anchor="middle" x="391.518857420137" y="14.5">
200
</text>
<text text-anchor="middle" x="783.2516457542756" y="14.5">
220
</text>
<text text-anchor="middle" x="1174.9844340884142" y="14.5">
240
</text>
</g>
<g id="SD" transform="translate(0 0)">
<path d="M0,0 L0,358.5 L1418.5,358.5 L1418.5,0 L0,0" fill="lightgray" id="bg"/>
<path d="M0,0 L1418.5,0" stroke="black" stroke-width="3"/>
<path d="M0,0 L0,358.5" stroke="black" stroke-width="3"/>
<path d="M0,358.5 L1418.5,358.5" stroke="black" stroke-width="3"/>
<path d="M1418.5,0 L1418.5,358.5" stroke="black" stroke-width="3"/>
<path d="M-0.21393092,0 L-0.21393092,358.5" stroke="black" stroke-width="1"/>
<path d="M391.51886,0 L391.51886,358.5" stroke="black" stroke-width="1"/>
<path d="M783.25165,0 L783.25165,358.5" stroke="black" stroke-width="1"/>
<path d="M1174.9844,0 L1174.9844,358.5" stroke="black" stroke-width="1"/>
<path d="M195.65247,0 L195.65247,358.5" stroke="black" stroke-dasharray="1.0,2.5,5.0,5.0,10.0,5.0"/>
<path d="M587.38525,0 L587.38525,358.5" stroke="black" stroke-dasharray="1.0,2.5,5.0,5.0,10.0,5.0"/>
<path d="M979.11804,0 L979.11804,358.5" stroke="black" stroke-dasharray="1.0,2.5,5.0,5.0,10.0,5.0"/>
<path d="M1370.8508,0 L1370.8508,358.5" stroke="black" stroke-dasharray="1.0,2.5,5.0,5.0,10.0,5.0"/>
<path d="M0,358.5 L1418.5,358.5" stroke="black" stroke-width="1"/>
<path d="M0,307.2857 L1418.5,307.2857" stroke="black" stroke-width="1"/>
<path d="M0,256.07144 L1418.5,256.07144" stroke="black" stroke-width="1"/>
<path d="M0,204.85715 L1418.5,204.85715" stroke="black" stroke-width="1"/>
<path d="M0,153.64285 L1418.5,153.64285" stroke="black" stroke-width="1"/>
<path d="M0,102.42857 L1418.5,102.42857" stroke="black" stroke-width="1"/>
<path d="M0,51.214287 L1418.5,51.214287" stroke="black" stroke-width="1"/>
<path d="M0,0 L1418.5,0" stroke="black" stroke-width="1"/>
<path d="M0,332.89285 L1418.5,332.89285" stroke="black" stroke-dasharray="1.0,2.5,5.0,5.0,10.0,5.0"/>
<path d="M0,281.67856 L1418.5,281.67856" stroke="black" stroke-dasharray="1.0,2.5,5.0,5.0,10.0,5.0"/>
<path d="M0,230.46428 L1418.5,230.46428" stroke="black" stroke-dasharray="1.0,2.5,5.0,5.0,10.0,5.0"/>
<path d="M0,179.25 L1418.5,179.25" stroke="black" stroke-dasharray="1.0,2.5,5.0,5.0,10.0,5.0"/>
<path d="M0,128.03572 L1418.5,128.03572" stroke="black" stroke-dasharray="1.0,2.5,5.0,5.0,10.0,5.0"/>
<path d="M0,76.82143 L1418.5,76.82143" stroke="black" stroke-dasharray="1.0,2.5,5.0,5.0,10.0,5.0"/>
<path d="M0,25.607143 L1418.5,25.607143" stroke="black" stroke-dasharray="1.0,2.5,5.0,5.0,10.0,5.0"/>
<path d="M0,-25.607143 L1418.5,-25.607143" stroke="black" stroke-dasharray="1.0,2.5,5.0,5.0,10.0,5.0"/>
<path d="M0.0,118.2 L0.2,118.1 L0.4,117.6 L0.8,115.2 L1.4,109.1 L2.6,102.1 L2.8,102.9 L3.3,107.6 L3.5,108.5 L3.7,107.8 L4.0,105.8 L4.5,102.2 L5.3,97.2 L5.5,96.7 L5.6,97.1 L5.8,98.2 L6.6,100.1 L6.8,100.2 L7.0,100.6 L7.3,101.1 L8.6,100.8 L9.3,99.8 L9.6,99.7 L9.9,100.1 L10.2,100.5 L11.3,94.2 L12.0,88.2 L13.1,84.5 L13.4,83.9 L14.8,76.5 L15.0,76.2 L15.3,77.0 L15.6,79.0 L16.4,84.0 L16.8,84.9 L17.0,84.5 L17.2,82.7 L18.1,75.8 L18.4,74.9 L18.8,76.1 L19.1,78.4 L19.6,81.1 L20.1,80.0 L20.3,78.5 L20.6,76.0 L21.1,72.7 L21.3,72.8 L23.0,72.7 L23.8,69.4 L24.1,68.8 L24.4,68.7 L24.6,69.0 L24.8,69.6 L25.0,70.0 L25.6,71.9 L25.8,71.7 L26.0,71.1 L26.2,69.0 L26.4,68.1 L26.6,67.6 L26.9,67.4 L27.1,67.8 L27.6,67.3 L28.5,64.2 L28.7,63.5 L29.0,63.2 L29.4,63.4 L32.1,61.6 L33.0,62.6 L33.4,63.7 L34.4,61.8 L34.7,60.3 L35.0,57.7 L35.5,55.3 L35.9,55.3 L36.3,57.2 L36.6,58.4 L36.9,58.4 L37.0,58.0 L37.6,54.9 L37.8,52.9 L38.0,51.6 L38.2,50.4 L38.4,49.8 L38.6,49.6 L39.2,51.3 L41.1,46.4 L42.5,39.1 L42.6,38.9 L43.0,39.9 L44.2,44.7 L44.4,45.3 L44.6,46.5 L44.8,46.8 L45.1,46.7 L45.8,43.7 L48.3,39.7 L48.7,39.6 L49.3,38.5 L49.8,37.3 L50.3,36.8 L51.6,37.6 L52.2,37.6 L52.6,37.6 L53.3,37.4 L54.6,30.3 L55.0,29.3 L55.7,28.4 L55.9,27.8 L56.2,27.0 L56.6,26.5 L57.1,26.5 L57.9,27.8 L58.4,28.8 L59.7,29.4 L60.7,33.0 L61.6,36.0 L62.0,37.0 L62.5,37.8 L63.5,37.6 L63.7,37.3 L64.0,37.3 L64.2,38.0 L64.4,39.1 L65.0,43.0 L65.6,45.1 L67.1,46.6 L67.4,47.2 L67.9,48.0 L68.1,48.3 L68.3,49.0 L68.8,49.7 L69.1,50.1 L69.8,50.5 L69.9,50.6 L70.1,50.7 L70.3,51.0 L70.5,51.3 L71.3,52.5 L72.0,52.2 L72.2,52.0 L72.5,51.9 L72.7,51.9 L73.3,53.9 L73.5,54.3 L73.8,54.5 L74.2,54.9 L74.8,56.0 L75.3,56.3 L75.8,59.0 L76.5,59.9 L77.1,60.6 L77.7,62.0 L78.0,63.0 L78.3,64.7 L78.9,68.5 L80.5,73.8 L81.7,77.3 L82.0,77.9 L82.3,77.9 L82.6,78.1 L82.9,78.2 L83.6,78.9 L84.8,78.0 L85.2,78.3 L86.2,81.0 L86.7,82.4 L87.4,84.9 L88.0,87.5 L89.0,88.2 L89.3,88.7 L90.3,93.1 L90.4,94.0 L91.0,95.4 L92.3,100.0 L92.6,101.1 L93.1,102.7 L93.8,105.3 L94.2,105.7 L94.5,104.5 L95.0,101.0 L95.2,99.5 L95.5,98.5 L95.8,98.5 L96.1,99.6 L96.3,101.3 L96.9,106.0 L97.2,107.9 L97.5,108.7 L98.5,107.5 L99.8,115.6 L100.8,119.4 L101.2,122.1 L102.5,122.1 L102.9,122.7 L103.3,124.2 L104.2,127.6 L104.5,128.4 L105.1,128.0 L105.5,128.7 L105.9,130.8 L106.8,133.2 L107.8,139.3 L108.3,141.1 L109.0,142.7 L109.3,143.0 L110.3,139.4 L110.6,140.5 L112.0,146.3 L112.4,146.8 L113.5,144.1 L113.8,143.5 L114.2,144.2 L114.8,147.0 L116.0,152.0 L116.9,155.0 L117.0,154.9 L117.3,153.7 L117.5,153.5 L117.8,154.3 L118.6,157.7 L119.5,157.3 L120.1,159.5 L121.8,157.9 L123.8,168.7 L124.4,169.3 L124.9,168.9 L126.4,170.5 L128.7,174.0 L129.6,174.2 L130.2,174.5 L130.8,176.8 L132.0,181.8 L133.5,179.8 L134.4,185.3 L134.7,187.3 L135.8,190.9 L136.3,191.7 L136.6,191.7 L137.0,190.3 L138.4,188.5 L139.3,193.7 L140.5,200.7 L141.6,203.7 L143.8,209.2 L144.3,209.8 L145.8,218.0 L146.9,219.4 L147.9,221.3 L148.3,222.1 L148.4,222.4 L148.5,222.8 L148.8,223.2 L149.0,223.6 L149.7,224.5 L150.0,224.6 L150.4,225.1 L151.0,227.2 L151.6,228.9 L152.3,228.5 L153.4,228.4 L154.1,226.7 L154.7,225.7 L155.8,226.6 L156.2,226.6 L156.5,226.9 L158.0,230.9 L158.7,233.1 L159.1,232.7 L159.5,233.3 L159.7,233.7 L160.5,236.5 L161.2,238.0 L161.7,239.5 L163.0,241.5 L163.9,243.0 L165.1,242.3 L166.0,243.8 L166.2,244.0 L167.1,245.6 L167.5,245.5 L167.7,245.0 L168.2,242.9 L168.7,241.2 L169.1,239.5 L170.1,237.1 L170.5,237.0 L170.9,236.4 L173.8,233.2 L176.4,232.2 L177.3,231.3 L178.5,229.2 L180.0,228.0 L180.9,228.8 L182.5,223.8 L183.6,223.2 L184.7,220.9 L185.4,219.1 L186.1,218.0 L186.5,217.6 L186.7,217.5 L186.9,217.5 L187.1,217.5 L187.4,217.3 L188.0,217.6 L188.4,217.3 L189.4,210.3 L189.6,208.9 L189.9,208.1 L190.9,208.5 L191.7,208.9 L191.8,207.8 L192.0,205.2 L192.2,203.5 L192.3,203.3 L193.1,205.7 L193.6,205.2 L194.5,201.0 L194.9,201.5 L196.1,204.0 L196.8,204.5 L197.2,203.7 L198.0,200.4 L198.4,198.1 L199.3,195.1 L199.8,193.0 L200.5,190.4 L200.9,189.2 L201.2,189.1 L201.5,189.2 L202.3,190.6 L203.1,190.4 L204.1,188.8 L205.4,186.8 L206.3,186.5 L206.9,186.9 L207.1,186.9 L208.5,187.4 L209.8,191.4 L210.3,191.3 L210.7,190.9 L211.3,190.8 L212.2,189.0 L212.5,188.7 L212.9,188.2 L213.3,187.2 L214.1,186.9 L214.6,186.7 L214.8,186.5 L215.1,186.7 L215.5,187.9 L215.7,188.6 L216.0,189.9 L216.2,190.8 L218.8,198.0 L219.4,199.3 L219.9,200.2 L220.4,200.8 L221.6,202.3 L222.2,203.4 L223.2,204.5 L223.8,205.2 L224.7,204.8 L225.2,205.8 L226.3,207.5 L227.3,210.5 L228.3,214.6 L229.7,217.6 L230.9,218.5 L231.5,218.6 L231.8,218.5 L232.2,218.8 L232.9,219.7 L236.2,226.0 L236.6,226.6 L238.3,230.5 L239.8,236.9 L240.2,238.7 L240.5,239.1 L240.8,239.5 L241.4,238.3 L242.1,230.7 L242.4,228.8 L242.6,228.9 L242.8,230.5 L243.0,233.2 L243.3,237.4 L243.7,241.4 L244.0,241.7 L245.2,242.6 L245.7,243.8 L246.0,243.8 L246.5,242.8 L247.6,237.5 L247.8,237.0 L248.0,237.4 L248.2,238.5 L248.4,239.7 L248.8,243.5 L249.0,245.1 L249.2,246.2 L249.5,247.2 L249.7,248.0 L250.4,250.1 L251.0,251.4 L251.9,251.2 L252.2,250.8 L253.1,248.2 L253.4,247.9 L253.6,248.8 L253.8,250.9 L254.4,255.7 L254.9,258.1 L255.2,258.5 L256.0,255.6 L256.4,256.4 L256.6,258.2 L256.8,260.8 L257.2,262.8 L260.0,271.4 L260.7,270.6 L261.4,270.9 L262.7,273.7 L264.5,277.3 L266.2,277.7 L267.4,280.9 L270.4,285.3 L270.7,285.9 L271.8,287.5 L272.5,288.5 L273.0,290.1 L273.2,290.7 L273.4,291.4 L273.7,291.7 L273.7,291.8 L273.8,291.9 L274.3,291.4 L274.5,291.2 L275.0,291.0 L275.4,291.1 L276.0,292.1 L276.7,293.0 L277.0,293.4 L277.6,293.9 L277.9,294.0 L278.1,294.2 L278.3,294.4 L278.6,294.7 L279.3,295.3 L279.6,295.7 L279.9,296.4 L280.1,296.6 L280.6,297.9 L280.7,298.3 L280.9,298.8 L282.0,299.6 L282.2,299.3 L282.5,299.5 L283.3,299.8 L283.7,300.0 L284.0,300.2 L285.1,300.0 L285.5,300.1 L285.7,300.3 L286.4,300.6 L287.4,300.1 L287.5,299.9 L288.0,299.7 L289.2,300.3 L290.3,299.7 L290.8,299.9 L291.0,300.1 L292.0,300.6 L292.6,300.3 L292.9,300.1 L293.3,300.0 L294.3,300.2 L294.7,300.0 L295.1,299.8 L295.8,299.5 L296.2,299.3 L296.4,299.6 L297.5,298.8 L297.7,298.3 L297.8,297.9 L298.9,296.7 L299.3,296.8 L300.7,297.3 L301.1,297.1 L301.8,297.1 L302.2,298.2 L303.0,298.9 L303.5,298.8 L304.0,298.7 L304.2,298.6 L304.5,298.4 L305.7,297.2 L306.9,295.4 L307.2,294.9 L307.4,294.7 L307.7,294.3 L308.1,293.9 L308.3,293.7 L308.8,292.8 L309.3,291.1 L310.5,291.4 L312.1,293.6 L312.4,292.8 L313.0,292.0 L314.0,290.8 L314.6,290.2 L315.0,290.2 L315.3,290.1 L315.6,289.9 L316.2,289.0 L316.8,288.4 L318.1,287.1 L320.0,285.5 L320.4,285.5 L321.0,284.8 L321.3,284.8 L321.6,284.6 L322.4,283.6 L324.9,283.0 L325.6,282.2 L326.3,281.4 L327.5,279.6 L329.2,278.1 L330.1,279.4 L330.9,278.7 L331.3,277.9 L331.9,276.6 L332.5,277.2 L333.3,276.6 L335.2,273.1 L335.5,273.3 L336.4,273.8 L336.9,273.2 L338.1,272.8 L338.8,272.8 L339.2,272.5 L339.5,271.8 L339.9,270.5 L341.2,269.6 L341.9,269.1 L342.4,268.4 L342.6,268.1 L343.3,266.5 L344.7,261.9 L345.3,260.0 L345.7,257.3 L346.9,254.7 L347.6,253.6 L348.8,250.7 L349.3,249.4 L350.6,245.3 L351.3,242.3 L352.2,238.6 L352.9,233.4 L353.5,229.6 L353.8,227.9 L354.0,226.9 L354.3,226.4 L355.6,225.6 L355.8,224.0 L356.2,223.7 L356.5,223.3 L357.1,221.0 L357.5,219.9 L358.0,218.9 L358.6,218.2 L358.8,217.9 L360.0,214.3 L360.4,213.4 L361.4,211.6 L361.9,211.3 L362.8,209.9 L363.2,210.1 L363.8,210.5 L365.0,206.3 L365.4,205.6 L365.8,205.0 L367.0,202.2 L368.7,200.2 L369.0,200.2 L369.9,199.0 L371.4,197.4 L372.9,197.9 L373.4,196.6 L373.6,196.0 L374.0,195.5 L381.6,200.0 L382.4,203.8 L383.1,204.9 L384.7,203.4 L385.4,203.4 L385.9,202.9 L386.2,202.8 L386.6,202.6 L387.0,202.3 L387.9,201.8 L388.5,202.5 L389.9,204.2 L390.3,206.6 L390.7,208.9 L391.3,210.3 L392.1,208.9 L393.1,204.1 L393.6,201.9 L394.3,198.1 L395.4,193.0 L396.0,190.9 L397.1,188.9 L397.4,188.0 L399.3,187.1 L400.7,190.9 L401.5,189.4 L401.7,189.1 L402.0,191.0 L402.4,196.4 L404.2,193.3 L404.7,192.2 L405.1,191.5 L405.9,191.5 L407.3,191.6 L407.6,192.1 L407.8,192.1 L408.2,191.7 L408.3,191.6 L408.6,191.0 L410.1,187.6 L410.4,186.7 L410.8,185.4 L411.2,184.0 L411.9,182.3 L413.1,180.2 L413.3,179.9 L413.4,179.4 L414.3,177.0 L415.0,175.4 L415.5,174.8 L416.0,174.3 L416.5,173.2 L416.9,172.5 L417.4,171.8 L418.1,170.6 L418.5,169.6 L419.3,167.9 L419.7,167.3 L420.6,165.9 L420.8,165.9 L420.9,165.8 L421.1,165.7 L421.2,165.7 L421.6,166.0 L422.2,166.5 L422.8,166.9 L423.4,167.3 L423.5,167.4 L424.4,168.4 L425.1,168.8 L425.7,169.3 L426.2,169.9 L426.5,170.0 L426.9,170.3 L427.3,170.6 L427.7,171.2 L428.2,171.4 L428.4,171.5 L428.5,172.1 L429.4,174.1 L430.9,178.8 L432.0,181.7 L432.3,182.2 L432.9,184.4 L433.8,187.3 L435.0,190.8 L435.2,190.9 L436.2,193.9 L437.2,197.8 L437.6,199.8 L437.9,201.9 L438.3,204.5 L439.7,206.9 L440.9,209.0 L441.6,210.5 L442.1,211.4 L442.2,211.5 L442.6,211.4 L443.7,212.0 L444.8,211.7 L446.5,212.4 L447.3,211.0 L447.6,210.2 L448.1,208.7 L449.0,211.7 L449.2,212.5 L449.8,213.1 L450.4,214.5 L450.6,215.0 L451.0,216.5 L451.5,217.9 L452.0,218.5 L452.1,218.7 L452.3,218.9 L452.5,219.2 L452.9,219.5 L453.3,219.9 L453.8,220.1 L454.8,218.7 L455.1,218.5 L455.7,219.4 L456.3,220.9 L457.0,222.3 L457.3,222.8 L459.2,228.1 L459.5,228.6 L460.1,229.3 L460.8,230.0 L462.0,233.0 L462.6,233.7 L463.5,236.3 L464.0,238.0 L464.4,238.5 L465.4,239.6 L465.8,240.8 L466.1,241.7 L467.7,243.7 L468.6,245.7 L468.7,246.0 L469.1,247.9 L469.2,248.3 L469.6,249.5 L473.6,253.8 L475.4,251.5 L476.3,252.3 L477.6,255.0 L479.2,258.0 L480.0,258.7 L481.5,258.7 L483.2,261.9 L485.7,256.0 L486.2,256.3 L487.1,259.6 L488.4,259.8 L492.1,266.0 L494.2,269.6 L495.7,270.1 L496.4,270.7 L499.4,273.7 L500.3,275.6 L501.2,277.4 L505.0,281.6 L507.5,286.9 L507.9,287.7 L508.5,288.4 L509.1,288.0 L510.1,288.2 L511.0,289.9 L513.1,294.3 L515.8,294.6 L517.9,299.8 L519.8,300.2 L521.7,303.5 L523.2,301.7 L523.4,301.9 L523.6,302.6 L524.0,303.8 L524.2,304.1 L524.4,304.2 L524.6,304.0 L525.1,302.6 L525.4,301.9 L525.9,302.6 L526.5,304.6 L526.7,305.3 L527.6,307.1 L527.9,307.4 L529.5,309.4 L530.0,309.9 L530.6,310.5 L531.3,310.6 L532.1,311.4 L533.1,312.0 L534.1,311.8 L534.8,312.5 L535.6,313.4 L535.7,313.5 L536.0,313.8 L536.3,314.1 L536.4,314.3 L536.6,314.3 L537.8,314.0 L538.3,314.0 L538.7,314.3 L539.0,314.7 L540.1,316.0 L540.3,316.2 L541.8,317.0 L542.1,317.1 L542.7,317.4 L542.9,317.5 L543.2,317.5 L543.9,317.3 L544.4,317.3 L545.0,317.5 L546.3,318.5 L547.9,317.8 L549.8,318.3 L550.6,318.7 L553.7,319.6 L554.7,319.9 L555.2,319.6 L557.1,319.6 L558.2,319.9 L559.2,320.6 L559.4,320.8 L560.1,321.6 L560.9,321.2 L561.3,320.9 L561.5,320.8 L561.7,320.8 L562.6,321.4 L564.8,322.5 L564.9,322.5 L565.1,322.6 L565.5,322.5 L565.9,322.5 L566.3,322.5 L567.7,322.3 L568.3,323.0 L568.6,323.4 L570.1,323.8 L570.4,323.4 L570.9,322.9 L571.4,322.5 L571.6,322.4 L571.9,322.6 L572.0,322.5 L572.2,322.7 L572.3,322.9 L572.4,323.0 L572.6,323.3 L572.8,323.5 L575.1,323.0 L575.3,322.9 L575.5,322.6 L575.6,322.4 L575.9,322.4 L576.1,322.6 L576.7,322.6 L576.7,322.6 L576.9,322.6 L576.9,322.6 L577.3,322.7 L577.5,322.8 L579.3,324.0 L579.9,322.9 L580.1,322.6 L580.2,322.6 L580.8,321.9 L581.3,322.1 L581.7,322.1 L582.8,321.7 L583.0,321.6 L583.1,321.6 L583.7,321.7 L584.1,321.7 L584.3,321.8 L584.6,321.8 L584.7,321.8 L585.0,321.9 L586.2,321.7 L588.1,322.0 L588.3,322.0 L590.2,320.1 L590.6,319.7 L591.0,319.8 L591.9,319.8 L592.0,319.7 L592.1,319.7 L592.2,319.8 L592.4,319.7 L593.2,320.7 L593.4,320.6 L594.1,321.1 L594.6,321.1 L595.1,321.1 L597.0,320.7 L598.4,320.1 L599.7,320.8 L601.0,320.2 L601.2,320.2 L601.4,320.3 L601.6,320.6 L601.9,320.8 L602.1,320.7 L604.0,320.2 L605.3,320.7 L605.5,320.8 L606.4,321.5 L606.8,321.8 L607.2,321.9 L608.6,322.4 L610.4,321.3 L610.9,321.7 L611.1,322.1 L613.9,322.1 L614.2,322.0 L616.0,321.6 L617.5,321.1 L621.2,322.0 L623.2,321.3 L626.0,321.0 L627.9,321.1 L628.1,321.1 L629.6,320.5 L631.3,320.4 L631.9,319.8 L632.1,319.9 L632.2,320.0 L636.4,320.9 L636.6,321.1 L636.9,321.4 L640.0,324.1 L646.2,319.5 L649.1,320.7 L652.1,321.1 L654.9,321.1 L655.1,321.0 L655.3,320.9 L655.4,320.8 L655.6,320.8 L659.7,321.2 L663.1,321.9 L663.3,321.9 L663.5,321.9 L664.2,321.7 L666.7,322.3 L667.3,322.1 L667.5,322.2 L667.7,322.3 L667.7,322.3 L667.9,322.3 L668.0,322.3 L668.2,322.2 L668.6,321.7 L668.9,321.9 L669.9,321.6 L670.0,321.6 L670.1,321.5 L671.2,321.4 L671.4,321.6 L671.5,321.6 L672.3,322.7 L673.0,323.0 L673.2,322.9 L673.4,322.8 L673.7,322.6 L674.6,322.5 L674.7,322.4 L675.7,322.2 L676.2,321.9 L676.4,321.9 L676.5,321.8 L678.6,322.1 L681.9,321.4 L682.8,322.1 L683.6,321.8 L684.5,321.1 L686.1,321.1 L686.6,321.1 L686.7,321.2 L687.6,321.1 L687.8,321.0 L688.5,321.1 L688.8,321.2 L689.2,321.3 L689.7,321.7 L689.8,321.8 L690.3,322.2 L690.6,322.5 L691.3,323.5 L692.0,324.5 L693.2,324.3 L693.6,324.4 L694.9,325.4 L696.0,325.9 L696.3,326.1 L696.5,326.2 L696.7,326.2 L697.1,326.3 L698.8,325.8 L699.8,325.1 L701.5,325.3 L702.2,325.6 L702.7,325.4 L704.1,326.5 L704.3,326.7 L706.3,325.6 L709.4,327.6 L710.3,326.3 L711.6,324.8 L713.3,324.2 L714.9,323.7 L716.5,324.1 L717.5,323.2 L718.7,322.8 L719.3,323.0 L719.8,323.7 L720.4,324.5 L721.6,324.7 L722.5,324.6 L723.0,324.2 L723.8,323.0 L724.1,322.6 L725.3,323.6 L725.5,323.5 L726.5,324.4 L728.7,325.0 L730.0,325.0 L731.5,324.5 L732.2,325.2 L733.8,326.2 L735.2,325.6 L735.8,325.8 L736.4,325.7 L737.0,325.3 L737.2,325.3 L737.4,325.3 L737.5,325.1 L737.7,324.9 L737.9,324.7 L738.0,324.7 L738.2,324.6 L738.6,324.3 L738.8,324.1 L740.3,324.5 L742.4,326.2 L742.7,326.2 L743.8,325.6 L744.8,324.0 L746.1,324.8 L747.5,324.5 L749.5,324.9 L752.7,323.2 L757.0,324.0 L758.1,323.5 L759.2,322.8 L760.4,322.6 L763.4,322.2 L764.3,323.2 L764.8,324.5 L764.9,324.8 L768.3,325.2 L770.9,325.2 L773.6,324.9 L776.1,321.9 L776.9,321.6 L777.7,320.5 L779.5,322.4 L786.9,325.2 L792.9,324.1 L793.3,325.0 L799.2,326.4 L800.1,325.8 L800.9,325.4 L801.5,325.9 L802.5,326.5 L803.1,325.9 L803.4,325.4 L804.0,325.3 L809.0,326.2 L810.2,325.4 L811.1,324.8 L811.3,324.9 L811.5,324.8 L811.7,324.7 L812.5,325.0 L812.9,325.1 L813.1,325.1 L814.1,324.9 L815.5,325.2 L816.3,325.5 L817.3,325.9 L819.2,325.9 L819.3,325.9 L820.4,324.7 L822.4,326.2 L824.2,326.3 L824.6,326.1 L826.5,325.2 L827.5,325.3 L828.9,325.5 L830.0,324.9 L831.1,324.5 L832.2,325.0 L833.2,325.1 L833.5,325.0 L833.6,324.9 L833.9,325.1 L834.8,325.3 L835.1,325.3 L835.4,325.3 L835.8,325.4 L836.5,325.8 L837.3,326.5 L838.0,326.0 L838.4,325.6 L838.8,325.4 L839.3,325.8 L840.7,326.2 L841.1,326.3 L841.3,326.1 L841.4,326.0 L842.0,325.4 L843.3,324.6 L844.2,324.8 L844.7,325.2 L846.5,324.1 L849.2,324.5 L850.9,325.2 L851.8,325.1 L854.1,325.8 L854.4,326.1 L856.7,327.4 L857.7,327.4 L861.4,326.2 L861.8,326.2 L864.2,326.8 L864.5,326.5 L864.7,326.3 L865.3,325.8 L865.8,325.5 L866.6,325.4 L867.4,326.0 L870.2,326.9 L875.2,326.2 L880.0,326.0 L880.5,326.0 L885.1,325.5 L885.4,326.0 L885.8,326.4 L887.3,326.3 L888.9,326.0 L889.3,325.7 L889.6,325.5 L890.5,325.7 L898.8,326.0 L899.1,325.7 L899.5,325.2 L907.1,326.0 L914.6,327.3 L915.4,326.8 L918.9,323.8 L922.3,324.3 L924.2,324.8 L927.6,323.9 L927.9,324.2 L928.0,324.2 L928.1,324.5 L928.3,324.8 L928.4,325.0 L928.9,325.9 L929.3,326.0 L929.6,325.7 L930.5,325.6 L931.1,326.2 L931.9,327.1 L932.5,327.5 L933.1,327.7 L934.4,325.8 L935.3,326.0 L937.0,325.6 L937.5,325.0 L937.9,324.9 L938.4,325.0 L940.7,325.9 L941.2,325.6 L955.4,324.2 L955.8,324.2 L958.0,324.7 L958.7,324.7 L961.5,324.3 L964.8,325.9 L971.2,325.8 L972.0,326.0 L972.4,325.6 L973.1,324.9 L974.7,325.8 L976.0,324.6 L976.8,324.3 L977.6,324.7 L978.4,325.5 L982.8,325.3 L983.6,324.2 L983.9,324.9 L985.5,326.1 L986.7,325.8 L987.6,326.1 L988.3,325.9 L989.0,326.9 L989.7,328.5 L990.8,329.7 L991.3,329.4 L992.3,327.7 L993.7,327.9 L994.7,327.4 L995.4,327.1 L997.2,328.0 L998.2,328.3 L998.9,327.8 L999.2,327.7 L1001.1,327.6 L1002.8,328.8 L1003.0,328.9 L1004.0,328.2 L1004.8,327.4 L1005.8,327.6 L1006.4,327.8 L1007.2,327.0 L1007.6,326.1 L1008.3,324.6 L1009.3,326.8 L1010.3,327.7 L1010.9,328.5 L1011.6,329.4 L1012.9,326.5 L1013.2,326.0 L1013.4,326.0 L1013.7,325.9 L1014.5,325.6 L1015.3,326.1 L1017.3,325.4 L1019.6,326.9 L1020.0,327.2 L1020.6,327.0 L1021.0,327.0 L1021.6,327.4 L1022.7,328.0 L1023.0,327.9 L1025.8,326.8 L1026.4,327.3 L1026.7,327.8 L1026.9,328.1 L1027.3,328.3 L1028.2,327.4 L1029.1,327.3 L1031.1,328.3 L1035.3,326.6 L1035.7,326.5 L1036.5,326.7 L1036.9,326.8 L1038.4,327.0 L1038.8,327.8 L1039.9,328.2 L1049.6,327.7 L1050.3,328.2 L1050.8,327.9 L1051.4,327.2 L1054.5,326.1 L1055.2,326.0 L1056.0,326.3 L1056.5,326.3 L1057.6,327.1 L1063.9,326.4 L1068.8,326.1 L1069.5,325.6 L1071.9,325.6 L1072.4,325.0 L1074.7,325.5 L1075.5,325.4 L1077.0,326.4 L1077.5,325.1 L1078.0,325.3 L1082.2,324.2 L1089.9,326.0 L1093.5,325.8 L1101.3,325.9 L1103.0,326.8 L1103.3,327.1 L1103.5,327.2 L1104.0,327.7 L1104.6,327.7 L1104.9,327.5 L1105.9,327.4 L1106.2,327.4 L1106.4,327.7 L1106.6,327.9 L1106.8,328.1 L1107.0,328.4 L1109.5,326.6 L1109.8,326.4 L1110.1,326.3 L1110.3,326.3 L1110.6,326.3 L1112.6,324.6 L1113.0,325.4 L1113.3,326.0 L1113.5,326.4 L1114.3,327.6 L1116.0,327.3 L1117.5,328.3 L1117.7,328.1 L1118.0,328.0 L1118.5,327.8 L1118.8,327.8 L1119.0,327.8 L1119.3,327.8 L1119.7,327.8 L1120.3,327.4 L1120.7,327.4 L1126.7,329.9 L1127.6,328.6 L1128.2,328.3 L1128.7,328.7 L1129.0,328.8 L1129.5,328.8 L1131.1,329.0 L1132.6,329.3 L1133.0,329.1 L1136.4,329.2 L1137.0,329.3 L1137.4,328.8 L1137.9,328.1 L1139.0,328.7 L1139.8,328.4 L1140.0,328.6 L1140.4,328.6 L1140.6,328.6 L1140.8,328.6 L1141.0,328.8 L1141.3,328.9 L1142.7,328.6 L1145.1,330.4 L1146.1,330.2 L1151.2,329.5 L1154.7,329.4 L1155.7,329.4 L1156.5,328.8 L1157.2,328.3 L1157.2,328.3 L1157.5,328.1 L1157.8,327.8 L1158.0,327.7 L1158.1,327.7 L1158.4,327.9 L1158.7,327.9 L1158.8,327.8 L1159.3,327.6 L1160.4,328.0 L1161.0,328.3 L1161.1,328.4 L1163.7,329.3 L1164.3,329.4 L1165.7,328.4 L1166.0,328.3 L1166.3,328.3 L1166.4,328.3 L1166.7,328.3 L1167.3,328.2 L1167.4,328.3 L1168.3,328.0 L1168.4,327.9 L1169.0,327.5 L1169.3,327.3 L1169.3,327.2 L1170.0,326.5 L1170.2,326.4 L1170.2,326.4 L1170.4,326.3 L1171.8,324.7 L1173.6,324.9 L1175.3,324.3 L1175.6,324.0 L1177.1,321.3 L1177.6,321.3 L1178.5,322.1 L1178.7,322.3 L1179.0,322.6 L1179.3,323.0 L1179.5,323.2 L1179.8,323.7 L1179.9,323.7 L1180.0,323.9 L1180.3,324.1 L1181.0,324.0 L1181.3,323.7 L1182.1,323.5 L1183.2,324.2 L1183.7,324.7 L1184.5,325.0 L1184.7,325.0 L1185.5,324.8 L1185.6,324.9 L1185.8,325.0 L1186.1,324.9 L1186.4,325.0 L1186.7,325.5 L1187.1,326.1 L1187.6,326.7 L1188.2,326.4 L1188.6,326.2 L1188.7,326.1 L1189.2,325.9 L1189.5,325.8 L1189.7,325.6 L1189.8,325.4 L1189.9,325.4 L1190.2,325.1 L1190.3,325.0 L1190.6,324.7 L1190.9,324.2 L1193.3,324.0 L1194.7,323.3 L1195.0,323.8 L1195.2,324.3 L1195.3,324.5 L1195.4,324.4 L1195.7,324.1 L1195.9,323.8 L1196.2,323.5 L1196.7,323.2 L1197.9,323.0 L1199.9,322.0 L1210.8,322.0 L1215.5,318.2 L1216.2,317.8 L1216.3,317.7 L1217.4,318.3 L1224.7,319.4 L1224.9,319.2 L1230.0,321.0 L1231.0,321.4 L1232.9,321.1 L1234.7,320.3 L1240.2,319.6 L1241.7,320.3 L1242.1,320.1 L1242.7,320.1 L1244.0,319.4 L1256.4,320.6 L1259.3,320.8 L1261.1,319.4 L1265.9,318.9 L1274.8,319.0 L1275.4,318.9 L1277.7,320.8 L1280.9,321.1 L1282.2,320.8 L1283.0,321.4 L1284.0,321.9 L1289.9,320.4 L1290.8,320.6 L1292.1,319.9 L1293.0,319.7 L1294.4,319.3 L1296.0,320.1 L1297.2,322.5 L1298.1,324.0 L1300.1,324.7 L1301.0,324.6 L1302.6,325.9 L1303.3,326.1 L1305.4,324.4 L1305.7,324.8 L1306.3,325.5 L1307.0,326.1 L1307.5,326.3 L1308.2,324.6 L1308.8,322.8 L1309.7,323.3 L1310.9,325.8 L1311.7,326.7 L1312.6,327.5 L1313.6,327.5 L1314.5,329.3 L1315.5,330.6 L1315.6,330.9 L1317.6,330.9 L1318.4,331.0 L1319.3,330.4 L1321.1,330.9 L1322.3,331.8 L1322.7,332.3 L1323.0,332.5 L1323.2,332.7 L1323.3,332.8 L1323.4,332.8 L1323.5,332.8 L1323.8,332.6 L1324.0,332.4 L1324.6,331.8 L1325.2,331.4 L1325.3,331.3 L1325.5,331.1 L1326.3,330.2 L1326.7,330.4 L1327.1,330.8 L1327.5,330.8 L1328.4,330.5 L1328.8,330.5 L1330.1,330.5 L1330.9,330.4 L1331.5,330.3 L1332.1,330.3 L1333.4,330.9 L1333.7,331.2 L1334.7,330.8 L1335.3,330.8 L1335.7,330.6 L1337.5,329.9 L1339.4,330.3 L1340.4,329.9 L1341.0,329.3 L1341.4,329.4 L1342.4,330.0 L1343.7,329.9 L1345.6,330.4 L1345.9,329.9 L1346.3,330.2 L1346.9,330.1 L1347.0,330.1 L1349.7,331.0 L1350.7,331.0 L1352.6,331.2 L1352.7,331.0 L1352.8,330.9 L1353.4,330.9 L1353.9,331.3 L1354.2,331.5 L1354.4,331.7 L1358.8,331.2 L1360.0,330.8 L1360.7,330.6 L1363.5,329.7 L1364.4,329.9 L1367.3,328.9 L1367.6,329.0 L1367.9,328.8 L1368.2,328.3 L1368.5,328.0 L1373.4,327.5 L1375.3,328.7 L1375.8,329.0 L1376.7,328.2 L1377.0,327.6 L1377.1,327.3 L1377.3,327.3 L1377.7,327.7 L1377.9,328.0 L1378.3,327.9 L1378.5,328.0 L1378.9,328.3 L1381.0,327.8 L1381.7,329.5 L1382.0,329.9 L1383.0,329.8 L1383.5,330.2 L1384.2,329.4 L1384.3,329.1 L1384.5,329.2 L1384.8,328.8 L1385.8,329.1 L1387.1,329.4 L1388.4,332.5 L1389.4,332.7 L1389.7,332.3 L1389.9,332.1 L1390.4,331.5 L1391.5,331.9 L1392.7,331.9 L1393.8,332.0 L1394.4,331.9 L1394.9,331.9 L1395.4,331.7 L1395.5,331.7 L1395.6,331.7 L1395.8,331.6 L1396.0,331.5 L1396.8,330.5 L1398.2,331.1 L1399.3,331.6 L1399.9,331.3 L1400.2,331.2 L1401.0,330.9 L1401.1,330.9 L1401.4,330.8 L1402.0,331.0 L1402.6,331.6 L1403.1,332.0 L1403.3,332.1 L1403.6,332.2 L1404.0,331.9 L1404.9,331.7 L1405.1,331.7 L1405.4,332.0 L1406.0,331.8 L1406.1,331.7 L1406.4,331.5 L1406.5,331.4 L1406.6,331.3 L1406.8,331.2 L1407.1,331.2 L1407.7,331.4 L1408.0,331.3 L1409.1,330.5 L1410.0,330.3 L1410.2,330.1 L1410.8,329.4 L1411.3,328.4 L1411.4,328.4 L1411.8,328.4 L1412.0,328.4 L1412.4,328.7 L1412.8,329.2 L1412.9,329.4 L1414.5,330.8 L1414.7,330.9 L1415.0,331.0 L1415.9,331.5 L1417.6,330.8 L1418.0,331.1" fill="transparent" id="track" stroke="black" stroke-width="2"/>
<g>
<circle cx="282.176" cy="299.296" fill="Gray" id="wp-1/circle" r="5.000"/>
<text font-size="16.0" id="wp-17/text" text-anchor="start" x="284.176" y="316.296">
Gernsbach
</text>
<circle cx="207.130" cy="186.932" fill="Blue" id="wp-3/circle" r="3.000"/>
<text font-size="16.0" id="wp-9/text" text-anchor="start" x="209.130" y="183.932">
Nachtigall
</text>
<circle cx="56.576" cy="26.478" fill="Blue" id="wp-4/circle" r="3.000"/>
<text font-size="16.0" id="wp-10/text" text-anchor="start" x="58.576" y="23.478">
Rote Lache
</text>
<circle cx="686.703" cy="321.165" fill="Gray" id="wp-5/circle" r="3.000"/>
<text font-size="16.0" id="wp-5/text" text-anchor="start" x="688.703" y="318.165">
Iffezheim
</text>
<circle cx="833.452" cy="325.006" fill="Gray" id="wp-6/circle" r="3.000"/>
<text font-size="16.0" id="wp-6/text" text-anchor="start" x="835.452" y="322.006">
Beinheim
</text>
<circle cx="1185.760" cy="324.955" fill="Gray" id="wp-7/circle" r="3.000"/>
<text font-size="16.0" id="wp-7/text" text-anchor="start" x="1187.760" y="341.955">
Lauterbourg
</text>
<circle cx="1217.375" cy="318.297" fill="Gray" id="wp-8/circle" r="3.000"/>
<text font-size="16.0" id="wp-8/text" text-anchor="start" x="1219.375" y="315.297">
Berg
</text>
<circle cx="1327.064" cy="330.793" fill="Gray" id="wp-9/circle" r="3.000"/>
<text font-size="16.0" id="wp-9/text" text-anchor="start" x="1329.064" y="347.793">
Hagenbach
</text>
</g>
</g>
<g id="SL" transform="translate(0 0)">
<text text-anchor="end" x="-5" y="363.5">
50
</text>
<text text-anchor="end" x="-5" y="312.2857142857143">
150
</text>
<text text-anchor="end" x="-5" y="261.07142857142856">
250
</text>
<text text-anchor="end" x="-5" y="209.85714285714283">
350
</text>
<text text-anchor="end" x="-5" y="158.64285714285714">
450
</text>
<text text-anchor="end" x="-5" y="107.42857142857139">
550
</text>
<text text-anchor="end" x="-5" y="56.21428571428572">
650
</text>
<text text-anchor="end" x="-5" y="5">
750
</text>
</g>
</g>
</svg>