<svg height="400" width="1420" xmlns="http://www.w3.org/2000/svg">
<g font-size="18" id="world" shape-rendering="crispEdges">
<g id="BG"/>
<g id="SB" transform="translate(71 360)">
<text text-anchor="middle" x="0" y="17">
200
</text>
<text text-anchor="middle" x="245" y="17">
220
</text>
<text text-anchor="middle" x="490" y="17">
240
</text>
<text text-anchor="middle" x="735" y="17">
260
</text>
<text text-anchor="middle" x="980" y="17">
280
</text>
<text text-anchor="middle" x="1225" y="17">
300
</text>
</g>
<g id="SD" transform="translate(71 0)">
<path d="M0,0 L1347.5,0" stroke="black" stroke-width="3"/>
<path d="M0,0 L0,358.5" stroke="black" stroke-width="3"/>
<path d="M0,358.5 L1347.5,358.5" stroke="black" stroke-width="3"/>
<path d="M1347.5,0 L1347.5,358.5" stroke="black" stroke-width="3"/>
<path d="M0,343.5 L1347.5,343.5" stroke="black" stroke-width="1"/>
<path d="M0,0 L0,358.5" stroke="black" stroke-width="1"/>
<path d="M245,0 L245,358.5" stroke="black" stroke-width="1"/>
<path d="M490,0 L490,358.5" stroke="black" stroke-width="1"/>
<path d="M735,0 L735,358.5" stroke="black" stroke-width="1"/>
<path d="M980,0 L980,358.5" stroke="black" stroke-width="1"/>
<path d="M1225,0 L1225,358.5" stroke="black" stroke-width="1"/>
<path d="M122.5,15 L122.5,358.5" stroke="black" stroke-dasharray="1.0,2.5,5.0,5.0,10.0,5.0"/>
<path d="M367.5,15 L367.5,358.5" stroke="black" stroke-dasharray="1.0,2.5,5.0,5.0,10.0,5.0"/>
<path d="M612.5,15 L612.5,358.5" stroke="black" stroke-dasharray="1.0,2.5,5.0,5.0,10.0,5.0"/>
<path d="M857.5,15 L857.5,358.5" stroke="black" stroke-dasharray="1.0,2.5,5.0,5.0,10.0,5.0"/>
<path d="M1102.5,15 L1102.5,358.5" stroke="black" stroke-dasharray="1.0,2.5,5.0,5.0,10.0,5.0"/>
<path d="M1347.5,15 L1347.5,358.5" stroke="black" stroke-dasharray="1.0,2.5,5.0,5.0,10.0,5.0"/>
<path d="M0,358.5 L1347.5,358.5" stroke="black" stroke-width="1"/>
<path d="M0,307.2857 L1347.5,307.2857" stroke="black" stroke-width="1"/>
<path d="M0,256.07144 L1347.5,256.07144" stroke="black" stroke-width="1"/>
<path d="M0,204.85715 L1347.5,204.85715" stroke="black" stroke-width="1"/>
<path d="M0,153.64285 L1347.5,153.64285" stroke="black" stroke-width="1"/>
<path d="M0,102.42857 L1347.5,102.42857" stroke="black" stroke-width="1"/>
<path d="M0,51.214287 L1347.5,51.214287" stroke="black" stroke-width="1"/>
<path d="M0,0 L1347.5,0" stroke="black" stroke-width="1"/>
<path d="M0,332.89285 L1347.5,332.89285" stroke="black" stroke-dasharray="1.0,2.5,5.0,5.0,10.0,5.0"/>
<path d="M0,281.67856 L1347.5,281.67856" stroke="black" stroke-dasharray="1.0,2.5,5.0,5.0,10.0,5.0"/>
<path d="M0,230.46428 L1347.5,230.46428" stroke="black" stroke-dasharray="1.0,2.5,5.0,5.0,10.0,5.0"/>
<path d="M0,179.25 L1347.5,179.25" stroke="black" stroke-dasharray="1.0,2.5,5.0,5.0,10.0,5.0"/>
<path d="M0,128.03572 L1347.5,128.03572" stroke="black" stroke-dasharray="1.0,2.5,5.0,5.0,10.0,5.0"/>
<path d="M0,76.82143 L1347.5,76.82143" stroke="black" stroke-dasharray="1.0,2.5,5.0,5.0,10.0,5.0"/>
<path d="M0,25.607143 L1347.5,25.607143" stroke="black" stroke-dasharray="1.0,2.5,5.0,5.0,10.0,5.0"/>
<path d="M0,-25.607143 L1347.5,-25.607143" stroke="black" stroke-dasharray="1.0,2.5,5.0,5.0,10.0,5.0"/>
<text font-size="14" text-anchor="end" x="112.5" y="354.5">
0.8%
</text>
<text font-size="14" text-anchor="end" x="235" y="354.5">
0.3%
</text>
<text font-size="14" text-anchor="end" x="357.5" y="354.5">
0.2%
</text>
<text font-size="14" text-anchor="end" x="480" y="354.5">
0.2%
</text>
<text font-size="14" text-anchor="end" x="602.5" y="354.5">
0.3%
</text>
<text font-size="14" text-anchor="end" x="725" y="354.5">
0.1%
</text>
<path d="M0.4,177.1 L1.0,177.1 L1.3,174.7 L1.7,173.7 L2.5,170.1 L2.8,170.1 L3.5,166.8 L3.7,166.8 L4.8,164.9 L5.7,164.8 L6.2,165.6 L6.4,165.6 L6.6,165.6 L6.8,165.6 L7.9,166.1 L8.2,166.2 L8.5,166.1 L9.0,166.6 L9.9,164.6 L10.1,164.6 L10.2,164.6 L10.4,163.8 L10.5,163.8 L10.7,163.6 L11.6,161.2 L11.8,160.6 L12.1,160.6 L12.3,159.9 L12.7,157.7 L13.5,153.9 L13.6,153.9 L13.7,153.9 L14.2,152.2 L14.7,150.5 L15.0,149.3 L15.3,148.3 L15.6,148.3 L15.9,147.3 L16.2,144.6 L16.6,144.4 L16.9,143.8 L17.4,143.3 L17.7,142.8 L18.2,142.1 L18.3,142.1 L18.4,141.8 L18.5,141.8 L18.5,141.9 L18.8,141.6 L19.2,141.6 L19.6,141.7 L19.9,142.0 L20.0,142.0 L20.6,142.4 L21.0,143.4 L21.4,144.1 L21.7,144.3 L21.9,144.3 L22.2,144.6 L22.4,145.1 L22.6,145.7 L22.9,146.4 L23.1,147.4 L23.2,147.4 L23.7,148.5 L24.6,151.2 L25.3,154.9 L25.5,156.9 L25.9,159.3 L26.4,163.2 L27.2,166.7 L27.3,166.7 L27.9,169.0 L28.6,172.7 L28.8,172.7 L29.0,175.0 L29.3,176.8 L30.1,179.7 L30.9,181.8 L31.3,183.5 L31.6,184.3 L31.7,184.3 L31.9,184.9 L32.6,185.6 L33.3,185.3 L34.4,186.2 L34.9,186.8 L35.1,187.3 L35.4,187.8 L35.9,189.3 L36.1,189.3 L36.4,189.6 L36.8,189.9 L37.0,190.0 L37.2,190.2 L37.5,190.6 L37.8,191.1 L37.9,191.6 L38.0,191.6 L38.1,191.8 L38.4,191.8 L38.7,192.7 L39.0,193.3 L39.6,193.8 L39.8,194.1 L40.1,195.3 L40.5,196.5 L40.9,197.6 L41.1,197.9 L42.3,201.2 L42.5,201.2 L42.9,202.9 L43.3,205.4 L44.1,208.6 L44.4,209.2 L45.0,210.5 L45.4,211.9 L45.6,211.9 L46.2,215.4 L46.4,216.0 L46.7,216.7 L47.7,218.0 L48.2,219.2 L48.3,219.2 L48.6,219.2 L48.6,219.2 L48.8,219.8 L51.3,226.2 L52.5,228.5 L53.0,229.3 L53.8,230.1 L54.8,230.1 L55.3,231.8 L56.3,232.9 L57.3,232.7 L58.9,233.1 L59.2,233.1 L59.8,232.3 L60.6,233.9 L62.9,240.8 L64.2,243.5 L65.1,244.4 L65.6,245.4 L67.5,247.9 L68.1,250.0 L68.6,251.5 L71.0,258.8 L72.5,261.6 L72.8,261.6 L73.1,261.6 L73.5,262.6 L74.2,263.4 L74.7,263.4 L76.0,266.1 L77.7,270.6 L79.0,273.9 L80.2,276.0 L81.4,276.9 L82.4,277.5 L82.5,277.5 L82.6,277.5 L82.9,278.2 L83.0,278.2 L83.1,278.2 L83.3,278.2 L83.6,278.2 L83.7,278.2 L84.1,278.6 L84.4,279.0 L84.6,279.3 L85.1,280.3 L85.3,280.3 L86.3,282.7 L86.6,283.2 L87.0,283.9 L87.4,284.7 L87.9,286.1 L88.5,286.6 L89.1,287.2 L89.6,287.5 L90.1,287.8 L90.2,287.8 L90.4,287.8 L90.6,288.2 L90.6,288.3 L90.7,288.3 L91.5,288.5 L91.8,289.0 L92.1,289.0 L92.3,289.5 L92.9,290.1 L93.0,290.2 L94.0,290.8 L94.2,290.8 L94.6,291.4 L94.7,291.4 L94.8,291.6 L95.3,291.6 L95.6,291.9 L96.0,291.9 L96.8,292.1 L97.8,292.4 L99.0,293.0 L99.5,293.0 L101.4,293.7 L102.1,294.1 L102.4,294.1 L103.5,294.7 L104.2,294.9 L104.9,295.2 L105.0,295.2 L105.5,295.2 L105.9,295.3 L106.2,295.7 L106.3,295.7 L106.4,295.8 L107.0,296.1 L108.4,296.5 L108.4,296.5 L108.6,296.5 L108.8,296.8 L109.1,296.9 L109.3,297.0 L110.2,297.2 L110.5,297.1 L110.7,297.2 L111.7,297.3 L111.9,297.3 L112.2,297.3 L112.5,297.3 L112.6,297.3 L112.8,297.3 L112.9,297.3 L113.0,297.3 L113.1,297.3 L113.1,297.3 L113.2,297.3 L113.4,297.2 L114.8,297.1 L115.0,297.1 L115.1,297.2 L115.1,297.2 L115.3,297.2 L115.4,297.2 L115.8,297.2 L115.8,297.2 L115.9,297.1 L116.0,297.1 L116.2,297.1 L116.3,297.1 L117.5,296.9 L117.8,296.8 L117.9,296.8 L118.0,296.8 L118.4,296.6 L118.7,296.6 L119.0,296.5 L119.6,296.5 L119.8,296.5 L119.8,296.5 L120.2,296.4 L120.5,296.2 L120.6,296.2 L120.7,296.2 L120.8,296.2 L121.0,296.2 L121.7,296.2 L122.9,295.5 L123.1,295.2 L124.3,294.8 L124.5,294.8 L124.8,294.8 L125.3,294.9 L125.4,294.8 L125.4,294.8 L125.5,294.8 L125.7,294.6 L126.1,294.7 L126.2,294.7 L126.7,294.7 L127.0,294.7 L127.4,294.7 L128.5,295.2 L129.4,295.0 L130.2,294.9 L131.0,294.8 L131.2,294.8 L131.3,294.9 L131.4,294.9 L131.6,294.9 L131.7,294.9 L132.9,295.2 L133.7,295.5 L133.8,295.5 L134.4,295.7 L134.6,295.7 L134.9,295.8 L135.8,296.0 L136.9,296.3 L137.2,296.3 L137.3,296.3 L139.1,296.1 L139.3,296.1 L140.4,296.1 L141.4,296.2 L143.6,295.8 L144.9,295.8 L146.7,295.4 L147.8,295.2 L148.0,295.0 L148.9,294.9 L149.9,294.8 L150.3,294.7 L150.4,294.5 L150.5,294.5 L153.2,295.9 L153.3,296.3 L153.4,296.3 L155.4,296.3 L159.3,295.8 L161.1,294.8 L163.0,295.3 L164.7,295.3 L164.8,295.3 L165.0,295.3 L165.1,295.3 L165.1,295.3 L167.7,295.9 L169.9,296.2 L170.0,296.2 L170.1,296.2 L170.5,296.5 L172.1,296.4 L172.5,296.4 L172.6,296.3 L172.7,296.3 L172.8,296.3 L172.8,296.3 L172.9,296.3 L173.0,296.3 L173.3,296.4 L173.5,296.4 L174.1,296.5 L174.2,296.5 L174.2,296.5 L174.9,296.6 L175.0,296.6 L175.1,296.6 L175.6,296.5 L176.0,296.5 L176.2,296.5 L176.3,296.5 L176.5,296.5 L177.0,296.6 L177.1,296.6 L177.7,296.8 L178.1,296.8 L178.2,296.8 L178.2,296.8 L179.5,296.3 L181.6,296.1 L182.2,295.8 L182.7,295.8 L183.2,295.7 L184.2,295.8 L184.5,295.8 L184.6,295.9 L185.2,296.0 L185.3,296.0 L185.7,296.2 L186.0,296.2 L186.2,296.2 L186.5,296.5 L186.6,296.5 L186.9,296.6 L187.0,296.7 L187.5,297.0 L187.9,297.2 L188.7,298.8 L188.9,298.8 L189.8,299.7 L190.4,300.0 L190.6,300.0 L190.8,300.0 L190.9,300.0 L191.1,300.0 L192.2,300.2 L192.8,300.2 L193.9,300.2 L194.3,300.2 L194.6,300.1 L195.5,300.3 L195.6,300.3 L196.9,300.8 L198.8,300.1 L199.4,300.1 L200.2,299.7 L201.2,299.5 L202.3,298.2 L203.3,298.1 L203.9,298.0 L204.6,298.2 L205.0,298.3 L205.3,298.3 L205.7,298.1 L206.4,298.0 L207.0,298.0 L207.3,298.2 L207.8,298.3 L208.0,298.3 L208.7,298.3 L208.9,298.3 L209.5,298.3 L210.9,298.8 L211.7,299.4 L212.6,299.6 L213.1,299.7 L214.1,299.7 L215.0,299.5 L215.3,299.5 L215.7,299.5 L216.1,299.5 L216.2,299.5 L216.3,299.5 L216.4,299.5 L216.5,299.4 L216.6,299.4 L216.7,299.4 L216.8,299.4 L217.0,299.5 L217.2,299.5 L218.2,299.5 L219.4,299.4 L219.6,299.4 L220.3,299.5 L221.0,299.6 L221.8,299.6 L222.7,299.1 L223.9,298.7 L225.9,298.4 L228.6,297.6 L229.3,297.6 L230.0,297.6 L230.7,297.4 L232.6,297.9 L233.1,297.9 L233.5,298.4 L233.5,298.4 L235.7,299.3 L237.3,299.5 L239.0,297.8 L240.5,296.7 L241.0,296.7 L241.5,296.0 L242.6,296.0 L247.3,298.2 L251.0,299.1 L251.3,298.9 L254.9,300.2 L255.5,300.2 L256.0,300.2 L256.4,300.2 L257.0,300.2 L257.4,300.1 L257.6,300.1 L258.0,300.1 L261.1,299.5 L261.9,299.5 L262.4,299.5 L262.6,299.5 L262.7,299.5 L262.8,299.5 L263.3,299.5 L263.6,299.4 L263.7,299.4 L264.3,299.5 L265.2,299.7 L265.6,299.8 L266.3,299.8 L267.5,300.0 L267.5,300.0 L268.3,300.2 L269.5,300.3 L270.6,300.0 L270.9,300.2 L272.1,299.9 L272.7,299.8 L273.6,299.5 L274.2,299.4 L274.9,299.4 L275.6,299.5 L276.2,299.5 L276.4,299.6 L276.5,299.6 L276.7,299.6 L277.2,299.7 L277.4,299.8 L277.6,299.8 L277.9,299.8 L278.3,299.8 L278.8,300.0 L279.2,300.2 L279.5,300.1 L279.7,300.2 L280.0,300.2 L280.9,300.1 L281.2,300.1 L281.3,300.0 L281.4,300.0 L281.8,300.0 L282.6,299.8 L283.1,299.8 L283.5,299.7 L284.6,299.0 L286.3,299.1 L287.3,299.7 L287.9,299.7 L289.3,300.5 L289.5,300.5 L291.0,301.1 L291.6,301.0 L293.9,300.9 L294.1,300.7 L295.7,300.5 L295.8,300.5 L295.9,300.5 L296.3,300.5 L296.7,300.4 L297.1,300.5 L297.6,300.5 L299.4,300.5 L302.5,301.0 L305.5,300.5 L305.8,300.4 L308.7,300.4 L308.9,300.4 L309.2,300.3 L310.1,300.3 L311.1,300.3 L311.3,300.3 L311.5,300.3 L312.0,300.2 L317.3,300.1 L317.5,300.0 L317.7,300.0 L322.5,300.0 L327.1,301.1 L327.6,300.4 L329.9,299.4 L332.0,298.7 L333.2,298.7 L335.3,299.5 L335.4,299.5 L335.5,299.6 L335.6,299.6 L335.7,299.7 L335.8,299.7 L336.1,299.8 L336.3,300.0 L336.5,300.0 L337.1,300.0 L337.5,300.0 L337.9,300.3 L338.3,300.7 L338.7,300.7 L339.5,300.5 L340.1,300.5 L341.2,300.1 L341.4,299.9 L341.7,299.9 L342.0,299.8 L343.5,299.7 L343.8,299.7 L352.7,299.1 L352.9,298.8 L354.3,298.8 L354.7,298.8 L356.5,299.3 L358.6,299.5 L362.5,300.1 L363.0,300.0 L363.3,299.8 L363.7,299.7 L364.7,299.6 L365.5,299.4 L366.0,299.4 L366.6,299.4 L367.0,299.4 L369.8,299.6 L370.3,299.7 L370.5,299.8 L371.5,300.1 L372.2,300.5 L372.8,301.4 L373.3,301.7 L373.7,301.7 L374.1,301.9 L374.8,302.1 L375.1,302.1 L375.8,302.5 L376.6,302.6 L377.2,302.6 L377.7,302.1 L378.8,302.1 L379.4,302.1 L379.9,302.3 L380.1,302.4 L381.3,302.5 L382.3,302.4 L382.5,302.4 L383.1,302.1 L383.6,301.8 L384.2,301.7 L384.6,301.7 L385.1,301.6 L385.3,301.6 L385.8,301.7 L386.3,301.6 L387.0,301.2 L387.4,301.1 L387.8,301.0 L388.6,301.3 L388.8,301.3 L388.9,301.3 L389.1,301.1 L389.6,301.0 L390.1,300.8 L391.4,300.8 L392.8,301.5 L393.0,301.5 L393.4,301.5 L393.7,301.5 L394.0,301.7 L394.7,301.7 L394.9,301.8 L396.7,302.0 L397.1,302.0 L397.2,302.0 L397.4,302.0 L397.6,302.0 L398.2,302.0 L398.7,302.0 L400.0,302.2 L402.7,301.5 L402.9,301.3 L403.4,301.5 L403.6,301.5 L404.6,301.5 L404.8,301.5 L405.5,301.7 L411.6,302.2 L412.0,302.1 L412.4,301.8 L412.7,301.6 L414.7,301.1 L415.1,300.9 L415.6,300.8 L415.9,300.8 L416.6,300.8 L420.5,301.1 L423.6,300.1 L424.1,300.0 L425.5,299.9 L425.8,299.9 L427.3,299.9 L427.8,299.9 L428.7,299.9 L429.0,299.9 L429.4,299.9 L432.0,299.1 L436.8,299.7 L439.0,300.3 L443.9,301.4 L445.0,301.8 L445.2,301.8 L445.3,301.8 L445.6,301.8 L446.0,301.8 L446.2,301.8 L446.8,301.8 L447.0,301.7 L447.1,301.7 L447.2,301.7 L447.4,301.6 L447.5,301.6 L449.0,301.2 L449.2,301.1 L449.4,301.1 L449.5,301.0 L449.8,300.9 L451.0,300.7 L451.3,300.7 L451.4,300.7 L451.5,300.7 L452.1,301.2 L453.1,301.6 L454.0,302.1 L454.2,302.1 L454.4,302.1 L454.7,302.2 L454.9,302.2 L455.0,302.2 L455.1,302.2 L455.4,302.2 L455.8,302.2 L456.0,302.2 L459.8,303.1 L460.4,303.3 L460.7,303.3 L461.1,303.3 L461.2,303.3 L461.5,303.4 L462.5,303.2 L463.5,303.4 L463.8,303.5 L465.9,303.2 L466.2,303.1 L466.5,303.1 L466.8,303.1 L467.5,303.1 L468.0,303.1 L468.1,303.1 L468.3,303.1 L468.5,303.1 L468.6,303.1 L468.7,303.0 L468.9,303.2 L469.8,303.3 L471.3,303.9 L471.9,304.1 L475.1,304.1 L477.3,302.8 L478.0,302.6 L478.4,302.6 L478.8,302.6 L478.9,302.6 L479.1,302.6 L479.2,302.6 L479.4,302.6 L479.5,302.6 L479.6,302.6 L479.8,302.5 L479.9,302.5 L480.2,302.5 L480.9,302.6 L481.3,302.6 L481.3,302.6 L482.9,302.9 L483.3,302.9 L484.2,302.6 L484.4,302.6 L484.6,302.3 L484.7,302.3 L484.8,302.2 L485.2,302.2 L485.3,302.2 L485.8,301.8 L485.9,301.8 L486.3,301.8 L486.4,301.8 L486.4,301.8 L486.9,301.6 L487.0,301.6 L487.0,301.6 L487.1,301.4 L488.0,300.7 L489.1,299.4 L490.2,297.5 L490.4,297.5 L491.3,297.6 L491.6,297.5 L492.2,297.6 L492.3,297.6 L492.5,297.6 L492.7,297.6 L492.8,297.6 L493.0,297.6 L493.1,297.6 L493.2,297.6 L493.3,297.6 L493.8,297.8 L494.0,297.9 L494.4,298.3 L495.1,298.7 L495.4,299.0 L496.0,299.4 L496.1,299.4 L496.6,299.7 L496.6,299.7 L496.7,299.7 L496.9,299.8 L497.1,299.8 L497.3,299.8 L497.6,299.8 L497.9,299.8 L498.3,299.8 L498.5,299.8 L498.6,299.8 L498.9,299.8 L499.1,299.8 L499.2,299.8 L499.3,299.8 L499.3,299.8 L499.5,299.9 L499.6,299.9 L499.7,299.9 L500.0,299.8 L501.4,298.8 L502.4,298.2 L502.5,298.2 L502.7,298.2 L502.7,298.2 L502.8,298.2 L503.0,298.2 L503.1,298.1 L503.3,298.1 L503.6,298.1 L504.4,298.0 L505.6,297.5 L512.4,296.4 L515.4,293.2 L515.8,292.4 L515.9,292.4 L516.5,292.4 L521.1,293.4 L521.2,293.7 L524.4,295.0 L525.1,295.3 L526.2,295.3 L527.3,295.3 L530.8,294.4 L531.7,294.3 L532.0,294.3 L532.3,294.3 L533.2,294.3 L540.9,294.7 L542.7,294.7 L543.9,294.5 L546.9,293.6 L552.4,293.8 L552.8,293.9 L554.3,294.3 L556.3,295.6 L557.1,295.7 L557.5,295.7 L558.2,295.7 L561.9,294.9 L562.4,294.4 L563.3,294.4 L563.8,294.4 L564.7,295.2 L565.7,295.3 L566.4,296.9 L567.0,296.9 L568.2,299.0 L568.8,299.0 L569.8,299.5 L570.2,299.7 L571.6,299.6 L571.8,299.6 L572.1,299.4 L572.6,299.3 L572.9,299.2 L573.3,299.4 L573.7,299.7 L574.3,300.0 L575.0,300.4 L575.5,300.9 L576.0,301.6 L576.7,302.1 L577.3,303.3 L577.9,303.8 L578.0,304.2 L579.2,305.0 L579.7,305.0 L580.3,305.8 L581.4,306.4 L582.2,306.4 L582.4,306.3 L582.6,306.2 L582.7,306.1 L582.8,306.2 L582.8,306.2 L582.9,306.2 L583.1,306.2 L583.2,306.2 L583.6,306.1 L583.9,306.1 L584.0,306.1 L584.1,306.1 L584.6,306.0 L584.9,306.0 L585.1,305.8 L585.4,305.5 L585.9,305.1 L586.2,305.1 L587.0,305.0 L587.5,305.0 L587.9,305.0 L588.3,305.0 L589.1,305.1 L589.3,305.0 L589.9,305.0 L590.2,305.0 L590.5,305.0 L591.7,304.6 L592.8,304.3 L593.4,304.2 L593.9,304.2 L594.1,304.2 L594.7,304.3 L595.5,304.3 L596.7,304.5 L596.9,304.6 L597.1,304.6 L597.5,304.7 L597.6,304.7 L599.3,305.0 L599.9,305.4 L601.1,305.6 L601.2,305.6 L601.2,305.6 L601.6,305.6 L601.9,305.6 L602.1,305.6 L602.2,305.6 L605.0,305.5 L605.7,305.0 L606.2,304.8 L607.9,304.4 L608.5,303.7 L610.3,303.3 L610.4,303.2 L610.6,303.2 L610.9,303.2 L611.1,303.0 L614.1,302.3 L615.3,302.4 L615.6,302.4 L616.2,302.4 L616.3,302.4 L616.4,302.3 L616.5,302.3 L616.8,302.4 L616.9,302.5 L617.1,302.6 L617.3,302.6 L617.5,302.6 L618.8,303.0 L619.3,303.3 L619.4,303.4 L620.1,303.7 L620.4,303.7 L620.9,303.7 L620.9,303.7 L621.1,303.9 L621.2,303.9 L621.8,304.4 L622.7,304.9 L623.5,305.3 L624.1,305.9 L624.3,306.2 L624.4,306.2 L624.7,306.2 L625.4,306.5 L626.1,306.3 L626.9,306.1 L627.2,306.0 L627.5,306.0 L627.8,306.0 L627.9,306.0 L628.0,306.0 L628.1,306.0 L628.2,306.0 L628.7,305.9 L629.6,305.7 L630.3,305.7 L630.7,305.7 L630.8,305.8 L631.3,305.8 L631.4,305.8 L631.6,305.9 L632.0,305.9 L632.3,305.9 L632.7,305.9 L632.8,305.9 L633.0,305.9 L633.2,305.9 L633.8,305.9 L633.9,306.0 L634.1,305.9 L634.5,306.0 L634.5,305.9 L634.7,305.8 L634.8,305.8 L634.9,305.8 L635.0,305.8 L635.1,305.7 L635.5,305.3 L635.7,305.1 L636.4,304.7 L637.0,304.5 L637.1,304.4 L637.5,304.2 L637.8,304.2 L637.9,304.2 L638.1,304.1 L638.3,304.1 L638.5,304.1 L638.7,304.1 L638.8,304.1 L639.8,304.2 L639.9,304.3 L640.1,304.4 L640.7,304.8 L641.8,305.5 L642.0,305.5 L642.2,305.5" fill="transparent" id="track" stroke="black" stroke-linejoin="miter" stroke-miterlimit="1" stroke-width="2"/>
<g>
<g>
<circle cx="642.2246073851829" cy="305.74928571428575" fill="Blue" id="0/wp" r="5"/>
</g>
<g transform="translate(642.2246073851829 305.74928571428575)">
<rect fill="white" fill-opacity="0.75" height="12" id="label-bg" width="71.22105263157891" x="-35.61052631578946" y="-298.74928571428575"/>
<text font-size="16.0" id="0/wp/text" text-anchor="start" x="-35.611" y="-286.749">
K4 (00:54)
</text>
</g>
<path d="M642.22,23.00 L642.22,303.75" fill="transparent" id="link" stroke="black" stroke-linejoin="miter" stroke-miterlimit="1"/>
<g>
<circle cx="377.6678199828616" cy="301.49850000000004" fill="Black" id="1/wp" r="3"/>
</g>
<g transform="translate(377.6678199828616 301.49850000000004)">
<rect fill="white" fill-opacity="0.75" height="12" id="label-bg" width="36.73684210526316" x="4" y="-16"/>
<text font-size="16.0" id="1/wp/text" text-anchor="start" x="4.000" y="-4.000">
23:28
</text>
</g>
<g>
<circle cx="501.4349280806068" cy="298.37442857142855" fill="Black" id="2/wp" r="3"/>
</g>
<g transform="translate(501.4349280806068 298.37442857142855)">
<rect fill="white" fill-opacity="0.75" height="12" id="label-bg" width="36.73684210526316" x="-40.73684210526316" y="-16"/>
<text font-size="16.0" id="2/wp/text" text-anchor="end" x="-4.000" y="-4.000">
00:08
</text>
</g>
<g>
<circle cx="8.97717058031958" cy="165.93428571428572" fill="Black" id="3/wp" r="3"/>
</g>
<g>
<circle cx="642.2246073851829" cy="305.74928571428575" fill="Black" id="5/wp" r="5"/>
<circle cx="642.2246073851829" cy="305.74928571428575" fill="white" id="5/wp-little-white" r="3.5"/>
<circle cx="642.2246073851829" cy="305.74928571428575" fill="black" id="5/wp-little-white" r="2.5"/>
</g>
<g transform="translate(642.2246073851829 305.74928571428575)">
<rect fill="white" fill-opacity="0.75" height="12" id="label-bg" width="107.12631578947368" x="4" y="-16"/>
<text font-size="16.0" id="5/wp/text" text-anchor="start" x="4.000" y="-4.000">
Wörth am Rhein
</text>
</g>
<g>
<circle cx="254.94784286884624" cy="300.7815" fill="Black" id="6/wp" r="3"/>
</g>
<g transform="translate(254.94784286884624 300.7815)">
<rect fill="white" fill-opacity="0.75" height="12" id="label-bg" width="36.73684210526316" x="4" y="-16"/>
<text font-size="16.0" id="6/wp/text" text-anchor="start" x="4.000" y="-4.000">
22:48
</text>
</g>
<g>
<circle cx="131.55801666819116" cy="295.14792857142857" fill="Black" id="7/wp" r="3"/>
</g>
<g transform="translate(131.55801666819116 295.14792857142857)">
<rect fill="white" fill-opacity="0.75" height="12" id="label-bg" width="36.73684210526316" x="4" y="-16"/>
<text font-size="16.0" id="7/wp/text" text-anchor="start" x="4.000" y="-4.000">
22:07
</text>
</g>
<g>
<circle cx="624.0733368652436" cy="307.08085714285716" fill="Black" id="8/wp" r="3"/>
</g>
<g transform="translate(624.0733368652436 307.08085714285716)">
<rect fill="white" fill-opacity="0.75" height="12" id="label-bg" width="36.73684210526316" x="-40.73684210526316" y="4"/>
<text font-size="16.0" id="8/wp/text" text-anchor="end" x="-4.000" y="16.000">
00:48
</text>
</g>
<g>
<circle cx="585.114468917307" cy="305.1859285714286" fill="Black" id="9/wp" r="4"/>
<circle cx="585.114468917307" cy="305.1859285714286" fill="white" id="9/wp-little-white" r="2.5"/>
</g>
<g transform="translate(585.114468917307 305.1859285714286)">
<rect fill="white" fill-opacity="0.75" height="12" id="label-bg" width="77.66315789473684" x="-38.83157894736842" y="24"/>
<text font-size="16.0" id="9/wp/text" text-anchor="start" x="-38.832" y="36.000">
Hagenbach
</text>
</g>
<path d="M585.11,325.19 L579.34,327.08 L579.34,307.08 L585.11,307.19" fill="transparent" id="link" stroke="black" stroke-linejoin="miter" stroke-miterlimit="1"/>
<g>
<circle cx="184.6157006946869" cy="295.55764285714287" fill="Black" id="10/wp" r="4"/>
<circle cx="184.6157006946869" cy="295.55764285714287" fill="white" id="10/wp-little-white" r="2.5"/>
</g>
<g transform="translate(184.6157006946869 295.55764285714287)">
<rect fill="white" fill-opacity="0.75" height="12" id="label-bg" width="61.557894736842115" x="4" y="-16"/>
<text font-size="16.0" id="10/wp/text" text-anchor="start" x="4.000" y="-4.000">
Iffezheim
</text>
</g>
<g>
<circle cx="496.7391625156815" cy="299.3475" fill="Black" id="11/wp" r="4"/>
<circle cx="496.7391625156815" cy="299.3475" fill="white" id="11/wp-little-white" r="2.5"/>
</g>
<g transform="translate(496.7391625156815 299.3475)">
<rect fill="white" fill-opacity="0.75" height="12" id="label-bg" width="84.10526315789474" x="-42.05263157894737" y="24"/>
<text font-size="16.0" id="11/wp/text" text-anchor="start" x="-42.053" y="36.000">
Lauterbourg
</text>
</g>
<path d="M496.74,319.35 L496.74,301.35" fill="transparent" id="link" stroke="black" stroke-linejoin="miter" stroke-miterlimit="1"/>
<g>
<circle cx="516.5120993827823" cy="292.68964285714287" fill="Black" id="12/wp" r="4"/>
<circle cx="516.5120993827823" cy="292.68964285714287" fill="white" id="12/wp-little-white" r="2.5"/>
</g>
<g transform="translate(516.5120993827823 292.68964285714287)">
<rect fill="white" fill-opacity="0.75" height="12" id="label-bg" width="81.07368421052632" x="4" y="-16"/>
<text font-size="16.0" id="12/wp/text" text-anchor="start" x="4.000" y="-4.000">
Berg (Pfalz)
</text>
</g>
<g>
<circle cx="276.3968361735715" cy="299.3987142857143" fill="Black" id="13/wp" r="4"/>
<circle cx="276.3968361735715" cy="299.3987142857143" fill="white" id="13/wp-little-white" r="2.5"/>
</g>
<g transform="translate(276.3968361735715 299.3987142857143)">
<rect fill="white" fill-opacity="0.75" height="12" id="label-bg" width="62.41052631578948" x="-66.41052631578948" y="4"/>
<text font-size="16.0" id="13/wp/text" text-anchor="end" x="-4.000" y="16.000">
Beinheim
</text>
</g>
<g>
<circle cx="389.1032450693051" cy="300.26935714285713" fill="Black" id="14/wp" r="4"/>
<circle cx="389.1032450693051" cy="300.26935714285713" fill="white" id="14/wp-little-white" r="2.5"/>
</g>
<g transform="translate(389.1032450693051 300.26935714285713)">
<rect fill="white" fill-opacity="0.75" height="12" id="label-bg" width="96.89473684210526" x="-48.44736842105263" y="24"/>
<text font-size="16.0" id="14/wp/text" text-anchor="start" x="-48.447" y="36.000">
Munchhausen
</text>
</g>
<path d="M389.10,320.27 L389.10,302.27" fill="transparent" id="link" stroke="black" stroke-linejoin="miter" stroke-miterlimit="1"/>
<g>
<circle cx="218.16344649043003" cy="298.8865714285714" fill="Black" id="15/wp" r="4"/>
<circle cx="218.16344649043003" cy="298.8865714285714" fill="white" id="15/wp-little-white" r="2.5"/>
</g>
<g transform="translate(218.16344649043003 298.8865714285714)">
<rect fill="white" fill-opacity="0.75" height="12" id="label-bg" width="77.18947368421053" x="-38.59473684210526" y="24"/>
<text font-size="16.0" id="15/wp/text" text-anchor="start" x="-38.595" y="36.000">
Wintersdorf
</text>
</g>
<path d="M218.16,318.89 L205.99,319.40 L205.99,299.40 L218.16,300.89" fill="transparent" id="link" stroke="black" stroke-linejoin="miter" stroke-miterlimit="1"/>
<g>
<circle cx="93.0395602675776" cy="290.5898571428571" fill="Black" id="16/wp" r="4"/>
<circle cx="93.0395602675776" cy="290.5898571428571" fill="white" id="16/wp-little-white" r="2.5"/>
</g>
<g transform="translate(93.0395602675776 290.5898571428571)">
<rect fill="white" fill-opacity="0.75" height="12" id="label-bg" width="109.58947368421052" x="-54.79473684210526" y="24"/>
<text font-size="16.0" id="16/wp/text" text-anchor="start" x="-54.795" y="36.000">
Haueneberstein
</text>
</g>
<path d="M93.04,310.59 L93.04,292.59" fill="transparent" id="link" stroke="black" stroke-linejoin="miter" stroke-miterlimit="1"/>
<g>
<circle cx="19.16637268256909" cy="140.89050000000003" fill="Black" id="17/wp" r="4"/>
<circle cx="19.16637268256909" cy="140.89050000000003" fill="white" id="17/wp-little-white" r="2.5"/>
</g>
<g transform="translate(19.16637268256909 140.89050000000003)">
<rect fill="white" fill-opacity="0.75" height="12" id="label-bg" width="97.27368421052633" x="4" y="-16"/>
<text font-size="16.0" id="17/wp/text" text-anchor="start" x="4.000" y="-4.000">
Ebersteinburg
</text>
</g>
</g>
</g>
<g id="SL" transform="translate(0 0)">
<text text-anchor="end" x="66" y="363.5">
0
</text>
<text text-anchor="end" x="66" y="312.2857142857143">
100
</text>
<text text-anchor="end" x="66" y="261.07142857142856">
200
</text>
<text text-anchor="end" x="66" y="209.85714285714286">
300
</text>
<text text-anchor="end" x="66" y="158.64285714285714">
400
</text>
<text text-anchor="end" x="66" y="107.42857142857144">
500
</text>
<text text-anchor="end" x="66" y="56.21428571428572">
600
</text>
<text text-anchor="end" x="66" y="5">
700
</text>
</g>
</g>
</svg>