<svg height="400" width="1420" xmlns="http://www.w3.org/2000/svg">
<g font-size="18" id="world" shape-rendering="crispEdges">
<g id="BG"/>
<g id="SB" transform="translate(71 360)">
<text text-anchor="middle" x="0" y="17">
100
</text>
<text text-anchor="middle" x="245" y="17">
120
</text>
<text text-anchor="middle" x="490" y="17">
140
</text>
<text text-anchor="middle" x="735" y="17">
160
</text>
<text text-anchor="middle" x="980" y="17">
180
</text>
<text text-anchor="middle" x="1225" y="17">
200
</text>
</g>
<g id="SD" transform="translate(71 0)">
<path d="M0,0 L1347.5,0" stroke="black" stroke-width="3"/>
<path d="M0,0 L0,358.5" stroke="black" stroke-width="3"/>
<path d="M0,358.5 L1347.5,358.5" stroke="black" stroke-width="3"/>
<path d="M1347.5,0 L1347.5,358.5" stroke="black" stroke-width="3"/>
<path d="M0,343.5 L1347.5,343.5" stroke="black" stroke-width="1"/>
<path d="M0,0 L0,358.5" stroke="black" stroke-width="1"/>
<path d="M245,0 L245,358.5" stroke="black" stroke-width="1"/>
<path d="M490,0 L490,358.5" stroke="black" stroke-width="1"/>
<path d="M735,0 L735,358.5" stroke="black" stroke-width="1"/>
<path d="M980,0 L980,358.5" stroke="black" stroke-width="1"/>
<path d="M1225,0 L1225,358.5" stroke="black" stroke-width="1"/>
<path d="M122.5,15 L122.5,358.5" stroke="black" stroke-dasharray="1.0,2.5,5.0,5.0,10.0,5.0"/>
<path d="M367.5,15 L367.5,358.5" stroke="black" stroke-dasharray="1.0,2.5,5.0,5.0,10.0,5.0"/>
<path d="M612.5,15 L612.5,358.5" stroke="black" stroke-dasharray="1.0,2.5,5.0,5.0,10.0,5.0"/>
<path d="M857.5,15 L857.5,358.5" stroke="black" stroke-dasharray="1.0,2.5,5.0,5.0,10.0,5.0"/>
<path d="M1102.5,15 L1102.5,358.5" stroke="black" stroke-dasharray="1.0,2.5,5.0,5.0,10.0,5.0"/>
<path d="M1347.5,15 L1347.5,358.5" stroke="black" stroke-dasharray="1.0,2.5,5.0,5.0,10.0,5.0"/>
<path d="M0,358.5 L1347.5,358.5" stroke="black" stroke-width="1"/>
<path d="M0,322.65 L1347.5,322.65" stroke="black" stroke-width="1"/>
<path d="M0,286.8 L1347.5,286.8" stroke="black" stroke-width="1"/>
<path d="M0,250.95 L1347.5,250.95" stroke="black" stroke-width="1"/>
<path d="M0,215.1 L1347.5,215.1" stroke="black" stroke-width="1"/>
<path d="M0,179.25 L1347.5,179.25" stroke="black" stroke-width="1"/>
<path d="M0,143.4 L1347.5,143.4" stroke="black" stroke-width="1"/>
<path d="M0,107.55 L1347.5,107.55" stroke="black" stroke-width="1"/>
<path d="M0,71.7 L1347.5,71.7" stroke="black" stroke-width="1"/>
<path d="M0,35.85 L1347.5,35.85" stroke="black" stroke-width="1"/>
<path d="M0,0 L1347.5,0" stroke="black" stroke-width="1"/>
<path d="M0,340.575 L1347.5,340.575" stroke="black" stroke-dasharray="1.0,2.5,5.0,5.0,10.0,5.0"/>
<path d="M0,304.725 L1347.5,304.725" stroke="black" stroke-dasharray="1.0,2.5,5.0,5.0,10.0,5.0"/>
<path d="M0,268.875 L1347.5,268.875" stroke="black" stroke-dasharray="1.0,2.5,5.0,5.0,10.0,5.0"/>
<path d="M0,233.025 L1347.5,233.025" stroke="black" stroke-dasharray="1.0,2.5,5.0,5.0,10.0,5.0"/>
<path d="M0,197.175 L1347.5,197.175" stroke="black" stroke-dasharray="1.0,2.5,5.0,5.0,10.0,5.0"/>
<path d="M0,161.325 L1347.5,161.325" stroke="black" stroke-dasharray="1.0,2.5,5.0,5.0,10.0,5.0"/>
<path d="M0,125.475 L1347.5,125.475" stroke="black" stroke-dasharray="1.0,2.5,5.0,5.0,10.0,5.0"/>
<path d="M0,89.625 L1347.5,89.625" stroke="black" stroke-dasharray="1.0,2.5,5.0,5.0,10.0,5.0"/>
<path d="M0,53.775 L1347.5,53.775" stroke="black" stroke-dasharray="1.0,2.5,5.0,5.0,10.0,5.0"/>
<path d="M0,17.925 L1347.5,17.925" stroke="black" stroke-dasharray="1.0,2.5,5.0,5.0,10.0,5.0"/>
<path d="M0,-17.925 L1347.5,-17.925" stroke="black" stroke-dasharray="1.0,2.5,5.0,5.0,10.0,5.0"/>
<text font-size="14" text-anchor="end" x="112.5" y="354.5">
4.0%
</text>
<text font-size="14" text-anchor="end" x="235" y="354.5">
2.7%
</text>
<text font-size="14" text-anchor="end" x="357.5" y="354.5">
3.3%
</text>
<text font-size="14" text-anchor="end" x="480" y="354.5">
1.2%
</text>
<text font-size="14" text-anchor="end" x="602.5" y="354.5">
3.0%
</text>
<text font-size="14" text-anchor="end" x="725" y="354.5">
0.3%
</text>
<text font-size="14" text-anchor="end" x="847.5" y="354.5">
0.2%
</text>
<text font-size="14" text-anchor="end" x="970" y="354.5">
2.5%
</text>
<text font-size="14" text-anchor="end" x="1092.5" y="354.5">
2.4%
</text>
<text font-size="14" text-anchor="end" x="1215" y="354.5">
2.3%
</text>
<text font-size="14" text-anchor="end" x="1337.5" y="354.5">
0.8%
</text>
<path d="M0.5,243.3 L0.7,243.3 L1.1,242.9 L1.3,242.9 L1.6,242.7 L1.9,241.9 L2.9,241.1 L3.5,240.4 L4.1,239.0 L4.9,239.3 L6.5,239.4 L7.1,239.7 L7.8,239.9 L8.2,239.7 L8.7,239.6 L9.0,239.2 L9.4,238.9 L9.7,238.2 L10.3,237.1 L10.7,236.2 L10.9,235.1 L11.3,234.3 L11.9,233.8 L12.1,233.3 L12.4,233.2 L12.8,233.1 L13.1,232.5 L13.6,232.4 L14.1,233.1 L14.6,233.7 L15.1,234.5 L15.8,236.3 L16.2,236.9 L16.4,236.9 L16.5,236.9 L16.7,237.1 L17.0,236.8 L17.4,236.7 L17.6,236.6 L18.0,236.6 L19.0,235.3 L19.3,232.6 L19.7,232.1 L21.0,229.5 L21.5,228.3 L21.6,227.9 L21.7,227.9 L22.3,226.2 L23.6,225.7 L24.0,225.6 L25.0,224.9 L25.4,224.9 L28.0,220.4 L28.7,219.8 L29.0,218.5 L29.3,217.2 L29.5,217.2 L30.1,217.2 L30.3,217.1 L31.2,216.4 L31.4,216.4 L31.5,216.0 L31.6,216.0 L31.7,216.0 L32.0,215.0 L32.5,214.0 L33.7,212.5 L34.4,211.5 L34.9,210.8 L35.2,210.2 L35.5,210.2 L35.9,210.1 L36.2,209.8 L36.4,209.8 L36.8,209.0 L37.2,208.6 L37.3,208.6 L37.6,208.1 L38.0,207.9 L38.9,207.2 L39.1,207.2 L39.3,206.8 L39.9,206.1 L40.0,206.1 L40.2,205.8 L40.3,205.8 L40.7,205.3 L40.8,205.2 L41.0,205.1 L41.7,204.7 L42.0,204.4 L42.4,204.4 L42.5,204.3 L42.8,204.0 L42.9,204.0 L43.2,203.8 L43.3,203.6 L43.8,201.0 L44.0,201.0 L44.2,200.4 L45.8,196.6 L46.0,196.6 L46.1,196.6 L46.6,195.7 L47.1,195.1 L47.3,194.9 L47.8,194.6 L48.0,194.6 L48.7,194.6 L49.4,193.6 L49.7,192.6 L50.1,191.6 L50.6,190.4 L51.3,188.8 L51.9,187.1 L52.4,185.6 L53.7,183.1 L54.0,182.7 L54.2,182.2 L54.5,181.2 L54.6,180.9 L55.1,180.2 L55.3,179.9 L55.6,179.6 L56.5,178.2 L56.6,177.5 L56.8,177.5 L57.0,177.1 L57.2,176.6 L57.7,176.2 L57.9,175.9 L58.4,175.6 L58.8,175.6 L59.1,175.2 L59.6,174.0 L59.8,173.8 L60.0,173.8 L60.3,173.2 L60.5,172.0 L61.4,170.3 L61.8,169.6 L62.0,169.6 L62.6,167.7 L62.8,166.6 L62.9,166.6 L63.0,166.1 L63.2,166.1 L63.4,166.1 L64.1,165.2 L64.9,163.7 L65.2,163.2 L65.9,159.9 L67.1,159.3 L67.7,158.4 L68.3,158.2 L69.4,156.8 L69.9,156.4 L70.2,155.7 L71.2,155.5 L71.5,155.5 L72.5,153.7 L74.0,150.7 L75.0,150.7 L75.6,149.7 L76.0,148.9 L76.1,148.9 L76.2,148.9 L76.4,148.2 L77.6,147.3 L78.0,145.1 L78.9,140.6 L80.1,138.8 L80.3,138.7 L80.5,138.4 L80.6,138.4 L80.7,138.4 L80.8,138.4 L81.4,137.9 L82.0,138.2 L82.5,138.1 L82.6,138.0 L83.4,137.8 L84.0,137.4 L84.1,137.4 L84.2,137.4 L84.4,137.4 L84.8,137.1 L85.4,136.0 L85.9,135.5 L87.2,131.2 L87.4,130.7 L87.5,130.7 L87.7,130.7 L87.9,130.3 L88.4,129.1 L88.7,129.1 L88.9,128.6 L89.1,128.1 L90.6,123.8 L90.8,123.4 L91.2,121.8 L91.6,121.0 L91.7,120.6 L92.5,120.3 L92.9,120.3 L93.1,120.0 L93.4,119.5 L93.6,119.5 L93.9,119.1 L94.4,118.5 L94.6,118.5 L97.6,111.7 L98.1,110.7 L98.6,110.7 L99.1,109.9 L99.3,109.2 L99.6,108.0 L99.9,107.5 L101.1,105.7 L101.6,105.2 L101.8,104.8 L102.0,105.0 L102.2,104.9 L102.5,104.9 L102.8,104.9 L103.0,105.2 L103.2,105.4 L103.5,106.1 L104.3,107.6 L104.6,107.9 L104.8,108.3 L105.4,109.1 L105.5,109.5 L105.7,109.9 L105.8,109.9 L106.0,110.2 L106.2,110.2 L106.6,110.2 L107.3,111.2 L107.9,111.5 L109.6,113.8 L110.4,116.3 L110.8,116.9 L111.2,117.5 L111.5,118.1 L111.7,118.5 L112.5,119.6 L112.8,119.6 L113.0,120.6 L113.4,121.1 L113.6,121.6 L114.2,122.4 L114.3,123.1 L114.6,123.1 L114.7,123.1 L115.4,123.7 L116.3,126.6 L116.8,127.8 L117.2,129.8 L118.2,133.4 L118.3,133.4 L118.6,133.4 L119.0,134.1 L119.7,136.5 L119.9,136.5 L120.0,136.8 L120.2,136.8 L120.4,136.8 L121.5,138.0 L121.8,138.5 L122.4,139.3 L123.3,141.8 L123.6,141.8 L124.2,143.4 L125.2,145.8 L125.7,146.7 L126.3,149.6 L127.1,151.0 L127.3,151.6 L127.5,151.6 L127.9,152.8 L128.2,153.7 L129.2,154.0 L129.6,154.6 L130.0,156.1 L130.2,156.5 L130.3,156.5 L130.4,156.7 L130.5,156.7 L130.6,157.1 L132.1,159.1 L132.6,160.2 L133.0,163.2 L133.6,165.1 L133.8,165.1 L133.9,165.1 L134.7,168.9 L135.5,171.9 L135.8,172.7 L136.6,175.8 L136.7,175.8 L136.9,175.8 L137.3,177.3 L137.5,177.8 L137.7,177.8 L138.8,180.1 L139.7,182.0 L139.9,182.3 L140.4,184.6 L140.8,184.6 L141.3,185.6 L142.6,191.2 L144.0,200.3 L144.8,200.0 L145.2,200.7 L145.3,200.7 L145.5,200.7 L145.8,200.8 L146.4,201.7 L147.0,202.1 L147.3,202.2 L147.6,202.2 L148.0,202.7 L148.3,204.0 L148.5,204.0 L148.7,204.4 L149.4,205.2 L150.4,208.2 L150.5,208.7 L150.7,208.7 L151.1,210.7 L151.5,212.1 L152.5,212.9 L152.7,213.4 L153.3,215.2 L153.4,215.2 L153.7,215.6 L153.8,215.9 L153.9,215.9 L154.9,216.7 L155.0,216.9 L155.2,217.7 L155.7,217.7 L156.2,219.3 L156.6,220.9 L157.5,222.0 L158.1,222.9 L158.9,223.7 L159.3,224.3 L160.5,225.0 L160.6,225.3 L160.8,225.5 L161.9,225.1 L162.4,225.0 L163.2,225.2 L163.6,225.7 L163.8,225.7 L164.1,225.8 L164.3,225.9 L164.6,226.0 L165.1,226.0 L165.3,226.1 L165.7,226.0 L166.0,226.1 L166.4,226.6 L166.6,226.8 L167.0,227.7 L167.8,228.9 L168.3,230.0 L168.6,230.6 L168.7,230.6 L169.2,231.4 L169.4,231.7 L169.6,232.0 L170.1,232.9 L170.3,233.6 L170.7,233.9 L170.8,234.3 L171.3,235.1 L171.8,235.3 L172.1,235.6 L172.2,235.6 L172.3,235.6 L172.3,235.6 L172.6,235.8 L172.7,235.8 L172.8,235.9 L172.9,235.8 L173.2,235.9 L173.4,235.9 L174.1,235.9 L175.3,234.9 L176.2,233.9 L177.0,233.0 L177.2,233.0 L177.4,233.0 L177.8,232.7 L178.2,232.4 L178.6,232.0 L178.8,231.7 L179.1,231.4 L180.2,230.7 L180.7,229.7 L180.8,229.7 L181.3,229.3 L182.8,228.9 L183.0,228.9 L183.3,228.7 L184.1,228.0 L184.3,228.0 L184.7,228.0 L184.9,226.9 L185.0,226.9 L185.8,226.3 L186.4,226.3 L187.2,224.2 L187.3,224.2 L189.5,219.6 L191.3,220.3 L191.5,220.3 L191.9,220.7 L192.3,220.8 L193.0,220.7 L193.5,220.6 L193.7,220.5 L194.0,221.0 L194.0,221.0 L194.7,220.8 L195.0,220.2 L195.3,219.5 L195.7,219.1 L195.9,218.9 L196.6,217.6 L197.3,217.2 L197.5,216.9 L197.6,216.7 L198.0,216.0 L198.6,215.1 L199.0,214.8 L199.3,214.6 L199.5,214.6 L200.0,214.3 L200.2,214.2 L200.6,214.0 L201.1,213.8 L201.9,212.8 L202.2,212.6 L202.3,212.6 L202.6,212.5 L203.0,212.6 L203.8,213.0 L204.6,213.0 L205.4,212.6 L205.5,212.6 L206.4,212.5 L206.9,211.8 L207.7,211.4 L207.9,211.3 L208.5,211.0 L208.9,210.8 L209.1,210.8 L209.3,210.8 L209.6,210.7 L209.7,210.7 L209.9,210.7 L210.1,210.7 L210.4,210.3 L210.6,210.3 L211.1,210.2 L211.9,210.1 L212.8,209.5 L213.0,209.2 L213.6,208.9 L214.2,208.8 L214.5,208.4 L214.9,208.3 L215.2,208.2 L215.3,208.0 L215.4,208.0 L215.8,207.7 L216.2,207.3 L216.6,207.2 L216.9,206.8 L217.0,206.8 L217.1,206.6 L217.4,206.3 L218.1,205.8 L218.3,205.3 L218.8,204.7 L219.3,204.2 L219.5,203.7 L219.8,203.0 L219.9,202.8 L220.8,201.5 L220.8,201.2 L221.1,201.2 L221.5,200.9 L222.1,198.6 L222.7,197.5 L223.1,196.9 L224.2,192.6 L224.3,192.6 L225.3,189.2 L226.1,187.8 L226.3,186.9 L227.6,184.6 L227.7,184.6 L227.9,183.6 L228.7,181.7 L229.6,179.1 L230.8,174.9 L231.2,174.1 L231.6,173.4 L232.3,171.4 L232.8,170.7 L233.7,168.6 L234.5,166.4 L234.7,165.8 L235.1,165.4 L235.6,164.8 L236.2,164.1 L236.4,163.8 L236.6,163.8 L236.7,163.8 L236.8,163.8 L236.9,163.8 L237.0,163.6 L237.1,163.3 L237.9,161.9 L238.1,161.7 L238.3,161.7 L238.8,160.8 L239.5,157.1 L239.6,156.7 L240.0,156.0 L240.1,156.0 L240.8,152.8 L241.5,151.0 L241.9,149.4 L242.3,147.7 L242.8,146.1 L243.1,146.1 L243.4,145.7 L243.8,145.0 L244.0,144.4 L244.1,144.2 L244.2,144.2 L244.6,143.9 L244.9,143.3 L246.0,142.1 L246.2,142.1 L246.2,142.1 L246.4,141.9 L246.5,141.6 L247.1,139.9 L247.5,138.3 L249.2,130.4 L249.8,129.1 L250.1,128.4 L250.3,128.4 L250.5,128.4 L250.6,128.4 L250.8,128.4 L251.2,128.3 L251.7,127.9 L252.0,127.9 L252.4,127.6 L252.9,127.1 L253.5,126.0 L253.6,126.0 L253.6,125.9 L253.8,125.9 L254.6,125.2 L254.8,125.2 L254.8,125.2 L254.9,124.9 L255.0,124.9 L255.3,124.6 L255.5,124.6 L255.7,124.6 L255.8,124.6 L256.6,121.3 L258.3,113.6 L258.6,112.9 L259.0,112.5 L259.3,111.9 L260.2,110.1 L260.6,110.1 L260.7,110.1 L260.8,109.8 L260.9,109.8 L261.1,109.4 L261.9,107.6 L262.1,107.6 L262.4,107.6 L263.8,98.3 L264.9,96.8 L265.0,96.9 L265.1,96.9 L265.1,96.9 L265.2,96.9 L265.5,96.8 L265.8,96.6 L266.8,95.9 L267.0,95.9 L267.1,95.9 L267.2,95.9 L267.3,95.9 L267.4,95.8 L267.7,95.1 L268.1,95.1 L269.3,94.0 L269.9,87.1 L271.2,83.8 L272.0,83.1 L272.1,83.1 L272.4,82.4 L272.7,82.4 L273.8,81.5 L274.7,80.5 L275.9,76.8 L276.7,75.9 L277.2,73.8 L277.6,73.8 L278.1,73.8 L279.6,70.9 L280.7,64.5 L282.2,61.7 L282.5,61.7 L283.5,60.6 L284.4,59.3 L286.6,53.2 L287.3,51.5 L288.3,51.5 L288.5,50.8 L288.9,50.3 L289.5,49.2 L290.8,47.2 L291.1,45.6 L291.4,44.8 L292.9,42.5 L293.3,41.4 L294.4,39.4 L295.1,39.4 L295.5,38.3 L295.9,37.4 L297.6,36.3 L298.1,35.7 L298.9,34.4 L299.3,34.4 L301.4,33.1 L301.8,31.6 L302.6,31.6 L306.0,30.1 L306.2,30.0 L306.3,30.0 L306.4,30.0 L306.5,30.0 L306.9,30.1 L307.7,30.3 L307.8,30.3 L308.1,30.3 L308.7,30.5 L309.1,30.9 L309.5,31.0 L309.5,31.0 L310.0,31.7 L310.7,32.4 L311.0,32.4 L312.1,33.1 L312.2,33.1 L312.3,33.1 L312.6,33.4 L312.9,33.4 L316.5,36.1 L317.1,35.8 L317.3,35.8 L318.1,35.8 L319.0,35.8 L319.4,35.8 L319.5,35.8 L320.9,36.4 L321.4,36.4 L322.2,38.2 L322.8,38.2 L324.1,39.7 L325.6,39.8 L325.9,39.8 L326.3,39.8 L326.9,39.1 L327.2,38.9 L327.8,38.7 L328.8,37.9 L329.1,37.5 L329.5,37.1 L329.8,36.7 L330.2,36.4 L331.2,36.2 L331.5,36.2 L331.7,36.1 L332.0,35.9 L332.3,35.8 L333.8,35.7 L335.6,36.0 L335.8,35.8 L336.5,35.4 L337.0,35.3 L338.1,35.0 L338.7,34.7 L339.3,34.3 L339.9,34.0 L340.6,33.9 L341.4,34.3 L342.4,34.7 L342.9,34.7 L343.4,35.3 L343.5,35.3 L344.4,36.3 L345.8,37.9 L346.4,38.7 L346.7,38.8 L347.0,39.0 L347.3,39.0 L347.8,39.3 L348.2,39.3 L348.5,39.5 L349.0,39.6 L350.3,40.2 L354.0,47.5 L354.3,49.3 L355.0,50.2 L355.7,51.1 L355.9,51.1 L356.7,52.6 L357.0,53.1 L357.3,53.1 L357.6,53.6 L357.9,53.6 L358.4,54.4 L358.5,54.4 L358.9,54.4 L361.6,63.7 L362.1,65.0 L362.5,65.7 L363.5,66.0 L363.9,66.0 L364.5,67.6 L364.9,67.6 L365.4,68.2 L365.9,68.2 L366.4,68.5 L366.7,68.5 L367.0,68.5 L367.5,68.8 L368.5,68.6 L369.0,68.8 L370.0,69.8 L370.3,69.8 L370.6,69.8 L370.9,69.8 L371.4,71.3 L371.8,71.6 L372.4,72.2 L373.6,77.1 L374.5,78.4 L375.0,78.8 L375.4,78.8 L375.8,78.8 L378.6,82.3 L378.9,84.1 L381.4,91.0 L381.7,91.8 L382.0,91.8 L382.8,91.8 L383.1,92.3 L383.2,92.3 L383.3,92.3 L383.4,92.3 L383.6,92.3 L385.4,93.8 L387.7,96.7 L388.3,96.5 L391.5,103.1 L392.0,104.5 L393.0,105.2 L393.5,105.6 L393.8,106.1 L394.3,107.1 L394.5,107.5 L394.7,107.5 L395.0,108.1 L395.2,108.1 L395.5,108.1 L395.8,108.2 L396.1,108.3 L396.3,108.6 L397.2,111.1 L399.4,117.1 L400.5,117.9 L401.2,117.9 L401.5,117.9 L401.7,117.9 L401.9,117.8 L402.0,117.8 L402.1,117.8 L402.3,117.8 L402.4,117.8 L402.6,117.8 L405.1,124.7 L405.6,125.7 L405.9,125.7 L406.5,126.8 L407.0,127.4 L407.5,127.4 L408.4,129.5 L408.9,129.5 L409.4,130.7 L410.1,132.4 L411.5,133.6 L412.1,134.0 L412.3,134.0 L412.9,135.1 L413.3,135.1 L413.8,135.7 L414.0,136.1 L414.7,136.6 L415.1,136.6 L415.8,137.5 L416.1,137.5 L416.3,137.9 L419.5,141.9 L420.1,143.1 L420.5,143.4 L422.4,144.4 L422.7,144.7 L423.2,145.0 L424.2,145.0 L424.4,145.0 L424.6,145.0 L425.1,145.0 L425.5,145.0 L425.7,145.0 L426.2,145.1 L427.1,145.0 L427.3,145.0 L427.6,144.9 L428.0,144.8 L428.2,144.8 L428.5,144.8 L431.0,148.9 L431.1,149.6 L431.4,149.4 L431.7,149.4 L431.9,149.4 L433.1,149.5 L433.6,149.6 L433.9,150.0 L434.5,150.4 L435.5,151.0 L436.2,151.9 L436.6,152.6 L437.1,154.0 L437.5,154.0 L438.6,155.2 L439.1,155.4 L439.3,155.6 L439.5,155.9 L439.5,155.9 L440.2,156.6 L440.9,156.6 L441.0,156.6 L441.8,157.5 L442.2,158.1 L443.7,159.3 L445.1,160.3 L445.5,160.3 L445.7,160.3 L446.4,160.6 L446.5,160.6 L446.8,160.6 L447.0,160.6 L447.8,160.7 L448.3,160.6 L450.6,161.2 L451.4,161.2 L452.1,161.0 L452.7,161.0 L453.0,161.1 L453.2,161.1 L453.6,161.1 L454.2,161.5 L454.7,161.6 L455.2,161.6 L456.1,161.8 L456.3,161.8 L456.4,161.8 L456.5,161.8 L456.8,161.9 L457.0,161.9 L457.1,161.9 L457.2,161.9 L457.2,162.0 L457.6,162.0 L457.8,162.0 L458.4,161.9 L459.7,161.7 L460.5,161.2 L460.7,161.2 L460.7,161.2 L462.0,160.2 L462.8,159.7 L463.2,158.6 L464.2,157.1 L464.9,155.9 L465.7,154.2 L466.1,154.2 L466.4,153.7 L466.7,152.9 L467.0,152.9 L467.7,151.9 L468.0,151.9 L468.6,151.2 L468.9,150.8 L469.9,149.8 L472.4,142.7 L473.5,141.0 L474.0,140.7 L474.3,140.7 L474.6,140.7 L475.0,140.1 L476.2,139.6 L479.8,130.4 L480.0,129.1 L480.4,128.5 L480.8,127.7 L481.2,127.0 L481.4,126.6 L482.7,126.4 L483.0,126.2 L483.2,126.2 L483.3,126.1 L483.5,126.1 L483.6,126.1 L483.8,125.9 L484.4,125.8 L484.6,125.7 L484.8,125.7 L485.0,125.7 L485.3,125.5 L486.1,126.0 L486.7,125.9 L487.1,124.9 L487.7,122.9 L488.5,120.4 L488.9,120.2 L489.2,119.9 L489.4,119.9 L490.0,119.6 L490.2,119.2 L490.3,119.2 L490.4,119.2 L490.5,119.0 L490.8,119.0 L491.0,119.0 L491.2,118.4 L492.6,117.5 L493.0,118.1 L493.5,115.6 L495.5,112.7 L495.9,112.7 L496.4,110.7 L496.9,108.6 L498.8,105.6 L498.9,105.0 L499.1,105.0 L499.3,105.0 L499.6,104.5 L499.7,104.6 L499.9,104.6 L500.1,104.7 L500.3,104.7 L501.6,104.5 L501.9,104.5 L502.2,104.2 L502.5,104.5 L503.0,104.9 L504.3,102.1 L506.1,99.9 L506.3,99.9 L507.0,100.0 L507.5,100.0 L507.9,99.9 L508.4,99.8 L508.9,100.3 L509.3,100.0 L510.0,99.6 L510.5,98.8 L511.0,98.3 L511.4,97.9 L511.9,97.6 L512.8,96.2 L514.9,89.2 L515.6,87.8 L515.9,87.3 L516.2,86.8 L516.4,86.8 L516.6,86.8 L516.8,86.8 L517.0,86.8 L517.2,86.8 L517.5,86.0 L517.8,85.8 L518.2,85.4 L518.6,84.9 L519.7,82.8 L519.9,82.8 L520.1,82.6 L520.3,82.5 L520.9,82.5 L521.4,82.5 L521.9,82.5 L522.8,82.2 L523.1,81.9 L523.5,81.8 L524.0,81.8 L524.4,81.3 L524.9,80.9 L525.3,80.4 L525.5,80.4 L526.8,78.4 L527.1,77.9 L527.5,77.1 L528.0,75.8 L528.5,75.8 L529.0,75.4 L529.7,74.9 L530.4,74.6 L531.4,74.0 L534.3,70.9 L537.8,64.3 L538.3,62.8 L538.7,62.3 L538.9,62.3 L539.4,62.2 L540.4,61.6 L540.6,61.3 L541.0,60.6 L541.7,59.5 L541.9,58.9 L542.5,58.7 L542.8,58.7 L543.0,58.5 L543.2,58.4 L543.4,58.4 L543.7,58.3 L543.9,58.2 L544.2,58.0 L544.6,57.8 L544.8,57.8 L545.0,57.5 L545.2,57.5 L545.3,57.4 L545.5,57.4 L546.2,57.3 L547.3,57.2 L547.7,57.0 L548.2,56.0 L548.6,55.7 L549.2,55.1 L549.6,55.1 L550.2,54.2 L550.4,54.2 L550.7,53.8 L551.4,53.4 L552.3,52.8 L552.4,52.5 L553.0,51.3 L553.8,50.4 L553.9,50.4 L554.8,50.2 L555.1,50.1 L555.2,50.0 L555.2,50.0 L555.4,49.8 L555.7,49.8 L555.8,49.8 L556.0,49.8 L556.2,49.8 L556.3,49.8 L556.5,49.5 L557.5,49.7 L558.0,49.9 L558.4,50.1 L558.8,50.2 L559.0,50.2 L559.4,51.0 L559.7,51.0 L561.9,55.2 L563.0,58.6 L563.6,58.6 L564.9,60.4 L567.0,64.6 L567.5,65.5 L568.0,65.9 L568.5,65.9 L568.9,66.1 L569.7,66.7 L570.4,66.9 L571.2,67.3 L571.6,67.4 L572.2,67.4 L572.4,67.4 L572.5,67.4 L572.8,67.3 L573.0,67.2 L573.2,67.2 L573.5,67.0 L573.6,66.8 L573.9,66.8 L574.2,66.5 L574.6,66.5 L575.2,66.0 L575.8,65.4 L576.0,65.2 L576.5,64.8 L577.1,63.7 L577.8,63.1 L578.4,62.5 L578.9,62.1 L579.5,61.6 L580.0,60.3 L580.4,60.0 L581.4,57.6 L582.1,57.1 L582.3,57.1 L582.9,56.3 L583.4,55.7 L583.7,55.7 L585.5,51.9 L586.3,49.9 L586.7,49.9 L587.0,49.9 L587.9,49.9 L588.5,49.5 L591.0,45.3 L591.6,45.1 L591.8,45.0 L592.1,45.0 L592.2,45.0 L592.6,45.0 L592.9,45.0 L593.4,44.7 L594.0,44.9 L595.8,41.7 L596.9,40.6 L597.6,40.2 L597.8,39.9 L598.2,39.2 L599.2,38.1 L599.5,37.9 L599.8,37.7 L600.1,37.5 L600.3,37.3 L600.6,37.1 L601.0,36.8 L601.2,36.8 L601.5,36.8 L602.0,36.2 L603.0,35.3 L603.3,35.2 L604.5,34.5 L605.3,34.2 L605.9,33.5 L606.5,33.5 L607.4,33.9 L608.0,34.0 L609.2,34.2 L609.7,34.2 L610.0,34.4 L610.5,34.4 L611.6,34.6 L614.1,33.5 L614.7,33.7 L615.2,33.7 L615.5,33.7 L615.8,33.8 L616.0,33.8 L616.1,33.9 L616.5,33.9 L616.6,34.1 L616.9,34.1 L617.1,34.1 L618.1,34.7 L618.5,35.1 L620.3,38.4 L620.5,38.4 L620.7,38.9 L622.0,40.5 L622.3,40.5 L622.6,40.5 L623.5,44.3 L625.5,52.4 L626.0,53.7 L626.2,53.7 L627.1,54.8 L627.4,54.8 L627.7,54.8 L627.9,54.8 L628.3,55.8 L628.9,57.2 L629.1,57.2 L629.5,57.6 L630.7,59.6 L631.2,60.5 L631.7,61.3 L632.4,62.6 L632.6,62.6 L633.0,62.6 L633.6,63.1 L634.4,64.1 L637.3,75.5 L638.9,76.9 L639.1,77.0 L639.3,77.1 L639.4,77.3 L639.6,77.3 L639.7,77.3 L639.9,77.6 L640.3,78.0 L640.4,78.0 L640.8,78.3 L641.0,78.3 L641.3,78.3 L641.4,78.5 L641.6,78.6 L641.9,78.7 L642.7,80.9 L643.0,81.6 L644.4,88.4 L644.8,88.4 L645.1,88.7 L645.6,89.9 L645.8,90.4 L646.1,90.4 L646.3,90.4 L646.5,90.7 L646.7,90.7 L647.4,92.6 L647.7,92.9 L647.8,92.9 L648.0,93.3 L648.2,93.3 L648.9,94.6 L649.3,96.2 L649.5,96.6 L649.7,96.6 L650.9,100.2 L651.4,100.6 L651.7,100.6 L652.0,101.7 L652.3,104.2 L652.6,104.6 L654.3,106.6 L654.5,107.4 L654.7,107.8 L654.9,108.3 L656.0,110.3 L656.4,110.3 L656.6,110.3 L656.8,110.5 L657.0,110.7 L657.4,111.8 L657.6,111.8 L658.0,112.5 L658.1,112.5 L659.7,118.4 L660.2,119.9 L660.6,123.6 L660.9,123.8 L661.4,124.4 L661.8,124.6 L662.7,125.7 L662.8,125.7 L663.0,125.7 L663.3,125.8 L663.5,125.8 L663.6,125.8 L663.7,125.8 L664.0,125.5 L664.3,125.6 L665.0,125.7 L665.5,125.5 L665.9,125.7 L666.2,125.8 L666.4,125.8 L666.7,125.7 L666.9,126.0 L667.8,127.1 L668.3,127.7 L668.5,128.1 L669.2,129.0 L669.4,129.1 L669.5,129.3 L669.6,129.3 L669.8,129.5 L670.1,129.5 L670.2,129.5 L670.4,129.7 L670.6,129.7 L670.9,129.9 L672.0,130.3 L672.2,130.7 L672.7,131.0 L672.9,131.2 L673.0,131.2 L673.2,131.2 L673.3,131.2 L673.7,131.4 L673.9,131.4 L674.2,131.5 L674.6,131.5 L674.8,131.4 L675.0,131.4 L675.3,131.5 L676.5,131.4 L677.6,131.1 L678.0,130.8 L678.4,130.7 L679.0,130.4 L680.3,128.6 L680.6,128.8 L680.8,129.1 L681.3,129.1 L681.8,129.4 L681.9,129.4 L682.0,129.4 L682.2,129.4 L682.4,130.0 L682.9,130.7 L683.3,131.5 L683.9,131.8 L684.6,137.1 L685.0,138.2 L685.6,139.1 L686.5,143.7 L687.0,143.7 L688.3,147.6 L688.6,148.2 L689.0,148.2 L689.7,150.3 L689.9,150.3 L690.5,150.3 L691.0,150.6 L691.4,151.5 L691.8,151.5 L692.1,151.6 L692.4,151.8 L693.4,152.4 L693.8,152.2 L694.3,152.1 L695.0,151.9 L695.5,152.0 L695.8,152.1 L696.3,152.3 L696.8,152.4 L697.3,152.6 L697.7,152.4 L698.0,152.3 L698.5,152.1 L698.7,152.1 L698.9,152.0 L699.4,152.1 L699.7,151.6 L700.1,151.2 L700.7,150.8 L701.2,149.7 L702.2,149.2 L702.5,148.8 L703.3,149.2 L703.7,150.6 L704.1,150.8 L704.3,151.5 L705.1,153.7 L705.9,155.3 L706.1,155.3 L706.6,156.7 L707.1,157.3 L707.5,157.5 L708.4,157.4 L708.7,158.2 L709.3,158.6 L710.3,158.3 L711.0,158.5 L711.6,159.3 L712.0,159.7 L712.3,159.7 L713.0,160.4 L713.5,160.3 L713.9,160.4 L715.0,160.6 L716.3,160.4 L717.2,160.7 L717.7,161.4 L717.9,161.9 L719.1,162.8 L719.6,163.1 L719.9,163.6 L720.1,163.7 L720.3,164.2 L720.6,164.7 L721.4,164.8 L722.0,165.3 L722.3,165.6 L722.5,165.8 L723.2,166.3 L723.9,167.4 L724.6,169.8 L724.9,170.7 L725.4,171.6 L725.7,172.0 L726.2,172.3 L726.4,172.6 L726.5,172.6 L726.7,172.6 L726.9,172.9 L727.1,173.8 L727.3,174.6 L727.8,175.3 L728.1,176.0 L728.7,176.7 L729.2,177.3 L729.4,177.4 L729.7,177.3 L730.1,177.2 L730.3,177.2 L730.4,177.6 L730.5,178.0 L730.8,178.0 L731.0,178.0 L731.8,178.1 L732.2,177.9 L733.0,177.1 L733.3,176.7 L733.8,176.5 L734.9,178.8 L735.3,178.8 L736.3,179.7 L736.6,179.7 L736.9,180.0 L737.1,180.0 L737.3,180.0 L738.6,180.5 L739.1,181.0 L740.0,180.9 L742.5,183.6 L742.8,184.5 L743.1,184.5 L743.6,184.5 L744.2,184.5 L747.1,184.4 L747.9,185.0 L749.4,185.0 L749.8,185.2 L752.8,187.1 L753.2,187.4 L754.5,188.5 L756.3,192.3 L757.3,192.9 L757.9,192.9 L761.7,193.7 L763.4,193.7 L765.3,193.7 L765.8,193.7 L766.2,193.7 L768.5,193.0 L768.7,193.0 L769.2,193.7 L769.6,194.6 L770.6,195.5 L771.0,196.7 L771.3,197.9 L771.9,199.6 L772.6,200.3 L773.2,202.0 L773.6,203.1 L774.0,203.6 L774.2,203.9 L775.3,204.2 L775.4,204.2 L775.7,204.3 L776.5,204.5 L776.6,204.5 L776.9,204.6 L777.3,204.6 L777.6,204.6 L777.9,204.6 L778.3,204.4 L779.4,204.9 L780.2,205.6 L781.2,206.0 L781.4,206.1 L781.5,206.1 L781.9,206.2 L782.3,206.4 L782.7,206.6 L783.5,206.8 L783.8,206.8 L784.5,207.0 L784.7,207.0 L785.5,207.5 L785.8,207.8 L786.6,208.8 L787.3,209.0 L787.6,209.0 L787.9,209.1 L788.1,209.0 L788.3,209.1 L788.3,209.1 L788.7,208.9 L789.1,208.9 L789.5,208.7 L789.7,208.7 L790.4,208.4 L790.8,207.9 L791.7,206.7 L792.4,206.1 L793.7,205.8 L794.1,205.8 L794.6,206.1 L795.1,206.4 L796.1,206.8 L796.5,206.8 L797.2,207.2 L797.4,207.2 L797.9,207.6 L798.3,207.6 L799.2,208.3 L800.3,208.1 L800.9,207.4 L801.6,207.1 L802.2,206.9 L802.5,206.9 L802.7,206.9 L803.0,206.6 L803.1,206.6 L803.9,206.4 L805.1,205.6 L805.7,205.5 L806.3,205.9 L807.3,206.8 L807.7,206.9 L808.6,207.9 L808.9,208.2 L809.3,208.5 L809.5,208.5 L810.3,209.7 L810.9,209.9 L811.5,210.8 L812.3,211.3 L812.9,212.1 L814.9,212.5 L815.3,212.9 L815.8,213.3 L816.5,213.3 L817.1,213.3 L817.6,212.5 L818.1,212.3 L819.8,212.5 L820.0,212.7 L820.5,213.0 L820.7,213.0 L821.0,213.4 L821.3,213.6 L821.6,213.8 L822.3,214.2 L822.6,214.5 L822.9,214.5 L823.2,214.7 L823.5,215.0 L824.0,215.3 L824.6,215.9 L825.2,216.2 L826.6,216.5 L827.1,217.3 L827.7,217.7 L828.5,217.9 L828.8,218.3 L829.2,218.4 L829.5,218.5 L829.7,218.8 L830.4,219.1 L831.1,219.0 L831.9,219.0 L832.0,219.1 L832.2,219.3 L832.7,219.3 L833.0,219.2 L833.2,219.2 L833.5,219.2 L833.8,219.2 L834.4,219.2 L836.2,221.0 L836.7,221.2 L836.9,222.1 L837.2,222.1 L837.8,222.1 L839.2,223.2 L840.9,224.9 L841.6,226.7 L842.2,227.3 L842.8,227.2 L843.0,227.2 L843.2,227.2 L843.4,227.4 L843.7,227.5 L843.8,227.5 L844.0,227.5 L844.2,227.8 L844.4,227.8 L844.8,228.1 L845.3,228.4 L846.1,229.1 L848.2,231.4 L848.8,232.5 L849.8,232.5 L850.4,232.5 L851.1,233.6 L853.4,236.7 L854.0,236.6 L854.3,236.6 L856.0,236.6 L856.8,236.5 L857.9,237.2 L858.2,237.2 L858.7,238.3 L859.3,238.7 L859.6,238.6 L859.9,238.3 L860.1,238.3 L860.8,238.5 L861.0,238.5 L861.9,239.0 L862.1,239.6 L862.3,239.6 L862.7,241.0 L864.0,242.1 L864.4,242.6 L864.8,244.0 L865.1,244.0 L865.4,244.2 L865.6,244.0 L865.9,243.9 L867.7,243.9 L868.0,244.1 L868.3,243.9 L868.9,245.3 L869.8,246.0 L870.4,247.0 L870.9,248.2 L871.1,248.2 L871.3,248.3 L871.8,248.8 L872.1,248.8 L872.4,249.1 L872.7,249.1 L872.9,249.2 L873.3,249.2 L873.6,249.3 L873.9,249.4 L874.2,249.4 L874.7,249.4 L875.0,249.6 L875.4,249.5 L875.7,249.7 L876.0,249.7 L877.3,249.6 L878.0,249.1 L878.4,249.1 L879.1,249.2 L879.9,248.9 L880.2,248.9 L880.6,248.8 L881.4,248.7 L881.8,249.2 L882.2,249.5 L883.0,250.2 L884.3,250.7 L884.5,250.9 L885.1,251.2 L885.3,251.2 L885.6,251.5 L886.2,251.5 L886.9,251.2 L887.1,250.8 L887.4,250.7 L887.8,250.7 L889.0,249.8 L889.3,249.6 L889.7,249.3 L890.4,248.6 L890.6,248.6 L892.2,252.9 L892.5,252.8 L893.2,253.8 L893.3,253.8 L893.4,253.8 L893.6,253.8 L893.7,253.8 L894.1,253.8 L894.2,253.9 L894.4,253.9 L894.6,254.0 L894.9,254.3 L895.8,254.4 L896.3,254.2 L896.6,254.3 L896.9,254.5 L897.3,254.7 L897.6,255.0 L897.8,255.0 L898.5,255.2 L898.9,255.3 L899.1,255.3 L899.3,255.2 L899.7,255.1 L899.9,255.0 L900.4,255.4 L901.7,255.5 L902.3,257.3 L902.9,258.1 L903.8,258.4 L904.3,258.9 L904.4,259.0 L904.6,259.0 L904.7,259.1 L904.8,259.5 L904.9,259.5 L905.5,260.0 L906.0,260.1 L906.8,260.3 L907.1,260.4 L908.1,261.0 L909.6,262.1 L910.1,262.2 L910.8,262.4 L911.8,262.5 L912.2,262.6 L912.6,262.6 L913.7,263.0 L915.6,265.5 L916.5,265.9 L917.8,266.0 L918.4,266.2 L918.8,266.2 L919.3,266.8 L920.0,266.8 L921.5,269.5 L923.2,270.1 L923.2,270.1 L923.3,270.1 L923.7,270.2 L924.0,270.2 L924.7,270.0 L924.9,269.9 L925.1,269.9 L925.2,269.8 L925.4,269.7 L925.5,269.6 L925.6,269.6 L925.8,269.3 L926.3,269.0 L926.5,268.7 L926.8,268.5 L927.0,268.3 L927.4,267.5 L927.6,267.2 L927.8,267.0 L927.9,266.9 L928.1,266.6 L928.3,266.2 L928.9,266.0 L929.0,265.8 L929.3,265.3 L929.4,265.1 L929.5,265.1 L929.6,265.1 L929.8,264.8 L929.9,264.6 L930.1,264.4 L930.7,263.2 L931.7,263.1 L932.3,263.1 L932.6,263.1 L932.7,263.1 L933.1,263.1 L933.5,262.5 L934.0,262.5 L934.3,262.7 L934.6,262.4 L934.7,262.6 L934.9,262.2 L935.6,261.8 L935.9,261.2 L936.8,259.5 L937.4,257.1 L937.9,256.1 L938.3,255.5 L938.6,254.8 L939.5,254.3 L939.6,254.3 L939.8,254.3 L940.1,253.5 L940.4,252.9 L940.5,252.6 L940.8,252.4 L941.0,252.4 L941.0,252.4 L941.6,251.6 L942.3,250.3 L942.4,249.9 L942.7,249.1 L942.9,248.3 L944.0,245.4 L944.2,244.8 L944.7,244.3 L945.1,243.8 L945.2,243.2 L945.6,242.5 L946.1,242.3 L946.2,242.3 L946.5,242.0 L946.7,241.7 L947.6,240.5 L948.0,240.3 L948.2,239.7 L948.9,237.9 L949.1,237.1 L949.2,236.6 L949.5,236.1 L949.9,236.1 L950.6,235.1 L950.8,234.7 L951.0,234.0 L951.2,233.7 L951.4,233.3 L951.8,232.3 L951.9,232.3 L952.5,230.7 L953.3,228.9 L953.4,228.9 L953.6,228.2 L953.9,227.6 L954.3,226.4 L954.5,226.4 L954.8,226.2 L955.1,225.8 L955.4,225.8 L955.5,225.8 L955.9,225.3 L956.0,225.3 L956.1,225.1 L956.4,224.9 L956.6,224.9 L957.0,224.6 L957.3,224.6 L957.5,224.5 L957.9,224.5 L958.5,224.3 L958.8,224.1 L959.1,223.3 L960.8,220.9 L961.0,220.7 L961.3,220.4 L961.4,220.4 L961.7,219.8 L961.9,220.0 L962.1,220.0 L962.8,220.3 L963.1,220.3 L963.4,220.0 L964.1,218.6 L964.5,217.7 L965.0,217.2 L965.3,216.4 L965.4,215.8 L965.6,214.7 L966.3,213.0 L966.5,212.7 L966.6,212.0 L966.7,212.0 L967.4,210.9 L967.6,210.3 L967.8,209.3 L968.0,208.7 L968.2,208.1 L968.4,208.1 L968.7,208.1 L968.9,207.5 L969.0,207.4 L969.2,207.1 L969.6,206.7 L970.3,206.1 L971.2,200.5 L971.9,198.2 L972.8,197.5 L972.9,197.5 L973.0,197.5 L973.1,197.5 L973.4,197.5 L973.9,196.8 L974.4,195.8 L974.7,194.8 L975.1,194.8 L976.1,191.9 L976.4,191.0 L976.9,189.9 L977.1,189.8 L977.7,188.6 L977.8,188.7 L978.0,188.8 L978.1,188.8 L978.2,188.7 L979.4,187.1 L980.0,186.1 L980.1,185.9 L980.3,185.6 L980.4,185.5 L980.6,185.1 L981.0,184.3 L981.8,182.6 L981.9,182.3 L982.2,181.8 L982.3,181.7 L982.5,181.3 L982.7,180.8 L982.9,179.7 L983.4,179.1 L983.6,178.7 L983.7,178.7 L983.8,178.6 L984.2,178.6 L984.4,178.5 L984.5,178.5 L984.7,178.2 L985.5,176.4 L985.9,175.8 L986.1,175.1 L986.3,175.1 L986.5,175.1 L987.2,171.5 L987.6,170.0 L988.3,168.8 L988.5,168.0 L989.4,164.9 L989.5,164.6 L989.7,163.9 L989.9,163.9 L990.4,163.5 L990.6,163.3 L990.7,163.3 L990.9,162.9 L991.5,162.4 L991.7,162.4 L991.9,162.5 L992.1,162.4 L992.4,162.4 L992.7,162.0 L992.8,161.3 L993.0,161.0 L993.4,159.6 L993.5,159.2 L994.5,158.2 L995.0,157.2 L995.2,156.9 L995.4,156.6 L995.5,156.2 L995.7,156.0 L995.8,156.0 L996.1,155.3 L996.3,155.3 L996.4,155.3 L996.5,155.3 L996.6,155.3 L996.7,155.3 L996.9,155.1 L997.1,155.1 L997.4,155.1 L997.9,154.7 L998.1,154.7 L998.3,154.4 L998.5,154.2 L1000.2,150.3 L1000.8,149.3 L1001.0,149.0 L1001.6,147.8 L1001.8,147.5 L1002.0,147.2 L1002.3,147.0 L1002.6,147.0 L1002.8,146.8 L1003.0,146.8 L1003.2,146.8 L1003.3,146.5 L1003.6,145.8 L1003.8,145.8 L1003.9,145.8 L1004.0,145.8 L1004.2,145.5 L1004.3,144.6 L1004.7,143.3 L1005.8,140.6 L1006.7,139.0 L1006.8,138.7 L1007.0,138.7 L1007.8,138.2 L1007.9,138.2 L1008.1,138.0 L1008.2,137.7 L1008.4,137.5 L1008.8,137.3 L1010.4,136.2 L1010.6,135.8 L1010.9,134.6 L1011.3,134.2 L1011.6,134.2 L1012.4,133.1 L1012.8,132.2 L1013.0,131.2 L1013.5,130.2 L1014.3,129.2 L1014.5,129.2 L1014.9,128.8 L1015.1,128.8 L1015.3,128.4 L1015.5,127.9 L1015.8,128.1 L1016.3,128.0 L1016.7,128.4 L1017.5,129.4 L1018.1,131.6 L1018.6,132.4 L1018.9,133.4 L1019.2,133.8 L1019.8,134.8 L1020.0,135.3 L1020.1,135.7 L1020.3,136.1 L1020.4,136.1 L1020.8,137.2 L1021.2,137.8 L1022.1,139.6 L1022.3,139.6 L1022.6,140.5 L1022.7,140.9 L1022.9,142.1 L1023.2,142.2 L1023.4,142.5 L1023.8,143.0 L1023.9,143.0 L1024.0,143.1 L1024.1,143.3 L1024.2,143.3 L1024.7,143.7 L1025.2,144.4 L1025.3,144.4 L1025.5,144.5 L1025.6,144.8 L1025.9,145.3 L1026.1,145.3 L1026.3,145.9 L1026.5,146.3 L1026.9,147.1 L1027.2,147.7 L1027.6,147.7 L1028.0,148.5 L1028.3,149.6 L1028.8,150.3 L1028.9,151.7 L1029.1,153.0 L1029.5,154.9 L1030.5,157.8 L1031.2,159.7 L1031.4,160.5 L1031.6,161.2 L1031.8,161.5 L1032.0,162.4 L1032.4,162.8 L1033.2,163.6 L1033.4,164.0 L1034.1,165.1 L1034.4,166.6 L1034.8,167.6 L1035.2,168.1 L1035.8,170.2 L1036.0,171.7 L1036.6,173.7 L1036.7,173.7 L1037.1,174.9 L1037.9,176.5 L1038.1,176.6 L1038.4,177.3 L1038.8,178.4 L1039.0,178.4 L1039.2,179.1 L1039.5,179.6 L1039.7,179.6 L1039.8,179.6 L1040.0,179.6 L1040.2,180.2 L1040.4,180.3 L1040.7,180.5 L1040.9,181.2 L1041.1,182.0 L1041.7,182.2 L1042.6,186.7 L1043.2,190.7 L1043.4,192.0 L1044.2,194.7 L1044.5,195.2 L1044.8,195.2 L1045.3,196.6 L1045.5,197.3 L1045.9,198.6 L1046.1,199.7 L1046.4,199.7 L1046.9,201.0 L1047.6,202.2 L1047.9,203.3 L1048.3,204.4 L1048.5,205.0 L1049.1,207.0 L1049.3,207.0 L1050.2,208.0 L1050.4,208.7 L1051.1,210.6 L1051.3,211.0 L1051.5,211.3 L1051.9,212.7 L1052.7,213.3 L1053.2,214.0 L1053.3,214.0 L1053.5,214.0 L1053.6,214.5 L1053.8,215.0 L1054.3,215.9 L1054.9,216.5 L1055.2,217.6 L1056.3,221.5 L1057.6,223.6 L1057.9,224.5 L1058.2,225.3 L1059.2,227.6 L1060.6,229.6 L1061.2,230.7 L1061.6,230.7 L1061.9,233.0 L1062.7,233.9 L1063.6,236.4 L1064.2,237.9 L1064.4,238.0 L1065.1,239.2 L1065.4,239.7 L1065.6,239.7 L1065.8,240.5 L1066.7,242.8 L1067.3,243.3 L1068.0,247.1 L1068.7,248.2 L1070.1,254.6 L1070.4,255.7 L1071.3,261.0 L1072.0,261.9 L1072.6,263.2 L1072.9,263.9 L1072.9,263.9 L1073.0,264.1 L1073.2,264.1 L1073.3,264.1 L1073.8,264.6 L1074.0,264.6 L1074.2,264.8 L1074.6,265.0 L1075.0,265.0 L1075.4,265.7 L1076.1,266.2 L1076.5,266.7 L1076.9,266.9 L1077.6,268.1 L1077.8,268.1 L1078.0,268.2 L1078.9,269.6 L1079.4,270.3 L1079.6,270.3 L1079.9,270.8 L1080.0,270.8 L1080.5,272.9 L1081.0,273.3 L1081.3,273.3 L1082.1,275.2 L1082.6,277.1 L1083.4,277.4 L1083.9,277.7 L1084.1,277.7 L1084.6,276.8 L1084.9,276.8 L1085.0,276.8 L1085.4,276.7 L1085.7,276.7 L1085.9,276.7 L1086.5,275.8 L1086.8,275.8 L1087.0,275.8 L1088.8,271.7 L1090.4,269.1 L1091.0,268.9 L1091.8,268.5 L1092.7,267.2 L1093.3,266.1 L1094.3,263.7 L1095.0,262.1 L1095.7,261.3 L1096.1,260.8 L1096.5,259.4 L1096.8,259.1 L1096.9,259.1 L1097.0,259.1 L1097.1,258.7 L1097.4,258.7 L1097.7,257.7 L1098.0,256.6 L1098.6,255.7 L1098.7,255.7 L1098.9,255.5 L1099.5,253.9 L1100.0,252.8 L1100.1,252.8 L1100.2,252.3 L1100.3,252.2 L1100.4,252.2 L1100.9,251.6 L1101.2,251.1 L1101.8,250.7 L1102.1,250.2 L1102.8,248.6 L1103.2,247.7 L1103.5,246.7 L1103.9,245.4 L1104.2,244.8 L1104.8,244.2 L1105.1,244.2 L1105.5,243.4 L1105.8,242.8 L1106.0,242.1 L1106.1,242.1 L1106.6,241.2 L1107.2,240.3 L1107.8,239.6 L1108.6,239.2 L1109.1,239.2 L1109.5,239.7 L1109.7,239.5 L1110.5,239.7 L1111.3,239.7 L1111.6,239.7 L1111.9,239.6 L1112.3,239.6 L1112.8,239.6 L1113.0,239.7 L1113.3,239.7 L1113.6,239.7 L1114.0,239.6 L1114.3,239.5 L1114.5,239.4 L1114.7,239.8 L1114.9,240.3 L1115.1,240.3 L1115.2,240.8 L1115.4,240.8 L1117.0,244.2 L1117.4,245.4 L1117.7,246.7 L1118.0,248.8 L1118.7,249.3 L1119.1,249.3 L1119.7,249.9 L1120.1,251.0 L1120.6,252.1 L1121.0,252.1 L1121.7,253.7 L1122.3,254.9 L1122.9,257.0 L1123.8,258.8 L1124.6,259.5 L1124.9,260.2 L1125.1,260.2 L1125.4,260.2 L1125.8,261.9 L1127.9,267.1 L1128.1,269.3 L1129.2,271.4 L1130.1,270.8 L1130.3,271.9 L1130.6,271.9 L1130.8,272.3 L1131.1,272.7 L1131.6,273.3 L1131.7,273.6 L1131.8,273.8 L1132.0,273.8 L1132.1,273.8 L1132.3,273.8 L1132.6,273.8 L1132.7,273.8 L1133.5,274.2 L1133.8,274.8 L1134.0,275.1 L1134.3,276.1 L1135.0,277.8 L1135.1,277.9 L1135.2,278.2 L1135.4,278.2 L1135.5,278.5 L1135.7,278.5 L1135.9,278.5 L1136.0,278.7 L1136.2,278.7 L1136.3,279.0 L1136.7,279.3 L1137.1,280.2 L1137.7,281.3 L1137.9,282.4 L1138.4,284.3 L1138.6,285.2 L1138.7,285.2 L1138.9,285.4 L1139.3,285.6 L1139.5,285.6 L1139.8,285.7 L1140.3,285.9 L1140.5,287.0 L1140.6,287.0 L1140.8,287.7 L1141.0,288.2 L1142.7,293.5 L1143.2,296.3 L1143.6,298.5 L1144.4,299.1 L1145.6,300.2 L1146.6,301.7 L1147.4,304.5 L1149.3,309.8 L1149.4,309.9 L1150.1,310.5 L1150.6,310.6 L1150.9,310.8 L1151.0,310.9 L1151.1,310.9 L1151.3,311.0 L1151.3,311.0 L1151.4,311.0 L1151.7,311.3 L1151.8,311.6 L1152.1,311.9 L1152.3,311.9 L1152.7,312.3 L1153.2,312.8 L1153.4,313.2 L1153.7,313.4 L1153.9,313.6 L1154.1,313.8 L1154.2,314.1 L1154.4,314.2 L1154.8,314.7 L1155.0,314.9 L1155.2,315.1 L1155.3,315.1 L1155.6,315.3 L1155.7,315.4 L1155.8,315.4 L1156.5,316.1 L1156.6,316.3 L1156.8,316.7 L1157.3,316.8 L1157.6,317.0 L1157.8,317.3 L1158.4,317.5 L1158.7,317.5 L1158.8,317.5 L1159.2,317.6 L1159.9,317.6 L1160.0,317.6 L1160.3,317.6 L1161.0,317.6 L1161.7,317.6 L1162.0,317.6 L1162.1,317.6 L1162.8,317.6 L1163.2,317.5 L1163.3,317.5 L1163.6,317.5 L1164.2,317.3 L1164.4,317.3 L1164.7,317.1 L1165.2,317.0 L1165.4,316.9 L1165.5,316.9 L1166.2,316.5 L1166.3,316.5 L1166.4,316.5 L1167.1,316.3 L1167.3,316.2 L1168.2,316.1 L1168.4,316.1 L1168.9,316.1 L1169.1,316.0 L1169.6,315.9 L1169.9,315.7 L1170.3,315.5 L1170.4,315.4 L1170.6,315.2 L1171.4,314.7 L1172.1,314.4 L1172.2,314.2 L1172.4,314.2 L1172.6,314.0 L1172.8,313.8 L1172.9,313.5 L1173.3,313.2 L1173.6,313.1 L1174.3,312.8 L1175.3,311.6 L1175.5,311.4 L1175.9,311.1 L1176.5,311.1 L1176.9,310.8 L1177.2,310.8 L1177.3,310.8 L1177.5,310.8 L1177.9,310.3 L1178.3,309.8 L1179.1,308.8 L1180.3,307.7 L1180.5,307.4 L1180.9,307.0 L1181.1,307.0 L1181.3,307.0 L1181.8,306.5 L1183.3,305.7 L1183.8,304.5 L1184.2,304.0 L1185.0,303.6 L1186.0,302.9 L1186.6,302.4 L1187.1,302.2 L1187.4,301.8 L1187.7,301.3 L1188.1,301.1 L1188.6,300.7 L1189.8,299.9 L1189.9,299.5 L1190.5,298.9 L1190.8,298.7 L1191.6,298.0 L1192.0,297.6 L1192.3,297.5 L1192.4,297.1 L1192.7,297.1 L1193.5,296.2 L1194.0,295.0 L1194.3,294.7 L1194.4,294.7 L1194.8,293.2 L1195.7,291.6 L1196.1,290.3 L1196.4,289.5 L1197.1,286.4 L1197.6,284.5 L1198.3,282.7 L1198.6,280.6 L1199.4,275.5 L1199.9,274.5 L1200.4,272.1 L1200.9,270.0 L1201.2,268.4 L1201.4,268.0 L1201.6,268.0 L1201.7,267.5 L1202.5,265.1 L1202.7,265.1 L1202.9,263.9 L1203.1,263.5 L1203.5,263.0 L1203.7,262.6 L1204.1,261.0 L1204.4,260.6 L1204.6,260.6 L1205.3,258.7 L1205.5,258.3 L1206.2,256.6 L1206.5,255.8 L1207.0,254.4 L1207.3,253.9 L1207.6,253.9 L1208.4,252.6 L1208.7,251.9 L1208.9,251.9 L1209.6,250.6 L1210.7,249.0 L1210.9,248.5 L1211.5,246.6 L1212.4,246.1 L1213.4,245.5 L1213.6,245.5 L1213.8,245.5 L1214.0,245.2 L1218.8,248.8 L1219.3,249.7 L1219.7,249.6 L1220.7,249.5 L1221.2,249.5 L1221.5,249.7 L1221.7,249.7 L1221.9,249.9 L1222.2,250.2 L1222.8,250.6 L1223.1,250.8 L1224.0,250.9 L1224.2,251.0 L1224.5,250.7 L1224.9,250.9 L1225.4,249.4 L1226.0,249.4 L1226.3,247.8 L1226.7,247.1 L1227.5,244.5 L1227.8,244.5 L1228.5,242.2 L1228.7,242.2 L1229.8,240.9 L1230.7,240.9 L1231.2,241.4 L1231.4,241.4 L1231.6,241.4 L1231.8,241.4 L1232.9,241.8 L1233.2,241.8 L1233.5,241.8 L1234.0,242.1 L1234.9,240.7 L1235.1,240.7 L1235.2,240.7 L1235.4,240.1 L1235.5,240.1 L1235.7,240.0 L1236.6,238.3 L1236.8,237.9 L1237.1,237.9 L1237.3,237.4 L1237.7,235.9 L1238.5,233.2 L1238.6,233.2 L1238.7,233.2 L1239.2,232.0 L1239.7,230.8 L1240.0,230.0 L1240.3,229.3 L1240.6,229.3 L1240.9,228.6 L1241.2,226.7 L1241.6,226.5 L1241.9,226.1 L1242.4,225.8 L1242.7,225.4 L1243.2,225.0 L1243.3,225.0 L1243.4,224.8 L1243.5,224.8 L1243.5,224.8 L1243.8,224.6 L1244.2,224.6 L1244.6,224.7 L1244.9,224.9 L1245.0,224.9 L1245.6,225.2 L1246.0,225.9 L1246.4,226.4 L1246.7,226.5 L1246.9,226.5 L1247.2,226.7 L1247.4,227.1 L1247.6,227.4 L1247.9,228.0 L1248.1,228.6 L1248.2,228.6 L1248.7,229.4 L1249.6,231.3 L1250.3,233.9 L1250.5,235.3 L1250.9,237.0 L1251.4,239.7 L1252.2,242.2 L1252.3,242.2 L1252.9,243.8 L1253.6,246.3 L1253.8,246.3 L1254.0,248.0 L1254.3,249.2 L1255.1,251.3 L1255.9,252.7 L1256.3,253.9 L1256.6,254.5 L1256.7,254.5 L1256.9,254.9 L1257.6,255.4 L1258.3,255.2 L1259.4,255.8 L1259.9,256.3 L1260.1,256.6 L1260.4,256.9 L1260.9,258.0 L1261.1,258.0 L1261.4,258.2 L1261.8,258.4 L1262.0,258.5 L1262.2,258.6 L1262.5,258.9 L1262.8,259.3 L1262.9,259.6 L1263.0,259.6 L1263.1,259.7 L1263.4,259.7 L1263.7,260.4 L1264.0,260.8 L1264.6,261.2 L1264.8,261.3 L1265.1,262.2 L1265.5,263.0 L1265.9,263.8 L1266.1,264.0 L1267.3,266.3 L1267.5,266.3 L1267.9,267.5 L1268.3,269.2 L1269.1,271.5 L1269.4,271.9 L1270.0,272.8 L1270.4,273.8 L1270.6,273.8 L1271.2,276.3 L1271.4,276.7 L1271.7,277.1 L1272.7,278.1 L1273.2,278.9 L1273.3,278.9 L1273.6,278.9 L1273.6,278.9 L1273.8,279.4 L1276.3,283.8 L1277.5,285.4 L1278.0,286.0 L1278.8,286.5 L1279.8,286.5 L1280.3,287.8 L1281.3,288.5 L1282.3,288.4 L1283.9,288.7 L1284.2,288.7 L1284.8,288.1 L1285.6,289.2 L1287.9,294.0 L1289.2,295.9 L1290.1,296.6 L1290.6,297.3 L1292.5,299.0 L1293.1,300.5 L1293.6,301.5 L1296.0,306.6 L1297.5,308.6 L1297.8,308.6 L1298.1,308.6 L1298.5,309.3 L1299.2,309.9 L1299.7,309.9 L1301.0,311.8 L1302.7,314.9 L1304.0,317.2 L1305.2,318.7 L1306.4,319.3 L1307.4,319.7 L1307.5,319.7 L1307.6,319.7 L1307.9,320.2 L1308.0,320.2 L1308.1,320.2 L1308.3,320.2 L1308.6,320.2 L1308.7,320.2 L1309.1,320.5 L1309.4,320.7 L1309.6,321.0 L1310.1,321.7 L1310.3,321.7 L1311.3,323.3 L1311.6,323.7 L1312.0,324.2 L1312.4,324.7 L1312.9,325.7 L1313.5,326.1 L1314.1,326.5 L1314.6,326.7 L1315.1,327.0 L1315.2,327.0 L1315.4,327.0 L1315.6,327.2 L1315.6,327.3 L1315.7,327.3 L1316.5,327.4 L1316.8,327.8 L1317.1,327.8 L1317.3,328.1 L1317.9,328.5 L1318.0,328.6 L1319.0,329.1 L1319.2,329.1 L1319.6,329.4 L1319.7,329.4 L1319.8,329.6 L1320.3,329.6 L1320.6,329.8 L1321.0,329.8 L1321.8,329.9 L1322.8,330.1 L1324.0,330.6 L1324.5,330.6 L1326.4,331.1 L1327.1,331.4 L1327.4,331.4 L1328.5,331.8 L1329.2,331.9 L1329.9,332.1 L1330.0,332.1 L1330.5,332.1 L1330.9,332.2 L1331.2,332.5 L1331.3,332.5 L1331.4,332.5 L1332.0,332.7 L1333.4,333.0 L1333.4,333.0 L1333.6,333.0 L1333.8,333.2 L1334.1,333.3 L1334.3,333.4 L1335.2,333.5 L1335.5,333.5 L1335.7,333.5 L1336.7,333.6 L1336.9,333.6 L1337.2,333.6 L1337.5,333.6 L1337.6,333.6 L1337.8,333.6 L1337.9,333.6 L1338.0,333.6 L1338.1,333.6 L1338.1,333.6 L1338.2,333.6 L1338.4,333.5 L1339.8,333.5 L1340.0,333.5 L1340.1,333.5 L1340.1,333.5 L1340.3,333.5 L1340.4,333.5 L1340.8,333.5 L1340.8,333.5 L1340.9,333.5 L1341.0,333.4 L1341.2,333.4 L1341.3,333.4 L1342.5,333.3 L1342.8,333.2 L1342.9,333.2 L1343.0,333.2 L1343.4,333.1 L1343.7,333.1 L1344.0,333.0 L1344.6,333.0 L1344.8,333.0 L1344.8,333.0 L1345.2,332.9 L1345.5,332.8 L1345.6,332.8 L1345.7,332.8 L1345.8,332.8 L1346.0,332.8" fill="transparent" id="track" stroke="black" stroke-linejoin="miter" stroke-miterlimit="1" stroke-width="2"/>
<g>
<g>
<circle cx="457.75016641695674" cy="162.22125000000003" fill="Blue" id="0/wp" r="5"/>
</g>
<g transform="translate(457.75016641695674 162.22125000000003)">
<rect fill="white" fill-opacity="0.75" height="12" id="label-bg" width="71.22105263157897" x="-35.61052631578946" y="-155.22125000000003"/>
<text font-size="16.0" id="0/wp/text" text-anchor="start" x="-35.611" y="-143.221">
K3 (17:14)
</text>
</g>
<path d="M457.75,23.00 L451.70,92.57 L457.75,160.22" fill="transparent" id="link" stroke="black" stroke-linejoin="miter" stroke-miterlimit="1"/>
<g>
<circle cx="250.1150633410623" cy="128.05620000000005" fill="Black" id="1/wp" r="3"/>
</g>
<g transform="translate(250.1150633410623 128.05620000000005)">
<rect fill="white" fill-opacity="0.75" height="12" id="label-bg" width="36.73684210526316" x="-40.73684210526316" y="-16"/>
<text font-size="16.0" id="1/wp/text" text-anchor="end" x="-4.000" y="-4.000">
16:06
</text>
</g>
<g>
<circle cx="496.4416821403943" cy="112.56900000000002" fill="Black" id="2/wp" r="3"/>
</g>
<g transform="translate(496.4416821403943 112.56900000000002)">
<rect fill="white" fill-opacity="0.75" height="12" id="label-bg" width="36.73684210526316" x="-40.73684210526316" y="-16"/>
<text font-size="16.0" id="2/wp/text" text-anchor="end" x="-4.000" y="-4.000">
17:27
</text>
</g>
<g>
<circle cx="4.882345938047365" cy="235.92885" fill="Black" id="3/wp" r="3"/>
</g>
<g>
<circle cx="988.5313363489668" cy="166.30815" fill="Black" id="4/wp" r="3"/>
</g>
<g transform="translate(988.5313363489668 166.30815)">
<rect fill="white" fill-opacity="0.75" height="12" id="label-bg" width="36.73684210526316" x="-40.73684210526316" y="-16"/>
<text font-size="16.0" id="4/wp/text" text-anchor="end" x="-4.000" y="-4.000">
20:07
</text>
</g>
<g>
<circle cx="1233.9771705803196" cy="241.62900000000002" fill="Black" id="5/wp" r="3"/>
</g>
<g transform="translate(1233.9771705803196 241.62900000000002)">
<rect fill="white" fill-opacity="0.75" height="12" id="label-bg" width="36.73684210526316" x="-40.73684210526316" y="-16"/>
<text font-size="16.0" id="5/wp/text" text-anchor="end" x="-4.000" y="-4.000">
21:27
</text>
</g>
<g>
<circle cx="307.7759546866728" cy="30.723450000000014" fill="Green" id="7/wp" r="3"/>
</g>
<g transform="translate(307.7759546866728 30.723450000000014)">
<rect fill="white" fill-opacity="0.75" height="12" id="label-bg" width="129.0105263157895" x="-133.0105263157895" y="-16"/>
<text font-size="16.0" id="7/wp/text" text-anchor="end" x="-4.000" y="-4.000">
Alexanderschanze
</text>
</g>
<g>
<circle cx="1165.3838062699238" cy="317.05740000000003" fill="Black" id="8/wp" r="5"/>
<circle cx="1165.3838062699238" cy="317.05740000000003" fill="white" id="8/wp-little-white" r="3.5"/>
<circle cx="1165.3838062699238" cy="317.05740000000003" fill="black" id="8/wp-little-white" r="2.5"/>
</g>
<g transform="translate(1165.3838062699238 317.05740000000003)">
<rect fill="white" fill-opacity="0.75" height="12" id="label-bg" width="75.57894736842105" x="-79.57894736842105" y="4"/>
<text font-size="16.0" id="8/wp/text" text-anchor="end" x="-4.000" y="16.000">
Gernsbach
</text>
</g>
<g>
<circle cx="615.2201055495016" cy="33.98579999999998" fill="Green" id="9/wp" r="3"/>
</g>
<g transform="translate(615.2201055495016 33.98579999999998)">
<rect fill="white" fill-opacity="0.75" height="12" id="label-bg" width="86.28421052631579" x="4" y="-16"/>
<text font-size="16.0" id="9/wp/text" text-anchor="start" x="4.000" y="-4.000">
Seibelseckle
</text>
</g>
<g>
<circle cx="555.6689909647237" cy="48.79185000000001" fill="Green" id="10/wp" r="3"/>
</g>
<g transform="translate(555.6689909647237 48.79185000000001)">
<rect fill="white" fill-opacity="0.75" height="12" id="label-bg" width="67.90526315789474" x="-71.90526315789474" y="-16"/>
<text font-size="16.0" id="10/wp/text" text-anchor="end" x="-4.000" y="-4.000">
Ruhestein
</text>
</g>
<g>
<circle cx="102.47851861428853" cy="103.21215000000001" fill="Green" id="11/wp" r="3"/>
</g>
<g transform="translate(102.47851861428853 103.21215000000001)">
<rect fill="white" fill-opacity="0.75" height="12" id="label-bg" width="78.61052631578947" x="4" y="-16"/>
<text font-size="16.0" id="11/wp/text" text-anchor="start" x="4.000" y="-4.000">
Freiersberg
</text>
</g>
<g>
<circle cx="1015.5180009709284" cy="126.08445000000003" fill="Green" id="12/wp" r="3"/>
</g>
<g transform="translate(1015.5180009709284 126.08445000000003)">
<rect fill="white" fill-opacity="0.75" height="12" id="label-bg" width="76.90526315789475" x="4" y="-16"/>
<text font-size="16.0" id="12/wp/text" text-anchor="start" x="4.000" y="-4.000">
Rote Lache
</text>
</g>
<g>
<circle cx="1109.678136231374" cy="238.4025" fill="Green" id="14/wp" r="3"/>
</g>
<g transform="translate(1109.678136231374 238.4025)">
<rect fill="white" fill-opacity="0.75" height="12" id="label-bg" width="65.9157894736842" x="4" y="-16"/>
<text font-size="16.0" id="14/wp/text" text-anchor="start" x="4.000" y="-4.000">
Nachtigall
</text>
</g>
<g>
<circle cx="127.4804538396877" cy="149.70960000000002" fill="Black" id="15/wp" r="3"/>
</g>
<g transform="translate(127.4804538396877 149.70960000000002)">
<rect fill="white" fill-opacity="0.75" height="12" id="label-bg" width="36.73684210526316" x="4" y="-16"/>
<text font-size="16.0" id="15/wp/text" text-anchor="start" x="4.000" y="-4.000">
15:26
</text>
</g>
<g>
<circle cx="373.59728206047293" cy="79.83795000000003" fill="Black" id="16/wp" r="3"/>
</g>
<g transform="translate(373.59728206047293 79.83795000000003)">
<rect fill="white" fill-opacity="0.75" height="12" id="label-bg" width="36.73684210526316" x="4" y="-16"/>
<text font-size="16.0" id="16/wp/text" text-anchor="start" x="4.000" y="-4.000">
16:47
</text>
</g>
<g>
<circle cx="620.3459083375762" cy="36.17265000000003" fill="Black" id="17/wp" r="3"/>
</g>
<g transform="translate(620.3459083375762 36.17265000000003)">
<rect fill="white" fill-opacity="0.75" height="12" id="label-bg" width="36.73684210526312" x="-18.36842105263156" y="45.82734999999997"/>
<text font-size="16.0" id="17/wp/text" text-anchor="start" x="-18.368" y="57.827">
18:07
</text>
</g>
<path d="M620.35,78.00 L620.35,38.17" fill="transparent" id="link" stroke="black" stroke-linejoin="miter" stroke-miterlimit="1"/>
<g>
<circle cx="743.1103065773741" cy="184.73505" fill="Black" id="18/wp" r="3"/>
</g>
<g transform="translate(743.1103065773741 184.73505)">
<rect fill="white" fill-opacity="0.75" height="12" id="label-bg" width="36.73684210526316" x="4" y="-16"/>
<text font-size="16.0" id="18/wp/text" text-anchor="start" x="4.000" y="-4.000">
18:47
</text>
</g>
<g>
<circle cx="1111.3375969361136" cy="241.55730000000003" fill="Black" id="19/wp" r="3"/>
</g>
<g transform="translate(1111.3375969361136 241.55730000000003)">
<rect fill="white" fill-opacity="0.75" height="12" id="label-bg" width="36.73684210526312" x="-18.368421052631675" y="-223.55730000000003"/>
<text font-size="16.0" id="19/wp/text" text-anchor="start" x="-18.368" y="-211.557">
20:47
</text>
</g>
<path d="M1111.34,34.00 L1147.25,199.22 L1147.25,219.22 L1109.68,218.40 L1111.34,239.56" fill="transparent" id="link" stroke="black" stroke-linejoin="miter" stroke-miterlimit="1"/>
<g>
<circle cx="865.8927861339157" cy="244.24605000000003" fill="Black" id="20/wp" r="3"/>
</g>
<g transform="translate(865.8927861339157 244.24605000000003)">
<rect fill="white" fill-opacity="0.75" height="12" id="label-bg" width="36.73684210526316" x="4" y="-16"/>
<text font-size="16.0" id="20/wp/text" text-anchor="start" x="4.000" y="-4.000">
19:27
</text>
</g>
<g>
<circle cx="923.3256278032704" cy="271.3845" fill="Black" id="21/wp" r="4"/>
<circle cx="923.3256278032704" cy="271.3845" fill="white" id="21/wp-little-white" r="2.5"/>
</g>
<g transform="translate(923.3256278032704 271.3845)">
<rect fill="white" fill-opacity="0.75" height="12" id="label-bg" width="54.736842105263165" x="-58.736842105263165" y="4"/>
<text font-size="16.0" id="21/wp/text" text-anchor="end" x="-4.000" y="16.000">
Forbach
</text>
</g>
<g>
<circle cx="171.27906607669365" cy="235.17600000000002" fill="Black" id="22/wp" r="4"/>
<circle cx="171.27906607669365" cy="235.17600000000002" fill="white" id="22/wp-little-white" r="2.5"/>
</g>
<g transform="translate(171.27906607669365 235.17600000000002)">
<rect fill="white" fill-opacity="0.75" height="12" id="label-bg" width="92.4421052631579" x="-96.4421052631579" y="4"/>
<text font-size="16.0" id="22/wp/text" text-anchor="end" x="-4.000" y="16.000">
Bad Peterstal
</text>
</g>
<g>
<circle cx="213.57008442308074" cy="210.11685000000003" fill="Black" id="23/wp" r="4"/>
<circle cx="213.57008442308074" cy="210.11685000000003" fill="white" id="23/wp-little-white" r="2.5"/>
</g>
<g transform="translate(213.57008442308074 210.11685000000003)">
<rect fill="white" fill-opacity="0.75" height="12" id="label-bg" width="102.2" x="4" y="4"/>
<text font-size="16.0" id="23/wp/text" text-anchor="start" x="4.000" y="16.000">
Bad Griesbach
</text>
</g>
<g>
<circle cx="458.39563377353943" cy="161.9703" fill="Black" id="25/wp" r="4"/>
<circle cx="458.39563377353943" cy="161.9703" fill="white" id="25/wp-little-white" r="2.5"/>
</g>
<g transform="translate(458.39563377353943 161.9703)">
<rect fill="white" fill-opacity="0.75" height="12" id="label-bg" width="49.71578947368421" x="-53.71578947368421" y="4"/>
<text font-size="16.0" id="25/wp/text" text-anchor="end" x="-4.000" y="16.000">
Obertal
</text>
</g>
<g>
<circle cx="953.2882077263594" cy="229.33245000000002" fill="Black" id="26/wp" r="4"/>
<circle cx="953.2882077263594" cy="229.33245000000002" fill="white" id="26/wp-little-white" r="2.5"/>
</g>
<g transform="translate(953.2882077263594 229.33245000000002)">
<rect fill="white" fill-opacity="0.75" height="12" id="label-bg" width="91.87368421052632" x="4" y="4"/>
<text font-size="16.0" id="26/wp/text" text-anchor="start" x="4.000" y="16.000">
Bermersbach
</text>
</g>
<g>
<circle cx="1244.166372682569" cy="224.09835000000004" fill="Black" id="27/wp" r="4"/>
<circle cx="1244.166372682569" cy="224.09835000000004" fill="white" id="27/wp-little-white" r="2.5"/>
</g>
<g transform="translate(1244.166372682569 224.09835000000004)">
<rect fill="white" fill-opacity="0.75" height="12" id="label-bg" width="97.27368421052633" x="4" y="-16"/>
<text font-size="16.0" id="27/wp/text" text-anchor="start" x="4.000" y="-4.000">
Ebersteinburg
</text>
</g>
<g>
<circle cx="786.6340985818745" cy="206.496" fill="Black" id="29/wp" r="4"/>
<circle cx="786.6340985818745" cy="206.496" fill="white" id="29/wp-little-white" r="2.5"/>
</g>
<g transform="translate(786.6340985818745 206.496)">
<rect fill="white" fill-opacity="0.75" height="12" id="label-bg" width="106.55789473684212" x="4" y="-16"/>
<text font-size="16.0" id="29/wp/text" text-anchor="start" x="4.000" y="-4.000">
Schnmnzach
</text>
</g>
<g>
<circle cx="662.6893078464836" cy="127.73355000000001" fill="Gray" id="33/wp" r="2"/>
<circle cx="662.6893078464836" cy="127.73355000000001" fill="white" id="33/wp-little-white" r="0.5"/>
</g>
<g transform="translate(662.6893078464836 127.73355000000001)">
<rect fill="white" fill-opacity="0.75" height="12" id="label-bg" width="122.09473684210525" x="-126.09473684210525" y="4"/>
<text font-size="16.0" id="33/wp/text" text-anchor="end" x="-4.000" y="16.000">
Hinterlangenbach
</text>
</g>
<g>
<circle cx="692.355326180455" cy="150.42660000000004" fill="Gray" id="36/wp" r="2"/>
<circle cx="692.355326180455" cy="150.42660000000004" fill="white" id="36/wp-little-white" r="0.5"/>
</g>
<g transform="translate(692.355326180455 150.42660000000004)">
<rect fill="white" fill-opacity="0.75" height="12" id="label-bg" width="117.83157894736843" x="4" y="-16"/>
<text font-size="16.0" id="36/wp/text" text-anchor="start" x="4.000" y="-4.000">
Mittellangenbach
</text>
</g>
<g>
<circle cx="707.0741372351247" cy="159.71175000000002" fill="Gray" id="37/wp" r="2"/>
<circle cx="707.0741372351247" cy="159.71175000000002" fill="white" id="37/wp-little-white" r="0.5"/>
</g>
<g transform="translate(707.0741372351247 159.71175000000002)">
<rect fill="white" fill-opacity="0.75" height="12" id="label-bg" width="128.53684210526316" x="-132.53684210526316" y="4"/>
<text font-size="16.0" id="37/wp/text" text-anchor="end" x="-4.000" y="16.000">
Vorderlangenbach
</text>
</g>
<g>
<circle cx="730.5354848311285" cy="179.78775000000002" fill="Gray" id="38/wp" r="2"/>
<circle cx="730.5354848311285" cy="179.78775000000002" fill="white" id="38/wp-little-white" r="0.5"/>
</g>
<g transform="translate(730.5354848311285 179.78775000000002)">
<rect fill="white" fill-opacity="0.75" height="12" id="label-bg" width="74.72631578947369" x="-78.72631578947369" y="4"/>
<text font-size="16.0" id="38/wp/text" text-anchor="end" x="-4.000" y="16.000">
Zwickgabel
</text>
</g>
<g>
<circle cx="844.223140182592" cy="229.40415000000002" fill="Gray" id="39/wp" r="2"/>
<circle cx="844.223140182592" cy="229.40415000000002" fill="white" id="39/wp-little-white" r="0.5"/>
</g>
<g transform="translate(844.223140182592 229.40415000000002)">
<rect fill="white" fill-opacity="0.75" height="12" id="label-bg" width="89.50526315789475" x="-93.50526315789475" y="4"/>
<text font-size="16.0" id="39/wp/text" text-anchor="end" x="-4.000" y="16.000">
Raumnzach
</text>
</g>
<g>
<circle cx="1055.2355672851063" cy="219.22275000000002" fill="Gray" id="40/wp" r="2"/>
<circle cx="1055.2355672851063" cy="219.22275000000002" fill="white" id="40/wp-little-white" r="0.5"/>
</g>
<g transform="translate(1055.2355672851063 219.22275000000002)">
<rect fill="white" fill-opacity="0.75" height="12" id="label-bg" width="84.01052631578949" x="4" y="-16"/>
<text font-size="16.0" id="40/wp/text" text-anchor="start" x="4.000" y="-4.000">
Schmalbach
</text>
</g>
</g>
</g>
<g id="SL" transform="translate(0 0)">
<text text-anchor="end" x="66" y="363.5">
50
</text>
<text text-anchor="end" x="66" y="327.65000000000003">
150
</text>
<text text-anchor="end" x="66" y="291.8">
250
</text>
<text text-anchor="end" x="66" y="255.95000000000002">
350
</text>
<text text-anchor="end" x="66" y="220.10000000000002">
450
</text>
<text text-anchor="end" x="66" y="184.25000000000003">
550
</text>
<text text-anchor="end" x="66" y="148.40000000000003">
650
</text>
<text text-anchor="end" x="66" y="112.55000000000001">
750
</text>
<text text-anchor="end" x="66" y="76.70000000000005">
850
</text>
<text text-anchor="end" x="66" y="40.85000000000002">
950
</text>
<text text-anchor="end" x="66" y="5">
1050
</text>
</g>
</g>
</svg>