<svg height="400" width="1420" xmlns="http://www.w3.org/2000/svg">
<g font-size="18" id="world" shape-rendering="crispEdges">
<g id="BG"/>
<g id="SB" transform="translate(71 360)">
<text text-anchor="middle" x="-0.20322305718491407" y="17">
180
</text>
<text text-anchor="middle" x="371.92221386932306" y="17">
200
</text>
<text text-anchor="middle" x="744.0476507958315" y="17">
220
</text>
<text text-anchor="middle" x="1116.17308772234" y="17">
240
</text>
</g>
<g id="SD" transform="translate(71 0)">
<path d="M0,0 L1347.5,0" stroke="black" stroke-width="3"/>
<path d="M0,0 L0,358.5" stroke="black" stroke-width="3"/>
<path d="M0,358.5 L1347.5,358.5" stroke="black" stroke-width="3"/>
<path d="M1347.5,0 L1347.5,358.5" stroke="black" stroke-width="3"/>
<path d="M0,358.5 L1347.5,358.5" stroke="black" stroke-width="1"/>
<path d="M-0.20322306,0 L-0.20322306,358.5" stroke="black" stroke-width="1"/>
<path d="M371.9222,0 L371.9222,358.5" stroke="black" stroke-width="1"/>
<path d="M744.04767,0 L744.04767,358.5" stroke="black" stroke-width="1"/>
<path d="M1116.1731,0 L1116.1731,358.5" stroke="black" stroke-width="1"/>
<path d="M185.8595,0 L185.8595,358.5" stroke="black" stroke-dasharray="1.0,2.5,5.0,5.0,10.0,5.0"/>
<path d="M557.9849,0 L557.9849,358.5" stroke="black" stroke-dasharray="1.0,2.5,5.0,5.0,10.0,5.0"/>
<path d="M930.11035,0 L930.11035,358.5" stroke="black" stroke-dasharray="1.0,2.5,5.0,5.0,10.0,5.0"/>
<path d="M1302.2358,0 L1302.2358,358.5" stroke="black" stroke-dasharray="1.0,2.5,5.0,5.0,10.0,5.0"/>
<path d="M0,358.5 L1347.5,358.5" stroke="black" stroke-width="1"/>
<path d="M0,307.2857 L1347.5,307.2857" stroke="black" stroke-width="1"/>
<path d="M0,256.07144 L1347.5,256.07144" stroke="black" stroke-width="1"/>
<path d="M0,204.85715 L1347.5,204.85715" stroke="black" stroke-width="1"/>
<path d="M0,153.64285 L1347.5,153.64285" stroke="black" stroke-width="1"/>
<path d="M0,102.42857 L1347.5,102.42857" stroke="black" stroke-width="1"/>
<path d="M0,51.214287 L1347.5,51.214287" stroke="black" stroke-width="1"/>
<path d="M0,0 L1347.5,0" stroke="black" stroke-width="1"/>
<path d="M0,332.89285 L1347.5,332.89285" stroke="black" stroke-dasharray="1.0,2.5,5.0,5.0,10.0,5.0"/>
<path d="M0,281.67856 L1347.5,281.67856" stroke="black" stroke-dasharray="1.0,2.5,5.0,5.0,10.0,5.0"/>
<path d="M0,230.46428 L1347.5,230.46428" stroke="black" stroke-dasharray="1.0,2.5,5.0,5.0,10.0,5.0"/>
<path d="M0,179.25 L1347.5,179.25" stroke="black" stroke-dasharray="1.0,2.5,5.0,5.0,10.0,5.0"/>
<path d="M0,128.03572 L1347.5,128.03572" stroke="black" stroke-dasharray="1.0,2.5,5.0,5.0,10.0,5.0"/>
<path d="M0,76.82143 L1347.5,76.82143" stroke="black" stroke-dasharray="1.0,2.5,5.0,5.0,10.0,5.0"/>
<path d="M0,25.607143 L1347.5,25.607143" stroke="black" stroke-dasharray="1.0,2.5,5.0,5.0,10.0,5.0"/>
<path d="M0,-25.607143 L1347.5,-25.607143" stroke="black" stroke-dasharray="1.0,2.5,5.0,5.0,10.0,5.0"/>
<path d="M0.0,111.9 L0.2,111.5 L0.3,111.4 L0.8,110.7 L1.3,109.7 L2.5,107.2 L2.7,106.8 L3.1,106.1 L3.3,105.9 L3.5,105.3 L3.8,104.6 L4.3,103.1 L5.0,102.2 L5.2,101.7 L5.4,101.7 L5.5,101.6 L6.2,101.4 L6.4,101.3 L6.7,101.3 L6.9,101.0 L8.2,98.3 L8.8,97.4 L9.1,96.6 L9.4,96.4 L9.7,96.4 L10.7,91.3 L11.4,89.3 L12.4,87.5 L12.8,86.4 L14.1,81.9 L14.3,81.5 L14.5,80.4 L14.8,80.4 L15.5,80.0 L15.9,79.7 L16.1,79.7 L16.4,79.0 L17.2,78.4 L17.5,78.4 L17.8,78.5 L18.1,78.3 L18.6,78.3 L19.1,77.8 L19.3,76.8 L19.6,76.3 L20.1,74.3 L20.3,73.8 L21.8,72.4 L22.6,71.0 L22.9,70.5 L23.1,70.1 L23.4,69.5 L23.6,69.2 L23.8,69.2 L24.3,68.2 L24.6,68.2 L24.7,68.2 L24.9,68.2 L25.1,68.2 L25.2,68.2 L25.5,68.0 L25.7,68.0 L26.3,68.0 L27.0,67.4 L27.3,67.3 L27.6,67.0 L27.9,66.7 L30.5,61.0 L31.4,59.6 L31.7,59.2 L32.6,57.5 L33.0,57.0 L33.3,56.6 L33.7,56.3 L34.1,56.3 L34.5,56.1 L34.7,56.1 L35.0,56.1 L35.2,55.7 L35.7,54.7 L35.9,54.7 L36.1,54.7 L36.3,54.7 L36.5,54.2 L36.7,52.9 L37.2,51.0 L39.0,47.2 L40.3,44.9 L40.5,44.5 L40.8,44.5 L42.0,43.8 L42.1,43.8 L42.4,43.4 L42.6,43.1 L42.9,42.8 L43.5,42.5 L45.9,41.0 L46.2,40.4 L46.8,38.7 L47.3,38.0 L47.7,38.0 L49.1,36.5 L49.6,35.2 L50.0,33.8 L50.6,32.3 L51.9,31.0 L52.3,31.0 L52.9,30.4 L53.1,30.3 L53.4,29.7 L53.7,29.0 L54.2,29.4 L55.0,29.2 L55.5,29.8 L56.7,31.3 L57.7,34.3 L58.5,35.6 L58.9,36.9 L59.4,37.6 L60.3,38.9 L60.6,39.6 L60.8,40.2 L61.0,40.8 L61.2,40.8 L61.7,42.3 L62.3,43.2 L63.7,45.8 L64.0,45.8 L64.5,47.1 L64.7,47.7 L64.9,49.3 L65.4,49.6 L65.7,49.9 L66.3,50.6 L66.4,50.6 L66.6,50.8 L66.8,51.0 L67.0,51.0 L67.7,51.7 L68.4,52.6 L68.6,52.6 L68.9,52.8 L69.1,53.2 L69.6,53.9 L69.8,53.9 L70.1,54.7 L70.5,55.4 L71.1,56.5 L71.6,57.4 L72.0,57.4 L72.7,58.5 L73.2,60.1 L73.9,61.1 L74.1,63.0 L74.4,64.9 L75.0,67.6 L76.5,71.7 L77.6,74.5 L77.9,75.6 L78.2,76.7 L78.5,77.1 L78.8,78.3 L79.4,78.9 L80.6,80.0 L80.9,80.7 L81.9,82.2 L82.4,84.4 L83.0,85.8 L83.6,86.5 L84.5,89.5 L84.9,91.6 L85.7,94.5 L85.9,94.5 L86.5,96.2 L87.7,98.5 L88.0,98.6 L88.5,99.7 L89.1,101.3 L89.5,101.3 L89.8,102.2 L90.2,103.0 L90.5,103.0 L90.7,103.0 L91.0,103.0 L91.2,103.7 L91.5,104.0 L92.0,104.1 L92.3,105.3 L92.6,106.3 L93.5,106.6 L94.8,113.1 L95.8,118.7 L96.2,120.6 L97.3,124.5 L97.7,125.2 L98.2,125.2 L99.0,127.2 L99.3,128.3 L99.9,130.1 L100.2,131.7 L100.6,131.7 L101.4,133.5 L102.4,135.2 L102.9,136.8 L103.6,138.3 L103.8,139.2 L104.7,142.0 L105.1,142.0 L106.4,143.5 L106.8,144.5 L107.8,147.3 L108.1,147.8 L108.5,148.2 L109.0,150.2 L110.2,151.1 L111.0,152.1 L111.2,152.1 L111.5,152.1 L111.7,152.7 L111.9,153.6 L112.7,154.8 L113.5,155.6 L114.1,157.3 L115.7,162.8 L117.6,165.8 L118.2,167.1 L118.6,168.2 L120.1,171.4 L122.2,174.4 L123.1,176.0 L123.7,176.0 L124.2,179.2 L125.4,180.5 L126.8,184.0 L127.7,186.2 L127.9,186.4 L129.0,188.1 L129.5,188.8 L129.8,188.8 L130.2,190.0 L131.4,193.2 L132.4,193.9 L133.5,199.4 L134.5,200.9 L136.6,210.1 L137.1,211.7 L138.5,219.2 L139.5,220.4 L140.5,222.3 L140.8,223.3 L141.0,223.3 L141.1,223.7 L141.4,223.7 L141.6,223.7 L142.2,224.4 L142.5,224.4 L142.8,224.6 L143.5,225.0 L144.1,225.0 L144.7,225.9 L145.7,226.6 L146.4,227.4 L146.9,227.6 L148.0,229.4 L148.3,229.4 L148.6,229.5 L150.0,231.5 L150.7,232.5 L151.1,232.5 L151.5,233.3 L151.7,233.3 L152.5,236.2 L153.1,236.8 L153.6,236.8 L154.8,239.6 L155.7,242.2 L156.8,242.7 L157.7,243.1 L157.8,243.1 L158.7,241.8 L159.1,241.8 L159.3,241.8 L159.8,241.7 L160.3,241.7 L160.6,241.6 L161.6,240.3 L161.9,240.3 L162.3,240.3 L165.1,234.5 L167.5,230.8 L168.5,230.4 L169.6,229.9 L171.0,228.1 L171.9,226.5 L173.3,223.1 L174.4,220.8 L175.5,219.7 L176.1,218.9 L176.8,217.0 L177.2,216.5 L177.4,216.5 L177.5,216.5 L177.7,216.0 L178.0,216.0 L178.6,214.5 L179.0,212.9 L179.9,211.7 L180.1,211.7 L180.4,211.4 L181.3,209.1 L182.1,207.5 L182.2,207.5 L182.4,206.8 L182.6,206.6 L182.7,206.6 L183.5,205.8 L183.9,205.1 L184.8,204.5 L185.2,203.8 L186.2,201.5 L186.9,200.2 L187.3,198.9 L188.1,196.9 L188.5,196.1 L189.3,195.2 L189.8,195.2 L190.4,194.0 L190.9,193.2 L191.1,192.2 L191.4,192.2 L192.2,191.0 L193.0,189.7 L193.9,188.6 L195.2,188.0 L195.9,188.1 L196.5,188.7 L196.8,188.6 L198.1,188.8 L199.3,188.8 L199.7,188.8 L200.1,188.6 L200.7,188.6 L201.6,188.6 L201.9,188.8 L202.2,188.8 L202.6,188.8 L203.4,188.7 L203.8,188.5 L204.1,188.3 L204.4,189.0 L204.8,189.6 L204.9,189.6 L205.2,190.3 L205.4,190.4 L207.8,195.3 L208.4,196.9 L208.9,198.8 L209.4,201.7 L210.5,202.4 L211.1,202.4 L212.0,203.4 L212.6,205.0 L213.4,206.5 L213.9,206.5 L215.0,208.8 L215.9,210.6 L216.9,213.5 L218.2,216.0 L219.4,217.1 L219.9,218.0 L220.2,218.0 L220.6,218.0 L221.3,220.5 L224.4,227.9 L224.8,231.1 L226.4,234.0 L227.8,233.2 L228.1,234.8 L228.5,234.8 L228.8,235.4 L229.3,235.9 L230.0,236.8 L230.2,237.2 L230.4,237.5 L230.6,237.5 L230.8,237.5 L231.1,237.5 L231.5,237.6 L231.8,237.5 L233.0,238.1 L233.4,238.9 L233.7,239.3 L234.1,240.8 L235.2,243.2 L235.4,243.3 L235.6,243.9 L235.8,243.9 L235.9,244.2 L236.4,244.2 L236.6,244.2 L236.8,244.6 L237.0,244.6 L237.2,245.0 L237.8,245.4 L238.5,246.6 L239.3,248.3 L239.6,249.8 L240.4,252.4 L240.7,253.7 L240.9,253.7 L241.1,254.1 L241.7,254.3 L242.1,254.3 L242.5,254.6 L243.2,254.8 L243.5,256.4 L243.7,256.4 L244.0,257.4 L244.3,258.1 L247.0,265.6 L247.7,269.6 L248.3,272.8 L249.6,273.6 L251.3,275.2 L252.9,277.4 L254.0,281.4 L256.9,288.9 L257.1,289.1 L258.2,290.0 L258.9,290.1 L259.3,290.3 L259.5,290.5 L259.7,290.5 L260.0,290.7 L260.0,290.7 L260.1,290.7 L260.6,291.0 L260.8,291.5 L261.3,291.9 L261.6,291.9 L262.2,292.5 L262.9,293.2 L263.1,293.8 L263.7,294.0 L264.0,294.4 L264.2,294.7 L264.4,295.0 L264.6,295.3 L265.4,296.0 L265.6,296.2 L265.9,296.6 L266.0,296.6 L266.5,296.8 L266.7,296.9 L266.9,296.9 L267.9,298.0 L268.1,298.2 L268.4,298.7 L269.1,299.0 L269.5,299.3 L269.8,299.6 L270.8,299.9 L271.2,300.0 L271.4,300.0 L272.0,300.0 L273.0,300.1 L273.1,300.1 L273.6,300.1 L274.7,300.1 L275.8,300.1 L276.3,300.1 L276.4,300.1 L277.4,300.0 L278.0,300.0 L278.2,300.0 L278.6,299.9 L279.6,299.6 L279.9,299.6 L280.3,299.4 L281.0,299.2 L281.4,299.1 L281.5,299.1 L282.6,298.6 L282.8,298.6 L282.9,298.6 L284.0,298.2 L284.3,298.1 L285.7,298.0 L286.0,298.0 L286.7,297.9 L287.0,297.8 L287.8,297.7 L288.3,297.3 L288.8,297.1 L289.0,296.9 L289.2,296.7 L290.4,296.0 L291.5,295.5 L291.8,295.3 L292.0,295.3 L292.3,295.0 L292.7,294.7 L292.9,294.3 L293.4,293.8 L293.9,293.7 L294.9,293.2 L296.5,291.6 L296.8,291.2 L297.3,290.8 L298.2,290.8 L298.9,290.4 L299.3,290.4 L299.5,290.4 L299.8,290.4 L300.4,289.6 L301.0,289.0 L302.2,287.5 L304.0,285.9 L304.4,285.5 L305.0,284.9 L305.2,284.9 L305.5,284.9 L306.3,284.2 L308.6,283.0 L309.3,281.3 L310.0,280.6 L311.1,280.0 L312.7,279.0 L313.5,278.4 L314.3,278.0 L314.7,277.5 L315.3,276.8 L315.9,276.5 L316.6,276.0 L318.4,274.7 L318.7,274.2 L319.5,273.4 L320.1,273.0 L321.2,272.1 L321.8,271.5 L322.2,271.3 L322.5,270.8 L322.9,270.8 L324.1,269.4 L324.8,267.8 L325.2,267.4 L325.4,267.4 L326.1,265.3 L327.4,262.9 L328.0,261.0 L328.4,260.0 L329.5,255.5 L330.2,252.8 L331.3,250.2 L331.9,247.3 L333.0,239.9 L333.8,238.6 L334.6,235.0 L335.3,232.0 L335.8,229.9 L336.1,229.1 L336.3,229.1 L336.6,228.5 L337.8,225.0 L338.0,225.0 L338.4,223.4 L338.6,222.8 L339.3,222.1 L339.6,221.5 L340.1,219.2 L340.6,218.7 L340.9,218.7 L342.0,216.0 L342.3,215.4 L343.3,212.9 L343.8,211.8 L344.6,209.8 L345.0,209.1 L345.5,209.1 L346.7,207.3 L347.1,206.1 L347.5,206.1 L348.6,204.4 L350.2,202.0 L350.5,201.4 L351.4,198.7 L352.9,197.9 L354.2,197.1 L354.7,197.1 L354.9,197.1 L355.3,196.7 L362.5,201.8 L363.2,203.0 L363.9,203.0 L365.4,202.8 L366.1,202.8 L366.5,203.0 L366.9,203.1 L367.2,203.4 L367.7,203.8 L368.5,204.3 L369.0,204.7 L370.4,204.7 L370.8,204.9 L371.1,204.5 L371.8,204.7 L372.5,202.7 L373.4,202.7 L373.9,200.3 L374.6,199.3 L375.6,195.7 L376.2,195.7 L377.2,192.4 L377.5,192.4 L379.3,190.5 L380.6,190.4 L381.4,191.2 L381.6,191.2 L381.9,191.2 L382.3,191.2 L384.0,191.8 L384.4,191.8 L384.8,191.7 L385.6,192.2 L386.9,190.2 L387.2,190.2 L387.4,190.2 L387.8,189.4 L387.9,189.4 L388.2,189.2 L389.5,186.8 L389.9,186.2 L390.3,186.2 L390.6,185.5 L391.3,183.4 L392.5,179.5 L392.6,179.5 L392.7,179.5 L393.5,177.8 L394.3,176.1 L394.7,174.9 L395.1,173.9 L395.7,173.9 L396.1,172.9 L396.5,170.2 L397.2,170.0 L397.6,169.4 L398.3,168.9 L398.7,168.4 L399.6,167.7 L399.7,167.7 L399.8,167.4 L400.0,167.4 L400.1,167.5 L400.5,167.2 L401.0,167.2 L401.7,167.3 L402.2,167.7 L402.3,167.7 L403.2,168.1 L403.8,169.0 L404.4,169.7 L404.9,169.9 L405.2,169.9 L405.6,170.2 L405.9,170.7 L406.2,171.3 L406.7,172.0 L407.0,173.0 L407.1,173.0 L407.9,174.1 L409.3,176.9 L410.3,180.5 L410.6,182.5 L411.3,184.9 L412.1,188.8 L413.2,192.3 L413.4,192.3 L414.3,194.6 L415.3,198.3 L415.7,198.3 L416.0,200.6 L416.4,202.4 L417.7,205.3 L418.8,207.4 L419.5,209.1 L419.9,209.9 L420.1,209.9 L420.4,210.5 L421.5,211.2 L422.5,210.9 L424.2,211.8 L424.9,212.4 L425.2,212.9 L425.7,213.4 L426.5,214.9 L426.7,214.9 L427.2,215.2 L427.9,215.5 L428.1,215.6 L428.4,215.8 L428.9,216.2 L429.3,216.7 L429.5,217.2 L429.6,217.2 L429.8,217.4 L430.2,217.4 L430.6,218.3 L431.1,218.9 L432.0,219.4 L432.3,219.7 L432.9,220.9 L433.5,222.1 L434.1,223.2 L434.4,223.5 L436.2,226.8 L436.5,226.8 L437.0,228.5 L437.7,231.0 L438.9,234.2 L439.4,234.8 L440.3,236.1 L440.8,237.5 L441.1,237.5 L442.1,241.0 L442.5,241.6 L442.8,242.3 L444.3,243.6 L445.2,244.8 L445.3,244.8 L445.7,244.8 L445.7,244.8 L446.1,245.4 L449.9,251.8 L451.6,254.1 L452.5,254.9 L453.7,255.7 L455.2,255.7 L456.0,257.4 L457.4,258.5 L459.0,258.3 L461.4,258.7 L461.9,258.7 L462.7,257.9 L464.0,259.6 L467.5,266.4 L469.5,269.1 L470.8,270.0 L471.5,271.0 L474.4,273.5 L475.3,275.6 L476.1,277.1 L479.7,284.4 L482.1,287.2 L482.5,287.2 L483.0,287.2 L483.6,288.2 L484.6,289.1 L485.4,289.1 L487.4,291.8 L490.0,296.2 L492.0,299.5 L493.7,301.6 L495.6,302.5 L497.0,303.1 L497.2,303.1 L497.4,303.1 L497.8,303.8 L498.0,303.8 L498.2,303.8 L498.4,303.8 L498.9,303.8 L499.1,303.8 L499.6,304.2 L500.1,304.6 L500.4,304.9 L501.2,305.9 L501.4,305.9 L503.0,308.3 L503.5,308.8 L504.0,309.6 L504.7,310.3 L505.5,311.7 L506.4,312.2 L507.3,312.8 L508.1,313.1 L508.8,313.4 L508.9,313.4 L509.2,313.4 L509.5,313.8 L509.6,313.9 L509.7,313.9 L510.9,314.1 L511.4,314.6 L511.8,314.6 L512.0,315.1 L513.0,315.7 L513.2,315.8 L514.7,316.4 L515.0,316.4 L515.6,317.0 L515.8,317.0 L516.0,317.2 L516.7,317.2 L517.1,317.5 L517.7,317.5 L518.9,317.7 L520.4,318.0 L522.3,318.6 L523.0,318.6 L526.0,319.3 L526.9,319.7 L527.4,319.7 L529.2,320.3 L530.2,320.5 L531.3,320.8 L531.4,320.8 L532.1,320.8 L532.8,320.9 L533.2,321.3 L533.4,321.3 L533.6,321.4 L534.4,321.7 L536.5,322.1 L536.6,322.1 L536.9,322.1 L537.2,322.4 L537.6,322.5 L537.9,322.6 L539.3,322.8 L539.8,322.8 L540.1,322.8 L541.6,322.9 L541.8,322.9 L542.3,322.9 L542.8,322.9 L543.0,322.9 L543.2,322.9 L543.3,322.9 L543.5,322.9 L543.7,322.9 L543.7,322.9 L543.9,322.9 L544.2,322.8 L546.3,322.7 L546.5,322.7 L546.7,322.8 L546.8,322.8 L547.0,322.8 L547.3,322.9 L547.8,322.8 L547.9,322.8 L548.0,322.7 L548.1,322.7 L548.4,322.7 L548.5,322.7 L550.3,322.5 L550.9,322.4 L551.0,322.4 L551.1,322.4 L551.8,322.2 L552.2,322.2 L552.6,322.1 L553.6,322.1 L553.8,322.1 L553.9,322.1 L554.4,322.0 L554.9,321.8 L555.1,321.8 L555.3,321.8 L555.5,321.8 L555.7,321.8 L556.8,321.8 L558.6,321.2 L558.9,320.8 L560.7,320.4 L561.0,320.4 L561.4,320.4 L562.3,320.5 L562.4,320.4 L562.5,320.4 L562.6,320.4 L562.8,320.2 L563.5,320.3 L563.7,320.3 L564.4,320.3 L564.8,320.3 L565.4,320.3 L567.1,320.8 L568.4,320.6 L569.7,320.5 L571.0,320.4 L571.1,320.4 L571.3,320.5 L571.5,320.5 L571.7,320.5 L572.0,320.5 L573.8,320.8 L575.0,321.1 L575.2,321.1 L576.1,321.3 L576.4,321.3 L576.8,321.4 L578.1,321.6 L579.9,321.9 L580.3,321.9 L580.5,321.9 L583.2,321.7 L583.5,321.7 L585.1,321.7 L586.6,321.8 L590.1,321.4 L592.0,321.4 L594.7,321.0 L596.4,320.8 L596.7,320.6 L598.1,320.5 L599.7,320.4 L600.2,320.3 L600.4,320.1 L600.6,320.1 L604.6,321.5 L604.7,321.9 L605.0,321.9 L608.0,321.9 L613.9,321.5 L616.6,320.4 L619.4,320.9 L622.1,320.9 L622.3,320.9 L622.5,320.9 L622.6,320.9 L622.8,320.9 L626.7,321.5 L629.9,321.8 L630.1,321.8 L630.3,321.8 L630.9,322.1 L633.4,322.0 L633.9,322.0 L634.1,321.9 L634.2,321.9 L634.3,321.9 L634.5,321.9 L634.6,321.9 L634.7,321.9 L635.1,322.0 L635.4,322.0 L636.4,322.2 L636.4,322.2 L636.6,322.2 L637.6,322.2 L637.8,322.2 L637.9,322.2 L638.7,322.1 L639.3,322.1 L639.6,322.1 L639.7,322.1 L640.0,322.1 L640.8,322.2 L640.9,322.2 L641.8,322.4 L642.4,322.4 L642.5,322.4 L642.7,322.4 L644.6,322.0 L647.8,321.7 L648.6,321.4 L649.4,321.4 L650.2,321.3 L651.8,321.4 L652.2,321.4 L652.3,321.5 L653.2,321.6 L653.4,321.6 L654.0,321.8 L654.4,321.8 L654.7,321.8 L655.2,322.1 L655.3,322.1 L655.7,322.2 L656.0,322.3 L656.7,322.6 L657.3,322.8 L658.5,324.4 L658.9,324.4 L660.1,325.3 L661.1,325.6 L661.5,325.6 L661.7,325.6 L661.8,325.6 L662.2,325.6 L663.9,325.8 L664.8,325.8 L666.4,325.8 L667.1,325.8 L667.5,325.7 L668.8,325.9 L669.1,325.9 L670.9,326.4 L673.9,325.7 L674.7,325.7 L676.0,325.3 L677.6,325.1 L679.1,323.8 L680.7,323.7 L681.6,323.6 L682.7,323.8 L683.3,323.9 L683.8,323.9 L684.3,323.7 L685.5,323.7 L686.4,323.7 L686.8,323.8 L687.5,323.9 L687.9,323.9 L689.0,324.0 L689.2,324.0 L690.1,323.9 L692.3,324.5 L693.5,325.0 L694.9,325.3 L695.5,325.3 L697.0,325.4 L698.4,325.1 L699.0,325.1 L699.5,325.1 L700.1,325.1 L700.3,325.1 L700.4,325.1 L700.6,325.1 L700.8,325.0 L701.0,325.0 L701.1,325.0 L701.3,325.0 L701.6,325.1 L701.8,325.1 L703.3,325.1 L705.2,325.0 L705.5,325.1 L706.6,325.1 L707.6,325.2 L708.8,325.2 L710.1,324.7 L712.0,324.3 L715.0,324.0 L719.1,323.2 L720.2,323.2 L721.2,323.2 L722.4,323.0 L725.2,323.5 L726.0,323.5 L726.5,324.0 L726.6,324.0 L729.9,324.9 L732.3,325.1 L734.9,323.4 L737.3,322.3 L738.0,322.3 L738.8,321.6 L740.5,321.6 L747.5,323.8 L753.2,324.7 L753.6,324.5 L759.2,325.8 L760.0,325.8 L760.8,325.8 L761.3,325.8 L762.3,325.8 L762.9,325.7 L763.2,325.7 L763.7,325.7 L768.5,325.1 L769.6,325.1 L770.5,325.1 L770.7,325.1 L770.9,325.1 L771.1,325.1 L771.9,325.1 L772.3,325.0 L772.4,325.0 L773.4,325.1 L774.7,325.3 L775.4,325.4 L776.4,325.4 L778.2,325.6 L778.3,325.6 L779.4,325.8 L781.2,325.9 L782.9,325.7 L783.4,325.8 L785.1,325.5 L786.1,325.4 L787.4,325.1 L788.5,325.0 L789.5,325.1 L790.5,325.1 L791.5,325.1 L791.7,325.2 L791.9,325.2 L792.2,325.2 L793.0,325.3 L793.3,325.4 L793.6,325.4 L794.0,325.4 L794.6,325.4 L795.4,325.6 L796.0,325.8 L796.4,325.7 L796.8,325.8 L797.3,325.8 L798.6,325.7 L799.0,325.7 L799.2,325.6 L799.3,325.6 L799.9,325.6 L801.1,325.4 L802.0,325.4 L802.5,325.3 L804.1,324.6 L806.7,324.7 L808.3,325.3 L809.2,325.3 L811.4,326.1 L811.6,326.1 L813.8,326.7 L814.8,326.6 L818.3,326.5 L818.7,326.3 L821.0,326.1 L821.2,326.1 L821.4,326.1 L822.0,326.1 L822.5,326.0 L823.2,326.2 L824.0,326.2 L826.6,326.1 L831.4,326.6 L836.0,326.1 L836.4,326.0 L840.8,326.0 L841.1,326.0 L841.5,325.9 L842.9,325.9 L844.4,325.9 L844.8,325.9 L845.1,325.9 L845.9,325.8 L853.8,325.7 L854.1,325.7 L854.4,325.7 L861.7,325.6 L868.8,326.7 L869.5,326.0 L873.0,325.0 L876.1,324.3 L878.0,324.3 L881.2,325.1 L881.4,325.1 L881.5,325.2 L881.7,325.2 L881.8,325.3 L881.9,325.3 L882.4,325.4 L882.8,325.6 L883.0,325.6 L883.9,325.6 L884.5,325.6 L885.2,325.9 L885.8,326.3 L886.4,326.3 L887.6,326.1 L888.5,326.1 L890.1,325.7 L890.5,325.5 L891.0,325.5 L891.4,325.4 L893.6,325.3 L894.0,325.3 L907.6,324.7 L907.9,324.5 L910.1,324.4 L910.7,324.4 L913.4,324.9 L916.5,325.1 L922.5,325.7 L923.3,325.6 L923.7,325.4 L924.4,325.3 L925.9,325.2 L927.1,325.1 L927.9,325.0 L928.7,325.0 L929.4,325.0 L933.6,325.2 L934.3,325.3 L934.7,325.4 L936.2,325.7 L937.3,326.1 L938.2,327.0 L938.9,327.3 L939.5,327.4 L940.2,327.5 L941.2,327.7 L941.7,327.7 L942.7,328.1 L944.0,328.2 L944.9,328.2 L945.6,327.7 L947.3,327.7 L948.2,327.7 L948.9,327.9 L949.2,328.0 L951.0,328.1 L952.6,328.0 L952.8,328.0 L953.8,327.7 L954.6,327.4 L955.5,327.3 L956.0,327.3 L956.8,327.2 L957.2,327.2 L957.8,327.3 L958.7,327.2 L959.8,326.8 L960.3,326.7 L960.9,326.7 L962.2,326.9 L962.5,326.9 L962.7,326.9 L962.9,326.7 L963.7,326.6 L964.5,326.4 L966.4,326.4 L968.6,327.1 L968.9,327.1 L969.5,327.1 L969.9,327.1 L970.4,327.3 L971.5,327.3 L971.8,327.4 L974.4,327.6 L975.0,327.6 L975.3,327.6 L975.5,327.6 L975.8,327.6 L976.8,327.6 L977.6,327.6 L979.5,327.8 L983.5,327.1 L983.9,326.9 L984.6,327.1 L985.0,327.1 L986.4,327.1 L986.8,327.1 L987.9,327.3 L997.0,327.8 L997.7,327.7 L998.2,327.4 L998.8,327.2 L1001.8,326.7 L1002.4,326.5 L1003.1,326.4 L1003.7,326.4 L1004.7,326.4 L1010.6,326.7 L1015.3,325.7 L1016.0,325.6 L1018.2,325.5 L1018.7,325.5 L1020.9,325.5 L1021.6,325.5 L1023.1,325.5 L1023.6,325.5 L1024.1,325.5 L1028.1,324.7 L1035.3,325.3 L1038.7,325.9 L1046.2,327.0 L1047.8,327.4 L1048.1,327.5 L1048.2,327.5 L1048.7,327.5 L1049.3,327.5 L1049.6,327.5 L1050.6,327.4 L1050.9,327.4 L1051.1,327.3 L1051.2,327.3 L1051.4,327.2 L1051.6,327.3 L1054.0,326.8 L1054.3,326.8 L1054.5,326.7 L1054.7,326.7 L1055.0,326.5 L1056.9,326.3 L1057.3,326.3 L1057.6,326.3 L1057.8,326.3 L1058.6,326.8 L1060.1,327.2 L1061.5,327.7 L1061.8,327.7 L1062.0,327.7 L1062.6,327.8 L1062.8,327.8 L1063.0,327.8 L1063.2,327.8 L1063.6,327.8 L1064.2,327.8 L1064.6,327.8 L1070.3,328.7 L1071.2,328.9 L1071.7,328.9 L1072.3,328.9 L1072.5,328.9 L1072.9,329.0 L1074.4,328.9 L1075.9,329.0 L1076.3,329.1 L1079.6,328.8 L1080.1,328.7 L1080.5,328.7 L1081.0,328.7 L1082.0,328.7 L1082.7,328.7 L1082.9,328.7 L1083.3,328.7 L1083.5,328.7 L1083.7,328.7 L1083.9,328.6 L1084.1,328.8 L1085.5,329.0 L1087.8,329.5 L1088.7,329.7 L1093.6,329.7 L1096.9,328.4 L1097.9,328.2 L1098.6,328.2 L1099.2,328.2 L1099.3,328.2 L1099.6,328.2 L1099.8,328.2 L1100.0,328.2 L1100.2,328.2 L1100.4,328.2 L1100.7,328.1 L1100.8,328.1 L1101.3,328.1 L1102.4,328.2 L1102.9,328.2 L1102.9,328.2 L1105.4,328.5 L1106.0,328.5 L1107.4,328.2 L1107.6,328.2 L1107.9,327.9 L1108.0,327.9 L1108.3,327.8 L1108.8,327.8 L1109.0,327.8 L1109.8,327.4 L1110.0,327.4 L1110.5,327.4 L1110.7,327.4 L1110.8,327.4 L1111.5,327.2 L1111.6,327.2 L1111.7,327.2 L1111.8,327.0 L1113.2,326.3 L1114.8,325.0 L1116.5,323.1 L1116.7,323.1 L1118.2,323.2 L1118.6,323.2 L1119.5,323.2 L1119.7,323.2 L1120.0,323.2 L1120.3,323.2 L1120.4,323.2 L1120.8,323.2 L1120.8,323.2 L1121.0,323.2 L1121.2,323.2 L1121.9,323.4 L1122.2,323.5 L1122.9,323.9 L1123.9,324.3 L1124.4,324.7 L1125.2,325.0 L1125.4,325.0 L1126.1,325.3 L1126.2,325.3 L1126.4,325.3 L1126.7,325.4 L1127.0,325.4 L1127.3,325.4 L1127.7,325.4 L1128.1,325.4 L1128.7,325.4 L1129.1,325.4 L1129.2,325.4 L1129.7,325.4 L1129.9,325.4 L1130.1,325.4 L1130.3,325.4 L1130.3,325.4 L1130.6,325.5 L1130.8,325.5 L1131.0,325.5 L1131.3,325.4 L1133.5,324.4 L1134.9,323.8 L1135.2,323.8 L1135.4,323.8 L1135.5,323.8 L1135.6,323.8 L1135.9,323.8 L1136.1,323.7 L1136.3,323.7 L1136.8,323.7 L1138.0,323.6 L1139.8,323.1 L1150.2,322.0 L1154.7,318.8 L1155.3,318.0 L1155.5,318.0 L1156.4,318.0 L1163.4,319.0 L1163.6,319.3 L1168.5,320.7 L1169.4,320.9 L1171.2,320.9 L1172.9,320.9 L1178.2,320.0 L1179.5,319.9 L1180.0,319.9 L1180.5,319.9 L1181.7,319.9 L1193.5,320.3 L1196.2,320.3 L1198.0,320.1 L1202.5,319.2 L1211.0,319.4 L1211.6,319.5 L1213.8,319.9 L1216.8,321.2 L1218.0,321.3 L1218.8,321.3 L1219.7,321.3 L1225.3,320.5 L1226.2,320.0 L1227.5,320.0 L1228.3,320.0 L1229.6,320.9 L1231.2,320.9 L1232.3,322.5 L1233.2,322.5 L1235.0,324.6 L1235.9,324.6 L1237.4,325.1 L1238.0,325.3 L1240.1,325.2 L1240.4,325.2 L1240.9,325.0 L1241.6,324.9 L1242.1,324.9 L1242.7,325.0 L1243.3,325.3 L1244.2,325.6 L1245.3,326.0 L1246.0,326.5 L1246.9,327.2 L1247.8,327.7 L1248.7,328.9 L1249.6,329.4 L1249.8,329.8 L1251.6,330.6 L1252.4,330.6 L1253.3,331.4 L1255.0,332.0 L1256.2,332.0 L1256.5,331.9 L1256.8,331.8 L1257.0,331.7 L1257.1,331.8 L1257.2,331.8 L1257.3,331.8 L1257.5,331.8 L1257.7,331.8 L1258.3,331.7 L1258.8,331.7 L1258.9,331.7 L1259.1,331.7 L1259.9,331.6 L1260.3,331.6 L1260.6,331.4 L1261.0,331.1 L1261.9,330.7 L1262.3,330.7 L1263.6,330.6 L1264.3,330.6 L1264.9,330.6 L1265.5,330.6 L1266.7,330.7 L1266.9,330.6 L1267.9,330.6 L1268.4,330.6 L1268.8,330.6 L1270.6,330.3 L1272.3,329.9 L1273.3,329.8 L1273.9,329.8 L1274.2,329.8 L1275.2,329.9 L1276.4,329.9 L1278.2,330.1 L1278.5,330.2 L1278.9,330.2 L1279.5,330.3 L1279.6,330.3 L1282.2,330.6 L1283.1,331.0 L1284.9,331.2 L1285.0,331.2 L1285.1,331.2 L1285.7,331.2 L1286.2,331.2 L1286.4,331.2 L1286.7,331.2 L1290.8,331.1 L1291.9,330.6 L1292.6,330.4 L1295.2,330.0 L1296.1,329.3 L1298.9,328.9 L1299.1,328.8 L1299.4,328.8 L1299.7,328.8 L1300.0,328.6 L1304.7,328.0 L1306.5,328.0 L1306.9,328.0 L1307.8,328.0 L1308.1,328.0 L1308.2,327.9 L1308.3,327.9 L1308.7,328.0 L1308.9,328.1 L1309.3,328.2 L1309.5,328.2 L1309.9,328.2 L1311.9,328.6 L1312.6,328.9 L1312.8,329.0 L1313.8,329.3 L1314.2,329.3 L1314.9,329.3 L1315.0,329.3 L1315.2,329.5 L1315.5,329.5 L1316.4,330.0 L1317.7,330.5 L1318.9,330.9 L1319.8,331.5 L1320.2,331.8 L1320.3,331.8 L1320.8,331.8 L1321.8,332.1 L1323.0,331.9 L1324.0,331.7 L1324.6,331.6 L1325.1,331.6 L1325.5,331.6 L1325.7,331.6 L1325.8,331.6 L1326.0,331.6 L1326.1,331.6 L1326.9,331.5 L1328.2,331.3 L1329.3,331.3 L1329.8,331.3 L1330.1,331.4 L1330.8,331.4 L1331.0,331.5 L1331.3,331.5 L1331.9,331.5 L1332.4,331.6 L1332.9,331.5 L1333.0,331.5 L1333.4,331.5 L1333.7,331.5 L1334.6,331.5 L1334.7,331.6 L1335.1,331.6 L1335.6,331.6 L1335.7,331.5 L1336.0,331.4 L1336.1,331.4 L1336.2,331.4 L1336.4,331.4 L1336.6,331.3 L1337.2,330.9 L1337.5,330.7 L1338.5,330.3 L1339.4,330.1 L1339.7,330.0 L1340.2,329.8 L1340.7,329.8 L1340.8,329.8 L1341.2,329.7 L1341.4,329.7 L1341.7,329.7 L1342.1,329.7 L1342.2,329.7 L1343.7,329.9 L1343.9,330.0 L1344.1,330.0 L1345.0,330.4 L1346.7,331.1 L1347.0,331.1" fill="transparent" id="track" stroke="black" stroke-linejoin="miter" stroke-miterlimit="1" stroke-width="2"/>
<g>
<g>
<circle cx="1347.5" cy="331.45885714285714" fill="Blue" id="wp/0" r="5"/>
</g>
<g transform="translate(1347.5 331.45885714285714)">
<rect fill="white" fill-opacity="0.75" height="12" id="label-bg" width="15.610526315789475" x="-19.610526315789475" y="-16"/>
<text font-size="16.0" id="wp-0/text" text-anchor="end" x="-4.000" y="-4.000">
K4
</text>
</g>
<g>
<circle cx="385.557452745099" cy="191.54142857142855" fill="Black" id="wp/1" r="3"/>
</g>
<g transform="translate(385.557452745099 191.54142857142855)">
<rect fill="white" fill-opacity="0.75" height="12" id="label-bg" width="24.610526315789475" x="-28.61052631578947" y="-16"/>
<text font-size="16.0" id="wp-1/text" text-anchor="end" x="-4.000" y="-4.000">
P20
</text>
</g>
<g>
<circle cx="1347.5" cy="331.45885714285714" fill="Black" id="wp/2" r="5"/>
<circle cx="1347.5" cy="331.45885714285714" fill="white" id="wp/2-little-white" r="3.5"/>
<circle cx="1347.5" cy="331.45885714285714" fill="black" id="wp/2-little-white" r="2.5"/>
</g>
<g transform="translate(1347.5 331.45885714285714)">
<rect fill="white" fill-opacity="0.75" height="12" id="label-bg" width="107.12631578947368" x="-111.12631578947368" y="4"/>
<text font-size="16.0" id="wp-2/text" text-anchor="end" x="-4.000" y="16.000">
Wörth am Rhein
</text>
</g>
<g>
<circle cx="53.74433461654098" cy="26.477785714285744" fill="Green" id="wp/3" r="3"/>
</g>
<g transform="translate(53.74433461654098 26.477785714285744)">
<rect fill="white" fill-opacity="0.75" height="12" id="label-bg" width="76.90526315789475" x="4" y="-16"/>
<text font-size="16.0" id="wp-3/text" text-anchor="start" x="4.000" y="-4.000">
Rote Lache
</text>
</g>
<g>
<circle cx="281.3724092174866" cy="299.2962857142857" fill="Black" id="wp/4" r="5"/>
<circle cx="281.3724092174866" cy="299.2962857142857" fill="white" id="wp/4-little-white" r="3.5"/>
<circle cx="281.3724092174866" cy="299.2962857142857" fill="black" id="wp/4-little-white" r="2.5"/>
</g>
<g transform="translate(281.3724092174866 299.2962857142857)">
<rect fill="white" fill-opacity="0.75" height="12" id="label-bg" width="75.57894736842105" x="-79.57894736842105" y="4"/>
<text font-size="16.0" id="wp-4/text" text-anchor="end" x="-4.000" y="16.000">
Gernsbach
</text>
</g>
<g>
<circle cx="196.76221818736713" cy="186.93214285714285" fill="Green" id="wp/6" r="3"/>
</g>
<g transform="translate(196.76221818736713 186.93214285714285)">
<rect fill="white" fill-opacity="0.75" height="12" id="label-bg" width="65.9157894736842" x="4" y="-16"/>
<text font-size="16.0" id="wp-6/text" text-anchor="start" x="4.000" y="-4.000">
Nachtigall
</text>
</g>
<g>
<circle cx="1260.6404889626892" cy="330.7930714285714" fill="Black" id="wp/7" r="4"/>
<circle cx="1260.6404889626892" cy="330.7930714285714" fill="white" id="wp/7-little-white" r="2.5"/>
</g>
<g transform="translate(1260.6404889626892 330.7930714285714)">
<rect fill="white" fill-opacity="0.75" height="12" id="label-bg" width="77.66315789473674" x="-38.83157894736837" y="-312.7930714285714"/>
<text font-size="16.0" id="wp-7/text" text-anchor="start" x="-38.832" y="-300.793">
Hagenbach
</text>
</g>
<g>
<circle cx="652.3311864591346" cy="321.1647857142857" fill="Black" id="wp/8" r="4"/>
<circle cx="652.3311864591346" cy="321.1647857142857" fill="white" id="wp/8-little-white" r="2.5"/>
</g>
<g transform="translate(652.3311864591346 321.1647857142857)">
<rect fill="white" fill-opacity="0.75" height="12" id="label-bg" width="61.557894736842115" x="4" y="-16"/>
<text font-size="16.0" id="wp-8/text" text-anchor="start" x="4.000" y="-4.000">
Iffezheim
</text>
</g>
<g>
<circle cx="1126.4090623985303" cy="324.95464285714286" fill="Black" id="wp/9" r="4"/>
<circle cx="1126.4090623985303" cy="324.95464285714286" fill="white" id="wp/9-little-white" r="2.5"/>
</g>
<g transform="translate(1126.4090623985303 324.95464285714286)">
<rect fill="white" fill-opacity="0.75" height="12" id="label-bg" width="84.10526315789474" x="-88.10526315789474" y="-16"/>
<text font-size="16.0" id="wp-9/text" text-anchor="end" x="-4.000" y="-4.000">
Lauterbourg
</text>
</g>
<g>
<circle cx="1156.441767586245" cy="318.2967857142857" fill="Black" id="wp/10" r="4"/>
<circle cx="1156.441767586245" cy="318.2967857142857" fill="white" id="wp/10-little-white" r="2.5"/>
</g>
<g transform="translate(1156.441767586245 318.2967857142857)">
<rect fill="white" fill-opacity="0.75" height="12" id="label-bg" width="81.07368421052632" x="4" y="-16"/>
<text font-size="16.0" id="wp-10/text" text-anchor="start" x="4.000" y="-4.000">
Berg (Pfalz)
</text>
</g>
</g>
</g>
<g id="SL" transform="translate(0 0)">
<text text-anchor="end" x="66" y="363.5">
50
</text>
<text text-anchor="end" x="66" y="312.2857142857143">
150
</text>
<text text-anchor="end" x="66" y="261.07142857142856">
250
</text>
<text text-anchor="end" x="66" y="209.85714285714283">
350
</text>
<text text-anchor="end" x="66" y="158.64285714285714">
450
</text>
<text text-anchor="end" x="66" y="107.42857142857139">
550
</text>
<text text-anchor="end" x="66" y="56.21428571428572">
650
</text>
<text text-anchor="end" x="66" y="5">
750
</text>
</g>
</g>
</svg>