<svg height="400" width="1420" xmlns="http://www.w3.org/2000/svg">
<g font-size="18" id="world" shape-rendering="crispEdges">
<g id="BG"/>
<g id="SB" transform="translate(71 360)">
<text text-anchor="middle" x="0" y="17">
0
</text>
<text text-anchor="middle" x="269.6808844008064" y="17">
20
</text>
<text text-anchor="middle" x="539.3617688016128" y="17">
40
</text>
<text text-anchor="middle" x="809.0426532024192" y="17">
60
</text>
<text text-anchor="middle" x="1078.7235376032256" y="17">
80
</text>
</g>
<g id="SD" transform="translate(71 0)">
<path d="M0,0 L1347.5,0" stroke="black" stroke-width="3"/>
<path d="M0,0 L0,358.5" stroke="black" stroke-width="3"/>
<path d="M0,358.5 L1347.5,358.5" stroke="black" stroke-width="3"/>
<path d="M1347.5,0 L1347.5,358.5" stroke="black" stroke-width="3"/>
<path d="M0,358.5 L1347.5,358.5" stroke="black" stroke-width="1"/>
<path d="M0,0 L0,358.5" stroke="black" stroke-width="1"/>
<path d="M269.68088,0 L269.68088,358.5" stroke="black" stroke-width="1"/>
<path d="M539.36176,0 L539.36176,358.5" stroke="black" stroke-width="1"/>
<path d="M809.04266,0 L809.04266,358.5" stroke="black" stroke-width="1"/>
<path d="M1078.7235,0 L1078.7235,358.5" stroke="black" stroke-width="1"/>
<path d="M134.84044,0 L134.84044,358.5" stroke="black" stroke-dasharray="1.0,2.5,5.0,5.0,10.0,5.0"/>
<path d="M404.52133,0 L404.52133,358.5" stroke="black" stroke-dasharray="1.0,2.5,5.0,5.0,10.0,5.0"/>
<path d="M674.2022,0 L674.2022,358.5" stroke="black" stroke-dasharray="1.0,2.5,5.0,5.0,10.0,5.0"/>
<path d="M943.8831,0 L943.8831,358.5" stroke="black" stroke-dasharray="1.0,2.5,5.0,5.0,10.0,5.0"/>
<path d="M1213.564,0 L1213.564,358.5" stroke="black" stroke-dasharray="1.0,2.5,5.0,5.0,10.0,5.0"/>
<path d="M0,358.5 L1347.5,358.5" stroke="black" stroke-width="1"/>
<path d="M0,322.65 L1347.5,322.65" stroke="black" stroke-width="1"/>
<path d="M0,286.8 L1347.5,286.8" stroke="black" stroke-width="1"/>
<path d="M0,250.95 L1347.5,250.95" stroke="black" stroke-width="1"/>
<path d="M0,215.1 L1347.5,215.1" stroke="black" stroke-width="1"/>
<path d="M0,179.25 L1347.5,179.25" stroke="black" stroke-width="1"/>
<path d="M0,143.4 L1347.5,143.4" stroke="black" stroke-width="1"/>
<path d="M0,107.55 L1347.5,107.55" stroke="black" stroke-width="1"/>
<path d="M0,71.7 L1347.5,71.7" stroke="black" stroke-width="1"/>
<path d="M0,35.85 L1347.5,35.85" stroke="black" stroke-width="1"/>
<path d="M0,0 L1347.5,0" stroke="black" stroke-width="1"/>
<path d="M0,340.575 L1347.5,340.575" stroke="black" stroke-dasharray="1.0,2.5,5.0,5.0,10.0,5.0"/>
<path d="M0,304.725 L1347.5,304.725" stroke="black" stroke-dasharray="1.0,2.5,5.0,5.0,10.0,5.0"/>
<path d="M0,268.875 L1347.5,268.875" stroke="black" stroke-dasharray="1.0,2.5,5.0,5.0,10.0,5.0"/>
<path d="M0,233.025 L1347.5,233.025" stroke="black" stroke-dasharray="1.0,2.5,5.0,5.0,10.0,5.0"/>
<path d="M0,197.175 L1347.5,197.175" stroke="black" stroke-dasharray="1.0,2.5,5.0,5.0,10.0,5.0"/>
<path d="M0,161.325 L1347.5,161.325" stroke="black" stroke-dasharray="1.0,2.5,5.0,5.0,10.0,5.0"/>
<path d="M0,125.475 L1347.5,125.475" stroke="black" stroke-dasharray="1.0,2.5,5.0,5.0,10.0,5.0"/>
<path d="M0,89.625 L1347.5,89.625" stroke="black" stroke-dasharray="1.0,2.5,5.0,5.0,10.0,5.0"/>
<path d="M0,53.775 L1347.5,53.775" stroke="black" stroke-dasharray="1.0,2.5,5.0,5.0,10.0,5.0"/>
<path d="M0,17.925 L1347.5,17.925" stroke="black" stroke-dasharray="1.0,2.5,5.0,5.0,10.0,5.0"/>
<path d="M0.0,163.5 L0.2,163.5 L0.4,163.5 L0.8,163.5 L0.8,163.5 L1.5,163.5 L1.6,163.5 L1.7,163.5 L2.2,163.5 L2.7,163.5 L3.5,163.5 L4.0,163.5 L5.4,163.6 L5.6,163.6 L5.8,163.6 L6.0,163.6 L6.8,163.6 L7.3,163.6 L7.7,163.6 L8.0,163.6 L8.5,163.8 L9.1,163.8 L9.5,163.7 L9.9,163.7 L10.7,163.7 L11.1,163.7 L11.4,163.7 L11.8,163.8 L12.7,164.0 L13.1,164.1 L14.2,164.0 L15.3,164.2 L15.7,164.2 L16.2,164.2 L16.7,164.2 L17.3,164.1 L17.8,164.1 L18.3,163.9 L19.4,163.7 L20.6,163.4 L21.5,163.4 L22.0,163.3 L23.4,163.4 L23.8,163.4 L24.5,163.4 L24.9,163.3 L25.9,163.3 L26.6,163.3 L27.3,163.3 L33.5,162.3 L37.3,161.0 L39.0,160.7 L39.8,161.0 L41.5,161.0 L41.7,161.1 L41.9,161.1 L42.5,161.1 L44.0,161.2 L49.9,159.9 L50.1,159.7 L50.2,159.7 L51.3,159.8 L51.6,159.8 L53.1,160.0 L55.5,159.1 L56.2,159.0 L56.7,159.0 L57.1,159.0 L57.9,158.9 L58.3,158.7 L59.9,158.7 L60.8,158.5 L60.8,158.5 L61.1,158.4 L61.3,158.4 L61.6,158.3 L62.4,158.1 L62.6,158.0 L62.8,158.0 L63.0,158.0 L63.9,157.9 L64.2,157.9 L64.4,157.8 L64.6,157.8 L65.0,157.8 L65.3,157.8 L66.4,157.7 L67.5,157.8 L68.8,157.9 L69.1,157.8 L69.3,157.8 L69.7,157.9 L69.9,157.9 L70.3,157.9 L70.6,157.9 L72.1,158.0 L73.0,158.1 L73.2,158.1 L73.8,158.1 L74.4,157.8 L75.2,157.2 L76.2,156.0 L76.8,155.4 L77.1,155.1 L77.5,155.0 L78.1,154.9 L78.6,154.9 L78.8,155.0 L79.4,154.9 L80.0,155.0 L80.3,155.1 L80.6,155.2 L81.4,155.2 L81.6,155.2 L82.2,155.3 L82.3,155.2 L82.5,155.2 L82.7,155.3 L82.8,155.0 L83.0,155.0 L83.2,155.0 L83.7,154.5 L83.8,154.3 L84.3,153.9 L84.9,153.5 L85.5,152.8 L86.0,151.9 L86.4,151.7 L86.8,151.5 L87.3,151.3 L87.8,151.3 L89.9,152.1 L90.5,152.0 L91.1,152.0 L91.6,152.0 L93.1,152.2 L93.5,152.1 L94.2,152.1 L94.7,152.2 L95.2,152.2 L95.8,152.2 L100.7,153.1 L102.7,152.5 L104.5,152.1 L106.1,151.9 L107.1,152.0 L108.1,152.3 L109.0,151.9 L110.2,151.2 L111.2,151.1 L112.0,151.0 L112.6,151.0 L113.2,150.8 L113.8,150.8 L114.2,151.0 L114.8,151.2 L116.6,152.0 L117.7,152.5 L119.3,152.2 L121.4,151.0 L122.6,150.0 L124.2,149.5 L127.1,148.4 L128.2,148.7 L129.3,148.7 L130.4,149.4 L131.9,149.8 L133.1,150.1 L134.1,149.8 L135.3,149.7 L135.5,149.7 L136.7,149.7 L137.4,149.4 L139.6,148.1 L141.9,148.4 L143.1,147.5 L144.1,147.8 L144.8,147.8 L145.1,147.8 L145.7,147.6 L146.4,147.6 L147.2,147.5 L148.2,147.7 L148.8,147.7 L148.9,147.7 L149.5,147.4 L150.2,147.3 L151.8,147.1 L152.3,147.0 L152.9,146.7 L154.4,146.4 L154.8,146.2 L155.2,146.1 L155.7,145.9 L156.0,145.9 L156.4,145.9 L156.9,145.9 L161.1,144.3 L161.7,143.9 L162.1,143.9 L162.4,144.0 L162.8,144.0 L163.8,143.9 L164.4,143.9 L164.8,143.8 L165.2,143.7 L165.8,143.8 L166.1,143.8 L167.9,143.1 L169.6,142.9 L170.0,142.9 L170.5,143.3 L171.2,143.5 L173.0,143.7 L173.6,143.9 L175.0,144.3 L178.2,142.0 L179.1,141.6 L179.8,141.1 L180.7,141.1 L181.4,141.2 L182.1,141.0 L182.5,141.0 L185.7,141.3 L187.0,140.9 L187.7,140.9 L188.1,140.9 L188.7,140.9 L188.9,140.9 L189.0,140.9 L189.1,140.9 L189.4,141.0 L189.5,141.0 L190.0,140.7 L190.9,140.6 L191.9,138.9 L192.5,137.8 L192.9,136.9 L194.1,136.3 L194.5,136.1 L194.9,135.3 L195.3,134.8 L195.9,134.6 L196.9,134.8 L197.3,135.9 L197.9,136.7 L198.4,137.1 L199.6,136.7 L200.0,136.7 L200.3,137.0 L201.6,137.4 L201.9,137.4 L202.6,137.3 L203.2,136.7 L203.2,136.7 L203.6,136.8 L203.9,136.8 L206.2,137.4 L207.2,137.2 L207.6,137.0 L208.4,137.0 L208.8,137.0 L209.4,137.0 L210.1,136.5 L212.5,135.1 L215.2,134.9 L216.2,134.9 L216.6,134.9 L216.9,134.9 L217.2,134.9 L217.3,134.9 L217.9,134.9 L221.4,128.5 L221.6,127.6 L222.3,127.7 L223.1,127.7 L223.8,127.5 L224.5,126.6 L224.7,126.3 L226.1,125.4 L226.5,125.2 L226.8,125.2 L227.3,124.5 L228.5,123.7 L228.7,123.7 L229.8,122.8 L230.4,122.5 L230.7,122.5 L231.5,122.0 L231.7,122.0 L232.0,121.9 L232.8,121.7 L233.1,121.7 L233.7,121.5 L234.5,121.0 L235.1,120.9 L235.3,120.4 L237.0,119.4 L237.8,116.0 L238.6,114.3 L240.1,111.8 L240.4,111.7 L240.9,110.9 L242.2,109.1 L242.5,108.9 L242.7,108.9 L242.8,108.8 L243.1,108.5 L243.3,108.5 L243.7,108.2 L243.9,108.1 L244.1,108.1 L244.3,108.0 L244.6,108.0 L244.8,107.9 L244.9,107.8 L245.7,107.2 L246.0,106.9 L246.3,106.7 L246.6,106.5 L246.9,106.3 L247.3,106.2 L247.7,106.2 L248.0,106.1 L249.2,105.6 L250.1,105.4 L250.6,105.4 L252.9,105.1 L254.4,104.4 L255.1,104.4 L255.6,103.8 L256.2,103.8 L257.8,103.5 L258.8,103.2 L259.2,102.7 L259.9,102.3 L261.3,102.1 L261.8,101.8 L262.0,101.4 L263.1,101.6 L264.4,101.7 L265.0,101.5 L265.3,101.5 L265.9,101.6 L266.1,101.6 L266.7,101.6 L267.5,101.5 L269.2,98.0 L269.7,97.8 L271.1,97.6 L271.3,97.6 L271.4,97.6 L272.8,96.8 L273.3,96.9 L274.2,97.3 L274.3,97.3 L274.4,97.3 L274.8,97.2 L275.0,97.2 L275.6,97.1 L276.3,96.9 L277.2,96.6 L278.0,96.1 L278.6,95.7 L279.8,95.2 L280.3,94.6 L280.8,94.4 L281.6,94.2 L281.9,94.0 L282.6,93.7 L282.9,93.6 L283.3,93.4 L283.8,93.1 L284.5,93.0 L285.1,92.8 L285.5,92.5 L285.7,92.0 L286.5,91.8 L288.0,90.6 L288.4,90.2 L289.6,88.4 L289.9,88.4 L292.2,87.2 L293.3,85.9 L294.7,85.6 L295.1,85.4 L295.3,85.4 L295.7,85.4 L296.8,85.1 L297.1,85.1 L297.6,85.0 L299.0,84.1 L300.5,82.6 L301.4,82.4 L301.9,82.0 L302.8,81.8 L303.3,81.3 L303.6,81.0 L304.7,80.5 L305.6,80.0 L306.2,79.7 L306.9,78.6 L307.7,78.1 L309.1,76.7 L309.4,76.7 L309.7,76.4 L310.4,75.9 L311.1,75.9 L311.3,75.9 L311.8,75.9 L313.0,74.4 L314.6,71.8 L315.0,71.8 L315.7,71.2 L315.8,70.4 L316.0,70.4 L316.2,70.1 L316.7,69.9 L318.1,69.3 L318.4,69.4 L318.8,69.2 L318.9,69.2 L319.1,69.2 L319.2,69.2 L319.5,69.2 L319.7,69.1 L319.9,69.1 L320.7,68.9 L320.8,69.1 L321.0,69.1 L321.6,69.2 L321.9,69.2 L322.2,69.2 L322.4,69.2 L322.6,69.3 L322.7,69.3 L323.1,69.3 L323.7,68.7 L323.9,68.4 L324.1,68.4 L324.3,68.2 L326.5,66.2 L327.2,62.4 L328.2,61.7 L329.2,60.7 L329.7,60.1 L330.2,59.6 L330.6,59.6 L331.2,59.2 L331.9,58.2 L332.4,57.3 L334.0,53.5 L334.7,52.5 L335.5,51.2 L336.4,49.8 L338.2,46.8 L338.9,46.8 L339.5,46.1 L340.2,46.1 L340.8,46.1 L343.8,54.2 L345.5,58.8 L345.9,59.7 L346.3,59.7 L347.0,63.0 L348.0,64.3 L348.4,65.1 L349.0,66.8 L349.4,66.8 L349.8,67.6 L350.5,68.5 L352.8,70.9 L353.2,72.1 L354.8,72.7 L355.7,73.6 L355.9,73.6 L357.7,77.0 L359.0,79.3 L359.8,79.3 L361.3,81.6 L362.8,84.0 L363.5,84.5 L364.9,88.0 L365.3,88.6 L365.6,89.6 L366.8,90.4 L367.2,90.4 L367.3,90.4 L367.6,91.2 L368.2,91.9 L370.1,92.8 L373.4,95.0 L374.4,95.3 L374.6,95.3 L374.8,95.3 L375.1,95.3 L375.4,95.3 L375.9,95.3 L376.3,95.0 L378.9,92.8 L379.4,93.4 L380.1,94.2 L381.8,95.5 L382.0,95.6 L382.3,95.9 L382.7,96.0 L382.9,96.2 L383.0,96.2 L383.5,96.3 L383.7,96.3 L383.8,96.3 L384.0,96.3 L384.2,96.3 L384.3,96.3 L384.4,96.5 L384.6,96.6 L384.8,96.6 L385.0,96.6 L386.0,97.3 L387.0,98.5 L387.0,98.5 L388.1,99.3 L388.5,99.4 L388.6,99.4 L388.8,99.5 L389.1,99.5 L389.5,99.5 L389.6,99.5 L389.7,99.5 L389.9,99.7 L390.1,99.7 L390.3,99.7 L390.5,99.8 L390.8,99.9 L391.0,100.0 L391.1,100.0 L391.9,100.0 L392.7,100.3 L393.1,100.6 L393.5,100.8 L393.6,100.9 L394.3,101.3 L394.8,101.5 L395.2,101.5 L395.3,101.5 L395.4,101.6 L395.6,101.6 L395.8,101.7 L396.2,101.8 L396.4,101.8 L396.6,101.8 L396.7,101.8 L396.8,101.8 L397.4,101.9 L398.3,102.2 L398.5,102.2 L399.0,102.1 L399.7,101.8 L400.3,101.7 L400.9,101.7 L401.2,101.5 L401.4,101.5 L401.6,101.5 L401.9,101.5 L402.6,101.7 L403.3,102.0 L405.0,103.3 L405.3,103.4 L405.5,103.5 L405.9,103.5 L405.9,103.5 L406.4,103.7 L406.6,103.6 L407.0,103.6 L407.2,103.6 L407.2,103.6 L407.4,103.6 L407.7,103.5 L407.8,103.5 L407.9,103.5 L408.7,103.2 L409.2,102.8 L409.8,102.7 L410.3,102.3 L410.7,101.9 L411.0,101.9 L411.6,102.0 L411.6,102.0 L412.6,102.3 L413.4,102.6 L414.2,103.0 L414.4,103.6 L414.5,103.6 L414.6,103.6 L415.5,103.4 L415.9,103.1 L417.4,101.8 L418.0,101.5 L418.6,101.1 L419.4,100.8 L420.2,101.1 L420.5,101.1 L421.1,101.3 L421.1,101.3 L422.1,102.4 L422.9,102.6 L423.7,103.0 L423.9,103.6 L424.0,103.6 L424.1,103.6 L425.0,103.4 L425.4,103.1 L426.9,101.0 L427.5,100.9 L428.1,100.4 L428.7,99.9 L429.0,99.8 L429.2,99.7 L429.3,99.7 L429.9,99.4 L430.4,99.2 L430.6,99.0 L431.3,98.8 L431.5,98.6 L431.8,98.5 L433.2,97.4 L433.6,97.2 L434.6,96.5 L435.5,96.5 L435.8,96.6 L438.1,96.0 L438.2,96.0 L439.1,95.4 L439.9,95.4 L440.6,95.3 L441.6,94.7 L442.7,94.7 L443.8,94.8 L444.6,95.0 L444.7,95.0 L445.1,95.0 L445.5,95.1 L446.6,95.0 L449.0,94.2 L450.0,94.0 L450.6,94.0 L451.5,94.1 L452.1,93.8 L452.7,93.8 L453.5,93.8 L453.8,93.8 L453.9,93.8 L454.3,93.7 L454.6,93.7 L458.4,88.7 L459.2,88.2 L460.2,88.2 L460.9,88.2 L461.4,88.6 L465.7,86.6 L465.9,85.4 L468.2,84.8 L469.3,81.6 L473.1,84.3 L473.8,84.1 L473.9,84.1 L474.1,84.1 L475.0,83.8 L476.2,83.7 L477.3,82.9 L478.2,82.6 L479.3,82.6 L479.6,82.6 L480.2,82.5 L480.8,82.5 L481.2,82.1 L481.4,82.1 L481.8,81.7 L482.7,80.4 L483.5,79.7 L484.2,78.6 L484.7,77.3 L484.8,77.3 L485.5,76.9 L486.4,76.0 L487.0,75.5 L487.4,75.3 L488.7,74.0 L489.1,74.0 L489.3,73.5 L489.8,73.0 L490.2,72.9 L491.1,72.8 L491.4,72.6 L491.9,72.2 L492.2,71.7 L492.9,71.6 L493.1,71.4 L493.3,71.2 L493.9,70.6 L494.7,70.0 L495.8,68.9 L496.1,68.7 L496.5,68.7 L496.8,68.6 L497.3,68.1 L497.5,67.8 L497.6,67.8 L497.7,67.8 L498.2,67.5 L498.3,67.5 L498.5,67.5 L498.8,67.4 L499.5,66.5 L499.9,65.9 L500.2,65.8 L500.6,63.9 L501.6,60.0 L502.5,57.3 L503.3,55.5 L503.7,54.7 L504.4,54.5 L504.7,54.5 L505.0,54.5 L505.5,54.2 L505.7,54.2 L506.5,53.9 L506.9,53.5 L507.1,53.5 L507.3,53.3 L507.5,53.3 L508.5,52.9 L508.7,52.9 L509.0,52.9 L509.5,52.1 L509.8,51.2 L512.0,47.8 L513.5,46.3 L513.9,46.3 L514.8,45.9 L515.7,46.1 L517.7,46.8 L518.1,46.3 L518.4,46.3 L518.6,46.4 L518.9,46.4 L519.5,45.9 L520.4,45.3 L521.7,43.2 L522.9,42.5 L523.3,42.3 L525.1,46.2 L526.3,48.5 L526.8,48.7 L527.1,48.7 L527.4,48.8 L528.1,49.7 L528.6,49.7 L529.2,50.4 L529.8,51.1 L530.6,52.3 L531.4,53.2 L531.8,53.4 L532.5,54.0 L532.6,54.3 L532.8,54.4 L533.3,54.7 L533.5,54.9 L533.6,54.9 L534.1,55.1 L534.3,55.0 L534.5,55.2 L535.0,55.0 L535.5,55.1 L535.6,55.1 L535.8,54.9 L536.3,54.5 L536.5,54.5 L536.9,54.5 L537.5,53.9 L538.3,52.6 L538.8,51.9 L538.9,51.9 L539.7,50.5 L540.1,50.5 L540.7,50.2 L541.0,50.2 L541.4,50.0 L541.8,49.5 L542.3,49.5 L543.2,48.8 L543.4,48.8 L544.4,48.8 L545.6,49.9 L546.7,51.1 L547.6,52.1 L548.2,52.1 L548.6,52.8 L549.1,52.8 L549.7,53.3 L549.9,53.3 L550.9,53.6 L553.6,52.3 L556.0,52.3 L556.2,52.2 L556.5,51.8 L556.6,51.8 L557.0,51.8 L558.3,52.2 L558.9,52.8 L559.1,53.0 L559.4,54.5 L560.6,57.2 L561.3,58.1 L561.9,60.0 L562.1,60.3 L562.3,61.1 L562.7,61.3 L563.0,61.5 L563.1,61.5 L563.2,61.5 L563.6,61.9 L564.3,62.8 L564.5,62.8 L564.7,63.0 L564.9,63.3 L565.1,64.0 L565.5,64.2 L566.4,65.3 L567.0,65.8 L567.7,67.6 L569.1,69.6 L569.5,70.4 L569.7,70.8 L570.7,71.2 L571.1,71.4 L571.5,71.7 L571.8,72.2 L572.5,73.0 L572.9,73.3 L573.5,73.6 L573.9,74.1 L574.3,74.3 L574.6,74.5 L575.0,74.5 L575.3,74.9 L576.1,75.3 L576.3,75.5 L576.5,75.5 L580.1,79.4 L580.6,81.9 L581.6,85.5 L583.1,87.4 L583.7,88.4 L583.9,89.7 L584.1,89.7 L584.2,89.7 L585.2,91.7 L585.6,92.1 L586.4,93.5 L586.5,93.5 L587.0,94.7 L587.5,94.7 L587.6,95.2 L588.2,96.0 L588.5,96.4 L588.6,96.6 L590.2,97.9 L590.8,98.1 L591.3,98.4 L591.6,98.6 L591.8,98.6 L592.0,98.2 L592.6,98.2 L592.9,98.0 L593.1,97.9 L593.8,97.5 L593.9,97.2 L594.5,96.8 L594.6,96.5 L595.3,95.9 L595.9,95.0 L596.5,93.8 L597.3,92.4 L597.8,91.7 L598.5,91.0 L598.7,90.3 L599.0,90.3 L599.5,89.9 L599.8,89.3 L600.5,88.0 L600.8,87.5 L601.3,86.8 L602.3,85.1 L602.6,84.6 L602.9,84.6 L603.9,83.2 L604.4,82.3 L604.8,81.9 L606.4,80.1 L606.9,79.3 L607.3,78.6 L607.8,77.8 L608.4,77.7 L608.6,77.5 L609.1,77.1 L609.4,77.0 L609.8,76.6 L610.0,76.6 L610.2,76.4 L610.5,76.4 L610.7,76.4 L611.3,76.2 L611.7,76.0 L611.9,75.9 L612.2,75.7 L612.4,74.9 L612.6,73.9 L615.1,66.9 L615.3,65.7 L615.6,63.7 L616.0,63.7 L617.0,62.8 L617.2,62.8 L618.3,61.5 L619.2,60.9 L619.5,60.9 L620.3,60.6 L621.4,61.4 L621.5,61.4 L622.5,62.2 L623.1,62.8 L624.0,62.8 L624.8,63.2 L625.7,63.3 L626.2,63.2 L626.9,63.0 L628.6,63.4 L629.0,63.5 L630.0,64.6 L630.8,66.6 L632.5,69.8 L632.8,70.3 L633.1,70.4 L633.3,70.4 L633.6,71.0 L633.6,71.0 L633.9,71.1 L634.1,71.1 L634.5,71.2 L634.8,71.2 L635.1,71.2 L635.4,71.4 L635.7,71.6 L636.0,71.7 L636.4,71.8 L636.9,71.9 L637.2,71.8 L637.4,71.9 L637.5,71.9 L637.9,72.0 L638.3,72.1 L638.8,72.2 L639.1,72.1 L640.0,72.1 L640.3,72.2 L640.9,72.4 L641.3,72.6 L641.8,72.7 L642.1,72.8 L642.7,73.2 L643.3,73.8 L643.7,74.4 L644.9,76.1 L645.5,77.6 L646.0,78.8 L647.4,79.9 L648.1,80.9 L648.5,81.2 L649.9,81.5 L650.2,81.6 L650.3,82.1 L650.6,83.0 L650.8,83.4 L650.9,83.9 L651.1,84.2 L651.3,84.3 L652.1,84.3 L652.9,84.7 L653.1,85.0 L653.2,85.0 L653.4,85.3 L653.5,85.6 L653.7,85.9 L655.1,88.5 L655.7,89.9 L656.5,91.9 L657.4,91.9 L657.7,91.7 L657.9,92.2 L658.1,92.0 L658.3,92.0 L658.5,92.3 L658.7,92.3 L659.0,92.3 L659.6,92.5 L659.9,92.5 L660.3,93.0 L660.7,93.5 L661.2,94.3 L661.7,94.0 L662.8,97.3 L663.1,98.1 L663.5,100.1 L663.8,100.1 L664.5,102.1 L664.8,102.1 L665.2,103.6 L665.9,107.8 L667.9,114.5 L668.4,116.4 L668.5,116.4 L669.2,117.8 L670.3,118.6 L671.0,119.2 L672.5,124.1 L674.1,127.2 L675.1,127.9 L675.9,129.5 L677.6,130.1 L678.0,130.1 L678.4,130.2 L678.9,130.7 L680.7,130.9 L682.1,130.6 L683.1,130.6 L683.7,131.3 L684.0,131.3 L685.8,133.4 L686.8,135.9 L688.0,139.0 L688.3,139.2 L688.7,139.7 L689.5,139.3 L689.8,138.8 L689.9,138.8 L690.4,138.5 L690.9,138.5 L691.8,138.8 L692.1,138.9 L692.4,138.7 L692.6,138.1 L693.6,137.7 L693.7,137.6 L693.9,137.6 L694.3,137.6 L694.7,138.3 L694.9,139.0 L695.3,139.8 L695.8,141.1 L696.4,141.7 L697.2,143.4 L697.5,144.1 L697.7,144.4 L698.1,145.2 L698.5,145.2 L699.0,145.8 L699.4,146.2 L699.9,146.2 L700.1,146.5 L700.5,147.3 L701.2,147.7 L701.5,147.7 L701.8,147.7 L702.8,149.7 L704.8,157.1 L705.0,157.1 L706.1,159.0 L706.4,159.0 L706.8,160.0 L707.0,160.7 L707.3,161.3 L708.3,162.9 L709.2,165.6 L709.7,166.3 L710.0,167.2 L710.7,167.9 L711.1,168.2 L711.4,168.3 L711.6,168.3 L712.6,169.5 L712.9,169.7 L713.5,170.4 L714.0,171.1 L714.4,171.9 L714.7,172.5 L715.0,172.5 L715.7,173.2 L716.4,174.1 L717.4,175.5 L718.9,176.9 L719.9,177.8 L720.4,178.0 L720.7,178.4 L721.7,178.6 L722.1,179.1 L722.8,180.5 L723.2,181.3 L724.4,182.3 L725.0,182.7 L725.4,182.9 L725.9,183.3 L726.8,184.5 L727.3,185.5 L728.0,187.3 L729.4,191.0 L730.0,191.5 L730.4,192.4 L730.5,192.4 L730.8,192.8 L731.1,192.5 L731.4,192.3 L731.5,192.3 L731.7,192.2 L732.6,192.6 L733.3,193.0 L733.7,192.9 L734.0,192.8 L734.3,192.4 L735.1,192.5 L735.3,192.8 L735.5,192.8 L736.7,193.7 L736.9,194.0 L737.1,194.2 L737.3,194.5 L737.5,194.5 L737.9,194.5 L738.6,194.7 L739.0,195.3 L739.4,196.0 L740.0,197.8 L740.9,202.3 L741.3,203.1 L741.5,203.1 L741.8,203.5 L742.0,203.5 L742.2,203.9 L742.7,203.9 L742.8,204.2 L742.9,204.2 L742.9,204.2 L743.0,204.3 L743.0,204.3 L743.1,204.3 L743.1,204.3 L743.2,204.3 L743.5,204.4 L743.7,204.8 L744.0,204.8 L745.7,206.7 L746.1,207.3 L746.3,207.3 L746.8,208.9 L748.4,210.3 L749.1,211.9 L749.4,211.9 L749.7,212.5 L750.4,213.0 L750.9,213.0 L751.8,214.2 L752.7,215.6 L753.9,217.6 L754.3,217.6 L754.7,217.9 L755.1,218.1 L755.8,218.5 L755.9,218.5 L756.3,218.7 L756.6,218.8 L757.0,218.9 L757.5,219.2 L757.5,219.2 L758.3,219.6 L758.9,220.0 L759.2,220.2 L760.3,221.1 L760.8,221.1 L761.3,221.0 L763.5,223.3 L764.1,224.4 L764.3,224.4 L764.6,224.7 L764.9,224.9 L765.4,224.9 L765.7,224.9 L766.1,224.9 L766.3,225.6 L766.5,225.6 L766.7,225.6 L767.1,226.5 L767.5,226.8 L769.0,227.8 L769.8,228.1 L770.2,228.3 L770.6,228.6 L771.4,229.2 L772.0,229.4 L773.1,230.1 L773.4,230.3 L773.7,230.3 L774.0,230.3 L774.5,230.6 L774.9,230.8 L775.3,230.7 L776.7,231.3 L777.2,231.5 L777.6,231.5 L778.2,232.2 L778.7,232.5 L779.3,233.2 L779.7,233.5 L780.3,234.1 L780.7,234.2 L781.2,234.4 L781.4,234.7 L781.7,234.7 L781.8,234.7 L781.9,234.7 L782.2,234.8 L782.5,234.9 L783.1,234.9 L783.8,235.1 L783.9,235.1 L784.0,235.1 L784.0,235.1 L784.1,235.1 L784.2,235.1 L784.4,235.1 L784.7,235.2 L785.0,235.2 L785.7,235.3 L786.0,235.3 L786.3,235.4 L786.5,235.4 L787.2,236.2 L788.9,237.7 L789.5,238.9 L790.0,239.5 L791.0,239.8 L791.7,240.1 L791.8,240.1 L792.3,240.2 L793.2,240.4 L793.5,240.6 L793.7,240.6 L794.1,240.7 L795.5,240.8 L795.9,241.0 L796.6,241.3 L796.8,241.6 L797.3,241.6 L797.9,241.8 L798.4,242.0 L799.2,242.7 L799.5,243.0 L800.2,243.7 L800.6,244.0 L801.1,244.2 L801.6,244.1 L801.9,244.2 L802.0,244.3 L802.5,244.4 L803.0,244.7 L803.3,245.0 L804.0,245.4 L804.5,245.5 L804.8,245.5 L805.3,245.5 L805.5,245.5 L805.8,245.5 L806.1,245.5 L806.3,245.5 L806.4,245.5 L806.7,245.5 L807.1,245.4 L807.3,245.1 L807.5,245.1 L807.9,245.1 L808.4,244.7 L808.6,244.6 L809.8,243.3 L809.9,243.0 L810.7,241.0 L811.8,238.7 L812.8,236.9 L814.3,235.1 L814.7,234.0 L816.6,231.6 L817.5,229.8 L817.8,229.8 L818.9,228.8 L819.4,227.0 L820.8,224.3 L821.7,222.4 L822.4,221.1 L823.7,218.2 L825.3,216.4 L825.8,212.9 L828.0,208.0 L828.2,208.0 L828.5,208.0 L829.1,207.1 L830.1,204.9 L830.5,203.8 L832.0,198.6 L832.5,198.6 L833.2,195.9 L834.4,191.5 L835.8,189.9 L836.2,190.3 L836.6,190.8 L836.7,190.8 L837.0,190.8 L837.4,191.1 L837.6,191.1 L838.1,191.1 L838.6,191.9 L838.9,192.7 L839.2,193.1 L839.8,196.0 L840.9,199.6 L841.5,204.3 L842.3,209.5 L843.3,213.1 L843.8,214.8 L844.0,215.2 L844.2,215.2 L844.3,216.1 L844.6,216.1 L844.9,216.5 L845.2,217.5 L845.4,217.8 L845.6,217.8 L845.7,217.8 L846.2,218.5 L846.5,219.3 L847.5,220.4 L847.7,220.5 L848.1,220.6 L848.8,221.2 L848.9,221.2 L849.1,221.4 L849.6,221.4 L849.9,221.9 L851.1,223.0 L851.7,223.4 L852.4,223.8 L852.5,223.8 L852.7,224.1 L852.8,224.1 L852.9,224.4 L853.1,224.4 L853.6,224.4 L853.7,224.4 L853.8,224.7 L854.0,224.7 L855.5,227.5 L857.0,233.9 L857.1,234.6 L857.3,234.6 L858.1,236.7 L858.7,237.5 L859.1,238.2 L859.4,238.2 L859.7,238.9 L860.2,241.2 L860.6,241.2 L860.7,241.7 L861.5,243.0 L862.8,244.7 L863.4,246.3 L864.4,248.6 L865.0,249.1 L865.9,251.0 L866.1,251.6 L866.9,252.0 L867.2,254.0 L867.9,254.7 L868.1,255.8 L868.8,257.8 L869.4,258.8 L869.9,261.3 L870.7,263.3 L871.3,264.6 L871.7,265.9 L872.1,267.1 L872.6,267.1 L873.4,268.1 L873.5,268.8 L873.6,268.8 L874.8,269.1 L875.7,271.2 L876.1,272.5 L877.8,277.9 L878.0,277.9 L878.6,278.7 L878.9,279.9 L879.3,279.9 L879.7,280.5 L880.0,280.5 L880.4,280.9 L881.5,281.3 L882.0,281.7 L882.8,281.8 L883.1,281.8 L883.8,281.8 L884.0,281.8 L884.6,281.6 L884.9,281.1 L885.1,281.8 L885.4,281.8 L887.6,286.8 L889.2,288.3 L889.7,287.8 L890.2,287.8 L890.3,287.8 L890.6,287.4 L892.3,287.0 L893.2,286.1 L893.9,286.1 L894.2,287.9 L894.9,291.4 L896.7,295.5 L897.0,296.8 L897.3,296.8 L897.6,296.8 L898.1,297.7 L898.3,297.7 L899.2,297.4 L899.4,297.4 L900.1,297.3 L900.4,297.2 L901.3,297.8 L901.5,298.4 L902.3,299.1 L903.1,301.2 L904.1,302.9 L904.3,303.8 L905.2,304.7 L905.7,304.7 L905.9,305.2 L906.7,305.4 L907.3,306.3 L908.5,306.9 L909.2,307.6 L909.6,307.8 L910.3,308.2 L910.6,308.2 L911.3,308.6 L911.6,308.6 L913.4,309.5 L914.0,309.8 L914.4,309.8 L914.7,309.8 L914.9,310.1 L915.4,310.5 L916.3,311.0 L917.4,312.2 L917.9,313.0 L918.7,314.1 L919.9,315.1 L920.2,315.3 L920.8,316.0 L921.1,316.0 L921.4,316.0 L921.8,316.6 L921.9,316.6 L922.1,316.7 L922.5,316.8 L923.1,317.4 L923.4,317.4 L924.1,318.2 L924.2,318.2 L924.7,318.7 L925.0,318.9 L925.7,319.2 L926.2,319.4 L926.6,319.4 L927.1,319.8 L927.5,320.0 L927.7,320.2 L927.9,320.3 L928.3,320.4 L928.7,320.7 L928.8,320.7 L929.4,321.1 L929.8,321.2 L930.2,321.4 L930.5,321.6 L930.9,321.7 L931.1,321.8 L931.3,321.7 L931.5,321.9 L931.8,321.7 L932.0,321.7 L932.3,321.8 L932.6,321.8 L933.0,321.7 L934.0,321.7 L934.5,321.5 L935.2,321.6 L937.2,322.8 L937.6,323.0 L938.8,323.3 L938.9,323.2 L939.2,323.2 L940.0,323.2 L940.2,323.2 L940.5,323.1 L940.7,323.1 L941.5,323.0 L941.9,323.0 L943.0,322.7 L943.8,322.4 L944.4,322.9 L945.2,323.3 L947.0,324.5 L947.7,325.4 L948.3,326.1 L948.9,326.4 L950.0,326.7 L951.4,328.0 L953.0,329.7 L954.9,330.2 L955.1,330.2 L959.7,332.3 L959.7,332.7 L959.8,332.7 L960.1,332.6 L960.7,332.6 L962.5,332.1 L962.8,332.2 L963.8,332.1 L963.9,332.1 L964.1,332.1 L964.2,332.1 L964.3,332.3 L965.3,332.4 L966.9,333.0 L967.4,333.2 L967.9,333.3 L968.2,333.3 L968.4,333.4 L968.6,333.4 L968.8,333.5 L969.4,333.6 L969.8,333.5 L970.5,333.7 L970.9,333.9 L971.3,334.3 L971.5,334.5 L972.8,334.8 L973.7,335.0 L973.9,335.1 L974.6,335.1 L975.1,335.1 L975.3,335.1 L975.5,335.2 L975.8,335.2 L976.0,335.2 L976.4,335.1 L976.5,335.1 L976.7,335.1 L976.9,335.1 L977.3,335.1 L978.2,335.0 L978.6,335.0 L978.8,335.0 L979.0,335.0 L979.8,334.9 L980.3,334.9 L981.4,334.8 L982.1,334.8 L983.8,334.8 L986.5,334.6 L988.8,334.6 L990.1,334.6 L991.6,334.5 L991.8,334.5 L995.1,334.1 L995.4,333.9 L995.5,333.9 L996.7,333.9 L996.9,333.9 L997.9,333.5 L1000.1,332.5 L1000.5,332.5 L1001.0,331.5 L1002.1,330.8 L1002.3,330.8 L1003.4,329.4 L1003.7,329.4 L1004.1,328.7 L1004.1,328.7 L1004.8,328.3 L1005.0,327.6 L1005.4,327.1 L1006.0,326.7 L1006.5,326.1 L1007.5,324.4 L1008.0,323.8 L1008.4,323.7 L1009.2,323.8 L1009.6,324.0 L1009.6,324.0 L1010.1,324.1 L1010.6,324.2 L1011.0,324.5 L1011.4,324.7 L1011.5,324.7 L1011.7,324.7 L1012.2,324.8 L1012.7,325.2 L1013.2,325.4 L1013.6,325.6 L1013.8,325.3 L1013.9,325.3 L1016.4,322.5 L1017.2,320.3 L1017.9,319.8 L1018.5,319.6 L1019.2,319.0 L1019.8,318.9 L1020.0,318.7 L1020.4,318.7 L1021.2,318.6 L1021.5,318.5 L1021.8,318.5 L1021.9,318.4 L1022.0,318.4 L1022.2,318.4 L1022.8,318.3 L1023.5,318.2 L1024.4,318.2 L1025.2,317.8 L1026.0,317.5 L1026.7,317.2 L1027.3,316.2 L1028.7,315.1 L1029.5,314.3 L1029.9,313.8 L1030.4,312.8 L1031.0,312.8 L1032.3,311.1 L1033.0,310.5 L1033.7,309.5 L1034.5,309.2 L1035.0,308.5 L1035.6,307.8 L1035.8,306.9 L1036.1,306.9 L1036.8,306.7 L1037.3,306.0 L1037.9,305.4 L1038.5,305.0 L1039.8,302.9 L1040.0,302.9 L1040.3,302.7 L1040.6,302.8 L1042.1,302.6 L1042.3,302.6 L1043.8,299.0 L1045.0,297.3 L1046.1,296.7 L1046.6,296.1 L1046.8,296.1 L1047.9,293.8 L1050.3,289.2 L1050.7,287.8 L1051.1,287.8 L1054.7,280.9 L1055.2,278.9 L1056.6,278.1 L1057.9,276.3 L1058.3,275.9 L1058.8,274.2 L1060.3,270.9 L1061.0,267.2 L1061.7,265.3 L1062.2,264.9 L1063.1,263.8 L1063.9,262.2 L1064.7,261.1 L1065.5,260.5 L1066.1,259.8 L1066.3,259.0 L1066.6,258.4 L1069.0,255.6 L1069.5,255.6 L1069.9,255.6 L1070.8,254.6 L1071.8,253.9 L1072.0,253.9 L1073.0,251.5 L1073.2,250.4 L1073.3,250.4 L1073.5,248.8 L1074.3,248.0 L1075.1,245.7 L1075.4,245.7 L1075.7,245.0 L1076.0,242.3 L1076.3,241.1 L1077.7,239.9 L1078.4,237.4 L1078.7,237.4 L1079.3,237.1 L1080.5,235.2 L1080.8,235.2 L1081.1,235.2 L1083.1,226.3 L1084.0,222.8 L1084.6,222.3 L1085.4,221.9 L1085.5,221.9 L1085.6,221.7 L1085.7,221.7 L1085.9,221.3 L1085.9,221.3 L1086.3,220.9 L1086.4,220.9 L1086.6,220.4 L1086.9,220.2 L1087.0,219.6 L1087.1,219.6 L1087.4,218.7 L1087.6,218.0 L1087.9,216.9 L1088.2,216.5 L1088.9,214.7 L1089.2,213.2 L1089.6,211.6 L1090.0,210.4 L1090.2,209.7 L1090.3,208.8 L1090.4,208.8 L1091.3,206.9 L1091.7,204.4 L1092.1,202.2 L1094.2,196.0 L1094.6,194.6 L1095.0,192.7 L1095.4,192.7 L1096.3,191.6 L1096.8,190.8 L1097.6,191.2 L1098.1,189.7 L1098.9,189.2 L1099.2,187.7 L1099.5,187.7 L1100.6,186.0 L1100.8,185.7 L1101.6,185.0 L1102.5,182.3 L1102.8,181.4 L1103.6,179.4 L1104.7,179.0 L1104.9,179.0 L1105.5,176.0 L1106.1,174.3 L1108.0,164.4 L1109.3,161.3 L1109.7,161.3 L1110.2,161.6 L1110.4,161.6 L1111.0,161.3 L1111.3,161.7 L1111.8,162.2 L1112.8,163.2 L1113.8,166.1 L1114.4,167.7 L1114.8,168.8 L1115.6,169.9 L1116.3,170.8 L1116.6,171.3 L1116.8,171.3 L1117.4,172.7 L1117.7,173.3 L1118.7,174.8 L1119.0,174.8 L1119.8,177.6 L1120.0,177.6 L1120.5,179.5 L1121.0,180.3 L1122.2,184.2 L1122.3,184.2 L1122.9,186.0 L1123.2,186.7 L1123.9,188.1 L1124.2,188.5 L1124.3,188.5 L1124.5,188.5 L1124.6,188.5 L1125.2,189.4 L1125.9,190.9 L1126.2,190.9 L1126.6,192.4 L1128.6,200.7 L1129.0,203.1 L1129.4,203.9 L1129.7,203.8 L1130.1,203.7 L1130.4,203.7 L1130.7,203.7 L1130.9,203.7 L1131.4,203.9 L1131.5,203.9 L1131.7,204.0 L1132.3,204.3 L1132.5,204.3 L1133.8,204.0 L1134.8,206.6 L1136.5,208.2 L1137.0,207.4 L1137.1,207.4 L1137.3,207.4 L1137.5,206.7 L1139.2,204.8 L1139.5,204.3 L1140.1,200.8 L1141.0,198.5 L1141.8,196.0 L1142.3,194.4 L1142.9,192.3 L1144.1,188.3 L1144.3,186.8 L1144.5,186.8 L1145.3,184.0 L1145.9,182.7 L1146.4,182.7 L1146.7,182.7 L1146.8,182.1 L1146.9,182.1 L1147.2,179.6 L1147.8,177.9 L1148.0,177.2 L1148.3,176.6 L1149.8,170.2 L1150.2,168.7 L1150.4,168.1 L1150.6,167.1 L1151.1,164.7 L1151.4,164.7 L1151.5,164.4 L1151.7,164.4 L1152.4,163.7 L1152.7,162.8 L1153.1,162.4 L1153.3,160.7 L1154.1,159.3 L1154.4,158.3 L1155.1,157.8 L1155.4,157.4 L1155.8,156.7 L1156.0,155.8 L1156.1,155.3 L1156.7,154.3 L1156.9,153.7 L1157.4,152.3 L1158.6,149.0 L1159.2,147.1 L1159.9,145.4 L1160.3,143.7 L1160.7,143.2 L1161.2,142.6 L1161.7,141.5 L1162.8,139.9 L1163.1,139.2 L1163.5,138.7 L1164.2,138.4 L1164.6,137.9 L1165.0,137.8 L1165.8,137.6 L1166.2,137.6 L1167.3,136.9 L1168.9,134.2 L1169.3,134.2 L1169.5,134.2 L1170.7,133.7 L1171.4,133.7 L1174.5,131.9 L1176.1,131.7 L1176.6,131.7 L1178.1,131.5 L1179.4,131.0 L1179.6,130.8 L1179.8,130.7 L1180.2,130.5 L1180.8,130.3 L1181.4,129.9 L1181.6,129.6 L1182.1,129.5 L1182.1,129.5 L1182.3,129.2 L1182.4,129.0 L1182.7,128.6 L1183.0,128.5 L1184.0,127.8 L1184.3,127.6 L1184.4,127.3 L1185.2,126.0 L1185.8,125.3 L1186.2,125.4 L1187.3,125.6 L1187.8,125.6 L1188.4,125.6 L1188.8,125.7 L1189.1,125.9 L1189.5,125.9 L1189.7,125.9 L1192.6,124.7 L1194.0,124.7 L1195.1,125.3 L1196.0,127.2 L1196.5,128.3 L1197.2,130.9 L1198.2,133.2 L1198.8,134.5 L1199.3,135.9 L1199.8,136.2 L1200.3,137.5 L1200.7,137.5 L1201.4,138.4 L1201.8,138.8 L1202.5,139.8 L1202.9,140.6 L1203.6,141.8 L1205.0,143.9 L1205.5,144.5 L1206.0,144.9 L1206.7,145.1 L1207.0,145.1 L1207.4,145.1 L1208.8,146.3 L1211.4,150.7 L1212.7,152.9 L1213.7,154.2 L1214.0,154.4 L1214.4,155.0 L1214.7,155.0 L1215.7,155.8 L1216.2,156.1 L1216.6,157.7 L1216.9,158.7 L1217.5,160.6 L1218.1,160.6 L1218.4,160.8 L1219.0,162.1 L1219.2,163.0 L1219.5,163.6 L1219.7,164.5 L1220.0,164.5 L1221.3,169.8 L1221.7,170.8 L1223.4,173.1 L1223.7,173.0 L1223.9,173.0 L1224.1,173.2 L1224.8,173.5 L1225.4,175.0 L1225.7,175.0 L1226.0,175.5 L1226.3,175.9 L1226.9,176.9 L1227.6,177.5 L1227.9,178.3 L1228.4,181.0 L1228.7,181.8 L1229.1,183.7 L1229.3,184.6 L1230.4,187.5 L1230.7,188.8 L1231.1,188.8 L1231.5,191.4 L1231.9,193.5 L1232.2,194.8 L1232.8,194.8 L1233.3,196.8 L1233.8,200.0 L1234.5,202.8 L1235.8,209.9 L1236.5,212.5 L1236.8,213.5 L1237.2,213.5 L1237.6,215.0 L1237.9,215.6 L1238.1,216.1 L1238.4,216.1 L1238.7,217.4 L1239.2,217.4 L1240.0,221.0 L1240.4,221.8 L1240.7,222.1 L1241.1,222.6 L1242.0,224.1 L1242.2,224.1 L1242.3,224.1 L1242.5,224.1 L1242.6,224.7 L1242.8,225.1 L1243.1,225.7 L1243.9,226.5 L1244.7,227.1 L1245.2,228.7 L1245.7,231.7 L1246.9,235.7 L1248.0,239.5 L1248.5,240.4 L1249.6,241.0 L1249.8,242.6 L1249.9,242.6 L1250.7,243.3 L1251.6,247.1 L1252.4,248.6 L1252.8,250.0 L1253.6,253.0 L1253.9,253.0 L1254.2,253.7 L1254.9,254.6 L1255.8,257.9 L1256.0,257.9 L1256.7,259.9 L1257.7,262.2 L1258.3,262.2 L1259.0,264.8 L1260.2,266.9 L1261.0,268.1 L1261.6,268.1 L1261.9,268.8 L1262.6,268.8 L1263.4,269.3 L1264.5,269.1 L1265.6,270.3 L1267.4,275.8 L1267.7,275.8 L1268.4,276.9 L1268.8,276.9 L1268.9,277.5 L1269.4,277.5 L1271.6,284.5 L1273.3,288.9 L1273.4,289.5 L1273.9,290.3 L1274.1,290.3 L1275.1,291.7 L1275.9,291.8 L1276.0,291.8 L1276.1,292.3 L1276.2,292.8 L1276.2,292.8 L1277.0,293.2 L1277.2,293.2 L1277.5,293.2 L1277.8,293.3 L1278.1,293.5 L1278.8,293.4 L1280.3,293.1 L1280.6,293.1 L1281.0,293.0 L1281.3,293.1 L1281.9,293.8 L1282.2,294.1 L1282.6,294.1 L1282.8,294.4 L1283.3,294.6 L1283.7,295.0 L1284.3,295.5 L1284.5,295.5 L1284.8,296.3 L1285.4,297.0 L1285.7,297.9 L1286.0,298.5 L1287.0,299.1 L1287.3,299.4 L1288.1,299.6 L1288.3,299.6 L1288.5,299.7 L1288.8,299.8 L1289.0,299.9 L1289.7,299.8 L1290.3,299.7 L1291.0,299.6 L1291.3,299.3 L1291.6,299.1 L1292.0,299.0 L1292.3,299.0 L1292.9,298.5 L1293.2,298.0 L1293.8,297.9 L1294.1,297.7 L1295.6,297.1 L1295.8,296.8 L1296.6,296.3 L1296.8,296.3 L1297.1,296.2 L1297.6,296.2 L1298.7,296.9 L1300.1,296.0 L1301.0,295.7 L1301.5,295.7 L1302.1,295.7 L1302.8,295.7 L1303.1,295.6 L1303.5,295.6 L1304.5,295.6 L1305.6,295.5 L1306.1,295.5 L1306.7,295.5 L1307.1,295.5 L1307.6,295.1 L1310.2,293.1 L1310.5,292.4 L1310.9,292.1 L1311.2,292.1 L1311.6,291.8 L1311.9,291.8 L1312.4,291.9 L1313.0,291.7 L1313.5,291.5 L1314.0,291.2 L1314.9,291.0 L1315.2,290.8 L1315.4,290.8 L1316.0,290.6 L1316.3,290.7 L1317.5,290.1 L1317.8,289.7 L1317.9,289.5 L1318.6,289.3 L1319.7,288.7 L1320.0,288.7 L1320.4,288.2 L1320.8,287.3 L1322.9,286.8 L1323.2,286.6 L1323.8,286.2 L1324.9,285.1 L1326.6,284.2 L1327.5,284.6 L1328.1,284.6 L1329.3,284.5 L1329.9,284.0 L1330.1,284.0 L1330.5,283.6 L1331.7,282.9 L1332.2,282.5 L1332.6,282.5 L1332.9,281.6 L1333.5,281.1 L1334.4,281.5 L1334.7,281.3 L1335.9,281.7 L1336.5,281.6 L1336.9,281.5 L1337.3,281.6 L1337.6,281.7 L1338.7,281.7 L1339.2,282.0 L1339.3,282.1 L1339.4,282.1 L1339.9,282.2 L1341.8,281.7 L1341.9,281.8 L1342.2,281.6 L1342.3,281.6 L1343.8,281.5 L1344.1,281.5 L1344.6,280.3" fill="transparent" id="track" stroke="black" stroke-linejoin="miter" stroke-miterlimit="1" stroke-width="2"/>
<g>
<g>
<circle cx="401.57038102452333" cy="101.1687" fill="Blue" id="wp-184" r="5"/>
</g>
<rect fill="white" fill-opacity="0.75" height="12" id="label-bg" width="15.610526315789457" x="393.7651178666286" y="85.1687"/>
<text font-size="16.0" id="wp-184/text" text-anchor="start" x="393.765" y="97.169">
K1
</text>
<g>
<circle cx="971.5270477757737" cy="334.58804999999995" fill="Blue" id="wp-590" r="5"/>
</g>
<rect fill="white" fill-opacity="0.75" height="12" id="label-bg" width="15.610526315789457" x="963.7217846178789" y="338.58804999999995"/>
<text font-size="16.0" id="wp-590/text" text-anchor="start" x="963.722" y="350.588">
K2
</text>
<g>
<circle cx="401.920611394192" cy="100.77434999999997" fill="Black" id="wp-168" r="5"/>
<circle cx="401.920611394192" cy="100.77434999999997" fill="white" id="wp-168-little-white" r="3.5"/>
<circle cx="401.920611394192" cy="100.77434999999997" fill="black" id="wp-168-little-white" r="2.5"/>
</g>
<rect fill="white" fill-opacity="0.75" height="12" id="label-bg" width="80.03157894736842" x="317.8890324468236" y="104.77434999999997"/>
<text font-size="16.0" id="wp-168/text" text-anchor="end" x="397.921" y="116.774">
Furtwangen
</text>
<g>
<circle cx="967.918044709321" cy="332.72384999999997" fill="Black" id="wp-581" r="5"/>
<circle cx="967.918044709321" cy="332.72384999999997" fill="white" id="wp-581-little-white" r="3.5"/>
<circle cx="967.918044709321" cy="332.72384999999997" fill="black" id="wp-581-little-white" r="2.5"/>
</g>
<rect fill="white" fill-opacity="0.75" height="12" id="label-bg" width="137.44210526315794" x="899.196992077742" y="130"/>
<text font-size="16.0" id="wp-581/text" text-anchor="start" x="899.197" y="142.000">
Haslach im Kinzigtal
</text>
<g>
<circle cx="0.3771018456727384" cy="163.44015" fill="Black" id="wp-66" r="5"/>
<circle cx="0.3771018456727384" cy="163.44015" fill="white" id="wp-66-little-white" r="3.5"/>
<circle cx="0.3771018456727384" cy="163.44015" fill="black" id="wp-66-little-white" r="2.5"/>
</g>
<rect fill="white" fill-opacity="0.75" height="12" id="label-bg" width="82.30526315789474" x="4.377101845672739" y="167.44015"/>
<text font-size="16.0" id="wp-66/text" text-anchor="start" x="4.377" y="179.440">
Bräunlingen
</text>
<g>
<circle cx="588.4964094991706" cy="96.11385000000001" fill="Black" id="wp-367" r="4"/>
<circle cx="588.4964094991706" cy="96.11385000000001" fill="white" id="wp-367-little-white" r="2.5"/>
</g>
<rect fill="white" fill-opacity="0.75" height="12" id="label-bg" width="184.1473684210527" x="496.42272528864424" y="2"/>
<text font-size="16.0" id="wp-367/text" text-anchor="start" x="496.423" y="14.000">
Schonach im Schwarzwald
</text>
<g>
<circle cx="926.1692611571947" cy="320.03294999999997" fill="Black" id="wp-448" r="4"/>
<circle cx="926.1692611571947" cy="320.03294999999997" fill="white" id="wp-448-little-white" r="2.5"/>
</g>
<rect fill="white" fill-opacity="0.75" height="12" id="label-bg" width="83.34736842105269" x="930.1692611571947" y="304.03294999999997"/>
<text font-size="16.0" id="wp-448/text" text-anchor="start" x="930.169" y="316.033">
Mühlenbach
</text>
<g>
<circle cx="1006.4607300302691" cy="325.84065" fill="Black" id="wp-582" r="4"/>
<circle cx="1006.4607300302691" cy="325.84065" fill="white" id="wp-582-little-white" r="2.5"/>
</g>
<rect fill="white" fill-opacity="0.75" height="12" id="label-bg" width="83.34736842105258" x="1010.4607300302691" y="329.84065"/>
<text font-size="16.0" id="wp-582/text" text-anchor="start" x="1010.461" y="341.841">
Fischerbach
</text>
</g>
</g>
<g id="SL" transform="translate(0 0)">
<text text-anchor="end" x="66" y="363.5">
150
</text>
<text text-anchor="end" x="66" y="327.65">
250
</text>
<text text-anchor="end" x="66" y="291.79999999999995">
350
</text>
<text text-anchor="end" x="66" y="255.95">
450
</text>
<text text-anchor="end" x="66" y="220.1">
550
</text>
<text text-anchor="end" x="66" y="184.25">
650
</text>
<text text-anchor="end" x="66" y="148.39999999999998">
750
</text>
<text text-anchor="end" x="66" y="112.55000000000001">
850
</text>
<text text-anchor="end" x="66" y="76.69999999999999">
950
</text>
<text text-anchor="end" x="66" y="40.849999999999966">
1050
</text>
<text text-anchor="end" x="66" y="5">
1150
</text>
</g>
</g>
</svg>