<svg height="400" width="1420" xmlns="http://www.w3.org/2000/svg">
<g font-size="18" id="world" shape-rendering="crispEdges">
<g id="BG"/>
<g id="SB" transform="translate(71 360)">
<text text-anchor="middle" x="-0.08844064762001835" y="17">
90
</text>
<text text-anchor="middle" x="269.5868079454601" y="17">
110
</text>
<text text-anchor="middle" x="539.2620565385405" y="17">
130
</text>
<text text-anchor="middle" x="808.9373051316206" y="17">
150
</text>
<text text-anchor="middle" x="1078.6125537247008" y="17">
170
</text>
</g>
<g id="SD" transform="translate(71 0)">
<path d="M0,0 L1347.5,0" stroke="black" stroke-width="3"/>
<path d="M0,0 L0,358.5" stroke="black" stroke-width="3"/>
<path d="M0,358.5 L1347.5,358.5" stroke="black" stroke-width="3"/>
<path d="M1347.5,0 L1347.5,358.5" stroke="black" stroke-width="3"/>
<path d="M0,358.5 L1347.5,358.5" stroke="black" stroke-width="1"/>
<path d="M-0.08844065,0 L-0.08844065,358.5" stroke="black" stroke-width="1"/>
<path d="M269.58682,0 L269.58682,358.5" stroke="black" stroke-width="1"/>
<path d="M539.2621,0 L539.2621,358.5" stroke="black" stroke-width="1"/>
<path d="M808.9373,0 L808.9373,358.5" stroke="black" stroke-width="1"/>
<path d="M1078.6125,0 L1078.6125,358.5" stroke="black" stroke-width="1"/>
<path d="M134.74918,0 L134.74918,358.5" stroke="black" stroke-dasharray="1.0,2.5,5.0,5.0,10.0,5.0"/>
<path d="M404.42444,0 L404.42444,358.5" stroke="black" stroke-dasharray="1.0,2.5,5.0,5.0,10.0,5.0"/>
<path d="M674.0997,0 L674.0997,358.5" stroke="black" stroke-dasharray="1.0,2.5,5.0,5.0,10.0,5.0"/>
<path d="M943.7749,0 L943.7749,358.5" stroke="black" stroke-dasharray="1.0,2.5,5.0,5.0,10.0,5.0"/>
<path d="M1213.4502,0 L1213.4502,358.5" stroke="black" stroke-dasharray="1.0,2.5,5.0,5.0,10.0,5.0"/>
<path d="M0,358.5 L1347.5,358.5" stroke="black" stroke-width="1"/>
<path d="M0,318.66666 L1347.5,318.66666" stroke="black" stroke-width="1"/>
<path d="M0,278.83334 L1347.5,278.83334" stroke="black" stroke-width="1"/>
<path d="M0,239 L1347.5,239" stroke="black" stroke-width="1"/>
<path d="M0,199.16667 L1347.5,199.16667" stroke="black" stroke-width="1"/>
<path d="M0,159.33333 L1347.5,159.33333" stroke="black" stroke-width="1"/>
<path d="M0,119.5 L1347.5,119.5" stroke="black" stroke-width="1"/>
<path d="M0,79.666664 L1347.5,79.666664" stroke="black" stroke-width="1"/>
<path d="M0,39.833332 L1347.5,39.833332" stroke="black" stroke-width="1"/>
<path d="M0,0 L1347.5,0" stroke="black" stroke-width="1"/>
<path d="M0,338.58334 L1347.5,338.58334" stroke="black" stroke-dasharray="1.0,2.5,5.0,5.0,10.0,5.0"/>
<path d="M0,298.75 L1347.5,298.75" stroke="black" stroke-dasharray="1.0,2.5,5.0,5.0,10.0,5.0"/>
<path d="M0,258.91666 L1347.5,258.91666" stroke="black" stroke-dasharray="1.0,2.5,5.0,5.0,10.0,5.0"/>
<path d="M0,219.08333 L1347.5,219.08333" stroke="black" stroke-dasharray="1.0,2.5,5.0,5.0,10.0,5.0"/>
<path d="M0,179.25 L1347.5,179.25" stroke="black" stroke-dasharray="1.0,2.5,5.0,5.0,10.0,5.0"/>
<path d="M0,139.41667 L1347.5,139.41667" stroke="black" stroke-dasharray="1.0,2.5,5.0,5.0,10.0,5.0"/>
<path d="M0,99.583336 L1347.5,99.583336" stroke="black" stroke-dasharray="1.0,2.5,5.0,5.0,10.0,5.0"/>
<path d="M0,59.75 L1347.5,59.75" stroke="black" stroke-dasharray="1.0,2.5,5.0,5.0,10.0,5.0"/>
<path d="M0,19.916666 L1347.5,19.916666" stroke="black" stroke-dasharray="1.0,2.5,5.0,5.0,10.0,5.0"/>
<path d="M0.0,151.4 L0.4,151.6 L0.8,152.3 L1.0,152.3 L2.0,153.1 L2.5,153.5 L3.0,155.3 L3.2,156.4 L3.9,158.5 L4.5,158.5 L4.8,158.7 L5.3,160.2 L5.5,161.2 L5.8,161.9 L6.1,162.8 L6.4,162.8 L7.6,168.7 L8.0,169.8 L9.8,172.5 L10.1,172.3 L10.2,172.3 L10.5,172.5 L11.2,172.9 L11.7,174.5 L12.0,174.5 L12.3,175.0 L12.6,175.5 L13.2,176.6 L13.9,177.3 L14.3,178.2 L14.7,181.2 L15.0,182.1 L15.4,184.2 L15.7,185.2 L16.8,188.4 L17.0,189.9 L17.4,189.9 L17.8,192.8 L18.2,195.1 L18.5,196.6 L19.1,196.6 L19.6,198.8 L20.2,202.3 L20.8,205.4 L22.1,213.3 L22.8,216.2 L23.2,217.3 L23.5,217.3 L24.0,219.0 L24.3,219.6 L24.5,220.2 L24.7,220.2 L25.0,221.7 L25.5,221.7 L26.4,225.7 L26.7,226.5 L27.1,226.8 L27.4,227.5 L28.4,229.1 L28.5,229.1 L28.6,229.1 L28.8,229.1 L29.0,229.8 L29.1,230.1 L29.4,230.8 L30.2,231.7 L31.0,232.4 L31.6,234.2 L32.0,237.5 L33.3,241.9 L34.4,246.2 L34.8,247.2 L36.0,247.9 L36.1,249.7 L36.3,249.7 L37.0,250.4 L37.9,254.7 L38.8,256.3 L39.2,257.9 L40.0,261.2 L40.3,261.2 L40.5,262.0 L41.2,262.9 L42.2,266.6 L42.3,266.6 L43.1,268.9 L44.0,271.4 L44.6,271.4 L45.3,274.3 L46.5,276.7 L47.3,278.0 L47.9,278.0 L48.3,278.8 L49.0,278.8 L49.7,279.3 L50.9,279.1 L51.9,280.5 L53.7,286.5 L54.1,286.5 L54.8,287.8 L55.2,287.8 L55.3,288.4 L55.7,288.4 L58.0,296.1 L59.6,301.1 L59.8,301.7 L60.3,302.6 L60.4,302.6 L61.5,304.2 L62.2,304.3 L62.3,304.3 L62.4,304.8 L62.5,305.4 L62.6,305.4 L63.3,305.8 L63.6,305.8 L63.9,305.8 L64.2,306.0 L64.4,306.2 L65.2,306.1 L66.7,305.7 L66.9,305.7 L67.3,305.7 L67.7,305.8 L68.3,306.5 L68.5,306.9 L69.0,306.9 L69.2,307.2 L69.6,307.4 L70.0,307.9 L70.6,308.5 L70.9,308.5 L71.1,309.3 L71.7,310.1 L72.0,311.1 L72.4,311.7 L73.3,312.4 L73.6,312.8 L74.5,313.0 L74.6,313.0 L74.9,313.1 L75.1,313.2 L75.4,313.3 L76.1,313.2 L76.7,313.1 L77.3,313.0 L77.7,312.7 L78.0,312.4 L78.3,312.3 L78.7,312.3 L79.3,311.7 L79.5,311.2 L80.1,311.1 L80.5,310.9 L81.9,310.2 L82.1,309.9 L82.9,309.3 L83.2,309.3 L83.4,309.2 L84.0,309.2 L85.0,310.0 L86.5,309.0 L87.4,308.7 L87.8,308.6 L88.5,308.7 L89.1,308.7 L89.4,308.5 L89.8,308.5 L90.8,308.5 L91.9,308.4 L92.4,308.4 L93.0,308.5 L93.5,308.5 L94.0,308.0 L96.5,305.7 L96.8,305.0 L97.2,304.6 L97.5,304.6 L98.0,304.3 L98.2,304.3 L98.8,304.4 L99.4,304.2 L99.9,304.0 L100.3,303.7 L101.3,303.4 L101.5,303.2 L101.8,303.2 L102.3,302.9 L102.7,303.1 L103.8,302.5 L104.1,302.0 L104.3,301.8 L105.0,301.5 L106.0,300.9 L106.3,300.9 L106.7,300.3 L107.1,299.3 L109.3,298.8 L109.6,298.5 L110.1,298.1 L111.2,296.8 L113.0,295.8 L113.8,296.4 L114.4,296.3 L115.6,296.2 L116.3,295.6 L116.5,295.6 L116.8,295.2 L118.1,294.5 L118.5,293.9 L118.9,293.9 L119.3,293.0 L119.8,292.4 L120.7,292.9 L121.0,292.7 L122.3,293.1 L122.8,293.0 L123.2,292.8 L123.7,293.0 L123.9,293.1 L125.0,293.1 L125.5,293.4 L125.7,293.6 L125.7,293.6 L126.3,293.7 L128.2,293.1 L128.2,293.2 L128.5,293.0 L128.6,293.0 L130.1,292.9 L130.5,292.9 L131.0,291.6 L133.7,291.1 L133.8,291.1 L134.3,290.5 L135.3,290.2 L135.5,290.2 L136.0,289.8 L136.1,289.8 L136.5,289.6 L136.9,288.7 L138.0,287.8 L138.6,287.0 L139.2,285.5 L140.1,285.8 L141.9,285.9 L142.5,286.2 L143.3,286.5 L143.8,286.2 L144.3,286.1 L144.7,285.7 L145.1,285.4 L145.4,284.6 L146.1,283.4 L146.5,282.4 L146.7,281.2 L147.1,280.2 L147.8,279.6 L148.0,279.2 L148.4,279.0 L148.8,278.9 L149.2,278.3 L149.8,278.1 L150.3,279.0 L150.8,279.6 L151.4,280.5 L152.1,282.5 L152.6,283.2 L152.8,283.2 L152.9,283.2 L153.2,283.3 L153.4,283.0 L153.9,282.9 L154.1,282.8 L154.5,282.8 L155.7,281.4 L156.0,278.4 L156.5,277.8 L157.8,274.9 L158.4,273.6 L158.5,273.2 L158.6,273.2 L159.3,271.2 L160.8,270.7 L161.2,270.6 L162.3,269.9 L162.7,269.9 L165.6,264.8 L166.3,264.2 L166.7,262.7 L167.0,261.3 L167.3,261.3 L167.8,261.2 L168.1,261.2 L169.1,260.4 L169.3,260.4 L169.4,260.0 L169.5,260.0 L169.7,260.0 L170.0,258.8 L170.6,257.7 L171.8,256.0 L172.7,254.9 L173.2,254.1 L173.5,253.5 L173.8,253.5 L174.3,253.4 L174.5,253.0 L174.8,253.0 L175.2,252.2 L175.7,251.7 L175.8,251.7 L176.2,251.2 L176.6,250.9 L177.6,250.1 L177.8,250.1 L178.1,249.7 L178.7,249.0 L178.8,249.0 L179.0,248.6 L179.1,248.6 L179.5,248.0 L179.7,247.9 L179.9,247.8 L180.7,247.3 L180.9,247.0 L181.4,247.0 L181.6,246.9 L181.8,246.6 L182.0,246.6 L182.3,246.3 L182.4,246.1 L183.0,243.3 L183.2,243.3 L183.4,242.5 L185.2,238.4 L185.4,238.4 L185.5,238.4 L186.1,237.4 L186.6,236.7 L186.9,236.5 L187.3,236.2 L187.6,236.2 L188.3,236.1 L189.1,235.1 L189.5,233.9 L189.9,232.8 L190.5,231.5 L191.2,229.7 L191.8,227.8 L192.4,226.2 L193.9,223.3 L194.2,222.9 L194.4,222.4 L194.7,221.3 L194.8,221.0 L195.4,220.1 L195.7,219.8 L196.0,219.5 L196.9,218.0 L197.1,217.2 L197.3,217.2 L197.5,216.7 L197.7,216.2 L198.3,215.7 L198.5,215.4 L199.0,215.0 L199.4,215.0 L199.8,214.5 L200.3,213.3 L200.6,213.0 L200.8,213.0 L201.1,212.4 L201.4,211.0 L202.3,209.2 L202.7,208.4 L203.0,208.4 L203.7,206.2 L203.9,205.0 L204.0,205.0 L204.1,204.4 L204.3,204.4 L204.6,204.4 L205.3,203.5 L206.1,201.8 L206.5,201.2 L207.3,197.6 L208.6,196.9 L209.3,195.9 L209.9,195.7 L211.2,194.2 L211.7,193.7 L212.1,192.9 L213.1,192.7 L213.4,192.7 L214.6,190.7 L216.2,187.4 L217.3,187.4 L217.9,186.3 L218.4,185.4 L218.5,185.4 L218.6,185.4 L218.9,184.6 L220.1,183.5 L220.6,181.2 L221.6,176.1 L223.0,174.1 L223.2,174.1 L223.4,173.6 L223.5,173.6 L223.5,173.6 L223.6,173.6 L224.3,173.1 L225.1,173.5 L225.6,173.3 L225.7,173.3 L226.5,173.1 L227.2,172.6 L227.3,172.6 L227.4,172.6 L227.6,172.6 L228.1,172.2 L228.7,171.0 L229.3,170.5 L230.8,165.7 L230.9,165.2 L231.0,165.2 L231.3,165.2 L231.5,164.7 L232.1,163.3 L232.3,163.3 L232.6,162.9 L232.9,162.2 L234.4,157.4 L234.7,157.0 L235.1,155.2 L235.5,154.4 L235.7,154.0 L236.6,153.6 L237.0,153.6 L237.3,153.2 L237.6,152.7 L237.8,152.7 L238.1,152.2 L238.7,151.6 L238.9,151.6 L242.1,144.0 L242.7,142.9 L243.3,142.9 L243.8,142.1 L244.1,141.2 L244.4,139.9 L244.7,139.4 L246.1,137.3 L246.6,136.8 L246.8,136.4 L247.1,136.6 L247.3,136.5 L247.5,136.5 L247.9,136.5 L248.1,136.8 L248.3,137.1 L248.7,137.8 L249.6,139.5 L249.9,139.8 L250.1,140.2 L250.7,141.1 L250.9,141.6 L251.0,142.0 L251.2,142.0 L251.4,142.3 L251.6,142.3 L252.1,142.3 L252.9,143.5 L253.5,143.8 L255.4,146.4 L256.3,149.2 L256.7,149.8 L257.1,150.5 L257.5,151.2 L257.7,151.6 L258.6,152.8 L258.9,152.8 L259.1,153.9 L259.5,154.5 L259.8,155.0 L260.4,155.9 L260.6,156.7 L260.9,156.7 L261.0,156.7 L261.8,157.3 L262.7,160.6 L263.3,161.9 L263.8,164.2 L264.8,168.1 L265.0,168.1 L265.3,168.1 L265.7,168.9 L266.5,171.6 L266.7,171.6 L266.8,171.9 L267.0,171.9 L267.3,171.9 L268.5,173.3 L268.8,173.8 L269.4,174.7 L270.5,177.5 L270.8,177.5 L271.5,179.2 L272.5,182.0 L273.1,182.9 L273.7,186.1 L274.6,187.7 L274.8,188.4 L275.1,188.4 L275.6,189.7 L275.9,190.7 L277.0,191.0 L277.4,191.7 L277.9,193.3 L278.1,193.8 L278.2,193.8 L278.3,194.0 L278.4,194.0 L278.5,194.5 L280.2,196.7 L280.7,197.9 L281.2,201.3 L281.8,203.4 L282.0,203.4 L282.2,203.4 L283.0,207.5 L283.9,210.9 L284.2,211.8 L285.1,215.3 L285.2,215.3 L285.5,215.3 L285.8,216.9 L286.0,217.5 L286.3,217.5 L287.5,220.1 L288.5,222.2 L288.7,222.5 L289.3,225.1 L289.7,225.1 L290.3,226.2 L291.7,232.4 L293.2,242.4 L294.2,242.1 L294.6,242.9 L294.7,242.9 L294.9,242.9 L295.3,243.0 L295.9,244.0 L296.5,244.5 L296.9,244.6 L297.2,244.6 L297.7,245.1 L298.0,246.5 L298.2,246.5 L298.4,247.1 L299.2,247.9 L300.3,251.2 L300.5,251.8 L300.6,251.8 L301.1,254.0 L301.6,255.6 L302.6,256.5 L302.8,257.0 L303.5,259.0 L303.5,259.0 L304.0,259.5 L304.0,259.8 L304.2,259.8 L305.2,260.7 L305.4,261.0 L305.6,261.8 L306.1,261.8 L306.7,263.6 L307.1,265.4 L308.2,266.6 L308.8,267.6 L309.7,268.5 L310.1,269.2 L311.4,269.9 L311.6,270.2 L311.8,270.5 L313.0,270.0 L313.5,269.9 L314.3,270.1 L314.8,270.6 L315.0,270.6 L315.3,270.8 L315.6,270.9 L315.9,271.1 L316.5,271.0 L316.7,271.1 L317.2,271.0 L317.5,271.1 L318.0,271.6 L318.1,271.9 L318.6,272.9 L319.4,274.3 L320.0,275.5 L320.3,276.1 L320.5,276.1 L321.0,277.0 L321.2,277.4 L321.5,277.7 L322.0,278.7 L322.2,279.5 L322.6,279.8 L322.7,280.3 L323.3,281.1 L323.8,281.4 L324.2,281.7 L324.3,281.7 L324.4,281.7 L324.4,281.7 L324.8,281.9 L324.8,281.9 L325.0,282.0 L325.1,282.0 L325.4,282.0 L325.6,282.1 L326.4,282.0 L327.7,281.0 L328.7,279.8 L329.6,278.8 L329.8,278.8 L330.1,278.8 L330.4,278.5 L330.9,278.1 L331.4,277.7 L331.6,277.4 L331.9,277.1 L333.1,276.2 L333.6,275.1 L333.7,275.1 L334.3,274.7 L335.9,274.3 L336.2,274.3 L336.6,274.1 L337.3,273.2 L337.6,273.2 L338.0,273.2 L338.3,272.0 L338.4,272.0 L339.3,271.3 L339.9,271.3 L340.8,269.0 L340.9,269.0 L343.3,263.9 L345.3,264.6 L345.5,264.6 L345.9,265.2 L346.4,265.3 L347.2,265.1 L347.7,265.1 L348.0,264.9 L348.2,265.5 L348.3,265.5 L349.1,265.2 L349.3,264.6 L349.7,263.8 L350.1,263.4 L350.4,263.1 L351.1,261.7 L351.9,261.2 L352.1,261.0 L352.3,260.6 L352.6,260.0 L353.4,258.9 L353.8,258.6 L354.1,258.4 L354.3,258.4 L354.8,258.0 L355.1,257.9 L355.6,257.7 L356.1,257.5 L357.0,256.4 L357.3,256.2 L357.5,256.2 L357.8,256.1 L358.2,256.1 L359.1,256.6 L360.0,256.5 L360.8,256.2 L361.0,256.2 L361.9,256.0 L362.5,255.3 L363.4,254.8 L363.5,254.6 L364.3,254.3 L364.7,254.1 L364.9,254.1 L365.1,254.1 L365.4,254.0 L365.6,254.0 L365.7,254.0 L366.0,254.0 L366.4,253.6 L366.6,253.6 L367.1,253.5 L368.0,253.3 L369.0,252.7 L369.2,252.3 L369.8,252.0 L370.6,251.9 L370.9,251.5 L371.3,251.4 L371.6,251.2 L371.7,251.0 L371.9,251.0 L372.2,250.7 L372.8,250.3 L373.1,250.1 L373.5,249.7 L373.6,249.7 L373.7,249.4 L374.0,249.2 L374.8,248.6 L375.1,248.1 L375.6,247.3 L376.1,246.8 L376.4,246.2 L376.6,245.5 L376.8,245.2 L377.8,243.8 L377.8,243.4 L378.1,243.4 L378.6,243.1 L379.2,240.6 L379.9,239.4 L380.3,238.7 L381.5,234.0 L381.7,234.0 L382.8,230.1 L383.7,228.6 L383.9,227.6 L385.2,225.0 L385.4,225.0 L385.6,224.0 L386.5,221.8 L387.4,218.9 L388.8,214.2 L389.3,213.4 L389.7,212.6 L390.4,210.4 L391.0,209.6 L392.0,207.2 L392.8,204.8 L393.1,204.1 L393.6,203.6 L394.0,203.0 L394.8,202.3 L395.0,202.0 L395.2,202.0 L395.3,202.0 L395.4,202.0 L395.5,202.0 L395.6,201.7 L395.8,201.4 L396.6,199.8 L396.8,199.6 L397.0,199.6 L397.6,198.6 L398.4,194.5 L398.5,194.0 L398.9,193.3 L399.1,193.3 L399.8,189.6 L400.6,187.7 L401.0,186.0 L401.4,184.0 L402.0,182.3 L402.3,182.3 L402.6,181.8 L403.2,181.1 L403.3,180.4 L403.4,180.1 L403.5,180.1 L404.0,179.8 L404.3,179.1 L405.6,177.9 L405.7,177.9 L405.8,177.9 L405.9,177.5 L406.0,177.3 L406.7,175.4 L407.1,173.5 L409.1,164.8 L409.7,163.4 L410.1,162.5 L410.3,162.5 L410.4,162.6 L410.6,162.6 L410.8,162.6 L411.2,162.5 L411.8,162.0 L412.1,162.0 L412.6,161.7 L413.1,161.1 L413.7,159.9 L413.8,159.9 L413.9,159.8 L414.1,159.8 L415.0,159.0 L415.2,159.0 L415.2,159.0 L415.4,158.7 L415.5,158.7 L415.8,158.3 L416.0,158.3 L416.2,158.3 L416.3,158.3 L417.2,154.7 L419.1,146.2 L419.4,145.3 L419.8,144.9 L420.2,144.2 L421.2,142.3 L421.6,142.3 L421.7,142.3 L421.9,141.9 L422.0,141.9 L422.1,141.5 L423.0,139.4 L423.2,139.4 L423.6,139.4 L425.1,129.2 L426.3,127.5 L426.4,127.6 L426.5,127.6 L426.6,127.6 L426.7,127.6 L427.0,127.5 L427.3,127.2 L428.5,126.5 L428.6,126.5 L428.7,126.5 L428.9,126.5 L428.9,126.5 L429.0,126.3 L429.4,125.6 L429.8,125.6 L431.1,124.3 L431.8,116.7 L433.3,113.1 L434.1,112.2 L434.3,112.2 L434.6,111.5 L434.9,111.5 L436.1,110.5 L437.2,109.3 L438.5,105.2 L439.3,104.2 L439.9,101.9 L440.3,101.9 L440.8,101.9 L442.6,98.7 L443.7,91.6 L445.3,88.4 L445.7,88.4 L446.8,87.3 L447.8,85.8 L450.2,79.1 L451.0,77.2 L452.1,77.2 L452.3,76.4 L452.7,75.8 L453.4,74.6 L454.8,72.3 L455.2,70.6 L455.5,69.7 L457.2,67.2 L457.6,65.9 L458.8,63.7 L459.6,63.7 L460.0,62.5 L460.5,61.4 L462.4,60.2 L462.9,59.6 L463.8,58.1 L464.2,58.1 L466.5,56.7 L467.0,55.0 L467.9,55.0 L471.6,53.4 L471.8,53.3 L471.9,53.3 L472.0,53.3 L472.1,53.3 L472.5,53.4 L473.4,53.6 L473.5,53.6 L473.9,53.6 L474.5,53.9 L475.0,54.2 L475.4,54.4 L475.5,54.4 L475.9,55.1 L476.8,55.9 L477.1,55.9 L478.3,56.7 L478.4,56.7 L478.5,56.7 L478.9,57.1 L479.1,57.1 L483.1,60.0 L483.8,59.6 L484.0,59.6 L484.9,59.6 L485.9,59.7 L486.3,59.7 L486.5,59.7 L487.9,60.3 L488.5,60.3 L489.4,62.4 L490.0,62.4 L491.5,64.0 L493.1,64.1 L493.4,64.1 L493.9,64.1 L494.6,63.4 L494.9,63.1 L495.5,62.9 L496.6,62.0 L497.0,61.6 L497.4,61.1 L497.8,60.7 L498.3,60.3 L499.3,60.1 L499.6,60.2 L499.9,60.0 L500.2,59.9 L500.5,59.7 L502.1,59.6 L504.2,59.9 L504.4,59.7 L505.1,59.3 L505.7,59.1 L506.9,58.8 L507.6,58.4 L508.2,58.0 L508.9,57.7 L509.6,57.6 L510.5,58.0 L511.7,58.4 L512.1,58.4 L512.7,59.1 L512.9,59.1 L513.8,60.2 L515.4,62.1 L516.1,62.9 L516.3,63.0 L516.7,63.2 L517.0,63.2 L517.6,63.6 L518.1,63.6 L518.4,63.8 L518.9,63.9 L520.3,64.6 L524.4,72.7 L524.8,74.7 L525.5,75.7 L526.3,76.7 L526.5,76.7 L527.4,78.4 L527.7,78.9 L528.0,78.9 L528.3,79.5 L528.7,79.5 L529.2,80.4 L529.3,80.4 L529.8,80.4 L532.8,90.7 L533.3,92.2 L533.7,92.9 L534.9,93.3 L535.3,93.3 L536.0,95.1 L536.4,95.1 L536.9,95.7 L537.5,95.7 L538.0,96.0 L538.4,96.0 L538.7,96.0 L539.2,96.4 L540.3,96.1 L540.9,96.4 L542.1,97.5 L542.4,97.5 L542.7,97.5 L543.0,97.5 L543.5,99.1 L544.0,99.5 L544.6,100.1 L546.0,105.6 L547.0,107.0 L547.5,107.4 L547.9,107.4 L548.4,107.4 L551.5,111.4 L551.8,113.3 L554.6,121.0 L554.9,121.9 L555.2,121.9 L556.1,121.9 L556.4,122.5 L556.5,122.5 L556.7,122.5 L556.8,122.5 L557.0,122.5 L559.0,124.2 L561.5,127.4 L562.2,127.1 L565.7,134.5 L566.2,136.1 L567.4,136.8 L567.9,137.3 L568.2,137.8 L568.8,138.9 L568.9,139.3 L569.2,139.3 L569.5,140.0 L569.7,140.0 L570.1,140.0 L570.4,140.1 L570.7,140.3 L570.9,140.5 L571.9,143.4 L574.4,150.0 L575.5,150.9 L576.3,150.9 L576.7,150.9 L577.0,150.9 L577.1,150.8 L577.2,150.8 L577.4,150.8 L577.5,150.8 L577.6,150.8 L577.9,150.8 L580.7,158.5 L581.2,159.5 L581.5,159.5 L582.1,160.8 L582.7,161.5 L583.3,161.5 L584.3,163.9 L584.8,163.9 L585.3,165.2 L586.2,167.0 L587.7,168.3 L588.3,168.8 L588.5,168.8 L589.3,170.0 L589.6,170.0 L590.2,170.7 L590.4,171.2 L591.2,171.7 L591.7,171.7 L592.4,172.7 L592.7,172.7 L593.0,173.1 L596.5,177.6 L597.1,178.9 L597.6,179.2 L599.7,180.3 L600.1,180.7 L600.5,181.0 L601.7,181.1 L601.9,181.1 L602.1,181.1 L602.7,181.1 L603.1,181.0 L603.3,181.0 L603.8,181.1 L604.8,181.0 L605.1,181.0 L605.4,180.9 L605.9,180.9 L606.1,180.8 L606.4,180.8 L609.1,185.4 L609.3,186.1 L609.6,185.9 L609.9,185.9 L610.2,185.9 L611.5,186.0 L612.0,186.2 L612.4,186.6 L613.0,187.0 L614.1,187.7 L614.9,188.7 L615.4,189.5 L615.9,191.1 L616.3,191.1 L617.5,192.4 L618.0,192.6 L618.3,192.8 L618.5,193.1 L618.6,193.1 L619.3,193.9 L620.0,193.9 L620.2,193.9 L621.1,195.0 L621.5,195.5 L623.2,196.9 L624.7,198.0 L625.1,198.1 L625.3,198.1 L626.1,198.4 L626.2,198.4 L626.5,198.4 L626.8,198.4 L627.6,198.4 L628.2,198.4 L630.7,199.1 L631.6,199.0 L632.4,198.8 L633.1,198.8 L633.4,198.9 L633.6,198.9 L634.0,198.9 L634.7,199.3 L635.3,199.5 L635.8,199.5 L636.8,199.7 L637.0,199.7 L637.1,199.7 L637.2,199.7 L637.5,199.8 L637.7,199.8 L637.9,199.8 L638.0,199.8 L638.0,199.9 L638.4,199.9 L638.6,199.9 L639.3,199.8 L640.7,199.6 L641.6,199.0 L641.9,199.0 L641.9,199.0 L643.3,197.9 L644.1,197.4 L644.6,196.2 L645.7,194.5 L646.5,193.1 L647.4,191.3 L647.8,191.3 L648.2,190.7 L648.5,189.8 L648.8,189.8 L649.5,188.7 L649.9,188.7 L650.6,187.9 L650.9,187.4 L651.9,186.4 L654.7,178.5 L655.9,176.5 L656.5,176.2 L656.8,176.2 L657.2,176.2 L657.5,175.6 L658.9,175.1 L662.8,164.9 L663.1,163.3 L663.6,162.7 L664.0,161.8 L664.4,161.0 L664.6,160.6 L666.1,160.3 L666.3,160.1 L666.6,160.1 L666.7,160.0 L666.9,160.0 L667.1,160.0 L667.3,159.8 L668.0,159.7 L668.2,159.6 L668.4,159.6 L668.6,159.6 L668.9,159.4 L669.8,160.0 L670.5,159.8 L670.9,158.7 L671.6,156.5 L672.5,153.7 L672.9,153.5 L673.2,153.2 L673.4,153.2 L674.1,152.8 L674.3,152.4 L674.4,152.4 L674.6,152.4 L674.7,152.1 L675.0,152.1 L675.2,152.1 L675.4,151.5 L676.9,150.5 L677.4,151.1 L677.9,148.4 L680.2,145.1 L680.5,145.1 L681.2,142.9 L681.7,140.6 L683.7,137.3 L683.9,136.5 L684.1,136.5 L684.4,136.6 L684.6,136.0 L684.8,136.1 L685.0,136.1 L685.3,136.3 L685.5,136.3 L686.8,136.0 L687.2,136.0 L687.5,135.7 L687.9,136.0 L688.4,136.5 L689.9,133.4 L691.8,131.0 L692.0,131.0 L692.9,131.0 L693.3,131.0 L693.8,130.9 L694.4,130.9 L694.9,131.3 L695.4,131.0 L696.1,130.5 L696.7,129.7 L697.2,129.2 L697.6,128.7 L698.2,128.3 L699.2,126.8 L701.5,119.0 L702.3,117.4 L702.7,116.9 L702.9,116.3 L703.2,116.3 L703.4,116.3 L703.6,116.3 L703.8,116.3 L704.1,116.3 L704.3,115.4 L704.7,115.3 L705.1,114.8 L705.6,114.2 L706.8,111.9 L707.0,111.9 L707.2,111.7 L707.4,111.6 L708.1,111.6 L708.7,111.6 L709.2,111.6 L710.2,111.2 L710.6,110.9 L711.0,110.8 L711.5,110.9 L712.0,110.3 L712.5,109.8 L712.9,109.2 L713.2,109.2 L714.6,107.1 L714.9,106.5 L715.4,105.5 L715.9,104.1 L716.5,104.1 L717.1,103.7 L717.8,103.2 L718.6,102.8 L719.7,102.2 L722.9,98.7 L726.8,91.4 L727.3,89.7 L727.7,89.1 L728.0,89.1 L728.5,89.1 L729.5,88.4 L729.8,88.1 L730.2,87.2 L731.0,86.1 L731.2,85.4 L731.9,85.2 L732.2,85.1 L732.4,84.9 L732.6,84.8 L732.8,84.8 L733.2,84.7 L733.4,84.6 L733.8,84.4 L734.2,84.1 L734.4,84.1 L734.7,83.9 L734.8,83.9 L735.0,83.7 L735.2,83.7 L736.0,83.6 L737.2,83.5 L737.7,83.2 L738.2,82.2 L738.6,81.8 L739.2,81.2 L739.7,81.2 L740.4,80.1 L740.6,80.1 L740.9,79.7 L741.7,79.3 L742.7,78.6 L742.8,78.3 L743.4,76.9 L744.4,75.9 L744.5,75.9 L745.4,75.7 L745.7,75.6 L745.9,75.5 L745.9,75.5 L746.1,75.3 L746.4,75.2 L746.5,75.2 L746.8,75.2 L746.9,75.2 L747.0,75.2 L747.3,74.9 L748.4,75.2 L748.9,75.3 L749.3,75.5 L749.9,75.7 L750.1,75.7 L750.5,76.6 L750.8,76.6 L753.2,81.3 L754.5,85.1 L755.2,85.1 L756.6,87.0 L758.9,91.6 L759.4,92.7 L760.0,93.1 L760.5,93.1 L761.0,93.4 L761.8,94.0 L762.6,94.3 L763.5,94.7 L763.9,94.8 L764.5,94.8 L764.7,94.8 L764.9,94.8 L765.2,94.7 L765.4,94.6 L765.7,94.6 L766.0,94.4 L766.1,94.2 L766.4,94.1 L766.7,93.8 L767.2,93.8 L767.9,93.3 L768.5,92.6 L768.8,92.4 L769.3,91.9 L770.0,90.7 L770.7,90.0 L771.4,89.4 L772.0,88.9 L772.6,88.4 L773.1,86.9 L773.6,86.6 L774.7,83.9 L775.5,83.4 L775.7,83.4 L776.4,82.5 L776.9,81.8 L777.2,81.8 L779.2,77.6 L780.1,75.3 L780.5,75.3 L780.9,75.3 L781.8,75.3 L782.6,74.9 L785.3,70.3 L785.9,70.0 L786.1,69.9 L786.4,69.9 L786.6,69.9 L787.0,69.9 L787.3,69.9 L787.9,69.6 L788.6,69.8 L790.6,66.2 L791.7,65.0 L792.5,64.6 L792.7,64.2 L793.2,63.4 L794.3,62.2 L794.6,62.0 L794.9,61.8 L795.3,61.5 L795.5,61.3 L795.8,61.2 L796.2,60.8 L796.5,60.8 L796.8,60.8 L797.4,60.1 L798.5,59.1 L798.8,59.0 L800.2,58.2 L801.0,58.0 L801.7,57.2 L802.4,57.2 L803.3,57.6 L804.0,57.7 L805.3,57.9 L805.8,57.9 L806.2,58.2 L806.7,58.2 L807.9,58.4 L810.7,57.1 L811.4,57.4 L811.9,57.4 L812.2,57.4 L812.6,57.5 L812.8,57.5 L812.9,57.6 L813.3,57.6 L813.5,57.8 L813.8,57.8 L814.0,57.8 L815.1,58.4 L815.5,58.9 L817.6,62.6 L817.7,62.6 L818.0,63.1 L819.4,64.9 L819.8,64.9 L820.0,64.9 L821.1,69.1 L823.3,78.1 L823.8,79.6 L824.0,79.6 L825.0,80.8 L825.3,80.8 L825.6,80.8 L825.9,80.8 L826.4,82.0 L826.9,83.5 L827.2,83.5 L827.6,83.9 L829.0,86.2 L829.5,87.2 L830.1,88.0 L830.9,89.5 L831.1,89.5 L831.5,89.5 L832.2,90.0 L833.1,91.1 L836.2,103.8 L838.1,105.4 L838.3,105.4 L838.5,105.6 L838.6,105.8 L838.7,105.8 L838.8,105.8 L839.1,106.1 L839.6,106.5 L839.7,106.5 L840.1,107.0 L840.3,107.0 L840.6,107.0 L840.8,107.1 L841.0,107.3 L841.3,107.4 L842.2,109.9 L842.6,110.6 L844.0,118.2 L844.5,118.2 L844.9,118.4 L845.4,119.8 L845.6,120.3 L846.0,120.3 L846.2,120.3 L846.3,120.7 L846.6,120.7 L847.3,122.8 L847.6,123.2 L847.8,123.2 L848.1,123.6 L848.2,123.6 L849.0,125.0 L849.5,126.8 L849.7,127.3 L849.9,127.3 L851.3,131.2 L851.7,131.7 L852.1,131.7 L852.4,133.0 L852.7,135.7 L853.1,136.2 L854.9,138.3 L855.2,139.3 L855.4,139.7 L855.6,140.2 L856.8,142.4 L857.3,142.4 L857.5,142.4 L857.7,142.7 L857.9,142.9 L858.3,144.2 L858.6,144.2 L859.0,144.9 L859.1,144.9 L860.9,151.4 L861.4,153.1 L861.9,157.2 L862.3,157.5 L862.7,158.2 L863.2,158.4 L864.2,159.6 L864.4,159.6 L864.6,159.6 L864.9,159.7 L865.1,159.7 L865.2,159.7 L865.3,159.7 L865.7,159.4 L866.0,159.5 L866.7,159.6 L867.3,159.4 L867.7,159.6 L868.0,159.7 L868.2,159.7 L868.6,159.6 L868.9,159.9 L869.8,161.2 L870.4,161.8 L870.6,162.3 L871.4,163.2 L871.6,163.4 L871.7,163.6 L871.8,163.6 L872.0,163.8 L872.3,163.8 L872.5,163.8 L872.7,164.0 L872.9,164.1 L873.2,164.2 L874.4,164.7 L874.6,165.1 L875.2,165.5 L875.4,165.6 L875.6,165.6 L875.7,165.7 L875.9,165.7 L876.3,165.9 L876.6,165.9 L876.8,166.0 L877.3,166.0 L877.5,166.0 L877.8,166.0 L878.1,166.0 L879.4,166.0 L880.6,165.6 L881.1,165.2 L881.5,165.1 L882.1,164.8 L883.5,162.9 L883.9,163.1 L884.2,163.3 L884.7,163.3 L885.2,163.7 L885.3,163.7 L885.4,163.7 L885.6,163.7 L885.8,164.4 L886.5,165.1 L886.8,166.0 L887.6,166.4 L888.3,172.3 L888.7,173.5 L889.4,174.5 L890.4,179.6 L890.9,179.6 L892.4,184.0 L892.7,184.5 L893.1,184.5 L893.9,186.9 L894.2,186.9 L894.8,186.9 L895.3,187.3 L895.8,188.2 L896.2,188.2 L896.6,188.3 L896.8,188.6 L898.0,189.2 L898.4,189.0 L899.0,188.9 L899.7,188.7 L900.2,188.8 L900.6,189.0 L901.1,189.2 L901.7,189.2 L902.3,189.4 L902.7,189.2 L903.1,189.2 L903.6,188.9 L903.8,188.9 L904.0,188.8 L904.6,189.0 L905.0,188.4 L905.3,187.9 L906.1,187.5 L906.6,186.3 L907.6,185.7 L908.0,185.2 L908.9,185.7 L909.3,187.3 L909.7,187.5 L910.0,188.2 L910.9,190.7 L911.8,192.5 L912.0,192.5 L912.6,194.1 L913.0,194.6 L913.6,194.9 L914.5,194.8 L914.8,195.7 L915.5,196.2 L916.6,195.8 L917.3,196.0 L918.0,196.9 L918.5,197.3 L918.8,197.3 L919.5,198.2 L920.1,198.0 L920.5,198.1 L921.8,198.3 L923.1,198.1 L924.2,198.5 L924.7,199.3 L925.0,199.8 L926.3,200.8 L926.9,201.1 L927.1,201.7 L927.4,201.8 L927.6,202.3 L927.9,202.9 L928.8,203.0 L929.5,203.6 L929.8,203.9 L930.0,204.2 L930.8,204.7 L931.6,205.9 L932.3,208.6 L932.6,209.6 L933.2,210.6 L933.5,211.0 L934.1,211.3 L934.3,211.7 L934.4,211.7 L934.6,211.7 L934.8,212.1 L935.0,213.0 L935.3,214.0 L935.9,214.7 L936.1,215.4 L936.8,216.2 L937.4,216.9 L937.6,217.0 L937.9,216.9 L938.4,216.8 L938.5,216.8 L938.7,217.2 L938.9,217.7 L939.2,217.7 L939.4,217.7 L940.3,217.8 L940.7,217.6 L941.5,216.7 L941.9,216.2 L942.4,216.1 L943.7,218.6 L944.1,218.6 L945.2,219.6 L945.5,219.6 L945.9,219.9 L946.1,219.9 L946.3,219.9 L947.7,220.5 L948.2,221.0 L949.3,220.9 L952.1,223.9 L952.4,224.9 L952.7,224.9 L953.3,224.9 L953.9,224.9 L957.1,224.8 L957.9,225.4 L959.6,225.4 L960.1,225.7 L963.3,227.8 L963.9,228.1 L965.2,229.4 L967.2,233.6 L968.3,234.3 L969.0,234.3 L973.2,235.1 L975.0,235.2 L977.1,235.2 L977.7,235.2 L978.1,235.1 L980.6,234.3 L980.9,234.3 L981.4,235.1 L981.8,236.1 L983.0,237.2 L983.4,238.4 L983.8,239.8 L984.4,241.7 L985.2,242.5 L985.8,244.3 L986.3,245.5 L986.7,246.2 L987.0,246.5 L988.1,246.8 L988.3,246.8 L988.6,246.9 L989.5,247.1 L989.6,247.1 L989.9,247.2 L990.4,247.3 L990.7,247.3 L991.0,247.2 L991.5,247.1 L992.6,247.6 L993.5,248.3 L994.6,248.8 L994.8,248.9 L995.0,248.9 L995.4,249.0 L995.8,249.3 L996.3,249.5 L997.2,249.7 L997.5,249.7 L998.2,249.9 L998.5,249.9 L999.3,250.4 L999.7,250.8 L1000.6,251.9 L1001.3,252.1 L1001.7,252.1 L1002.0,252.2 L1002.2,252.1 L1002.4,252.3 L1002.5,252.3 L1002.9,252.1 L1003.3,252.1 L1003.8,251.8 L1004.0,251.8 L1004.8,251.4 L1005.2,250.9 L1006.2,249.6 L1007.0,248.9 L1008.4,248.5 L1008.8,248.5 L1009.4,248.9 L1010.0,249.2 L1011.0,249.7 L1011.5,249.7 L1012.2,250.1 L1012.5,250.1 L1013.0,250.6 L1013.5,250.6 L1014.5,251.4 L1015.6,251.1 L1016.3,250.4 L1017.1,250.0 L1017.8,249.9 L1018.1,249.9 L1018.3,249.8 L1018.6,249.5 L1018.7,249.5 L1019.6,249.2 L1021.0,248.4 L1021.6,248.2 L1022.3,248.7 L1023.4,249.7 L1023.8,249.8 L1024.8,250.9 L1025.1,251.2 L1025.5,251.6 L1025.8,251.6 L1026.7,253.0 L1027.4,253.2 L1027.9,254.2 L1028.8,254.7 L1029.5,255.6 L1031.7,256.0 L1032.1,256.5 L1032.7,256.9 L1033.4,256.9 L1034.2,256.9 L1034.7,256.0 L1035.2,255.8 L1037.1,256.1 L1037.3,256.2 L1037.9,256.6 L1038.1,256.6 L1038.5,257.0 L1038.7,257.3 L1039.1,257.5 L1039.8,257.9 L1040.2,258.3 L1040.5,258.3 L1040.9,258.5 L1041.2,258.8 L1041.7,259.1 L1042.4,259.8 L1043.1,260.1 L1044.6,260.5 L1045.2,261.3 L1045.8,261.8 L1046.7,262.0 L1047.1,262.4 L1047.4,262.5 L1047.8,262.7 L1048.0,263.0 L1048.8,263.3 L1049.5,263.2 L1050.4,263.3 L1050.6,263.4 L1050.8,263.5 L1051.3,263.5 L1051.6,263.5 L1051.9,263.5 L1052.2,263.5 L1052.5,263.4 L1053.1,263.5 L1055.2,265.4 L1055.7,265.7 L1055.9,266.7 L1056.2,266.7 L1056.9,266.7 L1058.5,268.0 L1060.4,269.8 L1061.1,271.8 L1061.8,272.4 L1062.4,272.3 L1062.7,272.4 L1062.9,272.4 L1063.1,272.6 L1063.4,272.7 L1063.6,272.7 L1063.8,272.7 L1064.0,273.0 L1064.2,273.0 L1064.6,273.3 L1065.2,273.7 L1066.1,274.5 L1068.3,277.0 L1069.1,278.2 L1070.1,278.2 L1070.9,278.2 L1071.5,279.5 L1074.1,283.0 L1074.8,282.8 L1075.1,282.8 L1077.0,282.8 L1077.9,282.7 L1079.1,283.5 L1079.4,283.5 L1079.9,284.7 L1080.6,285.2 L1080.9,285.0 L1081.2,284.7 L1081.4,284.7 L1082.2,285.0 L1082.5,285.0 L1083.5,285.5 L1083.6,286.1 L1083.8,286.1 L1084.3,287.6 L1085.8,288.9 L1086.2,289.5 L1086.6,291.0 L1087.0,291.0 L1087.3,291.2 L1087.5,291.0 L1087.9,290.9 L1089.8,290.9 L1090.2,291.2 L1090.5,291.0 L1091.2,292.5 L1092.2,293.2 L1092.8,294.3 L1093.4,295.7 L1093.6,295.7 L1093.8,295.8 L1094.3,296.4 L1094.7,296.4 L1095.0,296.7 L1095.3,296.7 L1095.6,296.8 L1096.0,296.8 L1096.4,296.9 L1096.7,297.0 L1097.0,297.1 L1097.6,297.1 L1097.9,297.2 L1098.3,297.2 L1098.6,297.4 L1098.9,297.4 L1100.4,297.3 L1101.2,296.7 L1101.6,296.7 L1102.3,296.8 L1103.3,296.5 L1103.6,296.5 L1104.1,296.4 L1104.9,296.2 L1105.4,296.8 L1105.8,297.2 L1106.7,297.9 L1108.1,298.4 L1108.4,298.7 L1109.0,299.1 L1109.2,299.1 L1109.5,299.4 L1110.2,299.4 L1111.0,299.0 L1111.2,298.6 L1111.5,298.4 L1112.0,298.5 L1113.3,297.5 L1113.7,297.3 L1114.1,296.9 L1114.8,296.1 L1115.1,296.1 L1116.8,300.9 L1117.1,300.8 L1117.9,302.0 L1118.0,302.0 L1118.1,301.9 L1118.3,301.9 L1118.4,301.9 L1118.9,301.9 L1119.0,302.0 L1119.2,302.0 L1119.4,302.2 L1119.8,302.5 L1120.8,302.6 L1121.3,302.4 L1121.7,302.5 L1122.0,302.7 L1122.4,303.0 L1122.7,303.3 L1123.0,303.3 L1123.7,303.5 L1124.2,303.6 L1124.4,303.6 L1124.7,303.5 L1125.0,303.4 L1125.3,303.3 L1125.9,303.7 L1127.3,303.8 L1128.0,305.8 L1128.6,306.7 L1129.5,307.1 L1130.1,307.5 L1130.3,307.7 L1130.4,307.7 L1130.6,307.8 L1130.7,308.3 L1130.8,308.3 L1131.4,308.8 L1132.0,308.9 L1132.9,309.2 L1133.2,309.2 L1134.3,309.9 L1136.0,311.1 L1136.6,311.2 L1137.3,311.4 L1138.4,311.6 L1138.8,311.7 L1139.2,311.7 L1140.4,312.2 L1142.6,314.9 L1143.6,315.4 L1145.0,315.5 L1145.6,315.7 L1146.1,315.7 L1146.6,316.3 L1147.4,316.3 L1149.0,319.3 L1150.9,320.0 L1151.0,320.0 L1151.1,320.0 L1151.4,320.1 L1151.8,320.2 L1152.6,319.9 L1152.8,319.8 L1153.1,319.8 L1153.2,319.7 L1153.3,319.6 L1153.5,319.5 L1153.6,319.5 L1153.8,319.1 L1154.4,318.9 L1154.5,318.5 L1154.9,318.3 L1155.1,318.0 L1155.5,317.2 L1155.8,316.8 L1156.0,316.6 L1156.2,316.5 L1156.3,316.1 L1156.6,315.7 L1157.2,315.4 L1157.3,315.2 L1157.7,314.7 L1157.8,314.5 L1157.9,314.5 L1158.0,314.5 L1158.2,314.1 L1158.3,313.9 L1158.5,313.7 L1159.1,312.3 L1160.3,312.3 L1160.9,312.2 L1161.3,312.2 L1161.4,312.2 L1161.8,312.2 L1162.2,311.6 L1162.9,311.6 L1163.1,311.8 L1163.5,311.4 L1163.6,311.7 L1163.8,311.2 L1164.6,310.8 L1164.9,310.2 L1165.9,308.2 L1166.5,305.6 L1167.1,304.5 L1167.5,303.8 L1167.9,303.0 L1168.9,302.5 L1169.0,302.5 L1169.2,302.5 L1169.6,301.6 L1169.8,300.9 L1170.0,300.6 L1170.3,300.4 L1170.5,300.4 L1170.6,300.4 L1171.2,299.5 L1171.9,298.1 L1172.1,297.5 L1172.4,296.7 L1172.6,295.8 L1173.8,292.6 L1174.0,291.9 L1174.6,291.3 L1175.0,290.8 L1175.1,290.1 L1175.5,289.4 L1176.1,289.1 L1176.2,289.1 L1176.6,288.8 L1176.8,288.4 L1177.7,287.1 L1178.2,286.9 L1178.5,286.2 L1179.2,284.2 L1179.4,283.3 L1179.6,282.8 L1179.9,282.2 L1180.4,282.2 L1181.1,281.1 L1181.3,280.7 L1181.6,279.9 L1181.8,279.6 L1182.0,279.2 L1182.4,278.0 L1182.5,278.0 L1183.2,276.2 L1184.0,274.3 L1184.2,274.3 L1184.4,273.5 L1184.8,272.8 L1185.2,271.5 L1185.4,271.5 L1185.7,271.2 L1186.0,270.9 L1186.4,270.9 L1186.5,270.8 L1186.9,270.3 L1187.0,270.3 L1187.2,270.0 L1187.5,269.8 L1187.7,269.8 L1188.1,269.5 L1188.4,269.5 L1188.7,269.4 L1189.1,269.3 L1189.8,269.1 L1190.1,268.9 L1190.5,268.1 L1192.3,265.4 L1192.5,265.2 L1192.9,264.8 L1193.0,264.8 L1193.3,264.2 L1193.5,264.4 L1193.7,264.4 L1194.5,264.7 L1194.8,264.7 L1195.2,264.4 L1196.0,262.8 L1196.4,261.8 L1197.0,261.3 L1197.3,260.4 L1197.4,259.7 L1197.6,258.5 L1198.4,256.6 L1198.6,256.3 L1198.7,255.5 L1198.8,255.5 L1199.5,254.3 L1199.8,253.6 L1200.1,252.5 L1200.3,251.8 L1200.5,251.1 L1200.7,251.1 L1201.0,251.1 L1201.2,250.5 L1201.4,250.3 L1201.6,250.0 L1202.0,249.6 L1202.7,248.9 L1203.8,242.7 L1204.6,240.2 L1205.5,239.4 L1205.6,239.4 L1205.7,239.4 L1205.9,239.4 L1206.2,239.4 L1206.7,238.5 L1207.3,237.5 L1207.6,236.3 L1208.1,236.3 L1209.1,233.2 L1209.5,232.2 L1210.1,231.0 L1210.2,230.8 L1210.9,229.4 L1211.1,229.6 L1211.2,229.7 L1211.3,229.7 L1211.5,229.6 L1212.8,227.9 L1213.4,226.7 L1213.6,226.5 L1213.7,226.1 L1213.8,226.1 L1214.2,225.5 L1214.6,224.7 L1215.4,222.8 L1215.5,222.4 L1215.9,222.0 L1216.0,221.8 L1216.2,221.3 L1216.4,220.8 L1216.7,219.6 L1217.2,218.9 L1217.4,218.5 L1217.5,218.5 L1217.6,218.4 L1218.1,218.3 L1218.3,218.2 L1218.4,218.2 L1218.6,217.9 L1219.5,215.9 L1220.0,215.2 L1220.2,214.5 L1220.4,214.4 L1220.6,214.4 L1221.3,210.4 L1221.9,208.8 L1222.6,207.5 L1222.8,206.6 L1223.8,203.1 L1223.9,202.8 L1224.1,202.0 L1224.3,202.0 L1224.9,201.6 L1225.1,201.4 L1225.3,201.4 L1225.5,200.9 L1226.1,200.4 L1226.3,200.4 L1226.5,200.5 L1226.7,200.3 L1227.1,200.3 L1227.4,199.9 L1227.6,199.2 L1227.8,198.8 L1228.1,197.2 L1228.3,196.8 L1229.4,195.7 L1230.0,194.6 L1230.2,194.3 L1230.4,193.9 L1230.5,193.4 L1230.7,193.2 L1230.8,193.2 L1231.2,192.5 L1231.4,192.5 L1231.5,192.5 L1231.7,192.5 L1231.8,192.5 L1231.9,192.5 L1232.1,192.3 L1232.2,192.3 L1232.6,192.3 L1233.2,191.9 L1233.4,191.8 L1233.6,191.5 L1233.8,191.3 L1235.7,186.9 L1236.3,185.8 L1236.6,185.5 L1237.3,184.1 L1237.5,183.8 L1237.7,183.5 L1238.0,183.2 L1238.3,183.2 L1238.6,183.0 L1238.8,183.0 L1239.0,183.0 L1239.1,182.7 L1239.5,181.9 L1239.6,181.9 L1239.8,181.9 L1239.9,181.9 L1240.0,181.6 L1240.2,180.5 L1240.6,179.1 L1241.9,176.1 L1242.8,174.3 L1242.9,174.0 L1243.2,174.0 L1244.0,173.5 L1244.1,173.5 L1244.3,173.2 L1244.5,172.9 L1244.7,172.7 L1245.1,172.4 L1246.9,171.3 L1247.1,170.9 L1247.5,169.5 L1247.9,169.0 L1248.2,169.0 L1249.1,167.8 L1249.6,166.8 L1249.8,165.7 L1250.3,164.5 L1251.2,163.5 L1251.5,163.5 L1251.9,163.1 L1252.1,163.0 L1252.3,162.5 L1252.5,162.0 L1252.9,162.2 L1253.4,162.1 L1253.8,162.6 L1254.7,163.7 L1255.4,166.1 L1256.0,167.1 L1256.3,168.1 L1256.6,168.6 L1257.3,169.7 L1257.5,170.2 L1257.6,170.7 L1257.8,171.1 L1257.9,171.1 L1258.3,172.3 L1258.8,173.0 L1259.8,175.1 L1260.0,175.1 L1260.3,176.1 L1260.5,176.5 L1260.6,177.8 L1261.0,178.0 L1261.2,178.2 L1261.6,178.8 L1261.7,178.8 L1261.9,178.9 L1262.0,179.1 L1262.1,179.1 L1262.7,179.6 L1263.2,180.3 L1263.3,180.3 L1263.5,180.5 L1263.7,180.8 L1264.0,181.3 L1264.2,181.3 L1264.4,182.0 L1264.7,182.5 L1265.1,183.3 L1265.5,184.1 L1265.8,184.1 L1266.3,184.9 L1266.7,186.2 L1267.1,186.9 L1267.3,188.4 L1267.5,189.9 L1267.9,192.0 L1269.0,195.2 L1269.8,197.4 L1270.1,198.2 L1270.2,199.1 L1270.5,199.4 L1270.7,200.3 L1271.2,200.8 L1272.0,201.7 L1272.3,202.1 L1273.0,203.3 L1273.3,205.1 L1273.7,206.2 L1274.2,206.7 L1274.9,209.1 L1275.1,210.6 L1275.7,212.9 L1275.9,212.9 L1276.3,214.3 L1277.2,216.0 L1277.4,216.1 L1277.7,217.0 L1278.2,218.2 L1278.4,218.2 L1278.7,218.9 L1279.0,219.5 L1279.2,219.5 L1279.3,219.5 L1279.5,219.5 L1279.7,220.1 L1279.9,220.3 L1280.3,220.4 L1280.5,221.3 L1280.7,222.1 L1281.4,222.3 L1282.3,227.4 L1283.0,231.8 L1283.3,233.2 L1284.1,236.3 L1284.4,236.8 L1284.7,236.8 L1285.3,238.3 L1285.6,239.2 L1286.0,240.6 L1286.2,241.8 L1286.5,241.8 L1287.1,243.3 L1287.8,244.6 L1288.2,245.8 L1288.7,247.0 L1288.9,247.7 L1289.5,249.9 L1289.8,249.9 L1290.7,251.0 L1291.0,251.8 L1291.7,254.0 L1292.0,254.3 L1292.2,254.7 L1292.6,256.3 L1293.4,256.9 L1294.0,257.7 L1294.2,257.7 L1294.4,257.7 L1294.5,258.2 L1294.7,258.9 L1295.2,259.8 L1295.9,260.4 L1296.3,261.7 L1297.4,266.0 L1298.9,268.4 L1299.3,269.4 L1299.6,270.3 L1300.6,272.8 L1302.2,275.1 L1302.8,276.3 L1303.3,276.3 L1303.6,278.8 L1304.4,279.8 L1305.5,282.6 L1306.1,284.2 L1306.3,284.4 L1307.1,285.7 L1307.4,286.3 L1307.6,286.3 L1307.9,287.2 L1308.8,289.7 L1309.5,290.2 L1310.3,294.5 L1311.1,295.7 L1312.6,302.8 L1312.9,304.1 L1313.9,309.9 L1314.7,310.9 L1315.4,312.3 L1315.7,313.1 L1315.7,313.1 L1315.9,313.4 L1316.1,313.4 L1316.2,313.4 L1316.7,314.0 L1316.9,314.0 L1317.1,314.1 L1317.6,314.4 L1318.0,314.4 L1318.4,315.1 L1319.2,315.7 L1319.7,316.3 L1320.1,316.5 L1320.9,317.9 L1321.1,317.9 L1321.3,317.9 L1322.3,319.5 L1322.8,320.3 L1323.1,320.3 L1323.4,320.8 L1323.5,320.8 L1324.1,323.1 L1324.6,323.6 L1324.9,323.6 L1325.8,325.7 L1326.4,327.8 L1327.2,328.2 L1327.9,328.5 L1328.0,328.5 L1328.6,327.5 L1328.9,327.5 L1329.0,327.5 L1329.4,327.4 L1329.8,327.4 L1330.0,327.4 L1330.7,326.4 L1331.0,326.4 L1331.2,326.4 L1333.2,321.8 L1335.0,318.9 L1335.7,318.7 L1336.5,318.2 L1337.5,316.8 L1338.1,315.6 L1339.2,312.9 L1340.0,311.1 L1340.8,310.3 L1341.2,309.7 L1341.7,308.2 L1342.0,307.8 L1342.1,307.8 L1342.3,307.8 L1342.4,307.4 L1342.6,307.4 L1343.0,306.3 L1343.3,305.0 L1344.0,304.1 L1344.1,304.1 L1344.3,303.8 L1345.0,302.1 L1345.6,300.8 L1345.6,300.8 L1345.8,300.3 L1345.9,300.1 L1346.0,300.1 L1346.5,299.5" fill="transparent" id="track" stroke="black" stroke-linejoin="miter" stroke-miterlimit="1" stroke-width="2"/>
<g>
<g>
<circle cx="6.054896733641726" cy="164.43199999999996" fill="Blue" id="wp/0" r="5"/>
</g>
<g transform="translate(6.054896733641726 164.43199999999996)">
<rect fill="white" fill-opacity="0.75" height="12" id="label-bg" width="15.610526315789475" x="4" y="-16"/>
<text font-size="16.0" id="wp-0/text" text-anchor="start" x="4.000" y="-4.000">
K2
</text>
</g>
<g>
<circle cx="638.6017955755185" cy="200.16249999999997" fill="Blue" id="wp/1" r="5"/>
</g>
<g transform="translate(638.6017955755185 200.16249999999997)">
<rect fill="white" fill-opacity="0.75" height="12" id="label-bg" width="15.610526315789475" x="-19.610526315789475" y="4"/>
<text font-size="16.0" id="wp-1/text" text-anchor="end" x="-4.000" y="16.000">
K3
</text>
</g>
<g>
<circle cx="140.12325652467644" cy="282.0598333333333" fill="Black" id="wp/2" r="3"/>
</g>
<g transform="translate(140.12325652467644 282.0598333333333)">
<rect fill="white" fill-opacity="0.75" height="12" id="label-bg" width="24.610526315789475" x="-28.61052631578947" y="-16"/>
<text font-size="16.0" id="wp-2/text" text-anchor="end" x="-4.000" y="-4.000">
P10
</text>
</g>
<g>
<circle cx="1347.8005317390348" cy="296.1608333333333" fill="Black" id="wp/3" r="3"/>
</g>
<g transform="translate(1347.8005317390348 296.1608333333333)">
<rect fill="white" fill-opacity="0.75" height="12" id="label-bg" width="24.610526315789475" x="-28.61052631578947" y="-16"/>
<text font-size="16.0" id="wp-3/text" text-anchor="end" x="-4.000" y="-4.000">
P20
</text>
</g>
<g>
<circle cx="473.52288606157754" cy="54.05383333333333" fill="Green" id="wp/4" r="3"/>
</g>
<g transform="translate(473.52288606157754 54.05383333333333)">
<rect fill="white" fill-opacity="0.75" height="12" id="label-bg" width="129.0105263157895" x="4" y="-16"/>
<text font-size="16.0" id="wp-4/text" text-anchor="start" x="4.000" y="-4.000">
Alexanderschanze
</text>
</g>
<g>
<circle cx="811.9313669286055" cy="57.67866666666663" fill="Green" id="wp/5" r="3"/>
</g>
<g transform="translate(811.9313669286055 57.67866666666663)">
<rect fill="white" fill-opacity="0.75" height="12" id="label-bg" width="86.28421052631579" x="4" y="-16"/>
<text font-size="16.0" id="wp-5/text" text-anchor="start" x="4.000" y="-4.000">
Seibelseckle
</text>
</g>
<g>
<circle cx="746.3825439504626" cy="74.1298333333333" fill="Green" id="wp/6" r="3"/>
</g>
<g transform="translate(746.3825439504626 74.1298333333333)">
<rect fill="white" fill-opacity="0.75" height="12" id="label-bg" width="67.90526315789474" x="-71.90526315789474" y="-16"/>
<text font-size="16.0" id="wp-6/text" text-anchor="end" x="-4.000" y="-4.000">
Ruhestein
</text>
</g>
<g>
<circle cx="247.54885704793583" cy="134.59683333333328" fill="Green" id="wp/7" r="3"/>
</g>
<g transform="translate(247.54885704793583 134.59683333333328)">
<rect fill="white" fill-opacity="0.75" height="12" id="label-bg" width="78.61052631578947" x="4" y="-16"/>
<text font-size="16.0" id="wp-7/text" text-anchor="start" x="4.000" y="-4.000">
Freiersberg
</text>
</g>
<g>
<circle cx="1252.5453851288507" cy="160.01049999999998" fill="Green" id="wp/8" r="3"/>
</g>
<g transform="translate(1252.5453851288507 160.01049999999998)">
<rect fill="white" fill-opacity="0.75" height="12" id="label-bg" width="76.90526315789475" x="4" y="-16"/>
<text font-size="16.0" id="wp-8/text" text-anchor="start" x="4.000" y="-4.000">
Rote Lache
</text>
</g>
<g>
<circle cx="1231.8751298096795" cy="191.99666666666664" fill="Green" id="wp/9" r="3"/>
</g>
<g transform="translate(1231.8751298096795 191.99666666666664)">
<rect fill="white" fill-opacity="0.75" height="12" id="label-bg" width="56.82105263157895" x="-60.82105263157895" y="-16"/>
<text font-size="16.0" id="wp-9/text" text-anchor="end" x="-4.000" y="-4.000">
Hartkopf
</text>
</g>
<g>
<circle cx="1151.0678294048744" cy="321.455" fill="Black" id="wp/10" r="4"/>
<circle cx="1151.0678294048744" cy="321.455" fill="white" id="wp/10-little-white" r="2.5"/>
</g>
<g transform="translate(1151.0678294048744 321.455)">
<rect fill="white" fill-opacity="0.75" height="12" id="label-bg" width="54.736842105263165" x="-58.736842105263165" y="4"/>
<text font-size="16.0" id="wp-10/text" text-anchor="end" x="-4.000" y="16.000">
Forbach
</text>
</g>
<g>
<circle cx="74.6196438276827" cy="313.6875" fill="Black" id="wp/12" r="4"/>
<circle cx="74.6196438276827" cy="313.6875" fill="white" id="wp/12-little-white" r="2.5"/>
</g>
<g transform="translate(74.6196438276827 313.6875)">
<rect fill="white" fill-opacity="0.75" height="12" id="label-bg" width="38.347368421052636" x="-42.347368421052636" y="4"/>
<text font-size="16.0" id="wp-12/text" text-anchor="end" x="-4.000" y="16.000">
Walke
</text>
</g>
</g>
</g>
<g id="SL" transform="translate(0 0)">
<text text-anchor="end" x="66" y="363.5">
200
</text>
<text text-anchor="end" x="66" y="323.66666666666663">
300
</text>
<text text-anchor="end" x="66" y="283.8333333333333">
400
</text>
<text text-anchor="end" x="66" y="243.99999999999997">
500
</text>
<text text-anchor="end" x="66" y="204.16666666666663">
600
</text>
<text text-anchor="end" x="66" y="164.33333333333331">
700
</text>
<text text-anchor="end" x="66" y="124.5">
800
</text>
<text text-anchor="end" x="66" y="84.66666666666663">
900
</text>
<text text-anchor="end" x="66" y="44.833333333333314">
1000
</text>
<text text-anchor="end" x="66" y="5">
1100
</text>
</g>
</g>
</svg>