<svg height="400" width="1420" xmlns="http://www.w3.org/2000/svg">
<g font-size="18" id="world" shape-rendering="crispEdges">
<g id="BG"/>
<g id="SB" transform="translate(71 360)">
<text text-anchor="middle" x="0" y="17">
180
</text>
<text text-anchor="middle" x="269.5" y="17">
200
</text>
<text text-anchor="middle" x="539" y="17">
220
</text>
<text text-anchor="middle" x="808.5" y="17">
240
</text>
<text text-anchor="middle" x="1078" y="17">
260
</text>
</g>
<g id="SD" transform="translate(71 0)">
<path d="M0,0 L1347.5,0" stroke="black" stroke-width="3"/>
<path d="M0,0 L0,358.5" stroke="black" stroke-width="3"/>
<path d="M0,358.5 L1347.5,358.5" stroke="black" stroke-width="3"/>
<path d="M1347.5,0 L1347.5,358.5" stroke="black" stroke-width="3"/>
<path d="M0,358.5 L1347.5,358.5" stroke="black" stroke-width="1"/>
<path d="M0,0 L0,358.5" stroke="black" stroke-width="1"/>
<path d="M269.5,0 L269.5,358.5" stroke="black" stroke-width="1"/>
<path d="M539,0 L539,358.5" stroke="black" stroke-width="1"/>
<path d="M808.5,0 L808.5,358.5" stroke="black" stroke-width="1"/>
<path d="M1078,0 L1078,358.5" stroke="black" stroke-width="1"/>
<path d="M134.75,0 L134.75,358.5" stroke="black" stroke-dasharray="1.0,2.5,5.0,5.0,10.0,5.0"/>
<path d="M404.25,0 L404.25,358.5" stroke="black" stroke-dasharray="1.0,2.5,5.0,5.0,10.0,5.0"/>
<path d="M673.75,0 L673.75,358.5" stroke="black" stroke-dasharray="1.0,2.5,5.0,5.0,10.0,5.0"/>
<path d="M943.25,0 L943.25,358.5" stroke="black" stroke-dasharray="1.0,2.5,5.0,5.0,10.0,5.0"/>
<path d="M1212.75,0 L1212.75,358.5" stroke="black" stroke-dasharray="1.0,2.5,5.0,5.0,10.0,5.0"/>
<path d="M0,358.5 L1347.5,358.5" stroke="black" stroke-width="1"/>
<path d="M0,307.2857 L1347.5,307.2857" stroke="black" stroke-width="1"/>
<path d="M0,256.07144 L1347.5,256.07144" stroke="black" stroke-width="1"/>
<path d="M0,204.85715 L1347.5,204.85715" stroke="black" stroke-width="1"/>
<path d="M0,153.64285 L1347.5,153.64285" stroke="black" stroke-width="1"/>
<path d="M0,102.42857 L1347.5,102.42857" stroke="black" stroke-width="1"/>
<path d="M0,51.214287 L1347.5,51.214287" stroke="black" stroke-width="1"/>
<path d="M0,0 L1347.5,0" stroke="black" stroke-width="1"/>
<path d="M0,332.89285 L1347.5,332.89285" stroke="black" stroke-dasharray="1.0,2.5,5.0,5.0,10.0,5.0"/>
<path d="M0,281.67856 L1347.5,281.67856" stroke="black" stroke-dasharray="1.0,2.5,5.0,5.0,10.0,5.0"/>
<path d="M0,230.46428 L1347.5,230.46428" stroke="black" stroke-dasharray="1.0,2.5,5.0,5.0,10.0,5.0"/>
<path d="M0,179.25 L1347.5,179.25" stroke="black" stroke-dasharray="1.0,2.5,5.0,5.0,10.0,5.0"/>
<path d="M0,128.03572 L1347.5,128.03572" stroke="black" stroke-dasharray="1.0,2.5,5.0,5.0,10.0,5.0"/>
<path d="M0,76.82143 L1347.5,76.82143" stroke="black" stroke-dasharray="1.0,2.5,5.0,5.0,10.0,5.0"/>
<path d="M0,25.607143 L1347.5,25.607143" stroke="black" stroke-dasharray="1.0,2.5,5.0,5.0,10.0,5.0"/>
<path d="M0,-25.607143 L1347.5,-25.607143" stroke="black" stroke-dasharray="1.0,2.5,5.0,5.0,10.0,5.0"/>
<path d="M0.1,111.9 L0.3,111.5 L0.4,111.4 L0.7,110.7 L1.1,109.7 L2.0,107.2 L2.1,106.8 L2.4,106.1 L2.6,105.9 L2.7,105.3 L2.9,104.6 L3.2,103.1 L3.8,102.2 L3.9,101.7 L4.0,101.7 L4.1,101.6 L4.7,101.4 L4.8,101.3 L5.0,101.3 L5.2,101.0 L6.1,98.3 L6.5,97.4 L6.7,96.6 L6.9,96.4 L7.1,96.4 L7.9,91.3 L8.4,89.3 L9.2,87.5 L9.4,86.4 L10.3,81.9 L10.5,81.5 L10.7,80.4 L10.9,80.4 L11.4,80.0 L11.7,79.7 L11.8,79.7 L12.0,79.0 L12.6,78.4 L12.8,78.4 L13.0,78.5 L13.3,78.3 L13.6,78.3 L14.0,77.8 L14.1,76.8 L14.3,76.3 L14.7,74.3 L14.8,73.8 L15.9,72.4 L16.5,71.0 L16.7,70.5 L16.9,70.1 L17.1,69.5 L17.2,69.2 L17.4,69.2 L17.7,68.2 L17.9,68.2 L18.0,68.2 L18.2,68.2 L18.3,68.2 L18.4,68.2 L18.6,68.0 L18.8,68.0 L19.2,68.0 L19.7,67.4 L19.9,67.3 L20.1,67.0 L20.4,66.7 L22.3,61.0 L22.9,59.6 L23.1,59.2 L23.8,57.5 L24.0,57.0 L24.2,56.6 L24.6,56.3 L24.8,56.3 L25.1,56.1 L25.3,56.1 L25.5,56.1 L25.6,55.7 L26.0,54.7 L26.2,54.7 L26.3,54.7 L26.4,54.7 L26.6,54.2 L26.7,52.9 L27.1,51.0 L28.4,47.2 L29.4,44.9 L29.5,44.5 L29.7,44.5 L30.6,43.8 L30.7,43.8 L30.9,43.4 L31.0,43.1 L31.2,42.8 L31.7,42.5 L33.4,41.0 L33.6,40.4 L34.0,38.7 L34.4,38.0 L34.7,38.0 L35.7,36.5 L36.1,35.2 L36.3,33.8 L36.8,32.3 L37.7,31.0 L38.0,31.0 L38.4,30.4 L38.6,30.3 L38.8,29.7 L39.1,29.0 L39.4,29.4 L40.0,29.2 L40.3,29.8 L41.2,31.3 L41.9,34.3 L42.5,35.6 L42.8,36.9 L43.1,37.6 L43.8,38.9 L44.0,39.6 L44.2,40.2 L44.3,40.8 L44.4,40.8 L44.9,42.3 L45.3,43.2 L46.3,45.8 L46.5,45.8 L46.8,47.1 L47.0,47.7 L47.2,49.3 L47.5,49.6 L47.7,49.9 L48.1,50.6 L48.3,50.6 L48.4,50.8 L48.5,51.0 L48.7,51.0 L49.2,51.7 L49.7,52.6 L49.8,52.6 L50.1,52.8 L50.2,53.2 L50.5,53.9 L50.7,53.9 L50.9,54.7 L51.2,55.4 L51.6,56.5 L52.0,57.4 L52.3,57.4 L52.8,58.5 L53.2,60.1 L53.6,61.1 L53.8,63.0 L54.0,64.9 L54.5,67.6 L55.5,71.7 L56.3,74.5 L56.6,75.6 L56.8,76.7 L57.0,77.1 L57.2,78.3 L57.7,78.9 L58.5,80.0 L58.8,80.7 L59.5,82.2 L59.8,84.4 L60.2,85.8 L60.7,86.5 L61.4,89.5 L61.6,91.6 L62.2,94.5 L62.4,94.5 L62.8,96.2 L63.7,98.5 L63.9,98.6 L64.2,99.7 L64.7,101.3 L64.9,101.3 L65.2,102.2 L65.5,103.0 L65.7,103.0 L65.8,103.0 L66.0,103.0 L66.2,103.7 L66.4,104.0 L66.8,104.1 L67.0,105.3 L67.2,106.3 L67.9,106.6 L68.8,113.1 L69.5,118.7 L69.8,120.6 L70.6,124.5 L70.9,125.2 L71.2,125.2 L71.8,127.2 L72.1,128.3 L72.5,130.1 L72.7,131.7 L73.0,131.7 L73.6,133.5 L74.3,135.2 L74.7,136.8 L75.2,138.3 L75.4,139.2 L76.0,142.0 L76.3,142.0 L77.2,143.5 L77.5,144.5 L78.2,147.3 L78.5,147.8 L78.7,148.2 L79.1,150.2 L79.9,151.1 L80.5,152.1 L80.7,152.1 L80.9,152.1 L81.0,152.7 L81.2,153.6 L81.7,154.8 L82.4,155.6 L82.8,157.3 L83.9,162.8 L85.3,165.8 L85.7,167.1 L86.1,168.2 L87.1,171.4 L88.7,174.4 L89.3,176.0 L89.8,176.0 L90.1,179.2 L90.9,180.5 L92.0,184.0 L92.6,186.2 L92.8,186.4 L93.6,188.1 L93.9,188.8 L94.1,188.8 L94.4,190.0 L95.3,193.2 L96.0,193.9 L96.8,199.4 L97.6,200.9 L99.1,210.1 L99.4,211.7 L100.4,219.2 L101.2,220.4 L101.9,222.3 L102.1,223.3 L102.2,223.3 L102.3,223.7 L102.5,223.7 L102.7,223.7 L103.2,224.4 L103.4,224.4 L103.6,224.6 L104.0,225.0 L104.5,225.0 L104.9,225.9 L105.7,226.6 L106.1,227.4 L106.6,227.6 L107.4,229.4 L107.6,229.4 L107.8,229.5 L108.8,231.5 L109.3,232.5 L109.6,232.5 L109.9,233.3 L110.0,233.3 L110.6,236.2 L111.0,236.8 L111.4,236.8 L112.3,239.6 L112.9,242.2 L113.7,242.7 L114.3,243.1 L114.5,243.1 L115.1,241.8 L115.4,241.8 L115.5,241.8 L115.9,241.7 L116.2,241.7 L116.5,241.6 L117.2,240.3 L117.4,240.3 L117.7,240.3 L119.7,234.5 L121.5,230.8 L122.2,230.4 L123.0,229.9 L124.0,228.1 L124.6,226.5 L125.7,223.1 L126.5,220.8 L127.2,219.7 L127.7,218.9 L128.2,217.0 L128.5,216.5 L128.6,216.5 L128.7,216.5 L128.8,216.0 L129.1,216.0 L129.5,214.5 L129.8,212.9 L130.4,211.7 L130.6,211.7 L130.8,211.4 L131.5,209.1 L132.0,207.5 L132.1,207.5 L132.2,206.8 L132.4,206.6 L132.4,206.6 L133.0,205.8 L133.3,205.1 L134.0,204.5 L134.3,203.8 L135.0,201.5 L135.5,200.2 L135.8,198.9 L136.3,196.9 L136.7,196.1 L137.2,195.2 L137.6,195.2 L138.1,194.0 L138.4,193.2 L138.6,192.2 L138.8,192.2 L139.3,191.0 L139.9,189.7 L140.6,188.6 L141.5,188.0 L142.1,188.1 L142.5,188.7 L142.6,188.6 L143.6,188.8 L144.5,188.8 L144.8,188.8 L145.1,188.6 L145.5,188.6 L146.1,188.6 L146.3,188.8 L146.6,188.8 L146.9,188.8 L147.4,188.7 L147.8,188.5 L148.0,188.3 L148.2,189.0 L148.4,189.6 L148.6,189.6 L148.8,190.3 L148.9,190.4 L150.7,195.3 L151.1,196.9 L151.4,198.8 L151.8,201.7 L152.6,202.4 L153.0,202.4 L153.7,203.4 L154.1,205.0 L154.7,206.5 L155.1,206.5 L155.8,208.8 L156.5,210.6 L157.2,213.5 L158.2,216.0 L159.0,217.1 L159.4,218.0 L159.6,218.0 L159.9,218.0 L160.4,220.5 L162.7,227.9 L163.0,231.1 L164.1,234.0 L165.1,233.2 L165.4,234.8 L165.6,234.8 L165.8,235.4 L166.2,235.9 L166.7,236.8 L166.9,237.2 L167.0,237.5 L167.2,237.5 L167.3,237.5 L167.5,237.5 L167.8,237.6 L168.0,237.5 L168.9,238.1 L169.2,238.9 L169.4,239.3 L169.7,240.8 L170.5,243.2 L170.6,243.3 L170.8,243.9 L170.9,243.9 L171.0,244.2 L171.3,244.2 L171.5,244.2 L171.6,244.6 L171.8,244.6 L171.9,245.0 L172.4,245.4 L172.9,246.6 L173.4,248.3 L173.7,249.8 L174.3,252.4 L174.5,253.7 L174.6,253.7 L174.8,254.1 L175.2,254.3 L175.5,254.3 L175.7,254.6 L176.3,254.8 L176.5,256.4 L176.7,256.4 L176.9,257.4 L177.1,258.1 L179.0,265.6 L179.5,269.6 L180.0,272.8 L180.9,273.6 L182.1,275.2 L183.3,277.4 L184.1,281.4 L186.2,288.9 L186.4,289.1 L187.1,290.0 L187.6,290.1 L188.0,290.3 L188.1,290.5 L188.2,290.5 L188.4,290.7 L188.5,290.7 L188.5,290.7 L188.9,291.0 L189.0,291.5 L189.4,291.9 L189.6,291.9 L190.0,292.5 L190.5,293.2 L190.7,293.8 L191.1,294.0 L191.3,294.4 L191.5,294.7 L191.6,295.0 L191.8,295.3 L192.3,296.0 L192.5,296.2 L192.7,296.6 L192.8,296.6 L193.2,296.8 L193.3,296.9 L193.4,296.9 L194.2,298.0 L194.3,298.2 L194.5,298.7 L195.1,299.0 L195.3,299.3 L195.5,299.6 L196.3,299.9 L196.6,300.0 L196.7,300.0 L197.2,300.0 L197.9,300.1 L198.0,300.1 L198.3,300.1 L199.1,300.1 L199.9,300.1 L200.2,300.1 L200.3,300.1 L201.0,300.0 L201.5,300.0 L201.6,300.0 L201.9,299.9 L202.6,299.6 L202.9,299.6 L203.1,299.4 L203.7,299.2 L203.9,299.1 L204.0,299.1 L204.8,298.6 L204.9,298.6 L205.0,298.6 L205.8,298.2 L206.0,298.1 L207.1,298.0 L207.3,298.0 L207.7,297.9 L208.0,297.8 L208.6,297.7 L208.9,297.3 L209.3,297.1 L209.4,296.9 L209.6,296.7 L210.5,296.0 L211.3,295.5 L211.5,295.3 L211.6,295.3 L211.9,295.0 L212.1,294.7 L212.2,294.3 L212.6,293.8 L213.0,293.7 L213.7,293.2 L214.8,291.6 L215.1,291.2 L215.5,290.8 L216.1,290.8 L216.6,290.4 L216.9,290.4 L217.1,290.4 L217.3,290.4 L217.7,289.6 L218.1,289.0 L219.0,287.5 L220.3,285.9 L220.6,285.5 L221.0,284.9 L221.2,284.9 L221.4,284.9 L222.0,284.2 L223.7,283.0 L224.2,281.3 L224.7,280.6 L225.4,280.0 L226.6,279.0 L227.2,278.4 L227.8,278.0 L228.1,277.5 L228.5,276.8 L228.9,276.5 L229.4,276.0 L230.7,274.7 L230.9,274.2 L231.6,273.4 L231.9,273.0 L232.8,272.1 L233.2,271.5 L233.5,271.3 L233.7,270.8 L234.0,270.8 L234.9,269.4 L235.4,267.8 L235.7,267.4 L235.8,267.4 L236.3,265.3 L237.3,262.9 L237.7,261.0 L238.0,260.0 L238.8,255.5 L239.3,252.8 L240.1,250.2 L240.5,247.3 L241.3,239.9 L241.9,238.6 L242.4,235.0 L243.0,232.0 L243.4,229.9 L243.6,229.1 L243.7,229.1 L243.9,228.5 L244.8,225.0 L245.0,225.0 L245.2,223.4 L245.4,222.8 L245.8,222.1 L246.1,221.5 L246.5,219.2 L246.8,218.7 L247.0,218.7 L247.8,216.0 L248.1,215.4 L248.8,212.9 L249.1,211.8 L249.7,209.8 L250.0,209.1 L250.4,209.1 L251.2,207.3 L251.5,206.1 L251.8,206.1 L252.6,204.4 L253.8,202.0 L254.0,201.4 L254.7,198.7 L255.7,197.9 L256.7,197.1 L257.0,197.1 L257.2,197.1 L257.4,196.7 L262.7,201.8 L263.2,203.0 L263.7,203.0 L264.8,202.8 L265.3,202.8 L265.6,203.0 L265.9,203.1 L266.1,203.4 L266.4,203.8 L267.0,204.3 L267.4,204.7 L268.4,204.7 L268.7,204.9 L268.9,204.5 L269.4,204.7 L269.9,202.7 L270.6,202.7 L270.9,200.3 L271.4,199.3 L272.2,195.7 L272.6,195.7 L273.4,192.4 L273.5,192.4 L274.8,190.5 L275.8,190.4 L276.4,191.2 L276.5,191.2 L276.7,191.2 L277.0,191.2 L278.2,191.8 L278.5,191.8 L278.8,191.7 L279.4,192.2 L280.4,190.2 L280.6,190.2 L280.7,190.2 L281.0,189.4 L281.0,189.4 L281.3,189.2 L282.3,186.8 L282.5,186.2 L282.8,186.2 L283.0,185.5 L283.5,183.4 L284.4,179.5 L284.5,179.5 L284.6,179.5 L285.2,177.8 L285.7,176.1 L286.0,174.9 L286.3,173.9 L286.7,173.9 L287.0,172.9 L287.3,170.2 L287.8,170.0 L288.1,169.4 L288.6,168.9 L288.9,168.4 L289.5,167.7 L289.6,167.7 L289.7,167.4 L289.8,167.4 L289.9,167.5 L290.2,167.2 L290.6,167.2 L291.0,167.3 L291.4,167.7 L291.5,167.7 L292.1,168.1 L292.6,169.0 L293.0,169.7 L293.4,169.9 L293.6,169.9 L293.9,170.2 L294.1,170.7 L294.4,171.3 L294.7,172.0 L294.9,173.0 L295.0,173.0 L295.5,174.1 L296.6,176.9 L297.3,180.5 L297.5,182.5 L298.0,184.9 L298.6,188.8 L299.4,192.3 L299.6,192.3 L300.2,194.6 L300.9,198.3 L301.2,198.3 L301.4,200.6 L301.7,202.4 L302.6,205.3 L303.5,207.4 L303.9,209.1 L304.3,209.9 L304.4,209.9 L304.6,210.5 L305.4,211.2 L306.1,210.9 L307.4,211.8 L307.9,212.4 L308.1,212.9 L308.4,213.4 L309.0,214.9 L309.2,214.9 L309.6,215.2 L310.0,215.5 L310.2,215.6 L310.4,215.8 L310.8,216.2 L311.1,216.7 L311.2,217.2 L311.3,217.2 L311.4,217.4 L311.7,217.4 L312.0,218.3 L312.4,218.9 L313.0,219.4 L313.2,219.7 L313.6,220.9 L314.1,222.1 L314.5,223.2 L314.7,223.5 L316.0,226.8 L316.3,226.8 L316.7,228.5 L317.2,231.0 L318.0,234.2 L318.4,234.8 L319.0,236.1 L319.4,237.5 L319.6,237.5 L320.3,241.0 L320.6,241.6 L320.8,242.3 L321.9,243.6 L322.5,244.8 L322.6,244.8 L322.9,244.8 L323.0,244.8 L323.2,245.4 L326.0,251.8 L327.2,254.1 L327.8,254.9 L328.7,255.7 L329.8,255.7 L330.4,257.4 L331.4,258.5 L332.5,258.3 L334.3,258.7 L334.6,258.7 L335.3,257.9 L336.1,259.6 L338.7,266.4 L340.2,269.1 L341.1,270.0 L341.6,271.0 L343.7,273.5 L344.4,275.6 L345.0,277.1 L347.6,284.4 L349.3,287.2 L349.6,287.2 L349.9,287.2 L350.4,288.2 L351.1,289.1 L351.7,289.1 L353.1,291.8 L355.0,296.2 L356.4,299.5 L357.7,301.6 L359.1,302.5 L360.1,303.1 L360.2,303.1 L360.4,303.1 L360.7,303.8 L360.8,303.8 L360.9,303.8 L361.1,303.8 L361.4,303.8 L361.6,303.8 L362.0,304.2 L362.4,304.6 L362.5,304.9 L363.1,305.9 L363.3,305.9 L364.4,308.3 L364.8,308.8 L365.2,309.6 L365.7,310.3 L366.2,311.7 L366.9,312.2 L367.6,312.8 L368.1,313.1 L368.6,313.4 L368.7,313.4 L368.9,313.4 L369.1,313.8 L369.2,313.9 L369.3,313.9 L370.2,314.1 L370.5,314.6 L370.8,314.6 L371.0,315.1 L371.7,315.7 L371.8,315.8 L372.9,316.4 L373.1,316.4 L373.5,317.0 L373.7,317.0 L373.8,317.2 L374.4,317.2 L374.7,317.5 L375.1,317.5 L376.0,317.7 L377.1,318.0 L378.4,318.6 L378.9,318.6 L381.1,319.3 L381.8,319.7 L382.1,319.7 L383.4,320.3 L384.1,320.5 L384.9,320.8 L385.0,320.8 L385.5,320.8 L386.0,320.9 L386.3,321.3 L386.4,321.3 L386.6,321.4 L387.2,321.7 L388.7,322.1 L388.8,322.1 L388.9,322.1 L389.2,322.4 L389.5,322.5 L389.7,322.6 L390.7,322.8 L391.1,322.8 L391.3,322.8 L392.4,322.9 L392.6,322.9 L392.9,322.9 L393.3,322.9 L393.4,322.9 L393.6,322.9 L393.6,322.9 L393.8,322.9 L393.9,322.9 L393.9,322.9 L394.0,322.9 L394.2,322.8 L395.8,322.7 L396.0,322.7 L396.1,322.8 L396.2,322.8 L396.3,322.8 L396.5,322.9 L396.9,322.8 L396.9,322.8 L397.0,322.7 L397.1,322.7 L397.3,322.7 L397.4,322.7 L398.7,322.5 L399.1,322.4 L399.2,322.4 L399.3,322.4 L399.8,322.2 L400.0,322.2 L400.4,322.1 L401.1,322.1 L401.2,322.1 L401.3,322.1 L401.7,322.0 L402.0,321.8 L402.1,321.8 L402.3,321.8 L402.4,321.8 L402.6,321.8 L403.4,321.8 L404.7,321.2 L404.9,320.8 L406.2,320.4 L406.4,320.4 L406.8,320.4 L407.4,320.5 L407.4,320.4 L407.5,320.4 L407.6,320.4 L407.7,320.2 L408.2,320.3 L408.4,320.3 L408.9,320.3 L409.2,320.3 L409.6,320.3 L410.9,320.8 L411.8,320.6 L412.7,320.5 L413.6,320.4 L413.8,320.4 L413.9,320.5 L414.1,320.5 L414.2,320.5 L414.4,320.5 L415.7,320.8 L416.6,321.1 L416.7,321.1 L417.4,321.3 L417.6,321.3 L417.9,321.4 L418.8,321.6 L420.1,321.9 L420.4,321.9 L420.5,321.9 L422.5,321.7 L422.7,321.7 L423.9,321.7 L425.0,321.8 L427.5,321.4 L428.9,321.4 L430.8,321.0 L432.1,320.8 L432.3,320.6 L433.3,320.5 L434.4,320.4 L434.9,320.3 L435.0,320.1 L435.1,320.1 L438.0,321.5 L438.1,321.9 L438.3,321.9 L440.5,321.9 L444.7,321.5 L446.7,320.4 L448.7,320.9 L450.7,320.9 L450.8,320.9 L451.0,320.9 L451.1,320.9 L451.2,320.9 L454.0,321.5 L456.4,321.8 L456.5,321.8 L456.6,321.8 L457.1,322.1 L458.8,322.0 L459.2,322.0 L459.4,321.9 L459.5,321.9 L459.5,321.9 L459.6,321.9 L459.7,321.9 L459.8,321.9 L460.1,322.0 L460.3,322.0 L461.0,322.2 L461.1,322.2 L461.2,322.2 L461.9,322.2 L462.0,322.2 L462.1,322.2 L462.7,322.1 L463.1,322.1 L463.3,322.1 L463.4,322.1 L463.6,322.1 L464.2,322.2 L464.3,322.2 L465.0,322.4 L465.4,322.4 L465.5,322.4 L465.6,322.4 L467.0,322.0 L469.3,321.7 L469.9,321.4 L470.4,321.4 L471.1,321.3 L472.2,321.4 L472.5,321.4 L472.6,321.5 L473.2,321.6 L473.3,321.6 L473.8,321.8 L474.1,321.8 L474.3,321.8 L474.7,322.1 L474.7,322.1 L475.0,322.2 L475.2,322.3 L475.8,322.6 L476.2,322.8 L477.1,324.4 L477.3,324.4 L478.2,325.3 L478.9,325.6 L479.2,325.6 L479.3,325.6 L479.5,325.6 L479.7,325.6 L480.9,325.8 L481.6,325.8 L482.8,325.8 L483.3,325.8 L483.6,325.7 L484.5,325.9 L484.7,325.9 L486.0,326.4 L488.2,325.7 L488.8,325.7 L489.7,325.3 L490.9,325.1 L492.0,323.8 L493.1,323.7 L493.8,323.6 L494.6,323.8 L495.0,323.9 L495.4,323.9 L495.7,323.7 L496.6,323.7 L497.2,323.7 L497.6,323.8 L498.1,323.9 L498.3,323.9 L499.1,324.0 L499.3,324.0 L500.0,323.9 L501.5,324.5 L502.4,325.0 L503.4,325.3 L503.9,325.3 L505.0,325.4 L506.0,325.1 L506.4,325.1 L506.7,325.1 L507.2,325.1 L507.3,325.1 L507.4,325.1 L507.5,325.1 L507.7,325.0 L507.8,325.0 L507.9,325.0 L508.0,325.0 L508.3,325.1 L508.4,325.1 L509.5,325.1 L510.9,325.0 L511.1,325.1 L511.9,325.1 L512.6,325.2 L513.5,325.2 L514.4,324.7 L515.8,324.3 L518.0,324.0 L521.0,323.2 L521.7,323.2 L522.5,323.2 L523.3,323.0 L525.3,323.5 L525.9,323.5 L526.3,324.0 L526.4,324.0 L528.7,324.9 L530.5,325.1 L532.4,323.4 L534.1,322.3 L534.6,322.3 L535.2,321.6 L536.4,321.6 L541.5,323.8 L545.6,324.7 L545.9,324.5 L549.9,325.8 L550.6,325.8 L551.1,325.8 L551.5,325.8 L552.2,325.8 L552.7,325.7 L552.9,325.7 L553.3,325.7 L556.7,325.1 L557.5,325.1 L558.2,325.1 L558.3,325.1 L558.4,325.1 L558.6,325.1 L559.1,325.1 L559.4,325.0 L559.5,325.0 L560.2,325.1 L561.2,325.3 L561.7,325.4 L562.4,325.4 L563.7,325.6 L563.8,325.6 L564.6,325.8 L565.9,325.9 L567.1,325.7 L567.5,325.8 L568.8,325.5 L569.5,325.4 L570.4,325.1 L571.2,325.0 L571.9,325.1 L572.6,325.1 L573.4,325.1 L573.5,325.2 L573.7,325.2 L573.8,325.2 L574.4,325.3 L574.7,325.4 L574.9,325.4 L575.2,325.4 L575.6,325.4 L576.2,325.6 L576.6,325.8 L576.9,325.7 L577.2,325.8 L577.5,325.8 L578.5,325.7 L578.8,325.7 L578.9,325.6 L579.0,325.6 L579.4,325.6 L580.3,325.4 L581.0,325.4 L581.3,325.3 L582.5,324.6 L584.4,324.7 L585.6,325.3 L586.2,325.3 L587.8,326.1 L587.9,326.1 L589.5,326.7 L590.2,326.6 L592.8,326.5 L593.0,326.3 L594.7,326.1 L594.9,326.1 L595.0,326.1 L595.4,326.1 L595.8,326.0 L596.3,326.2 L596.9,326.2 L598.8,326.1 L602.2,326.6 L605.6,326.1 L605.9,326.0 L609.1,326.0 L609.3,326.0 L609.6,325.9 L610.6,325.9 L611.7,325.9 L612.0,325.9 L612.2,325.9 L612.8,325.8 L618.5,325.7 L618.7,325.7 L618.9,325.7 L624.2,325.6 L629.3,326.7 L629.9,326.0 L632.4,325.0 L634.7,324.3 L636.0,324.3 L638.3,325.1 L638.5,325.1 L638.6,325.2 L638.7,325.2 L638.8,325.3 L638.9,325.3 L639.2,325.4 L639.5,325.6 L639.7,325.6 L640.3,325.6 L640.7,325.6 L641.2,325.9 L641.7,326.3 L642.1,326.3 L643.0,326.1 L643.6,326.1 L644.8,325.7 L645.1,325.5 L645.4,325.5 L645.7,325.4 L647.3,325.3 L647.6,325.3 L657.4,324.7 L657.7,324.5 L659.3,324.4 L659.7,324.4 L661.7,324.9 L663.9,325.1 L668.3,325.7 L668.8,325.6 L669.1,325.4 L669.6,325.3 L670.7,325.2 L671.6,325.1 L672.1,325.0 L672.7,325.0 L673.2,325.0 L676.3,325.2 L676.8,325.3 L677.1,325.4 L678.1,325.7 L679.0,326.1 L679.6,327.0 L680.1,327.3 L680.5,327.4 L681.0,327.5 L681.8,327.7 L682.1,327.7 L682.8,328.1 L683.8,328.2 L684.5,328.2 L684.9,327.7 L686.2,327.7 L686.9,327.7 L687.3,327.9 L687.6,328.0 L688.9,328.1 L690.0,328.0 L690.2,328.0 L690.9,327.7 L691.5,327.4 L692.1,327.3 L692.5,327.3 L693.1,327.2 L693.4,327.2 L693.8,327.3 L694.5,327.2 L695.2,326.8 L695.6,326.7 L696.1,326.7 L697.0,326.9 L697.2,326.9 L697.3,326.9 L697.5,326.7 L698.1,326.6 L698.6,326.4 L700.0,326.4 L701.6,327.1 L701.8,327.1 L702.3,327.1 L702.6,327.1 L702.9,327.3 L703.7,327.3 L703.9,327.4 L705.8,327.6 L706.3,327.6 L706.5,327.6 L706.6,327.6 L706.9,327.6 L707.5,327.6 L708.1,327.6 L709.5,327.8 L712.4,327.1 L712.7,326.9 L713.2,327.1 L713.5,327.1 L714.5,327.1 L714.8,327.1 L715.6,327.3 L722.2,327.8 L722.7,327.7 L723.1,327.4 L723.5,327.2 L725.6,326.7 L726.1,326.5 L726.6,326.4 L727.0,326.4 L727.7,326.4 L732.1,326.7 L735.5,325.7 L736.0,325.6 L737.5,325.5 L737.9,325.5 L739.5,325.5 L740.0,325.5 L741.1,325.5 L741.4,325.5 L741.8,325.5 L744.7,324.7 L749.9,325.3 L752.4,325.9 L757.8,327.0 L759.0,327.4 L759.2,327.5 L759.3,327.5 L759.7,327.5 L760.1,327.5 L760.3,327.5 L761.0,327.4 L761.2,327.4 L761.3,327.3 L761.5,327.3 L761.6,327.2 L761.8,327.3 L763.5,326.8 L763.7,326.8 L763.8,326.7 L764.0,326.7 L764.2,326.5 L765.6,326.3 L765.9,326.3 L766.1,326.3 L766.2,326.3 L766.8,326.8 L767.9,327.2 L768.9,327.7 L769.1,327.7 L769.3,327.7 L769.7,327.8 L769.9,327.8 L770.0,327.8 L770.2,327.8 L770.4,327.8 L770.9,327.8 L771.1,327.8 L775.3,328.7 L775.9,328.9 L776.3,328.9 L776.7,328.9 L776.8,328.9 L777.2,329.0 L778.3,328.9 L779.4,329.0 L779.6,329.1 L782.0,328.8 L782.4,328.7 L782.6,328.7 L783.0,328.7 L783.8,328.7 L784.3,328.7 L784.4,328.7 L784.7,328.7 L784.8,328.7 L784.9,328.7 L785.1,328.6 L785.3,328.8 L786.3,329.0 L788.0,329.5 L788.6,329.7 L792.1,329.7 L794.6,328.4 L795.2,328.2 L795.8,328.2 L796.2,328.2 L796.3,328.2 L796.5,328.2 L796.7,328.2 L796.8,328.2 L796.9,328.2 L797.1,328.2 L797.3,328.1 L797.4,328.1 L797.7,328.1 L798.5,328.2 L798.9,328.2 L798.9,328.2 L800.7,328.5 L801.1,328.5 L802.1,328.2 L802.3,328.2 L802.5,327.9 L802.6,327.9 L802.8,327.8 L803.2,327.8 L803.3,327.8 L803.9,327.4 L804.0,327.4 L804.4,327.4 L804.6,327.4 L804.6,327.4 L805.1,327.2 L805.2,327.2 L805.2,327.2 L805.3,327.0 L806.3,326.3 L807.5,325.0 L808.7,323.1 L808.9,323.1 L810.0,323.2 L810.3,323.2 L810.9,323.2 L811.1,323.2 L811.3,323.2 L811.5,323.2 L811.6,323.2 L811.8,323.2 L811.9,323.2 L812.0,323.2 L812.1,323.2 L812.6,323.4 L812.9,323.5 L813.4,323.9 L814.1,324.3 L814.5,324.7 L815.1,325.0 L815.2,325.0 L815.7,325.3 L815.8,325.3 L815.9,325.3 L816.1,325.4 L816.4,325.4 L816.6,325.4 L816.8,325.4 L817.2,325.4 L817.6,325.4 L817.9,325.4 L817.9,325.4 L818.3,325.4 L818.5,325.4 L818.6,325.4 L818.7,325.4 L818.8,325.4 L819.0,325.5 L819.1,325.5 L819.2,325.5 L819.5,325.4 L821.1,324.4 L822.1,323.8 L822.3,323.8 L822.4,323.8 L822.5,323.8 L822.6,323.8 L822.8,323.8 L822.9,323.7 L823.1,323.7 L823.5,323.7 L824.3,323.6 L825.6,323.1 L833.1,322.0 L836.4,318.8 L836.8,318.0 L837.0,318.0 L837.7,318.0 L842.7,319.0 L842.8,319.3 L846.4,320.7 L847.1,320.9 L848.3,320.9 L849.6,320.9 L853.4,320.0 L854.4,319.9 L854.7,319.9 L855.1,319.9 L856.0,319.9 L864.5,320.3 L866.5,320.3 L867.8,320.1 L871.0,319.2 L877.2,319.4 L877.6,319.5 L879.2,319.9 L881.4,321.2 L882.3,321.3 L882.8,321.3 L883.5,321.3 L887.6,320.5 L888.1,320.0 L889.1,320.0 L889.7,320.0 L890.6,320.9 L891.8,320.9 L892.6,322.5 L893.2,322.5 L894.6,324.6 L895.2,324.6 L896.3,325.1 L896.8,325.3 L898.2,325.2 L898.5,325.2 L898.8,325.0 L899.3,324.9 L899.7,324.9 L900.1,325.0 L900.5,325.3 L901.2,325.6 L902.0,326.0 L902.6,326.5 L903.1,327.2 L903.8,327.7 L904.5,328.9 L905.1,329.4 L905.3,329.8 L906.6,330.6 L907.2,330.6 L907.8,331.4 L909.0,332.0 L909.9,332.0 L910.1,331.9 L910.3,331.8 L910.5,331.7 L910.5,331.8 L910.6,331.8 L910.7,331.8 L910.9,331.8 L911.0,331.8 L911.4,331.7 L911.8,331.7 L911.9,331.7 L912.0,331.7 L912.6,331.6 L912.9,331.6 L913.1,331.4 L913.4,331.1 L914.0,330.7 L914.3,330.7 L915.2,330.6 L915.8,330.6 L916.2,330.6 L916.6,330.6 L917.5,330.7 L917.7,330.6 L918.4,330.6 L918.8,330.6 L919.0,330.6 L920.3,330.3 L921.6,329.9 L922.3,329.8 L922.7,329.8 L923.0,329.8 L923.7,329.9 L924.5,329.9 L925.8,330.1 L926.1,330.2 L926.4,330.2 L926.8,330.3 L926.9,330.3 L928.7,330.6 L929.4,331.0 L930.7,331.2 L930.8,331.2 L930.8,331.2 L931.3,331.2 L931.6,331.2 L931.8,331.2 L932.0,331.2 L934.9,331.1 L935.8,330.6 L936.3,330.4 L938.2,330.0 L938.8,329.3 L940.8,328.9 L941.0,328.8 L941.2,328.8 L941.4,328.8 L941.7,328.6 L945.0,328.0 L946.3,328.0 L946.6,328.0 L947.3,328.0 L947.5,328.0 L947.6,327.9 L947.7,327.9 L947.9,328.0 L948.1,328.1 L948.4,328.2 L948.5,328.2 L948.8,328.2 L950.2,328.6 L950.7,328.9 L950.9,329.0 L951.6,329.3 L951.9,329.3 L952.4,329.3 L952.5,329.3 L952.7,329.5 L952.8,329.5 L953.5,330.0 L954.4,330.5 L955.3,330.9 L956.0,331.5 L956.2,331.8 L956.4,331.8 L956.7,331.8 L957.4,332.1 L958.3,331.9 L959.0,331.7 L959.4,331.6 L959.8,331.6 L960.1,331.6 L960.2,331.6 L960.3,331.6 L960.4,331.6 L960.6,331.6 L961.1,331.5 L962.1,331.3 L962.9,331.3 L963.2,331.3 L963.4,331.4 L964.0,331.4 L964.0,331.5 L964.3,331.5 L964.7,331.5 L965.1,331.6 L965.4,331.5 L965.6,331.5 L965.8,331.5 L966.1,331.5 L966.7,331.5 L966.8,331.6 L967.0,331.6 L967.4,331.6 L967.5,331.5 L967.7,331.4 L967.8,331.4 L967.9,331.4 L968.0,331.4 L968.2,331.3 L968.6,330.9 L968.8,330.7 L969.5,330.3 L970.2,330.1 L970.4,330.0 L970.7,329.8 L971.1,329.8 L971.2,329.8 L971.4,329.7 L971.6,329.7 L971.8,329.7 L972.1,329.7 L972.2,329.7 L973.3,329.9 L973.4,330.0 L973.6,330.0 L974.2,330.4 L975.4,331.1 L975.7,331.1 L975.9,331.1 L976.0,331.2" fill="transparent" id="track" stroke="black" stroke-linejoin="miter" stroke-miterlimit="1" stroke-width="2"/>
<g>
<g>
<circle cx="976.0311512530161" cy="331.45885714285714" fill="Blue" id="wp/0" r="5"/>
</g>
<g transform="translate(976.0311512530161 331.45885714285714)">
<rect fill="white" fill-opacity="0.75" height="12" id="label-bg" width="15.610526315789475" x="4" y="-16"/>
<text font-size="16.0" id="wp-0/text" text-anchor="start" x="4.000" y="-4.000">
K4
</text>
</g>
<g>
<circle cx="279.37488763835154" cy="191.54142857142855" fill="Black" id="wp/1" r="3"/>
</g>
<g transform="translate(279.37488763835154 191.54142857142855)">
<rect fill="white" fill-opacity="0.75" height="12" id="label-bg" width="24.610526315789475" x="-28.61052631578947" y="-16"/>
<text font-size="16.0" id="wp-1/text" text-anchor="end" x="-4.000" y="-4.000">
P20
</text>
</g>
<g>
<circle cx="976.0311512530161" cy="331.45885714285714" fill="Black" id="wp/2" r="5"/>
<circle cx="976.0311512530161" cy="331.45885714285714" fill="white" id="wp/2-little-white" r="3.5"/>
<circle cx="976.0311512530161" cy="331.45885714285714" fill="black" id="wp/2-little-white" r="2.5"/>
</g>
<g transform="translate(976.0311512530161 331.45885714285714)">
<rect fill="white" fill-opacity="0.75" height="12" id="label-bg" width="107.12631578947368" x="-111.12631578947368" y="4"/>
<text font-size="16.0" id="wp-2/text" text-anchor="end" x="-4.000" y="16.000">
Wörth am Rhein
</text>
</g>
<g>
<circle cx="39.069801068021206" cy="26.477785714285744" fill="Green" id="wp/3" r="3"/>
</g>
<g transform="translate(39.069801068021206 26.477785714285744)">
<rect fill="white" fill-opacity="0.75" height="12" id="label-bg" width="76.90526315789475" x="4" y="-16"/>
<text font-size="16.0" id="wp-3/text" text-anchor="start" x="4.000" y="-4.000">
Rote Lache
</text>
</g>
<g>
<circle cx="203.92218689691617" cy="299.2962857142857" fill="Black" id="wp/4" r="5"/>
<circle cx="203.92218689691617" cy="299.2962857142857" fill="white" id="wp/4-little-white" r="3.5"/>
<circle cx="203.92218689691617" cy="299.2962857142857" fill="black" id="wp/4-little-white" r="2.5"/>
</g>
<g transform="translate(203.92218689691617 299.2962857142857)">
<rect fill="white" fill-opacity="0.75" height="12" id="label-bg" width="75.57894736842105" x="-79.57894736842105" y="4"/>
<text font-size="16.0" id="wp-4/text" text-anchor="end" x="-4.000" y="16.000">
Gernsbach
</text>
</g>
<g>
<circle cx="142.6459498545114" cy="186.93214285714285" fill="Green" id="wp/6" r="3"/>
</g>
<g transform="translate(142.6459498545114 186.93214285714285)">
<rect fill="white" fill-opacity="0.75" height="12" id="label-bg" width="65.9157894736842" x="4" y="-16"/>
<text font-size="16.0" id="wp-6/text" text-anchor="start" x="4.000" y="-4.000">
Nachtigall
</text>
</g>
<g>
<circle cx="913.1259158090375" cy="330.7930714285714" fill="Black" id="wp/7" r="4"/>
<circle cx="913.1259158090375" cy="330.7930714285714" fill="white" id="wp/7-little-white" r="2.5"/>
</g>
<g transform="translate(913.1259158090375 330.7930714285714)">
<rect fill="white" fill-opacity="0.75" height="12" id="label-bg" width="77.66315789473686" x="-38.83157894736837" y="-312.7930714285714"/>
<text font-size="16.0" id="wp-7/text" text-anchor="start" x="-38.832" y="-300.793">
Hagenbach
</text>
</g>
<g>
<circle cx="472.57727076415586" cy="321.1647857142857" fill="Black" id="wp/8" r="4"/>
<circle cx="472.57727076415586" cy="321.1647857142857" fill="white" id="wp/8-little-white" r="2.5"/>
</g>
<g transform="translate(472.57727076415586 321.1647857142857)">
<rect fill="white" fill-opacity="0.75" height="12" id="label-bg" width="61.557894736842115" x="4" y="-16"/>
<text font-size="16.0" id="wp-8/text" text-anchor="start" x="4.000" y="-4.000">
Iffezheim
</text>
</g>
<g>
<circle cx="815.9130787672502" cy="324.95464285714286" fill="Black" id="wp/9" r="4"/>
<circle cx="815.9130787672502" cy="324.95464285714286" fill="white" id="wp/9-little-white" r="2.5"/>
</g>
<g transform="translate(815.9130787672502 324.95464285714286)">
<rect fill="white" fill-opacity="0.75" height="12" id="label-bg" width="84.10526315789474" x="-88.10526315789474" y="-16"/>
<text font-size="16.0" id="wp-9/text" text-anchor="end" x="-4.000" y="-4.000">
Lauterbourg
</text>
</g>
<g>
<circle cx="837.6633093210603" cy="318.2967857142857" fill="Black" id="wp/10" r="4"/>
<circle cx="837.6633093210603" cy="318.2967857142857" fill="white" id="wp/10-little-white" r="2.5"/>
</g>
<g transform="translate(837.6633093210603 318.2967857142857)">
<rect fill="white" fill-opacity="0.75" height="12" id="label-bg" width="81.07368421052632" x="4" y="-16"/>
<text font-size="16.0" id="wp-10/text" text-anchor="start" x="4.000" y="-4.000">
Berg (Pfalz)
</text>
</g>
</g>
</g>
<g id="SL" transform="translate(0 0)">
<text text-anchor="end" x="66" y="363.5">
50
</text>
<text text-anchor="end" x="66" y="312.2857142857143">
150
</text>
<text text-anchor="end" x="66" y="261.07142857142856">
250
</text>
<text text-anchor="end" x="66" y="209.85714285714283">
350
</text>
<text text-anchor="end" x="66" y="158.64285714285714">
450
</text>
<text text-anchor="end" x="66" y="107.42857142857139">
550
</text>
<text text-anchor="end" x="66" y="56.21428571428572">
650
</text>
<text text-anchor="end" x="66" y="5">
750
</text>
</g>
</g>
</svg>