<svg height="400" width="1420" xmlns="http://www.w3.org/2000/svg">
<g font-size="18" id="world" shape-rendering="crispEdges">
<g id="BG"/>
<g id="SB" transform="translate(71 360)">
<text text-anchor="middle" x="0" y="17">
0
</text>
<text text-anchor="middle" x="269.6808844008064" y="17">
20
</text>
<text text-anchor="middle" x="539.3617688016128" y="17">
40
</text>
<text text-anchor="middle" x="809.0426532024192" y="17">
60
</text>
<text text-anchor="middle" x="1078.7235376032256" y="17">
80
</text>
</g>
<g id="SD" transform="translate(71 0)">
<path d="M0,0 L1347.5,0" stroke="black" stroke-width="3"/>
<path d="M0,0 L0,358.5" stroke="black" stroke-width="3"/>
<path d="M0,358.5 L1347.5,358.5" stroke="black" stroke-width="3"/>
<path d="M1347.5,0 L1347.5,358.5" stroke="black" stroke-width="3"/>
<path d="M0,0 L0,358.5" stroke="black" stroke-width="1"/>
<path d="M269.68088,0 L269.68088,358.5" stroke="black" stroke-width="1"/>
<path d="M539.36176,0 L539.36176,358.5" stroke="black" stroke-width="1"/>
<path d="M809.04266,0 L809.04266,358.5" stroke="black" stroke-width="1"/>
<path d="M1078.7235,0 L1078.7235,358.5" stroke="black" stroke-width="1"/>
<path d="M134.84044,0 L134.84044,358.5" stroke="black" stroke-dasharray="1.0,2.5,5.0,5.0,10.0,5.0"/>
<path d="M404.52133,0 L404.52133,358.5" stroke="black" stroke-dasharray="1.0,2.5,5.0,5.0,10.0,5.0"/>
<path d="M674.2022,0 L674.2022,358.5" stroke="black" stroke-dasharray="1.0,2.5,5.0,5.0,10.0,5.0"/>
<path d="M943.8831,0 L943.8831,358.5" stroke="black" stroke-dasharray="1.0,2.5,5.0,5.0,10.0,5.0"/>
<path d="M1213.564,0 L1213.564,358.5" stroke="black" stroke-dasharray="1.0,2.5,5.0,5.0,10.0,5.0"/>
<path d="M0,358.5 L1347.5,358.5" stroke="black" stroke-width="1"/>
<path d="M0,322.65 L1347.5,322.65" stroke="black" stroke-width="1"/>
<path d="M0,286.8 L1347.5,286.8" stroke="black" stroke-width="1"/>
<path d="M0,250.95 L1347.5,250.95" stroke="black" stroke-width="1"/>
<path d="M0,215.1 L1347.5,215.1" stroke="black" stroke-width="1"/>
<path d="M0,179.25 L1347.5,179.25" stroke="black" stroke-width="1"/>
<path d="M0,143.4 L1347.5,143.4" stroke="black" stroke-width="1"/>
<path d="M0,107.55 L1347.5,107.55" stroke="black" stroke-width="1"/>
<path d="M0,71.7 L1347.5,71.7" stroke="black" stroke-width="1"/>
<path d="M0,35.85 L1347.5,35.85" stroke="black" stroke-width="1"/>
<path d="M0,0 L1347.5,0" stroke="black" stroke-width="1"/>
<path d="M0,340.575 L1347.5,340.575" stroke="black" stroke-dasharray="1.0,2.5,5.0,5.0,10.0,5.0"/>
<path d="M0,304.725 L1347.5,304.725" stroke="black" stroke-dasharray="1.0,2.5,5.0,5.0,10.0,5.0"/>
<path d="M0,268.875 L1347.5,268.875" stroke="black" stroke-dasharray="1.0,2.5,5.0,5.0,10.0,5.0"/>
<path d="M0,233.025 L1347.5,233.025" stroke="black" stroke-dasharray="1.0,2.5,5.0,5.0,10.0,5.0"/>
<path d="M0,197.175 L1347.5,197.175" stroke="black" stroke-dasharray="1.0,2.5,5.0,5.0,10.0,5.0"/>
<path d="M0,161.325 L1347.5,161.325" stroke="black" stroke-dasharray="1.0,2.5,5.0,5.0,10.0,5.0"/>
<path d="M0,125.475 L1347.5,125.475" stroke="black" stroke-dasharray="1.0,2.5,5.0,5.0,10.0,5.0"/>
<path d="M0,89.625 L1347.5,89.625" stroke="black" stroke-dasharray="1.0,2.5,5.0,5.0,10.0,5.0"/>
<path d="M0,53.775 L1347.5,53.775" stroke="black" stroke-dasharray="1.0,2.5,5.0,5.0,10.0,5.0"/>
<path d="M0,17.925 L1347.5,17.925" stroke="black" stroke-dasharray="1.0,2.5,5.0,5.0,10.0,5.0"/>
<path d="M0.0,163.7 L0.2,163.4 L0.4,163.4 L0.8,163.3 L0.8,163.3 L1.5,163.4 L1.6,163.4 L1.7,163.4 L2.2,163.8 L2.7,163.8 L3.5,163.9 L4.0,163.4 L5.4,163.0 L5.6,163.2 L5.8,163.4 L6.0,163.6 L6.8,163.9 L7.3,164.0 L7.7,164.0 L8.0,163.9 L8.5,163.6 L9.1,163.5 L9.5,163.5 L9.9,163.4 L10.7,163.9 L11.1,164.0 L11.4,163.7 L11.8,163.3 L12.7,163.8 L13.1,164.1 L14.2,164.5 L15.3,165.0 L15.7,164.6 L16.2,163.4 L16.7,163.6 L17.3,164.5 L17.8,164.1 L18.3,163.6 L19.4,164.2 L20.6,163.2 L21.5,162.9 L22.0,163.2 L23.4,163.6 L23.8,163.3 L24.5,163.2 L24.9,163.5 L25.9,164.0 L26.6,163.2 L27.3,162.7 L33.5,162.0 L37.3,161.4 L39.0,160.5 L39.8,160.4 L41.5,160.8 L41.7,161.1 L41.9,161.3 L42.5,161.9 L44.0,161.0 L49.9,159.4 L50.1,159.4 L50.2,159.4 L51.3,160.2 L51.6,160.0 L53.1,160.1 L55.5,159.4 L56.2,158.7 L56.7,158.3 L57.1,158.7 L57.9,159.5 L58.3,159.1 L59.9,158.6 L60.8,158.5 L60.8,158.5 L61.1,158.6 L61.3,158.8 L61.6,158.8 L62.4,158.3 L62.6,158.1 L62.8,158.1 L63.0,158.1 L63.9,157.5 L64.2,157.4 L64.4,157.5 L64.6,157.5 L65.0,157.5 L65.3,157.6 L66.4,158.1 L67.5,158.0 L68.8,157.9 L69.1,157.7 L69.3,157.6 L69.7,157.9 L69.9,158.0 L70.3,157.8 L70.6,157.8 L72.1,158.3 L73.0,157.9 L73.2,158.0 L73.8,158.2 L74.4,158.3 L75.2,158.2 L76.2,157.5 L76.8,156.1 L77.1,155.7 L77.5,155.1 L78.1,153.3 L78.6,154.1 L78.8,153.9 L79.4,152.3 L80.0,154.0 L80.3,155.4 L80.6,156.6 L81.4,156.3 L81.6,155.9 L82.2,155.7 L82.3,155.8 L82.5,155.9 L82.7,156.0 L82.8,156.0 L83.0,155.9 L83.2,155.7 L83.7,154.3 L83.8,153.5 L84.3,153.2 L84.9,152.9 L85.5,151.3 L86.0,149.8 L86.4,150.0 L86.8,150.4 L87.3,151.6 L87.8,152.6 L89.9,152.1 L90.5,152.4 L91.1,152.3 L91.6,151.4 L93.1,151.5 L93.5,152.0 L94.2,152.2 L94.7,152.6 L95.2,152.6 L95.8,152.4 L100.7,154.0 L102.7,152.9 L104.5,150.4 L106.1,153.2 L107.1,152.1 L108.1,152.0 L109.0,152.1 L110.2,152.2 L111.2,151.2 L112.0,149.7 L112.6,150.1 L113.2,151.3 L113.8,151.1 L114.2,151.3 L114.8,151.1 L116.6,152.4 L117.7,152.8 L119.3,152.4 L121.4,151.1 L122.6,149.5 L124.2,149.5 L127.1,146.4 L128.2,148.0 L129.3,149.7 L130.4,150.6 L131.9,148.9 L133.1,149.7 L134.1,150.1 L135.3,150.7 L135.5,150.8 L136.7,148.7 L137.4,148.0 L139.6,148.7 L141.9,147.7 L143.1,148.3 L144.1,148.8 L144.8,146.4 L145.1,146.2 L145.7,147.6 L146.4,149.6 L147.2,148.0 L148.2,146.4 L148.8,147.9 L148.9,147.9 L149.5,147.2 L150.2,146.8 L151.8,147.7 L152.3,147.4 L152.9,147.0 L154.4,146.7 L154.8,146.2 L155.2,145.4 L155.7,145.5 L156.0,145.9 L156.4,146.4 L156.9,145.4 L161.1,144.2 L161.7,144.6 L162.1,144.4 L162.4,143.9 L162.8,143.1 L163.8,143.4 L164.4,143.9 L164.8,144.4 L165.2,144.4 L165.8,143.6 L166.1,143.4 L167.9,143.7 L169.6,142.8 L170.0,142.6 L170.5,142.8 L171.2,142.8 L173.0,145.0 L173.6,144.9 L175.0,143.0 L178.2,140.6 L179.1,142.3 L179.8,142.1 L180.7,142.2 L181.4,140.7 L182.1,139.8 L182.5,140.1 L185.7,140.0 L187.0,143.8 L187.7,141.8 L188.1,140.6 L188.7,140.1 L188.9,140.6 L189.0,140.7 L189.1,140.7 L189.4,140.7 L189.5,140.4 L190.0,140.3 L190.9,140.3 L191.9,141.6 L192.5,140.8 L192.9,140.4 L194.1,133.0 L194.5,132.9 L194.9,132.9 L195.3,133.5 L195.9,135.3 L196.9,134.9 L197.3,134.6 L197.9,136.1 L198.4,138.3 L199.6,138.8 L200.0,139.2 L200.3,139.3 L201.6,133.8 L201.9,133.9 L202.6,136.3 L203.2,138.5 L203.2,138.6 L203.6,138.2 L203.9,137.7 L206.2,137.1 L207.2,137.4 L207.6,137.6 L208.4,137.2 L208.8,136.8 L209.4,137.0 L210.1,135.8 L212.5,134.9 L215.2,134.7 L216.2,134.6 L216.6,135.9 L216.9,136.1 L217.2,135.4 L217.3,134.9 L217.9,132.9 L221.4,128.1 L221.6,128.3 L222.3,127.4 L223.1,127.3 L223.8,126.8 L224.5,127.8 L224.7,128.1 L226.1,126.0 L226.5,125.1 L226.8,124.6 L227.3,123.8 L228.5,122.9 L228.7,123.4 L229.8,122.2 L230.4,122.5 L230.7,123.1 L231.5,122.7 L231.7,122.4 L232.0,122.1 L232.8,122.1 L233.1,121.1 L233.7,120.1 L234.5,120.9 L235.1,121.1 L235.3,121.0 L237.0,120.1 L237.8,117.3 L238.6,115.9 L240.1,110.8 L240.4,111.0 L240.9,111.0 L242.2,109.2 L242.5,109.6 L242.7,109.9 L242.8,110.3 L243.1,111.0 L243.3,110.6 L243.7,108.4 L243.9,107.6 L244.1,107.5 L244.3,107.2 L244.6,106.6 L244.8,105.8 L244.9,105.7 L245.7,107.1 L246.0,108.1 L246.3,107.4 L246.6,106.3 L246.9,105.9 L247.3,105.3 L247.7,105.4 L248.0,106.0 L249.2,105.6 L250.1,104.7 L250.6,105.3 L252.9,105.5 L254.4,105.7 L255.1,103.9 L255.6,103.5 L256.2,103.4 L257.8,102.6 L258.8,103.9 L259.2,103.9 L259.9,103.5 L261.3,102.0 L261.8,100.5 L262.0,100.0 L263.1,100.7 L264.4,101.7 L265.0,103.0 L265.3,103.6 L265.9,103.6 L266.1,102.9 L266.7,99.1 L267.5,97.3 L269.2,101.8 L269.7,100.6 L271.1,95.5 L271.3,95.8 L271.4,96.0 L272.8,96.9 L273.3,96.9 L274.2,97.3 L274.3,97.2 L274.4,97.0 L274.8,97.4 L275.0,97.8 L275.6,97.8 L276.3,97.3 L277.2,96.7 L278.0,95.0 L278.6,95.6 L279.8,95.3 L280.3,95.3 L280.8,94.9 L281.6,94.5 L281.9,94.3 L282.6,93.3 L282.9,93.3 L283.3,93.5 L283.8,93.2 L284.5,92.1 L285.1,92.2 L285.5,92.8 L285.7,92.9 L286.5,92.3 L288.0,90.2 L288.4,89.0 L289.6,88.4 L289.9,88.4 L292.2,86.1 L293.3,87.3 L294.7,85.9 L295.1,85.6 L295.3,85.3 L295.7,85.1 L296.8,84.9 L297.1,84.5 L297.6,84.7 L299.0,84.7 L300.5,83.8 L301.4,81.9 L301.9,81.2 L302.8,81.5 L303.3,82.0 L303.6,81.8 L304.7,80.5 L305.6,79.9 L306.2,78.9 L306.9,78.6 L307.7,78.3 L309.1,77.4 L309.4,76.9 L309.7,76.5 L310.4,76.4 L311.1,76.0 L311.3,75.6 L311.8,74.3 L313.0,74.1 L314.6,73.5 L315.0,73.3 L315.7,71.7 L315.8,71.3 L316.0,70.8 L316.2,70.3 L316.7,69.5 L318.1,66.5 L318.4,66.8 L318.8,68.3 L318.9,68.7 L319.1,68.9 L319.2,68.9 L319.5,68.9 L319.7,68.6 L319.9,68.7 L320.7,71.3 L320.8,71.6 L321.0,71.7 L321.6,70.5 L321.9,68.9 L322.2,68.4 L322.4,68.3 L322.6,68.4 L322.7,68.3 L323.1,68.2 L323.7,68.5 L323.9,68.8 L324.1,68.7 L324.3,68.4 L326.5,65.0 L327.2,64.3 L328.2,62.1 L329.2,60.4 L329.7,60.3 L330.2,60.2 L330.6,59.6 L331.2,58.1 L331.9,58.2 L332.4,57.8 L334.0,53.2 L334.7,51.4 L335.5,49.6 L336.4,50.6 L338.2,47.4 L338.9,46.9 L339.5,46.1 L340.2,45.1 L340.8,44.9 L343.8,51.3 L345.5,57.0 L345.9,58.1 L346.3,59.9 L347.0,61.9 L348.0,64.4 L348.4,65.5 L349.0,67.8 L349.4,69.2 L349.8,69.9 L350.5,69.1 L352.8,71.2 L353.2,70.9 L354.8,72.3 L355.7,74.3 L355.9,74.9 L357.7,75.6 L359.0,79.5 L359.8,80.9 L361.3,81.3 L362.8,82.7 L363.5,83.4 L364.9,86.1 L365.3,86.3 L365.6,86.9 L366.8,91.5 L367.2,93.1 L367.3,93.6 L367.6,93.5 L368.2,92.3 L370.1,92.6 L373.4,94.4 L374.4,95.5 L374.6,95.8 L374.8,95.8 L375.1,95.5 L375.4,94.9 L375.9,95.3 L376.3,95.5 L378.9,91.8 L379.4,91.9 L380.1,92.1 L381.8,95.5 L382.0,95.8 L382.3,96.1 L382.7,95.9 L382.9,95.9 L383.0,95.9 L383.5,96.3 L383.7,96.3 L383.8,96.2 L384.0,96.2 L384.2,96.3 L384.3,96.4 L384.4,96.5 L384.6,96.7 L384.8,96.7 L385.0,96.6 L386.0,97.8 L387.0,98.4 L387.0,98.4 L388.1,99.4 L388.5,99.6 L388.6,99.7 L388.8,99.9 L389.1,100.2 L389.5,99.5 L389.6,99.4 L389.7,99.4 L389.9,99.3 L390.1,99.3 L390.3,99.4 L390.5,99.6 L390.8,100.0 L391.0,100.2 L391.1,100.2 L391.9,99.8 L392.7,100.7 L393.1,101.0 L393.5,101.0 L393.6,100.9 L394.3,100.2 L394.8,99.6 L395.2,100.9 L395.3,101.0 L395.4,101.6 L395.6,101.9 L395.8,102.2 L396.2,102.3 L396.4,102.3 L396.6,102.4 L396.7,102.4 L396.8,102.4 L397.4,102.9 L398.3,102.7 L398.5,102.3 L399.0,101.7 L399.7,101.8 L400.3,102.2 L400.9,101.7 L401.2,101.6 L401.4,101.4 L401.6,101.2 L401.9,100.8 L402.6,101.3 L403.3,101.3 L405.0,102.3 L405.3,102.8 L405.5,103.0 L405.9,103.5 L405.9,103.6 L406.4,104.2 L406.6,104.1 L407.0,104.0 L407.2,104.1 L407.2,104.1 L407.4,104.1 L407.7,104.0 L407.8,103.9 L407.9,103.7 L408.7,103.5 L409.2,103.2 L409.8,102.7 L410.3,101.6 L410.7,100.5 L411.0,100.6 L411.6,100.6 L411.6,100.6 L412.6,102.4 L413.4,103.6 L414.2,104.1 L414.4,104.0 L414.5,103.9 L414.6,103.7 L415.5,103.5 L415.9,103.2 L417.4,102.9 L418.0,102.0 L418.6,100.3 L419.4,99.2 L420.2,100.5 L420.5,100.6 L421.1,100.6 L421.1,100.6 L422.1,102.4 L422.9,103.6 L423.7,104.1 L423.9,104.0 L424.0,103.9 L424.1,103.7 L425.0,103.5 L425.4,103.2 L426.9,102.9 L427.5,102.0 L428.1,100.3 L428.7,100.7 L429.0,99.4 L429.2,98.9 L429.3,98.6 L429.9,99.1 L430.4,99.6 L430.6,99.6 L431.3,98.4 L431.5,98.3 L431.8,98.5 L433.2,96.9 L433.6,97.3 L434.6,95.6 L435.5,96.4 L435.8,96.1 L438.1,96.9 L438.2,96.9 L439.1,96.4 L439.9,94.5 L440.6,94.9 L441.6,92.9 L442.7,94.4 L443.8,94.9 L444.6,95.5 L444.7,95.5 L445.1,95.1 L445.5,95.2 L446.6,94.4 L449.0,94.4 L450.0,94.8 L450.6,93.1 L451.5,94.5 L452.1,93.2 L452.7,93.9 L453.5,94.5 L453.8,94.2 L453.9,94.0 L454.3,93.4 L454.6,92.7 L458.4,86.6 L459.2,85.5 L460.2,88.3 L460.9,90.3 L461.4,90.3 L465.7,88.4 L465.9,87.5 L468.2,80.3 L469.3,82.8 L473.1,84.2 L473.8,85.1 L473.9,85.1 L474.1,85.0 L475.0,83.4 L476.2,81.6 L477.3,81.9 L478.2,83.6 L479.3,83.6 L479.6,83.2 L480.2,82.5 L480.8,82.1 L481.2,82.1 L481.4,82.2 L481.8,82.4 L482.7,80.7 L483.5,79.8 L484.2,78.0 L484.7,77.1 L484.8,77.1 L485.5,77.3 L486.4,75.9 L487.0,75.2 L487.4,74.5 L488.7,74.7 L489.1,74.1 L489.3,73.7 L489.8,73.1 L490.2,73.1 L491.1,73.1 L491.4,72.5 L491.9,70.6 L492.2,70.7 L492.9,73.1 L493.1,72.6 L493.3,72.0 L493.9,70.2 L494.7,68.1 L495.8,69.3 L496.1,68.9 L496.5,68.7 L496.8,68.5 L497.3,67.6 L497.5,68.0 L497.6,68.3 L497.7,68.5 L498.2,68.9 L498.3,69.0 L498.5,68.9 L498.8,68.6 L499.5,65.5 L499.9,64.3 L500.2,63.9 L500.6,63.3 L501.6,60.2 L502.5,57.6 L503.3,53.2 L503.7,51.8 L504.4,52.5 L504.7,53.0 L505.0,53.6 L505.5,54.8 L505.7,55.4 L506.5,56.4 L506.9,55.8 L507.1,55.4 L507.3,54.8 L507.5,54.3 L508.5,52.2 L508.7,51.5 L509.0,50.7 L509.5,49.2 L509.8,48.9 L512.0,48.0 L513.5,47.0 L513.9,46.2 L514.8,44.7 L515.7,45.8 L517.7,45.6 L518.1,46.4 L518.4,46.9 L518.6,47.5 L518.9,48.2 L519.5,46.9 L520.4,43.4 L521.7,42.0 L522.9,41.3 L523.3,42.2 L525.1,43.8 L526.3,47.8 L526.8,49.2 L527.1,49.3 L527.4,49.6 L528.1,50.0 L528.6,50.2 L529.2,49.7 L529.8,50.1 L530.6,51.5 L531.4,52.1 L531.8,52.5 L532.5,54.3 L532.6,54.7 L532.8,54.9 L533.3,55.2 L533.5,55.0 L533.6,54.8 L534.1,54.9 L534.3,55.0 L534.5,55.1 L535.0,55.4 L535.5,56.3 L535.6,56.4 L535.8,56.4 L536.3,55.5 L536.5,55.1 L536.9,54.2 L537.5,52.5 L538.3,52.2 L538.8,52.1 L538.9,52.1 L539.7,51.7 L540.1,51.1 L540.7,48.9 L541.0,48.8 L541.4,48.9 L541.8,48.8 L542.3,48.5 L543.2,49.4 L543.4,49.8 L544.4,49.1 L545.6,46.6 L546.7,49.2 L547.6,51.7 L548.2,53.4 L548.6,53.8 L549.1,54.1 L549.7,53.9 L549.9,53.9 L550.9,52.6 L553.6,54.5 L556.0,51.2 L556.2,51.0 L556.5,51.5 L556.6,52.3 L557.0,53.7 L558.3,52.2 L558.9,51.2 L559.1,51.3 L559.4,51.9 L560.6,55.6 L561.3,57.1 L561.9,58.4 L562.1,58.8 L562.3,59.3 L562.7,60.9 L563.0,61.9 L563.1,62.4 L563.2,62.9 L563.6,64.1 L564.3,63.7 L564.5,63.5 L564.7,63.5 L564.9,63.9 L565.1,64.1 L565.5,64.5 L566.4,65.1 L567.0,67.0 L567.7,67.9 L569.1,69.6 L569.5,70.8 L569.7,71.3 L570.7,71.7 L571.1,71.8 L571.5,71.6 L571.8,72.0 L572.5,70.2 L572.9,71.4 L573.5,73.7 L573.9,74.6 L574.3,75.4 L574.6,75.5 L575.0,75.6 L575.3,75.6 L576.1,75.7 L576.3,75.8 L576.5,76.3 L580.1,80.2 L580.6,79.8 L581.6,81.3 L583.1,86.3 L583.7,88.0 L583.9,88.9 L584.1,89.4 L584.2,89.6 L585.2,91.3 L585.6,92.3 L586.4,94.9 L586.5,94.8 L587.0,94.6 L587.5,95.2 L587.6,95.4 L588.2,96.7 L588.5,96.1 L588.6,96.1 L590.2,99.7 L590.8,100.1 L591.3,98.8 L591.6,98.7 L591.8,98.7 L592.0,98.7 L592.6,97.9 L592.9,97.9 L593.1,98.2 L593.8,97.9 L593.9,97.5 L594.5,96.4 L594.6,96.0 L595.3,95.3 L595.9,94.7 L596.5,94.1 L597.3,93.6 L597.8,92.6 L598.5,91.2 L598.7,90.7 L599.0,89.8 L599.5,88.9 L599.8,89.1 L600.5,88.8 L600.8,87.6 L601.3,86.3 L602.3,83.7 L602.6,83.2 L602.9,83.4 L603.9,83.5 L604.4,82.7 L604.8,82.3 L606.4,80.4 L606.9,79.6 L607.3,78.5 L607.8,77.6 L608.4,78.2 L608.6,78.5 L609.1,78.1 L609.4,77.7 L609.8,76.9 L610.0,76.5 L610.2,76.1 L610.5,75.8 L610.7,75.9 L611.3,75.7 L611.7,75.0 L611.9,74.9 L612.2,75.2 L612.4,75.4 L612.6,75.4 L615.1,66.2 L615.3,65.0 L615.6,63.8 L616.0,63.5 L617.0,63.2 L617.2,62.5 L618.3,61.6 L619.2,60.3 L619.5,59.2 L620.3,58.0 L621.4,61.3 L621.5,61.5 L622.5,62.5 L623.1,63.9 L624.0,64.1 L624.8,63.7 L625.7,62.6 L626.2,62.6 L626.9,63.0 L628.6,62.9 L629.0,63.2 L630.0,64.7 L630.8,64.0 L632.5,68.4 L632.8,69.4 L633.1,70.2 L633.3,70.4 L633.6,70.7 L633.6,70.7 L633.9,71.2 L634.1,71.7 L634.5,72.4 L634.8,72.3 L635.1,71.6 L635.4,71.2 L635.7,71.6 L636.0,72.7 L636.4,72.5 L636.9,71.8 L637.2,71.6 L637.4,71.6 L637.5,71.6 L637.9,71.6 L638.3,72.1 L638.8,72.0 L639.1,71.6 L640.0,72.8 L640.3,72.9 L640.9,73.2 L641.3,73.0 L641.8,72.0 L642.1,71.3 L642.7,72.0 L643.3,73.8 L643.7,74.5 L644.9,76.6 L645.5,77.8 L646.0,78.3 L647.4,79.9 L648.1,82.2 L648.5,82.3 L649.9,82.1 L650.2,81.7 L650.3,81.5 L650.6,81.5 L650.8,81.6 L650.9,81.4 L651.1,81.1 L651.3,81.1 L652.1,81.4 L652.9,87.1 L653.1,88.2 L653.2,88.7 L653.4,89.1 L653.5,89.2 L653.7,88.8 L655.1,84.9 L655.7,85.8 L656.5,90.1 L657.4,90.7 L657.7,91.3 L657.9,92.7 L658.1,94.2 L658.3,94.8 L658.5,95.3 L658.7,95.5 L659.0,95.3 L659.6,93.3 L659.9,91.1 L660.3,89.1 L660.7,88.8 L661.2,90.4 L661.7,93.0 L662.8,97.2 L663.1,98.0 L663.5,99.1 L663.8,100.0 L664.5,102.9 L664.8,104.8 L665.2,106.9 L665.9,108.3 L667.9,114.9 L668.4,116.5 L668.5,117.2 L669.2,118.9 L670.3,119.0 L671.0,120.2 L672.5,123.8 L674.1,127.7 L675.1,129.7 L675.9,127.6 L677.6,131.0 L678.0,131.0 L678.4,130.4 L678.9,130.7 L680.7,130.4 L682.1,133.6 L683.1,129.3 L683.7,129.8 L684.0,129.9 L685.8,134.1 L686.8,132.8 L688.0,136.5 L688.3,137.3 L688.7,138.7 L689.5,142.2 L689.8,142.7 L689.9,143.1 L690.4,143.3 L690.9,140.9 L691.8,134.7 L692.1,134.0 L692.4,133.8 L692.6,134.2 L693.6,137.5 L693.7,137.9 L693.9,138.8 L694.3,140.7 L694.7,140.8 L694.9,139.9 L695.3,138.9 L695.8,138.1 L696.4,139.9 L697.2,143.1 L697.5,143.8 L697.7,144.3 L698.1,145.3 L698.5,146.1 L699.0,147.2 L699.4,148.3 L699.9,149.0 L700.1,149.2 L700.5,148.3 L701.2,145.6 L701.5,145.3 L701.8,145.9 L702.8,150.1 L704.8,155.9 L705.0,156.7 L706.1,154.8 L706.4,156.2 L706.8,158.5 L707.0,161.0 L707.3,163.2 L708.3,165.8 L709.2,167.5 L709.7,167.2 L710.0,167.5 L710.7,167.7 L711.1,168.0 L711.4,167.7 L711.6,167.5 L712.6,170.1 L712.9,169.9 L713.5,168.8 L714.0,169.1 L714.4,171.7 L714.7,172.7 L715.0,173.5 L715.7,174.9 L716.4,176.1 L717.4,178.4 L718.9,176.7 L719.9,176.1 L720.4,177.1 L720.7,177.0 L721.7,179.9 L722.1,179.6 L722.8,179.8 L723.2,180.7 L724.4,182.8 L725.0,183.7 L725.4,183.9 L725.9,184.2 L726.8,183.8 L727.3,182.3 L728.0,185.0 L729.4,189.8 L730.0,191.3 L730.4,192.7 L730.5,193.0 L730.8,194.0 L731.1,194.6 L731.4,195.2 L731.5,195.2 L731.7,194.7 L732.6,190.7 L733.3,189.9 L733.7,189.3 L734.0,189.9 L734.3,191.2 L735.1,194.3 L735.3,195.1 L735.5,195.3 L736.7,193.0 L736.9,192.7 L737.1,193.0 L737.3,193.5 L737.5,194.1 L737.9,194.4 L738.6,194.8 L739.0,195.1 L739.4,195.6 L740.0,197.2 L740.9,198.2 L741.3,198.6 L741.5,198.9 L741.8,199.9 L742.0,200.9 L742.2,202.3 L742.7,205.1 L742.8,205.6 L742.9,205.9 L742.9,206.1 L743.0,206.4 L743.0,206.6 L743.1,206.8 L743.1,207.0 L743.2,207.1 L743.5,207.0 L743.7,206.9 L744.0,206.9 L745.7,206.2 L746.1,206.0 L746.3,205.9 L746.8,208.0 L748.4,211.2 L749.1,212.3 L749.4,212.6 L749.7,213.0 L750.4,211.5 L750.9,212.1 L751.8,214.7 L752.7,216.2 L753.9,217.6 L754.3,217.3 L754.7,217.3 L755.1,217.8 L755.8,218.5 L755.9,218.7 L756.3,218.8 L756.6,218.5 L757.0,218.0 L757.5,219.1 L757.5,219.2 L758.3,220.5 L758.9,220.9 L759.2,220.9 L760.3,220.4 L760.8,221.4 L761.3,222.5 L763.5,219.6 L764.1,221.7 L764.3,222.3 L764.6,222.8 L764.9,223.6 L765.4,225.0 L765.7,225.6 L766.1,226.3 L766.3,226.8 L766.5,227.2 L766.7,227.5 L767.1,227.5 L767.5,227.5 L769.0,229.4 L769.8,228.4 L770.2,227.7 L770.6,227.9 L771.4,227.8 L772.0,228.7 L773.1,230.0 L773.4,230.3 L773.7,230.6 L774.0,231.1 L774.5,231.2 L774.9,231.4 L775.3,231.7 L776.7,230.9 L777.2,229.7 L777.6,230.5 L778.2,231.8 L778.7,231.5 L779.3,232.8 L779.7,233.3 L780.3,234.3 L780.7,234.9 L781.2,235.3 L781.4,235.3 L781.7,235.1 L781.8,234.9 L781.9,234.8 L782.2,234.6 L782.5,234.6 L783.1,235.2 L783.8,235.3 L783.9,235.2 L784.0,235.1 L784.0,235.0 L784.1,234.9 L784.2,234.7 L784.4,234.5 L784.7,234.3 L785.0,234.5 L785.7,235.1 L786.0,235.7 L786.3,236.2 L786.5,236.5 L787.2,236.7 L788.9,237.9 L789.5,238.5 L790.0,238.9 L791.0,239.4 L791.7,240.5 L791.8,240.4 L792.3,240.5 L793.2,240.5 L793.5,240.7 L793.7,240.7 L794.1,240.3 L795.5,240.9 L795.9,241.8 L796.6,240.7 L796.8,240.3 L797.3,240.4 L797.9,241.8 L798.4,242.0 L799.2,243.2 L799.5,243.6 L800.2,243.2 L800.6,243.2 L801.1,243.7 L801.6,244.7 L801.9,245.0 L802.0,245.1 L802.5,245.0 L803.0,244.8 L803.3,244.5 L804.0,243.6 L804.5,244.7 L804.8,245.2 L805.3,246.0 L805.5,246.1 L805.8,246.0 L806.1,246.1 L806.3,246.4 L806.4,246.5 L806.7,246.4 L807.1,245.9 L807.3,245.5 L807.5,245.3 L807.9,245.3 L808.4,244.9 L808.6,244.5 L809.8,241.1 L809.9,240.8 L810.7,240.5 L811.8,239.4 L812.8,236.2 L814.3,234.2 L814.7,234.2 L816.6,231.4 L817.5,230.9 L817.8,230.6 L818.9,228.4 L819.4,227.5 L820.8,223.8 L821.7,220.7 L822.4,221.1 L823.7,218.8 L825.3,216.7 L825.8,213.8 L828.0,210.2 L828.2,209.1 L828.5,208.6 L829.1,207.0 L830.1,204.9 L830.5,202.4 L832.0,199.0 L832.5,197.7 L833.2,195.2 L834.4,192.4 L835.8,188.5 L836.2,187.2 L836.6,187.2 L836.7,187.6 L837.0,188.3 L837.4,190.0 L837.6,190.6 L838.1,192.0 L838.6,194.0 L838.9,195.2 L839.2,196.4 L839.8,196.5 L840.9,197.6 L841.5,201.8 L842.3,205.7 L843.3,209.7 L843.8,211.8 L844.0,213.1 L844.2,215.5 L844.3,216.6 L844.6,217.5 L844.9,218.5 L845.2,218.7 L845.4,218.8 L845.6,219.0 L845.7,219.4 L846.2,220.4 L846.5,220.9 L847.5,221.2 L847.7,221.3 L848.1,221.3 L848.8,222.1 L848.9,222.0 L849.1,221.5 L849.6,220.0 L849.9,220.1 L851.1,221.7 L851.7,222.9 L852.4,224.0 L852.5,224.2 L852.7,224.4 L852.8,224.5 L852.9,224.5 L853.1,224.3 L853.6,223.9 L853.7,224.3 L853.8,224.8 L854.0,225.6 L855.5,228.7 L857.0,230.6 L857.1,230.8 L857.3,231.1 L858.1,234.4 L858.7,237.1 L859.1,238.8 L859.4,239.5 L859.7,240.6 L860.2,242.5 L860.6,243.2 L860.7,243.6 L861.5,246.5 L862.8,246.0 L863.4,246.2 L864.4,242.0 L865.0,247.6 L865.9,252.3 L866.1,252.5 L866.9,253.4 L867.2,253.1 L867.9,255.6 L868.1,256.1 L868.8,252.2 L869.4,255.6 L869.9,261.0 L870.7,265.6 L871.3,267.1 L871.7,268.0 L872.1,269.6 L872.6,270.1 L873.4,267.6 L873.5,267.2 L873.6,267.1 L874.8,268.1 L875.7,271.2 L876.1,272.2 L877.8,278.2 L878.0,278.3 L878.6,278.1 L878.9,277.9 L879.3,278.7 L879.7,280.8 L880.0,281.6 L880.4,282.1 L881.5,283.7 L882.0,285.2 L882.8,284.2 L883.1,282.5 L883.8,279.1 L884.0,278.5 L884.6,279.4 L884.9,280.8 L885.1,281.8 L885.4,282.6 L887.6,287.3 L889.2,290.0 L889.7,290.3 L890.2,288.2 L890.3,287.6 L890.6,286.5 L892.3,284.5 L893.2,284.5 L893.9,286.7 L894.2,286.2 L894.9,288.4 L896.7,297.3 L897.0,297.7 L897.3,298.3 L897.6,298.7 L898.1,297.2 L898.3,296.9 L899.2,298.3 L899.4,298.2 L900.1,297.1 L900.4,297.4 L901.3,295.6 L901.5,295.5 L902.3,298.3 L903.1,301.8 L904.1,303.2 L904.3,303.5 L905.2,305.6 L905.7,306.1 L905.9,306.2 L906.7,305.5 L907.3,305.5 L908.5,305.9 L909.2,306.9 L909.6,308.1 L910.3,308.1 L910.6,308.6 L911.3,309.7 L911.6,309.7 L913.4,308.5 L914.0,309.5 L914.4,309.6 L914.7,308.8 L914.9,309.0 L915.4,310.9 L916.3,312.2 L917.4,312.6 L917.9,313.1 L918.7,313.4 L919.9,314.3 L920.2,314.5 L920.8,315.6 L921.1,315.6 L921.4,315.5 L921.8,315.9 L921.9,316.2 L922.1,316.7 L922.5,317.6 L923.1,318.1 L923.4,318.3 L924.1,318.5 L924.2,318.5 L924.7,318.4 L925.0,318.7 L925.7,319.9 L926.2,320.0 L926.6,319.8 L927.1,319.4 L927.5,319.3 L927.7,319.6 L927.9,319.7 L928.3,319.9 L928.7,320.0 L928.8,320.1 L929.4,320.8 L929.8,322.1 L930.2,322.3 L930.5,322.0 L930.9,321.9 L931.1,322.0 L931.3,322.2 L931.5,322.4 L931.8,322.5 L932.0,322.5 L932.3,322.2 L932.6,322.2 L933.0,321.9 L934.0,319.9 L934.5,319.5 L935.2,321.6 L937.2,322.9 L937.6,323.3 L938.8,322.8 L938.9,322.8 L939.2,323.2 L940.0,323.5 L940.2,323.7 L940.5,323.7 L940.7,323.4 L941.5,322.5 L941.9,323.3 L943.0,322.1 L943.8,322.2 L944.4,322.3 L945.2,322.1 L947.0,325.1 L947.7,325.7 L948.3,326.0 L948.9,326.0 L950.0,327.5 L951.4,328.3 L953.0,330.3 L954.9,330.0 L955.1,330.1 L959.7,332.9 L959.7,332.9 L959.8,333.0 L960.1,332.8 L960.7,332.1 L962.5,332.2 L962.8,332.2 L963.8,331.6 L963.9,331.8 L964.1,331.9 L964.2,331.9 L964.3,332.0 L965.3,333.2 L966.9,333.6 L967.4,333.1 L967.9,332.7 L968.2,332.8 L968.4,332.8 L968.6,333.0 L968.8,333.2 L969.4,333.8 L969.8,333.8 L970.5,334.1 L970.9,334.2 L971.3,334.4 L971.5,334.6 L972.8,335.0 L973.7,335.1 L973.9,335.1 L974.6,335.2 L975.1,335.2 L975.3,335.2 L975.5,335.2 L975.8,335.2 L976.0,335.2 L976.4,335.2 L976.5,335.2 L976.7,335.2 L976.9,335.2 L977.3,335.0 L978.2,335.1 L978.6,335.1 L978.8,334.9 L979.0,334.9 L979.8,334.1 L980.3,335.0 L981.4,335.2 L982.1,334.9 L983.8,334.8 L986.5,334.2 L988.8,334.9 L990.1,334.8 L991.6,334.3 L991.8,334.3 L995.1,334.3 L995.4,334.1 L995.5,334.2 L996.7,333.8 L996.9,333.7 L997.9,333.3 L1000.1,333.0 L1000.5,332.6 L1001.0,332.5 L1002.1,332.0 L1002.3,331.7 L1003.4,329.5 L1003.7,329.6 L1004.1,329.6 L1004.1,329.5 L1004.8,327.7 L1005.0,327.1 L1005.4,327.0 L1006.0,326.7 L1006.5,325.8 L1007.5,323.2 L1008.0,322.1 L1008.4,322.6 L1009.2,322.9 L1009.6,322.5 L1009.6,322.4 L1010.1,322.7 L1010.6,324.2 L1011.0,325.4 L1011.4,325.9 L1011.5,326.1 L1011.7,326.1 L1012.2,325.6 L1012.7,325.3 L1013.2,325.5 L1013.6,325.3 L1013.8,325.3 L1013.9,325.2 L1016.4,323.0 L1017.2,321.6 L1017.9,320.2 L1018.5,319.9 L1019.2,318.8 L1019.8,318.2 L1020.0,318.2 L1020.4,318.6 L1021.2,318.0 L1021.5,318.1 L1021.8,318.5 L1021.9,318.6 L1022.0,318.7 L1022.2,318.7 L1022.8,318.5 L1023.5,318.9 L1024.4,318.0 L1025.2,317.2 L1026.0,317.1 L1026.7,317.7 L1027.3,317.3 L1028.7,315.9 L1029.5,314.4 L1029.9,313.9 L1030.4,312.9 L1031.0,311.5 L1032.3,310.6 L1033.0,310.4 L1033.7,308.6 L1034.5,310.0 L1035.0,310.5 L1035.6,309.3 L1035.8,308.8 L1036.1,308.1 L1036.8,306.5 L1037.3,304.3 L1037.9,302.1 L1038.5,300.8 L1039.8,304.5 L1040.0,304.8 L1040.3,305.2 L1040.6,304.5 L1042.1,299.8 L1042.3,299.7 L1043.8,299.5 L1045.0,299.1 L1046.1,296.6 L1046.6,295.9 L1046.8,295.3 L1047.9,293.7 L1050.3,287.6 L1050.7,287.8 L1051.1,287.9 L1054.7,279.2 L1055.2,278.0 L1056.6,278.4 L1057.9,280.1 L1058.3,278.3 L1058.8,274.8 L1060.3,268.0 L1061.0,265.8 L1061.7,265.0 L1062.2,264.8 L1063.1,265.1 L1063.9,263.1 L1064.7,262.4 L1065.5,260.6 L1066.1,259.0 L1066.3,257.5 L1066.6,256.1 L1069.0,254.6 L1069.5,255.4 L1069.9,254.0 L1070.8,256.3 L1071.8,256.9 L1072.0,256.2 L1073.0,253.2 L1073.2,252.7 L1073.3,252.6 L1073.5,252.4 L1074.3,249.4 L1075.1,243.4 L1075.4,241.6 L1075.7,239.8 L1076.0,238.8 L1076.3,238.5 L1077.7,240.9 L1078.4,239.0 L1078.7,238.9 L1079.3,238.5 L1080.5,234.0 L1080.8,234.0 L1081.1,234.2 L1083.1,227.5 L1084.0,225.1 L1084.6,223.3 L1085.4,221.1 L1085.5,221.0 L1085.6,221.1 L1085.7,221.4 L1085.9,222.1 L1085.9,222.1 L1086.3,223.1 L1086.4,223.2 L1086.6,222.6 L1086.9,221.1 L1087.0,220.2 L1087.1,219.9 L1087.4,220.4 L1087.6,220.1 L1087.9,219.1 L1088.2,217.4 L1088.9,213.4 L1089.2,211.0 L1089.6,208.6 L1090.0,205.7 L1090.2,204.5 L1090.3,204.3 L1090.4,204.8 L1091.3,205.4 L1091.7,206.5 L1092.1,204.8 L1094.2,188.7 L1094.6,189.1 L1095.0,193.3 L1095.4,195.2 L1096.3,196.4 L1096.8,194.4 L1097.6,191.7 L1098.1,188.8 L1098.9,187.2 L1099.2,187.1 L1099.5,186.7 L1100.6,185.6 L1100.8,184.9 L1101.6,182.4 L1102.5,185.8 L1102.8,185.7 L1103.6,181.8 L1104.7,176.5 L1104.9,175.7 L1105.5,173.9 L1106.1,173.5 L1108.0,164.4 L1109.3,160.2 L1109.7,160.2 L1110.2,159.1 L1110.4,159.1 L1111.0,161.1 L1111.3,162.6 L1111.8,163.8 L1112.8,164.4 L1113.8,164.9 L1114.4,166.6 L1114.8,167.3 L1115.6,168.8 L1116.3,170.3 L1116.6,171.1 L1116.8,171.9 L1117.4,173.8 L1117.7,174.1 L1118.7,174.8 L1119.0,174.7 L1119.8,176.3 L1120.0,177.0 L1120.5,178.6 L1121.0,179.8 L1122.2,183.0 L1122.3,184.1 L1122.9,187.1 L1123.2,188.0 L1123.9,187.1 L1124.2,187.7 L1124.3,188.0 L1124.5,188.8 L1124.6,189.5 L1125.2,190.3 L1125.9,191.2 L1126.2,192.0 L1126.6,194.2 L1128.6,200.7 L1129.0,202.1 L1129.4,203.6 L1129.7,204.3 L1130.1,204.2 L1130.4,204.9 L1130.7,205.5 L1130.9,205.4 L1131.4,204.8 L1131.5,204.4 L1131.7,203.7 L1132.3,202.5 L1132.5,202.4 L1133.8,202.6 L1134.8,207.3 L1136.5,209.3 L1137.0,208.8 L1137.1,209.1 L1137.3,210.3 L1137.5,209.6 L1139.2,202.7 L1139.5,202.3 L1140.1,201.3 L1141.0,198.2 L1141.8,196.0 L1142.3,195.2 L1142.9,193.9 L1144.1,190.7 L1144.3,190.1 L1144.5,189.3 L1145.3,184.8 L1145.9,183.1 L1146.4,180.8 L1146.7,179.2 L1146.8,179.0 L1146.9,179.2 L1147.2,181.3 L1147.8,180.9 L1148.0,179.5 L1148.3,177.5 L1149.8,170.4 L1150.2,169.0 L1150.4,168.5 L1150.6,167.7 L1151.1,164.0 L1151.4,163.2 L1151.5,163.3 L1151.7,163.8 L1152.4,163.4 L1152.7,161.8 L1153.1,161.0 L1153.3,160.8 L1154.1,160.8 L1154.4,160.6 L1155.1,157.6 L1155.4,157.0 L1155.8,156.6 L1156.0,155.7 L1156.1,154.9 L1156.7,153.4 L1156.9,153.9 L1157.4,152.5 L1158.6,145.7 L1159.2,142.5 L1159.9,146.0 L1160.3,146.2 L1160.7,145.5 L1161.2,143.0 L1161.7,142.0 L1162.8,139.1 L1163.1,138.6 L1163.5,137.5 L1164.2,134.2 L1164.6,135.4 L1165.0,137.8 L1165.8,140.3 L1166.2,140.6 L1167.3,137.1 L1168.9,135.2 L1169.3,133.8 L1169.5,133.5 L1170.7,132.5 L1171.4,133.4 L1174.5,131.9 L1176.1,130.9 L1176.6,131.6 L1178.1,132.5 L1179.4,133.1 L1179.6,132.3 L1179.8,131.6 L1180.2,129.7 L1180.8,130.0 L1181.4,130.8 L1181.6,131.1 L1182.1,129.6 L1182.1,129.4 L1182.3,129.1 L1182.4,128.8 L1182.7,128.3 L1183.0,127.7 L1184.0,126.6 L1184.3,126.6 L1184.4,126.8 L1185.2,125.7 L1185.8,124.5 L1186.2,124.7 L1187.3,124.9 L1187.8,124.2 L1188.4,124.3 L1188.8,125.9 L1189.1,127.4 L1189.5,127.7 L1189.7,126.8 L1192.6,123.3 L1194.0,124.3 L1195.1,124.4 L1196.0,125.3 L1196.5,126.2 L1197.2,128.3 L1198.2,134.7 L1198.8,135.0 L1199.3,135.8 L1199.8,137.2 L1200.3,137.8 L1200.7,138.1 L1201.4,137.6 L1201.8,138.2 L1202.5,139.7 L1202.9,141.2 L1203.6,143.8 L1205.0,144.3 L1205.5,144.8 L1206.0,144.5 L1206.7,144.7 L1207.0,145.8 L1207.4,146.8 L1208.8,145.0 L1211.4,149.3 L1212.7,152.6 L1213.7,153.2 L1214.0,153.7 L1214.4,154.3 L1214.7,154.7 L1215.7,158.5 L1216.2,157.5 L1216.6,155.8 L1216.9,155.2 L1217.5,156.4 L1218.1,158.3 L1218.4,159.7 L1219.0,163.4 L1219.2,164.8 L1219.5,165.5 L1219.7,165.9 L1220.0,166.2 L1221.3,171.6 L1221.7,172.8 L1223.4,175.6 L1223.7,176.1 L1223.9,175.6 L1224.1,173.7 L1224.8,169.6 L1225.4,171.8 L1225.7,173.4 L1226.0,171.3 L1226.3,172.0 L1226.9,175.9 L1227.6,182.6 L1227.9,182.5 L1228.4,180.9 L1228.7,181.3 L1229.1,180.8 L1229.3,180.6 L1230.4,186.5 L1230.7,187.1 L1231.1,190.3 L1231.5,192.5 L1231.9,194.8 L1232.2,195.1 L1232.8,197.6 L1233.3,198.9 L1233.8,201.9 L1234.5,203.7 L1235.8,206.3 L1236.5,209.2 L1236.8,209.7 L1237.2,210.5 L1237.6,215.0 L1237.9,217.3 L1238.1,218.0 L1238.4,218.4 L1238.7,218.8 L1239.2,221.2 L1240.0,220.8 L1240.4,221.6 L1240.7,222.6 L1241.1,223.6 L1242.0,224.4 L1242.2,224.0 L1242.3,224.0 L1242.5,223.1 L1242.6,222.6 L1242.8,222.8 L1243.1,224.8 L1243.9,227.9 L1244.7,230.8 L1245.2,233.3 L1245.7,233.6 L1246.9,233.8 L1248.0,237.3 L1248.5,238.8 L1249.6,242.2 L1249.8,242.9 L1249.9,243.4 L1250.7,244.5 L1251.6,245.6 L1252.4,246.4 L1252.8,248.5 L1253.6,252.5 L1253.9,252.4 L1254.2,253.0 L1254.9,257.1 L1255.8,260.5 L1256.0,260.7 L1256.7,260.1 L1257.7,262.0 L1258.3,262.7 L1259.0,263.3 L1260.2,265.9 L1261.0,268.8 L1261.6,270.7 L1261.9,271.6 L1262.6,270.3 L1263.4,265.9 L1264.5,268.6 L1265.6,269.1 L1267.4,274.0 L1267.7,274.1 L1268.4,276.5 L1268.8,278.0 L1268.9,278.6 L1269.4,280.3 L1271.6,281.2 L1273.3,284.8 L1273.4,285.6 L1273.9,289.8 L1274.1,290.8 L1275.1,292.0 L1275.9,293.5 L1276.0,293.7 L1276.1,293.9 L1276.2,293.9 L1276.2,294.0 L1277.0,292.9 L1277.2,292.5 L1277.5,292.8 L1277.8,293.0 L1278.1,293.0 L1278.8,292.7 L1280.3,295.3 L1280.6,294.5 L1281.0,293.8 L1281.3,292.9 L1281.9,291.0 L1282.2,291.6 L1282.6,292.8 L1282.8,293.1 L1283.3,292.7 L1283.7,293.9 L1284.3,296.8 L1284.5,297.4 L1284.8,297.9 L1285.4,298.1 L1285.7,298.2 L1286.0,298.7 L1287.0,299.8 L1287.3,300.4 L1288.1,300.3 L1288.3,300.2 L1288.5,300.2 L1288.8,300.4 L1289.0,299.8 L1289.7,298.7 L1290.3,299.0 L1291.0,299.2 L1291.3,300.1 L1291.6,300.1 L1292.0,299.0 L1292.3,299.5 L1292.9,299.5 L1293.2,299.0 L1293.8,297.8 L1294.1,297.3 L1295.6,292.8 L1295.8,293.8 L1296.6,298.2 L1296.8,297.8 L1297.1,297.7 L1297.6,296.9 L1298.7,296.1 L1300.1,296.3 L1301.0,295.4 L1301.5,295.7 L1302.1,296.2 L1302.8,295.5 L1303.1,295.4 L1303.5,295.5 L1304.5,295.9 L1305.6,295.1 L1306.1,295.8 L1306.7,295.6 L1307.1,295.6 L1307.6,295.2 L1310.2,293.4 L1310.5,293.4 L1310.9,293.0 L1311.2,292.6 L1311.6,292.2 L1311.9,292.3 L1312.4,292.5 L1313.0,290.0 L1313.5,289.2 L1314.0,289.9 L1314.9,292.5 L1315.2,291.8 L1315.4,290.7 L1316.0,291.2 L1316.3,291.4 L1317.5,290.7 L1317.8,290.7 L1317.9,290.3 L1318.6,287.9 L1319.7,286.9 L1320.0,287.3 L1320.4,287.9 L1320.8,288.2 L1322.9,286.4 L1323.2,286.8 L1323.8,285.4 L1324.9,286.2 L1326.6,282.0 L1327.5,283.6 L1328.1,284.2 L1329.3,284.9 L1329.9,285.8 L1330.1,285.8 L1330.5,285.9 L1331.7,283.6 L1332.2,281.6 L1332.6,280.5 L1332.9,279.9 L1333.5,280.6 L1334.4,280.8 L1334.7,280.2 L1335.9,281.6 L1336.5,283.5 L1336.9,282.8 L1337.3,282.0 L1337.6,282.2 L1338.7,281.2 L1339.2,280.6 L1339.3,280.6 L1339.4,280.7 L1339.9,282.1 L1341.8,284.6 L1341.9,284.4 L1342.2,283.4 L1342.3,282.5 L1343.8,279.6 L1344.1,278.3 L1344.6,277.8" fill="transparent" id="track" stroke="black" stroke-width="2"/>
<g>
<circle cx="401.570" cy="101.169" id="wp-0/circle" r="4.000"/>
<text font-size="16.0" id="wp-0/text" text-anchor="start" x="403.570" y="123.169">
K1
</text>
<circle cx="971.527" cy="334.588" id="wp-1/circle" r="4.000"/>
<text font-size="16.0" id="wp-1/text" text-anchor="start" x="973.527" y="351.588">
K2
</text>
<circle cx="0.377" cy="163.440" fill="Gray" id="wp-2/circle" r="5.000"/>
<text font-size="16.0" id="wp-2/text" text-anchor="start" x="2.377" y="180.440">
Bräunlingen
</text>
<circle cx="401.921" cy="100.774" fill="Gray" id="wp-3/circle" r="5.000"/>
<text font-size="16.0" id="wp-6/text" text-anchor="start" x="423.921" y="122.774">
Furtwangen
</text>
<circle cx="588.496" cy="96.114" fill="Gray" id="wp-5/circle" r="3.000"/>
<text font-size="16.0" id="wp-0/text" text-anchor="start" x="590.496" y="118.114">
Schonach
</text>
<circle cx="1006.461" cy="325.841" fill="Gray" id="wp-6/circle" r="3.000"/>
<text font-size="16.0" id="wp-1/text" text-anchor="start" x="1008.461" y="342.841">
Fischerbach
</text>
<circle cx="926.169" cy="320.033" fill="Gray" id="wp-7/circle" r="3.000"/>
<text font-size="16.0" id="wp-2/text" text-anchor="start" x="928.169" y="317.033">
Mühlenbach
</text>
</g>
</g>
<g id="SL" transform="translate(0 0)">
<text text-anchor="end" x="66" y="363.5">
150
</text>
<text text-anchor="end" x="66" y="327.65">
250
</text>
<text text-anchor="end" x="66" y="291.79999999999995">
350
</text>
<text text-anchor="end" x="66" y="255.95">
450
</text>
<text text-anchor="end" x="66" y="220.1">
550
</text>
<text text-anchor="end" x="66" y="184.25">
650
</text>
<text text-anchor="end" x="66" y="148.39999999999998">
750
</text>
<text text-anchor="end" x="66" y="112.55000000000001">
850
</text>
<text text-anchor="end" x="66" y="76.69999999999999">
950
</text>
<text text-anchor="end" x="66" y="40.849999999999966">
1050
</text>
<text text-anchor="end" x="66" y="5">
1150
</text>
</g>
</g>
</svg>