<svg height="400" width="1420" xmlns="http://www.w3.org/2000/svg">
<g font-size="18" id="world" shape-rendering="crispEdges">
<g id="BG"/>
<g id="SB" transform="translate(71 360)">
<text text-anchor="middle" x="0" y="17">
90
</text>
<text text-anchor="middle" x="269.5" y="17">
110
</text>
<text text-anchor="middle" x="539" y="17">
130
</text>
<text text-anchor="middle" x="808.5000000000002" y="17">
150
</text>
<text text-anchor="middle" x="1078" y="17">
170
</text>
<text text-anchor="middle" x="1347.5" y="17">
190
</text>
</g>
<g id="SD" transform="translate(71 0)">
<path d="M0,0 L1347.5,0" stroke="black" stroke-width="3"/>
<path d="M0,0 L0,358.5" stroke="black" stroke-width="3"/>
<path d="M0,358.5 L1347.5,358.5" stroke="black" stroke-width="3"/>
<path d="M1347.5,0 L1347.5,358.5" stroke="black" stroke-width="3"/>
<path d="M0,358.5 L1347.5,358.5" stroke="black" stroke-width="1"/>
<path d="M0,0 L0,358.5" stroke="black" stroke-width="1"/>
<path d="M269.5,0 L269.5,358.5" stroke="black" stroke-width="1"/>
<path d="M539,0 L539,358.5" stroke="black" stroke-width="1"/>
<path d="M808.5,0 L808.5,358.5" stroke="black" stroke-width="1"/>
<path d="M1078,0 L1078,358.5" stroke="black" stroke-width="1"/>
<path d="M1347.5,0 L1347.5,358.5" stroke="black" stroke-width="1"/>
<path d="M134.75,0 L134.75,358.5" stroke="black" stroke-dasharray="1.0,2.5,5.0,5.0,10.0,5.0"/>
<path d="M404.25,0 L404.25,358.5" stroke="black" stroke-dasharray="1.0,2.5,5.0,5.0,10.0,5.0"/>
<path d="M673.75,0 L673.75,358.5" stroke="black" stroke-dasharray="1.0,2.5,5.0,5.0,10.0,5.0"/>
<path d="M943.25,0 L943.25,358.5" stroke="black" stroke-dasharray="1.0,2.5,5.0,5.0,10.0,5.0"/>
<path d="M1212.75,0 L1212.75,358.5" stroke="black" stroke-dasharray="1.0,2.5,5.0,5.0,10.0,5.0"/>
<path d="M0,358.5 L1347.5,358.5" stroke="black" stroke-width="1"/>
<path d="M0,318.66666 L1347.5,318.66666" stroke="black" stroke-width="1"/>
<path d="M0,278.83334 L1347.5,278.83334" stroke="black" stroke-width="1"/>
<path d="M0,239 L1347.5,239" stroke="black" stroke-width="1"/>
<path d="M0,199.16667 L1347.5,199.16667" stroke="black" stroke-width="1"/>
<path d="M0,159.33333 L1347.5,159.33333" stroke="black" stroke-width="1"/>
<path d="M0,119.5 L1347.5,119.5" stroke="black" stroke-width="1"/>
<path d="M0,79.666664 L1347.5,79.666664" stroke="black" stroke-width="1"/>
<path d="M0,39.833332 L1347.5,39.833332" stroke="black" stroke-width="1"/>
<path d="M0,0 L1347.5,0" stroke="black" stroke-width="1"/>
<path d="M0,338.58334 L1347.5,338.58334" stroke="black" stroke-dasharray="1.0,2.5,5.0,5.0,10.0,5.0"/>
<path d="M0,298.75 L1347.5,298.75" stroke="black" stroke-dasharray="1.0,2.5,5.0,5.0,10.0,5.0"/>
<path d="M0,258.91666 L1347.5,258.91666" stroke="black" stroke-dasharray="1.0,2.5,5.0,5.0,10.0,5.0"/>
<path d="M0,219.08333 L1347.5,219.08333" stroke="black" stroke-dasharray="1.0,2.5,5.0,5.0,10.0,5.0"/>
<path d="M0,179.25 L1347.5,179.25" stroke="black" stroke-dasharray="1.0,2.5,5.0,5.0,10.0,5.0"/>
<path d="M0,139.41667 L1347.5,139.41667" stroke="black" stroke-dasharray="1.0,2.5,5.0,5.0,10.0,5.0"/>
<path d="M0,99.583336 L1347.5,99.583336" stroke="black" stroke-dasharray="1.0,2.5,5.0,5.0,10.0,5.0"/>
<path d="M0,59.75 L1347.5,59.75" stroke="black" stroke-dasharray="1.0,2.5,5.0,5.0,10.0,5.0"/>
<path d="M0,19.916666 L1347.5,19.916666" stroke="black" stroke-dasharray="1.0,2.5,5.0,5.0,10.0,5.0"/>
<path d="M0.1,151.4 L0.4,151.6 L0.9,152.3 L1.1,152.3 L2.1,153.1 L2.6,153.5 L3.1,155.3 L3.3,156.4 L4.0,158.5 L4.6,158.5 L4.9,158.7 L5.4,160.2 L5.6,161.2 L5.9,161.9 L6.1,162.8 L6.4,162.8 L7.7,168.7 L8.1,169.8 L9.9,172.5 L10.1,172.3 L10.3,172.3 L10.5,172.5 L11.2,172.9 L11.8,174.5 L12.1,174.5 L12.4,175.0 L12.7,175.5 L13.3,176.6 L14.0,177.3 L14.4,178.2 L14.8,181.2 L15.1,182.1 L15.5,184.2 L15.8,185.2 L16.8,188.4 L17.1,189.9 L17.5,189.9 L17.9,192.8 L18.3,195.1 L18.6,196.6 L19.2,196.6 L19.7,198.8 L20.2,202.3 L20.9,205.4 L22.2,213.3 L22.9,216.2 L23.2,217.3 L23.6,217.3 L24.0,219.0 L24.3,219.6 L24.6,220.2 L24.8,220.2 L25.1,221.7 L25.6,221.7 L26.5,225.7 L26.8,226.5 L27.1,226.8 L27.5,227.5 L28.5,229.1 L28.6,229.1 L28.7,229.1 L28.9,229.1 L29.0,229.8 L29.2,230.1 L29.5,230.8 L30.3,231.7 L31.1,232.4 L31.7,234.2 L32.1,237.5 L33.4,241.9 L34.4,246.2 L34.9,247.2 L36.0,247.9 L36.2,249.7 L36.4,249.7 L37.1,250.4 L38.0,254.7 L38.8,256.3 L39.2,257.9 L40.0,261.2 L40.3,261.2 L40.6,262.0 L41.3,262.9 L42.2,266.6 L42.4,266.6 L43.1,268.9 L44.1,271.4 L44.7,271.4 L45.4,274.3 L46.6,276.7 L47.4,278.0 L48.0,278.0 L48.3,278.8 L49.0,278.8 L49.8,279.3 L50.9,279.1 L52.0,280.5 L53.8,286.5 L54.1,286.5 L54.8,287.8 L55.2,287.8 L55.3,288.4 L55.8,288.4 L58.0,296.1 L59.7,301.1 L59.8,301.7 L60.3,302.6 L60.5,302.6 L61.5,304.2 L62.3,304.3 L62.4,304.3 L62.5,304.8 L62.6,305.4 L62.6,305.4 L63.3,305.8 L63.6,305.8 L63.9,305.8 L64.2,306.0 L64.5,306.2 L65.2,306.1 L66.7,305.7 L67.0,305.7 L67.4,305.7 L67.7,305.8 L68.3,306.5 L68.6,306.9 L69.0,306.9 L69.2,307.2 L69.7,307.4 L70.1,307.9 L70.7,308.5 L70.9,308.5 L71.2,309.3 L71.7,310.1 L72.1,311.1 L72.4,311.7 L73.4,312.4 L73.7,312.8 L74.5,313.0 L74.7,313.0 L74.9,313.1 L75.1,313.2 L75.4,313.3 L76.1,313.2 L76.7,313.1 L77.4,313.0 L77.7,312.7 L78.0,312.4 L78.4,312.3 L78.7,312.3 L79.3,311.7 L79.6,311.2 L80.2,311.1 L80.5,310.9 L82.0,310.2 L82.1,309.9 L83.0,309.3 L83.2,309.3 L83.5,309.2 L84.0,309.2 L85.1,310.0 L86.5,309.0 L87.4,308.7 L87.8,308.6 L88.5,308.7 L89.2,308.7 L89.5,308.5 L89.9,308.5 L90.9,308.5 L91.9,308.4 L92.4,308.4 L93.1,308.5 L93.5,308.5 L94.0,308.0 L96.5,305.7 L96.8,305.0 L97.3,304.6 L97.5,304.6 L98.0,304.3 L98.3,304.3 L98.8,304.4 L99.4,304.2 L99.9,304.0 L100.4,303.7 L101.3,303.4 L101.6,303.2 L101.8,303.2 L102.3,302.9 L102.7,303.1 L103.8,302.5 L104.1,302.0 L104.3,301.8 L105.0,301.5 L106.0,300.9 L106.3,300.9 L106.8,300.3 L107.2,299.3 L109.3,298.8 L109.6,298.5 L110.2,298.1 L111.2,296.8 L113.0,295.8 L113.8,296.4 L114.4,296.3 L115.6,296.2 L116.3,295.6 L116.5,295.6 L116.8,295.2 L118.1,294.5 L118.5,293.9 L118.9,293.9 L119.3,293.0 L119.8,292.4 L120.7,292.9 L121.0,292.7 L122.3,293.1 L122.8,293.0 L123.3,292.8 L123.7,293.0 L123.9,293.1 L125.0,293.1 L125.5,293.4 L125.7,293.6 L125.7,293.6 L126.3,293.7 L128.2,293.1 L128.2,293.2 L128.5,293.0 L128.6,293.0 L130.1,292.9 L130.5,292.9 L131.0,291.6 L133.7,291.1 L133.8,291.1 L134.3,290.5 L135.3,290.2 L135.5,290.2 L136.0,289.8 L136.1,289.8 L136.5,289.6 L136.9,288.7 L138.0,287.8 L138.6,287.0 L139.2,285.5 L140.1,285.8 L141.9,285.9 L142.5,286.2 L143.3,286.5 L143.8,286.2 L144.3,286.1 L144.7,285.7 L145.1,285.4 L145.4,284.6 L146.1,283.4 L146.5,282.4 L146.7,281.2 L147.1,280.2 L147.8,279.6 L148.0,279.2 L148.4,279.0 L148.8,278.9 L149.2,278.3 L149.8,278.1 L150.3,279.0 L150.8,279.6 L151.4,280.5 L152.1,282.5 L152.6,283.2 L152.8,283.2 L152.9,283.2 L153.2,283.3 L153.4,283.0 L153.9,282.9 L154.1,282.8 L154.5,282.8 L155.6,281.4 L155.9,278.4 L156.4,277.8 L157.8,274.9 L158.4,273.6 L158.5,273.2 L158.6,273.2 L159.3,271.2 L160.7,270.7 L161.1,270.6 L162.3,269.9 L162.7,269.9 L165.6,264.8 L166.3,264.2 L166.7,262.7 L167.0,261.3 L167.3,261.3 L167.8,261.2 L168.1,261.2 L169.1,260.4 L169.2,260.4 L169.4,260.0 L169.5,260.0 L169.6,260.0 L170.0,258.8 L170.5,257.7 L171.8,256.0 L172.6,254.9 L173.2,254.1 L173.5,253.5 L173.8,253.5 L174.2,253.4 L174.5,253.0 L174.8,253.0 L175.2,252.2 L175.6,251.7 L175.8,251.7 L176.1,251.2 L176.5,250.9 L177.6,250.1 L177.8,250.1 L178.0,249.7 L178.7,249.0 L178.8,249.0 L179.0,248.6 L179.1,248.6 L179.5,248.0 L179.6,247.9 L179.9,247.8 L180.6,247.3 L180.9,247.0 L181.4,247.0 L181.5,246.9 L181.8,246.6 L181.9,246.6 L182.3,246.3 L182.4,246.1 L182.9,243.3 L183.2,243.3 L183.4,242.5 L185.1,238.4 L185.4,238.4 L185.5,238.4 L186.1,237.4 L186.6,236.7 L186.8,236.5 L187.3,236.2 L187.6,236.2 L188.3,236.1 L189.0,235.1 L189.5,233.9 L189.8,232.8 L190.4,231.5 L191.2,229.7 L191.8,227.8 L192.4,226.2 L193.9,223.3 L194.1,222.9 L194.3,222.4 L194.7,221.3 L194.8,221.0 L195.4,220.1 L195.6,219.8 L195.9,219.5 L196.9,218.0 L197.1,217.2 L197.3,217.2 L197.5,216.7 L197.7,216.2 L198.3,215.7 L198.4,215.4 L199.0,215.0 L199.4,215.0 L199.7,214.5 L200.3,213.3 L200.5,213.0 L200.8,213.0 L201.1,212.4 L201.4,211.0 L202.3,209.2 L202.7,208.4 L203.0,208.4 L203.7,206.2 L203.9,205.0 L204.0,205.0 L204.1,204.4 L204.2,204.4 L204.5,204.4 L205.3,203.5 L206.1,201.8 L206.5,201.2 L207.3,197.6 L208.6,196.9 L209.2,195.9 L209.9,195.7 L211.1,194.2 L211.7,193.7 L212.0,192.9 L213.1,192.7 L213.3,192.7 L214.5,190.7 L216.2,187.4 L217.2,187.4 L217.9,186.3 L218.3,185.4 L218.5,185.4 L218.5,185.4 L218.8,184.6 L220.1,183.5 L220.6,181.2 L221.5,176.1 L222.9,174.1 L223.1,174.1 L223.3,173.6 L223.4,173.6 L223.5,173.6 L223.6,173.6 L224.2,173.1 L225.0,173.5 L225.5,173.3 L225.7,173.3 L226.5,173.1 L227.1,172.6 L227.2,172.6 L227.4,172.6 L227.6,172.6 L228.0,172.2 L228.7,171.0 L229.3,170.5 L230.7,165.7 L230.9,165.2 L231.0,165.2 L231.2,165.2 L231.4,164.7 L232.0,163.3 L232.3,163.3 L232.5,162.9 L232.8,162.2 L234.4,157.4 L234.6,157.0 L235.1,155.2 L235.5,154.4 L235.6,154.0 L236.5,153.6 L236.9,153.6 L237.2,153.2 L237.5,152.7 L237.7,152.7 L238.0,152.2 L238.6,151.6 L238.8,151.6 L242.1,144.0 L242.6,142.9 L243.2,142.9 L243.7,142.1 L244.0,141.2 L244.3,139.9 L244.6,139.4 L246.0,137.3 L246.5,136.8 L246.8,136.4 L247.0,136.6 L247.2,136.5 L247.5,136.5 L247.9,136.5 L248.0,136.8 L248.3,137.1 L248.6,137.8 L249.5,139.5 L249.8,139.8 L250.0,140.2 L250.7,141.1 L250.8,141.6 L251.0,142.0 L251.1,142.0 L251.3,142.3 L251.5,142.3 L252.0,142.3 L252.8,143.5 L253.4,143.8 L255.4,146.4 L256.2,149.2 L256.6,149.8 L257.1,150.5 L257.4,151.2 L257.7,151.6 L258.5,152.8 L258.8,152.8 L259.0,153.9 L259.5,154.5 L259.8,155.0 L260.3,155.9 L260.5,156.7 L260.8,156.7 L260.9,156.7 L261.7,157.3 L262.6,160.6 L263.2,161.9 L263.7,164.2 L264.7,168.1 L264.9,168.1 L265.2,168.1 L265.6,168.9 L266.4,171.6 L266.6,171.6 L266.7,171.9 L267.0,171.9 L267.2,171.9 L268.4,173.3 L268.8,173.8 L269.3,174.7 L270.4,177.5 L270.8,177.5 L271.4,179.2 L272.4,182.0 L273.0,182.9 L273.6,186.1 L274.5,187.7 L274.7,188.4 L275.0,188.4 L275.5,189.7 L275.8,190.7 L276.9,191.0 L277.3,191.7 L277.8,193.3 L278.0,193.8 L278.1,193.8 L278.2,194.0 L278.3,194.0 L278.4,194.5 L280.1,196.7 L280.6,197.9 L281.1,201.3 L281.7,203.4 L281.9,203.4 L282.1,203.4 L282.9,207.5 L283.8,210.9 L284.1,211.8 L285.0,215.3 L285.1,215.3 L285.4,215.3 L285.7,216.9 L285.9,217.5 L286.2,217.5 L287.4,220.1 L288.4,222.2 L288.6,222.5 L289.2,225.1 L289.6,225.1 L290.2,226.2 L291.6,232.4 L293.1,242.4 L294.1,242.1 L294.5,242.9 L294.6,242.9 L294.8,242.9 L295.2,243.0 L295.8,244.0 L296.4,244.5 L296.8,244.6 L297.1,244.6 L297.6,245.1 L297.9,246.5 L298.1,246.5 L298.3,247.1 L299.1,247.9 L300.2,251.2 L300.4,251.8 L300.5,251.8 L301.0,254.0 L301.4,255.6 L302.5,256.5 L302.7,257.0 L303.4,259.0 L303.4,259.0 L303.8,259.5 L303.9,259.8 L304.1,259.8 L305.1,260.7 L305.3,261.0 L305.5,261.8 L306.0,261.8 L306.6,263.6 L307.0,265.4 L308.0,266.6 L308.7,267.6 L309.6,268.5 L310.0,269.2 L311.3,269.9 L311.4,270.2 L311.7,270.5 L312.8,270.0 L313.4,269.9 L314.2,270.1 L314.7,270.6 L314.9,270.6 L315.2,270.8 L315.5,270.9 L315.8,271.1 L316.4,271.0 L316.6,271.1 L317.1,271.0 L317.3,271.1 L317.8,271.6 L318.0,271.9 L318.5,272.9 L319.3,274.3 L319.9,275.5 L320.2,276.1 L320.4,276.1 L320.9,277.0 L321.1,277.4 L321.3,277.7 L321.9,278.7 L322.1,279.5 L322.5,279.8 L322.6,280.3 L323.2,281.1 L323.7,281.4 L324.1,281.7 L324.1,281.7 L324.3,281.7 L324.3,281.7 L324.6,281.9 L324.7,281.9 L324.8,282.0 L325.0,282.0 L325.3,282.0 L325.5,282.1 L326.3,282.0 L327.6,281.0 L328.6,279.8 L329.5,278.8 L329.7,278.8 L329.9,278.8 L330.3,278.5 L330.8,278.1 L331.2,277.7 L331.5,277.4 L331.8,277.1 L332.9,276.2 L333.5,275.1 L333.6,275.1 L334.2,274.7 L335.8,274.3 L336.1,274.3 L336.4,274.1 L337.2,273.2 L337.5,273.2 L337.9,273.2 L338.2,272.0 L338.3,272.0 L339.1,271.3 L339.8,271.3 L340.7,269.0 L340.8,269.0 L343.2,263.9 L345.2,264.6 L345.4,264.6 L345.8,265.2 L346.3,265.3 L347.0,265.1 L347.6,265.1 L347.8,264.9 L348.1,265.5 L348.2,265.5 L349.0,265.2 L349.2,264.6 L349.5,263.8 L350.0,263.4 L350.3,263.1 L351.0,261.7 L351.7,261.2 L351.9,261.0 L352.1,260.6 L352.5,260.0 L353.2,258.9 L353.6,258.6 L353.9,258.4 L354.2,258.4 L354.7,258.0 L355.0,257.9 L355.4,257.7 L356.0,257.5 L356.9,256.4 L357.2,256.2 L357.3,256.2 L357.6,256.1 L358.1,256.1 L359.0,256.6 L359.8,256.5 L360.7,256.2 L360.8,256.2 L361.8,256.0 L362.4,255.3 L363.2,254.8 L363.4,254.6 L364.1,254.3 L364.5,254.1 L364.8,254.1 L365.0,254.1 L365.3,254.0 L365.4,254.0 L365.6,254.0 L365.8,254.0 L366.2,253.6 L366.4,253.6 L366.9,253.5 L367.8,253.3 L368.8,252.7 L369.1,252.3 L369.7,252.0 L370.4,251.9 L370.7,251.5 L371.1,251.4 L371.5,251.2 L371.5,251.0 L371.7,251.0 L372.1,250.7 L372.6,250.3 L373.0,250.1 L373.3,249.7 L373.4,249.7 L373.6,249.4 L373.9,249.2 L374.6,248.6 L374.9,248.1 L375.4,247.3 L375.9,246.8 L376.2,246.2 L376.5,245.5 L376.6,245.2 L377.6,243.8 L377.7,243.4 L377.9,243.4 L378.4,243.1 L379.0,240.6 L379.7,239.4 L380.1,238.7 L381.3,234.0 L381.5,234.0 L382.6,230.1 L383.5,228.6 L383.7,227.6 L385.1,225.0 L385.2,225.0 L385.4,224.0 L386.3,221.8 L387.3,218.9 L388.7,214.2 L389.1,213.4 L389.6,212.6 L390.3,210.4 L390.8,209.6 L391.9,207.2 L392.7,204.8 L392.9,204.1 L393.4,203.6 L393.9,203.0 L394.6,202.3 L394.8,202.0 L395.0,202.0 L395.1,202.0 L395.2,202.0 L395.3,202.0 L395.5,201.7 L395.6,201.4 L396.4,199.8 L396.6,199.6 L396.8,199.6 L397.5,198.6 L398.2,194.5 L398.3,194.0 L398.7,193.3 L398.9,193.3 L399.6,189.6 L400.4,187.7 L400.8,186.0 L401.3,184.0 L401.8,182.3 L402.2,182.3 L402.5,181.8 L403.0,181.1 L403.1,180.4 L403.2,180.1 L403.3,180.1 L403.8,179.8 L404.1,179.1 L405.4,177.9 L405.5,177.9 L405.6,177.9 L405.7,177.5 L405.9,177.3 L406.6,175.4 L407.0,173.5 L408.9,164.8 L409.5,163.4 L409.9,162.5 L410.1,162.5 L410.3,162.6 L410.4,162.6 L410.6,162.6 L411.0,162.5 L411.6,162.0 L411.9,162.0 L412.4,161.7 L412.9,161.1 L413.5,159.9 L413.7,159.9 L413.8,159.8 L413.9,159.8 L414.8,159.0 L415.0,159.0 L415.1,159.0 L415.2,158.7 L415.3,158.7 L415.6,158.3 L415.8,158.3 L416.0,158.3 L416.1,158.3 L417.0,154.7 L418.9,146.2 L419.2,145.3 L419.6,144.9 L420.0,144.2 L421.0,142.3 L421.4,142.3 L421.6,142.3 L421.7,141.9 L421.8,141.9 L422.0,141.5 L422.8,139.4 L423.1,139.4 L423.4,139.4 L425.0,129.2 L426.1,127.5 L426.2,127.6 L426.3,127.6 L426.4,127.6 L426.5,127.6 L426.8,127.5 L427.1,127.2 L428.3,126.5 L428.5,126.5 L428.5,126.5 L428.7,126.5 L428.8,126.5 L428.9,126.3 L429.2,125.6 L429.6,125.6 L430.9,124.3 L431.6,116.7 L433.1,113.1 L433.9,112.2 L434.1,112.2 L434.4,111.5 L434.7,111.5 L435.9,110.5 L437.0,109.3 L438.3,105.2 L439.1,104.2 L439.7,101.9 L440.1,101.9 L440.6,101.9 L442.4,98.7 L443.5,91.6 L445.1,88.4 L445.5,88.4 L446.6,87.3 L447.6,85.8 L450.0,79.1 L450.8,77.2 L451.9,77.2 L452.1,76.4 L452.5,75.8 L453.2,74.6 L454.6,72.3 L455.0,70.6 L455.3,69.7 L457.0,67.2 L457.4,65.9 L458.6,63.7 L459.4,63.7 L459.8,62.5 L460.3,61.4 L462.1,60.2 L462.7,59.6 L463.6,58.1 L464.0,58.1 L466.2,56.7 L466.8,55.0 L467.6,55.0 L471.4,53.4 L471.6,53.3 L471.7,53.3 L471.8,53.3 L471.9,53.3 L472.3,53.4 L473.2,53.6 L473.3,53.6 L473.6,53.6 L474.3,53.9 L474.7,54.2 L475.2,54.4 L475.2,54.4 L475.7,55.1 L476.6,55.9 L476.9,55.9 L478.1,56.7 L478.2,56.7 L478.3,56.7 L478.6,57.1 L478.9,57.1 L482.8,60.0 L483.6,59.6 L483.8,59.6 L484.7,59.6 L485.6,59.7 L486.1,59.7 L486.2,59.7 L487.7,60.3 L488.3,60.3 L489.2,62.4 L489.8,62.4 L491.3,64.0 L492.9,64.1 L493.2,64.1 L493.6,64.1 L494.4,63.4 L494.7,63.1 L495.3,62.9 L496.4,62.0 L496.8,61.6 L497.2,61.1 L497.6,60.7 L498.0,60.3 L499.1,60.1 L499.4,60.2 L499.6,60.0 L499.9,59.9 L500.3,59.7 L501.9,59.6 L503.9,59.9 L504.1,59.7 L504.9,59.3 L505.5,59.1 L506.6,58.8 L507.4,58.4 L507.9,58.0 L508.6,57.7 L509.4,57.6 L510.2,58.0 L511.4,58.4 L511.9,58.4 L512.4,59.1 L512.6,59.1 L513.5,60.2 L515.1,62.1 L515.8,62.9 L516.1,63.0 L516.4,63.2 L516.8,63.2 L517.4,63.6 L517.8,63.6 L518.1,63.8 L518.7,63.9 L520.0,64.6 L524.2,72.7 L524.5,74.7 L525.3,75.7 L526.1,76.7 L526.2,76.7 L527.1,78.4 L527.4,78.9 L527.7,78.9 L528.1,79.5 L528.5,79.5 L528.9,80.4 L529.1,80.4 L529.6,80.4 L532.5,90.7 L533.0,92.2 L533.5,92.9 L534.6,93.3 L535.0,93.3 L535.8,95.1 L536.1,95.1 L536.7,95.7 L537.2,95.7 L537.8,96.0 L538.2,96.0 L538.4,96.0 L539.0,96.4 L540.1,96.1 L540.7,96.4 L541.8,97.5 L542.1,97.5 L542.4,97.5 L542.7,97.5 L543.2,99.1 L543.7,99.5 L544.4,100.1 L545.7,105.6 L546.7,107.0 L547.3,107.4 L547.7,107.4 L548.2,107.4 L551.2,111.4 L551.6,113.3 L554.3,121.0 L554.6,121.9 L554.9,121.9 L555.9,121.9 L556.1,122.5 L556.3,122.5 L556.4,122.5 L556.5,122.5 L556.7,122.5 L558.7,124.2 L561.2,127.4 L561.9,127.1 L565.4,134.5 L565.9,136.1 L567.1,136.8 L567.6,137.3 L567.9,137.8 L568.5,138.9 L568.6,139.3 L568.9,139.3 L569.2,140.0 L569.4,140.0 L569.8,140.0 L570.1,140.1 L570.4,140.3 L570.7,140.5 L571.7,143.4 L574.1,150.0 L575.3,150.9 L576.1,150.9 L576.4,150.9 L576.7,150.9 L576.8,150.8 L576.9,150.8 L577.1,150.8 L577.3,150.8 L577.3,150.8 L577.6,150.8 L580.4,158.5 L580.9,159.5 L581.2,159.5 L581.9,160.8 L582.4,161.5 L583.0,161.5 L584.0,163.9 L584.5,163.9 L585.1,165.2 L585.9,167.0 L587.4,168.3 L588.0,168.8 L588.2,168.8 L589.0,170.0 L589.3,170.0 L589.9,170.7 L590.1,171.2 L590.9,171.7 L591.4,171.7 L592.1,172.7 L592.4,172.7 L592.7,173.1 L596.2,177.6 L596.8,178.9 L597.3,179.2 L599.4,180.3 L599.8,180.7 L600.2,181.0 L601.4,181.1 L601.6,181.1 L601.8,181.1 L602.4,181.1 L602.7,181.0 L603.0,181.0 L603.5,181.1 L604.5,181.0 L604.8,181.0 L605.1,180.9 L605.6,180.9 L605.8,180.8 L606.1,180.8 L608.8,185.4 L609.0,186.1 L609.3,185.9 L609.6,185.9 L609.9,185.9 L611.2,186.0 L611.7,186.2 L612.1,186.6 L612.7,187.0 L613.8,187.7 L614.6,188.7 L615.0,189.5 L615.6,191.1 L616.0,191.1 L617.2,192.4 L617.7,192.6 L618.0,192.8 L618.2,193.1 L618.2,193.1 L619.0,193.9 L619.7,193.9 L619.9,193.9 L620.8,195.0 L621.2,195.5 L622.8,196.9 L624.4,198.0 L624.7,198.1 L625.0,198.1 L625.8,198.4 L625.9,198.4 L626.2,198.4 L626.5,198.4 L627.3,198.4 L627.9,198.4 L630.4,199.1 L631.3,199.0 L632.1,198.8 L632.7,198.8 L633.1,198.9 L633.3,198.9 L633.7,198.9 L634.4,199.3 L634.9,199.5 L635.5,199.5 L636.5,199.7 L636.7,199.7 L636.8,199.7 L636.9,199.7 L637.2,199.8 L637.4,199.8 L637.6,199.8 L637.6,199.8 L637.7,199.9 L638.1,199.9 L638.3,199.9 L639.0,199.8 L640.4,199.6 L641.3,199.0 L641.6,199.0 L641.6,199.0 L643.0,197.9 L643.8,197.4 L644.3,196.2 L645.4,194.5 L646.2,193.1 L647.1,191.3 L647.4,191.3 L647.8,190.7 L648.1,189.8 L648.5,189.8 L649.2,188.7 L649.6,188.7 L650.2,187.9 L650.6,187.4 L651.6,186.4 L654.4,178.5 L655.6,176.5 L656.1,176.2 L656.4,176.2 L656.8,176.2 L657.2,175.6 L658.6,175.1 L662.5,164.9 L662.8,163.3 L663.2,162.7 L663.7,161.8 L664.0,161.0 L664.3,160.6 L665.7,160.3 L666.0,160.1 L666.2,160.1 L666.4,160.0 L666.5,160.0 L666.7,160.0 L666.9,159.8 L667.6,159.7 L667.9,159.6 L668.0,159.6 L668.2,159.6 L668.5,159.4 L669.5,160.0 L670.1,159.8 L670.5,158.7 L671.2,156.5 L672.1,153.7 L672.5,153.5 L672.8,153.2 L673.1,153.2 L673.8,152.8 L673.9,152.4 L674.1,152.4 L674.2,152.4 L674.3,152.1 L674.6,152.1 L674.8,152.1 L675.1,151.5 L676.6,150.5 L677.0,151.1 L677.6,148.4 L679.8,145.1 L680.2,145.1 L680.8,142.9 L681.4,140.6 L683.4,137.3 L683.6,136.5 L683.7,136.5 L684.0,136.6 L684.3,136.0 L684.4,136.1 L684.7,136.1 L684.9,136.3 L685.1,136.3 L686.5,136.0 L686.8,136.0 L687.1,135.7 L687.5,136.0 L688.0,136.5 L689.5,133.4 L691.4,131.0 L691.7,131.0 L692.5,131.0 L693.0,131.0 L693.4,130.9 L694.0,130.9 L694.5,131.3 L695.0,131.0 L695.7,130.5 L696.3,129.7 L696.8,129.2 L697.3,128.7 L697.8,128.3 L698.8,126.8 L701.1,119.0 L702.0,117.4 L702.3,116.9 L702.6,116.3 L702.8,116.3 L703.0,116.3 L703.2,116.3 L703.5,116.3 L703.7,116.3 L704.0,115.4 L704.3,115.3 L704.8,114.8 L705.2,114.2 L706.4,111.9 L706.6,111.9 L706.8,111.7 L707.1,111.6 L707.7,111.6 L708.3,111.6 L708.8,111.6 L709.8,111.2 L710.2,110.9 L710.6,110.8 L711.1,110.9 L711.6,110.3 L712.2,109.8 L712.5,109.2 L712.8,109.2 L714.2,107.1 L714.6,106.5 L715.0,105.5 L715.6,104.1 L716.1,104.1 L716.7,103.7 L717.4,103.2 L718.2,102.8 L719.3,102.2 L722.5,98.7 L726.4,91.4 L726.9,89.7 L727.3,89.1 L727.6,89.1 L728.1,89.1 L729.1,88.4 L729.4,88.1 L729.8,87.2 L730.6,86.1 L730.8,85.4 L731.5,85.2 L731.8,85.1 L732.0,84.9 L732.2,84.8 L732.5,84.8 L732.8,84.7 L733.0,84.6 L733.4,84.4 L733.8,84.1 L734.1,84.1 L734.3,83.9 L734.4,83.9 L734.6,83.7 L734.8,83.7 L735.6,83.6 L736.8,83.5 L737.3,83.2 L737.8,82.2 L738.2,81.8 L738.8,81.2 L739.4,81.2 L740.0,80.1 L740.2,80.1 L740.6,79.7 L741.3,79.3 L742.3,78.6 L742.4,78.3 L743.0,76.9 L744.0,75.9 L744.1,75.9 L745.0,75.7 L745.3,75.6 L745.5,75.5 L745.5,75.5 L745.7,75.3 L746.0,75.2 L746.2,75.2 L746.4,75.2 L746.5,75.2 L746.6,75.2 L746.9,74.9 L748.0,75.2 L748.5,75.3 L748.9,75.5 L749.5,75.7 L749.7,75.7 L750.1,76.6 L750.4,76.6 L752.8,81.3 L754.1,85.1 L754.8,85.1 L756.2,87.0 L758.5,91.6 L759.0,92.7 L759.6,93.1 L760.1,93.1 L760.6,93.4 L761.4,94.0 L762.2,94.3 L763.1,94.7 L763.5,94.8 L764.1,94.8 L764.3,94.8 L764.5,94.8 L764.8,94.7 L765.0,94.6 L765.3,94.6 L765.6,94.4 L765.7,94.2 L766.0,94.1 L766.3,93.8 L766.8,93.8 L767.5,93.3 L768.1,92.6 L768.4,92.4 L768.9,91.9 L769.5,90.7 L770.3,90.0 L771.0,89.4 L771.6,88.9 L772.2,88.4 L772.7,86.9 L773.2,86.6 L774.3,83.9 L775.1,83.4 L775.3,83.4 L776.0,82.5 L776.5,81.8 L776.8,81.8 L778.8,77.6 L779.6,75.3 L780.1,75.3 L780.4,75.3 L781.4,75.3 L782.1,74.9 L784.9,70.3 L785.5,70.0 L785.7,69.9 L786.0,69.9 L786.2,69.9 L786.6,69.9 L786.9,69.9 L787.5,69.6 L788.2,69.8 L790.2,66.2 L791.3,65.0 L792.1,64.6 L792.3,64.2 L792.8,63.4 L793.9,62.2 L794.2,62.0 L794.5,61.8 L794.8,61.5 L795.0,61.3 L795.4,61.2 L795.8,60.8 L796.1,60.8 L796.4,60.8 L797.0,60.1 L798.1,59.1 L798.3,59.0 L799.7,58.2 L800.6,58.0 L801.3,57.2 L801.9,57.2 L802.8,57.6 L803.6,57.7 L804.8,57.9 L805.4,57.9 L805.8,58.2 L806.2,58.2 L807.5,58.4 L810.3,57.1 L810.9,57.4 L811.5,57.4 L811.7,57.4 L812.1,57.5 L812.4,57.5 L812.5,57.6 L812.9,57.6 L813.1,57.8 L813.4,57.8 L813.6,57.8 L814.7,58.4 L815.1,58.9 L817.1,62.6 L817.3,62.6 L817.6,63.1 L819.0,64.9 L819.3,64.9 L819.6,64.9 L820.6,69.1 L822.8,78.1 L823.4,79.6 L823.6,79.6 L824.6,80.8 L824.9,80.8 L825.2,80.8 L825.5,80.8 L825.9,82.0 L826.5,83.5 L826.8,83.5 L827.2,83.9 L828.6,86.2 L829.1,87.2 L829.6,88.0 L830.4,89.5 L830.6,89.5 L831.1,89.5 L831.7,90.0 L832.6,91.1 L835.8,103.8 L837.6,105.4 L837.8,105.4 L838.0,105.6 L838.1,105.8 L838.3,105.8 L838.4,105.8 L838.6,106.1 L839.1,106.5 L839.2,106.5 L839.6,107.0 L839.9,107.0 L840.2,107.0 L840.3,107.1 L840.5,107.3 L840.8,107.4 L841.7,109.9 L842.1,110.6 L843.6,118.2 L844.1,118.2 L844.4,118.4 L844.9,119.8 L845.2,120.3 L845.5,120.3 L845.7,120.3 L845.9,120.7 L846.1,120.7 L846.9,122.8 L847.2,123.2 L847.4,123.2 L847.6,123.6 L847.7,123.6 L848.5,125.0 L849.0,126.8 L849.2,127.3 L849.4,127.3 L850.8,131.2 L851.2,131.7 L851.6,131.7 L851.9,133.0 L852.2,135.7 L852.6,136.2 L854.5,138.3 L854.7,139.3 L854.9,139.7 L855.1,140.2 L856.3,142.4 L856.8,142.4 L857.0,142.4 L857.2,142.7 L857.5,142.9 L857.8,144.2 L858.1,144.2 L858.5,144.9 L858.6,144.9 L860.4,151.4 L860.9,153.1 L861.4,157.2 L861.8,157.5 L862.2,158.2 L862.7,158.4 L863.7,159.6 L863.9,159.6 L864.1,159.6 L864.4,159.7 L864.6,159.7 L864.8,159.7 L864.8,159.7 L865.2,159.4 L865.5,159.5 L866.2,159.6 L866.8,159.4 L867.2,159.6 L867.5,159.7 L867.7,159.7 L868.1,159.6 L868.4,159.9 L869.3,161.2 L869.9,161.8 L870.1,162.3 L870.9,163.2 L871.1,163.4 L871.2,163.6 L871.4,163.6 L871.5,163.8 L871.8,163.8 L872.0,163.8 L872.2,164.0 L872.5,164.1 L872.7,164.2 L873.9,164.7 L874.1,165.1 L874.7,165.5 L874.9,165.6 L875.1,165.6 L875.2,165.7 L875.4,165.7 L875.8,165.9 L876.1,165.9 L876.3,166.0 L876.8,166.0 L877.0,166.0 L877.3,166.0 L877.6,166.0 L878.9,166.0 L880.1,165.6 L880.6,165.2 L881.0,165.1 L881.6,164.8 L883.0,162.9 L883.4,163.1 L883.7,163.3 L884.2,163.3 L884.7,163.7 L884.8,163.7 L885.0,163.7 L885.1,163.7 L885.3,164.4 L886.0,165.1 L886.3,166.0 L887.1,166.4 L887.9,172.3 L888.2,173.5 L889.0,174.5 L889.9,179.6 L890.4,179.6 L891.9,184.0 L892.2,184.5 L892.6,184.5 L893.4,186.9 L893.7,186.9 L894.3,186.9 L894.8,187.3 L895.3,188.2 L895.8,188.2 L896.1,188.3 L896.3,188.6 L897.5,189.2 L898.0,189.0 L898.5,188.9 L899.2,188.7 L899.7,188.8 L900.1,189.0 L900.6,189.2 L901.2,189.2 L901.8,189.4 L902.2,189.2 L902.6,189.2 L903.1,188.9 L903.3,188.9 L903.5,188.8 L904.1,189.0 L904.5,188.4 L904.8,187.9 L905.6,187.5 L906.1,186.3 L907.1,185.7 L907.5,185.2 L908.4,185.7 L908.8,187.3 L909.2,187.5 L909.5,188.2 L910.3,190.7 L911.3,192.5 L911.4,192.5 L912.1,194.1 L912.5,194.6 L913.0,194.9 L914.0,194.8 L914.3,195.7 L915.0,196.2 L916.1,195.8 L916.8,196.0 L917.5,196.9 L918.0,197.3 L918.3,197.3 L919.0,198.2 L919.6,198.0 L920.0,198.1 L921.3,198.3 L922.6,198.1 L923.7,198.5 L924.2,199.3 L924.5,199.8 L925.8,200.8 L926.4,201.1 L926.6,201.7 L926.9,201.8 L927.1,202.3 L927.4,202.9 L928.3,203.0 L929.0,203.6 L929.2,203.9 L929.5,204.2 L930.2,204.7 L931.0,205.9 L931.8,208.6 L932.1,209.6 L932.7,210.6 L933.0,211.0 L933.6,211.3 L933.8,211.7 L933.9,211.7 L934.1,211.7 L934.3,212.1 L934.5,213.0 L934.8,214.0 L935.4,214.7 L935.6,215.4 L936.3,216.2 L936.9,216.9 L937.0,217.0 L937.4,216.9 L937.9,216.8 L938.0,216.8 L938.2,217.2 L938.3,217.7 L938.6,217.7 L938.9,217.7 L939.8,217.8 L940.2,217.6 L941.0,216.7 L941.4,216.2 L941.9,216.1 L943.2,218.6 L943.6,218.6 L944.7,219.6 L945.0,219.6 L945.3,219.9 L945.5,219.9 L945.8,219.9 L947.2,220.5 L947.7,221.0 L948.8,220.9 L951.6,223.9 L951.8,224.9 L952.2,224.9 L952.7,224.9 L953.4,224.9 L956.6,224.8 L957.4,225.4 L959.1,225.4 L959.6,225.7 L962.8,227.8 L963.3,228.1 L964.7,229.4 L966.6,233.6 L967.8,234.3 L968.4,234.3 L972.6,235.1 L974.5,235.2 L976.6,235.2 L977.1,235.2 L977.6,235.1 L980.0,234.3 L980.4,234.3 L980.8,235.1 L981.3,236.1 L982.4,237.2 L982.8,238.4 L983.2,239.8 L983.8,241.7 L984.7,242.5 L985.3,244.3 L985.7,245.5 L986.1,246.2 L986.4,246.5 L987.6,246.8 L987.7,246.8 L988.0,246.9 L988.9,247.1 L989.0,247.1 L989.3,247.2 L989.8,247.3 L990.1,247.3 L990.4,247.2 L990.9,247.1 L992.1,247.6 L993.0,248.3 L994.1,248.8 L994.3,248.9 L994.4,248.9 L994.8,249.0 L995.3,249.3 L995.8,249.5 L996.6,249.7 L996.9,249.7 L997.6,249.9 L997.9,249.9 L998.8,250.4 L999.1,250.8 L1000.0,251.9 L1000.8,252.1 L1001.1,252.1 L1001.5,252.2 L1001.6,252.1 L1001.9,252.3 L1001.9,252.3 L1002.3,252.1 L1002.7,252.1 L1003.2,251.8 L1003.4,251.8 L1004.2,251.4 L1004.7,250.9 L1005.6,249.6 L1006.4,248.9 L1007.8,248.5 L1008.2,248.5 L1008.8,248.9 L1009.4,249.2 L1010.5,249.7 L1010.9,249.7 L1011.7,250.1 L1011.9,250.1 L1012.4,250.6 L1012.9,250.6 L1013.9,251.4 L1015.1,251.1 L1015.7,250.4 L1016.5,250.0 L1017.2,249.9 L1017.5,249.9 L1017.7,249.8 L1018.0,249.5 L1018.1,249.5 L1019.0,249.2 L1020.4,248.4 L1021.1,248.2 L1021.7,248.7 L1022.8,249.7 L1023.2,249.8 L1024.2,250.9 L1024.6,251.2 L1024.9,251.6 L1025.2,251.6 L1026.1,253.0 L1026.8,253.2 L1027.4,254.2 L1028.2,254.7 L1028.9,255.6 L1031.1,256.0 L1031.5,256.5 L1032.1,256.9 L1032.8,256.9 L1033.6,256.9 L1034.1,256.0 L1034.6,255.8 L1036.5,256.1 L1036.8,256.2 L1037.3,256.6 L1037.5,256.6 L1037.9,257.0 L1038.1,257.3 L1038.5,257.5 L1039.2,257.9 L1039.6,258.3 L1040.0,258.3 L1040.3,258.5 L1040.6,258.8 L1041.1,259.1 L1041.8,259.8 L1042.5,260.1 L1044.0,260.5 L1044.6,261.3 L1045.2,261.8 L1046.1,262.0 L1046.5,262.4 L1046.8,262.5 L1047.2,262.7 L1047.4,263.0 L1048.2,263.3 L1048.9,263.2 L1049.8,263.3 L1050.0,263.4 L1050.2,263.5 L1050.8,263.5 L1051.0,263.5 L1051.3,263.5 L1051.6,263.5 L1051.9,263.4 L1052.5,263.5 L1054.6,265.4 L1055.1,265.7 L1055.3,266.7 L1055.6,266.7 L1056.3,266.7 L1057.9,268.0 L1059.8,269.8 L1060.5,271.8 L1061.2,272.4 L1061.8,272.3 L1062.1,272.4 L1062.3,272.4 L1062.5,272.6 L1062.8,272.7 L1063.0,272.7 L1063.2,272.7 L1063.4,273.0 L1063.6,273.0 L1064.0,273.3 L1064.6,273.7 L1065.5,274.5 L1067.7,277.0 L1068.5,278.2 L1069.5,278.2 L1070.2,278.2 L1070.9,279.5 L1073.5,283.0 L1074.2,282.8 L1074.4,282.8 L1076.4,282.8 L1077.2,282.7 L1078.5,283.5 L1078.8,283.5 L1079.3,284.7 L1080.0,285.2 L1080.3,285.0 L1080.6,284.7 L1080.8,284.7 L1081.6,285.0 L1081.9,285.0 L1082.8,285.5 L1083.0,286.1 L1083.2,286.1 L1083.7,287.6 L1085.2,288.9 L1085.6,289.5 L1086.0,291.0 L1086.3,291.0 L1086.6,291.2 L1086.9,291.0 L1087.2,290.9 L1089.2,290.9 L1089.6,291.2 L1089.9,291.0 L1090.6,292.5 L1091.5,293.2 L1092.2,294.3 L1092.8,295.7 L1093.0,295.7 L1093.2,295.8 L1093.7,296.4 L1094.1,296.4 L1094.4,296.7 L1094.7,296.7 L1094.9,296.8 L1095.4,296.8 L1095.7,296.9 L1096.1,297.0 L1096.4,297.1 L1097.0,297.1 L1097.3,297.2 L1097.7,297.2 L1098.0,297.4 L1098.3,297.4 L1099.7,297.3 L1100.6,296.7 L1101.0,296.7 L1101.7,296.8 L1102.6,296.5 L1103.0,296.5 L1103.5,296.4 L1104.3,296.2 L1104.8,296.8 L1105.2,297.2 L1106.1,297.9 L1107.4,298.4 L1107.7,298.7 L1108.3,299.1 L1108.6,299.1 L1108.9,299.4 L1109.6,299.4 L1110.3,299.0 L1110.5,298.6 L1110.9,298.4 L1111.4,298.5 L1112.6,297.5 L1113.0,297.3 L1113.4,296.9 L1114.2,296.1 L1114.4,296.1 L1116.2,300.9 L1116.5,300.8 L1117.2,302.0 L1117.4,302.0 L1117.5,301.9 L1117.7,301.9 L1117.8,301.9 L1118.2,301.9 L1118.4,302.0 L1118.6,302.0 L1118.8,302.2 L1119.1,302.5 L1120.1,302.6 L1120.7,302.4 L1121.0,302.5 L1121.3,302.7 L1121.8,303.0 L1122.1,303.3 L1122.4,303.3 L1123.1,303.5 L1123.5,303.6 L1123.8,303.6 L1124.0,303.5 L1124.4,303.4 L1124.7,303.3 L1125.2,303.7 L1126.7,303.8 L1127.3,305.8 L1128.0,306.7 L1128.9,307.1 L1129.5,307.5 L1129.6,307.7 L1129.8,307.7 L1129.9,307.8 L1130.0,308.3 L1130.2,308.3 L1130.8,308.8 L1131.3,308.9 L1132.3,309.2 L1132.6,309.2 L1133.7,309.9 L1135.3,311.1 L1135.9,311.2 L1136.6,311.4 L1137.8,311.6 L1138.2,311.7 L1138.6,311.7 L1139.8,312.2 L1141.9,314.9 L1142.9,315.4 L1144.3,315.5 L1145.0,315.7 L1145.4,315.7 L1145.9,316.3 L1146.7,316.3 L1148.4,319.3 L1150.2,320.0 L1150.3,320.0 L1150.4,320.0 L1150.8,320.1 L1151.2,320.2 L1151.9,319.9 L1152.2,319.8 L1152.4,319.8 L1152.5,319.7 L1152.7,319.6 L1152.8,319.5 L1152.9,319.5 L1153.1,319.1 L1153.7,318.9 L1153.9,318.5 L1154.2,318.3 L1154.4,318.0 L1154.9,317.2 L1155.1,316.8 L1155.3,316.6 L1155.5,316.5 L1155.6,316.1 L1155.9,315.7 L1156.5,315.4 L1156.7,315.2 L1157.0,314.7 L1157.1,314.5 L1157.3,314.5 L1157.3,314.5 L1157.6,314.1 L1157.7,313.9 L1157.9,313.7 L1158.5,312.3 L1159.7,312.3 L1160.2,312.2 L1160.6,312.2 L1160.7,312.2 L1161.2,312.2 L1161.6,311.6 L1162.2,311.6 L1162.5,311.8 L1162.8,311.4 L1163.0,311.7 L1163.2,311.2 L1163.9,310.8 L1164.2,310.2 L1165.2,308.2 L1165.8,305.6 L1166.4,304.5 L1166.8,303.8 L1167.2,303.0 L1168.2,302.5 L1168.4,302.5 L1168.5,302.5 L1168.9,301.6 L1169.2,300.9 L1169.3,300.6 L1169.6,300.4 L1169.8,300.4 L1169.9,300.4 L1170.6,299.5 L1171.2,298.1 L1171.4,297.5 L1171.7,296.7 L1171.9,295.8 L1173.1,292.6 L1173.4,291.9 L1173.9,291.3 L1174.4,290.8 L1174.5,290.1 L1174.9,289.4 L1175.5,289.1 L1175.6,289.1 L1175.9,288.8 L1176.1,288.4 L1177.1,287.1 L1177.5,286.9 L1177.8,286.2 L1178.5,284.2 L1178.7,283.3 L1178.9,282.8 L1179.2,282.2 L1179.7,282.2 L1180.4,281.1 L1180.6,280.7 L1180.9,279.9 L1181.1,279.6 L1181.3,279.2 L1181.7,278.0 L1181.8,278.0 L1182.5,276.2 L1183.4,274.3 L1183.5,274.3 L1183.7,273.5 L1184.1,272.8 L1184.5,271.5 L1184.7,271.5 L1185.1,271.2 L1185.3,270.9 L1185.7,270.9 L1185.8,270.8 L1186.2,270.3 L1186.3,270.3 L1186.5,270.0 L1186.8,269.8 L1187.1,269.8 L1187.4,269.5 L1187.7,269.5 L1188.0,269.4 L1188.4,269.3 L1189.1,269.1 L1189.4,268.9 L1189.8,268.1 L1191.6,265.4 L1191.8,265.2 L1192.2,264.8 L1192.3,264.8 L1192.6,264.2 L1192.9,264.4 L1193.0,264.4 L1193.8,264.7 L1194.1,264.7 L1194.5,264.4 L1195.3,262.8 L1195.7,261.8 L1196.3,261.3 L1196.6,260.4 L1196.7,259.7 L1197.0,258.5 L1197.7,256.6 L1197.9,256.3 L1198.0,255.5 L1198.2,255.5 L1198.8,254.3 L1199.1,253.6 L1199.4,252.5 L1199.6,251.8 L1199.8,251.1 L1200.0,251.1 L1200.3,251.1 L1200.5,250.5 L1200.7,250.3 L1200.9,250.0 L1201.3,249.6 L1202.0,248.9 L1203.1,242.7 L1203.9,240.2 L1204.8,239.4 L1204.9,239.4 L1205.0,239.4 L1205.2,239.4 L1205.5,239.4 L1206.0,238.5 L1206.6,237.5 L1206.9,236.3 L1207.4,236.3 L1208.4,233.2 L1208.8,232.2 L1209.4,231.0 L1209.5,230.8 L1210.3,229.4 L1210.4,229.6 L1210.5,229.7 L1210.6,229.7 L1210.8,229.6 L1212.1,227.9 L1212.7,226.7 L1212.9,226.5 L1213.0,226.1 L1213.1,226.1 L1213.5,225.5 L1213.9,224.7 L1214.7,222.8 L1214.8,222.4 L1215.2,222.0 L1215.3,221.8 L1215.5,221.3 L1215.7,220.8 L1216.0,219.6 L1216.5,218.9 L1216.7,218.5 L1216.8,218.5 L1216.9,218.4 L1217.4,218.3 L1217.6,218.2 L1217.7,218.2 L1217.9,217.9 L1218.8,215.9 L1219.3,215.2 L1219.5,214.5 L1219.7,214.4 L1219.9,214.4 L1220.6,210.4 L1221.2,208.8 L1221.9,207.5 L1222.1,206.6 L1223.1,203.1 L1223.2,202.8 L1223.4,202.0 L1223.6,202.0 L1224.2,201.6 L1224.4,201.4 L1224.6,201.4 L1224.8,200.9 L1225.4,200.4 L1225.6,200.4 L1225.8,200.5 L1226.0,200.3 L1226.4,200.3 L1226.7,199.9 L1226.9,199.2 L1227.1,198.8 L1227.4,197.2 L1227.6,196.8 L1228.7,195.7 L1229.3,194.6 L1229.5,194.3 L1229.7,193.9 L1229.8,193.4 L1230.0,193.2 L1230.1,193.2 L1230.5,192.5 L1230.7,192.5 L1230.8,192.5 L1231.0,192.5 L1231.1,192.5 L1231.2,192.5 L1231.4,192.3 L1231.5,192.3 L1231.9,192.3 L1232.5,191.9 L1232.7,191.8 L1232.9,191.5 L1233.1,191.3 L1235.0,186.9 L1235.6,185.8 L1235.9,185.5 L1236.5,184.1 L1236.8,183.8 L1237.0,183.5 L1237.3,183.2 L1237.6,183.2 L1237.9,183.0 L1238.1,183.0 L1238.2,183.0 L1238.4,182.7 L1238.7,181.9 L1238.9,181.9 L1239.1,181.9 L1239.2,181.9 L1239.3,181.6 L1239.5,180.5 L1239.9,179.1 L1241.2,176.1 L1242.1,174.3 L1242.2,174.0 L1242.5,174.0 L1243.3,173.5 L1243.4,173.5 L1243.6,173.2 L1243.7,172.9 L1244.0,172.7 L1244.4,172.4 L1246.2,171.3 L1246.4,170.9 L1246.8,169.5 L1247.2,169.0 L1247.5,169.0 L1248.4,167.8 L1248.8,166.8 L1249.1,165.7 L1249.6,164.5 L1250.5,163.5 L1250.8,163.5 L1251.2,163.1 L1251.4,163.0 L1251.6,162.5 L1251.8,162.0 L1252.1,162.2 L1252.7,162.1 L1253.1,162.6 L1254.0,163.7 L1254.7,166.1 L1255.2,167.1 L1255.6,168.1 L1255.9,168.6 L1256.6,169.7 L1256.7,170.2 L1256.9,170.7 L1257.1,171.1 L1257.2,171.1 L1257.6,172.3 L1258.0,173.0 L1259.0,175.1 L1259.2,175.1 L1259.6,176.1 L1259.7,176.5 L1259.9,177.8 L1260.3,178.0 L1260.5,178.2 L1260.9,178.8 L1261.0,178.8 L1261.1,178.9 L1261.3,179.1 L1261.4,179.1 L1261.9,179.6 L1262.5,180.3 L1262.6,180.3 L1262.8,180.5 L1262.9,180.8 L1263.3,181.3 L1263.5,181.3 L1263.7,182.0 L1263.9,182.5 L1264.4,183.3 L1264.7,184.1 L1265.1,184.1 L1265.5,184.9 L1265.9,186.2 L1266.4,186.9 L1266.6,188.4 L1266.8,189.9 L1267.2,192.0 L1268.3,195.2 L1269.1,197.4 L1269.3,198.2 L1269.5,199.1 L1269.7,199.4 L1269.9,200.3 L1270.4,200.8 L1271.3,201.7 L1271.5,202.1 L1272.2,203.3 L1272.6,205.1 L1273.0,206.2 L1273.5,206.7 L1274.1,209.1 L1274.3,210.6 L1275.0,212.9 L1275.1,212.9 L1275.5,214.3 L1276.4,216.0 L1276.6,216.1 L1277.0,217.0 L1277.4,218.2 L1277.7,218.2 L1277.9,218.9 L1278.2,219.5 L1278.4,219.5 L1278.6,219.5 L1278.8,219.5 L1279.0,220.1 L1279.1,220.3 L1279.5,220.4 L1279.8,221.3 L1280.0,222.1 L1280.6,222.3 L1281.6,227.4 L1282.2,231.8 L1282.5,233.2 L1283.4,236.3 L1283.7,236.8 L1284.0,236.8 L1284.6,238.3 L1284.8,239.2 L1285.2,240.6 L1285.4,241.8 L1285.8,241.8 L1286.3,243.3 L1287.1,244.6 L1287.4,245.8 L1287.9,247.0 L1288.1,247.7 L1288.8,249.9 L1289.0,249.9 L1289.9,251.0 L1290.2,251.8 L1291.0,254.0 L1291.2,254.3 L1291.4,254.7 L1291.9,256.3 L1292.7,256.9 L1293.3,257.7 L1293.4,257.7 L1293.6,257.7 L1293.8,258.2 L1293.9,258.9 L1294.5,259.8 L1295.1,260.4 L1295.5,261.7 L1296.7,266.0 L1298.1,268.4 L1298.5,269.4 L1298.8,270.3 L1299.8,272.8 L1301.4,275.1 L1302.1,276.3 L1302.5,276.3 L1302.9,278.8 L1303.7,279.8 L1304.8,282.6 L1305.4,284.2 L1305.5,284.4 L1306.3,285.7 L1306.7,286.3 L1306.9,286.3 L1307.2,287.2 L1308.1,289.7 L1308.8,290.2 L1309.6,294.5 L1310.3,295.7 L1311.8,302.8 L1312.2,304.1 L1313.2,309.9 L1314.0,310.9 L1314.6,312.3 L1314.9,313.1 L1315.0,313.1 L1315.1,313.4 L1315.3,313.4 L1315.4,313.4 L1315.9,314.0 L1316.1,314.0 L1316.3,314.1 L1316.8,314.4 L1317.2,314.4 L1317.7,315.1 L1318.4,315.7 L1318.9,316.3 L1319.3,316.5 L1320.1,317.9 L1320.3,317.9 L1320.6,317.9 L1321.6,319.5 L1322.1,320.3 L1322.3,320.3 L1322.6,320.8 L1322.8,320.8 L1323.3,323.1 L1323.8,323.6 L1324.2,323.6 L1325.0,325.7 L1325.6,327.8 L1326.5,328.2 L1327.1,328.5 L1327.2,328.5 L1327.8,327.5 L1328.1,327.5 L1328.3,327.5 L1328.6,327.4 L1329.0,327.4 L1329.2,327.4 L1329.9,326.4 L1330.2,326.4 L1330.5,326.4 L1332.5,321.8 L1334.2,318.9 L1334.9,318.7 L1335.7,318.2 L1336.7,316.8 L1337.4,315.6 L1338.4,312.9 L1339.2,311.1 L1340.0,310.3 L1340.4,309.7 L1340.9,308.2 L1341.2,307.8 L1341.3,307.8 L1341.5,307.8 L1341.6,307.4 L1341.8,307.4 L1342.2,306.3 L1342.5,305.0 L1343.2,304.1 L1343.4,304.1 L1343.6,303.8 L1344.2,302.1 L1344.8,300.8 L1344.9,300.8 L1345.0,300.3 L1345.1,300.1 L1345.2,300.1 L1345.8,299.5 L1346.1,298.9 L1346.7,298.5" fill="transparent" id="track" stroke="black" stroke-linejoin="miter" stroke-miterlimit="1" stroke-width="2"/>
<g>
<g>
<circle cx="-241.8745893927063" cy="351.8478333333333" fill="Blue" id="0/wp" r="5"/>
</g>
<g>
<circle cx="-811.4489662742835" cy="92.493" fill="Blue" id="1/wp" r="5"/>
</g>
<g>
<circle cx="638.2751830586524" cy="200.16249999999997" fill="Blue" id="2/wp" r="5"/>
</g>
<g transform="translate(638.2751830586524 200.16249999999997)">
<rect fill="white" fill-opacity="0.75" height="12" id="label-bg" width="71.22105263157891" x="-35.61052631578946" y="-193.16249999999997"/>
<text font-size="16.0" id="2/wp/text" text-anchor="start" x="-35.611" y="-181.162">
K3 (17:14)
</text>
</g>
<path d="M638.28,23.00 L636.10,124.99 L638.28,198.16" fill="transparent" id="link" stroke="black" stroke-linejoin="miter" stroke-miterlimit="1"/>
<g>
<circle cx="2188.781151253016" cy="397.21799999999996" fill="Blue" id="3/wp" r="5"/>
</g>
<g>
<circle cx="140.12058053185206" cy="282.0598333333333" fill="Black" id="4/wp" r="3"/>
</g>
<g transform="translate(140.12058053185206 282.0598333333333)">
<rect fill="white" fill-opacity="0.75" height="12" id="label-bg" width="36.73684210526316" x="-40.73684210526316" y="-16"/>
<text font-size="16.0" id="4/wp/text" text-anchor="end" x="-4.000" y="-4.000">
14:46
</text>
</g>
<g>
<circle cx="409.87656967516864" cy="162.2013333333333" fill="Black" id="5/wp" r="3"/>
</g>
<g transform="translate(409.87656967516864 162.2013333333333)">
<rect fill="white" fill-opacity="0.75" height="12" id="label-bg" width="36.73684210526316" x="-40.73684210526316" y="-16"/>
<text font-size="16.0" id="5/wp/text" text-anchor="end" x="-4.000" y="-4.000">
16:06
</text>
</g>
<g>
<circle cx="680.8358503544337" cy="144.99333333333328" fill="Black" id="6/wp" r="3"/>
</g>
<g transform="translate(680.8358503544337 144.99333333333328)">
<rect fill="white" fill-opacity="0.75" height="12" id="label-bg" width="36.73684210526316" x="-40.73684210526316" y="-16"/>
<text font-size="16.0" id="6/wp/text" text-anchor="end" x="-4.000" y="-4.000">
17:27
</text>
</g>
<g>
<circle cx="952.1713372351119" cy="225.1778333333333" fill="Black" id="7/wp" r="3"/>
</g>
<g transform="translate(952.1713372351119 225.1778333333333)">
<rect fill="white" fill-opacity="0.75" height="12" id="label-bg" width="36.73684210526316" x="4" y="-16"/>
<text font-size="16.0" id="7/wp/text" text-anchor="start" x="4.000" y="-4.000">
18:47
</text>
</g>
<g>
<circle cx="1222.1344699838637" cy="204.70349999999996" fill="Black" id="8/wp" r="3"/>
</g>
<g transform="translate(1222.1344699838637 204.70349999999996)">
<rect fill="white" fill-opacity="0.75" height="12" id="label-bg" width="36.73684210526316" x="-40.73684210526316" y="-16"/>
<text font-size="16.0" id="8/wp/text" text-anchor="end" x="-4.000" y="-4.000">
20:07
</text>
</g>
<g>
<circle cx="473.3035501553402" cy="54.05383333333333" fill="Green" id="9/wp" r="3"/>
</g>
<g transform="translate(473.3035501553402 54.05383333333333)">
<rect fill="white" fill-opacity="0.75" height="12" id="label-bg" width="129.0105263157895" x="4" y="-16"/>
<text font-size="16.0" id="9/wp/text" text-anchor="start" x="4.000" y="-4.000">
Alexanderschanze
</text>
</g>
<g>
<circle cx="811.492116104452" cy="57.67866666666663" fill="Green" id="10/wp" r="3"/>
</g>
<g transform="translate(811.492116104452 57.67866666666663)">
<rect fill="white" fill-opacity="0.75" height="12" id="label-bg" width="86.28421052631579" x="4" y="-16"/>
<text font-size="16.0" id="10/wp/text" text-anchor="start" x="4.000" y="-4.000">
Seibelseckle
</text>
</g>
<g>
<circle cx="745.9858900611962" cy="74.1298333333333" fill="Green" id="11/wp" r="3"/>
</g>
<g transform="translate(745.9858900611962 74.1298333333333)">
<rect fill="white" fill-opacity="0.75" height="12" id="label-bg" width="67.90526315789474" x="-71.90526315789474" y="-16"/>
<text font-size="16.0" id="11/wp/text" text-anchor="end" x="-4.000" y="-4.000">
Ruhestein
</text>
</g>
<g>
<circle cx="247.47637047571743" cy="134.59683333333328" fill="Green" id="12/wp" r="3"/>
</g>
<g transform="translate(247.47637047571743 134.59683333333328)">
<rect fill="white" fill-opacity="0.75" height="12" id="label-bg" width="78.61052631578947" x="4" y="-16"/>
<text font-size="16.0" id="12/wp/text" text-anchor="start" x="4.000" y="-4.000">
Freiersberg
</text>
</g>
<g>
<circle cx="1251.8198010680212" cy="160.01049999999998" fill="Green" id="13/wp" r="3"/>
</g>
<g transform="translate(1251.8198010680212 160.01049999999998)">
<rect fill="white" fill-opacity="0.75" height="12" id="label-bg" width="76.90526315789475" x="4" y="-16"/>
<text font-size="16.0" id="13/wp/text" text-anchor="start" x="4.000" y="-4.000">
Rote Lache
</text>
</g>
<g>
<circle cx="4.551860111515907" cy="156.02716666666663" fill="Black" id="15/wp" r="3"/>
</g>
<g transform="translate(4.551860111515907 156.02716666666663)">
<rect fill="white" fill-opacity="0.75" height="12" id="label-bg" width="36.73684210526316" x="4" y="-16"/>
<text font-size="16.0" id="15/wp/text" text-anchor="start" x="4.000" y="-4.000">
14:06
</text>
</g>
<g>
<circle cx="274.9784992236564" cy="186.26066666666665" fill="Black" id="16/wp" r="3"/>
</g>
<g transform="translate(274.9784992236564 186.26066666666665)">
<rect fill="white" fill-opacity="0.75" height="12" id="label-bg" width="36.73684210526316" x="4" y="-16"/>
<text font-size="16.0" id="16/wp/text" text-anchor="start" x="4.000" y="-4.000">
15:26
</text>
</g>
<g>
<circle cx="545.7070102665202" cy="108.62549999999999" fill="Black" id="17/wp" r="3"/>
</g>
<g transform="translate(545.7070102665202 108.62549999999999)">
<rect fill="white" fill-opacity="0.75" height="12" id="label-bg" width="36.73684210526316" x="4" y="-16"/>
<text font-size="16.0" id="17/wp/text" text-anchor="start" x="4.000" y="-4.000">
16:47
</text>
</g>
<g>
<circle cx="817.1304991713339" cy="60.10849999999999" fill="Black" id="18/wp" r="3"/>
</g>
<g transform="translate(817.1304991713339 60.10849999999999)">
<rect fill="white" fill-opacity="0.75" height="12" id="label-bg" width="36.73684210526312" x="-18.36842105263156" y="-42.10849999999999"/>
<text font-size="16.0" id="18/wp/text" text-anchor="start" x="-18.368" y="-30.108">
18:07
</text>
</g>
<path d="M817.13,34.00 L811.49,37.68 L811.49,57.68 L817.13,58.11" fill="transparent" id="link" stroke="black" stroke-linejoin="miter" stroke-miterlimit="1"/>
<g>
<circle cx="1087.2320647473075" cy="291.30116666666663" fill="Black" id="19/wp" r="3"/>
</g>
<g transform="translate(1087.2320647473075 291.30116666666663)">
<rect fill="white" fill-opacity="0.75" height="12" id="label-bg" width="36.73684210526316" x="4" y="-16"/>
<text font-size="16.0" id="19/wp/text" text-anchor="start" x="4.000" y="-4.000">
19:27
</text>
</g>
<g>
<circle cx="1150.4081905835978" cy="321.455" fill="Black" id="20/wp" r="4"/>
<circle cx="1150.4081905835978" cy="321.455" fill="white" id="20/wp-little-white" r="2.5"/>
</g>
<g transform="translate(1150.4081905835978 321.455)">
<rect fill="white" fill-opacity="0.75" height="12" id="label-bg" width="54.736842105263165" x="-58.736842105263165" y="4"/>
<text font-size="16.0" id="20/wp/text" text-anchor="end" x="-4.000" y="16.000">
Forbach
</text>
</g>
<g>
<circle cx="323.1569726843629" cy="281.2233333333333" fill="Black" id="21/wp" r="4"/>
<circle cx="323.1569726843629" cy="281.2233333333333" fill="white" id="21/wp-little-white" r="2.5"/>
</g>
<g transform="translate(323.1569726843629 281.2233333333333)">
<rect fill="white" fill-opacity="0.75" height="12" id="label-bg" width="92.4421052631579" x="-96.4421052631579" y="4"/>
<text font-size="16.0" id="21/wp/text" text-anchor="end" x="-4.000" y="16.000">
Bad Peterstal
</text>
</g>
<g>
<circle cx="74.65953538982194" cy="313.6875" fill="Black" id="22/wp" r="4"/>
<circle cx="74.65953538982194" cy="313.6875" fill="white" id="22/wp-little-white" r="2.5"/>
</g>
<g transform="translate(74.65953538982194 313.6875)">
<rect fill="white" fill-opacity="0.75" height="12" id="label-bg" width="38.347368421052636" x="-42.347368421052636" y="4"/>
<text font-size="16.0" id="22/wp/text" text-anchor="end" x="-4.000" y="16.000">
Walke
</text>
</g>
<g>
<circle cx="369.67709286538866" cy="253.37983333333332" fill="Black" id="23/wp" r="4"/>
<circle cx="369.67709286538866" cy="253.37983333333332" fill="white" id="23/wp-little-white" r="2.5"/>
</g>
<g transform="translate(369.67709286538866 253.37983333333332)">
<rect fill="white" fill-opacity="0.75" height="12" id="label-bg" width="102.2" x="4" y="4"/>
<text font-size="16.0" id="23/wp/text" text-anchor="start" x="4.000" y="16.000">
Bad Griesbach
</text>
</g>
<g>
<circle cx="638.9851971508933" cy="199.8836666666666" fill="Black" id="24/wp" r="4"/>
<circle cx="638.9851971508933" cy="199.8836666666666" fill="white" id="24/wp-little-white" r="2.5"/>
</g>
<g transform="translate(638.9851971508933 199.8836666666666)">
<rect fill="white" fill-opacity="0.75" height="12" id="label-bg" width="49.71578947368421" x="-53.71578947368421" y="4"/>
<text font-size="16.0" id="24/wp/text" text-anchor="end" x="-4.000" y="16.000">
Obertal
</text>
</g>
<g>
<circle cx="1183.3670284989953" cy="274.7305" fill="Black" id="25/wp" r="4"/>
<circle cx="1183.3670284989953" cy="274.7305" fill="white" id="25/wp-little-white" r="2.5"/>
</g>
<g transform="translate(1183.3670284989953 274.7305)">
<rect fill="white" fill-opacity="0.75" height="12" id="label-bg" width="91.87368421052632" x="-95.87368421052632" y="-16"/>
<text font-size="16.0" id="25/wp/text" text-anchor="end" x="-4.000" y="-4.000">
Bermersbach
</text>
</g>
<g>
<circle cx="1000.0475084400618" cy="249.35666666666663" fill="Black" id="26/wp" r="4"/>
<circle cx="1000.0475084400618" cy="249.35666666666663" fill="white" id="26/wp-little-white" r="2.5"/>
</g>
<g transform="translate(1000.0475084400618 249.35666666666663)">
<rect fill="white" fill-opacity="0.75" height="12" id="label-bg" width="106.55789473684212" x="4" y="-16"/>
<text font-size="16.0" id="26/wp/text" text-anchor="start" x="4.000" y="-4.000">
Schönmünzach
</text>
</g>
<g>
<circle cx="90.85869572847128" cy="308.90749999999997" fill="Gray" id="27/wp" r="2"/>
<circle cx="90.85869572847128" cy="308.90749999999997" fill="white" id="27/wp-little-white" r="0.5"/>
</g>
<g transform="translate(90.85869572847128 308.90749999999997)">
<rect fill="white" fill-opacity="0.75" height="12" id="label-bg" width="49.71578947368421" x="4" y="4"/>
<text font-size="16.0" id="27/wp/text" text-anchor="start" x="4.000" y="16.000">
Obertal
</text>
</g>
<g>
<circle cx="305.4620854836887" cy="264.05516666666665" fill="Gray" id="29/wp" r="2"/>
<circle cx="305.4620854836887" cy="264.05516666666665" fill="white" id="29/wp-little-white" r="0.5"/>
</g>
<g transform="translate(305.4620854836887 264.05516666666665)">
<rect fill="white" fill-opacity="0.75" height="12" id="label-bg" width="119.25263157894737" x="-123.25263157894737" y="4"/>
<text font-size="16.0" id="29/wp/text" text-anchor="end" x="-4.000" y="16.000">
Hinterfreiersbach
</text>
</g>
<g>
<circle cx="863.7082386311322" cy="161.84283333333326" fill="Gray" id="31/wp" r="2"/>
<circle cx="863.7082386311322" cy="161.84283333333326" fill="white" id="31/wp-little-white" r="0.5"/>
</g>
<g transform="translate(863.7082386311322 161.84283333333326)">
<rect fill="white" fill-opacity="0.75" height="12" id="label-bg" width="122.09473684210525" x="-126.09473684210525" y="4"/>
<text font-size="16.0" id="31/wp/text" text-anchor="end" x="-4.000" y="16.000">
Hinterlangenbach
</text>
</g>
<g>
<circle cx="180.89647472012803" cy="248.08199999999997" fill="Gray" id="33/wp" r="2"/>
<circle cx="180.89647472012803" cy="248.08199999999997" fill="white" id="33/wp-little-white" r="0.5"/>
</g>
<g transform="translate(180.89647472012803 248.08199999999997)">
<rect fill="white" fill-opacity="0.75" height="12" id="label-bg" width="102.95789473684212" x="-106.95789473684212" y="-16"/>
<text font-size="16.0" id="33/wp/text" text-anchor="end" x="-4.000" y="-4.000">
Wildschapbach
</text>
</g>
<g>
<circle cx="896.3408587985004" cy="187.0573333333333" fill="Gray" id="34/wp" r="2"/>
<circle cx="896.3408587985004" cy="187.0573333333333" fill="white" id="34/wp-little-white" r="0.5"/>
</g>
<g transform="translate(896.3408587985004 187.0573333333333)">
<rect fill="white" fill-opacity="0.75" height="12" id="label-bg" width="117.83157894736843" x="-121.83157894736843" y="4"/>
<text font-size="16.0" id="34/wp/text" text-anchor="end" x="-4.000" y="16.000">
Mittellangenbach
</text>
</g>
<g>
<circle cx="912.5315509586371" cy="197.37416666666664" fill="Gray" id="35/wp" r="2"/>
<circle cx="912.5315509586371" cy="197.37416666666664" fill="white" id="35/wp-little-white" r="0.5"/>
</g>
<g transform="translate(912.5315509586371 197.37416666666664)">
<rect fill="white" fill-opacity="0.75" height="12" id="label-bg" width="128.53684210526316" x="4" y="-16"/>
<text font-size="16.0" id="35/wp/text" text-anchor="start" x="4.000" y="-4.000">
Vorderlangenbach
</text>
</g>
<g>
<circle cx="938.3390333142415" cy="219.6808333333333" fill="Gray" id="36/wp" r="2"/>
<circle cx="938.3390333142415" cy="219.6808333333333" fill="white" id="36/wp-little-white" r="0.5"/>
</g>
<g transform="translate(938.3390333142415 219.6808333333333)">
<rect fill="white" fill-opacity="0.75" height="12" id="label-bg" width="74.72631578947369" x="-78.72631578947369" y="4"/>
<text font-size="16.0" id="36/wp/text" text-anchor="end" x="-4.000" y="16.000">
Zwickgabel
</text>
</g>
<g>
<circle cx="1063.3954542008514" cy="274.81016666666665" fill="Gray" id="37/wp" r="2"/>
<circle cx="1063.3954542008514" cy="274.81016666666665" fill="white" id="37/wp-little-white" r="0.5"/>
</g>
<g transform="translate(1063.3954542008514 274.81016666666665)">
<rect fill="white" fill-opacity="0.75" height="12" id="label-bg" width="89.50526315789475" x="-93.50526315789475" y="4"/>
<text font-size="16.0" id="37/wp/text" text-anchor="end" x="-4.000" y="16.000">
Raumünzach
</text>
</g>
<g>
<circle cx="1295.509124013617" cy="263.49749999999995" fill="Gray" id="38/wp" r="2"/>
<circle cx="1295.509124013617" cy="263.49749999999995" fill="white" id="38/wp-little-white" r="0.5"/>
</g>
<g transform="translate(1295.509124013617 263.49749999999995)">
<rect fill="white" fill-opacity="0.75" height="12" id="label-bg" width="84.01052631578949" x="-88.01052631578949" y="4"/>
<text font-size="16.0" id="38/wp/text" text-anchor="end" x="-4.000" y="16.000">
Schmalbach
</text>
</g>
</g>
</g>
<g id="SL" transform="translate(0 0)">
<text text-anchor="end" x="66" y="363.5">
200
</text>
<text text-anchor="end" x="66" y="323.66666666666663">
300
</text>
<text text-anchor="end" x="66" y="283.8333333333333">
400
</text>
<text text-anchor="end" x="66" y="243.99999999999997">
500
</text>
<text text-anchor="end" x="66" y="204.16666666666663">
600
</text>
<text text-anchor="end" x="66" y="164.33333333333331">
700
</text>
<text text-anchor="end" x="66" y="124.5">
800
</text>
<text text-anchor="end" x="66" y="84.66666666666663">
900
</text>
<text text-anchor="end" x="66" y="44.833333333333314">
1000
</text>
<text text-anchor="end" x="66" y="5">
1100
</text>
</g>
</g>
</svg>