<svg height="400" width="1420" xmlns="http://www.w3.org/2000/svg">
<g font-family="Libertinus Serif" font-size="15" id="world" shape-rendering="crispEdges">
<g id="BG"/>
<g id="SB" transform="translate(0 360)">
<text text-anchor="middle" x="0" y="14.5">
80
</text>
<text text-anchor="middle" x="236.41666666666663" y="14.5">
100
</text>
<text text-anchor="middle" x="472.83333333333337" y="14.5">
120
</text>
<text text-anchor="middle" x="709.2499999999999" y="14.5">
140
</text>
<text text-anchor="middle" x="945.6666666666666" y="14.5">
160
</text>
<text text-anchor="middle" x="1182.0833333333335" y="14.5">
180
</text>
</g>
<g id="SD" transform="translate(0 0)">
<path d="M0,0 L0,358.5 L1418.5,358.5 L1418.5,0 L0,0" fill="lightgray" id="bg"/>
<path d="M0,0 L1418.5,0" stroke="black" stroke-width="3"/>
<path d="M0,0 L0,358.5" stroke="black" stroke-width="3"/>
<path d="M0,358.5 L1418.5,358.5" stroke="black" stroke-width="3"/>
<path d="M1418.5,0 L1418.5,358.5" stroke="black" stroke-width="3"/>
<path d="M0,0 L0,358.5" stroke="black" stroke-width="1"/>
<path d="M236.41667,0 L236.41667,358.5" stroke="black" stroke-width="1"/>
<path d="M472.83334,0 L472.83334,358.5" stroke="black" stroke-width="1"/>
<path d="M709.25,0 L709.25,358.5" stroke="black" stroke-width="1"/>
<path d="M945.6667,0 L945.6667,358.5" stroke="black" stroke-width="1"/>
<path d="M1182.0834,0 L1182.0834,358.5" stroke="black" stroke-width="1"/>
<path d="M118.208336,0 L118.208336,358.5" stroke="black" stroke-dasharray="1.0,2.5,5.0,5.0,10.0,5.0"/>
<path d="M354.625,0 L354.625,358.5" stroke="black" stroke-dasharray="1.0,2.5,5.0,5.0,10.0,5.0"/>
<path d="M591.0417,0 L591.0417,358.5" stroke="black" stroke-dasharray="1.0,2.5,5.0,5.0,10.0,5.0"/>
<path d="M827.4583,0 L827.4583,358.5" stroke="black" stroke-dasharray="1.0,2.5,5.0,5.0,10.0,5.0"/>
<path d="M1063.875,0 L1063.875,358.5" stroke="black" stroke-dasharray="1.0,2.5,5.0,5.0,10.0,5.0"/>
<path d="M1300.2916,0 L1300.2916,358.5" stroke="black" stroke-dasharray="1.0,2.5,5.0,5.0,10.0,5.0"/>
<path d="M0,358.5 L1418.5,358.5" stroke="black" stroke-width="1"/>
<path d="M0,310.7 L1418.5,310.7" stroke="black" stroke-width="1"/>
<path d="M0,262.9 L1418.5,262.9" stroke="black" stroke-width="1"/>
<path d="M0,215.1 L1418.5,215.1" stroke="black" stroke-width="1"/>
<path d="M0,167.3 L1418.5,167.3" stroke="black" stroke-width="1"/>
<path d="M0,119.5 L1418.5,119.5" stroke="black" stroke-width="1"/>
<path d="M0,71.7 L1418.5,71.7" stroke="black" stroke-width="1"/>
<path d="M0,23.9 L1418.5,23.9" stroke="black" stroke-width="1"/>
<path d="M0,334.6 L1418.5,334.6" stroke="black" stroke-dasharray="1.0,2.5,5.0,5.0,10.0,5.0"/>
<path d="M0,286.8 L1418.5,286.8" stroke="black" stroke-dasharray="1.0,2.5,5.0,5.0,10.0,5.0"/>
<path d="M0,239 L1418.5,239" stroke="black" stroke-dasharray="1.0,2.5,5.0,5.0,10.0,5.0"/>
<path d="M0,191.2 L1418.5,191.2" stroke="black" stroke-dasharray="1.0,2.5,5.0,5.0,10.0,5.0"/>
<path d="M0,143.4 L1418.5,143.4" stroke="black" stroke-dasharray="1.0,2.5,5.0,5.0,10.0,5.0"/>
<path d="M0,95.6 L1418.5,95.6" stroke="black" stroke-dasharray="1.0,2.5,5.0,5.0,10.0,5.0"/>
<path d="M0,47.8 L1418.5,47.8" stroke="black" stroke-dasharray="1.0,2.5,5.0,5.0,10.0,5.0"/>
<path d="M0,0 L1418.5,0" stroke="black" stroke-dasharray="1.0,2.5,5.0,5.0,10.0,5.0"/>
<path d="M0.5,242.7 L1.5,239.6 L1.8,239.7 L2.0,239.8 L3.8,235.3 L4.7,233.7 L5.1,232.5 L5.8,231.0 L6.0,231.0 L6.1,231.0 L6.1,231.2 L6.3,231.7 L6.3,231.7 L6.6,232.4 L6.8,232.5 L6.9,232.1 L7.1,231.0 L7.3,230.4 L7.3,230.2 L7.6,230.6 L7.8,230.4 L8.0,229.7 L8.3,228.6 L8.9,225.9 L9.2,224.3 L9.5,222.7 L9.9,220.8 L10.1,220.0 L10.2,219.8 L10.2,220.2 L11.1,220.6 L11.3,221.3 L11.7,220.2 L13.6,209.5 L13.9,209.7 L14.2,212.5 L14.6,213.8 L15.4,214.6 L15.9,213.3 L16.5,211.4 L17.0,209.5 L17.7,208.4 L18.0,208.4 L18.2,208.1 L19.2,207.4 L19.4,206.9 L20.1,205.3 L20.8,207.5 L21.1,207.5 L21.8,204.8 L22.8,201.3 L23.0,200.8 L23.4,199.6 L24.0,199.3 L25.7,193.3 L26.8,190.5 L27.1,190.4 L27.6,189.7 L27.8,189.7 L28.3,191.0 L28.5,192.1 L29.0,192.8 L29.9,193.2 L30.8,193.6 L31.2,194.7 L31.6,195.2 L32.3,196.2 L33.0,197.2 L33.2,197.7 L33.4,198.3 L33.9,199.5 L34.1,199.7 L35.0,200.2 L35.3,200.1 L36.0,201.2 L36.2,201.6 L36.6,202.7 L37.0,203.5 L38.1,205.6 L38.2,206.4 L38.8,208.4 L39.0,209.0 L39.6,208.4 L39.8,208.8 L39.9,209.0 L40.1,209.5 L40.3,210.0 L40.7,210.5 L41.4,211.1 L41.6,211.6 L42.0,213.1 L43.7,217.4 L44.1,218.4 L44.4,219.4 L44.7,219.8 L45.0,219.8 L45.3,220.2 L45.6,220.6 L45.8,220.6 L46.1,220.2 L46.3,219.9 L46.5,219.4 L46.9,218.7 L47.2,218.6 L48.3,218.7 L49.2,221.9 L50.7,223.2 L51.1,222.9 L51.2,223.1 L51.3,223.8 L51.6,223.4 L53.0,218.8 L53.3,218.5 L53.8,217.8 L54.6,215.8 L55.3,214.3 L55.7,213.8 L56.3,212.9 L57.3,210.8 L57.5,210.4 L57.6,209.8 L58.4,206.9 L58.9,205.7 L59.4,204.2 L59.6,203.2 L59.7,203.0 L59.8,203.1 L60.0,204.5 L60.5,204.2 L60.8,203.3 L61.0,202.0 L62.3,197.2 L62.7,196.3 L62.8,196.0 L63.0,195.4 L63.5,193.0 L63.7,192.5 L63.8,192.5 L64.0,192.8 L64.6,192.6 L64.9,191.5 L65.2,191.0 L65.4,190.8 L66.0,190.9 L66.3,190.7 L66.9,188.7 L67.2,188.3 L67.5,188.0 L67.7,187.4 L67.8,186.9 L68.3,185.9 L68.6,186.3 L69.0,185.3 L70.0,180.8 L70.5,178.7 L71.2,181.0 L71.5,181.1 L71.9,180.7 L72.3,179.0 L72.7,178.3 L73.7,176.4 L74.0,176.0 L74.3,175.3 L74.9,173.1 L75.3,173.9 L75.6,175.5 L76.4,177.2 L76.7,177.4 L77.7,175.0 L79.1,173.8 L79.4,172.8 L79.6,172.7 L80.7,172.0 L81.2,172.6 L84.0,171.6 L85.4,170.9 L85.8,171.4 L87.1,172.0 L88.3,172.4 L88.4,171.8 L88.6,171.4 L89.0,170.1 L89.5,170.3 L90.0,170.9 L90.2,171.1 L90.6,170.0 L90.6,169.9 L90.8,169.7 L90.9,169.5 L91.1,169.2 L91.4,168.8 L92.2,168.0 L92.6,168.1 L92.7,168.2 L93.3,167.4 L93.9,166.7 L94.2,166.8 L95.2,166.9 L95.6,166.4 L96.1,166.5 L96.5,167.6 L96.8,168.6 L97.1,168.8 L97.3,168.2 L99.9,165.9 L101.1,166.5 L102.1,166.6 L102.8,167.2 L103.3,167.8 L103.8,169.2 L104.8,173.5 L105.3,173.6 L105.7,174.2 L106.2,175.1 L106.6,175.5 L106.9,175.7 L107.6,175.4 L107.9,175.8 L108.5,176.8 L108.9,177.8 L109.5,179.5 L110.7,179.8 L111.2,180.2 L111.6,180.0 L112.2,180.1 L112.5,180.9 L112.8,181.5 L114.0,180.3 L116.3,183.2 L117.5,185.4 L118.3,185.8 L118.6,186.1 L119.0,186.5 L119.2,186.8 L120.1,189.3 L120.5,188.7 L120.9,187.5 L121.1,187.1 L121.7,187.9 L122.2,189.2 L122.5,190.1 L122.9,192.6 L123.1,193.5 L123.4,194.0 L123.6,194.3 L123.9,194.5 L125.0,198.0 L125.3,198.8 L126.9,200.7 L127.1,201.0 L127.3,200.7 L127.5,199.4 L128.1,196.7 L128.6,198.2 L128.8,199.2 L129.1,197.8 L129.3,198.3 L129.9,200.9 L130.5,205.4 L130.8,205.3 L131.2,204.2 L131.5,204.5 L131.8,204.2 L132.0,204.0 L133.0,208.0 L133.2,208.4 L133.5,210.5 L133.9,212.0 L134.3,213.5 L134.5,213.7 L135.0,215.4 L135.5,216.2 L136.0,218.2 L136.6,219.4 L137.7,221.2 L138.3,223.1 L138.6,223.4 L138.9,224.0 L139.3,227.0 L139.5,228.5 L139.8,229.0 L139.9,229.3 L140.2,229.5 L140.7,231.1 L141.4,230.8 L141.7,231.4 L142.0,232.1 L142.3,232.7 L143.2,233.2 L143.3,233.0 L143.4,233.0 L143.5,232.4 L143.7,232.0 L143.8,232.2 L144.1,233.5 L144.8,235.6 L145.5,237.5 L146.0,239.2 L146.4,239.4 L147.5,239.5 L148.4,241.8 L148.8,242.8 L149.8,245.1 L149.9,245.6 L150.1,245.9 L150.7,246.6 L151.5,247.4 L152.3,247.9 L152.6,249.3 L153.3,252.0 L153.6,251.9 L153.8,252.3 L154.4,255.1 L155.3,257.3 L155.4,257.4 L156.0,257.0 L156.9,258.3 L157.4,258.8 L158.0,259.2 L159.1,260.9 L159.8,262.9 L160.3,264.1 L160.6,264.7 L161.2,263.9 L161.9,260.9 L162.9,262.7 L163.8,263.0 L165.4,266.3 L165.7,266.4 L166.3,268.0 L166.6,269.0 L166.8,269.4 L167.2,270.5 L169.1,271.1 L170.6,273.5 L170.7,274.1 L171.1,276.9 L171.3,277.5 L172.2,278.3 L172.8,279.3 L172.9,279.4 L173.0,279.6 L173.1,279.6 L173.1,279.6 L173.8,278.9 L174.0,278.7 L174.3,278.8 L174.5,279.0 L174.8,279.0 L175.4,278.8 L176.7,280.5 L177.0,280.0 L177.3,279.5 L177.6,278.9 L178.2,277.7 L178.4,278.1 L178.8,278.9 L178.9,279.1 L179.3,278.8 L179.7,279.6 L180.2,281.5 L180.4,281.9 L180.6,282.3 L181.1,282.4 L181.4,282.5 L181.8,282.8 L182.6,283.5 L182.8,283.9 L183.6,283.9 L183.7,283.8 L183.9,283.8 L184.1,283.9 L184.4,283.5 L185.0,282.8 L185.5,283.0 L186.1,283.1 L186.4,283.7 L186.6,283.7 L187.0,283.0 L187.3,283.3 L187.8,283.3 L188.0,283.0 L188.6,282.2 L188.8,281.9 L190.1,278.9 L190.3,279.5 L191.0,282.4 L191.2,282.2 L191.4,282.1 L191.9,281.6 L192.8,281.0 L194.1,281.2 L194.9,280.6 L195.3,280.8 L195.8,281.1 L196.4,280.6 L196.7,280.6 L197.0,280.6 L197.9,280.9 L198.9,280.4 L199.3,280.8 L199.8,280.7 L200.2,280.7 L200.7,280.4 L202.9,279.2 L203.2,279.2 L203.5,279.0 L203.8,278.7 L204.2,278.4 L204.4,278.5 L204.9,278.7 L205.4,277.0 L205.8,276.5 L206.3,276.9 L207.1,278.6 L207.3,278.2 L207.5,277.5 L208.0,277.8 L208.3,277.9 L209.3,277.5 L209.6,277.5 L209.7,277.2 L210.3,275.6 L211.2,274.9 L211.5,275.2 L211.9,275.6 L212.2,275.8 L214.1,274.6 L214.4,274.9 L214.8,273.9 L215.8,274.5 L217.3,271.6 L218.1,272.7 L218.6,273.1 L219.6,273.6 L220.2,274.2 L220.4,274.2 L220.7,274.3 L221.8,272.7 L222.2,271.4 L222.5,270.6 L222.9,270.3 L223.3,270.7 L224.1,270.8 L224.4,270.5 L225.5,271.4 L226.0,272.6 L226.3,272.2 L226.7,271.6 L226.9,271.8 L227.9,271.1 L228.3,270.7 L228.5,270.7 L228.5,270.8 L229.0,271.7 L230.7,273.4 L230.7,273.3 L230.9,272.6 L231.0,272.0 L232.4,270.0 L232.7,269.2 L233.1,268.9 L235.5,270.9 L235.6,270.9 L236.0,270.5 L236.9,269.8 L237.1,270.1 L237.5,270.8 L237.6,270.4 L238.0,268.6 L238.3,267.4 L239.2,268.1 L239.8,267.1 L240.3,265.4 L241.1,264.8 L242.7,268.5 L243.2,268.5 L243.9,267.6 L244.4,267.4 L244.8,267.5 L245.1,267.5 L245.5,266.7 L245.8,266.1 L246.3,266.7 L246.7,266.7 L246.9,266.6 L247.3,266.1 L247.9,264.6 L248.1,262.6 L248.4,259.2 L248.7,257.4 L249.1,258.3 L249.6,260.2 L250.0,262.8 L250.5,264.9 L251.0,265.6 L251.6,265.4 L252.0,265.8 L252.3,266.0 L252.3,266.1 L252.6,266.2 L252.8,266.1 L253.2,265.8 L253.4,265.9 L253.8,265.6 L254.7,263.9 L255.0,263.4 L255.4,263.6 L256.7,259.2 L257.1,258.4 L257.2,258.4 L257.4,258.4 L258.0,258.8 L259.2,257.7 L259.6,257.4 L260.5,257.8 L261.0,257.2 L263.4,253.9 L264.1,254.8 L264.4,255.0 L264.7,254.1 L264.9,253.8 L265.4,253.6 L265.7,253.5 L266.5,250.4 L266.7,249.7 L266.8,249.5 L266.9,249.7 L267.0,250.3 L267.3,252.0 L267.8,252.2 L268.9,250.3 L269.6,248.6 L270.1,246.3 L270.4,246.0 L270.7,246.9 L271.1,247.8 L271.3,247.9 L271.5,247.7 L271.9,248.2 L272.3,247.8 L272.4,247.4 L272.7,247.3 L273.1,246.9 L274.0,243.6 L274.2,244.3 L274.4,244.2 L275.0,244.2 L275.0,244.4 L275.2,245.2 L275.3,245.3 L275.7,245.2 L275.8,245.3 L276.0,245.5 L276.7,244.8 L276.9,244.4 L277.3,244.0 L277.5,243.7 L277.7,243.3 L277.8,243.4 L278.1,243.0 L278.2,243.0 L278.7,241.7 L278.9,241.2 L279.1,240.9 L280.6,235.8 L280.8,236.2 L280.9,236.5 L281.4,238.4 L281.9,238.2 L282.1,238.6 L282.5,238.8 L282.8,238.5 L283.4,238.5 L284.0,236.6 L284.4,236.4 L284.7,235.1 L285.3,233.7 L285.9,232.0 L286.5,231.1 L287.0,232.4 L288.3,230.1 L288.5,230.0 L288.7,230.0 L289.0,229.6 L289.1,229.2 L289.6,227.8 L289.8,226.9 L290.1,226.4 L290.9,226.0 L291.1,226.0 L291.3,226.1 L291.4,225.9 L291.6,225.6 L292.1,225.2 L292.3,224.8 L292.7,223.7 L293.1,222.7 L293.4,222.8 L293.9,224.4 L294.1,224.7 L294.3,224.5 L294.6,223.9 L294.8,223.0 L295.7,221.8 L296.0,221.7 L296.3,221.5 L296.9,219.9 L297.1,218.7 L297.2,218.0 L297.2,217.5 L297.4,217.4 L297.6,217.0 L298.3,215.7 L299.0,215.2 L299.3,214.7 L300.0,215.1 L301.2,214.0 L301.8,212.4 L302.3,211.8 L303.4,212.8 L303.9,212.6 L304.2,212.4 L305.1,210.5 L305.4,210.2 L306.4,208.9 L307.8,210.8 L308.8,207.1 L309.3,207.5 L309.7,208.0 L309.9,207.8 L309.9,207.7 L310.2,206.3 L311.3,203.5 L311.7,202.7 L312.5,202.1 L313.7,200.3 L313.9,200.1 L314.1,199.8 L314.2,199.4 L314.3,199.1 L314.4,199.1 L314.9,199.2 L315.6,199.2 L316.0,199.7 L316.2,199.6 L316.9,198.8 L317.4,200.3 L317.6,200.5 L317.7,200.5 L317.9,199.8 L318.3,198.3 L318.8,197.9 L319.3,196.0 L320.6,196.7 L320.7,196.7 L320.8,196.7 L321.0,196.0 L321.2,195.0 L321.8,192.4 L322.0,191.8 L322.2,191.3 L322.4,191.2 L323.8,190.9 L324.0,190.9 L324.4,190.1 L324.8,188.5 L324.9,188.1 L325.7,187.9 L326.0,187.5 L326.3,186.9 L326.6,186.1 L326.8,185.4 L327.0,185.5 L327.5,186.8 L327.7,186.6 L330.6,182.5 L331.1,182.0 L331.5,181.6 L332.0,181.6 L332.3,181.2 L332.5,180.6 L332.8,179.9 L334.0,177.4 L334.4,176.3 L334.7,175.9 L334.9,175.9 L335.1,176.1 L335.3,176.4 L335.6,176.9 L335.8,177.4 L336.0,177.9 L336.3,178.4 L337.1,179.5 L337.3,179.7 L337.5,179.7 L338.1,179.9 L338.2,180.3 L338.4,181.2 L338.5,182.2 L338.7,182.6 L338.9,182.5 L339.3,181.4 L340.0,181.4 L340.5,181.6 L342.2,183.7 L342.9,183.0 L343.3,183.3 L343.7,184.3 L344.0,184.8 L344.2,185.2 L345.0,187.9 L345.2,188.4 L345.5,188.6 L345.8,189.8 L346.1,190.3 L346.6,189.3 L346.8,189.0 L347.0,189.0 L347.1,189.3 L347.8,191.7 L348.6,191.2 L349.1,190.7 L349.5,191.1 L350.4,196.2 L350.6,196.8 L350.9,197.4 L351.2,197.7 L351.9,196.8 L352.1,198.2 L352.2,199.2 L352.4,201.0 L352.6,201.2 L353.6,199.6 L354.0,200.3 L354.5,200.4 L355.4,198.7 L355.7,200.2 L356.3,203.1 L357.2,207.1 L357.7,207.4 L358.3,207.7 L359.0,205.5 L359.2,206.0 L359.4,207.4 L359.9,210.2 L360.2,211.0 L361.1,211.8 L361.5,212.2 L361.9,211.0 L362.1,211.4 L362.2,211.6 L362.2,211.5 L362.3,211.6 L362.4,211.7 L363.9,213.5 L364.4,214.7 L364.8,215.8 L365.3,216.5 L365.5,216.9 L365.6,217.4 L366.4,219.3 L367.1,221.6 L367.5,222.9 L368.2,224.5 L368.3,225.1 L368.6,226.6 L368.9,227.3 L369.1,226.9 L369.3,226.8 L370.3,226.6 L371.2,229.2 L371.4,229.6 L371.9,230.7 L372.3,230.7 L372.8,232.2 L374.0,235.4 L375.3,239.3 L376.2,241.8 L376.5,242.8 L376.7,242.8 L376.8,242.7 L377.1,242.5 L377.7,241.2 L378.2,239.2 L378.5,240.0 L378.8,241.1 L379.3,242.1 L379.6,242.7 L379.7,243.2 L379.9,244.0 L380.5,246.1 L381.5,247.2 L381.7,247.8 L381.8,247.8 L382.2,247.7 L382.7,247.6 L383.6,249.8 L383.8,249.9 L384.3,250.2 L384.4,250.2 L384.8,250.3 L384.8,250.6 L384.9,251.1 L385.8,253.3 L386.0,253.6 L386.2,254.0 L386.6,254.8 L387.1,254.2 L387.5,254.0 L388.4,255.7 L389.0,256.2 L389.8,257.6 L390.1,257.8 L391.3,257.6 L391.4,257.4 L391.6,257.4 L392.7,257.9 L393.1,258.6 L393.9,258.9 L394.3,257.9 L394.4,257.2 L394.7,256.7 L395.0,256.7 L395.2,257.1 L395.7,258.0 L395.9,258.2 L396.4,259.3 L396.6,259.5 L397.0,259.4 L397.2,259.1 L397.6,259.0 L398.3,258.8 L398.8,258.8 L399.1,259.5 L399.2,260.2 L399.7,261.8 L399.9,262.4 L400.1,262.9 L400.6,263.4 L400.7,263.8 L401.1,264.3 L401.2,264.4 L401.7,264.3 L402.2,264.7 L402.5,264.8 L402.6,264.8 L402.7,264.7 L402.7,264.8 L403.0,264.9 L403.1,264.9 L403.2,265.0 L403.3,265.0 L403.6,265.2 L403.7,265.2 L404.4,264.9 L405.6,264.5 L406.5,263.9 L407.3,263.5 L407.4,263.4 L407.6,263.2 L407.9,263.0 L408.4,262.8 L408.8,262.0 L409.0,261.4 L409.3,261.0 L410.3,260.7 L410.8,260.8 L410.8,260.6 L411.4,259.7 L412.8,259.8 L413.0,260.0 L413.3,260.5 L414.0,260.6 L414.3,260.4 L414.6,260.0 L414.9,259.7 L415.0,259.6 L415.7,257.8 L416.3,256.9 L417.1,255.2 L417.2,255.3 L419.2,254.4 L421.0,252.4 L421.2,252.6 L421.6,253.8 L422.0,255.7 L422.6,254.8 L423.1,255.5 L423.3,255.9 L423.6,256.0 L423.6,256.0 L424.3,254.8 L424.5,254.4 L424.8,254.2 L425.2,254.2 L425.5,253.2 L426.1,252.0 L426.8,251.2 L427.0,251.1 L427.1,251.0 L427.4,251.0 L428.1,252.0 L428.4,252.5 L428.7,252.1 L428.9,251.4 L429.4,249.7 L429.6,248.8 L430.0,248.1 L430.5,248.6 L431.3,249.8 L431.5,250.1 L431.7,250.3 L431.9,250.0 L432.3,249.6 L433.1,249.3 L433.9,247.8 L434.6,249.3 L434.8,249.6 L435.6,249.6 L436.1,249.6 L436.9,249.7 L437.0,249.5 L437.6,248.7 L438.0,248.0 L438.2,247.5 L438.4,247.2 L438.6,247.1 L438.8,247.3 L438.9,247.7 L439.1,247.7 L439.5,247.6 L439.7,247.7 L440.1,248.0 L440.9,248.3 L441.8,248.0 L442.0,247.9 L442.5,247.6 L443.1,246.6 L443.4,246.1 L443.8,245.8 L444.1,246.0 L444.1,246.0 L444.3,246.1 L444.6,246.3 L445.1,246.5 L445.4,246.4 L445.7,245.9 L445.8,245.8 L445.9,245.5 L446.2,244.9 L446.8,244.7 L447.1,244.3 L447.6,243.9 L448.0,243.0 L448.3,243.1 L448.5,243.2 L448.6,243.1 L449.5,242.1 L449.5,242.0 L449.8,242.2 L450.2,241.6 L450.7,239.8 L451.3,238.8 L451.7,237.1 L452.7,234.7 L452.9,234.8 L453.8,234.9 L454.6,234.0 L454.8,233.7 L456.0,230.1 L456.1,229.9 L456.3,229.8 L457.1,227.3 L457.9,225.1 L459.2,224.9 L459.6,224.7 L460.0,223.8 L460.6,222.1 L461.0,221.0 L462.0,220.5 L462.7,219.1 L462.9,218.5 L463.3,217.5 L463.7,217.0 L464.4,218.2 L464.6,218.0 L464.7,217.6 L464.8,217.4 L464.9,217.0 L465.0,216.2 L465.1,215.7 L465.2,215.3 L466.0,215.7 L466.1,215.7 L466.3,215.5 L466.9,214.1 L467.5,213.4 L467.7,213.0 L468.0,211.8 L468.1,211.0 L468.7,208.2 L469.4,207.1 L469.8,206.6 L470.2,206.5 L470.7,206.1 L471.0,205.3 L471.3,204.7 L471.7,204.6 L471.9,203.8 L471.9,203.0 L472.0,202.5 L472.5,203.2 L472.7,203.1 L473.8,202.5 L473.9,202.4 L474.0,202.1 L474.1,201.4 L474.2,201.0 L474.9,200.7 L475.2,199.8 L476.9,194.5 L477.4,193.0 L477.8,192.9 L477.9,192.9 L478.1,193.0 L478.2,192.9 L478.4,192.7 L478.8,192.3 L479.3,192.7 L479.6,193.4 L480.0,194.2 L480.4,193.8 L481.0,192.9 L481.1,192.6 L481.2,191.9 L481.3,191.4 L482.1,191.8 L482.3,191.7 L482.3,191.4 L482.4,190.5 L482.5,189.8 L482.8,189.7 L483.0,189.5 L483.1,189.2 L483.2,188.8 L484.0,187.0 L485.7,183.9 L486.0,183.2 L486.3,183.0 L486.6,183.2 L487.5,183.1 L487.9,181.8 L488.0,181.2 L488.1,180.9 L488.2,180.7 L488.4,180.3 L489.1,177.9 L489.3,177.1 L489.6,176.4 L491.0,173.4 L492.0,172.6 L492.1,172.1 L492.2,171.2 L492.3,170.6 L492.3,170.4 L492.6,171.1 L492.9,171.3 L493.9,172.4 L494.1,172.9 L494.1,173.2 L494.3,173.2 L494.3,173.0 L494.4,172.7 L494.7,171.1 L495.1,169.7 L496.2,166.1 L496.8,164.8 L498.1,163.4 L498.9,162.4 L499.0,162.1 L499.2,162.4 L499.5,163.0 L500.6,162.5 L501.5,161.6 L502.7,159.3 L503.4,158.3 L503.9,157.5 L504.3,156.7 L504.7,155.3 L506.3,153.2 L507.3,151.4 L508.7,149.1 L509.0,148.5 L510.0,147.5 L510.9,146.9 L512.9,143.6 L513.7,142.8 L514.6,142.1 L514.8,141.8 L515.2,141.1 L515.8,139.9 L517.0,138.8 L517.4,138.4 L517.6,138.0 L519.1,135.0 L519.4,134.6 L520.5,133.6 L521.2,133.0 L521.6,133.5 L522.0,133.4 L523.6,130.4 L524.1,130.8 L524.9,131.2 L525.3,131.0 L527.2,128.9 L527.7,128.6 L528.4,128.4 L531.7,127.5 L531.9,127.3 L532.0,127.3 L532.1,127.3 L532.2,127.2 L532.5,127.1 L533.3,127.9 L533.4,128.0 L533.7,128.1 L534.3,128.0 L534.7,128.1 L535.0,128.3 L535.1,128.3 L535.5,128.3 L536.3,128.6 L536.5,128.8 L537.6,130.0 L537.7,130.1 L537.8,130.2 L538.1,130.5 L538.3,130.7 L541.8,132.0 L542.4,132.2 L542.6,132.0 L543.4,131.1 L544.2,130.7 L544.6,130.8 L544.8,130.9 L546.0,131.6 L546.5,132.1 L547.4,133.1 L547.9,133.4 L549.2,134.9 L550.6,134.4 L550.9,134.2 L551.3,134.1 L551.9,133.7 L552.1,133.7 L552.7,133.5 L553.7,132.8 L554.0,132.6 L554.4,132.4 L554.7,132.1 L555.1,131.7 L556.0,131.5 L556.3,131.4 L556.5,131.1 L556.8,131.0 L557.1,131.2 L558.5,132.0 L560.3,131.5 L560.5,131.4 L561.1,131.4 L561.6,131.4 L562.6,130.9 L563.3,130.4 L563.8,130.5 L564.4,130.2 L565.1,129.9 L565.8,129.6 L566.8,130.2 L567.3,130.4 L567.7,131.1 L567.9,131.3 L568.7,132.1 L570.1,132.7 L570.7,133.0 L570.9,133.0 L571.2,133.4 L571.6,133.7 L572.1,133.9 L572.5,134.1 L572.7,134.2 L573.2,133.9 L574.4,135.4 L578.0,138.9 L578.3,138.9 L579.0,139.6 L579.7,141.1 L579.8,141.3 L580.6,142.5 L580.9,142.9 L581.2,143.2 L581.5,143.6 L581.8,143.9 L582.2,144.4 L582.3,144.5 L582.8,145.6 L585.3,149.8 L585.8,150.5 L586.2,151.0 L587.2,151.5 L587.6,151.7 L588.2,152.5 L588.5,152.3 L589.0,151.9 L589.5,152.9 L590.0,154.0 L590.3,154.3 L590.5,154.3 L591.0,154.6 L592.0,152.1 L592.5,153.3 L593.5,151.0 L593.8,151.7 L594.0,153.1 L594.3,154.3 L594.8,155.7 L595.2,157.1 L595.8,158.4 L596.9,160.8 L597.8,159.0 L598.3,160.3 L598.6,160.1 L599.1,160.1 L601.8,163.5 L602.1,163.6 L604.5,168.1 L604.7,168.5 L605.0,168.4 L605.8,167.0 L606.1,167.8 L606.2,168.4 L606.3,169.5 L606.4,170.0 L606.6,170.9 L608.3,172.3 L610.5,171.8 L611.1,172.0 L614.2,174.2 L614.7,176.0 L615.7,178.7 L616.1,178.5 L616.4,178.3 L616.9,177.6 L617.1,177.6 L617.3,177.5 L617.5,177.8 L617.7,178.5 L618.0,179.7 L618.4,181.1 L618.6,182.2 L618.8,182.7 L619.7,184.5 L621.9,186.6 L622.8,186.7 L623.6,185.2 L623.9,185.1 L624.1,185.6 L624.2,185.8 L624.3,186.1 L624.5,186.3 L624.6,186.6 L624.7,186.7 L624.9,186.9 L627.4,189.6 L627.8,190.4 L628.1,190.4 L628.6,191.5 L629.1,192.8 L629.6,193.2 L630.5,193.7 L631.0,194.9 L631.4,195.8 L632.2,195.5 L633.5,197.1 L634.0,196.8 L634.2,196.8 L634.9,196.6 L635.2,196.7 L635.7,197.5 L635.9,197.9 L636.6,199.4 L637.0,199.6 L637.7,199.6 L637.9,199.9 L638.2,200.4 L641.2,202.6 L641.8,202.9 L642.2,202.9 L644.0,203.4 L644.3,203.9 L644.8,204.0 L645.8,204.3 L646.0,204.4 L646.2,204.5 L646.6,204.7 L647.0,204.6 L647.2,204.4 L647.7,204.2 L648.5,204.0 L648.7,203.6 L649.0,203.6 L649.5,204.3 L649.6,204.4 L649.9,204.4 L652.3,206.7 L652.4,207.0 L652.7,207.6 L653.0,207.6 L653.2,207.8 L654.4,206.9 L654.8,206.6 L655.2,206.8 L655.7,206.3 L656.7,208.8 L657.3,209.6 L657.8,209.6 L658.2,209.4 L658.6,210.0 L659.6,210.2 L660.1,210.6 L660.4,211.2 L660.5,211.5 L660.6,211.6 L661.2,212.5 L661.8,213.0 L662.0,213.1 L662.8,212.9 L663.1,212.7 L664.6,213.4 L666.0,214.5 L666.3,214.6 L666.5,214.5 L667.2,214.6 L667.3,214.6 L667.5,214.6 L667.8,214.5 L668.5,214.7 L669.0,215.1 L671.2,214.3 L672.0,214.7 L672.7,215.3 L673.3,215.7 L673.6,215.3 L673.8,215.1 L674.1,214.4 L674.7,214.1 L675.2,214.8 L675.7,215.2 L676.5,215.4 L676.8,215.5 L676.8,215.6 L676.9,215.7 L677.2,215.7 L677.4,215.5 L677.5,215.5 L677.6,215.5 L677.6,215.6 L678.0,215.7 L678.1,215.7 L678.8,215.5 L680.0,215.4 L680.8,215.3 L681.0,215.3 L681.0,215.3 L682.3,214.6 L683.0,213.6 L683.4,212.9 L684.3,212.5 L685.0,212.8 L685.8,211.2 L686.2,210.6 L686.5,210.1 L686.8,209.7 L687.1,209.7 L687.7,208.7 L688.0,208.0 L688.6,207.0 L688.9,206.9 L689.8,206.5 L692.3,203.5 L693.3,202.5 L693.8,201.9 L694.1,201.2 L694.4,200.4 L694.7,199.6 L695.9,200.1 L699.4,196.4 L699.6,195.5 L700.0,194.4 L700.4,192.8 L700.7,191.6 L701.0,190.9 L702.2,191.1 L702.5,191.0 L702.6,190.4 L702.8,190.1 L702.9,190.0 L703.1,190.3 L703.3,191.0 L703.9,193.1 L704.1,193.2 L704.2,193.3 L704.4,193.6 L704.7,192.8 L705.5,190.2 L706.1,190.0 L706.4,190.1 L707.0,189.4 L707.8,190.4 L708.2,189.7 L708.4,188.9 L708.7,187.9 L709.3,185.4 L709.4,185.1 L709.5,185.0 L709.7,185.2 L709.8,185.7 L710.0,186.8 L710.2,187.6 L710.4,188.0 L711.7,185.7 L712.1,185.2 L712.6,185.0 L714.6,181.9 L714.9,182.2 L715.5,182.6 L715.9,181.8 L717.7,178.2 L717.9,177.9 L718.0,177.8 L718.3,177.4 L718.5,176.7 L718.6,176.4 L718.8,176.2 L719.0,176.3 L719.2,176.5 L720.4,177.8 L720.7,177.9 L721.0,178.3 L721.3,178.3 L721.8,177.6 L723.1,175.0 L724.8,172.2 L725.0,172.3 L725.7,174.5 L726.1,174.4 L726.5,175.0 L727.0,175.8 L727.5,175.1 L727.9,174.1 L728.5,173.8 L729.0,173.7 L729.5,173.0 L729.9,172.6 L730.4,172.0 L731.2,170.4 L733.2,168.4 L734.0,167.7 L734.3,167.3 L734.5,166.9 L734.7,166.5 L734.9,166.2 L735.1,166.0 L735.3,165.6 L735.5,165.0 L735.8,164.0 L736.1,163.2 L736.5,162.1 L736.8,161.5 L737.9,162.9 L738.1,163.2 L738.3,163.3 L738.5,163.2 L739.0,162.7 L739.5,161.9 L740.0,162.1 L740.9,162.4 L741.2,162.2 L741.6,161.8 L742.0,162.5 L742.5,163.2 L742.9,162.3 L743.3,161.5 L743.5,161.0 L744.8,159.0 L745.0,158.8 L745.5,158.9 L745.9,158.2 L746.4,157.8 L746.9,157.8 L747.5,157.2 L748.2,156.7 L749.2,155.9 L752.0,153.7 L755.4,149.6 L755.9,149.9 L756.2,149.4 L756.5,149.5 L756.9,150.3 L757.8,149.0 L758.0,148.0 L758.4,146.9 L759.1,148.7 L759.3,148.8 L759.9,147.5 L760.2,146.9 L760.4,146.4 L760.6,146.0 L760.7,145.5 L761.1,145.1 L761.3,145.0 L761.5,145.0 L762.0,145.7 L762.2,145.9 L762.3,146.3 L762.5,146.6 L762.6,146.8 L762.8,146.7 L763.5,145.5 L764.6,145.2 L765.0,145.7 L765.4,145.2 L765.8,145.2 L766.4,145.0 L766.8,144.3 L767.3,144.2 L767.6,143.7 L767.9,142.9 L768.5,141.7 L769.4,142.2 L769.5,142.3 L770.0,142.9 L770.9,142.4 L771.0,142.4 L771.8,141.0 L772.0,140.5 L772.2,140.3 L772.2,140.3 L772.4,140.1 L772.6,140.1 L772.8,140.2 L773.0,140.5 L773.1,140.8 L773.2,140.9 L773.4,141.0 L774.4,140.1 L774.8,140.3 L775.2,140.7 L775.7,141.0 L775.9,141.2 L776.3,141.6 L776.5,142.1 L778.6,145.6 L779.7,146.4 L780.3,146.1 L781.5,148.5 L783.6,150.1 L784.0,150.8 L784.5,151.2 L785.0,151.2 L785.4,151.6 L786.1,152.4 L786.8,153.1 L787.6,152.6 L788.0,153.0 L788.5,152.6 L788.7,152.2 L788.9,152.1 L789.1,152.0 L789.3,152.3 L789.6,152.6 L789.8,152.6 L789.9,152.4 L790.2,152.4 L790.5,152.6 L790.9,152.4 L791.5,151.1 L792.0,150.6 L792.3,150.3 L792.7,150.0 L793.3,149.3 L794.0,149.5 L794.5,150.9 L795.1,150.1 L795.6,148.3 L796.1,147.7 L796.5,146.9 L797.5,146.3 L798.1,145.1 L798.4,145.0 L798.9,144.9 L799.4,144.9 L799.7,144.4 L801.4,142.0 L802.1,142.0 L802.5,141.6 L802.8,140.7 L803.7,139.4 L804.3,139.0 L806.7,137.4 L807.2,136.6 L807.5,137.3 L807.7,138.2 L807.9,138.1 L808.2,138.0 L808.5,138.2 L809.0,137.3 L809.6,136.9 L811.4,135.9 L812.4,134.7 L813.1,134.2 L813.3,134.1 L813.7,134.2 L814.6,134.5 L814.9,134.1 L815.2,133.3 L815.5,132.1 L815.6,131.7 L816.0,131.4 L816.3,131.5 L816.5,131.4 L816.8,131.0 L817.4,130.9 L818.3,131.5 L818.6,131.6 L819.8,129.8 L820.5,130.5 L821.1,130.4 L821.7,129.5 L822.5,129.3 L823.1,129.9 L824.2,130.6 L824.7,130.8 L825.1,130.8 L825.5,130.5 L826.6,130.5 L829.0,128.9 L829.6,129.3 L830.1,130.2 L830.3,130.1 L830.6,130.1 L830.9,129.9 L831.0,129.9 L831.3,130.0 L831.5,130.2 L831.7,130.7 L831.9,131.0 L832.9,130.9 L833.2,130.9 L835.0,131.7 L835.2,131.8 L835.4,132.4 L836.7,135.9 L837.0,135.8 L837.2,135.9 L838.1,138.2 L840.0,139.5 L840.5,141.1 L840.7,141.8 L841.6,144.5 L841.8,144.8 L842.1,144.8 L842.3,144.9 L842.7,145.5 L843.2,146.0 L843.5,146.0 L843.9,146.2 L845.0,146.9 L845.5,147.4 L846.0,148.4 L846.7,149.2 L846.9,148.5 L847.2,148.9 L847.8,151.6 L848.6,153.3 L851.4,156.4 L853.0,158.3 L853.2,158.5 L853.4,158.8 L853.5,159.1 L853.6,159.3 L853.7,159.4 L853.9,159.5 L854.3,159.2 L854.4,159.1 L854.8,159.0 L855.0,158.9 L855.2,159.2 L855.4,159.4 L855.6,160.2 L855.8,161.3 L856.6,163.4 L856.9,163.8 L858.2,165.1 L858.7,165.4 L858.9,165.7 L859.4,166.4 L859.6,167.1 L859.9,168.2 L860.1,168.7 L860.2,168.9 L860.4,168.9 L861.1,168.3 L861.4,168.5 L861.6,168.9 L861.8,169.3 L861.9,169.7 L862.6,171.7 L863.0,172.4 L863.2,172.8 L863.4,173.1 L864.6,174.8 L865.0,175.4 L865.3,175.4 L865.5,175.6 L865.8,176.0 L866.2,176.3 L867.8,179.0 L868.0,180.2 L868.2,180.3 L868.3,180.0 L869.4,178.7 L869.8,179.5 L870.0,180.4 L870.2,181.1 L870.4,181.9 L870.7,182.2 L871.0,182.6 L871.4,183.8 L871.5,184.1 L873.0,186.8 L873.5,186.7 L873.9,188.3 L874.2,189.6 L874.6,190.5 L875.0,190.0 L875.9,192.7 L876.0,192.7 L876.2,192.2 L876.5,191.3 L876.7,191.5 L876.8,191.9 L876.9,192.3 L877.2,192.3 L877.5,191.9 L878.1,191.7 L878.6,189.7 L879.0,188.9 L879.2,189.4 L879.4,189.9 L879.7,191.5 L880.0,192.3 L880.8,192.6 L881.3,193.5 L881.5,193.7 L882.2,193.7 L882.4,193.2 L882.5,192.9 L882.6,192.9 L882.8,193.3 L883.0,194.4 L883.2,194.8 L883.4,194.7 L883.6,194.3 L883.8,193.4 L884.9,195.1 L885.0,195.6 L885.6,194.3 L885.7,194.3 L885.9,194.5 L886.0,194.6 L886.1,194.7 L886.5,195.3 L886.7,195.6 L887.0,195.4 L887.4,195.4 L887.5,195.5 L887.8,195.7 L888.1,196.1 L889.3,195.8 L890.2,194.5 L890.7,193.9 L891.0,194.1 L891.6,195.2 L892.8,194.8 L893.2,194.3 L893.4,194.3 L893.8,193.4 L894.3,191.1 L894.4,191.2 L894.5,191.7 L894.7,192.4 L894.9,193.4 L895.4,195.5 L895.7,195.9 L896.4,197.7 L897.1,199.7 L897.4,200.5 L898.0,201.0 L898.9,203.1 L899.3,204.1 L900.6,205.6 L900.9,206.0 L901.2,206.8 L902.0,206.9 L902.2,206.8 L902.7,208.5 L903.2,209.1 L903.6,209.2 L904.0,209.7 L904.3,208.8 L904.5,207.8 L905.6,208.9 L905.9,209.4 L906.4,209.4 L907.1,209.7 L907.5,209.6 L907.8,208.7 L908.3,207.9 L908.8,207.9 L909.3,208.1 L909.7,209.1 L910.0,210.0 L910.4,209.7 L910.6,209.7 L910.8,210.2 L911.3,210.3 L911.6,209.5 L912.0,208.2 L912.6,207.0 L913.1,206.9 L914.0,205.0 L914.3,204.4 L915.1,205.8 L915.4,206.6 L915.8,207.8 L916.0,208.8 L916.8,210.9 L917.6,211.8 L917.8,211.7 L918.3,212.5 L918.7,214.0 L919.2,214.5 L920.0,212.4 L920.3,211.7 L920.9,211.9 L921.8,212.0 L922.5,215.3 L923.1,214.7 L923.5,213.6 L923.8,213.2 L924.4,213.3 L924.9,214.2 L925.3,215.6 L926.4,216.1 L927.6,214.9 L928.5,213.4 L929.0,213.2 L929.2,213.5 L930.4,215.4 L930.8,216.3 L931.1,217.0 L931.3,217.5 L931.5,217.8 L931.7,218.0 L932.5,218.9 L933.1,217.8 L933.4,217.3 L933.6,217.3 L934.2,218.2 L935.0,219.4 L935.6,218.3 L935.9,218.6 L936.4,220.1 L936.7,221.1 L937.2,223.2 L937.4,223.6 L937.5,223.9 L937.6,224.3 L937.8,224.7 L938.0,224.9 L938.3,225.0 L938.8,222.4 L939.0,221.5 L939.5,224.8 L940.1,226.3 L940.2,226.5 L940.5,227.2 L940.9,227.7 L941.1,227.7 L941.2,227.7 L941.4,227.4 L941.6,226.5 L941.8,225.9 L942.6,224.0 L943.0,223.9 L943.7,225.3 L944.1,225.7 L944.5,225.9 L945.6,226.1 L946.0,225.8 L946.9,226.7 L947.2,227.2 L947.5,228.0 L947.7,228.5 L947.9,228.4 L949.1,228.3 L949.6,229.1 L950.5,227.0 L952.9,230.8 L953.2,230.8 L953.5,230.7 L954.0,230.1 L954.6,230.2 L957.4,230.4 L958.1,230.2 L959.6,231.2 L960.0,231.6 L962.8,231.2 L963.3,231.7 L964.5,234.6 L966.2,235.5 L967.2,236.4 L967.8,236.5 L971.4,237.1 L973.1,236.3 L974.9,236.2 L975.4,237.1 L975.8,237.2 L977.9,236.2 L978.2,235.7 L978.6,235.6 L979.0,236.2 L980.0,236.3 L980.4,237.2 L980.7,239.5 L981.2,241.5 L982.0,242.8 L982.5,243.0 L982.9,243.0 L983.3,243.2 L983.5,243.3 L984.6,244.1 L984.7,244.2 L984.9,244.6 L985.8,244.4 L985.8,244.3 L986.1,243.9 L986.5,243.2 L986.8,243.1 L987.1,243.5 L987.5,244.0 L988.5,244.3 L989.3,244.0 L990.3,245.3 L990.4,245.0 L990.6,244.8 L990.9,244.9 L991.3,245.5 L991.7,245.0 L992.5,245.3 L992.8,245.2 L993.4,245.6 L993.6,246.3 L994.4,246.2 L994.7,245.6 L995.5,245.2 L996.1,246.6 L996.4,246.7 L996.7,247.0 L996.9,246.8 L997.1,247.5 L997.1,247.7 L997.5,248.2 L997.8,248.3 L998.3,247.0 L998.5,246.6 L999.2,245.9 L999.5,245.4 L1000.4,243.1 L1001.1,244.6 L1002.3,245.5 L1002.7,244.8 L1003.2,245.2 L1003.7,245.2 L1004.6,244.8 L1005.0,244.7 L1005.7,244.9 L1005.9,246.0 L1006.3,246.9 L1006.8,246.6 L1007.6,246.4 L1008.7,247.2 L1009.3,246.2 L1009.9,247.4 L1010.6,245.8 L1010.8,245.0 L1011.0,245.0 L1011.2,244.8 L1011.3,244.7 L1012.1,243.6 L1013.3,245.1 L1013.9,244.9 L1014.5,244.4 L1015.5,244.5 L1015.8,244.6 L1016.7,245.2 L1017.0,245.6 L1017.3,246.9 L1017.5,247.6 L1018.3,247.7 L1018.9,248.5 L1019.5,248.5 L1020.2,248.9 L1020.8,248.6 L1022.7,249.5 L1023.1,249.9 L1023.6,248.9 L1024.3,247.9 L1024.9,250.4 L1025.4,251.5 L1025.8,250.1 L1027.5,247.3 L1027.7,247.7 L1028.2,249.8 L1028.4,249.7 L1028.7,249.2 L1028.9,248.9 L1029.2,249.1 L1029.9,250.2 L1030.2,251.1 L1030.5,252.5 L1030.8,252.5 L1031.1,251.9 L1031.5,251.6 L1032.1,250.4 L1032.7,250.5 L1034.0,252.5 L1034.6,251.4 L1035.1,251.6 L1035.9,253.4 L1036.2,253.4 L1036.5,253.4 L1036.8,253.0 L1037.0,252.6 L1037.7,253.9 L1038.4,255.4 L1039.2,254.0 L1039.3,253.6 L1039.5,253.4 L1040.0,253.4 L1040.2,253.1 L1040.4,253.1 L1040.7,253.6 L1041.0,253.8 L1041.5,253.7 L1043.3,254.9 L1043.8,254.6 L1044.0,254.8 L1044.3,255.7 L1044.9,256.7 L1046.3,257.0 L1047.9,257.1 L1048.5,257.1 L1049.1,256.8 L1049.7,257.5 L1049.9,258.0 L1050.1,258.8 L1050.3,260.3 L1050.5,261.0 L1050.7,261.0 L1050.9,260.8 L1051.1,260.5 L1051.3,259.9 L1051.6,258.3 L1052.1,259.3 L1052.9,260.0 L1054.9,261.9 L1055.5,261.9 L1056.4,262.3 L1057.1,263.1 L1057.7,263.4 L1059.9,265.8 L1060.5,266.2 L1060.8,266.1 L1062.4,263.2 L1063.2,264.2 L1064.3,265.9 L1064.5,266.3 L1065.0,266.6 L1065.6,266.6 L1065.9,266.4 L1066.2,266.1 L1066.4,266.2 L1067.1,268.2 L1067.3,268.1 L1068.1,265.6 L1068.3,265.4 L1068.5,265.9 L1068.9,267.4 L1070.2,269.7 L1070.6,270.2 L1070.9,270.6 L1071.2,270.9 L1071.5,271.3 L1071.7,271.1 L1072.0,270.4 L1073.7,268.5 L1074.0,269.2 L1074.3,269.5 L1074.9,269.5 L1075.7,271.7 L1076.3,272.3 L1076.8,273.0 L1077.0,273.1 L1077.2,273.0 L1077.7,273.3 L1078.0,273.7 L1078.3,274.0 L1078.5,274.1 L1078.7,274.1 L1079.2,274.0 L1079.4,274.1 L1079.7,274.0 L1080.0,273.7 L1080.5,273.9 L1080.8,273.9 L1081.1,273.9 L1081.4,273.5 L1081.7,272.9 L1082.9,275.2 L1083.7,275.5 L1084.1,274.4 L1084.7,272.4 L1085.5,272.4 L1085.8,272.8 L1086.2,272.9 L1086.9,273.7 L1087.3,273.5 L1087.7,274.0 L1088.5,274.8 L1089.7,275.2 L1090.0,275.7 L1090.5,274.7 L1090.7,274.5 L1091.0,274.4 L1091.6,275.1 L1092.2,275.0 L1092.4,275.3 L1092.7,275.8 L1093.2,276.7 L1094.2,273.1 L1094.6,273.1 L1095.0,273.6 L1095.6,271.9 L1095.8,272.1 L1097.4,274.4 L1097.6,274.8 L1098.3,277.4 L1098.4,277.7 L1098.5,277.9 L1098.7,277.7 L1098.8,277.7 L1099.2,277.4 L1099.3,277.3 L1099.5,276.9 L1099.6,276.5 L1100.0,275.7 L1100.8,276.3 L1101.3,277.0 L1101.6,277.8 L1101.9,278.2 L1102.3,277.6 L1102.5,276.5 L1102.8,276.5 L1103.4,277.9 L1103.8,278.2 L1104.0,277.8 L1104.2,278.0 L1104.6,278.4 L1104.8,278.2 L1105.3,278.2 L1106.6,276.8 L1107.1,276.8 L1107.7,276.9 L1108.5,279.9 L1109.0,280.7 L1109.2,280.9 L1109.3,281.0 L1109.4,281.1 L1109.5,281.1 L1109.7,280.9 L1110.2,281.3 L1110.7,280.5 L1111.5,281.1 L1111.8,281.3 L1112.7,281.7 L1114.2,282.1 L1114.7,282.6 L1115.3,282.7 L1116.3,282.3 L1116.7,282.6 L1117.0,282.3 L1118.1,283.2 L1120.0,284.1 L1120.8,285.1 L1122.0,285.7 L1122.6,284.8 L1123.0,284.5 L1123.5,284.7 L1124.2,285.2 L1125.6,287.5 L1127.2,288.0 L1127.3,288.1 L1127.4,288.5 L1127.7,288.3 L1128.0,287.9 L1128.7,287.6 L1128.9,287.4 L1129.1,286.9 L1129.2,286.8 L1129.4,286.9 L1129.5,287.4 L1129.6,287.7 L1129.8,288.3 L1130.3,287.8 L1130.4,287.1 L1130.8,286.8 L1130.9,286.6 L1131.3,286.3 L1131.5,286.3 L1131.7,286.2 L1131.9,286.1 L1132.0,285.9 L1132.2,285.2 L1132.8,284.0 L1132.9,283.8 L1133.2,283.5 L1133.3,283.5 L1133.4,283.6 L1133.5,283.8 L1133.7,283.7 L1133.8,283.6 L1133.9,283.2 L1134.5,283.2 L1135.5,280.8 L1136.0,280.9 L1136.3,281.1 L1136.5,281.3 L1136.8,283.8 L1137.2,285.0 L1137.7,283.8 L1138.0,283.9 L1138.3,283.9 L1138.4,284.0 L1138.6,283.7 L1139.2,280.5 L1139.5,280.3 L1140.4,279.8 L1140.9,279.3 L1141.4,278.6 L1141.8,277.8 L1142.1,277.4 L1143.0,277.3 L1143.1,277.0 L1143.3,276.8 L1143.6,276.4 L1143.9,276.7 L1144.0,276.9 L1144.3,276.9 L1144.4,276.5 L1144.5,276.4 L1145.1,275.3 L1145.7,274.2 L1145.8,273.8 L1146.1,273.0 L1146.3,272.6 L1147.3,269.7 L1147.5,269.4 L1148.0,270.0 L1148.4,269.2 L1148.5,269.2 L1148.8,270.2 L1149.4,269.4 L1149.5,269.2 L1149.8,269.8 L1149.9,269.7 L1150.8,267.6 L1151.2,267.4 L1151.4,267.3 L1152.1,266.9 L1152.2,266.6 L1152.4,266.2 L1152.7,265.2 L1153.1,265.3 L1153.7,264.7 L1153.9,264.0 L1154.1,262.8 L1154.3,262.2 L1154.5,262.3 L1154.8,262.7 L1154.9,262.6 L1155.5,261.1 L1156.3,260.4 L1156.5,260.3 L1156.6,260.1 L1156.9,259.7 L1157.3,259.4 L1157.5,259.1 L1157.8,258.4 L1158.0,257.8 L1158.4,256.9 L1158.5,256.8 L1158.8,257.5 L1158.9,257.7 L1159.1,257.5 L1159.3,256.8 L1159.5,256.7 L1159.9,256.5 L1160.1,257.2 L1160.4,257.3 L1160.8,256.9 L1161.3,257.5 L1161.6,257.4 L1161.9,258.0 L1163.5,256.3 L1163.7,256.0 L1164.0,254.4 L1164.2,253.5 L1164.4,252.1 L1164.6,251.1 L1164.8,251.1 L1165.5,254.7 L1165.7,255.7 L1166.1,256.1 L1166.8,255.5 L1167.2,255.4 L1167.6,255.3 L1167.9,254.7 L1168.0,254.2 L1168.2,253.4 L1168.9,248.0 L1169.0,247.4 L1169.1,247.0 L1169.3,247.2 L1169.9,248.3 L1170.1,247.3 L1170.3,245.5 L1170.5,245.1 L1170.7,245.3 L1170.9,245.7 L1171.2,246.6 L1171.3,246.8 L1171.5,246.8 L1171.7,246.2 L1172.0,244.0 L1172.7,243.1 L1173.6,242.2 L1174.3,242.0 L1175.1,236.6 L1175.2,236.1 L1175.3,235.8 L1175.4,236.2 L1175.7,238.6 L1176.2,242.4 L1176.7,243.0 L1176.9,241.9 L1177.4,236.7 L1178.3,236.5 L1178.6,235.2 L1179.1,233.6 L1179.3,233.4 L1179.9,232.0 L1180.0,231.8 L1180.1,231.6 L1180.2,231.5 L1180.3,231.8 L1181.5,233.3 L1182.1,234.0 L1182.2,234.4 L1182.3,234.4 L1182.4,234.1 L1182.7,233.0 L1183.1,230.2 L1183.8,226.9 L1183.9,227.3 L1184.2,229.4 L1184.3,229.9 L1184.5,229.6 L1184.6,228.6 L1184.9,227.0 L1185.4,224.6 L1185.5,224.4 L1185.6,224.5 L1185.7,225.1 L1186.2,226.0 L1186.3,226.0 L1186.5,226.2 L1186.6,226.4 L1187.4,226.3 L1187.8,225.8 L1188.0,225.8 L1188.2,226.0 L1188.4,226.1 L1189.0,223.2 L1189.5,220.4 L1190.1,218.7 L1190.3,218.4 L1191.1,214.9 L1191.3,214.8 L1191.4,215.2 L1191.6,216.1 L1192.1,218.4 L1192.3,218.9 L1192.4,218.7 L1192.6,217.8 L1193.2,214.6 L1193.3,214.2 L1193.5,214.7 L1193.7,215.8 L1194.0,217.1 L1194.3,216.6 L1194.5,215.9 L1194.7,214.7 L1195.0,213.2 L1195.1,213.2 L1196.1,213.2 L1196.6,211.6 L1196.8,211.4 L1196.9,211.3 L1197.1,211.4 L1197.2,211.7 L1197.3,211.9 L1197.6,212.8 L1197.8,212.7 L1197.9,212.4 L1198.1,211.4 L1198.1,211.0 L1198.2,210.8 L1198.4,210.7 L1198.6,210.9 L1198.9,210.7 L1199.4,209.2 L1199.6,208.9 L1199.7,208.7 L1199.9,208.8 L1201.6,208.0 L1202.1,208.5 L1202.4,209.0 L1202.9,208.1 L1203.2,207.4 L1203.3,206.2 L1203.6,205.1 L1203.9,205.0 L1204.1,205.9 L1204.3,206.5 L1204.5,206.5 L1204.6,206.3 L1204.9,204.8 L1205.0,203.9 L1205.2,203.3 L1205.3,202.8 L1205.4,202.5 L1205.5,202.4 L1205.9,203.2 L1207.0,200.9 L1207.8,197.5 L1207.9,197.4 L1208.1,197.9 L1208.9,200.1 L1209.0,200.4 L1209.2,200.9 L1209.3,201.1 L1209.5,201.0 L1209.9,199.7 L1211.4,197.8 L1211.6,197.7 L1211.9,197.2 L1212.3,196.6 L1212.5,196.4 L1213.4,196.8 L1213.7,196.8 L1214.0,196.8 L1214.4,196.7 L1215.2,193.4 L1215.4,192.9 L1215.8,192.5 L1216.0,192.2 L1216.1,191.9 L1216.4,191.6 L1216.6,191.6 L1217.1,192.2 L1217.5,192.7 L1218.2,193.0 L1218.8,194.6 L1219.4,196.0 L1219.6,196.5 L1219.9,196.9 L1220.5,196.8 L1220.7,196.7 L1220.8,196.7 L1220.9,197.0 L1221.1,197.5 L1221.4,199.3 L1221.8,200.3 L1222.7,201.0 L1222.9,201.3 L1223.2,201.6 L1223.3,201.8 L1223.5,202.1 L1223.8,202.5 L1223.9,202.6 L1224.3,202.8 L1224.4,202.9 L1224.5,202.9 L1224.7,203.1 L1224.8,203.2 L1225.2,203.8 L1225.7,203.6 L1225.8,203.5 L1226.0,203.5 L1226.1,203.5 L1226.4,204.4 L1226.6,204.6 L1226.8,204.7 L1227.0,204.9 L1227.4,205.4 L1227.7,205.5 L1228.0,206.8 L1228.4,207.2 L1228.7,207.5 L1229.1,208.2 L1229.3,208.6 L1229.5,209.5 L1229.8,211.2 L1230.8,213.7 L1231.5,215.3 L1231.7,215.6 L1231.9,215.6 L1232.1,215.7 L1232.3,215.7 L1232.7,216.1 L1233.4,215.6 L1233.6,215.8 L1234.3,217.1 L1234.5,217.7 L1234.9,218.9 L1235.3,220.1 L1235.9,220.4 L1236.1,220.6 L1236.7,222.7 L1236.8,223.1 L1237.2,223.8 L1237.9,225.9 L1238.1,226.5 L1238.4,227.2 L1238.8,228.4 L1239.0,228.6 L1239.3,228.0 L1239.5,226.4 L1239.7,225.7 L1239.8,225.2 L1240.0,225.2 L1240.2,225.7 L1240.3,226.5 L1240.7,228.7 L1240.9,229.6 L1241.0,230.0 L1241.6,229.4 L1242.5,233.2 L1243.0,235.0 L1243.3,236.2 L1244.1,236.2 L1244.3,236.5 L1244.6,237.2 L1245.1,238.8 L1245.3,239.2 L1245.7,239.0 L1245.9,239.3 L1246.2,240.3 L1246.6,241.4 L1247.3,244.2 L1247.6,245.1 L1248.0,245.9 L1248.2,246.0 L1248.8,244.3 L1249.0,244.8 L1249.8,247.5 L1250.0,247.7 L1250.7,246.5 L1250.9,246.2 L1251.1,246.6 L1251.5,247.9 L1252.2,250.2 L1252.7,251.6 L1252.8,251.5 L1253.0,251.0 L1253.1,250.9 L1253.3,251.2 L1253.8,252.8 L1254.3,252.6 L1254.7,253.7 L1255.7,253.0 L1257.0,258.0 L1257.3,258.3 L1257.6,258.0 L1258.5,258.8 L1259.9,260.5 L1260.4,260.5 L1260.8,260.7 L1261.1,261.8 L1261.9,264.1 L1262.8,263.2 L1263.3,265.7 L1263.5,266.7 L1264.2,268.3 L1264.5,268.7 L1264.7,268.7 L1264.9,268.0 L1265.7,267.2 L1266.3,269.6 L1267.0,272.9 L1267.7,274.3 L1269.0,276.9 L1269.3,277.1 L1270.2,281.0 L1270.9,281.6 L1271.5,282.5 L1271.7,282.9 L1271.8,283.0 L1271.9,283.2 L1272.0,283.4 L1272.2,283.6 L1272.6,284.0 L1272.8,284.1 L1273.0,284.3 L1273.4,285.3 L1273.7,286.1 L1274.1,285.9 L1274.8,285.8 L1275.2,285.1 L1275.6,284.6 L1276.3,285.0 L1276.5,285.0 L1276.7,285.2 L1277.5,287.0 L1278.0,288.0 L1278.2,287.8 L1278.5,288.1 L1278.6,288.3 L1279.1,289.6 L1279.5,290.3 L1279.8,291.0 L1280.6,292.0 L1281.1,292.7 L1281.8,292.3 L1282.4,293.0 L1282.5,293.1 L1283.0,293.9 L1283.3,293.8 L1283.4,293.6 L1283.7,292.6 L1284.0,291.8 L1284.3,291.0 L1284.9,289.9 L1285.1,289.9 L1285.3,289.5 L1287.1,288.1 L1288.7,287.6 L1289.2,287.2 L1290.0,286.2 L1290.8,285.7 L1291.4,286.0 L1292.3,283.7 L1293.0,283.4 L1293.7,282.3 L1294.1,281.5 L1294.5,281.0 L1294.8,280.8 L1294.9,280.8 L1295.0,280.8 L1295.1,280.8 L1295.3,280.7 L1295.7,280.8 L1295.9,280.6 L1296.5,277.4 L1296.7,276.7 L1296.8,276.4 L1297.4,276.6 L1297.9,276.7 L1298.0,276.2 L1298.1,275.0 L1298.2,274.2 L1298.3,274.1 L1298.8,275.3 L1299.1,275.0 L1299.6,273.0 L1299.9,273.3 L1300.5,274.5 L1301.0,274.7 L1301.2,274.3 L1301.7,272.8 L1302.0,271.7 L1302.5,270.3 L1302.8,269.3 L1303.2,268.1 L1303.5,267.5 L1303.6,267.5 L1303.8,267.6 L1304.3,268.2 L1304.8,268.1 L1305.4,267.3 L1306.2,266.4 L1306.7,266.3 L1307.1,266.5 L1307.2,266.5 L1308.0,266.7 L1308.8,268.6 L1309.1,268.5 L1309.4,268.3 L1309.7,268.3 L1310.3,267.4 L1310.5,267.3 L1310.7,267.1 L1311.0,266.6 L1311.4,266.5 L1311.7,266.4 L1311.9,266.3 L1312.0,266.4 L1312.3,266.9 L1312.4,267.3 L1312.6,267.8 L1312.7,268.3 L1314.2,271.7 L1314.6,272.2 L1314.9,272.7 L1315.2,272.9 L1315.9,273.7 L1316.3,274.2 L1316.9,274.7 L1317.3,275.0 L1317.8,274.8 L1318.1,275.3 L1318.8,276.1 L1319.4,277.5 L1320.0,279.4 L1320.9,280.8 L1321.6,281.2 L1321.9,281.3 L1322.1,281.2 L1322.4,281.4 L1322.8,281.8 L1324.8,284.7 L1325.0,285.0 L1326.0,286.8 L1326.9,289.8 L1327.1,290.6 L1327.4,290.8 L1327.6,291.0 L1327.9,290.5 L1328.4,286.9 L1328.5,286.0 L1328.6,286.1 L1328.7,286.8 L1328.9,288.1 L1329.1,290.1 L1329.3,291.9 L1329.5,292.0 L1330.2,292.4 L1330.5,293.0 L1330.7,293.0 L1331.0,292.5 L1331.6,290.1 L1331.8,289.8 L1331.9,290.0 L1332.0,290.5 L1332.1,291.1 L1332.4,292.9 L1332.5,293.6 L1332.6,294.2 L1332.8,294.6 L1332.9,295.0 L1333.3,296.0 L1333.7,296.6 L1334.2,296.5 L1334.4,296.3 L1335.0,295.1 L1335.1,294.9 L1335.3,295.4 L1335.4,296.3 L1335.8,298.6 L1336.0,299.7 L1336.2,299.9 L1336.7,298.5 L1336.9,298.9 L1337.1,299.7 L1337.2,300.9 L1337.4,301.9 L1339.1,305.9 L1339.6,305.5 L1340.0,305.7 L1340.8,307.0 L1341.8,308.6 L1342.9,308.9 L1343.6,310.3 L1345.4,312.4 L1345.6,312.7 L1346.2,313.4 L1346.7,313.9 L1347.0,314.6 L1347.1,314.9 L1347.2,315.2 L1347.4,315.4 L1347.4,315.4 L1347.5,315.5 L1347.8,315.2 L1347.9,315.1 L1348.2,315.0 L1348.4,315.1 L1348.8,315.6 L1349.2,316.0 L1349.4,316.1 L1349.7,316.4 L1349.9,316.5 L1350.0,316.5 L1350.2,316.7 L1350.3,316.8 L1350.8,317.0 L1351.0,317.2 L1351.1,317.6 L1351.2,317.7 L1351.5,318.3 L1351.6,318.5 L1351.7,318.7 L1352.4,319.0 L1352.5,318.9 L1352.7,319.0 L1353.2,319.2 L1353.4,319.3 L1353.6,319.3 L1354.3,319.3 L1354.5,319.3 L1354.7,319.4 L1355.0,319.5 L1355.6,319.3 L1355.7,319.2 L1356.0,319.1 L1356.7,319.4 L1357.4,319.1 L1357.7,319.2 L1357.8,319.3 L1358.4,319.5 L1358.8,319.4 L1359.0,319.3 L1359.2,319.3 L1359.9,319.3 L1360.1,319.3 L1360.3,319.2 L1360.8,319.0 L1361.0,318.9 L1361.1,319.0 L1361.7,318.7 L1361.8,318.5 L1361.9,318.3 L1362.6,317.7 L1362.8,317.8 L1363.7,318.0 L1363.9,317.9 L1364.3,317.9 L1364.6,318.4 L1365.1,318.7 L1365.4,318.7 L1365.7,318.7 L1365.8,318.6 L1366.0,318.5 L1366.7,317.9 L1367.4,317.1 L1367.6,316.9 L1367.7,316.8 L1367.9,316.6 L1368.2,316.4 L1368.3,316.3 L1368.6,315.9 L1368.9,315.1 L1369.6,315.2 L1370.6,316.2 L1370.8,315.9 L1371.1,315.5 L1371.7,315.0 L1372.1,314.7 L1372.3,314.7 L1372.5,314.6 L1372.7,314.5 L1373.0,314.1 L1373.4,313.9 L1374.2,313.2 L1375.3,312.5 L1375.6,312.5 L1376.0,312.2 L1376.1,312.2 L1376.3,312.1 L1376.8,311.6 L1378.3,311.3 L1378.7,310.9 L1379.2,310.6 L1379.9,309.7 L1380.9,309.0 L1381.4,309.6 L1381.9,309.3 L1382.2,309.0 L1382.5,308.3 L1382.9,308.6 L1383.4,308.3 L1384.5,306.7 L1384.7,306.8 L1385.2,307.0 L1385.5,306.8 L1386.3,306.6 L1386.7,306.5 L1386.9,306.4 L1387.1,306.1 L1387.3,305.5 L1388.1,305.1 L1388.6,304.8 L1388.8,304.5 L1389.0,304.3 L1389.4,303.6 L1390.2,301.5 L1390.6,300.6 L1390.9,299.3 L1391.6,298.1 L1392.0,297.6 L1392.7,296.3 L1393.0,295.6 L1393.8,293.7 L1394.3,292.3 L1394.8,290.6 L1395.2,288.2 L1395.6,286.4 L1395.8,285.6 L1395.9,285.2 L1396.0,284.9 L1396.8,284.5 L1397.0,283.8 L1397.2,283.6 L1397.4,283.5 L1397.7,282.4 L1397.9,281.9 L1398.3,281.4 L1398.6,281.1 L1398.8,280.9 L1399.5,279.2 L1399.7,278.8 L1400.3,278.0 L1400.6,277.8 L1401.2,277.2 L1401.4,277.3 L1401.7,277.5 L1402.5,275.5 L1402.7,275.2 L1403.0,274.9 L1403.7,273.6 L1404.7,272.7 L1404.9,272.7 L1405.5,272.1 L1406.4,271.4 L1407.3,271.6 L1407.5,271.0 L1407.7,270.7 L1407.9,270.5 L1412.5,272.6 L1413.0,274.4 L1413.4,274.9 L1414.4,274.2 L1414.8,274.2 L1415.1,273.9 L1415.3,273.9 L1415.5,273.8 L1415.8,273.7 L1416.3,273.4 L1416.7,273.7 L1417.5,274.5 L1417.8,275.7 L1418.0,276.7" fill="transparent" id="track" stroke="black" stroke-width="2"/>
<g>
<circle cx="678.130" cy="215.698" id="wp-281/circle" r="4.000"/>
<text font-size="16.0" id="wp-281/text" text-anchor="start" x="680.130" y="232.698">
K3
</text>
<circle cx="335.305" cy="176.358" fill="Blue" id="wp-2/circle" r="3.000"/>
<text font-size="16.0" id="wp-5/text" text-anchor="start" x="337.305" y="173.358">
Freiersberg
</text>
<circle cx="830.083" cy="130.207" fill="Blue" id="wp-3/circle" r="3.000"/>
<text font-size="16.0" id="wp-6/text" text-anchor="start" x="832.083" y="127.207">
Seibelseckle
</text>
<circle cx="533.410" cy="128.032" fill="Blue" id="wp-4/circle" r="3.000"/>
<text font-size="16.0" id="wp-7/text" text-anchor="start" x="535.410" y="125.032">
Alexanderschanze
</text>
<circle cx="772.618" cy="140.078" fill="Blue" id="wp-5/circle" r="3.000"/>
<text font-size="16.0" id="wp-8/text" text-anchor="start" x="774.618" y="167.078">
Ruhestein
</text>
<circle cx="1307.218" cy="266.485" fill="Blue" id="wp-6/circle" r="3.000"/>
<text font-size="16.0" id="wp-9/text" text-anchor="start" x="1309.218" y="263.485">
Nachtigall
</text>
<circle cx="1216.357" cy="191.606" fill="Blue" id="wp-7/circle" r="3.000"/>
<text font-size="16.0" id="wp-10/text" text-anchor="start" x="1218.357" y="188.606">
Rote Lache
</text>
<circle cx="401.695" cy="264.334" fill="Gray" id="wp-8/circle" r="3.000"/>
<text font-size="16.0" id="wp-3/text" text-anchor="start" x="403.695" y="281.334">
Bad Peterstal
</text>
<circle cx="1127.394" cy="288.473" fill="Gray" id="wp-9/circle" r="3.000"/>
<text font-size="16.0" id="wp-4/text" text-anchor="start" x="1129.394" y="305.473">
Forbach
</text>
</g>
</g>
<g id="SL" transform="translate(0 0)">
<text text-anchor="end" x="0" y="363.5">
0
</text>
<text text-anchor="end" x="0" y="315.7">
200
</text>
<text text-anchor="end" x="0" y="267.9">
400
</text>
<text text-anchor="end" x="0" y="220.1">
600
</text>
<text text-anchor="end" x="0" y="172.3">
800
</text>
<text text-anchor="end" x="0" y="124.5">
1000
</text>
<text text-anchor="end" x="0" y="76.69999999999999">
1200
</text>
<text text-anchor="end" x="0" y="28.900000000000034">
1400
</text>
</g>
</g>
</svg>