<svg height="400" width="1420" xmlns="http://www.w3.org/2000/svg">
<g font-family="Libertinus Serif" font-size="15" id="world" shape-rendering="crispEdges">
<g id="BG"/>
<g id="SB" transform="translate(0 360)">
<text text-anchor="middle" x="-0.0931006001105743" y="14.5">
90
</text>
<text text-anchor="middle" x="283.7913818706013" y="14.5">
110
</text>
<text text-anchor="middle" x="567.6758643413132" y="14.5">
130
</text>
<text text-anchor="middle" x="851.560346812025" y="14.5">
150
</text>
<text text-anchor="middle" x="1135.4448292827371" y="14.5">
170
</text>
</g>
<g id="SD" transform="translate(0 0)">
<path d="M0,0 L0,358.5 L1418.5,358.5 L1418.5,0 L0,0" fill="lightgray" id="bg"/>
<path d="M0,0 L1418.5,0" stroke="black" stroke-width="3"/>
<path d="M0,0 L0,358.5" stroke="black" stroke-width="3"/>
<path d="M0,358.5 L1418.5,358.5" stroke="black" stroke-width="3"/>
<path d="M1418.5,0 L1418.5,358.5" stroke="black" stroke-width="3"/>
<path d="M-0.0931006,0 L-0.0931006,358.5" stroke="black" stroke-width="1"/>
<path d="M283.79138,0 L283.79138,358.5" stroke="black" stroke-width="1"/>
<path d="M567.67584,0 L567.67584,358.5" stroke="black" stroke-width="1"/>
<path d="M851.56036,0 L851.56036,358.5" stroke="black" stroke-width="1"/>
<path d="M1135.4448,0 L1135.4448,358.5" stroke="black" stroke-width="1"/>
<path d="M141.84914,0 L141.84914,358.5" stroke="black" stroke-dasharray="1.0,2.5,5.0,5.0,10.0,5.0"/>
<path d="M425.7336,0 L425.7336,358.5" stroke="black" stroke-dasharray="1.0,2.5,5.0,5.0,10.0,5.0"/>
<path d="M709.6181,0 L709.6181,358.5" stroke="black" stroke-dasharray="1.0,2.5,5.0,5.0,10.0,5.0"/>
<path d="M993.50256,0 L993.50256,358.5" stroke="black" stroke-dasharray="1.0,2.5,5.0,5.0,10.0,5.0"/>
<path d="M1277.3871,0 L1277.3871,358.5" stroke="black" stroke-dasharray="1.0,2.5,5.0,5.0,10.0,5.0"/>
<path d="M0,358.5 L1418.5,358.5" stroke="black" stroke-width="1"/>
<path d="M0,318.66666 L1418.5,318.66666" stroke="black" stroke-width="1"/>
<path d="M0,278.83334 L1418.5,278.83334" stroke="black" stroke-width="1"/>
<path d="M0,239 L1418.5,239" stroke="black" stroke-width="1"/>
<path d="M0,199.16667 L1418.5,199.16667" stroke="black" stroke-width="1"/>
<path d="M0,159.33333 L1418.5,159.33333" stroke="black" stroke-width="1"/>
<path d="M0,119.5 L1418.5,119.5" stroke="black" stroke-width="1"/>
<path d="M0,79.666664 L1418.5,79.666664" stroke="black" stroke-width="1"/>
<path d="M0,39.833332 L1418.5,39.833332" stroke="black" stroke-width="1"/>
<path d="M0,0 L1418.5,0" stroke="black" stroke-width="1"/>
<path d="M0,338.58334 L1418.5,338.58334" stroke="black" stroke-dasharray="1.0,2.5,5.0,5.0,10.0,5.0"/>
<path d="M0,298.75 L1418.5,298.75" stroke="black" stroke-dasharray="1.0,2.5,5.0,5.0,10.0,5.0"/>
<path d="M0,258.91666 L1418.5,258.91666" stroke="black" stroke-dasharray="1.0,2.5,5.0,5.0,10.0,5.0"/>
<path d="M0,219.08333 L1418.5,219.08333" stroke="black" stroke-dasharray="1.0,2.5,5.0,5.0,10.0,5.0"/>
<path d="M0,179.25 L1418.5,179.25" stroke="black" stroke-dasharray="1.0,2.5,5.0,5.0,10.0,5.0"/>
<path d="M0,139.41667 L1418.5,139.41667" stroke="black" stroke-dasharray="1.0,2.5,5.0,5.0,10.0,5.0"/>
<path d="M0,99.583336 L1418.5,99.583336" stroke="black" stroke-dasharray="1.0,2.5,5.0,5.0,10.0,5.0"/>
<path d="M0,59.75 L1418.5,59.75" stroke="black" stroke-dasharray="1.0,2.5,5.0,5.0,10.0,5.0"/>
<path d="M0,19.916666 L1418.5,19.916666" stroke="black" stroke-dasharray="1.0,2.5,5.0,5.0,10.0,5.0"/>
<path d="M0.0,150.3 L0.4,150.8 L0.8,151.5 L1.1,151.9 L2.1,156.2 L2.7,155.1 L3.2,153.2 L3.4,152.5 L4.1,153.9 L4.7,156.0 L5.0,157.5 L5.6,161.6 L5.8,163.2 L6.1,164.0 L6.4,164.4 L6.7,164.8 L8.1,170.7 L8.4,172.1 L10.3,175.2 L10.6,175.7 L10.8,175.2 L11.0,173.0 L11.7,168.5 L12.4,171.0 L12.6,172.7 L13.0,170.4 L13.3,171.2 L13.9,175.5 L14.7,183.0 L15.0,182.8 L15.5,181.0 L15.8,181.5 L16.2,180.9 L16.5,180.7 L17.6,187.3 L17.9,187.9 L18.3,191.5 L18.8,193.9 L19.2,196.5 L19.5,196.9 L20.1,199.7 L20.6,201.0 L21.2,204.4 L21.9,206.4 L23.3,209.3 L24.0,212.6 L24.4,213.0 L24.7,214.0 L25.2,218.9 L25.5,221.6 L25.8,222.3 L26.0,222.8 L26.3,223.2 L26.9,225.9 L27.8,225.4 L28.1,226.3 L28.5,227.4 L28.9,228.6 L29.9,229.4 L30.0,229.0 L30.2,229.0 L30.3,227.9 L30.5,227.4 L30.7,227.6 L30.9,229.9 L31.8,233.3 L32.7,236.6 L33.3,239.4 L33.7,239.6 L35.0,239.8 L36.2,243.7 L36.6,245.4 L37.8,249.2 L38.0,250.0 L38.2,250.5 L39.0,251.7 L39.9,253.0 L40.8,253.9 L41.2,256.2 L42.1,260.6 L42.4,260.5 L42.7,261.2 L43.4,265.8 L44.4,269.6 L44.5,269.7 L45.3,269.1 L46.3,271.2 L47.0,272.0 L47.7,272.7 L49.0,275.5 L49.8,278.8 L50.4,280.9 L50.8,281.9 L51.6,280.5 L52.4,275.6 L53.6,278.5 L54.7,279.0 L56.5,284.5 L56.9,284.6 L57.7,287.3 L58.1,289.0 L58.2,289.6 L58.7,291.5 L61.0,292.5 L62.8,296.5 L62.9,297.4 L63.4,302.1 L63.6,303.2 L64.7,304.5 L65.5,306.2 L65.6,306.4 L65.7,306.6 L65.8,306.7 L65.9,306.7 L66.6,305.6 L66.9,305.1 L67.2,305.4 L67.5,305.6 L67.8,305.6 L68.6,305.3 L70.2,308.2 L70.5,307.4 L70.9,306.5 L71.2,305.5 L71.9,303.5 L72.2,304.1 L72.6,305.4 L72.8,305.8 L73.3,305.3 L73.7,306.6 L74.4,309.8 L74.6,310.5 L74.9,311.1 L75.5,311.3 L75.8,311.5 L76.2,312.0 L77.2,313.2 L77.5,313.9 L78.4,313.8 L78.6,313.7 L78.8,313.7 L79.1,313.8 L79.4,313.2 L80.1,312.0 L80.7,312.3 L81.4,312.6 L81.7,313.5 L82.1,313.5 L82.5,312.3 L82.8,312.9 L83.4,312.9 L83.7,312.3 L84.4,311.0 L84.7,310.4 L86.2,305.4 L86.4,306.5 L87.3,311.4 L87.6,310.9 L87.8,310.8 L88.4,310.0 L89.5,309.1 L91.0,309.3 L92.0,308.3 L92.4,308.6 L93.1,309.1 L93.8,308.4 L94.1,308.3 L94.6,308.4 L95.6,308.9 L96.8,308.0 L97.3,308.7 L97.9,308.5 L98.4,308.5 L98.9,308.1 L101.6,306.0 L101.9,306.1 L102.4,305.6 L102.6,305.2 L103.1,304.7 L103.4,304.8 L104.0,305.1 L104.6,302.3 L105.1,301.4 L105.6,302.2 L106.6,305.0 L106.9,304.3 L107.2,303.1 L107.7,303.6 L108.1,303.8 L109.3,303.1 L109.6,303.1 L109.8,302.7 L110.5,299.9 L111.6,298.9 L111.9,299.3 L112.4,299.9 L112.8,300.3 L115.0,298.3 L115.4,298.8 L115.9,297.2 L117.1,298.1 L118.9,293.4 L119.8,295.2 L120.4,295.8 L121.7,296.6 L122.4,297.6 L122.6,297.7 L123.0,297.8 L124.3,295.2 L124.7,293.0 L125.2,291.7 L125.6,291.1 L126.2,291.9 L127.1,292.1 L127.4,291.5 L128.7,292.9 L129.3,295.0 L129.7,294.3 L130.2,293.4 L130.5,293.6 L131.6,292.5 L132.1,291.9 L132.3,291.9 L132.3,292.0 L132.9,293.6 L134.9,296.3 L135.0,296.1 L135.3,294.9 L135.4,294.0 L137.0,290.7 L137.4,289.3 L137.9,288.8 L140.7,292.1 L140.9,292.2 L141.4,291.5 L142.4,290.4 L142.7,290.9 L143.1,291.9 L143.3,291.3 L143.7,288.3 L144.1,286.3 L145.2,287.5 L145.9,285.8 L146.6,283.1 L147.5,282.1 L149.4,288.2 L150.1,288.2 L150.9,286.7 L151.4,286.4 L151.9,286.5 L152.3,286.4 L152.8,285.2 L153.1,284.1 L153.8,285.2 L154.2,285.2 L154.5,285.0 L154.9,284.2 L155.6,281.7 L155.8,278.4 L156.2,272.7 L156.6,269.7 L157.0,271.1 L157.7,274.4 L158.2,278.7 L158.7,282.2 L159.4,283.3 L160.1,282.9 L160.6,283.6 L160.9,283.9 L161.0,284.1 L161.3,284.3 L161.5,284.2 L162.0,283.7 L162.2,283.8 L162.7,283.3 L163.9,280.4 L164.2,279.7 L164.7,280.1 L166.2,272.7 L166.7,271.4 L166.9,271.3 L167.0,271.3 L167.7,272.0 L169.2,270.2 L169.6,269.7 L170.8,270.3 L171.3,269.3 L174.3,263.9 L175.1,265.3 L175.5,265.7 L175.8,264.1 L176.1,263.7 L176.7,263.3 L177.0,263.2 L178.0,258.0 L178.2,256.8 L178.3,256.5 L178.5,256.8 L178.6,257.8 L179.0,260.6 L179.5,260.9 L180.8,257.8 L181.8,255.0 L182.3,251.2 L182.6,250.7 L183.0,252.1 L183.4,253.7 L183.7,253.8 L184.0,253.6 L184.5,254.3 L184.9,253.7 L185.1,252.9 L185.5,252.9 L185.9,252.2 L187.0,246.6 L187.2,247.9 L187.4,247.6 L188.1,247.7 L188.2,248.0 L188.4,249.3 L188.5,249.5 L189.0,249.4 L189.1,249.5 L189.4,249.8 L190.2,248.6 L190.5,248.1 L191.0,247.4 L191.1,246.8 L191.4,246.2 L191.6,246.3 L191.9,245.7 L192.0,245.7 L192.6,243.5 L192.9,242.7 L193.1,242.1 L194.9,233.7 L195.2,234.3 L195.3,234.9 L195.9,238.0 L196.4,237.7 L196.7,238.3 L197.2,238.6 L197.5,238.2 L198.3,238.2 L199.0,235.0 L199.5,234.7 L199.9,232.5 L200.5,230.2 L201.3,227.3 L201.9,225.8 L202.6,228.0 L204.1,224.2 L204.4,223.9 L204.6,224.1 L205.0,223.3 L205.1,222.6 L205.7,220.4 L206.0,218.8 L206.3,217.9 L207.3,217.3 L207.5,217.3 L207.7,217.5 L207.9,217.2 L208.2,216.6 L208.7,215.9 L208.9,215.3 L209.5,213.4 L209.9,211.8 L210.3,212.0 L210.9,214.6 L211.1,215.1 L211.4,214.8 L211.7,213.8 L212.0,212.3 L213.0,210.4 L213.4,210.1 L213.7,209.8 L214.4,207.1 L214.7,205.1 L214.8,204.0 L214.9,203.2 L215.0,203.0 L215.4,202.4 L216.1,200.2 L217.0,199.4 L217.4,198.5 L218.2,199.1 L219.6,197.4 L220.3,194.7 L221.0,193.7 L222.3,195.3 L222.9,195.1 L223.2,194.7 L224.4,191.5 L224.6,191.0 L225.9,188.8 L227.6,192.0 L228.7,185.9 L229.4,186.6 L229.9,187.4 L230.1,187.0 L230.1,186.8 L230.4,184.5 L231.7,179.9 L232.3,178.6 L233.3,177.5 L234.7,174.5 L234.9,174.2 L235.1,173.7 L235.2,173.0 L235.3,172.5 L235.4,172.5 L236.1,172.6 L236.9,172.7 L237.5,173.5 L237.6,173.4 L238.4,172.0 L239.1,174.4 L239.3,174.9 L239.4,174.8 L239.6,173.7 L240.1,171.2 L240.8,170.6 L241.4,167.4 L242.9,168.5 L243.1,168.6 L243.2,168.6 L243.4,167.3 L243.7,165.7 L244.3,161.3 L244.6,160.3 L244.8,159.5 L245.1,159.4 L246.8,158.8 L247.0,158.8 L247.5,157.5 L248.0,154.9 L248.1,154.2 L249.0,153.8 L249.5,153.2 L249.8,152.2 L250.1,150.8 L250.3,149.7 L250.6,149.8 L251.2,152.0 L251.5,151.6 L254.9,144.8 L255.5,144.0 L256.1,143.3 L256.6,143.4 L256.9,142.7 L257.2,141.6 L257.5,140.5 L259.0,136.3 L259.5,134.5 L259.8,133.8 L260.1,133.8 L260.3,134.1 L260.6,134.6 L261.0,135.5 L261.2,136.3 L261.4,137.1 L261.8,138.0 L262.7,139.9 L263.0,140.1 L263.3,140.1 L264.0,140.5 L264.1,141.2 L264.3,142.6 L264.5,144.3 L264.7,145.0 L264.8,144.8 L265.4,143.0 L266.2,143.0 L266.8,143.3 L268.9,146.9 L269.8,145.6 L270.2,146.1 L270.7,147.9 L271.0,148.7 L271.3,149.4 L272.2,153.9 L272.5,154.7 L272.8,155.0 L273.2,157.0 L273.5,157.9 L274.1,156.1 L274.3,155.6 L274.6,155.7 L274.8,156.1 L275.6,160.1 L276.6,159.3 L277.1,158.6 L277.7,159.2 L278.8,167.6 L278.9,168.7 L279.3,169.7 L279.7,170.1 L280.5,168.7 L280.8,171.0 L280.9,172.7 L281.1,175.7 L281.3,176.0 L282.6,173.3 L283.0,174.5 L283.6,174.7 L284.7,171.9 L285.1,174.3 L285.8,179.1 L286.9,185.9 L287.5,186.4 L288.2,186.8 L289.1,183.2 L289.3,184.0 L289.6,186.3 L290.1,191.0 L290.4,192.3 L291.6,193.7 L292.0,194.3 L292.5,192.4 L292.7,193.0 L292.8,193.3 L292.9,193.2 L293.1,193.3 L293.2,193.5 L294.9,196.5 L295.5,198.5 L296.0,200.3 L296.6,201.4 L296.8,202.2 L297.0,203.1 L297.9,206.1 L298.8,209.9 L299.2,212.2 L300.1,214.8 L300.2,215.9 L300.5,218.4 L300.9,219.4 L301.1,218.8 L301.4,218.6 L302.6,218.4 L303.7,222.7 L303.9,223.4 L304.6,225.2 L305.0,225.1 L305.6,227.7 L307.0,233.0 L308.7,239.6 L309.7,243.7 L310.1,245.3 L310.3,245.4 L310.4,245.2 L310.8,244.9 L311.5,242.6 L312.2,239.4 L312.5,240.6 L312.9,242.5 L313.4,244.1 L313.7,245.1 L313.9,246.0 L314.1,247.4 L314.9,250.8 L316.1,252.6 L316.3,253.6 L316.5,253.7 L317.0,253.5 L317.4,253.3 L318.6,257.0 L318.8,257.2 L319.5,257.7 L319.5,257.6 L320.0,257.8 L320.1,258.3 L320.2,259.1 L321.3,262.9 L321.5,263.4 L321.7,264.1 L322.2,265.3 L322.8,264.3 L323.3,264.0 L324.4,266.8 L325.1,267.7 L326.0,270.0 L326.4,270.4 L327.8,270.0 L328.0,269.6 L328.2,269.6 L329.5,270.4 L330.0,271.6 L330.9,272.2 L331.4,270.5 L331.6,269.3 L332.0,268.5 L332.2,268.4 L332.5,269.2 L333.2,270.6 L333.4,271.0 L333.9,272.8 L334.2,273.2 L334.7,272.9 L334.9,272.5 L335.4,272.3 L336.2,272.1 L336.9,272.0 L337.2,273.2 L337.4,274.3 L337.9,277.0 L338.1,278.0 L338.4,278.8 L338.9,279.7 L339.2,280.3 L339.6,281.1 L339.7,281.3 L340.3,281.2 L340.9,281.8 L341.3,281.9 L341.3,281.9 L341.5,281.9 L341.5,281.9 L341.9,282.2 L341.9,282.2 L342.1,282.3 L342.2,282.3 L342.5,282.6 L342.7,282.7 L343.6,282.2 L345.0,281.5 L346.1,280.4 L347.0,279.8 L347.2,279.7 L347.5,279.4 L347.8,279.0 L348.3,278.6 L348.8,277.3 L349.1,276.4 L349.4,275.7 L350.6,275.2 L351.2,275.3 L351.3,275.0 L351.9,273.5 L353.6,273.7 L353.9,274.1 L354.3,274.8 L355.1,275.0 L355.4,274.7 L355.8,274.0 L356.1,273.5 L356.3,273.4 L357.1,270.3 L357.8,268.9 L358.8,266.0 L358.9,266.1 L361.4,264.7 L363.5,261.3 L363.7,261.7 L364.2,263.7 L364.7,266.8 L365.5,265.4 L366.0,266.4 L366.3,267.2 L366.6,267.4 L366.7,267.3 L367.5,265.4 L367.8,264.7 L368.1,264.3 L368.6,264.3 L368.9,262.7 L369.6,260.7 L370.4,259.4 L370.6,259.2 L370.8,259.0 L371.2,259.0 L372.0,260.7 L372.4,261.5 L372.7,260.8 L373.0,259.7 L373.5,256.9 L373.8,255.4 L374.3,254.2 L374.9,254.9 L375.8,257.0 L376.2,257.5 L376.3,257.9 L376.6,257.4 L377.1,256.7 L378.0,256.1 L378.9,253.7 L379.8,256.1 L380.0,256.7 L381.0,256.6 L381.6,256.7 L382.5,256.8 L382.7,256.6 L383.5,255.1 L383.9,254.0 L384.2,253.1 L384.3,252.7 L384.7,252.4 L384.8,252.9 L385.0,253.4 L385.3,253.4 L385.7,253.3 L385.9,253.4 L386.4,253.9 L387.3,254.5 L388.4,254.0 L388.7,253.9 L389.3,253.4 L390.1,251.6 L390.4,250.8 L390.9,250.4 L391.2,250.7 L391.3,250.7 L391.5,250.9 L391.9,251.1 L392.4,251.5 L392.8,251.3 L393.1,250.6 L393.2,250.3 L393.4,249.8 L393.7,248.8 L394.5,248.5 L394.8,247.8 L395.4,247.2 L395.9,245.7 L396.2,245.8 L396.5,245.9 L396.6,245.9 L397.7,244.1 L397.7,244.1 L398.0,244.3 L398.5,243.3 L399.2,240.4 L399.9,238.6 L400.3,235.9 L401.6,231.8 L401.8,232.0 L402.9,232.1 L403.9,230.7 L404.1,230.1 L405.5,224.2 L405.7,223.8 L405.9,223.6 L406.9,219.5 L407.8,215.9 L409.3,215.6 L409.8,215.2 L410.3,213.7 L411.0,210.9 L411.6,209.0 L412.7,208.1 L413.5,205.8 L413.8,204.8 L414.3,203.1 L414.8,202.4 L415.6,204.3 L415.8,204.0 L416.0,203.3 L416.1,203.0 L416.2,202.4 L416.3,201.0 L416.5,200.1 L416.6,199.5 L417.5,200.2 L417.7,200.2 L417.9,199.8 L418.6,197.5 L419.4,196.3 L419.5,195.7 L419.9,193.7 L420.1,192.4 L420.8,187.7 L421.7,185.9 L422.1,185.1 L422.6,184.8 L423.1,184.2 L423.5,182.8 L423.9,181.8 L424.4,181.6 L424.6,180.4 L424.7,179.0 L424.8,178.2 L425.3,179.2 L425.6,179.2 L426.9,178.2 L427.1,178.0 L427.2,177.5 L427.3,176.3 L427.4,175.7 L428.2,175.1 L428.6,173.7 L430.6,164.9 L431.3,162.3 L431.7,162.2 L431.9,162.1 L432.1,162.3 L432.2,162.1 L432.4,161.8 L432.9,161.1 L433.5,161.8 L433.8,162.9 L434.3,164.3 L434.8,163.6 L435.5,162.2 L435.6,161.6 L435.8,160.6 L435.9,159.7 L436.8,160.3 L437.1,160.1 L437.1,159.7 L437.2,158.2 L437.4,157.0 L437.7,156.8 L437.9,156.5 L438.1,156.1 L438.2,155.4 L439.2,152.3 L441.2,147.2 L441.5,145.9 L441.9,145.6 L442.3,146.1 L443.4,145.8 L443.8,143.7 L444.0,142.7 L444.1,142.2 L444.2,141.8 L444.4,141.1 L445.3,137.2 L445.5,135.8 L445.9,134.6 L447.5,129.6 L448.8,128.4 L448.9,127.5 L449.0,126.1 L449.1,125.0 L449.2,124.7 L449.5,125.8 L449.8,126.2 L451.0,128.0 L451.2,128.8 L451.3,129.3 L451.5,129.3 L451.5,129.1 L451.6,128.5 L452.0,125.8 L452.5,123.4 L453.8,117.5 L454.6,115.3 L456.1,113.0 L457.0,111.3 L457.2,110.9 L457.5,111.4 L457.8,112.3 L459.1,111.5 L460.2,110.0 L461.6,106.2 L462.5,104.5 L463.1,103.2 L463.5,101.8 L464.1,99.4 L465.9,96.1 L467.1,92.9 L468.8,89.1 L469.1,88.2 L470.3,86.5 L471.4,85.4 L473.9,80.0 L474.8,78.7 L475.9,77.6 L476.2,77.0 L476.5,75.8 L477.3,73.9 L478.8,72.0 L479.2,71.3 L479.5,70.6 L481.3,65.7 L481.7,65.0 L483.0,63.3 L483.8,62.3 L484.2,63.2 L484.7,63.1 L486.7,58.0 L487.3,58.7 L488.2,59.4 L488.7,59.0 L491.0,55.5 L491.6,55.0 L492.5,54.6 L496.5,53.1 L496.7,52.9 L496.7,52.9 L496.9,52.8 L497.0,52.7 L497.4,52.5 L498.3,53.9 L498.5,54.1 L498.8,54.2 L499.5,54.1 L500.0,54.1 L500.4,54.5 L500.5,54.5 L501.0,54.5 L501.9,55.0 L502.2,55.4 L503.5,57.3 L503.6,57.5 L503.7,57.7 L504.1,58.1 L504.4,58.5 L508.5,60.7 L509.3,60.9 L509.5,60.7 L510.5,59.2 L511.5,58.4 L512.0,58.7 L512.1,58.8 L513.6,60.0 L514.2,60.9 L515.2,62.5 L515.9,63.0 L517.4,65.5 L519.1,64.6 L519.4,64.3 L519.9,64.1 L520.6,63.5 L521.0,63.5 L521.6,63.1 L522.8,62.0 L523.2,61.7 L523.7,61.4 L524.0,60.9 L524.5,60.2 L525.7,59.9 L526.0,59.6 L526.2,59.2 L526.5,59.0 L526.9,59.4 L528.6,60.7 L530.7,59.8 L531.0,59.7 L531.7,59.7 L532.4,59.6 L533.6,58.8 L534.4,58.0 L534.9,58.2 L535.7,57.6 L536.5,57.1 L537.4,56.6 L538.6,57.7 L539.1,58.0 L539.7,59.2 L539.9,59.6 L540.9,60.9 L542.5,61.8 L543.3,62.3 L543.5,62.3 L543.9,62.9 L544.3,63.5 L544.9,63.9 L545.4,64.2 L545.7,64.4 L546.3,63.9 L547.7,66.4 L552.0,72.2 L552.4,72.2 L553.2,73.4 L554.0,75.8 L554.2,76.2 L555.2,78.2 L555.5,78.8 L555.8,79.3 L556.2,80.0 L556.6,80.6 L557.1,81.3 L557.2,81.5 L557.7,83.3 L560.8,90.3 L561.4,91.5 L561.9,92.3 L563.0,93.1 L563.5,93.6 L564.3,94.9 L564.6,94.6 L565.2,93.8 L565.8,95.5 L566.4,97.4 L566.8,97.8 L567.1,97.8 L567.6,98.4 L568.8,94.2 L569.4,96.2 L570.6,92.3 L571.0,93.6 L571.3,95.8 L571.6,97.9 L572.2,100.2 L572.7,102.5 L573.3,104.7 L574.7,108.6 L575.8,105.7 L576.4,107.8 L576.8,107.5 L577.3,107.5 L580.6,113.2 L580.9,113.4 L583.8,120.9 L584.1,121.5 L584.4,121.4 L585.4,119.0 L585.7,120.3 L585.9,121.4 L586.0,123.1 L586.1,124.0 L586.3,125.6 L588.4,127.9 L591.0,126.9 L591.8,127.3 L595.5,131.1 L596.1,134.0 L597.3,138.6 L597.8,138.1 L598.1,137.9 L598.8,136.7 L598.9,136.7 L599.2,136.5 L599.5,137.1 L599.7,138.1 L600.1,140.2 L600.5,142.5 L600.8,144.3 L601.0,145.2 L602.1,148.1 L604.7,151.6 L605.9,151.8 L606.7,149.4 L607.1,149.2 L607.4,149.9 L607.5,150.4 L607.6,150.8 L607.8,151.1 L608.0,151.6 L608.1,151.8 L608.3,152.1 L611.3,156.7 L611.8,158.0 L612.2,158.1 L612.8,159.9 L613.4,161.9 L614.0,162.7 L615.1,163.5 L615.6,165.5 L616.2,167.0 L617.0,166.5 L618.6,169.1 L619.3,168.7 L619.5,168.6 L620.3,168.3 L620.7,168.5 L621.3,169.8 L621.5,170.6 L622.4,173.1 L622.9,173.4 L623.6,173.3 L624.0,173.9 L624.2,174.6 L627.9,178.3 L628.6,178.9 L629.1,178.8 L631.3,179.7 L631.7,180.6 L632.2,180.7 L633.4,181.1 L633.7,181.3 L633.9,181.5 L634.4,181.8 L634.8,181.6 L635.1,181.3 L635.7,181.0 L636.7,180.7 L636.9,180.0 L637.3,180.0 L637.8,181.2 L638.0,181.4 L638.3,181.3 L641.2,185.2 L641.4,185.6 L641.7,186.6 L642.1,186.7 L642.3,186.9 L643.7,185.5 L644.3,185.0 L644.7,185.3 L645.3,184.5 L646.5,188.7 L647.3,190.0 L647.8,189.9 L648.3,189.7 L648.8,190.7 L650.0,191.0 L650.6,191.6 L650.9,192.7 L651.1,193.2 L651.1,193.4 L652.0,194.9 L652.7,195.7 L652.9,195.8 L653.8,195.5 L654.2,195.1 L656.0,196.3 L657.6,198.1 L658.0,198.3 L658.3,198.2 L659.1,198.4 L659.2,198.4 L659.5,198.3 L659.8,198.2 L660.7,198.6 L661.3,199.2 L663.9,197.9 L664.9,198.5 L665.7,199.6 L666.4,200.2 L666.8,199.5 L667.0,199.1 L667.4,198.1 L668.2,197.5 L668.7,198.7 L669.3,199.4 L670.3,199.7 L670.6,199.9 L670.7,200.0 L670.8,200.1 L671.1,200.2 L671.3,199.9 L671.5,199.8 L671.6,199.9 L671.7,199.9 L672.0,200.1 L672.2,200.2 L673.0,199.9 L674.5,199.6 L675.4,199.5 L675.7,199.4 L675.7,199.4 L677.2,198.4 L678.1,196.7 L678.6,195.6 L679.7,194.8 L680.6,195.4 L681.5,192.6 L681.9,191.6 L682.3,190.8 L682.6,190.2 L683.0,190.1 L683.7,188.5 L684.1,187.4 L684.8,185.6 L685.2,185.4 L686.3,184.9 L689.2,179.8 L690.5,178.2 L691.1,177.2 L691.4,176.0 L691.8,174.7 L692.2,173.4 L693.6,174.2 L697.7,167.9 L698.1,166.5 L698.5,164.6 L699.0,162.0 L699.4,160.0 L699.7,158.8 L701.2,159.1 L701.5,159.0 L701.7,158.0 L701.9,157.5 L702.0,157.3 L702.2,157.9 L702.4,159.1 L703.2,162.6 L703.4,162.6 L703.6,162.9 L703.8,163.4 L704.1,162.1 L705.1,157.7 L705.8,157.3 L706.2,157.6 L706.9,156.4 L707.9,158.0 L708.3,156.8 L708.6,155.5 L708.9,153.8 L709.6,149.7 L709.8,149.2 L710.0,149.0 L710.1,149.3 L710.2,150.1 L710.5,151.9 L710.8,153.4 L711.0,154.0 L712.6,150.1 L713.1,149.3 L713.6,148.9 L716.0,143.8 L716.4,144.3 L717.1,145.0 L717.6,143.6 L719.8,137.6 L720.0,137.2 L720.1,137.1 L720.4,136.3 L720.7,135.2 L720.9,134.7 L721.1,134.4 L721.4,134.5 L721.6,134.8 L723.0,136.9 L723.4,137.2 L723.7,137.8 L724.1,137.9 L724.6,136.7 L726.2,132.3 L728.2,127.7 L728.5,127.9 L729.4,131.5 L729.9,131.4 L730.4,132.3 L731.0,133.7 L731.5,132.6 L732.0,130.9 L732.8,130.4 L733.4,130.2 L733.9,129.0 L734.4,128.4 L735.0,127.4 L736.0,124.7 L738.4,121.3 L739.3,120.1 L739.7,119.5 L740.0,118.9 L740.2,118.1 L740.5,117.6 L740.7,117.3 L740.9,116.6 L741.2,115.6 L741.5,114.0 L741.8,112.6 L742.3,110.8 L742.8,109.8 L744.0,112.1 L744.2,112.6 L744.5,112.9 L744.7,112.7 L745.4,111.9 L746.0,110.4 L746.5,110.9 L747.6,111.3 L748.0,111.0 L748.5,110.4 L749.0,111.5 L749.5,112.6 L750.1,111.1 L750.5,109.9 L750.8,108.9 L752.2,105.6 L752.6,105.3 L753.1,105.6 L753.7,104.4 L754.3,103.7 L754.9,103.6 L755.6,102.7 L756.4,101.8 L757.6,100.5 L761.0,96.8 L765.1,90.0 L765.6,90.4 L766.0,89.7 L766.3,89.9 L766.8,91.2 L768.0,89.0 L768.2,87.4 L768.7,85.5 L769.5,88.5 L769.7,88.7 L770.4,86.4 L770.8,85.5 L771.0,84.7 L771.2,84.0 L771.5,83.2 L771.8,82.5 L772.1,82.4 L772.4,82.4 L772.9,83.5 L773.1,83.8 L773.4,84.5 L773.5,85.0 L773.7,85.3 L773.9,85.2 L774.8,83.2 L776.0,82.7 L776.5,83.5 L777.1,82.7 L777.5,82.6 L778.2,82.4 L778.7,81.2 L779.4,81.0 L779.6,80.2 L780.0,78.8 L780.8,76.8 L781.8,77.6 L782.0,77.8 L782.6,78.9 L783.6,78.0 L783.7,78.0 L784.7,75.7 L785.0,74.8 L785.2,74.6 L785.2,74.4 L785.5,74.2 L785.7,74.1 L785.9,74.3 L786.1,74.8 L786.3,75.3 L786.4,75.4 L786.7,75.7 L787.9,74.1 L788.4,74.6 L788.8,75.2 L789.4,75.6 L789.6,76.0 L790.1,76.7 L790.4,77.5 L792.9,83.3 L794.2,84.6 L794.9,84.2 L796.4,88.2 L798.9,90.9 L799.4,92.1 L800.0,92.7 L800.6,92.6 L801.1,93.4 L801.9,94.6 L802.8,95.8 L803.7,95.0 L804.1,95.7 L804.8,95.0 L805.0,94.4 L805.2,94.1 L805.5,94.0 L805.8,94.6 L806.1,95.0 L806.4,95.0 L806.5,94.7 L806.8,94.6 L807.1,94.9 L807.6,94.6 L808.3,92.5 L809.0,91.7 L809.3,91.2 L809.8,90.7 L810.5,89.4 L811.3,89.8 L812.0,92.1 L812.7,90.9 L813.3,87.9 L813.9,86.8 L814.4,85.5 L815.6,84.5 L816.3,82.6 L816.6,82.3 L817.3,82.1 L817.9,82.2 L818.2,81.3 L820.2,77.4 L821.2,77.4 L821.6,76.6 L822.0,75.2 L823.0,73.0 L823.8,72.4 L826.7,69.7 L827.3,68.3 L827.5,69.4 L827.9,71.0 L828.0,70.8 L828.5,70.7 L828.8,70.9 L829.4,69.4 L830.2,68.8 L832.2,67.2 L833.5,65.1 L834.3,64.3 L834.5,64.1 L835.0,64.3 L836.1,64.9 L836.5,64.2 L836.8,62.8 L837.2,60.9 L837.4,60.2 L837.8,59.7 L838.2,59.9 L838.5,59.6 L838.8,59.0 L839.4,58.9 L840.6,59.8 L840.9,60.0 L842.3,57.0 L843.2,58.1 L844.0,58.0 L844.6,56.5 L845.6,56.2 L846.4,57.1 L847.7,58.4 L848.3,58.6 L848.7,58.6 L849.2,58.2 L850.5,58.2 L853.5,55.4 L854.1,56.1 L854.7,57.7 L855.0,57.5 L855.4,57.4 L855.7,57.2 L855.8,57.2 L856.2,57.4 L856.4,57.7 L856.7,58.5 L856.9,59.1 L858.0,58.9 L858.5,58.8 L860.7,60.1 L860.8,60.3 L861.1,61.3 L862.6,67.2 L863.0,67.1 L863.2,67.1 L864.4,71.0 L866.6,73.2 L867.2,75.8 L867.4,77.1 L868.5,81.5 L868.8,82.0 L869.1,82.0 L869.4,82.2 L869.9,83.1 L870.5,83.9 L870.8,84.0 L871.2,84.3 L872.7,85.6 L873.2,86.3 L873.8,88.0 L874.6,89.3 L874.8,88.2 L875.3,88.8 L876.0,93.3 L877.0,96.1 L880.3,101.4 L882.2,104.5 L882.4,104.8 L882.7,105.4 L882.8,105.8 L882.9,106.1 L883.0,106.3 L883.3,106.5 L883.8,106.0 L883.9,105.8 L884.4,105.6 L884.6,105.5 L884.9,105.9 L885.1,106.3 L885.3,107.7 L885.6,109.5 L886.6,113.0 L887.0,113.6 L888.5,115.9 L889.0,116.3 L889.4,116.9 L889.9,118.0 L890.2,119.1 L890.5,121.0 L890.7,121.9 L890.9,122.1 L891.2,122.1 L892.0,121.1 L892.3,121.5 L892.5,122.2 L892.7,122.8 L892.9,123.5 L893.7,126.8 L894.2,127.9 L894.4,128.7 L894.7,129.1 L896.1,131.9 L896.6,133.1 L897.0,133.0 L897.3,133.3 L897.6,134.0 L898.1,134.5 L900.0,139.1 L900.2,141.0 L900.5,141.2 L900.6,140.7 L902.0,138.6 L902.4,139.8 L902.7,141.3 L902.9,142.6 L903.1,143.8 L903.5,144.4 L903.8,145.0 L904.3,146.9 L904.4,147.4 L906.2,151.9 L906.8,151.9 L907.3,154.6 L907.7,156.7 L908.2,158.2 L908.7,157.3 L909.7,161.8 L909.9,161.8 L910.1,161.0 L910.5,159.5 L910.7,159.9 L910.8,160.5 L910.9,161.2 L911.3,161.1 L911.6,160.4 L912.4,160.1 L913.0,156.9 L913.4,155.4 L913.7,156.3 L914.0,157.2 L914.3,159.8 L914.6,161.1 L915.7,161.7 L916.2,163.2 L916.5,163.5 L917.3,163.5 L917.5,162.6 L917.6,162.2 L917.8,162.2 L918.0,162.8 L918.3,164.6 L918.5,165.3 L918.7,165.2 L918.9,164.4 L919.2,163.0 L920.5,165.9 L920.7,166.7 L921.3,164.6 L921.5,164.4 L921.7,164.8 L921.9,165.1 L922.0,165.1 L922.4,166.2 L922.7,166.7 L923.0,166.3 L923.5,166.3 L923.7,166.6 L924.0,166.9 L924.3,167.5 L925.8,167.0 L926.9,164.8 L927.5,163.9 L927.9,164.2 L928.6,166.0 L930.1,165.3 L930.5,164.6 L930.8,164.6 L931.3,162.9 L931.8,159.1 L931.9,159.3 L932.1,160.1 L932.3,161.3 L932.5,163.0 L933.2,166.4 L933.6,167.2 L934.3,170.1 L935.1,173.5 L935.5,174.9 L936.3,175.6 L937.4,179.2 L937.8,180.8 L939.4,183.3 L939.7,184.1 L940.2,185.3 L941.0,185.5 L941.3,185.4 L941.9,188.2 L942.5,189.2 L943.0,189.3 L943.5,190.2 L943.8,188.7 L944.1,187.1 L945.3,188.9 L945.8,189.6 L946.3,189.7 L947.1,190.1 L947.7,189.9 L948.1,188.6 L948.6,187.2 L949.3,187.1 L949.9,187.5 L950.3,189.1 L950.7,190.7 L951.2,190.2 L951.4,190.2 L951.7,190.9 L952.2,191.2 L952.6,189.8 L953.1,187.7 L953.8,185.7 L954.4,185.5 L955.4,182.3 L955.8,181.3 L956.8,183.6 L957.2,184.9 L957.7,187.0 L957.9,188.7 L958.8,192.2 L959.8,193.7 L960.0,193.4 L960.6,194.9 L961.1,197.4 L961.7,198.1 L962.6,194.7 L963.0,193.5 L963.8,193.9 L964.9,193.9 L965.6,199.4 L966.3,198.4 L966.9,196.7 L967.2,196.1 L968.0,196.2 L968.5,197.7 L969.0,200.0 L970.4,200.8 L971.8,198.9 L972.9,196.3 L973.5,196.0 L973.7,196.6 L975.1,199.7 L975.7,201.2 L976.0,202.3 L976.2,203.1 L976.5,203.7 L976.8,204.1 L977.7,205.5 L978.5,203.7 L978.7,202.8 L979.0,202.8 L979.8,204.3 L980.6,206.4 L981.4,204.4 L981.8,205.0 L982.4,207.6 L982.7,209.2 L983.3,212.7 L983.5,213.4 L983.7,213.9 L983.9,214.5 L984.1,215.2 L984.3,215.5 L984.6,215.6 L985.2,211.3 L985.5,209.9 L986.2,215.3 L986.8,217.8 L987.0,218.1 L987.3,219.4 L987.8,220.2 L988.0,220.2 L988.2,220.1 L988.3,219.7 L988.7,218.2 L988.9,217.1 L989.8,214.1 L990.3,213.9 L991.2,216.1 L991.6,216.9 L992.1,217.2 L993.4,217.5 L993.9,216.9 L995.0,218.5 L995.3,219.4 L995.7,220.6 L995.9,221.4 L996.2,221.4 L997.7,221.2 L998.2,222.5 L999.3,219.0 L1002.2,225.3 L1002.6,225.4 L1002.9,225.2 L1003.5,224.1 L1004.2,224.4 L1007.5,224.6 L1008.4,224.3 L1010.2,226.1 L1010.7,226.7 L1014.1,226.0 L1014.6,226.8 L1016.1,231.6 L1018.1,233.2 L1019.3,234.7 L1020.0,234.9 L1024.4,235.9 L1026.4,234.5 L1028.6,234.4 L1029.2,235.9 L1029.7,235.9 L1032.3,234.3 L1032.6,233.5 L1033.1,233.4 L1033.6,234.3 L1034.7,234.5 L1035.2,236.0 L1035.6,239.9 L1036.2,243.2 L1037.1,245.3 L1037.8,245.6 L1038.2,245.7 L1038.7,246.0 L1039.0,246.2 L1040.2,247.4 L1040.3,247.7 L1040.7,248.3 L1041.6,248.0 L1041.7,247.8 L1042.0,247.2 L1042.5,245.9 L1042.9,245.8 L1043.2,246.4 L1043.7,247.4 L1044.9,247.8 L1045.9,247.3 L1047.0,249.6 L1047.3,249.0 L1047.4,248.7 L1047.8,248.8 L1048.3,249.8 L1048.8,249.0 L1049.7,249.5 L1050.1,249.4 L1050.8,250.0 L1051.1,251.2 L1052.0,251.0 L1052.3,250.0 L1053.3,249.4 L1054.1,251.7 L1054.4,251.8 L1054.8,252.3 L1055.0,251.9 L1055.2,253.2 L1055.3,253.5 L1055.7,254.3 L1056.1,254.5 L1056.7,252.3 L1056.9,251.7 L1057.8,250.4 L1058.2,249.7 L1059.2,245.8 L1060.1,248.3 L1061.5,249.9 L1062.0,248.6 L1062.6,249.3 L1063.2,249.3 L1064.3,248.6 L1064.8,248.5 L1065.6,248.8 L1065.9,250.7 L1066.4,252.1 L1066.9,251.7 L1067.9,251.3 L1069.1,252.7 L1069.9,250.9 L1070.7,252.9 L1071.4,250.4 L1071.7,249.0 L1071.9,249.0 L1072.2,248.7 L1072.4,248.4 L1073.3,246.6 L1074.8,249.2 L1075.5,248.8 L1076.2,248.0 L1077.3,248.2 L1077.7,248.4 L1078.8,249.4 L1079.2,250.0 L1079.6,252.1 L1079.8,253.4 L1080.8,253.5 L1081.5,254.9 L1082.1,254.8 L1083.0,255.5 L1083.8,254.9 L1086.1,256.5 L1086.5,257.2 L1087.1,255.5 L1087.9,253.8 L1088.7,258.0 L1089.2,259.8 L1089.8,257.5 L1091.7,252.8 L1092.0,253.5 L1092.6,256.9 L1092.8,256.8 L1093.2,255.9 L1093.5,255.6 L1093.9,255.8 L1094.6,257.6 L1095.0,259.2 L1095.4,261.5 L1095.7,261.5 L1096.1,260.5 L1096.6,260.0 L1097.3,258.0 L1098.0,258.2 L1099.6,261.5 L1100.2,259.7 L1100.9,260.0 L1101.8,263.0 L1102.2,263.0 L1102.6,262.9 L1103.0,262.4 L1103.2,261.7 L1104.0,263.8 L1104.8,266.3 L1105.8,264.0 L1106.0,263.3 L1106.1,263.0 L1106.7,263.0 L1107.0,262.5 L1107.3,262.6 L1107.6,263.3 L1108.0,263.7 L1108.6,263.5 L1110.8,265.5 L1111.3,264.9 L1111.5,265.3 L1111.9,266.8 L1112.6,268.4 L1114.3,269.0 L1116.3,269.2 L1117.0,269.1 L1117.7,268.6 L1118.4,269.9 L1118.7,270.7 L1118.9,272.0 L1119.2,274.5 L1119.4,275.6 L1119.6,275.6 L1119.8,275.3 L1120.1,274.8 L1120.3,273.8 L1120.7,271.1 L1121.3,272.8 L1122.2,274.0 L1124.6,277.2 L1125.4,277.2 L1126.5,277.8 L1127.3,279.1 L1128.0,279.7 L1130.7,283.7 L1131.4,284.3 L1131.7,284.2 L1133.7,279.3 L1134.7,280.9 L1135.9,283.8 L1136.2,284.5 L1136.8,285.0 L1137.6,285.0 L1137.9,284.7 L1138.2,284.1 L1138.4,284.4 L1139.3,287.6 L1139.6,287.5 L1140.6,283.3 L1140.7,283.0 L1141.0,283.8 L1141.4,286.4 L1143.0,290.2 L1143.5,291.0 L1143.9,291.7 L1144.2,292.2 L1144.5,292.9 L1144.8,292.6 L1145.2,291.3 L1147.2,288.2 L1147.6,289.3 L1147.9,289.8 L1148.7,289.9 L1149.7,293.5 L1150.4,294.5 L1151.0,295.6 L1151.2,295.8 L1151.5,295.6 L1152.0,296.2 L1152.4,296.9 L1152.7,297.4 L1153.0,297.5 L1153.3,297.5 L1153.8,297.4 L1154.1,297.5 L1154.5,297.3 L1154.8,296.8 L1155.4,297.2 L1155.8,297.1 L1156.2,297.2 L1156.5,296.5 L1156.8,295.5 L1158.3,299.3 L1159.2,299.8 L1159.7,298.0 L1160.4,294.7 L1161.4,294.6 L1161.8,295.3 L1162.3,295.5 L1163.1,296.8 L1163.6,296.6 L1164.1,297.4 L1165.0,298.7 L1166.4,299.4 L1166.8,300.1 L1167.4,298.5 L1167.6,298.2 L1168.0,298.0 L1168.7,299.1 L1169.5,299.1 L1169.7,299.4 L1170.1,300.3 L1170.6,301.9 L1171.9,295.9 L1172.3,295.8 L1172.8,296.6 L1173.5,293.9 L1173.8,294.2 L1175.7,298.0 L1176.0,298.6 L1176.8,302.9 L1176.9,303.5 L1177.1,303.8 L1177.3,303.6 L1177.4,303.6 L1177.8,303.1 L1178.0,302.8 L1178.2,302.2 L1178.4,301.5 L1178.8,300.1 L1179.8,301.2 L1180.4,302.3 L1180.8,303.6 L1181.1,304.3 L1181.6,303.3 L1181.9,301.6 L1182.2,301.4 L1182.9,303.8 L1183.4,304.3 L1183.6,303.7 L1183.9,304.0 L1184.3,304.7 L1184.6,304.4 L1185.2,304.4 L1186.7,301.9 L1187.4,302.1 L1188.1,302.2 L1189.0,307.1 L1189.7,308.5 L1189.8,308.9 L1190.0,309.1 L1190.1,309.2 L1190.3,309.1 L1190.4,308.9 L1191.0,309.5 L1191.6,308.2 L1192.6,309.1 L1192.9,309.5 L1194.1,310.1 L1195.8,310.9 L1196.4,311.7 L1197.2,311.9 L1198.4,311.1 L1198.8,311.7 L1199.3,311.2 L1200.5,312.7 L1202.8,314.1 L1203.8,315.9 L1205.3,316.8 L1206.0,315.3 L1206.5,314.8 L1207.0,315.2 L1207.9,316.1 L1209.6,319.9 L1211.5,320.7 L1211.6,320.9 L1211.7,321.5 L1212.1,321.2 L1212.5,320.4 L1213.3,320.1 L1213.6,319.7 L1213.8,318.8 L1213.9,318.7 L1214.1,318.9 L1214.2,319.7 L1214.3,320.2 L1214.6,321.2 L1215.2,320.3 L1215.4,319.1 L1215.8,318.7 L1215.9,318.3 L1216.4,317.9 L1216.7,317.9 L1216.9,317.6 L1217.1,317.5 L1217.2,317.2 L1217.5,316.1 L1218.2,314.0 L1218.3,313.7 L1218.7,313.1 L1218.8,313.1 L1218.9,313.3 L1219.0,313.6 L1219.2,313.5 L1219.3,313.4 L1219.6,312.7 L1220.2,312.6 L1221.5,308.6 L1222.1,308.9 L1222.5,309.2 L1222.6,309.5 L1223.0,313.6 L1223.5,315.6 L1224.1,313.7 L1224.4,313.8 L1224.8,313.9 L1224.9,313.9 L1225.2,313.5 L1226.0,308.2 L1226.3,307.8 L1227.3,307.1 L1228.0,306.1 L1228.6,305.0 L1229.0,303.6 L1229.4,303.1 L1230.5,302.9 L1230.6,302.3 L1230.8,302.0 L1231.2,301.4 L1231.5,301.8 L1231.7,302.2 L1232.0,302.2 L1232.2,301.5 L1232.2,301.3 L1232.9,299.4 L1233.7,297.6 L1233.9,297.1 L1234.2,295.6 L1234.4,294.9 L1235.6,290.2 L1235.9,289.6 L1236.5,290.7 L1237.0,289.3 L1237.1,289.3 L1237.5,291.0 L1238.1,289.6 L1238.2,289.4 L1238.6,290.3 L1238.8,290.2 L1239.8,286.7 L1240.3,286.3 L1240.6,286.2 L1241.3,285.5 L1241.5,285.0 L1241.7,284.3 L1242.1,282.7 L1242.6,282.8 L1243.3,281.8 L1243.5,280.7 L1243.8,278.7 L1244.1,277.7 L1244.3,277.8 L1244.7,278.6 L1244.8,278.4 L1245.5,275.8 L1246.4,274.7 L1246.6,274.5 L1246.8,274.2 L1247.2,273.5 L1247.6,273.1 L1247.8,272.5 L1248.2,271.3 L1248.5,270.3 L1248.9,268.8 L1249.0,268.7 L1249.5,269.9 L1249.6,270.2 L1249.7,269.8 L1250.0,268.7 L1250.3,268.4 L1250.7,268.1 L1251.0,269.3 L1251.3,269.5 L1251.8,268.8 L1252.5,269.9 L1252.8,269.6 L1253.2,270.6 L1255.1,267.8 L1255.3,267.3 L1255.7,264.7 L1255.9,263.2 L1256.1,260.9 L1256.4,259.2 L1256.6,259.2 L1257.5,265.2 L1257.8,266.8 L1258.1,267.4 L1259.0,266.5 L1259.5,266.3 L1260.0,266.1 L1260.3,265.2 L1260.5,264.4 L1260.7,263.0 L1261.5,254.1 L1261.7,253.0 L1261.9,252.3 L1262.0,252.7 L1262.7,254.6 L1263.0,252.8 L1263.3,249.9 L1263.5,249.2 L1263.7,249.6 L1263.9,250.1 L1264.3,251.7 L1264.5,251.9 L1264.7,252.0 L1264.9,250.9 L1265.3,247.4 L1266.1,245.8 L1267.2,244.3 L1268.0,244.1 L1269.0,235.1 L1269.1,234.1 L1269.2,233.7 L1269.4,234.3 L1269.8,238.4 L1270.3,244.7 L1270.9,245.7 L1271.2,243.9 L1271.7,235.2 L1272.8,234.9 L1273.3,232.7 L1273.8,229.9 L1274.0,229.7 L1274.8,227.3 L1274.9,227.0 L1275.0,226.6 L1275.1,226.5 L1275.3,227.0 L1276.7,229.5 L1277.4,230.7 L1277.5,231.4 L1277.7,231.3 L1277.8,230.9 L1278.1,229.0 L1278.6,224.3 L1279.5,218.8 L1279.6,219.4 L1279.9,223.1 L1280.1,223.8 L1280.2,223.3 L1280.5,221.7 L1280.8,218.9 L1281.4,215.0 L1281.5,214.6 L1281.6,214.9 L1281.8,215.8 L1282.3,217.3 L1282.5,217.4 L1282.6,217.6 L1282.8,218.0 L1283.8,217.8 L1284.3,217.1 L1284.5,216.9 L1284.7,217.3 L1284.9,217.6 L1285.7,212.7 L1286.2,208.0 L1287.0,205.1 L1287.3,204.7 L1288.3,198.9 L1288.4,198.7 L1288.6,199.3 L1288.8,200.8 L1289.4,204.7 L1289.7,205.4 L1289.8,205.1 L1290.0,203.7 L1290.7,198.4 L1290.9,197.7 L1291.1,198.6 L1291.4,200.4 L1291.7,202.5 L1292.1,201.7 L1292.3,200.5 L1292.5,198.5 L1292.9,195.9 L1293.0,196.1 L1294.2,196.0 L1294.8,193.4 L1295.0,193.0 L1295.2,192.9 L1295.4,193.1 L1295.5,193.6 L1295.7,193.8 L1296.1,195.3 L1296.3,195.2 L1296.4,194.7 L1296.6,193.1 L1296.7,192.4 L1296.8,192.0 L1297.0,191.8 L1297.2,192.1 L1297.6,191.8 L1298.2,189.4 L1298.4,188.8 L1298.6,188.6 L1298.8,188.7 L1300.8,187.3 L1301.5,188.1 L1301.7,188.9 L1302.4,187.5 L1302.7,186.3 L1302.9,184.3 L1303.3,182.4 L1303.5,182.4 L1303.8,183.9 L1304.0,184.8 L1304.2,184.9 L1304.4,184.5 L1304.8,182.1 L1305.0,180.5 L1305.1,179.5 L1305.2,178.6 L1305.4,178.1 L1305.5,178.0 L1306.0,179.3 L1307.3,175.5 L1308.3,169.8 L1308.4,169.7 L1308.7,170.5 L1309.6,174.2 L1309.7,174.7 L1309.9,175.5 L1310.0,175.8 L1310.3,175.7 L1310.7,173.4 L1312.6,170.3 L1312.8,170.2 L1313.2,169.4 L1313.6,168.4 L1314.0,168.0 L1315.0,168.7 L1315.4,168.7 L1315.7,168.7 L1316.2,168.5 L1317.1,163.0 L1317.4,162.2 L1317.9,161.5 L1318.1,161.0 L1318.3,160.4 L1318.5,160.0 L1318.9,160.1 L1319.5,161.0 L1319.9,161.8 L1320.8,162.3 L1321.5,165.1 L1322.2,167.4 L1322.5,168.2 L1322.8,168.9 L1323.6,168.7 L1323.7,168.5 L1323.9,168.5 L1324.1,169.0 L1324.2,169.8 L1324.6,172.9 L1325.1,174.5 L1326.2,175.7 L1326.4,176.1 L1326.7,176.7 L1326.9,177.0 L1327.1,177.5 L1327.4,178.1 L1327.6,178.4 L1328.1,178.7 L1328.2,178.8 L1328.4,178.9 L1328.5,179.1 L1328.6,179.3 L1329.2,180.3 L1329.7,180.0 L1329.9,179.9 L1330.1,179.8 L1330.2,179.8 L1330.6,181.3 L1330.8,181.7 L1331.1,181.8 L1331.3,182.1 L1331.8,183.0 L1332.1,183.2 L1332.5,185.3 L1333.0,186.0 L1333.4,186.5 L1333.9,187.6 L1334.1,188.4 L1334.3,189.8 L1334.7,192.7 L1335.9,196.8 L1336.7,199.6 L1337.0,200.0 L1337.2,200.0 L1337.4,200.1 L1337.6,200.2 L1338.1,200.8 L1339.0,200.1 L1339.3,200.3 L1340.0,202.4 L1340.4,203.5 L1340.9,205.5 L1341.3,207.5 L1342.0,208.0 L1342.3,208.4 L1342.9,211.8 L1343.1,212.5 L1343.5,213.6 L1344.5,217.2 L1344.7,218.1 L1345.0,219.3 L1345.5,221.3 L1345.8,221.6 L1346.0,220.7 L1346.4,218.0 L1346.6,216.8 L1346.7,216.1 L1346.9,216.0 L1347.1,216.9 L1347.3,218.2 L1347.7,221.8 L1348.0,223.3 L1348.2,223.9 L1348.9,223.0 L1349.9,229.4 L1350.6,232.3 L1350.9,234.4 L1351.8,234.4 L1352.1,234.8 L1352.4,236.0 L1353.1,238.7 L1353.3,239.3 L1353.7,239.0 L1354.0,239.5 L1354.3,241.1 L1354.9,243.0 L1355.7,247.7 L1356.0,249.2 L1356.6,250.4 L1356.8,250.6 L1357.4,247.8 L1357.7,248.7 L1358.7,253.2 L1359.0,253.6 L1359.8,251.5 L1360.0,251.0 L1360.3,251.6 L1360.7,253.8 L1361.6,257.6 L1362.2,260.0 L1362.4,259.9 L1362.6,259.0 L1362.7,258.8 L1362.9,259.4 L1363.5,262.1 L1364.2,261.7 L1364.6,263.5 L1365.8,262.3 L1367.3,270.6 L1367.7,271.1 L1368.1,270.7 L1369.1,272.0 L1370.8,274.8 L1371.5,274.9 L1371.9,275.2 L1372.3,277.0 L1373.2,280.8 L1374.3,279.3 L1374.9,283.6 L1375.1,285.1 L1375.9,287.9 L1376.3,288.5 L1376.5,288.5 L1376.8,287.4 L1377.8,286.0 L1378.5,290.1 L1379.4,295.5 L1380.2,297.8 L1381.8,302.1 L1382.1,302.6 L1383.2,308.9 L1384.0,310.0 L1384.7,311.5 L1385.0,312.2 L1385.1,312.4 L1385.2,312.7 L1385.4,313.0 L1385.5,313.3 L1386.0,314.0 L1386.3,314.1 L1386.5,314.5 L1387.0,316.2 L1387.4,317.4 L1387.9,317.2 L1388.7,317.0 L1389.2,315.8 L1389.6,314.9 L1390.5,315.7 L1390.7,315.6 L1390.9,315.9 L1392.0,319.0 L1392.5,320.7 L1392.8,320.4 L1393.1,320.9 L1393.3,321.2 L1393.9,323.3 L1394.4,324.5 L1394.8,325.7 L1395.7,327.3 L1396.3,328.4 L1397.2,327.9 L1397.8,329.0 L1398.0,329.2 L1398.6,330.5 L1398.9,330.4 L1399.1,330.0 L1399.5,328.3 L1399.8,327.0 L1400.1,325.7 L1400.8,323.8 L1401.1,323.8 L1401.4,323.2 L1403.5,320.8 L1405.4,320.0 L1406.1,319.3 L1406.9,317.7 L1408.0,316.8 L1408.7,317.4 L1409.8,313.4 L1410.6,313.1 L1411.4,311.2 L1411.9,309.8 L1412.4,308.9 L1412.7,308.6 L1412.8,308.6 L1413.0,308.6 L1413.1,308.6 L1413.4,308.4 L1413.8,308.7 L1414.1,308.4 L1414.8,303.0 L1415.0,301.9 L1415.2,301.3 L1415.9,301.6 L1416.5,301.9 L1416.5,301.1 L1416.7,299.0 L1416.8,297.7 L1416.9,297.5 L1417.5,299.4" fill="transparent" id="track" stroke="black" stroke-width="2"/>
<g>
<circle cx="672.250" cy="200.162" id="wp-281/circle" r="4.000"/>
<text font-size="16.0" id="wp-281/text" text-anchor="start" x="674.250" y="217.162">
K3
</text>
<circle cx="260.592" cy="134.597" fill="Blue" id="wp-1/circle" r="3.000"/>
<text font-size="16.0" id="wp-5/text" text-anchor="start" x="262.592" y="131.597">
Freiersberg
</text>
<circle cx="854.712" cy="57.679" fill="Blue" id="wp-2/circle" r="3.000"/>
<text font-size="16.0" id="wp-6/text" text-anchor="start" x="856.712" y="54.679">
Seibelseckle
</text>
<circle cx="498.473" cy="54.054" fill="Blue" id="wp-3/circle" r="3.000"/>
<text font-size="16.0" id="wp-7/text" text-anchor="start" x="500.473" y="51.054">
Alexanderschanze
</text>
<circle cx="785.710" cy="74.130" fill="Blue" id="wp-4/circle" r="3.000"/>
<text font-size="16.0" id="wp-8/text" text-anchor="start" x="792.710" y="111.130">
Ruhestein
</text>
<circle cx="1318.542" cy="160.010" fill="Blue" id="wp-5/circle" r="3.000"/>
<text font-size="16.0" id="wp-10/text" text-anchor="start" x="1320.542" y="157.010">
Rote Lache
</text>
<circle cx="340.312" cy="281.223" fill="Gray" id="wp-6/circle" r="3.000"/>
<text font-size="16.0" id="wp-3/text" text-anchor="start" x="342.312" y="298.223">
Bad Peterstal
</text>
<circle cx="1211.718" cy="321.455" fill="Gray" id="wp-7/circle" r="3.000"/>
<text font-size="16.0" id="wp-4/text" text-anchor="start" x="1213.718" y="338.455">
Forbach
</text>
</g>
</g>
<g id="SL" transform="translate(0 0)">
<text text-anchor="end" x="-5" y="363.5">
200
</text>
<text text-anchor="end" x="-5" y="323.66666666666663">
300
</text>
<text text-anchor="end" x="-5" y="283.8333333333333">
400
</text>
<text text-anchor="end" x="-5" y="243.99999999999997">
500
</text>
<text text-anchor="end" x="-5" y="204.16666666666663">
600
</text>
<text text-anchor="end" x="-5" y="164.33333333333331">
700
</text>
<text text-anchor="end" x="-5" y="124.5">
800
</text>
<text text-anchor="end" x="-5" y="84.66666666666663">
900
</text>
<text text-anchor="end" x="-5" y="44.833333333333314">
1000
</text>
<text text-anchor="end" x="-5" y="5">
1100
</text>
</g>
</g>
</svg>