<svg height="400" width="1420" xmlns="http://www.w3.org/2000/svg">
<g font-family="Libertinus Serif" font-size="15" id="world" shape-rendering="crispEdges">
<g id="BG"/>
<g id="SB" transform="translate(0 360)">
<text text-anchor="middle" x="0" y="14.5">
180
</text>
<text text-anchor="middle" x="283.7000000000003" y="14.5">
200
</text>
<text text-anchor="middle" x="567.4000000000001" y="14.5">
220
</text>
<text text-anchor="middle" x="851.1000000000004" y="14.5">
240
</text>
<text text-anchor="middle" x="1134.8000000000002" y="14.5">
260
</text>
</g>
<g id="SD" transform="translate(0 0)">
<path d="M0,0 L0,358.5 L1418.5,358.5 L1418.5,0 L0,0" fill="lightgray" id="bg"/>
<path d="M0,0 L1418.5,0" stroke="black" stroke-width="3"/>
<path d="M0,0 L0,358.5" stroke="black" stroke-width="3"/>
<path d="M0,358.5 L1418.5,358.5" stroke="black" stroke-width="3"/>
<path d="M1418.5,0 L1418.5,358.5" stroke="black" stroke-width="3"/>
<path d="M0,0 L0,358.5" stroke="black" stroke-width="1"/>
<path d="M283.7,0 L283.7,358.5" stroke="black" stroke-width="1"/>
<path d="M567.4,0 L567.4,358.5" stroke="black" stroke-width="1"/>
<path d="M851.1,0 L851.1,358.5" stroke="black" stroke-width="1"/>
<path d="M1134.8,0 L1134.8,358.5" stroke="black" stroke-width="1"/>
<path d="M141.85,0 L141.85,358.5" stroke="black" stroke-dasharray="1.0,2.5,5.0,5.0,10.0,5.0"/>
<path d="M425.55,0 L425.55,358.5" stroke="black" stroke-dasharray="1.0,2.5,5.0,5.0,10.0,5.0"/>
<path d="M709.25,0 L709.25,358.5" stroke="black" stroke-dasharray="1.0,2.5,5.0,5.0,10.0,5.0"/>
<path d="M992.95,0 L992.95,358.5" stroke="black" stroke-dasharray="1.0,2.5,5.0,5.0,10.0,5.0"/>
<path d="M1276.65,0 L1276.65,358.5" stroke="black" stroke-dasharray="1.0,2.5,5.0,5.0,10.0,5.0"/>
<path d="M0,358.5 L1418.5,358.5" stroke="black" stroke-width="1"/>
<path d="M0,286.8 L1418.5,286.8" stroke="black" stroke-width="1"/>
<path d="M0,215.1 L1418.5,215.1" stroke="black" stroke-width="1"/>
<path d="M0,143.4 L1418.5,143.4" stroke="black" stroke-width="1"/>
<path d="M0,71.7 L1418.5,71.7" stroke="black" stroke-width="1"/>
<path d="M0,322.65 L1418.5,322.65" stroke="black" stroke-dasharray="1.0,2.5,5.0,5.0,10.0,5.0"/>
<path d="M0,250.95 L1418.5,250.95" stroke="black" stroke-dasharray="1.0,2.5,5.0,5.0,10.0,5.0"/>
<path d="M0,179.25 L1418.5,179.25" stroke="black" stroke-dasharray="1.0,2.5,5.0,5.0,10.0,5.0"/>
<path d="M0,107.55 L1418.5,107.55" stroke="black" stroke-dasharray="1.0,2.5,5.0,5.0,10.0,5.0"/>
<path d="M0,35.85 L1418.5,35.85" stroke="black" stroke-dasharray="1.0,2.5,5.0,5.0,10.0,5.0"/>
<path d="M0.2,172.4 L0.3,172.3 L0.4,171.9 L0.7,170.3 L1.2,166.0 L2.1,161.1 L2.2,161.6 L2.5,164.9 L2.7,165.6 L2.8,165.1 L3.1,163.7 L3.4,161.2 L4.0,157.6 L4.1,157.3 L4.2,157.6 L4.4,158.4 L4.9,159.7 L5.1,159.8 L5.3,160.0 L5.4,160.4 L6.4,160.2 L6.9,159.5 L7.1,159.4 L7.3,159.7 L7.5,160.0 L8.3,155.6 L8.8,151.4 L9.6,148.8 L9.9,148.4 L10.9,143.1 L11.0,143.0 L11.2,143.5 L11.4,144.9 L12.0,148.4 L12.3,149.0 L12.4,148.7 L12.6,147.5 L13.3,142.7 L13.5,142.1 L13.7,142.9 L14.0,144.5 L14.3,146.4 L14.7,145.7 L14.9,144.6 L15.1,142.8 L15.5,140.5 L15.6,140.6 L16.8,140.5 L17.4,138.2 L17.6,137.8 L17.8,137.7 L18.0,137.9 L18.1,138.3 L18.3,138.6 L18.7,139.9 L18.9,139.8 L19.0,139.4 L19.2,137.9 L19.3,137.3 L19.4,136.9 L19.6,136.8 L19.8,137.1 L20.2,136.8 L20.8,134.6 L21.0,134.1 L21.2,133.9 L21.4,134.0 L23.4,132.8 L24.1,133.4 L24.3,134.2 L25.0,132.9 L25.3,131.9 L25.5,130.0 L25.9,128.3 L26.1,128.3 L26.4,129.7 L26.6,130.5 L26.8,130.5 L27.0,130.2 L27.4,128.0 L27.5,126.6 L27.7,125.7 L27.8,124.9 L28.0,124.5 L28.1,124.3 L28.6,125.5 L29.9,122.1 L30.9,117.0 L31.0,116.8 L31.3,117.6 L32.2,120.9 L32.3,121.4 L32.5,122.1 L32.6,122.4 L32.8,122.3 L33.3,120.2 L35.2,117.4 L35.4,117.3 L35.8,116.6 L36.2,115.7 L36.6,115.4 L37.6,115.9 L38.0,115.9 L38.3,115.9 L38.7,115.8 L39.7,110.8 L40.0,110.1 L40.5,109.5 L40.7,109.1 L40.9,108.6 L41.1,108.2 L41.5,108.2 L42.1,109.1 L42.4,109.8 L43.4,110.2 L44.1,112.7 L44.7,114.8 L45.1,115.5 L45.4,116.1 L46.1,116.0 L46.3,115.8 L46.5,115.8 L46.6,116.2 L46.8,117.0 L47.2,119.7 L47.7,121.2 L48.7,122.2 L48.9,122.6 L49.3,123.2 L49.5,123.5 L49.7,123.9 L50.0,124.4 L50.2,124.7 L50.7,125.0 L50.8,125.0 L50.9,125.1 L51.1,125.3 L51.2,125.5 L51.8,126.4 L52.3,126.2 L52.4,126.0 L52.7,125.9 L52.8,126.0 L53.2,127.3 L53.4,127.7 L53.6,127.8 L53.9,128.1 L54.3,128.8 L54.7,129.1 L55.1,130.9 L55.6,131.5 L56.0,132.0 L56.5,133.0 L56.6,133.7 L56.9,134.9 L57.3,137.6 L58.5,141.3 L59.3,143.8 L59.6,144.2 L59.7,144.2 L60.0,144.3 L60.2,144.3 L60.7,144.8 L61.6,144.2 L61.9,144.4 L62.6,146.3 L63.0,147.3 L63.4,149.1 L63.9,150.9 L64.6,151.4 L64.8,151.7 L65.5,154.8 L65.6,155.4 L66.1,156.4 L67.0,159.6 L67.2,160.4 L67.6,161.5 L68.1,163.3 L68.4,163.6 L68.6,162.8 L68.9,160.4 L69.1,159.2 L69.3,158.6 L69.5,158.6 L69.7,159.3 L69.9,160.5 L70.3,163.8 L70.5,165.2 L70.7,165.7 L71.5,164.9 L72.5,170.6 L73.2,173.2 L73.5,175.1 L74.4,175.1 L74.7,175.5 L75.0,176.6 L75.6,179.0 L75.9,179.5 L76.3,179.2 L76.5,179.7 L76.9,181.2 L77.5,182.9 L78.3,187.1 L78.6,188.4 L79.1,189.5 L79.3,189.7 L80.0,187.2 L80.3,188.0 L81.3,192.0 L81.6,192.4 L82.3,190.5 L82.6,190.1 L82.8,190.6 L83.3,192.6 L84.1,196.0 L84.8,198.1 L84.9,198.0 L85.1,197.2 L85.3,197.1 L85.4,197.6 L86.0,200.0 L86.7,199.7 L87.1,201.3 L88.3,200.2 L89.8,207.7 L90.3,208.1 L90.6,207.8 L91.7,209.0 L93.3,211.4 L94.0,211.6 L94.5,211.8 L94.9,213.4 L95.7,216.9 L96.9,215.5 L97.5,219.4 L97.7,220.7 L98.5,223.3 L98.9,223.8 L99.1,223.8 L99.4,222.8 L100.4,221.6 L101.1,225.2 L101.9,230.1 L102.7,232.2 L104.3,236.1 L104.7,236.5 L105.7,242.2 L106.5,243.2 L107.3,244.5 L107.5,245.1 L107.6,245.3 L107.7,245.6 L107.9,245.9 L108.1,246.1 L108.6,246.8 L108.8,246.9 L109.0,247.2 L109.5,248.7 L110.0,249.8 L110.5,249.6 L111.2,249.5 L111.7,248.3 L112.2,247.6 L113.0,248.3 L113.2,248.2 L113.5,248.5 L114.5,251.2 L115.1,252.8 L115.3,252.5 L115.7,252.9 L115.8,253.2 L116.4,255.1 L116.9,256.2 L117.3,257.3 L118.2,258.7 L118.8,259.7 L119.7,259.2 L120.4,260.3 L120.5,260.5 L121.1,261.6 L121.4,261.5 L121.6,261.1 L122.0,259.7 L122.4,258.5 L122.6,257.3 L123.3,255.6 L123.6,255.5 L123.9,255.1 L126.0,252.9 L127.9,252.1 L128.6,251.6 L129.4,250.1 L130.5,249.2 L131.2,249.8 L132.3,246.3 L133.1,245.9 L133.9,244.2 L134.4,243.0 L134.9,242.2 L135.2,241.9 L135.4,241.9 L135.5,241.9 L135.6,241.9 L135.9,241.7 L136.3,242.0 L136.6,241.7 L137.3,236.9 L137.5,235.8 L137.7,235.3 L138.4,235.6 L139.0,235.9 L139.1,235.1 L139.2,233.3 L139.4,232.1 L139.4,231.9 L140.0,233.6 L140.4,233.3 L141.0,230.3 L141.3,230.7 L142.1,232.5 L142.7,232.8 L143.0,232.2 L143.5,229.9 L143.9,228.3 L144.5,226.2 L144.9,224.7 L145.3,222.9 L145.7,222.1 L145.9,222.0 L146.1,222.1 L146.6,223.0 L147.3,222.9 L148.0,221.8 L148.9,220.4 L149.5,220.2 L150.0,220.4 L150.2,220.5 L151.2,220.8 L152.1,223.6 L152.4,223.5 L152.7,223.3 L153.2,223.2 L153.8,221.9 L154.0,221.7 L154.3,221.4 L154.6,220.7 L155.2,220.4 L155.5,220.3 L155.8,220.2 L156.0,220.3 L156.3,221.1 L156.4,221.7 L156.6,222.5 L156.7,223.2 L158.6,228.3 L159.1,229.1 L159.4,229.8 L159.8,230.2 L160.6,231.3 L161.1,232.0 L161.8,232.8 L162.3,233.3 L162.9,233.0 L163.2,233.7 L164.1,234.9 L164.8,237.0 L165.5,239.8 L166.5,241.9 L167.4,242.6 L167.8,242.6 L168.0,242.6 L168.3,242.8 L168.8,243.4 L171.2,247.8 L171.5,248.3 L172.7,251.0 L173.8,255.4 L174.1,256.7 L174.3,257.0 L174.6,257.3 L174.9,256.4 L175.5,251.1 L175.7,249.8 L175.8,249.8 L176.0,250.9 L176.1,252.9 L176.4,255.8 L176.7,258.6 L176.8,258.8 L177.8,259.4 L178.1,260.3 L178.3,260.3 L178.7,259.6 L179.4,255.9 L179.6,255.5 L179.8,255.8 L179.9,256.5 L180.0,257.4 L180.4,260.1 L180.5,261.2 L180.7,262.0 L180.8,262.6 L181.0,263.2 L181.5,264.7 L182.0,265.6 L182.6,265.4 L182.8,265.2 L183.5,263.4 L183.7,263.1 L183.8,263.8 L184.0,265.3 L184.4,268.6 L184.7,270.3 L185.0,270.6 L185.6,268.6 L185.8,269.1 L186.0,270.3 L186.2,272.2 L186.4,273.6 L188.5,279.6 L189.0,279.0 L189.4,279.2 L190.4,281.2 L191.7,283.7 L192.9,284.0 L193.8,286.2 L196.0,289.3 L196.2,289.8 L197.0,290.9 L197.5,291.6 L197.9,292.7 L198.0,293.1 L198.1,293.6 L198.3,293.8 L198.4,293.9 L198.5,293.9 L198.8,293.6 L199.0,293.5 L199.3,293.3 L199.6,293.4 L200.0,294.1 L200.6,294.8 L200.8,295.0 L201.2,295.3 L201.4,295.4 L201.6,295.5 L201.7,295.7 L201.9,295.9 L202.5,296.3 L202.6,296.6 L202.9,297.1 L203.0,297.3 L203.3,298.1 L203.5,298.5 L203.6,298.8 L204.4,299.3 L204.5,299.1 L204.8,299.3 L205.3,299.5 L205.6,299.6 L205.9,299.7 L206.6,299.6 L206.9,299.7 L207.1,299.8 L207.5,300.1 L208.3,299.7 L208.4,299.6 L208.8,299.4 L209.6,299.8 L210.4,299.4 L210.8,299.6 L210.9,299.7 L211.6,300.1 L212.1,299.8 L212.3,299.7 L212.6,299.6 L213.3,299.7 L213.6,299.6 L213.9,299.5 L214.4,299.3 L214.7,299.1 L214.8,299.3 L215.6,298.8 L215.7,298.5 L215.8,298.1 L216.6,297.3 L216.9,297.4 L218.0,297.7 L218.2,297.6 L218.7,297.6 L219.0,298.4 L219.6,298.8 L219.9,298.8 L220.3,298.7 L220.5,298.6 L220.7,298.5 L221.6,297.7 L222.4,296.4 L222.6,296.0 L222.7,295.9 L223.0,295.6 L223.3,295.3 L223.4,295.2 L223.8,294.6 L224.2,293.4 L225.0,293.6 L226.2,295.1 L226.4,294.6 L226.8,294.0 L227.5,293.2 L228.0,292.8 L228.3,292.8 L228.5,292.7 L228.7,292.6 L229.2,291.9 L229.6,291.5 L230.5,290.6 L231.9,289.5 L232.2,289.5 L232.6,289.0 L232.9,289.0 L233.1,288.9 L233.7,288.2 L235.5,287.7 L236.0,287.2 L236.5,286.6 L237.3,285.4 L238.6,284.3 L239.2,285.2 L239.8,284.7 L240.1,284.2 L240.5,283.2 L241.0,283.6 L241.5,283.2 L242.9,280.8 L243.1,281.0 L243.8,281.3 L244.2,280.9 L245.0,280.6 L245.5,280.6 L245.8,280.3 L246.0,279.9 L246.3,279.0 L247.2,278.4 L247.8,278.0 L248.1,277.5 L248.3,277.3 L248.8,276.2 L249.8,273.0 L250.2,271.6 L250.5,269.7 L251.4,267.9 L251.9,267.2 L252.8,265.1 L253.2,264.2 L254.0,261.3 L254.6,259.3 L255.2,256.7 L255.8,253.0 L256.2,250.4 L256.4,249.1 L256.5,248.5 L256.7,248.1 L257.7,247.5 L257.9,246.4 L258.1,246.2 L258.3,246.0 L258.8,244.3 L259.0,243.6 L259.4,242.8 L259.8,242.4 L260.0,242.1 L260.9,239.6 L261.1,239.0 L261.9,237.7 L262.3,237.5 L262.9,236.6 L263.2,236.7 L263.6,237.0 L264.5,234.1 L264.8,233.5 L265.1,233.1 L265.9,231.2 L267.2,229.8 L267.4,229.8 L268.1,228.9 L269.2,227.8 L270.2,228.2 L270.5,227.3 L270.7,226.8 L271.0,226.5 L276.5,229.6 L277.1,232.3 L277.6,233.0 L278.8,232.0 L279.3,232.0 L279.6,231.6 L279.9,231.6 L280.1,231.4 L280.5,231.3 L281.1,230.9 L281.5,231.3 L282.5,232.6 L282.8,234.3 L283.1,235.8 L283.6,236.8 L284.1,235.9 L284.9,232.5 L285.2,231.0 L285.7,228.3 L286.5,224.7 L286.9,223.3 L287.8,221.8 L288.0,221.2 L289.3,220.6 L290.3,223.2 L290.9,222.2 L291.1,222.0 L291.3,223.3 L291.6,227.1 L292.9,225.0 L293.2,224.2 L293.5,223.7 L294.1,223.7 L295.1,223.7 L295.4,224.1 L295.5,224.1 L295.8,223.8 L295.9,223.7 L296.1,223.3 L297.1,220.9 L297.4,220.3 L297.7,219.4 L297.9,218.4 L298.5,217.2 L299.4,215.8 L299.4,215.5 L299.6,215.2 L300.2,213.5 L300.7,212.4 L301.0,212.0 L301.4,211.7 L301.8,210.9 L302.1,210.4 L302.4,209.9 L303.0,209.1 L303.2,208.4 L303.8,207.2 L304.1,206.7 L304.8,205.8 L304.9,205.7 L305.0,205.7 L305.1,205.6 L305.2,205.6 L305.5,205.9 L305.9,206.2 L306.4,206.4 L306.8,206.7 L306.9,206.8 L307.5,207.5 L308.0,207.8 L308.5,208.1 L308.9,208.5 L309.1,208.6 L309.4,208.8 L309.6,209.0 L309.9,209.4 L310.2,209.6 L310.4,209.7 L310.5,210.1 L311.1,211.5 L312.2,214.8 L313.0,216.8 L313.2,217.2 L313.7,218.7 L314.3,220.7 L315.2,223.2 L315.3,223.3 L316.0,225.4 L316.8,228.1 L317.1,229.5 L317.3,230.9 L317.6,232.8 L318.6,234.4 L319.5,235.9 L320.0,237.0 L320.3,237.6 L320.4,237.7 L320.7,237.6 L321.5,238.0 L322.3,237.8 L323.6,238.3 L324.1,237.3 L324.3,236.8 L324.7,235.7 L325.3,237.8 L325.5,238.4 L325.9,238.8 L326.4,239.8 L326.5,240.2 L326.8,241.2 L327.1,242.2 L327.5,242.6 L327.6,242.7 L327.7,242.8 L327.9,243.1 L328.1,243.2 L328.5,243.6 L328.8,243.7 L329.5,242.7 L329.7,242.6 L330.2,243.2 L330.6,244.3 L331.1,245.2 L331.3,245.6 L332.7,249.3 L333.0,249.7 L333.3,250.2 L333.9,250.6 L334.8,252.7 L335.2,253.2 L335.8,255.0 L336.2,256.3 L336.5,256.6 L337.2,257.3 L337.5,258.2 L337.7,258.8 L338.9,260.2 L339.5,261.6 L339.6,261.8 L339.9,263.1 L340.0,263.4 L340.3,264.3 L343.1,267.3 L344.5,265.7 L345.1,266.3 L346.0,268.2 L347.2,270.2 L347.8,270.7 L348.9,270.7 L350.1,273.0 L351.9,268.8 L352.3,269.1 L352.9,271.3 L353.9,271.5 L356.6,275.8 L358.1,278.4 L359.1,278.7 L359.6,279.1 L361.8,281.2 L362.5,282.6 L363.1,283.8 L365.9,286.8 L367.7,290.5 L368.0,291.0 L368.4,291.5 L368.9,291.2 L369.6,291.4 L370.3,292.6 L371.7,295.6 L373.7,295.8 L375.2,299.5 L376.6,299.8 L378.0,302.1 L379.1,300.8 L379.2,301.0 L379.4,301.5 L379.7,302.3 L379.8,302.5 L380.0,302.6 L380.1,302.4 L380.5,301.5 L380.7,300.9 L381.1,301.4 L381.5,302.8 L381.6,303.4 L382.3,304.6 L382.4,304.8 L383.6,306.2 L384.0,306.6 L384.4,306.9 L385.0,307.1 L385.5,307.6 L386.2,308.0 L386.9,307.9 L387.5,308.3 L388.0,309.0 L388.2,309.1 L388.4,309.3 L388.6,309.5 L388.7,309.6 L388.7,309.6 L389.7,309.4 L390.0,309.4 L390.3,309.6 L390.5,309.9 L391.3,310.9 L391.4,311.0 L392.5,311.5 L392.8,311.6 L393.2,311.8 L393.4,311.9 L393.5,311.9 L394.1,311.8 L394.4,311.7 L394.9,311.9 L395.8,312.5 L396.9,312.1 L398.3,312.5 L398.9,312.7 L401.1,313.4 L401.9,313.6 L402.3,313.3 L403.6,313.4 L404.4,313.5 L405.2,314.0 L405.3,314.2 L405.8,314.8 L406.4,314.5 L406.7,314.3 L406.8,314.2 L407.0,314.2 L407.6,314.6 L409.2,315.4 L409.3,315.4 L409.4,315.5 L409.7,315.4 L410.0,315.4 L410.3,315.4 L411.3,315.3 L411.7,315.7 L411.9,316.0 L413.0,316.3 L413.2,316.0 L413.6,315.6 L414.0,315.4 L414.1,315.3 L414.3,315.5 L414.4,315.4 L414.5,315.5 L414.6,315.7 L414.7,315.7 L414.8,315.9 L415.0,316.1 L416.7,315.7 L416.8,315.6 L416.9,315.4 L417.0,315.3 L417.2,315.3 L417.4,315.5 L417.8,315.4 L417.8,315.4 L417.9,315.4 L418.0,315.4 L418.3,315.5 L418.4,315.6 L419.7,316.4 L420.1,315.7 L420.2,315.5 L420.3,315.5 L420.8,315.0 L421.1,315.1 L421.5,315.1 L422.2,314.8 L422.4,314.8 L422.5,314.8 L422.9,314.8 L423.2,314.8 L423.3,314.9 L423.5,314.9 L423.6,314.9 L423.8,315.0 L424.7,314.8 L426.0,315.0 L426.2,315.0 L427.6,313.7 L427.8,313.4 L428.2,313.5 L428.8,313.5 L428.9,313.4 L429.0,313.4 L429.0,313.5 L429.2,313.4 L429.8,314.1 L429.9,314.0 L430.4,314.4 L430.8,314.4 L431.2,314.4 L432.5,314.1 L433.5,313.7 L434.5,314.2 L435.4,313.8 L435.6,313.8 L435.7,313.9 L435.9,314.0 L436.0,314.2 L436.2,314.1 L437.6,313.8 L438.5,314.1 L438.7,314.2 L439.4,314.7 L439.6,314.9 L439.9,315.0 L440.9,315.3 L442.2,314.5 L442.5,314.8 L442.7,315.1 L444.8,315.1 L445.0,315.0 L446.2,314.8 L447.4,314.4 L450.0,315.0 L451.5,314.5 L453.5,314.3 L454.9,314.4 L455.1,314.4 L456.1,314.0 L457.3,313.9 L457.8,313.5 L457.9,313.5 L458.0,313.7 L461.1,314.3 L461.2,314.4 L461.4,314.6 L463.7,316.5 L468.1,313.3 L470.3,314.1 L472.4,314.4 L474.5,314.4 L474.6,314.3 L474.7,314.2 L474.8,314.2 L474.9,314.2 L477.9,314.4 L480.4,314.9 L480.5,314.9 L480.7,314.9 L481.1,314.8 L483.0,315.2 L483.4,315.1 L483.6,315.2 L483.7,315.3 L483.7,315.3 L483.9,315.2 L483.9,315.2 L484.0,315.2 L484.3,314.8 L484.6,315.0 L485.3,314.8 L485.4,314.7 L485.5,314.7 L486.3,314.6 L486.4,314.8 L486.4,314.8 L487.0,315.5 L487.5,315.7 L487.7,315.7 L487.8,315.6 L488.0,315.5 L488.7,315.4 L488.8,315.3 L489.5,315.2 L489.9,314.9 L490.0,314.9 L490.1,314.9 L491.6,315.1 L494.0,314.6 L494.7,315.1 L495.2,314.9 L495.9,314.4 L497.0,314.4 L497.4,314.4 L497.5,314.4 L498.1,314.4 L498.3,314.3 L498.8,314.4 L499.0,314.5 L499.3,314.5 L499.7,314.8 L499.8,314.9 L500.1,315.2 L500.3,315.4 L500.8,316.1 L501.3,316.8 L502.2,316.7 L502.5,316.7 L503.4,317.4 L504.2,317.7 L504.4,317.9 L504.6,318.0 L504.7,318.0 L505.0,318.0 L506.3,317.7 L507.0,317.2 L508.2,317.3 L508.7,317.6 L509.1,317.4 L510.1,318.2 L510.3,318.3 L511.6,317.6 L514.0,318.9 L514.6,318.0 L515.5,317.0 L516.7,316.6 L517.9,316.2 L519.1,316.5 L519.8,315.8 L520.7,315.6 L521.1,315.7 L521.5,316.2 L521.9,316.8 L522.7,316.9 L523.4,316.8 L523.8,316.6 L524.3,315.7 L524.6,315.5 L525.4,316.2 L525.6,316.1 L526.3,316.7 L527.9,317.1 L528.9,317.1 L529.9,316.8 L530.4,317.2 L531.6,318.0 L532.6,317.6 L533.1,317.7 L533.4,317.6 L533.9,317.3 L534.1,317.3 L534.2,317.3 L534.3,317.2 L534.4,317.1 L534.6,316.9 L534.6,316.9 L534.8,316.8 L535.0,316.6 L535.2,316.5 L536.3,316.8 L537.8,318.0 L538.0,318.0 L538.8,317.5 L539.6,316.4 L540.5,317.0 L541.5,316.8 L542.9,317.1 L545.3,315.8 L548.4,316.4 L549.2,316.1 L550.0,315.6 L550.9,315.4 L553.0,315.2 L553.7,315.9 L554.0,316.8 L554.1,317.0 L556.6,317.3 L558.4,317.3 L560.4,317.1 L562.2,315.0 L562.8,314.8 L563.4,314.0 L564.7,315.3 L570.0,317.2 L574.4,316.5 L574.7,317.1 L578.9,318.1 L579.6,317.7 L580.2,317.4 L580.6,317.7 L581.3,318.2 L581.8,317.7 L582.0,317.4 L582.4,317.3 L586.0,318.0 L586.9,317.4 L587.6,317.0 L587.7,317.0 L587.9,317.0 L588.0,316.9 L588.6,317.1 L588.9,317.2 L589.0,317.2 L589.8,317.1 L590.8,317.2 L591.3,317.5 L592.1,317.7 L593.4,317.7 L593.5,317.7 L594.3,316.9 L595.7,318.0 L597.0,318.1 L597.4,317.9 L598.7,317.3 L599.5,317.3 L600.5,317.5 L601.3,317.0 L602.0,316.8 L602.8,317.1 L603.6,317.2 L603.8,317.1 L603.9,317.1 L604.1,317.2 L604.7,317.3 L604.9,317.3 L605.2,317.3 L605.5,317.4 L606.0,317.7 L606.6,318.2 L607.0,317.8 L607.3,317.5 L607.6,317.4 L608.0,317.7 L609.0,318.0 L609.3,318.0 L609.4,317.9 L609.5,317.8 L610.0,317.4 L610.9,316.8 L611.6,317.0 L611.9,317.2 L613.2,316.5 L615.2,316.8 L616.4,317.2 L617.1,317.2 L618.7,317.7 L618.9,317.9 L620.6,318.8 L621.3,318.8 L624.0,318.0 L624.3,318.0 L626.1,318.4 L626.3,318.2 L626.4,318.1 L626.8,317.7 L627.2,317.5 L627.7,317.4 L628.3,317.8 L630.3,318.5 L634.0,318.0 L637.5,317.8 L637.8,317.8 L641.2,317.5 L641.4,317.8 L641.7,318.1 L642.8,318.1 L643.9,317.8 L644.2,317.6 L644.4,317.5 L645.0,317.6 L651.1,317.8 L651.3,317.6 L651.6,317.3 L657.1,317.8 L662.5,318.7 L663.1,318.4 L665.7,316.3 L668.1,316.6 L669.5,317.0 L671.9,316.4 L672.1,316.6 L672.2,316.6 L672.3,316.8 L672.4,317.0 L672.5,317.1 L672.9,317.8 L673.2,317.8 L673.4,317.6 L674.0,317.6 L674.5,318.0 L675.0,318.6 L675.5,318.8 L675.9,319.0 L676.8,317.7 L677.5,317.8 L678.8,317.6 L679.1,317.1 L679.4,317.0 L679.7,317.1 L681.4,317.7 L681.8,317.5 L692.1,316.6 L692.3,316.6 L694.0,316.9 L694.4,316.9 L696.5,316.7 L698.9,317.8 L703.5,317.7 L704.1,317.8 L704.4,317.5 L704.9,317.1 L706.0,317.7 L707.0,316.8 L707.5,316.6 L708.2,316.9 L708.7,317.5 L711.9,317.3 L712.5,316.6 L712.7,317.1 L713.9,317.9 L714.8,317.7 L715.4,317.9 L715.9,317.8 L716.4,318.5 L716.9,319.6 L717.7,320.4 L718.1,320.2 L718.8,319.0 L719.8,319.1 L720.5,318.8 L721.0,318.6 L722.4,319.2 L723.1,319.4 L723.6,319.1 L723.8,319.0 L725.2,319.0 L726.4,319.8 L726.6,319.9 L727.3,319.4 L727.9,318.8 L728.6,318.9 L729.0,319.1 L729.6,318.5 L729.9,317.9 L730.4,316.8 L731.1,318.4 L731.9,319.0 L732.3,319.6 L732.8,320.2 L733.7,318.2 L734.0,317.8 L734.1,317.8 L734.3,317.7 L734.9,317.6 L735.4,317.9 L736.9,317.4 L738.6,318.5 L738.8,318.6 L739.3,318.5 L739.6,318.5 L740.0,318.8 L740.8,319.2 L741.0,319.2 L743.0,318.4 L743.5,318.7 L743.7,319.1 L743.8,319.3 L744.1,319.4 L744.8,318.8 L745.4,318.7 L746.9,319.4 L750.0,318.2 L750.2,318.2 L750.8,318.3 L751.1,318.4 L752.2,318.5 L752.5,319.1 L753.3,319.4 L760.3,319.0 L760.8,319.4 L761.2,319.1 L761.6,318.6 L763.9,317.9 L764.3,317.8 L764.9,318.0 L765.3,318.0 L766.1,318.6 L770.6,318.1 L774.2,317.9 L774.7,317.6 L776.4,317.5 L776.8,317.1 L778.5,317.5 L779.0,317.4 L780.2,318.1 L780.5,317.2 L780.9,317.3 L783.9,316.6 L789.4,317.8 L792.1,317.7 L797.7,317.8 L799.0,318.4 L799.2,318.6 L799.3,318.7 L799.7,319.0 L800.1,319.0 L800.4,318.8 L801.1,318.8 L801.3,318.8 L801.5,319.0 L801.6,319.2 L801.7,319.3 L801.9,319.5 L803.7,318.2 L803.9,318.1 L804.1,318.1 L804.2,318.0 L804.5,318.1 L805.9,316.8 L806.2,317.4 L806.4,317.8 L806.6,318.1 L807.2,319.0 L808.4,318.7 L809.5,319.4 L809.6,319.3 L809.8,319.2 L810.2,319.1 L810.4,319.1 L810.6,319.1 L810.7,319.1 L811.0,319.1 L811.5,318.8 L811.8,318.8 L816.1,320.5 L816.8,319.7 L817.2,319.5 L817.6,319.7 L817.8,319.8 L818.1,319.8 L819.3,319.9 L820.4,320.1 L820.7,320.0 L823.2,320.0 L823.6,320.1 L823.9,319.8 L824.3,319.3 L825.0,319.7 L825.6,319.5 L825.8,319.6 L826.0,319.6 L826.2,319.6 L826.3,319.6 L826.5,319.8 L826.7,319.9 L827.7,319.6 L829.5,320.9 L830.2,320.8 L833.9,320.3 L836.4,320.2 L837.2,320.2 L837.7,319.8 L838.2,319.4 L838.2,319.4 L838.5,319.3 L838.6,319.1 L838.8,319.0 L838.9,319.0 L839.1,319.2 L839.3,319.1 L839.4,319.1 L839.8,318.9 L840.6,319.2 L841.0,319.5 L841.0,319.5 L842.9,320.1 L843.3,320.2 L844.4,319.5 L844.6,319.5 L844.8,319.4 L844.9,319.4 L845.1,319.4 L845.5,319.4 L845.6,319.4 L846.2,319.2 L846.4,319.2 L846.8,318.9 L847.0,318.7 L847.0,318.7 L847.5,318.2 L847.6,318.1 L847.7,318.1 L847.8,318.0 L848.8,316.9 L850.1,317.1 L851.4,316.7 L851.5,316.4 L852.7,314.5 L853.0,314.5 L853.6,315.1 L853.8,315.3 L854.0,315.4 L854.3,315.7 L854.3,315.9 L854.6,316.2 L854.7,316.2 L854.8,316.3 L854.9,316.5 L855.4,316.4 L855.7,316.2 L856.2,316.1 L857.0,316.6 L857.4,316.9 L858.0,317.1 L858.1,317.1 L858.7,317.0 L858.8,317.1 L858.9,317.1 L859.1,317.0 L859.4,317.1 L859.6,317.5 L859.9,317.9 L860.2,318.3 L860.7,318.1 L861.0,318.0 L861.0,317.9 L861.4,317.8 L861.6,317.7 L861.7,317.5 L861.8,317.4 L861.9,317.4 L862.1,317.2 L862.2,317.1 L862.4,316.9 L862.6,316.6 L864.3,316.4 L865.4,315.9 L865.6,316.3 L865.8,316.7 L865.8,316.8 L865.9,316.7 L866.1,316.5 L866.3,316.3 L866.4,316.1 L866.8,315.8 L867.7,315.7 L869.1,315.0 L877.0,315.0 L880.5,312.4 L880.9,312.1 L881.1,312.0 L881.8,312.4 L887.1,313.2 L887.2,313.1 L891.0,314.3 L891.7,314.6 L893.0,314.4 L894.3,313.9 L898.4,313.4 L899.4,313.9 L899.7,313.7 L900.1,313.7 L901.1,313.2 L910.1,314.0 L912.1,314.2 L913.5,313.2 L916.9,312.9 L923.4,312.9 L923.8,312.8 L925.5,314.2 L927.8,314.4 L928.7,314.2 L929.3,314.6 L930.0,315.0 L934.3,313.9 L934.9,314.0 L935.9,313.5 L936.6,313.4 L937.6,313.1 L938.8,313.7 L939.6,315.4 L940.3,316.4 L941.7,316.9 L942.4,316.9 L943.5,317.7 L944.0,317.9 L945.6,316.7 L945.8,317.0 L946.2,317.5 L946.7,317.9 L947.1,318.0 L947.5,316.9 L948.0,315.6 L948.7,315.9 L949.6,317.7 L950.1,318.3 L950.7,318.8 L951.5,318.9 L952.2,320.1 L952.8,321.1 L953.0,321.3 L954.4,321.3 L955.0,321.3 L955.6,320.9 L956.9,321.3 L957.8,321.9 L958.1,322.2 L958.3,322.4 L958.4,322.5 L958.5,322.6 L958.6,322.6 L958.7,322.6 L958.9,322.5 L959.0,322.3 L959.5,321.9 L959.9,321.6 L959.9,321.5 L960.1,321.4 L960.7,320.8 L961.0,320.9 L961.2,321.2 L961.5,321.2 L962.2,321.0 L962.5,321.0 L963.5,321.0 L964.0,320.9 L964.5,320.8 L964.9,320.9 L965.8,321.3 L966.0,321.5 L966.8,321.2 L967.2,321.2 L967.5,321.1 L968.8,320.5 L970.1,320.8 L970.9,320.6 L971.4,320.1 L971.6,320.2 L972.3,320.6 L973.3,320.5 L974.6,320.9 L974.9,320.6 L975.2,320.7 L975.6,320.7 L975.7,320.7 L977.7,321.3 L978.3,321.4 L979.7,321.4 L979.8,321.4 L979.9,321.3 L980.3,321.3 L980.7,321.5 L980.9,321.7 L981.1,321.8 L984.2,321.5 L985.1,321.2 L985.6,321.0 L987.6,320.4 L988.3,320.5 L990.4,319.9 L990.6,319.9 L990.8,319.8 L991.0,319.5 L991.3,319.2 L994.8,318.8 L996.2,319.7 L996.5,319.9 L997.2,319.4 L997.4,319.0 L997.5,318.7 L997.6,318.7 L997.9,319.0 L998.1,319.2 L998.3,319.2 L998.5,319.2 L998.8,319.5 L1000.3,319.1 L1000.8,320.3 L1001.0,320.5 L1001.7,320.5 L1002.1,320.7 L1002.6,320.2 L1002.7,320.0 L1002.9,320.1 L1003.0,319.8 L1003.7,320.0 L1004.7,320.2 L1005.7,322.4 L1006.4,322.5 L1006.6,322.3 L1006.7,322.1 L1007.1,321.6 L1007.9,321.9 L1008.7,321.9 L1009.6,322.0 L1010.0,322.0 L1010.4,322.0 L1010.7,321.8 L1010.8,321.8 L1010.9,321.8 L1011.1,321.8 L1011.2,321.7 L1011.7,321.0 L1012.8,321.4 L1013.6,321.7 L1014.0,321.5 L1014.2,321.5 L1014.8,321.3 L1014.8,321.3 L1015.1,321.2 L1015.5,321.4 L1015.9,321.8 L1016.3,322.0 L1016.4,322.1 L1016.7,322.2 L1017.0,322.0 L1017.6,321.8 L1017.7,321.8 L1018.0,322.0 L1018.4,321.9 L1018.5,321.8 L1018.7,321.6 L1018.8,321.6 L1018.9,321.5 L1019.0,321.4 L1019.2,321.5 L1019.6,321.6 L1019.8,321.5 L1020.6,321.0 L1021.3,320.9 L1021.5,320.7 L1021.9,320.2 L1022.3,319.5 L1022.3,319.5 L1022.6,319.5 L1022.8,319.5 L1023.0,319.7 L1023.3,320.1 L1023.4,320.2 L1024.6,321.2 L1024.7,321.3 L1024.9,321.4 L1025.6,321.6 L1026.8,321.2 L1027.1,321.4 L1027.4,321.6 L1027.5,321.6" fill="transparent" id="track" stroke="black" stroke-width="2"/>
<g>
<circle cx="1027.458395586199" cy="321.6462" id="wp-36/circle" r="4"/>
<text font-size="16.0" id="wp-36/text" text-anchor="start" x="1029.458395586199" y="338.6462">
K4
</text>
<circle cx="1027.458395586199" cy="321.6462" fill="Gray" id="wp-1/circle" r="5"/>
<text font-size="16.0" id="wp-13/text" text-anchor="start" x="1029.458395586199" y="318.6462">
Wörth am Rhein
</text>
<circle cx="858.9036751253016" cy="317.09325" fill="Gray" id="wp-2/circle" r="3"/>
<text font-size="16.0" id="wp-1/text" text-anchor="start" x="860.9036751253016" y="334.09325">
Lauterbourg
</text>
<circle cx="497.4774460697254" cy="314.44035" fill="Gray" id="wp-3/circle" r="3"/>
<text font-size="16.0" id="wp-2/text" text-anchor="start" x="499.4774460697254" y="291.44035">
Iffezheim
</text>
<circle cx="427.8482685292297" cy="313.43655" fill="Gray" id="wp-4/circle" r="3"/>
<text font-size="16.0" id="wp-3/text" text-anchor="start" x="429.8482685292297" y="335.43655">
Sandweier
</text>
<circle cx="881.799928958756" cy="312.43275" fill="Gray" id="wp-5/circle" r="3"/>
<text font-size="16.0" id="wp-4/text" text-anchor="start" x="883.799928958756" y="309.43275">
Berg (Pfalz)
</text>
<circle cx="603.7562547854786" cy="317.1291" fill="Gray" id="wp-6/circle" r="3"/>
<text font-size="16.0" id="wp-5/text" text-anchor="start" x="605.7562547854786" y="314.1291">
Beinheim
</text>
<circle cx="734.2656760251502" cy="317.73855000000003" fill="Gray" id="wp-7/circle" r="3"/>
<text font-size="16.0" id="wp-6/text" text-anchor="start" x="736.2656760251502" y="309.73855000000003">
Munchhausen
</text>
<circle cx="305.8938772654892" cy="206.17335000000003" fill="Gray" id="wp-8/circle" r="3"/>
<text font-size="16.0" id="wp-8/text" text-anchor="start" x="307.8938772654892" y="203.17335000000003">
Ebersteinburg
</text>
<circle cx="391.43601325678264" cy="310.9629" fill="Gray" id="wp-9/circle" r="3"/>
<text font-size="16.0" id="wp-16/text" text-anchor="start" x="393.43601325678264" y="307.9629">
Haueneberstein
</text>
</g>
</g>
<g id="SL" transform="translate(0 0)">
<text text-anchor="end" x="0" y="363.5">
0
</text>
<text text-anchor="end" x="0" y="291.8">
200
</text>
<text text-anchor="end" x="0" y="220.1">
400
</text>
<text text-anchor="end" x="0" y="148.4">
600
</text>
<text text-anchor="end" x="0" y="76.69999999999999">
800
</text>
</g>
</g>
</svg>