<svg height="400" width="1420" xmlns="http://www.w3.org/2000/svg">
<g font-family="Libertinus Serif" font-size="15" id="world" shape-rendering="crispEdges">
<g id="BG"/>
<g id="SB" transform="translate(0 360)">
<text text-anchor="middle" x="0" y="14.5">
80
</text>
<text text-anchor="middle" x="202.6428571428571" y="14.5">
100
</text>
<text text-anchor="middle" x="405.28571428571433" y="14.5">
120
</text>
<text text-anchor="middle" x="607.9285714285714" y="14.5">
140
</text>
<text text-anchor="middle" x="810.5714285714286" y="14.5">
160
</text>
<text text-anchor="middle" x="1013.2142857142857" y="14.5">
180
</text>
<text text-anchor="middle" x="1215.8571428571427" y="14.5">
200
</text>
</g>
<g id="SD" transform="translate(0 0)">
<path d="M0,0 L0,358.5 L1418.5,358.5 L1418.5,0 L0,0" fill="lightgray" id="bg"/>
<path d="M0,0 L1418.5,0" stroke="black" stroke-width="3"/>
<path d="M0,0 L0,358.5" stroke="black" stroke-width="3"/>
<path d="M0,358.5 L1418.5,358.5" stroke="black" stroke-width="3"/>
<path d="M1418.5,0 L1418.5,358.5" stroke="black" stroke-width="3"/>
<path d="M0,0 L0,358.5" stroke="black" stroke-width="1"/>
<path d="M202.64285,0 L202.64285,358.5" stroke="black" stroke-width="1"/>
<path d="M405.2857,0 L405.2857,358.5" stroke="black" stroke-width="1"/>
<path d="M607.9286,0 L607.9286,358.5" stroke="black" stroke-width="1"/>
<path d="M810.5714,0 L810.5714,358.5" stroke="black" stroke-width="1"/>
<path d="M1013.2143,0 L1013.2143,358.5" stroke="black" stroke-width="1"/>
<path d="M1215.8572,0 L1215.8572,358.5" stroke="black" stroke-width="1"/>
<path d="M101.32143,0 L101.32143,358.5" stroke="black" stroke-dasharray="1.0,2.5,5.0,5.0,10.0,5.0"/>
<path d="M303.9643,0 L303.9643,358.5" stroke="black" stroke-dasharray="1.0,2.5,5.0,5.0,10.0,5.0"/>
<path d="M506.60715,0 L506.60715,358.5" stroke="black" stroke-dasharray="1.0,2.5,5.0,5.0,10.0,5.0"/>
<path d="M709.25,0 L709.25,358.5" stroke="black" stroke-dasharray="1.0,2.5,5.0,5.0,10.0,5.0"/>
<path d="M911.8929,0 L911.8929,358.5" stroke="black" stroke-dasharray="1.0,2.5,5.0,5.0,10.0,5.0"/>
<path d="M1114.5358,0 L1114.5358,358.5" stroke="black" stroke-dasharray="1.0,2.5,5.0,5.0,10.0,5.0"/>
<path d="M1317.1786,0 L1317.1786,358.5" stroke="black" stroke-dasharray="1.0,2.5,5.0,5.0,10.0,5.0"/>
<path d="M0,358.5 L1418.5,358.5" stroke="black" stroke-width="1"/>
<path d="M0,310.7 L1418.5,310.7" stroke="black" stroke-width="1"/>
<path d="M0,262.9 L1418.5,262.9" stroke="black" stroke-width="1"/>
<path d="M0,215.1 L1418.5,215.1" stroke="black" stroke-width="1"/>
<path d="M0,167.3 L1418.5,167.3" stroke="black" stroke-width="1"/>
<path d="M0,119.5 L1418.5,119.5" stroke="black" stroke-width="1"/>
<path d="M0,71.7 L1418.5,71.7" stroke="black" stroke-width="1"/>
<path d="M0,23.9 L1418.5,23.9" stroke="black" stroke-width="1"/>
<path d="M0,334.6 L1418.5,334.6" stroke="black" stroke-dasharray="1.0,2.5,5.0,5.0,10.0,5.0"/>
<path d="M0,286.8 L1418.5,286.8" stroke="black" stroke-dasharray="1.0,2.5,5.0,5.0,10.0,5.0"/>
<path d="M0,239 L1418.5,239" stroke="black" stroke-dasharray="1.0,2.5,5.0,5.0,10.0,5.0"/>
<path d="M0,191.2 L1418.5,191.2" stroke="black" stroke-dasharray="1.0,2.5,5.0,5.0,10.0,5.0"/>
<path d="M0,143.4 L1418.5,143.4" stroke="black" stroke-dasharray="1.0,2.5,5.0,5.0,10.0,5.0"/>
<path d="M0,95.6 L1418.5,95.6" stroke="black" stroke-dasharray="1.0,2.5,5.0,5.0,10.0,5.0"/>
<path d="M0,47.8 L1418.5,47.8" stroke="black" stroke-dasharray="1.0,2.5,5.0,5.0,10.0,5.0"/>
<path d="M0,0 L1418.5,0" stroke="black" stroke-dasharray="1.0,2.5,5.0,5.0,10.0,5.0"/>
<path d="M0.4,242.7 L1.3,239.6 L1.6,239.7 L1.8,239.8 L3.3,235.3 L4.0,233.7 L4.4,232.5 L5.0,231.0 L5.1,231.0 L5.2,231.0 L5.3,231.2 L5.4,231.7 L5.4,231.7 L5.7,232.4 L5.8,232.5 L5.9,232.1 L6.1,231.0 L6.2,230.4 L6.3,230.2 L6.6,230.6 L6.7,230.4 L6.9,229.7 L7.1,228.6 L7.6,225.9 L7.9,224.3 L8.1,222.7 L8.5,220.8 L8.6,220.0 L8.7,219.8 L8.8,220.2 L9.5,220.6 L9.7,221.3 L10.1,220.2 L11.6,209.5 L11.9,209.7 L12.2,212.5 L12.5,213.8 L13.2,214.6 L13.6,213.3 L14.2,211.4 L14.6,209.5 L15.1,208.4 L15.4,208.4 L15.6,208.1 L16.5,207.4 L16.6,206.9 L17.2,205.3 L17.9,207.5 L18.1,207.5 L18.7,204.8 L19.6,201.3 L19.7,200.8 L20.1,199.6 L20.6,199.3 L22.0,193.3 L23.0,190.5 L23.3,190.4 L23.7,189.7 L23.8,189.7 L24.2,191.0 L24.5,192.1 L24.9,192.8 L25.6,193.2 L26.4,193.6 L26.8,194.7 L27.1,195.2 L27.7,196.2 L28.2,197.2 L28.4,197.7 L28.6,198.3 L29.0,199.5 L29.3,199.7 L30.0,200.2 L30.3,200.1 L30.9,201.2 L31.0,201.6 L31.4,202.7 L31.8,203.5 L32.6,205.6 L32.8,206.4 L33.2,208.4 L33.4,209.0 L33.9,208.4 L34.1,208.8 L34.2,209.0 L34.4,209.5 L34.5,210.0 L34.9,210.5 L35.5,211.1 L35.7,211.6 L36.0,213.1 L37.5,217.4 L37.8,218.4 L38.1,219.4 L38.3,219.8 L38.6,219.8 L38.8,220.2 L39.1,220.6 L39.2,220.6 L39.5,220.2 L39.7,219.9 L39.8,219.4 L40.2,218.7 L40.4,218.6 L41.4,218.7 L42.1,221.9 L43.4,223.2 L43.8,222.9 L43.9,223.1 L44.0,223.8 L44.2,223.4 L45.5,218.8 L45.7,218.5 L46.2,217.8 L46.8,215.8 L47.4,214.3 L47.8,213.8 L48.2,212.9 L49.1,210.8 L49.3,210.4 L49.4,209.8 L50.1,206.9 L50.5,205.7 L50.9,204.2 L51.1,203.2 L51.2,203.0 L51.3,203.1 L51.5,204.5 L51.9,204.2 L52.1,203.3 L52.3,202.0 L53.4,197.2 L53.7,196.3 L53.9,196.0 L54.0,195.4 L54.4,193.0 L54.6,192.5 L54.7,192.5 L54.8,192.8 L55.4,192.6 L55.6,191.5 L55.9,191.0 L56.0,190.8 L56.6,190.9 L56.9,190.7 L57.4,188.7 L57.6,188.3 L57.9,188.0 L58.1,187.4 L58.2,186.9 L58.6,185.9 L58.8,186.3 L59.2,185.3 L60.0,180.8 L60.4,178.7 L61.0,181.0 L61.3,181.1 L61.6,180.7 L62.0,179.0 L62.3,178.3 L63.2,176.4 L63.4,176.0 L63.7,175.3 L64.2,173.1 L64.5,173.9 L64.8,175.5 L65.5,177.2 L65.7,177.4 L66.6,175.0 L67.8,173.8 L68.0,172.8 L68.2,172.7 L69.1,172.0 L69.6,172.6 L72.0,171.6 L73.2,170.9 L73.6,171.4 L74.7,172.0 L75.7,172.4 L75.8,171.8 L75.9,171.4 L76.3,170.1 L76.7,170.3 L77.1,170.9 L77.3,171.1 L77.7,170.0 L77.7,169.9 L77.8,169.7 L77.9,169.5 L78.1,169.2 L78.4,168.8 L79.1,168.0 L79.3,168.1 L79.4,168.2 L80.0,167.4 L80.5,166.7 L80.7,166.8 L81.6,166.9 L82.0,166.4 L82.4,166.5 L82.7,167.6 L83.0,168.6 L83.2,168.8 L83.4,168.2 L85.6,165.9 L86.6,166.5 L87.5,166.6 L88.1,167.2 L88.5,167.8 L89.0,169.2 L89.8,173.5 L90.3,173.6 L90.6,174.2 L91.0,175.1 L91.4,175.5 L91.6,175.7 L92.2,175.4 L92.5,175.8 L93.0,176.8 L93.3,177.8 L93.8,179.5 L94.9,179.8 L95.3,180.2 L95.7,180.0 L96.1,180.1 L96.4,180.9 L96.7,181.5 L97.7,180.3 L99.7,183.2 L100.7,185.4 L101.4,185.8 L101.7,186.1 L102.0,186.5 L102.2,186.8 L102.9,189.3 L103.3,188.7 L103.6,187.5 L103.8,187.1 L104.3,187.9 L104.7,189.2 L105.0,190.1 L105.4,192.6 L105.6,193.5 L105.7,194.0 L105.9,194.3 L106.2,194.5 L107.1,198.0 L107.4,198.8 L108.7,200.7 L109.0,201.0 L109.1,200.7 L109.2,199.4 L109.8,196.7 L110.2,198.2 L110.4,199.2 L110.6,197.8 L110.9,198.3 L111.3,200.9 L111.9,205.4 L112.1,205.3 L112.4,204.2 L112.7,204.5 L113.0,204.2 L113.2,204.0 L114.0,208.0 L114.2,208.4 L114.5,210.5 L114.8,212.0 L115.1,213.5 L115.3,213.7 L115.7,215.4 L116.1,216.2 L116.5,218.2 L117.0,219.4 L118.0,221.2 L118.5,223.1 L118.8,223.4 L119.0,224.0 L119.4,227.0 L119.6,228.5 L119.8,229.0 L120.0,229.3 L120.2,229.5 L120.6,231.1 L121.2,230.8 L121.5,231.4 L121.7,232.1 L122.0,232.7 L122.7,233.2 L122.8,233.0 L122.9,233.0 L123.0,232.4 L123.2,232.0 L123.3,232.2 L123.5,233.5 L124.1,235.6 L124.7,237.5 L125.1,239.2 L125.5,239.4 L126.4,239.5 L127.2,241.8 L127.5,242.8 L128.4,245.1 L128.5,245.6 L128.7,245.9 L129.2,246.6 L129.9,247.4 L130.5,247.9 L130.8,249.3 L131.4,252.0 L131.6,251.9 L131.8,252.3 L132.4,255.1 L133.1,257.3 L133.2,257.4 L133.8,257.0 L134.5,258.3 L134.9,258.8 L135.4,259.2 L136.4,260.9 L137.0,262.9 L137.4,264.1 L137.7,264.7 L138.2,263.9 L138.8,260.9 L139.6,262.7 L140.4,263.0 L141.8,266.3 L142.0,266.4 L142.6,268.0 L142.8,269.0 L142.9,269.4 L143.3,270.5 L145.0,271.1 L146.2,273.5 L146.3,274.1 L146.7,276.9 L146.8,277.5 L147.6,278.3 L148.1,279.3 L148.2,279.4 L148.3,279.6 L148.4,279.6 L148.4,279.6 L149.0,278.9 L149.2,278.7 L149.4,278.8 L149.6,279.0 L149.8,279.0 L150.4,278.8 L151.5,280.5 L151.7,280.0 L152.0,279.5 L152.2,278.9 L152.7,277.7 L152.9,278.1 L153.2,278.9 L153.4,279.1 L153.7,278.8 L154.0,279.6 L154.5,281.5 L154.7,281.9 L154.8,282.3 L155.3,282.4 L155.5,282.5 L155.8,282.8 L156.5,283.5 L156.7,283.9 L157.4,283.9 L157.5,283.8 L157.7,283.8 L157.8,283.9 L158.0,283.5 L158.6,282.8 L159.0,283.0 L159.5,283.1 L159.7,283.7 L160.0,283.7 L160.3,283.0 L160.5,283.3 L161.0,283.3 L161.2,283.0 L161.6,282.2 L161.9,281.9 L162.9,278.9 L163.1,279.5 L163.7,282.4 L163.9,282.2 L164.1,282.1 L164.5,281.6 L165.3,281.0 L166.4,281.2 L167.1,280.6 L167.4,280.8 L167.9,281.1 L168.4,280.6 L168.6,280.6 L168.9,280.6 L169.6,280.9 L170.5,280.4 L170.8,280.8 L171.3,280.7 L171.6,280.7 L172.0,280.4 L173.9,279.2 L174.1,279.2 L174.5,279.0 L174.6,278.7 L175.0,278.4 L175.2,278.5 L175.6,278.7 L176.0,277.0 L176.4,276.5 L176.8,276.9 L177.5,278.6 L177.7,278.2 L177.9,277.5 L178.3,277.8 L178.5,277.9 L179.4,277.5 L179.6,277.5 L179.7,277.2 L180.3,275.6 L181.0,274.9 L181.3,275.2 L181.6,275.6 L181.9,275.8 L183.5,274.6 L183.7,274.9 L184.2,273.9 L185.0,274.5 L186.3,271.6 L186.9,272.7 L187.4,273.1 L188.3,273.6 L188.8,274.2 L188.9,274.2 L189.2,274.3 L190.1,272.7 L190.4,271.4 L190.7,270.6 L191.0,270.3 L191.4,270.7 L192.1,270.8 L192.3,270.5 L193.3,271.4 L193.7,272.6 L194.0,272.2 L194.3,271.6 L194.5,271.8 L195.3,271.1 L195.7,270.7 L195.8,270.7 L195.9,270.8 L196.3,271.7 L197.7,273.4 L197.7,273.3 L197.9,272.6 L198.0,272.0 L199.2,270.0 L199.4,269.2 L199.8,268.9 L201.8,270.9 L202.0,270.9 L202.3,270.5 L203.1,269.8 L203.2,270.1 L203.5,270.8 L203.7,270.4 L204.0,268.6 L204.2,267.4 L205.1,268.1 L205.6,267.1 L206.0,265.4 L206.7,264.8 L208.0,268.5 L208.5,268.5 L209.1,267.6 L209.5,267.4 L209.8,267.5 L210.1,267.5 L210.4,266.7 L210.7,266.1 L211.2,266.7 L211.5,266.7 L211.6,266.6 L212.0,266.1 L212.5,264.6 L212.6,262.6 L212.9,259.2 L213.2,257.4 L213.5,258.3 L213.9,260.2 L214.3,262.8 L214.7,264.9 L215.2,265.6 L215.7,265.4 L216.0,265.8 L216.2,266.0 L216.3,266.1 L216.5,266.2 L216.7,266.1 L217.0,265.8 L217.2,265.9 L217.5,265.6 L218.4,263.9 L218.6,263.4 L219.0,263.6 L220.0,259.2 L220.4,258.4 L220.5,258.4 L220.6,258.4 L221.1,258.8 L222.2,257.7 L222.5,257.4 L223.3,257.8 L223.7,257.2 L225.8,253.9 L226.4,254.8 L226.6,255.0 L226.9,254.1 L227.1,253.8 L227.5,253.6 L227.7,253.5 L228.5,250.4 L228.6,249.7 L228.7,249.5 L228.8,249.7 L228.9,250.3 L229.1,252.0 L229.5,252.2 L230.5,250.3 L231.1,248.6 L231.5,246.3 L231.8,246.0 L232.0,246.9 L232.3,247.8 L232.5,247.9 L232.7,247.7 L233.1,248.2 L233.4,247.8 L233.5,247.4 L233.8,247.3 L234.1,246.9 L234.8,243.6 L235.0,244.3 L235.2,244.2 L235.7,244.2 L235.7,244.4 L235.9,245.2 L236.0,245.3 L236.3,245.2 L236.4,245.3 L236.6,245.5 L237.2,244.8 L237.3,244.4 L237.7,244.0 L237.8,243.7 L238.0,243.3 L238.1,243.4 L238.4,243.0 L238.5,243.0 L238.9,241.7 L239.1,241.2 L239.2,240.9 L240.5,235.8 L240.7,236.2 L240.8,236.5 L241.2,238.4 L241.6,238.2 L241.8,238.6 L242.2,238.8 L242.4,238.5 L242.9,238.5 L243.5,236.6 L243.8,236.4 L244.1,235.1 L244.5,233.7 L245.1,232.0 L245.5,231.1 L246.0,232.4 L247.1,230.1 L247.3,230.0 L247.4,230.0 L247.7,229.6 L247.8,229.2 L248.2,227.8 L248.4,226.9 L248.6,226.4 L249.4,226.0 L249.5,226.0 L249.7,226.1 L249.8,225.9 L250.0,225.6 L250.4,225.2 L250.5,224.8 L250.9,223.7 L251.2,222.7 L251.5,222.8 L251.9,224.4 L252.1,224.7 L252.3,224.5 L252.5,223.9 L252.7,223.0 L253.4,221.8 L253.7,221.7 L253.9,221.5 L254.5,219.9 L254.6,218.7 L254.7,218.0 L254.8,217.5 L254.9,217.4 L255.1,217.0 L255.7,215.7 L256.3,215.2 L256.6,214.7 L257.2,215.1 L258.1,214.0 L258.7,212.4 L259.1,211.8 L260.1,212.8 L260.5,212.6 L260.7,212.4 L261.5,210.5 L261.7,210.2 L262.6,208.9 L263.9,210.8 L264.7,207.1 L265.1,207.5 L265.5,208.0 L265.6,207.8 L265.6,207.7 L265.9,206.3 L266.8,203.5 L267.2,202.7 L267.9,202.1 L268.9,200.3 L269.1,200.1 L269.2,199.8 L269.3,199.4 L269.4,199.1 L269.4,199.1 L269.9,199.2 L270.5,199.2 L270.9,199.7 L271.0,199.6 L271.6,198.8 L272.1,200.3 L272.2,200.5 L272.3,200.5 L272.5,199.8 L272.8,198.3 L273.3,197.9 L273.7,196.0 L274.8,196.7 L274.9,196.7 L275.0,196.7 L275.2,196.0 L275.3,195.0 L275.8,192.4 L276.0,191.8 L276.1,191.3 L276.4,191.2 L277.6,190.9 L277.7,190.9 L278.1,190.1 L278.4,188.5 L278.5,188.1 L279.1,187.9 L279.5,187.5 L279.7,186.9 L279.9,186.1 L280.1,185.4 L280.3,185.5 L280.7,186.8 L280.9,186.6 L283.3,182.5 L283.8,182.0 L284.2,181.6 L284.6,181.6 L284.8,181.2 L285.0,180.6 L285.2,179.9 L286.3,177.4 L286.7,176.3 L286.9,175.9 L287.0,175.9 L287.2,176.1 L287.4,176.4 L287.7,176.9 L287.8,177.4 L288.0,177.9 L288.3,178.4 L288.9,179.5 L289.1,179.7 L289.3,179.7 L289.8,179.9 L289.9,180.3 L290.0,181.2 L290.2,182.2 L290.3,182.6 L290.4,182.5 L290.8,181.4 L291.4,181.4 L291.9,181.6 L293.3,183.7 L293.9,183.0 L294.3,183.3 L294.6,184.3 L294.9,184.8 L295.1,185.2 L295.7,187.9 L295.9,188.4 L296.1,188.6 L296.4,189.8 L296.6,190.3 L297.1,189.3 L297.2,189.0 L297.4,189.0 L297.5,189.3 L298.1,191.7 L298.8,191.2 L299.2,190.7 L299.6,191.1 L300.4,196.2 L300.5,196.8 L300.8,197.4 L301.0,197.7 L301.6,196.8 L301.8,198.2 L301.9,199.2 L302.1,201.0 L302.2,201.2 L303.1,199.6 L303.4,200.3 L303.8,200.4 L304.6,198.7 L304.9,200.2 L305.4,203.1 L306.2,207.1 L306.6,207.4 L307.1,207.7 L307.7,205.5 L307.9,206.0 L308.1,207.4 L308.5,210.2 L308.7,211.0 L309.5,211.8 L309.8,212.2 L310.2,211.0 L310.4,211.4 L310.4,211.6 L310.5,211.5 L310.6,211.6 L310.7,211.7 L311.9,213.5 L312.3,214.7 L312.7,215.8 L313.1,216.5 L313.3,216.9 L313.4,217.4 L314.1,219.3 L314.7,221.6 L315.0,222.9 L315.6,224.5 L315.7,225.1 L315.9,226.6 L316.2,227.3 L316.3,226.9 L316.5,226.8 L317.4,226.6 L318.2,229.2 L318.3,229.6 L318.8,230.7 L319.1,230.7 L319.5,232.2 L320.6,235.4 L321.7,239.3 L322.4,241.8 L322.7,242.8 L322.9,242.8 L323.0,242.7 L323.3,242.5 L323.8,241.2 L324.2,239.2 L324.5,240.0 L324.7,241.1 L325.1,242.1 L325.3,242.7 L325.5,243.2 L325.6,244.0 L326.2,246.1 L327.0,247.2 L327.2,247.8 L327.3,247.8 L327.6,247.7 L328.0,247.6 L328.8,249.8 L329.0,249.9 L329.4,250.2 L329.5,250.2 L329.8,250.3 L329.9,250.6 L329.9,251.1 L330.7,253.3 L330.9,253.6 L331.0,254.0 L331.4,254.8 L331.8,254.2 L332.1,254.0 L332.9,255.7 L333.4,256.2 L334.1,257.6 L334.4,257.8 L335.4,257.6 L335.5,257.4 L335.7,257.4 L336.6,257.9 L337.0,258.6 L337.6,258.9 L337.9,257.9 L338.1,257.2 L338.3,256.7 L338.5,256.7 L338.8,257.1 L339.2,258.0 L339.4,258.2 L339.7,259.3 L339.9,259.5 L340.3,259.4 L340.4,259.1 L340.8,259.0 L341.4,258.8 L341.9,258.8 L342.1,259.5 L342.2,260.2 L342.6,261.8 L342.7,262.4 L342.9,262.9 L343.3,263.4 L343.5,263.8 L343.8,264.3 L343.9,264.4 L344.3,264.3 L344.7,264.7 L345.0,264.8 L345.0,264.8 L345.2,264.7 L345.2,264.8 L345.4,264.9 L345.5,264.9 L345.6,265.0 L345.7,265.0 L345.9,265.2 L346.0,265.2 L346.6,264.9 L347.7,264.5 L348.4,263.9 L349.1,263.5 L349.2,263.4 L349.4,263.2 L349.7,263.0 L350.0,262.8 L350.4,262.0 L350.6,261.4 L350.8,261.0 L351.7,260.7 L352.1,260.8 L352.2,260.6 L352.6,259.7 L353.8,259.8 L354.0,260.0 L354.3,260.5 L354.9,260.6 L355.1,260.4 L355.4,260.0 L355.6,259.7 L355.7,259.6 L356.3,257.8 L356.8,256.9 L357.5,255.2 L357.6,255.3 L359.3,254.4 L360.9,252.4 L361.0,252.6 L361.3,253.8 L361.7,255.7 L362.3,254.8 L362.7,255.5 L362.9,255.9 L363.1,256.0 L363.1,256.0 L363.7,254.8 L363.9,254.4 L364.1,254.2 L364.5,254.2 L364.7,253.2 L365.2,252.0 L365.8,251.2 L366.0,251.1 L366.1,251.0 L366.4,251.0 L366.9,252.0 L367.2,252.5 L367.5,252.1 L367.6,251.4 L368.0,249.7 L368.2,248.8 L368.6,248.1 L369.0,248.6 L369.7,249.8 L369.9,250.1 L370.0,250.3 L370.2,250.0 L370.6,249.6 L371.2,249.3 L371.9,247.8 L372.5,249.3 L372.6,249.6 L373.3,249.6 L373.8,249.6 L374.5,249.7 L374.6,249.5 L375.1,248.7 L375.4,248.0 L375.6,247.5 L375.7,247.2 L376.0,247.1 L376.1,247.3 L376.2,247.7 L376.4,247.7 L376.7,247.6 L376.9,247.7 L377.2,248.0 L377.9,248.3 L378.7,248.0 L378.8,247.9 L379.3,247.6 L379.8,246.6 L380.1,246.1 L380.4,245.8 L380.6,246.0 L380.7,246.0 L380.8,246.1 L381.1,246.3 L381.5,246.5 L381.8,246.4 L382.0,245.9 L382.1,245.8 L382.2,245.5 L382.4,244.9 L383.0,244.7 L383.2,244.3 L383.6,243.9 L384.0,243.0 L384.2,243.1 L384.4,243.2 L384.5,243.1 L385.3,242.1 L385.3,242.0 L385.5,242.2 L385.8,241.6 L386.3,239.8 L386.8,238.8 L387.2,237.1 L388.0,234.7 L388.2,234.8 L389.0,234.9 L389.7,234.0 L389.8,233.7 L390.9,230.1 L391.0,229.9 L391.1,229.8 L391.8,227.3 L392.5,225.1 L393.6,224.9 L393.9,224.7 L394.2,223.8 L394.8,222.1 L395.2,221.0 L396.0,220.5 L396.6,219.1 L396.8,218.5 L397.1,217.5 L397.5,217.0 L398.0,218.2 L398.2,218.0 L398.3,217.6 L398.4,217.4 L398.5,217.0 L398.6,216.2 L398.7,215.7 L398.8,215.3 L399.4,215.7 L399.5,215.7 L399.7,215.5 L400.2,214.1 L400.7,213.4 L400.8,213.0 L401.1,211.8 L401.3,211.0 L401.8,208.2 L402.4,207.1 L402.7,206.6 L403.0,206.5 L403.4,206.1 L403.7,205.3 L404.0,204.7 L404.3,204.6 L404.4,203.8 L404.5,203.0 L404.6,202.5 L405.0,203.2 L405.2,203.1 L406.1,202.5 L406.2,202.4 L406.3,202.1 L406.4,201.4 L406.5,201.0 L407.0,200.7 L407.3,199.8 L408.8,194.5 L409.2,193.0 L409.5,192.9 L409.7,192.9 L409.8,193.0 L409.9,192.9 L410.1,192.7 L410.4,192.3 L410.8,192.7 L411.0,193.4 L411.4,194.2 L411.8,193.8 L412.3,192.9 L412.4,192.6 L412.4,191.9 L412.6,191.4 L413.2,191.8 L413.4,191.7 L413.4,191.4 L413.5,190.5 L413.6,189.8 L413.8,189.7 L414.0,189.5 L414.1,189.2 L414.2,188.8 L414.9,187.0 L416.3,183.9 L416.5,183.2 L416.9,183.0 L417.1,183.2 L417.9,183.1 L418.2,181.8 L418.3,181.2 L418.4,180.9 L418.5,180.7 L418.6,180.3 L419.2,177.9 L419.4,177.1 L419.7,176.4 L420.9,173.4 L421.7,172.6 L421.8,172.1 L421.9,171.2 L421.9,170.6 L422.0,170.4 L422.2,171.1 L422.5,171.3 L423.4,172.4 L423.5,172.9 L423.5,173.2 L423.6,173.2 L423.7,173.0 L423.8,172.7 L424.1,171.1 L424.4,169.7 L425.4,166.1 L425.9,164.8 L427.0,163.4 L427.6,162.4 L427.7,162.1 L427.9,162.4 L428.2,163.0 L429.1,162.5 L429.9,161.6 L430.9,159.3 L431.5,158.3 L431.9,157.5 L432.3,156.7 L432.6,155.3 L433.9,153.2 L434.8,151.4 L436.0,149.1 L436.3,148.5 L437.1,147.5 L437.9,146.9 L439.7,143.6 L440.3,142.8 L441.1,142.1 L441.3,141.8 L441.6,141.1 L442.1,139.9 L443.1,138.8 L443.4,138.4 L443.7,138.0 L444.9,135.0 L445.2,134.6 L446.2,133.6 L446.7,133.0 L447.1,133.5 L447.4,133.4 L448.8,130.4 L449.2,130.8 L449.9,131.2 L450.2,131.0 L451.9,128.9 L452.3,128.6 L452.9,128.4 L455.8,127.5 L455.9,127.3 L456.0,127.3 L456.1,127.3 L456.1,127.2 L456.4,127.1 L457.1,127.9 L457.2,128.0 L457.5,128.1 L457.9,128.0 L458.3,128.1 L458.6,128.3 L458.7,128.3 L459.0,128.3 L459.7,128.6 L459.9,128.8 L460.8,130.0 L460.9,130.1 L460.9,130.2 L461.2,130.5 L461.4,130.7 L464.4,132.0 L464.9,132.2 L465.1,132.0 L465.8,131.1 L466.5,130.7 L466.8,130.8 L466.9,130.9 L468.0,131.6 L468.5,132.1 L469.2,133.1 L469.6,133.4 L470.7,134.9 L471.9,134.4 L472.2,134.2 L472.5,134.1 L473.0,133.7 L473.3,133.7 L473.7,133.5 L474.6,132.8 L474.9,132.6 L475.2,132.4 L475.5,132.1 L475.8,131.7 L476.6,131.5 L476.8,131.4 L477.0,131.1 L477.2,131.0 L477.5,131.2 L478.7,132.0 L480.2,131.5 L480.4,131.4 L480.9,131.4 L481.4,131.4 L482.3,130.9 L482.8,130.4 L483.2,130.5 L483.8,130.2 L484.4,129.9 L485.0,129.6 L485.9,130.2 L486.2,130.4 L486.6,131.1 L486.8,131.3 L487.5,132.1 L488.7,132.7 L489.2,133.0 L489.4,133.0 L489.6,133.4 L489.9,133.7 L490.4,133.9 L490.7,134.1 L490.9,134.2 L491.3,133.9 L492.4,135.4 L495.4,138.9 L495.7,138.9 L496.3,139.6 L496.9,141.1 L497.0,141.3 L497.7,142.5 L497.9,142.9 L498.1,143.2 L498.4,143.6 L498.7,143.9 L499.0,144.4 L499.2,144.5 L499.5,145.6 L501.7,149.8 L502.1,150.5 L502.4,151.0 L503.3,151.5 L503.6,151.7 L504.2,152.5 L504.4,152.3 L504.8,151.9 L505.3,152.9 L505.7,154.0 L506.0,154.3 L506.2,154.3 L506.6,154.6 L507.4,152.1 L507.9,153.3 L508.7,151.0 L508.9,151.7 L509.2,153.1 L509.4,154.3 L509.8,155.7 L510.2,157.1 L510.6,158.4 L511.7,160.8 L512.4,159.0 L512.8,160.3 L513.1,160.1 L513.5,160.1 L515.8,163.5 L516.1,163.6 L518.1,168.1 L518.3,168.5 L518.6,168.4 L519.3,167.0 L519.5,167.8 L519.6,168.4 L519.7,169.5 L519.8,170.0 L519.9,170.9 L521.4,172.3 L523.3,171.8 L523.8,172.0 L526.5,174.2 L526.9,176.0 L527.7,178.7 L528.1,178.5 L528.3,178.3 L528.8,177.6 L528.9,177.6 L529.1,177.5 L529.3,177.8 L529.5,178.5 L529.7,179.7 L530.0,181.1 L530.2,182.2 L530.4,182.7 L531.2,184.5 L533.0,186.6 L533.9,186.7 L534.5,185.2 L534.8,185.1 L534.9,185.6 L535.1,185.8 L535.1,186.1 L535.2,186.3 L535.4,186.6 L535.4,186.7 L535.6,186.9 L537.7,189.6 L538.1,190.4 L538.4,190.4 L538.8,191.5 L539.3,192.8 L539.7,193.2 L540.4,193.7 L540.9,194.9 L541.2,195.8 L541.8,195.5 L543.0,197.1 L543.5,196.8 L543.6,196.8 L544.2,196.6 L544.5,196.7 L544.9,197.5 L545.1,197.9 L545.7,199.4 L546.0,199.6 L546.6,199.6 L546.8,199.9 L547.0,200.4 L549.6,202.6 L550.1,202.9 L550.5,202.9 L552.0,203.4 L552.3,203.9 L552.7,204.0 L553.5,204.3 L553.7,204.4 L553.9,204.5 L554.3,204.7 L554.5,204.6 L554.7,204.4 L555.1,204.2 L555.9,204.0 L556.1,203.6 L556.3,203.6 L556.7,204.3 L556.8,204.4 L557.0,204.4 L559.1,206.7 L559.2,207.0 L559.4,207.6 L559.7,207.6 L559.9,207.8 L560.9,206.9 L561.3,206.6 L561.6,206.8 L562.0,206.3 L562.9,208.8 L563.4,209.6 L563.8,209.6 L564.2,209.4 L564.5,210.0 L565.4,210.2 L565.8,210.6 L566.0,211.2 L566.1,211.5 L566.2,211.6 L566.8,212.5 L567.3,213.0 L567.4,213.1 L568.1,212.9 L568.4,212.7 L569.7,213.4 L570.8,214.5 L571.1,214.6 L571.3,214.5 L571.9,214.6 L572.0,214.6 L572.2,214.6 L572.4,214.5 L573.0,214.7 L573.5,215.1 L575.3,214.3 L576.0,214.7 L576.6,215.3 L577.1,215.7 L577.4,215.3 L577.5,215.1 L577.8,214.4 L578.3,214.1 L578.7,214.8 L579.2,215.2 L579.9,215.4 L580.1,215.5 L580.1,215.6 L580.2,215.7 L580.4,215.7 L580.6,215.5 L580.8,215.5 L580.8,215.5 L580.8,215.6 L581.1,215.7 L581.3,215.7 L581.8,215.5 L582.9,215.4 L583.5,215.3 L583.7,215.3 L583.7,215.3 L584.8,214.6 L585.4,213.6 L585.8,212.9 L586.6,212.5 L587.2,212.8 L587.9,211.2 L588.1,210.6 L588.4,210.1 L588.7,209.7 L588.9,209.7 L589.5,208.7 L589.7,208.0 L590.2,207.0 L590.5,206.9 L591.3,206.5 L593.4,203.5 L594.3,202.5 L594.7,201.9 L594.9,201.2 L595.2,200.4 L595.5,199.6 L596.5,200.1 L599.5,196.4 L599.7,195.5 L600.0,194.4 L600.3,192.8 L600.6,191.6 L600.8,190.9 L601.9,191.1 L602.1,191.0 L602.3,190.4 L602.4,190.1 L602.5,190.0 L602.6,190.3 L602.8,191.0 L603.3,193.1 L603.5,193.2 L603.6,193.3 L603.8,193.6 L604.0,192.8 L604.7,190.2 L605.2,190.0 L605.5,190.1 L606.0,189.4 L606.7,190.4 L607.0,189.7 L607.2,188.9 L607.4,187.9 L607.9,185.4 L608.1,185.1 L608.2,185.0 L608.3,185.2 L608.4,185.7 L608.6,186.8 L608.7,187.6 L608.9,188.0 L610.1,185.7 L610.4,185.2 L610.8,185.0 L612.5,181.9 L612.8,182.2 L613.3,182.6 L613.7,181.8 L615.2,178.2 L615.3,177.9 L615.4,177.8 L615.6,177.4 L615.8,176.7 L616.0,176.4 L616.1,176.2 L616.3,176.3 L616.5,176.5 L617.5,177.8 L617.8,177.9 L618.0,178.3 L618.3,178.3 L618.6,177.6 L619.8,175.0 L621.2,172.2 L621.4,172.3 L622.0,174.5 L622.4,174.4 L622.7,175.0 L623.2,175.8 L623.5,175.1 L623.9,174.1 L624.4,173.8 L624.9,173.7 L625.3,173.0 L625.6,172.6 L626.0,172.0 L626.8,170.4 L628.5,168.4 L629.1,167.7 L629.4,167.3 L629.6,166.9 L629.8,166.5 L629.9,166.2 L630.1,166.0 L630.3,165.6 L630.4,165.0 L630.7,164.0 L630.9,163.2 L631.3,162.1 L631.6,161.5 L632.5,162.9 L632.6,163.2 L632.8,163.3 L633.0,163.2 L633.4,162.7 L633.9,161.9 L634.3,162.1 L635.0,162.4 L635.3,162.2 L635.7,161.8 L636.0,162.5 L636.4,163.2 L636.8,162.3 L637.1,161.5 L637.3,161.0 L638.4,159.0 L638.6,158.8 L639.0,158.9 L639.4,158.2 L639.8,157.8 L640.2,157.8 L640.8,157.2 L641.4,156.7 L642.2,155.9 L644.6,153.7 L647.5,149.6 L647.9,149.9 L648.2,149.4 L648.4,149.5 L648.8,150.3 L649.6,149.0 L649.8,148.0 L650.1,146.9 L650.7,148.7 L650.8,148.8 L651.3,147.5 L651.6,146.9 L651.7,146.4 L651.9,146.0 L652.1,145.5 L652.3,145.1 L652.5,145.0 L652.8,145.0 L653.1,145.7 L653.3,145.9 L653.4,146.3 L653.6,146.6 L653.7,146.8 L653.8,146.7 L654.4,145.5 L655.3,145.2 L655.7,145.7 L656.1,145.2 L656.4,145.2 L656.9,145.0 L657.3,144.3 L657.7,144.2 L657.9,143.7 L658.2,142.9 L658.7,141.7 L659.4,142.2 L659.6,142.3 L660.0,142.9 L660.7,142.4 L660.8,142.4 L661.5,141.0 L661.7,140.5 L661.9,140.3 L661.9,140.3 L662.1,140.1 L662.2,140.1 L662.4,140.2 L662.5,140.5 L662.7,140.8 L662.7,140.9 L662.9,141.0 L663.8,140.1 L664.1,140.3 L664.5,140.7 L664.9,141.0 L665.0,141.2 L665.4,141.6 L665.6,142.1 L667.4,145.6 L668.3,146.4 L668.8,146.1 L669.9,148.5 L671.6,150.1 L672.0,150.8 L672.4,151.2 L672.8,151.2 L673.2,151.6 L673.8,152.4 L674.4,153.1 L675.1,152.6 L675.4,153.0 L675.9,152.6 L676.0,152.2 L676.2,152.1 L676.4,152.0 L676.6,152.3 L676.8,152.6 L677.0,152.6 L677.1,152.4 L677.3,152.4 L677.5,152.6 L677.9,152.4 L678.4,151.1 L678.9,150.6 L679.1,150.3 L679.5,150.0 L680.0,149.3 L680.5,149.5 L681.0,150.9 L681.5,150.1 L682.0,148.3 L682.3,147.7 L682.7,146.9 L683.6,146.3 L684.1,145.1 L684.3,145.0 L684.8,144.9 L685.2,144.9 L685.4,144.4 L686.9,142.0 L687.5,142.0 L687.9,141.6 L688.1,140.7 L688.9,139.4 L689.4,139.0 L691.5,137.4 L691.9,136.6 L692.1,137.3 L692.3,138.2 L692.5,138.1 L692.8,138.0 L693.0,138.2 L693.5,137.3 L694.0,136.9 L695.5,135.9 L696.3,134.7 L696.9,134.2 L697.1,134.1 L697.4,134.2 L698.2,134.5 L698.5,134.1 L698.7,133.3 L699.0,132.1 L699.1,131.7 L699.4,131.4 L699.7,131.5 L699.9,131.4 L700.1,131.0 L700.6,130.9 L701.4,131.5 L701.6,131.6 L702.7,129.8 L703.3,130.5 L703.8,130.4 L704.3,129.5 L705.0,129.3 L705.5,129.9 L706.5,130.6 L706.9,130.8 L707.2,130.8 L707.6,130.5 L708.5,130.5 L710.6,128.9 L711.1,129.3 L711.5,130.2 L711.7,130.1 L712.0,130.1 L712.2,129.9 L712.3,129.9 L712.5,130.0 L712.7,130.2 L712.9,130.7 L713.1,131.0 L713.9,130.9 L714.2,130.9 L715.7,131.7 L715.9,131.8 L716.1,132.4 L717.1,135.9 L717.4,135.8 L717.6,135.9 L718.4,138.2 L720.0,139.5 L720.4,141.1 L720.6,141.8 L721.4,144.5 L721.6,144.8 L721.8,144.8 L722.0,144.9 L722.4,145.5 L722.8,146.0 L723.0,146.0 L723.3,146.2 L724.3,146.9 L724.7,147.4 L725.1,148.4 L725.7,149.2 L725.9,148.5 L726.2,148.9 L726.7,151.6 L727.4,153.3 L729.7,156.4 L731.1,158.3 L731.3,158.5 L731.4,158.8 L731.5,159.1 L731.7,159.3 L731.7,159.4 L731.9,159.5 L732.3,159.2 L732.4,159.1 L732.7,159.0 L732.8,158.9 L733.1,159.2 L733.2,159.4 L733.3,160.2 L733.5,161.3 L734.2,163.4 L734.5,163.8 L735.6,165.1 L736.0,165.4 L736.2,165.7 L736.6,166.4 L736.8,167.1 L737.1,168.2 L737.2,168.7 L737.3,168.9 L737.5,168.9 L738.1,168.3 L738.3,168.5 L738.5,168.9 L738.7,169.3 L738.8,169.7 L739.3,171.7 L739.7,172.4 L739.9,172.8 L740.0,173.1 L741.0,174.8 L741.4,175.4 L741.7,175.4 L741.9,175.6 L742.1,176.0 L742.4,176.3 L743.8,179.0 L744.0,180.2 L744.2,180.3 L744.3,180.0 L745.2,178.7 L745.6,179.5 L745.7,180.4 L745.9,181.1 L746.1,181.9 L746.4,182.2 L746.6,182.6 L746.9,183.8 L747.0,184.1 L748.3,186.8 L748.7,186.7 L749.1,188.3 L749.3,189.6 L749.7,190.5 L750.0,190.0 L750.8,192.7 L750.9,192.7 L751.1,192.2 L751.3,191.3 L751.5,191.5 L751.5,191.9 L751.6,192.3 L751.9,192.3 L752.1,191.9 L752.7,191.7 L753.1,189.7 L753.4,188.9 L753.6,189.4 L753.8,189.9 L754.1,191.5 L754.3,192.3 L755.0,192.6 L755.4,193.5 L755.6,193.7 L756.2,193.7 L756.3,193.2 L756.4,192.9 L756.5,192.9 L756.6,193.3 L756.9,194.4 L757.0,194.8 L757.2,194.7 L757.3,194.3 L757.6,193.4 L758.4,195.1 L758.6,195.6 L759.0,194.3 L759.2,194.3 L759.3,194.5 L759.4,194.6 L759.5,194.7 L759.8,195.3 L760.1,195.6 L760.2,195.4 L760.6,195.4 L760.7,195.5 L761.0,195.7 L761.2,196.1 L762.2,195.8 L763.1,194.5 L763.5,193.9 L763.7,194.1 L764.2,195.2 L765.3,194.8 L765.6,194.3 L765.8,194.3 L766.1,193.4 L766.5,191.1 L766.6,191.2 L766.7,191.7 L766.9,192.4 L767.0,193.4 L767.5,195.5 L767.8,195.9 L768.3,197.7 L768.9,199.7 L769.2,200.5 L769.7,201.0 L770.5,203.1 L770.8,204.1 L771.9,205.6 L772.2,206.0 L772.5,206.8 L773.1,206.9 L773.3,206.8 L773.8,208.5 L774.1,209.1 L774.5,209.2 L774.9,209.7 L775.1,208.8 L775.3,207.8 L776.2,208.9 L776.5,209.4 L776.9,209.4 L777.5,209.7 L777.9,209.6 L778.1,208.7 L778.5,207.9 L779.0,207.9 L779.4,208.1 L779.7,209.1 L780.0,210.0 L780.4,209.7 L780.5,209.7 L780.7,210.2 L781.1,210.3 L781.4,209.5 L781.7,208.2 L782.2,207.0 L782.6,206.9 L783.4,205.0 L783.7,204.4 L784.4,205.8 L784.6,206.6 L785.0,207.8 L785.2,208.8 L785.8,210.9 L786.5,211.8 L786.7,211.7 L787.1,212.5 L787.5,214.0 L787.9,214.5 L788.5,212.4 L788.8,211.7 L789.3,211.9 L790.1,212.0 L790.7,215.3 L791.2,214.7 L791.6,213.6 L791.8,213.2 L792.3,213.3 L792.8,214.2 L793.1,215.6 L794.1,216.1 L795.1,214.9 L795.9,213.4 L796.3,213.2 L796.5,213.5 L797.4,215.4 L797.9,216.3 L798.1,217.0 L798.3,217.5 L798.4,217.8 L798.6,218.0 L799.3,218.9 L799.8,217.8 L800.0,217.3 L800.2,217.3 L800.8,218.2 L801.4,219.4 L802.0,218.3 L802.2,218.6 L802.6,220.1 L802.9,221.1 L803.3,223.2 L803.4,223.6 L803.5,223.9 L803.7,224.3 L803.8,224.7 L804.0,224.9 L804.2,225.0 L804.6,222.4 L804.8,221.5 L805.3,224.8 L805.8,226.3 L805.9,226.5 L806.2,227.2 L806.5,227.7 L806.6,227.7 L806.8,227.7 L806.9,227.4 L807.1,226.5 L807.3,225.9 L807.9,224.0 L808.3,223.9 L808.9,225.3 L809.2,225.7 L809.6,225.9 L810.5,226.1 L810.8,225.8 L811.7,226.7 L811.9,227.2 L812.1,228.0 L812.3,228.5 L812.5,228.4 L813.5,228.3 L813.9,229.1 L814.7,227.0 L816.8,230.8 L817.0,230.8 L817.3,230.7 L817.7,230.1 L818.2,230.2 L820.6,230.4 L821.2,230.2 L822.5,231.2 L822.8,231.6 L825.3,231.2 L825.7,231.7 L826.7,234.6 L828.2,235.5 L829.0,236.4 L829.5,236.5 L832.7,237.1 L834.1,236.3 L835.6,236.2 L836.0,237.1 L836.4,237.2 L838.2,236.2 L838.5,235.7 L838.8,235.6 L839.2,236.2 L840.0,236.3 L840.3,237.2 L840.6,239.5 L841.1,241.5 L841.7,242.8 L842.2,243.0 L842.5,243.0 L842.8,243.2 L843.0,243.3 L843.9,244.1 L844.0,244.2 L844.2,244.6 L844.9,244.4 L845.0,244.3 L845.2,243.9 L845.6,243.2 L845.8,243.1 L846.0,243.5 L846.4,244.0 L847.3,244.3 L848.0,244.0 L848.8,245.3 L848.9,245.0 L849.1,244.8 L849.3,244.9 L849.7,245.5 L850.1,245.0 L850.7,245.3 L850.9,245.2 L851.5,245.6 L851.7,246.3 L852.3,246.2 L852.6,245.6 L853.3,245.2 L853.8,246.6 L854.1,246.7 L854.3,247.0 L854.5,246.8 L854.6,247.5 L854.7,247.7 L855.0,248.2 L855.3,248.3 L855.7,247.0 L855.8,246.6 L856.4,245.9 L856.7,245.4 L857.5,243.1 L858.1,244.6 L859.1,245.5 L859.4,244.8 L859.9,245.2 L860.3,245.2 L861.1,244.8 L861.5,244.7 L862.0,244.9 L862.2,246.0 L862.6,246.9 L862.9,246.6 L863.7,246.4 L864.6,247.2 L865.1,246.2 L865.7,247.4 L866.2,245.8 L866.4,245.0 L866.6,245.0 L866.8,244.8 L866.9,244.7 L867.5,243.6 L868.6,245.1 L869.1,244.9 L869.6,244.4 L870.4,244.5 L870.7,244.6 L871.5,245.2 L871.7,245.6 L872.0,246.9 L872.2,247.6 L872.9,247.7 L873.4,248.5 L873.8,248.5 L874.5,248.9 L875.0,248.6 L876.6,249.5 L877.0,249.9 L877.4,248.9 L877.9,247.9 L878.5,250.4 L878.9,251.5 L879.3,250.1 L880.7,247.3 L880.9,247.7 L881.3,249.8 L881.5,249.7 L881.7,249.2 L881.9,248.9 L882.2,249.1 L882.7,250.2 L883.0,251.1 L883.3,252.5 L883.5,252.5 L883.8,251.9 L884.1,251.6 L884.7,250.4 L885.2,250.5 L886.3,252.5 L886.8,251.4 L887.3,251.6 L887.9,253.4 L888.2,253.4 L888.5,253.4 L888.7,253.0 L888.9,252.6 L889.5,253.9 L890.0,255.4 L890.7,254.0 L890.8,253.6 L891.0,253.4 L891.4,253.4 L891.6,253.1 L891.8,253.1 L892.0,253.6 L892.3,253.8 L892.8,253.7 L894.3,254.9 L894.7,254.6 L894.8,254.8 L895.1,255.7 L895.6,256.7 L896.8,257.0 L898.2,257.1 L898.7,257.1 L899.3,256.8 L899.7,257.5 L899.9,258.0 L900.1,258.8 L900.3,260.3 L900.4,261.0 L900.6,261.0 L900.7,260.8 L900.9,260.5 L901.1,259.9 L901.4,258.3 L901.8,259.3 L902.5,260.0 L904.2,261.9 L904.7,261.9 L905.5,262.3 L906.1,263.1 L906.6,263.4 L908.5,265.8 L909.0,266.2 L909.2,266.1 L910.7,263.2 L911.3,264.2 L912.2,265.9 L912.5,266.3 L912.9,266.6 L913.4,266.6 L913.6,266.4 L913.9,266.1 L914.0,266.2 L914.6,268.2 L914.8,268.1 L915.5,265.6 L915.7,265.4 L915.8,265.9 L916.2,267.4 L917.3,269.7 L917.6,270.2 L917.9,270.6 L918.2,270.9 L918.4,271.3 L918.6,271.1 L918.8,270.4 L920.3,268.5 L920.6,269.2 L920.8,269.5 L921.3,269.5 L922.1,271.7 L922.5,272.3 L923.0,273.0 L923.2,273.1 L923.3,273.0 L923.7,273.3 L924.0,273.7 L924.2,274.0 L924.4,274.1 L924.6,274.1 L925.0,274.0 L925.2,274.1 L925.5,274.0 L925.7,273.7 L926.2,273.9 L926.4,273.9 L926.7,273.9 L926.9,273.5 L927.2,272.9 L928.2,275.2 L928.9,275.5 L929.2,274.4 L929.7,272.4 L930.4,272.4 L930.7,272.8 L931.0,272.9 L931.6,273.7 L932.0,273.5 L932.3,274.0 L933.0,274.8 L934.0,275.2 L934.2,275.7 L934.7,274.7 L934.9,274.5 L935.1,274.4 L935.7,275.1 L936.2,275.0 L936.4,275.3 L936.6,275.8 L937.0,276.7 L937.9,273.1 L938.2,273.1 L938.5,273.6 L939.1,271.9 L939.3,272.1 L940.6,274.4 L940.8,274.8 L941.4,277.4 L941.5,277.7 L941.6,277.9 L941.7,277.7 L941.8,277.7 L942.1,277.4 L942.3,277.3 L942.4,276.9 L942.5,276.5 L942.8,275.7 L943.6,276.3 L944.0,277.0 L944.3,277.8 L944.5,278.2 L944.8,277.6 L945.0,276.5 L945.3,276.5 L945.8,277.9 L946.1,278.2 L946.3,277.8 L946.5,278.0 L946.8,278.4 L947.0,278.2 L947.4,278.2 L948.5,276.8 L949.0,276.8 L949.5,276.9 L950.2,279.9 L950.6,280.7 L950.7,280.9 L950.8,281.0 L950.9,281.1 L951.0,281.1 L951.1,280.9 L951.6,281.3 L952.0,280.5 L952.7,281.1 L952.9,281.3 L953.8,281.7 L955.0,282.1 L955.4,282.6 L956.0,282.7 L956.8,282.3 L957.2,282.6 L957.5,282.3 L958.3,283.2 L960.0,284.1 L960.7,285.1 L961.7,285.7 L962.3,284.8 L962.6,284.5 L963.0,284.7 L963.6,285.2 L964.8,287.5 L966.2,288.0 L966.3,288.1 L966.3,288.5 L966.6,288.3 L966.9,287.9 L967.5,287.6 L967.7,287.4 L967.8,286.9 L967.9,286.8 L968.0,286.9 L968.1,287.4 L968.2,287.7 L968.4,288.3 L968.8,287.8 L969.0,287.1 L969.2,286.8 L969.4,286.6 L969.7,286.3 L969.9,286.3 L970.0,286.2 L970.2,286.1 L970.3,285.9 L970.5,285.2 L970.9,284.0 L971.0,283.8 L971.3,283.5 L971.4,283.5 L971.5,283.6 L971.6,283.8 L971.7,283.7 L971.8,283.6 L971.9,283.2 L972.4,283.2 L973.3,280.8 L973.7,280.9 L974.0,281.1 L974.1,281.3 L974.4,283.8 L974.7,285.0 L975.2,283.8 L975.4,283.9 L975.7,283.9 L975.8,284.0 L975.9,283.7 L976.5,280.5 L976.7,280.3 L977.5,279.8 L977.9,279.3 L978.4,278.6 L978.7,277.8 L979.0,277.4 L979.7,277.3 L979.8,277.0 L980.0,276.8 L980.3,276.4 L980.4,276.7 L980.6,276.9 L980.8,276.9 L980.9,276.5 L981.0,276.4 L981.5,275.3 L982.0,274.2 L982.1,273.8 L982.4,273.0 L982.5,272.6 L983.4,269.7 L983.6,269.4 L984.0,270.0 L984.4,269.2 L984.4,269.2 L984.7,270.2 L985.2,269.4 L985.3,269.2 L985.5,269.8 L985.7,269.7 L986.4,267.6 L986.7,267.4 L986.9,267.3 L987.5,266.9 L987.6,266.6 L987.8,266.2 L988.0,265.2 L988.4,265.3 L988.9,264.7 L989.0,264.0 L989.2,262.8 L989.4,262.2 L989.6,262.3 L989.9,262.7 L989.9,262.6 L990.5,261.1 L991.1,260.4 L991.2,260.3 L991.4,260.1 L991.7,259.7 L992.0,259.4 L992.1,259.1 L992.4,258.4 L992.6,257.8 L992.9,256.9 L993.0,256.8 L993.3,257.5 L993.4,257.7 L993.5,257.5 L993.7,256.8 L993.9,256.7 L994.2,256.5 L994.4,257.2 L994.6,257.3 L994.9,256.9 L995.4,257.5 L995.6,257.4 L996.0,258.0 L997.3,256.3 L997.5,256.0 L997.7,254.4 L997.9,253.5 L998.0,252.1 L998.3,251.1 L998.4,251.1 L999.0,254.7 L999.2,255.7 L999.5,256.1 L1000.1,255.5 L1000.4,255.4 L1000.8,255.3 L1001.0,254.7 L1001.2,254.2 L1001.3,253.4 L1001.9,248.0 L1002.0,247.4 L1002.1,247.0 L1002.2,247.2 L1002.8,248.3 L1002.9,247.3 L1003.1,245.5 L1003.3,245.1 L1003.5,245.3 L1003.6,245.7 L1003.9,246.6 L1004.0,246.8 L1004.1,246.8 L1004.3,246.2 L1004.6,244.0 L1005.2,243.1 L1006.0,242.2 L1006.5,242.0 L1007.2,236.6 L1007.3,236.1 L1007.4,235.8 L1007.5,236.2 L1007.8,238.6 L1008.1,242.4 L1008.6,243.0 L1008.8,241.9 L1009.2,236.7 L1009.9,236.5 L1010.3,235.2 L1010.7,233.6 L1010.8,233.4 L1011.3,232.0 L1011.4,231.8 L1011.5,231.6 L1011.6,231.5 L1011.7,231.8 L1012.7,233.3 L1013.2,234.0 L1013.3,234.4 L1013.4,234.4 L1013.5,234.1 L1013.7,233.0 L1014.1,230.2 L1014.7,226.9 L1014.8,227.3 L1015.0,229.4 L1015.1,229.9 L1015.2,229.6 L1015.4,228.6 L1015.7,227.0 L1016.1,224.6 L1016.2,224.4 L1016.2,224.5 L1016.3,225.1 L1016.7,226.0 L1016.8,226.0 L1017.0,226.2 L1017.1,226.4 L1017.8,226.3 L1018.1,225.8 L1018.3,225.8 L1018.4,226.0 L1018.6,226.1 L1019.1,223.2 L1019.5,220.4 L1020.1,218.7 L1020.3,218.4 L1021.0,214.9 L1021.1,214.8 L1021.2,215.2 L1021.4,216.1 L1021.8,218.4 L1022.0,218.9 L1022.1,218.7 L1022.2,217.8 L1022.7,214.6 L1022.9,214.2 L1023.0,214.7 L1023.2,215.8 L1023.5,217.1 L1023.7,216.6 L1023.8,215.9 L1024.0,214.7 L1024.3,213.2 L1024.4,213.2 L1025.2,213.2 L1025.6,211.6 L1025.8,211.4 L1025.9,211.3 L1026.1,211.4 L1026.2,211.7 L1026.3,211.9 L1026.5,212.8 L1026.7,212.7 L1026.8,212.4 L1026.9,211.4 L1027.0,211.0 L1027.1,210.8 L1027.2,210.7 L1027.3,210.9 L1027.6,210.7 L1028.1,209.2 L1028.2,208.9 L1028.3,208.7 L1028.5,208.8 L1029.9,208.0 L1030.4,208.5 L1030.6,209.0 L1031.1,208.1 L1031.3,207.4 L1031.4,206.2 L1031.7,205.1 L1031.9,205.0 L1032.1,205.9 L1032.2,206.5 L1032.4,206.5 L1032.5,206.3 L1032.8,204.8 L1032.9,203.9 L1033.0,203.3 L1033.1,202.8 L1033.2,202.5 L1033.3,202.4 L1033.6,203.2 L1034.6,200.9 L1035.3,197.5 L1035.4,197.4 L1035.5,197.9 L1036.2,200.1 L1036.3,200.4 L1036.4,200.9 L1036.5,201.1 L1036.7,201.0 L1037.0,199.7 L1038.3,197.8 L1038.5,197.7 L1038.8,197.2 L1039.1,196.6 L1039.3,196.4 L1040.0,196.8 L1040.4,196.8 L1040.5,196.8 L1040.9,196.7 L1041.6,193.4 L1041.8,192.9 L1042.1,192.5 L1042.3,192.2 L1042.4,191.9 L1042.6,191.6 L1042.8,191.6 L1043.3,192.2 L1043.5,192.7 L1044.2,193.0 L1044.7,194.6 L1045.2,196.0 L1045.4,196.5 L1045.7,196.9 L1046.2,196.8 L1046.3,196.7 L1046.4,196.7 L1046.5,197.0 L1046.6,197.5 L1047.0,199.3 L1047.3,200.3 L1048.0,201.0 L1048.2,201.3 L1048.4,201.6 L1048.5,201.8 L1048.7,202.1 L1048.9,202.5 L1049.1,202.6 L1049.4,202.8 L1049.5,202.9 L1049.6,202.9 L1049.7,203.1 L1049.8,203.2 L1050.2,203.8 L1050.6,203.6 L1050.7,203.5 L1050.8,203.5 L1050.9,203.5 L1051.2,204.4 L1051.4,204.6 L1051.5,204.7 L1051.7,204.9 L1052.0,205.4 L1052.3,205.5 L1052.5,206.8 L1052.9,207.2 L1053.2,207.5 L1053.5,208.2 L1053.7,208.6 L1053.9,209.5 L1054.2,211.2 L1055.0,213.7 L1055.6,215.3 L1055.8,215.6 L1055.9,215.6 L1056.1,215.7 L1056.2,215.7 L1056.6,216.1 L1057.2,215.6 L1057.4,215.8 L1057.9,217.1 L1058.2,217.7 L1058.5,218.9 L1058.9,220.1 L1059.4,220.4 L1059.5,220.6 L1060.0,222.7 L1060.1,223.1 L1060.4,223.8 L1061.1,225.9 L1061.2,226.5 L1061.5,227.2 L1061.9,228.4 L1062.0,228.6 L1062.2,228.0 L1062.5,226.4 L1062.6,225.7 L1062.7,225.2 L1062.9,225.2 L1063.0,225.7 L1063.1,226.5 L1063.4,228.7 L1063.6,229.6 L1063.7,230.0 L1064.3,229.4 L1065.0,233.2 L1065.5,235.0 L1065.7,236.2 L1066.3,236.2 L1066.5,236.5 L1066.8,237.2 L1067.2,238.8 L1067.4,239.2 L1067.7,239.0 L1067.9,239.3 L1068.1,240.3 L1068.5,241.4 L1069.1,244.2 L1069.3,245.1 L1069.7,245.9 L1069.9,246.0 L1070.4,244.3 L1070.6,244.8 L1071.3,247.5 L1071.5,247.7 L1072.0,246.5 L1072.2,246.2 L1072.4,246.6 L1072.7,247.9 L1073.3,250.2 L1073.8,251.6 L1073.9,251.5 L1074.0,251.0 L1074.1,250.9 L1074.2,251.2 L1074.7,252.8 L1075.1,252.6 L1075.4,253.7 L1076.3,253.0 L1077.4,258.0 L1077.7,258.3 L1077.9,258.0 L1078.7,258.8 L1079.9,260.5 L1080.4,260.5 L1080.7,260.7 L1081.0,261.8 L1081.6,264.1 L1082.4,263.2 L1082.9,265.7 L1083.0,266.7 L1083.6,268.3 L1083.8,268.7 L1084.0,268.7 L1084.2,268.0 L1084.9,267.2 L1085.4,269.6 L1086.0,272.9 L1086.6,274.3 L1087.7,276.9 L1088.0,277.1 L1088.7,281.0 L1089.3,281.6 L1089.8,282.5 L1090.0,282.9 L1090.1,283.0 L1090.2,283.2 L1090.3,283.4 L1090.4,283.6 L1090.8,284.0 L1090.9,284.1 L1091.1,284.3 L1091.4,285.3 L1091.8,286.1 L1092.1,285.9 L1092.7,285.8 L1093.0,285.1 L1093.3,284.6 L1093.9,285.0 L1094.1,285.0 L1094.3,285.2 L1095.0,287.0 L1095.4,288.0 L1095.6,287.8 L1095.8,288.1 L1095.9,288.3 L1096.4,289.6 L1096.7,290.3 L1097.0,291.0 L1097.6,292.0 L1098.1,292.7 L1098.7,292.3 L1099.2,293.0 L1099.3,293.1 L1099.7,293.9 L1100.0,293.8 L1100.1,293.6 L1100.4,292.6 L1100.6,291.8 L1100.8,291.0 L1101.3,289.9 L1101.5,289.9 L1101.7,289.5 L1103.2,288.1 L1104.6,287.6 L1105.1,287.2 L1105.7,286.2 L1106.4,285.7 L1106.9,286.0 L1107.7,283.7 L1108.3,283.4 L1108.9,282.3 L1109.2,281.5 L1109.6,281.0 L1109.8,280.8 L1109.9,280.8 L1110.0,280.8 L1110.1,280.8 L1110.3,280.7 L1110.6,280.8 L1110.8,280.6 L1111.3,277.4 L1111.4,276.7 L1111.6,276.4 L1112.1,276.6 L1112.5,276.7 L1112.5,276.2 L1112.7,275.0 L1112.8,274.2 L1112.8,274.1 L1113.2,275.3 L1113.5,275.0 L1113.9,273.0 L1114.2,273.3 L1114.7,274.5 L1115.1,274.7 L1115.3,274.3 L1115.7,272.8 L1116.0,271.7 L1116.4,270.3 L1116.7,269.3 L1117.0,268.1 L1117.3,267.5 L1117.4,267.5 L1117.6,267.6 L1118.0,268.2 L1118.4,268.1 L1118.9,267.3 L1119.6,266.4 L1120.0,266.3 L1120.3,266.5 L1120.5,266.5 L1121.2,266.7 L1121.8,268.6 L1122.1,268.5 L1122.3,268.3 L1122.6,268.3 L1123.1,267.4 L1123.2,267.3 L1123.4,267.1 L1123.7,266.6 L1124.1,266.5 L1124.3,266.4 L1124.5,266.3 L1124.6,266.4 L1124.8,266.9 L1124.9,267.3 L1125.1,267.8 L1125.2,268.3 L1126.5,271.7 L1126.8,272.2 L1127.1,272.7 L1127.3,272.9 L1127.9,273.7 L1128.3,274.2 L1128.8,274.7 L1129.1,275.0 L1129.5,274.8 L1129.8,275.3 L1130.4,276.1 L1130.9,277.5 L1131.4,279.4 L1132.2,280.8 L1132.8,281.2 L1133.1,281.3 L1133.2,281.2 L1133.5,281.4 L1133.8,281.8 L1135.5,284.7 L1135.7,285.0 L1136.6,286.8 L1137.4,289.8 L1137.6,290.6 L1137.7,290.8 L1137.9,291.0 L1138.2,290.5 L1138.6,286.9 L1138.7,286.0 L1138.8,286.1 L1138.9,286.8 L1139.0,288.1 L1139.2,290.1 L1139.4,291.9 L1139.5,292.0 L1140.2,292.4 L1140.4,293.0 L1140.6,293.0 L1140.8,292.5 L1141.4,290.1 L1141.5,289.8 L1141.6,290.0 L1141.7,290.5 L1141.8,291.1 L1142.0,292.9 L1142.1,293.6 L1142.3,294.2 L1142.4,294.6 L1142.5,295.0 L1142.8,296.0 L1143.2,296.6 L1143.6,296.5 L1143.8,296.3 L1144.3,295.1 L1144.4,294.9 L1144.5,295.4 L1144.6,296.3 L1144.9,298.6 L1145.2,299.7 L1145.4,299.9 L1145.8,298.5 L1145.9,298.9 L1146.0,299.7 L1146.2,300.9 L1146.4,301.9 L1147.8,305.9 L1148.2,305.5 L1148.5,305.7 L1149.2,307.0 L1150.1,308.6 L1151.0,308.9 L1151.7,310.3 L1153.2,312.4 L1153.3,312.7 L1153.9,313.4 L1154.3,313.9 L1154.5,314.6 L1154.6,314.9 L1154.7,315.2 L1154.9,315.4 L1154.9,315.4 L1155.0,315.5 L1155.2,315.2 L1155.3,315.1 L1155.6,315.0 L1155.8,315.1 L1156.1,315.6 L1156.5,316.0 L1156.6,316.1 L1156.9,316.4 L1157.1,316.5 L1157.2,316.5 L1157.3,316.7 L1157.4,316.8 L1157.8,317.0 L1158.0,317.2 L1158.1,317.6 L1158.2,317.7 L1158.5,318.3 L1158.5,318.5 L1158.6,318.7 L1159.2,319.0 L1159.3,318.9 L1159.5,319.0 L1159.9,319.2 L1160.1,319.3 L1160.3,319.3 L1160.8,319.3 L1161.0,319.3 L1161.1,319.4 L1161.5,319.5 L1162.0,319.3 L1162.1,319.2 L1162.3,319.1 L1162.9,319.4 L1163.5,319.1 L1163.8,319.2 L1163.9,319.3 L1164.4,319.5 L1164.7,319.4 L1164.8,319.3 L1165.1,319.3 L1165.6,319.3 L1165.8,319.3 L1166.0,319.2 L1166.4,319.0 L1166.5,318.9 L1166.6,319.0 L1167.2,318.7 L1167.3,318.5 L1167.4,318.3 L1168.0,317.7 L1168.1,317.8 L1168.9,318.0 L1169.1,317.9 L1169.4,317.9 L1169.6,318.4 L1170.1,318.7 L1170.3,318.7 L1170.6,318.7 L1170.7,318.6 L1170.8,318.5 L1171.5,317.9 L1172.1,317.1 L1172.2,316.9 L1172.3,316.8 L1172.5,316.6 L1172.7,316.4 L1172.8,316.3 L1173.1,315.9 L1173.3,315.1 L1173.9,315.2 L1174.8,316.2 L1174.9,315.9 L1175.2,315.5 L1175.7,315.0 L1176.1,314.7 L1176.3,314.7 L1176.4,314.6 L1176.6,314.5 L1176.9,314.1 L1177.2,313.9 L1177.9,313.2 L1178.9,312.5 L1179.1,312.5 L1179.4,312.2 L1179.5,312.2 L1179.7,312.1 L1180.1,311.6 L1181.4,311.3 L1181.8,310.9 L1182.1,310.6 L1182.7,309.7 L1183.6,309.0 L1184.1,309.6 L1184.5,309.3 L1184.7,309.0 L1185.0,308.3 L1185.3,308.6 L1185.7,308.3 L1186.7,306.7 L1186.9,306.8 L1187.3,307.0 L1187.6,306.8 L1188.2,306.6 L1188.6,306.5 L1188.8,306.4 L1188.9,306.1 L1189.2,305.5 L1189.8,305.1 L1190.2,304.8 L1190.4,304.5 L1190.5,304.3 L1190.9,303.6 L1191.6,301.5 L1191.9,300.6 L1192.2,299.3 L1192.8,298.1 L1193.2,297.6 L1193.8,296.3 L1194.0,295.6 L1194.7,293.7 L1195.1,292.3 L1195.5,290.6 L1195.9,288.2 L1196.2,286.4 L1196.4,285.6 L1196.5,285.2 L1196.6,284.9 L1197.3,284.5 L1197.4,283.8 L1197.6,283.6 L1197.7,283.5 L1198.1,282.4 L1198.2,281.9 L1198.5,281.4 L1198.8,281.1 L1199.0,280.9 L1199.6,279.2 L1199.7,278.8 L1200.3,278.0 L1200.5,277.8 L1201.0,277.2 L1201.2,277.3 L1201.5,277.5 L1202.1,275.5 L1202.3,275.2 L1202.6,274.9 L1203.2,273.6 L1204.1,272.7 L1204.2,272.7 L1204.7,272.1 L1205.5,271.4 L1206.2,271.6 L1206.5,271.0 L1206.6,270.7 L1206.8,270.5 L1210.7,272.6 L1211.1,274.4 L1211.5,274.9 L1212.3,274.2 L1212.7,274.2 L1212.9,273.9 L1213.1,273.9 L1213.3,273.8 L1213.5,273.7 L1214.0,273.4 L1214.3,273.7 L1215.0,274.5 L1215.2,275.7 L1215.4,276.7 L1215.8,277.4 L1216.2,276.7 L1216.7,274.5 L1216.9,273.5 L1217.3,271.7 L1217.9,269.3 L1218.2,268.3 L1218.8,267.4 L1218.9,267.0 L1219.9,266.6 L1220.6,268.3 L1221.0,267.6 L1221.1,267.5 L1221.3,268.4 L1221.5,270.9 L1222.4,269.5 L1222.7,268.9 L1222.9,268.6 L1223.3,268.6 L1224.0,268.7 L1224.2,268.9 L1224.3,268.9 L1224.5,268.7 L1224.5,268.7 L1224.7,268.4 L1225.5,266.8 L1225.6,266.4 L1225.8,265.8 L1226.0,265.1 L1226.4,264.3 L1227.0,263.4 L1227.1,263.2 L1227.2,262.9 L1227.6,261.8 L1228.0,261.1 L1228.2,260.8 L1228.5,260.6 L1228.8,260.1 L1229.0,259.7 L1229.2,259.4 L1229.6,258.9 L1229.8,258.4 L1230.2,257.6 L1230.5,257.3 L1230.9,256.7 L1231.0,256.7 L1231.1,256.6 L1231.1,256.6 L1231.2,256.6 L1231.4,256.7 L1231.7,256.9 L1232.0,257.1 L1232.3,257.3 L1232.4,257.4 L1232.9,257.9 L1233.2,258.0 L1233.6,258.2 L1233.8,258.5 L1234.0,258.6 L1234.2,258.7 L1234.3,258.9 L1234.5,259.1 L1234.8,259.2 L1234.9,259.3 L1235.0,259.6 L1235.4,260.5 L1236.2,262.7 L1236.8,264.0 L1236.9,264.3 L1237.3,265.3 L1237.7,266.7 L1238.4,268.3 L1238.5,268.3 L1239.0,269.8 L1239.5,271.6 L1239.7,272.5 L1239.9,273.5 L1240.1,274.7 L1240.8,275.8 L1241.4,276.8 L1241.8,277.5 L1242.0,277.9 L1242.1,278.0 L1242.3,277.9 L1242.8,278.2 L1243.4,278.0 L1244.3,278.4 L1244.7,277.7 L1244.9,277.4 L1245.1,276.6 L1245.6,278.1 L1245.7,278.4 L1246.0,278.7 L1246.3,279.3 L1246.4,279.6 L1246.6,280.3 L1246.9,280.9 L1247.1,281.2 L1247.2,281.3 L1247.3,281.4 L1247.4,281.5 L1247.6,281.7 L1247.8,281.9 L1248.1,282.0 L1248.6,281.3 L1248.7,281.2 L1249.0,281.6 L1249.4,282.4 L1249.7,283.0 L1249.9,283.2 L1250.9,285.7 L1251.0,285.9 L1251.3,286.3 L1251.7,286.6 L1252.3,288.0 L1252.6,288.3 L1253.1,289.5 L1253.4,290.3 L1253.5,290.6 L1254.1,291.1 L1254.3,291.6 L1254.4,292.1 L1255.3,293.0 L1255.7,293.9 L1255.8,294.0 L1256.0,294.9 L1256.1,295.1 L1256.3,295.7 L1258.3,297.7 L1259.3,296.6 L1259.7,297.0 L1260.4,298.3 L1261.2,299.6 L1261.6,300.0 L1262.4,300.0 L1263.3,301.5 L1264.6,298.7 L1264.8,298.9 L1265.3,300.4 L1266.0,300.5 L1267.9,303.4 L1269.0,305.1 L1269.7,305.3 L1270.1,305.6 L1271.7,307.0 L1272.1,307.9 L1272.6,308.7 L1274.5,310.7 L1275.9,313.1 L1276.1,313.5 L1276.3,313.8 L1276.7,313.6 L1277.2,313.8 L1277.7,314.5 L1278.7,316.6 L1280.1,316.7 L1281.2,319.1 L1282.2,319.4 L1283.2,320.9 L1284.0,320.0 L1284.1,320.1 L1284.2,320.5 L1284.4,321.0 L1284.5,321.2 L1284.6,321.2 L1284.7,321.1 L1285.0,320.5 L1285.1,320.1 L1285.4,320.5 L1285.7,321.4 L1285.8,321.7 L1286.3,322.6 L1286.4,322.7 L1287.2,323.7 L1287.5,323.9 L1287.8,324.1 L1288.2,324.2 L1288.6,324.6 L1289.1,324.8 L1289.6,324.8 L1290.0,325.1 L1290.4,325.5 L1290.5,325.6 L1290.6,325.7 L1290.8,325.8 L1290.8,325.9 L1290.9,325.9 L1291.5,325.8 L1291.8,325.8 L1292.0,325.9 L1292.2,326.1 L1292.7,326.7 L1292.8,326.8 L1293.6,327.2 L1293.8,327.2 L1294.1,327.4 L1294.2,327.4 L1294.3,327.4 L1294.7,327.3 L1294.9,327.3 L1295.3,327.4 L1295.9,327.9 L1296.7,327.5 L1297.7,327.8 L1298.1,328.0 L1299.7,328.4 L1300.3,328.6 L1300.5,328.4 L1301.5,328.4 L1302.1,328.5 L1302.6,328.8 L1302.7,329.0 L1303.1,329.3 L1303.5,329.2 L1303.7,329.0 L1303.8,329.0 L1303.9,329.0 L1304.3,329.2 L1305.5,329.8 L1305.5,329.8 L1305.7,329.8 L1305.9,329.7 L1306.1,329.8 L1306.3,329.7 L1307.0,329.7 L1307.3,330.0 L1307.5,330.2 L1308.2,330.3 L1308.4,330.2 L1308.6,329.9 L1308.9,329.8 L1309.0,329.7 L1309.2,329.8 L1309.2,329.7 L1309.3,329.8 L1309.4,329.9 L1309.4,330.0 L1309.5,330.1 L1309.6,330.2 L1310.8,330.0 L1310.9,329.9 L1311.0,329.8 L1311.1,329.7 L1311.2,329.7 L1311.3,329.8 L1311.6,329.8 L1311.7,329.8 L1311.7,329.8 L1311.8,329.8 L1312.0,329.8 L1312.0,329.9 L1313.0,330.4 L1313.3,329.9 L1313.4,329.8 L1313.4,329.8 L1313.8,329.5 L1314.0,329.6 L1314.3,329.6 L1314.8,329.4 L1314.9,329.3 L1315.0,329.3 L1315.3,329.4 L1315.5,329.4 L1315.6,329.4 L1315.7,329.4 L1315.8,329.4 L1315.9,329.5 L1316.5,329.4 L1317.5,329.5 L1317.7,329.5 L1318.7,328.6 L1318.8,328.5 L1319.1,328.5 L1319.5,328.5 L1319.6,328.5 L1319.6,328.5 L1319.7,328.5 L1319.8,328.5 L1320.2,328.9 L1320.3,328.9 L1320.7,329.1 L1320.9,329.1 L1321.2,329.1 L1322.2,328.9 L1322.9,328.6 L1323.5,328.9 L1324.2,328.7 L1324.3,328.7 L1324.4,328.7 L1324.6,328.9 L1324.7,328.9 L1324.8,328.9 L1325.8,328.7 L1326.4,328.9 L1326.6,328.9 L1327.0,329.3 L1327.2,329.4 L1327.4,329.5 L1328.2,329.7 L1329.1,329.2 L1329.3,329.4 L1329.4,329.6 L1330.9,329.6 L1331.1,329.5 L1332.0,329.3 L1332.8,329.1 L1334.7,329.5 L1335.7,329.2 L1337.2,329.1 L1338.1,329.1 L1338.3,329.1 L1339.0,328.8 L1339.9,328.8 L1340.2,328.5 L1340.3,328.5 L1340.4,328.6 L1342.5,329.0 L1342.6,329.1 L1342.8,329.2 L1344.4,330.5 L1347.6,328.4 L1349.1,328.9 L1350.6,329.1 L1352.1,329.1 L1352.2,329.1 L1352.3,329.0 L1352.4,329.0 L1352.4,328.9 L1354.6,329.1 L1356.4,329.5 L1356.4,329.5 L1356.5,329.5 L1356.9,329.4 L1358.2,329.7 L1358.5,329.6 L1358.6,329.6 L1358.7,329.7 L1358.7,329.7 L1358.8,329.7 L1358.9,329.7 L1359.0,329.6 L1359.2,329.4 L1359.3,329.5 L1359.9,329.3 L1359.9,329.3 L1360.0,329.3 L1360.6,329.2 L1360.6,329.3 L1360.7,329.3 L1361.1,329.8 L1361.5,330.0 L1361.6,329.9 L1361.7,329.9 L1361.8,329.8 L1362.3,329.7 L1362.3,329.7 L1362.8,329.6 L1363.1,329.5 L1363.2,329.5 L1363.3,329.4 L1364.3,329.6 L1366.1,329.2 L1366.5,329.6 L1366.9,329.4 L1367.4,329.1 L1368.2,329.1 L1368.5,329.1 L1368.6,329.1 L1369.0,329.1 L1369.1,329.1 L1369.5,329.1 L1369.7,329.2 L1369.9,329.2 L1370.1,329.4 L1370.2,329.4 L1370.4,329.6 L1370.6,329.7 L1370.9,330.2 L1371.3,330.7 L1371.9,330.6 L1372.1,330.7 L1372.8,331.1 L1373.3,331.3 L1373.5,331.4 L1373.6,331.5 L1373.7,331.5 L1373.9,331.5 L1374.8,331.3 L1375.3,330.9 L1376.2,331.0 L1376.6,331.2 L1376.8,331.1 L1377.5,331.6 L1377.7,331.7 L1378.7,331.2 L1380.3,332.1 L1380.8,331.5 L1381.4,330.8 L1382.3,330.6 L1383.2,330.3 L1384.0,330.5 L1384.5,330.1 L1385.1,329.9 L1385.4,330.0 L1385.7,330.3 L1386.0,330.7 L1386.6,330.8 L1387.1,330.7 L1387.3,330.5 L1387.7,330.0 L1387.9,329.8 L1388.5,330.3 L1388.6,330.2 L1389.1,330.6 L1390.3,330.9 L1391.0,330.9 L1391.7,330.7 L1392.1,331.0 L1392.9,331.5 L1393.7,331.2 L1394.0,331.3 L1394.2,331.2 L1394.6,331.0 L1394.7,331.1 L1394.8,331.0 L1394.8,331.0 L1394.9,330.9 L1395.0,330.8 L1395.1,330.8 L1395.2,330.7 L1395.4,330.6 L1395.5,330.5 L1396.3,330.7 L1397.3,331.5 L1397.5,331.5 L1398.1,331.2 L1398.6,330.4 L1399.3,330.8 L1400.0,330.7 L1401.0,330.9 L1402.7,330.1 L1404.9,330.5 L1405.5,330.2 L1406.1,329.9 L1406.7,329.8 L1408.2,329.6 L1408.7,330.1 L1408.9,330.7 L1409.0,330.8 L1410.8,331.0 L1412.1,331.0 L1413.5,330.9 L1414.8,329.5 L1415.2,329.3 L1415.6,328.8" fill="transparent" id="track" stroke="black" stroke-width="2"/>
<g>
<circle cx="581.254" cy="215.698" id="wp-281/circle" r="4.000"/>
<text font-size="16.0" id="wp-281/text" text-anchor="start" x="583.254" y="232.698">
K3
</text>
<circle cx="1159.294" cy="318.922" fill="Gray" id="wp-1/circle" r="5.000"/>
<text font-size="16.0" id="wp-17/text" text-anchor="start" x="1161.294" y="335.922">
Gernsbach
</text>
<circle cx="287.404" cy="176.358" fill="Blue" id="wp-2/circle" r="3.000"/>
<text font-size="16.0" id="wp-5/text" text-anchor="start" x="289.404" y="173.358">
Freiersberg
</text>
<circle cx="711.500" cy="130.207" fill="Blue" id="wp-3/circle" r="3.000"/>
<text font-size="16.0" id="wp-6/text" text-anchor="start" x="713.500" y="127.207">
Seibelseckle
</text>
<circle cx="457.209" cy="128.032" fill="Blue" id="wp-4/circle" r="3.000"/>
<text font-size="16.0" id="wp-7/text" text-anchor="start" x="459.209" y="125.032">
Alexanderschanze
</text>
<circle cx="662.244" cy="140.078" fill="Blue" id="wp-5/circle" r="3.000"/>
<text font-size="16.0" id="wp-8/text" text-anchor="start" x="664.244" y="177.078">
Ruhestein
</text>
<circle cx="1120.473" cy="266.485" fill="Blue" id="wp-6/circle" r="3.000"/>
<text font-size="16.0" id="wp-9/text" text-anchor="start" x="1122.473" y="263.485">
Nachtigall
</text>
<circle cx="1042.592" cy="191.606" fill="Blue" id="wp-7/circle" r="3.000"/>
<text font-size="16.0" id="wp-10/text" text-anchor="start" x="1044.592" y="188.606">
Rote Lache
</text>
<circle cx="344.310" cy="264.334" fill="Gray" id="wp-8/circle" r="3.000"/>
<text font-size="16.0" id="wp-3/text" text-anchor="start" x="346.310" y="281.334">
Bad Peterstal
</text>
<circle cx="966.338" cy="288.473" fill="Gray" id="wp-9/circle" r="3.000"/>
<text font-size="16.0" id="wp-4/text" text-anchor="start" x="968.338" y="305.473">
Forbach
</text>
</g>
</g>
<g id="SL" transform="translate(0 0)">
<text text-anchor="end" x="0" y="363.5">
0
</text>
<text text-anchor="end" x="0" y="315.7">
200
</text>
<text text-anchor="end" x="0" y="267.9">
400
</text>
<text text-anchor="end" x="0" y="220.1">
600
</text>
<text text-anchor="end" x="0" y="172.3">
800
</text>
<text text-anchor="end" x="0" y="124.5">
1000
</text>
<text text-anchor="end" x="0" y="76.69999999999999">
1200
</text>
<text text-anchor="end" x="0" y="28.900000000000034">
1400
</text>
</g>
</g>
</svg>