<svg height="400" width="1420" xmlns="http://www.w3.org/2000/svg">
<g font-size="18" id="world" shape-rendering="crispEdges">
<g id="BG"/>
<g id="SB" transform="translate(71 360)">
<text text-anchor="middle" x="-0.20322305718491407" y="17">
180
</text>
<text text-anchor="middle" x="371.92221386932306" y="17">
200
</text>
<text text-anchor="middle" x="744.0476507958315" y="17">
220
</text>
<text text-anchor="middle" x="1116.17308772234" y="17">
240
</text>
</g>
<g id="SD" transform="translate(71 0)">
<path d="M0,0 L1347.5,0" stroke="black" stroke-width="3"/>
<path d="M0,0 L0,358.5" stroke="black" stroke-width="3"/>
<path d="M0,358.5 L1347.5,358.5" stroke="black" stroke-width="3"/>
<path d="M1347.5,0 L1347.5,358.5" stroke="black" stroke-width="3"/>
<path d="M-0.20322306,0 L-0.20322306,358.5" stroke="black" stroke-width="1"/>
<path d="M371.9222,0 L371.9222,358.5" stroke="black" stroke-width="1"/>
<path d="M744.04767,0 L744.04767,358.5" stroke="black" stroke-width="1"/>
<path d="M1116.1731,0 L1116.1731,358.5" stroke="black" stroke-width="1"/>
<path d="M185.8595,0 L185.8595,358.5" stroke="black" stroke-dasharray="1.0,2.5,5.0,5.0,10.0,5.0"/>
<path d="M557.9849,0 L557.9849,358.5" stroke="black" stroke-dasharray="1.0,2.5,5.0,5.0,10.0,5.0"/>
<path d="M930.11035,0 L930.11035,358.5" stroke="black" stroke-dasharray="1.0,2.5,5.0,5.0,10.0,5.0"/>
<path d="M1302.2358,0 L1302.2358,358.5" stroke="black" stroke-dasharray="1.0,2.5,5.0,5.0,10.0,5.0"/>
<path d="M0,358.5 L1347.5,358.5" stroke="black" stroke-width="1"/>
<path d="M0,307.2857 L1347.5,307.2857" stroke="black" stroke-width="1"/>
<path d="M0,256.07144 L1347.5,256.07144" stroke="black" stroke-width="1"/>
<path d="M0,204.85715 L1347.5,204.85715" stroke="black" stroke-width="1"/>
<path d="M0,153.64285 L1347.5,153.64285" stroke="black" stroke-width="1"/>
<path d="M0,102.42857 L1347.5,102.42857" stroke="black" stroke-width="1"/>
<path d="M0,51.214287 L1347.5,51.214287" stroke="black" stroke-width="1"/>
<path d="M0,0 L1347.5,0" stroke="black" stroke-width="1"/>
<path d="M0,332.89285 L1347.5,332.89285" stroke="black" stroke-dasharray="1.0,2.5,5.0,5.0,10.0,5.0"/>
<path d="M0,281.67856 L1347.5,281.67856" stroke="black" stroke-dasharray="1.0,2.5,5.0,5.0,10.0,5.0"/>
<path d="M0,230.46428 L1347.5,230.46428" stroke="black" stroke-dasharray="1.0,2.5,5.0,5.0,10.0,5.0"/>
<path d="M0,179.25 L1347.5,179.25" stroke="black" stroke-dasharray="1.0,2.5,5.0,5.0,10.0,5.0"/>
<path d="M0,128.03572 L1347.5,128.03572" stroke="black" stroke-dasharray="1.0,2.5,5.0,5.0,10.0,5.0"/>
<path d="M0,76.82143 L1347.5,76.82143" stroke="black" stroke-dasharray="1.0,2.5,5.0,5.0,10.0,5.0"/>
<path d="M0,25.607143 L1347.5,25.607143" stroke="black" stroke-dasharray="1.0,2.5,5.0,5.0,10.0,5.0"/>
<path d="M0,-25.607143 L1347.5,-25.607143" stroke="black" stroke-dasharray="1.0,2.5,5.0,5.0,10.0,5.0"/>
<path d="M0.0,118.2 L0.2,118.1 L0.3,117.6 L0.8,115.2 L1.3,109.1 L2.5,102.1 L2.7,102.9 L3.1,107.6 L3.3,108.5 L3.5,107.8 L3.8,105.8 L4.3,102.2 L5.0,97.2 L5.2,96.7 L5.4,97.1 L5.5,98.2 L6.2,100.1 L6.4,100.2 L6.7,100.6 L6.9,101.1 L8.2,100.8 L8.8,99.8 L9.1,99.7 L9.4,100.1 L9.7,100.5 L10.7,94.2 L11.4,88.2 L12.4,84.5 L12.8,83.9 L14.1,76.5 L14.3,76.2 L14.5,77.0 L14.8,79.0 L15.5,84.0 L15.9,84.9 L16.1,84.5 L16.4,82.7 L17.2,75.8 L17.5,74.9 L17.8,76.1 L18.1,78.4 L18.6,81.1 L19.1,80.0 L19.3,78.5 L19.6,76.0 L20.1,72.7 L20.3,72.8 L21.8,72.7 L22.6,69.4 L22.9,68.8 L23.1,68.7 L23.4,69.0 L23.6,69.6 L23.8,70.0 L24.3,71.9 L24.6,71.7 L24.7,71.1 L24.9,69.0 L25.1,68.1 L25.2,67.6 L25.5,67.4 L25.7,67.8 L26.3,67.3 L27.0,64.2 L27.3,63.5 L27.6,63.2 L27.9,63.4 L30.5,61.6 L31.4,62.6 L31.7,63.7 L32.6,61.8 L33.0,60.3 L33.3,57.7 L33.7,55.3 L34.1,55.3 L34.5,57.2 L34.7,58.4 L35.0,58.4 L35.2,58.0 L35.7,54.9 L35.9,52.9 L36.1,51.6 L36.3,50.4 L36.5,49.8 L36.7,49.6 L37.2,51.3 L39.0,46.4 L40.3,39.1 L40.5,38.9 L40.8,39.9 L42.0,44.7 L42.1,45.3 L42.4,46.5 L42.6,46.8 L42.9,46.7 L43.5,43.7 L45.9,39.7 L46.2,39.6 L46.8,38.5 L47.3,37.3 L47.7,36.8 L49.1,37.6 L49.6,37.6 L50.0,37.6 L50.6,37.4 L51.9,30.3 L52.3,29.3 L52.9,28.4 L53.1,27.8 L53.4,27.0 L53.7,26.5 L54.2,26.5 L55.0,27.8 L55.5,28.8 L56.7,29.4 L57.7,33.0 L58.5,36.0 L58.9,37.0 L59.4,37.8 L60.3,37.6 L60.6,37.3 L60.8,37.3 L61.0,38.0 L61.2,39.1 L61.7,43.0 L62.3,45.1 L63.7,46.6 L64.0,47.2 L64.5,48.0 L64.7,48.3 L64.9,49.0 L65.4,49.7 L65.7,50.1 L66.3,50.5 L66.4,50.6 L66.6,50.7 L66.8,51.0 L67.0,51.3 L67.7,52.5 L68.4,52.2 L68.6,52.0 L68.9,51.9 L69.1,51.9 L69.6,53.9 L69.8,54.3 L70.1,54.5 L70.5,54.9 L71.1,56.0 L71.6,56.3 L72.0,59.0 L72.7,59.9 L73.2,60.6 L73.9,62.0 L74.1,63.0 L74.4,64.7 L75.0,68.5 L76.5,73.8 L77.6,77.3 L77.9,77.9 L78.2,77.9 L78.5,78.1 L78.8,78.2 L79.4,78.9 L80.6,78.0 L80.9,78.3 L81.9,81.0 L82.4,82.4 L83.0,84.9 L83.6,87.5 L84.5,88.2 L84.9,88.7 L85.7,93.1 L85.9,94.0 L86.5,95.4 L87.7,100.0 L88.0,101.1 L88.5,102.7 L89.1,105.3 L89.5,105.7 L89.8,104.5 L90.2,101.0 L90.5,99.5 L90.7,98.5 L91.0,98.5 L91.2,99.6 L91.5,101.3 L92.0,106.0 L92.3,107.9 L92.6,108.7 L93.5,107.5 L94.8,115.6 L95.8,119.4 L96.2,122.1 L97.3,122.1 L97.7,122.7 L98.2,124.2 L99.0,127.6 L99.3,128.4 L99.9,128.0 L100.2,128.7 L100.6,130.8 L101.4,133.2 L102.4,139.3 L102.9,141.1 L103.6,142.7 L103.8,143.0 L104.7,139.4 L105.1,140.5 L106.4,146.3 L106.8,146.8 L107.8,144.1 L108.1,143.5 L108.5,144.2 L109.0,147.0 L110.2,152.0 L111.0,155.0 L111.2,154.9 L111.5,153.7 L111.7,153.5 L111.9,154.3 L112.7,157.7 L113.5,157.3 L114.1,159.5 L115.7,157.9 L117.6,168.7 L118.2,169.3 L118.6,168.9 L120.1,170.5 L122.2,174.0 L123.1,174.2 L123.7,174.5 L124.2,176.8 L125.4,181.8 L126.8,179.8 L127.7,185.3 L127.9,187.3 L129.0,190.9 L129.5,191.7 L129.8,191.7 L130.2,190.3 L131.4,188.5 L132.4,193.7 L133.5,200.7 L134.5,203.7 L136.6,209.2 L137.1,209.8 L138.5,218.0 L139.5,219.4 L140.5,221.3 L140.8,222.1 L141.0,222.4 L141.1,222.8 L141.4,223.2 L141.6,223.6 L142.2,224.5 L142.5,224.6 L142.8,225.1 L143.5,227.2 L144.1,228.9 L144.7,228.5 L145.7,228.4 L146.4,226.7 L146.9,225.7 L148.0,226.6 L148.3,226.6 L148.6,226.9 L150.0,230.9 L150.7,233.1 L151.1,232.7 L151.5,233.3 L151.7,233.7 L152.5,236.5 L153.1,238.0 L153.6,239.5 L154.8,241.5 L155.7,243.0 L156.8,242.3 L157.7,243.8 L157.8,244.0 L158.7,245.6 L159.1,245.5 L159.3,245.0 L159.8,242.9 L160.3,241.2 L160.6,239.5 L161.6,237.1 L161.9,237.0 L162.3,236.4 L165.1,233.2 L167.5,232.2 L168.5,231.3 L169.6,229.2 L171.0,228.0 L171.9,228.8 L173.3,223.8 L174.4,223.2 L175.5,220.9 L176.1,219.1 L176.8,218.0 L177.2,217.6 L177.4,217.5 L177.5,217.5 L177.7,217.5 L178.0,217.3 L178.6,217.6 L179.0,217.3 L179.9,210.3 L180.1,208.9 L180.4,208.1 L181.3,208.5 L182.1,208.9 L182.2,207.8 L182.4,205.2 L182.6,203.5 L182.7,203.3 L183.5,205.7 L183.9,205.2 L184.8,201.0 L185.2,201.5 L186.2,204.0 L186.9,204.5 L187.3,203.7 L188.1,200.4 L188.5,198.1 L189.3,195.1 L189.8,193.0 L190.4,190.4 L190.9,189.2 L191.1,189.1 L191.4,189.2 L192.2,190.6 L193.0,190.4 L193.9,188.8 L195.2,186.8 L195.9,186.5 L196.5,186.9 L196.8,186.9 L198.1,187.4 L199.3,191.4 L199.7,191.3 L200.1,190.9 L200.7,190.8 L201.6,189.0 L201.9,188.7 L202.2,188.2 L202.6,187.2 L203.4,186.9 L203.8,186.7 L204.1,186.5 L204.4,186.7 L204.8,187.9 L204.9,188.6 L205.2,189.9 L205.4,190.8 L207.8,198.0 L208.4,199.3 L208.9,200.2 L209.4,200.8 L210.5,202.3 L211.1,203.4 L212.0,204.5 L212.6,205.2 L213.4,204.8 L213.9,205.8 L215.0,207.5 L215.9,210.5 L216.9,214.6 L218.2,217.6 L219.4,218.5 L219.9,218.6 L220.2,218.5 L220.6,218.8 L221.3,219.7 L224.4,226.0 L224.8,226.6 L226.4,230.5 L227.8,236.9 L228.1,238.7 L228.5,239.1 L228.8,239.5 L229.3,238.3 L230.0,230.7 L230.2,228.8 L230.4,228.9 L230.6,230.5 L230.8,233.2 L231.1,237.4 L231.5,241.4 L231.8,241.7 L233.0,242.6 L233.4,243.8 L233.7,243.8 L234.1,242.8 L235.2,237.5 L235.4,237.0 L235.6,237.4 L235.8,238.5 L235.9,239.7 L236.4,243.5 L236.6,245.1 L236.8,246.2 L237.0,247.2 L237.2,248.0 L237.8,250.1 L238.5,251.4 L239.3,251.2 L239.6,250.8 L240.4,248.2 L240.7,247.9 L240.9,248.8 L241.1,250.9 L241.7,255.7 L242.1,258.1 L242.5,258.5 L243.2,255.6 L243.5,256.4 L243.7,258.2 L244.0,260.8 L244.3,262.8 L247.0,271.4 L247.7,270.6 L248.3,270.9 L249.6,273.7 L251.3,277.3 L252.9,277.7 L254.0,280.9 L256.9,285.3 L257.1,285.9 L258.2,287.5 L258.9,288.5 L259.3,290.1 L259.5,290.7 L259.7,291.4 L260.0,291.7 L260.0,291.8 L260.1,291.9 L260.6,291.4 L260.8,291.2 L261.3,291.0 L261.6,291.1 L262.2,292.1 L262.9,293.0 L263.1,293.4 L263.7,293.9 L264.0,294.0 L264.2,294.2 L264.4,294.4 L264.6,294.7 L265.4,295.3 L265.6,295.7 L265.9,296.4 L266.0,296.6 L266.5,297.9 L266.7,298.3 L266.9,298.8 L267.9,299.6 L268.1,299.3 L268.4,299.5 L269.1,299.8 L269.5,300.0 L269.8,300.2 L270.8,300.0 L271.2,300.1 L271.4,300.3 L272.0,300.6 L273.0,300.1 L273.1,299.9 L273.6,299.7 L274.7,300.3 L275.8,299.7 L276.3,299.9 L276.4,300.1 L277.4,300.6 L278.0,300.3 L278.2,300.1 L278.6,300.0 L279.6,300.2 L279.9,300.0 L280.3,299.8 L281.0,299.5 L281.4,299.3 L281.5,299.6 L282.6,298.8 L282.8,298.3 L282.9,297.9 L284.0,296.7 L284.3,296.8 L285.7,297.3 L286.0,297.1 L286.7,297.1 L287.0,298.2 L287.8,298.9 L288.3,298.8 L288.8,298.7 L289.0,298.6 L289.2,298.4 L290.4,297.2 L291.5,295.4 L291.8,294.9 L292.0,294.7 L292.3,294.3 L292.7,293.9 L292.9,293.7 L293.4,292.8 L293.9,291.1 L294.9,291.4 L296.5,293.6 L296.8,292.8 L297.3,292.0 L298.2,290.8 L298.9,290.2 L299.3,290.2 L299.5,290.1 L299.8,289.9 L300.4,289.0 L301.0,288.4 L302.2,287.1 L304.0,285.5 L304.4,285.5 L305.0,284.8 L305.2,284.8 L305.5,284.6 L306.3,283.6 L308.6,283.0 L309.3,282.2 L310.0,281.4 L311.1,279.6 L312.7,278.1 L313.5,279.4 L314.3,278.7 L314.7,277.9 L315.3,276.6 L315.9,277.2 L316.6,276.6 L318.4,273.1 L318.7,273.3 L319.5,273.8 L320.1,273.2 L321.2,272.8 L321.8,272.8 L322.2,272.5 L322.5,271.8 L322.9,270.5 L324.1,269.6 L324.8,269.1 L325.2,268.4 L325.4,268.1 L326.1,266.5 L327.4,261.9 L328.0,260.0 L328.4,257.3 L329.5,254.7 L330.2,253.6 L331.3,250.7 L331.9,249.4 L333.0,245.3 L333.8,242.3 L334.6,238.6 L335.3,233.4 L335.8,229.6 L336.1,227.9 L336.3,226.9 L336.6,226.4 L337.8,225.6 L338.0,224.0 L338.4,223.7 L338.6,223.3 L339.3,221.0 L339.6,219.9 L340.1,218.9 L340.6,218.2 L340.9,217.9 L342.0,214.3 L342.3,213.4 L343.3,211.6 L343.8,211.3 L344.6,209.9 L345.0,210.1 L345.5,210.5 L346.7,206.3 L347.1,205.6 L347.5,205.0 L348.6,202.2 L350.2,200.2 L350.5,200.2 L351.4,199.0 L352.9,197.4 L354.2,197.9 L354.7,196.6 L354.9,196.0 L355.3,195.5 L362.5,200.0 L363.2,203.8 L363.9,204.9 L365.4,203.4 L366.1,203.4 L366.5,202.9 L366.9,202.8 L367.2,202.6 L367.7,202.3 L368.5,201.8 L369.0,202.5 L370.4,204.2 L370.8,206.6 L371.1,208.9 L371.8,210.3 L372.5,208.9 L373.4,204.1 L373.9,201.9 L374.6,198.1 L375.6,193.0 L376.2,190.9 L377.2,188.9 L377.5,188.0 L379.3,187.1 L380.6,190.9 L381.4,189.4 L381.6,189.1 L381.9,191.0 L382.3,196.4 L384.0,193.3 L384.4,192.2 L384.8,191.5 L385.6,191.5 L386.9,191.6 L387.2,192.1 L387.4,192.1 L387.8,191.7 L387.9,191.6 L388.2,191.0 L389.5,187.6 L389.9,186.7 L390.3,185.4 L390.6,184.0 L391.3,182.3 L392.5,180.2 L392.6,179.9 L392.7,179.4 L393.5,177.0 L394.3,175.4 L394.7,174.8 L395.1,174.3 L395.7,173.2 L396.1,172.5 L396.5,171.8 L397.2,170.6 L397.6,169.6 L398.3,167.9 L398.7,167.3 L399.6,165.9 L399.7,165.9 L399.8,165.8 L400.0,165.7 L400.1,165.7 L400.5,166.0 L401.0,166.5 L401.7,166.9 L402.2,167.3 L402.3,167.4 L403.2,168.4 L403.8,168.8 L404.4,169.3 L404.9,169.9 L405.2,170.0 L405.6,170.3 L405.9,170.6 L406.2,171.2 L406.7,171.4 L407.0,171.5 L407.1,172.1 L407.9,174.1 L409.3,178.8 L410.3,181.7 L410.6,182.2 L411.3,184.4 L412.1,187.3 L413.2,190.8 L413.4,190.9 L414.3,193.9 L415.3,197.8 L415.7,199.8 L416.0,201.9 L416.4,204.5 L417.7,206.9 L418.8,209.0 L419.5,210.5 L419.9,211.4 L420.1,211.5 L420.4,211.4 L421.5,212.0 L422.5,211.7 L424.2,212.4 L424.9,211.0 L425.2,210.2 L425.7,208.7 L426.5,211.7 L426.7,212.5 L427.2,213.1 L427.9,214.5 L428.1,215.0 L428.4,216.5 L428.9,217.9 L429.3,218.5 L429.5,218.7 L429.6,218.9 L429.8,219.2 L430.2,219.5 L430.6,219.9 L431.1,220.1 L432.0,218.7 L432.3,218.5 L432.9,219.4 L433.5,220.9 L434.1,222.3 L434.4,222.8 L436.2,228.1 L436.5,228.6 L437.0,229.3 L437.7,230.0 L438.9,233.0 L439.4,233.7 L440.3,236.3 L440.8,238.0 L441.1,238.5 L442.1,239.6 L442.5,240.8 L442.8,241.7 L444.3,243.7 L445.2,245.7 L445.3,246.0 L445.7,247.9 L445.7,248.3 L446.1,249.5 L449.9,253.8 L451.6,251.5 L452.5,252.3 L453.7,255.0 L455.2,258.0 L456.0,258.7 L457.4,258.7 L459.0,261.9 L461.4,256.0 L461.9,256.3 L462.7,259.6 L464.0,259.8 L467.5,266.0 L469.5,269.6 L470.8,270.1 L471.5,270.7 L474.4,273.7 L475.3,275.6 L476.1,277.4 L479.7,281.6 L482.1,286.9 L482.5,287.7 L483.0,288.4 L483.6,288.0 L484.6,288.2 L485.4,289.9 L487.4,294.3 L490.0,294.6 L492.0,299.8 L493.7,300.2 L495.6,303.5 L497.0,301.7 L497.2,301.9 L497.4,302.6 L497.8,303.8 L498.0,304.1 L498.2,304.2 L498.4,304.0 L498.9,302.6 L499.1,301.9 L499.6,302.6 L500.1,304.6 L500.4,305.3 L501.2,307.1 L501.4,307.4 L503.0,309.4 L503.5,309.9 L504.0,310.5 L504.7,310.6 L505.5,311.4 L506.4,312.0 L507.3,311.8 L508.1,312.5 L508.8,313.4 L508.9,313.5 L509.2,313.8 L509.5,314.1 L509.6,314.3 L509.7,314.3 L510.9,314.0 L511.4,314.0 L511.8,314.3 L512.0,314.7 L513.0,316.0 L513.2,316.2 L514.7,317.0 L515.0,317.1 L515.6,317.4 L515.8,317.5 L516.0,317.5 L516.7,317.3 L517.1,317.3 L517.7,317.5 L518.9,318.5 L520.4,317.8 L522.3,318.3 L523.0,318.7 L526.0,319.6 L526.9,319.9 L527.4,319.6 L529.2,319.6 L530.2,319.9 L531.3,320.6 L531.4,320.8 L532.1,321.6 L532.8,321.2 L533.2,320.9 L533.4,320.8 L533.6,320.8 L534.4,321.4 L536.5,322.5 L536.6,322.5 L536.9,322.6 L537.2,322.5 L537.6,322.5 L537.9,322.5 L539.3,322.3 L539.8,323.0 L540.1,323.4 L541.6,323.8 L541.8,323.4 L542.3,322.9 L542.8,322.5 L543.0,322.4 L543.2,322.6 L543.3,322.5 L543.5,322.7 L543.7,322.9 L543.7,323.0 L543.9,323.3 L544.2,323.5 L546.3,323.0 L546.5,322.9 L546.7,322.6 L546.8,322.4 L547.0,322.4 L547.3,322.6 L547.8,322.6 L547.9,322.6 L548.0,322.6 L548.1,322.6 L548.4,322.7 L548.5,322.8 L550.3,324.0 L550.9,322.9 L551.0,322.6 L551.1,322.6 L551.8,321.9 L552.2,322.1 L552.6,322.1 L553.6,321.7 L553.8,321.6 L553.9,321.6 L554.4,321.7 L554.9,321.7 L555.1,321.8 L555.3,321.8 L555.5,321.8 L555.7,321.9 L556.8,321.7 L558.6,322.0 L558.9,322.0 L560.7,320.1 L561.0,319.7 L561.4,319.8 L562.3,319.8 L562.4,319.7 L562.5,319.7 L562.6,319.8 L562.8,319.7 L563.5,320.7 L563.7,320.6 L564.4,321.1 L564.8,321.1 L565.4,321.1 L567.1,320.7 L568.4,320.1 L569.7,320.8 L571.0,320.2 L571.1,320.2 L571.3,320.3 L571.5,320.6 L571.7,320.8 L572.0,320.7 L573.8,320.2 L575.0,320.7 L575.2,320.8 L576.1,321.5 L576.4,321.8 L576.8,321.9 L578.1,322.4 L579.9,321.3 L580.3,321.7 L580.5,322.1 L583.2,322.1 L583.5,322.0 L585.1,321.6 L586.6,321.1 L590.1,322.0 L592.0,321.3 L594.7,321.0 L596.4,321.1 L596.7,321.1 L598.1,320.5 L599.7,320.4 L600.2,319.8 L600.4,319.9 L600.6,320.0 L604.6,320.9 L604.7,321.1 L605.0,321.4 L608.0,324.1 L613.9,319.5 L616.6,320.7 L619.4,321.1 L622.1,321.1 L622.3,321.0 L622.5,320.9 L622.6,320.8 L622.8,320.8 L626.7,321.2 L629.9,321.9 L630.1,321.9 L630.3,321.9 L630.9,321.7 L633.4,322.3 L633.9,322.1 L634.1,322.2 L634.2,322.3 L634.3,322.3 L634.5,322.3 L634.6,322.3 L634.7,322.2 L635.1,321.7 L635.4,321.9 L636.4,321.6 L636.4,321.6 L636.6,321.5 L637.6,321.4 L637.8,321.6 L637.9,321.6 L638.7,322.7 L639.3,323.0 L639.6,322.9 L639.7,322.8 L640.0,322.6 L640.8,322.5 L640.9,322.4 L641.8,322.2 L642.4,321.9 L642.5,321.9 L642.7,321.8 L644.6,322.1 L647.8,321.4 L648.6,322.1 L649.4,321.8 L650.2,321.1 L651.8,321.1 L652.2,321.1 L652.3,321.2 L653.2,321.1 L653.4,321.0 L654.0,321.1 L654.4,321.2 L654.7,321.3 L655.2,321.7 L655.3,321.8 L655.7,322.2 L656.0,322.5 L656.7,323.5 L657.3,324.5 L658.5,324.3 L658.9,324.4 L660.1,325.4 L661.1,325.9 L661.5,326.1 L661.7,326.2 L661.8,326.2 L662.2,326.3 L663.9,325.8 L664.8,325.1 L666.4,325.3 L667.1,325.6 L667.5,325.4 L668.8,326.5 L669.1,326.7 L670.9,325.6 L673.9,327.6 L674.7,326.3 L676.0,324.8 L677.6,324.2 L679.1,323.7 L680.7,324.1 L681.6,323.2 L682.7,322.8 L683.3,323.0 L683.8,323.7 L684.3,324.5 L685.5,324.7 L686.4,324.6 L686.8,324.2 L687.5,323.0 L687.9,322.6 L689.0,323.6 L689.2,323.5 L690.1,324.4 L692.3,325.0 L693.5,325.0 L694.9,324.5 L695.5,325.2 L697.0,326.2 L698.4,325.6 L699.0,325.8 L699.5,325.7 L700.1,325.3 L700.3,325.3 L700.4,325.3 L700.6,325.1 L700.8,324.9 L701.0,324.7 L701.1,324.7 L701.3,324.6 L701.6,324.3 L701.8,324.1 L703.3,324.5 L705.2,326.2 L705.5,326.2 L706.6,325.6 L707.6,324.0 L708.8,324.8 L710.1,324.5 L712.0,324.9 L715.0,323.2 L719.1,324.0 L720.2,323.5 L721.2,322.8 L722.4,322.6 L725.2,322.2 L726.0,323.2 L726.5,324.5 L726.6,324.8 L729.9,325.2 L732.3,325.2 L734.9,324.9 L737.3,321.9 L738.0,321.6 L738.8,320.5 L740.5,322.4 L747.5,325.2 L753.2,324.1 L753.6,325.0 L759.2,326.4 L760.0,325.8 L760.8,325.4 L761.3,325.9 L762.3,326.5 L762.9,325.9 L763.2,325.4 L763.7,325.3 L768.5,326.2 L769.6,325.4 L770.5,324.8 L770.7,324.9 L770.9,324.8 L771.1,324.7 L771.9,325.0 L772.3,325.1 L772.4,325.1 L773.4,324.9 L774.7,325.2 L775.4,325.5 L776.4,325.9 L778.2,325.9 L778.3,325.9 L779.4,324.7 L781.2,326.2 L782.9,326.3 L783.4,326.1 L785.1,325.2 L786.1,325.3 L787.4,325.5 L788.5,324.9 L789.5,324.5 L790.5,325.0 L791.5,325.1 L791.7,325.0 L791.9,324.9 L792.2,325.1 L793.0,325.3 L793.3,325.3 L793.6,325.3 L794.0,325.4 L794.6,325.8 L795.4,326.5 L796.0,326.0 L796.4,325.6 L796.8,325.4 L797.3,325.8 L798.6,326.2 L799.0,326.3 L799.2,326.1 L799.3,326.0 L799.9,325.4 L801.1,324.6 L802.0,324.8 L802.5,325.2 L804.1,324.1 L806.7,324.5 L808.3,325.2 L809.2,325.1 L811.4,325.8 L811.6,326.1 L813.8,327.4 L814.8,327.4 L818.3,326.2 L818.7,326.2 L821.0,326.8 L821.2,326.5 L821.4,326.3 L822.0,325.8 L822.5,325.5 L823.2,325.4 L824.0,326.0 L826.6,326.9 L831.4,326.2 L836.0,326.0 L836.4,326.0 L840.8,325.5 L841.1,326.0 L841.5,326.4 L842.9,326.3 L844.4,326.0 L844.8,325.7 L845.1,325.5 L845.9,325.7 L853.8,326.0 L854.1,325.7 L854.4,325.2 L861.7,326.0 L868.8,327.3 L869.5,326.8 L873.0,323.8 L876.1,324.3 L878.0,324.8 L881.2,323.9 L881.4,324.2 L881.5,324.2 L881.7,324.5 L881.8,324.8 L881.9,325.0 L882.4,325.9 L882.8,326.0 L883.0,325.7 L883.9,325.6 L884.5,326.2 L885.2,327.1 L885.8,327.5 L886.4,327.7 L887.6,325.8 L888.5,326.0 L890.1,325.6 L890.5,325.0 L891.0,324.9 L891.4,325.0 L893.6,325.9 L894.0,325.6 L907.6,324.2 L907.9,324.2 L910.1,324.7 L910.7,324.7 L913.4,324.3 L916.5,325.9 L922.5,325.8 L923.3,326.0 L923.7,325.6 L924.4,324.9 L925.9,325.8 L927.1,324.6 L927.9,324.3 L928.7,324.7 L929.4,325.5 L933.6,325.3 L934.3,324.2 L934.7,324.9 L936.2,326.1 L937.3,325.8 L938.2,326.1 L938.9,325.9 L939.5,326.9 L940.2,328.5 L941.2,329.7 L941.7,329.4 L942.7,327.7 L944.0,327.9 L944.9,327.4 L945.6,327.1 L947.3,328.0 L948.2,328.3 L948.9,327.8 L949.2,327.7 L951.0,327.6 L952.6,328.8 L952.8,328.9 L953.8,328.2 L954.6,327.4 L955.5,327.6 L956.0,327.8 L956.8,327.0 L957.2,326.1 L957.8,324.6 L958.7,326.8 L959.8,327.7 L960.3,328.5 L960.9,329.4 L962.2,326.5 L962.5,326.0 L962.7,326.0 L962.9,325.9 L963.7,325.6 L964.5,326.1 L966.4,325.4 L968.6,326.9 L968.9,327.2 L969.5,327.0 L969.9,327.0 L970.4,327.4 L971.5,328.0 L971.8,327.9 L974.4,326.8 L975.0,327.3 L975.3,327.8 L975.5,328.1 L975.8,328.3 L976.8,327.4 L977.6,327.3 L979.5,328.3 L983.5,326.6 L983.9,326.5 L984.6,326.7 L985.0,326.8 L986.4,327.0 L986.8,327.8 L987.9,328.2 L997.0,327.7 L997.7,328.2 L998.2,327.9 L998.8,327.2 L1001.8,326.1 L1002.4,326.0 L1003.1,326.3 L1003.7,326.3 L1004.7,327.1 L1010.6,326.4 L1015.3,326.1 L1016.0,325.6 L1018.2,325.6 L1018.7,325.0 L1020.9,325.5 L1021.6,325.4 L1023.1,326.4 L1023.6,325.1 L1024.1,325.3 L1028.1,324.2 L1035.3,326.0 L1038.7,325.8 L1046.2,325.9 L1047.8,326.8 L1048.1,327.1 L1048.2,327.2 L1048.7,327.7 L1049.3,327.7 L1049.6,327.5 L1050.6,327.4 L1050.9,327.4 L1051.1,327.7 L1051.2,327.9 L1051.4,328.1 L1051.6,328.4 L1054.0,326.6 L1054.3,326.4 L1054.5,326.3 L1054.7,326.3 L1055.0,326.3 L1056.9,324.6 L1057.3,325.4 L1057.6,326.0 L1057.8,326.4 L1058.6,327.6 L1060.1,327.3 L1061.5,328.3 L1061.8,328.1 L1062.0,328.0 L1062.6,327.8 L1062.8,327.8 L1063.0,327.8 L1063.2,327.8 L1063.6,327.8 L1064.2,327.4 L1064.6,327.4 L1070.3,329.9 L1071.2,328.6 L1071.7,328.3 L1072.3,328.7 L1072.5,328.8 L1072.9,328.8 L1074.4,329.0 L1075.9,329.3 L1076.3,329.1 L1079.6,329.2 L1080.1,329.3 L1080.5,328.8 L1081.0,328.1 L1082.0,328.7 L1082.7,328.4 L1082.9,328.6 L1083.3,328.6 L1083.5,328.6 L1083.7,328.6 L1083.9,328.8 L1084.1,328.9 L1085.5,328.6 L1087.8,330.4 L1088.7,330.2 L1093.6,329.5 L1096.9,329.4 L1097.9,329.4 L1098.6,328.8 L1099.2,328.3 L1099.3,328.3 L1099.6,328.1 L1099.8,327.8 L1100.0,327.7 L1100.2,327.7 L1100.4,327.9 L1100.7,327.9 L1100.8,327.8 L1101.3,327.6 L1102.4,328.0 L1102.9,328.3 L1102.9,328.4 L1105.4,329.3 L1106.0,329.4 L1107.4,328.4 L1107.6,328.3 L1107.9,328.3 L1108.0,328.3 L1108.3,328.3 L1108.8,328.2 L1109.0,328.3 L1109.8,328.0 L1110.0,327.9 L1110.5,327.5 L1110.7,327.3 L1110.8,327.2 L1111.5,326.5 L1111.6,326.4 L1111.7,326.4 L1111.8,326.3 L1113.2,324.7 L1114.8,324.9 L1116.5,324.3 L1116.7,324.0 L1118.2,321.3 L1118.6,321.3 L1119.5,322.1 L1119.7,322.3 L1120.0,322.6 L1120.3,323.0 L1120.4,323.2 L1120.8,323.7 L1120.8,323.7 L1121.0,323.9 L1121.2,324.1 L1121.9,324.0 L1122.2,323.7 L1122.9,323.5 L1123.9,324.2 L1124.4,324.7 L1125.2,325.0 L1125.4,325.0 L1126.1,324.8 L1126.2,324.9 L1126.4,325.0 L1126.7,324.9 L1127.0,325.0 L1127.3,325.5 L1127.7,326.1 L1128.1,326.7 L1128.7,326.4 L1129.1,326.2 L1129.2,326.1 L1129.7,325.9 L1129.9,325.8 L1130.1,325.6 L1130.3,325.4 L1130.3,325.4 L1130.6,325.1 L1130.8,325.0 L1131.0,324.7 L1131.3,324.2 L1133.5,324.0 L1134.9,323.3 L1135.2,323.8 L1135.4,324.3 L1135.5,324.5 L1135.6,324.4 L1135.9,324.1 L1136.1,323.8 L1136.3,323.5 L1136.8,323.2 L1138.0,323.0 L1139.8,322.0 L1150.2,322.0 L1154.7,318.2 L1155.3,317.8 L1155.5,317.7 L1156.4,318.3 L1163.4,319.4 L1163.6,319.2 L1168.5,321.0 L1169.4,321.4 L1171.2,321.1 L1172.9,320.3 L1178.2,319.6 L1179.5,320.3 L1180.0,320.1 L1180.5,320.1 L1181.7,319.4 L1193.5,320.6 L1196.2,320.8 L1198.0,319.4 L1202.5,318.9 L1211.0,319.0 L1211.6,318.9 L1213.8,320.8 L1216.8,321.1 L1218.0,320.8 L1218.8,321.4 L1219.7,321.9 L1225.3,320.4 L1226.2,320.6 L1227.5,319.9 L1228.3,319.7 L1229.6,319.3 L1231.2,320.1 L1232.3,322.5 L1233.2,324.0 L1235.0,324.7 L1235.9,324.6 L1237.4,325.9 L1238.0,326.1 L1240.1,324.4 L1240.4,324.8 L1240.9,325.5 L1241.6,326.1 L1242.1,326.3 L1242.7,324.6 L1243.3,322.8 L1244.2,323.3 L1245.3,325.8 L1246.0,326.7 L1246.9,327.5 L1247.8,327.5 L1248.7,329.3 L1249.6,330.6 L1249.8,330.9 L1251.6,330.9 L1252.4,331.0 L1253.3,330.4 L1255.0,330.9 L1256.2,331.8 L1256.5,332.3 L1256.8,332.5 L1257.0,332.7 L1257.1,332.8 L1257.2,332.8 L1257.3,332.8 L1257.5,332.6 L1257.7,332.4 L1258.3,331.8 L1258.8,331.4 L1258.9,331.3 L1259.1,331.1 L1259.9,330.2 L1260.3,330.4 L1260.6,330.8 L1261.0,330.8 L1261.9,330.5 L1262.3,330.5 L1263.6,330.5 L1264.3,330.4 L1264.9,330.3 L1265.5,330.3 L1266.7,330.9 L1266.9,331.2 L1267.9,330.8 L1268.4,330.8 L1268.8,330.6 L1270.6,329.9 L1272.3,330.3 L1273.3,329.9 L1273.9,329.3 L1274.2,329.4 L1275.2,330.0 L1276.4,329.9 L1278.2,330.4 L1278.5,329.9 L1278.9,330.2 L1279.5,330.1 L1279.6,330.1 L1282.2,331.0 L1283.1,331.0 L1284.9,331.2 L1285.0,331.0 L1285.1,330.9 L1285.7,330.9 L1286.2,331.3 L1286.4,331.5 L1286.7,331.7 L1290.8,331.2 L1291.9,330.8 L1292.6,330.6 L1295.2,329.7 L1296.1,329.9 L1298.9,328.9 L1299.1,329.0 L1299.4,328.8 L1299.7,328.3 L1300.0,328.0 L1304.7,327.5 L1306.5,328.7 L1306.9,329.0 L1307.8,328.2 L1308.1,327.6 L1308.2,327.3 L1308.3,327.3 L1308.7,327.7 L1308.9,328.0 L1309.3,327.9 L1309.5,328.0 L1309.9,328.3 L1311.9,327.8 L1312.6,329.5 L1312.8,329.9 L1313.8,329.8 L1314.2,330.2 L1314.9,329.4 L1315.0,329.1 L1315.2,329.2 L1315.5,328.8 L1316.4,329.1 L1317.7,329.4 L1318.9,332.5 L1319.8,332.7 L1320.2,332.3 L1320.3,332.1 L1320.8,331.5 L1321.8,331.9 L1323.0,331.9 L1324.0,332.0 L1324.6,331.9 L1325.1,331.9 L1325.5,331.7 L1325.7,331.7 L1325.8,331.7 L1326.0,331.6 L1326.1,331.5 L1326.9,330.5 L1328.2,331.1 L1329.3,331.6 L1329.8,331.3 L1330.1,331.2 L1330.8,330.9 L1331.0,330.9 L1331.3,330.8 L1331.9,331.0 L1332.4,331.6 L1332.9,332.0 L1333.0,332.1 L1333.4,332.2 L1333.7,331.9 L1334.6,331.7 L1334.7,331.7 L1335.1,332.0 L1335.6,331.8 L1335.7,331.7 L1336.0,331.5 L1336.1,331.4 L1336.2,331.3 L1336.4,331.2 L1336.6,331.2 L1337.2,331.4 L1337.5,331.3 L1338.5,330.5 L1339.4,330.3 L1339.7,330.1 L1340.2,329.4 L1340.7,328.4 L1340.8,328.4 L1341.2,328.4 L1341.4,328.4 L1341.7,328.7 L1342.1,329.2 L1342.2,329.4 L1343.7,330.8 L1343.9,330.9 L1344.1,331.0 L1345.0,331.5 L1346.7,330.8 L1347.0,331.1" fill="transparent" id="track" stroke="black" stroke-width="2"/>
<g>
<circle cx="25.221" cy="67.603" fill="Red" id="wp-0/circle" r="3.000"/>
<text font-size="16.0" id="wp-0/text" text-anchor="start" x="22.543" y="94.603">
Hartkopf
</text>
<circle cx="53.744" cy="26.478" fill="Blue" id="wp-1/circle" r="3.000"/>
<text font-size="16.0" id="wp-1/text" text-anchor="start" x="3.394" y="23.478">
Rote Lache
</text>
<circle cx="281.372" cy="299.296" fill="Gray" id="wp-2/circle" r="5.000"/>
<text font-size="16.0" id="wp-2/text" text-anchor="start" x="278.399" y="316.296">
Gernsbach
</text>
<circle cx="401.034" cy="166.498" fill="Gray" id="wp-3/circle" r="2.000"/>
<text font-size="16.0" id="wp-3/text" text-anchor="start" x="369.276" y="163.498">
Ebersteinburg
</text>
<circle cx="196.762" cy="186.932" fill="Blue" id="wp-4/circle" r="3.000"/>
<text font-size="16.0" id="wp-4/text" text-anchor="start" x="133.840" y="183.932">
Nachtigall
</text>
<circle cx="652.331" cy="321.165" fill="Gray" id="wp-5/circle" r="2.000"/>
<text font-size="16.0" id="wp-5/text" text-anchor="start" x="621.552" y="318.165">
Iffezheim
</text>
<circle cx="513.238" cy="316.197" fill="Gray" id="wp-6/circle" r="2.000"/>
<text font-size="16.0" id="wp-6/text" text-anchor="start" x="411.526" y="333.197">
Haueneberstein
</text>
<circle cx="791.736" cy="325.006" fill="Gray" id="wp-7/circle" r="2.000"/>
<text font-size="16.0" id="wp-7/text" text-anchor="start" x="774.761" y="322.006">
Beinheim
</text>
<circle cx="962.923" cy="325.876" fill="Gray" id="wp-8/circle" r="2.000"/>
<text font-size="16.0" id="wp-8/text" text-anchor="start" x="912.073" y="317.876">
Munchhausen
</text>
<circle cx="1126.409" cy="324.955" fill="Gray" id="wp-9/circle" r="2.000"/>
<text font-size="16.0" id="wp-9/text" text-anchor="start" x="1113.725" y="341.955">
Lauterbourg
</text>
<circle cx="1156.442" cy="318.297" fill="Gray" id="wp-10/circle" r="2.000"/>
<text font-size="16.0" id="wp-10/text" text-anchor="start" x="1153.715" y="315.297">
Berg (Pfalz)
</text>
<circle cx="1260.640" cy="330.793" fill="Gray" id="wp-11/circle" r="2.000"/>
<text font-size="16.0" id="wp-11/text" text-anchor="start" x="1248.229" y="322.793">
Hagenbach
</text>
<circle cx="1347.500" cy="331.459" fill="Gray" id="wp-12/circle" r="5.000"/>
<text font-size="16.0" id="wp-12/text" text-anchor="start" x="1247.374" y="348.459">
Wörth am Rhein
</text>
<circle cx="1347.500" cy="331.459" fill="Black" id="wp-13/circle" r="4.000"/>
<text font-size="16.0" id="wp-13/text" text-anchor="start" x="1329.889" y="303.459">
K4
</text>
</g>
</g>
<g id="SL" transform="translate(0 0)">
<text text-anchor="end" x="66" y="363.5">
50
</text>
<text text-anchor="end" x="66" y="312.2857142857143">
150
</text>
<text text-anchor="end" x="66" y="261.07142857142856">
250
</text>
<text text-anchor="end" x="66" y="209.85714285714283">
350
</text>
<text text-anchor="end" x="66" y="158.64285714285714">
450
</text>
<text text-anchor="end" x="66" y="107.42857142857139">
550
</text>
<text text-anchor="end" x="66" y="56.21428571428572">
650
</text>
<text text-anchor="end" x="66" y="5">
750
</text>
</g>
</g>
</svg>