<svg height="400" width="1420" xmlns="http://www.w3.org/2000/svg">
<g font-size="18" id="world" shape-rendering="crispEdges">
<g id="BG"/>
<g id="SB" transform="translate(71 360)">
<text text-anchor="middle" x="-0.08838317442177868" y="17">
90
</text>
<text text-anchor="middle" x="269.4116168255782" y="17">
110
</text>
<text text-anchor="middle" x="538.9116168255782" y="17">
130
</text>
<text text-anchor="middle" x="808.4116168255784" y="17">
150
</text>
<text text-anchor="middle" x="1077.9116168255782" y="17">
170
</text>
<text text-anchor="middle" x="1347.4116168255782" y="17">
190
</text>
</g>
<g id="SD" transform="translate(71 0)">
<path d="M0,0 L1347.5,0" stroke="black" stroke-width="3"/>
<path d="M0,0 L0,358.5" stroke="black" stroke-width="3"/>
<path d="M0,358.5 L1347.5,358.5" stroke="black" stroke-width="3"/>
<path d="M1347.5,0 L1347.5,358.5" stroke="black" stroke-width="3"/>
<path d="M0,358.5 L1347.5,358.5" stroke="black" stroke-width="1"/>
<path d="M-0.088383175,0 L-0.088383175,358.5" stroke="black" stroke-width="1"/>
<path d="M269.41162,0 L269.41162,358.5" stroke="black" stroke-width="1"/>
<path d="M538.9116,0 L538.9116,358.5" stroke="black" stroke-width="1"/>
<path d="M808.4116,0 L808.4116,358.5" stroke="black" stroke-width="1"/>
<path d="M1077.9116,0 L1077.9116,358.5" stroke="black" stroke-width="1"/>
<path d="M1347.4116,0 L1347.4116,358.5" stroke="black" stroke-width="1"/>
<path d="M134.66162,0 L134.66162,358.5" stroke="black" stroke-dasharray="1.0,2.5,5.0,5.0,10.0,5.0"/>
<path d="M404.16162,0 L404.16162,358.5" stroke="black" stroke-dasharray="1.0,2.5,5.0,5.0,10.0,5.0"/>
<path d="M673.6616,0 L673.6616,358.5" stroke="black" stroke-dasharray="1.0,2.5,5.0,5.0,10.0,5.0"/>
<path d="M943.1616,0 L943.1616,358.5" stroke="black" stroke-dasharray="1.0,2.5,5.0,5.0,10.0,5.0"/>
<path d="M1212.6616,0 L1212.6616,358.5" stroke="black" stroke-dasharray="1.0,2.5,5.0,5.0,10.0,5.0"/>
<path d="M0,358.5 L1347.5,358.5" stroke="black" stroke-width="1"/>
<path d="M0,318.66666 L1347.5,318.66666" stroke="black" stroke-width="1"/>
<path d="M0,278.83334 L1347.5,278.83334" stroke="black" stroke-width="1"/>
<path d="M0,239 L1347.5,239" stroke="black" stroke-width="1"/>
<path d="M0,199.16667 L1347.5,199.16667" stroke="black" stroke-width="1"/>
<path d="M0,159.33333 L1347.5,159.33333" stroke="black" stroke-width="1"/>
<path d="M0,119.5 L1347.5,119.5" stroke="black" stroke-width="1"/>
<path d="M0,79.666664 L1347.5,79.666664" stroke="black" stroke-width="1"/>
<path d="M0,39.833332 L1347.5,39.833332" stroke="black" stroke-width="1"/>
<path d="M0,0 L1347.5,0" stroke="black" stroke-width="1"/>
<path d="M0,338.58334 L1347.5,338.58334" stroke="black" stroke-dasharray="1.0,2.5,5.0,5.0,10.0,5.0"/>
<path d="M0,298.75 L1347.5,298.75" stroke="black" stroke-dasharray="1.0,2.5,5.0,5.0,10.0,5.0"/>
<path d="M0,258.91666 L1347.5,258.91666" stroke="black" stroke-dasharray="1.0,2.5,5.0,5.0,10.0,5.0"/>
<path d="M0,219.08333 L1347.5,219.08333" stroke="black" stroke-dasharray="1.0,2.5,5.0,5.0,10.0,5.0"/>
<path d="M0,179.25 L1347.5,179.25" stroke="black" stroke-dasharray="1.0,2.5,5.0,5.0,10.0,5.0"/>
<path d="M0,139.41667 L1347.5,139.41667" stroke="black" stroke-dasharray="1.0,2.5,5.0,5.0,10.0,5.0"/>
<path d="M0,99.583336 L1347.5,99.583336" stroke="black" stroke-dasharray="1.0,2.5,5.0,5.0,10.0,5.0"/>
<path d="M0,59.75 L1347.5,59.75" stroke="black" stroke-dasharray="1.0,2.5,5.0,5.0,10.0,5.0"/>
<path d="M0,19.916666 L1347.5,19.916666" stroke="black" stroke-dasharray="1.0,2.5,5.0,5.0,10.0,5.0"/>
<path d="M0.0,151.4 L0.4,151.6 L0.8,152.3 L1.0,152.3 L2.0,153.1 L2.5,153.5 L3.0,155.3 L3.2,156.4 L3.9,158.5 L4.5,158.5 L4.8,158.7 L5.3,160.2 L5.5,161.2 L5.8,161.9 L6.1,162.8 L6.4,162.8 L7.6,168.7 L8.0,169.8 L9.8,172.5 L10.1,172.3 L10.2,172.3 L10.4,172.5 L11.2,172.9 L11.7,174.5 L12.0,174.5 L12.3,175.0 L12.6,175.5 L13.2,176.6 L13.9,177.3 L14.3,178.2 L14.7,181.2 L15.0,182.1 L15.4,184.2 L15.7,185.2 L16.7,188.4 L17.0,189.9 L17.4,189.9 L17.8,192.8 L18.2,195.1 L18.5,196.6 L19.1,196.6 L19.6,198.8 L20.2,202.3 L20.8,205.4 L22.1,213.3 L22.8,216.2 L23.1,217.3 L23.5,217.3 L24.0,219.0 L24.2,219.6 L24.5,220.2 L24.7,220.2 L25.0,221.7 L25.5,221.7 L26.4,225.7 L26.7,226.5 L27.0,226.8 L27.4,227.5 L28.4,229.1 L28.5,229.1 L28.6,229.1 L28.8,229.1 L29.0,229.8 L29.1,230.1 L29.4,230.8 L30.2,231.7 L31.0,232.4 L31.6,234.2 L32.0,237.5 L33.3,241.9 L34.3,246.2 L34.8,247.2 L35.9,247.9 L36.1,249.7 L36.3,249.7 L37.0,250.4 L37.9,254.7 L38.7,256.3 L39.1,257.9 L40.0,261.2 L40.2,261.2 L40.5,262.0 L41.2,262.9 L42.1,266.6 L42.3,266.6 L43.0,268.9 L44.0,271.4 L44.6,271.4 L45.3,274.3 L46.5,276.7 L47.3,278.0 L47.9,278.0 L48.2,278.8 L48.9,278.8 L49.7,279.3 L50.8,279.1 L51.9,280.5 L53.7,286.5 L54.0,286.5 L54.7,287.8 L55.1,287.8 L55.3,288.4 L55.7,288.4 L57.9,296.1 L59.6,301.1 L59.8,301.7 L60.2,302.6 L60.4,302.6 L61.5,304.2 L62.2,304.3 L62.3,304.3 L62.4,304.8 L62.5,305.4 L62.5,305.4 L63.3,305.8 L63.5,305.8 L63.8,305.8 L64.1,306.0 L64.4,306.2 L65.1,306.1 L66.6,305.7 L66.9,305.7 L67.3,305.7 L67.6,305.8 L68.2,306.5 L68.5,306.9 L68.9,306.9 L69.1,307.2 L69.6,307.4 L70.0,307.9 L70.6,308.5 L70.8,308.5 L71.1,309.3 L71.7,310.1 L72.0,311.1 L72.3,311.7 L73.3,312.4 L73.6,312.8 L74.4,313.0 L74.6,313.0 L74.8,313.1 L75.1,313.2 L75.3,313.3 L76.0,313.2 L76.6,313.1 L77.3,313.0 L77.6,312.7 L77.9,312.4 L78.3,312.3 L78.6,312.3 L79.2,311.7 L79.5,311.2 L80.1,311.1 L80.4,310.9 L81.9,310.2 L82.1,309.9 L82.9,309.3 L83.1,309.3 L83.4,309.2 L83.9,309.2 L85.0,310.0 L86.4,309.0 L87.3,308.7 L87.8,308.6 L88.4,308.7 L89.1,308.7 L89.4,308.5 L89.8,308.5 L90.8,308.5 L91.9,308.4 L92.3,308.4 L93.0,308.5 L93.4,308.5 L93.9,308.0 L96.4,305.7 L96.7,305.0 L97.2,304.6 L97.4,304.6 L97.9,304.3 L98.2,304.3 L98.7,304.4 L99.3,304.2 L99.8,304.0 L100.3,303.7 L101.2,303.4 L101.5,303.2 L101.7,303.2 L102.2,302.9 L102.6,303.1 L103.7,302.5 L104.1,302.0 L104.2,301.8 L104.9,301.5 L105.9,300.9 L106.2,300.9 L106.7,300.3 L107.1,299.3 L109.2,298.8 L109.5,298.5 L110.1,298.1 L111.1,296.8 L112.9,295.8 L113.7,296.4 L114.3,296.3 L115.5,296.2 L116.2,295.6 L116.4,295.6 L116.7,295.2 L118.0,294.5 L118.4,293.9 L118.8,293.9 L119.2,293.0 L119.8,292.4 L120.6,292.9 L120.9,292.7 L122.2,293.1 L122.8,293.0 L123.2,292.8 L123.6,293.0 L123.8,293.1 L124.9,293.1 L125.4,293.4 L125.6,293.6 L125.6,293.6 L126.2,293.7 L128.1,293.1 L128.2,293.2 L128.4,293.0 L128.5,293.0 L130.1,292.9 L130.4,292.9 L130.9,291.6 L133.6,291.1 L133.8,291.1 L134.2,290.5 L135.2,290.2 L135.4,290.2 L135.9,289.8 L136.1,289.8 L136.4,289.6 L136.8,288.7 L137.9,287.8 L138.5,287.0 L139.1,285.5 L140.0,285.8 L141.8,285.9 L142.4,286.2 L143.2,286.5 L143.7,286.2 L144.2,286.1 L144.6,285.7 L145.0,285.4 L145.3,284.6 L146.0,283.4 L146.4,282.4 L146.6,281.2 L147.0,280.2 L147.7,279.6 L147.9,279.2 L148.3,279.0 L148.7,278.9 L149.1,278.3 L149.7,278.1 L150.2,279.0 L150.7,279.6 L151.3,280.5 L152.0,282.5 L152.5,283.2 L152.7,283.2 L152.8,283.2 L153.1,283.3 L153.3,283.0 L153.8,282.9 L154.0,282.8 L154.4,282.8 L155.6,281.4 L155.8,278.4 L156.4,277.8 L157.7,274.9 L158.3,273.6 L158.4,273.2 L158.5,273.2 L159.2,271.2 L160.7,270.7 L161.0,270.6 L162.2,269.9 L162.6,269.9 L165.5,264.8 L166.2,264.2 L166.6,262.7 L166.9,261.3 L167.2,261.3 L167.7,261.2 L168.0,261.2 L169.0,260.4 L169.2,260.4 L169.3,260.0 L169.4,260.0 L169.6,260.0 L169.9,258.8 L170.4,257.7 L171.7,256.0 L172.5,254.9 L173.1,254.1 L173.4,253.5 L173.7,253.5 L174.2,253.4 L174.4,253.0 L174.7,253.0 L175.1,252.2 L175.5,251.7 L175.7,251.7 L176.1,251.2 L176.4,250.9 L177.5,250.1 L177.7,250.1 L177.9,249.7 L178.6,249.0 L178.7,249.0 L178.9,248.6 L179.0,248.6 L179.4,248.0 L179.6,247.9 L179.8,247.8 L180.6,247.3 L180.8,247.0 L181.3,247.0 L181.5,246.9 L181.7,246.6 L181.8,246.6 L182.2,246.3 L182.3,246.1 L182.8,243.3 L183.1,243.3 L183.3,242.5 L185.1,238.4 L185.3,238.4 L185.4,238.4 L186.0,237.4 L186.5,236.7 L186.7,236.5 L187.2,236.2 L187.5,236.2 L188.2,236.1 L189.0,235.1 L189.4,233.9 L189.8,232.8 L190.3,231.5 L191.1,229.7 L191.7,227.8 L192.3,226.2 L193.8,223.3 L194.0,222.9 L194.2,222.4 L194.6,221.3 L194.7,221.0 L195.3,220.1 L195.5,219.8 L195.8,219.5 L196.8,218.0 L197.0,217.2 L197.2,217.2 L197.4,216.7 L197.6,216.2 L198.2,215.7 L198.4,215.4 L198.9,215.0 L199.3,215.0 L199.6,214.5 L200.2,213.3 L200.4,213.0 L200.7,213.0 L201.0,212.4 L201.3,211.0 L202.2,209.2 L202.6,208.4 L202.9,208.4 L203.6,206.2 L203.8,205.0 L203.9,205.0 L204.0,204.4 L204.1,204.4 L204.5,204.4 L205.2,203.5 L206.0,201.8 L206.4,201.2 L207.2,197.6 L208.5,196.9 L209.2,195.9 L209.8,195.7 L211.0,194.2 L211.6,193.7 L211.9,192.9 L213.0,192.7 L213.3,192.7 L214.5,190.7 L216.1,187.4 L217.2,187.4 L217.8,186.3 L218.2,185.4 L218.4,185.4 L218.4,185.4 L218.7,184.6 L220.0,183.5 L220.5,181.2 L221.4,176.1 L222.8,174.1 L223.0,174.1 L223.2,173.6 L223.3,173.6 L223.4,173.6 L223.5,173.6 L224.2,173.1 L224.9,173.5 L225.4,173.3 L225.6,173.3 L226.4,173.1 L227.0,172.6 L227.2,172.6 L227.3,172.6 L227.5,172.6 L227.9,172.2 L228.6,171.0 L229.2,170.5 L230.6,165.7 L230.8,165.2 L230.9,165.2 L231.1,165.2 L231.3,164.7 L231.9,163.3 L232.2,163.3 L232.4,162.9 L232.7,162.2 L234.3,157.4 L234.5,157.0 L235.0,155.2 L235.4,154.4 L235.6,154.0 L236.4,153.6 L236.8,153.6 L237.1,153.2 L237.4,152.7 L237.6,152.7 L237.9,152.2 L238.5,151.6 L238.7,151.6 L242.0,144.0 L242.5,142.9 L243.1,142.9 L243.6,142.1 L243.9,141.2 L244.2,139.9 L244.5,139.4 L245.9,137.3 L246.4,136.8 L246.7,136.4 L246.9,136.6 L247.1,136.5 L247.4,136.5 L247.8,136.5 L248.0,136.8 L248.2,137.1 L248.5,137.8 L249.4,139.5 L249.7,139.8 L249.9,140.2 L250.6,141.1 L250.7,141.6 L250.9,142.0 L251.1,142.0 L251.3,142.3 L251.4,142.3 L251.9,142.3 L252.7,143.5 L253.3,143.8 L255.3,146.4 L256.1,149.2 L256.5,149.8 L257.0,150.5 L257.3,151.2 L257.6,151.6 L258.5,152.8 L258.7,152.8 L259.0,153.9 L259.4,154.5 L259.7,155.0 L260.2,155.9 L260.4,156.7 L260.7,156.7 L260.9,156.7 L261.6,157.3 L262.6,160.6 L263.1,161.9 L263.6,164.2 L264.6,168.1 L264.8,168.1 L265.1,168.1 L265.5,168.9 L266.3,171.6 L266.6,171.6 L266.7,171.9 L266.9,171.9 L267.1,171.9 L268.3,173.3 L268.7,173.8 L269.3,174.7 L270.3,177.5 L270.7,177.5 L271.3,179.2 L272.3,182.0 L272.9,182.9 L273.6,186.1 L274.4,187.7 L274.7,188.4 L274.9,188.4 L275.4,189.7 L275.7,190.7 L276.8,191.0 L277.2,191.7 L277.7,193.3 L277.9,193.8 L278.0,193.8 L278.1,194.0 L278.2,194.0 L278.3,194.5 L280.0,196.7 L280.5,197.9 L281.0,201.3 L281.6,203.4 L281.8,203.4 L282.0,203.4 L282.8,207.5 L283.7,210.9 L284.0,211.8 L284.9,215.3 L285.0,215.3 L285.3,215.3 L285.6,216.9 L285.9,217.5 L286.1,217.5 L287.3,220.1 L288.3,222.2 L288.5,222.5 L289.1,225.1 L289.5,225.1 L290.1,226.2 L291.5,232.4 L293.0,242.4 L294.0,242.1 L294.4,242.9 L294.5,242.9 L294.7,242.9 L295.1,243.0 L295.7,244.0 L296.3,244.5 L296.7,244.6 L297.0,244.6 L297.5,245.1 L297.8,246.5 L298.0,246.5 L298.2,247.1 L299.0,247.9 L300.1,251.2 L300.3,251.8 L300.4,251.8 L300.9,254.0 L301.4,255.6 L302.4,256.5 L302.6,257.0 L303.3,259.0 L303.4,259.0 L303.8,259.5 L303.8,259.8 L304.0,259.8 L305.0,260.7 L305.2,261.0 L305.4,261.8 L305.9,261.8 L306.5,263.6 L306.9,265.4 L308.0,266.6 L308.6,267.6 L309.5,268.5 L309.9,269.2 L311.2,269.9 L311.3,270.2 L311.6,270.5 L312.8,270.0 L313.3,269.9 L314.1,270.1 L314.6,270.6 L314.8,270.6 L315.1,270.8 L315.4,270.9 L315.7,271.1 L316.3,271.0 L316.5,271.1 L317.0,271.0 L317.2,271.1 L317.8,271.6 L317.9,271.9 L318.4,272.9 L319.2,274.3 L319.8,275.5 L320.1,276.1 L320.3,276.1 L320.8,277.0 L321.0,277.4 L321.2,277.7 L321.8,278.7 L322.0,279.5 L322.4,279.8 L322.5,280.3 L323.1,281.1 L323.6,281.4 L324.0,281.7 L324.0,281.7 L324.2,281.7 L324.2,281.7 L324.6,281.9 L324.6,281.9 L324.8,282.0 L324.9,282.0 L325.2,282.0 L325.4,282.1 L326.2,282.0 L327.5,281.0 L328.5,279.8 L329.4,278.8 L329.6,278.8 L329.9,278.8 L330.2,278.5 L330.7,278.1 L331.2,277.7 L331.4,277.4 L331.7,277.1 L332.9,276.2 L333.4,275.1 L333.5,275.1 L334.1,274.7 L335.7,274.3 L336.0,274.3 L336.3,274.1 L337.1,273.2 L337.4,273.2 L337.8,273.2 L338.1,272.0 L338.2,272.0 L339.0,271.3 L339.7,271.3 L340.6,269.0 L340.7,269.0 L343.1,263.9 L345.1,264.6 L345.3,264.6 L345.7,265.2 L346.2,265.3 L346.9,265.1 L347.5,265.1 L347.7,264.9 L348.0,265.5 L348.1,265.5 L348.9,265.2 L349.1,264.6 L349.4,263.8 L349.9,263.4 L350.2,263.1 L350.9,261.7 L351.6,261.2 L351.9,261.0 L352.0,260.6 L352.4,260.0 L353.2,258.9 L353.5,258.6 L353.9,258.4 L354.1,258.4 L354.6,258.0 L354.9,257.9 L355.3,257.7 L355.9,257.5 L356.8,256.4 L357.1,256.2 L357.2,256.2 L357.5,256.1 L358.0,256.1 L358.9,256.6 L359.7,256.5 L360.6,256.2 L360.8,256.2 L361.7,256.0 L362.3,255.3 L363.2,254.8 L363.3,254.6 L364.1,254.3 L364.5,254.1 L364.7,254.1 L364.9,254.1 L365.2,254.0 L365.3,254.0 L365.5,254.0 L365.8,254.0 L366.2,253.6 L366.4,253.6 L366.8,253.5 L367.7,253.3 L368.7,252.7 L369.0,252.3 L369.6,252.0 L370.3,251.9 L370.7,251.5 L371.1,251.4 L371.4,251.2 L371.5,251.0 L371.6,251.0 L372.0,250.7 L372.5,250.3 L372.9,250.1 L373.2,249.7 L373.3,249.7 L373.5,249.4 L373.8,249.2 L374.5,248.6 L374.8,248.1 L375.4,247.3 L375.9,246.8 L376.1,246.2 L376.4,245.5 L376.5,245.2 L377.5,243.8 L377.6,243.4 L377.9,243.4 L378.3,243.1 L378.9,240.6 L379.6,239.4 L380.1,238.7 L381.2,234.0 L381.4,234.0 L382.5,230.1 L383.4,228.6 L383.6,227.6 L385.0,225.0 L385.1,225.0 L385.3,224.0 L386.2,221.8 L387.2,218.9 L388.6,214.2 L389.0,213.4 L389.5,212.6 L390.2,210.4 L390.7,209.6 L391.8,207.2 L392.6,204.8 L392.8,204.1 L393.3,203.6 L393.8,203.0 L394.5,202.3 L394.8,202.0 L394.9,202.0 L395.0,202.0 L395.1,202.0 L395.2,202.0 L395.4,201.7 L395.5,201.4 L396.3,199.8 L396.5,199.6 L396.7,199.6 L397.4,198.6 L398.1,194.5 L398.3,194.0 L398.6,193.3 L398.8,193.3 L399.5,189.6 L400.3,187.7 L400.7,186.0 L401.2,184.0 L401.7,182.3 L402.1,182.3 L402.4,181.8 L402.9,181.1 L403.0,180.4 L403.1,180.1 L403.3,180.1 L403.7,179.8 L404.0,179.1 L405.3,177.9 L405.4,177.9 L405.5,177.9 L405.6,177.5 L405.8,177.3 L406.5,175.4 L406.9,173.5 L408.8,164.8 L409.4,163.4 L409.8,162.5 L410.0,162.5 L410.2,162.6 L410.3,162.6 L410.5,162.6 L410.9,162.5 L411.5,162.0 L411.8,162.0 L412.3,161.7 L412.8,161.1 L413.5,159.9 L413.6,159.9 L413.7,159.8 L413.8,159.8 L414.7,159.0 L414.9,159.0 L415.0,159.0 L415.1,158.7 L415.2,158.7 L415.5,158.3 L415.7,158.3 L415.9,158.3 L416.0,158.3 L416.9,154.7 L418.8,146.2 L419.1,145.3 L419.5,144.9 L419.9,144.2 L420.9,142.3 L421.3,142.3 L421.5,142.3 L421.6,141.9 L421.7,141.9 L421.9,141.5 L422.7,139.4 L423.0,139.4 L423.3,139.4 L424.9,129.2 L426.0,127.5 L426.1,127.6 L426.2,127.6 L426.3,127.6 L426.4,127.6 L426.7,127.5 L427.0,127.2 L428.2,126.5 L428.4,126.5 L428.4,126.5 L428.6,126.5 L428.7,126.5 L428.8,126.3 L429.1,125.6 L429.5,125.6 L430.9,124.3 L431.5,116.7 L433.0,113.1 L433.8,112.2 L434.0,112.2 L434.3,111.5 L434.6,111.5 L435.8,110.5 L436.9,109.3 L438.2,105.2 L439.1,104.2 L439.6,101.9 L440.0,101.9 L440.5,101.9 L442.3,98.7 L443.4,91.6 L445.0,88.4 L445.4,88.4 L446.5,87.3 L447.5,85.8 L449.9,79.1 L450.7,77.2 L451.8,77.2 L452.0,76.4 L452.4,75.8 L453.1,74.6 L454.5,72.3 L454.9,70.6 L455.2,69.7 L456.9,67.2 L457.3,65.9 L458.5,63.7 L459.3,63.7 L459.7,62.5 L460.2,61.4 L462.1,60.2 L462.6,59.6 L463.5,58.1 L463.9,58.1 L466.2,56.7 L466.7,55.0 L467.6,55.0 L471.3,53.4 L471.5,53.3 L471.6,53.3 L471.7,53.3 L471.8,53.3 L472.2,53.4 L473.1,53.6 L473.2,53.6 L473.6,53.6 L474.2,53.9 L474.6,54.2 L475.1,54.4 L475.2,54.4 L475.6,55.1 L476.5,55.9 L476.8,55.9 L478.0,56.7 L478.1,56.7 L478.2,56.7 L478.5,57.1 L478.8,57.1 L482.8,60.0 L483.5,59.6 L483.7,59.6 L484.6,59.6 L485.6,59.7 L486.0,59.7 L486.2,59.7 L487.6,60.3 L488.2,60.3 L489.1,62.4 L489.7,62.4 L491.2,64.0 L492.8,64.1 L493.1,64.1 L493.6,64.1 L494.3,63.4 L494.6,63.1 L495.2,62.9 L496.3,62.0 L496.7,61.6 L497.1,61.1 L497.5,60.7 L497.9,60.3 L499.0,60.1 L499.3,60.2 L499.5,60.0 L499.8,59.9 L500.2,59.7 L501.8,59.6 L503.8,59.9 L504.1,59.7 L504.8,59.3 L505.4,59.1 L506.5,58.8 L507.3,58.4 L507.8,58.0 L508.6,57.7 L509.3,57.6 L510.2,58.0 L511.3,58.4 L511.8,58.4 L512.4,59.1 L512.5,59.1 L513.5,60.2 L515.0,62.1 L515.7,62.9 L516.0,63.0 L516.3,63.2 L516.7,63.2 L517.3,63.6 L517.7,63.6 L518.1,63.8 L518.6,63.9 L520.0,64.6 L524.1,72.7 L524.4,74.7 L525.2,75.7 L526.0,76.7 L526.1,76.7 L527.0,78.4 L527.3,78.9 L527.6,78.9 L528.0,79.5 L528.4,79.5 L528.8,80.4 L529.0,80.4 L529.5,80.4 L532.4,90.7 L533.0,92.2 L533.4,92.9 L534.5,93.3 L534.9,93.3 L535.7,95.1 L536.0,95.1 L536.6,95.7 L537.1,95.7 L537.7,96.0 L538.1,96.0 L538.4,96.0 L538.9,96.4 L540.0,96.1 L540.6,96.4 L541.7,97.5 L542.0,97.5 L542.3,97.5 L542.6,97.5 L543.2,99.1 L543.6,99.5 L544.3,100.1 L545.6,105.6 L546.6,107.0 L547.2,107.4 L547.6,107.4 L548.1,107.4 L551.2,111.4 L551.5,113.3 L554.2,121.0 L554.5,121.9 L554.8,121.9 L555.8,121.9 L556.1,122.5 L556.2,122.5 L556.3,122.5 L556.4,122.5 L556.6,122.5 L558.6,124.2 L561.1,127.4 L561.8,127.1 L565.3,134.5 L565.9,136.1 L567.0,136.8 L567.5,137.3 L567.8,137.8 L568.4,138.9 L568.6,139.3 L568.8,139.3 L569.1,140.0 L569.3,140.0 L569.7,140.0 L570.0,140.1 L570.4,140.3 L570.6,140.5 L571.6,143.4 L574.0,150.0 L575.2,150.9 L576.0,150.9 L576.4,150.9 L576.6,150.9 L576.7,150.8 L576.8,150.8 L577.0,150.8 L577.2,150.8 L577.3,150.8 L577.5,150.8 L580.3,158.5 L580.8,159.5 L581.1,159.5 L581.8,160.8 L582.4,161.5 L582.9,161.5 L583.9,163.9 L584.5,163.9 L585.0,165.2 L585.8,167.0 L587.3,168.3 L587.9,168.8 L588.1,168.8 L588.9,170.0 L589.3,170.0 L589.8,170.7 L590.0,171.2 L590.9,171.7 L591.3,171.7 L592.0,172.7 L592.3,172.7 L592.6,173.1 L596.1,177.6 L596.8,178.9 L597.2,179.2 L599.3,180.3 L599.7,180.7 L600.2,181.0 L601.3,181.1 L601.5,181.1 L601.7,181.1 L602.3,181.1 L602.7,181.0 L602.9,181.0 L603.4,181.1 L604.4,181.0 L604.7,181.0 L605.0,180.9 L605.5,180.9 L605.7,180.8 L606.0,180.8 L608.7,185.4 L608.9,186.1 L609.2,185.9 L609.5,185.9 L609.8,185.9 L611.1,186.0 L611.6,186.2 L612.0,186.6 L612.6,187.0 L613.7,187.7 L614.5,188.7 L615.0,189.5 L615.5,191.1 L615.9,191.1 L617.1,192.4 L617.6,192.6 L617.9,192.8 L618.1,193.1 L618.2,193.1 L618.9,193.9 L619.6,193.9 L619.8,193.9 L620.7,195.0 L621.1,195.5 L622.8,196.9 L624.3,198.0 L624.7,198.1 L624.9,198.1 L625.7,198.4 L625.8,198.4 L626.1,198.4 L626.4,198.4 L627.2,198.4 L627.8,198.4 L630.3,199.1 L631.2,199.0 L632.0,198.8 L632.6,198.8 L633.0,198.9 L633.2,198.9 L633.6,198.9 L634.3,199.3 L634.9,199.5 L635.4,199.5 L636.4,199.7 L636.6,199.7 L636.7,199.7 L636.8,199.7 L637.1,199.8 L637.3,199.8 L637.5,199.8 L637.5,199.8 L637.6,199.9 L638.0,199.9 L638.2,199.9 L638.9,199.8 L640.3,199.6 L641.2,199.0 L641.5,199.0 L641.5,199.0 L642.9,197.9 L643.7,197.4 L644.2,196.2 L645.3,194.5 L646.1,193.1 L647.0,191.3 L647.3,191.3 L647.7,190.7 L648.1,189.8 L648.4,189.8 L649.1,188.7 L649.5,188.7 L650.1,187.9 L650.5,187.4 L651.5,186.4 L654.3,178.5 L655.5,176.5 L656.0,176.2 L656.4,176.2 L656.7,176.2 L657.1,175.6 L658.5,175.1 L662.4,164.9 L662.7,163.3 L663.1,162.7 L663.6,161.8 L663.9,161.0 L664.2,160.6 L665.6,160.3 L665.9,160.1 L666.1,160.1 L666.3,160.0 L666.5,160.0 L666.6,160.0 L666.9,159.8 L667.5,159.7 L667.8,159.6 L668.0,159.6 L668.2,159.6 L668.4,159.4 L669.4,160.0 L670.0,159.8 L670.4,158.7 L671.1,156.5 L672.1,153.7 L672.4,153.5 L672.7,153.2 L673.0,153.2 L673.7,152.8 L673.8,152.4 L674.0,152.4 L674.1,152.4 L674.3,152.1 L674.5,152.1 L674.7,152.1 L675.0,151.5 L676.5,150.5 L677.0,151.1 L677.5,148.4 L679.8,145.1 L680.1,145.1 L680.7,142.9 L681.3,140.6 L683.3,137.3 L683.5,136.5 L683.7,136.5 L683.9,136.6 L684.2,136.0 L684.4,136.1 L684.6,136.1 L684.8,136.3 L685.0,136.3 L686.4,136.0 L686.7,136.0 L687.0,135.7 L687.4,136.0 L687.9,136.5 L689.4,133.4 L691.3,131.0 L691.6,131.0 L692.4,131.0 L692.9,131.0 L693.4,130.9 L693.9,130.9 L694.4,131.3 L694.9,131.0 L695.6,130.5 L696.2,129.7 L696.7,129.2 L697.2,128.7 L697.7,128.3 L698.7,126.8 L701.0,119.0 L701.9,117.4 L702.2,116.9 L702.5,116.3 L702.7,116.3 L702.9,116.3 L703.1,116.3 L703.4,116.3 L703.6,116.3 L703.9,115.4 L704.2,115.3 L704.7,114.8 L705.1,114.2 L706.3,111.9 L706.5,111.9 L706.7,111.7 L707.0,111.6 L707.6,111.6 L708.2,111.6 L708.7,111.6 L709.7,111.2 L710.1,110.9 L710.6,110.8 L711.0,110.9 L711.5,110.3 L712.1,109.8 L712.4,109.2 L712.8,109.2 L714.1,107.1 L714.5,106.5 L714.9,105.5 L715.5,104.1 L716.0,104.1 L716.6,103.7 L717.3,103.2 L718.1,102.8 L719.2,102.2 L722.4,98.7 L726.3,91.4 L726.8,89.7 L727.2,89.1 L727.5,89.1 L728.0,89.1 L729.1,88.4 L729.3,88.1 L729.7,87.2 L730.5,86.1 L730.7,85.4 L731.4,85.2 L731.7,85.1 L731.9,84.9 L732.1,84.8 L732.4,84.8 L732.7,84.7 L732.9,84.6 L733.3,84.4 L733.8,84.1 L734.0,84.1 L734.2,83.9 L734.4,83.9 L734.5,83.7 L734.7,83.7 L735.5,83.6 L736.7,83.5 L737.2,83.2 L737.7,82.2 L738.1,81.8 L738.8,81.2 L739.3,81.2 L739.9,80.1 L740.1,80.1 L740.5,79.7 L741.2,79.3 L742.2,78.6 L742.3,78.3 L743.0,76.9 L743.9,75.9 L744.0,75.9 L744.9,75.7 L745.2,75.6 L745.4,75.5 L745.4,75.5 L745.7,75.3 L745.9,75.2 L746.1,75.2 L746.3,75.2 L746.5,75.2 L746.5,75.2 L746.8,74.9 L747.9,75.2 L748.4,75.3 L748.9,75.5 L749.4,75.7 L749.6,75.7 L750.1,76.6 L750.4,76.6 L752.7,81.3 L754.0,85.1 L754.7,85.1 L756.1,87.0 L758.4,91.6 L758.9,92.7 L759.5,93.1 L760.0,93.1 L760.5,93.4 L761.3,94.0 L762.1,94.3 L763.0,94.7 L763.4,94.8 L764.0,94.8 L764.3,94.8 L764.4,94.8 L764.7,94.7 L764.9,94.6 L765.2,94.6 L765.5,94.4 L765.6,94.2 L765.9,94.1 L766.2,93.8 L766.7,93.8 L767.4,93.3 L768.0,92.6 L768.3,92.4 L768.8,91.9 L769.5,90.7 L770.2,90.0 L770.9,89.4 L771.5,88.9 L772.1,88.4 L772.6,86.9 L773.1,86.6 L774.2,83.9 L775.0,83.4 L775.2,83.4 L775.9,82.5 L776.4,81.8 L776.7,81.8 L778.7,77.6 L779.5,75.3 L780.0,75.3 L780.3,75.3 L781.3,75.3 L782.1,74.9 L784.8,70.3 L785.4,70.0 L785.6,69.9 L785.9,69.9 L786.1,69.9 L786.5,69.9 L786.8,69.9 L787.4,69.6 L788.1,69.8 L790.1,66.2 L791.2,65.0 L792.0,64.6 L792.2,64.2 L792.7,63.4 L793.8,62.2 L794.1,62.0 L794.4,61.8 L794.8,61.5 L794.9,61.3 L795.3,61.2 L795.7,60.8 L796.0,60.8 L796.3,60.8 L796.9,60.1 L798.0,59.1 L798.3,59.0 L799.7,58.2 L800.5,58.0 L801.2,57.2 L801.8,57.2 L802.8,57.6 L803.5,57.7 L804.8,57.9 L805.3,57.9 L805.7,58.2 L806.2,58.2 L807.4,58.4 L810.2,57.1 L810.8,57.4 L811.4,57.4 L811.7,57.4 L812.0,57.5 L812.3,57.5 L812.4,57.6 L812.8,57.6 L813.0,57.8 L813.3,57.8 L813.5,57.8 L814.6,58.4 L815.0,58.9 L817.0,62.6 L817.2,62.6 L817.5,63.1 L818.9,64.9 L819.2,64.9 L819.5,64.9 L820.6,69.1 L822.7,78.1 L823.3,79.6 L823.5,79.6 L824.5,80.8 L824.8,80.8 L825.1,80.8 L825.4,80.8 L825.8,82.0 L826.4,83.5 L826.7,83.5 L827.1,83.9 L828.5,86.2 L829.0,87.2 L829.5,88.0 L830.3,89.5 L830.5,89.5 L831.0,89.5 L831.6,90.0 L832.5,91.1 L835.7,103.8 L837.5,105.4 L837.7,105.4 L837.9,105.6 L838.1,105.8 L838.2,105.8 L838.3,105.8 L838.5,106.1 L839.0,106.5 L839.1,106.5 L839.5,107.0 L839.8,107.0 L840.1,107.0 L840.2,107.1 L840.4,107.3 L840.7,107.4 L841.7,109.9 L842.0,110.6 L843.5,118.2 L844.0,118.2 L844.3,118.4 L844.8,119.8 L845.1,120.3 L845.4,120.3 L845.6,120.3 L845.8,120.7 L846.0,120.7 L846.8,122.8 L847.1,123.2 L847.3,123.2 L847.5,123.6 L847.7,123.6 L848.4,125.0 L848.9,126.8 L849.1,127.3 L849.4,127.3 L850.7,131.2 L851.2,131.7 L851.5,131.7 L851.8,133.0 L852.1,135.7 L852.5,136.2 L854.4,138.3 L854.6,139.3 L854.8,139.7 L855.0,140.2 L856.3,142.4 L856.7,142.4 L856.9,142.4 L857.1,142.7 L857.4,142.9 L857.8,144.2 L858.0,144.2 L858.5,144.9 L858.6,144.9 L860.3,151.4 L860.8,153.1 L861.4,157.2 L861.7,157.5 L862.1,158.2 L862.6,158.4 L863.6,159.6 L863.8,159.6 L864.0,159.6 L864.3,159.7 L864.5,159.7 L864.7,159.7 L864.7,159.7 L865.1,159.4 L865.4,159.5 L866.1,159.6 L866.7,159.4 L867.1,159.6 L867.4,159.7 L867.7,159.7 L868.0,159.6 L868.3,159.9 L869.3,161.2 L869.8,161.8 L870.0,162.3 L870.8,163.2 L871.0,163.4 L871.1,163.6 L871.3,163.6 L871.4,163.8 L871.7,163.8 L871.9,163.8 L872.1,164.0 L872.4,164.1 L872.7,164.2 L873.8,164.7 L874.1,165.1 L874.6,165.5 L874.8,165.6 L875.0,165.6 L875.2,165.7 L875.3,165.7 L875.7,165.9 L876.0,165.9 L876.2,166.0 L876.7,166.0 L876.9,166.0 L877.2,166.0 L877.5,166.0 L878.9,166.0 L880.0,165.6 L880.5,165.2 L880.9,165.1 L881.5,164.8 L883.0,162.9 L883.3,163.1 L883.6,163.3 L884.1,163.3 L884.6,163.7 L884.7,163.7 L884.9,163.7 L885.0,163.7 L885.3,164.4 L885.9,165.1 L886.3,166.0 L887.0,166.4 L887.8,172.3 L888.1,173.5 L888.9,174.5 L889.9,179.6 L890.3,179.6 L891.8,184.0 L892.1,184.5 L892.5,184.5 L893.3,186.9 L893.6,186.9 L894.2,186.9 L894.7,187.3 L895.3,188.2 L895.7,188.2 L896.0,188.3 L896.3,188.6 L897.4,189.2 L897.9,189.0 L898.4,188.9 L899.1,188.7 L899.7,188.8 L900.0,189.0 L900.5,189.2 L901.2,189.2 L901.7,189.4 L902.1,189.2 L902.5,189.2 L903.0,188.9 L903.2,188.9 L903.4,188.8 L904.0,189.0 L904.4,188.4 L904.8,187.9 L905.5,187.5 L906.0,186.3 L907.0,185.7 L907.4,185.2 L908.3,185.7 L908.7,187.3 L909.1,187.5 L909.4,188.2 L910.3,190.7 L911.2,192.5 L911.4,192.5 L912.0,194.1 L912.4,194.6 L913.0,194.9 L913.9,194.8 L914.2,195.7 L914.9,196.2 L916.0,195.8 L916.7,196.0 L917.4,196.9 L917.9,197.3 L918.2,197.3 L918.9,198.2 L919.5,198.0 L919.9,198.1 L921.2,198.3 L922.5,198.1 L923.6,198.5 L924.1,199.3 L924.4,199.8 L925.7,200.8 L926.3,201.1 L926.5,201.7 L926.8,201.8 L927.0,202.3 L927.3,202.9 L928.2,203.0 L928.9,203.6 L929.2,203.9 L929.4,204.2 L930.1,204.7 L931.0,205.9 L931.7,208.6 L932.0,209.6 L932.6,210.6 L932.9,211.0 L933.5,211.3 L933.7,211.7 L933.8,211.7 L934.0,211.7 L934.2,212.1 L934.4,213.0 L934.7,214.0 L935.3,214.7 L935.5,215.4 L936.2,216.2 L936.8,216.9 L937.0,217.0 L937.3,216.9 L937.8,216.8 L937.9,216.8 L938.1,217.2 L938.3,217.7 L938.6,217.7 L938.8,217.7 L939.7,217.8 L940.1,217.6 L940.9,216.7 L941.3,216.2 L941.8,216.1 L943.1,218.6 L943.5,218.6 L944.6,219.6 L944.9,219.6 L945.2,219.9 L945.5,219.9 L945.7,219.9 L947.1,220.5 L947.6,221.0 L948.7,220.9 L951.5,223.9 L951.8,224.9 L952.1,224.9 L952.6,224.9 L953.3,224.9 L956.5,224.8 L957.3,225.4 L959.0,225.4 L959.5,225.7 L962.7,227.8 L963.2,228.1 L964.6,229.4 L966.5,233.6 L967.7,234.3 L968.3,234.3 L972.5,235.1 L974.4,235.2 L976.5,235.2 L977.0,235.2 L977.5,235.1 L980.0,234.3 L980.3,234.3 L980.8,235.1 L981.2,236.1 L982.3,237.2 L982.8,238.4 L983.1,239.8 L983.7,241.7 L984.6,242.5 L985.2,244.3 L985.6,245.5 L986.0,246.2 L986.3,246.5 L987.5,246.8 L987.6,246.8 L987.9,246.9 L988.9,247.1 L989.0,247.1 L989.2,247.2 L989.7,247.3 L990.0,247.3 L990.3,247.2 L990.8,247.1 L992.0,247.6 L992.9,248.3 L994.0,248.8 L994.2,248.9 L994.4,248.9 L994.7,249.0 L995.2,249.3 L995.7,249.5 L996.5,249.7 L996.8,249.7 L997.6,249.9 L997.9,249.9 L998.7,250.4 L999.0,250.8 L1000.0,251.9 L1000.7,252.1 L1001.0,252.1 L1001.4,252.2 L1001.5,252.1 L1001.8,252.3 L1001.8,252.3 L1002.2,252.1 L1002.6,252.1 L1003.2,251.8 L1003.4,251.8 L1004.2,251.4 L1004.6,250.9 L1005.5,249.6 L1006.3,248.9 L1007.7,248.5 L1008.2,248.5 L1008.8,248.9 L1009.3,249.2 L1010.4,249.7 L1010.8,249.7 L1011.6,250.1 L1011.8,250.1 L1012.3,250.6 L1012.8,250.6 L1013.8,251.4 L1015.0,251.1 L1015.6,250.4 L1016.4,250.0 L1017.1,249.9 L1017.4,249.9 L1017.6,249.8 L1017.9,249.5 L1018.0,249.5 L1018.9,249.2 L1020.3,248.4 L1021.0,248.2 L1021.6,248.7 L1022.7,249.7 L1023.1,249.8 L1024.2,250.9 L1024.5,251.2 L1024.8,251.6 L1025.1,251.6 L1026.0,253.0 L1026.7,253.2 L1027.3,254.2 L1028.2,254.7 L1028.9,255.6 L1031.0,256.0 L1031.5,256.5 L1032.0,256.9 L1032.8,256.9 L1033.5,256.9 L1034.0,256.0 L1034.5,255.8 L1036.4,256.1 L1036.7,256.2 L1037.3,256.6 L1037.4,256.6 L1037.8,257.0 L1038.0,257.3 L1038.4,257.5 L1039.1,257.9 L1039.5,258.3 L1039.9,258.3 L1040.2,258.5 L1040.6,258.8 L1041.0,259.1 L1041.7,259.8 L1042.4,260.1 L1043.9,260.5 L1044.5,261.3 L1045.2,261.8 L1046.0,262.0 L1046.4,262.4 L1046.7,262.5 L1047.1,262.7 L1047.3,263.0 L1048.1,263.3 L1048.9,263.2 L1049.7,263.3 L1049.9,263.4 L1050.1,263.5 L1050.7,263.5 L1050.9,263.5 L1051.2,263.5 L1051.5,263.5 L1051.8,263.4 L1052.5,263.5 L1054.5,265.4 L1055.0,265.7 L1055.2,266.7 L1055.6,266.7 L1056.2,266.7 L1057.8,268.0 L1059.7,269.8 L1060.4,271.8 L1061.1,272.4 L1061.7,272.3 L1062.0,272.4 L1062.2,272.4 L1062.5,272.6 L1062.7,272.7 L1062.9,272.7 L1063.1,272.7 L1063.3,273.0 L1063.5,273.0 L1063.9,273.3 L1064.5,273.7 L1065.4,274.5 L1067.7,277.0 L1068.4,278.2 L1069.4,278.2 L1070.2,278.2 L1070.8,279.5 L1073.4,283.0 L1074.1,282.8 L1074.4,282.8 L1076.3,282.8 L1077.2,282.7 L1078.4,283.5 L1078.7,283.5 L1079.2,284.7 L1079.9,285.2 L1080.2,285.0 L1080.5,284.7 L1080.7,284.7 L1081.5,285.0 L1081.8,285.0 L1082.8,285.5 L1082.9,286.1 L1083.1,286.1 L1083.6,287.6 L1085.1,288.9 L1085.5,289.5 L1085.9,291.0 L1086.3,291.0 L1086.5,291.2 L1086.8,291.0 L1087.1,290.9 L1089.1,290.9 L1089.5,291.2 L1089.8,291.0 L1090.5,292.5 L1091.4,293.2 L1092.1,294.3 L1092.7,295.7 L1092.9,295.7 L1093.1,295.8 L1093.6,296.4 L1094.0,296.4 L1094.3,296.7 L1094.6,296.7 L1094.9,296.8 L1095.3,296.8 L1095.7,296.9 L1096.0,297.0 L1096.3,297.1 L1096.9,297.1 L1097.2,297.2 L1097.6,297.2 L1097.9,297.4 L1098.2,297.4 L1099.6,297.3 L1100.5,296.7 L1100.9,296.7 L1101.6,296.8 L1102.5,296.5 L1102.9,296.5 L1103.4,296.4 L1104.2,296.2 L1104.7,296.8 L1105.1,297.2 L1106.0,297.9 L1107.3,298.4 L1107.6,298.7 L1108.2,299.1 L1108.5,299.1 L1108.8,299.4 L1109.5,299.4 L1110.2,299.0 L1110.5,298.6 L1110.8,298.4 L1111.3,298.5 L1112.5,297.5 L1112.9,297.3 L1113.4,296.9 L1114.1,296.1 L1114.4,296.1 L1116.1,300.9 L1116.4,300.8 L1117.1,302.0 L1117.3,302.0 L1117.4,301.9 L1117.6,301.9 L1117.7,301.9 L1118.1,301.9 L1118.3,302.0 L1118.5,302.0 L1118.7,302.2 L1119.0,302.5 L1120.0,302.6 L1120.6,302.4 L1120.9,302.5 L1121.2,302.7 L1121.7,303.0 L1122.0,303.3 L1122.3,303.3 L1123.0,303.5 L1123.4,303.6 L1123.7,303.6 L1123.9,303.5 L1124.3,303.4 L1124.6,303.3 L1125.1,303.7 L1126.6,303.8 L1127.2,305.8 L1127.9,306.7 L1128.8,307.1 L1129.4,307.5 L1129.6,307.7 L1129.7,307.7 L1129.8,307.8 L1130.0,308.3 L1130.1,308.3 L1130.7,308.8 L1131.3,308.9 L1132.2,309.2 L1132.5,309.2 L1133.6,309.9 L1135.2,311.1 L1135.8,311.2 L1136.5,311.4 L1137.7,311.6 L1138.1,311.7 L1138.5,311.7 L1139.7,312.2 L1141.8,314.9 L1142.9,315.4 L1144.2,315.5 L1144.9,315.7 L1145.3,315.7 L1145.8,316.3 L1146.7,316.3 L1148.3,319.3 L1150.1,320.0 L1150.2,320.0 L1150.3,320.0 L1150.7,320.1 L1151.1,320.2 L1151.8,319.9 L1152.1,319.8 L1152.3,319.8 L1152.4,319.7 L1152.6,319.6 L1152.7,319.5 L1152.8,319.5 L1153.0,319.1 L1153.6,318.9 L1153.8,318.5 L1154.1,318.3 L1154.3,318.0 L1154.8,317.2 L1155.0,316.8 L1155.2,316.6 L1155.4,316.5 L1155.5,316.1 L1155.8,315.7 L1156.4,315.4 L1156.6,315.2 L1156.9,314.7 L1157.1,314.5 L1157.2,314.5 L1157.3,314.5 L1157.5,314.1 L1157.6,313.9 L1157.8,313.7 L1158.4,312.3 L1159.6,312.3 L1160.1,312.2 L1160.5,312.2 L1160.6,312.2 L1161.1,312.2 L1161.5,311.6 L1162.1,311.6 L1162.4,311.8 L1162.7,311.4 L1162.9,311.7 L1163.1,311.2 L1163.8,310.8 L1164.1,310.2 L1165.1,308.2 L1165.8,305.6 L1166.3,304.5 L1166.8,303.8 L1167.1,303.0 L1168.1,302.5 L1168.3,302.5 L1168.4,302.5 L1168.8,301.6 L1169.1,300.9 L1169.2,300.6 L1169.6,300.4 L1169.7,300.4 L1169.8,300.4 L1170.5,299.5 L1171.2,298.1 L1171.3,297.5 L1171.6,296.7 L1171.8,295.8 L1173.0,292.6 L1173.3,291.9 L1173.9,291.3 L1174.3,290.8 L1174.4,290.1 L1174.8,289.4 L1175.4,289.1 L1175.5,289.1 L1175.9,288.8 L1176.0,288.4 L1177.0,287.1 L1177.4,286.9 L1177.7,286.2 L1178.4,284.2 L1178.6,283.3 L1178.8,282.8 L1179.1,282.2 L1179.6,282.2 L1180.3,281.1 L1180.5,280.7 L1180.8,279.9 L1181.0,279.6 L1181.2,279.2 L1181.6,278.0 L1181.7,278.0 L1182.4,276.2 L1183.3,274.3 L1183.4,274.3 L1183.6,273.5 L1184.0,272.8 L1184.4,271.5 L1184.6,271.5 L1185.0,271.2 L1185.3,270.9 L1185.7,270.9 L1185.7,270.8 L1186.1,270.3 L1186.2,270.3 L1186.4,270.0 L1186.7,269.8 L1187.0,269.8 L1187.3,269.5 L1187.6,269.5 L1187.9,269.4 L1188.3,269.3 L1189.0,269.1 L1189.3,268.9 L1189.7,268.1 L1191.5,265.4 L1191.7,265.2 L1192.1,264.8 L1192.2,264.8 L1192.5,264.2 L1192.8,264.4 L1192.9,264.4 L1193.8,264.7 L1194.0,264.7 L1194.4,264.4 L1195.2,262.8 L1195.6,261.8 L1196.2,261.3 L1196.5,260.4 L1196.6,259.7 L1196.9,258.5 L1197.6,256.6 L1197.8,256.3 L1197.9,255.5 L1198.1,255.5 L1198.8,254.3 L1199.0,253.6 L1199.3,252.5 L1199.5,251.8 L1199.7,251.1 L1199.9,251.1 L1200.2,251.1 L1200.4,250.5 L1200.6,250.3 L1200.8,250.0 L1201.2,249.6 L1201.9,248.9 L1203.0,242.7 L1203.8,240.2 L1204.7,239.4 L1204.8,239.4 L1204.9,239.4 L1205.1,239.4 L1205.4,239.4 L1205.9,238.5 L1206.5,237.5 L1206.8,236.3 L1207.3,236.3 L1208.3,233.2 L1208.7,232.2 L1209.3,231.0 L1209.4,230.8 L1210.2,229.4 L1210.3,229.6 L1210.4,229.7 L1210.5,229.7 L1210.7,229.6 L1212.0,227.9 L1212.6,226.7 L1212.8,226.5 L1212.9,226.1 L1213.1,226.1 L1213.4,225.5 L1213.8,224.7 L1214.6,222.8 L1214.8,222.4 L1215.1,222.0 L1215.2,221.8 L1215.4,221.3 L1215.6,220.8 L1215.9,219.6 L1216.4,218.9 L1216.6,218.5 L1216.7,218.5 L1216.8,218.4 L1217.3,218.3 L1217.5,218.2 L1217.7,218.2 L1217.8,217.9 L1218.8,215.9 L1219.2,215.2 L1219.4,214.5 L1219.6,214.4 L1219.8,214.4 L1220.6,210.4 L1221.1,208.8 L1221.8,207.5 L1222.0,206.6 L1223.0,203.1 L1223.1,202.8 L1223.3,202.0 L1223.5,202.0 L1224.1,201.6 L1224.3,201.4 L1224.5,201.4 L1224.7,200.9 L1225.3,200.4 L1225.5,200.4 L1225.7,200.5 L1225.9,200.3 L1226.3,200.3 L1226.6,199.9 L1226.8,199.2 L1227.0,198.8 L1227.3,197.2 L1227.5,196.8 L1228.6,195.7 L1229.2,194.6 L1229.4,194.3 L1229.6,193.9 L1229.7,193.4 L1229.9,193.2 L1230.0,193.2 L1230.4,192.5 L1230.6,192.5 L1230.7,192.5 L1230.9,192.5 L1231.0,192.5 L1231.1,192.5 L1231.3,192.3 L1231.4,192.3 L1231.8,192.3 L1232.4,191.9 L1232.6,191.8 L1232.8,191.5 L1233.0,191.3 L1234.9,186.9 L1235.5,185.8 L1235.8,185.5 L1236.4,184.1 L1236.7,183.8 L1236.9,183.5 L1237.2,183.2 L1237.5,183.2 L1237.8,183.0 L1238.0,183.0 L1238.2,183.0 L1238.3,182.7 L1238.6,181.9 L1238.8,181.9 L1239.0,181.9 L1239.1,181.9 L1239.2,181.6 L1239.4,180.5 L1239.8,179.1 L1241.1,176.1 L1242.0,174.3 L1242.1,174.0 L1242.4,174.0 L1243.2,173.5 L1243.3,173.5 L1243.5,173.2 L1243.7,172.9 L1243.9,172.7 L1244.3,172.4 L1246.1,171.3 L1246.3,170.9 L1246.7,169.5 L1247.1,169.0 L1247.4,169.0 L1248.3,167.8 L1248.8,166.8 L1249.0,165.7 L1249.5,164.5 L1250.4,163.5 L1250.7,163.5 L1251.1,163.1 L1251.3,163.0 L1251.5,162.5 L1251.7,162.0 L1252.1,162.2 L1252.6,162.1 L1253.0,162.6 L1253.9,163.7 L1254.6,166.1 L1255.2,167.1 L1255.5,168.1 L1255.8,168.6 L1256.5,169.7 L1256.7,170.2 L1256.8,170.7 L1257.0,171.1 L1257.1,171.1 L1257.5,172.3 L1257.9,173.0 L1259.0,175.1 L1259.2,175.1 L1259.5,176.1 L1259.7,176.5 L1259.8,177.8 L1260.2,178.0 L1260.4,178.2 L1260.8,178.8 L1260.9,178.8 L1261.0,178.9 L1261.2,179.1 L1261.3,179.1 L1261.8,179.6 L1262.4,180.3 L1262.5,180.3 L1262.7,180.5 L1262.8,180.8 L1263.2,181.3 L1263.4,181.3 L1263.6,182.0 L1263.9,182.5 L1264.3,183.3 L1264.6,184.1 L1265.0,184.1 L1265.5,184.9 L1265.8,186.2 L1266.3,186.9 L1266.5,188.4 L1266.7,189.9 L1267.1,192.0 L1268.2,195.2 L1269.0,197.4 L1269.2,198.2 L1269.4,199.1 L1269.7,199.4 L1269.9,200.3 L1270.3,200.8 L1271.2,201.7 L1271.4,202.1 L1272.1,203.3 L1272.5,205.1 L1272.9,206.2 L1273.4,206.7 L1274.0,209.1 L1274.3,210.6 L1274.9,212.9 L1275.0,212.9 L1275.4,214.3 L1276.3,216.0 L1276.5,216.1 L1276.9,217.0 L1277.4,218.2 L1277.6,218.2 L1277.8,218.9 L1278.2,219.5 L1278.3,219.5 L1278.5,219.5 L1278.7,219.5 L1278.9,220.1 L1279.1,220.3 L1279.4,220.4 L1279.7,221.3 L1279.9,222.1 L1280.5,222.3 L1281.5,227.4 L1282.2,231.8 L1282.4,233.2 L1283.3,236.3 L1283.6,236.8 L1283.9,236.8 L1284.5,238.3 L1284.7,239.2 L1285.1,240.6 L1285.4,241.8 L1285.7,241.8 L1286.3,243.3 L1287.0,244.6 L1287.3,245.8 L1287.8,247.0 L1288.0,247.7 L1288.7,249.9 L1288.9,249.9 L1289.9,251.0 L1290.1,251.8 L1290.9,254.0 L1291.1,254.3 L1291.4,254.7 L1291.8,256.3 L1292.6,256.9 L1293.2,257.7 L1293.3,257.7 L1293.5,257.7 L1293.7,258.2 L1293.8,258.9 L1294.4,259.8 L1295.0,260.4 L1295.4,261.7 L1296.6,266.0 L1298.0,268.4 L1298.4,269.4 L1298.7,270.3 L1299.8,272.8 L1301.3,275.1 L1302.0,276.3 L1302.4,276.3 L1302.8,278.8 L1303.6,279.8 L1304.7,282.6 L1305.3,284.2 L1305.5,284.4 L1306.2,285.7 L1306.6,286.3 L1306.8,286.3 L1307.1,287.2 L1308.0,289.7 L1308.7,290.2 L1309.5,294.5 L1310.2,295.7 L1311.8,302.8 L1312.1,304.1 L1313.1,309.9 L1313.9,310.9 L1314.5,312.3 L1314.8,313.1 L1314.9,313.1 L1315.0,313.4 L1315.2,313.4 L1315.3,313.4 L1315.8,314.0 L1316.0,314.0 L1316.3,314.1 L1316.7,314.4 L1317.1,314.4 L1317.6,315.1 L1318.3,315.7 L1318.8,316.3 L1319.2,316.5 L1320.0,317.9 L1320.2,317.9 L1320.5,317.9 L1321.5,319.5 L1322.0,320.3 L1322.2,320.3 L1322.5,320.8 L1322.7,320.8 L1323.2,323.1 L1323.7,323.6 L1324.1,323.6 L1324.9,325.7 L1325.5,327.8 L1326.4,328.2 L1327.0,328.5 L1327.1,328.5 L1327.7,327.5 L1328.0,327.5 L1328.2,327.5 L1328.6,327.4 L1328.9,327.4 L1329.1,327.4 L1329.8,326.4 L1330.1,326.4 L1330.4,326.4 L1332.4,321.8 L1334.1,318.9 L1334.8,318.7 L1335.6,318.2 L1336.6,316.8 L1337.3,315.6 L1338.3,312.9 L1339.1,311.1 L1339.9,310.3 L1340.4,309.7 L1340.8,308.2 L1341.1,307.8 L1341.3,307.8 L1341.4,307.8 L1341.5,307.4 L1341.7,307.4 L1342.2,306.3 L1342.4,305.0 L1343.1,304.1 L1343.3,304.1 L1343.5,303.8 L1344.1,302.1 L1344.7,300.8 L1344.8,300.8 L1344.9,300.3 L1345.0,300.1 L1345.1,300.1 L1345.7,299.5 L1346.0,298.9 L1346.6,298.5" fill="transparent" id="track" stroke="black" stroke-linejoin="miter" stroke-miterlimit="1" stroke-width="2"/>
<g>
<g>
<circle cx="6.050961956018227" cy="164.43199999999996" fill="Blue" id="wp/0" r="5"/>
</g>
<g transform="translate(6.050961956018227 164.43199999999996)">
<rect fill="white" fill-opacity="0.75" height="12" id="label-bg" width="15.610526315789475" x="4" y="-16"/>
<text font-size="16.0" id="wp-0/text" text-anchor="start" x="4.000" y="-4.000">
K2
</text>
</g>
<g>
<circle cx="638.1867998842306" cy="200.16249999999997" fill="Blue" id="wp/1" r="5"/>
</g>
<g transform="translate(638.1867998842306 200.16249999999997)">
<rect fill="white" fill-opacity="0.75" height="12" id="label-bg" width="15.610526315789475" x="-19.610526315789475" y="4"/>
<text font-size="16.0" id="wp-1/text" text-anchor="end" x="-4.000" y="16.000">
K3
</text>
</g>
<g>
<circle cx="140.03219735743028" cy="282.0598333333333" fill="Black" id="wp/2" r="3"/>
</g>
<g transform="translate(140.03219735743028 282.0598333333333)">
<rect fill="white" fill-opacity="0.75" height="12" id="label-bg" width="24.610526315789475" x="-28.61052631578947" y="-16"/>
<text font-size="16.0" id="wp-2/text" text-anchor="end" x="-4.000" y="-4.000">
P10
</text>
</g>
<g>
<circle cx="1346.9246628998576" cy="296.1608333333333" fill="Black" id="wp/3" r="3"/>
</g>
<g transform="translate(1346.9246628998576 296.1608333333333)">
<rect fill="white" fill-opacity="0.75" height="12" id="label-bg" width="24.610526315789475" x="-28.61052631578947" y="-16"/>
<text font-size="16.0" id="wp-3/text" text-anchor="end" x="-4.000" y="-4.000">
P20
</text>
</g>
<g>
<circle cx="473.2151669809184" cy="54.05383333333333" fill="Green" id="wp/4" r="3"/>
</g>
<g transform="translate(473.2151669809184 54.05383333333333)">
<rect fill="white" fill-opacity="0.75" height="12" id="label-bg" width="129.0105263157895" x="4" y="-16"/>
<text font-size="16.0" id="wp-4/text" text-anchor="start" x="4.000" y="-4.000">
Alexanderschanze
</text>
</g>
<g>
<circle cx="811.4037329300302" cy="57.67866666666663" fill="Green" id="wp/5" r="3"/>
</g>
<g transform="translate(811.4037329300302 57.67866666666663)">
<rect fill="white" fill-opacity="0.75" height="12" id="label-bg" width="86.28421052631579" x="4" y="-16"/>
<text font-size="16.0" id="wp-5/text" text-anchor="start" x="4.000" y="-4.000">
Seibelseckle
</text>
</g>
<g>
<circle cx="745.8975068867744" cy="74.1298333333333" fill="Green" id="wp/6" r="3"/>
</g>
<g transform="translate(745.8975068867744 74.1298333333333)">
<rect fill="white" fill-opacity="0.75" height="12" id="label-bg" width="67.90526315789474" x="-71.90526315789474" y="-16"/>
<text font-size="16.0" id="wp-6/text" text-anchor="end" x="-4.000" y="-4.000">
Ruhestein
</text>
</g>
<g>
<circle cx="247.38798730129565" cy="134.59683333333328" fill="Green" id="wp/7" r="3"/>
</g>
<g transform="translate(247.38798730129565 134.59683333333328)">
<rect fill="white" fill-opacity="0.75" height="12" id="label-bg" width="78.61052631578947" x="4" y="-16"/>
<text font-size="16.0" id="wp-7/text" text-anchor="start" x="4.000" y="-4.000">
Freiersberg
</text>
</g>
<g>
<circle cx="1251.7314178935994" cy="160.01049999999998" fill="Green" id="wp/8" r="3"/>
</g>
<g transform="translate(1251.7314178935994 160.01049999999998)">
<rect fill="white" fill-opacity="0.75" height="12" id="label-bg" width="76.90526315789475" x="4" y="-16"/>
<text font-size="16.0" id="wp-8/text" text-anchor="start" x="4.000" y="-4.000">
Rote Lache
</text>
</g>
<g>
<circle cx="1231.0745951500248" cy="191.99666666666664" fill="Green" id="wp/9" r="3"/>
</g>
<g transform="translate(1231.0745951500248 191.99666666666664)">
<rect fill="white" fill-opacity="0.75" height="12" id="label-bg" width="56.82105263157895" x="-60.82105263157895" y="-16"/>
<text font-size="16.0" id="wp-9/text" text-anchor="end" x="-4.000" y="-4.000">
Hartkopf
</text>
</g>
<g>
<circle cx="1150.319807409176" cy="321.455" fill="Black" id="wp/10" r="4"/>
<circle cx="1150.319807409176" cy="321.455" fill="white" id="wp/10-little-white" r="2.5"/>
</g>
<g transform="translate(1150.319807409176 321.455)">
<rect fill="white" fill-opacity="0.75" height="12" id="label-bg" width="54.736842105263165" x="-58.736842105263165" y="4"/>
<text font-size="16.0" id="wp-10/text" text-anchor="end" x="-4.000" y="16.000">
Forbach
</text>
</g>
<g>
<circle cx="74.57115221540016" cy="313.6875" fill="Black" id="wp/12" r="4"/>
<circle cx="74.57115221540016" cy="313.6875" fill="white" id="wp/12-little-white" r="2.5"/>
</g>
<g transform="translate(74.57115221540016 313.6875)">
<rect fill="white" fill-opacity="0.75" height="12" id="label-bg" width="38.347368421052636" x="-42.347368421052636" y="4"/>
<text font-size="16.0" id="wp-12/text" text-anchor="end" x="-4.000" y="16.000">
Walke
</text>
</g>
</g>
</g>
<g id="SL" transform="translate(0 0)">
<text text-anchor="end" x="66" y="363.5">
200
</text>
<text text-anchor="end" x="66" y="323.66666666666663">
300
</text>
<text text-anchor="end" x="66" y="283.8333333333333">
400
</text>
<text text-anchor="end" x="66" y="243.99999999999997">
500
</text>
<text text-anchor="end" x="66" y="204.16666666666663">
600
</text>
<text text-anchor="end" x="66" y="164.33333333333331">
700
</text>
<text text-anchor="end" x="66" y="124.5">
800
</text>
<text text-anchor="end" x="66" y="84.66666666666663">
900
</text>
<text text-anchor="end" x="66" y="44.833333333333314">
1000
</text>
<text text-anchor="end" x="66" y="5">
1100
</text>
</g>
</g>
</svg>