<svg height="400" width="1420" xmlns="http://www.w3.org/2000/svg">
<g font-size="18" id="world" shape-rendering="crispEdges">
<g id="BG"/>
<g id="SB" transform="translate(71 360)">
<text text-anchor="middle" x="0" y="17">
0
</text>
<text text-anchor="middle" x="269.5" y="17">
20
</text>
<text text-anchor="middle" x="539" y="17">
40
</text>
<text text-anchor="middle" x="808.5" y="17">
60
</text>
<text text-anchor="middle" x="1078" y="17">
80
</text>
<text text-anchor="middle" x="1347.5" y="17">
100
</text>
</g>
<g id="SD" transform="translate(71 0)">
<path d="M0,0 L1347.5,0" stroke="black" stroke-width="3"/>
<path d="M0,0 L0,358.5" stroke="black" stroke-width="3"/>
<path d="M0,358.5 L1347.5,358.5" stroke="black" stroke-width="3"/>
<path d="M1347.5,0 L1347.5,358.5" stroke="black" stroke-width="3"/>
<path d="M0,343.5 L1347.5,343.5" stroke="black" stroke-width="1"/>
<path d="M0,0 L0,358.5" stroke="black" stroke-width="1"/>
<path d="M269.5,0 L269.5,358.5" stroke="black" stroke-width="1"/>
<path d="M539,0 L539,358.5" stroke="black" stroke-width="1"/>
<path d="M808.5,0 L808.5,358.5" stroke="black" stroke-width="1"/>
<path d="M1078,0 L1078,358.5" stroke="black" stroke-width="1"/>
<path d="M1347.5,0 L1347.5,358.5" stroke="black" stroke-width="1"/>
<path d="M134.75,15 L134.75,358.5" stroke="black" stroke-dasharray="1.0,2.5,5.0,5.0,10.0,5.0"/>
<path d="M404.25,15 L404.25,358.5" stroke="black" stroke-dasharray="1.0,2.5,5.0,5.0,10.0,5.0"/>
<path d="M673.75,15 L673.75,358.5" stroke="black" stroke-dasharray="1.0,2.5,5.0,5.0,10.0,5.0"/>
<path d="M943.25,15 L943.25,358.5" stroke="black" stroke-dasharray="1.0,2.5,5.0,5.0,10.0,5.0"/>
<path d="M1212.75,15 L1212.75,358.5" stroke="black" stroke-dasharray="1.0,2.5,5.0,5.0,10.0,5.0"/>
<path d="M0,358.5 L1347.5,358.5" stroke="black" stroke-width="1"/>
<path d="M0,322.65 L1347.5,322.65" stroke="black" stroke-width="1"/>
<path d="M0,286.8 L1347.5,286.8" stroke="black" stroke-width="1"/>
<path d="M0,250.95 L1347.5,250.95" stroke="black" stroke-width="1"/>
<path d="M0,215.1 L1347.5,215.1" stroke="black" stroke-width="1"/>
<path d="M0,179.25 L1347.5,179.25" stroke="black" stroke-width="1"/>
<path d="M0,143.4 L1347.5,143.4" stroke="black" stroke-width="1"/>
<path d="M0,107.55 L1347.5,107.55" stroke="black" stroke-width="1"/>
<path d="M0,71.7 L1347.5,71.7" stroke="black" stroke-width="1"/>
<path d="M0,35.85 L1347.5,35.85" stroke="black" stroke-width="1"/>
<path d="M0,0 L1347.5,0" stroke="black" stroke-width="1"/>
<path d="M0,340.575 L1347.5,340.575" stroke="black" stroke-dasharray="1.0,2.5,5.0,5.0,10.0,5.0"/>
<path d="M0,304.725 L1347.5,304.725" stroke="black" stroke-dasharray="1.0,2.5,5.0,5.0,10.0,5.0"/>
<path d="M0,268.875 L1347.5,268.875" stroke="black" stroke-dasharray="1.0,2.5,5.0,5.0,10.0,5.0"/>
<path d="M0,233.025 L1347.5,233.025" stroke="black" stroke-dasharray="1.0,2.5,5.0,5.0,10.0,5.0"/>
<path d="M0,197.175 L1347.5,197.175" stroke="black" stroke-dasharray="1.0,2.5,5.0,5.0,10.0,5.0"/>
<path d="M0,161.325 L1347.5,161.325" stroke="black" stroke-dasharray="1.0,2.5,5.0,5.0,10.0,5.0"/>
<path d="M0,125.475 L1347.5,125.475" stroke="black" stroke-dasharray="1.0,2.5,5.0,5.0,10.0,5.0"/>
<path d="M0,89.625 L1347.5,89.625" stroke="black" stroke-dasharray="1.0,2.5,5.0,5.0,10.0,5.0"/>
<path d="M0,53.775 L1347.5,53.775" stroke="black" stroke-dasharray="1.0,2.5,5.0,5.0,10.0,5.0"/>
<path d="M0,17.925 L1347.5,17.925" stroke="black" stroke-dasharray="1.0,2.5,5.0,5.0,10.0,5.0"/>
<text font-size="14" text-anchor="end" x="124.75" y="354.5">
0.6%
</text>
<text font-size="14" text-anchor="end" x="259.5" y="354.5">
1.6%
</text>
<text font-size="14" text-anchor="end" x="394.25" y="354.5">
1.6%
</text>
<text font-size="14" text-anchor="end" x="529" y="354.5">
2.1%
</text>
<text font-size="14" text-anchor="end" x="663.75" y="354.5">
1.2%
</text>
<text font-size="14" text-anchor="end" x="798.5" y="354.5">
0.1%
</text>
<text font-size="14" text-anchor="end" x="933.2500000000001" y="354.5">
1.6%
</text>
<text font-size="14" text-anchor="end" x="1068" y="354.5">
2.8%
</text>
<text font-size="14" text-anchor="end" x="1202.75" y="354.5">
4.5%
</text>
<text font-size="14" text-anchor="end" x="1337.5" y="354.5">
0.7%
</text>
<path d="M0.0,163.5 L0.2,163.5 L0.4,163.5 L0.8,163.5 L0.8,163.5 L1.5,163.5 L1.6,163.5 L1.7,163.5 L2.2,163.5 L2.7,163.5 L3.5,163.5 L4.0,163.5 L5.4,163.6 L5.6,163.6 L5.7,163.6 L6.0,163.6 L6.8,163.6 L7.3,163.6 L7.7,163.6 L8.0,163.6 L8.5,163.8 L9.1,163.8 L9.5,163.7 L9.9,163.7 L10.7,163.7 L11.1,163.7 L11.4,163.7 L11.8,163.8 L12.7,164.0 L13.1,164.1 L14.2,164.0 L15.3,164.2 L15.7,164.2 L16.2,164.2 L16.7,164.2 L17.3,164.1 L17.8,164.1 L18.3,163.9 L19.4,163.7 L20.6,163.4 L21.5,163.4 L22.0,163.3 L23.4,163.4 L23.8,163.4 L24.5,163.4 L24.8,163.3 L25.8,163.3 L26.6,163.3 L27.3,163.3 L33.5,162.3 L37.3,161.0 L39.0,160.7 L39.8,161.0 L41.5,161.0 L41.7,161.1 L41.9,161.1 L42.4,161.1 L43.9,161.2 L49.9,159.9 L50.1,159.7 L50.2,159.7 L51.3,159.8 L51.6,159.8 L53.1,160.0 L55.4,159.1 L56.2,159.0 L56.7,159.0 L57.1,159.0 L57.9,158.9 L58.2,158.7 L59.8,158.7 L60.7,158.5 L60.8,158.5 L61.1,158.4 L61.2,158.4 L61.5,158.3 L62.3,158.1 L62.6,158.0 L62.8,158.0 L63.0,158.0 L63.9,157.9 L64.1,157.9 L64.3,157.8 L64.6,157.8 L64.9,157.8 L65.2,157.8 L66.3,157.7 L67.4,157.8 L68.7,157.9 L69.0,157.8 L69.2,157.8 L69.7,157.9 L69.9,157.9 L70.2,157.9 L70.5,157.9 L72.1,158.0 L73.0,158.1 L73.2,158.1 L73.7,158.1 L74.3,157.8 L75.1,157.2 L76.1,156.0 L76.7,155.4 L77.1,155.1 L77.4,155.0 L78.0,154.9 L78.6,154.9 L78.8,155.0 L79.4,154.9 L79.9,155.0 L80.2,155.1 L80.6,155.2 L81.3,155.2 L81.5,155.2 L82.1,155.3 L82.3,155.2 L82.4,155.2 L82.6,155.3 L82.8,155.0 L82.9,155.0 L83.1,155.0 L83.6,154.5 L83.7,154.3 L84.2,153.9 L84.9,153.5 L85.5,152.8 L85.9,151.9 L86.3,151.7 L86.7,151.5 L87.2,151.3 L87.8,151.3 L89.8,152.1 L90.5,152.0 L91.0,152.0 L91.6,152.0 L93.0,152.2 L93.4,152.1 L94.1,152.1 L94.7,152.2 L95.2,152.2 L95.7,152.2 L100.7,153.1 L102.6,152.5 L104.4,152.1 L106.0,151.9 L107.0,152.0 L108.0,152.3 L108.9,151.9 L110.2,151.2 L111.1,151.1 L111.9,151.0 L112.5,151.0 L113.1,150.8 L113.7,150.8 L114.2,151.0 L114.7,151.2 L116.5,152.0 L117.6,152.5 L119.2,152.2 L121.3,151.0 L122.5,150.0 L124.1,149.5 L127.1,148.4 L128.1,148.7 L129.2,148.7 L130.3,149.4 L131.8,149.8 L133.0,150.1 L134.1,149.8 L135.2,149.7 L135.4,149.7 L136.6,149.7 L137.4,149.4 L139.5,148.1 L141.8,148.4 L143.0,147.5 L144.0,147.8 L144.7,147.8 L145.0,147.8 L145.6,147.6 L146.3,147.6 L147.1,147.5 L148.1,147.7 L148.7,147.7 L148.8,147.7 L149.4,147.4 L150.1,147.3 L151.7,147.1 L152.1,147.0 L152.8,146.7 L154.3,146.4 L154.7,146.2 L155.1,146.1 L155.5,145.9 L155.9,145.9 L156.3,145.9 L156.8,145.9 L160.9,144.3 L161.6,143.9 L161.9,143.9 L162.3,144.0 L162.7,144.0 L163.7,143.9 L164.2,143.9 L164.7,143.8 L165.1,143.7 L165.6,143.8 L166.0,143.8 L167.8,143.1 L169.5,142.9 L169.9,142.9 L170.4,143.3 L171.1,143.5 L172.8,143.7 L173.5,143.9 L174.9,144.3 L178.0,142.0 L179.0,141.6 L179.7,141.1 L180.6,141.1 L181.3,141.2 L182.0,141.0 L182.4,141.0 L185.6,141.3 L186.9,140.9 L187.5,140.9 L187.9,140.9 L188.6,140.9 L188.8,140.9 L188.9,140.9 L188.9,140.9 L189.3,141.0 L189.4,141.0 L189.8,140.7 L190.8,140.6 L191.7,138.9 L192.3,137.8 L192.7,136.9 L193.9,136.3 L194.4,136.1 L194.8,135.3 L195.1,134.8 L195.7,134.6 L196.8,134.8 L197.2,135.9 L197.8,136.7 L198.3,137.1 L199.5,136.7 L199.8,136.7 L200.2,137.0 L201.4,137.4 L201.8,137.4 L202.5,137.3 L203.1,136.7 L203.1,136.7 L203.4,136.8 L203.8,136.8 L206.1,137.4 L207.0,137.2 L207.5,137.0 L208.2,137.0 L208.7,137.0 L209.3,137.0 L209.9,136.5 L212.4,135.1 L215.1,134.9 L216.0,134.9 L216.4,134.9 L216.7,134.9 L217.1,134.9 L217.2,134.9 L217.7,134.9 L221.3,128.5 L221.4,127.6 L222.2,127.7 L223.0,127.7 L223.7,127.5 L224.4,126.6 L224.6,126.3 L225.9,125.4 L226.4,125.2 L226.6,125.2 L227.1,124.5 L228.4,123.7 L228.6,123.7 L229.6,122.8 L230.2,122.5 L230.5,122.5 L231.3,122.0 L231.6,122.0 L231.9,121.9 L232.6,121.7 L232.9,121.7 L233.6,121.5 L234.3,121.0 L234.9,120.9 L235.1,120.4 L236.8,119.4 L237.6,116.0 L238.4,114.3 L239.9,111.8 L240.2,111.7 L240.8,110.9 L242.0,109.1 L242.4,108.9 L242.5,108.9 L242.7,108.8 L243.0,108.5 L243.2,108.5 L243.6,108.2 L243.8,108.1 L244.0,108.1 L244.1,108.0 L244.4,108.0 L244.6,107.9 L244.8,107.8 L245.6,107.2 L245.8,106.9 L246.1,106.7 L246.4,106.5 L246.7,106.3 L247.1,106.2 L247.6,106.2 L247.9,106.1 L249.0,105.6 L250.0,105.4 L250.4,105.4 L252.8,105.1 L254.2,104.4 L255.0,104.4 L255.5,103.8 L256.1,103.8 L257.7,103.5 L258.6,103.2 L259.0,102.7 L259.7,102.3 L261.1,102.1 L261.6,101.8 L261.8,101.4 L262.9,101.6 L264.2,101.7 L264.8,101.5 L265.1,101.5 L265.7,101.6 L265.9,101.6 L266.5,101.6 L267.3,101.5 L269.0,98.0 L269.5,97.8 L270.9,97.6 L271.1,97.6 L271.2,97.6 L272.7,96.8 L273.1,96.9 L274.0,97.3 L274.1,97.3 L274.3,97.3 L274.6,97.2 L274.8,97.2 L275.4,97.1 L276.1,96.9 L277.0,96.6 L277.8,96.1 L278.4,95.7 L279.6,95.2 L280.2,94.6 L280.6,94.4 L281.4,94.2 L281.7,94.0 L282.4,93.7 L282.7,93.6 L283.1,93.4 L283.7,93.1 L284.4,93.0 L284.9,92.8 L285.3,92.5 L285.5,92.0 L286.3,91.8 L287.8,90.6 L288.2,90.2 L289.4,88.4 L289.7,88.4 L292.0,87.2 L293.1,85.9 L294.5,85.6 L294.9,85.4 L295.1,85.4 L295.5,85.4 L296.6,85.1 L296.9,85.1 L297.4,85.0 L298.8,84.1 L300.3,82.6 L301.2,82.4 L301.7,82.0 L302.6,81.8 L303.1,81.3 L303.4,81.0 L304.5,80.5 L305.4,80.0 L306.0,79.7 L306.7,78.6 L307.5,78.1 L308.9,76.7 L309.2,76.7 L309.5,76.4 L310.2,75.9 L310.9,75.9 L311.1,75.9 L311.6,75.9 L312.8,74.4 L314.3,71.8 L314.8,71.8 L315.4,71.2 L315.6,70.4 L315.8,70.4 L316.0,70.1 L316.5,69.9 L317.9,69.3 L318.2,69.4 L318.5,69.2 L318.7,69.2 L318.9,69.2 L319.0,69.2 L319.3,69.2 L319.5,69.1 L319.7,69.1 L320.5,68.9 L320.6,69.1 L320.8,69.1 L321.4,69.2 L321.7,69.2 L322.0,69.2 L322.2,69.2 L322.4,69.3 L322.5,69.3 L322.9,69.3 L323.5,68.7 L323.7,68.4 L323.9,68.4 L324.1,68.2 L326.3,66.2 L327.0,62.4 L328.0,61.7 L329.0,60.7 L329.5,60.1 L330.0,59.6 L330.4,59.6 L331.0,59.2 L331.7,58.2 L332.1,57.3 L333.8,53.5 L334.5,52.5 L335.3,51.2 L336.1,49.8 L338.0,46.8 L338.7,46.8 L339.3,46.1 L340.0,46.1 L340.6,46.1 L343.6,54.2 L345.2,58.8 L345.7,59.7 L346.1,59.7 L346.8,63.0 L347.7,64.3 L348.2,65.1 L348.8,66.8 L349.2,66.8 L349.5,67.6 L350.3,68.5 L352.6,70.9 L352.9,72.1 L354.5,72.7 L355.5,73.6 L355.6,73.6 L357.5,77.0 L358.8,79.3 L359.6,79.3 L361.0,81.6 L362.5,84.0 L363.2,84.5 L364.6,88.0 L365.0,88.6 L365.4,89.6 L366.6,90.4 L366.9,90.4 L367.1,90.4 L367.4,91.2 L368.0,91.9 L369.9,92.8 L373.1,95.0 L374.2,95.3 L374.4,95.3 L374.6,95.3 L374.9,95.3 L375.2,95.3 L375.7,95.3 L376.0,95.0 L378.7,92.8 L379.1,93.4 L379.9,94.2 L381.5,95.5 L381.8,95.6 L382.0,95.9 L382.4,96.0 L382.6,96.2 L382.7,96.2 L383.2,96.3 L383.5,96.3 L383.6,96.3 L383.7,96.3 L383.9,96.3 L384.0,96.3 L384.2,96.5 L384.4,96.6 L384.6,96.6 L384.8,96.6 L385.7,97.3 L386.8,98.5 L386.8,98.5 L387.8,99.3 L388.2,99.4 L388.3,99.4 L388.5,99.5 L388.8,99.5 L389.3,99.5 L389.4,99.5 L389.4,99.5 L389.6,99.7 L389.8,99.7 L390.0,99.7 L390.2,99.8 L390.5,99.9 L390.7,100.0 L390.8,100.0 L391.6,100.0 L392.4,100.3 L392.8,100.6 L393.2,100.8 L393.3,100.9 L394.0,101.3 L394.5,101.5 L395.0,101.5 L395.0,101.5 L395.2,101.6 L395.3,101.6 L395.6,101.7 L396.0,101.8 L396.1,101.8 L396.3,101.8 L396.5,101.8 L396.5,101.8 L397.1,101.9 L398.0,102.2 L398.2,102.2 L398.8,102.1 L399.5,101.8 L400.0,101.7 L400.7,101.7 L400.9,101.5 L401.2,101.5 L401.3,101.5 L401.7,101.5 L402.4,101.7 L403.0,102.0 L404.8,103.3 L405.0,103.4 L405.2,103.5 L405.6,103.5 L405.7,103.5 L406.1,103.7 L406.4,103.6 L406.7,103.6 L406.9,103.6 L406.9,103.6 L407.1,103.6 L407.4,103.5 L407.5,103.5 L407.6,103.5 L408.5,103.2 L408.9,102.8 L409.5,102.7 L410.0,102.3 L410.4,101.9 L410.8,101.9 L411.3,102.0 L411.3,102.0 L412.4,102.3 L413.1,102.6 L413.9,103.0 L414.2,103.6 L414.3,103.6 L414.4,103.6 L415.2,103.4 L415.6,103.1 L417.1,101.8 L417.7,101.5 L418.3,101.1 L419.1,100.8 L419.9,101.1 L420.3,101.1 L420.8,101.3 L420.8,101.3 L421.9,102.4 L422.6,102.6 L423.4,103.0 L423.7,103.6 L423.8,103.6 L423.9,103.6 L424.7,103.4 L425.1,103.1 L426.6,101.0 L427.2,100.9 L427.8,100.4 L428.4,99.9 L428.7,99.8 L428.9,99.7 L429.0,99.7 L429.6,99.4 L430.1,99.2 L430.3,99.0 L431.0,98.8 L431.2,98.6 L431.5,98.5 L432.9,97.4 L433.4,97.2 L434.4,96.5 L435.2,96.5 L435.5,96.6 L437.8,96.0 L437.9,96.0 L438.8,95.4 L439.6,95.4 L440.3,95.3 L441.3,94.7 L442.4,94.7 L443.5,94.8 L444.3,95.0 L444.4,95.0 L444.8,95.0 L445.2,95.1 L446.3,95.0 L448.7,94.2 L449.7,94.0 L450.3,94.0 L451.2,94.1 L451.8,93.8 L452.4,93.8 L453.2,93.8 L453.5,93.8 L453.6,93.8 L454.0,93.7 L454.3,93.7 L458.1,88.7 L458.9,88.2 L459.9,88.2 L460.6,88.2 L461.1,88.6 L465.3,86.6 L465.6,85.4 L467.8,84.8 L469.0,81.6 L472.8,84.3 L473.4,84.1 L473.6,84.1 L473.8,84.1 L474.7,83.8 L475.9,83.7 L476.9,82.9 L477.8,82.6 L479.0,82.6 L479.3,82.6 L479.8,82.5 L480.5,82.5 L480.9,82.1 L481.1,82.1 L481.5,81.7 L482.4,80.4 L483.2,79.7 L483.8,78.6 L484.4,77.3 L484.5,77.3 L485.2,76.9 L486.1,76.0 L486.7,75.5 L487.1,75.3 L488.4,74.0 L488.7,74.0 L489.0,73.5 L489.5,73.0 L489.9,72.9 L490.8,72.8 L491.0,72.6 L491.6,72.2 L491.8,71.7 L492.5,71.6 L492.8,71.4 L493.0,71.2 L493.5,70.6 L494.4,70.0 L495.5,68.9 L495.8,68.7 L496.1,68.7 L496.4,68.6 L497.0,68.1 L497.2,67.8 L497.3,67.8 L497.4,67.8 L497.9,67.5 L498.0,67.5 L498.2,67.5 L498.4,67.4 L499.2,66.5 L499.5,65.9 L499.8,65.8 L500.3,63.9 L501.3,60.0 L502.2,57.3 L502.9,55.5 L503.4,54.7 L504.1,54.5 L504.4,54.5 L504.7,54.5 L505.2,54.2 L505.4,54.2 L506.2,53.9 L506.5,53.5 L506.7,53.5 L507.0,53.3 L507.2,53.3 L508.1,52.9 L508.4,52.9 L508.6,52.9 L509.1,52.1 L509.5,51.2 L511.6,47.8 L513.2,46.3 L513.6,46.3 L514.4,45.9 L515.4,46.1 L517.4,46.8 L517.8,46.3 L518.0,46.3 L518.2,46.4 L518.6,46.4 L519.1,45.9 L520.1,45.3 L521.3,43.2 L522.5,42.5 L523.0,42.3 L524.7,46.2 L526.0,48.5 L526.5,48.7 L526.7,48.7 L527.1,48.8 L527.8,49.7 L528.2,49.7 L528.8,50.4 L529.5,51.1 L530.3,52.3 L531.0,53.2 L531.4,53.4 L532.1,54.0 L532.3,54.3 L532.4,54.4 L532.9,54.7 L533.1,54.9 L533.3,54.9 L533.8,55.1 L534.0,55.0 L534.2,55.2 L534.6,55.0 L535.1,55.1 L535.2,55.1 L535.4,54.9 L536.0,54.5 L536.1,54.5 L536.5,54.5 L537.2,53.9 L538.0,52.6 L538.4,51.9 L538.6,51.9 L539.4,50.5 L539.7,50.5 L540.4,50.2 L540.7,50.2 L541.0,50.0 L541.4,49.5 L541.9,49.5 L542.9,48.8 L543.0,48.8 L544.0,48.8 L545.2,49.9 L546.4,51.1 L547.3,52.1 L547.8,52.1 L548.2,52.8 L548.8,52.8 L549.3,53.3 L549.6,53.3 L550.5,53.6 L553.3,52.3 L555.6,52.3 L555.9,52.2 L556.1,51.8 L556.3,51.8 L556.7,51.8 L557.9,52.2 L558.5,52.8 L558.8,53.0 L559.1,54.5 L560.2,57.2 L561.0,58.1 L561.5,60.0 L561.7,60.3 L561.9,61.1 L562.4,61.3 L562.6,61.5 L562.7,61.5 L562.8,61.5 L563.3,61.9 L563.9,62.8 L564.1,62.8 L564.3,63.0 L564.5,63.3 L564.7,64.0 L565.1,64.2 L566.0,65.3 L566.6,65.8 L567.3,67.6 L568.7,69.6 L569.1,70.4 L569.3,70.8 L570.4,71.2 L570.7,71.4 L571.1,71.7 L571.4,72.2 L572.1,73.0 L572.6,73.3 L573.1,73.6 L573.5,74.1 L573.9,74.3 L574.2,74.5 L574.6,74.5 L574.9,74.9 L575.7,75.3 L575.9,75.5 L576.1,75.5 L579.7,79.4 L580.2,81.9 L581.2,85.5 L582.7,87.4 L583.3,88.4 L583.6,89.7 L583.7,89.7 L583.8,89.7 L584.8,91.7 L585.2,92.1 L586.0,93.5 L586.1,93.5 L586.7,94.7 L587.1,94.7 L587.2,95.2 L587.8,96.0 L588.1,96.4 L588.2,96.6 L589.8,97.9 L590.4,98.1 L590.9,98.4 L591.2,98.6 L591.4,98.6 L591.6,98.2 L592.2,98.2 L592.5,98.0 L592.7,97.9 L593.4,97.5 L593.5,97.2 L594.1,96.8 L594.2,96.5 L594.9,95.9 L595.5,95.0 L596.1,93.8 L596.9,92.4 L597.4,91.7 L598.1,91.0 L598.3,90.3 L598.6,90.3 L599.1,89.9 L599.4,89.3 L600.1,88.0 L600.4,87.5 L600.9,86.8 L601.9,85.1 L602.2,84.6 L602.5,84.6 L603.5,83.2 L604.0,82.3 L604.4,81.9 L605.9,80.1 L606.5,79.3 L606.9,78.6 L607.4,77.8 L608.0,77.7 L608.2,77.5 L608.7,77.1 L609.0,77.0 L609.4,76.6 L609.6,76.6 L609.7,76.4 L610.1,76.4 L610.3,76.4 L610.9,76.2 L611.3,76.0 L611.5,75.9 L611.8,75.7 L612.0,74.9 L612.2,73.9 L614.6,66.9 L614.9,65.7 L615.2,63.7 L615.6,63.7 L616.5,62.8 L616.8,62.8 L617.8,61.5 L618.7,60.9 L619.1,60.9 L619.8,60.6 L621.0,61.4 L621.1,61.4 L622.0,62.2 L622.6,62.8 L623.6,62.8 L624.4,63.2 L625.2,63.3 L625.8,63.2 L626.5,63.0 L628.2,63.4 L628.6,63.5 L629.5,64.6 L630.4,66.6 L632.1,69.8 L632.4,70.3 L632.7,70.4 L632.8,70.4 L633.1,71.0 L633.1,71.0 L633.5,71.1 L633.7,71.1 L634.1,71.2 L634.4,71.2 L634.7,71.2 L634.9,71.4 L635.3,71.6 L635.6,71.7 L636.0,71.8 L636.5,71.9 L636.8,71.8 L637.0,71.9 L637.1,71.9 L637.5,72.0 L637.9,72.1 L638.4,72.2 L638.7,72.1 L639.6,72.1 L639.9,72.2 L640.5,72.4 L640.9,72.6 L641.3,72.7 L641.7,72.8 L642.2,73.2 L642.8,73.8 L643.3,74.4 L644.5,76.1 L645.1,77.6 L645.6,78.8 L646.9,79.9 L647.7,80.9 L648.1,81.2 L649.5,81.5 L649.7,81.6 L649.9,82.1 L650.1,83.0 L650.3,83.4 L650.5,83.9 L650.7,84.2 L650.8,84.3 L651.7,84.3 L652.4,84.7 L652.6,85.0 L652.8,85.0 L652.9,85.3 L653.1,85.6 L653.3,85.9 L654.7,88.5 L655.2,89.9 L656.1,91.9 L657.0,91.9 L657.3,91.7 L657.5,92.2 L657.7,92.0 L657.8,92.0 L658.0,92.3 L658.2,92.3 L658.5,92.3 L659.1,92.5 L659.5,92.5 L659.9,93.0 L660.3,93.5 L660.7,94.3 L661.2,94.0 L662.4,97.3 L662.7,98.1 L663.1,100.1 L663.3,100.1 L664.0,102.1 L664.4,102.1 L664.8,103.6 L665.4,107.8 L667.4,114.5 L667.9,116.4 L668.1,116.4 L668.8,117.8 L669.9,118.6 L670.6,119.2 L672.1,124.1 L673.6,127.2 L674.7,127.9 L675.5,129.5 L677.1,130.1 L677.6,130.1 L678.0,130.2 L678.4,130.7 L680.3,130.9 L681.7,130.6 L682.6,130.6 L683.2,131.3 L683.5,131.3 L685.4,133.4 L686.3,135.9 L687.5,139.0 L687.9,139.2 L688.3,139.7 L689.0,139.3 L689.3,138.8 L689.4,138.8 L690.0,138.5 L690.5,138.5 L691.3,138.8 L691.6,138.9 L691.9,138.7 L692.2,138.1 L693.1,137.7 L693.3,137.6 L693.4,137.6 L693.8,137.6 L694.2,138.3 L694.5,139.0 L694.8,139.8 L695.4,141.1 L695.9,141.7 L696.8,143.4 L697.0,144.1 L697.3,144.4 L697.6,145.2 L698.0,145.2 L698.5,145.8 L699.0,146.2 L699.4,146.2 L699.6,146.5 L700.0,147.3 L700.8,147.7 L701.0,147.7 L701.4,147.7 L702.4,149.7 L704.3,157.1 L704.6,157.1 L705.6,159.0 L706.0,159.0 L706.3,160.0 L706.6,160.7 L706.8,161.3 L707.9,162.9 L708.7,165.6 L709.2,166.3 L709.5,167.2 L710.2,167.9 L710.7,168.2 L710.9,168.3 L711.1,168.3 L712.1,169.5 L712.5,169.7 L713.0,170.4 L713.5,171.1 L713.9,171.9 L714.2,172.5 L714.6,172.5 L715.2,173.2 L715.9,174.1 L716.9,175.5 L718.4,176.9 L719.4,177.8 L719.9,178.0 L720.2,178.4 L721.2,178.6 L721.7,179.1 L722.3,180.5 L722.8,181.3 L723.9,182.3 L724.5,182.7 L724.9,182.9 L725.4,183.3 L726.3,184.5 L726.9,185.5 L727.5,187.3 L728.9,191.0 L729.5,191.5 L729.9,192.4 L730.0,192.4 L730.3,192.8 L730.6,192.5 L730.9,192.3 L731.0,192.3 L731.2,192.2 L732.1,192.6 L732.8,193.0 L733.2,192.9 L733.5,192.8 L733.8,192.4 L734.6,192.5 L734.8,192.8 L735.0,192.8 L736.2,193.7 L736.4,194.0 L736.7,194.2 L736.9,194.5 L737.0,194.5 L737.4,194.5 L738.1,194.7 L738.5,195.3 L738.9,196.0 L739.5,197.8 L740.4,202.3 L740.8,203.1 L741.0,203.1 L741.3,203.5 L741.5,203.5 L741.7,203.9 L742.2,203.9 L742.3,204.2 L742.4,204.2 L742.4,204.2 L742.5,204.3 L742.5,204.3 L742.6,204.3 L742.6,204.3 L742.7,204.3 L743.0,204.4 L743.2,204.8 L743.5,204.8 L745.2,206.7 L745.6,207.3 L745.8,207.3 L746.3,208.9 L747.9,210.3 L748.6,211.9 L748.9,211.9 L749.2,212.5 L749.9,213.0 L750.4,213.0 L751.3,214.2 L752.2,215.6 L753.4,217.6 L753.8,217.6 L754.2,217.9 L754.6,218.1 L755.3,218.5 L755.4,218.5 L755.8,218.7 L756.1,218.8 L756.4,218.9 L757.0,219.2 L757.0,219.2 L757.8,219.6 L758.4,220.0 L758.7,220.2 L759.8,221.1 L760.3,221.1 L760.8,221.0 L763.0,223.3 L763.6,224.4 L763.8,224.4 L764.1,224.7 L764.4,224.9 L764.9,224.9 L765.2,224.9 L765.6,224.9 L765.8,225.6 L766.0,225.6 L766.2,225.6 L766.6,226.5 L767.0,226.8 L768.5,227.8 L769.3,228.1 L769.7,228.3 L770.1,228.6 L770.9,229.2 L771.5,229.4 L772.6,230.1 L772.9,230.3 L773.1,230.3 L773.5,230.3 L774.0,230.6 L774.4,230.8 L774.7,230.7 L776.2,231.3 L776.7,231.5 L777.1,231.5 L777.6,232.2 L778.2,232.5 L778.7,233.2 L779.1,233.5 L779.8,234.1 L780.2,234.2 L780.6,234.4 L780.9,234.7 L781.2,234.7 L781.3,234.7 L781.4,234.7 L781.6,234.8 L782.0,234.9 L782.6,234.9 L783.3,235.1 L783.4,235.1 L783.5,235.1 L783.5,235.1 L783.6,235.1 L783.7,235.1 L783.9,235.1 L784.1,235.2 L784.5,235.2 L785.2,235.3 L785.4,235.3 L785.8,235.4 L786.0,235.4 L786.7,236.2 L788.4,237.7 L789.0,238.9 L789.5,239.5 L790.5,239.8 L791.1,240.1 L791.3,240.1 L791.7,240.2 L792.7,240.4 L793.0,240.6 L793.1,240.6 L793.6,240.7 L795.0,240.8 L795.4,241.0 L796.1,241.3 L796.3,241.6 L796.7,241.6 L797.3,241.8 L797.9,242.0 L798.7,242.7 L798.9,243.0 L799.7,243.7 L800.0,244.0 L800.6,244.2 L801.1,244.1 L801.3,244.2 L801.5,244.3 L802.0,244.4 L802.5,244.7 L802.8,245.0 L803.5,245.4 L804.0,245.5 L804.2,245.5 L804.7,245.5 L805.0,245.5 L805.3,245.5 L805.5,245.5 L805.7,245.5 L805.8,245.5 L806.2,245.5 L806.6,245.4 L806.8,245.1 L806.9,245.1 L807.4,245.1 L807.9,244.7 L808.0,244.6 L809.3,243.3 L809.4,243.0 L810.2,241.0 L811.3,238.7 L812.3,236.9 L813.8,235.1 L814.2,234.0 L816.1,231.6 L817.0,229.8 L817.2,229.8 L818.4,228.8 L818.9,227.0 L820.3,224.3 L821.2,222.4 L821.9,221.1 L823.1,218.2 L824.7,216.4 L825.2,212.9 L827.4,208.0 L827.7,208.0 L827.9,208.0 L828.5,207.1 L829.5,204.9 L830.0,203.8 L831.4,198.6 L831.9,198.6 L832.6,195.9 L833.8,191.5 L835.3,189.9 L835.7,190.3 L836.0,190.8 L836.2,190.8 L836.4,190.8 L836.8,191.1 L837.1,191.1 L837.5,191.1 L838.1,191.9 L838.3,192.7 L838.6,193.1 L839.2,196.0 L840.3,199.6 L840.9,204.3 L841.7,209.5 L842.7,213.1 L843.2,214.8 L843.4,215.2 L843.6,215.2 L843.8,216.1 L844.0,216.1 L844.3,216.5 L844.6,217.5 L844.9,217.8 L845.0,217.8 L845.2,217.8 L845.6,218.5 L846.0,219.3 L846.9,220.4 L847.2,220.5 L847.5,220.6 L848.2,221.2 L848.3,221.2 L848.5,221.4 L849.1,221.4 L849.4,221.9 L850.5,223.0 L851.1,223.4 L851.8,223.8 L851.9,223.8 L852.1,224.1 L852.2,224.1 L852.4,224.4 L852.5,224.4 L853.0,224.4 L853.2,224.4 L853.3,224.7 L853.4,224.7 L855.0,227.5 L856.4,233.9 L856.6,234.6 L856.7,234.6 L857.5,236.7 L858.1,237.5 L858.6,238.2 L858.8,238.2 L859.1,238.9 L859.6,241.2 L860.0,241.2 L860.1,241.7 L860.9,243.0 L862.3,244.7 L862.8,246.3 L863.9,248.6 L864.5,249.1 L865.3,251.0 L865.6,251.6 L866.3,252.0 L866.7,254.0 L867.3,254.7 L867.5,255.8 L868.3,257.8 L868.8,258.8 L869.3,261.3 L870.1,263.3 L870.7,264.6 L871.1,265.9 L871.5,267.1 L872.0,267.1 L872.8,268.1 L872.9,268.8 L873.0,268.8 L874.2,269.1 L875.1,271.2 L875.5,272.5 L877.2,277.9 L877.4,277.9 L878.0,278.7 L878.3,279.9 L878.7,279.9 L879.1,280.5 L879.4,280.5 L879.8,280.9 L881.0,281.3 L881.4,281.7 L882.2,281.8 L882.5,281.8 L883.2,281.8 L883.4,281.8 L884.0,281.6 L884.3,281.1 L884.5,281.8 L884.8,281.8 L887.0,286.8 L888.6,288.3 L889.1,287.8 L889.6,287.8 L889.7,287.8 L890.0,287.4 L891.7,287.0 L892.6,286.1 L893.3,286.1 L893.6,287.9 L894.3,291.4 L896.1,295.5 L896.4,296.8 L896.7,296.8 L897.0,296.8 L897.5,297.7 L897.7,297.7 L898.6,297.4 L898.8,297.4 L899.5,297.3 L899.8,297.2 L900.7,297.8 L900.9,298.4 L901.7,299.1 L902.5,301.2 L903.5,302.9 L903.7,303.8 L904.6,304.7 L905.0,304.7 L905.3,305.2 L906.1,305.4 L906.7,306.3 L907.9,306.9 L908.5,307.6 L908.9,307.8 L909.7,308.2 L910.0,308.2 L910.7,308.6 L910.9,308.6 L912.8,309.5 L913.4,309.8 L913.8,309.8 L914.1,309.8 L914.3,310.1 L914.7,310.5 L915.6,311.0 L916.8,312.2 L917.3,313.0 L918.1,314.1 L919.3,315.1 L919.6,315.3 L920.2,316.0 L920.5,316.0 L920.7,316.0 L921.1,316.6 L921.3,316.6 L921.5,316.7 L921.9,316.8 L922.5,317.4 L922.8,317.4 L923.4,318.2 L923.6,318.2 L924.0,318.7 L924.4,318.9 L925.1,319.2 L925.5,319.4 L925.9,319.4 L926.5,319.8 L926.8,320.0 L927.1,320.2 L927.3,320.3 L927.6,320.4 L928.0,320.7 L928.2,320.7 L928.8,321.1 L929.2,321.2 L929.6,321.4 L929.9,321.6 L930.2,321.7 L930.5,321.8 L930.7,321.7 L930.9,321.9 L931.2,321.7 L931.4,321.7 L931.7,321.8 L932.0,321.8 L932.4,321.7 L933.4,321.7 L933.9,321.5 L934.6,321.6 L936.6,322.8 L937.0,323.0 L938.1,323.3 L938.3,323.2 L938.5,323.2 L939.3,323.2 L939.6,323.2 L939.9,323.1 L940.1,323.1 L940.8,323.0 L941.3,323.0 L942.4,322.7 L943.2,322.4 L943.7,322.9 L944.6,323.3 L946.4,324.5 L947.1,325.4 L947.6,326.1 L948.2,326.4 L949.3,326.7 L950.8,328.0 L952.3,329.7 L954.2,330.2 L954.5,330.2 L959.1,332.3 L959.1,332.7 L959.1,332.7 L959.5,332.6 L960.0,332.6 L961.9,332.1 L962.2,332.2 L963.2,332.1 L963.3,332.1 L963.4,332.1 L963.5,332.1 L963.7,332.3 L964.6,332.4 L966.3,333.0 L966.8,333.2 L967.3,333.3 L967.5,333.3 L967.7,333.4 L967.9,333.4 L968.1,333.5 L968.7,333.6 L969.2,333.5 L969.9,333.7 L970.3,333.9 L970.7,334.3 L970.9,334.5 L972.1,334.8 L973.0,335.0 L973.3,335.1 L974.0,335.1 L974.4,335.1 L974.7,335.1 L974.9,335.2 L975.1,335.2 L975.4,335.2 L975.7,335.1 L975.8,335.1 L976.0,335.1 L976.3,335.1 L976.6,335.1 L977.5,335.0 L977.9,335.0 L978.2,335.0 L978.3,335.0 L979.1,334.9 L979.7,334.9 L980.7,334.8 L981.4,334.8 L983.1,334.8 L985.8,334.6 L988.1,334.6 L989.5,334.6 L990.9,334.5 L991.1,334.5 L994.4,334.1 L994.7,333.9 L994.8,333.9 L996.1,333.9 L996.2,333.9 L997.2,333.5 L999.4,332.5 L999.8,332.5 L1000.4,331.5 L1001.4,330.8 L1001.6,330.8 L1002.7,329.4 L1003.0,329.4 L1003.4,328.7 L1003.5,328.7 L1004.1,328.3 L1004.4,327.6 L1004.8,327.1 L1005.3,326.7 L1005.8,326.1 L1006.8,324.4 L1007.3,323.8 L1007.7,323.7 L1008.6,323.8 L1008.9,324.0 L1008.9,324.0 L1009.5,324.1 L1009.9,324.2 L1010.3,324.5 L1010.7,324.7 L1010.8,324.7 L1011.0,324.7 L1011.6,324.8 L1012.0,325.2 L1012.5,325.4 L1012.9,325.6 L1013.1,325.3 L1013.2,325.3 L1015.7,322.5 L1016.5,320.3 L1017.2,319.8 L1017.8,319.6 L1018.5,319.0 L1019.2,318.9 L1019.3,318.7 L1019.7,318.7 L1020.5,318.6 L1020.8,318.5 L1021.1,318.5 L1021.3,318.4 L1021.3,318.4 L1021.5,318.4 L1022.2,318.3 L1022.8,318.2 L1023.7,318.2 L1024.5,317.8 L1025.3,317.5 L1026.0,317.2 L1026.7,316.2 L1028.0,315.1 L1028.8,314.3 L1029.2,313.8 L1029.7,312.8 L1030.3,312.8 L1031.6,311.1 L1032.3,310.5 L1033.0,309.5 L1033.8,309.2 L1034.3,308.5 L1034.9,307.8 L1035.1,306.9 L1035.4,306.9 L1036.1,306.7 L1036.6,306.0 L1037.2,305.4 L1037.8,305.0 L1039.1,302.9 L1039.3,302.9 L1039.6,302.7 L1039.9,302.8 L1041.4,302.6 L1041.6,302.6 L1043.1,299.0 L1044.3,297.3 L1045.4,296.7 L1045.9,296.1 L1046.1,296.1 L1047.2,293.8 L1049.6,289.2 L1050.0,287.8 L1050.4,287.8 L1054.0,280.9 L1054.5,278.9 L1055.9,278.1 L1057.2,276.3 L1057.5,275.9 L1058.1,274.2 L1059.5,270.9 L1060.3,267.2 L1061.0,265.3 L1061.5,264.9 L1062.4,263.8 L1063.2,262.2 L1064.0,261.1 L1064.8,260.5 L1065.4,259.8 L1065.6,259.0 L1065.9,258.4 L1068.2,255.6 L1068.8,255.6 L1069.2,255.6 L1070.1,254.6 L1071.0,253.9 L1071.3,253.9 L1072.2,251.5 L1072.4,250.4 L1072.6,250.4 L1072.8,248.8 L1073.6,248.0 L1074.4,245.7 L1074.7,245.7 L1074.9,245.0 L1075.3,242.3 L1075.6,241.1 L1077.0,239.9 L1077.7,237.4 L1077.9,237.4 L1078.6,237.1 L1079.7,235.2 L1080.1,235.2 L1080.3,235.2 L1082.4,226.3 L1083.3,222.8 L1083.8,222.3 L1084.7,221.9 L1084.8,221.9 L1084.9,221.7 L1085.0,221.7 L1085.2,221.3 L1085.2,221.3 L1085.6,220.9 L1085.7,220.9 L1085.9,220.4 L1086.1,220.2 L1086.3,219.6 L1086.3,219.6 L1086.7,218.7 L1086.9,218.0 L1087.2,216.9 L1087.5,216.5 L1088.2,214.7 L1088.5,213.2 L1088.8,211.6 L1089.3,210.4 L1089.5,209.7 L1089.6,208.8 L1089.7,208.8 L1090.6,206.9 L1090.9,204.4 L1091.4,202.2 L1093.5,196.0 L1093.8,194.6 L1094.2,192.7 L1094.6,192.7 L1095.5,191.6 L1096.1,190.8 L1096.8,191.2 L1097.4,189.7 L1098.1,189.2 L1098.5,187.7 L1098.8,187.7 L1099.9,186.0 L1100.1,185.7 L1100.9,185.0 L1101.7,182.3 L1102.0,181.4 L1102.8,179.4 L1104.0,179.0 L1104.2,179.0 L1104.7,176.0 L1105.3,174.3 L1107.3,164.4 L1108.5,161.3 L1108.9,161.3 L1109.5,161.6 L1109.7,161.6 L1110.2,161.3 L1110.5,161.7 L1111.1,162.2 L1112.1,163.2 L1113.1,166.1 L1113.6,167.7 L1114.0,168.8 L1114.8,169.9 L1115.6,170.8 L1115.8,171.3 L1116.0,171.3 L1116.6,172.7 L1116.9,173.3 L1117.9,174.8 L1118.2,174.8 L1119.1,177.6 L1119.3,177.6 L1119.7,179.5 L1120.2,180.3 L1121.4,184.2 L1121.6,184.2 L1122.2,186.0 L1122.4,186.7 L1123.1,188.1 L1123.4,188.5 L1123.5,188.5 L1123.7,188.5 L1123.9,188.5 L1124.4,189.4 L1125.2,190.9 L1125.4,190.9 L1125.9,192.4 L1127.8,200.7 L1128.2,203.1 L1128.7,203.9 L1129.0,203.8 L1129.3,203.7 L1129.6,203.7 L1130.0,203.7 L1130.2,203.7 L1130.6,203.9 L1130.8,203.9 L1131.0,204.0 L1131.5,204.3 L1131.8,204.3 L1133.1,204.0 L1134.0,206.6 L1135.8,208.2 L1136.2,207.4 L1136.3,207.4 L1136.5,207.4 L1136.8,206.7 L1138.5,204.8 L1138.8,204.3 L1139.4,200.8 L1140.2,198.5 L1141.1,196.0 L1141.5,194.4 L1142.1,192.3 L1143.3,188.3 L1143.5,186.8 L1143.7,186.8 L1144.6,184.0 L1145.1,182.7 L1145.7,182.7 L1145.9,182.7 L1146.1,182.1 L1146.2,182.1 L1146.4,179.6 L1147.0,177.9 L1147.3,177.2 L1147.6,176.6 L1149.1,170.2 L1149.5,168.7 L1149.6,168.1 L1149.8,167.1 L1150.3,164.7 L1150.6,164.7 L1150.7,164.4 L1150.9,164.4 L1151.6,163.7 L1151.9,162.8 L1152.3,162.4 L1152.5,160.7 L1153.3,159.3 L1153.6,158.3 L1154.3,157.8 L1154.6,157.4 L1155.0,156.7 L1155.2,155.8 L1155.3,155.3 L1155.9,154.3 L1156.2,153.7 L1156.7,152.3 L1157.8,149.0 L1158.4,147.1 L1159.1,145.4 L1159.5,143.7 L1159.9,143.2 L1160.4,142.6 L1160.9,141.5 L1162.0,139.9 L1162.4,139.2 L1162.7,138.7 L1163.4,138.4 L1163.8,137.9 L1164.2,137.8 L1165.1,137.6 L1165.4,137.6 L1166.6,136.9 L1168.1,134.2 L1168.5,134.2 L1168.7,134.2 L1169.9,133.7 L1170.6,133.7 L1173.7,131.9 L1175.3,131.7 L1175.9,131.7 L1177.3,131.5 L1178.6,131.0 L1178.8,130.8 L1179.0,130.7 L1179.4,130.5 L1180.0,130.3 L1180.6,129.9 L1180.8,129.6 L1181.3,129.5 L1181.3,129.5 L1181.5,129.2 L1181.6,129.0 L1181.9,128.6 L1182.2,128.5 L1183.2,127.8 L1183.5,127.6 L1183.6,127.3 L1184.4,126.0 L1185.0,125.3 L1185.4,125.4 L1186.5,125.6 L1187.0,125.6 L1187.6,125.6 L1188.0,125.7 L1188.3,125.9 L1188.7,125.9 L1188.9,125.9 L1191.8,124.7 L1193.2,124.7 L1194.3,125.3 L1195.2,127.2 L1195.7,128.3 L1196.4,130.9 L1197.4,133.2 L1198.0,134.5 L1198.5,135.9 L1199.0,136.2 L1199.5,137.5 L1199.9,137.5 L1200.6,138.4 L1201.0,138.8 L1201.7,139.8 L1202.1,140.6 L1202.8,141.8 L1204.1,143.9 L1204.7,144.5 L1205.2,144.9 L1205.9,145.1 L1206.2,145.1 L1206.6,145.1 L1208.0,146.3 L1210.6,150.7 L1211.9,152.9 L1212.8,154.2 L1213.2,154.4 L1213.6,155.0 L1213.9,155.0 L1214.9,155.8 L1215.4,156.1 L1215.8,157.7 L1216.1,158.7 L1216.7,160.6 L1217.3,160.6 L1217.6,160.8 L1218.1,162.1 L1218.4,163.0 L1218.6,163.6 L1218.9,164.5 L1219.2,164.5 L1220.5,169.8 L1220.9,170.8 L1222.6,173.1 L1222.9,173.0 L1223.1,173.0 L1223.3,173.2 L1224.0,173.5 L1224.6,175.0 L1224.8,175.0 L1225.1,175.5 L1225.4,175.9 L1226.1,176.9 L1226.8,177.5 L1227.1,178.3 L1227.5,181.0 L1227.9,181.8 L1228.2,183.7 L1228.5,184.6 L1229.6,187.5 L1229.8,188.8 L1230.2,188.8 L1230.7,191.4 L1231.1,193.5 L1231.3,194.8 L1231.9,194.8 L1232.4,196.8 L1233.0,200.0 L1233.7,202.8 L1235.0,209.9 L1235.7,212.5 L1236.0,213.5 L1236.3,213.5 L1236.8,215.0 L1237.1,215.6 L1237.3,216.1 L1237.5,216.1 L1237.8,217.4 L1238.3,217.4 L1239.2,221.0 L1239.5,221.8 L1239.9,222.1 L1240.2,222.6 L1241.2,224.1 L1241.4,224.1 L1241.5,224.1 L1241.6,224.1 L1241.8,224.7 L1242.0,225.1 L1242.2,225.7 L1243.1,226.5 L1243.8,227.1 L1244.4,228.7 L1244.9,231.7 L1246.1,235.7 L1247.2,239.5 L1247.6,240.4 L1248.8,241.0 L1248.9,242.6 L1249.1,242.6 L1249.8,243.3 L1250.7,247.1 L1251.6,248.6 L1252.0,250.0 L1252.8,253.0 L1253.1,253.0 L1253.3,253.7 L1254.0,254.6 L1255.0,257.9 L1255.1,257.9 L1255.9,259.9 L1256.8,262.2 L1257.4,262.2 L1258.1,264.8 L1259.4,266.9 L1260.1,268.1 L1260.7,268.1 L1261.1,268.8 L1261.8,268.8 L1262.6,269.3 L1263.7,269.1 L1264.7,270.3 L1266.5,275.8 L1266.9,275.8 L1267.6,276.9 L1268.0,276.9 L1268.1,277.5 L1268.5,277.5 L1270.8,284.5 L1272.4,288.9 L1272.6,289.5 L1273.1,290.3 L1273.2,290.3 L1274.3,291.7 L1275.0,291.8 L1275.1,291.8 L1275.2,292.3 L1275.3,292.8 L1275.4,292.8 L1276.1,293.2 L1276.4,293.2 L1276.7,293.2 L1277.0,293.3 L1277.2,293.5 L1278.0,293.4 L1279.5,293.1 L1279.7,293.1 L1280.1,293.0 L1280.5,293.1 L1281.1,293.8 L1281.3,294.1 L1281.8,294.1 L1282.0,294.4 L1282.4,294.6 L1282.8,295.0 L1283.4,295.5 L1283.7,295.5 L1283.9,296.3 L1284.5,297.0 L1284.8,297.9 L1285.2,298.5 L1286.1,299.1 L1286.4,299.4 L1287.3,299.6 L1287.4,299.6 L1287.7,299.7 L1287.9,299.8 L1288.2,299.9 L1288.9,299.8 L1289.5,299.7 L1290.1,299.6 L1290.4,299.3 L1290.8,299.1 L1291.1,299.0 L1291.5,299.0 L1292.1,298.5 L1292.3,298.0 L1292.9,297.9 L1293.3,297.7 L1294.7,297.1 L1294.9,296.8 L1295.7,296.3 L1296.0,296.3 L1296.2,296.2 L1296.8,296.2 L1297.8,296.9 L1299.2,296.0 L1300.2,295.7 L1300.6,295.7 L1301.2,295.7 L1301.9,295.7 L1302.2,295.6 L1302.6,295.6 L1303.6,295.6 L1304.7,295.5 L1305.2,295.5 L1305.8,295.5 L1306.2,295.5 L1306.7,295.1 L1309.3,293.1 L1309.6,292.4 L1310.0,292.1 L1310.3,292.1 L1310.7,291.8 L1311.0,291.8 L1311.5,291.9 L1312.1,291.7 L1312.6,291.5 L1313.1,291.2 L1314.1,291.0 L1314.3,290.8 L1314.6,290.8 L1315.1,290.6 L1315.4,290.7 L1316.6,290.1 L1316.9,289.7 L1317.1,289.5 L1317.7,289.3 L1318.8,288.7 L1319.1,288.7 L1319.5,288.2 L1319.9,287.3 L1322.0,286.8 L1322.4,286.6 L1322.9,286.2 L1324.0,285.1 L1325.8,284.2 L1326.6,284.6 L1327.2,284.6 L1328.4,284.5 L1329.0,284.0 L1329.2,284.0 L1329.6,283.6 L1330.8,282.9 L1331.3,282.5 L1331.7,282.5 L1332.1,281.6 L1332.6,281.1 L1333.5,281.5 L1333.8,281.3 L1335.0,281.7 L1335.6,281.6 L1336.0,281.5 L1336.4,281.6 L1336.7,281.7 L1337.8,281.7 L1338.3,282.0 L1338.4,282.1 L1338.5,282.1 L1339.0,282.2 L1340.9,281.7 L1341.0,281.8 L1341.3,281.6 L1341.4,281.6 L1342.9,281.5 L1343.2,281.5 L1343.7,280.3 L1346.4,279.9 L1346.6,279.9" fill="transparent" id="track" stroke="black" stroke-linejoin="miter" stroke-miterlimit="1" stroke-width="2"/>
<g>
<g>
<circle cx="970.8754106072937" cy="334.58804999999995" fill="Blue" id="0/wp" r="5"/>
</g>
<g transform="translate(970.8754106072937 334.58804999999995)">
<rect fill="white" fill-opacity="0.75" height="12" id="label-bg" width="71.22105263157891" x="-35.61052631578946" y="-327.58804999999995"/>
<text font-size="16.0" id="0/wp/text" text-anchor="start" x="-35.611" y="-315.588">
K2 (12:53)
</text>
</g>
<path d="M970.88,23.00 L980.42,304.55 L991.79,305.73 L991.79,325.73 L970.88,332.59" fill="transparent" id="link" stroke="black" stroke-linejoin="miter" stroke-miterlimit="1"/>
<g>
<circle cx="401.3010337257164" cy="101.1687" fill="Blue" id="1/wp" r="5"/>
</g>
<g transform="translate(401.3010337257164 101.1687)">
<rect fill="white" fill-opacity="0.75" height="12" id="label-bg" width="71.22105263157897" x="-35.61052631578946" y="-94.1687"/>
<text font-size="16.0" id="1/wp/text" text-anchor="start" x="-35.611" y="-82.169">
K1 (10:04)
</text>
</g>
<path d="M401.30,23.00 L401.30,99.17" fill="transparent" id="link" stroke="black" stroke-linejoin="miter" stroke-miterlimit="1"/>
<g>
<circle cx="677.1457048759919" cy="131.03175" fill="Black" id="2/wp" r="3"/>
</g>
<g transform="translate(677.1457048759919 131.03175)">
<rect fill="white" fill-opacity="0.75" height="12" id="label-bg" width="36.73684210526316" x="4" y="-16"/>
<text font-size="16.0" id="2/wp/text" text-anchor="start" x="4.000" y="-4.000">
11:26
</text>
</g>
<g>
<circle cx="947.0524113510738" cy="325.7331" fill="Black" id="3/wp" r="3"/>
</g>
<g transform="translate(947.0524113510738 325.7331)">
<rect fill="white" fill-opacity="0.75" height="12" id="label-bg" width="36.73684210526316" x="4" y="-16"/>
<text font-size="16.0" id="3/wp/text" text-anchor="start" x="4.000" y="-4.000">
12:46
</text>
</g>
<g>
<circle cx="406.10031027457694" cy="104.21595000000002" fill="Black" id="4/wp" r="3"/>
</g>
<g transform="translate(406.10031027457694 104.21595000000002)">
<rect fill="white" fill-opacity="0.75" height="12" id="label-bg" width="36.73684210526316" x="-40.73684210526316" y="4"/>
<text font-size="16.0" id="4/wp/text" text-anchor="end" x="-4.000" y="16.000">
10:05
</text>
</g>
<g>
<circle cx="270.91713765281213" cy="95.46855" fill="Black" id="5/wp" r="3"/>
</g>
<g transform="translate(270.91713765281213 95.46855)">
<rect fill="white" fill-opacity="0.75" height="12" id="label-bg" width="36.73684210526316" x="-40.73684210526316" y="-16"/>
<text font-size="16.0" id="5/wp/text" text-anchor="end" x="-4.000" y="-4.000">
09:25
</text>
</g>
<g>
<circle cx="401.6510291836275" cy="100.77434999999997" fill="Black" id="6/wp" r="5"/>
<circle cx="401.6510291836275" cy="100.77434999999997" fill="white" id="6/wp-little-white" r="3.5"/>
<circle cx="401.6510291836275" cy="100.77434999999997" fill="black" id="6/wp-little-white" r="2.5"/>
</g>
<g transform="translate(401.6510291836275 100.77434999999997)">
<rect fill="white" fill-opacity="0.75" height="12" id="label-bg" width="80.03157894736842" x="-40.01578947368421" y="24"/>
<text font-size="16.0" id="6/wp/text" text-anchor="start" x="-40.016" y="36.000">
Furtwangen
</text>
</g>
<path d="M401.65,120.77 L401.65,102.77" fill="transparent" id="link" stroke="black" stroke-linejoin="miter" stroke-miterlimit="1"/>
<g>
<circle cx="0.37684891027633816" cy="163.44015" fill="Black" id="8/wp" r="5"/>
<circle cx="0.37684891027633816" cy="163.44015" fill="white" id="8/wp-little-white" r="3.5"/>
<circle cx="0.37684891027633816" cy="163.44015" fill="black" id="8/wp-little-white" r="2.5"/>
</g>
<g transform="translate(0.37684891027633816 163.44015)">
<rect fill="white" fill-opacity="0.75" height="12" id="label-bg" width="82.30526315789474" x="4" y="4"/>
<text font-size="16.0" id="8/wp/text" text-anchor="start" x="4.000" y="16.000">
Bräunlingen
</text>
</g>
<g>
<circle cx="541.0030247899196" cy="48.935249999999996" fill="Black" id="9/wp" r="3"/>
</g>
<g transform="translate(541.0030247899196 48.935249999999996)">
<rect fill="white" fill-opacity="0.75" height="12" id="label-bg" width="36.73684210526316" x="4" y="-16"/>
<text font-size="16.0" id="9/wp/text" text-anchor="start" x="4.000" y="-4.000">
10:45
</text>
</g>
<g>
<circle cx="812.282120681336" cy="236.1798" fill="Black" id="10/wp" r="3"/>
</g>
<g transform="translate(812.282120681336 236.1798)">
<rect fill="white" fill-opacity="0.75" height="12" id="label-bg" width="36.73684210526316" x="4" y="4"/>
<text font-size="16.0" id="10/wp/text" text-anchor="start" x="4.000" y="16.000">
12:06
</text>
</g>
<g>
<circle cx="1082.3858318077266" cy="227.46824999999998" fill="Black" id="11/wp" r="3"/>
</g>
<g transform="translate(1082.3858318077266 227.46824999999998)">
<rect fill="white" fill-opacity="0.75" height="12" id="label-bg" width="36.73684210526316" x="-40.73684210526316" y="-16"/>
<text font-size="16.0" id="11/wp/text" text-anchor="end" x="-4.000" y="-4.000">
13:26
</text>
</g>
<g>
<circle cx="1217.301860111516" cy="158.34945" fill="Black" id="12/wp" r="3"/>
</g>
<g transform="translate(1217.301860111516 158.34945)">
<rect fill="white" fill-opacity="0.75" height="12" id="label-bg" width="36.73684210526316" x="4" y="-16"/>
<text font-size="16.0" id="12/wp/text" text-anchor="start" x="4.000" y="-4.000">
14:06
</text>
</g>
<g>
<circle cx="135.1609189874701" cy="150.67755" fill="Black" id="13/wp" r="3"/>
</g>
<g transform="translate(135.1609189874701 150.67755)">
<rect fill="white" fill-opacity="0.75" height="12" id="label-bg" width="36.73684210526316" x="4" y="4"/>
<text font-size="16.0" id="13/wp/text" text-anchor="start" x="4.000" y="16.000">
08:45
</text>
</g>
<g>
<circle cx="925.5480470425127" cy="320.03294999999997" fill="Black" id="15/wp" r="4"/>
<circle cx="925.5480470425127" cy="320.03294999999997" fill="white" id="15/wp-little-white" r="2.5"/>
</g>
<g transform="translate(925.5480470425127 320.03294999999997)">
<rect fill="white" fill-opacity="0.75" height="12" id="label-bg" width="83.34736842105264" x="-87.34736842105264" y="4"/>
<text font-size="16.0" id="15/wp/text" text-anchor="end" x="-4.000" y="16.000">
Mühlenbach
</text>
</g>
<g>
<circle cx="806.5966727107424" cy="245.93099999999998" fill="Black" id="17/wp" r="4"/>
<circle cx="806.5966727107424" cy="245.93099999999998" fill="white" id="17/wp-little-white" r="2.5"/>
</g>
<g transform="translate(806.5966727107424 245.93099999999998)">
<rect fill="white" fill-opacity="0.75" height="12" id="label-bg" width="90.45263157894736" x="-94.45263157894736" y="4"/>
<text font-size="16.0" id="17/wp/text" text-anchor="end" x="-4.000" y="16.000">
Oberprechtal
</text>
</g>
<g>
<circle cx="1287.409535389822" cy="300.24375" fill="Black" id="18/wp" r="4"/>
<circle cx="1287.409535389822" cy="300.24375" fill="white" id="18/wp-little-white" r="2.5"/>
</g>
<g transform="translate(1287.409535389822 300.24375)">
<rect fill="white" fill-opacity="0.75" height="12" id="label-bg" width="38.347368421052636" x="-42.347368421052636" y="4"/>
<text font-size="16.0" id="18/wp/text" text-anchor="end" x="-4.000" y="16.000">
Walke
</text>
</g>
<g>
<circle cx="38.95498039350837" cy="160.4646" fill="Black" id="19/wp" r="4"/>
<circle cx="38.95498039350837" cy="160.4646" fill="white" id="19/wp-little-white" r="2.5"/>
</g>
<g transform="translate(38.95498039350837 160.4646)">
<rect fill="white" fill-opacity="0.75" height="12" id="label-bg" width="57.294736842105266" x="-28.647368421052633" y="24"/>
<text font-size="16.0" id="19/wp/text" text-anchor="start" x="-28.647" y="36.000">
Bruggen
</text>
</g>
<path d="M38.95,180.46 L38.95,162.46" fill="transparent" id="link" stroke="black" stroke-linejoin="miter" stroke-miterlimit="1"/>
<g>
<circle cx="637.5141551779208" cy="71.62829999999997" fill="Gray" id="21/wp" r="2"/>
<circle cx="637.5141551779208" cy="71.62829999999997" fill="white" id="21/wp-little-white" r="0.5"/>
</g>
<g transform="translate(637.5141551779208 71.62829999999997)">
<rect fill="white" fill-opacity="0.75" height="12" id="label-bg" width="71.03157894736843" x="4" y="-16"/>
<text font-size="16.0" id="21/wp/text" text-anchor="start" x="4.000" y="-4.000">
Rotenberg
</text>
</g>
<g>
<circle cx="545.229312239769" cy="46.60500000000002" fill="Gray" id="22/wp" r="2"/>
<circle cx="545.229312239769" cy="46.60500000000002" fill="white" id="22/wp-little-white" r="0.5"/>
</g>
<g transform="translate(545.229312239769 46.60500000000002)">
<rect fill="white" fill-opacity="0.75" height="12" id="label-bg" width="38.347368421052636" x="-19.173684210526318" y="24"/>
<text font-size="16.0" id="22/wp/text" text-anchor="start" x="-19.174" y="36.000">
Vogte
</text>
</g>
<path d="M545.23,66.61 L545.23,48.61" fill="transparent" id="link" stroke="black" stroke-linejoin="miter" stroke-miterlimit="1"/>
<g>
<circle cx="756.0913881200005" cy="218.5416" fill="Gray" id="23/wp" r="2"/>
<circle cx="756.0913881200005" cy="218.5416" fill="white" id="23/wp-little-white" r="0.5"/>
</g>
<g transform="translate(756.0913881200005 218.5416)">
<rect fill="white" fill-opacity="0.75" height="12" id="label-bg" width="62.505263157894746" x="4" y="-16"/>
<text font-size="16.0" id="23/wp/text" text-anchor="start" x="4.000" y="-4.000">
Im Grund
</text>
</g>
<g>
<circle cx="897.5188285197634" cy="297.23235" fill="Gray" id="24/wp" r="2"/>
<circle cx="897.5188285197634" cy="297.23235" fill="white" id="24/wp-little-white" r="0.5"/>
</g>
<g transform="translate(897.5188285197634 297.23235)">
<rect fill="white" fill-opacity="0.75" height="12" id="label-bg" width="66.67368421052632" x="4" y="-16"/>
<text font-size="16.0" id="24/wp/text" text-anchor="start" x="4.000" y="-4.000">
Eichhalde
</text>
</g>
<g>
<circle cx="879.8430301049408" cy="282.10365" fill="Gray" id="25/wp" r="2"/>
<circle cx="879.8430301049408" cy="282.10365" fill="white" id="25/wp-little-white" r="0.5"/>
</g>
<g transform="translate(879.8430301049408 282.10365)">
<rect fill="white" fill-opacity="0.75" height="12" id="label-bg" width="91.21052631578948" x="-95.21052631578948" y="4"/>
<text font-size="16.0" id="25/wp/text" text-anchor="end" x="-4.000" y="16.000">
Oberbüchern
</text>
</g>
<g>
<circle cx="1039.937860215231" cy="304.54575" fill="Gray" id="28/wp" r="2"/>
<circle cx="1039.937860215231" cy="304.54575" fill="white" id="28/wp-little-white" r="0.5"/>
</g>
<g transform="translate(1039.937860215231 304.54575)">
<rect fill="white" fill-opacity="0.75" height="12" id="label-bg" width="51.515789473684215" x="-55.515789473684215" y="-16"/>
<text font-size="16.0" id="28/wp/text" text-anchor="end" x="-4.000" y="-4.000">
Mitteltal
</text>
</g>
<g>
<circle cx="286.27376854073856" cy="92.34960000000001" fill="Gray" id="29/wp" r="2"/>
<circle cx="286.27376854073856" cy="92.34960000000001" fill="white" id="29/wp-little-white" r="0.5"/>
</g>
<g transform="translate(286.27376854073856 92.34960000000001)">
<rect fill="white" fill-opacity="0.75" height="12" id="label-bg" width="43.55789473684211" x="4" y="4"/>
<text font-size="16.0" id="29/wp/text" text-anchor="start" x="4.000" y="16.000">
Linach
</text>
</g>
<g>
<circle cx="474.6669893312704" cy="83.42295000000001" fill="Gray" id="30/wp" r="2"/>
<circle cx="474.6669893312704" cy="83.42295000000001" fill="white" id="30/wp-little-white" r="0.5"/>
</g>
<g transform="translate(474.6669893312704 83.42295000000001)">
<rect fill="white" fill-opacity="0.75" height="12" id="label-bg" width="54.83157894736843" x="-58.83157894736843" y="-16"/>
<text font-size="16.0" id="30/wp/text" text-anchor="end" x="-4.000" y="-4.000">
Schweiz
</text>
</g>
<g>
<circle cx="199.458628974835" cy="138.81119999999999" fill="Gray" id="33/wp" r="2"/>
<circle cx="199.458628974835" cy="138.81119999999999" fill="white" id="33/wp-little-white" r="0.5"/>
</g>
<g transform="translate(199.458628974835 138.81119999999999)">
<rect fill="white" fill-opacity="0.75" height="12" id="label-bg" width="83.34736842105264" x="4" y="4"/>
<text font-size="16.0" id="33/wp/text" text-anchor="start" x="4.000" y="16.000">
Bregenbach
</text>
</g>
<g>
<circle cx="122.47098523561698" cy="149.45864999999998" fill="Gray" id="34/wp" r="2"/>
<circle cx="122.47098523561698" cy="149.45864999999998" fill="white" id="34/wp-little-white" r="0.5"/>
</g>
<g transform="translate(122.47098523561698 149.45864999999998)">
<rect fill="white" fill-opacity="0.75" height="12" id="label-bg" width="73.30526315789474" x="-77.30526315789474" y="-16"/>
<text font-size="16.0" id="34/wp/text" text-anchor="end" x="-4.000" y="-4.000">
Zindelstein
</text>
</g>
</g>
</g>
<g id="SL" transform="translate(0 0)">
<text text-anchor="end" x="66" y="363.5">
150
</text>
<text text-anchor="end" x="66" y="327.65">
250
</text>
<text text-anchor="end" x="66" y="291.79999999999995">
350
</text>
<text text-anchor="end" x="66" y="255.95">
450
</text>
<text text-anchor="end" x="66" y="220.1">
550
</text>
<text text-anchor="end" x="66" y="184.25">
650
</text>
<text text-anchor="end" x="66" y="148.39999999999998">
750
</text>
<text text-anchor="end" x="66" y="112.55000000000001">
850
</text>
<text text-anchor="end" x="66" y="76.69999999999999">
950
</text>
<text text-anchor="end" x="66" y="40.849999999999966">
1050
</text>
<text text-anchor="end" x="66" y="5">
1150
</text>
</g>
</g>
</svg>