<svg height="400" width="1420" xmlns="http://www.w3.org/2000/svg">
<g font-size="18" id="world" shape-rendering="crispEdges">
<g id="BG"/>
<g id="SB" transform="translate(71 360)">
<text text-anchor="middle" x="-0.1471778289701433" y="17">
180
</text>
<text text-anchor="middle" x="269.35282217102986" y="17">
200
</text>
<text text-anchor="middle" x="538.8528221710299" y="17">
220
</text>
<text text-anchor="middle" x="808.3528221710299" y="17">
240
</text>
<text text-anchor="middle" x="1077.8528221710299" y="17">
260
</text>
<text text-anchor="middle" x="1347.3528221710303" y="17">
280
</text>
</g>
<g id="SD" transform="translate(71 0)">
<path d="M0,0 L1347.5,0" stroke="black" stroke-width="3"/>
<path d="M0,0 L0,358.5" stroke="black" stroke-width="3"/>
<path d="M0,358.5 L1347.5,358.5" stroke="black" stroke-width="3"/>
<path d="M1347.5,0 L1347.5,358.5" stroke="black" stroke-width="3"/>
<path d="M0,358.5 L1347.5,358.5" stroke="black" stroke-width="1"/>
<path d="M-0.14717783,0 L-0.14717783,358.5" stroke="black" stroke-width="1"/>
<path d="M269.3528,0 L269.3528,358.5" stroke="black" stroke-width="1"/>
<path d="M538.85284,0 L538.85284,358.5" stroke="black" stroke-width="1"/>
<path d="M808.35284,0 L808.35284,358.5" stroke="black" stroke-width="1"/>
<path d="M1077.8528,0 L1077.8528,358.5" stroke="black" stroke-width="1"/>
<path d="M1347.3528,0 L1347.3528,358.5" stroke="black" stroke-width="1"/>
<path d="M134.60283,0 L134.60283,358.5" stroke="black" stroke-dasharray="1.0,2.5,5.0,5.0,10.0,5.0"/>
<path d="M404.1028,0 L404.1028,358.5" stroke="black" stroke-dasharray="1.0,2.5,5.0,5.0,10.0,5.0"/>
<path d="M673.60284,0 L673.60284,358.5" stroke="black" stroke-dasharray="1.0,2.5,5.0,5.0,10.0,5.0"/>
<path d="M943.10284,0 L943.10284,358.5" stroke="black" stroke-dasharray="1.0,2.5,5.0,5.0,10.0,5.0"/>
<path d="M1212.6028,0 L1212.6028,358.5" stroke="black" stroke-dasharray="1.0,2.5,5.0,5.0,10.0,5.0"/>
<path d="M0,358.5 L1347.5,358.5" stroke="black" stroke-width="1"/>
<path d="M0,307.2857 L1347.5,307.2857" stroke="black" stroke-width="1"/>
<path d="M0,256.07144 L1347.5,256.07144" stroke="black" stroke-width="1"/>
<path d="M0,204.85715 L1347.5,204.85715" stroke="black" stroke-width="1"/>
<path d="M0,153.64285 L1347.5,153.64285" stroke="black" stroke-width="1"/>
<path d="M0,102.42857 L1347.5,102.42857" stroke="black" stroke-width="1"/>
<path d="M0,51.214287 L1347.5,51.214287" stroke="black" stroke-width="1"/>
<path d="M0,0 L1347.5,0" stroke="black" stroke-width="1"/>
<path d="M0,332.89285 L1347.5,332.89285" stroke="black" stroke-dasharray="1.0,2.5,5.0,5.0,10.0,5.0"/>
<path d="M0,281.67856 L1347.5,281.67856" stroke="black" stroke-dasharray="1.0,2.5,5.0,5.0,10.0,5.0"/>
<path d="M0,230.46428 L1347.5,230.46428" stroke="black" stroke-dasharray="1.0,2.5,5.0,5.0,10.0,5.0"/>
<path d="M0,179.25 L1347.5,179.25" stroke="black" stroke-dasharray="1.0,2.5,5.0,5.0,10.0,5.0"/>
<path d="M0,128.03572 L1347.5,128.03572" stroke="black" stroke-dasharray="1.0,2.5,5.0,5.0,10.0,5.0"/>
<path d="M0,76.82143 L1347.5,76.82143" stroke="black" stroke-dasharray="1.0,2.5,5.0,5.0,10.0,5.0"/>
<path d="M0,25.607143 L1347.5,25.607143" stroke="black" stroke-dasharray="1.0,2.5,5.0,5.0,10.0,5.0"/>
<path d="M0,-25.607143 L1347.5,-25.607143" stroke="black" stroke-dasharray="1.0,2.5,5.0,5.0,10.0,5.0"/>
<path d="M0.0,111.9 L0.1,111.5 L0.2,111.4 L0.6,110.7 L1.0,109.7 L1.8,107.2 L2.0,106.8 L2.3,106.1 L2.4,105.9 L2.6,105.3 L2.8,104.6 L3.1,103.1 L3.6,102.2 L3.8,101.7 L3.9,101.7 L4.0,101.6 L4.5,101.4 L4.7,101.3 L4.8,101.3 L5.0,101.0 L5.9,98.3 L6.4,97.4 L6.6,96.6 L6.8,96.4 L7.0,96.4 L7.7,91.3 L8.3,89.3 L9.0,87.5 L9.2,86.4 L10.2,81.9 L10.3,81.5 L10.5,80.4 L10.7,80.4 L11.3,80.0 L11.5,79.7 L11.7,79.7 L11.9,79.0 L12.5,78.4 L12.7,78.4 L12.9,78.5 L13.1,78.3 L13.5,78.3 L13.8,77.8 L14.0,76.8 L14.2,76.3 L14.5,74.3 L14.7,73.8 L15.8,72.4 L16.4,71.0 L16.6,70.5 L16.8,70.1 L16.9,69.5 L17.1,69.2 L17.2,69.2 L17.6,68.2 L17.8,68.2 L17.9,68.2 L18.1,68.2 L18.2,68.2 L18.3,68.2 L18.5,68.0 L18.6,68.0 L19.0,68.0 L19.6,67.4 L19.8,67.3 L20.0,67.0 L20.2,66.7 L22.1,61.0 L22.7,59.6 L23.0,59.2 L23.6,57.5 L23.9,57.0 L24.1,56.6 L24.4,56.3 L24.7,56.3 L25.0,56.1 L25.2,56.1 L25.4,56.1 L25.5,55.7 L25.8,54.7 L26.0,54.7 L26.2,54.7 L26.3,54.7 L26.4,54.2 L26.6,52.9 L27.0,51.0 L28.3,47.2 L29.2,44.9 L29.3,44.5 L29.6,44.5 L30.4,43.8 L30.5,43.8 L30.7,43.4 L30.8,43.1 L31.1,42.8 L31.5,42.5 L33.3,41.0 L33.5,40.4 L33.9,38.7 L34.3,38.0 L34.6,38.0 L35.5,36.5 L35.9,35.2 L36.2,33.8 L36.7,32.3 L37.6,31.0 L37.9,31.0 L38.3,30.4 L38.5,30.3 L38.7,29.7 L38.9,29.0 L39.3,29.4 L39.8,29.2 L40.2,29.8 L41.1,31.3 L41.8,34.3 L42.4,35.6 L42.7,36.9 L43.0,37.6 L43.7,38.9 L43.9,39.6 L44.0,40.2 L44.2,40.8 L44.3,40.8 L44.7,42.3 L45.1,43.2 L46.1,45.8 L46.3,45.8 L46.7,47.1 L46.8,47.7 L47.0,49.3 L47.4,49.6 L47.6,49.9 L48.0,50.6 L48.1,50.6 L48.2,50.8 L48.4,51.0 L48.5,51.0 L49.0,51.7 L49.6,52.6 L49.7,52.6 L49.9,52.8 L50.0,53.2 L50.4,53.9 L50.6,53.9 L50.8,54.7 L51.1,55.4 L51.5,56.5 L51.8,57.4 L52.2,57.4 L52.6,58.5 L53.0,60.1 L53.5,61.1 L53.7,63.0 L53.9,64.9 L54.3,67.6 L55.4,71.7 L56.2,74.5 L56.4,75.6 L56.6,76.7 L56.8,77.1 L57.0,78.3 L57.5,78.9 L58.4,80.0 L58.6,80.7 L59.3,82.2 L59.7,84.4 L60.1,85.8 L60.6,86.5 L61.2,89.5 L61.5,91.6 L62.1,94.5 L62.2,94.5 L62.6,96.2 L63.5,98.5 L63.7,98.6 L64.1,99.7 L64.5,101.3 L64.8,101.3 L65.0,102.2 L65.3,103.0 L65.5,103.0 L65.7,103.0 L65.9,103.0 L66.1,103.7 L66.2,104.0 L66.6,104.1 L66.9,105.3 L67.1,106.3 L67.7,106.6 L68.7,113.1 L69.4,118.7 L69.6,120.6 L70.5,124.5 L70.8,125.2 L71.1,125.2 L71.7,127.2 L71.9,128.3 L72.3,130.1 L72.6,131.7 L72.9,131.7 L73.4,133.5 L74.2,135.2 L74.5,136.8 L75.0,138.3 L75.2,139.2 L75.9,142.0 L76.1,142.0 L77.1,143.5 L77.3,144.5 L78.1,147.3 L78.3,147.8 L78.5,148.2 L79.0,150.2 L79.8,151.1 L80.4,152.1 L80.5,152.1 L80.7,152.1 L80.9,152.7 L81.0,153.6 L81.6,154.8 L82.2,155.6 L82.6,157.3 L83.8,162.8 L85.2,165.8 L85.6,167.1 L85.9,168.2 L86.9,171.4 L88.5,174.4 L89.2,176.0 L89.6,176.0 L90.0,179.2 L90.8,180.5 L91.9,184.0 L92.5,186.2 L92.6,186.4 L93.4,188.1 L93.8,188.8 L94.0,188.8 L94.3,190.0 L95.2,193.2 L95.9,193.9 L96.7,199.4 L97.4,200.9 L99.0,210.1 L99.3,211.7 L100.3,219.2 L101.1,220.4 L101.7,222.3 L102.0,223.3 L102.1,223.3 L102.2,223.7 L102.4,223.7 L102.5,223.7 L103.0,224.4 L103.2,224.4 L103.4,224.6 L103.9,225.0 L104.3,225.0 L104.8,225.9 L105.5,226.6 L106.0,227.4 L106.4,227.6 L107.2,229.4 L107.4,229.4 L107.7,229.5 L108.7,231.5 L109.2,232.5 L109.4,232.5 L109.7,233.3 L109.9,233.3 L110.4,236.2 L110.9,236.8 L111.3,236.8 L112.1,239.6 L112.7,242.2 L113.6,242.7 L114.2,243.1 L114.3,243.1 L114.9,241.8 L115.2,241.8 L115.4,241.8 L115.7,241.7 L116.1,241.7 L116.3,241.6 L117.0,240.3 L117.3,240.3 L117.6,240.3 L119.6,234.5 L121.3,230.8 L122.0,230.4 L122.8,229.9 L123.8,228.1 L124.5,226.5 L125.5,223.1 L126.3,220.8 L127.1,219.7 L127.5,218.9 L128.0,217.0 L128.3,216.5 L128.4,216.5 L128.6,216.5 L128.7,216.0 L128.9,216.0 L129.3,214.5 L129.6,212.9 L130.3,211.7 L130.5,211.7 L130.7,211.4 L131.3,209.1 L131.9,207.5 L132.0,207.5 L132.1,206.8 L132.2,206.6 L132.3,206.6 L132.9,205.8 L133.2,205.1 L133.8,204.5 L134.1,203.8 L134.9,201.5 L135.4,200.2 L135.7,198.9 L136.2,196.9 L136.5,196.1 L137.1,195.2 L137.5,195.2 L137.9,194.0 L138.2,193.2 L138.4,192.2 L138.6,192.2 L139.2,191.0 L139.8,189.7 L140.4,188.6 L141.3,188.0 L141.9,188.1 L142.3,188.7 L142.5,188.6 L143.4,188.8 L144.3,188.8 L144.7,188.8 L144.9,188.6 L145.4,188.6 L146.0,188.6 L146.2,188.8 L146.4,188.8 L146.8,188.8 L147.3,188.7 L147.6,188.5 L147.8,188.3 L148.0,189.0 L148.3,189.6 L148.4,189.6 L148.6,190.3 L148.8,190.4 L150.5,195.3 L150.9,196.9 L151.3,198.8 L151.6,201.7 L152.4,202.4 L152.9,202.4 L153.5,203.4 L154.0,205.0 L154.6,206.5 L154.9,206.5 L155.7,208.8 L156.4,210.6 L157.1,213.5 L158.1,216.0 L158.9,217.1 L159.2,218.0 L159.5,218.0 L159.8,218.0 L160.2,220.5 L162.5,227.9 L162.8,231.1 L163.9,234.0 L165.0,233.2 L165.2,234.8 L165.5,234.8 L165.7,235.4 L166.0,235.9 L166.6,236.8 L166.7,237.2 L166.9,237.5 L167.0,237.5 L167.2,237.5 L167.4,237.5 L167.7,237.6 L167.8,237.5 L168.7,238.1 L169.1,238.9 L169.2,239.3 L169.6,240.8 L170.3,243.2 L170.5,243.3 L170.6,243.9 L170.8,243.9 L170.9,244.2 L171.2,244.2 L171.3,244.2 L171.5,244.6 L171.6,244.6 L171.8,245.0 L172.2,245.4 L172.7,246.6 L173.3,248.3 L173.5,249.8 L174.1,252.4 L174.3,253.7 L174.5,253.7 L174.6,254.1 L175.0,254.3 L175.3,254.3 L175.6,254.6 L176.1,254.8 L176.4,256.4 L176.5,256.4 L176.7,257.4 L176.9,258.1 L178.9,265.6 L179.4,269.6 L179.8,272.8 L180.7,273.6 L182.0,275.2 L183.1,277.4 L184.0,281.4 L186.0,288.9 L186.2,289.1 L187.0,290.0 L187.5,290.1 L187.8,290.3 L187.9,290.5 L188.1,290.5 L188.3,290.7 L188.3,290.7 L188.4,290.7 L188.7,291.0 L188.9,291.5 L189.2,291.9 L189.4,291.9 L189.9,292.5 L190.4,293.2 L190.6,293.8 L191.0,294.0 L191.2,294.4 L191.3,294.7 L191.5,295.0 L191.6,295.3 L192.2,296.0 L192.4,296.2 L192.6,296.6 L192.7,296.6 L193.0,296.8 L193.1,296.9 L193.3,296.9 L194.0,298.0 L194.1,298.2 L194.4,298.7 L194.9,299.0 L195.2,299.3 L195.4,299.6 L196.1,299.9 L196.4,300.0 L196.6,300.0 L197.0,300.0 L197.7,300.1 L197.8,300.1 L198.2,300.1 L199.0,300.1 L199.7,300.1 L200.1,300.1 L200.2,300.1 L200.9,300.0 L201.3,300.0 L201.5,300.0 L201.8,299.9 L202.5,299.6 L202.7,299.6 L203.0,299.4 L203.5,299.2 L203.8,299.1 L203.9,299.1 L204.6,298.6 L204.8,298.6 L204.9,298.6 L205.7,298.2 L205.9,298.1 L206.9,298.0 L207.1,298.0 L207.6,297.9 L207.9,297.8 L208.4,297.7 L208.8,297.3 L209.2,297.1 L209.3,296.9 L209.5,296.7 L210.3,296.0 L211.1,295.5 L211.3,295.3 L211.4,295.3 L211.7,295.0 L212.0,294.7 L212.1,294.3 L212.5,293.8 L212.8,293.7 L213.6,293.2 L214.7,291.6 L214.9,291.2 L215.3,290.8 L216.0,290.8 L216.5,290.4 L216.7,290.4 L216.9,290.4 L217.1,290.4 L217.5,289.6 L218.0,289.0 L218.8,287.5 L220.1,285.9 L220.4,285.5 L220.9,284.9 L221.1,284.9 L221.3,284.9 L221.8,284.2 L223.5,283.0 L224.0,281.3 L224.5,280.6 L225.3,280.0 L226.5,279.0 L227.1,278.4 L227.6,278.0 L227.9,277.5 L228.3,276.8 L228.8,276.5 L229.3,276.0 L230.6,274.7 L230.8,274.2 L231.4,273.4 L231.8,273.0 L232.6,272.1 L233.1,271.5 L233.3,271.3 L233.5,270.8 L233.8,270.8 L234.7,269.4 L235.2,267.8 L235.5,267.4 L235.7,267.4 L236.2,265.3 L237.1,262.9 L237.5,261.0 L237.9,260.0 L238.7,255.5 L239.2,252.8 L240.0,250.2 L240.3,247.3 L241.2,239.9 L241.7,238.6 L242.3,235.0 L242.8,232.0 L243.2,229.9 L243.4,229.1 L243.6,229.1 L243.7,228.5 L244.6,225.0 L244.8,225.0 L245.1,223.4 L245.2,222.8 L245.7,222.1 L245.9,221.5 L246.3,219.2 L246.7,218.7 L246.9,218.7 L247.7,216.0 L247.9,215.4 L248.6,212.9 L249.0,211.8 L249.6,209.8 L249.9,209.1 L250.2,209.1 L251.1,207.3 L251.4,206.1 L251.7,206.1 L252.5,204.4 L253.7,202.0 L253.8,201.4 L254.5,198.7 L255.5,197.9 L256.5,197.1 L256.9,197.1 L257.0,197.1 L257.3,196.7 L262.5,201.8 L263.1,203.0 L263.6,203.0 L264.7,202.8 L265.1,202.8 L265.5,203.0 L265.7,203.1 L266.0,203.4 L266.3,203.8 L266.9,204.3 L267.3,204.7 L268.2,204.7 L268.5,204.9 L268.8,204.5 L269.2,204.7 L269.8,202.7 L270.4,202.7 L270.8,200.3 L271.3,199.3 L272.0,195.7 L272.4,195.7 L273.2,192.4 L273.4,192.4 L274.7,190.5 L275.7,190.4 L276.2,191.2 L276.4,191.2 L276.6,191.2 L276.8,191.2 L278.1,191.8 L278.4,191.8 L278.7,191.7 L279.2,192.2 L280.2,190.2 L280.4,190.2 L280.6,190.2 L280.8,189.4 L280.9,189.4 L281.1,189.2 L282.1,186.8 L282.4,186.2 L282.6,186.2 L282.9,185.5 L283.4,183.4 L284.2,179.5 L284.3,179.5 L284.4,179.5 L285.0,177.8 L285.5,176.1 L285.8,174.9 L286.2,173.9 L286.5,173.9 L286.8,172.9 L287.1,170.2 L287.7,170.0 L287.9,169.4 L288.5,168.9 L288.8,168.4 L289.4,167.7 L289.5,167.7 L289.6,167.4 L289.7,167.4 L289.8,167.5 L290.1,167.2 L290.4,167.2 L290.9,167.3 L291.3,167.7 L291.4,167.7 L292.0,168.1 L292.4,169.0 L292.9,169.7 L293.2,169.9 L293.4,169.9 L293.7,170.2 L293.9,170.7 L294.2,171.3 L294.6,172.0 L294.7,173.0 L294.8,173.0 L295.4,174.1 L296.4,176.9 L297.2,180.5 L297.4,182.5 L297.8,184.9 L298.4,188.8 L299.3,192.3 L299.4,192.3 L300.1,194.6 L300.8,198.3 L301.1,198.3 L301.3,200.6 L301.6,202.4 L302.5,205.3 L303.3,207.4 L303.8,209.1 L304.1,209.9 L304.2,209.9 L304.5,210.5 L305.2,211.2 L306.0,210.9 L307.2,211.8 L307.7,212.4 L307.9,212.9 L308.3,213.4 L308.9,214.9 L309.0,214.9 L309.4,215.2 L309.9,215.5 L310.0,215.6 L310.3,215.8 L310.6,216.2 L310.9,216.7 L311.1,217.2 L311.1,217.2 L311.3,217.4 L311.6,217.4 L311.9,218.3 L312.2,218.9 L312.9,219.4 L313.1,219.7 L313.5,220.9 L313.9,222.1 L314.4,223.2 L314.6,223.5 L315.9,226.8 L316.1,226.8 L316.5,228.5 L317.0,231.0 L317.9,234.2 L318.2,234.8 L318.9,236.1 L319.3,237.5 L319.5,237.5 L320.2,241.0 L320.4,241.6 L320.7,242.3 L321.8,243.6 L322.4,244.8 L322.5,244.8 L322.8,244.8 L322.8,244.8 L323.1,245.4 L325.8,251.8 L327.1,254.1 L327.7,254.9 L328.6,255.7 L329.7,255.7 L330.2,257.4 L331.3,258.5 L332.4,258.3 L334.2,258.7 L334.5,258.7 L335.1,257.9 L336.0,259.6 L338.6,266.4 L340.0,269.1 L341.0,270.0 L341.5,271.0 L343.6,273.5 L344.2,275.6 L344.8,277.1 L347.4,284.4 L349.1,287.2 L349.4,287.2 L349.8,287.2 L350.2,288.2 L351.0,289.1 L351.6,289.1 L353.0,291.8 L354.9,296.2 L356.3,299.5 L357.6,301.6 L358.9,302.5 L360.0,303.1 L360.1,303.1 L360.2,303.1 L360.5,303.8 L360.7,303.8 L360.8,303.8 L360.9,303.8 L361.3,303.8 L361.5,303.8 L361.8,304.2 L362.2,304.6 L362.4,304.9 L363.0,305.9 L363.1,305.9 L364.3,308.3 L364.6,308.8 L365.0,309.6 L365.5,310.3 L366.1,311.7 L366.8,312.2 L367.4,312.8 L367.9,313.1 L368.5,313.4 L368.6,313.4 L368.8,313.4 L369.0,313.8 L369.1,313.9 L369.1,313.9 L370.0,314.1 L370.3,314.6 L370.6,314.6 L370.8,315.1 L371.6,315.7 L371.7,315.8 L372.7,316.4 L373.0,316.4 L373.4,317.0 L373.5,317.0 L373.7,317.2 L374.2,317.2 L374.5,317.5 L375.0,317.5 L375.8,317.7 L376.9,318.0 L378.2,318.6 L378.8,318.6 L380.9,319.3 L381.6,319.7 L382.0,319.7 L383.2,320.3 L384.0,320.5 L384.7,320.8 L384.8,320.8 L385.3,320.8 L385.9,320.9 L386.2,321.3 L386.3,321.3 L386.4,321.4 L387.0,321.7 L388.6,322.1 L388.6,322.1 L388.8,322.1 L389.1,322.4 L389.3,322.5 L389.6,322.6 L390.5,322.8 L390.9,322.8 L391.2,322.8 L392.2,322.9 L392.4,322.9 L392.7,322.9 L393.1,322.9 L393.2,322.9 L393.4,322.9 L393.5,322.9 L393.6,322.9 L393.7,322.9 L393.8,322.9 L393.9,322.9 L394.1,322.8 L395.7,322.7 L395.8,322.7 L395.9,322.8 L396.0,322.8 L396.2,322.8 L396.3,322.9 L396.7,322.8 L396.8,322.8 L396.9,322.7 L396.9,322.7 L397.2,322.7 L397.3,322.7 L398.6,322.5 L398.9,322.4 L399.1,322.4 L399.1,322.4 L399.6,322.2 L399.9,322.2 L400.2,322.1 L401.0,322.1 L401.1,322.1 L401.2,322.1 L401.5,322.0 L401.9,321.8 L402.0,321.8 L402.2,321.8 L402.3,321.8 L402.4,321.8 L403.3,321.8 L404.6,321.2 L404.7,320.8 L406.1,320.4 L406.3,320.4 L406.6,320.4 L407.2,320.5 L407.3,320.4 L407.3,320.4 L407.4,320.4 L407.6,320.2 L408.1,320.3 L408.2,320.3 L408.7,320.3 L409.1,320.3 L409.4,320.3 L410.7,320.8 L411.7,320.6 L412.6,320.5 L413.5,320.4 L413.6,320.4 L413.8,320.5 L413.9,320.5 L414.1,320.5 L414.2,320.5 L415.6,320.8 L416.4,321.1 L416.6,321.1 L417.2,321.3 L417.5,321.3 L417.7,321.4 L418.7,321.6 L420.0,321.9 L420.2,321.9 L420.4,321.9 L422.4,321.7 L422.6,321.7 L423.8,321.7 L424.8,321.8 L427.4,321.4 L428.8,321.4 L430.7,321.0 L431.9,320.8 L432.1,320.6 L433.1,320.5 L434.3,320.4 L434.7,320.3 L434.8,320.1 L434.9,320.1 L437.8,321.5 L438.0,321.9 L438.1,321.9 L440.3,321.9 L444.6,321.5 L446.6,320.4 L448.6,320.9 L450.6,320.9 L450.7,320.9 L450.8,320.9 L450.9,320.9 L451.0,320.9 L453.8,321.5 L456.2,321.8 L456.3,321.8 L456.5,321.8 L456.9,322.1 L458.7,322.0 L459.1,322.0 L459.2,321.9 L459.3,321.9 L459.4,321.9 L459.5,321.9 L459.6,321.9 L459.7,321.9 L460.0,322.0 L460.2,322.0 L460.9,322.2 L460.9,322.2 L461.0,322.2 L461.8,322.2 L461.9,322.2 L461.9,322.2 L462.5,322.1 L463.0,322.1 L463.2,322.1 L463.3,322.1 L463.5,322.1 L464.1,322.2 L464.1,322.2 L464.8,322.4 L465.2,322.4 L465.3,322.4 L465.4,322.4 L466.8,322.0 L469.1,321.7 L469.8,321.4 L470.3,321.4 L470.9,321.3 L472.0,321.4 L472.3,321.4 L472.4,321.5 L473.1,321.6 L473.2,321.6 L473.6,321.8 L473.9,321.8 L474.2,321.8 L474.5,322.1 L474.6,322.1 L474.9,322.2 L475.1,322.3 L475.6,322.6 L476.0,322.8 L476.9,324.4 L477.2,324.4 L478.1,325.3 L478.8,325.6 L479.1,325.6 L479.2,325.6 L479.3,325.6 L479.6,325.6 L480.8,325.8 L481.5,325.8 L482.6,325.8 L483.1,325.8 L483.5,325.7 L484.4,325.9 L484.6,325.9 L485.9,326.4 L488.1,325.7 L488.7,325.7 L489.6,325.3 L490.7,325.1 L491.9,323.8 L492.9,323.7 L493.6,323.6 L494.4,323.8 L494.9,323.9 L495.2,323.9 L495.6,323.7 L496.4,323.7 L497.1,323.7 L497.4,323.8 L497.9,323.9 L498.2,323.9 L499.0,324.0 L499.1,324.0 L499.8,323.9 L501.3,324.5 L502.2,325.0 L503.2,325.3 L503.7,325.3 L504.8,325.4 L505.8,325.1 L506.2,325.1 L506.6,325.1 L507.0,325.1 L507.2,325.1 L507.3,325.1 L507.4,325.1 L507.5,325.0 L507.7,325.0 L507.7,325.0 L507.9,325.0 L508.1,325.1 L508.3,325.1 L509.3,325.1 L510.7,325.0 L510.9,325.1 L511.7,325.1 L512.4,325.2 L513.3,325.2 L514.3,324.7 L515.6,324.3 L517.8,324.0 L520.8,323.2 L521.6,323.2 L522.3,323.2 L523.2,323.0 L525.2,323.5 L525.8,323.5 L526.2,324.0 L526.2,324.0 L528.6,324.9 L530.3,325.1 L532.2,323.4 L534.0,322.3 L534.5,322.3 L535.0,321.6 L536.3,321.6 L541.3,323.8 L545.5,324.7 L545.8,324.5 L549.8,325.8 L550.4,325.8 L551.0,325.8 L551.4,325.8 L552.1,325.8 L552.5,325.7 L552.7,325.7 L553.1,325.7 L556.5,325.1 L557.4,325.1 L558.0,325.1 L558.2,325.1 L558.3,325.1 L558.4,325.1 L559.0,325.1 L559.3,325.0 L559.4,325.0 L560.1,325.1 L561.0,325.3 L561.6,325.4 L562.3,325.4 L563.6,325.6 L563.6,325.6 L564.4,325.8 L565.8,325.9 L567.0,325.7 L567.3,325.8 L568.6,325.5 L569.3,325.4 L570.3,325.1 L571.0,325.0 L571.8,325.1 L572.5,325.1 L573.2,325.1 L573.4,325.2 L573.5,325.2 L573.7,325.2 L574.3,325.3 L574.5,325.4 L574.8,325.4 L575.0,325.4 L575.5,325.4 L576.1,325.6 L576.5,325.8 L576.8,325.7 L577.1,325.8 L577.4,325.8 L578.4,325.7 L578.6,325.7 L578.8,325.6 L578.9,325.6 L579.3,325.6 L580.2,325.4 L580.8,325.4 L581.2,325.3 L582.4,324.6 L584.3,324.7 L585.4,325.3 L586.0,325.3 L587.6,326.1 L587.8,326.1 L589.4,326.7 L590.1,326.6 L592.6,326.5 L592.9,326.3 L594.6,326.1 L594.8,326.1 L594.9,326.1 L595.3,326.1 L595.7,326.0 L596.2,326.2 L596.7,326.2 L598.6,326.1 L602.1,326.6 L605.4,326.1 L605.7,326.0 L608.9,326.0 L609.1,326.0 L609.4,325.9 L610.5,325.9 L611.5,325.9 L611.8,325.9 L612.0,325.9 L612.6,325.8 L618.4,325.7 L618.6,325.7 L618.8,325.7 L624.1,325.6 L629.2,326.7 L629.7,326.0 L632.2,325.0 L634.5,324.3 L635.8,324.3 L638.1,325.1 L638.3,325.1 L638.4,325.2 L638.5,325.2 L638.6,325.3 L638.7,325.3 L639.0,325.4 L639.3,325.6 L639.5,325.6 L640.2,325.6 L640.6,325.6 L641.1,325.9 L641.5,326.3 L642.0,326.3 L642.8,326.1 L643.4,326.1 L644.6,325.7 L644.9,325.5 L645.3,325.5 L645.6,325.4 L647.2,325.3 L647.5,325.3 L657.3,324.7 L657.5,324.5 L659.1,324.4 L659.5,324.4 L661.5,324.9 L663.8,325.1 L668.1,325.7 L668.7,325.6 L669.0,325.4 L669.5,325.3 L670.5,325.2 L671.4,325.1 L672.0,325.0 L672.6,325.0 L673.1,325.0 L676.1,325.2 L676.7,325.3 L676.9,325.4 L678.0,325.7 L678.8,326.1 L679.4,327.0 L679.9,327.3 L680.4,327.4 L680.9,327.5 L681.7,327.7 L682.0,327.7 L682.7,328.1 L683.7,328.2 L684.3,328.2 L684.8,327.7 L686.1,327.7 L686.7,327.7 L687.2,327.9 L687.4,328.0 L688.8,328.1 L689.9,328.0 L690.1,328.0 L690.7,327.7 L691.3,327.4 L692.0,327.3 L692.4,327.3 L693.0,327.2 L693.2,327.2 L693.7,327.3 L694.3,327.2 L695.1,326.8 L695.5,326.7 L695.9,326.7 L696.8,326.9 L697.1,326.9 L697.2,326.9 L697.4,326.7 L697.9,326.6 L698.5,326.4 L699.9,326.4 L701.5,327.1 L701.7,327.1 L702.1,327.1 L702.4,327.1 L702.8,327.3 L703.6,327.3 L703.8,327.4 L705.7,327.6 L706.1,327.6 L706.3,327.6 L706.5,327.6 L706.7,327.6 L707.4,327.6 L708.0,327.6 L709.3,327.8 L712.3,327.1 L712.5,326.9 L713.1,327.1 L713.3,327.1 L714.4,327.1 L714.7,327.1 L715.4,327.3 L722.1,327.8 L722.6,327.7 L723.0,327.4 L723.4,327.2 L725.5,326.7 L725.9,326.5 L726.5,326.4 L726.9,326.4 L727.6,326.4 L731.9,326.7 L735.3,325.7 L735.8,325.6 L737.4,325.5 L737.8,325.5 L739.4,325.5 L739.9,325.5 L741.0,325.5 L741.3,325.5 L741.6,325.5 L744.5,324.7 L749.8,325.3 L752.3,325.9 L757.7,327.0 L758.8,327.4 L759.1,327.5 L759.2,327.5 L759.5,327.5 L759.9,327.5 L760.1,327.5 L760.8,327.4 L761.1,327.4 L761.2,327.3 L761.3,327.3 L761.5,327.2 L761.6,327.3 L763.3,326.8 L763.5,326.8 L763.7,326.7 L763.8,326.7 L764.1,326.5 L765.5,326.3 L765.7,326.3 L765.9,326.3 L766.1,326.3 L766.6,326.8 L767.8,327.2 L768.8,327.7 L769.0,327.7 L769.1,327.7 L769.5,327.8 L769.7,327.8 L769.9,327.8 L770.0,327.8 L770.3,327.8 L770.7,327.8 L771.0,327.8 L775.1,328.7 L775.8,328.9 L776.2,328.9 L776.5,328.9 L776.7,328.9 L777.0,329.0 L778.1,328.9 L779.2,329.0 L779.5,329.1 L781.8,328.8 L782.2,328.7 L782.5,328.7 L782.9,328.7 L783.6,328.7 L784.1,328.7 L784.3,328.7 L784.5,328.7 L784.7,328.7 L784.8,328.7 L785.0,328.6 L785.1,328.8 L786.2,329.0 L787.8,329.5 L788.5,329.7 L792.0,329.7 L794.4,328.4 L795.1,328.2 L795.6,328.2 L796.1,328.2 L796.1,328.2 L796.3,328.2 L796.5,328.2 L796.7,328.2 L796.8,328.2 L796.9,328.2 L797.1,328.1 L797.2,328.1 L797.6,328.1 L798.3,328.2 L798.7,328.2 L798.8,328.2 L800.6,328.5 L801.0,328.5 L802.0,328.2 L802.2,328.2 L802.4,327.9 L802.5,327.9 L802.7,327.8 L803.0,327.8 L803.2,327.8 L803.7,327.4 L803.9,327.4 L804.2,327.4 L804.4,327.4 L804.4,327.4 L805.0,327.2 L805.0,327.2 L805.1,327.2 L805.2,327.0 L806.2,326.3 L807.4,325.0 L808.6,323.1 L808.7,323.1 L809.8,323.2 L810.1,323.2 L810.7,323.2 L810.9,323.2 L811.1,323.2 L811.4,323.2 L811.4,323.2 L811.7,323.2 L811.7,323.2 L811.8,323.2 L812.0,323.2 L812.5,323.4 L812.7,323.5 L813.2,323.9 L814.0,324.3 L814.3,324.7 L814.9,325.0 L815.0,325.0 L815.6,325.3 L815.6,325.3 L815.8,325.3 L816.0,325.4 L816.2,325.4 L816.4,325.4 L816.7,325.4 L817.0,325.4 L817.5,325.4 L817.7,325.4 L817.8,325.4 L818.2,325.4 L818.3,325.4 L818.5,325.4 L818.6,325.4 L818.6,325.4 L818.8,325.5 L818.9,325.5 L819.1,325.5 L819.3,325.4 L820.9,324.4 L821.9,323.8 L822.1,323.8 L822.3,323.8 L822.3,323.8 L822.4,323.8 L822.6,323.8 L822.8,323.7 L822.9,323.7 L823.3,323.7 L824.2,323.6 L825.5,323.1 L833.0,322.0 L836.3,318.8 L836.7,318.0 L836.8,318.0 L837.5,318.0 L842.6,319.0 L842.7,319.3 L846.2,320.7 L846.9,320.9 L848.2,320.9 L849.4,320.9 L853.2,320.0 L854.2,319.9 L854.5,319.9 L854.9,319.9 L855.8,319.9 L864.4,320.3 L866.3,320.3 L867.6,320.1 L870.9,319.2 L877.0,319.4 L877.4,319.5 L879.0,319.9 L881.2,321.2 L882.1,321.3 L882.6,321.3 L883.3,321.3 L887.4,320.5 L888.0,320.0 L889.0,320.0 L889.6,320.0 L890.5,320.9 L891.6,320.9 L892.4,322.5 L893.1,322.5 L894.4,324.6 L895.1,324.6 L896.1,325.1 L896.6,325.3 L898.1,325.2 L898.3,325.2 L898.7,325.0 L899.2,324.9 L899.5,324.9 L900.0,325.0 L900.4,325.3 L901.1,325.6 L901.9,326.0 L902.4,326.5 L903.0,327.2 L903.7,327.7 L904.4,328.9 L905.0,329.4 L905.1,329.8 L906.4,330.6 L907.0,330.6 L907.6,331.4 L908.9,332.0 L909.7,332.0 L910.0,331.9 L910.2,331.8 L910.3,331.7 L910.4,331.8 L910.5,331.8 L910.6,331.8 L910.7,331.8 L910.9,331.8 L911.3,331.7 L911.7,331.7 L911.7,331.7 L911.9,331.7 L912.4,331.6 L912.7,331.6 L913.0,331.4 L913.3,331.1 L913.9,330.7 L914.2,330.7 L915.1,330.6 L915.6,330.6 L916.0,330.6 L916.5,330.6 L917.3,330.7 L917.5,330.6 L918.2,330.6 L918.6,330.6 L918.9,330.6 L920.2,330.3 L921.4,329.9 L922.1,329.8 L922.6,329.8 L922.8,329.8 L923.5,329.9 L924.4,329.9 L925.7,330.1 L925.9,330.2 L926.2,330.2 L926.6,330.3 L926.7,330.3 L928.6,330.6 L929.2,331.0 L930.5,331.2 L930.6,331.2 L930.7,331.2 L931.1,331.2 L931.5,331.2 L931.7,331.2 L931.8,331.2 L934.8,331.1 L935.6,330.6 L936.1,330.4 L938.0,330.0 L938.7,329.3 L940.7,328.9 L940.8,328.8 L941.1,328.8 L941.3,328.8 L941.5,328.6 L944.9,328.0 L946.2,328.0 L946.5,328.0 L947.1,328.0 L947.3,328.0 L947.4,327.9 L947.5,327.9 L947.8,328.0 L948.0,328.1 L948.2,328.2 L948.3,328.2 L948.6,328.2 L950.1,328.6 L950.6,328.9 L950.7,329.0 L951.4,329.3 L951.8,329.3 L952.3,329.3 L952.4,329.3 L952.5,329.5 L952.7,329.5 L953.4,330.0 L954.3,330.5 L955.2,330.9 L955.8,331.5 L956.1,331.8 L956.2,331.8 L956.6,331.8 L957.3,332.1 L958.1,331.9 L958.9,331.7 L959.3,331.6 L959.7,331.6 L960.0,331.6 L960.1,331.6 L960.1,331.6 L960.3,331.6 L960.4,331.6 L960.9,331.5 L961.9,331.3 L962.7,331.3 L963.1,331.3 L963.3,331.4 L963.8,331.4 L963.9,331.5 L964.1,331.5 L964.6,331.5 L964.9,331.6 L965.3,331.5 L965.4,331.5 L965.7,331.5 L965.9,331.5 L966.5,331.5 L966.6,331.6 L966.9,331.6 L967.3,331.6 L967.3,331.5 L967.6,331.4 L967.6,331.4 L967.7,331.4 L967.9,331.4 L968.0,331.3 L968.4,330.9 L968.6,330.7 L969.4,330.3 L970.0,330.1 L970.2,330.0 L970.6,329.8 L970.9,329.8 L971.0,329.8 L971.3,329.7 L971.4,329.7 L971.7,329.7 L972.0,329.7 L972.1,329.7 L973.1,329.9 L973.2,330.0 L973.5,330.0 L974.1,330.4 L975.3,331.1 L975.5,331.1 L975.8,331.1 L975.9,331.2" fill="transparent" id="track" stroke="black" stroke-linejoin="miter" stroke-miterlimit="1" stroke-width="2"/>
<g>
<g>
<circle cx="975.883973424046" cy="331.45885714285714" fill="Blue" id="wp/0" r="5"/>
</g>
<g transform="translate(975.883973424046 331.45885714285714)">
<rect fill="white" fill-opacity="0.75" height="12" id="label-bg" width="15.610526315789475" x="4" y="-16"/>
<text font-size="16.0" id="wp-0/text" text-anchor="start" x="4.000" y="-4.000">
K4
</text>
</g>
<g>
<circle cx="279.2277098093814" cy="191.54142857142855" fill="Black" id="wp/1" r="3"/>
</g>
<g transform="translate(279.2277098093814 191.54142857142855)">
<rect fill="white" fill-opacity="0.75" height="12" id="label-bg" width="24.610526315789475" x="-28.61052631578947" y="-16"/>
<text font-size="16.0" id="wp-1/text" text-anchor="end" x="-4.000" y="-4.000">
P20
</text>
</g>
<g>
<circle cx="975.883973424046" cy="331.45885714285714" fill="Black" id="wp/2" r="5"/>
<circle cx="975.883973424046" cy="331.45885714285714" fill="white" id="wp/2-little-white" r="3.5"/>
<circle cx="975.883973424046" cy="331.45885714285714" fill="black" id="wp/2-little-white" r="2.5"/>
</g>
<g transform="translate(975.883973424046 331.45885714285714)">
<rect fill="white" fill-opacity="0.75" height="12" id="label-bg" width="107.12631578947368" x="-111.12631578947368" y="4"/>
<text font-size="16.0" id="wp-2/text" text-anchor="end" x="-4.000" y="16.000">
Wörth am Rhein
</text>
</g>
<g>
<circle cx="38.92262323905106" cy="26.477785714285744" fill="Green" id="wp/3" r="3"/>
</g>
<g transform="translate(38.92262323905106 26.477785714285744)">
<rect fill="white" fill-opacity="0.75" height="12" id="label-bg" width="76.90526315789475" x="4" y="-16"/>
<text font-size="16.0" id="wp-3/text" text-anchor="start" x="4.000" y="-4.000">
Rote Lache
</text>
</g>
<g>
<circle cx="203.77500906794603" cy="299.2962857142857" fill="Black" id="wp/4" r="5"/>
<circle cx="203.77500906794603" cy="299.2962857142857" fill="white" id="wp/4-little-white" r="3.5"/>
<circle cx="203.77500906794603" cy="299.2962857142857" fill="black" id="wp/4-little-white" r="2.5"/>
</g>
<g transform="translate(203.77500906794603 299.2962857142857)">
<rect fill="white" fill-opacity="0.75" height="12" id="label-bg" width="75.57894736842105" x="-79.57894736842105" y="4"/>
<text font-size="16.0" id="wp-4/text" text-anchor="end" x="-4.000" y="16.000">
Gernsbach
</text>
</g>
<g>
<circle cx="142.49877202554126" cy="186.93214285714285" fill="Green" id="wp/6" r="3"/>
</g>
<g transform="translate(142.49877202554126 186.93214285714285)">
<rect fill="white" fill-opacity="0.75" height="12" id="label-bg" width="65.9157894736842" x="4" y="-16"/>
<text font-size="16.0" id="wp-6/text" text-anchor="start" x="4.000" y="-4.000">
Nachtigall
</text>
</g>
<g>
<circle cx="912.9787379800673" cy="330.7930714285714" fill="Black" id="wp/7" r="4"/>
<circle cx="912.9787379800673" cy="330.7930714285714" fill="white" id="wp/7-little-white" r="2.5"/>
</g>
<g transform="translate(912.9787379800673 330.7930714285714)">
<rect fill="white" fill-opacity="0.75" height="12" id="label-bg" width="77.66315789473686" x="-38.83157894736837" y="-312.7930714285714"/>
<text font-size="16.0" id="wp-7/text" text-anchor="start" x="-38.832" y="-300.793">
Hagenbach
</text>
</g>
<g>
<circle cx="472.4300929351857" cy="321.1647857142857" fill="Black" id="wp/8" r="4"/>
<circle cx="472.4300929351857" cy="321.1647857142857" fill="white" id="wp/8-little-white" r="2.5"/>
</g>
<g transform="translate(472.4300929351857 321.1647857142857)">
<rect fill="white" fill-opacity="0.75" height="12" id="label-bg" width="61.557894736842115" x="4" y="-16"/>
<text font-size="16.0" id="wp-8/text" text-anchor="start" x="4.000" y="-4.000">
Iffezheim
</text>
</g>
<g>
<circle cx="815.7659009382801" cy="324.95464285714286" fill="Black" id="wp/9" r="4"/>
<circle cx="815.7659009382801" cy="324.95464285714286" fill="white" id="wp/9-little-white" r="2.5"/>
</g>
<g transform="translate(815.7659009382801 324.95464285714286)">
<rect fill="white" fill-opacity="0.75" height="12" id="label-bg" width="84.10526315789474" x="-88.10526315789474" y="-16"/>
<text font-size="16.0" id="wp-9/text" text-anchor="end" x="-4.000" y="-4.000">
Lauterbourg
</text>
</g>
<g>
<circle cx="837.5161314920902" cy="318.2967857142857" fill="Black" id="wp/10" r="4"/>
<circle cx="837.5161314920902" cy="318.2967857142857" fill="white" id="wp/10-little-white" r="2.5"/>
</g>
<g transform="translate(837.5161314920902 318.2967857142857)">
<rect fill="white" fill-opacity="0.75" height="12" id="label-bg" width="81.07368421052632" x="4" y="-16"/>
<text font-size="16.0" id="wp-10/text" text-anchor="start" x="4.000" y="-4.000">
Berg (Pfalz)
</text>
</g>
</g>
</g>
<g id="SL" transform="translate(0 0)">
<text text-anchor="end" x="66" y="363.5">
50
</text>
<text text-anchor="end" x="66" y="312.2857142857143">
150
</text>
<text text-anchor="end" x="66" y="261.07142857142856">
250
</text>
<text text-anchor="end" x="66" y="209.85714285714283">
350
</text>
<text text-anchor="end" x="66" y="158.64285714285714">
450
</text>
<text text-anchor="end" x="66" y="107.42857142857139">
550
</text>
<text text-anchor="end" x="66" y="56.21428571428572">
650
</text>
<text text-anchor="end" x="66" y="5">
750
</text>
</g>
</g>
</svg>