<svg height="400" width="1420" xmlns="http://www.w3.org/2000/svg">
<g font-size="18" id="world" shape-rendering="crispEdges">
<g id="BG"/>
<g id="SB" transform="translate(71 360)">
<text text-anchor="middle" x="0" y="17">
0
</text>
<text text-anchor="middle" x="245" y="17">
20
</text>
<text text-anchor="middle" x="490" y="17">
40
</text>
<text text-anchor="middle" x="735" y="17">
60
</text>
<text text-anchor="middle" x="980" y="17">
80
</text>
<text text-anchor="middle" x="1225" y="17">
100
</text>
</g>
<g id="SD" transform="translate(71 0)">
<path d="M0,0 L1347.5,0" stroke="black" stroke-width="3"/>
<path d="M0,0 L0,358.5" stroke="black" stroke-width="3"/>
<path d="M0,358.5 L1347.5,358.5" stroke="black" stroke-width="3"/>
<path d="M1347.5,0 L1347.5,358.5" stroke="black" stroke-width="3"/>
<path d="M0,343.5 L1347.5,343.5" stroke="black" stroke-width="1"/>
<path d="M0,0 L0,358.5" stroke="black" stroke-width="1"/>
<path d="M245,0 L245,358.5" stroke="black" stroke-width="1"/>
<path d="M490,0 L490,358.5" stroke="black" stroke-width="1"/>
<path d="M735,0 L735,358.5" stroke="black" stroke-width="1"/>
<path d="M980,0 L980,358.5" stroke="black" stroke-width="1"/>
<path d="M1225,0 L1225,358.5" stroke="black" stroke-width="1"/>
<path d="M122.5,15 L122.5,358.5" stroke="black" stroke-dasharray="1.0,2.5,5.0,5.0,10.0,5.0"/>
<path d="M367.5,15 L367.5,358.5" stroke="black" stroke-dasharray="1.0,2.5,5.0,5.0,10.0,5.0"/>
<path d="M612.5,15 L612.5,358.5" stroke="black" stroke-dasharray="1.0,2.5,5.0,5.0,10.0,5.0"/>
<path d="M857.5,15 L857.5,358.5" stroke="black" stroke-dasharray="1.0,2.5,5.0,5.0,10.0,5.0"/>
<path d="M1102.5,15 L1102.5,358.5" stroke="black" stroke-dasharray="1.0,2.5,5.0,5.0,10.0,5.0"/>
<path d="M1347.5,15 L1347.5,358.5" stroke="black" stroke-dasharray="1.0,2.5,5.0,5.0,10.0,5.0"/>
<path d="M0,358.5 L1347.5,358.5" stroke="black" stroke-width="1"/>
<path d="M0,322.65 L1347.5,322.65" stroke="black" stroke-width="1"/>
<path d="M0,286.8 L1347.5,286.8" stroke="black" stroke-width="1"/>
<path d="M0,250.95 L1347.5,250.95" stroke="black" stroke-width="1"/>
<path d="M0,215.1 L1347.5,215.1" stroke="black" stroke-width="1"/>
<path d="M0,179.25 L1347.5,179.25" stroke="black" stroke-width="1"/>
<path d="M0,143.4 L1347.5,143.4" stroke="black" stroke-width="1"/>
<path d="M0,107.55 L1347.5,107.55" stroke="black" stroke-width="1"/>
<path d="M0,71.7 L1347.5,71.7" stroke="black" stroke-width="1"/>
<path d="M0,35.85 L1347.5,35.85" stroke="black" stroke-width="1"/>
<path d="M0,0 L1347.5,0" stroke="black" stroke-width="1"/>
<path d="M0,340.575 L1347.5,340.575" stroke="black" stroke-dasharray="1.0,2.5,5.0,5.0,10.0,5.0"/>
<path d="M0,304.725 L1347.5,304.725" stroke="black" stroke-dasharray="1.0,2.5,5.0,5.0,10.0,5.0"/>
<path d="M0,268.875 L1347.5,268.875" stroke="black" stroke-dasharray="1.0,2.5,5.0,5.0,10.0,5.0"/>
<path d="M0,233.025 L1347.5,233.025" stroke="black" stroke-dasharray="1.0,2.5,5.0,5.0,10.0,5.0"/>
<path d="M0,197.175 L1347.5,197.175" stroke="black" stroke-dasharray="1.0,2.5,5.0,5.0,10.0,5.0"/>
<path d="M0,161.325 L1347.5,161.325" stroke="black" stroke-dasharray="1.0,2.5,5.0,5.0,10.0,5.0"/>
<path d="M0,125.475 L1347.5,125.475" stroke="black" stroke-dasharray="1.0,2.5,5.0,5.0,10.0,5.0"/>
<path d="M0,89.625 L1347.5,89.625" stroke="black" stroke-dasharray="1.0,2.5,5.0,5.0,10.0,5.0"/>
<path d="M0,53.775 L1347.5,53.775" stroke="black" stroke-dasharray="1.0,2.5,5.0,5.0,10.0,5.0"/>
<path d="M0,17.925 L1347.5,17.925" stroke="black" stroke-dasharray="1.0,2.5,5.0,5.0,10.0,5.0"/>
<text font-size="14" text-anchor="end" x="112.5" y="354.5">
0.6%
</text>
<text font-size="14" text-anchor="end" x="235" y="354.5">
1.6%
</text>
<text font-size="14" text-anchor="end" x="357.5" y="354.5">
1.6%
</text>
<text font-size="14" text-anchor="end" x="480" y="354.5">
2.1%
</text>
<text font-size="14" text-anchor="end" x="602.5" y="354.5">
1.2%
</text>
<text font-size="14" text-anchor="end" x="725" y="354.5">
0.1%
</text>
<text font-size="14" text-anchor="end" x="847.5" y="354.5">
1.6%
</text>
<text font-size="14" text-anchor="end" x="970" y="354.5">
2.8%
</text>
<text font-size="14" text-anchor="end" x="1092.5" y="354.5">
4.5%
</text>
<text font-size="14" text-anchor="end" x="1215" y="354.5">
0.7%
</text>
<text font-size="14" text-anchor="end" x="1337.5" y="354.5">
4.0%
</text>
<path d="M0.0,163.5 L0.2,163.5 L0.3,163.5 L0.7,163.5 L0.8,163.5 L1.3,163.5 L1.4,163.5 L1.5,163.5 L2.0,163.5 L2.5,163.5 L3.2,163.5 L3.7,163.5 L4.9,163.6 L5.1,163.6 L5.2,163.6 L5.5,163.6 L6.2,163.6 L6.7,163.6 L7.0,163.6 L7.3,163.6 L7.7,163.8 L8.2,163.8 L8.6,163.7 L9.0,163.7 L9.7,163.7 L10.1,163.7 L10.3,163.7 L10.7,163.8 L11.6,164.0 L11.9,164.1 L12.9,164.0 L13.9,164.2 L14.2,164.2 L14.8,164.2 L15.2,164.2 L15.7,164.1 L16.2,164.1 L16.6,163.9 L17.7,163.7 L18.7,163.4 L19.6,163.4 L20.0,163.3 L21.3,163.4 L21.6,163.4 L22.2,163.4 L22.6,163.3 L23.5,163.3 L24.2,163.3 L24.8,163.3 L30.4,162.3 L33.9,161.0 L35.4,160.7 L36.2,161.0 L37.7,161.0 L37.9,161.1 L38.0,161.1 L38.6,161.1 L39.9,161.2 L45.3,159.9 L45.5,159.7 L45.6,159.7 L46.6,159.8 L46.9,159.8 L48.3,160.0 L50.4,159.1 L51.1,159.0 L51.5,159.0 L51.9,159.0 L52.6,158.9 L53.0,158.7 L54.4,158.7 L55.2,158.5 L55.3,158.5 L55.5,158.4 L55.7,158.4 L55.9,158.3 L56.7,158.1 L56.9,158.0 L57.1,158.0 L57.2,158.0 L58.1,157.9 L58.3,157.9 L58.5,157.8 L58.7,157.8 L59.0,157.8 L59.3,157.8 L60.3,157.7 L61.3,157.8 L62.5,157.9 L62.7,157.8 L62.9,157.8 L63.3,157.9 L63.5,157.9 L63.8,157.9 L64.1,157.9 L65.5,158.0 L66.4,158.1 L66.5,158.1 L67.0,158.1 L67.6,157.8 L68.3,157.2 L69.2,156.0 L69.7,155.4 L70.1,155.1 L70.4,155.0 L70.9,154.9 L71.4,154.9 L71.6,155.0 L72.2,154.9 L72.7,155.0 L72.9,155.1 L73.3,155.2 L73.9,155.2 L74.1,155.2 L74.7,155.3 L74.8,155.2 L74.9,155.2 L75.1,155.3 L75.3,155.0 L75.4,155.0 L75.6,155.0 L76.0,154.5 L76.1,154.3 L76.6,153.9 L77.1,153.5 L77.7,152.8 L78.1,151.9 L78.5,151.7 L78.8,151.5 L79.3,151.3 L79.8,151.3 L81.7,152.1 L82.2,152.0 L82.7,152.0 L83.2,152.0 L84.6,152.2 L84.9,152.1 L85.5,152.1 L86.0,152.2 L86.5,152.2 L87.0,152.2 L91.5,153.1 L93.3,152.5 L94.9,152.1 L96.3,151.9 L97.3,152.0 L98.2,152.3 L99.0,151.9 L100.1,151.2 L101.0,151.1 L101.8,151.0 L102.3,151.0 L102.8,150.8 L103.3,150.8 L103.8,151.0 L104.3,151.2 L105.9,152.0 L106.9,152.5 L108.4,152.2 L110.2,151.0 L111.3,150.0 L112.8,149.5 L115.5,148.4 L116.4,148.7 L117.5,148.7 L118.4,149.4 L119.8,149.8 L120.9,150.1 L121.9,149.8 L122.9,149.7 L123.1,149.7 L124.2,149.7 L124.9,149.4 L126.8,148.1 L128.9,148.4 L130.0,147.5 L130.9,147.8 L131.5,147.8 L131.8,147.8 L132.4,147.6 L133.0,147.6 L133.8,147.5 L134.6,147.7 L135.2,147.7 L135.3,147.7 L135.8,147.4 L136.5,147.3 L137.9,147.1 L138.3,147.0 L138.9,146.7 L140.3,146.4 L140.7,146.2 L141.0,146.1 L141.4,145.9 L141.8,145.9 L142.1,145.9 L142.5,145.9 L146.3,144.3 L146.9,143.9 L147.2,143.9 L147.5,144.0 L147.9,144.0 L148.8,143.9 L149.3,143.9 L149.7,143.8 L150.1,143.7 L150.6,143.8 L150.9,143.8 L152.5,143.1 L154.1,142.9 L154.4,142.9 L154.9,143.3 L155.5,143.5 L157.1,143.7 L157.7,143.9 L159.0,144.3 L161.9,142.0 L162.7,141.6 L163.4,141.1 L164.2,141.1 L164.8,141.2 L165.4,141.0 L165.8,141.0 L168.7,141.3 L169.9,140.9 L170.5,140.9 L170.9,140.9 L171.4,140.9 L171.6,140.9 L171.7,140.9 L171.8,140.9 L172.1,141.0 L172.2,141.0 L172.6,140.7 L173.4,140.6 L174.3,138.9 L174.8,137.8 L175.2,136.9 L176.3,136.3 L176.7,136.1 L177.0,135.3 L177.4,134.8 L177.9,134.6 L178.9,134.8 L179.3,135.9 L179.8,136.7 L180.2,137.1 L181.3,136.7 L181.7,136.7 L182.0,137.0 L183.1,137.4 L183.5,137.4 L184.0,137.3 L184.6,136.7 L184.6,136.7 L184.9,136.8 L185.3,136.8 L187.4,137.4 L188.2,137.2 L188.6,137.0 L189.3,137.0 L189.7,137.0 L190.3,137.0 L190.8,136.5 L193.1,135.1 L195.5,134.9 L196.4,134.9 L196.8,134.9 L197.0,134.9 L197.3,134.9 L197.5,134.9 L198.0,134.9 L201.1,128.5 L201.3,127.6 L202.0,127.7 L202.7,127.7 L203.3,127.5 L204.0,126.6 L204.2,126.3 L205.4,125.4 L205.8,125.2 L206.0,125.2 L206.5,124.5 L207.6,123.7 L207.8,123.7 L208.7,122.8 L209.3,122.5 L209.6,122.5 L210.3,122.0 L210.5,122.0 L210.8,121.9 L211.5,121.7 L211.7,121.7 L212.3,121.5 L213.0,121.0 L213.5,120.9 L213.7,120.4 L215.3,119.4 L216.0,116.0 L216.8,114.3 L218.1,111.8 L218.4,111.7 L218.9,110.9 L220.0,109.1 L220.3,108.9 L220.5,108.9 L220.6,108.8 L220.9,108.5 L221.1,108.5 L221.4,108.2 L221.6,108.1 L221.8,108.1 L221.9,108.0 L222.2,108.0 L222.4,107.9 L222.5,107.8 L223.2,107.2 L223.5,106.9 L223.7,106.7 L224.0,106.5 L224.3,106.3 L224.6,106.2 L225.1,106.2 L225.3,106.1 L226.4,105.6 L227.2,105.4 L227.6,105.4 L229.8,105.1 L231.1,104.4 L231.8,104.4 L232.2,103.8 L232.8,103.8 L234.2,103.5 L235.1,103.2 L235.5,102.7 L236.1,102.3 L237.4,102.1 L237.8,101.8 L238.0,101.4 L239.0,101.6 L240.2,101.7 L240.7,101.5 L241.0,101.5 L241.5,101.6 L241.7,101.6 L242.3,101.6 L243.0,101.5 L244.5,98.0 L245.0,97.8 L246.3,97.6 L246.5,97.6 L246.6,97.6 L247.9,96.8 L248.3,96.9 L249.1,97.3 L249.2,97.3 L249.3,97.3 L249.6,97.2 L249.8,97.2 L250.4,97.1 L251.0,96.9 L251.8,96.6 L252.5,96.1 L253.1,95.7 L254.2,95.2 L254.7,94.6 L255.1,94.4 L255.9,94.2 L256.1,94.0 L256.7,93.7 L257.0,93.6 L257.3,93.4 L257.9,93.1 L258.5,93.0 L259.0,92.8 L259.4,92.5 L259.6,92.0 L260.2,91.8 L261.6,90.6 L262.0,90.2 L263.1,88.4 L263.4,88.4 L265.5,87.2 L266.5,85.9 L267.8,85.6 L268.1,85.4 L268.3,85.4 L268.6,85.4 L269.6,85.1 L269.9,85.1 L270.3,85.0 L271.6,84.1 L273.0,82.6 L273.8,82.4 L274.3,82.0 L275.1,81.8 L275.5,81.3 L275.9,81.0 L276.8,80.5 L277.6,80.0 L278.2,79.7 L278.8,78.6 L279.6,78.1 L280.9,76.7 L281.1,76.7 L281.3,76.4 L282.0,75.9 L282.6,75.9 L282.8,75.9 L283.2,75.9 L284.3,74.4 L285.8,71.8 L286.1,71.8 L286.8,71.2 L286.9,70.4 L287.1,70.4 L287.3,70.1 L287.7,69.9 L289.0,69.3 L289.3,69.4 L289.6,69.2 L289.7,69.2 L289.9,69.2 L290.0,69.2 L290.3,69.2 L290.4,69.1 L290.6,69.1 L291.3,68.9 L291.4,69.1 L291.6,69.1 L292.2,69.2 L292.5,69.2 L292.7,69.2 L292.9,69.2 L293.1,69.3 L293.2,69.3 L293.5,69.3 L294.1,68.7 L294.3,68.4 L294.5,68.4 L294.6,68.2 L296.6,66.2 L297.2,62.4 L298.2,61.7 L299.1,60.7 L299.5,60.1 L300.0,59.6 L300.4,59.6 L300.9,59.2 L301.5,58.2 L302.0,57.3 L303.4,53.5 L304.1,52.5 L304.8,51.2 L305.6,49.8 L307.3,46.8 L307.9,46.8 L308.4,46.1 L309.1,46.1 L309.6,46.1 L312.4,54.2 L313.8,58.8 L314.2,59.7 L314.6,59.7 L315.3,63.0 L316.1,64.3 L316.5,65.1 L317.1,66.8 L317.5,66.8 L317.7,67.6 L318.4,68.5 L320.5,70.9 L320.9,72.1 L322.3,72.7 L323.2,73.6 L323.3,73.6 L325.0,77.0 L326.1,79.3 L326.9,79.3 L328.2,81.6 L329.6,84.0 L330.2,84.5 L331.5,88.0 L331.8,88.6 L332.2,89.6 L333.3,90.4 L333.6,90.4 L333.7,90.4 L334.0,91.2 L334.5,91.9 L336.2,92.8 L339.2,95.0 L340.2,95.3 L340.4,95.3 L340.5,95.3 L340.8,95.3 L341.1,95.3 L341.5,95.3 L341.8,95.0 L344.3,92.8 L344.7,93.4 L345.3,94.2 L346.8,95.5 L347.1,95.6 L347.3,95.9 L347.6,96.0 L347.8,96.2 L347.9,96.2 L348.4,96.3 L348.6,96.3 L348.7,96.3 L348.9,96.3 L349.0,96.3 L349.1,96.3 L349.3,96.5 L349.4,96.6 L349.6,96.6 L349.8,96.6 L350.7,97.3 L351.6,98.5 L351.6,98.5 L352.6,99.3 L352.9,99.4 L353.0,99.4 L353.2,99.5 L353.5,99.5 L353.9,99.5 L354.0,99.5 L354.0,99.5 L354.2,99.7 L354.4,99.7 L354.5,99.7 L354.7,99.8 L355.0,99.9 L355.2,100.0 L355.3,100.0 L356.0,100.0 L356.8,100.3 L357.1,100.6 L357.5,100.8 L357.6,100.9 L358.2,101.3 L358.6,101.5 L359.1,101.5 L359.1,101.5 L359.3,101.6 L359.4,101.6 L359.6,101.7 L360.0,101.8 L360.1,101.8 L360.3,101.8 L360.4,101.8 L360.5,101.8 L361.0,101.9 L361.8,102.2 L362.0,102.2 L362.5,102.1 L363.2,101.8 L363.6,101.7 L364.2,101.7 L364.5,101.5 L364.7,101.5 L364.8,101.5 L365.1,101.5 L365.8,101.7 L366.3,102.0 L368.0,103.3 L368.2,103.4 L368.3,103.5 L368.7,103.5 L368.8,103.5 L369.2,103.7 L369.4,103.6 L369.7,103.6 L369.9,103.6 L369.9,103.6 L370.1,103.6 L370.4,103.5 L370.5,103.5 L370.5,103.5 L371.3,103.2 L371.7,102.8 L372.3,102.7 L372.8,102.3 L373.1,101.9 L373.4,101.9 L373.9,102.0 L373.9,102.0 L374.9,102.3 L375.5,102.6 L376.3,103.0 L376.5,103.6 L376.6,103.6 L376.7,103.6 L377.5,103.4 L377.9,103.1 L379.2,101.8 L379.7,101.5 L380.3,101.1 L381.0,100.8 L381.7,101.1 L382.1,101.1 L382.5,101.3 L382.5,101.3 L383.5,102.4 L384.2,102.6 L384.9,103.0 L385.1,103.6 L385.2,103.6 L385.3,103.6 L386.1,103.4 L386.5,103.1 L387.8,101.0 L388.4,100.9 L388.9,100.4 L389.4,99.9 L389.8,99.8 L389.9,99.7 L390.0,99.7 L390.6,99.4 L391.0,99.2 L391.2,99.0 L391.8,98.8 L392.0,98.6 L392.3,98.5 L393.5,97.4 L394.0,97.2 L394.9,96.5 L395.6,96.5 L395.9,96.6 L398.0,96.0 L398.1,96.0 L398.9,95.4 L399.6,95.4 L400.3,95.3 L401.2,94.7 L402.1,94.7 L403.2,94.8 L403.9,95.0 L404.0,95.0 L404.4,95.0 L404.7,95.1 L405.7,95.0 L407.9,94.2 L408.8,94.0 L409.4,94.0 L410.1,94.1 L410.7,93.8 L411.2,93.8 L412.0,93.8 L412.3,93.8 L412.4,93.8 L412.8,93.7 L413.0,93.7 L416.5,88.7 L417.2,88.2 L418.1,88.2 L418.7,88.2 L419.2,88.6 L423.0,86.6 L423.3,85.4 L425.3,84.8 L426.3,81.6 L429.8,84.3 L430.4,84.1 L430.5,84.1 L430.7,84.1 L431.5,83.8 L432.6,83.7 L433.6,82.9 L434.4,82.6 L435.4,82.6 L435.7,82.6 L436.2,82.5 L436.8,82.5 L437.2,82.1 L437.3,82.1 L437.7,81.7 L438.5,80.4 L439.2,79.7 L439.9,78.6 L440.4,77.3 L440.5,77.3 L441.1,76.9 L441.9,76.0 L442.4,75.5 L442.8,75.3 L444.0,74.0 L444.3,74.0 L444.5,73.5 L445.0,73.0 L445.4,72.9 L446.2,72.8 L446.4,72.6 L446.9,72.2 L447.1,71.7 L447.8,71.6 L448.0,71.4 L448.2,71.2 L448.7,70.6 L449.4,70.0 L450.4,68.9 L450.7,68.7 L451.0,68.7 L451.3,68.6 L451.8,68.1 L452.0,67.8 L452.1,67.8 L452.2,67.8 L452.6,67.5 L452.7,67.5 L452.9,67.5 L453.1,67.4 L453.8,66.5 L454.1,65.9 L454.4,65.8 L454.8,63.9 L455.7,60.0 L456.6,57.3 L457.2,55.5 L457.6,54.7 L458.3,54.5 L458.5,54.5 L458.8,54.5 L459.2,54.2 L459.4,54.2 L460.2,53.9 L460.5,53.5 L460.7,53.5 L460.9,53.3 L461.1,53.3 L461.9,52.9 L462.2,52.9 L462.4,52.9 L462.9,52.1 L463.2,51.2 L465.1,47.8 L466.6,46.3 L466.9,46.3 L467.7,45.9 L468.5,46.1 L470.3,46.8 L470.7,46.3 L470.9,46.3 L471.1,46.4 L471.4,46.4 L471.9,45.9 L472.8,45.3 L473.9,43.2 L475.0,42.5 L475.4,42.3 L477.0,46.2 L478.1,48.5 L478.6,48.7 L478.8,48.7 L479.2,48.8 L479.8,49.7 L480.2,49.7 L480.8,50.4 L481.3,51.1 L482.1,52.3 L482.8,53.2 L483.1,53.4 L483.8,54.0 L483.9,54.3 L484.0,54.4 L484.5,54.7 L484.7,54.9 L484.8,54.9 L485.2,55.1 L485.4,55.0 L485.6,55.2 L486.0,55.0 L486.5,55.1 L486.6,55.1 L486.7,54.9 L487.2,54.5 L487.4,54.5 L487.7,54.5 L488.4,53.9 L489.1,52.6 L489.5,51.9 L489.6,51.9 L490.3,50.5 L490.7,50.5 L491.3,50.2 L491.5,50.2 L491.8,50.0 L492.2,49.5 L492.6,49.5 L493.5,48.8 L493.7,48.8 L494.5,48.8 L495.7,49.9 L496.7,51.1 L497.5,52.1 L498.0,52.1 L498.4,52.8 L498.9,52.8 L499.4,53.3 L499.6,53.3 L500.5,53.6 L503.0,52.3 L505.1,52.3 L505.3,52.2 L505.6,51.8 L505.7,51.8 L506.0,51.8 L507.2,52.2 L507.7,52.8 L508.0,53.0 L508.2,54.5 L509.3,57.2 L510.0,58.1 L510.4,60.0 L510.7,60.3 L510.8,61.1 L511.2,61.3 L511.4,61.5 L511.5,61.5 L511.6,61.5 L512.1,61.9 L512.6,62.8 L512.8,62.8 L513.0,63.0 L513.2,63.3 L513.4,64.0 L513.7,64.2 L514.6,65.3 L515.1,65.8 L515.7,67.6 L517.0,69.6 L517.3,70.4 L517.6,70.8 L518.5,71.2 L518.8,71.4 L519.2,71.7 L519.5,72.2 L520.1,73.0 L520.5,73.3 L521.0,73.6 L521.4,74.1 L521.8,74.3 L522.0,74.5 L522.4,74.5 L522.6,74.9 L523.4,75.3 L523.6,75.5 L523.8,75.5 L527.0,79.4 L527.4,81.9 L528.3,85.5 L529.8,87.4 L530.2,88.4 L530.5,89.7 L530.7,89.7 L530.7,89.7 L531.6,91.7 L532.0,92.1 L532.7,93.5 L532.8,93.5 L533.3,94.7 L533.7,94.7 L533.8,95.2 L534.4,96.0 L534.6,96.4 L534.8,96.6 L536.2,97.9 L536.7,98.1 L537.2,98.4 L537.4,98.6 L537.6,98.6 L537.8,98.2 L538.4,98.2 L538.6,98.0 L538.9,97.9 L539.4,97.5 L539.6,97.2 L540.1,96.8 L540.2,96.5 L540.8,95.9 L541.3,95.0 L541.9,93.8 L542.6,92.4 L543.1,91.7 L543.7,91.0 L543.9,90.3 L544.2,90.3 L544.6,89.9 L544.9,89.3 L545.6,88.0 L545.9,87.5 L546.3,86.8 L547.2,85.1 L547.4,84.6 L547.7,84.6 L548.7,83.2 L549.1,82.3 L549.5,81.9 L550.9,80.1 L551.4,79.3 L551.8,78.6 L552.2,77.8 L552.7,77.7 L552.9,77.5 L553.4,77.1 L553.6,77.0 L554.0,76.6 L554.2,76.6 L554.3,76.4 L554.7,76.4 L554.8,76.4 L555.3,76.2 L555.7,76.0 L555.9,75.9 L556.1,75.7 L556.3,74.9 L556.6,73.9 L558.8,66.9 L559.0,65.7 L559.3,63.7 L559.6,63.7 L560.5,62.8 L560.7,62.8 L561.7,61.5 L562.5,60.9 L562.8,60.9 L563.5,60.6 L564.5,61.4 L564.6,61.4 L565.5,62.2 L566.0,62.8 L566.9,62.8 L567.7,63.2 L568.4,63.3 L568.9,63.2 L569.6,63.0 L571.0,63.4 L571.5,63.5 L572.3,64.6 L573.1,66.6 L574.7,69.8 L574.9,70.3 L575.1,70.4 L575.3,70.4 L575.6,71.0 L575.6,71.0 L575.9,71.1 L576.1,71.1 L576.4,71.2 L576.7,71.2 L577.0,71.2 L577.2,71.4 L577.5,71.6 L577.8,71.7 L578.2,71.8 L578.6,71.9 L578.9,71.8 L579.1,71.9 L579.2,71.9 L579.6,72.0 L579.9,72.1 L580.3,72.2 L580.6,72.1 L581.5,72.1 L581.7,72.2 L582.2,72.4 L582.6,72.6 L583.0,72.7 L583.4,72.8 L583.8,73.2 L584.4,73.8 L584.8,74.4 L585.9,76.1 L586.4,77.6 L586.9,78.8 L588.1,79.9 L588.8,80.9 L589.2,81.2 L590.5,81.5 L590.7,81.6 L590.8,82.1 L591.0,83.0 L591.2,83.4 L591.3,83.9 L591.5,84.2 L591.7,84.3 L592.4,84.3 L593.1,84.7 L593.3,85.0 L593.4,85.0 L593.6,85.3 L593.7,85.6 L593.9,85.9 L595.1,88.5 L595.7,89.9 L596.4,91.9 L597.2,91.9 L597.5,91.7 L597.7,92.2 L597.9,92.0 L598.0,92.0 L598.2,92.3 L598.4,92.3 L598.7,92.3 L599.2,92.5 L599.5,92.5 L599.9,93.0 L600.3,93.5 L600.7,94.3 L601.1,94.0 L602.2,97.3 L602.4,98.1 L602.8,100.1 L603.0,100.1 L603.7,102.1 L604.0,102.1 L604.4,103.6 L604.9,107.8 L606.8,114.5 L607.2,116.4 L607.4,116.4 L608.0,117.8 L609.0,118.6 L609.6,119.2 L611.0,124.1 L612.4,127.2 L613.4,127.9 L614.1,129.5 L615.6,130.1 L616.0,130.1 L616.3,130.2 L616.7,130.7 L618.4,130.9 L619.7,130.6 L620.6,130.6 L621.1,131.3 L621.4,131.3 L623.1,133.4 L623.9,135.9 L625.0,139.0 L625.3,139.2 L625.7,139.7 L626.4,139.3 L626.6,138.8 L626.8,138.8 L627.2,138.5 L627.7,138.5 L628.5,138.8 L628.7,138.9 L629.0,138.7 L629.2,138.1 L630.1,137.7 L630.2,137.6 L630.4,137.6 L630.7,137.6 L631.1,138.3 L631.3,139.0 L631.7,139.8 L632.2,141.1 L632.6,141.7 L633.4,143.4 L633.7,144.1 L633.9,144.4 L634.2,145.2 L634.6,145.2 L635.0,145.8 L635.4,146.2 L635.8,146.2 L636.0,146.5 L636.3,147.3 L637.1,147.7 L637.3,147.7 L637.6,147.7 L638.5,149.7 L640.3,157.1 L640.5,157.1 L641.5,159.0 L641.8,159.0 L642.1,160.0 L642.3,160.7 L642.6,161.3 L643.5,162.9 L644.3,165.6 L644.8,166.3 L645.0,167.2 L645.6,167.9 L646.0,168.2 L646.3,168.3 L646.5,168.3 L647.4,169.5 L647.7,169.7 L648.2,170.4 L648.6,171.1 L649.0,171.9 L649.3,172.5 L649.6,172.5 L650.2,173.2 L650.8,174.1 L651.7,175.5 L653.1,176.9 L654.0,177.8 L654.4,178.0 L654.7,178.4 L655.6,178.6 L656.0,179.1 L656.6,180.5 L657.0,181.3 L658.1,182.3 L658.6,182.7 L659.0,182.9 L659.4,183.3 L660.3,184.5 L660.8,185.5 L661.3,187.3 L662.6,191.0 L663.2,191.5 L663.5,192.4 L663.6,192.4 L663.9,192.8 L664.2,192.5 L664.5,192.3 L664.6,192.3 L664.8,192.2 L665.5,192.6 L666.2,193.0 L666.5,192.9 L666.8,192.8 L667.1,192.4 L667.8,192.5 L668.0,192.8 L668.2,192.8 L669.2,193.7 L669.5,194.0 L669.7,194.2 L669.9,194.5 L670.0,194.5 L670.4,194.5 L671.0,194.7 L671.3,195.3 L671.7,196.0 L672.3,197.8 L673.1,202.3 L673.5,203.1 L673.6,203.1 L673.9,203.5 L674.1,203.5 L674.2,203.9 L674.7,203.9 L674.8,204.2 L674.9,204.2 L674.9,204.2 L675.0,204.3 L675.0,204.3 L675.1,204.3 L675.1,204.3 L675.2,204.3 L675.4,204.4 L675.7,204.8 L675.9,204.8 L677.4,206.7 L677.8,207.3 L678.0,207.3 L678.4,208.9 L679.9,210.3 L680.6,211.9 L680.8,211.9 L681.1,212.5 L681.8,213.0 L682.2,213.0 L683.0,214.2 L683.8,215.6 L684.9,217.6 L685.2,217.6 L685.6,217.9 L686.0,218.1 L686.7,218.5 L686.7,218.5 L687.1,218.7 L687.4,218.8 L687.7,218.9 L688.1,219.2 L688.2,219.2 L688.9,219.6 L689.4,220.0 L689.7,220.2 L690.7,221.1 L691.1,221.1 L691.7,221.0 L693.6,223.3 L694.1,224.4 L694.4,224.4 L694.6,224.7 L694.9,224.9 L695.3,224.9 L695.7,224.9 L696.0,224.9 L696.2,225.6 L696.4,225.6 L696.5,225.6 L696.9,226.5 L697.2,226.8 L698.6,227.8 L699.4,228.1 L699.7,228.3 L700.1,228.6 L700.8,229.2 L701.4,229.4 L702.4,230.1 L702.6,230.3 L702.9,230.3 L703.2,230.3 L703.6,230.6 L704.0,230.8 L704.3,230.7 L705.6,231.3 L706.1,231.5 L706.5,231.5 L707.0,232.2 L707.5,232.5 L707.9,233.2 L708.3,233.5 L708.9,234.1 L709.3,234.2 L709.7,234.4 L709.9,234.7 L710.1,234.7 L710.3,234.7 L710.4,234.7 L710.6,234.8 L710.9,234.9 L711.4,234.9 L712.1,235.1 L712.1,235.1 L712.2,235.1 L712.3,235.1 L712.4,235.1 L712.4,235.1 L712.7,235.1 L712.8,235.2 L713.2,235.2 L713.8,235.3 L714.0,235.3 L714.3,235.4 L714.5,235.4 L715.1,236.2 L716.7,237.7 L717.3,238.9 L717.7,239.5 L718.7,239.8 L719.2,240.1 L719.4,240.1 L719.8,240.2 L720.6,240.4 L720.9,240.6 L721.0,240.6 L721.4,240.7 L722.7,240.8 L723.1,241.0 L723.7,241.3 L723.9,241.6 L724.3,241.6 L724.8,241.8 L725.4,242.0 L726.1,242.7 L726.3,243.0 L727.0,243.7 L727.3,244.0 L727.8,244.2 L728.3,244.1 L728.5,244.2 L728.6,244.3 L729.1,244.4 L729.5,244.7 L729.8,245.0 L730.5,245.4 L730.9,245.5 L731.1,245.5 L731.6,245.5 L731.8,245.5 L732.0,245.5 L732.3,245.5 L732.5,245.5 L732.6,245.5 L732.9,245.5 L733.3,245.4 L733.4,245.1 L733.6,245.1 L734.0,245.1 L734.4,244.7 L734.6,244.6 L735.7,243.3 L735.8,243.0 L736.5,241.0 L737.5,238.7 L738.4,236.9 L739.8,235.1 L740.1,234.0 L741.9,231.6 L742.7,229.8 L742.9,229.8 L744.0,228.8 L744.4,227.0 L745.7,224.3 L746.5,222.4 L747.1,221.1 L748.3,218.2 L749.7,216.4 L750.2,212.9 L752.2,208.0 L752.4,208.0 L752.6,208.0 L753.2,207.1 L754.1,204.9 L754.5,203.8 L755.8,198.6 L756.3,198.6 L756.9,195.9 L758.0,191.5 L759.3,189.9 L759.7,190.3 L760.0,190.8 L760.2,190.8 L760.4,190.8 L760.7,191.1 L761.0,191.1 L761.4,191.1 L761.9,191.9 L762.1,192.7 L762.4,193.1 L762.9,196.0 L763.9,199.6 L764.5,204.3 L765.2,209.5 L766.1,213.1 L766.6,214.8 L766.7,215.2 L766.9,215.2 L767.1,216.1 L767.3,216.1 L767.6,216.5 L767.9,217.5 L768.1,217.8 L768.2,217.8 L768.3,217.8 L768.7,218.5 L769.0,219.3 L769.9,220.4 L770.1,220.5 L770.4,220.6 L771.1,221.2 L771.2,221.2 L771.4,221.4 L771.9,221.4 L772.2,221.9 L773.2,223.0 L773.8,223.4 L774.4,223.8 L774.5,223.8 L774.6,224.1 L774.8,224.1 L774.9,224.4 L775.0,224.4 L775.5,224.4 L775.6,224.4 L775.7,224.7 L775.8,224.7 L777.2,227.5 L778.5,233.9 L778.7,234.6 L778.8,234.6 L779.5,236.7 L780.1,237.5 L780.5,238.2 L780.7,238.2 L781.0,238.9 L781.5,241.2 L781.8,241.2 L781.9,241.7 L782.7,243.0 L783.9,244.7 L784.4,246.3 L785.3,248.6 L785.9,249.1 L786.6,251.0 L786.9,251.6 L787.5,252.0 L787.9,254.0 L788.5,254.7 L788.7,255.8 L789.3,257.8 L789.8,258.8 L790.3,261.3 L791.0,263.3 L791.6,264.6 L791.9,265.9 L792.3,267.1 L792.7,267.1 L793.4,268.1 L793.5,268.8 L793.7,268.8 L794.7,269.1 L795.5,271.2 L795.9,272.5 L797.5,277.9 L797.6,277.9 L798.2,278.7 L798.4,279.9 L798.8,279.9 L799.2,280.5 L799.5,280.5 L799.9,280.9 L800.9,281.3 L801.3,281.7 L802.0,281.8 L802.3,281.8 L802.9,281.8 L803.1,281.8 L803.7,281.6 L803.9,281.1 L804.1,281.8 L804.4,281.8 L806.4,286.8 L807.8,288.3 L808.2,287.8 L808.7,287.8 L808.8,287.8 L809.1,287.4 L810.7,287.0 L811.5,286.1 L812.1,286.1 L812.4,287.9 L813.0,291.4 L814.6,295.5 L814.9,296.8 L815.2,296.8 L815.4,296.8 L815.9,297.7 L816.1,297.7 L816.9,297.4 L817.1,297.4 L817.7,297.3 L818.0,297.2 L818.8,297.8 L819.0,298.4 L819.7,299.1 L820.5,301.2 L821.4,302.9 L821.6,303.8 L822.3,304.7 L822.8,304.7 L823.0,305.2 L823.7,305.4 L824.2,306.3 L825.4,306.9 L825.9,307.6 L826.3,307.8 L827.0,308.2 L827.3,308.2 L827.9,308.6 L828.1,308.6 L829.8,309.5 L830.4,309.8 L830.7,309.8 L831.0,309.8 L831.2,310.1 L831.6,310.5 L832.4,311.0 L833.4,312.2 L833.9,313.0 L834.6,314.1 L835.7,315.1 L836.0,315.3 L836.5,316.0 L836.8,316.0 L837.0,316.0 L837.4,316.6 L837.5,316.6 L837.7,316.7 L838.1,316.8 L838.6,317.4 L838.9,317.4 L839.5,318.2 L839.6,318.2 L840.0,318.7 L840.3,318.9 L841.0,319.2 L841.4,319.4 L841.8,319.4 L842.3,319.8 L842.6,320.0 L842.8,320.2 L843.0,320.3 L843.3,320.4 L843.7,320.7 L843.8,320.7 L844.3,321.1 L844.7,321.2 L845.1,321.4 L845.3,321.6 L845.7,321.7 L845.9,321.8 L846.1,321.7 L846.3,321.9 L846.6,321.7 L846.7,321.7 L847.0,321.8 L847.3,321.8 L847.6,321.7 L848.6,321.7 L849.0,321.5 L849.6,321.6 L851.5,322.8 L851.8,323.0 L852.8,323.3 L853.0,323.2 L853.2,323.2 L853.9,323.2 L854.1,323.2 L854.4,323.1 L854.6,323.1 L855.3,323.0 L855.7,323.0 L856.7,322.7 L857.5,322.4 L857.9,322.9 L858.7,323.3 L860.3,324.5 L861.0,325.4 L861.5,326.1 L862.0,326.4 L863.0,326.7 L864.3,328.0 L865.7,329.7 L867.5,330.2 L867.7,330.2 L871.9,332.3 L871.9,332.7 L872.0,332.7 L872.3,332.6 L872.7,332.6 L874.4,332.1 L874.7,332.2 L875.6,332.1 L875.7,332.1 L875.8,332.1 L875.9,332.1 L876.1,332.3 L876.9,332.4 L878.4,333.0 L878.9,333.2 L879.3,333.3 L879.6,333.3 L879.7,333.4 L879.9,333.4 L880.1,333.5 L880.7,333.6 L881.1,333.5 L881.7,333.7 L882.1,333.9 L882.4,334.3 L882.6,334.5 L883.8,334.8 L884.6,335.0 L884.8,335.1 L885.4,335.1 L885.8,335.1 L886.1,335.1 L886.2,335.2 L886.5,335.2 L886.7,335.2 L887.0,335.1 L887.1,335.1 L887.3,335.1 L887.5,335.1 L887.9,335.1 L888.7,335.0 L889.0,335.0 L889.3,335.0 L889.4,335.0 L890.1,334.9 L890.6,334.9 L891.6,334.8 L892.2,334.8 L893.7,334.8 L896.2,334.6 L898.3,334.6 L899.5,334.6 L900.8,334.5 L901.0,334.5 L904.0,334.1 L904.3,333.9 L904.4,333.9 L905.5,333.9 L905.7,333.9 L906.6,333.5 L908.5,332.5 L909.0,332.5 L909.4,331.5 L910.4,330.8 L910.5,330.8 L911.6,329.4 L911.8,329.4 L912.2,328.7 L912.2,328.7 L912.8,328.3 L913.1,327.6 L913.4,327.1 L913.9,326.7 L914.4,326.1 L915.3,324.4 L915.7,323.8 L916.1,323.7 L916.9,323.8 L917.2,324.0 L917.2,324.0 L917.7,324.1 L918.1,324.2 L918.4,324.5 L918.8,324.7 L918.9,324.7 L919.1,324.7 L919.6,324.8 L920.0,325.2 L920.4,325.4 L920.8,325.6 L921.0,325.3 L921.1,325.3 L923.4,322.5 L924.1,320.3 L924.7,319.8 L925.3,319.6 L925.9,319.0 L926.5,318.9 L926.7,318.7 L927.0,318.7 L927.7,318.6 L928.0,318.5 L928.3,318.5 L928.4,318.4 L928.5,318.4 L928.7,318.4 L929.2,318.3 L929.9,318.2 L930.7,318.2 L931.3,317.8 L932.1,317.5 L932.7,317.2 L933.3,316.2 L934.6,315.1 L935.3,314.3 L935.6,313.8 L936.1,312.8 L936.6,312.8 L937.8,311.1 L938.4,310.5 L939.1,309.5 L939.8,309.2 L940.3,308.5 L940.8,307.8 L941.0,306.9 L941.2,306.9 L941.9,306.7 L942.4,306.0 L942.9,305.4 L943.4,305.0 L944.6,302.9 L944.8,302.9 L945.1,302.7 L945.4,302.8 L946.7,302.6 L946.9,302.6 L948.3,299.0 L949.3,297.3 L950.4,296.7 L950.8,296.1 L951.0,296.1 L952.0,293.8 L954.2,289.2 L954.6,287.8 L954.9,287.8 L958.2,280.9 L958.6,278.9 L959.9,278.1 L961.0,276.3 L961.4,275.9 L961.9,274.2 L963.2,270.9 L963.9,267.2 L964.5,265.3 L965.0,264.9 L965.8,263.8 L966.5,262.2 L967.3,261.1 L968.0,260.5 L968.5,259.8 L968.7,259.0 L969.0,258.4 L971.1,255.6 L971.7,255.6 L972.0,255.6 L972.8,254.6 L973.7,253.9 L973.9,253.9 L974.8,251.5 L974.9,250.4 L975.1,250.4 L975.3,248.8 L976.0,248.0 L976.7,245.7 L977.0,245.7 L977.2,245.0 L977.6,242.3 L977.8,241.1 L979.1,239.9 L979.7,237.4 L979.9,237.4 L980.5,237.1 L981.6,235.2 L981.9,235.2 L982.1,235.2 L984.0,226.3 L984.8,222.8 L985.3,222.3 L986.1,221.9 L986.2,221.9 L986.3,221.7 L986.4,221.7 L986.5,221.3 L986.5,221.3 L986.9,220.9 L987.0,220.9 L987.1,220.4 L987.4,220.2 L987.5,219.6 L987.6,219.6 L987.9,218.7 L988.1,218.0 L988.3,216.9 L988.6,216.5 L989.2,214.7 L989.5,213.2 L989.8,211.6 L990.3,210.4 L990.4,209.7 L990.5,208.8 L990.6,208.8 L991.5,206.9 L991.7,204.4 L992.2,202.2 L994.1,196.0 L994.4,194.6 L994.8,192.7 L995.1,192.7 L995.9,191.6 L996.5,190.8 L997.1,191.2 L997.6,189.7 L998.3,189.2 L998.6,187.7 L998.9,187.7 L999.9,186.0 L1000.1,185.7 L1000.8,185.0 L1001.6,182.3 L1001.9,181.4 L1002.6,179.4 L1003.6,179.0 L1003.8,179.0 L1004.3,176.0 L1004.9,174.3 L1006.6,164.4 L1007.8,161.3 L1008.1,161.3 L1008.6,161.6 L1008.8,161.6 L1009.3,161.3 L1009.6,161.7 L1010.1,162.2 L1011.0,163.2 L1011.9,166.1 L1012.4,167.7 L1012.8,168.8 L1013.5,169.9 L1014.1,170.8 L1014.4,171.3 L1014.6,171.3 L1015.1,172.7 L1015.4,173.3 L1016.3,174.8 L1016.6,174.8 L1017.3,177.6 L1017.5,177.6 L1017.9,179.5 L1018.4,180.3 L1019.5,184.2 L1019.6,184.2 L1020.2,186.0 L1020.4,186.7 L1021.0,188.1 L1021.3,188.5 L1021.4,188.5 L1021.6,188.5 L1021.7,188.5 L1022.2,189.4 L1022.9,190.9 L1023.1,190.9 L1023.5,192.4 L1025.3,200.7 L1025.7,203.1 L1026.0,203.9 L1026.3,203.8 L1026.6,203.7 L1026.9,203.7 L1027.2,203.7 L1027.4,203.7 L1027.8,203.9 L1028.0,203.9 L1028.2,204.0 L1028.6,204.3 L1028.9,204.3 L1030.1,204.0 L1030.9,206.6 L1032.5,208.2 L1032.9,207.4 L1033.0,207.4 L1033.2,207.4 L1033.4,206.7 L1035.0,204.8 L1035.2,204.3 L1035.8,200.8 L1036.6,198.5 L1037.3,196.0 L1037.8,194.4 L1038.3,192.3 L1039.4,188.3 L1039.6,186.8 L1039.7,186.8 L1040.5,184.0 L1041.0,182.7 L1041.5,182.7 L1041.8,182.7 L1041.9,182.1 L1042.0,182.1 L1042.2,179.6 L1042.7,177.9 L1043.0,177.2 L1043.2,176.6 L1044.6,170.2 L1045.0,168.7 L1045.1,168.1 L1045.3,167.1 L1045.8,164.7 L1046.0,164.7 L1046.1,164.4 L1046.3,164.4 L1046.9,163.7 L1047.2,162.8 L1047.5,162.4 L1047.8,160.7 L1048.4,159.3 L1048.7,158.3 L1049.4,157.8 L1049.7,157.4 L1050.0,156.7 L1050.2,155.8 L1050.3,155.3 L1050.8,154.3 L1051.0,153.7 L1051.5,152.3 L1052.6,149.0 L1053.1,147.1 L1053.8,145.4 L1054.1,143.7 L1054.5,143.2 L1054.9,142.6 L1055.4,141.5 L1056.4,139.9 L1056.7,139.2 L1057.0,138.7 L1057.6,138.4 L1058.0,137.9 L1058.4,137.8 L1059.1,137.6 L1059.5,137.6 L1060.5,136.9 L1061.9,134.2 L1062.2,134.2 L1062.5,134.2 L1063.6,133.7 L1064.2,133.7 L1067.0,131.9 L1068.5,131.7 L1069.0,131.7 L1070.3,131.5 L1071.5,131.0 L1071.7,130.8 L1071.8,130.7 L1072.2,130.5 L1072.8,130.3 L1073.2,129.9 L1073.5,129.6 L1073.9,129.5 L1073.9,129.5 L1074.1,129.2 L1074.2,129.0 L1074.5,128.6 L1074.7,128.5 L1075.6,127.8 L1075.9,127.6 L1076.0,127.3 L1076.7,126.0 L1077.3,125.3 L1077.6,125.4 L1078.6,125.6 L1079.1,125.6 L1079.6,125.6 L1080.0,125.7 L1080.3,125.9 L1080.6,125.9 L1080.8,125.9 L1083.5,124.7 L1084.8,124.7 L1085.8,125.3 L1086.5,127.2 L1087.0,128.3 L1087.6,130.9 L1088.6,133.2 L1089.1,134.5 L1089.5,135.9 L1090.0,136.2 L1090.5,137.5 L1090.8,137.5 L1091.5,138.4 L1091.8,138.8 L1092.5,139.8 L1092.8,140.6 L1093.4,141.8 L1094.7,143.9 L1095.2,144.5 L1095.7,144.9 L1096.2,145.1 L1096.6,145.1 L1096.9,145.1 L1098.1,146.3 L1100.6,150.7 L1101.8,152.9 L1102.6,154.2 L1102.9,154.4 L1103.3,155.0 L1103.5,155.0 L1104.4,155.8 L1104.9,156.1 L1105.3,157.7 L1105.5,158.7 L1106.1,160.6 L1106.6,160.6 L1106.9,160.8 L1107.4,162.1 L1107.6,163.0 L1107.9,163.6 L1108.1,164.5 L1108.4,164.5 L1109.5,169.8 L1109.9,170.8 L1111.5,173.1 L1111.7,173.0 L1111.9,173.0 L1112.1,173.2 L1112.7,173.5 L1113.2,175.0 L1113.5,175.0 L1113.8,175.5 L1114.0,175.9 L1114.6,176.9 L1115.3,177.5 L1115.5,178.3 L1116.0,181.0 L1116.2,181.8 L1116.6,183.7 L1116.8,184.6 L1117.8,187.5 L1118.0,188.8 L1118.4,188.8 L1118.8,191.4 L1119.2,193.5 L1119.4,194.8 L1119.9,194.8 L1120.4,196.8 L1120.9,200.0 L1121.5,202.8 L1122.7,209.9 L1123.3,212.5 L1123.6,213.5 L1123.9,213.5 L1124.4,215.0 L1124.6,215.6 L1124.8,216.1 L1125.0,216.1 L1125.3,217.4 L1125.8,217.4 L1126.6,221.0 L1126.9,221.8 L1127.2,222.1 L1127.5,222.6 L1128.4,224.1 L1128.5,224.1 L1128.6,224.1 L1128.8,224.1 L1128.9,224.7 L1129.1,225.1 L1129.3,225.7 L1130.1,226.5 L1130.8,227.1 L1131.3,228.7 L1131.7,231.7 L1132.8,235.7 L1133.8,239.5 L1134.2,240.4 L1135.2,241.0 L1135.4,242.6 L1135.5,242.6 L1136.2,243.3 L1137.0,247.1 L1137.8,248.6 L1138.2,250.0 L1138.9,253.0 L1139.1,253.0 L1139.4,253.7 L1140.0,254.6 L1140.9,257.9 L1141.0,257.9 L1141.7,259.9 L1142.6,262.2 L1143.1,262.2 L1143.8,264.8 L1144.9,266.9 L1145.6,268.1 L1146.1,268.1 L1146.4,268.8 L1147.1,268.8 L1147.8,269.3 L1148.8,269.1 L1149.8,270.3 L1151.4,275.8 L1151.7,275.8 L1152.4,276.9 L1152.7,276.9 L1152.8,277.5 L1153.2,277.5 L1155.2,284.5 L1156.8,288.9 L1156.9,289.5 L1157.3,290.3 L1157.5,290.3 L1158.4,291.7 L1159.1,291.8 L1159.2,291.8 L1159.3,292.3 L1159.4,292.8 L1159.4,292.8 L1160.1,293.2 L1160.3,293.2 L1160.6,293.2 L1160.9,293.3 L1161.1,293.5 L1161.8,293.4 L1163.2,293.1 L1163.4,293.1 L1163.7,293.0 L1164.1,293.1 L1164.6,293.8 L1164.9,294.1 L1165.3,294.1 L1165.4,294.4 L1165.9,294.6 L1166.2,295.0 L1166.8,295.5 L1167.0,295.5 L1167.2,296.3 L1167.7,297.0 L1168.0,297.9 L1168.3,298.5 L1169.2,299.1 L1169.5,299.4 L1170.3,299.6 L1170.4,299.6 L1170.6,299.7 L1170.8,299.8 L1171.1,299.9 L1171.7,299.8 L1172.2,299.7 L1172.8,299.6 L1173.1,299.3 L1173.4,299.1 L1173.8,299.0 L1174.1,299.0 L1174.6,298.5 L1174.8,298.0 L1175.4,297.9 L1175.7,297.7 L1177.0,297.1 L1177.2,296.8 L1177.9,296.3 L1178.1,296.3 L1178.4,296.2 L1178.9,296.2 L1179.8,296.9 L1181.1,296.0 L1182.0,295.7 L1182.4,295.7 L1182.9,295.7 L1183.6,295.7 L1183.8,295.6 L1184.2,295.6 L1185.1,295.6 L1186.1,295.5 L1186.5,295.5 L1187.1,295.5 L1187.5,295.5 L1187.9,295.1 L1190.3,293.1 L1190.5,292.4 L1190.9,292.1 L1191.2,292.1 L1191.6,291.8 L1191.8,291.8 L1192.3,291.9 L1192.8,291.7 L1193.3,291.5 L1193.7,291.2 L1194.6,291.0 L1194.8,290.8 L1195.1,290.8 L1195.5,290.6 L1195.9,290.7 L1196.9,290.1 L1197.2,289.7 L1197.3,289.5 L1197.9,289.3 L1198.9,288.7 L1199.2,288.7 L1199.6,288.2 L1199.9,287.3 L1201.8,286.8 L1202.1,286.6 L1202.6,286.2 L1203.6,285.1 L1205.2,284.2 L1206.0,284.6 L1206.5,284.6 L1207.6,284.5 L1208.2,284.0 L1208.4,284.0 L1208.7,283.6 L1209.9,282.9 L1210.2,282.5 L1210.6,282.5 L1211.0,281.6 L1211.5,281.1 L1212.2,281.5 L1212.5,281.3 L1213.7,281.7 L1214.2,281.6 L1214.5,281.5 L1214.9,281.6 L1215.2,281.7 L1216.2,281.7 L1216.6,282.0 L1216.8,282.1 L1216.8,282.1 L1217.3,282.2 L1219.0,281.7 L1219.1,281.8 L1219.3,281.6 L1219.4,281.6 L1220.8,281.5 L1221.1,281.5 L1221.6,280.3 L1224.0,279.9 L1224.2,279.9 L1224.6,279.4 L1225.5,279.1 L1225.7,279.1 L1226.1,278.8 L1226.3,278.8 L1226.6,278.6 L1226.9,277.8 L1227.9,276.9 L1228.5,276.3 L1229.1,274.9 L1229.9,275.1 L1231.5,275.2 L1232.1,275.5 L1232.8,275.7 L1233.2,275.5 L1233.7,275.4 L1234.0,275.1 L1234.4,274.8 L1234.7,274.0 L1235.3,273.0 L1235.7,272.0 L1235.9,271.0 L1236.3,270.1 L1236.9,269.6 L1237.1,269.2 L1237.4,269.0 L1237.8,268.9 L1238.1,268.4 L1238.6,268.2 L1239.1,269.0 L1239.6,269.6 L1240.1,270.3 L1240.8,272.2 L1241.2,272.8 L1241.4,272.8 L1241.5,272.8 L1241.7,272.9 L1242.0,272.7 L1242.4,272.5 L1242.6,272.5 L1243.0,272.5 L1244.0,271.1 L1244.3,268.4 L1244.7,267.9 L1246.0,265.3 L1246.5,264.2 L1246.6,263.8 L1246.7,263.8 L1247.3,262.0 L1248.6,261.5 L1249.0,261.4 L1250.0,260.8 L1250.4,260.8 L1253.0,256.2 L1253.7,255.7 L1254.0,254.3 L1254.3,253.1 L1254.5,253.1 L1255.1,253.0 L1255.3,253.0 L1256.2,252.3 L1256.4,252.3 L1256.5,251.9 L1256.6,251.9 L1256.7,251.9 L1257.0,250.8 L1257.5,249.8 L1258.7,248.3 L1259.4,247.3 L1259.9,246.7 L1260.2,246.1 L1260.5,246.1 L1260.9,246.0 L1261.2,245.6 L1261.4,245.6 L1261.8,244.9 L1262.2,244.4 L1262.3,244.4 L1262.6,244.0 L1263.0,243.8 L1263.9,243.0 L1264.1,243.0 L1264.3,242.7 L1264.9,242.0 L1265.0,242.0 L1265.2,241.6 L1265.3,241.6 L1265.7,241.2 L1265.8,241.0 L1266.0,240.9 L1266.7,240.5 L1267.0,240.2 L1267.4,240.2 L1267.5,240.2 L1267.8,239.8 L1267.9,239.8 L1268.2,239.6 L1268.3,239.4 L1268.8,236.9 L1269.0,236.9 L1269.2,236.2 L1270.8,232.4 L1271.0,232.4 L1271.1,232.4 L1271.6,231.6 L1272.1,230.9 L1272.3,230.8 L1272.8,230.5 L1273.0,230.5 L1273.7,230.4 L1274.4,229.5 L1274.7,228.4 L1275.1,227.5 L1275.6,226.2 L1276.3,224.7 L1276.9,223.0 L1277.4,221.5 L1278.7,218.9 L1279.0,218.5 L1279.2,218.1 L1279.5,217.1 L1279.6,216.8 L1280.1,216.0 L1280.3,215.7 L1280.6,215.5 L1281.5,214.1 L1281.6,213.4 L1281.8,213.4 L1282.0,213.0 L1282.2,212.5 L1282.7,212.1 L1282.9,211.8 L1283.4,211.4 L1283.8,211.4 L1284.1,211.0 L1284.6,209.9 L1284.8,209.7 L1285.0,209.7 L1285.3,209.0 L1285.5,207.9 L1286.4,206.2 L1286.8,205.5 L1287.0,205.5 L1287.6,203.5 L1287.8,202.5 L1287.9,202.5 L1288.0,201.9 L1288.2,201.9 L1288.4,201.9 L1289.1,201.1 L1289.9,199.5 L1290.2,199.0 L1290.9,195.7 L1292.1,195.1 L1292.7,194.2 L1293.3,194.1 L1294.4,192.7 L1294.9,192.3 L1295.2,191.5 L1296.2,191.4 L1296.5,191.4 L1297.5,189.5 L1299.0,186.6 L1300.0,186.6 L1300.6,185.6 L1301.0,184.8 L1301.1,184.8 L1301.2,184.8 L1301.4,184.1 L1302.6,183.1 L1303.0,181.0 L1303.9,176.4 L1305.1,174.6 L1305.3,174.6 L1305.5,174.2 L1305.6,174.2 L1305.7,174.2 L1305.8,174.2 L1306.4,173.8 L1307.0,174.1 L1307.5,173.9 L1307.6,173.9 L1308.4,173.7 L1309.0,173.3 L1309.1,173.3 L1309.2,173.3 L1309.4,173.3 L1309.8,172.9 L1310.4,171.8 L1310.9,171.3 L1312.2,167.0 L1312.4,166.6 L1312.5,166.6 L1312.7,166.6 L1312.9,166.1 L1313.4,164.9 L1313.7,164.9 L1313.9,164.5 L1314.1,163.9 L1315.6,159.6 L1315.8,159.2 L1316.2,157.6 L1316.6,156.9 L1316.7,156.5 L1317.5,156.2 L1317.9,156.2 L1318.1,155.8 L1318.4,155.3 L1318.6,155.3 L1318.9,154.9 L1319.4,154.4 L1319.6,154.4 L1322.6,147.5 L1323.1,146.5 L1323.6,146.5 L1324.1,145.8 L1324.3,145.0 L1324.6,143.8 L1324.9,143.4 L1326.1,141.5 L1326.6,141.1 L1326.8,140.6 L1327.0,140.9 L1327.2,140.8 L1327.5,140.8 L1327.8,140.8 L1328.0,141.0 L1328.2,141.3 L1328.5,142.0 L1329.3,143.4 L1329.6,143.8 L1329.8,144.1 L1330.4,144.9 L1330.5,145.4 L1330.7,145.7 L1330.8,145.7 L1331.0,146.0 L1331.2,146.0 L1331.6,146.0 L1332.3,147.0 L1332.9,147.3 L1334.6,149.6 L1335.4,152.2 L1335.8,152.7 L1336.2,153.4 L1336.5,154.0 L1336.7,154.4 L1337.5,155.5 L1337.8,155.5 L1338.0,156.4 L1338.4,157.0 L1338.6,157.5 L1339.2,158.2 L1339.3,158.9 L1339.6,158.9 L1339.7,158.9 L1340.4,159.5 L1341.3,162.5 L1341.8,163.6 L1342.2,165.7 L1343.2,169.2 L1343.3,169.2 L1343.6,169.2 L1344.0,169.9 L1344.7,172.4 L1344.9,172.4 L1345.0,172.6 L1345.2,172.6 L1345.4,172.6 L1346.5,173.9 L1346.8,174.4" fill="transparent" id="track" stroke="black" stroke-linejoin="miter" stroke-miterlimit="1" stroke-width="2"/>
<g>
<g>
<circle cx="882.6140096429942" cy="334.58804999999995" fill="Blue" id="0/wp" r="5"/>
</g>
<g transform="translate(882.6140096429942 334.58804999999995)">
<rect fill="white" fill-opacity="0.75" height="12" id="label-bg" width="71.22105263157891" x="-35.61052631578946" y="-327.58804999999995"/>
<text font-size="16.0" id="0/wp/text" text-anchor="start" x="-35.611" y="-315.588">
K2 (12:53)
</text>
</g>
<path d="M882.61,23.00 L905.69,325.73 L882.61,332.59" fill="transparent" id="link" stroke="black" stroke-linejoin="miter" stroke-miterlimit="1"/>
<g>
<circle cx="364.8191215688331" cy="101.1687" fill="Blue" id="1/wp" r="5"/>
</g>
<g transform="translate(364.8191215688331 101.1687)">
<rect fill="white" fill-opacity="0.75" height="12" id="label-bg" width="71.22105263157897" x="-35.61052631578946" y="-94.1687"/>
<text font-size="16.0" id="1/wp/text" text-anchor="start" x="-35.611" y="-82.169">
K1 (10:04)
</text>
</g>
<path d="M364.82,23.00 L364.82,99.17" fill="transparent" id="link" stroke="black" stroke-linejoin="miter" stroke-miterlimit="1"/>
<g>
<circle cx="0" cy="163.6911" fill="Blue" id="2/wp" r="5"/>
</g>
<g transform="translate(0 163.6911)">
<rect fill="white" fill-opacity="0.75" height="12" id="label-bg" width="86.37894736842107" x="2" y="-156.6911"/>
<text font-size="16.0" id="2/wp/text" text-anchor="start" x="2.000" y="-144.691">
Start (08:05)
</text>
</g>
<path d="M0.00,23.00 L0.00,161.69" fill="transparent" id="link" stroke="black" stroke-linejoin="miter" stroke-miterlimit="1"/>
<g>
<circle cx="615.5870044327199" cy="131.03175" fill="Black" id="3/wp" r="3"/>
</g>
<g transform="translate(615.5870044327199 131.03175)">
<rect fill="white" fill-opacity="0.75" height="12" id="label-bg" width="36.73684210526316" x="4" y="-16"/>
<text font-size="16.0" id="3/wp/text" text-anchor="start" x="4.000" y="-4.000">
11:26
</text>
</g>
<g>
<circle cx="860.9567375918853" cy="325.7331" fill="Black" id="4/wp" r="3"/>
</g>
<g transform="translate(860.9567375918853 325.7331)">
<rect fill="white" fill-opacity="0.75" height="12" id="label-bg" width="36.73684210526316" x="4" y="-16"/>
<text font-size="16.0" id="4/wp/text" text-anchor="start" x="4.000" y="-4.000">
12:46
</text>
</g>
<g>
<circle cx="369.1821002496154" cy="104.21595000000002" fill="Black" id="5/wp" r="3"/>
</g>
<g transform="translate(369.1821002496154 104.21595000000002)">
<rect fill="white" fill-opacity="0.75" height="12" id="label-bg" width="36.73684210526316" x="-40.73684210526316" y="4"/>
<text font-size="16.0" id="5/wp/text" text-anchor="end" x="-4.000" y="16.000">
10:05
</text>
</g>
<g>
<circle cx="246.28830695710192" cy="95.46855" fill="Black" id="6/wp" r="3"/>
</g>
<g transform="translate(246.28830695710192 95.46855)">
<rect fill="white" fill-opacity="0.75" height="12" id="label-bg" width="36.73684210526316" x="-40.73684210526316" y="-16"/>
<text font-size="16.0" id="6/wp/text" text-anchor="end" x="-4.000" y="-4.000">
09:25
</text>
</g>
<g>
<circle cx="122.8735627158819" cy="150.67755" fill="Black" id="7/wp" r="3"/>
</g>
<g transform="translate(122.8735627158819 150.67755)">
<rect fill="white" fill-opacity="0.75" height="12" id="label-bg" width="36.73684210526316" x="4" y="4"/>
<text font-size="16.0" id="7/wp/text" text-anchor="start" x="4.000" y="16.000">
08:45
</text>
</g>
<g>
<circle cx="365.13729925784315" cy="100.77434999999997" fill="Black" id="8/wp" r="5"/>
<circle cx="365.13729925784315" cy="100.77434999999997" fill="white" id="8/wp-little-white" r="3.5"/>
<circle cx="365.13729925784315" cy="100.77434999999997" fill="black" id="8/wp-little-white" r="2.5"/>
</g>
<g transform="translate(365.13729925784315 100.77434999999997)">
<rect fill="white" fill-opacity="0.75" height="12" id="label-bg" width="80.03157894736842" x="-40.01578947368421" y="24"/>
<text font-size="16.0" id="8/wp/text" text-anchor="start" x="-40.016" y="36.000">
Furtwangen
</text>
</g>
<path d="M365.14,120.77 L365.14,102.77" fill="transparent" id="link" stroke="black" stroke-linejoin="miter" stroke-miterlimit="1"/>
<g>
<circle cx="1327.4785186142885" cy="139.06214999999997" fill="Green" id="9/wp" r="3"/>
</g>
<g transform="translate(1327.4785186142885 139.06214999999997)">
<rect fill="white" fill-opacity="0.75" height="12" id="label-bg" width="78.61052631578947" x="-82.61052631578947" y="-16"/>
<text font-size="16.0" id="9/wp/text" text-anchor="end" x="-4.000" y="-4.000">
Freiersberg
</text>
</g>
<g>
<circle cx="491.8209316271995" cy="48.935249999999996" fill="Black" id="11/wp" r="3"/>
</g>
<g transform="translate(491.8209316271995 48.935249999999996)">
<rect fill="white" fill-opacity="0.75" height="12" id="label-bg" width="36.73684210526316" x="4" y="-16"/>
<text font-size="16.0" id="11/wp/text" text-anchor="start" x="4.000" y="-4.000">
10:45
</text>
</g>
<g>
<circle cx="738.4382915284873" cy="236.1798" fill="Black" id="12/wp" r="3"/>
</g>
<g transform="translate(738.4382915284873 236.1798)">
<rect fill="white" fill-opacity="0.75" height="12" id="label-bg" width="36.73684210526316" x="-18.36842105263158" y="24"/>
<text font-size="16.0" id="12/wp/text" text-anchor="start" x="-18.368" y="36.000">
12:06
</text>
</g>
<path d="M738.44,256.18 L738.44,238.18" fill="transparent" id="link" stroke="black" stroke-linejoin="miter" stroke-miterlimit="1"/>
<g>
<circle cx="983.987119825206" cy="227.46824999999998" fill="Black" id="13/wp" r="3"/>
</g>
<g transform="translate(983.987119825206 227.46824999999998)">
<rect fill="white" fill-opacity="0.75" height="12" id="label-bg" width="36.73684210526316" x="-40.73684210526316" y="-16"/>
<text font-size="16.0" id="13/wp/text" text-anchor="end" x="-4.000" y="-4.000">
13:26
</text>
</g>
<g>
<circle cx="1106.6380546468326" cy="158.34945" fill="Black" id="14/wp" r="3"/>
</g>
<g transform="translate(1106.6380546468326 158.34945)">
<rect fill="white" fill-opacity="0.75" height="12" id="label-bg" width="36.73684210526316" x="4" y="-16"/>
<text font-size="16.0" id="14/wp/text" text-anchor="start" x="4.000" y="-4.000">
14:06
</text>
</g>
<g>
<circle cx="1229.8823459380474" cy="271.77885" fill="Black" id="15/wp" r="3"/>
</g>
<g transform="translate(1229.8823459380474 271.77885)">
<rect fill="white" fill-opacity="0.75" height="12" id="label-bg" width="36.73684210526316" x="-40.73684210526316" y="-16"/>
<text font-size="16.0" id="15/wp/text" text-anchor="end" x="-4.000" y="-4.000">
14:46
</text>
</g>
<g>
<circle cx="841.4073154931933" cy="320.03294999999997" fill="Black" id="17/wp" r="4"/>
<circle cx="841.4073154931933" cy="320.03294999999997" fill="white" id="17/wp-little-white" r="2.5"/>
</g>
<g transform="translate(841.4073154931933 320.03294999999997)">
<rect fill="white" fill-opacity="0.75" height="12" id="label-bg" width="83.34736842105264" x="-87.34736842105264" y="4"/>
<text font-size="16.0" id="17/wp/text" text-anchor="end" x="-4.000" y="16.000">
Mühlenbach
</text>
</g>
<g>
<circle cx="1170.3723048998381" cy="300.24375" fill="Black" id="20/wp" r="4"/>
<circle cx="1170.3723048998381" cy="300.24375" fill="white" id="20/wp-little-white" r="2.5"/>
</g>
<g transform="translate(1170.3723048998381 300.24375)">
<rect fill="white" fill-opacity="0.75" height="12" id="label-bg" width="38.347368421052636" x="-42.347368421052636" y="4"/>
<text font-size="16.0" id="20/wp/text" text-anchor="end" x="-4.000" y="16.000">
Walke
</text>
</g>
<g>
<circle cx="61.30526227318352" cy="157.9551" fill="Black" id="21/wp" r="4"/>
<circle cx="61.30526227318352" cy="157.9551" fill="white" id="21/wp-little-white" r="2.5"/>
</g>
<g transform="translate(61.30526227318352 157.9551)">
<rect fill="white" fill-opacity="0.75" height="12" id="label-bg" width="89.22105263157894" x="-44.61052631578947" y="24"/>
<text font-size="16.0" id="21/wp/text" text-anchor="start" x="-44.611" y="36.000">
Wolterdingen
</text>
</g>
<path d="M61.31,177.96 L61.31,159.96" fill="transparent" id="link" stroke="black" stroke-linejoin="miter" stroke-miterlimit="1"/>
<g>
<circle cx="579.5583228890189" cy="71.62829999999997" fill="Gray" id="22/wp" r="2"/>
<circle cx="579.5583228890189" cy="71.62829999999997" fill="white" id="22/wp-little-white" r="0.5"/>
</g>
<g transform="translate(579.5583228890189 71.62829999999997)">
<rect fill="white" fill-opacity="0.75" height="12" id="label-bg" width="71.03157894736843" x="4" y="-16"/>
<text font-size="16.0" id="22/wp/text" text-anchor="start" x="4.000" y="-4.000">
Rotenberg
</text>
</g>
<g>
<circle cx="495.66301112706276" cy="46.60500000000002" fill="Gray" id="23/wp" r="2"/>
<circle cx="495.66301112706276" cy="46.60500000000002" fill="white" id="23/wp-little-white" r="0.5"/>
</g>
<g transform="translate(495.66301112706276 46.60500000000002)">
<rect fill="white" fill-opacity="0.75" height="12" id="label-bg" width="38.347368421052636" x="-19.173684210526318" y="24"/>
<text font-size="16.0" id="23/wp/text" text-anchor="start" x="-19.174" y="36.000">
Vogte
</text>
</g>
<path d="M495.66,66.61 L495.66,48.61" fill="transparent" id="link" stroke="black" stroke-linejoin="miter" stroke-miterlimit="1"/>
<g>
<circle cx="687.3558073818186" cy="218.5416" fill="Gray" id="24/wp" r="2"/>
<circle cx="687.3558073818186" cy="218.5416" fill="white" id="24/wp-little-white" r="0.5"/>
</g>
<g transform="translate(687.3558073818186 218.5416)">
<rect fill="white" fill-opacity="0.75" height="12" id="label-bg" width="62.505263157894746" x="-66.50526315789475" y="4"/>
<text font-size="16.0" id="24/wp/text" text-anchor="end" x="-4.000" y="16.000">
Im Grund
</text>
</g>
<g>
<circle cx="815.9262077452394" cy="297.23235" fill="Gray" id="25/wp" r="2"/>
<circle cx="815.9262077452394" cy="297.23235" fill="white" id="25/wp-little-white" r="0.5"/>
</g>
<g transform="translate(815.9262077452394 297.23235)">
<rect fill="white" fill-opacity="0.75" height="12" id="label-bg" width="66.67368421052632" x="4" y="-16"/>
<text font-size="16.0" id="25/wp/text" text-anchor="start" x="4.000" y="-4.000">
Eichhalde
</text>
</g>
<g>
<circle cx="799.8573000954007" cy="282.10365" fill="Gray" id="26/wp" r="2"/>
<circle cx="799.8573000954007" cy="282.10365" fill="white" id="26/wp-little-white" r="0.5"/>
</g>
<g transform="translate(799.8573000954007 282.10365)">
<rect fill="white" fill-opacity="0.75" height="12" id="label-bg" width="91.21052631578948" x="-95.21052631578948" y="4"/>
<text font-size="16.0" id="26/wp/text" text-anchor="end" x="-4.000" y="16.000">
Oberbüchern
</text>
</g>
<g>
<circle cx="711.4337880266829" cy="235.176" fill="Gray" id="28/wp" r="2"/>
<circle cx="711.4337880266829" cy="235.176" fill="white" id="28/wp-little-white" r="0.5"/>
</g>
<g transform="translate(711.4337880266829 235.176)">
<rect fill="white" fill-opacity="0.75" height="12" id="label-bg" width="137.9157894736842" x="-141.9157894736842" y="4"/>
<text font-size="16.0" id="28/wp/text" text-anchor="end" x="-4.000" y="16.000">
Vor dem Wittenbach
</text>
</g>
<g>
<circle cx="945.398054741119" cy="304.54575" fill="Gray" id="29/wp" r="2"/>
<circle cx="945.398054741119" cy="304.54575" fill="white" id="29/wp-little-white" r="0.5"/>
</g>
<g transform="translate(945.398054741119 304.54575)">
<rect fill="white" fill-opacity="0.75" height="12" id="label-bg" width="51.515789473684215" x="4" y="4"/>
<text font-size="16.0" id="29/wp/text" text-anchor="start" x="4.000" y="16.000">
Mitteltal
</text>
</g>
<g>
<circle cx="260.2488804915805" cy="92.34960000000001" fill="Gray" id="30/wp" r="2"/>
<circle cx="260.2488804915805" cy="92.34960000000001" fill="white" id="30/wp-little-white" r="0.5"/>
</g>
<g transform="translate(260.2488804915805 92.34960000000001)">
<rect fill="white" fill-opacity="0.75" height="12" id="label-bg" width="43.55789473684211" x="4" y="4"/>
<text font-size="16.0" id="30/wp/text" text-anchor="start" x="4.000" y="16.000">
Linach
</text>
</g>
<g>
<circle cx="431.5154448466094" cy="83.42295000000001" fill="Gray" id="31/wp" r="2"/>
<circle cx="431.5154448466094" cy="83.42295000000001" fill="white" id="31/wp-little-white" r="0.5"/>
</g>
<g transform="translate(431.5154448466094 83.42295000000001)">
<rect fill="white" fill-opacity="0.75" height="12" id="label-bg" width="54.83157894736843" x="-58.83157894736843" y="-16"/>
<text font-size="16.0" id="31/wp/text" text-anchor="end" x="-4.000" y="-4.000">
Schweiz
</text>
</g>
<g>
<circle cx="1185.09881429861" cy="295.94174999999996" fill="Gray" id="32/wp" r="2"/>
<circle cx="1185.09881429861" cy="295.94174999999996" fill="white" id="32/wp-little-white" r="0.5"/>
</g>
<g transform="translate(1185.09881429861 295.94174999999996)">
<rect fill="white" fill-opacity="0.75" height="12" id="label-bg" width="49.71578947368421" x="4" y="4"/>
<text font-size="16.0" id="32/wp/text" text-anchor="start" x="4.000" y="16.000">
Obertal
</text>
</g>
<g>
<circle cx="181.32602634075909" cy="138.81119999999999" fill="Gray" id="34/wp" r="2"/>
<circle cx="181.32602634075909" cy="138.81119999999999" fill="white" id="34/wp-little-white" r="0.5"/>
</g>
<g transform="translate(181.32602634075909 138.81119999999999)">
<rect fill="white" fill-opacity="0.75" height="12" id="label-bg" width="83.34736842105264" x="4" y="4"/>
<text font-size="16.0" id="34/wp/text" text-anchor="start" x="4.000" y="16.000">
Bregenbach
</text>
</g>
<g>
<circle cx="1266.9513406546616" cy="241.19879999999998" fill="Gray" id="36/wp" r="2"/>
<circle cx="1266.9513406546616" cy="241.19879999999998" fill="white" id="36/wp-little-white" r="0.5"/>
</g>
<g transform="translate(1266.9513406546616 241.19879999999998)">
<rect fill="white" fill-opacity="0.75" height="12" id="label-bg" width="102.95789473684212" x="-106.95789473684212" y="-16"/>
<text font-size="16.0" id="36/wp/text" text-anchor="end" x="-4.000" y="-4.000">
Wildschapbach
</text>
</g>
<g>
<circle cx="111.33725930510634" cy="149.45864999999998" fill="Gray" id="37/wp" r="2"/>
<circle cx="111.33725930510634" cy="149.45864999999998" fill="white" id="37/wp-little-white" r="0.5"/>
</g>
<g transform="translate(111.33725930510634 149.45864999999998)">
<rect fill="white" fill-opacity="0.75" height="12" id="label-bg" width="73.30526315789474" x="-77.30526315789474" y="-16"/>
<text font-size="16.0" id="37/wp/text" text-anchor="end" x="-4.000" y="-4.000">
Zindelstein
</text>
</g>
</g>
</g>
<g id="SL" transform="translate(0 0)">
<text text-anchor="end" x="66" y="363.5">
150
</text>
<text text-anchor="end" x="66" y="327.65">
250
</text>
<text text-anchor="end" x="66" y="291.79999999999995">
350
</text>
<text text-anchor="end" x="66" y="255.95">
450
</text>
<text text-anchor="end" x="66" y="220.1">
550
</text>
<text text-anchor="end" x="66" y="184.25">
650
</text>
<text text-anchor="end" x="66" y="148.39999999999998">
750
</text>
<text text-anchor="end" x="66" y="112.55000000000001">
850
</text>
<text text-anchor="end" x="66" y="76.69999999999999">
950
</text>
<text text-anchor="end" x="66" y="40.849999999999966">
1050
</text>
<text text-anchor="end" x="66" y="5">
1150
</text>
</g>
</g>
</svg>