<svg height="400" width="1420" xmlns="http://www.w3.org/2000/svg">
<g font-size="18" id="world" shape-rendering="crispEdges">
<g id="BG"/>
<g id="SB" transform="translate(71 360)">
<text text-anchor="middle" x="0" y="17">
200
</text>
<text text-anchor="middle" x="245" y="17">
220
</text>
<text text-anchor="middle" x="490" y="17">
240
</text>
<text text-anchor="middle" x="735" y="17">
260
</text>
<text text-anchor="middle" x="980" y="17">
280
</text>
<text text-anchor="middle" x="1225" y="17">
300
</text>
</g>
<g id="SD" transform="translate(71 0)">
<path d="M0,0 L1347.5,0" stroke="black" stroke-width="3"/>
<path d="M0,0 L0,358.5" stroke="black" stroke-width="3"/>
<path d="M0,358.5 L1347.5,358.5" stroke="black" stroke-width="3"/>
<path d="M1347.5,0 L1347.5,358.5" stroke="black" stroke-width="3"/>
<path d="M0,358.5 L1347.5,358.5" stroke="black" stroke-width="1"/>
<path d="M0,0 L0,358.5" stroke="black" stroke-width="1"/>
<path d="M245,0 L245,358.5" stroke="black" stroke-width="1"/>
<path d="M490,0 L490,358.5" stroke="black" stroke-width="1"/>
<path d="M735,0 L735,358.5" stroke="black" stroke-width="1"/>
<path d="M980,0 L980,358.5" stroke="black" stroke-width="1"/>
<path d="M1225,0 L1225,358.5" stroke="black" stroke-width="1"/>
<path d="M122.5,0 L122.5,340.5" stroke="black" stroke-dasharray="1.0,2.5,5.0,5.0,10.0,5.0"/>
<path d="M367.5,0 L367.5,340.5" stroke="black" stroke-dasharray="1.0,2.5,5.0,5.0,10.0,5.0"/>
<path d="M612.5,0 L612.5,340.5" stroke="black" stroke-dasharray="1.0,2.5,5.0,5.0,10.0,5.0"/>
<path d="M857.5,0 L857.5,340.5" stroke="black" stroke-dasharray="1.0,2.5,5.0,5.0,10.0,5.0"/>
<path d="M1102.5,0 L1102.5,340.5" stroke="black" stroke-dasharray="1.0,2.5,5.0,5.0,10.0,5.0"/>
<path d="M1347.5,0 L1347.5,340.5" stroke="black" stroke-dasharray="1.0,2.5,5.0,5.0,10.0,5.0"/>
<path d="M0,340.5 L1347.5,340.5" stroke="black" stroke-width="1"/>
<path d="M0,291.85715 L1347.5,291.85715" stroke="black" stroke-width="1"/>
<path d="M0,243.21428 L1347.5,243.21428" stroke="black" stroke-width="1"/>
<path d="M0,194.57143 L1347.5,194.57143" stroke="black" stroke-width="1"/>
<path d="M0,145.92857 L1347.5,145.92857" stroke="black" stroke-width="1"/>
<path d="M0,97.28571 L1347.5,97.28571" stroke="black" stroke-width="1"/>
<path d="M0,48.642857 L1347.5,48.642857" stroke="black" stroke-width="1"/>
<path d="M0,0 L1347.5,0" stroke="black" stroke-width="1"/>
<path d="M0,316.17856 L1347.5,316.17856" stroke="black" stroke-dasharray="1.0,2.5,5.0,5.0,10.0,5.0"/>
<path d="M0,267.5357 L1347.5,267.5357" stroke="black" stroke-dasharray="1.0,2.5,5.0,5.0,10.0,5.0"/>
<path d="M0,218.89285 L1347.5,218.89285" stroke="black" stroke-dasharray="1.0,2.5,5.0,5.0,10.0,5.0"/>
<path d="M0,170.25 L1347.5,170.25" stroke="black" stroke-dasharray="1.0,2.5,5.0,5.0,10.0,5.0"/>
<path d="M0,121.60714 L1347.5,121.60714" stroke="black" stroke-dasharray="1.0,2.5,5.0,5.0,10.0,5.0"/>
<path d="M0,72.96429 L1347.5,72.96429" stroke="black" stroke-dasharray="1.0,2.5,5.0,5.0,10.0,5.0"/>
<path d="M0,24.321428 L1347.5,24.321428" stroke="black" stroke-dasharray="1.0,2.5,5.0,5.0,10.0,5.0"/>
<path d="M0,-24.321428 L1347.5,-24.321428" stroke="black" stroke-dasharray="1.0,2.5,5.0,5.0,10.0,5.0"/>
<text font-size="14" text-anchor="end" x="112.5" y="352.5">
0.8%
</text>
<text font-size="14" text-anchor="end" x="235" y="352.5">
0.3%
</text>
<text font-size="14" text-anchor="end" x="357.5" y="352.5">
0.2%
</text>
<text font-size="14" text-anchor="end" x="480" y="352.5">
0.2%
</text>
<text font-size="14" text-anchor="end" x="602.5" y="352.5">
0.3%
</text>
<text font-size="14" text-anchor="end" x="725" y="352.5">
0.1%
</text>
<path d="M122.5,355.5 L122.5,340.5" stroke="black" stroke-dasharray="1.0,2.5,5.0,5.0,10.0,5.0"/>
<path d="M367.5,355.5 L367.5,340.5" stroke="black" stroke-dasharray="1.0,2.5,5.0,5.0,10.0,5.0"/>
<path d="M612.5,355.5 L612.5,340.5" stroke="black" stroke-dasharray="1.0,2.5,5.0,5.0,10.0,5.0"/>
<path d="M857.5,355.5 L857.5,340.5" stroke="black" stroke-dasharray="1.0,2.5,5.0,5.0,10.0,5.0"/>
<path d="M1102.5,355.5 L1102.5,340.5" stroke="black" stroke-dasharray="1.0,2.5,5.0,5.0,10.0,5.0"/>
<path d="M1347.5,355.5 L1347.5,340.5" stroke="black" stroke-dasharray="1.0,2.5,5.0,5.0,10.0,5.0"/>
<path d="M0,340.5 L1347.5,340.5" stroke="black" stroke-width="3"/>
<path d="M0.4,168.2 L1.0,168.2 L1.3,165.9 L3.5,158.4 L4.8,156.6 L9.0,158.2 L10.2,156.3 L12.3,151.9 L13.5,146.1 L15.9,139.9 L16.2,137.4 L19.2,134.4 L22.2,137.3 L24.6,143.7 L26.4,155.0 L28.6,164.0 L28.8,164.0 L29.3,167.9 L31.6,175.0 L34.4,176.8 L39.8,184.3 L42.5,191.1 L44.1,198.1 L45.6,201.3 L46.7,205.8 L48.6,208.2 L52.5,217.0 L54.8,218.6 L56.3,221.2 L59.8,220.7 L64.2,231.3 L67.5,235.5 L71.0,245.8 L74.7,250.2 L80.2,262.2 L84.4,265.0 L87.9,271.7 L94.8,277.0 L109.3,282.1 L115.4,282.3 L125.7,279.8 L137.2,281.5 L150.4,279.7 L153.3,281.4 L161.1,280.0 L177.7,281.9 L184.2,280.9 L187.9,282.3 L190.4,284.9 L196.9,285.7 L203.9,283.0 L214.1,284.7 L230.7,282.5 L237.3,284.5 L242.6,281.1 L254.9,285.1 L284.6,284.0 L291.0,285.9 L322.5,284.9 L327.1,286.0 L332.0,283.7 L338.3,285.6 L354.7,283.8 L370.3,284.6 L377.2,287.4 L390.1,285.7 L411.6,287.1 L432.0,284.1 L445.2,286.7 L451.5,285.6 L460.4,288.1 L475.1,288.8 L486.4,286.7 L490.2,282.5 L499.7,284.8 L512.4,281.5 L516.5,277.7 L525.1,280.5 L546.9,278.8 L557.1,280.9 L563.8,279.6 L565.7,280.5 L568.2,284.0 L575.0,285.3 L581.4,291.0 L593.4,288.9 L605.0,290.1 L614.1,287.2 L620.9,288.4 L625.4,291.1 L634.5,290.6 L638.1,288.8" fill="transparent" id="track" stroke="black" stroke-linejoin="miter" stroke-miterlimit="1" stroke-width="2"/>
<g>
<g>
<circle cx="642.3010465936509" cy="290.49514285714287" fill="Blue" id="6/wp" r="5"/>
</g>
<g transform="translate(642.3010465936509 290.49514285714287)">
<rect fill="white" fill-opacity="0.75" height="10" id="label-bg" width="68.40026315789476" x="-34.20013157894732" y="-283.49514285714287"/>
<rect fill="none" height="14" id="label-dbg" stroke="blue" stroke-width="2" width="72.40026315789476" x="-36.20013157894732" y="-285.49514285714287"/>
<text font-size="14.0" font-style="normal" font-weight="bold" id="6/wp/text" text-anchor="start" x="-34.200" y="-273.495">
K4 (00:54)
</text>
</g>
<g>
<circle cx="642.3010465936509" cy="290.49514285714287" fill="Black" id="7/wp" r="5"/>
<circle cx="642.3010465936509" cy="290.49514285714287" fill="white" id="7/wp-little-white" r="3.5"/>
<circle cx="642.3010465936509" cy="290.49514285714287" fill="black" id="7/wp-little-white" r="2.5"/>
</g>
<g transform="translate(642.3010465936509 290.49514285714287)">
<rect fill="white" fill-opacity="0.75" height="10" id="label-bg" width="102.95907894736843" x="-106.95907894736843" y="4"/>
<rect fill="none" height="14" id="label-dbg" stroke="blue" stroke-width="2" width="106.95907894736843" x="-108.95907894736843" y="2"/>
<text font-size="14.0" font-style="normal" font-weight="bold" id="7/wp/text" text-anchor="end" x="-4.000" y="14.000">
Wörth am Rhein
</text>
</g>
<g>
<circle cx="184.6157006946869" cy="280.71792857142856" fill="Black" id="9/wp" r="4"/>
<circle cx="184.6157006946869" cy="280.71792857142856" fill="white" id="9/wp-little-white" r="2.5"/>
</g>
<g transform="translate(184.6157006946869 280.71792857142856)">
<rect fill="white" fill-opacity="0.75" height="9" id="label-bg" width="49.265789473684215" x="-53.265789473684215" y="4"/>
<rect fill="none" height="13" id="label-dbg" stroke="blue" stroke-width="2" width="53.265789473684215" x="-55.265789473684215" y="2"/>
<text font-size="13.0" font-style="normal" font-weight="normal" id="9/wp/text" text-anchor="end" x="-4.000" y="13.000">
Iffezheim
</text>
</g>
<g>
<circle cx="496.7391625156815" cy="284.3175" fill="Black" id="10/wp" r="4"/>
<circle cx="496.7391625156815" cy="284.3175" fill="white" id="10/wp-little-white" r="2.5"/>
</g>
<g transform="translate(496.7391625156815 284.3175)">
<rect fill="white" fill-opacity="0.75" height="9" id="label-bg" width="67.58552631578948" x="-71.58552631578948" y="-13"/>
<rect fill="none" height="13" id="label-dbg" stroke="blue" stroke-width="2" width="71.58552631578948" x="-73.58552631578948" y="-15"/>
<text font-size="13.0" font-style="normal" font-weight="normal" id="10/wp/text" text-anchor="end" x="-4.000" y="-4.000">
Lauterbourg
</text>
</g>
<g>
<circle cx="276.3968361735715" cy="284.36614285714285" fill="Black" id="12/wp" r="4"/>
<circle cx="276.3968361735715" cy="284.36614285714285" fill="white" id="12/wp-little-white" r="2.5"/>
</g>
<g transform="translate(276.3968361735715 284.36614285714285)">
<rect fill="white" fill-opacity="0.75" height="9" id="label-bg" width="49.958552631578954" x="4" y="4"/>
<rect fill="none" height="13" id="label-dbg" stroke="blue" stroke-width="2" width="53.958552631578954" x="2" y="2"/>
<text font-size="13.0" font-style="normal" font-weight="normal" id="12/wp/text" text-anchor="start" x="4.000" y="13.000">
Beinheim
</text>
</g>
<g>
<circle cx="389.1032450693051" cy="285.19307142857144" fill="Black" id="13/wp" r="4"/>
<circle cx="389.1032450693051" cy="285.19307142857144" fill="white" id="13/wp-little-white" r="2.5"/>
</g>
<g transform="translate(389.1032450693051 285.19307142857144)">
<rect fill="white" fill-opacity="0.75" height="9" id="label-bg" width="77.97697368421053" x="-81.97697368421053" y="-13"/>
<rect fill="none" height="13" id="label-dbg" stroke="blue" stroke-width="2" width="81.97697368421053" x="-83.97697368421053" y="-15"/>
<text font-size="13.0" font-style="normal" font-weight="normal" id="13/wp/text" text-anchor="end" x="-4.000" y="-4.000">
Munchhausen
</text>
</g>
<g>
<circle cx="218.16344649043003" cy="283.8797142857143" fill="Black" id="14/wp" r="4"/>
<circle cx="218.16344649043003" cy="283.8797142857143" fill="white" id="14/wp-little-white" r="2.5"/>
</g>
<g transform="translate(218.16344649043003 283.8797142857143)">
<rect fill="white" fill-opacity="0.75" height="9" id="label-bg" width="61.96644736842107" x="-30.983223684210536" y="4"/>
<rect fill="none" height="13" id="label-dbg" stroke="blue" stroke-width="2" width="65.96644736842107" x="-32.983223684210536" y="2"/>
<text font-size="13.0" font-style="normal" font-weight="normal" id="14/wp/text" text-anchor="start" x="-30.983" y="13.000">
Wintersdorf
</text>
</g>
<g>
<circle cx="93.0395602675776" cy="275.9995714285714" fill="Black" id="15/wp" r="4"/>
<circle cx="93.0395602675776" cy="275.9995714285714" fill="white" id="15/wp-little-white" r="2.5"/>
</g>
<g transform="translate(93.0395602675776 275.9995714285714)">
<rect fill="white" fill-opacity="0.75" height="9" id="label-bg" width="88.29144736842105" x="4" y="-13"/>
<rect fill="none" height="13" id="label-dbg" stroke="blue" stroke-width="2" width="92.29144736842105" x="2" y="-15"/>
<text font-size="13.0" font-style="normal" font-weight="normal" id="15/wp/text" text-anchor="start" x="4.000" y="-4.000">
Haueneberstein
</text>
</g>
<g>
<circle cx="19.16637268256909" cy="133.81650000000002" fill="Black" id="16/wp" r="4"/>
<circle cx="19.16637268256909" cy="133.81650000000002" fill="white" id="16/wp-little-white" r="2.5"/>
</g>
<g transform="translate(19.16637268256909 133.81650000000002)">
<rect fill="white" fill-opacity="0.75" height="9" id="label-bg" width="78.28486842105262" x="4" y="-13"/>
<rect fill="none" height="13" id="label-dbg" stroke="blue" stroke-width="2" width="82.28486842105262" x="2" y="-15"/>
<text font-size="13.0" font-style="normal" font-weight="normal" id="16/wp/text" text-anchor="start" x="4.000" y="-4.000">
Ebersteinburg
</text>
</g>
<g>
<circle cx="8.97717058031958" cy="157.60285714285715" fill="Gray" id="0/wp" r="2"/>
</g>
<g>
<circle cx="131.55801666819116" cy="280.3287857142857" fill="Gray" id="1/wp" r="2"/>
</g>
<g>
<circle cx="254.94784286884624" cy="285.6795" fill="Gray" id="2/wp" r="2"/>
</g>
<g>
<circle cx="377.6678199828616" cy="286.3605" fill="Gray" id="3/wp" r="2"/>
</g>
<g>
<circle cx="501.4349280806068" cy="283.3932857142857" fill="Gray" id="4/wp" r="2"/>
</g>
<g>
<circle cx="624.0733368652436" cy="291.6625714285714" fill="Gray" id="5/wp" r="2"/>
</g>
</g>
</g>
<g id="SL" transform="translate(0 0)">
<text text-anchor="end" x="66" y="345.5">
0
</text>
<text text-anchor="end" x="66" y="296.85714285714283">
100
</text>
<text text-anchor="end" x="66" y="248.21428571428572">
200
</text>
<text text-anchor="end" x="66" y="199.57142857142858">
300
</text>
<text text-anchor="end" x="66" y="150.92857142857142">
400
</text>
<text text-anchor="end" x="66" y="102.28571428571428">
500
</text>
<text text-anchor="end" x="66" y="53.64285714285717">
600
</text>
<text text-anchor="end" x="66" y="5">
700
</text>
</g>
</g>
</svg>