<svg height="400" width="1420" xmlns="http://www.w3.org/2000/svg">
<g font-size="18" id="world" shape-rendering="crispEdges">
<g id="BG"/>
<g id="SB" transform="translate(71 360)">
<text text-anchor="middle" x="-0.08844064762001835" y="17">
90
</text>
<text text-anchor="middle" x="269.5868079454601" y="17">
110
</text>
<text text-anchor="middle" x="539.2620565385405" y="17">
130
</text>
<text text-anchor="middle" x="808.9373051316206" y="17">
150
</text>
<text text-anchor="middle" x="1078.6125537247008" y="17">
170
</text>
</g>
<g id="SD" transform="translate(71 0)">
<path d="M0,0 L1347.5,0" stroke="black" stroke-width="3"/>
<path d="M0,0 L0,358.5" stroke="black" stroke-width="3"/>
<path d="M0,358.5 L1347.5,358.5" stroke="black" stroke-width="3"/>
<path d="M1347.5,0 L1347.5,358.5" stroke="black" stroke-width="3"/>
<path d="M-0.08844065,0 L-0.08844065,358.5" stroke="black" stroke-width="1"/>
<path d="M269.58682,0 L269.58682,358.5" stroke="black" stroke-width="1"/>
<path d="M539.2621,0 L539.2621,358.5" stroke="black" stroke-width="1"/>
<path d="M808.9373,0 L808.9373,358.5" stroke="black" stroke-width="1"/>
<path d="M1078.6125,0 L1078.6125,358.5" stroke="black" stroke-width="1"/>
<path d="M134.74918,0 L134.74918,358.5" stroke="black" stroke-dasharray="1.0,2.5,5.0,5.0,10.0,5.0"/>
<path d="M404.42444,0 L404.42444,358.5" stroke="black" stroke-dasharray="1.0,2.5,5.0,5.0,10.0,5.0"/>
<path d="M674.0997,0 L674.0997,358.5" stroke="black" stroke-dasharray="1.0,2.5,5.0,5.0,10.0,5.0"/>
<path d="M943.7749,0 L943.7749,358.5" stroke="black" stroke-dasharray="1.0,2.5,5.0,5.0,10.0,5.0"/>
<path d="M1213.4502,0 L1213.4502,358.5" stroke="black" stroke-dasharray="1.0,2.5,5.0,5.0,10.0,5.0"/>
<path d="M0,358.5 L1347.5,358.5" stroke="black" stroke-width="1"/>
<path d="M0,318.66666 L1347.5,318.66666" stroke="black" stroke-width="1"/>
<path d="M0,278.83334 L1347.5,278.83334" stroke="black" stroke-width="1"/>
<path d="M0,239 L1347.5,239" stroke="black" stroke-width="1"/>
<path d="M0,199.16667 L1347.5,199.16667" stroke="black" stroke-width="1"/>
<path d="M0,159.33333 L1347.5,159.33333" stroke="black" stroke-width="1"/>
<path d="M0,119.5 L1347.5,119.5" stroke="black" stroke-width="1"/>
<path d="M0,79.666664 L1347.5,79.666664" stroke="black" stroke-width="1"/>
<path d="M0,39.833332 L1347.5,39.833332" stroke="black" stroke-width="1"/>
<path d="M0,0 L1347.5,0" stroke="black" stroke-width="1"/>
<path d="M0,338.58334 L1347.5,338.58334" stroke="black" stroke-dasharray="1.0,2.5,5.0,5.0,10.0,5.0"/>
<path d="M0,298.75 L1347.5,298.75" stroke="black" stroke-dasharray="1.0,2.5,5.0,5.0,10.0,5.0"/>
<path d="M0,258.91666 L1347.5,258.91666" stroke="black" stroke-dasharray="1.0,2.5,5.0,5.0,10.0,5.0"/>
<path d="M0,219.08333 L1347.5,219.08333" stroke="black" stroke-dasharray="1.0,2.5,5.0,5.0,10.0,5.0"/>
<path d="M0,179.25 L1347.5,179.25" stroke="black" stroke-dasharray="1.0,2.5,5.0,5.0,10.0,5.0"/>
<path d="M0,139.41667 L1347.5,139.41667" stroke="black" stroke-dasharray="1.0,2.5,5.0,5.0,10.0,5.0"/>
<path d="M0,99.583336 L1347.5,99.583336" stroke="black" stroke-dasharray="1.0,2.5,5.0,5.0,10.0,5.0"/>
<path d="M0,59.75 L1347.5,59.75" stroke="black" stroke-dasharray="1.0,2.5,5.0,5.0,10.0,5.0"/>
<path d="M0,19.916666 L1347.5,19.916666" stroke="black" stroke-dasharray="1.0,2.5,5.0,5.0,10.0,5.0"/>
<path d="M0.0,150.3 L0.4,150.8 L0.8,151.5 L1.0,151.9 L2.0,156.2 L2.5,155.1 L3.0,153.2 L3.2,152.5 L3.9,153.9 L4.5,156.0 L4.8,157.5 L5.3,161.6 L5.5,163.2 L5.8,164.0 L6.1,164.4 L6.4,164.8 L7.6,170.7 L8.0,172.1 L9.8,175.2 L10.1,175.7 L10.2,175.2 L10.5,173.0 L11.2,168.5 L11.7,171.0 L12.0,172.7 L12.3,170.4 L12.6,171.2 L13.2,175.5 L13.9,183.0 L14.3,182.8 L14.7,181.0 L15.0,181.5 L15.4,180.9 L15.7,180.7 L16.8,187.3 L17.0,187.9 L17.4,191.5 L17.8,193.9 L18.2,196.5 L18.5,196.9 L19.1,199.7 L19.6,201.0 L20.2,204.4 L20.8,206.4 L22.1,209.3 L22.8,212.6 L23.2,213.0 L23.5,214.0 L24.0,218.9 L24.3,221.6 L24.5,222.3 L24.7,222.8 L25.0,223.2 L25.5,225.9 L26.4,225.4 L26.7,226.3 L27.1,227.4 L27.4,228.6 L28.4,229.4 L28.5,229.0 L28.6,229.0 L28.8,227.9 L29.0,227.4 L29.1,227.6 L29.4,229.9 L30.2,233.3 L31.0,236.6 L31.6,239.4 L32.0,239.6 L33.3,239.8 L34.4,243.7 L34.8,245.4 L36.0,249.2 L36.1,250.0 L36.3,250.5 L37.0,251.7 L37.9,253.0 L38.8,253.9 L39.2,256.2 L40.0,260.6 L40.3,260.5 L40.5,261.2 L41.2,265.8 L42.2,269.6 L42.3,269.7 L43.1,269.1 L44.0,271.2 L44.6,272.0 L45.3,272.7 L46.5,275.5 L47.3,278.8 L47.9,280.9 L48.3,281.9 L49.0,280.5 L49.7,275.6 L50.9,278.5 L51.9,279.0 L53.7,284.5 L54.1,284.6 L54.8,287.3 L55.2,289.0 L55.3,289.6 L55.7,291.5 L58.0,292.5 L59.6,296.5 L59.8,297.4 L60.3,302.1 L60.4,303.2 L61.5,304.5 L62.2,306.2 L62.3,306.4 L62.4,306.6 L62.5,306.7 L62.6,306.7 L63.3,305.6 L63.6,305.1 L63.9,305.4 L64.2,305.6 L64.4,305.6 L65.2,305.3 L66.7,308.2 L66.9,307.4 L67.3,306.5 L67.7,305.5 L68.3,303.5 L68.5,304.1 L69.0,305.4 L69.2,305.8 L69.6,305.3 L70.0,306.6 L70.6,309.8 L70.9,310.5 L71.1,311.1 L71.7,311.3 L72.0,311.5 L72.4,312.0 L73.3,313.2 L73.6,313.9 L74.5,313.8 L74.6,313.7 L74.9,313.7 L75.1,313.8 L75.4,313.2 L76.1,312.0 L76.7,312.3 L77.3,312.6 L77.7,313.5 L78.0,313.5 L78.3,312.3 L78.7,312.9 L79.3,312.9 L79.5,312.3 L80.1,311.0 L80.5,310.4 L81.9,305.4 L82.1,306.5 L82.9,311.4 L83.2,310.9 L83.4,310.8 L84.0,310.0 L85.0,309.1 L86.5,309.3 L87.4,308.3 L87.8,308.6 L88.5,309.1 L89.1,308.4 L89.4,308.3 L89.8,308.4 L90.8,308.9 L91.9,308.0 L92.4,308.7 L93.0,308.5 L93.5,308.5 L94.0,308.1 L96.5,306.0 L96.8,306.1 L97.2,305.6 L97.5,305.2 L98.0,304.7 L98.2,304.8 L98.8,305.1 L99.4,302.3 L99.9,301.4 L100.3,302.2 L101.3,305.0 L101.5,304.3 L101.8,303.1 L102.3,303.6 L102.7,303.8 L103.8,303.1 L104.1,303.1 L104.3,302.7 L105.0,299.9 L106.0,298.9 L106.3,299.3 L106.7,299.9 L107.1,300.3 L109.3,298.3 L109.6,298.8 L110.1,297.2 L111.2,298.1 L113.0,293.4 L113.8,295.2 L114.4,295.8 L115.6,296.6 L116.3,297.6 L116.5,297.7 L116.8,297.8 L118.1,295.2 L118.5,293.0 L118.9,291.7 L119.3,291.1 L119.8,291.9 L120.7,292.1 L121.0,291.5 L122.3,292.9 L122.8,295.0 L123.2,294.3 L123.7,293.4 L123.9,293.6 L125.0,292.5 L125.5,291.9 L125.7,291.9 L125.7,292.0 L126.3,293.6 L128.2,296.3 L128.2,296.1 L128.5,294.9 L128.6,294.0 L130.1,290.7 L130.5,289.3 L131.0,288.8 L133.7,292.1 L133.8,292.2 L134.3,291.5 L135.3,290.4 L135.5,290.9 L136.0,291.9 L136.1,291.3 L136.5,288.3 L136.9,286.3 L138.0,287.5 L138.6,285.8 L139.2,283.1 L140.1,282.1 L141.9,288.2 L142.5,288.2 L143.3,286.7 L143.8,286.4 L144.3,286.5 L144.7,286.4 L145.1,285.2 L145.4,284.1 L146.1,285.2 L146.5,285.2 L146.7,285.0 L147.1,284.2 L147.8,281.7 L148.0,278.4 L148.4,272.7 L148.8,269.7 L149.2,271.1 L149.8,274.4 L150.3,278.7 L150.8,282.2 L151.4,283.3 L152.1,282.9 L152.6,283.6 L152.8,283.9 L152.9,284.1 L153.2,284.3 L153.4,284.2 L153.9,283.7 L154.1,283.8 L154.5,283.3 L155.7,280.4 L156.0,279.7 L156.5,280.1 L157.8,272.7 L158.4,271.4 L158.5,271.3 L158.6,271.3 L159.3,272.0 L160.8,270.2 L161.2,269.7 L162.3,270.3 L162.7,269.3 L165.6,263.9 L166.3,265.3 L166.7,265.7 L167.0,264.1 L167.3,263.7 L167.8,263.3 L168.1,263.2 L169.1,258.0 L169.3,256.8 L169.4,256.5 L169.5,256.8 L169.7,257.8 L170.0,260.6 L170.6,260.9 L171.8,257.8 L172.7,255.0 L173.2,251.2 L173.5,250.7 L173.8,252.1 L174.3,253.7 L174.5,253.8 L174.8,253.6 L175.2,254.3 L175.7,253.7 L175.8,252.9 L176.2,252.9 L176.6,252.2 L177.6,246.6 L177.8,247.9 L178.1,247.6 L178.7,247.7 L178.8,248.0 L179.0,249.3 L179.1,249.5 L179.5,249.4 L179.7,249.5 L179.9,249.8 L180.7,248.6 L180.9,248.1 L181.4,247.4 L181.6,246.8 L181.8,246.2 L182.0,246.3 L182.3,245.7 L182.4,245.7 L183.0,243.5 L183.2,242.7 L183.4,242.1 L185.2,233.7 L185.4,234.3 L185.5,234.9 L186.1,238.0 L186.6,237.7 L186.9,238.3 L187.3,238.6 L187.6,238.2 L188.3,238.2 L189.1,235.0 L189.5,234.7 L189.9,232.5 L190.5,230.2 L191.2,227.3 L191.8,225.8 L192.4,228.0 L193.9,224.2 L194.2,223.9 L194.4,224.1 L194.7,223.3 L194.8,222.6 L195.4,220.4 L195.7,218.8 L196.0,217.9 L196.9,217.3 L197.1,217.3 L197.3,217.5 L197.5,217.2 L197.7,216.6 L198.3,215.9 L198.5,215.3 L199.0,213.4 L199.4,211.8 L199.8,212.0 L200.3,214.6 L200.6,215.1 L200.8,214.8 L201.1,213.8 L201.4,212.3 L202.3,210.4 L202.7,210.1 L203.0,209.8 L203.7,207.1 L203.9,205.1 L204.0,204.0 L204.1,203.2 L204.3,203.0 L204.6,202.4 L205.3,200.2 L206.1,199.4 L206.5,198.5 L207.3,199.1 L208.6,197.4 L209.3,194.7 L209.9,193.7 L211.2,195.3 L211.7,195.1 L212.1,194.7 L213.1,191.5 L213.4,191.0 L214.6,188.8 L216.2,192.0 L217.3,185.9 L217.9,186.6 L218.4,187.4 L218.5,187.0 L218.6,186.8 L218.9,184.5 L220.1,179.9 L220.6,178.6 L221.6,177.5 L223.0,174.5 L223.2,174.2 L223.4,173.7 L223.5,173.0 L223.5,172.5 L223.6,172.5 L224.3,172.6 L225.1,172.7 L225.6,173.5 L225.7,173.4 L226.5,172.0 L227.2,174.4 L227.3,174.9 L227.4,174.8 L227.6,173.7 L228.1,171.2 L228.7,170.6 L229.3,167.4 L230.8,168.5 L230.9,168.6 L231.0,168.6 L231.3,167.3 L231.5,165.7 L232.1,161.3 L232.3,160.3 L232.6,159.5 L232.9,159.4 L234.4,158.8 L234.7,158.8 L235.1,157.5 L235.5,154.9 L235.7,154.2 L236.6,153.8 L237.0,153.2 L237.3,152.2 L237.6,150.8 L237.8,149.7 L238.1,149.8 L238.7,152.0 L238.9,151.6 L242.1,144.8 L242.7,144.0 L243.3,143.3 L243.8,143.4 L244.1,142.7 L244.4,141.6 L244.7,140.5 L246.1,136.3 L246.6,134.5 L246.8,133.8 L247.1,133.8 L247.3,134.1 L247.5,134.6 L247.9,135.5 L248.1,136.3 L248.3,137.1 L248.7,138.0 L249.6,139.9 L249.9,140.1 L250.1,140.1 L250.7,140.5 L250.9,141.2 L251.0,142.6 L251.2,144.3 L251.4,145.0 L251.6,144.8 L252.1,143.0 L252.9,143.0 L253.5,143.3 L255.4,146.9 L256.3,145.6 L256.7,146.1 L257.1,147.9 L257.5,148.7 L257.7,149.4 L258.6,153.9 L258.9,154.7 L259.1,155.0 L259.5,157.0 L259.8,157.9 L260.4,156.1 L260.6,155.6 L260.9,155.7 L261.0,156.1 L261.8,160.1 L262.7,159.3 L263.3,158.6 L263.8,159.2 L264.8,167.6 L265.0,168.7 L265.3,169.7 L265.7,170.1 L266.5,168.7 L266.7,171.0 L266.8,172.7 L267.0,175.7 L267.3,176.0 L268.5,173.3 L268.8,174.5 L269.4,174.7 L270.5,171.9 L270.8,174.3 L271.5,179.1 L272.5,185.9 L273.1,186.4 L273.7,186.8 L274.6,183.2 L274.8,184.0 L275.1,186.3 L275.6,191.0 L275.9,192.3 L277.0,193.7 L277.4,194.3 L277.9,192.4 L278.1,193.0 L278.2,193.3 L278.3,193.2 L278.4,193.3 L278.5,193.5 L280.2,196.5 L280.7,198.5 L281.2,200.3 L281.8,201.4 L282.0,202.2 L282.2,203.1 L283.0,206.1 L283.9,209.9 L284.2,212.2 L285.1,214.8 L285.2,215.9 L285.5,218.4 L285.8,219.4 L286.0,218.8 L286.3,218.6 L287.5,218.4 L288.5,222.7 L288.7,223.4 L289.3,225.2 L289.7,225.1 L290.3,227.7 L291.7,233.0 L293.2,239.6 L294.2,243.7 L294.6,245.3 L294.7,245.4 L294.9,245.2 L295.3,244.9 L295.9,242.6 L296.5,239.4 L296.9,240.6 L297.2,242.5 L297.7,244.1 L298.0,245.1 L298.2,246.0 L298.4,247.4 L299.2,250.8 L300.3,252.6 L300.5,253.6 L300.6,253.7 L301.1,253.5 L301.6,253.3 L302.6,257.0 L302.8,257.2 L303.5,257.7 L303.5,257.6 L304.0,257.8 L304.0,258.3 L304.2,259.1 L305.2,262.9 L305.4,263.4 L305.6,264.1 L306.1,265.3 L306.7,264.3 L307.1,264.0 L308.2,266.8 L308.8,267.7 L309.7,270.0 L310.1,270.4 L311.4,270.0 L311.6,269.6 L311.8,269.6 L313.0,270.4 L313.5,271.6 L314.3,272.2 L314.8,270.5 L315.0,269.3 L315.3,268.5 L315.6,268.4 L315.9,269.2 L316.5,270.6 L316.7,271.0 L317.2,272.8 L317.5,273.2 L318.0,272.9 L318.1,272.5 L318.6,272.3 L319.4,272.1 L320.0,272.0 L320.3,273.2 L320.5,274.3 L321.0,277.0 L321.2,278.0 L321.5,278.8 L322.0,279.7 L322.2,280.3 L322.6,281.1 L322.7,281.3 L323.3,281.2 L323.8,281.8 L324.2,281.9 L324.3,281.9 L324.4,281.9 L324.4,281.9 L324.8,282.2 L324.8,282.2 L325.0,282.3 L325.1,282.3 L325.4,282.6 L325.6,282.7 L326.4,282.2 L327.7,281.5 L328.7,280.4 L329.6,279.8 L329.8,279.7 L330.1,279.4 L330.4,279.0 L330.9,278.6 L331.4,277.3 L331.6,276.4 L331.9,275.7 L333.1,275.2 L333.6,275.3 L333.7,275.0 L334.3,273.5 L335.9,273.7 L336.2,274.1 L336.6,274.8 L337.3,275.0 L337.6,274.7 L338.0,274.0 L338.3,273.5 L338.4,273.4 L339.3,270.3 L339.9,268.9 L340.8,266.0 L340.9,266.1 L343.3,264.7 L345.3,261.3 L345.5,261.7 L345.9,263.7 L346.4,266.8 L347.2,265.4 L347.7,266.4 L348.0,267.2 L348.2,267.4 L348.3,267.3 L349.1,265.4 L349.3,264.7 L349.7,264.3 L350.1,264.3 L350.4,262.7 L351.1,260.7 L351.9,259.4 L352.1,259.2 L352.3,259.0 L352.6,259.0 L353.4,260.7 L353.8,261.5 L354.1,260.8 L354.3,259.7 L354.8,256.9 L355.1,255.4 L355.6,254.2 L356.1,254.9 L357.0,257.0 L357.3,257.5 L357.5,257.9 L357.8,257.4 L358.2,256.7 L359.1,256.1 L360.0,253.7 L360.8,256.1 L361.0,256.7 L361.9,256.6 L362.5,256.7 L363.4,256.8 L363.5,256.6 L364.3,255.1 L364.7,254.0 L364.9,253.1 L365.1,252.7 L365.4,252.4 L365.6,252.9 L365.7,253.4 L366.0,253.4 L366.4,253.3 L366.6,253.4 L367.1,253.9 L368.0,254.5 L369.0,254.0 L369.2,253.9 L369.8,253.4 L370.6,251.6 L370.9,250.8 L371.3,250.4 L371.6,250.7 L371.7,250.7 L371.9,250.9 L372.2,251.1 L372.8,251.5 L373.1,251.3 L373.5,250.6 L373.6,250.3 L373.7,249.8 L374.0,248.8 L374.8,248.5 L375.1,247.8 L375.6,247.2 L376.1,245.7 L376.4,245.8 L376.6,245.9 L376.8,245.9 L377.8,244.1 L377.8,244.1 L378.1,244.3 L378.6,243.3 L379.2,240.4 L379.9,238.6 L380.3,235.9 L381.5,231.8 L381.7,232.0 L382.8,232.1 L383.7,230.7 L383.9,230.1 L385.2,224.2 L385.4,223.8 L385.6,223.6 L386.5,219.5 L387.4,215.9 L388.8,215.6 L389.3,215.2 L389.7,213.7 L390.4,210.9 L391.0,209.0 L392.0,208.1 L392.8,205.8 L393.1,204.8 L393.6,203.1 L394.0,202.4 L394.8,204.3 L395.0,204.0 L395.2,203.3 L395.3,203.0 L395.4,202.4 L395.5,201.0 L395.6,200.1 L395.8,199.5 L396.6,200.2 L396.8,200.2 L397.0,199.8 L397.6,197.5 L398.4,196.3 L398.5,195.7 L398.9,193.7 L399.1,192.4 L399.8,187.7 L400.6,185.9 L401.0,185.1 L401.4,184.8 L402.0,184.2 L402.3,182.8 L402.6,181.8 L403.2,181.6 L403.3,180.4 L403.4,179.0 L403.5,178.2 L404.0,179.2 L404.3,179.2 L405.6,178.2 L405.7,178.0 L405.8,177.5 L405.9,176.3 L406.0,175.7 L406.7,175.1 L407.1,173.7 L409.1,164.9 L409.7,162.3 L410.1,162.2 L410.3,162.1 L410.4,162.3 L410.6,162.1 L410.8,161.8 L411.2,161.1 L411.8,161.8 L412.1,162.9 L412.6,164.3 L413.1,163.6 L413.7,162.2 L413.8,161.6 L413.9,160.6 L414.1,159.7 L415.0,160.3 L415.2,160.1 L415.2,159.7 L415.4,158.2 L415.5,157.0 L415.8,156.8 L416.0,156.5 L416.2,156.1 L416.3,155.4 L417.2,152.3 L419.1,147.2 L419.4,145.9 L419.8,145.6 L420.2,146.1 L421.2,145.8 L421.6,143.7 L421.7,142.7 L421.9,142.2 L422.0,141.8 L422.1,141.1 L423.0,137.2 L423.2,135.8 L423.6,134.6 L425.1,129.6 L426.3,128.4 L426.4,127.5 L426.5,126.1 L426.6,125.0 L426.7,124.7 L427.0,125.8 L427.3,126.2 L428.5,128.0 L428.6,128.8 L428.7,129.3 L428.9,129.3 L428.9,129.1 L429.0,128.5 L429.4,125.8 L429.8,123.4 L431.1,117.5 L431.8,115.3 L433.3,113.0 L434.1,111.3 L434.3,110.9 L434.6,111.4 L434.9,112.3 L436.1,111.5 L437.2,110.0 L438.5,106.2 L439.3,104.5 L439.9,103.2 L440.3,101.8 L440.8,99.4 L442.6,96.1 L443.7,92.9 L445.3,89.1 L445.7,88.2 L446.8,86.5 L447.8,85.4 L450.2,80.0 L451.0,78.7 L452.1,77.6 L452.3,77.0 L452.7,75.8 L453.4,73.9 L454.8,72.0 L455.2,71.3 L455.5,70.6 L457.2,65.7 L457.6,65.0 L458.8,63.3 L459.6,62.3 L460.0,63.2 L460.5,63.1 L462.4,58.0 L462.9,58.7 L463.8,59.4 L464.2,59.0 L466.5,55.5 L467.0,55.0 L467.9,54.6 L471.6,53.1 L471.8,52.9 L471.9,52.9 L472.0,52.8 L472.1,52.7 L472.5,52.5 L473.4,53.9 L473.5,54.1 L473.9,54.2 L474.5,54.1 L475.0,54.1 L475.4,54.5 L475.5,54.5 L475.9,54.5 L476.8,55.0 L477.1,55.4 L478.3,57.3 L478.4,57.5 L478.5,57.7 L478.9,58.1 L479.1,58.5 L483.1,60.7 L483.8,60.9 L484.0,60.7 L484.9,59.2 L485.9,58.4 L486.3,58.7 L486.5,58.8 L487.9,60.0 L488.5,60.9 L489.4,62.5 L490.0,63.0 L491.5,65.5 L493.1,64.6 L493.4,64.3 L493.9,64.1 L494.6,63.5 L494.9,63.5 L495.5,63.1 L496.6,62.0 L497.0,61.7 L497.4,61.4 L497.8,60.9 L498.3,60.2 L499.3,59.9 L499.6,59.6 L499.9,59.2 L500.2,59.0 L500.5,59.4 L502.1,60.7 L504.2,59.8 L504.4,59.7 L505.1,59.7 L505.7,59.6 L506.9,58.8 L507.6,58.0 L508.2,58.2 L508.9,57.6 L509.6,57.1 L510.5,56.6 L511.7,57.7 L512.1,58.0 L512.7,59.2 L512.9,59.6 L513.8,60.9 L515.4,61.8 L516.1,62.3 L516.3,62.3 L516.7,62.9 L517.0,63.5 L517.6,63.9 L518.1,64.2 L518.4,64.4 L518.9,63.9 L520.3,66.4 L524.4,72.2 L524.8,72.2 L525.5,73.4 L526.3,75.8 L526.5,76.2 L527.4,78.2 L527.7,78.8 L528.0,79.3 L528.3,80.0 L528.7,80.6 L529.2,81.3 L529.3,81.5 L529.8,83.3 L532.8,90.3 L533.3,91.5 L533.7,92.3 L534.9,93.1 L535.3,93.6 L536.0,94.9 L536.4,94.6 L536.9,93.8 L537.5,95.5 L538.0,97.4 L538.4,97.8 L538.7,97.8 L539.2,98.4 L540.3,94.2 L540.9,96.2 L542.1,92.3 L542.4,93.6 L542.7,95.8 L543.0,97.9 L543.5,100.2 L544.0,102.5 L544.6,104.7 L546.0,108.6 L547.0,105.7 L547.5,107.8 L547.9,107.5 L548.4,107.5 L551.5,113.2 L551.8,113.4 L554.6,120.9 L554.9,121.5 L555.2,121.4 L556.1,119.0 L556.4,120.3 L556.5,121.4 L556.7,123.1 L556.8,124.0 L557.0,125.6 L559.0,127.9 L561.5,126.9 L562.2,127.3 L565.7,131.1 L566.2,134.0 L567.4,138.6 L567.9,138.1 L568.2,137.9 L568.8,136.7 L568.9,136.7 L569.2,136.5 L569.5,137.1 L569.7,138.1 L570.1,140.2 L570.4,142.5 L570.7,144.3 L570.9,145.2 L571.9,148.1 L574.4,151.6 L575.5,151.8 L576.3,149.4 L576.7,149.2 L577.0,149.9 L577.1,150.4 L577.2,150.8 L577.4,151.1 L577.5,151.6 L577.6,151.8 L577.9,152.1 L580.7,156.7 L581.2,158.0 L581.5,158.1 L582.1,159.9 L582.7,161.9 L583.3,162.7 L584.3,163.5 L584.8,165.5 L585.3,167.0 L586.2,166.5 L587.7,169.1 L588.3,168.7 L588.5,168.6 L589.3,168.3 L589.6,168.5 L590.2,169.8 L590.4,170.6 L591.2,173.1 L591.7,173.4 L592.4,173.3 L592.7,173.9 L593.0,174.6 L596.5,178.3 L597.1,178.9 L597.6,178.8 L599.7,179.7 L600.1,180.6 L600.5,180.7 L601.7,181.1 L601.9,181.3 L602.1,181.5 L602.7,181.8 L603.1,181.6 L603.3,181.3 L603.8,181.0 L604.8,180.7 L605.1,180.0 L605.4,180.0 L605.9,181.2 L606.1,181.4 L606.4,181.3 L609.1,185.2 L609.3,185.6 L609.6,186.6 L609.9,186.7 L610.2,186.9 L611.5,185.5 L612.0,185.0 L612.4,185.3 L613.0,184.5 L614.1,188.7 L614.9,190.0 L615.4,189.9 L615.9,189.7 L616.3,190.7 L617.5,191.0 L618.0,191.6 L618.3,192.7 L618.5,193.2 L618.6,193.4 L619.3,194.9 L620.0,195.7 L620.2,195.8 L621.1,195.5 L621.5,195.1 L623.2,196.3 L624.7,198.1 L625.1,198.3 L625.3,198.2 L626.1,198.4 L626.2,198.4 L626.5,198.3 L626.8,198.2 L627.6,198.6 L628.2,199.2 L630.7,197.9 L631.6,198.5 L632.4,199.6 L633.1,200.2 L633.4,199.5 L633.6,199.1 L634.0,198.1 L634.7,197.5 L635.3,198.7 L635.8,199.4 L636.8,199.7 L637.0,199.9 L637.1,200.0 L637.2,200.1 L637.5,200.2 L637.7,199.9 L637.9,199.8 L638.0,199.9 L638.0,199.9 L638.4,200.1 L638.6,200.2 L639.3,199.9 L640.7,199.6 L641.6,199.5 L641.9,199.4 L641.9,199.4 L643.3,198.4 L644.1,196.7 L644.6,195.6 L645.7,194.8 L646.5,195.4 L647.4,192.6 L647.8,191.6 L648.2,190.8 L648.5,190.2 L648.8,190.1 L649.5,188.5 L649.9,187.4 L650.6,185.6 L650.9,185.4 L651.9,184.9 L654.7,179.8 L655.9,178.2 L656.5,177.2 L656.8,176.0 L657.2,174.7 L657.5,173.4 L658.9,174.2 L662.8,167.9 L663.1,166.5 L663.6,164.6 L664.0,162.0 L664.4,160.0 L664.6,158.8 L666.1,159.1 L666.3,159.0 L666.6,158.0 L666.7,157.5 L666.9,157.3 L667.1,157.9 L667.3,159.1 L668.0,162.6 L668.2,162.6 L668.4,162.9 L668.6,163.4 L668.9,162.1 L669.8,157.7 L670.5,157.3 L670.9,157.6 L671.6,156.4 L672.5,158.0 L672.9,156.8 L673.2,155.5 L673.4,153.8 L674.1,149.7 L674.3,149.2 L674.4,149.0 L674.6,149.3 L674.7,150.1 L675.0,151.9 L675.2,153.4 L675.4,154.0 L676.9,150.1 L677.4,149.3 L677.9,148.9 L680.2,143.8 L680.5,144.3 L681.2,145.0 L681.7,143.6 L683.7,137.6 L683.9,137.2 L684.1,137.1 L684.4,136.3 L684.6,135.2 L684.8,134.7 L685.0,134.4 L685.3,134.5 L685.5,134.8 L686.8,136.9 L687.2,137.2 L687.5,137.8 L687.9,137.9 L688.4,136.7 L689.9,132.3 L691.8,127.7 L692.0,127.9 L692.9,131.5 L693.3,131.4 L693.8,132.3 L694.4,133.7 L694.9,132.6 L695.4,130.9 L696.1,130.4 L696.7,130.2 L697.2,129.0 L697.6,128.4 L698.2,127.4 L699.2,124.7 L701.5,121.3 L702.3,120.1 L702.7,119.5 L702.9,118.9 L703.2,118.1 L703.4,117.6 L703.6,117.3 L703.8,116.6 L704.1,115.6 L704.3,114.0 L704.7,112.6 L705.1,110.8 L705.6,109.8 L706.8,112.1 L707.0,112.6 L707.2,112.9 L707.4,112.7 L708.1,111.9 L708.7,110.4 L709.2,110.9 L710.2,111.3 L710.6,111.0 L711.0,110.4 L711.5,111.5 L712.0,112.6 L712.5,111.1 L712.9,109.9 L713.2,108.9 L714.6,105.6 L714.9,105.3 L715.4,105.6 L715.9,104.4 L716.5,103.7 L717.1,103.6 L717.8,102.7 L718.6,101.8 L719.7,100.5 L722.9,96.8 L726.8,90.0 L727.3,90.4 L727.7,89.7 L728.0,89.9 L728.5,91.2 L729.5,89.0 L729.8,87.4 L730.2,85.5 L731.0,88.5 L731.2,88.7 L731.9,86.4 L732.2,85.5 L732.4,84.7 L732.6,84.0 L732.8,83.2 L733.2,82.5 L733.4,82.4 L733.8,82.4 L734.2,83.5 L734.4,83.8 L734.7,84.5 L734.8,85.0 L735.0,85.3 L735.2,85.2 L736.0,83.2 L737.2,82.7 L737.7,83.5 L738.2,82.7 L738.6,82.6 L739.2,82.4 L739.7,81.2 L740.4,81.0 L740.6,80.2 L740.9,78.8 L741.7,76.8 L742.7,77.6 L742.8,77.8 L743.4,78.9 L744.4,78.0 L744.5,78.0 L745.4,75.7 L745.7,74.8 L745.9,74.6 L745.9,74.4 L746.1,74.2 L746.4,74.1 L746.5,74.3 L746.8,74.8 L746.9,75.3 L747.0,75.4 L747.3,75.7 L748.4,74.1 L748.9,74.6 L749.3,75.2 L749.9,75.6 L750.1,76.0 L750.5,76.7 L750.8,77.5 L753.2,83.3 L754.5,84.6 L755.2,84.2 L756.6,88.2 L758.9,90.9 L759.4,92.1 L760.0,92.7 L760.5,92.6 L761.0,93.4 L761.8,94.6 L762.6,95.8 L763.5,95.0 L763.9,95.7 L764.5,95.0 L764.7,94.4 L764.9,94.1 L765.2,94.0 L765.4,94.6 L765.7,95.0 L766.0,95.0 L766.1,94.7 L766.4,94.6 L766.7,94.9 L767.2,94.6 L767.9,92.5 L768.5,91.7 L768.8,91.2 L769.3,90.7 L770.0,89.4 L770.7,89.8 L771.4,92.1 L772.0,90.9 L772.6,87.9 L773.1,86.8 L773.6,85.5 L774.7,84.5 L775.5,82.6 L775.7,82.3 L776.4,82.1 L776.9,82.2 L777.2,81.3 L779.2,77.4 L780.1,77.4 L780.5,76.6 L780.9,75.2 L781.8,73.0 L782.6,72.4 L785.3,69.7 L785.9,68.3 L786.1,69.4 L786.4,71.0 L786.6,70.8 L787.0,70.7 L787.3,70.9 L787.9,69.4 L788.6,68.8 L790.6,67.2 L791.7,65.1 L792.5,64.3 L792.7,64.1 L793.2,64.3 L794.3,64.9 L794.6,64.2 L794.9,62.8 L795.3,60.9 L795.5,60.2 L795.8,59.7 L796.2,59.9 L796.5,59.6 L796.8,59.0 L797.4,58.9 L798.5,59.8 L798.8,60.0 L800.2,57.0 L801.0,58.1 L801.7,58.0 L802.4,56.5 L803.3,56.2 L804.0,57.1 L805.3,58.4 L805.8,58.6 L806.2,58.6 L806.7,58.2 L807.9,58.2 L810.7,55.4 L811.4,56.1 L811.9,57.7 L812.2,57.5 L812.6,57.4 L812.8,57.2 L812.9,57.2 L813.3,57.4 L813.5,57.7 L813.8,58.5 L814.0,59.1 L815.1,58.9 L815.5,58.8 L817.6,60.1 L817.7,60.3 L818.0,61.3 L819.4,67.2 L819.8,67.1 L820.0,67.1 L821.1,71.0 L823.3,73.2 L823.8,75.8 L824.0,77.1 L825.0,81.5 L825.3,82.0 L825.6,82.0 L825.9,82.2 L826.4,83.1 L826.9,83.9 L827.2,84.0 L827.6,84.3 L829.0,85.6 L829.5,86.3 L830.1,88.0 L830.9,89.3 L831.1,88.2 L831.5,88.8 L832.2,93.3 L833.1,96.1 L836.2,101.4 L838.1,104.5 L838.3,104.8 L838.5,105.4 L838.6,105.8 L838.7,106.1 L838.8,106.3 L839.1,106.5 L839.6,106.0 L839.7,105.8 L840.1,105.6 L840.3,105.5 L840.6,105.9 L840.8,106.3 L841.0,107.7 L841.3,109.5 L842.2,113.0 L842.6,113.6 L844.0,115.9 L844.5,116.3 L844.9,116.9 L845.4,118.0 L845.6,119.1 L846.0,121.0 L846.2,121.9 L846.3,122.1 L846.6,122.1 L847.3,121.1 L847.6,121.5 L847.8,122.2 L848.1,122.8 L848.2,123.5 L849.0,126.8 L849.5,127.9 L849.7,128.7 L849.9,129.1 L851.3,131.9 L851.7,133.1 L852.1,133.0 L852.4,133.3 L852.7,134.0 L853.1,134.5 L854.9,139.1 L855.2,141.0 L855.4,141.2 L855.6,140.7 L856.8,138.6 L857.3,139.8 L857.5,141.3 L857.7,142.6 L857.9,143.8 L858.3,144.4 L858.6,145.0 L859.0,146.9 L859.1,147.4 L860.9,151.9 L861.4,151.9 L861.9,154.6 L862.3,156.7 L862.7,158.2 L863.2,157.3 L864.2,161.8 L864.4,161.8 L864.6,161.0 L864.9,159.5 L865.1,159.9 L865.2,160.5 L865.3,161.2 L865.7,161.1 L866.0,160.4 L866.7,160.1 L867.3,156.9 L867.7,155.4 L868.0,156.3 L868.2,157.2 L868.6,159.8 L868.9,161.1 L869.8,161.7 L870.4,163.2 L870.6,163.5 L871.4,163.5 L871.6,162.6 L871.7,162.2 L871.8,162.2 L872.0,162.8 L872.3,164.6 L872.5,165.3 L872.7,165.2 L872.9,164.4 L873.2,163.0 L874.4,165.9 L874.6,166.7 L875.2,164.6 L875.4,164.4 L875.6,164.8 L875.7,165.1 L875.9,165.1 L876.3,166.2 L876.6,166.7 L876.8,166.3 L877.3,166.3 L877.5,166.6 L877.8,166.9 L878.1,167.5 L879.4,167.0 L880.6,164.8 L881.1,163.9 L881.5,164.2 L882.1,166.0 L883.5,165.3 L883.9,164.6 L884.2,164.6 L884.7,162.9 L885.2,159.1 L885.3,159.3 L885.4,160.1 L885.6,161.3 L885.8,163.0 L886.5,166.4 L886.8,167.2 L887.6,170.1 L888.3,173.5 L888.7,174.9 L889.4,175.6 L890.4,179.2 L890.9,180.8 L892.4,183.3 L892.7,184.1 L893.1,185.3 L893.9,185.5 L894.2,185.4 L894.8,188.2 L895.3,189.2 L895.8,189.3 L896.2,190.2 L896.6,188.7 L896.8,187.1 L898.0,188.9 L898.4,189.6 L899.0,189.7 L899.7,190.1 L900.2,189.9 L900.6,188.6 L901.1,187.2 L901.7,187.1 L902.3,187.5 L902.7,189.1 L903.1,190.7 L903.6,190.2 L903.8,190.2 L904.0,190.9 L904.6,191.2 L905.0,189.8 L905.3,187.7 L906.1,185.7 L906.6,185.5 L907.6,182.3 L908.0,181.3 L908.9,183.6 L909.3,184.9 L909.7,187.0 L910.0,188.7 L910.9,192.2 L911.8,193.7 L912.0,193.4 L912.6,194.9 L913.0,197.4 L913.6,198.1 L914.5,194.7 L914.8,193.5 L915.5,193.9 L916.6,193.9 L917.3,199.4 L918.0,198.4 L918.5,196.7 L918.8,196.1 L919.5,196.2 L920.1,197.7 L920.5,200.0 L921.8,200.8 L923.1,198.9 L924.2,196.3 L924.7,196.0 L925.0,196.6 L926.3,199.7 L926.9,201.2 L927.1,202.3 L927.4,203.1 L927.6,203.7 L927.9,204.1 L928.8,205.5 L929.5,203.7 L929.8,202.8 L930.0,202.8 L930.8,204.3 L931.6,206.4 L932.3,204.4 L932.6,205.0 L933.2,207.6 L933.5,209.2 L934.1,212.7 L934.3,213.4 L934.4,213.9 L934.6,214.5 L934.8,215.2 L935.0,215.5 L935.3,215.6 L935.9,211.3 L936.1,209.9 L936.8,215.3 L937.4,217.8 L937.6,218.1 L937.9,219.4 L938.4,220.2 L938.5,220.2 L938.7,220.1 L938.9,219.7 L939.2,218.2 L939.4,217.1 L940.3,214.1 L940.7,213.9 L941.5,216.1 L941.9,216.9 L942.4,217.2 L943.7,217.5 L944.1,216.9 L945.2,218.5 L945.5,219.4 L945.9,220.6 L946.1,221.4 L946.3,221.4 L947.7,221.2 L948.2,222.5 L949.3,219.0 L952.1,225.3 L952.4,225.4 L952.7,225.2 L953.3,224.1 L953.9,224.4 L957.1,224.6 L957.9,224.3 L959.6,226.1 L960.1,226.7 L963.3,226.0 L963.9,226.8 L965.2,231.6 L967.2,233.2 L968.3,234.7 L969.0,234.9 L973.2,235.9 L975.0,234.5 L977.1,234.4 L977.7,235.9 L978.1,235.9 L980.6,234.3 L980.9,233.5 L981.4,233.4 L981.8,234.3 L983.0,234.5 L983.4,236.0 L983.8,239.9 L984.4,243.2 L985.2,245.3 L985.8,245.6 L986.3,245.7 L986.7,246.0 L987.0,246.2 L988.1,247.4 L988.3,247.7 L988.6,248.3 L989.5,248.0 L989.6,247.8 L989.9,247.2 L990.4,245.9 L990.7,245.8 L991.0,246.4 L991.5,247.4 L992.6,247.8 L993.5,247.3 L994.6,249.6 L994.8,249.0 L995.0,248.7 L995.4,248.8 L995.8,249.8 L996.3,249.0 L997.2,249.5 L997.5,249.4 L998.2,250.0 L998.5,251.2 L999.3,251.0 L999.7,250.0 L1000.6,249.4 L1001.3,251.7 L1001.7,251.8 L1002.0,252.3 L1002.2,251.9 L1002.4,253.2 L1002.5,253.5 L1002.9,254.3 L1003.3,254.5 L1003.8,252.3 L1004.0,251.7 L1004.8,250.4 L1005.2,249.7 L1006.2,245.8 L1007.0,248.3 L1008.4,249.9 L1008.8,248.6 L1009.4,249.3 L1010.0,249.3 L1011.0,248.6 L1011.5,248.5 L1012.2,248.8 L1012.5,250.7 L1013.0,252.1 L1013.5,251.7 L1014.5,251.3 L1015.6,252.7 L1016.3,250.9 L1017.1,252.9 L1017.8,250.4 L1018.1,249.0 L1018.3,249.0 L1018.6,248.7 L1018.7,248.4 L1019.6,246.6 L1021.0,249.2 L1021.6,248.8 L1022.3,248.0 L1023.4,248.2 L1023.8,248.4 L1024.8,249.4 L1025.1,250.0 L1025.5,252.1 L1025.8,253.4 L1026.7,253.5 L1027.4,254.9 L1027.9,254.8 L1028.8,255.5 L1029.5,254.9 L1031.7,256.5 L1032.1,257.2 L1032.7,255.5 L1033.4,253.8 L1034.2,258.0 L1034.7,259.8 L1035.2,257.5 L1037.1,252.8 L1037.3,253.5 L1037.9,256.9 L1038.1,256.8 L1038.5,255.9 L1038.7,255.6 L1039.1,255.8 L1039.8,257.6 L1040.2,259.2 L1040.5,261.5 L1040.9,261.5 L1041.2,260.5 L1041.7,260.0 L1042.4,258.0 L1043.1,258.2 L1044.6,261.5 L1045.2,259.7 L1045.8,260.0 L1046.7,263.0 L1047.1,263.0 L1047.4,262.9 L1047.8,262.4 L1048.0,261.7 L1048.8,263.8 L1049.5,266.3 L1050.4,264.0 L1050.6,263.3 L1050.8,263.0 L1051.3,263.0 L1051.6,262.5 L1051.9,262.6 L1052.2,263.3 L1052.5,263.7 L1053.1,263.5 L1055.2,265.5 L1055.7,264.9 L1055.9,265.3 L1056.2,266.8 L1056.9,268.4 L1058.5,269.0 L1060.4,269.2 L1061.1,269.1 L1061.8,268.6 L1062.4,269.9 L1062.7,270.7 L1062.9,272.0 L1063.1,274.5 L1063.4,275.6 L1063.6,275.6 L1063.8,275.3 L1064.0,274.8 L1064.2,273.8 L1064.6,271.1 L1065.2,272.8 L1066.1,274.0 L1068.3,277.2 L1069.1,277.2 L1070.1,277.8 L1070.9,279.1 L1071.5,279.7 L1074.1,283.7 L1074.8,284.3 L1075.1,284.2 L1077.0,279.3 L1077.9,280.9 L1079.1,283.8 L1079.4,284.5 L1079.9,285.0 L1080.6,285.0 L1080.9,284.7 L1081.2,284.1 L1081.4,284.4 L1082.2,287.6 L1082.5,287.5 L1083.5,283.3 L1083.6,283.0 L1083.8,283.8 L1084.3,286.4 L1085.8,290.2 L1086.2,291.0 L1086.6,291.7 L1087.0,292.2 L1087.3,292.9 L1087.5,292.6 L1087.9,291.3 L1089.8,288.2 L1090.2,289.3 L1090.5,289.8 L1091.2,289.9 L1092.2,293.5 L1092.8,294.5 L1093.4,295.6 L1093.6,295.8 L1093.8,295.6 L1094.3,296.2 L1094.7,296.9 L1095.0,297.4 L1095.3,297.5 L1095.6,297.5 L1096.0,297.4 L1096.4,297.5 L1096.7,297.3 L1097.0,296.8 L1097.6,297.2 L1097.9,297.1 L1098.3,297.2 L1098.6,296.5 L1098.9,295.5 L1100.4,299.3 L1101.2,299.8 L1101.6,298.0 L1102.3,294.7 L1103.3,294.6 L1103.6,295.3 L1104.1,295.5 L1104.9,296.8 L1105.4,296.6 L1105.8,297.4 L1106.7,298.7 L1108.1,299.4 L1108.4,300.1 L1109.0,298.5 L1109.2,298.2 L1109.5,298.0 L1110.2,299.1 L1111.0,299.1 L1111.2,299.4 L1111.5,300.3 L1112.0,301.9 L1113.3,295.9 L1113.7,295.8 L1114.1,296.6 L1114.8,293.9 L1115.1,294.2 L1116.8,298.0 L1117.1,298.6 L1117.9,302.9 L1118.0,303.5 L1118.1,303.8 L1118.3,303.6 L1118.4,303.6 L1118.9,303.1 L1119.0,302.8 L1119.2,302.2 L1119.4,301.5 L1119.8,300.1 L1120.8,301.2 L1121.3,302.3 L1121.7,303.6 L1122.0,304.3 L1122.4,303.3 L1122.7,301.6 L1123.0,301.4 L1123.7,303.8 L1124.2,304.3 L1124.4,303.7 L1124.7,304.0 L1125.0,304.7 L1125.3,304.4 L1125.9,304.4 L1127.3,301.9 L1128.0,302.1 L1128.6,302.2 L1129.5,307.1 L1130.1,308.5 L1130.3,308.9 L1130.4,309.1 L1130.6,309.2 L1130.7,309.1 L1130.8,308.9 L1131.4,309.5 L1132.0,308.2 L1132.9,309.1 L1133.2,309.5 L1134.3,310.1 L1136.0,310.9 L1136.6,311.7 L1137.3,311.9 L1138.4,311.1 L1138.8,311.7 L1139.2,311.2 L1140.4,312.7 L1142.6,314.1 L1143.6,315.9 L1145.0,316.8 L1145.6,315.3 L1146.1,314.8 L1146.6,315.2 L1147.4,316.1 L1149.0,319.9 L1150.9,320.7 L1151.0,320.9 L1151.1,321.5 L1151.4,321.2 L1151.8,320.4 L1152.6,320.1 L1152.8,319.7 L1153.1,318.8 L1153.2,318.7 L1153.3,318.9 L1153.5,319.7 L1153.6,320.2 L1153.8,321.2 L1154.4,320.3 L1154.5,319.1 L1154.9,318.7 L1155.1,318.3 L1155.5,317.9 L1155.8,317.9 L1156.0,317.6 L1156.2,317.5 L1156.3,317.2 L1156.6,316.1 L1157.2,314.0 L1157.3,313.7 L1157.7,313.1 L1157.8,313.1 L1157.9,313.3 L1158.0,313.6 L1158.2,313.5 L1158.3,313.4 L1158.5,312.7 L1159.1,312.6 L1160.3,308.6 L1160.9,308.9 L1161.3,309.2 L1161.4,309.5 L1161.8,313.6 L1162.2,315.6 L1162.9,313.7 L1163.1,313.8 L1163.5,313.9 L1163.6,313.9 L1163.8,313.5 L1164.6,308.2 L1164.9,307.8 L1165.9,307.1 L1166.5,306.1 L1167.1,305.0 L1167.5,303.6 L1167.9,303.1 L1168.9,302.9 L1169.0,302.3 L1169.2,302.0 L1169.6,301.4 L1169.8,301.8 L1170.0,302.2 L1170.3,302.2 L1170.5,301.5 L1170.6,301.3 L1171.2,299.4 L1171.9,297.6 L1172.1,297.1 L1172.4,295.6 L1172.6,294.9 L1173.8,290.2 L1174.0,289.6 L1174.6,290.7 L1175.0,289.3 L1175.1,289.3 L1175.5,291.0 L1176.1,289.6 L1176.2,289.4 L1176.6,290.3 L1176.8,290.2 L1177.7,286.7 L1178.2,286.3 L1178.5,286.2 L1179.2,285.5 L1179.4,285.0 L1179.6,284.3 L1179.9,282.7 L1180.4,282.8 L1181.1,281.8 L1181.3,280.7 L1181.6,278.7 L1181.8,277.7 L1182.0,277.8 L1182.4,278.6 L1182.5,278.4 L1183.2,275.8 L1184.0,274.7 L1184.2,274.5 L1184.4,274.2 L1184.8,273.5 L1185.2,273.1 L1185.4,272.5 L1185.7,271.3 L1186.0,270.3 L1186.4,268.8 L1186.5,268.7 L1186.9,269.9 L1187.0,270.2 L1187.2,269.8 L1187.5,268.7 L1187.7,268.4 L1188.1,268.1 L1188.4,269.3 L1188.7,269.5 L1189.1,268.8 L1189.8,269.9 L1190.1,269.6 L1190.5,270.6 L1192.3,267.8 L1192.5,267.3 L1192.9,264.7 L1193.0,263.2 L1193.3,260.9 L1193.5,259.2 L1193.7,259.2 L1194.5,265.2 L1194.8,266.8 L1195.2,267.4 L1196.0,266.5 L1196.4,266.3 L1197.0,266.1 L1197.3,265.2 L1197.4,264.4 L1197.6,263.0 L1198.4,254.1 L1198.6,253.0 L1198.7,252.3 L1198.8,252.7 L1199.5,254.6 L1199.8,252.8 L1200.1,249.9 L1200.3,249.2 L1200.5,249.6 L1200.7,250.1 L1201.0,251.7 L1201.2,251.9 L1201.4,252.0 L1201.6,250.9 L1202.0,247.4 L1202.7,245.8 L1203.8,244.3 L1204.6,244.1 L1205.5,235.1 L1205.6,234.1 L1205.7,233.7 L1205.9,234.3 L1206.2,238.4 L1206.7,244.7 L1207.3,245.7 L1207.6,243.9 L1208.1,235.2 L1209.1,234.9 L1209.5,232.7 L1210.1,229.9 L1210.2,229.7 L1210.9,227.3 L1211.1,227.0 L1211.2,226.6 L1211.3,226.5 L1211.5,227.0 L1212.8,229.5 L1213.4,230.7 L1213.6,231.4 L1213.7,231.3 L1213.8,230.9 L1214.2,229.0 L1214.6,224.3 L1215.4,218.8 L1215.5,219.4 L1215.9,223.1 L1216.0,223.8 L1216.2,223.3 L1216.4,221.7 L1216.7,218.9 L1217.2,215.0 L1217.4,214.6 L1217.5,214.9 L1217.6,215.8 L1218.1,217.3 L1218.3,217.4 L1218.4,217.6 L1218.6,218.0 L1219.5,217.8 L1220.0,217.1 L1220.2,216.9 L1220.4,217.3 L1220.6,217.6 L1221.3,212.7 L1221.9,208.0 L1222.6,205.1 L1222.8,204.7 L1223.8,198.9 L1223.9,198.7 L1224.1,199.3 L1224.3,200.8 L1224.9,204.7 L1225.1,205.4 L1225.3,205.1 L1225.5,203.7 L1226.1,198.4 L1226.3,197.7 L1226.5,198.6 L1226.7,200.4 L1227.1,202.5 L1227.4,201.7 L1227.6,200.5 L1227.8,198.5 L1228.1,195.9 L1228.3,196.1 L1229.4,196.0 L1230.0,193.4 L1230.2,193.0 L1230.4,192.9 L1230.5,193.1 L1230.7,193.6 L1230.8,193.8 L1231.2,195.3 L1231.4,195.2 L1231.5,194.7 L1231.7,193.1 L1231.8,192.4 L1231.9,192.0 L1232.1,191.8 L1232.2,192.1 L1232.6,191.8 L1233.2,189.4 L1233.4,188.8 L1233.6,188.6 L1233.8,188.7 L1235.7,187.3 L1236.3,188.1 L1236.6,188.9 L1237.3,187.5 L1237.5,186.3 L1237.7,184.3 L1238.0,182.4 L1238.3,182.4 L1238.6,183.9 L1238.8,184.8 L1239.0,184.9 L1239.1,184.5 L1239.5,182.1 L1239.6,180.5 L1239.8,179.5 L1239.9,178.6 L1240.0,178.1 L1240.2,178.0 L1240.6,179.3 L1241.9,175.5 L1242.8,169.8 L1242.9,169.7 L1243.2,170.5 L1244.0,174.2 L1244.1,174.7 L1244.3,175.5 L1244.5,175.8 L1244.7,175.7 L1245.1,173.4 L1246.9,170.3 L1247.1,170.2 L1247.5,169.4 L1247.9,168.4 L1248.2,168.0 L1249.1,168.7 L1249.6,168.7 L1249.8,168.7 L1250.3,168.5 L1251.2,163.0 L1251.5,162.2 L1251.9,161.5 L1252.1,161.0 L1252.3,160.4 L1252.5,160.0 L1252.9,160.1 L1253.4,161.0 L1253.8,161.8 L1254.7,162.3 L1255.4,165.1 L1256.0,167.4 L1256.3,168.2 L1256.6,168.9 L1257.3,168.7 L1257.5,168.5 L1257.6,168.5 L1257.8,169.0 L1257.9,169.8 L1258.3,172.9 L1258.8,174.5 L1259.8,175.7 L1260.0,176.1 L1260.3,176.7 L1260.5,177.0 L1260.6,177.5 L1261.0,178.1 L1261.2,178.4 L1261.6,178.7 L1261.7,178.8 L1261.9,178.9 L1262.0,179.1 L1262.1,179.3 L1262.7,180.3 L1263.2,180.0 L1263.3,179.9 L1263.5,179.8 L1263.7,179.8 L1264.0,181.3 L1264.2,181.7 L1264.4,181.8 L1264.7,182.1 L1265.1,183.0 L1265.5,183.2 L1265.8,185.3 L1266.3,186.0 L1266.7,186.5 L1267.1,187.6 L1267.3,188.4 L1267.5,189.8 L1267.9,192.7 L1269.0,196.8 L1269.8,199.6 L1270.1,200.0 L1270.2,200.0 L1270.5,200.1 L1270.7,200.2 L1271.2,200.8 L1272.0,200.1 L1272.3,200.3 L1273.0,202.4 L1273.3,203.5 L1273.7,205.5 L1274.2,207.5 L1274.9,208.0 L1275.1,208.4 L1275.7,211.8 L1275.9,212.5 L1276.3,213.6 L1277.2,217.2 L1277.4,218.1 L1277.7,219.3 L1278.2,221.3 L1278.4,221.6 L1278.7,220.7 L1279.0,218.0 L1279.2,216.8 L1279.3,216.1 L1279.5,216.0 L1279.7,216.9 L1279.9,218.2 L1280.3,221.8 L1280.5,223.3 L1280.7,223.9 L1281.4,223.0 L1282.3,229.4 L1283.0,232.3 L1283.3,234.4 L1284.1,234.4 L1284.4,234.8 L1284.7,236.0 L1285.3,238.7 L1285.6,239.3 L1286.0,239.0 L1286.2,239.5 L1286.5,241.1 L1287.1,243.0 L1287.8,247.7 L1288.2,249.2 L1288.7,250.4 L1288.9,250.6 L1289.5,247.8 L1289.8,248.7 L1290.7,253.2 L1291.0,253.6 L1291.7,251.5 L1292.0,251.0 L1292.2,251.6 L1292.6,253.8 L1293.4,257.6 L1294.0,260.0 L1294.2,259.9 L1294.4,259.0 L1294.5,258.8 L1294.7,259.4 L1295.2,262.1 L1295.9,261.7 L1296.3,263.5 L1297.4,262.3 L1298.9,270.6 L1299.3,271.1 L1299.6,270.7 L1300.6,272.0 L1302.2,274.8 L1302.8,274.9 L1303.3,275.2 L1303.6,277.0 L1304.4,280.8 L1305.5,279.3 L1306.1,283.6 L1306.3,285.1 L1307.1,287.9 L1307.4,288.5 L1307.6,288.5 L1307.9,287.4 L1308.8,286.0 L1309.5,290.1 L1310.3,295.5 L1311.1,297.8 L1312.6,302.1 L1312.9,302.6 L1313.9,308.9 L1314.7,310.0 L1315.4,311.5 L1315.7,312.2 L1315.7,312.4 L1315.9,312.7 L1316.1,313.0 L1316.2,313.3 L1316.7,314.0 L1316.9,314.1 L1317.1,314.5 L1317.6,316.2 L1318.0,317.4 L1318.4,317.2 L1319.2,317.0 L1319.7,315.8 L1320.1,314.9 L1320.9,315.7 L1321.1,315.6 L1321.3,315.9 L1322.3,319.0 L1322.8,320.7 L1323.1,320.4 L1323.4,320.9 L1323.5,321.2 L1324.1,323.3 L1324.6,324.5 L1324.9,325.7 L1325.8,327.3 L1326.4,328.4 L1327.2,327.9 L1327.9,329.0 L1328.0,329.2 L1328.6,330.5 L1328.9,330.4 L1329.0,330.0 L1329.4,328.3 L1329.8,327.0 L1330.0,325.7 L1330.7,323.8 L1331.0,323.8 L1331.2,323.2 L1333.2,320.8 L1335.0,320.0 L1335.7,319.3 L1336.5,317.7 L1337.5,316.8 L1338.1,317.4 L1339.2,313.4 L1340.0,313.1 L1340.8,311.2 L1341.2,309.8 L1341.7,308.9 L1342.0,308.6 L1342.1,308.6 L1342.3,308.6 L1342.4,308.6 L1342.6,308.4 L1343.0,308.7 L1343.3,308.4 L1344.0,303.0 L1344.1,301.9 L1344.3,301.3 L1345.0,301.6 L1345.6,301.9 L1345.6,301.1 L1345.8,299.0 L1345.9,297.7 L1346.0,297.5 L1346.5,299.4" fill="transparent" id="track" stroke="black" stroke-width="2"/>
<g>
<circle cx="31.588" cy="239.358" fill="Red" id="wp-0/circle" r="3.000"/>
<text font-size="16.0" id="wp-623/text" text-anchor="start" x="33.588" y="236.358">
Wintereck
</text>
<circle cx="55.745" cy="291.540" fill="Red" id="wp-1/circle" r="3.000"/>
<text font-size="16.0" id="wp-637/text" text-anchor="start" x="57.745" y="288.540">
Höllköpfle
</text>
<circle cx="0.000" cy="150.291" fill="Red" id="wp-2/circle" r="3.000"/>
<text font-size="16.0" id="wp-622/text" text-anchor="start" x="2.000" y="147.291">
Regeleskopf
</text>
<circle cx="74.620" cy="313.688" fill="Gray" id="wp-3/circle" r="2.000"/>
<text font-size="16.0" id="wp-541/text" text-anchor="start" x="76.620" y="345.688">
Walke
</text>
<circle cx="79.546" cy="312.293" fill="Red" id="wp-4/circle" r="3.000"/>
<text font-size="16.0" id="wp-546/text" text-anchor="start" x="81.546" y="329.293">
Webersköpfle
</text>
<circle cx="247.549" cy="134.597" fill="Blue" id="wp-5/circle" r="3.000"/>
<text font-size="16.0" id="wp-705/text" text-anchor="start" x="249.549" y="131.597">
Freiersberg
</text>
<circle cx="323.279" cy="281.223" fill="Gray" id="wp-6/circle" r="2.000"/>
<text font-size="16.0" id="wp-707/text" text-anchor="start" x="325.279" y="298.223">
Bad Peterstal
</text>
<circle cx="369.829" cy="253.380" fill="Gray" id="wp-7/circle" r="2.000"/>
<text font-size="16.0" id="wp-770/text" text-anchor="start" x="371.829" y="270.380">
Bad Griesbach
</text>
<circle cx="382.765" cy="232.149" fill="Red" id="wp-8/circle" r="3.000"/>
<text font-size="16.0" id="wp-716/text" text-anchor="start" x="384.765" y="249.149">
Kreuzkopf
</text>
<circle cx="556.143" cy="118.982" fill="Red" id="wp-9/circle" r="3.000"/>
<text font-size="16.0" id="wp-853/text" text-anchor="start" x="558.143" y="115.982">
Hoher Kopf
</text>
<circle cx="542.056" cy="92.334" fill="Red" id="wp-10/circle" r="3.000"/>
<text font-size="16.0" id="wp-855/text" text-anchor="start" x="544.056" y="89.334">
Sperberhart
</text>
<circle cx="785.289" cy="69.708" fill="Red" id="wp-11/circle" r="3.000"/>
<text font-size="16.0" id="wp-934/text" text-anchor="start" x="792.289" y="36.708">
Altsteigerskopf
</text>
<circle cx="746.383" cy="74.130" fill="Blue" id="wp-12/circle" r="3.000"/>
<text font-size="16.0" id="wp-940/text" text-anchor="start" x="748.383" y="111.130">
Ruhestein
</text>
<circle cx="786.987" cy="70.704" fill="Red" id="wp-13/circle" r="3.000"/>
<text font-size="16.0" id="wp-935/text" text-anchor="start" x="788.987" y="37.704">
Geißkopf
</text>
<circle cx="804.007" cy="57.121" fill="Red" id="wp-14/circle" r="3.000"/>
<text font-size="16.0" id="wp-936/text" text-anchor="start" x="806.007" y="34.121">
Schwarzkopf
</text>
<circle cx="811.931" cy="57.679" fill="Blue" id="wp-15/circle" r="3.000"/>
<text font-size="16.0" id="wp-931/text" text-anchor="start" x="813.931" y="54.679">
Seibelseckle
</text>
<circle cx="473.523" cy="54.054" fill="Blue" id="wp-16/circle" r="3.000"/>
<text font-size="16.0" id="wp-777/text" text-anchor="start" x="475.523" y="51.054">
Alexanderschanze
</text>
<circle cx="638.602" cy="200.162" fill="Black" id="wp-17/circle" r="4.000"/>
<text font-size="16.0" id="wp-1438/text" text-anchor="start" x="655.602" y="197.162">
K3
</text>
<circle cx="639.312" cy="199.884" fill="Gray" id="wp-18/circle" r="2.000"/>
<text font-size="16.0" id="wp-847/text" text-anchor="start" x="641.312" y="216.884">
Obertal
</text>
<circle cx="981.392" cy="233.383" fill="Red" id="wp-19/circle" r="3.000"/>
<text font-size="16.0" id="wp-1045/text" text-anchor="start" x="983.392" y="230.383">
Tauchert
</text>
<circle cx="1231.666" cy="193.072" fill="Red" id="wp-20/circle" r="3.000"/>
<text font-size="16.0" id="wp-1190/text" text-anchor="start" x="1233.666" y="135.072">
Kleines Matterhorn
</text>
<circle cx="1205.492" cy="235.056" fill="Red" id="wp-21/circle" r="3.000"/>
<text font-size="16.0" id="wp-1118/text" text-anchor="start" x="1212.492" y="247.056">
Riedkopf
</text>
<circle cx="1252.545" cy="160.010" fill="Blue" id="wp-22/circle" r="3.000"/>
<text font-size="16.0" id="wp-1191/text" text-anchor="start" x="1264.545" y="177.010">
Rote Lache
</text>
<circle cx="1151.068" cy="321.455" fill="Gray" id="wp-23/circle" r="2.000"/>
<text font-size="16.0" id="wp-1124/text" text-anchor="start" x="1153.068" y="338.455">
Forbach
</text>
<circle cx="1184.048" cy="274.731" fill="Gray" id="wp-24/circle" r="2.000"/>
<text font-size="16.0" id="wp-1115/text" text-anchor="start" x="1186.048" y="291.731">
Bermersbach
</text>
<circle cx="1000.609" cy="249.357" fill="Gray" id="wp-25/circle" r="2.000"/>
<text font-size="16.0" id="wp-1043/text" text-anchor="start" x="1002.609" y="211.357">
Schönmünzach
</text>
<circle cx="1119.394" cy="301.459" fill="Red" id="wp-26/circle" r="3.000"/>
<text font-size="16.0" id="wp-1126/text" text-anchor="start" x="1121.394" y="283.459">
Eckkopf
</text>
<circle cx="1233.377" cy="188.810" fill="Red" id="wp-27/circle" r="3.000"/>
<text font-size="16.0" id="wp-1189/text" text-anchor="start" x="1265.377" y="175.810">
Maienplatz
</text>
<circle cx="1231.875" cy="191.997" fill="Red" id="wp-28/circle" r="3.000"/>
<text font-size="16.0" id="wp-1187/text" text-anchor="start" x="1263.875" y="173.997">
Hartkopf
</text>
<circle cx="1241.875" cy="175.506" fill="Red" id="wp-29/circle" r="3.000"/>
<text font-size="16.0" id="wp-1192/text" text-anchor="start" x="1243.875" y="157.506">
Hohberg
</text>
</g>
</g>
<g id="SL" transform="translate(0 0)">
<text text-anchor="end" x="66" y="363.5">
200
</text>
<text text-anchor="end" x="66" y="323.66666666666663">
300
</text>
<text text-anchor="end" x="66" y="283.8333333333333">
400
</text>
<text text-anchor="end" x="66" y="243.99999999999997">
500
</text>
<text text-anchor="end" x="66" y="204.16666666666663">
600
</text>
<text text-anchor="end" x="66" y="164.33333333333331">
700
</text>
<text text-anchor="end" x="66" y="124.5">
800
</text>
<text text-anchor="end" x="66" y="84.66666666666663">
900
</text>
<text text-anchor="end" x="66" y="44.833333333333314">
1000
</text>
<text text-anchor="end" x="66" y="5">
1100
</text>
</g>
</g>
</svg>