<svg height="400" width="1420" xmlns="http://www.w3.org/2000/svg">
<g font-family="Libertinus Serif" font-size="15" id="world" shape-rendering="crispEdges">
<g id="BG"/>
<g id="SB" transform="translate(0 360)">
<text text-anchor="middle" x="0" y="14.5">
0
</text>
<text text-anchor="middle" x="283.89041523008825" y="14.5">
20
</text>
<text text-anchor="middle" x="567.7808304601765" y="14.5">
40
</text>
<text text-anchor="middle" x="851.6712456902648" y="14.5">
60
</text>
<text text-anchor="middle" x="1135.561660920353" y="14.5">
80
</text>
</g>
<g id="SD" transform="translate(0 0)">
<path d="M0,0 L0,358.5 L1418.5,358.5 L1418.5,0 L0,0" fill="lightgray" id="bg"/>
<path d="M0,0 L1418.5,0" stroke="black" stroke-width="3"/>
<path d="M0,0 L0,358.5" stroke="black" stroke-width="3"/>
<path d="M0,358.5 L1418.5,358.5" stroke="black" stroke-width="3"/>
<path d="M1418.5,0 L1418.5,358.5" stroke="black" stroke-width="3"/>
<path d="M0,0 L0,358.5" stroke="black" stroke-width="1"/>
<path d="M283.8904,0 L283.8904,358.5" stroke="black" stroke-width="1"/>
<path d="M567.7808,0 L567.7808,358.5" stroke="black" stroke-width="1"/>
<path d="M851.67126,0 L851.67126,358.5" stroke="black" stroke-width="1"/>
<path d="M1135.5616,0 L1135.5616,358.5" stroke="black" stroke-width="1"/>
<path d="M141.9452,0 L141.9452,358.5" stroke="black" stroke-dasharray="1.0,2.5,5.0,5.0,10.0,5.0"/>
<path d="M425.83563,0 L425.83563,358.5" stroke="black" stroke-dasharray="1.0,2.5,5.0,5.0,10.0,5.0"/>
<path d="M709.726,0 L709.726,358.5" stroke="black" stroke-dasharray="1.0,2.5,5.0,5.0,10.0,5.0"/>
<path d="M993.61646,0 L993.61646,358.5" stroke="black" stroke-dasharray="1.0,2.5,5.0,5.0,10.0,5.0"/>
<path d="M1277.5068,0 L1277.5068,358.5" stroke="black" stroke-dasharray="1.0,2.5,5.0,5.0,10.0,5.0"/>
<path d="M0,358.5 L1418.5,358.5" stroke="black" stroke-width="1"/>
<path d="M0,322.65 L1418.5,322.65" stroke="black" stroke-width="1"/>
<path d="M0,286.8 L1418.5,286.8" stroke="black" stroke-width="1"/>
<path d="M0,250.95 L1418.5,250.95" stroke="black" stroke-width="1"/>
<path d="M0,215.1 L1418.5,215.1" stroke="black" stroke-width="1"/>
<path d="M0,179.25 L1418.5,179.25" stroke="black" stroke-width="1"/>
<path d="M0,143.4 L1418.5,143.4" stroke="black" stroke-width="1"/>
<path d="M0,107.55 L1418.5,107.55" stroke="black" stroke-width="1"/>
<path d="M0,71.7 L1418.5,71.7" stroke="black" stroke-width="1"/>
<path d="M0,35.85 L1418.5,35.85" stroke="black" stroke-width="1"/>
<path d="M0,0 L1418.5,0" stroke="black" stroke-width="1"/>
<path d="M0,340.575 L1418.5,340.575" stroke="black" stroke-dasharray="1.0,2.5,5.0,5.0,10.0,5.0"/>
<path d="M0,304.725 L1418.5,304.725" stroke="black" stroke-dasharray="1.0,2.5,5.0,5.0,10.0,5.0"/>
<path d="M0,268.875 L1418.5,268.875" stroke="black" stroke-dasharray="1.0,2.5,5.0,5.0,10.0,5.0"/>
<path d="M0,233.025 L1418.5,233.025" stroke="black" stroke-dasharray="1.0,2.5,5.0,5.0,10.0,5.0"/>
<path d="M0,197.175 L1418.5,197.175" stroke="black" stroke-dasharray="1.0,2.5,5.0,5.0,10.0,5.0"/>
<path d="M0,161.325 L1418.5,161.325" stroke="black" stroke-dasharray="1.0,2.5,5.0,5.0,10.0,5.0"/>
<path d="M0,125.475 L1418.5,125.475" stroke="black" stroke-dasharray="1.0,2.5,5.0,5.0,10.0,5.0"/>
<path d="M0,89.625 L1418.5,89.625" stroke="black" stroke-dasharray="1.0,2.5,5.0,5.0,10.0,5.0"/>
<path d="M0,53.775 L1418.5,53.775" stroke="black" stroke-dasharray="1.0,2.5,5.0,5.0,10.0,5.0"/>
<path d="M0,17.925 L1418.5,17.925" stroke="black" stroke-dasharray="1.0,2.5,5.0,5.0,10.0,5.0"/>
<path d="M0.0,163.7 L0.3,163.4 L0.4,163.4 L0.8,163.3 L0.9,163.3 L1.5,163.4 L1.7,163.4 L1.7,163.4 L2.3,163.8 L2.9,163.8 L3.7,163.9 L4.2,163.4 L5.7,163.0 L5.9,163.2 L6.1,163.4 L6.4,163.6 L7.2,163.9 L7.7,164.0 L8.1,164.0 L8.5,163.9 L8.9,163.6 L9.5,163.5 L10.0,163.5 L10.4,163.4 L11.3,163.9 L11.7,164.0 L12.0,163.7 L12.4,163.3 L13.4,163.8 L13.8,164.1 L15.0,164.5 L16.1,165.0 L16.5,164.6 L17.1,163.4 L17.6,163.6 L18.2,164.5 L18.7,164.1 L19.3,163.6 L20.5,164.2 L21.7,163.2 L22.7,162.9 L23.2,163.2 L24.6,163.6 L25.0,163.3 L25.8,163.2 L26.2,163.5 L27.2,164.0 L28.0,163.2 L28.7,162.7 L35.2,162.0 L39.3,161.4 L41.0,160.5 L41.9,160.4 L43.7,160.8 L43.9,161.1 L44.1,161.3 L44.7,161.9 L46.3,161.0 L52.5,159.4 L52.7,159.4 L52.9,159.4 L54.0,160.2 L54.3,160.0 L55.9,160.1 L58.4,159.4 L59.2,158.7 L59.7,158.3 L60.1,158.7 L61.0,159.5 L61.4,159.1 L63.0,158.6 L64.0,158.5 L64.1,158.5 L64.4,158.6 L64.5,158.8 L64.8,158.8 L65.7,158.3 L65.9,158.1 L66.1,158.1 L66.3,158.1 L67.3,157.5 L67.5,157.4 L67.8,157.5 L68.0,157.5 L68.4,157.5 L68.7,157.6 L69.9,158.1 L71.0,158.0 L72.4,157.9 L72.7,157.7 L72.9,157.6 L73.4,157.9 L73.6,158.0 L74.0,157.8 L74.3,157.8 L75.9,158.3 L76.9,157.9 L77.1,158.0 L77.7,158.2 L78.3,158.3 L79.1,158.2 L80.2,157.5 L80.8,156.1 L81.2,155.7 L81.5,155.1 L82.2,153.3 L82.8,154.1 L83.0,153.9 L83.6,152.3 L84.2,154.0 L84.5,155.4 L84.9,156.6 L85.7,156.3 L85.9,155.9 L86.5,155.7 L86.7,155.8 L86.8,155.9 L87.0,156.0 L87.2,156.0 L87.4,155.9 L87.5,155.7 L88.1,154.3 L88.2,153.5 L88.7,153.2 L89.4,152.9 L90.0,151.3 L90.5,149.8 L90.9,150.0 L91.4,150.4 L91.9,151.6 L92.4,152.6 L94.6,152.1 L95.3,152.4 L95.9,152.3 L96.4,151.4 L98.0,151.5 L98.4,152.0 L99.1,152.2 L99.7,152.6 L100.3,152.6 L100.8,152.4 L106.0,154.0 L108.1,152.9 L110.0,150.4 L111.6,153.2 L112.7,152.1 L113.8,152.0 L114.7,152.1 L116.0,152.2 L117.0,151.2 L117.9,149.7 L118.5,150.1 L119.1,151.3 L119.8,151.1 L120.2,151.3 L120.8,151.1 L122.7,152.4 L123.9,152.8 L125.6,152.4 L127.7,151.1 L129.0,149.5 L130.7,149.5 L133.8,146.4 L134.9,148.0 L136.1,149.7 L137.2,150.6 L138.9,148.9 L140.1,149.7 L141.2,150.1 L142.4,150.7 L142.6,150.8 L143.9,148.7 L144.7,148.0 L146.9,148.7 L149.3,147.7 L150.6,148.3 L151.7,148.8 L152.4,146.4 L152.8,146.2 L153.4,147.6 L154.1,149.6 L155.0,148.0 L156.0,146.4 L156.6,147.9 L156.7,147.9 L157.4,147.2 L158.1,146.8 L159.8,147.7 L160.3,147.4 L161.0,147.0 L162.5,146.7 L163.0,146.2 L163.4,145.4 L163.9,145.5 L164.3,145.9 L164.6,146.4 L165.1,145.4 L169.5,144.2 L170.3,144.6 L170.6,144.4 L171.0,143.9 L171.4,143.1 L172.4,143.4 L173.0,143.9 L173.5,144.4 L173.9,144.4 L174.5,143.6 L174.9,143.4 L176.8,143.7 L178.5,142.8 L179.0,142.6 L179.5,142.8 L180.2,142.8 L182.1,145.0 L182.8,144.9 L184.2,143.0 L187.5,140.6 L188.5,142.3 L189.3,142.1 L190.2,142.2 L191.0,140.7 L191.7,139.8 L192.1,140.1 L195.5,140.0 L196.9,143.8 L197.6,141.8 L198.0,140.6 L198.6,140.1 L198.9,140.6 L199.0,140.7 L199.0,140.7 L199.4,140.7 L199.5,140.4 L200.0,140.3 L200.9,140.3 L202.0,141.6 L202.6,140.8 L203.0,140.4 L204.3,133.0 L204.8,132.9 L205.2,132.9 L205.6,133.5 L206.2,135.3 L207.3,134.9 L207.7,134.6 L208.3,136.1 L208.8,138.3 L210.1,138.8 L210.5,139.2 L210.8,139.3 L212.2,133.8 L212.6,133.9 L213.3,136.3 L213.9,138.5 L214.0,138.6 L214.3,138.2 L214.7,137.7 L217.1,137.1 L218.1,137.4 L218.6,137.6 L219.3,137.2 L219.8,136.8 L220.5,137.0 L221.1,135.8 L223.7,134.9 L226.6,134.7 L227.6,134.6 L228.0,135.9 L228.3,136.1 L228.7,135.4 L228.8,134.9 L229.4,132.9 L233.1,128.1 L233.3,128.3 L234.0,127.4 L234.9,127.3 L235.6,126.8 L236.3,127.8 L236.6,128.1 L238.0,126.0 L238.5,125.1 L238.7,124.6 L239.2,123.8 L240.6,122.9 L240.8,123.4 L241.9,122.2 L242.5,122.5 L242.8,123.1 L243.7,122.7 L243.9,122.4 L244.3,122.1 L245.0,122.1 L245.3,121.1 L246.0,120.1 L246.8,120.9 L247.4,121.1 L247.6,121.0 L249.5,120.1 L250.3,117.3 L251.2,115.9 L252.7,110.8 L253.0,111.0 L253.6,111.0 L255.0,109.2 L255.3,109.6 L255.5,109.9 L255.6,110.3 L255.9,111.0 L256.1,110.6 L256.6,108.4 L256.8,107.6 L257.0,107.5 L257.2,107.2 L257.4,106.6 L257.7,105.8 L257.8,105.7 L258.7,107.1 L259.0,108.1 L259.2,107.4 L259.6,106.3 L259.9,105.9 L260.3,105.3 L260.8,105.4 L261.1,106.0 L262.3,105.6 L263.3,104.7 L263.8,105.3 L266.2,105.5 L267.8,105.7 L268.6,103.9 L269.1,103.5 L269.7,103.4 L271.4,102.6 L272.4,103.9 L272.9,103.9 L273.5,103.5 L275.0,102.0 L275.6,100.5 L275.8,100.0 L277.0,100.7 L278.3,101.7 L278.9,103.0 L279.2,103.6 L279.9,103.6 L280.1,102.9 L280.8,99.1 L281.6,97.3 L283.3,101.8 L283.9,100.6 L285.4,95.5 L285.6,95.8 L285.7,96.0 L287.2,96.9 L287.7,96.9 L288.6,97.3 L288.7,97.2 L288.9,97.0 L289.3,97.4 L289.4,97.8 L290.1,97.8 L290.9,97.3 L291.8,96.7 L292.6,95.0 L293.3,95.6 L294.5,95.3 L295.1,95.3 L295.6,94.9 L296.5,94.5 L296.8,94.3 L297.5,93.3 L297.8,93.3 L298.2,93.5 L298.8,93.2 L299.5,92.1 L300.1,92.2 L300.6,92.8 L300.8,92.9 L301.6,92.3 L303.1,90.2 L303.6,89.0 L304.9,88.4 L305.2,88.4 L307.6,86.1 L308.8,87.3 L310.3,85.9 L310.7,85.6 L310.9,85.3 L311.3,85.1 L312.4,84.9 L312.8,84.5 L313.3,84.7 L314.7,84.7 L316.3,83.8 L317.2,81.9 L317.8,81.2 L318.8,81.5 L319.3,82.0 L319.6,81.8 L320.7,80.5 L321.7,79.9 L322.3,78.9 L323.0,78.6 L323.9,78.3 L325.4,77.4 L325.7,76.9 L326.0,76.5 L326.8,76.4 L327.5,76.0 L327.7,75.6 L328.2,74.3 L329.5,74.1 L331.1,73.5 L331.6,73.3 L332.3,71.7 L332.5,71.3 L332.7,70.8 L332.9,70.3 L333.4,69.5 L334.8,66.5 L335.2,66.8 L335.5,68.3 L335.7,68.7 L335.9,68.9 L336.1,68.9 L336.4,68.9 L336.5,68.6 L336.7,68.7 L337.6,71.3 L337.7,71.6 L337.9,71.7 L338.6,70.5 L338.9,68.9 L339.2,68.4 L339.4,68.3 L339.6,68.4 L339.7,68.3 L340.1,68.2 L340.8,68.5 L341.0,68.8 L341.2,68.7 L341.4,68.4 L343.7,65.0 L344.4,64.3 L345.5,62.1 L346.5,60.4 L347.1,60.3 L347.6,60.2 L348.0,59.6 L348.7,58.1 L349.4,58.2 L349.9,57.8 L351.6,53.2 L352.4,51.4 L353.2,49.6 L354.1,50.6 L356.1,47.4 L356.8,46.9 L357.4,46.1 L358.1,45.1 L358.7,44.9 L361.9,51.3 L363.7,57.0 L364.1,58.1 L364.6,59.9 L365.3,61.9 L366.3,64.4 L366.8,65.5 L367.4,67.8 L367.9,69.2 L368.2,69.9 L369.0,69.1 L371.4,71.2 L371.8,70.9 L373.5,72.3 L374.5,74.3 L374.6,74.9 L376.6,75.6 L377.9,79.5 L378.8,80.9 L380.3,81.3 L381.9,82.7 L382.6,83.4 L384.1,86.1 L384.5,86.3 L384.9,86.9 L386.2,91.5 L386.5,93.1 L386.7,93.6 L387.0,93.5 L387.6,92.3 L389.6,92.6 L393.0,94.4 L394.2,95.5 L394.4,95.8 L394.6,95.8 L394.9,95.5 L395.2,94.9 L395.7,95.3 L396.1,95.5 L398.9,91.8 L399.4,91.9 L400.2,92.1 L401.9,95.5 L402.2,95.8 L402.4,96.1 L402.8,95.9 L403.0,95.9 L403.1,95.9 L403.7,96.3 L404.0,96.3 L404.1,96.2 L404.2,96.2 L404.4,96.3 L404.5,96.4 L404.7,96.5 L404.9,96.7 L405.1,96.7 L405.3,96.6 L406.3,97.8 L407.4,98.4 L407.4,98.4 L408.5,99.4 L408.9,99.6 L409.1,99.7 L409.2,99.9 L409.6,100.2 L410.1,99.5 L410.2,99.4 L410.2,99.4 L410.4,99.3 L410.6,99.3 L410.8,99.4 L411.0,99.6 L411.4,100.0 L411.6,100.2 L411.7,100.2 L412.6,99.8 L413.4,100.7 L413.8,101.0 L414.2,101.0 L414.3,100.9 L415.1,100.2 L415.6,99.6 L416.1,100.9 L416.1,101.0 L416.3,101.6 L416.4,101.9 L416.7,102.2 L417.1,102.3 L417.3,102.3 L417.5,102.4 L417.6,102.4 L417.7,102.4 L418.3,102.9 L419.2,102.7 L419.5,102.3 L420.1,101.7 L420.8,101.8 L421.3,102.2 L422.1,101.7 L422.4,101.6 L422.6,101.4 L422.7,101.2 L423.1,100.8 L423.8,101.3 L424.5,101.3 L426.4,102.3 L426.6,102.8 L426.8,103.0 L427.2,103.5 L427.3,103.6 L427.8,104.2 L428.1,104.1 L428.4,104.0 L428.6,104.1 L428.7,104.1 L428.9,104.1 L429.1,104.0 L429.3,103.9 L429.4,103.7 L430.3,103.5 L430.7,103.2 L431.4,102.7 L431.9,101.6 L432.3,100.5 L432.7,100.6 L433.2,100.6 L433.2,100.6 L434.4,102.4 L435.2,103.6 L436.0,104.1 L436.3,104.0 L436.4,103.9 L436.5,103.7 L437.4,103.5 L437.8,103.2 L439.4,102.9 L440.0,102.0 L440.6,100.3 L441.5,99.2 L442.3,100.5 L442.7,100.6 L443.2,100.6 L443.2,100.6 L444.4,102.4 L445.2,103.6 L446.0,104.1 L446.3,104.0 L446.4,103.9 L446.5,103.7 L447.4,103.5 L447.8,103.2 L449.4,102.9 L450.0,102.0 L450.6,100.3 L451.3,100.7 L451.6,99.4 L451.8,98.9 L451.9,98.6 L452.6,99.1 L453.0,99.6 L453.2,99.6 L454.0,98.4 L454.3,98.3 L454.5,98.5 L456.0,96.9 L456.5,97.3 L457.5,95.6 L458.4,96.4 L458.8,96.1 L461.2,96.9 L461.3,96.9 L462.3,96.4 L463.1,94.5 L463.8,94.9 L464.9,92.9 L466.0,94.4 L467.2,94.9 L468.0,95.5 L468.1,95.5 L468.6,95.1 L469.0,95.2 L470.1,94.4 L472.7,94.4 L473.7,94.8 L474.4,93.1 L475.2,94.5 L475.9,93.2 L476.5,93.9 L477.4,94.5 L477.7,94.2 L477.8,94.0 L478.3,93.4 L478.6,92.7 L482.6,86.6 L483.4,85.5 L484.5,88.3 L485.2,90.3 L485.7,90.3 L490.2,88.4 L490.5,87.5 L492.8,80.3 L494.0,82.8 L498.1,84.2 L498.7,85.1 L498.8,85.1 L499.1,85.0 L500.0,83.4 L501.3,81.6 L502.4,81.9 L503.4,83.6 L504.6,83.6 L504.9,83.2 L505.5,82.5 L506.1,82.1 L506.5,82.1 L506.7,82.2 L507.2,82.4 L508.1,80.7 L509.0,79.8 L509.7,78.0 L510.3,77.1 L510.4,77.1 L511.1,77.3 L512.1,75.9 L512.7,75.2 L513.1,74.5 L514.4,74.7 L514.8,74.1 L515.1,73.7 L515.6,73.1 L516.1,73.1 L517.0,73.1 L517.3,72.5 L517.8,70.6 L518.1,70.7 L518.8,73.1 L519.1,72.6 L519.3,72.0 L519.9,70.2 L520.8,68.1 L521.9,69.3 L522.3,68.9 L522.6,68.7 L522.9,68.5 L523.5,67.6 L523.7,68.0 L523.8,68.3 L524.0,68.5 L524.5,68.9 L524.6,69.0 L524.8,68.9 L525.0,68.6 L525.8,65.5 L526.2,64.3 L526.5,63.9 L527.0,63.3 L528.1,60.2 L529.0,57.6 L529.8,53.2 L530.2,51.8 L531.0,52.5 L531.3,53.0 L531.7,53.6 L532.1,54.8 L532.4,55.4 L533.2,56.4 L533.6,55.8 L533.8,55.4 L534.0,54.8 L534.3,54.3 L535.3,52.2 L535.5,51.5 L535.8,50.7 L536.3,49.2 L536.7,48.9 L538.9,48.0 L540.6,47.0 L541.0,46.2 L541.9,44.7 L542.9,45.8 L545.0,45.6 L545.4,46.4 L545.7,46.9 L545.9,47.5 L546.3,48.2 L546.8,46.9 L547.8,43.4 L549.1,42.0 L550.4,41.3 L550.9,42.2 L552.7,43.8 L554.0,47.8 L554.6,49.2 L554.9,49.3 L555.2,49.6 L555.9,50.0 L556.4,50.2 L557.1,49.7 L557.7,50.1 L558.6,51.5 L559.4,52.1 L559.8,52.5 L560.5,54.3 L560.7,54.7 L560.9,54.9 L561.4,55.2 L561.6,55.0 L561.8,54.8 L562.3,54.9 L562.5,55.0 L562.7,55.1 L563.2,55.4 L563.7,56.3 L563.8,56.4 L564.0,56.4 L564.6,55.5 L564.7,55.1 L565.1,54.2 L565.9,52.5 L566.7,52.2 L567.2,52.1 L567.3,52.1 L568.2,51.7 L568.6,51.1 L569.2,48.9 L569.5,48.8 L569.9,48.9 L570.3,48.8 L570.9,48.5 L571.9,49.4 L572.0,49.8 L573.0,49.1 L574.3,46.6 L575.5,49.2 L576.5,51.7 L577.1,53.4 L577.5,53.8 L578.1,54.1 L578.6,53.9 L578.9,53.9 L579.9,52.6 L582.8,54.5 L585.3,51.2 L585.6,51.0 L585.8,51.5 L586.0,52.3 L586.4,53.7 L587.7,52.2 L588.3,51.2 L588.6,51.3 L588.9,51.9 L590.1,55.6 L590.9,57.1 L591.5,58.4 L591.7,58.8 L591.9,59.3 L592.4,60.9 L592.6,61.9 L592.7,62.4 L592.8,62.9 L593.3,64.1 L594.0,63.7 L594.2,63.5 L594.4,63.5 L594.7,63.9 L594.9,64.1 L595.3,64.5 L596.2,65.1 L596.8,67.0 L597.6,67.9 L599.1,69.6 L599.5,70.8 L599.7,71.3 L600.8,71.7 L601.2,71.8 L601.6,71.6 L601.9,72.0 L602.6,70.2 L603.1,71.4 L603.7,73.7 L604.1,74.6 L604.6,75.4 L604.9,75.5 L605.3,75.6 L605.6,75.6 L606.5,75.7 L606.7,75.8 L606.9,76.3 L610.6,80.2 L611.1,79.8 L612.2,81.3 L613.9,86.3 L614.4,88.0 L614.7,88.9 L614.9,89.4 L615.0,89.6 L616.0,91.3 L616.4,92.3 L617.3,94.9 L617.4,94.8 L618.0,94.6 L618.4,95.2 L618.6,95.4 L619.2,96.7 L619.5,96.1 L619.6,96.1 L621.3,99.7 L621.9,100.1 L622.5,98.8 L622.7,98.7 L622.9,98.7 L623.2,98.7 L623.8,97.9 L624.1,97.9 L624.4,98.2 L625.0,97.9 L625.2,97.5 L625.8,96.4 L626.0,96.0 L626.7,95.3 L627.3,94.7 L627.9,94.1 L628.7,93.6 L629.3,92.6 L630.0,91.2 L630.2,90.7 L630.6,89.8 L631.1,88.9 L631.4,89.1 L632.2,88.8 L632.5,87.6 L633.0,86.3 L634.0,83.7 L634.3,83.2 L634.6,83.4 L635.8,83.5 L636.2,82.7 L636.7,82.3 L638.3,80.4 L638.9,79.6 L639.3,78.5 L639.9,77.6 L640.4,78.2 L640.7,78.5 L641.2,78.1 L641.5,77.7 L641.9,76.9 L642.1,76.5 L642.3,76.1 L642.7,75.8 L642.9,75.9 L643.5,75.7 L643.9,75.0 L644.2,74.9 L644.4,75.2 L644.6,75.4 L644.9,75.4 L647.5,66.2 L647.7,65.0 L648.1,63.8 L648.5,63.5 L649.5,63.2 L649.7,62.5 L650.8,61.6 L651.8,60.3 L652.1,59.2 L652.9,58.0 L654.1,61.3 L654.3,61.5 L655.3,62.5 L655.9,63.9 L656.9,64.1 L657.8,63.7 L658.6,62.6 L659.2,62.6 L660.0,63.0 L661.7,62.9 L662.2,63.2 L663.2,64.7 L664.1,64.0 L665.9,68.4 L666.1,69.4 L666.4,70.2 L666.6,70.4 L667.0,70.7 L667.0,70.7 L667.3,71.2 L667.5,71.7 L667.9,72.4 L668.2,72.3 L668.6,71.6 L668.8,71.2 L669.2,71.6 L669.5,72.7 L670.0,72.5 L670.4,71.8 L670.8,71.6 L671.0,71.6 L671.1,71.6 L671.6,71.6 L671.9,72.1 L672.5,72.0 L672.8,71.6 L673.8,72.8 L674.1,72.9 L674.7,73.2 L675.1,73.0 L675.6,72.0 L676.0,71.3 L676.5,72.0 L677.2,73.8 L677.6,74.5 L678.9,76.6 L679.5,77.8 L680.1,78.3 L681.5,79.9 L682.3,82.2 L682.7,82.3 L684.2,82.1 L684.4,81.7 L684.6,81.5 L684.9,81.5 L685.1,81.6 L685.2,81.4 L685.4,81.1 L685.6,81.1 L686.5,81.4 L687.3,87.1 L687.5,88.2 L687.7,88.7 L687.8,89.1 L688.0,89.2 L688.2,88.8 L689.6,84.9 L690.2,85.8 L691.1,90.1 L692.1,90.7 L692.4,91.3 L692.6,92.7 L692.8,94.2 L693.0,94.8 L693.2,95.3 L693.4,95.5 L693.7,95.3 L694.3,93.3 L694.7,91.1 L695.1,89.1 L695.6,88.8 L696.0,90.4 L696.6,93.0 L697.8,97.2 L698.1,98.0 L698.5,99.1 L698.8,100.0 L699.5,102.9 L699.8,104.8 L700.3,106.9 L700.9,108.3 L703.1,114.9 L703.6,116.5 L703.8,117.2 L704.5,118.9 L705.6,119.0 L706.4,120.2 L707.9,123.8 L709.6,127.7 L710.7,129.7 L711.5,127.6 L713.3,131.0 L713.8,131.0 L714.2,130.4 L714.6,130.7 L716.6,130.4 L718.1,133.6 L719.1,129.3 L719.7,129.8 L720.0,129.9 L722.0,134.1 L723.0,132.8 L724.2,136.5 L724.6,137.3 L725.0,138.7 L725.8,142.2 L726.1,142.7 L726.3,143.1 L726.8,143.3 L727.3,140.9 L728.2,134.7 L728.5,134.0 L728.9,133.8 L729.1,134.2 L730.1,137.5 L730.3,137.9 L730.5,138.8 L730.9,140.7 L731.3,140.8 L731.6,139.9 L731.9,138.9 L732.5,138.1 L733.1,139.9 L734.0,143.1 L734.3,143.8 L734.5,144.3 L734.9,145.3 L735.3,146.1 L735.8,147.2 L736.3,148.3 L736.8,149.0 L737.0,149.2 L737.4,148.3 L738.2,145.6 L738.5,145.3 L738.8,145.9 L739.9,150.1 L741.9,155.9 L742.2,156.7 L743.3,154.8 L743.7,156.2 L744.0,158.5 L744.3,161.0 L744.6,163.2 L745.7,165.8 L746.6,167.5 L747.1,167.2 L747.4,167.5 L748.1,167.7 L748.6,168.0 L748.9,167.7 L749.1,167.5 L750.1,170.1 L750.5,169.9 L751.1,168.8 L751.6,169.1 L752.1,171.7 L752.4,172.7 L752.7,173.5 L753.4,174.9 L754.1,176.1 L755.2,178.4 L756.8,176.7 L757.8,176.1 L758.3,177.1 L758.6,177.0 L759.7,179.9 L760.2,179.6 L760.8,179.8 L761.3,180.7 L762.6,182.8 L763.2,183.7 L763.6,183.9 L764.1,184.2 L765.1,183.8 L765.7,182.3 L766.3,185.0 L767.8,189.8 L768.4,191.3 L768.9,192.7 L768.9,193.0 L769.3,194.0 L769.7,194.6 L770.0,195.2 L770.1,195.2 L770.3,194.7 L771.2,190.7 L771.9,189.9 L772.4,189.3 L772.7,189.9 L772.9,191.2 L773.8,194.3 L774.0,195.1 L774.3,195.3 L775.5,193.0 L775.7,192.7 L776.0,193.0 L776.2,193.5 L776.4,194.1 L776.8,194.4 L777.5,194.8 L777.9,195.1 L778.3,195.6 L779.0,197.2 L779.9,198.2 L780.4,198.6 L780.5,198.9 L780.9,199.9 L781.0,200.9 L781.3,202.3 L781.8,205.1 L781.9,205.6 L782.0,205.9 L782.0,206.1 L782.1,206.4 L782.2,206.6 L782.2,206.8 L782.3,207.0 L782.3,207.1 L782.7,207.0 L782.9,206.9 L783.1,206.9 L784.9,206.2 L785.4,206.0 L785.6,205.9 L786.1,208.0 L787.9,211.2 L788.6,212.3 L788.9,212.6 L789.2,213.0 L790.0,211.5 L790.5,212.1 L791.4,214.7 L792.4,216.2 L793.6,217.6 L794.0,217.3 L794.5,217.3 L794.9,217.8 L795.7,218.5 L795.8,218.7 L796.2,218.8 L796.5,218.5 L796.8,218.0 L797.4,219.1 L797.4,219.2 L798.3,220.5 L798.9,220.9 L799.2,220.9 L800.3,220.4 L800.9,221.4 L801.5,222.5 L803.7,219.6 L804.3,221.7 L804.6,222.3 L804.9,222.8 L805.2,223.6 L805.7,225.0 L806.1,225.6 L806.5,226.3 L806.7,226.8 L806.9,227.2 L807.1,227.5 L807.6,227.5 L807.9,227.5 L809.5,229.4 L810.4,228.4 L810.8,227.7 L811.2,227.9 L812.1,227.8 L812.7,228.7 L813.9,230.0 L814.1,230.3 L814.4,230.6 L814.8,231.1 L815.3,231.2 L815.7,231.4 L816.1,231.7 L817.6,230.9 L818.2,229.7 L818.6,230.5 L819.2,231.8 L819.8,231.5 L820.3,232.8 L820.7,233.3 L821.5,234.3 L821.9,234.9 L822.3,235.3 L822.6,235.3 L822.9,235.1 L823.0,234.9 L823.1,234.8 L823.4,234.6 L823.8,234.6 L824.4,235.2 L825.1,235.3 L825.2,235.2 L825.3,235.1 L825.3,235.0 L825.4,234.9 L825.5,234.7 L825.8,234.5 L826.0,234.3 L826.4,234.5 L827.1,235.1 L827.4,235.7 L827.7,236.2 L827.9,236.5 L828.7,236.7 L830.5,237.9 L831.1,238.5 L831.6,238.9 L832.7,239.4 L833.4,240.5 L833.5,240.4 L834.0,240.5 L835.0,240.5 L835.3,240.7 L835.5,240.7 L835.9,240.3 L837.4,240.9 L837.9,241.8 L838.6,240.7 L838.8,240.3 L839.3,240.4 L839.9,241.8 L840.5,242.0 L841.3,243.2 L841.6,243.6 L842.4,243.2 L842.8,243.2 L843.3,243.7 L843.9,244.7 L844.1,245.0 L844.3,245.1 L844.8,245.0 L845.4,244.8 L845.6,244.5 L846.4,243.6 L846.9,244.7 L847.2,245.2 L847.7,246.0 L848.0,246.1 L848.3,246.0 L848.5,246.1 L848.7,246.4 L848.9,246.5 L849.2,246.4 L849.7,245.9 L849.9,245.5 L850.0,245.3 L850.5,245.3 L851.0,244.9 L851.2,244.5 L852.5,241.1 L852.6,240.8 L853.4,240.5 L854.6,239.4 L855.7,236.2 L857.2,234.2 L857.6,234.2 L859.7,231.4 L860.6,230.9 L860.8,230.6 L862.1,228.4 L862.6,227.5 L864.1,223.8 L865.0,220.7 L865.7,221.1 L867.1,218.8 L868.7,216.7 L869.3,213.8 L871.6,210.2 L871.9,209.1 L872.1,208.6 L872.8,207.0 L873.8,204.9 L874.3,202.4 L875.8,199.0 L876.4,197.7 L877.1,195.2 L878.4,192.4 L879.9,188.5 L880.3,187.2 L880.6,187.2 L880.8,187.6 L881.1,188.3 L881.5,190.0 L881.8,190.6 L882.2,192.0 L882.8,194.0 L883.1,195.2 L883.4,196.4 L884.0,196.5 L885.2,197.6 L885.8,201.8 L886.6,205.7 L887.7,209.7 L888.3,211.8 L888.4,213.1 L888.6,215.5 L888.8,216.6 L889.1,217.5 L889.4,218.5 L889.7,218.7 L890.0,218.8 L890.1,219.0 L890.3,219.4 L890.7,220.4 L891.1,220.9 L892.1,221.2 L892.4,221.3 L892.7,221.3 L893.5,222.1 L893.6,222.0 L893.8,221.5 L894.4,220.0 L894.7,220.1 L895.9,221.7 L896.6,222.9 L897.3,224.0 L897.4,224.2 L897.6,224.4 L897.7,224.5 L897.9,224.5 L898.0,224.3 L898.6,223.9 L898.7,224.3 L898.8,224.8 L899.0,225.6 L900.6,228.7 L902.1,230.6 L902.3,230.8 L902.5,231.1 L903.3,234.4 L903.9,237.1 L904.4,238.8 L904.7,239.5 L905.0,240.6 L905.5,242.5 L905.9,243.2 L906.0,243.6 L906.9,246.5 L908.3,246.0 L908.9,246.2 L910.0,242.0 L910.6,247.6 L911.5,252.3 L911.8,252.5 L912.5,253.4 L912.9,253.1 L913.6,255.6 L913.9,256.1 L914.6,252.2 L915.2,255.6 L915.7,261.0 L916.6,265.6 L917.2,267.1 L917.6,268.0 L918.0,269.6 L918.5,270.1 L919.4,267.6 L919.5,267.2 L919.6,267.1 L920.9,268.1 L921.8,271.2 L922.3,272.2 L924.0,278.2 L924.3,278.3 L924.9,278.1 L925.2,277.9 L925.6,278.7 L926.1,280.8 L926.4,281.6 L926.8,282.1 L928.0,283.7 L928.5,285.2 L929.4,284.2 L929.6,282.5 L930.4,279.1 L930.6,278.5 L931.2,279.4 L931.5,280.8 L931.8,281.8 L932.1,282.6 L934.4,287.3 L936.0,290.0 L936.5,290.3 L937.1,288.2 L937.2,287.6 L937.5,286.5 L939.4,284.5 L940.3,284.5 L941.0,286.7 L941.4,286.2 L942.1,288.4 L944.0,297.3 L944.3,297.7 L944.6,298.3 L944.9,298.7 L945.4,297.2 L945.6,296.9 L946.6,298.3 L946.8,298.2 L947.5,297.1 L947.9,297.4 L948.8,295.6 L949.0,295.5 L949.8,298.3 L950.7,301.8 L951.8,303.2 L952.0,303.5 L952.9,305.6 L953.4,306.1 L953.6,306.2 L954.5,305.5 L955.1,305.5 L956.4,305.9 L957.1,306.9 L957.5,308.1 L958.3,308.1 L958.6,308.6 L959.4,309.7 L959.6,309.7 L961.5,308.5 L962.2,309.5 L962.6,309.6 L962.9,308.8 L963.1,309.0 L963.6,310.9 L964.5,312.2 L965.7,312.6 L966.3,313.1 L967.1,313.4 L968.4,314.3 L968.7,314.5 L969.3,315.6 L969.7,315.6 L969.9,315.5 L970.3,315.9 L970.5,316.2 L970.7,316.7 L971.1,317.6 L971.7,318.1 L972.1,318.3 L972.7,318.5 L972.9,318.5 L973.4,318.4 L973.7,318.7 L974.5,319.9 L975.0,320.0 L975.4,319.8 L976.0,319.4 L976.3,319.3 L976.6,319.6 L976.8,319.7 L977.2,319.9 L977.6,320.0 L977.8,320.1 L978.4,320.8 L978.8,322.1 L979.3,322.3 L979.5,322.0 L979.9,321.9 L980.1,322.0 L980.4,322.2 L980.6,322.4 L980.9,322.5 L981.1,322.5 L981.4,322.2 L981.8,322.2 L982.2,321.9 L983.3,319.9 L983.7,319.5 L984.5,321.6 L986.6,322.9 L987.0,323.3 L988.2,322.8 L988.4,322.8 L988.6,323.2 L989.5,323.5 L989.7,323.7 L990.0,323.7 L990.3,323.4 L991.1,322.5 L991.6,323.3 L992.7,322.1 L993.6,322.2 L994.1,322.3 L995.0,322.1 L996.9,325.1 L997.6,325.7 L998.2,326.0 L998.9,326.0 L1000.0,327.5 L1001.5,328.3 L1003.2,330.3 L1005.2,330.0 L1005.4,330.1 L1010.3,332.9 L1010.3,332.9 L1010.4,333.0 L1010.7,332.8 L1011.3,332.1 L1013.2,332.2 L1013.5,332.2 L1014.6,331.6 L1014.7,331.8 L1014.9,331.9 L1015.0,331.9 L1015.1,332.0 L1016.1,333.2 L1017.9,333.6 L1018.4,333.1 L1018.9,332.7 L1019.2,332.8 L1019.4,332.8 L1019.6,333.0 L1019.8,333.2 L1020.5,333.8 L1020.9,333.8 L1021.6,334.1 L1022.1,334.2 L1022.5,334.4 L1022.7,334.6 L1024.0,335.0 L1025.0,335.1 L1025.3,335.1 L1026.0,335.2 L1026.5,335.2 L1026.7,335.2 L1026.9,335.2 L1027.2,335.2 L1027.4,335.2 L1027.8,335.2 L1028.0,335.2 L1028.1,335.2 L1028.4,335.2 L1028.8,335.0 L1029.7,335.1 L1030.2,335.1 L1030.4,334.9 L1030.6,334.9 L1031.4,334.1 L1032.0,335.0 L1033.1,335.2 L1033.8,334.9 L1035.6,334.8 L1038.4,334.2 L1040.9,334.9 L1042.3,334.8 L1043.8,334.3 L1044.0,334.3 L1047.5,334.3 L1047.9,334.1 L1047.9,334.2 L1049.3,333.8 L1049.4,333.7 L1050.5,333.3 L1052.8,333.0 L1053.2,332.6 L1053.8,332.5 L1054.9,332.0 L1055.1,331.7 L1056.3,329.5 L1056.5,329.6 L1057.0,329.6 L1057.0,329.5 L1057.7,327.7 L1058.0,327.1 L1058.4,327.0 L1059.0,326.7 L1059.5,325.8 L1060.6,323.2 L1061.1,322.1 L1061.5,322.6 L1062.4,322.9 L1062.8,322.5 L1062.8,322.4 L1063.4,322.7 L1063.8,324.2 L1064.2,325.4 L1064.7,325.9 L1064.8,326.1 L1065.0,326.1 L1065.6,325.6 L1066.0,325.3 L1066.5,325.5 L1067.0,325.3 L1067.2,325.3 L1067.3,325.2 L1070.0,323.0 L1070.7,321.6 L1071.5,320.2 L1072.2,319.9 L1072.9,318.8 L1073.6,318.2 L1073.8,318.2 L1074.1,318.6 L1075.0,318.0 L1075.4,318.1 L1075.6,318.5 L1075.8,318.6 L1075.9,318.7 L1076.1,318.7 L1076.7,318.5 L1077.5,318.9 L1078.4,318.0 L1079.2,317.2 L1080.1,317.1 L1080.7,317.7 L1081.5,317.3 L1082.9,315.9 L1083.8,314.4 L1084.1,313.9 L1084.7,312.9 L1085.3,311.5 L1086.7,310.6 L1087.4,310.4 L1088.2,308.6 L1089.0,310.0 L1089.5,310.5 L1090.2,309.3 L1090.4,308.8 L1090.7,308.1 L1091.4,306.5 L1091.9,304.3 L1092.6,302.1 L1093.2,300.8 L1094.6,304.5 L1094.8,304.8 L1095.1,305.2 L1095.5,304.5 L1097.0,299.8 L1097.2,299.7 L1098.8,299.5 L1100.0,299.1 L1101.2,296.6 L1101.7,295.9 L1102.0,295.3 L1103.1,293.7 L1105.7,287.6 L1106.1,287.8 L1106.5,287.9 L1110.3,279.2 L1110.8,278.0 L1112.2,278.4 L1113.6,280.1 L1114.0,278.3 L1114.6,274.8 L1116.1,268.0 L1117.0,265.8 L1117.6,265.0 L1118.1,264.8 L1119.1,265.1 L1119.9,263.1 L1120.8,262.4 L1121.7,260.6 L1122.3,259.0 L1122.5,257.5 L1122.8,256.1 L1125.3,254.6 L1125.9,255.4 L1126.3,254.0 L1127.2,256.3 L1128.2,256.9 L1128.5,256.2 L1129.5,253.2 L1129.7,252.7 L1129.9,252.6 L1130.1,252.4 L1130.9,249.4 L1131.8,243.4 L1132.0,241.6 L1132.3,239.8 L1132.7,238.8 L1133.0,238.5 L1134.5,240.9 L1135.3,239.0 L1135.5,238.9 L1136.2,238.5 L1137.4,234.0 L1137.7,234.0 L1138.0,234.2 L1140.2,227.5 L1141.2,225.1 L1141.7,223.3 L1142.6,221.1 L1142.7,221.0 L1142.8,221.1 L1142.9,221.4 L1143.1,222.1 L1143.1,222.1 L1143.5,223.1 L1143.7,223.2 L1143.8,222.6 L1144.1,221.1 L1144.3,220.2 L1144.3,219.9 L1144.7,220.4 L1144.9,220.1 L1145.2,219.1 L1145.6,217.4 L1146.3,213.4 L1146.6,211.0 L1147.0,208.6 L1147.5,205.7 L1147.6,204.5 L1147.8,204.3 L1147.9,204.8 L1148.8,205.4 L1149.2,206.5 L1149.7,204.8 L1151.8,188.7 L1152.2,189.1 L1152.7,193.3 L1153.1,195.2 L1154.0,196.4 L1154.6,194.4 L1155.4,191.7 L1155.9,188.8 L1156.8,187.2 L1157.2,187.1 L1157.5,186.7 L1158.6,185.6 L1158.8,184.9 L1159.7,182.4 L1160.6,185.8 L1160.9,185.7 L1161.7,181.8 L1163.0,176.5 L1163.1,175.7 L1163.7,173.9 L1164.4,173.5 L1166.4,164.4 L1167.7,160.2 L1168.1,160.2 L1168.7,159.1 L1169.0,159.1 L1169.5,161.1 L1169.8,162.6 L1170.4,163.8 L1171.5,164.4 L1172.5,164.9 L1173.1,166.6 L1173.5,167.3 L1174.3,168.8 L1175.1,170.3 L1175.4,171.1 L1175.6,171.9 L1176.2,173.8 L1176.6,174.1 L1177.6,174.8 L1178.0,174.7 L1178.8,176.3 L1179.0,177.0 L1179.5,178.6 L1180.0,179.8 L1181.3,183.0 L1181.5,184.1 L1182.1,187.1 L1182.4,188.0 L1183.1,187.1 L1183.4,187.7 L1183.5,188.0 L1183.7,188.8 L1183.9,189.5 L1184.5,190.3 L1185.2,191.2 L1185.5,192.0 L1186.0,194.2 L1188.1,200.7 L1188.5,202.1 L1188.9,203.6 L1189.2,204.3 L1189.6,204.2 L1189.9,204.9 L1190.3,205.5 L1190.5,205.4 L1191.0,204.8 L1191.1,204.4 L1191.4,203.7 L1191.9,202.5 L1192.2,202.4 L1193.6,202.6 L1194.6,207.3 L1196.4,209.3 L1196.9,208.8 L1197.0,209.1 L1197.2,210.3 L1197.5,209.6 L1199.2,202.7 L1199.6,202.3 L1200.2,201.3 L1201.1,198.2 L1202.0,196.0 L1202.5,195.2 L1203.1,193.9 L1204.4,190.7 L1204.6,190.1 L1204.8,189.3 L1205.7,184.8 L1206.3,183.1 L1206.8,180.8 L1207.1,179.2 L1207.3,179.0 L1207.4,179.2 L1207.6,181.3 L1208.2,180.9 L1208.5,179.5 L1208.8,177.5 L1210.4,170.4 L1210.9,169.0 L1211.0,168.5 L1211.2,167.7 L1211.8,164.0 L1212.0,163.2 L1212.1,163.3 L1212.4,163.8 L1213.1,163.4 L1213.4,161.8 L1213.8,161.0 L1214.1,160.8 L1214.9,160.8 L1215.2,160.6 L1215.9,157.6 L1216.3,157.0 L1216.7,156.6 L1216.9,155.7 L1217.0,154.9 L1217.6,153.4 L1217.9,153.9 L1218.4,152.5 L1219.6,145.7 L1220.2,142.5 L1221.0,146.0 L1221.5,146.2 L1221.9,145.5 L1222.4,143.0 L1222.9,142.0 L1224.1,139.1 L1224.4,138.6 L1224.8,137.5 L1225.5,134.2 L1226.0,135.4 L1226.4,137.8 L1227.3,140.3 L1227.7,140.6 L1228.8,137.1 L1230.5,135.2 L1230.9,133.8 L1231.2,133.5 L1232.4,132.5 L1233.1,133.4 L1236.4,131.9 L1238.1,130.9 L1238.6,131.6 L1240.2,132.5 L1241.6,133.1 L1241.8,132.3 L1242.0,131.6 L1242.4,129.7 L1243.0,130.0 L1243.6,130.8 L1243.9,131.1 L1244.4,129.6 L1244.4,129.4 L1244.6,129.1 L1244.7,128.8 L1245.0,128.3 L1245.3,127.7 L1246.3,126.6 L1246.7,126.6 L1246.8,126.8 L1247.6,125.7 L1248.3,124.5 L1248.7,124.7 L1249.9,124.9 L1250.4,124.2 L1251.0,124.3 L1251.4,125.9 L1251.8,127.4 L1252.1,127.7 L1252.4,126.8 L1255.5,123.3 L1256.9,124.3 L1258.1,124.4 L1259.0,125.3 L1259.6,126.2 L1260.2,128.3 L1261.4,134.7 L1262.0,135.0 L1262.5,135.8 L1263.1,137.2 L1263.6,137.8 L1263.9,138.1 L1264.7,137.6 L1265.1,138.2 L1265.9,139.7 L1266.3,141.2 L1267.0,143.8 L1268.4,144.3 L1269.0,144.8 L1269.6,144.5 L1270.2,144.7 L1270.6,145.8 L1271.0,146.8 L1272.5,145.0 L1275.3,149.3 L1276.6,152.6 L1277.6,153.2 L1278.0,153.7 L1278.4,154.3 L1278.7,154.7 L1279.7,158.5 L1280.3,157.5 L1280.8,155.8 L1281.0,155.2 L1281.7,156.4 L1282.3,158.3 L1282.6,159.7 L1283.2,163.4 L1283.4,164.8 L1283.7,165.5 L1284.0,165.9 L1284.3,166.2 L1285.7,171.6 L1286.0,172.8 L1287.9,175.6 L1288.2,176.1 L1288.4,175.6 L1288.6,173.7 L1289.3,169.6 L1290.0,171.8 L1290.2,173.4 L1290.6,171.3 L1290.9,172.0 L1291.5,175.9 L1292.3,182.6 L1292.6,182.5 L1293.1,180.9 L1293.4,181.3 L1293.8,180.8 L1294.1,180.6 L1295.2,186.5 L1295.5,187.1 L1295.9,190.3 L1296.4,192.5 L1296.8,194.8 L1297.1,195.1 L1297.7,197.6 L1298.2,198.9 L1298.8,201.9 L1299.5,203.7 L1300.9,206.3 L1301.6,209.2 L1302.0,209.7 L1302.3,210.5 L1302.8,215.0 L1303.1,217.3 L1303.4,218.0 L1303.6,218.4 L1303.9,218.8 L1304.5,221.2 L1305.4,220.8 L1305.7,221.6 L1306.1,222.6 L1306.5,223.6 L1307.5,224.4 L1307.6,224.0 L1307.8,224.0 L1307.9,223.1 L1308.1,222.6 L1308.3,222.8 L1308.5,224.8 L1309.4,227.9 L1310.3,230.8 L1310.9,233.3 L1311.3,233.6 L1312.6,233.8 L1313.8,237.3 L1314.2,238.8 L1315.4,242.2 L1315.6,242.9 L1315.8,243.4 L1316.6,244.5 L1317.5,245.6 L1318.4,246.4 L1318.8,248.5 L1319.7,252.5 L1320.0,252.4 L1320.3,253.0 L1321.0,257.1 L1322.0,260.5 L1322.1,260.7 L1322.9,260.1 L1323.9,262.0 L1324.6,262.7 L1325.3,263.3 L1326.6,265.9 L1327.4,268.8 L1328.0,270.7 L1328.4,271.6 L1329.2,270.3 L1330.0,265.9 L1331.2,268.6 L1332.3,269.1 L1334.1,274.0 L1334.5,274.1 L1335.3,276.5 L1335.7,278.0 L1335.8,278.6 L1336.3,280.3 L1338.6,281.2 L1340.4,284.8 L1340.5,285.6 L1341.0,289.8 L1341.2,290.8 L1342.3,292.0 L1343.1,293.5 L1343.2,293.7 L1343.3,293.9 L1343.4,293.9 L1343.5,294.0 L1344.2,292.9 L1344.5,292.5 L1344.8,292.8 L1345.1,293.0 L1345.4,293.0 L1346.2,292.7 L1347.8,295.3 L1348.1,294.5 L1348.5,293.8 L1348.8,292.9 L1349.5,291.0 L1349.8,291.6 L1350.2,292.8 L1350.4,293.1 L1350.9,292.7 L1351.3,293.9 L1352.0,296.8 L1352.2,297.4 L1352.5,297.9 L1353.1,298.1 L1353.4,298.2 L1353.8,298.7 L1354.8,299.8 L1355.1,300.4 L1356.0,300.3 L1356.2,300.2 L1356.4,300.2 L1356.7,300.4 L1357.0,299.8 L1357.7,298.7 L1358.3,299.0 L1359.0,299.2 L1359.3,300.1 L1359.7,300.1 L1360.1,299.0 L1360.4,299.5 L1361.0,299.5 L1361.3,299.0 L1362.0,297.8 L1362.3,297.3 L1363.8,292.8 L1364.0,293.8 L1364.9,298.2 L1365.2,297.8 L1365.4,297.7 L1366.0,296.9 L1367.1,296.1 L1368.6,296.3 L1369.6,295.4 L1370.0,295.7 L1370.7,296.2 L1371.4,295.5 L1371.7,295.4 L1372.2,295.5 L1373.2,295.9 L1374.4,295.1 L1374.9,295.8 L1375.5,295.6 L1376.0,295.6 L1376.5,295.2 L1379.2,293.4 L1379.5,293.4 L1380.0,293.0 L1380.2,292.6 L1380.7,292.2 L1381.0,292.3 L1381.6,292.5 L1382.2,290.0 L1382.7,289.2 L1383.2,289.9 L1384.2,292.5 L1384.5,291.8 L1384.8,290.7 L1385.3,291.2 L1385.7,291.4 L1386.9,290.7 L1387.2,290.7 L1387.4,290.3 L1388.1,287.9 L1389.2,286.9 L1389.5,287.3 L1390.0,287.9 L1390.4,288.2 L1392.6,286.4 L1393.0,286.8 L1393.5,285.4 L1394.7,286.2 L1396.5,282.0 L1397.4,283.6 L1398.0,284.2 L1399.3,284.9 L1400.0,285.8 L1400.2,285.8 L1400.6,285.9 L1401.9,283.6 L1402.3,281.6 L1402.8,280.5 L1403.2,279.9 L1403.8,280.6 L1404.7,280.8 L1405.0,280.2 L1406.3,281.6 L1406.9,283.5 L1407.3,282.8 L1407.8,282.0 L1408.1,282.2 L1409.2,281.2 L1409.7,280.6 L1409.9,280.6 L1410.0,280.7 L1410.5,282.1 L1412.5,284.6 L1412.6,284.4 L1412.9,283.4 L1413.0,282.5 L1414.6,279.6 L1415.0,278.3 L1415.5,277.8" fill="transparent" id="track" stroke="black" stroke-width="2"/>
<g>
<circle cx="422.729" cy="101.169" id="wp-36/circle" r="4.000"/>
<text font-size="16.0" id="wp-36/text" text-anchor="start" x="424.729" y="123.169">
K1
</text>
<circle cx="1022.717" cy="334.588" id="wp-119/circle" r="4.000"/>
<text font-size="16.0" id="wp-119/text" text-anchor="start" x="1024.717" y="351.588">
K2
</text>
<circle cx="0.397" cy="163.440" fill="Gray" id="wp-2/circle" r="5.000"/>
<text font-size="16.0" id="wp-2/text" text-anchor="start" x="2.397" y="180.440">
Bräunlingen
</text>
<circle cx="423.098" cy="100.774" fill="Gray" id="wp-3/circle" r="5.000"/>
<text font-size="16.0" id="wp-6/text" text-anchor="start" x="445.098" y="122.774">
Furtwangen
</text>
<circle cx="619.504" cy="96.114" fill="Gray" id="wp-5/circle" r="3.000"/>
<text font-size="16.0" id="wp-0/text" text-anchor="start" x="626.504" y="113.114">
Schonach
</text>
<circle cx="1059.491" cy="325.841" fill="Gray" id="wp-6/circle" r="3.000"/>
<text font-size="16.0" id="wp-1/text" text-anchor="start" x="1061.491" y="342.841">
Fischerbach
</text>
<circle cx="974.969" cy="320.033" fill="Gray" id="wp-7/circle" r="3.000"/>
<text font-size="16.0" id="wp-2/text" text-anchor="start" x="976.969" y="317.033">
Mühlenbach
</text>
</g>
</g>
<g id="SL" transform="translate(0 0)">
<text text-anchor="end" x="-5" y="363.5">
150
</text>
<text text-anchor="end" x="-5" y="327.65">
250
</text>
<text text-anchor="end" x="-5" y="291.79999999999995">
350
</text>
<text text-anchor="end" x="-5" y="255.95">
450
</text>
<text text-anchor="end" x="-5" y="220.1">
550
</text>
<text text-anchor="end" x="-5" y="184.25">
650
</text>
<text text-anchor="end" x="-5" y="148.39999999999998">
750
</text>
<text text-anchor="end" x="-5" y="112.55000000000001">
850
</text>
<text text-anchor="end" x="-5" y="76.69999999999999">
950
</text>
<text text-anchor="end" x="-5" y="40.849999999999966">
1050
</text>
<text text-anchor="end" x="-5" y="5">
1150
</text>
</g>
</g>
</svg>