<svg height="400" width="1420" xmlns="http://www.w3.org/2000/svg">
<g font-family="Libertinus Serif" font-size="15" id="world" shape-rendering="crispEdges">
<g id="BG"/>
<g id="SB" transform="translate(0 360)">
<text text-anchor="middle" x="0" y="14.5">
0
</text>
<text text-anchor="middle" x="236.41666666666666" y="14.5">
20
</text>
<text text-anchor="middle" x="472.8333333333333" y="14.5">
40
</text>
<text text-anchor="middle" x="709.25" y="14.5">
60
</text>
<text text-anchor="middle" x="945.6666666666666" y="14.5">
80
</text>
<text text-anchor="middle" x="1182.0833333333333" y="14.5">
100
</text>
</g>
<g id="SD" transform="translate(0 0)">
<path d="M0,0 L0,358.5 L1418.5,358.5 L1418.5,0 L0,0" fill="lightgray" id="bg"/>
<path d="M0,0 L1418.5,0" stroke="black" stroke-width="3"/>
<path d="M0,0 L0,358.5" stroke="black" stroke-width="3"/>
<path d="M0,358.5 L1418.5,358.5" stroke="black" stroke-width="3"/>
<path d="M1418.5,0 L1418.5,358.5" stroke="black" stroke-width="3"/>
<path d="M0,0 L0,358.5" stroke="black" stroke-width="1"/>
<path d="M236.41667,0 L236.41667,358.5" stroke="black" stroke-width="1"/>
<path d="M472.83334,0 L472.83334,358.5" stroke="black" stroke-width="1"/>
<path d="M709.25,0 L709.25,358.5" stroke="black" stroke-width="1"/>
<path d="M945.6667,0 L945.6667,358.5" stroke="black" stroke-width="1"/>
<path d="M1182.0834,0 L1182.0834,358.5" stroke="black" stroke-width="1"/>
<path d="M118.208336,0 L118.208336,358.5" stroke="black" stroke-dasharray="1.0,2.5,5.0,5.0,10.0,5.0"/>
<path d="M354.625,0 L354.625,358.5" stroke="black" stroke-dasharray="1.0,2.5,5.0,5.0,10.0,5.0"/>
<path d="M591.0417,0 L591.0417,358.5" stroke="black" stroke-dasharray="1.0,2.5,5.0,5.0,10.0,5.0"/>
<path d="M827.4583,0 L827.4583,358.5" stroke="black" stroke-dasharray="1.0,2.5,5.0,5.0,10.0,5.0"/>
<path d="M1063.875,0 L1063.875,358.5" stroke="black" stroke-dasharray="1.0,2.5,5.0,5.0,10.0,5.0"/>
<path d="M1300.2916,0 L1300.2916,358.5" stroke="black" stroke-dasharray="1.0,2.5,5.0,5.0,10.0,5.0"/>
<path d="M0,358.5 L1418.5,358.5" stroke="black" stroke-width="1"/>
<path d="M0,310.7 L1418.5,310.7" stroke="black" stroke-width="1"/>
<path d="M0,262.9 L1418.5,262.9" stroke="black" stroke-width="1"/>
<path d="M0,215.1 L1418.5,215.1" stroke="black" stroke-width="1"/>
<path d="M0,167.3 L1418.5,167.3" stroke="black" stroke-width="1"/>
<path d="M0,119.5 L1418.5,119.5" stroke="black" stroke-width="1"/>
<path d="M0,71.7 L1418.5,71.7" stroke="black" stroke-width="1"/>
<path d="M0,23.9 L1418.5,23.9" stroke="black" stroke-width="1"/>
<path d="M0,334.6 L1418.5,334.6" stroke="black" stroke-dasharray="1.0,2.5,5.0,5.0,10.0,5.0"/>
<path d="M0,286.8 L1418.5,286.8" stroke="black" stroke-dasharray="1.0,2.5,5.0,5.0,10.0,5.0"/>
<path d="M0,239 L1418.5,239" stroke="black" stroke-dasharray="1.0,2.5,5.0,5.0,10.0,5.0"/>
<path d="M0,191.2 L1418.5,191.2" stroke="black" stroke-dasharray="1.0,2.5,5.0,5.0,10.0,5.0"/>
<path d="M0,143.4 L1418.5,143.4" stroke="black" stroke-dasharray="1.0,2.5,5.0,5.0,10.0,5.0"/>
<path d="M0,95.6 L1418.5,95.6" stroke="black" stroke-dasharray="1.0,2.5,5.0,5.0,10.0,5.0"/>
<path d="M0,47.8 L1418.5,47.8" stroke="black" stroke-dasharray="1.0,2.5,5.0,5.0,10.0,5.0"/>
<path d="M0,0 L1418.5,0" stroke="black" stroke-dasharray="1.0,2.5,5.0,5.0,10.0,5.0"/>
<path d="M0.0,192.8 L0.2,192.6 L0.3,192.6 L0.7,192.5 L0.7,192.5 L1.3,192.6 L1.4,192.6 L1.5,192.6 L1.9,192.8 L2.4,192.9 L3.1,192.9 L3.5,192.6 L4.7,192.3 L4.9,192.5 L5.0,192.6 L5.3,192.7 L6.0,192.9 L6.4,193.0 L6.7,193.0 L7.0,192.9 L7.5,192.7 L7.9,192.6 L8.3,192.7 L8.7,192.6 L9.4,192.9 L9.7,193.0 L10.0,192.8 L10.4,192.5 L11.2,192.8 L11.5,193.1 L12.5,193.3 L13.4,193.6 L13.8,193.4 L14.2,192.6 L14.7,192.7 L15.1,193.3 L15.6,193.1 L16.1,192.7 L17.0,193.1 L18.1,192.4 L18.9,192.3 L19.3,192.4 L20.5,192.7 L20.9,192.5 L21.5,192.4 L21.8,192.6 L22.7,193.0 L23.4,192.5 L23.9,192.1 L29.4,191.6 L32.7,191.2 L34.2,190.6 L34.9,190.6 L36.4,190.8 L36.6,191.1 L36.7,191.2 L37.2,191.6 L38.5,191.0 L43.7,189.9 L43.9,189.9 L44.0,189.9 L45.0,190.5 L45.2,190.3 L46.6,190.4 L48.6,189.9 L49.3,189.4 L49.7,189.2 L50.1,189.4 L50.8,190.0 L51.1,189.7 L52.5,189.4 L53.3,189.3 L53.3,189.3 L53.6,189.4 L53.7,189.5 L54.0,189.5 L54.7,189.2 L54.9,189.1 L55.1,189.1 L55.2,189.0 L56.1,188.7 L56.2,188.6 L56.4,188.6 L56.6,188.7 L56.9,188.6 L57.2,188.7 L58.2,189.0 L59.2,189.0 L60.3,188.9 L60.5,188.8 L60.7,188.7 L61.1,188.9 L61.3,189.0 L61.6,188.9 L61.9,188.8 L63.2,189.2 L64.0,188.9 L64.2,189.0 L64.7,189.1 L65.2,189.2 L65.9,189.1 L66.8,188.6 L67.3,187.7 L67.6,187.5 L67.9,187.0 L68.4,185.8 L68.9,186.4 L69.1,186.3 L69.6,185.2 L70.1,186.3 L70.4,187.2 L70.7,188.0 L71.4,187.9 L71.5,187.6 L72.0,187.5 L72.2,187.5 L72.3,187.6 L72.5,187.7 L72.6,187.6 L72.8,187.6 L72.9,187.4 L73.3,186.5 L73.5,186.0 L73.9,185.8 L74.4,185.6 L75.0,184.5 L75.4,183.5 L75.7,183.6 L76.1,183.9 L76.5,184.7 L77.0,185.4 L78.8,185.0 L79.3,185.2 L79.8,185.2 L80.3,184.6 L81.6,184.7 L82.0,185.0 L82.6,185.1 L83.0,185.4 L83.5,185.4 L84.0,185.2 L88.3,186.3 L90.0,185.6 L91.6,183.9 L93.0,185.8 L93.9,185.0 L94.8,185.0 L95.6,185.1 L96.6,185.1 L97.4,184.5 L98.2,183.4 L98.7,183.7 L99.2,184.5 L99.7,184.4 L100.1,184.5 L100.6,184.4 L102.2,185.2 L103.2,185.5 L104.6,185.2 L106.4,184.4 L107.4,183.3 L108.9,183.3 L111.5,181.3 L112.4,182.3 L113.4,183.5 L114.3,184.1 L115.6,182.9 L116.6,183.5 L117.6,183.7 L118.6,184.1 L118.8,184.2 L119.8,182.8 L120.5,182.3 L122.4,182.8 L124.4,182.1 L125.4,182.5 L126.3,182.8 L126.9,181.2 L127.2,181.1 L127.8,182.1 L128.3,183.4 L129.1,182.3 L129.9,181.3 L130.4,182.3 L130.5,182.3 L131.1,181.8 L131.7,181.5 L133.1,182.1 L133.5,181.9 L134.0,181.6 L135.3,181.4 L135.7,181.1 L136.1,180.6 L136.5,180.6 L136.8,180.9 L137.1,181.2 L137.5,180.6 L141.2,179.8 L141.8,180.0 L142.1,179.9 L142.4,179.6 L142.7,179.1 L143.6,179.2 L144.1,179.6 L144.5,179.9 L144.8,179.9 L145.3,179.4 L145.6,179.3 L147.2,179.4 L148.7,178.8 L149.0,178.7 L149.5,178.8 L150.1,178.8 L151.6,180.3 L152.2,180.3 L153.4,179.0 L156.2,177.4 L157.0,178.5 L157.6,178.4 L158.4,178.4 L159.0,177.4 L159.7,176.9 L160.0,177.0 L162.8,177.0 L164.0,179.5 L164.5,178.2 L164.9,177.4 L165.4,177.1 L165.6,177.4 L165.7,177.4 L165.7,177.5 L166.0,177.4 L166.1,177.3 L166.5,177.2 L167.3,177.2 L168.2,178.0 L168.7,177.5 L169.1,177.2 L170.1,172.3 L170.5,172.2 L170.8,172.2 L171.2,172.7 L171.7,173.8 L172.6,173.6 L173.0,173.4 L173.5,174.4 L173.9,175.9 L175.0,176.2 L175.3,176.5 L175.6,176.5 L176.7,172.8 L177.0,172.9 L177.6,174.5 L178.1,176.0 L178.2,176.0 L178.5,175.8 L178.8,175.5 L180.8,175.0 L181.6,175.2 L182.0,175.4 L182.7,175.1 L183.0,174.9 L183.6,175.0 L184.2,174.2 L186.3,173.6 L188.7,173.5 L189.5,173.4 L189.9,174.3 L190.1,174.4 L190.4,173.9 L190.5,173.6 L191.0,172.3 L194.1,169.0 L194.3,169.2 L194.9,168.6 L195.6,168.5 L196.2,168.2 L196.8,168.9 L197.0,169.1 L198.2,167.7 L198.6,167.1 L198.8,166.7 L199.2,166.2 L200.3,165.6 L200.5,165.9 L201.4,165.1 L201.9,165.3 L202.2,165.7 L202.9,165.5 L203.1,165.3 L203.4,165.0 L204.0,165.0 L204.3,164.4 L204.9,163.7 L205.6,164.3 L206.1,164.4 L206.2,164.3 L207.7,163.7 L208.5,161.8 L209.2,160.9 L210.4,157.5 L210.7,157.7 L211.2,157.6 L212.3,156.4 L212.6,156.7 L212.7,156.9 L212.9,157.2 L213.1,157.6 L213.3,157.4 L213.7,155.9 L213.8,155.3 L214.0,155.3 L214.2,155.1 L214.4,154.7 L214.6,154.2 L214.7,154.1 L215.4,155.1 L215.7,155.7 L215.9,155.2 L216.2,154.5 L216.5,154.2 L216.8,153.8 L217.2,153.9 L217.4,154.3 L218.4,154.1 L219.3,153.4 L219.7,153.9 L221.7,154.0 L223.0,154.1 L223.7,152.9 L224.1,152.6 L224.6,152.6 L226.0,152.1 L226.9,152.9 L227.2,152.9 L227.8,152.7 L229.0,151.6 L229.5,150.6 L229.7,150.3 L230.7,150.8 L231.8,151.5 L232.3,152.3 L232.6,152.7 L233.1,152.7 L233.3,152.3 L233.8,149.7 L234.5,148.5 L236.0,151.5 L236.4,150.7 L237.7,147.3 L237.9,147.5 L237.9,147.7 L239.2,148.2 L239.6,148.3 L240.3,148.5 L240.5,148.4 L240.6,148.3 L240.9,148.6 L241.0,148.9 L241.6,148.8 L242.2,148.5 L243.0,148.1 L243.7,147.0 L244.2,147.4 L245.3,147.2 L245.8,147.2 L246.2,146.9 L246.9,146.7 L247.1,146.5 L247.7,145.8 L248.0,145.8 L248.3,146.0 L248.8,145.8 L249.5,145.0 L249.9,145.1 L250.3,145.5 L250.5,145.6 L251.1,145.2 L252.4,143.8 L252.8,143.0 L253.9,142.6 L254.1,142.6 L256.2,141.1 L257.1,141.9 L258.4,140.9 L258.7,140.7 L258.9,140.5 L259.2,140.4 L260.2,140.2 L260.5,140.0 L260.9,140.1 L262.1,140.1 L263.4,139.5 L264.2,138.2 L264.6,137.8 L265.5,138.0 L265.9,138.3 L266.2,138.2 L267.1,137.3 L267.9,136.9 L268.4,136.2 L269.0,136.1 L269.8,135.9 L271.0,135.2 L271.2,134.9 L271.5,134.7 L272.1,134.6 L272.7,134.3 L272.9,134.1 L273.3,133.2 L274.4,133.0 L275.8,132.6 L276.1,132.5 L276.7,131.5 L276.9,131.2 L277.0,130.8 L277.2,130.5 L277.6,130.0 L278.8,128.0 L279.1,128.2 L279.4,129.2 L279.6,129.4 L279.7,129.6 L279.9,129.6 L280.1,129.6 L280.3,129.4 L280.4,129.5 L281.1,131.2 L281.2,131.4 L281.4,131.5 L281.9,130.7 L282.2,129.6 L282.5,129.3 L282.7,129.2 L282.8,129.2 L282.9,129.2 L283.3,129.1 L283.8,129.3 L284.0,129.5 L284.2,129.4 L284.3,129.3 L286.2,127.0 L286.8,126.5 L287.7,125.1 L288.6,123.9 L289.0,123.9 L289.5,123.8 L289.8,123.4 L290.4,122.4 L291.0,122.4 L291.4,122.2 L292.8,119.1 L293.5,117.9 L294.1,116.7 L294.9,117.4 L296.5,115.2 L297.1,114.9 L297.6,114.4 L298.3,113.7 L298.8,113.6 L301.4,117.8 L302.8,121.7 L303.2,122.4 L303.6,123.6 L304.2,124.9 L305.0,126.6 L305.5,127.3 L306.0,128.9 L306.3,129.8 L306.6,130.3 L307.3,129.7 L309.3,131.1 L309.6,130.9 L311.0,131.8 L311.8,133.2 L312.0,133.6 L313.6,134.1 L314.7,136.7 L315.4,137.6 L316.7,137.8 L318.0,138.8 L318.7,139.3 L319.9,141.1 L320.2,141.2 L320.5,141.6 L321.6,144.7 L321.9,145.7 L322.0,146.1 L322.3,146.0 L322.8,145.2 L324.4,145.4 L327.3,146.6 L328.2,147.3 L328.4,147.5 L328.6,147.5 L328.8,147.3 L329.1,146.9 L329.5,147.2 L329.8,147.3 L332.2,144.9 L332.6,144.9 L333.2,145.1 L334.7,147.3 L334.9,147.5 L335.1,147.7 L335.5,147.6 L335.6,147.6 L335.7,147.6 L336.2,147.8 L336.4,147.8 L336.5,147.8 L336.6,147.8 L336.8,147.8 L336.9,147.9 L337.0,148.0 L337.2,148.1 L337.3,148.1 L337.5,148.1 L338.4,148.8 L339.3,149.3 L339.3,149.3 L340.2,149.9 L340.5,150.1 L340.7,150.1 L340.8,150.2 L341.1,150.5 L341.5,150.0 L341.6,149.9 L341.6,149.9 L341.8,149.8 L341.9,149.8 L342.1,149.9 L342.3,150.0 L342.6,150.3 L342.7,150.5 L342.8,150.5 L343.6,150.2 L344.3,150.8 L344.6,151.0 L344.9,151.0 L345.0,150.9 L345.7,150.5 L346.1,150.1 L346.5,150.9 L346.5,151.0 L346.7,151.4 L346.8,151.6 L347.0,151.8 L347.4,151.8 L347.5,151.9 L347.7,151.9 L347.8,151.9 L347.8,151.9 L348.4,152.2 L349.1,152.1 L349.3,151.8 L349.8,151.5 L350.4,151.5 L350.9,151.8 L351.5,151.5 L351.7,151.4 L351.9,151.2 L352.0,151.1 L352.3,150.8 L353.0,151.2 L353.5,151.2 L355.1,151.9 L355.3,152.2 L355.4,152.3 L355.8,152.6 L355.9,152.7 L356.2,153.1 L356.5,153.1 L356.8,153.0 L356.9,153.1 L357.0,153.1 L357.2,153.1 L357.4,153.0 L357.5,152.9 L357.6,152.8 L358.3,152.6 L358.7,152.5 L359.2,152.1 L359.7,151.4 L360.0,150.6 L360.3,150.7 L360.8,150.7 L360.8,150.7 L361.7,151.9 L362.4,152.7 L363.1,153.1 L363.3,153.0 L363.4,152.9 L363.5,152.8 L364.3,152.6 L364.6,152.5 L365.9,152.2 L366.4,151.6 L366.9,150.5 L367.6,149.8 L368.4,150.6 L368.7,150.7 L369.1,150.7 L369.1,150.7 L370.1,151.9 L370.7,152.7 L371.4,153.1 L371.6,153.0 L371.7,152.9 L371.8,152.8 L372.6,152.6 L372.9,152.5 L374.3,152.2 L374.8,151.6 L375.3,150.5 L375.8,150.8 L376.1,149.9 L376.2,149.6 L376.4,149.4 L376.9,149.7 L377.3,150.1 L377.4,150.0 L378.1,149.3 L378.3,149.2 L378.5,149.3 L379.7,148.3 L380.2,148.5 L381.0,147.4 L381.7,147.9 L382.1,147.7 L384.1,148.3 L384.1,148.2 L385.0,147.9 L385.6,146.7 L386.2,146.9 L387.2,145.6 L388.1,146.6 L389.1,146.9 L389.8,147.3 L389.8,147.3 L390.2,147.0 L390.5,147.1 L391.5,146.6 L393.6,146.6 L394.5,146.8 L395.1,145.7 L395.8,146.6 L396.3,145.8 L396.8,146.2 L397.6,146.7 L397.8,146.4 L397.9,146.3 L398.3,145.9 L398.6,145.5 L401.9,141.4 L402.6,140.7 L403.4,142.5 L404.1,143.9 L404.5,143.9 L408.2,142.6 L408.5,142.0 L410.4,137.2 L411.4,138.9 L414.8,139.8 L415.3,140.4 L415.4,140.4 L415.6,140.3 L416.4,139.3 L417.5,138.0 L418.4,138.2 L419.2,139.4 L420.2,139.4 L420.4,139.1 L420.9,138.6 L421.5,138.4 L421.8,138.4 L422.0,138.5 L422.4,138.6 L423.1,137.5 L423.9,136.9 L424.5,135.7 L424.9,135.1 L425.0,135.1 L425.6,135.2 L426.4,134.2 L426.9,133.8 L427.3,133.3 L428.4,133.5 L428.7,133.1 L429.0,132.8 L429.4,132.4 L429.8,132.4 L430.5,132.4 L430.8,132.0 L431.2,130.7 L431.5,130.8 L432.1,132.4 L432.3,132.0 L432.5,131.6 L433.0,130.4 L433.7,129.1 L434.7,129.8 L434.9,129.6 L435.2,129.5 L435.5,129.3 L436.0,128.7 L436.1,129.0 L436.2,129.2 L436.3,129.3 L436.8,129.6 L436.9,129.7 L437.0,129.6 L437.2,129.4 L437.9,127.3 L438.2,126.5 L438.5,126.2 L438.9,125.8 L439.8,123.8 L440.6,122.0 L441.2,119.1 L441.6,118.2 L442.2,118.6 L442.5,119.0 L442.8,119.4 L443.1,120.2 L443.3,120.6 L444.1,121.3 L444.4,120.8 L444.5,120.6 L444.7,120.2 L444.9,119.8 L445.8,118.5 L446.0,118.0 L446.2,117.5 L446.6,116.4 L446.9,116.2 L448.8,115.7 L450.2,115.0 L450.5,114.5 L451.3,113.5 L452.1,114.2 L453.9,114.1 L454.2,114.6 L454.4,114.9 L454.6,115.3 L454.9,115.8 L455.4,114.9 L456.2,112.6 L457.3,111.6 L458.4,111.2 L458.8,111.8 L460.3,112.9 L461.4,115.5 L461.8,116.4 L462.1,116.5 L462.4,116.7 L463.0,117.0 L463.4,117.1 L463.9,116.8 L464.5,117.1 L465.2,118.0 L465.8,118.4 L466.2,118.7 L466.8,119.9 L466.9,120.1 L467.1,120.2 L467.5,120.5 L467.7,120.3 L467.8,120.2 L468.2,120.2 L468.4,120.3 L468.6,120.4 L469.0,120.6 L469.4,121.2 L469.5,121.3 L469.7,121.2 L470.2,120.6 L470.3,120.4 L470.6,119.8 L471.2,118.6 L471.9,118.5 L472.3,118.4 L472.5,118.4 L473.1,118.1 L473.5,117.7 L474.0,116.2 L474.3,116.2 L474.6,116.3 L474.9,116.2 L475.4,116.0 L476.2,116.6 L476.4,116.8 L477.2,116.4 L478.3,114.7 L479.3,116.4 L480.1,118.1 L480.6,119.3 L480.9,119.5 L481.4,119.7 L481.9,119.6 L482.1,119.6 L482.9,118.7 L485.4,120.0 L487.4,117.8 L487.6,117.7 L487.8,118.0 L488.0,118.5 L488.3,119.4 L489.4,118.5 L489.9,117.8 L490.2,117.8 L490.4,118.2 L491.4,120.7 L492.1,121.7 L492.6,122.6 L492.8,122.9 L492.9,123.2 L493.3,124.2 L493.5,124.9 L493.6,125.2 L493.7,125.6 L494.1,126.4 L494.7,126.1 L494.9,126.0 L495.0,126.0 L495.2,126.2 L495.4,126.4 L495.7,126.7 L496.5,127.1 L497.0,128.3 L497.7,128.9 L498.9,130.0 L499.2,130.9 L499.5,131.2 L500.3,131.4 L500.6,131.5 L501.0,131.4 L501.3,131.6 L501.9,130.4 L502.3,131.2 L502.7,132.8 L503.1,133.4 L503.5,133.9 L503.8,134.0 L504.1,134.1 L504.3,134.1 L505.0,134.1 L505.2,134.2 L505.4,134.5 L508.5,137.1 L508.9,136.9 L509.8,137.9 L511.2,141.2 L511.7,142.3 L511.9,142.9 L512.1,143.3 L512.1,143.4 L513.0,144.5 L513.3,145.2 L514.1,146.9 L514.2,146.9 L514.6,146.7 L515.0,147.1 L515.1,147.2 L515.6,148.1 L515.9,147.7 L516.0,147.7 L517.4,150.1 L517.9,150.4 L518.4,149.5 L518.6,149.4 L518.8,149.5 L519.0,149.4 L519.5,148.9 L519.7,148.9 L520.0,149.1 L520.5,148.9 L520.7,148.6 L521.2,147.9 L521.3,147.7 L521.9,147.2 L522.4,146.8 L522.9,146.4 L523.6,146.1 L524.1,145.4 L524.7,144.5 L524.9,144.1 L525.1,143.5 L525.6,142.9 L525.8,143.1 L526.4,142.9 L526.7,142.1 L527.2,141.2 L528.0,139.4 L528.2,139.1 L528.5,139.3 L529.4,139.3 L529.8,138.8 L530.2,138.5 L531.6,137.2 L532.1,136.7 L532.4,136.0 L532.9,135.4 L533.3,135.8 L533.6,136.0 L534.0,135.7 L534.2,135.4 L534.6,134.9 L534.7,134.6 L534.9,134.4 L535.2,134.2 L535.4,134.2 L535.9,134.1 L536.3,133.7 L536.4,133.6 L536.7,133.8 L536.8,133.9 L537.1,133.9 L539.2,127.8 L539.4,127.0 L539.7,126.2 L540.0,126.0 L540.9,125.8 L541.1,125.3 L542.0,124.7 L542.8,123.9 L543.1,123.1 L543.8,122.3 L544.7,124.5 L544.9,124.7 L545.7,125.3 L546.2,126.2 L547.0,126.4 L547.8,126.1 L548.5,125.4 L548.9,125.4 L549.6,125.6 L551.0,125.6 L551.4,125.8 L552.3,126.8 L553.0,126.3 L554.5,129.2 L554.7,129.9 L555.0,130.4 L555.1,130.6 L555.4,130.8 L555.4,130.8 L555.7,131.1 L555.9,131.4 L556.2,131.9 L556.5,131.9 L556.8,131.4 L557.0,131.1 L557.3,131.4 L557.6,132.1 L557.9,132.0 L558.3,131.5 L558.6,131.4 L558.8,131.4 L558.9,131.4 L559.3,131.4 L559.6,131.7 L560.0,131.6 L560.3,131.4 L561.1,132.2 L561.4,132.2 L561.8,132.5 L562.2,132.3 L562.6,131.6 L562.9,131.2 L563.4,131.6 L563.9,132.8 L564.3,133.3 L565.4,134.7 L565.9,135.5 L566.4,135.9 L567.5,136.9 L568.2,138.4 L568.5,138.5 L569.8,138.4 L570.0,138.1 L570.1,138.0 L570.3,138.0 L570.5,138.0 L570.6,137.9 L570.8,137.7 L570.9,137.7 L571.7,137.9 L572.4,141.7 L572.5,142.4 L572.7,142.8 L572.8,143.1 L572.9,143.1 L573.1,142.9 L574.3,140.2 L574.8,140.9 L575.5,143.7 L576.3,144.1 L576.6,144.5 L576.7,145.4 L576.9,146.5 L577.1,146.9 L577.2,147.2 L577.4,147.3 L577.7,147.2 L578.2,145.8 L578.5,144.4 L578.9,143.1 L579.2,142.8 L579.6,143.9 L580.1,145.6 L581.1,148.4 L581.3,149.0 L581.7,149.7 L581.9,150.3 L582.5,152.2 L582.8,153.5 L583.2,154.9 L583.7,155.9 L585.5,160.2 L585.9,161.3 L586.1,161.8 L586.7,162.9 L587.6,163.0 L588.3,163.8 L589.6,166.2 L590.9,168.8 L591.9,170.1 L592.6,168.7 L594.0,171.0 L594.4,171.0 L594.7,170.6 L595.1,170.8 L596.8,170.6 L598.0,172.7 L598.8,169.8 L599.3,170.2 L599.6,170.3 L601.2,173.0 L602.1,172.2 L603.1,174.7 L603.4,175.2 L603.8,176.1 L604.4,178.4 L604.7,178.8 L604.8,179.1 L605.3,179.2 L605.7,177.6 L606.4,173.5 L606.7,173.0 L607.0,172.9 L607.2,173.1 L608.0,175.3 L608.2,175.6 L608.3,176.2 L608.7,177.4 L609.0,177.5 L609.2,176.9 L609.5,176.2 L610.0,175.7 L610.5,176.9 L611.2,179.1 L611.5,179.5 L611.7,179.8 L612.0,180.5 L612.3,181.0 L612.8,181.8 L613.2,182.5 L613.6,183.0 L613.7,183.1 L614.1,182.5 L614.7,180.7 L615.0,180.5 L615.3,180.9 L616.1,183.7 L617.8,187.6 L618.1,188.1 L619.0,186.9 L619.3,187.8 L619.6,189.3 L619.8,191.0 L620.1,192.5 L621.0,194.2 L621.7,195.3 L622.2,195.1 L622.4,195.3 L623.0,195.5 L623.4,195.7 L623.6,195.5 L623.8,195.3 L624.7,197.0 L625.0,196.9 L625.5,196.2 L625.9,196.4 L626.3,198.1 L626.5,198.8 L626.8,199.3 L627.4,200.3 L628.0,201.1 L628.9,202.6 L630.2,201.4 L631.1,201.0 L631.5,201.7 L631.8,201.6 L632.7,203.6 L633.1,203.4 L633.6,203.5 L634.0,204.1 L635.1,205.5 L635.5,206.1 L635.9,206.2 L636.3,206.5 L637.1,206.2 L637.6,205.2 L638.2,207.0 L639.4,210.2 L639.9,211.2 L640.3,212.1 L640.4,212.3 L640.6,213.0 L641.0,213.4 L641.2,213.8 L641.3,213.8 L641.5,213.4 L642.2,210.8 L642.8,210.3 L643.2,209.8 L643.5,210.3 L643.7,211.1 L644.4,213.2 L644.6,213.7 L644.8,213.8 L645.8,212.3 L646.0,212.1 L646.2,212.3 L646.4,212.6 L646.6,213.0 L646.9,213.3 L647.5,213.5 L647.8,213.7 L648.2,214.1 L648.7,215.1 L649.5,215.8 L649.9,216.1 L650.0,216.2 L650.3,216.9 L650.4,217.6 L650.6,218.5 L651.1,220.4 L651.2,220.7 L651.2,220.9 L651.3,221.0 L651.3,221.2 L651.4,221.4 L651.4,221.5 L651.5,221.6 L651.5,221.7 L651.8,221.7 L652.0,221.6 L652.2,221.6 L653.7,221.1 L654.0,221.0 L654.3,220.9 L654.7,222.3 L656.1,224.4 L656.7,225.2 L656.9,225.4 L657.3,225.7 L657.9,224.7 L658.3,225.0 L659.1,226.8 L659.9,227.8 L660.9,228.7 L661.2,228.5 L661.6,228.5 L662.0,228.9 L662.6,229.3 L662.7,229.5 L663.1,229.5 L663.3,229.3 L663.6,229.0 L664.0,229.7 L664.1,229.8 L664.8,230.7 L665.3,230.9 L665.6,230.9 L666.5,230.6 L666.9,231.3 L667.4,232.0 L669.3,230.1 L669.8,231.4 L670.1,231.8 L670.3,232.2 L670.5,232.7 L671.0,233.7 L671.3,234.1 L671.6,234.5 L671.8,234.8 L672.0,235.1 L672.1,235.3 L672.5,235.3 L672.8,235.3 L674.1,236.6 L674.9,235.9 L675.2,235.5 L675.6,235.6 L676.3,235.5 L676.8,236.1 L677.8,237.0 L678.0,237.2 L678.2,237.4 L678.5,237.7 L679.0,237.8 L679.3,237.9 L679.6,238.1 L680.9,237.6 L681.3,236.8 L681.7,237.3 L682.2,238.2 L682.7,238.0 L683.1,238.9 L683.5,239.2 L684.1,239.9 L684.4,240.2 L684.8,240.5 L685.0,240.5 L685.3,240.4 L685.4,240.2 L685.5,240.2 L685.7,240.1 L686.0,240.0 L686.5,240.4 L687.1,240.5 L687.2,240.5 L687.3,240.4 L687.3,240.3 L687.4,240.2 L687.5,240.1 L687.7,240.0 L687.9,239.9 L688.2,240.0 L688.8,240.4 L689.0,240.8 L689.3,241.1 L689.5,241.3 L690.1,241.5 L691.6,242.3 L692.2,242.7 L692.6,242.9 L693.5,243.3 L694.0,244.0 L694.2,243.9 L694.5,244.0 L695.4,244.0 L695.6,244.1 L695.8,244.1 L696.2,243.9 L697.4,244.3 L697.8,244.8 L698.3,244.1 L698.5,243.9 L698.9,243.9 L699.4,244.9 L700.0,245.0 L700.6,245.8 L700.9,246.0 L701.5,245.8 L701.8,245.8 L702.3,246.1 L702.7,246.8 L703.0,247.0 L703.1,247.1 L703.6,247.0 L704.0,246.8 L704.2,246.6 L704.9,246.1 L705.3,246.8 L705.5,247.1 L706.0,247.6 L706.2,247.7 L706.4,247.7 L706.6,247.7 L706.8,247.9 L706.9,248.0 L707.2,247.9 L707.6,247.6 L707.7,247.3 L707.9,247.2 L708.3,247.2 L708.7,246.9 L708.8,246.6 L709.9,244.4 L710.0,244.2 L710.7,244.0 L711.7,243.2 L712.6,241.1 L713.9,239.8 L714.2,239.8 L715.9,237.9 L716.7,237.6 L716.9,237.4 L717.9,235.9 L718.3,235.3 L719.6,232.9 L720.4,230.8 L721.0,231.0 L722.1,229.5 L723.5,228.1 L723.9,226.2 L725.9,223.8 L726.1,223.1 L726.3,222.7 L726.8,221.7 L727.7,220.3 L728.1,218.6 L729.3,216.3 L729.8,215.5 L730.4,213.8 L731.5,211.9 L732.7,209.3 L733.1,208.5 L733.4,208.5 L733.5,208.7 L733.7,209.2 L734.1,210.3 L734.3,210.7 L734.7,211.6 L735.2,213.0 L735.4,213.8 L735.6,214.6 L736.2,214.6 L737.1,215.4 L737.7,218.2 L738.4,220.8 L739.3,223.4 L739.7,224.8 L739.9,225.7 L740.0,227.3 L740.2,228.1 L740.4,228.7 L740.7,229.3 L741.0,229.5 L741.2,229.5 L741.3,229.6 L741.4,229.9 L741.8,230.6 L742.1,230.9 L743.0,231.1 L743.2,231.2 L743.4,231.2 L744.1,231.7 L744.2,231.6 L744.3,231.3 L744.8,230.3 L745.1,230.4 L746.1,231.4 L746.6,232.3 L747.2,233.0 L747.4,233.1 L747.5,233.2 L747.6,233.3 L747.7,233.3 L747.9,233.2 L748.3,232.9 L748.4,233.2 L748.5,233.5 L748.6,234.1 L750.0,236.1 L751.3,237.4 L751.4,237.5 L751.6,237.7 L752.2,239.9 L752.8,241.7 L753.2,242.8 L753.4,243.3 L753.6,244.0 L754.1,245.3 L754.4,245.8 L754.5,246.0 L755.2,248.0 L756.4,247.6 L756.9,247.8 L757.8,245.0 L758.3,248.7 L759.1,251.9 L759.3,252.0 L759.9,252.6 L760.3,252.4 L760.8,254.1 L761.0,254.4 L761.7,251.8 L762.1,254.0 L762.6,257.7 L763.3,260.7 L763.8,261.7 L764.1,262.3 L764.5,263.4 L764.9,263.7 L765.6,262.0 L765.7,261.8 L765.9,261.7 L766.9,262.4 L767.7,264.5 L768.1,265.1 L769.5,269.1 L769.7,269.2 L770.2,269.0 L770.5,268.9 L770.9,269.5 L771.2,270.9 L771.5,271.4 L771.8,271.7 L772.8,272.8 L773.2,273.8 L773.9,273.1 L774.2,272.0 L774.8,269.7 L775.0,269.3 L775.5,269.9 L775.8,270.8 L776.0,271.5 L776.2,272.0 L778.2,275.2 L779.5,277.0 L779.9,277.2 L780.4,275.8 L780.5,275.4 L780.7,274.7 L782.3,273.3 L783.0,273.3 L783.6,274.8 L783.9,274.5 L784.5,275.9 L786.1,281.8 L786.4,282.1 L786.6,282.5 L786.9,282.8 L787.3,281.8 L787.5,281.6 L788.3,282.5 L788.5,282.5 L789.0,281.7 L789.4,281.9 L790.1,280.7 L790.3,280.7 L791.0,282.5 L791.7,284.9 L792.6,285.8 L792.8,286.0 L793.5,287.4 L793.9,287.7 L794.1,287.8 L794.9,287.3 L795.4,287.3 L796.5,287.6 L797.0,288.3 L797.4,289.0 L798.0,289.1 L798.3,289.4 L798.9,290.1 L799.1,290.1 L800.7,289.3 L801.3,290.0 L801.6,290.0 L801.9,289.5 L802.1,289.7 L802.4,290.9 L803.2,291.8 L804.2,292.0 L804.7,292.4 L805.4,292.6 L806.4,293.2 L806.7,293.3 L807.2,294.0 L807.5,294.0 L807.7,294.0 L808.1,294.3 L808.2,294.5 L808.3,294.8 L808.7,295.4 L809.2,295.7 L809.5,295.9 L810.1,296.0 L810.2,296.0 L810.6,295.9 L810.9,296.1 L811.5,296.9 L811.9,297.0 L812.3,296.9 L812.8,296.6 L813.1,296.5 L813.3,296.7 L813.4,296.8 L813.8,296.9 L814.1,297.0 L814.3,297.0 L814.7,297.5 L815.1,298.4 L815.5,298.5 L815.7,298.3 L816.0,298.2 L816.2,298.3 L816.5,298.4 L816.6,298.6 L816.9,298.7 L817.0,298.6 L817.3,298.4 L817.6,298.4 L817.9,298.2 L818.8,296.9 L819.2,296.6 L819.8,298.0 L821.6,298.9 L822.0,299.2 L823.0,298.9 L823.1,298.8 L823.3,299.1 L824.0,299.3 L824.2,299.5 L824.5,299.5 L824.7,299.3 L825.3,298.7 L825.8,299.2 L826.7,298.4 L827.4,298.4 L827.9,298.5 L828.6,298.4 L830.2,300.4 L830.8,300.8 L831.3,301.0 L831.8,301.0 L832.8,302.0 L834.0,302.5 L835.4,303.9 L837.1,303.6 L837.3,303.7 L841.3,305.6 L841.3,305.6 L841.4,305.6 L841.7,305.5 L842.2,305.0 L843.8,305.1 L844.0,305.1 L844.9,304.7 L845.0,304.8 L845.2,304.9 L845.2,304.9 L845.4,305.0 L846.2,305.8 L847.7,306.0 L848.1,305.7 L848.5,305.5 L848.8,305.5 L848.9,305.5 L849.1,305.7 L849.3,305.8 L849.8,306.2 L850.2,306.2 L850.8,306.4 L851.2,306.5 L851.5,306.6 L851.7,306.7 L852.8,307.0 L853.6,307.1 L853.8,307.0 L854.4,307.1 L854.8,307.1 L855.0,307.1 L855.2,307.1 L855.4,307.1 L855.6,307.1 L855.9,307.1 L856.1,307.1 L856.2,307.1 L856.4,307.1 L856.8,307.0 L857.5,307.1 L857.9,307.1 L858.1,306.9 L858.2,306.9 L858.9,306.4 L859.4,307.0 L860.3,307.1 L860.9,306.9 L862.4,306.9 L864.8,306.4 L866.8,306.9 L868.0,306.9 L869.3,306.5 L869.4,306.5 L872.4,306.5 L872.6,306.4 L872.7,306.4 L873.8,306.2 L873.9,306.1 L874.8,305.8 L876.7,305.6 L877.1,305.4 L877.6,305.3 L878.5,305.0 L878.6,304.8 L879.6,303.3 L879.9,303.4 L880.2,303.4 L880.3,303.3 L880.9,302.1 L881.1,301.7 L881.4,301.6 L881.9,301.5 L882.3,300.9 L883.2,299.1 L883.6,298.4 L884.0,298.7 L884.8,298.9 L885.0,298.6 L885.1,298.6 L885.5,298.8 L885.9,299.8 L886.3,300.6 L886.6,300.9 L886.8,301.0 L886.9,301.0 L887.4,300.7 L887.8,300.5 L888.2,300.6 L888.5,300.5 L888.8,300.5 L888.9,300.4 L891.0,299.0 L891.7,298.0 L892.3,297.1 L892.9,296.9 L893.5,296.2 L894.0,295.8 L894.2,295.8 L894.5,296.0 L895.2,295.6 L895.5,295.7 L895.8,296.0 L895.9,296.1 L896.0,296.1 L896.1,296.1 L896.7,296.0 L897.3,296.2 L898.0,295.7 L898.7,295.1 L899.4,295.0 L900.0,295.5 L900.6,295.2 L901.8,294.2 L902.5,293.2 L902.8,292.9 L903.3,292.3 L903.8,291.3 L904.9,290.7 L905.6,290.6 L906.2,289.4 L906.9,290.3 L907.3,290.6 L907.9,289.8 L908.1,289.5 L908.3,289.1 L908.9,288.0 L909.3,286.5 L909.9,285.0 L910.4,284.2 L911.5,286.6 L911.7,286.9 L912.0,287.1 L912.3,286.7 L913.6,283.5 L913.7,283.5 L915.0,283.3 L916.1,283.1 L917.1,281.4 L917.5,280.9 L917.7,280.5 L918.6,279.5 L920.8,275.4 L921.1,275.5 L921.5,275.6 L924.6,269.8 L925.0,269.0 L926.2,269.3 L927.4,270.4 L927.7,269.2 L928.2,266.8 L929.5,262.3 L930.2,260.8 L930.7,260.3 L931.2,260.2 L932.0,260.4 L932.6,259.0 L933.4,258.6 L934.1,257.4 L934.6,256.3 L934.8,255.3 L935.0,254.4 L937.1,253.4 L937.6,253.9 L937.9,253.0 L938.7,254.5 L939.6,254.9 L939.8,254.5 L940.6,252.5 L940.8,252.1 L940.9,252.0 L941.1,251.9 L941.8,249.9 L942.5,245.9 L942.7,244.7 L943.0,243.5 L943.3,242.8 L943.5,242.6 L944.8,244.3 L945.4,243.0 L945.6,242.9 L946.2,242.7 L947.2,239.6 L947.5,239.7 L947.7,239.8 L949.5,235.3 L950.3,233.7 L950.8,232.5 L951.5,231.0 L951.6,231.0 L951.7,231.0 L951.8,231.2 L951.9,231.7 L952.0,231.7 L952.3,232.4 L952.4,232.5 L952.6,232.1 L952.8,231.0 L952.9,230.4 L953.0,230.2 L953.3,230.6 L953.5,230.4 L953.7,229.7 L954.0,228.6 L954.6,225.9 L954.8,224.3 L955.2,222.7 L955.6,220.8 L955.7,220.0 L955.8,219.8 L955.9,220.2 L956.7,220.6 L957.0,221.3 L957.4,220.2 L959.2,209.5 L959.5,209.7 L959.9,212.5 L960.3,213.8 L961.0,214.6 L961.5,213.3 L962.2,211.4 L962.6,209.5 L963.3,208.4 L963.7,208.4 L963.9,208.1 L964.9,207.4 L965.0,206.9 L965.7,205.3 L966.5,207.5 L966.8,207.5 L967.5,204.8 L968.5,201.3 L968.6,200.8 L969.1,199.6 L969.6,199.3 L971.3,193.3 L972.4,190.5 L972.8,190.4 L973.3,189.7 L973.5,189.7 L974.0,191.0 L974.2,192.1 L974.7,192.8 L975.6,193.2 L976.4,193.6 L976.9,194.7 L977.3,195.2 L978.0,196.2 L978.6,197.2 L978.9,197.7 L979.0,198.3 L979.5,199.5 L979.8,199.7 L980.7,200.2 L981.0,200.1 L981.7,201.2 L981.9,201.6 L982.3,202.7 L982.7,203.5 L983.7,205.6 L983.9,206.4 L984.4,208.4 L984.7,209.0 L985.2,208.4 L985.5,208.8 L985.6,209.0 L985.8,209.5 L985.9,210.0 L986.4,210.5 L987.0,211.1 L987.3,211.6 L987.7,213.1 L989.4,217.4 L989.7,218.4 L990.1,219.4 L990.4,219.8 L990.7,219.8 L990.9,220.2 L991.2,220.6 L991.4,220.6 L991.8,220.2 L991.9,219.9 L992.1,219.4 L992.6,218.7 L992.8,218.6 L994.0,218.7 L994.8,221.9 L996.4,223.2 L996.7,222.9 L996.9,223.1 L997.0,223.8 L997.2,223.4 L998.7,218.8 L999.0,218.5 L999.5,217.8 L1000.2,215.8 L1001.0,214.3 L1001.4,213.8 L1001.9,212.9 L1003.0,210.8 L1003.1,210.4 L1003.3,209.8 L1004.1,206.9 L1004.5,205.7 L1005.0,204.2 L1005.3,203.2 L1005.4,203.0 L1005.5,203.1 L1005.7,204.5 L1006.2,204.2 L1006.4,203.3 L1006.7,202.0 L1008.0,197.2 L1008.4,196.3 L1008.5,196.0 L1008.6,195.4 L1009.1,193.0 L1009.3,192.5 L1009.4,192.5 L1009.6,192.8 L1010.3,192.6 L1010.5,191.5 L1010.8,191.0 L1011.0,190.8 L1011.7,190.9 L1012.0,190.7 L1012.6,188.7 L1012.9,188.3 L1013.2,188.0 L1013.4,187.4 L1013.5,186.9 L1014.0,185.9 L1014.2,186.3 L1014.7,185.3 L1015.7,180.8 L1016.2,178.7 L1016.8,181.0 L1017.2,181.1 L1017.5,180.7 L1018.0,179.0 L1018.4,178.3 L1019.4,176.4 L1019.7,176.0 L1020.0,175.3 L1020.6,173.1 L1021.0,173.9 L1021.3,175.5 L1022.0,177.2 L1022.4,177.4 L1023.3,175.0 L1024.7,173.8 L1025.0,172.8 L1025.3,172.7 L1026.3,172.0 L1026.9,172.6 L1029.6,171.6 L1031.1,170.9 L1031.5,171.4 L1032.8,172.0 L1034.0,172.4 L1034.1,171.8 L1034.3,171.4 L1034.6,170.1 L1035.2,170.3 L1035.6,170.9 L1035.9,171.1 L1036.3,170.0 L1036.3,169.9 L1036.4,169.7 L1036.6,169.5 L1036.8,169.2 L1037.1,168.8 L1037.9,168.0 L1038.2,168.1 L1038.3,168.2 L1039.0,167.4 L1039.6,166.7 L1039.9,166.8 L1040.9,166.9 L1041.3,166.4 L1041.8,166.5 L1042.1,167.6 L1042.5,168.6 L1042.7,168.8 L1043.0,168.2 L1045.5,165.9 L1046.7,166.5 L1047.7,166.6 L1048.4,167.2 L1048.9,167.8 L1049.5,169.2 L1050.4,173.5 L1051.0,173.6 L1051.4,174.2 L1051.8,175.1 L1052.3,175.5 L1052.6,175.7 L1053.2,175.4 L1053.6,175.8 L1054.2,176.8 L1054.5,177.8 L1055.1,179.5 L1056.3,179.8 L1056.8,180.2 L1057.3,180.0 L1057.8,180.1 L1058.2,180.9 L1058.5,181.5 L1059.7,180.3 L1062.0,183.2 L1063.2,185.4 L1064.0,185.8 L1064.3,186.1 L1064.6,186.5 L1064.9,186.8 L1065.7,189.3 L1066.2,188.7 L1066.6,187.5 L1066.8,187.1 L1067.3,187.9 L1067.9,189.2 L1068.2,190.1 L1068.6,192.6 L1068.8,193.5 L1069.0,194.0 L1069.3,194.3 L1069.5,194.5 L1070.7,198.0 L1071.0,198.8 L1072.5,200.7 L1072.8,201.0 L1072.9,200.7 L1073.1,199.4 L1073.7,196.7 L1074.2,198.2 L1074.5,199.2 L1074.7,197.8 L1075.0,198.3 L1075.6,200.9 L1076.2,205.4 L1076.5,205.3 L1076.9,204.2 L1077.1,204.5 L1077.5,204.2 L1077.7,204.0 L1078.6,208.0 L1078.9,208.4 L1079.2,210.5 L1079.6,212.0 L1079.9,213.5 L1080.2,213.7 L1080.7,215.4 L1081.1,216.2 L1081.6,218.2 L1082.2,219.4 L1083.4,221.2 L1084.0,223.1 L1084.3,223.4 L1084.6,224.0 L1085.0,227.0 L1085.2,228.5 L1085.4,229.0 L1085.6,229.3 L1085.9,229.5 L1086.3,231.1 L1087.1,230.8 L1087.4,231.4 L1087.7,232.1 L1088.0,232.7 L1088.8,233.2 L1089.0,233.0 L1089.1,233.0 L1089.2,232.4 L1089.4,232.0 L1089.5,232.2 L1089.7,233.5 L1090.5,235.6 L1091.2,237.5 L1091.6,239.2 L1092.0,239.4 L1093.1,239.5 L1094.1,241.8 L1094.5,242.8 L1095.5,245.1 L1095.6,245.6 L1095.8,245.9 L1096.4,246.6 L1097.2,247.4 L1097.9,247.9 L1098.3,249.3 L1099.0,252.0 L1099.2,251.9 L1099.5,252.3 L1100.1,255.1 L1100.9,257.3 L1101.0,257.4 L1101.7,257.0 L1102.5,258.3 L1103.1,258.8 L1103.7,259.2 L1104.8,260.9 L1105.5,262.9 L1106.0,264.1 L1106.3,264.7 L1106.9,263.9 L1107.6,260.9 L1108.6,262.7 L1109.5,263.0 L1111.0,266.3 L1111.4,266.4 L1112.0,268.0 L1112.3,269.0 L1112.4,269.4 L1112.8,270.5 L1114.8,271.1 L1116.2,273.5 L1116.4,274.1 L1116.8,276.9 L1116.9,277.5 L1117.9,278.3 L1118.5,279.3 L1118.6,279.4 L1118.7,279.6 L1118.8,279.6 L1118.8,279.6 L1119.4,278.9 L1119.7,278.7 L1120.0,278.8 L1120.2,279.0 L1120.4,279.0 L1121.1,278.8 L1122.4,280.5 L1122.6,280.0 L1123.0,279.5 L1123.3,278.9 L1123.8,277.7 L1124.0,278.1 L1124.4,278.9 L1124.6,279.1 L1125.0,278.8 L1125.3,279.6 L1125.9,281.5 L1126.1,281.9 L1126.3,282.3 L1126.8,282.4 L1127.1,282.5 L1127.4,282.8 L1128.2,283.5 L1128.5,283.9 L1129.3,283.9 L1129.4,283.8 L1129.6,283.8 L1129.8,283.9 L1130.0,283.5 L1130.6,282.8 L1131.2,283.0 L1131.7,283.1 L1132.0,283.7 L1132.3,283.7 L1132.6,283.0 L1132.9,283.3 L1133.4,283.3 L1133.7,283.0 L1134.2,282.2 L1134.5,281.9 L1135.8,278.9 L1135.9,279.5 L1136.7,282.4 L1136.9,282.2 L1137.1,282.1 L1137.6,281.6 L1138.5,281.0 L1139.7,281.2 L1140.6,280.6 L1140.9,280.8 L1141.5,281.1 L1142.1,280.6 L1142.3,280.6 L1142.7,280.6 L1143.6,280.9 L1144.5,280.4 L1145.0,280.8 L1145.5,280.7 L1145.9,280.7 L1146.3,280.4 L1148.6,279.2 L1148.8,279.2 L1149.2,279.0 L1149.4,278.7 L1149.8,278.4 L1150.1,278.5 L1150.5,278.7 L1151.1,277.0 L1151.5,276.5 L1151.9,276.9 L1152.8,278.6 L1153.0,278.2 L1153.2,277.5 L1153.6,277.8 L1154.0,277.9 L1155.0,277.5 L1155.2,277.5 L1155.4,277.2 L1156.0,275.6 L1156.9,274.9 L1157.1,275.2 L1157.5,275.6 L1157.9,275.8 L1159.7,274.6 L1160.0,274.9 L1160.5,273.9 L1161.4,274.5 L1163.0,271.6 L1163.7,272.7 L1164.3,273.1 L1165.3,273.6 L1165.9,274.2 L1166.1,274.2 L1166.3,274.3 L1167.5,272.7 L1167.8,271.4 L1168.2,270.6 L1168.5,270.3 L1169.0,270.7 L1169.8,270.8 L1170.0,270.5 L1171.1,271.4 L1171.6,272.6 L1172.0,272.2 L1172.4,271.6 L1172.6,271.8 L1173.6,271.1 L1174.0,270.7 L1174.1,270.7 L1174.2,270.8 L1174.6,271.7 L1176.3,273.4 L1176.4,273.3 L1176.6,272.6 L1176.7,272.0 L1178.0,270.0 L1178.4,269.2 L1178.8,268.9 L1181.1,270.9 L1181.3,270.9 L1181.7,270.5 L1182.6,269.8 L1182.8,270.1 L1183.1,270.8 L1183.3,270.4 L1183.6,268.6 L1183.9,267.4 L1184.9,268.1 L1185.5,267.1 L1186.0,265.4 L1186.8,264.8 L1188.3,268.5 L1188.9,268.5 L1189.6,267.6 L1190.0,267.4 L1190.4,267.5 L1190.8,267.5 L1191.2,266.7 L1191.5,266.1 L1192.0,266.7 L1192.4,266.7 L1192.6,266.6 L1192.9,266.1 L1193.5,264.6 L1193.7,262.6 L1194.1,259.2 L1194.4,257.4 L1194.7,258.3 L1195.2,260.2 L1195.7,262.8 L1196.2,264.9 L1196.7,265.6 L1197.3,265.4 L1197.7,265.8 L1197.9,266.0 L1198.0,266.1 L1198.2,266.2 L1198.4,266.1 L1198.9,265.8 L1199.0,265.9 L1199.4,265.6 L1200.4,263.9 L1200.7,263.4 L1201.1,263.6 L1202.3,259.2 L1202.8,258.4 L1202.9,258.4 L1203.0,258.4 L1203.6,258.8 L1204.9,257.7 L1205.2,257.4 L1206.2,257.8 L1206.6,257.2 L1209.1,253.9 L1209.7,254.8 L1210.1,255.0 L1210.4,254.1 L1210.6,253.8 L1211.1,253.6 L1211.4,253.5 L1212.2,250.4 L1212.3,249.7 L1212.5,249.5 L1212.6,249.7 L1212.7,250.3 L1213.0,252.0 L1213.5,252.2 L1214.6,250.3 L1215.3,248.6 L1215.8,246.3 L1216.0,246.0 L1216.3,246.9 L1216.7,247.8 L1217.0,247.9 L1217.2,247.7 L1217.6,248.2 L1217.9,247.8 L1218.1,247.4 L1218.4,247.3 L1218.7,246.9 L1219.6,243.6 L1219.8,244.3 L1220.0,244.2 L1220.6,244.2 L1220.7,244.4 L1220.9,245.2 L1221.0,245.3 L1221.3,245.2 L1221.5,245.3 L1221.7,245.5 L1222.3,244.8 L1222.6,244.4 L1223.0,244.0 L1223.1,243.7 L1223.4,243.3 L1223.5,243.4 L1223.8,243.0 L1223.9,243.0 L1224.3,241.7 L1224.6,241.2 L1224.7,240.9 L1226.3,235.8 L1226.5,236.2 L1226.6,236.5 L1227.1,238.4 L1227.5,238.2 L1227.8,238.6 L1228.2,238.8 L1228.4,238.5 L1229.1,238.5 L1229.7,236.6 L1230.1,236.4 L1230.4,235.1 L1230.9,233.7 L1231.6,232.0 L1232.1,231.1 L1232.6,232.4 L1233.9,230.1 L1234.2,230.0 L1234.3,230.0 L1234.6,229.6 L1234.8,229.2 L1235.3,227.8 L1235.5,226.9 L1235.7,226.4 L1236.6,226.0 L1236.7,226.0 L1236.9,226.1 L1237.1,225.9 L1237.3,225.6 L1237.8,225.2 L1238.0,224.8 L1238.4,223.7 L1238.8,222.7 L1239.1,222.8 L1239.6,224.4 L1239.8,224.7 L1240.0,224.5 L1240.3,223.9 L1240.5,223.0 L1241.3,221.8 L1241.7,221.7 L1241.9,221.5 L1242.5,219.9 L1242.7,218.7 L1242.8,218.0 L1242.9,217.5 L1243.0,217.4 L1243.3,217.0 L1243.9,215.7 L1244.7,215.2 L1245.0,214.7 L1245.7,215.1 L1246.8,214.0 L1247.4,212.4 L1248.0,211.8 L1249.1,212.8 L1249.6,212.6 L1249.9,212.4 L1250.8,210.5 L1251.0,210.2 L1252.1,208.9 L1253.5,210.8 L1254.4,207.1 L1255.0,207.5 L1255.4,208.0 L1255.5,207.8 L1255.6,207.7 L1255.8,206.3 L1256.9,203.5 L1257.4,202.7 L1258.2,202.1 L1259.4,200.3 L1259.6,200.1 L1259.8,199.8 L1259.9,199.4 L1259.9,199.1 L1260.0,199.1 L1260.6,199.2 L1261.3,199.2 L1261.7,199.7 L1261.8,199.6 L1262.5,198.8 L1263.1,200.3 L1263.2,200.5 L1263.3,200.5 L1263.5,199.8 L1263.9,198.3 L1264.5,197.9 L1265.0,196.0 L1266.3,196.7 L1266.4,196.7 L1266.5,196.7 L1266.7,196.0 L1266.9,195.0 L1267.4,192.4 L1267.6,191.8 L1267.8,191.3 L1268.1,191.2 L1269.5,190.9 L1269.7,190.9 L1270.1,190.1 L1270.5,188.5 L1270.6,188.1 L1271.3,187.9 L1271.7,187.5 L1272.0,186.9 L1272.2,186.1 L1272.4,185.4 L1272.6,185.5 L1273.2,186.8 L1273.4,186.6 L1276.2,182.5 L1276.7,182.0 L1277.2,181.6 L1277.7,181.6 L1277.9,181.2 L1278.2,180.6 L1278.4,179.9 L1279.7,177.4 L1280.1,176.3 L1280.3,175.9 L1280.5,175.9 L1280.7,176.1 L1281.0,176.4 L1281.3,176.9 L1281.5,177.4 L1281.7,177.9 L1282.0,178.4 L1282.7,179.5 L1283.0,179.7 L1283.2,179.7 L1283.8,179.9 L1283.9,180.3 L1284.0,181.2 L1284.2,182.2 L1284.4,182.6 L1284.5,182.5 L1284.9,181.4 L1285.6,181.4 L1286.2,181.6 L1287.9,183.7 L1288.6,183.0 L1289.0,183.3 L1289.4,184.3 L1289.7,184.8 L1289.9,185.2 L1290.7,187.9 L1290.9,188.4 L1291.1,188.6 L1291.5,189.8 L1291.7,190.3 L1292.3,189.3 L1292.4,189.0 L1292.7,189.0 L1292.8,189.3 L1293.5,191.7 L1294.3,191.2 L1294.7,190.7 L1295.2,191.1 L1296.1,196.2 L1296.2,196.8 L1296.5,197.4 L1296.9,197.7 L1297.6,196.8 L1297.8,198.2 L1297.9,199.2 L1298.1,201.0 L1298.2,201.2 L1299.3,199.6 L1299.6,200.3 L1300.2,200.4 L1301.1,198.7 L1301.4,200.2 L1302.0,203.1 L1302.8,207.1 L1303.4,207.4 L1303.9,207.7 L1304.7,205.5 L1304.9,206.0 L1305.1,207.4 L1305.5,210.2 L1305.8,211.0 L1306.8,211.8 L1307.1,212.2 L1307.5,211.0 L1307.7,211.4 L1307.8,211.6 L1307.9,211.5 L1308.0,211.6 L1308.1,211.7 L1309.6,213.5 L1310.0,214.7 L1310.4,215.8 L1311.0,216.5 L1311.2,216.9 L1311.3,217.4 L1312.1,219.3 L1312.8,221.6 L1313.1,222.9 L1313.8,224.5 L1314.0,225.1 L1314.2,226.6 L1314.5,227.3 L1314.7,226.9 L1314.9,226.8 L1316.0,226.6 L1316.9,229.2 L1317.1,229.6 L1317.6,230.7 L1317.9,230.7 L1318.4,232.2 L1319.6,235.4 L1321.0,239.3 L1321.8,241.8 L1322.2,242.8 L1322.3,242.8 L1322.5,242.7 L1322.8,242.5 L1323.4,241.2 L1323.9,239.2 L1324.2,240.0 L1324.5,241.1 L1324.9,242.1 L1325.2,242.7 L1325.4,243.2 L1325.6,244.0 L1326.2,246.1 L1327.2,247.2 L1327.4,247.8 L1327.5,247.8 L1327.9,247.7 L1328.3,247.6 L1329.3,249.8 L1329.4,249.9 L1330.0,250.2 L1330.1,250.2 L1330.4,250.3 L1330.5,250.6 L1330.6,251.1 L1331.5,253.3 L1331.7,253.6 L1331.8,254.0 L1332.3,254.8 L1332.8,254.2 L1333.2,254.0 L1334.1,255.7 L1334.7,256.2 L1335.4,257.6 L1335.8,257.8 L1336.9,257.6 L1337.1,257.4 L1337.3,257.4 L1338.3,257.9 L1338.8,258.6 L1339.5,258.9 L1339.9,257.9 L1340.1,257.2 L1340.4,256.7 L1340.6,256.7 L1340.9,257.1 L1341.4,258.0 L1341.6,258.2 L1342.0,259.3 L1342.3,259.5 L1342.7,259.4 L1342.9,259.1 L1343.2,259.0 L1344.0,258.8 L1344.5,258.8 L1344.7,259.5 L1344.9,260.2 L1345.4,261.8 L1345.5,262.4 L1345.8,262.9 L1346.2,263.4 L1346.4,263.8 L1346.8,264.3 L1346.9,264.4 L1347.4,264.3 L1347.9,264.7 L1348.2,264.8 L1348.2,264.8 L1348.3,264.7 L1348.4,264.8 L1348.7,264.9 L1348.7,264.9 L1348.8,265.0 L1349.0,265.0 L1349.2,265.2 L1349.4,265.2 L1350.1,264.9 L1351.3,264.5 L1352.1,263.9 L1352.9,263.5 L1353.1,263.4 L1353.3,263.2 L1353.6,263.0 L1354.0,262.8 L1354.5,262.0 L1354.6,261.4 L1354.9,261.0 L1355.9,260.7 L1356.4,260.8 L1356.5,260.6 L1357.0,259.7 L1358.5,259.8 L1358.7,260.0 L1359.0,260.5 L1359.7,260.6 L1359.9,260.4 L1360.3,260.0 L1360.5,259.7 L1360.6,259.6 L1361.4,257.8 L1361.9,256.9 L1362.7,255.2 L1362.8,255.3 L1364.9,254.4 L1366.7,252.4 L1366.8,252.6 L1367.2,253.8 L1367.7,255.7 L1368.3,254.8 L1368.8,255.5 L1369.0,255.9 L1369.2,256.0 L1369.3,256.0 L1370.0,254.8 L1370.2,254.4 L1370.5,254.2 L1370.9,254.2 L1371.2,253.2 L1371.8,252.0 L1372.4,251.2 L1372.6,251.1 L1372.8,251.0 L1373.1,251.0 L1373.8,252.0 L1374.1,252.5 L1374.4,252.1 L1374.6,251.4 L1375.0,249.7 L1375.3,248.8 L1375.7,248.1 L1376.2,248.6 L1376.9,249.8 L1377.2,250.1 L1377.3,250.3 L1377.6,250.0 L1378.0,249.6 L1378.8,249.3 L1379.5,247.8 L1380.3,249.3 L1380.4,249.6 L1381.2,249.6 L1381.8,249.6 L1382.5,249.7 L1382.7,249.5 L1383.3,248.7 L1383.7,248.0 L1383.9,247.5 L1384.0,247.2 L1384.3,247.1 L1384.4,247.3 L1384.6,247.7 L1384.8,247.7 L1385.2,247.6 L1385.3,247.7 L1385.7,248.0 L1386.5,248.3 L1387.4,248.0 L1387.6,247.9 L1388.2,247.6 L1388.8,246.6 L1389.1,246.1 L1389.5,245.8 L1389.7,246.0 L1389.8,246.0 L1390.0,246.1 L1390.3,246.3 L1390.8,246.5 L1391.1,246.4 L1391.4,245.9 L1391.4,245.8 L1391.6,245.5 L1391.8,244.9 L1392.5,244.7 L1392.8,244.3 L1393.2,243.9 L1393.7,243.0 L1393.9,243.1 L1394.1,243.2 L1394.3,243.1 L1395.1,242.1 L1395.2,242.0 L1395.4,242.2 L1395.8,241.6 L1396.4,239.8 L1397.0,238.8 L1397.4,237.1 L1398.4,234.7 L1398.6,234.8 L1399.5,234.9 L1400.3,234.0 L1400.5,233.7 L1401.7,230.1 L1401.8,229.9 L1402.0,229.8 L1402.8,227.3 L1403.6,225.1 L1404.8,224.9 L1405.2,224.7 L1405.6,223.8 L1406.2,222.1 L1406.7,221.0 L1407.6,220.5 L1408.3,219.1 L1408.6,218.5 L1409.0,217.5 L1409.4,217.0 L1410.0,218.2 L1410.2,218.0 L1410.4,217.6 L1410.5,217.4 L1410.6,217.0 L1410.7,216.2 L1410.8,215.7 L1410.9,215.3 L1411.6,215.7 L1411.8,215.7 L1412.0,215.5 L1412.5,214.1 L1413.2,213.4 L1413.3,213.0 L1413.6,211.8 L1413.8,211.0 L1414.4,208.2 L1415.1,207.1 L1415.5,206.6 L1415.9,206.5 L1416.3,206.1 L1416.7,205.3 L1416.9,204.7 L1417.4,204.6 L1417.5,203.8 L1417.6,203.0 L1417.7,202.5 L1418.1,203.2" fill="transparent" id="track" stroke="black" stroke-width="2"/>
<g>
<circle cx="352.038" cy="151.096" id="wp-36/circle" r="4.000"/>
<text font-size="16.0" id="wp-36/text" text-anchor="start" x="354.038" y="168.096">
K1
</text>
<circle cx="851.692" cy="306.709" id="wp-119/circle" r="4.000"/>
<text font-size="16.0" id="wp-119/text" text-anchor="start" x="853.692" y="323.709">
K2
</text>
<circle cx="0.331" cy="192.610" fill="Gray" id="wp-2/circle" r="5.000"/>
<text font-size="16.0" id="wp-2/text" text-anchor="start" x="2.331" y="209.610">
Bräunlingen
</text>
<circle cx="352.345" cy="150.833" fill="Gray" id="wp-3/circle" r="5.000"/>
<text font-size="16.0" id="wp-6/text" text-anchor="start" x="354.345" y="122.833">
Furtwangen
</text>
<circle cx="515.907" cy="147.726" fill="Gray" id="wp-5/circle" r="3.000"/>
<text font-size="16.0" id="wp-0/text" text-anchor="start" x="517.907" y="179.726">
Schonach
</text>
<circle cx="882.317" cy="300.877" fill="Gray" id="wp-6/circle" r="3.000"/>
<text font-size="16.0" id="wp-1/text" text-anchor="start" x="884.317" y="317.877">
Fischerbach
</text>
<circle cx="811.929" cy="297.005" fill="Gray" id="wp-7/circle" r="3.000"/>
<text font-size="16.0" id="wp-2/text" text-anchor="start" x="813.929" y="294.005">
Mühlenbach
</text>
</g>
</g>
<g id="SL" transform="translate(0 0)">
<text text-anchor="end" x="0" y="363.5">
0
</text>
<text text-anchor="end" x="0" y="315.7">
200
</text>
<text text-anchor="end" x="0" y="267.9">
400
</text>
<text text-anchor="end" x="0" y="220.1">
600
</text>
<text text-anchor="end" x="0" y="172.3">
800
</text>
<text text-anchor="end" x="0" y="124.5">
1000
</text>
<text text-anchor="end" x="0" y="76.69999999999999">
1200
</text>
<text text-anchor="end" x="0" y="28.900000000000034">
1400
</text>
</g>
</g>
</svg>