<svg height="400" viewBox="(0, 0, 400, 400)" width="400" xmlns="http://www.w3.org/2000/svg">
<path d="M129.1,222.9 L129.5,223.0 L129.5,223.0 L129.6,223.1 L129.7,223.2 L129.9,223.4 L129.9,223.4 L130.0,223.7 L130.1,223.9 L130.3,224.2 L130.3,224.2 L130.4,224.3 L130.4,224.4 L130.4,224.4 L130.5,224.5 L130.7,224.7 L130.8,224.8 L130.8,224.8 L130.8,224.9 L130.9,224.9 L130.9,224.9 L130.9,225.0 L131.0,225.0 L131.3,225.4 L131.5,225.6 L131.7,225.6 L131.8,225.8 L131.9,226.1 L132.0,226.3 L132.0,226.5 L132.0,226.8 L131.9,227.2 L131.7,227.4 L131.7,227.5 L131.5,227.7 L131.5,227.9 L131.5,228.0 L131.5,228.2 L131.6,228.4 L131.8,228.8 L131.9,229.0 L132.0,229.3 L132.0,229.3 L132.1,229.5 L132.2,229.6 L132.7,230.2 L132.7,230.3 L132.8,230.6 L132.9,230.8 L133.0,231.1 L133.1,231.3 L133.1,231.6 L133.2,231.8 L133.3,231.8 L133.4,231.8 L133.5,231.8 L133.5,231.9 L133.6,231.9 L133.6,232.0 L133.7,232.2 L133.7,232.3 L133.9,232.4 L134.1,232.5 L134.1,232.5 L134.3,232.5 L134.4,232.6 L134.6,232.6 L134.9,232.7 L135.2,232.8 L135.2,232.8 L135.4,232.8 L135.6,232.9 L135.9,232.9 L136.3,232.8 L136.5,232.8 L136.9,232.7 L137.2,232.6 L137.6,232.3 L137.9,232.1 L138.1,231.9 L138.5,231.6 L138.7,231.6 L138.9,231.6 L139.1,231.7 L139.2,231.7 L139.5,232.0 L140.1,232.4 L140.3,232.4 L141.0,232.6 L141.3,232.7 L141.9,232.9 L142.1,233.0 L142.5,233.2 L142.6,233.2 L142.6,233.2 L142.8,233.4 L142.8,233.5 L142.9,233.5 L143.1,233.5 L143.2,233.5 L143.3,233.4 L143.3,233.4 L143.4,233.2 L143.5,233.2 L143.8,233.0 L143.9,232.9 L144.2,232.8 L144.3,232.7 L144.4,232.8 L144.7,232.8 L144.9,232.7 L145.2,232.6 L145.5,232.5 L145.7,232.5 L145.8,232.5 L145.9,232.5 L146.1,232.5 L146.7,232.4 L147.7,232.3 L148.4,232.2 L148.7,232.2 L148.6,231.3 L148.4,230.7 L148.4,230.7 L148.2,230.2 L148.1,229.8 L148.1,229.4 L148.1,229.3 L148.2,229.3 L148.4,229.4 L149.5,229.5 L149.7,229.4 L149.9,229.4 L150.5,229.1 L150.9,229.0 L151.0,228.9 L151.1,228.9 L151.1,228.9 L151.2,228.9 L151.3,228.8 L151.5,228.8 L151.9,228.6 L152.0,228.5 L152.2,228.4 L152.2,228.4 L152.2,228.5 L152.3,228.5 L152.7,228.5 L152.9,228.5 L153.2,228.6 L153.8,228.6 L154.1,228.7 L154.2,228.8 L154.9,229.2 L155.1,229.3 L156.0,229.7 L156.3,229.9 L156.7,230.1 L157.3,230.4 L157.7,230.7 L158.0,230.7 L158.3,230.8 L158.4,230.8 L158.6,230.9 L158.8,230.9 L159.2,231.0 L159.6,231.0 L160.2,231.0 L160.7,231.0 L161.0,231.1 L161.1,231.1 L161.2,231.2 L161.8,231.4 L162.0,231.5 L162.4,231.6 L162.4,231.5 L162.8,231.6 L162.9,231.6 L163.0,231.7 L163.2,231.9 L163.4,231.9 L163.4,232.1 L163.4,232.2 L163.4,232.6 L163.4,232.6 L163.5,232.9 L163.5,233.0 L163.8,233.3 L164.0,233.5 L164.2,233.6 L164.6,233.8 L164.8,233.9 L164.9,233.9 L165.1,234.1 L165.3,234.3 L165.4,234.5 L165.7,234.8 L165.8,235.0 L165.9,235.2 L166.2,235.3 L166.5,235.5 L166.7,235.6 L166.8,235.7 L166.9,235.7 L166.9,235.8 L167.0,236.0 L167.0,236.1 L166.9,236.4 L166.8,236.8 L166.7,237.1 L166.7,237.2 L166.7,237.4 L166.8,237.6 L167.1,238.1 L167.0,238.1 L167.0,238.6 L167.0,239.1 L166.9,239.4 L166.9,239.6 L167.1,240.1 L167.2,240.3 L167.3,240.7 L167.4,241.0 L167.6,241.2 L167.8,241.5 L167.8,241.7 L167.8,242.0 L167.8,242.2 L168.0,242.3 L168.6,242.2 L168.8,242.1 L169.1,241.8 L169.2,241.8 L169.3,241.8 L169.5,242.0 L169.7,242.2 L169.9,242.2 L170.2,242.3 L170.3,242.3 L170.5,242.5 L170.9,242.7 L171.3,242.7 L171.9,242.8 L172.1,242.8 L172.5,243.0 L172.6,243.1 L172.9,243.2 L173.1,243.3 L173.1,243.3 L173.4,243.2 L174.3,243.3 L174.4,243.3 L174.8,243.8 L174.9,243.9 L175.1,244.0 L175.3,244.2 L175.5,244.3 L175.6,244.4 L175.7,244.5 L175.8,245.0 L176.2,245.8 L176.4,245.9 L176.7,246.1 L176.9,246.4 L177.1,246.6 L177.3,246.8 L177.4,246.9 L177.5,246.9 L177.8,247.0 L178.5,246.9 L178.7,246.9 L178.8,247.0 L179.0,247.0 L179.2,247.1 L179.3,247.1 L179.4,247.1 L179.7,247.0 L179.8,246.9 L180.0,246.7 L180.6,246.3 L180.7,246.1 L180.9,245.9 L181.3,245.2 L181.5,244.9 L181.6,244.8 L181.9,244.7 L182.2,244.7 L182.4,244.7 L182.5,244.6 L182.7,244.5 L183.4,244.1 L183.5,244.0 L183.7,243.9 L184.2,243.9 L184.5,243.9 L184.6,243.9 L185.1,243.9 L185.1,243.9 L185.1,243.9 L185.2,243.8 L185.2,243.8 L185.3,243.8 L185.5,243.8 L185.5,243.6 L185.4,242.8 L185.4,242.7 L185.8,242.8 L185.9,242.7 L186.0,242.7 L186.2,242.6 L186.4,242.4 L186.6,242.3 L186.6,242.2 L186.7,242.2 L186.8,242.2 L186.9,242.2 L187.0,242.3 L187.0,242.3 L187.3,242.5 L187.4,242.6 L187.7,242.7 L188.0,242.8 L188.4,242.8 L188.7,242.8 L189.1,242.9 L189.3,243.0 L189.0,243.5 L189.0,243.5 L189.0,243.6 L189.1,243.7 L189.3,243.8 L189.3,243.9 L189.3,244.0 L189.3,244.2 L189.4,244.2 L189.5,244.1 L189.7,244.0 L190.0,243.9 L190.1,243.9 L190.2,243.8 L190.6,243.9 L191.0,243.7 L191.5,243.7 L192.0,243.9 L192.2,243.9 L192.4,243.9 L192.4,243.9 L192.8,243.7 L193.0,243.7 L193.3,243.5 L193.7,243.4 L193.9,243.3 L194.2,243.3 L194.3,243.3 L194.6,243.3 L194.8,243.2 L194.9,243.1 L195.1,242.9 L195.1,242.9 L195.2,242.8 L195.4,242.7 L195.6,242.6 L195.7,242.6 L195.8,242.7 L195.9,242.6 L196.1,242.5 L196.3,242.5 L196.6,242.5 L196.9,242.4 L197.3,242.3 L197.4,242.3 L197.8,242.4 L198.1,242.4 L198.5,242.4 L198.7,242.4 L199.1,242.2 L199.6,242.0 L200.4,241.8 L201.2,241.5 L201.7,241.3 L202.0,241.2 L202.7,241.0 L203.0,240.9 L203.5,240.9 L203.8,240.8 L204.0,240.8 L205.1,240.8 L205.7,240.8 L206.2,240.7 L206.5,240.8 L206.7,240.8 L207.1,240.5 L208.6,240.1 L209.2,239.8 L209.5,239.6 L209.8,239.5 L210.5,239.2 L210.8,239.1 L211.1,239.0 L212.2,239.0 L212.8,239.1 L212.9,239.1 L213.5,239.0 L213.8,238.9 L214.5,238.6 L214.9,238.5 L215.1,238.4 L215.6,238.1 L215.8,238.0 L215.9,238.1 L216.0,238.2 L216.1,238.2 L216.2,238.2 L216.4,238.2 L216.4,238.2 L216.8,238.3 L217.1,238.2 L217.2,238.2 L217.5,238.1 L217.9,238.1 L218.1,238.0 L218.3,238.0 L218.6,238.1 L219.1,238.2 L219.5,238.3 L219.6,238.3 L219.7,238.4 L220.1,238.4 L220.5,238.4 L220.9,238.5 L221.0,238.5 L221.1,238.6 L221.5,239.0 L221.6,239.0 L221.8,239.1 L222.0,239.2 L222.1,238.9 L222.0,238.5 L222.0,238.3 L222.0,238.2 L222.5,239.0 L223.3,239.5 L223.5,239.5 L223.7,239.7 L223.8,239.8 L224.0,240.0 L224.1,240.0 L224.3,240.1 L224.8,240.1 L225.0,240.2 L225.0,240.2 L225.1,240.4 L225.1,240.5 L225.1,240.7 L225.0,240.9 L225.0,241.0 L225.0,241.1 L225.1,241.2 L225.2,241.3 L226.0,241.8 L226.1,241.9 L226.2,242.0 L226.3,242.1 L226.5,242.3 L226.7,242.6 L227.0,242.8 L227.6,243.3 L227.8,243.4 L227.9,243.5 L228.2,243.6 L228.2,243.6 L228.4,244.3 L228.8,245.2 L229.1,245.6 L229.3,246.0 L229.6,246.3 L229.8,246.6 L231.6,249.1 L231.6,249.2 L231.7,249.5 L231.8,249.8 L231.7,249.9 L231.6,250.1 L231.5,250.4 L231.4,250.6 L231.3,250.8 L231.4,251.0 L231.6,251.4 L232.3,251.5 L232.7,251.5 L233.0,251.4 L233.1,251.3 L233.4,251.0 L233.5,250.9 L233.7,250.9 L234.6,251.2 L234.7,251.2 L235.0,251.1 L235.2,251.0 L235.3,251.0 L235.4,251.0 L235.4,251.1 L235.4,251.3 L235.4,251.9 L235.4,252.1 L235.4,252.2 L235.6,252.4 L235.7,252.6 L235.7,252.8 L235.8,253.0 L235.8,253.3 L235.7,253.9 L235.6,254.2 L235.6,254.4 L235.7,254.6 L235.9,254.8 L235.9,254.9 L236.0,255.1 L235.9,255.2 L235.7,255.5 L235.6,255.7 L235.6,255.7 L235.6,255.8 L235.5,256.0 L235.5,256.1 L235.4,256.1 L235.2,256.2 L235.0,256.3 L234.6,256.3 L234.5,256.3 L234.5,256.4 L234.5,256.5 L234.5,256.8 L234.6,257.3 L234.7,257.7 L234.6,258.1 L234.6,258.4 L234.5,258.8 L234.4,259.1 L234.3,259.3 L234.2,259.3 L233.9,259.3 L233.6,259.3 L233.5,259.3 L233.4,259.4 L233.4,259.5 L233.2,260.0 L233.1,260.1 L233.0,260.2 L232.8,260.2 L232.3,260.1 L232.1,260.1 L232.1,260.2 L232.1,260.3 L232.3,260.4 L232.3,260.5 L232.3,260.6 L232.1,261.0 L231.8,261.4 L231.7,261.8 L231.6,262.4 L231.3,263.0 L231.3,263.1 L231.1,263.2 L231.1,263.1 L230.9,262.8 L230.8,262.6 L230.7,262.5 L230.5,262.5 L230.3,262.5 L230.0,262.6 L229.6,262.8 L229.4,262.9 L229.3,262.8 L229.2,262.8 L229.0,262.7 L228.8,262.7 L228.6,262.8 L228.5,262.9 L228.0,263.3 L227.9,263.4 L227.7,263.4 L227.3,263.4 L227.2,263.4 L227.2,263.4 L227.1,263.6 L227.0,264.2 L226.9,264.6 L226.9,265.0 L226.9,265.3 L226.7,265.9 L226.7,266.1 L226.8,266.6 L226.8,266.9 L227.0,267.7 L226.9,268.3 L227.0,268.4 L227.1,268.7 L227.1,268.8 L227.0,269.4 L227.0,269.5 L227.1,269.7 L227.2,270.0 L227.0,270.0 L226.7,270.0 L226.6,270.0 L226.3,270.1 L226.0,270.1 L225.9,270.1 L225.6,269.9 L225.1,269.8 L225.1,270.1 L225.1,270.2 L224.9,270.5 L224.7,270.9 L224.6,271.1 L224.6,271.4 L224.6,271.6 L224.7,271.8 L224.7,271.9 L224.8,272.0 L224.9,272.3 L225.0,272.4 L225.9,273.3 L226.0,273.4 L226.0,273.6 L225.7,274.3 L225.6,274.5 L225.5,274.8 L225.5,274.8 L225.6,276.0 L225.7,276.2 L225.6,277.2 L225.1,277.3 L224.8,277.4 L224.4,277.4 L224.3,277.5 L223.9,277.6 L223.8,277.7 L223.4,277.8 L223.3,277.8 L223.2,278.0 L222.8,278.6 L222.6,278.7 L222.5,278.8 L221.9,279.0 L221.7,279.1 L221.3,279.6 L221.2,279.6 L220.6,279.7 L220.3,279.8 L220.1,279.9 L219.9,280.1 L219.8,280.2 L219.6,280.4 L219.5,280.5 L219.5,280.8 L219.3,281.0 L219.1,281.3 L219.1,281.7 L218.9,282.0 L218.9,282.3 L218.9,282.5 L219.0,282.9 L218.9,283.1 L218.8,283.6 L218.8,283.6 L218.6,283.9 L218.2,284.2 L218.6,284.4 L218.8,284.4 L219.0,284.3 L219.1,284.3 L219.2,284.2 L219.8,283.9 L220.2,283.8 L220.4,283.7 L220.5,283.7 L220.8,283.8 L221.1,283.9 L221.4,284.1 L221.5,284.2 L221.6,284.3 L221.6,284.4 L221.7,285.0 L221.7,285.8 L221.7,286.2 L221.8,286.6 L221.7,286.9 L221.7,287.2 L221.8,287.5 L221.9,287.9 L221.9,288.3 L221.9,288.6 L222.0,289.0 L222.0,289.0 L222.5,289.2 L222.6,289.3 L222.8,289.8 L222.9,290.0 L223.0,290.1 L223.1,290.1 L223.3,290.1 L223.6,289.9 L224.0,290.1 L224.2,290.1 L224.3,290.0 L224.8,289.8 L224.9,289.8 L225.3,289.9 L225.9,290.0 L226.0,290.2 L226.0,290.2 L226.1,290.4 L226.3,290.8 L226.3,290.9 L226.4,291.1 L226.4,291.2 L226.7,291.7 L226.8,291.8 L226.9,291.9 L227.2,292.0 L227.4,292.1 L227.6,292.1 L227.8,292.1 L229.2,291.6 L229.4,291.5 L229.6,291.4 L230.0,291.1 L230.1,291.1 L230.2,291.1 L230.6,291.3 L230.8,291.3 L231.0,291.4 L232.1,291.4 L232.5,291.4 L233.4,291.6 L233.6,291.6 L234.0,291.8 L235.2,292.3 L235.3,292.4 L235.4,292.4 L236.1,292.3 L236.2,292.2 L236.5,292.0 L236.7,292.0 L236.8,292.0 L237.2,292.1 L237.4,292.2 L237.9,292.5 L238.0,292.6 L238.4,292.6 L238.5,292.6 L238.5,292.6 L238.6,292.7 L238.6,292.9 L238.6,293.2 L238.6,293.3 L238.7,293.4 L238.8,293.5 L238.9,293.4 L239.0,293.4 L239.1,293.4 L239.5,293.7 L239.7,293.9 L239.7,293.9 L240.2,293.9 L240.2,293.9 L240.3,293.8 L240.7,293.9 L240.7,293.9 L241.2,294.1 L241.6,294.3 L242.8,294.7 L243.0,294.7 L243.2,294.7 L243.3,294.8 L243.7,294.9 L243.9,295.2 L244.2,295.0 L244.4,295.2 L244.5,295.3 L244.6,295.3 L244.8,295.2 L244.9,295.2 L245.0,295.2 L245.1,295.3 L245.1,295.3 L245.2,295.5 L245.2,295.8 L245.2,295.9 L245.3,296.1 L245.4,296.4 L245.4,296.6 L245.4,296.7 L245.5,296.8 L245.6,296.9 L245.4,297.3 L245.3,297.5 L245.3,297.6 L245.2,297.8 L245.1,298.1 L245.1,298.2 L245.1,298.4 L245.0,298.4 L245.1,298.5 L245.1,298.6 L245.1,298.6 L245.2,298.7 L245.3,298.7 L245.3,298.8 L245.5,298.9 L245.9,299.1 L246.3,299.4 L246.8,299.6 L247.4,299.8 L247.5,299.9 L247.8,300.0 L248.2,300.1 L248.6,300.3 L249.4,300.4 L249.5,300.5 L249.8,300.7 L250.0,300.8 L250.1,300.9 L250.3,300.9 L250.5,300.8 L250.6,300.8 L250.9,300.7 L251.0,300.7 L251.3,300.7 L252.1,300.5 L252.1,300.6 L252.2,300.9 L252.3,301.0 L252.3,301.1 L252.4,301.2 L252.4,301.3 L252.5,301.3 L252.5,301.7 L252.6,301.7 L252.6,301.8 L252.8,302.3 L253.0,302.6 L253.0,302.7 L253.1,302.8 L253.1,302.8 L253.2,302.8 L253.3,302.8 L253.9,302.7 L254.1,302.7 L254.2,302.7 L254.4,302.7 L254.4,302.7 L254.5,302.6 L254.6,302.6 L254.6,302.6 L254.6,302.4 L254.6,302.3 L254.6,301.7 L254.6,301.4 L254.6,301.2 L254.7,301.0 L254.8,300.6 L254.9,300.3 L255.0,300.2 L255.0,300.2 L255.2,300.3 L255.3,300.3 L255.5,300.1 L255.5,300.1 L255.8,299.9 L256.1,299.7 L256.3,299.8 L256.3,299.9 L256.3,300.0 L256.3,300.0 L256.4,300.1 L256.4,300.0 L256.4,299.9 L256.5,299.9 L256.6,300.0 L256.8,300.2 L257.1,300.4 L258.1,300.9 L258.2,300.9 L258.2,300.8 L258.3,300.5 L258.4,300.4 L258.5,300.4 L258.5,300.3 L258.7,300.2 L258.7,300.1 L258.9,300.1 L259.0,300.1 L259.1,300.1 L259.1,300.1 L259.2,300.2 L259.2,300.3 L259.3,300.4 L259.3,300.4 L259.4,300.4 L259.5,300.6 L259.5,300.7 L259.6,300.9 L259.6,301.0 L259.7,301.0 L259.8,301.1 L260.0,301.0 L260.0,301.0 L260.1,301.0 L260.1,301.1 L260.1,301.2 L260.2,301.4 L260.3,301.5 L260.3,301.5 L260.7,301.4 L260.7,301.4 L260.9,301.4 L261.2,301.6 L261.3,301.6 L261.4,301.7 L261.4,301.7 L261.5,301.7 L261.5,301.8 L261.2,302.2 L261.2,302.3 L261.3,302.4 L261.7,303.1 L261.8,303.2 L261.9,303.3 L263.0,303.6 L263.0,303.7 L263.0,303.8 L263.1,304.0 L263.6,304.3 L263.7,304.3 L263.8,304.3 L263.9,304.3 L264.1,304.4 L264.1,304.4 L264.1,304.5 L264.0,304.5 L263.9,304.7 L263.9,304.7 L263.7,305.0 L263.4,305.3 L263.3,305.4 L263.3,305.6 L263.8,305.6 L263.9,305.6 L263.9,305.6 L265.6,305.7 L265.8,305.7 L266.0,305.7 L266.2,305.8 L266.5,305.9 L266.7,306.1 L266.8,306.1 L266.9,306.1 L267.2,306.0 L267.3,306.0 L267.4,306.4 L267.5,306.7 L267.6,306.9 L267.7,307.2 L267.9,307.4 L268.0,307.6 L268.4,308.0 L268.6,308.1 L268.9,308.2 L269.4,308.4 L269.7,308.6 L270.1,308.9 L270.3,309.0 L270.5,309.1 L270.8,309.1 L271.1,309.1 L271.5,309.1 L271.8,309.1 L272.0,309.1 L272.2,309.2 L272.7,309.5 L272.9,309.6 L273.3,309.7 L273.5,309.7 L273.6,309.6 L273.8,309.6 L274.1,309.5 L274.5,309.4 L274.9,309.3 L275.3,309.2 L275.9,309.2 L276.5,309.2 L276.7,309.2 L276.9,309.3 L277.7,309.8 L277.9,309.9 L278.2,309.9 L278.5,309.9 L278.5,309.9 L278.7,310.0 L278.9,310.2 L279.1,310.3 L279.3,310.5 L279.3,310.6 L279.2,310.7 L279.6,310.8 L279.8,310.7 L280.0,310.6 L280.1,310.6 L280.6,310.7 L281.5,310.8 L282.0,311.1 L282.1,311.2 L281.9,311.5 L281.9,311.6 L282.2,312.2 L282.3,312.6 L282.5,313.1 L282.5,313.1 L282.5,313.2 L282.6,313.3 L282.7,313.5 L282.9,313.6 L282.9,313.7 L282.8,314.3 L282.8,314.3 L282.9,314.3 L283.1,314.2 L283.2,314.1 L283.5,314.1 L283.7,314.1 L284.2,314.2 L284.9,314.4 L285.1,314.5 L285.6,314.6 L285.8,314.7 L285.9,314.8 L286.3,315.2 L286.4,315.4 L286.7,315.5 L287.7,315.6 L287.9,315.6 L288.0,315.7 L288.1,315.8 L288.8,317.4 L288.9,317.4 L289.2,317.4 L289.3,317.4 L289.3,317.6 L289.4,317.6 L289.4,317.6 L289.5,317.5 L289.6,317.4 L289.9,317.0 L290.3,316.6 L290.7,316.2 L290.8,316.1 L290.8,316.0 L290.8,315.8 L290.8,315.7 L290.9,315.7 L291.6,315.3 L292.6,314.9 L293.7,314.6 L294.0,314.4 L294.0,314.4 L294.2,314.1 L294.6,313.6 L294.7,313.5 L294.8,312.9 L294.8,312.4 L294.8,312.3 L294.8,312.2 L294.9,312.2 L295.1,312.1 L295.2,312.0 L295.3,312.0 L295.3,312.0 L295.7,311.8 L296.5,311.4 L296.7,311.4 L296.8,311.4 L296.8,311.4 L297.0,311.3 L297.4,311.2 L297.9,311.1 L298.5,310.9 L298.6,310.9 L298.9,310.9 L299.1,310.8 L299.6,310.9 L300.2,310.9 L300.4,310.9 L300.7,310.9 L300.9,310.8 L301.2,310.7 L301.3,310.6 L301.6,310.6 L301.8,310.6 L302.2,310.6 L302.9,310.6 L303.1,310.6 L303.4,310.7 L303.7,310.7 L304.3,310.6 L304.9,310.5 L305.2,310.4 L305.4,310.4 L305.9,310.2 L306.3,310.1 L306.8,310.9 L307.6,312.2 L307.8,312.6 L307.9,312.8 L308.0,313.1 L308.0,313.4 L308.0,314.5 L308.0,314.7 L308.2,315.2 L308.3,315.4 L308.3,315.6 L308.2,315.8 L308.2,315.9 L308.4,316.7 L308.5,316.9 L308.5,317.1 L308.5,317.4 L308.5,317.7 L308.5,317.8 L308.4,318.0 L308.3,318.1 L308.3,318.1 L308.3,318.1 L308.3,318.2 L308.3,318.3 L308.5,318.6 L308.4,318.7 L308.4,318.8 L308.1,318.9 L308.1,319.0 L308.0,319.1 L308.0,319.4 L308.0,319.6 L308.2,320.0 L308.0,320.4 L308.1,320.4 L308.2,320.4 L308.2,320.4 L308.3,320.5 L308.3,320.5 L308.7,320.7 L308.7,320.7 L309.0,320.8 L309.1,320.9 L309.4,320.9 L309.5,320.8 L309.5,320.8 L309.7,320.7 L310.0,320.6 L310.0,320.6 L310.4,320.4 L310.7,320.2 L311.1,320.1 L311.1,320.0 L311.1,319.9 L311.0,319.7 L310.9,319.5 L310.9,319.5 L310.8,319.4 L311.0,319.2 L311.4,318.8 L311.6,318.6 L311.7,318.4 L311.8,318.1 L311.9,317.9 L311.9,317.9 L312.0,317.7 L312.0,317.7 L312.1,317.6 L312.1,317.6 L312.4,317.5 L312.5,317.5 L313.4,316.7 L313.5,316.5 L313.7,316.2 L313.8,315.8 L313.8,315.6 L313.8,314.9 L313.9,314.7 L314.0,314.4 L314.2,314.0 L314.2,313.6 L314.2,313.4 L314.2,313.3 L314.5,312.9 L314.6,312.8 L314.6,312.7 L314.5,312.4 L314.5,312.2 L314.6,312.2 L314.7,312.2 L315.0,312.0 L315.2,311.7 L315.3,311.6 L315.9,311.2 L316.0,311.1 L316.1,310.9 L316.3,310.4 L316.4,310.3 L316.5,310.2 L316.6,310.2 L317.0,309.9 L317.2,309.6 L317.3,309.5 L317.5,309.2 L317.5,309.1 L317.6,308.9 L317.4,308.6 L317.3,308.6 L317.2,308.4 L316.9,308.1 L316.8,308.0 L316.8,307.9 L316.8,307.8 L316.8,307.7 L317.2,306.5 L317.2,306.3 L317.1,306.1 L317.0,305.5 L316.9,305.1 L316.9,304.9 L316.9,304.7 L316.9,304.5 L317.0,304.4 L317.0,304.2 L317.1,304.1 L317.4,303.6 L317.5,303.4 L317.6,303.2 L317.8,303.0 L318.0,302.9 L318.3,302.7 L318.7,302.4 L319.2,301.9 L320.0,301.1 L320.2,301.0 L320.6,300.6 L320.8,300.4 L320.9,300.2 L321.2,299.7 L321.2,299.6 L321.3,299.5 L321.5,299.4 L322.0,299.2 L322.7,299.0 L322.5,298.8 L322.2,298.5 L322.0,298.4 L321.6,298.1 L321.2,297.8 L321.0,297.7 L320.9,297.6 L320.6,297.3 L320.5,297.2 L320.3,296.9 L320.0,296.7 L319.9,296.6 L319.2,296.3 L318.9,296.1 L318.7,296.0 L318.3,295.9 L318.2,295.8 L318.0,295.6 L317.7,295.1 L317.2,294.5 L317.1,294.2 L316.7,293.4 L316.6,293.3 L316.5,293.2 L315.7,292.8 L315.3,292.7 L315.0,292.6 L314.8,292.5 L314.4,292.4 L314.3,292.3 L314.2,292.3 L314.1,292.1 L314.0,291.9 L313.8,291.7 L313.6,291.1 L313.6,290.9 L313.6,290.8 L313.5,290.6 L313.5,290.5 L313.3,290.4 L313.2,290.3 L313.2,290.2 L313.2,290.1 L313.2,290.1 L313.3,289.9 L313.3,289.8 L313.3,289.6 L313.3,289.6 L313.2,289.3 L313.2,289.2 L313.2,289.0 L313.2,288.8 L313.2,288.6 L313.2,288.5 L313.2,288.3 L313.0,288.1 L312.8,287.7 L312.7,287.6 L312.6,287.4 L312.5,287.3 L312.3,287.2 L312.2,287.1 L312.1,287.0 L312.0,287.0 L311.9,287.0 L311.8,287.1 L311.7,287.1 L311.7,287.2 L311.6,287.2 L311.5,287.3 L311.4,287.3 L311.3,287.2 L310.9,286.8 L310.8,286.7 L310.6,286.6 L310.3,286.5 L310.3,286.5 L310.3,286.4 L310.5,286.2 L310.6,286.0 L310.6,286.0 L310.8,286.1 L310.9,286.0 L311.3,285.8 L311.4,285.7 L311.6,285.5 L312.0,285.4 L312.2,285.2 L312.6,284.8 L312.8,284.4 L312.9,284.3 L313.3,284.0 L313.5,283.9 L314.1,283.7 L314.4,283.6 L314.6,283.5 L314.8,283.4 L315.4,282.9 L315.5,282.8 L315.6,282.5 L315.8,282.3 L316.1,281.9 L316.2,281.8 L316.2,281.6 L316.3,281.3 L316.3,281.2 L316.2,281.0 L316.2,280.9 L316.2,280.6 L316.2,280.4 L316.2,280.1 L316.2,279.9 L316.1,279.7 L315.9,279.2 L315.8,279.1 L315.8,278.9 L315.8,278.7 L315.8,278.6 L315.9,278.7 L316.0,278.5 L316.1,278.3 L316.8,278.0 L316.8,277.9 L316.9,277.9 L317.0,278.0 L317.1,278.0 L317.1,278.0 L317.8,277.8 L318.1,277.5 L318.2,277.5 L318.3,277.4 L318.9,277.4 L319.4,277.2 L319.9,277.1 L320.3,277.0 L320.6,276.8 L320.9,276.6 L321.2,276.5 L321.5,276.2 L321.6,276.1 L322.0,275.4 L322.1,275.3 L322.1,275.3 L322.2,275.3 L322.8,275.2 L322.8,275.2 L322.9,274.7 L322.9,274.7 L323.1,274.5 L323.1,274.4 L323.1,273.9 L323.1,273.8 L323.1,273.3 L323.1,273.2 L323.1,273.2 L323.2,273.2 L323.4,273.3 L323.4,273.3 L323.5,273.2 L323.8,273.2 L323.9,273.1 L324.4,272.9 L324.5,272.8 L324.6,272.7 L324.7,272.6 L324.7,272.4 L324.7,272.3 L325.1,271.7 L325.5,271.2 L325.7,271.1 L325.8,271.0 L325.8,270.8 L325.9,270.6 L325.9,270.6 L326.1,270.3 L326.2,270.5 L326.2,270.5 L326.4,270.6 L326.6,270.6 L326.7,270.7 L326.9,270.9 L327.1,271.3 L327.3,271.5 L327.4,271.7 L328.4,272.8 L328.5,272.9 L329.5,273.6 L329.6,273.7 L329.8,273.7 L330.7,273.8 L332.4,273.8 L332.7,273.9 L333.2,274.0 L333.3,274.1 L333.4,274.1 L333.6,274.4 L333.7,274.5 L334.1,274.7 L334.4,274.8 L334.7,274.9 L334.8,275.0 L334.8,275.0 L334.9,275.3 L335.0,275.4 L335.1,275.5 L335.3,275.6 L335.4,275.7 L335.6,276.0 L335.6,276.1 L335.8,276.2 L336.0,276.3 L336.3,276.6 L337.0,277.3 L338.1,278.2 L338.3,278.2 L338.3,278.2 L338.6,278.2 L338.4,277.9 L338.3,277.8 L338.7,277.1 L338.7,277.1 L338.8,276.8 L338.9,276.6 L339.1,276.3 L339.4,275.9 L340.1,275.3 L340.1,275.2 L340.2,275.2 L340.2,275.6 L340.2,275.7 L340.2,275.9 L340.2,276.1 L340.4,276.4 L340.6,276.8 L340.9,277.1 L341.1,277.3 L341.5,277.6 L341.8,277.9 L342.3,278.4 L342.7,278.7 L343.4,279.5 L343.6,279.8 L343.8,280.1 L344.0,280.5 L344.0,280.5 L344.2,280.7 L345.0,281.1 L345.3,281.2 L345.9,281.6 L346.1,281.8 L346.2,282.0 L346.2,282.2 L346.2,282.3 L346.2,282.6 L346.1,283.0 L346.5,282.8 L346.6,282.8 L346.9,282.5 L347.2,282.3 L347.3,282.3 L347.7,282.1 L348.2,281.8 L348.3,281.8 L349.3,281.7 L350.0,281.6 L350.7,281.6 L350.9,281.6 L351.0,281.7 L351.4,282.0 L351.7,282.2 L352.0,282.6 L352.2,282.9 L352.3,283.0 L352.4,283.3 L352.8,283.8 L352.9,284.1 L353.1,284.6 L353.1,284.7 L353.2,284.8 L353.2,284.8 L353.1,285.0 L353.1,285.2 L353.1,285.3 L353.1,285.3 L353.2,285.3 L353.6,285.1 L353.9,285.0 L354.9,284.8 L356.4,284.4 L356.8,284.3 L357.6,284.0 L359.1,283.4 L359.7,283.2 L360.8,282.6 L361.4,282.3 L361.8,282.1 L361.9,282.0 L361.8,281.9 L362.3,281.5 L362.8,281.2 L362.8,281.1 L362.9,281.2 L363.0,281.2 L363.0,281.1 L363.0,281.1 L363.1,281.0 L363.2,281.0 L363.3,281.0 L363.5,280.9 L363.5,280.9 L363.7,281.0 L363.8,281.0 L364.2,281.1 L364.2,281.1 L364.2,281.1 L364.3,281.2 L364.4,281.2 L364.4,281.2 L364.5,281.2 L364.7,281.3 L364.9,281.4 L365.0,281.5 L365.0,281.6 L365.0,281.6 L365.0,281.8 L365.0,281.9 L365.1,282.3 L365.2,282.6 L365.2,282.6 L365.3,282.8 L365.4,283.0 L365.5,283.1 L366.6,284.7 L367.1,285.4 L367.4,286.0 L367.6,286.3 L368.0,287.0 L368.4,287.9 L368.5,288.1 L368.4,288.1 L368.6,288.4 L368.7,288.5 L369.0,288.9 L369.2,289.0 L369.3,289.2 L369.5,289.4 L370.2,290.3 L370.3,290.4 L370.4,290.4 L370.4,290.5 L370.5,290.5 L370.6,291.1 L370.6,291.3 L370.6,291.3 L370.4,291.3 L370.3,291.6 L370.2,291.8 L370.2,291.9 L370.1,292.0 L370.1,292.2 L370.1,292.2 L370.1,292.2 L370.0,292.6 L370.0,292.6 L370.0,292.8 L370.1,292.8 L370.2,292.8 L370.3,292.8 L370.5,292.8 L370.5,292.8 L370.8,292.9 L371.1,293.0 L371.5,293.4 L371.7,293.4 L372.2,293.6 L372.4,293.6 L372.6,293.6 L373.3,293.5 L373.5,293.5 L373.6,293.6 L373.7,293.6 L373.9,293.7 L374.2,293.7 L374.4,293.7 L374.5,293.7 L374.7,293.6 L374.9,293.6 L375.5,293.4 L376.1,293.2 L376.2,293.2 L376.3,293.2 L376.3,293.2 L376.7,292.9 L376.8,292.9 L377.3,292.5 L377.6,292.3 L377.6,292.2 L377.6,292.2 L377.7,292.0 L377.7,291.9 L377.6,291.9 L377.5,291.6 L377.5,291.6 L377.5,291.6 L377.5,291.5 L377.7,291.4 L377.8,291.4 L377.9,291.8 L377.9,291.9 L378.0,292.0 L378.2,291.9 L378.4,291.9 L378.6,291.9 L379.4,291.9 L379.6,291.9 L379.9,291.9 L380.4,291.7 L380.5,291.6 L380.6,291.5 L380.6,291.6 L381.4,291.3 L381.6,291.2 L381.9,291.0 L382.3,290.7 L382.8,290.4 L383.0,290.3 L382.9,289.9 L382.9,289.6 L383.0,289.5 L383.1,289.4 L383.3,289.3 L383.9,289.0 L384.0,289.0 L384.4,289.1 L384.6,289.0 L384.6,289.0 L384.8,288.8 L385.0,288.5 L385.0,288.5 L384.8,288.4 L384.5,288.1 L384.4,288.0 L384.1,287.9 L383.5,287.9 L383.3,287.8 L383.1,287.7 L383.0,287.6 L382.9,287.5 L382.7,287.2 L382.4,286.6 L382.2,286.2 L382.2,286.1 L382.0,286.0 L381.9,285.9 L381.6,285.4 L381.5,285.2 L381.2,284.6 L381.0,284.2 L381.0,284.1 L381.0,283.7 L380.9,283.6 L380.9,283.5 L380.6,283.3 L380.5,283.0 L380.3,282.8 L379.9,282.5 L380.2,282.3 L380.5,282.1 L380.8,281.9 L381.1,281.8 L381.9,281.4 L382.0,281.3 L381.8,280.5 L381.7,280.0 L381.4,279.6 L381.3,279.3 L381.1,279.0 L380.8,278.7 L380.1,277.9 L379.6,277.4 L379.2,277.2 L378.8,276.7 L378.5,276.5 L378.2,276.2 L377.8,276.0 L377.5,275.7 L377.3,275.5 L376.9,275.3 L376.5,274.9 L376.4,274.8 L375.8,273.5 L375.7,273.4 L375.6,273.3 L375.2,273.2 L375.1,273.1 L375.0,273.0 L375.0,273.0 L374.9,272.9 L374.7,272.7 L374.5,272.4 L374.4,272.3 L374.0,271.9 L373.9,271.8 L373.8,271.8 L373.7,271.3 L373.6,271.2 L373.5,271.1 L373.3,270.9 L373.2,270.8 L373.1,270.7 L373.1,270.6 L372.9,270.6 L372.1,270.0 L371.8,269.7 L371.5,269.5 L371.4,269.4 L371.1,269.2 L371.0,269.1 L370.9,269.0 L370.8,268.8 L370.8,268.7 L370.8,268.4 L370.9,267.9 L370.9,267.7 L371.2,267.1 L371.4,266.5 L371.4,266.2 L371.5,265.8 L371.4,265.7 L371.4,265.6 L371.4,265.5 L371.5,265.2 L371.5,264.9 L371.6,264.6 L371.9,264.1 L372.0,263.9 L372.0,263.6 L372.1,263.5 L372.1,263.2 L372.1,262.9 L372.0,262.5 L372.0,262.4 L371.5,262.0 L371.2,261.8 L371.1,261.7 L370.8,261.1 L370.5,260.9 L370.4,260.6 L370.2,260.5 L369.9,260.4 L369.7,260.3 L369.4,260.3 L369.0,260.3 L368.9,260.3 L368.7,260.2 L368.6,260.1 L368.4,259.8 L368.3,259.6 L368.0,259.1 L368.0,258.9 L367.8,258.2 L367.8,258.1 L367.7,258.0 L367.6,257.8 L367.2,257.6 L366.9,257.5 L366.5,257.3 L366.3,257.3 L366.1,257.2 L365.8,257.2 L365.7,257.1 L365.5,256.9 L365.3,256.8 L365.2,256.6 L365.2,256.5 L365.2,256.4 L365.2,256.3 L365.1,256.3 L364.9,256.3 L364.9,256.3 L364.5,256.3 L364.4,256.3 L364.3,256.3 L364.1,256.1 L364.0,256.0 L364.0,256.0 L363.9,255.8 L363.9,255.6 L363.6,255.6 L363.0,255.3 L362.0,254.7 L361.8,254.4 L361.6,254.3 L361.5,254.2 L360.9,254.1 L359.7,253.7 L359.5,253.7 L359.2,253.5 L358.4,253.1 L358.2,253.1 L357.5,253.4 L357.1,253.5 L357.0,253.5 L356.7,253.6 L356.2,253.8 L355.9,253.9 L355.8,253.9 L355.4,253.8 L355.0,253.7 L354.7,253.7 L354.2,253.7 L353.9,253.7 L353.7,253.6 L353.4,253.5 L353.3,253.5 L352.9,253.3 L352.9,253.3 L352.7,253.2 L352.3,253.1 L352.3,253.1 L352.4,252.9 L352.6,252.4 L352.8,252.1 L353.1,251.9 L353.3,251.7 L353.1,251.4 L353.1,251.3 L353.1,251.2 L353.2,250.8 L353.3,250.4 L353.6,249.8 L353.7,249.6 L353.8,249.6 L353.9,249.5 L354.4,249.2 L354.5,249.1 L354.6,249.0 L354.6,248.8 L354.6,248.7 L354.5,248.4 L354.4,248.2 L354.4,247.9 L354.4,247.6 L354.5,246.9 L354.4,246.8 L354.3,246.7 L354.0,246.4 L353.9,246.3 L353.8,246.3 L353.4,246.3 L353.3,246.3 L352.5,245.9 L352.4,245.8 L352.4,245.3 L352.2,244.9 L352.2,244.9 L352.2,244.8 L352.2,244.8 L351.9,244.3 L351.5,243.8 L351.2,243.5 L351.1,243.4 L351.0,243.4 L350.9,243.4 L350.4,243.5 L350.2,243.6 L349.4,243.7 L349.1,243.7 L348.8,243.8 L348.7,243.9 L348.6,243.9 L348.3,243.8 L347.9,243.6 L347.3,243.4 L347.1,243.3 L346.6,243.1 L346.1,242.8 L345.7,242.6 L345.4,242.3 L345.3,242.3 L345.2,242.3 L345.1,242.3 L345.1,242.2 L345.2,241.9 L345.2,241.4 L345.1,240.8 L345.0,240.6 L345.0,240.4 L345.5,239.8 L345.8,239.5 L345.9,239.5 L345.9,239.2 L346.0,239.1 L346.4,238.7 L348.2,236.8 L348.3,236.7 L348.4,236.7 L348.5,236.6 L349.1,236.5 L349.7,236.4 L350.8,236.2 L351.0,236.2 L351.1,236.1 L351.2,236.0 L351.5,235.5 L351.5,235.4 L352.3,234.7 L353.2,233.8 L353.3,233.8 L353.4,233.7 L353.5,233.7 L353.9,233.8 L354.4,233.8 L354.6,233.8 L355.1,233.7 L355.7,233.6 L356.3,233.6 L356.4,233.6 L356.7,233.4 L356.8,233.3 L356.9,233.3 L357.0,233.4 L357.3,233.5 L358.3,233.8 L358.5,233.8 L358.7,234.0 L358.9,234.1 L359.3,234.1 L359.6,234.2 L359.7,234.1 L360.2,234.0 L360.5,233.9 L361.2,233.6 L361.4,233.5 L361.7,233.5 L362.9,233.2 L363.6,232.9 L363.9,232.9 L364.7,232.7 L364.8,232.7 L364.9,232.6 L364.9,232.5 L364.9,232.3 L364.7,231.5 L364.6,231.4 L364.7,231.3 L364.7,231.2 L365.4,230.6 L365.4,230.4 L365.5,230.1 L365.6,230.0 L365.6,229.9 L366.0,229.6 L366.3,229.4 L366.4,229.3 L366.8,229.2 L366.8,229.0 L366.8,228.8 L366.8,228.7 L366.9,228.6 L367.0,228.3 L367.1,228.1 L367.1,228.1 L367.1,227.9 L367.0,227.6 L367.0,227.3 L367.0,227.1 L367.1,226.9 L367.2,226.6 L367.5,226.0 L367.6,225.9 L367.7,225.9 L367.9,225.7 L368.0,225.6 L368.0,225.6 L368.3,225.3 L368.4,225.2 L368.4,225.2 L368.7,225.2 L368.7,224.9 L368.8,224.6 L368.8,224.3 L368.9,224.1 L369.0,223.9 L369.0,223.9 L369.0,223.7 L369.1,223.1 L369.1,223.0 L369.1,222.7 L369.2,222.4 L369.2,222.2 L369.2,221.9 L369.2,221.7 L369.3,221.2 L369.3,220.9 L369.4,220.3 L369.6,220.1 L369.7,220.0 L369.8,219.9 L370.1,219.9 L370.2,219.9 L370.1,219.7 L370.2,218.3 L370.2,217.8 L370.2,217.2 L370.1,216.2 L370.1,216.0 L370.1,215.9 L369.9,215.1 L369.9,214.9 L369.9,214.7 L369.9,214.4 L369.8,214.3 L369.8,214.3 L369.7,214.0 L369.6,213.8 L369.6,213.7 L369.6,213.5 L369.6,213.3 L369.5,213.3 L369.5,213.4 L369.4,213.4 L369.3,213.7 L369.3,213.7 L369.2,213.7 L369.0,213.7 L369.0,213.7 L368.7,213.8 L366.9,211.2 L365.9,209.8 L365.8,209.5 L365.5,209.0 L365.1,208.3 L364.7,207.1 L364.4,206.2 L364.4,206.0 L364.2,205.5 L363.5,203.1 L363.4,202.7 L361.6,196.9 L360.3,192.5 L359.9,191.0 L359.9,190.9 L359.9,190.8 L359.6,189.9 L359.4,189.5 L359.2,188.6 L359.1,188.5 L359.0,188.2 L358.8,187.5 L358.7,187.0 L358.5,186.6 L358.3,186.1 L358.1,185.9 L357.8,185.5 L357.8,185.4 L357.8,185.3 L358.0,185.3 L358.1,185.3 L358.2,185.2 L358.4,185.1 L358.5,184.9 L358.5,184.9 L358.5,184.8 L358.5,184.8 L358.5,184.7 L358.5,184.5 L358.5,184.4 L358.5,184.2 L358.5,184.1 L358.6,184.0 L358.6,183.7 L358.6,183.7 L358.6,183.6 L358.6,183.3 L358.6,183.2 L358.6,183.1 L358.6,183.0 L358.5,183.0 L358.3,183.1 L358.1,183.1 L358.2,183.1 L358.1,182.9 L358.1,182.9 L358.1,182.7 L358.1,182.6 L358.1,182.4 L358.0,182.2 L358.0,182.2 L357.9,182.2 L357.9,182.3 L357.7,182.3 L357.5,182.5 L357.3,182.7 L357.1,182.2 L357.0,182.0 L357.0,182.0 L356.9,181.9 L356.9,181.9 L356.9,181.8 L356.6,181.1 L356.6,181.0 L356.3,180.5 L356.1,180.3 L356.1,180.2 L356.1,180.2 L355.9,180.1 L355.7,179.8 L355.6,179.7 L355.6,179.1 L355.6,178.9 L355.6,178.6 L355.6,178.5 L355.4,178.5 L355.3,178.5 L355.2,178.6 L355.2,178.4 L355.0,177.7 L354.4,176.2 L354.4,176.1 L354.2,176.0 L354.2,175.9 L354.2,175.8 L354.2,175.6 L353.1,172.7 L353.1,172.7 L352.1,170.2 L351.6,168.9 L351.5,168.7 L351.3,168.5 L351.1,168.4 L351.1,168.3 L351.0,168.2 L351.0,168.2 L351.2,168.0 L351.2,167.9 L350.4,166.0 L350.4,165.9 L350.2,165.7 L350.1,165.5 L349.8,165.7 L348.9,165.2 L348.5,163.9 L348.4,163.5 L348.3,163.3 L346.9,161.8 L347.8,159.3 L347.9,159.1 L347.9,159.0 L347.8,158.9 L347.7,158.7 L347.7,158.5 L347.7,158.5 L347.8,158.2 L347.7,158.1 L347.4,158.0 L346.9,157.8 L346.5,157.6 L346.2,157.4 L345.8,157.2 L345.6,157.2 L345.5,157.2 L345.3,156.9 L345.2,156.6 L345.1,156.4 L345.1,156.0 L345.1,155.8 L345.1,155.3 L345.1,154.9 L345.2,154.7 L345.2,154.4 L344.7,154.4 L344.7,154.4 L344.7,154.3 L344.6,154.3 L344.6,154.3 L344.5,154.4 L344.4,154.4 L344.0,154.5 L343.8,154.5 L343.1,154.6 L342.9,154.7 L342.3,154.8 L341.6,155.0 L340.3,155.4 L340.3,155.5 L340.0,155.6 L339.7,155.8 L339.2,156.0 L339.0,156.2 L338.4,156.6 L338.3,156.7 L338.1,156.8 L338.0,156.9 L337.9,157.0 L337.3,157.4 L336.8,157.8 L336.2,158.1 L335.7,158.4 L334.8,159.0 L334.5,159.2 L334.2,159.4 L333.8,159.7 L333.5,160.1 L332.7,160.8 L332.2,161.5 L331.4,162.4 L331.2,162.7 L331.0,163.0 L330.2,164.1 L329.6,164.9 L329.0,165.4 L328.9,165.5 L328.7,165.7 L328.6,165.8 L328.5,165.7 L328.4,165.8 L328.3,165.8 L328.1,165.8 L327.9,165.7 L327.7,165.7 L327.3,165.6 L327.0,165.6 L326.9,165.6 L326.9,165.6 L326.2,165.8 L326.2,165.9 L326.2,165.9 L326.3,166.0 L326.1,166.1 L326.0,166.1 L325.8,166.1 L324.9,166.1 L324.6,166.1 L323.8,166.2 L323.3,166.3 L323.3,166.2 L323.2,166.2 L322.8,166.1 L322.5,166.1 L322.2,166.2 L321.9,166.4 L321.5,166.6 L321.0,166.7 L320.5,166.8 L320.4,166.8 L320.2,166.9 L320.1,167.0 L319.8,167.3 L318.9,167.7 L318.6,167.9 L317.2,168.2 L316.4,168.5 L316.2,168.6 L316.1,168.6 L316.0,168.6 L315.8,168.5 L315.5,168.4 L314.9,168.1 L314.7,168.1 L314.7,168.0 L314.6,167.9 L314.4,167.9 L314.3,167.8 L314.3,167.7 L314.2,167.4 L314.1,167.2 L314.0,166.8 L313.9,166.4 L313.6,166.1 L313.5,165.8 L313.2,165.1 L313.1,164.7 L313.1,163.8 L313.1,163.4 L313.0,163.1 L312.9,162.7 L312.7,162.3 L312.6,162.1 L312.5,162.0 L311.2,161.4 L310.6,161.0 L310.4,160.7 L310.3,160.6 L310.2,160.2 L310.2,159.9 L310.2,159.8 L310.2,159.4 L310.1,158.5 L309.9,157.8 L309.8,157.5 L309.6,157.2 L309.4,157.0 L309.2,156.9 L309.0,156.7 L308.6,156.1 L308.3,155.6 L308.2,155.5 L308.2,155.3 L308.2,154.7 L308.2,153.9 L308.2,153.8 L307.9,152.9 L307.7,152.5 L307.5,152.1 L307.4,151.7 L307.2,151.4 L307.0,150.9 L306.8,150.7 L306.8,150.4 L307.1,150.2 L307.2,150.2 L307.3,150.1 L307.3,150.0 L307.1,149.6 L307.1,149.4 L307.1,149.2 L307.1,149.0 L307.0,148.8 L306.9,148.5 L306.8,147.7 L306.8,147.4 L306.8,146.8 L306.8,146.2 L306.8,145.8 L306.8,145.7 L306.9,145.4 L307.2,144.9 L307.2,144.7 L307.3,144.5 L307.3,143.9 L307.4,143.6 L307.4,143.1 L307.6,142.7 L307.9,142.2 L308.6,141.2 L308.7,141.0 L308.9,140.9 L309.6,140.4 L310.1,140.0 L310.8,139.2 L311.0,139.1 L311.2,138.7 L311.3,138.5 L311.6,138.1 L311.9,137.7 L311.9,137.6 L311.9,137.6 L312.1,137.4 L312.3,137.3 L312.5,137.2 L312.5,137.2 L313.1,137.1 L313.4,137.0 L313.6,136.9 L313.8,136.8 L314.0,136.6 L314.1,136.4 L314.1,136.1 L314.1,136.0 L314.0,136.1 L313.7,136.2 L313.7,136.2 L313.6,136.2 L313.5,136.2 L313.4,136.1 L313.3,136.0 L312.7,135.4 L312.4,135.2 L312.3,135.1 L312.0,134.7 L311.8,134.5 L311.5,134.1 L311.3,133.8 L311.2,133.8 L310.8,133.4 L310.3,133.2 L309.8,133.1 L309.2,133.0 L309.0,133.0 L308.3,132.7 L307.7,132.5 L306.9,132.2 L306.3,132.1 L306.0,132.0 L305.5,131.8 L305.0,131.4 L304.4,131.2 L303.6,131.1 L303.3,131.0 L303.1,131.0 L302.2,130.3 L301.7,129.9 L301.4,129.6 L301.0,129.1 L301.0,129.1 L300.8,128.8 L300.3,128.2 L300.1,128.0 L299.7,127.7 L299.4,127.4 L298.8,127.1 L298.3,126.8 L298.0,126.7 L297.6,126.7 L297.3,126.7 L296.7,126.7 L296.4,126.7 L296.2,126.6 L295.8,126.4 L295.4,126.2 L294.1,125.4 L293.8,125.1 L293.1,124.2 L292.9,124.0 L292.7,123.8 L292.3,123.2 L292.2,123.1 L292.0,122.9 L291.6,122.6 L291.3,122.2 L291.1,121.9 L290.9,121.6 L290.7,121.4 L290.5,121.3 L290.2,121.0 L290.0,120.8 L289.9,120.6 L289.7,120.1 L289.6,119.8 L289.4,119.4 L289.1,118.9 L289.1,118.8 L289.0,118.8 L288.9,118.5 L288.8,118.1 L288.7,118.0 L288.7,118.0 L288.8,117.7 L288.7,117.6 L288.6,117.6 L288.6,117.6 L288.6,117.3 L288.6,117.3 L288.5,116.9 L288.4,116.6 L288.3,116.3 L288.3,116.2 L288.3,116.1 L288.4,116.0 L288.2,115.9 L288.1,115.9 L288.1,115.8 L288.0,115.8 L287.7,115.6 L287.6,115.5 L287.5,115.5 L287.5,115.5 L287.4,115.5 L287.1,115.6 L287.0,115.7 L286.8,115.8 L286.7,115.9 L286.4,116.0 L286.4,116.1 L286.1,116.2 L286.0,116.2 L285.8,116.2 L285.5,116.3 L285.4,115.9 L285.2,115.6 L285.2,115.5 L285.1,115.5 L285.0,115.5 L284.9,115.5 L284.9,115.5 L284.7,115.0 L284.5,114.6 L284.4,114.5 L284.4,114.4 L284.4,114.1 L284.5,113.8 L284.6,113.6 L284.5,113.4 L284.4,113.2 L284.3,112.9 L284.1,112.5 L284.1,112.6 L284.0,112.6 L283.9,112.6 L283.9,112.6 L283.8,112.5 L283.8,112.5 L283.7,112.5 L283.3,112.6 L283.2,112.6 L283.1,112.6 L283.0,112.7 L283.0,112.7 L282.9,112.8 L282.8,112.8 L282.6,112.8 L282.6,113.0 L282.6,113.0 L282.6,113.0 L282.4,113.1 L282.4,113.1 L282.3,113.1 L281.6,113.3 L281.0,113.6 L280.5,113.8 L280.1,114.1 L279.4,114.5 L278.9,114.8 L278.1,115.4 L278.0,115.4 L277.2,115.9 L277.0,116.1 L276.5,116.5 L276.2,116.7 L275.8,116.8 L274.1,117.8 L274.1,117.8 L274.0,117.9 L274.0,117.9 L273.9,117.9 L273.8,118.0 L273.8,118.1 L272.8,118.7 L272.0,119.2 L271.9,119.4 L271.9,119.5 L272.2,120.0 L272.2,120.2 L272.2,120.2 L271.8,120.3 L271.6,120.4 L271.2,120.7 L271.0,120.8 L270.9,120.8 L270.6,120.9 L270.4,121.0 L269.9,121.3 L269.2,121.6 L268.9,121.7 L268.5,121.7 L268.5,121.8 L269.0,122.7 L268.5,123.0 L268.3,123.1 L267.2,123.9 L267.0,124.0 L266.6,124.2 L266.5,124.2 L264.8,124.7 L263.7,125.0 L263.4,125.1 L263.4,125.1 L263.0,125.3 L262.6,125.5 L262.3,125.7 L261.8,126.1 L261.6,126.0 L261.3,125.8 L260.6,125.3 L260.2,125.1 L260.0,124.9 L259.8,124.8 L259.7,124.7 L259.6,124.4 L259.6,124.4 L258.2,124.1 L258.3,123.3 L258.5,122.2 L258.6,121.6 L258.6,121.2 L258.4,119.8 L253.5,120.1 L253.1,120.1 L252.7,120.1 L251.9,120.1 L251.4,120.1 L251.0,120.1 L250.9,120.2 L250.6,120.1 L250.4,119.9 L250.3,119.8 L249.9,119.6 L249.7,119.5 L249.6,119.5 L249.3,119.5 L249.1,119.6 L249.0,119.5 L248.9,119.6 L248.8,119.8 L248.8,119.9 L248.7,120.0 L248.4,120.3 L248.1,120.5 L247.9,120.6 L247.1,120.8 L246.8,120.8 L246.3,120.9 L246.0,121.0 L245.5,121.0 L245.2,121.0 L244.9,120.9 L244.5,120.9 L244.5,120.9 L244.2,120.9 L243.9,121.0 L243.7,121.1 L243.5,121.0 L243.3,120.8 L243.1,120.8 L242.9,120.7 L242.6,120.7 L241.8,121.1 L241.6,121.0 L240.6,120.6 L240.5,120.5 L240.4,120.6 L240.3,120.7 L240.2,121.0 L240.1,121.1 L239.6,121.5 L239.4,121.5 L238.3,121.9 L237.9,122.0 L237.8,122.1 L237.8,122.2 L237.4,122.7 L237.4,122.6 L237.3,122.3 L237.3,121.8 L237.1,121.3 L237.0,121.0 L236.9,120.8 L236.8,120.7 L235.5,120.2 L235.3,120.2 L235.1,120.2 L234.9,120.3 L234.6,120.5 L234.5,120.5 L234.4,120.5 L234.3,120.5 L234.2,120.4 L234.0,120.3 L233.7,119.9 L233.5,119.7 L233.4,119.6 L233.0,119.1 L232.7,118.6 L232.6,118.2 L232.6,118.1 L232.6,117.8 L232.6,117.6 L232.6,117.4 L232.4,117.1 L231.8,115.1 L231.8,115.0 L231.8,115.0 L231.7,115.0 L230.9,114.5 L230.1,114.1 L229.2,113.4 L229.2,113.3 L227.6,112.7 L226.1,112.2 L226.1,112.2 L224.7,111.5 L224.6,111.6 L224.0,111.9 L223.9,111.9 L223.7,111.9 L223.3,112.1 L223.2,112.2 L222.9,112.3 L221.9,112.5 L221.3,112.6 L220.6,112.7 L220.3,112.7 L219.9,112.6 L219.7,112.6 L219.6,112.7 L219.4,112.7 L219.2,112.7 L219.1,112.7 L218.8,112.5 L218.7,112.5 L218.6,112.2 L218.5,111.9 L218.1,111.5 L217.6,111.1 L217.3,111.0 L217.2,110.9 L216.6,110.8 L216.2,110.6 L215.6,110.3 L215.4,110.2 L214.8,110.0 L214.6,110.0 L213.9,109.9 L213.7,109.9 L213.5,109.9 L213.3,109.7 L213.1,109.5 L212.9,109.4 L212.6,109.3 L212.5,109.3 L212.5,109.3 L212.2,109.2 L212.0,109.2 L211.8,109.2 L211.7,109.2 L211.3,109.2 L211.2,109.1 L211.0,109.1 L211.0,109.1 L210.9,109.0 L210.8,108.9 L210.6,108.5 L210.4,108.3 L210.1,108.0 L210.0,107.9 L209.9,107.9 L209.9,107.8 L209.7,107.6 L209.7,107.5 L209.4,107.6 L209.3,107.6 L209.2,107.6 L209.1,107.7 L209.0,107.7 L208.9,107.7 L208.8,107.7 L208.8,107.8 L208.8,107.8 L208.7,107.8 L208.5,107.8 L208.4,107.8 L208.0,107.7 L207.9,107.7 L207.7,107.7 L207.5,107.8 L207.4,107.9 L207.4,108.0 L207.4,108.1 L207.4,108.2 L207.4,108.3 L207.0,108.3 L206.9,108.4 L206.5,108.5 L206.3,108.6 L206.2,108.7 L206.1,108.7 L205.9,108.6 L205.6,108.6 L205.4,108.6 L204.8,108.7 L204.5,108.7 L204.1,108.6 L204.1,108.6 L203.5,108.5 L203.0,108.4 L202.9,108.3 L202.6,108.2 L202.4,108.1 L202.0,108.0 L201.4,107.8 L201.3,107.7 L201.0,107.7 L200.7,107.6 L200.6,107.6 L200.3,107.6 L199.3,107.5 L199.1,107.4 L198.9,107.4 L198.7,107.5 L198.5,107.6 L198.1,107.6 L197.8,107.6 L197.6,107.6 L197.3,107.5 L197.1,107.4 L196.9,107.3 L196.7,107.0 L196.7,107.0 L196.6,107.0 L196.4,107.1 L196.4,107.1 L196.3,107.2 L196.3,107.3 L196.2,107.4 L196.0,107.6 L195.6,108.1 L195.6,108.1 L195.3,108.4 L195.0,108.7 L194.5,109.0 L194.1,109.2 L193.9,109.4 L193.6,109.6 L193.4,109.8 L193.1,110.1 L192.9,110.3 L192.7,110.7 L192.2,111.4 L192.3,111.5 L192.1,111.6 L191.7,112.1 L190.2,113.5 L189.2,114.4 L188.8,114.7 L187.5,115.9 L186.5,116.8 L185.1,117.9 L184.0,118.8 L182.7,119.8 L181.7,120.7 L180.4,122.0 L180.3,122.0 L180.0,122.3 L179.4,122.8 L179.3,122.7 L179.2,122.6 L179.2,122.6 L179.2,122.5 L179.2,122.3 L179.1,121.9 L179.0,121.8 L179.0,121.8 L179.0,121.7 L178.8,121.4 L178.7,121.1 L178.7,120.9 L178.9,120.1 L179.2,119.3 L179.4,117.8 L179.4,117.6 L179.3,117.3 L178.9,116.8 L178.5,116.2 L178.3,115.9 L178.2,115.7 L178.1,115.3 L178.1,115.1 L178.2,114.7 L178.2,114.5 L178.3,114.2 L178.2,113.8 L178.1,113.5 L178.0,113.1 L177.8,112.8 L177.6,112.4 L177.6,112.2 L177.5,111.9 L177.4,111.3 L177.4,111.1 L176.6,109.3 L176.2,108.7 L176.1,108.3 L176.0,108.0 L175.9,107.8 L176.0,107.7 L176.0,107.3 L175.9,106.9 L175.9,106.8 L176.1,106.3 L176.0,106.2 L175.9,106.2 L175.6,106.1 L175.5,106.1 L175.5,106.0 L175.3,105.0 L174.7,104.9 L174.6,104.9 L174.4,104.9 L174.1,104.9 L173.9,104.9 L173.8,104.9 L173.3,105.0 L173.2,105.0 L172.8,105.2 L172.6,105.2 L172.5,105.3 L172.3,105.6 L172.2,105.7 L172.2,105.7 L172.1,105.8 L171.6,106.0 L171.5,106.1 L171.4,106.2 L171.3,106.4 L171.2,106.5 L170.8,106.3 L170.6,106.1 L170.3,105.8 L170.1,105.6 L169.9,105.5 L169.5,105.3 L169.0,105.1 L168.7,104.9 L168.5,104.8 L168.2,104.7 L167.9,104.6 L167.6,104.4 L167.8,104.1 L167.8,104.0 L167.9,103.9 L167.8,103.6 L167.8,103.3 L167.9,103.2 L167.8,103.2 L167.4,103.0 L167.1,102.9 L167.0,102.9 L166.9,102.8 L166.6,102.5 L166.2,102.4 L166.0,102.4 L165.8,102.2 L165.7,102.0 L165.5,101.6 L165.2,101.1 L165.1,100.9 L165.0,100.8 L164.9,100.8 L164.7,100.7 L164.1,100.4 L163.8,100.2 L163.5,100.1 L163.4,100.0 L163.0,99.8 L162.8,99.8 L162.2,99.6 L161.9,99.5 L161.6,99.5 L161.4,99.6 L161.4,99.5 L161.1,99.3 L160.5,99.1 L159.8,98.7 L159.5,98.6 L159.1,98.4 L158.9,98.4 L158.8,98.3 L158.8,98.2 L158.8,98.1 L158.8,98.1 L158.7,98.2 L158.6,98.5 L158.3,98.4 L158.3,98.2 L157.7,97.8 L157.3,97.6 L156.9,97.2 L156.4,96.7 L156.1,96.4 L155.3,95.4 L154.9,94.9 L154.3,94.5 L154.1,94.3 L153.5,93.8 L152.8,93.5 L152.0,93.0 L151.3,92.6 L150.9,92.4 L150.8,92.3 L150.5,92.2 L150.4,92.2 L150.4,92.0 L150.4,91.9 L149.9,91.5 L148.9,90.4 L148.5,90.1 L147.9,89.7 L146.7,89.1 L146.6,89.0 L146.5,89.0 L146.4,89.0 L146.4,88.9 L145.9,88.6 L145.7,88.4 L145.0,87.6 L145.1,87.6 L145.1,87.5 L145.1,87.5 L144.9,87.2 L144.8,87.1 L144.8,87.0 L144.8,87.0 L144.8,86.9 L144.8,86.8 L144.6,86.7 L144.6,86.7 L144.4,86.4 L144.2,86.2 L144.2,86.1 L144.1,86.0 L144.0,85.8 L143.9,85.7 L144.0,85.4 L144.1,85.0 L144.6,85.0 L144.6,84.7 L144.7,84.1 L145.0,82.8 L145.2,81.5 L145.3,81.0 L145.5,80.8 L145.4,80.8 L145.3,80.7 L144.9,80.7 L144.8,80.6 L144.8,80.6 L144.7,80.6 L144.7,80.6 L144.7,80.6 L144.6,80.6 L144.6,80.5 L144.6,80.2 L144.6,80.1 L144.5,80.0 L143.9,79.6 L143.4,79.2 L143.4,79.2 L143.2,79.2 L143.0,79.2 L142.6,79.2 L142.5,79.2 L142.5,79.1 L142.4,79.2 L142.4,79.2 L142.1,79.2 L142.0,79.3 L141.8,79.4 L141.7,79.5 L141.5,79.6 L141.4,79.9 L141.4,79.9 L141.4,79.9 L141.3,80.0 L141.3,80.1 L141.2,80.2 L141.0,80.4 L140.8,80.5 L140.7,80.7 L140.6,81.0 L140.5,81.0 L140.5,81.1 L140.2,81.6 L140.1,81.7 L140.1,81.8 L140.0,82.1 L140.0,82.2 L140.0,82.3 L139.8,82.7 L139.7,83.0 L139.7,83.1 L139.7,83.2 L139.8,83.2 L140.0,83.4 L140.2,83.6 L140.3,83.7 L140.2,84.0 L139.8,84.7 L139.6,85.2 L139.5,85.3 L139.3,85.7 L139.3,85.9 L139.2,86.3 L139.2,86.4 L139.1,86.5 L139.0,86.8 L138.9,86.9 L138.9,87.0 L138.9,87.1 L138.8,87.1 L138.8,87.1 L138.7,87.1 L138.7,87.1 L138.7,87.1 L138.6,87.1 L138.7,87.2 L138.7,87.3 L138.6,87.4 L138.1,88.6 L138.1,88.7 L137.7,89.3 L137.3,89.9 L137.0,90.3 L136.9,90.6 L136.7,90.9 L136.4,91.3 L136.2,91.6 L136.0,91.9 L135.9,92.3 L135.8,92.4 L135.7,92.9 L135.5,93.3 L135.2,93.6 L135.0,93.9 L134.8,94.1 L134.6,94.3 L134.5,94.7 L134.3,95.3 L134.3,95.5 L134.2,95.6 L134.1,95.7 L134.0,95.8 L133.9,96.0 L133.8,96.1 L133.2,96.4 L133.0,96.5 L132.8,96.6 L132.7,96.8 L132.4,97.1 L132.1,97.4 L131.7,97.7 L131.2,98.0 L130.7,98.2 L130.2,98.4 L129.4,98.6 L129.1,98.7 L128.8,98.8 L128.6,98.8 L128.0,98.8 L127.7,98.8 L127.5,98.9 L127.2,99.0 L127.0,99.0 L126.8,99.2 L126.7,99.3 L126.4,99.6 L126.3,99.7 L126.2,99.8 L126.1,99.8 L125.8,99.8 L125.7,99.9 L125.6,99.9 L125.3,100.1 L125.2,100.2 L124.4,100.4 L124.1,100.5 L124.1,100.5 L123.9,100.5 L123.9,100.5 L123.8,100.5 L123.8,100.5 L123.7,100.6 L123.7,100.7 L123.7,100.7 L123.4,101.2 L123.2,101.3 L122.9,101.5 L122.7,101.6 L122.4,101.7 L121.7,101.8 L121.5,101.9 L121.4,101.9 L120.9,102.1 L120.2,102.4 L120.0,102.5 L119.9,102.5 L119.8,102.5 L119.6,102.6 L119.1,102.6 L119.0,102.6 L118.8,102.7 L118.8,102.7 L118.6,102.9 L118.3,103.5 L118.2,103.5 L118.2,103.5 L117.7,103.3 L117.3,103.1 L117.0,103.0 L116.6,103.0 L116.2,102.9 L116.0,102.8 L115.8,102.7 L115.6,102.5 L115.6,102.4 L115.5,102.3 L115.1,102.0 L114.9,102.0 L114.9,101.9 L114.8,101.8 L114.6,101.8 L113.9,101.4 L113.5,101.2 L112.9,100.9 L112.6,100.6 L112.0,100.2 L111.4,99.9 L110.9,99.6 L110.5,99.5 L109.8,99.3 L109.5,99.2 L108.9,99.1 L108.5,99.1 L106.9,99.0 L106.6,98.9 L106.0,98.8 L105.6,98.6 L104.8,98.2 L104.5,98.1 L104.2,98.0 L103.8,98.0 L103.6,98.0 L103.4,98.1 L103.2,98.2 L103.1,98.2 L103.0,98.3 L102.1,98.8 L101.6,99.2 L101.0,99.7 L100.7,99.9 L100.6,99.9 L100.5,99.9 L100.4,99.9 L100.3,100.0 L97.9,99.8 L96.8,99.7 L96.3,99.7 L95.7,99.6 L95.3,99.5 L95.1,99.5 L94.6,99.4 L94.0,99.3 L93.4,99.2 L92.8,98.9 L92.6,98.8 L92.3,98.7 L92.3,98.8 L92.2,99.1 L92.2,99.1 L92.1,99.2 L91.8,99.0 L91.7,99.0 L91.2,98.6 L91.0,98.6 L90.6,98.3 L90.5,98.3 L90.3,98.1 L90.1,98.1 L89.7,97.9 L89.3,97.6 L89.1,97.5 L88.8,97.3 L88.4,97.1 L88.3,97.1 L87.5,96.6 L86.9,96.3 L86.8,96.2 L86.7,96.2 L86.6,96.1 L86.6,96.1 L86.5,96.0 L86.1,95.8 L86.1,95.8 L85.9,96.0 L85.9,96.1 L86.1,96.4 L86.0,96.4 L85.9,96.5 L85.6,96.7 L85.4,96.7 L85.1,96.7 L84.9,96.6 L84.6,96.6 L84.3,96.6 L84.3,96.6 L83.9,96.6 L83.8,96.6 L83.4,96.5 L83.3,96.5 L83.1,96.5 L83.0,96.5 L82.7,96.6 L82.5,96.7 L81.9,96.7 L81.8,96.7 L81.5,96.8 L81.0,96.9 L80.2,97.2 L79.6,97.5 L79.6,97.5 L79.3,97.7 L78.8,97.7 L78.4,97.7 L78.1,97.5 L77.7,97.3 L77.4,97.2 L77.2,97.2 L77.0,97.2 L76.8,97.2 L76.8,97.2 L76.3,97.0 L75.5,96.5 L74.9,96.2 L74.7,96.2 L74.3,96.1 L73.7,96.0 L73.5,96.0 L72.0,95.6 L71.5,95.4 L71.4,95.3 L71.4,95.5 L71.4,95.8 L71.4,96.3 L71.4,96.6 L71.3,96.8 L71.3,97.1 L71.2,97.2 L70.8,97.5 L70.4,97.9 L70.0,98.2 L69.8,98.6 L69.8,98.7 L69.6,98.8 L69.6,99.2 L69.6,99.5 L69.5,99.6 L69.5,99.7 L69.5,99.8 L69.4,99.8 L68.9,100.3 L68.5,100.7 L67.9,101.6 L67.2,102.5 L66.8,103.0 L66.5,103.6 L66.3,103.7 L66.1,103.9 L65.6,104.1 L65.3,104.2 L64.9,104.6 L63.4,105.5 L63.3,105.5 L63.3,105.5 L63.1,105.6 L62.3,105.6 L62.1,105.7 L61.3,105.9 L61.1,106.0 L60.7,106.0 L60.6,106.1 L60.4,106.2 L60.2,106.4 L60.0,106.6 L60.0,106.7 L59.6,106.8 L59.4,106.8 L59.3,106.2 L59.2,106.0 L59.1,105.8 L58.9,105.6 L58.6,105.8 L58.3,105.9 L58.1,105.9 L57.2,105.7 L57.0,105.7 L56.1,105.8 L55.5,105.9 L55.3,105.9 L54.9,105.8 L54.9,105.8 L54.8,105.8 L54.5,105.9 L54.3,105.8 L54.0,105.3 L53.7,105.1 L53.7,104.9 L53.6,104.6 L53.5,104.5 L53.4,104.4 L53.2,104.3 L52.4,104.0 L52.1,104.0 L51.9,103.8 L51.6,103.8 L51.5,103.9 L51.3,104.0 L51.1,104.0 L50.5,103.9 L50.2,103.9 L49.4,104.1 L48.7,104.1 L48.3,104.2 L48.1,104.2 L47.4,104.2 L45.8,103.8 L45.6,103.8 L44.8,103.5 L43.4,103.1 L42.6,103.0 L42.1,102.8 L41.5,102.4 L41.4,102.5 L40.8,102.7 L40.3,102.9 L39.9,102.8 L38.8,102.5 L38.6,102.5 L38.5,102.5 L38.5,102.6 L38.5,102.9 L38.3,104.8 L38.3,105.4 L38.6,106.1 L38.7,106.4 L38.6,106.7 L38.6,106.9 L38.5,107.1 L38.3,107.5 L38.2,107.9 L38.0,108.9 L38.0,109.2 L37.9,109.4 L37.9,109.5 L37.6,110.0 L37.4,110.2 L36.6,110.4 L36.3,110.5 L36.3,110.5 L35.3,111.2 L34.8,111.6 L34.7,111.8 L34.6,111.9 L34.7,112.2 L34.9,113.1 L34.9,113.2 L34.9,113.3 L34.4,113.4 L33.8,113.8 L33.1,114.1 L32.9,114.2 L32.8,114.4 L32.6,114.5 L32.3,114.7 L32.1,114.9 L32.0,115.0 L31.6,115.8 L31.5,116.1 L31.4,116.2 L31.0,116.5 L31.0,116.6 L30.5,116.8 L30.2,117.0 L29.1,117.5 L29.1,117.5 L28.1,117.9 L27.9,118.0 L27.8,118.1 L27.5,118.2 L27.3,118.2 L27.0,118.2 L26.6,118.1 L26.4,118.1 L26.2,117.7 L26.0,117.5 L26.0,117.4 L25.8,117.3 L25.7,117.2 L25.7,117.2 L25.6,117.1 L25.3,117.0 L25.3,117.0 L25.3,117.1 L25.1,117.1 L24.5,117.0 L24.2,117.0 L24.0,116.9 L23.6,116.7 L23.4,116.7 L22.8,116.6 L22.5,116.6 L22.2,116.6 L22.2,116.6 L21.5,116.7 L21.1,116.8 L20.9,116.9 L20.6,117.0 L20.3,117.2 L20.0,117.5 L19.9,117.5 L19.5,118.0 L18.6,118.8 L18.2,119.2 L17.8,119.6 L17.5,120.1 L16.9,120.9 L16.7,121.1 L16.5,121.4 L15.6,122.1 L15.3,122.4 L15.2,122.6 L15.0,122.9 L15.0,122.9 L15.0,123.0 L15.0,123.1 L15.0,123.2 L15.2,123.3 L15.3,123.3 L15.9,123.8 L16.4,124.2 L17.9,125.4 L18.8,126.2 L19.0,126.4 L18.8,126.8 L18.8,127.0 L18.6,128.1 L18.5,128.6 L18.3,129.4 L18.2,129.5 L17.3,129.9 L17.3,129.9 L17.3,130.0 L17.8,130.8 L18.5,132.3 L18.8,133.1 L19.0,133.5 L19.2,134.2 L19.6,135.9 L19.6,136.3 L19.7,136.7 L19.9,136.8 L20.0,136.9 L20.1,137.1 L20.2,137.9 L20.2,138.3 L20.1,138.8 L20.2,139.0 L20.4,139.6 L21.0,141.4 L21.3,142.2 L21.4,142.7 L21.5,143.4 L21.5,143.5 L21.5,143.6 L21.4,144.2 L21.3,144.4 L21.4,144.5 L21.4,144.7 L21.5,144.9 L21.8,145.3 L21.8,145.3 L22.1,145.8 L22.4,146.4 L22.4,146.5 L22.5,146.9 L22.6,147.3 L22.6,147.5 L22.8,147.7 L22.9,147.7 L22.9,147.8 L23.2,148.0 L23.3,148.1 L23.3,148.1 L23.6,148.3 L23.6,148.5 L23.7,148.6 L23.7,148.9 L23.7,149.0 L23.7,149.1 L23.7,149.2 L23.8,149.3 L23.8,149.3 L23.8,149.4 L23.9,149.5 L23.8,149.5 L23.6,150.3 L23.5,150.9 L23.5,151.0 L23.4,151.3 L23.4,151.5 L23.3,151.9 L23.2,152.2 L23.2,152.3 L23.1,152.3 L23.0,152.3 L23.0,152.4 L23.0,152.4 L23.0,152.5 L23.1,152.6 L23.1,152.6 L23.2,152.6 L23.3,152.5 L23.3,152.5 L23.4,152.5 L23.8,152.6 L24.1,152.7 L24.1,152.7 L24.2,152.8 L24.3,152.9 L24.3,153.0 L24.3,153.1 L24.3,153.2 L24.4,153.3 L24.5,153.3 L25.4,153.6 L25.7,153.7 L25.8,153.7 L26.7,153.5 L27.0,153.5 L27.4,153.5 L27.5,153.5 L27.7,153.4 L28.2,153.3 L28.3,153.3 L28.4,153.2 L29.4,152.7 L29.6,152.6 L29.8,152.4 L30.1,152.1 L30.4,152.0 L30.6,151.9 L30.9,151.6 L31.1,151.5 L31.6,151.3 L31.8,151.1 L31.9,151.2 L32.0,151.1 L32.4,151.6 L32.7,151.8 L32.9,152.2 L33.3,153.3 L33.3,153.5 L33.5,153.9 L33.5,154.0 L33.6,154.2 L33.6,154.3 L33.6,154.4 L33.7,154.8 L33.8,154.9 L34.0,155.4 L34.1,155.4 L34.3,155.7 L34.6,156.2 L34.7,156.5 L35.0,157.3 L35.1,157.3 L35.2,157.3 L35.3,157.4 L35.4,157.4 L35.4,157.5 L35.5,157.8 L35.5,157.9 L35.6,158.1 L35.7,158.3 L35.8,158.5 L36.0,158.7 L36.3,158.9 L36.7,159.1 L37.3,159.3 L37.6,159.3 L37.9,159.3 L38.3,159.4 L38.7,159.4 L39.3,159.6 L39.3,159.6 L39.8,159.9 L40.5,160.5 L40.7,160.6 L40.9,161.0 L41.0,161.1 L41.3,161.5 L41.4,161.6 L41.6,162.0 L41.7,162.2 L42.0,162.4 L42.3,162.7 L42.6,162.9 L42.9,163.2 L43.2,163.3 L43.4,163.4 L43.7,163.6 L43.8,163.7 L44.0,163.9 L44.3,164.1 L44.9,164.9 L45.0,165.0 L45.3,165.2 L45.6,165.4 L47.2,166.2 L47.6,166.5 L47.7,166.5 L47.9,166.5 L48.4,166.5 L48.6,166.6 L48.8,166.6 L49.2,166.7 L49.4,166.8 L49.8,167.0 L50.1,167.2 L50.7,167.6 L51.6,168.1 L52.0,168.3 L52.2,168.4 L52.6,168.6 L53.9,169.0 L54.0,169.0 L54.1,169.0 L54.4,169.3 L54.5,169.6 L54.8,170.1 L54.8,170.2 L54.9,170.3 L55.0,170.5 L55.0,170.5 L55.1,170.7 L55.2,170.8 L55.2,170.8 L55.4,170.8 L55.7,170.6 L55.9,170.5 L56.0,170.5 L56.1,170.5 L56.2,170.6 L56.3,170.6 L56.3,170.8 L56.8,171.1 L57.0,171.1 L57.2,171.1 L57.6,171.1 L57.9,171.1 L58.4,171.1 L58.7,171.1 L59.2,171.1 L59.4,171.0 L59.8,171.0 L60.2,171.0 L60.3,171.0 L60.5,170.8 L60.6,170.8 L61.2,170.7 L61.5,170.7 L62.0,170.8 L62.2,170.8 L62.6,170.8 L63.6,170.9 L64.2,171.1 L64.6,171.2 L65.4,171.3 L65.5,171.3 L65.9,171.6 L66.0,171.8 L65.8,172.0 L65.8,172.2 L65.7,172.8 L65.6,173.3 L65.6,173.4 L65.5,175.6 L65.5,175.9 L65.7,176.2 L65.8,176.6 L65.9,176.9 L65.9,177.3 L66.0,177.5 L66.1,178.1 L66.2,178.3 L66.2,179.3 L66.3,179.9 L66.3,179.9 L66.3,180.0 L66.6,180.2 L66.7,180.3 L67.0,180.4 L67.3,180.5 L67.5,180.8 L67.7,180.8 L67.8,180.8 L68.1,180.8 L68.3,180.8 L68.5,180.8 L68.9,181.0 L69.1,181.2 L70.1,182.0 L70.7,182.6 L70.9,182.7 L71.2,182.7 L71.6,182.8 L71.7,182.8 L72.0,182.9 L72.8,183.3 L73.0,183.5 L73.4,184.0 L73.6,184.2 L73.9,184.4 L74.2,184.5 L74.5,184.5 L74.7,184.5 L75.1,184.5 L75.3,184.5 L76.3,184.6 L76.5,184.5 L76.6,184.5 L76.8,184.3 L76.9,184.2 L76.9,184.1 L76.9,184.0 L76.9,183.6 L76.9,183.4 L77.0,183.3 L77.1,183.2 L77.2,183.1 L77.3,183.0 L77.5,183.0 L77.8,183.0 L77.9,183.0 L78.0,183.1 L78.2,183.3 L78.3,183.4 L78.3,183.5 L78.4,183.8 L78.5,184.0 L78.7,184.1 L78.9,184.2 L79.6,184.3 L79.8,184.4 L80.1,184.6 L80.6,184.7 L80.7,184.7 L81.0,184.7 L81.5,184.6 L81.8,184.6 L82.0,184.6 L82.1,184.6 L82.2,184.7 L82.5,185.1 L82.5,185.3 L82.5,185.3 L82.6,185.4 L82.7,185.4 L83.3,185.5 L83.6,185.6 L83.7,185.7 L84.2,185.8 L84.6,185.9 L84.8,185.9 L85.6,185.9 L85.9,185.8 L86.0,185.8 L86.1,185.8 L86.4,186.1 L87.0,186.4 L87.4,186.7 L87.6,186.8 L87.8,186.9 L88.3,186.9 L88.5,186.9 L89.1,186.7 L89.7,186.6 L89.8,186.6 L90.1,186.6 L90.3,186.7 L90.8,187.0 L91.2,187.2 L91.3,187.3 L91.4,187.4 L92.0,187.9 L92.7,188.4 L93.0,188.6 L93.7,188.8 L94.5,189.2 L95.0,189.4 L95.2,189.5 L95.3,189.6 L95.5,189.9 L95.8,190.2 L96.2,190.5 L96.7,191.1 L96.8,191.3 L97.1,191.4 L97.6,191.7 L97.9,191.9 L98.5,192.1 L100.1,192.6 L100.3,192.7 L100.4,192.6 L100.6,192.6 L100.7,192.6 L101.0,192.4 L101.8,192.0 L102.0,191.9 L102.3,191.9 L102.8,191.9 L103.2,191.9 L103.4,192.0 L103.5,192.0 L103.6,192.1 L103.8,192.4 L103.9,192.6 L104.1,192.7 L104.3,192.7 L105.5,192.8 L106.1,193.0 L106.3,193.0 L106.5,193.0 L106.5,193.1 L106.7,193.3 L106.9,193.4 L107.1,193.4 L107.3,193.4 L107.7,193.4 L107.9,193.5 L108.1,193.7 L108.5,194.1 L108.8,194.4 L109.0,194.8 L109.1,194.9 L109.2,195.1 L109.4,195.2 L109.5,195.3 L109.9,195.5 L110.0,195.6 L110.2,195.7 L110.4,195.7 L110.8,195.7 L111.4,195.8 L111.7,195.8 L112.0,195.9 L112.0,196.0 L112.3,196.1 L112.4,196.1 L112.5,196.0 L112.6,196.0 L112.8,195.8 L112.9,195.7 L113.0,195.7 L113.1,195.7 L113.5,195.8 L113.8,195.7 L114.0,195.7 L114.6,195.7 L115.0,195.7 L116.0,195.8 L116.2,195.8 L116.4,195.9 L116.5,196.0 L117.1,196.5 L117.5,196.1 L117.8,195.9 L118.1,195.7 L118.2,195.5 L118.5,195.7 L118.8,195.9 L118.9,195.9 L118.9,196.0 L118.9,196.1 L118.6,197.3 L118.5,197.9 L118.5,198.3 L118.5,198.4 L118.5,198.4 L118.6,198.6 L118.7,198.6 L118.8,198.7 L118.9,198.7 L119.0,198.6 L119.5,198.4 L120.2,198.1 L120.3,198.0 L120.0,197.7 L119.9,197.2 L119.9,197.2 L119.9,197.0 L119.9,196.8 L120.0,196.4 L120.0,196.4 L120.1,196.3 L120.1,196.3 L120.2,196.3 L120.6,196.5 L120.8,196.5 L121.1,196.6 L121.8,196.8 L122.2,196.9 L122.4,196.9 L122.7,197.0 L122.8,197.0 L123.1,198.8 L123.2,199.5 L123.3,199.5 L123.4,199.4 L123.6,199.4 L123.9,199.3 L124.0,199.3 L124.2,199.4 L124.3,199.5 L124.4,199.5 L124.5,199.6 L124.7,199.5 L124.7,199.5 L124.8,199.5 L124.8,199.4 L124.7,199.1 L124.7,199.0 L124.8,199.0 L125.1,199.0 L125.2,198.9 L125.2,198.8 L125.2,198.6 L125.2,198.6" fill="transparent" id="track" stroke="black" stroke-width="2"/>
<circle cx="129.11647485492085" cy="222.92652376852493" id="wp-0/circle" r="4"/>
<text font-size="16.0" id="" text-anchor="end" x="-2" y="-2">

</text>
<circle cx="163.41615680539007" cy="231.8718640254665" id="wp-1/circle" r="4"/>
<text font-size="16.0" id="wp-1/text" text-anchor="start" x="166.05826206854798" y="224.8718640254665">
Schlier
</text>
<circle cx="185.20749591587673" cy="243.51585492626327" id="wp-2/circle" r="4"/>
<text font-size="16.0" id="wp-2/text" text-anchor="start" x="150.2285485474557" y="261.5158549262633">
Waldburg
</text>
<circle cx="231.6429766297565" cy="249.23509448834375" id="wp-3/circle" r="4"/>
<text font-size="16.0" id="" text-anchor="end" x="-2" y="-2">

</text>
<circle cx="221.0862808913921" cy="283.8727728706508" id="wp-4/circle" r="4"/>
<text font-size="16.0" id="wp-4/text" text-anchor="start" x="128.63364931244473" y="301.8727728706508">
Weissenbach
</text>
<circle cx="253.57654709400458" cy="302.47514753663563" id="wp-5/circle" r="4"/>
<text font-size="16.0" id="wp-5/text" text-anchor="start" x="202.78707340979406" y="320.47514753663563">
Wangen
</text>
<circle cx="309.22009537179156" cy="320.768711972858" id="wp-6/circle" r="4"/>
<text font-size="16.0" id="wp-6/text" text-anchor="start" x="271.3148322138968" y="338.768711972858">
Eglofs
</text>
<circle cx="322.7403076723135" cy="298.91306653906213" id="wp-7/circle" r="4"/>
<text font-size="16.0" id="wp-7/text" text-anchor="start" x="327.83504451441877" y="326.91306653906213">
Eisenharz
</text>
<circle cx="311.9518884590293" cy="286.9930748904226" id="wp-8/circle" r="4"/>
<text font-size="16.0" id="wp-8/text" text-anchor="start" x="230.29925688008194" y="279.9930748904226">
Albrismuhle
</text>
<circle cx="315.72051799092105" cy="278.62354040542414" id="wp-9/circle" r="4"/>
<text font-size="16.0" id="wp-9/text" text-anchor="start" x="272.6047285172368" y="261.62354040542414">
Siggen
</text>
<circle cx="370.34325754217343" cy="292.35727494339517" id="wp-10/circle" r="4"/>
<text font-size="16.0" id="wp-10/text" text-anchor="start" x="367.5011522790155" y="310.35727494339517">
Isny
</text>
<circle cx="360.85172066912537" cy="254.09649813229044" id="wp-11/circle" r="4"/>
<text font-size="16.0" id="" text-anchor="end" x="-2" y="-2">

</text>
<circle cx="358.1265887782406" cy="183.65156161076447" id="wp-12/circle" r="4"/>
<text font-size="16.0" id="wp-12/text" text-anchor="start" x="294.0950098308722" y="201.65156161076447">
Leutkirch
</text>
<circle cx="343.84108422177314" cy="154.5075762790002" id="wp-13/circle" r="4"/>
<text font-size="16.0" id="" text-anchor="end" x="-2" y="-2">

</text>
<circle cx="287.88790074497456" cy="116.21537794530741" id="wp-14/circle" r="4"/>
<text font-size="16.0" id="wp-14/text" text-anchor="start" x="291.1931639028693" y="114.21537794530741">
Bad Wurzach
</text>
<circle cx="249.85485211522564" cy="119.83707792618952" id="wp-15/circle" r="4"/>
<text font-size="16.0" id="wp-15/text" text-anchor="start" x="222.7390626415414" y="107.83707792618952">
Haidgau
</text>
<circle cx="237.41906887744744" cy="122.55029392218421" id="wp-16/circle" r="4"/>
<text font-size="16.0" id="wp-16/text" text-anchor="start" x="190.38748993007903" y="140.5502939221842">
Ehrensberg
</text>
<circle cx="206.90791695865346" cy="107.72817508020671" id="wp-17/circle" r="4"/>
<text font-size="16.0" id="wp-17/text" text-anchor="start" x="176.44475906391662" y="90.72817508020671">
Bad Waldsee
</text>
<circle cx="179.11957891786597" cy="123.08999140050582" id="wp-18/circle" r="4"/>
<text font-size="16.0" id="wp-18/text" text-anchor="start" x="138.77221049681333" y="141.08999140050582">
Reute
</text>
<circle cx="144.3509816771625" cy="81.07787006855506" id="wp-19/circle" r="4"/>
<text font-size="16.0" id="" text-anchor="end" x="-2" y="-2">

</text>
<circle cx="89.95966054895143" cy="98.44176427712955" id="wp-20/circle" r="4"/>
<text font-size="16.0" id="" text-anchor="end" x="-2" y="-2">

</text>
<circle cx="26.686381835107113" cy="117.77698302239878" id="wp-21/circle" r="4"/>
<text font-size="16.0" id="" text-anchor="end" x="-2" y="-2">

</text>
<circle cx="23.260631254837335" cy="153.0083931866102" id="wp-22/circle" r="4"/>
<text font-size="16.0" id="" text-anchor="end" x="-2" y="-2">

</text>
<circle cx="62.22518480808321" cy="170.76826422796876" id="wp-23/circle" r="4"/>
<text font-size="16.0" id="" text-anchor="end" x="-2" y="-2">

</text>
<circle cx="110.79592550838333" cy="195.66887566088553" id="wp-24/circle" r="4"/>
<text font-size="16.0" id="" text-anchor="end" x="-2" y="-2">

</text>
<circle cx="145.2241432567139" cy="200.85099064435053" id="wp-25/circle" r="4"/>
<text font-size="16.0" id="" text-anchor="end" x="-2" y="-2">

</text>
<circle cx="129.11647485492085" cy="222.92652376852493" id="wp-26/circle" r="4"/>
<text font-size="16.0" id="" text-anchor="end" x="-2" y="-2">

</text>
<g/>
</svg>