<svg height="360" viewBox="0 0 360 360" width="360" xmlns="http://www.w3.org/2000/svg">
<g font-size="12" id="world" shape-rendering="geometricPrecision">
<circle cx="180" cy="180" fill="#f0f0f0" r="160" stroke="#333" stroke-width="3"/>
<circle cx="180" cy="180" fill="#f0f0f0" r="150" stroke="#555" stroke-width="2"/>
<g>
<g transform="translate(180, 180)">
<path d="M0,-151 L0,-159" stroke="#333" stroke-width="3" transform="rotate(42.47157110057345)"/>
<path d="M0,-151 L0,-159" stroke="#333" stroke-width="3" transform="rotate(102.75229956070679)"/>
<path d="M0,-151 L0,-159" stroke="#333" stroke-width="3" transform="rotate(195.9026791965864)"/>
<path d="M0,-151 L0,-159" stroke="#333" stroke-width="3" transform="rotate(359.9911010879491)"/>
<path d="M0,-152 L0,-158" stroke="#666" stroke-width="1" transform="rotate(4.391899409471661)"/>
<path d="M0,-152 L0,-158" stroke="#666" stroke-width="1" transform="rotate(8.691471984172233)"/>
<path d="M0,-152 L0,-158" stroke="#666" stroke-width="1" transform="rotate(13.133541843478412)"/>
<path d="M0,-152 L0,-158" stroke="#666" stroke-width="1" transform="rotate(17.428418204279286)"/>
<path d="M0,-152 L0,-158" stroke="#666" stroke-width="1" transform="rotate(21.813278401929715)"/>
<path d="M0,-152 L0,-158" stroke="#666" stroke-width="1" transform="rotate(26.11405838770529)"/>
<path d="M0,-152 L0,-158" stroke="#666" stroke-width="1" transform="rotate(30.45566576968321)"/>
<path d="M0,-152 L0,-158" stroke="#666" stroke-width="1" transform="rotate(34.817669722955884)"/>
<path d="M0,-152 L0,-158" stroke="#666" stroke-width="1" transform="rotate(39.14317328709864)"/>
<path d="M0,-152 L0,-158" stroke="#666" stroke-width="1" transform="rotate(43.43690264380144)"/>
<path d="M0,-152 L0,-158" stroke="#666" stroke-width="1" transform="rotate(47.74779249965658)"/>
<path d="M0,-152 L0,-158" stroke="#666" stroke-width="1" transform="rotate(52.02681176598505)"/>
<path d="M0,-152 L0,-158" stroke="#666" stroke-width="1" transform="rotate(56.318229613200984)"/>
<path d="M0,-152 L0,-158" stroke="#666" stroke-width="1" transform="rotate(60.5966936636088)"/>
<path d="M0,-152 L0,-158" stroke="#666" stroke-width="1" transform="rotate(65.05072951239438)"/>
<path d="M0,-152 L0,-158" stroke="#666" stroke-width="1" transform="rotate(69.3481677217617)"/>
<path d="M0,-152 L0,-158" stroke="#666" stroke-width="1" transform="rotate(73.65091054211832)"/>
<path d="M0,-152 L0,-158" stroke="#666" stroke-width="1" transform="rotate(77.93948811140866)"/>
<path d="M0,-152 L0,-158" stroke="#666" stroke-width="1" transform="rotate(82.24638827090222)"/>
<path d="M0,-152 L0,-158" stroke="#666" stroke-width="1" transform="rotate(86.6126804161274)"/>
<path d="M0,-152 L0,-158" stroke="#666" stroke-width="1" transform="rotate(90.8914124159124)"/>
<path d="M0,-152 L0,-158" stroke="#666" stroke-width="1" transform="rotate(95.1943732158417)"/>
<path d="M0,-152 L0,-158" stroke="#666" stroke-width="1" transform="rotate(99.49183164167145)"/>
<path d="M0,-152 L0,-158" stroke="#666" stroke-width="1" transform="rotate(103.79671470767218)"/>
<path d="M0,-152 L0,-158" stroke="#666" stroke-width="1" transform="rotate(108.08437242710396)"/>
<path d="M0,-152 L0,-158" stroke="#666" stroke-width="1" transform="rotate(112.43794647543085)"/>
<path d="M0,-152 L0,-158" stroke="#666" stroke-width="1" transform="rotate(116.7190759435899)"/>
<path d="M0,-152 L0,-158" stroke="#666" stroke-width="1" transform="rotate(121.00390673673428)"/>
<path d="M0,-152 L0,-158" stroke="#666" stroke-width="1" transform="rotate(125.35085939521295)"/>
<path d="M0,-152 L0,-158" stroke="#666" stroke-width="1" transform="rotate(129.62997762576384)"/>
<path d="M0,-152 L0,-158" stroke="#666" stroke-width="1" transform="rotate(134.041656599283)"/>
<path d="M0,-152 L0,-158" stroke="#666" stroke-width="1" transform="rotate(138.5676922425105)"/>
<path d="M0,-152 L0,-158" stroke="#666" stroke-width="1" transform="rotate(142.95199131627555)"/>
<path d="M0,-152 L0,-158" stroke="#666" stroke-width="1" transform="rotate(147.26183635490798)"/>
<path d="M0,-152 L0,-158" stroke="#666" stroke-width="1" transform="rotate(151.64443904008755)"/>
<path d="M0,-152 L0,-158" stroke="#666" stroke-width="1" transform="rotate(155.92360394000434)"/>
<path d="M0,-152 L0,-158" stroke="#666" stroke-width="1" transform="rotate(160.2052079211433)"/>
<path d="M0,-152 L0,-158" stroke="#666" stroke-width="1" transform="rotate(164.66877243327212)"/>
<path d="M0,-152 L0,-158" stroke="#666" stroke-width="1" transform="rotate(168.95938209334352)"/>
<path d="M0,-152 L0,-158" stroke="#666" stroke-width="1" transform="rotate(173.32555321732846)"/>
<path d="M0,-152 L0,-158" stroke="#666" stroke-width="1" transform="rotate(177.6954438422662)"/>
<path d="M0,-152 L0,-158" stroke="#666" stroke-width="1" transform="rotate(182.0487652977151)"/>
<path d="M0,-152 L0,-158" stroke="#666" stroke-width="1" transform="rotate(186.36438494458375)"/>
<path d="M0,-152 L0,-158" stroke="#666" stroke-width="1" transform="rotate(190.68375379684028)"/>
<path d="M0,-152 L0,-158" stroke="#666" stroke-width="1" transform="rotate(195.06593779044692)"/>
<path d="M0,-152 L0,-158" stroke="#666" stroke-width="1" transform="rotate(199.38835972637517)"/>
<path d="M0,-152 L0,-158" stroke="#666" stroke-width="1" transform="rotate(203.72183400619323)"/>
<path d="M0,-152 L0,-158" stroke="#666" stroke-width="1" transform="rotate(208.02378591843444)"/>
<path d="M0,-152 L0,-158" stroke="#666" stroke-width="1" transform="rotate(212.36858004214608)"/>
<path d="M0,-152 L0,-158" stroke="#666" stroke-width="1" transform="rotate(216.8035729997392)"/>
<path d="M0,-152 L0,-158" stroke="#666" stroke-width="1" transform="rotate(221.09634017217957)"/>
<path d="M0,-152 L0,-158" stroke="#666" stroke-width="1" transform="rotate(225.3802961266721)"/>
<path d="M0,-152 L0,-158" stroke="#666" stroke-width="1" transform="rotate(229.67742592533827)"/>
<path d="M0,-152 L0,-158" stroke="#666" stroke-width="1" transform="rotate(233.96841831398538)"/>
<path d="M0,-152 L0,-158" stroke="#666" stroke-width="1" transform="rotate(238.2634723582291)"/>
<path d="M0,-152 L0,-158" stroke="#666" stroke-width="1" transform="rotate(242.57809063750796)"/>
<path d="M0,-152 L0,-158" stroke="#666" stroke-width="1" transform="rotate(246.89894599822446)"/>
<path d="M0,-152 L0,-158" stroke="#666" stroke-width="1" transform="rotate(251.1840655947749)"/>
<path d="M0,-152 L0,-158" stroke="#666" stroke-width="1" transform="rotate(255.48913247675867)"/>
<path d="M0,-152 L0,-158" stroke="#666" stroke-width="1" transform="rotate(259.80920418552574)"/>
<path d="M0,-152 L0,-158" stroke="#666" stroke-width="1" transform="rotate(264.1788400600907)"/>
<path d="M0,-152 L0,-158" stroke="#666" stroke-width="1" transform="rotate(268.4938047610923)"/>
<path d="M0,-152 L0,-158" stroke="#666" stroke-width="1" transform="rotate(272.84908442890924)"/>
<path d="M0,-152 L0,-158" stroke="#666" stroke-width="1" transform="rotate(277.1456825612129)"/>
<path d="M0,-152 L0,-158" stroke="#666" stroke-width="1" transform="rotate(281.4344332283594)"/>
<path d="M0,-152 L0,-158" stroke="#666" stroke-width="1" transform="rotate(285.78789788153654)"/>
<path d="M0,-152 L0,-158" stroke="#666" stroke-width="1" transform="rotate(290.15052829398223)"/>
<path d="M0,-152 L0,-158" stroke="#666" stroke-width="1" transform="rotate(294.56219140383644)"/>
<path d="M0,-152 L0,-158" stroke="#666" stroke-width="1" transform="rotate(298.90015962492475)"/>
<path d="M0,-152 L0,-158" stroke="#666" stroke-width="1" transform="rotate(303.31954136450224)"/>
<path d="M0,-152 L0,-158" stroke="#666" stroke-width="1" transform="rotate(307.6010278171134)"/>
<path d="M0,-152 L0,-158" stroke="#666" stroke-width="1" transform="rotate(311.9174230168531)"/>
<path d="M0,-152 L0,-158" stroke="#666" stroke-width="1" transform="rotate(316.22842213994426)"/>
<path d="M0,-152 L0,-158" stroke="#666" stroke-width="1" transform="rotate(320.79451209471875)"/>
<path d="M0,-152 L0,-158" stroke="#666" stroke-width="1" transform="rotate(325.20912681415984)"/>
<path d="M0,-152 L0,-158" stroke="#666" stroke-width="1" transform="rotate(329.61137484257176)"/>
<path d="M0,-152 L0,-158" stroke="#666" stroke-width="1" transform="rotate(334.18045127501534)"/>
<path d="M0,-152 L0,-158" stroke="#666" stroke-width="1" transform="rotate(338.7504253586993)"/>
<path d="M0,-152 L0,-158" stroke="#666" stroke-width="1" transform="rotate(343.032789615766)"/>
<path d="M0,-152 L0,-158" stroke="#666" stroke-width="1" transform="rotate(348.1981960693881)"/>
<path d="M0,-152 L0,-158" stroke="#666" stroke-width="1" transform="rotate(352.4982408374673)"/>
<path d="M0,-152 L0,-158" stroke="#666" stroke-width="1" transform="rotate(356.85481578596404)"/>
</g>
<g transform="translate(180, 180)">
<text text-anchor="start" x="112.7624587260897" y="-123.18128064786026">
K1

</text>
<text text-anchor="start" x="162.88068816272244" y="36.863008879335574">
K2

</text>
<text text-anchor="end" x="-45.75869976132954" y="165.60865915682288">
K3
</text>
<text text-anchor="end" x="-0.025937657523047716" y="-166.99999798574228">
K4
</text>
</g>
</g>
<circle cx="180" cy="180" fill="#333" r="5"/>
</g>
</svg>