<svg height="360" viewBox="0 0 360 360" width="360" xmlns="http://www.w3.org/2000/svg">
<g font-size="12" id="world" shape-rendering="geometricPrecision">
<circle cx="180" cy="180" fill="#f0f0f0" r="160" stroke="#333" stroke-width="3"/>
<circle cx="180" cy="180" fill="#f0f0f0" r="150" stroke="#555" stroke-width="2"/>
<path d="M 180 180 L 124.250716637916 26.83010281189692 A 160 160 0 0 1 235.749283362084 26.83010281189692 Z" fill="white" stroke="white" stroke-width="0"/>
<g>
<g transform="translate(180, 180)">
<path d="M0,-150 L0,-160" stroke="#333" stroke-width="3" transform="rotate(20)"/>
<path d="M0,-150 L0,-160" stroke="#333" stroke-width="3" transform="rotate(57.75250764495417)"/>
<path d="M0,-150 L0,-160" stroke="#333" stroke-width="3" transform="rotate(111.33537738729493)"/>
<path d="M0,-150 L0,-160" stroke="#333" stroke-width="3" transform="rotate(194.13571484141016)"/>
<path d="M0,-150 L0,-160" stroke="#333" stroke-width="3" transform="rotate(339.9920898559548)"/>
<path d="M0,-151 L0,-159" stroke="#666" stroke-width="1" transform="rotate(23.903910586197032)"/>
<path d="M0,-151 L0,-159" stroke="#666" stroke-width="1" transform="rotate(27.725752874819765)"/>
<path d="M0,-151 L0,-159" stroke="#666" stroke-width="1" transform="rotate(31.674259416425254)"/>
<path d="M0,-151 L0,-159" stroke="#666" stroke-width="1" transform="rotate(35.4919272926927)"/>
<path d="M0,-151 L0,-159" stroke="#666" stroke-width="1" transform="rotate(39.389580801715304)"/>
<path d="M0,-151 L0,-159" stroke="#666" stroke-width="1" transform="rotate(43.21249634462693)"/>
<path d="M0,-151 L0,-159" stroke="#666" stroke-width="1" transform="rotate(47.07170290638508)"/>
<path d="M0,-151 L0,-159" stroke="#666" stroke-width="1" transform="rotate(50.94903975373856)"/>
<path d="M0,-151 L0,-159" stroke="#666" stroke-width="1" transform="rotate(54.793931810754344)"/>
<path d="M0,-151 L0,-159" stroke="#666" stroke-width="1" transform="rotate(58.6105801278235)"/>
<path d="M0,-151 L0,-159" stroke="#666" stroke-width="1" transform="rotate(62.44248222191696)"/>
<path d="M0,-151 L0,-159" stroke="#666" stroke-width="1" transform="rotate(66.24605490309781)"/>
<path d="M0,-151 L0,-159" stroke="#666" stroke-width="1" transform="rotate(70.06064854506755)"/>
<path d="M0,-151 L0,-159" stroke="#666" stroke-width="1" transform="rotate(73.86372770098559)"/>
<path d="M0,-151 L0,-159" stroke="#666" stroke-width="1" transform="rotate(77.82287067768391)"/>
<path d="M0,-151 L0,-159" stroke="#666" stroke-width="1" transform="rotate(81.64281575267707)"/>
<path d="M0,-151 L0,-159" stroke="#666" stroke-width="1" transform="rotate(85.46747603743852)"/>
<path d="M0,-151 L0,-159" stroke="#666" stroke-width="1" transform="rotate(89.27954498791881)"/>
<path d="M0,-151 L0,-159" stroke="#666" stroke-width="1" transform="rotate(93.1079006852464)"/>
<path d="M0,-151 L0,-159" stroke="#666" stroke-width="1" transform="rotate(96.9890492587799)"/>
<path d="M0,-151 L0,-159" stroke="#666" stroke-width="1" transform="rotate(100.79236659192213)"/>
<path d="M0,-151 L0,-159" stroke="#666" stroke-width="1" transform="rotate(104.61722063630373)"/>
<path d="M0,-151 L0,-159" stroke="#666" stroke-width="1" transform="rotate(108.43718368148575)"/>
<path d="M0,-151 L0,-159" stroke="#666" stroke-width="1" transform="rotate(112.2637464068197)"/>
<path d="M0,-151 L0,-159" stroke="#666" stroke-width="1" transform="rotate(116.0749977129813)"/>
<path d="M0,-151 L0,-159" stroke="#666" stroke-width="1" transform="rotate(119.9448413114941)"/>
<path d="M0,-151 L0,-159" stroke="#666" stroke-width="1" transform="rotate(123.75028972763548)"/>
<path d="M0,-151 L0,-159" stroke="#666" stroke-width="1" transform="rotate(127.55902821043047)"/>
<path d="M0,-151 L0,-159" stroke="#666" stroke-width="1" transform="rotate(131.4229861290782)"/>
<path d="M0,-151 L0,-159" stroke="#666" stroke-width="1" transform="rotate(135.22664677845674)"/>
<path d="M0,-151 L0,-159" stroke="#666" stroke-width="1" transform="rotate(139.14813919936267)"/>
<path d="M0,-151 L0,-159" stroke="#666" stroke-width="1" transform="rotate(143.1712819933427)"/>
<path d="M0,-151 L0,-159" stroke="#666" stroke-width="1" transform="rotate(147.06843672557824)"/>
<path d="M0,-151 L0,-159" stroke="#666" stroke-width="1" transform="rotate(150.89941009325156)"/>
<path d="M0,-151 L0,-159" stroke="#666" stroke-width="1" transform="rotate(154.7950569245223)"/>
<path d="M0,-151 L0,-159" stroke="#666" stroke-width="1" transform="rotate(158.59875905778162)"/>
<path d="M0,-151 L0,-159" stroke="#666" stroke-width="1" transform="rotate(162.40462926323852)"/>
<path d="M0,-151 L0,-159" stroke="#666" stroke-width="1" transform="rotate(166.37224216290855)"/>
<path d="M0,-151 L0,-159" stroke="#666" stroke-width="1" transform="rotate(170.18611741630536)"/>
<path d="M0,-151 L0,-159" stroke="#666" stroke-width="1" transform="rotate(174.06715841540307)"/>
<path d="M0,-151 L0,-159" stroke="#666" stroke-width="1" transform="rotate(177.95150563756997)"/>
<path d="M0,-151 L0,-159" stroke="#666" stroke-width="1" transform="rotate(181.82112470908012)"/>
<path d="M0,-151 L0,-159" stroke="#666" stroke-width="1" transform="rotate(185.65723106185223)"/>
<path d="M0,-151 L0,-159" stroke="#666" stroke-width="1" transform="rotate(189.4966700416358)"/>
<path d="M0,-151 L0,-159" stroke="#666" stroke-width="1" transform="rotate(193.39194470261947)"/>
<path d="M0,-151 L0,-159" stroke="#666" stroke-width="1" transform="rotate(197.2340975345557)"/>
<path d="M0,-151 L0,-159" stroke="#666" stroke-width="1" transform="rotate(201.08607467217175)"/>
<path d="M0,-151 L0,-159" stroke="#666" stroke-width="1" transform="rotate(204.91003192749727)"/>
<path d="M0,-151 L0,-159" stroke="#666" stroke-width="1" transform="rotate(208.7720711485743)"/>
<path d="M0,-151 L0,-159" stroke="#666" stroke-width="1" transform="rotate(212.7142871108793)"/>
<path d="M0,-151 L0,-159" stroke="#666" stroke-width="1" transform="rotate(216.53008015304852)"/>
<path d="M0,-151 L0,-159" stroke="#666" stroke-width="1" transform="rotate(220.33804100148632)"/>
<path d="M0,-151 L0,-159" stroke="#666" stroke-width="1" transform="rotate(224.15771193363403)"/>
<path d="M0,-151 L0,-159" stroke="#666" stroke-width="1" transform="rotate(227.97192739020923)"/>
<path d="M0,-151 L0,-159" stroke="#666" stroke-width="1" transform="rotate(231.78975320731476)"/>
<path d="M0,-151 L0,-159" stroke="#666" stroke-width="1" transform="rotate(235.62496945556265)"/>
<path d="M0,-151 L0,-159" stroke="#666" stroke-width="1" transform="rotate(239.46572977619954)"/>
<path d="M0,-151 L0,-159" stroke="#666" stroke-width="1" transform="rotate(243.27472497313323)"/>
<path d="M0,-151 L0,-159" stroke="#666" stroke-width="1" transform="rotate(247.10145109045217)"/>
<path d="M0,-151 L0,-159" stroke="#666" stroke-width="1" transform="rotate(250.94151483157844)"/>
<path d="M0,-151 L0,-159" stroke="#666" stroke-width="1" transform="rotate(254.82563560896955)"/>
<path d="M0,-151 L0,-159" stroke="#666" stroke-width="1" transform="rotate(258.66115978763764)"/>
<path d="M0,-151 L0,-159" stroke="#666" stroke-width="1" transform="rotate(262.53251949236375)"/>
<path d="M0,-151 L0,-159" stroke="#666" stroke-width="1" transform="rotate(266.35171783218925)"/>
<path d="M0,-151 L0,-159" stroke="#666" stroke-width="1" transform="rotate(270.16394064743054)"/>
<path d="M0,-151 L0,-159" stroke="#666" stroke-width="1" transform="rotate(274.0336870058103)"/>
<path d="M0,-151 L0,-159" stroke="#666" stroke-width="1" transform="rotate(277.911580705762)"/>
<path d="M0,-151 L0,-159" stroke="#666" stroke-width="1" transform="rotate(281.8330590256324)"/>
<path d="M0,-151 L0,-159" stroke="#666" stroke-width="1" transform="rotate(285.6890307777109)"/>
<path d="M0,-151 L0,-159" stroke="#666" stroke-width="1" transform="rotate(289.6173701017798)"/>
<path d="M0,-151 L0,-159" stroke="#666" stroke-width="1" transform="rotate(293.42313583743413)"/>
<path d="M0,-151 L0,-159" stroke="#666" stroke-width="1" transform="rotate(297.2599315705361)"/>
<path d="M0,-151 L0,-159" stroke="#666" stroke-width="1" transform="rotate(301.09193079106154)"/>
<path d="M0,-151 L0,-159" stroke="#666" stroke-width="1" transform="rotate(305.1506774175278)"/>
<path d="M0,-151 L0,-159" stroke="#666" stroke-width="1" transform="rotate(309.0747793903643)"/>
<path d="M0,-151 L0,-159" stroke="#666" stroke-width="1" transform="rotate(312.98788874895274)"/>
<path d="M0,-151 L0,-159" stroke="#666" stroke-width="1" transform="rotate(317.04929002223594)"/>
<path d="M0,-151 L0,-159" stroke="#666" stroke-width="1" transform="rotate(321.1114892077327)"/>
<path d="M0,-151 L0,-159" stroke="#666" stroke-width="1" transform="rotate(324.9180352140142)"/>
<path d="M0,-151 L0,-159" stroke="#666" stroke-width="1" transform="rotate(329.50950761723385)"/>
<path d="M0,-151 L0,-159" stroke="#666" stroke-width="1" transform="rotate(333.33176963330425)"/>
<path d="M0,-151 L0,-159" stroke="#666" stroke-width="1" transform="rotate(337.2042806986347)"/>
</g>
<g transform="translate(180, 180)">
<text text-anchor="start" x="57.11736393538668" y="-156.9286676712467">
Start
</text>
<text text-anchor="start" x="141.24044629506352" y="-89.10744262053129">
K1
</text>
<text text-anchor="start" x="155.5549488931439" y="60.75901476202019">
K2
</text>
<text text-anchor="end" x="-40.784660836489024" y="166.94323524140353">
K3
</text>
<text text-anchor="end" x="-57.139028658075475" y="-156.92078066340235">
K4
</text>
</g>
</g>
<circle cx="180" cy="180" fill="#333" r="5"/>
</g>
</svg>