<svg height="400" viewBox="0 0 400 400" width="400" xmlns="http://www.w3.org/2000/svg">
<g font-size="12" id="world" shape-rendering="geometricPrecision">
<circle cx="200" cy="200" fill="#f0f0f0" r="180" stroke="#333" stroke-width="3"/>
<circle cx="200" cy="200" fill="#f0f0f0" r="170" stroke="#555" stroke-width="2"/>
<path d="M 200 200 L 137.41031377140263 28.036250396178758 A 183 183 0 0 1 262.5896862285974 28.036250396178758 Z" fill="white" stroke="white" stroke-width="0"/>
<g>
<g transform="translate(200, 200)">
<path d="M0,-170 L0,-180" stroke="#333" stroke-width="3" transform="rotate(20)"/>
<path d="M0,-170 L0,-180" stroke="#333" stroke-width="3" transform="rotate(57.75250764495417)"/>
<path d="M0,-170 L0,-180" stroke="#333" stroke-width="3" transform="rotate(111.33537738729493)"/>
<path d="M0,-170 L0,-180" stroke="#333" stroke-width="3" transform="rotate(194.13571484141016)"/>
<path d="M0,-170 L0,-180" stroke="#333" stroke-width="3" transform="rotate(340)"/>
<path d="M0,-171 L0,-179" stroke="#666" stroke-width="1" transform="rotate(23.903910586197032)"/>
<path d="M0,-171 L0,-179" stroke="#666" stroke-width="1" transform="rotate(27.725752874819765)"/>
<path d="M0,-171 L0,-179" stroke="#666" stroke-width="1" transform="rotate(31.674259416425254)"/>
<path d="M0,-171 L0,-179" stroke="#666" stroke-width="1" transform="rotate(35.4919272926927)"/>
<path d="M0,-171 L0,-179" stroke="#666" stroke-width="1" transform="rotate(39.389580801715304)"/>
<path d="M0,-171 L0,-179" stroke="#666" stroke-width="1" transform="rotate(43.21249634462693)"/>
<path d="M0,-171 L0,-179" stroke="#666" stroke-width="1" transform="rotate(47.07170290638508)"/>
<path d="M0,-171 L0,-179" stroke="#666" stroke-width="1" transform="rotate(50.94903975373856)"/>
<path d="M0,-171 L0,-179" stroke="#666" stroke-width="1" transform="rotate(54.793931810754344)"/>
<path d="M0,-171 L0,-179" stroke="#666" stroke-width="1" transform="rotate(58.6105801278235)"/>
<path d="M0,-171 L0,-179" stroke="#666" stroke-width="1" transform="rotate(62.44248222191696)"/>
<path d="M0,-171 L0,-179" stroke="#666" stroke-width="1" transform="rotate(66.24605490309781)"/>
<path d="M0,-171 L0,-179" stroke="#666" stroke-width="1" transform="rotate(70.06064854506755)"/>
<path d="M0,-171 L0,-179" stroke="#666" stroke-width="1" transform="rotate(73.86372770098559)"/>
<path d="M0,-171 L0,-179" stroke="#666" stroke-width="1" transform="rotate(77.82287067768391)"/>
<path d="M0,-171 L0,-179" stroke="#666" stroke-width="1" transform="rotate(81.64281575267707)"/>
<path d="M0,-171 L0,-179" stroke="#666" stroke-width="1" transform="rotate(85.46747603743852)"/>
<path d="M0,-171 L0,-179" stroke="#666" stroke-width="1" transform="rotate(89.27954498791881)"/>
<path d="M0,-171 L0,-179" stroke="#666" stroke-width="1" transform="rotate(93.1079006852464)"/>
<path d="M0,-171 L0,-179" stroke="#666" stroke-width="1" transform="rotate(96.9890492587799)"/>
<path d="M0,-171 L0,-179" stroke="#666" stroke-width="1" transform="rotate(100.79236659192213)"/>
<path d="M0,-171 L0,-179" stroke="#666" stroke-width="1" transform="rotate(104.61722063630373)"/>
<path d="M0,-171 L0,-179" stroke="#666" stroke-width="1" transform="rotate(108.43718368148575)"/>
<path d="M0,-171 L0,-179" stroke="#666" stroke-width="1" transform="rotate(112.2637464068197)"/>
<path d="M0,-171 L0,-179" stroke="#666" stroke-width="1" transform="rotate(116.0749977129813)"/>
<path d="M0,-171 L0,-179" stroke="#666" stroke-width="1" transform="rotate(119.9448413114941)"/>
<path d="M0,-171 L0,-179" stroke="#666" stroke-width="1" transform="rotate(123.75028972763548)"/>
<path d="M0,-171 L0,-179" stroke="#666" stroke-width="1" transform="rotate(127.55902821043047)"/>
<path d="M0,-171 L0,-179" stroke="#666" stroke-width="1" transform="rotate(131.4229861290782)"/>
<path d="M0,-171 L0,-179" stroke="#666" stroke-width="1" transform="rotate(135.22664677845674)"/>
<path d="M0,-171 L0,-179" stroke="#666" stroke-width="1" transform="rotate(139.14813919936267)"/>
<path d="M0,-171 L0,-179" stroke="#666" stroke-width="1" transform="rotate(143.1712819933427)"/>
<path d="M0,-171 L0,-179" stroke="#666" stroke-width="1" transform="rotate(147.06843672557824)"/>
<path d="M0,-171 L0,-179" stroke="#666" stroke-width="1" transform="rotate(150.89941009325156)"/>
<path d="M0,-171 L0,-179" stroke="#666" stroke-width="1" transform="rotate(154.7950569245223)"/>
<path d="M0,-171 L0,-179" stroke="#666" stroke-width="1" transform="rotate(158.59875905778162)"/>
<path d="M0,-171 L0,-179" stroke="#666" stroke-width="1" transform="rotate(162.40462926323852)"/>
<path d="M0,-171 L0,-179" stroke="#666" stroke-width="1" transform="rotate(166.37224216290855)"/>
<path d="M0,-171 L0,-179" stroke="#666" stroke-width="1" transform="rotate(170.18611741630536)"/>
<path d="M0,-171 L0,-179" stroke="#666" stroke-width="1" transform="rotate(174.06715841540307)"/>
<path d="M0,-171 L0,-179" stroke="#666" stroke-width="1" transform="rotate(177.95150563756997)"/>
<path d="M0,-171 L0,-179" stroke="#666" stroke-width="1" transform="rotate(181.82112470908012)"/>
<path d="M0,-171 L0,-179" stroke="#666" stroke-width="1" transform="rotate(185.65723106185223)"/>
<path d="M0,-171 L0,-179" stroke="#666" stroke-width="1" transform="rotate(189.4966700416358)"/>
<path d="M0,-171 L0,-179" stroke="#666" stroke-width="1" transform="rotate(193.39194470261947)"/>
<path d="M0,-171 L0,-179" stroke="#666" stroke-width="1" transform="rotate(197.2340975345557)"/>
<path d="M0,-171 L0,-179" stroke="#666" stroke-width="1" transform="rotate(201.08607467217175)"/>
<path d="M0,-171 L0,-179" stroke="#666" stroke-width="1" transform="rotate(204.91003192749727)"/>
<path d="M0,-171 L0,-179" stroke="#666" stroke-width="1" transform="rotate(208.7720711485743)"/>
<path d="M0,-171 L0,-179" stroke="#666" stroke-width="1" transform="rotate(212.7142871108793)"/>
<path d="M0,-171 L0,-179" stroke="#666" stroke-width="1" transform="rotate(216.53008015304852)"/>
<path d="M0,-171 L0,-179" stroke="#666" stroke-width="1" transform="rotate(220.33804100148632)"/>
<path d="M0,-171 L0,-179" stroke="#666" stroke-width="1" transform="rotate(224.15771193363403)"/>
<path d="M0,-171 L0,-179" stroke="#666" stroke-width="1" transform="rotate(227.97192739020923)"/>
<path d="M0,-171 L0,-179" stroke="#666" stroke-width="1" transform="rotate(231.78975320731476)"/>
<path d="M0,-171 L0,-179" stroke="#666" stroke-width="1" transform="rotate(235.62496945556265)"/>
<path d="M0,-171 L0,-179" stroke="#666" stroke-width="1" transform="rotate(239.46572977619954)"/>
<path d="M0,-171 L0,-179" stroke="#666" stroke-width="1" transform="rotate(243.27472497313323)"/>
<path d="M0,-171 L0,-179" stroke="#666" stroke-width="1" transform="rotate(247.10145109045217)"/>
<path d="M0,-171 L0,-179" stroke="#666" stroke-width="1" transform="rotate(250.94151483157844)"/>
<path d="M0,-171 L0,-179" stroke="#666" stroke-width="1" transform="rotate(254.82563560896955)"/>
<path d="M0,-171 L0,-179" stroke="#666" stroke-width="1" transform="rotate(258.66115978763764)"/>
<path d="M0,-171 L0,-179" stroke="#666" stroke-width="1" transform="rotate(262.53251949236375)"/>
<path d="M0,-171 L0,-179" stroke="#666" stroke-width="1" transform="rotate(266.35171783218925)"/>
<path d="M0,-171 L0,-179" stroke="#666" stroke-width="1" transform="rotate(270.16394064743054)"/>
<path d="M0,-171 L0,-179" stroke="#666" stroke-width="1" transform="rotate(274.0336870058103)"/>
<path d="M0,-171 L0,-179" stroke="#666" stroke-width="1" transform="rotate(277.911580705762)"/>
<path d="M0,-171 L0,-179" stroke="#666" stroke-width="1" transform="rotate(281.8330590256324)"/>
<path d="M0,-171 L0,-179" stroke="#666" stroke-width="1" transform="rotate(285.6890307777109)"/>
<path d="M0,-171 L0,-179" stroke="#666" stroke-width="1" transform="rotate(289.6173701017798)"/>
<path d="M0,-171 L0,-179" stroke="#666" stroke-width="1" transform="rotate(293.42313583743413)"/>
<path d="M0,-171 L0,-179" stroke="#666" stroke-width="1" transform="rotate(297.2599315705361)"/>
<path d="M0,-171 L0,-179" stroke="#666" stroke-width="1" transform="rotate(301.09193079106154)"/>
<path d="M0,-171 L0,-179" stroke="#666" stroke-width="1" transform="rotate(305.1506774175278)"/>
<path d="M0,-171 L0,-179" stroke="#666" stroke-width="1" transform="rotate(309.0747793903643)"/>
<path d="M0,-171 L0,-179" stroke="#666" stroke-width="1" transform="rotate(312.98788874895274)"/>
<path d="M0,-171 L0,-179" stroke="#666" stroke-width="1" transform="rotate(317.04929002223594)"/>
<path d="M0,-171 L0,-179" stroke="#666" stroke-width="1" transform="rotate(321.1114892077327)"/>
<path d="M0,-171 L0,-179" stroke="#666" stroke-width="1" transform="rotate(324.9180352140142)"/>
<path d="M0,-171 L0,-179" stroke="#666" stroke-width="1" transform="rotate(329.50950761723385)"/>
<path d="M0,-171 L0,-179" stroke="#666" stroke-width="1" transform="rotate(333.33176963330425)"/>
<path d="M0,-171 L0,-179" stroke="#666" stroke-width="1" transform="rotate(337.2042806986347)"/>
<path d="M0,-165 L0,-170" stroke="#666" stroke-width="2" transform="rotate(20)"/>
<path d="M0,-165 L0,-170" stroke="#666" stroke-width="2" transform="rotate(37.430385718548976)"/>
<path d="M0,-165 L0,-170" stroke="#666" stroke-width="2" transform="rotate(56.44535195696603)"/>
<path d="M0,-165 L0,-170" stroke="#666" stroke-width="2" transform="rotate(75.4603181953831)"/>
<path d="M0,-165 L0,-170" stroke="#666" stroke-width="2" transform="rotate(94.47528443380016)"/>
<path d="M0,-165 L0,-170" stroke="#666" stroke-width="2" transform="rotate(113.49025067221721)"/>
<path d="M0,-165 L0,-170" stroke="#666" stroke-width="2" transform="rotate(132.50521691063426)"/>
<path d="M0,-165 L0,-170" stroke="#666" stroke-width="2" transform="rotate(151.52018314905132)"/>
<path d="M0,-165 L0,-170" stroke="#666" stroke-width="2" transform="rotate(170.53514938746838)"/>
<path d="M0,-165 L0,-170" stroke="#666" stroke-width="2" transform="rotate(189.55011562588544)"/>
<path d="M0,-165 L0,-170" stroke="#666" stroke-width="2" transform="rotate(208.56508186430253)"/>
<path d="M0,-165 L0,-170" stroke="#666" stroke-width="2" transform="rotate(227.5800481027196)"/>
<path d="M0,-165 L0,-170" stroke="#666" stroke-width="2" transform="rotate(246.59501434113665)"/>
<path d="M0,-165 L0,-170" stroke="#666" stroke-width="2" transform="rotate(265.60998057955373)"/>
<path d="M0,-165 L0,-170" stroke="#666" stroke-width="2" transform="rotate(284.62494681797074)"/>
<path d="M0,-165 L0,-170" stroke="#666" stroke-width="2" transform="rotate(303.6399130563878)"/>
<path d="M0,-165 L0,-170" stroke="#666" stroke-width="2" transform="rotate(322.65487929480486)"/>
<path d="M0,-165 L0,-170" stroke="#666" stroke-width="2" transform="rotate(339.99547211722796)"/>
</g>
<g transform="translate(200, 200)">
<text text-anchor="middle" x="63.95776680190005" y="-175.72252008696486">
Start
</text>
<text text-anchor="start" x="158.15546980345437" y="-99.77899263496617">
K1
</text>
<text text-anchor="start" x="174.1842840899276" y="73.03554347603459">
K2
</text>
<text text-anchor="middle" x="-45.66905135582903" y="191.33763467151172">
K3
</text>
<text text-anchor="middle" x="-63.95776680190003" y="-175.72252008696486">
K4
</text>
<text text-anchor="middle" x="55.749283362084" y="-143.16989718810308">
 8:05
</text>
<text text-anchor="end" x="99.07092026810365" y="-119.43706098807655">
 9
</text>
<text text-anchor="end" x="135.83751892677827" y="-80.09532980025743">
10
</text>
<text text-anchor="end" x="157.7797620783269" y="-35.92122528110024">
11
</text>
<text text-anchor="end" x="162.50302697292074" y="17.718735182328267">
12
</text>
<text text-anchor="end" x="149.49184955832303" y="64.97066196085518">
13
</text>
<text text-anchor="end" x="120.16617861660964" y="110.13214570088547">
14
</text>
<text text-anchor="end" x="77.72641249839599" y="143.2745783456688">
15
</text>
<text text-anchor="middle" x="26.804130060145244" y="160.78102690217779">
16
</text>
<text text-anchor="middle" x="-27.04336741597015" y="160.74096017756284">
17
</text>
<text text-anchor="start" x="-77.93954116465305" y="143.15875077354983">
18
</text>
<text text-anchor="start" x="-120.32993922326379" y="109.9531978913103">
19
</text>
<text text-anchor="start" x="-149.58837041962585" y="64.74812302453873">
20
</text>
<text text-anchor="start" x="-162.52177447803254" y="17.476891460276917">
21
</text>
<text text-anchor="start" x="-157.71869025583382" y="-36.15598065876147">
22
</text>
<text text-anchor="start" x="-135.70329272768402" y="-80.29737727566899">
23
</text>
<text text-anchor="start" x="-98.87818819975331" y="-119.58435051476764">
Sat
</text>
<text text-anchor="middle" x="-55.76138766312805" y="-143.16549104116876">
 0:54
</text>
</g>
<g transform="translate(200, 200)">
<g>
<path d="M 27.361611466053496 -75.17540966287268 L 30.781812899310186 -84.57233587073176" fill="none" stroke="black" stroke-width="4"/>
<path d="M 43.844258110534454 66.91547676537046 L 49.32479037435126 75.27991136104177" fill="none" stroke="black" stroke-width="4"/>
<path d="M 35.92255224795945 -77.03616189811524 M 35.92255224795945 -77.03616189811524 A 85 85 0 0 1 84.04056648374609 -12.735116218199712" fill="none" stroke="black" stroke-width="3"/>
<path d="M 84.72420468775901 -6.84172054579204 M 84.72420468775901 -6.84172054579204 A 85 85 0 0 1 52.60382839717245 66.7670370614185" fill="none" stroke="black" stroke-width="3"/>
</g>
<g>
<path d="M 43.844258110534454 66.91547676537046 L 49.32479037435126 75.27991136104177" fill="none" stroke="black" stroke-width="4"/>
<path d="M -79.84796776616749 -4.929710297074094 L -89.82896373693842 -5.545924084208356" fill="none" stroke="black" stroke-width="4"/>
<path d="M 40.21068372972347 74.8872546832113 M 40.21068372972347 74.8872546832113 A 85 85 0 0 1 -40.10098610874049 74.9460533524388" fill="none" stroke="black" stroke-width="3"/>
<path d="M -45.231274524953335 71.96618514863982 M -45.231274524953335 71.96618514863982 A 85 85 0 0 1 -84.97213562356198 2.176273781257759" fill="none" stroke="black" stroke-width="3"/>
</g>
<g>
<path d="M -79.84796776616749 -4.929710297074094 L -89.82896373693842 -5.545924084208356" fill="none" stroke="black" stroke-width="4"/>
<path d="M -27.36161146605349 -75.17540966287268 L -30.781812899310175 -84.57233587073176" fill="none" stroke="black" stroke-width="4"/>
<path d="M -84.0591239283084 -12.61204521103894 M -84.0591239283084 -12.61204521103894 A 85 85 0 0 1 -36.035314813549256 -76.98347930750076" fill="none" stroke="black" stroke-width="3"/>
<path d="M -30.57743854474694 -79.30964791273647 M -30.57743854474694 -79.30964791273647 A 85 85 0 0 1 -35.92255224795943 -77.03616189811525" fill="none" stroke="black" stroke-width="3"/>
</g>
</g>
</g>
<circle cx="200" cy="200" fill="#333" r="5"/>
</g>
</svg>