<svg height="360" viewBox="0 0 360 360" width="360" xmlns="http://www.w3.org/2000/svg">
<g font-size="12" id="world" shape-rendering="geometricPrecision">
<circle cx="180" cy="180" fill="#f0f0f0" r="160" stroke="#333" stroke-width="3"/>
<circle cx="180" cy="180" fill="#f0f0f0" r="150" stroke="#555" stroke-width="2"/>
<path d="M 180 180 L 124.250716637916 26.83010281189692 A 160 160 0 0 1 235.749283362084 26.83010281189692 Z" fill="white" stroke="white" stroke-width="0"/>
<g>
<g transform="translate(180, 180)">
<path d="M0,-150 L0,-160" stroke="#333" stroke-width="3" transform="rotate(20)"/>
<path d="M0,-150 L0,-160" stroke="#333" stroke-width="3" transform="rotate(57.75250764495417)"/>
<path d="M0,-150 L0,-160" stroke="#333" stroke-width="3" transform="rotate(111.33537738729493)"/>
<path d="M0,-150 L0,-160" stroke="#333" stroke-width="3" transform="rotate(194.13571484141016)"/>
<path d="M0,-150 L0,-160" stroke="#333" stroke-width="3" transform="rotate(339.9920898559548)"/>
<path d="M0,-151 L0,-159" stroke="#666" stroke-width="1" transform="rotate(23.903910586197032)"/>
<path d="M0,-151 L0,-159" stroke="#666" stroke-width="1" transform="rotate(27.725752874819765)"/>
<path d="M0,-151 L0,-159" stroke="#666" stroke-width="1" transform="rotate(31.674259416425254)"/>
<path d="M0,-151 L0,-159" stroke="#666" stroke-width="1" transform="rotate(35.4919272926927)"/>
<path d="M0,-151 L0,-159" stroke="#666" stroke-width="1" transform="rotate(39.389580801715304)"/>
<path d="M0,-151 L0,-159" stroke="#666" stroke-width="1" transform="rotate(43.21249634462693)"/>
<path d="M0,-151 L0,-159" stroke="#666" stroke-width="1" transform="rotate(47.07170290638508)"/>
<path d="M0,-151 L0,-159" stroke="#666" stroke-width="1" transform="rotate(50.94903975373856)"/>
<path d="M0,-151 L0,-159" stroke="#666" stroke-width="1" transform="rotate(54.793931810754344)"/>
<path d="M0,-151 L0,-159" stroke="#666" stroke-width="1" transform="rotate(58.6105801278235)"/>
<path d="M0,-151 L0,-159" stroke="#666" stroke-width="1" transform="rotate(62.44248222191696)"/>
<path d="M0,-151 L0,-159" stroke="#666" stroke-width="1" transform="rotate(66.24605490309781)"/>
<path d="M0,-151 L0,-159" stroke="#666" stroke-width="1" transform="rotate(70.06064854506755)"/>
<path d="M0,-151 L0,-159" stroke="#666" stroke-width="1" transform="rotate(73.86372770098559)"/>
<path d="M0,-151 L0,-159" stroke="#666" stroke-width="1" transform="rotate(77.82287067768391)"/>
<path d="M0,-151 L0,-159" stroke="#666" stroke-width="1" transform="rotate(81.64281575267707)"/>
<path d="M0,-151 L0,-159" stroke="#666" stroke-width="1" transform="rotate(85.46747603743852)"/>
<path d="M0,-151 L0,-159" stroke="#666" stroke-width="1" transform="rotate(89.27954498791881)"/>
<path d="M0,-151 L0,-159" stroke="#666" stroke-width="1" transform="rotate(93.1079006852464)"/>
<path d="M0,-151 L0,-159" stroke="#666" stroke-width="1" transform="rotate(96.9890492587799)"/>
<path d="M0,-151 L0,-159" stroke="#666" stroke-width="1" transform="rotate(100.79236659192213)"/>
<path d="M0,-151 L0,-159" stroke="#666" stroke-width="1" transform="rotate(104.61722063630373)"/>
<path d="M0,-151 L0,-159" stroke="#666" stroke-width="1" transform="rotate(108.43718368148575)"/>
<path d="M0,-151 L0,-159" stroke="#666" stroke-width="1" transform="rotate(112.2637464068197)"/>
<path d="M0,-151 L0,-159" stroke="#666" stroke-width="1" transform="rotate(116.0749977129813)"/>
<path d="M0,-151 L0,-159" stroke="#666" stroke-width="1" transform="rotate(119.9448413114941)"/>
<path d="M0,-151 L0,-159" stroke="#666" stroke-width="1" transform="rotate(123.75028972763548)"/>
<path d="M0,-151 L0,-159" stroke="#666" stroke-width="1" transform="rotate(127.55902821043047)"/>
<path d="M0,-151 L0,-159" stroke="#666" stroke-width="1" transform="rotate(131.4229861290782)"/>
<path d="M0,-151 L0,-159" stroke="#666" stroke-width="1" transform="rotate(135.22664677845674)"/>
<path d="M0,-151 L0,-159" stroke="#666" stroke-width="1" transform="rotate(139.14813919936267)"/>
<path d="M0,-151 L0,-159" stroke="#666" stroke-width="1" transform="rotate(143.1712819933427)"/>
<path d="M0,-151 L0,-159" stroke="#666" stroke-width="1" transform="rotate(147.06843672557824)"/>
<path d="M0,-151 L0,-159" stroke="#666" stroke-width="1" transform="rotate(150.89941009325156)"/>
<path d="M0,-151 L0,-159" stroke="#666" stroke-width="1" transform="rotate(154.7950569245223)"/>
<path d="M0,-151 L0,-159" stroke="#666" stroke-width="1" transform="rotate(158.59875905778162)"/>
<path d="M0,-151 L0,-159" stroke="#666" stroke-width="1" transform="rotate(162.40462926323852)"/>
<path d="M0,-151 L0,-159" stroke="#666" stroke-width="1" transform="rotate(166.37224216290855)"/>
<path d="M0,-151 L0,-159" stroke="#666" stroke-width="1" transform="rotate(170.18611741630536)"/>
<path d="M0,-151 L0,-159" stroke="#666" stroke-width="1" transform="rotate(174.06715841540307)"/>
<path d="M0,-151 L0,-159" stroke="#666" stroke-width="1" transform="rotate(177.95150563756997)"/>
<path d="M0,-151 L0,-159" stroke="#666" stroke-width="1" transform="rotate(181.82112470908012)"/>
<path d="M0,-151 L0,-159" stroke="#666" stroke-width="1" transform="rotate(185.65723106185223)"/>
<path d="M0,-151 L0,-159" stroke="#666" stroke-width="1" transform="rotate(189.4966700416358)"/>
<path d="M0,-151 L0,-159" stroke="#666" stroke-width="1" transform="rotate(193.39194470261947)"/>
<path d="M0,-151 L0,-159" stroke="#666" stroke-width="1" transform="rotate(197.2340975345557)"/>
<path d="M0,-151 L0,-159" stroke="#666" stroke-width="1" transform="rotate(201.08607467217175)"/>
<path d="M0,-151 L0,-159" stroke="#666" stroke-width="1" transform="rotate(204.91003192749727)"/>
<path d="M0,-151 L0,-159" stroke="#666" stroke-width="1" transform="rotate(208.7720711485743)"/>
<path d="M0,-151 L0,-159" stroke="#666" stroke-width="1" transform="rotate(212.7142871108793)"/>
<path d="M0,-151 L0,-159" stroke="#666" stroke-width="1" transform="rotate(216.53008015304852)"/>
<path d="M0,-151 L0,-159" stroke="#666" stroke-width="1" transform="rotate(220.33804100148632)"/>
<path d="M0,-151 L0,-159" stroke="#666" stroke-width="1" transform="rotate(224.15771193363403)"/>
<path d="M0,-151 L0,-159" stroke="#666" stroke-width="1" transform="rotate(227.97192739020923)"/>
<path d="M0,-151 L0,-159" stroke="#666" stroke-width="1" transform="rotate(231.78975320731476)"/>
<path d="M0,-151 L0,-159" stroke="#666" stroke-width="1" transform="rotate(235.62496945556265)"/>
<path d="M0,-151 L0,-159" stroke="#666" stroke-width="1" transform="rotate(239.46572977619954)"/>
<path d="M0,-151 L0,-159" stroke="#666" stroke-width="1" transform="rotate(243.27472497313323)"/>
<path d="M0,-151 L0,-159" stroke="#666" stroke-width="1" transform="rotate(247.10145109045217)"/>
<path d="M0,-151 L0,-159" stroke="#666" stroke-width="1" transform="rotate(250.94151483157844)"/>
<path d="M0,-151 L0,-159" stroke="#666" stroke-width="1" transform="rotate(254.82563560896955)"/>
<path d="M0,-151 L0,-159" stroke="#666" stroke-width="1" transform="rotate(258.66115978763764)"/>
<path d="M0,-151 L0,-159" stroke="#666" stroke-width="1" transform="rotate(262.53251949236375)"/>
<path d="M0,-151 L0,-159" stroke="#666" stroke-width="1" transform="rotate(266.35171783218925)"/>
<path d="M0,-151 L0,-159" stroke="#666" stroke-width="1" transform="rotate(270.16394064743054)"/>
<path d="M0,-151 L0,-159" stroke="#666" stroke-width="1" transform="rotate(274.0336870058103)"/>
<path d="M0,-151 L0,-159" stroke="#666" stroke-width="1" transform="rotate(277.911580705762)"/>
<path d="M0,-151 L0,-159" stroke="#666" stroke-width="1" transform="rotate(281.8330590256324)"/>
<path d="M0,-151 L0,-159" stroke="#666" stroke-width="1" transform="rotate(285.6890307777109)"/>
<path d="M0,-151 L0,-159" stroke="#666" stroke-width="1" transform="rotate(289.6173701017798)"/>
<path d="M0,-151 L0,-159" stroke="#666" stroke-width="1" transform="rotate(293.42313583743413)"/>
<path d="M0,-151 L0,-159" stroke="#666" stroke-width="1" transform="rotate(297.2599315705361)"/>
<path d="M0,-151 L0,-159" stroke="#666" stroke-width="1" transform="rotate(301.09193079106154)"/>
<path d="M0,-151 L0,-159" stroke="#666" stroke-width="1" transform="rotate(305.1506774175278)"/>
<path d="M0,-151 L0,-159" stroke="#666" stroke-width="1" transform="rotate(309.0747793903643)"/>
<path d="M0,-151 L0,-159" stroke="#666" stroke-width="1" transform="rotate(312.98788874895274)"/>
<path d="M0,-151 L0,-159" stroke="#666" stroke-width="1" transform="rotate(317.04929002223594)"/>
<path d="M0,-151 L0,-159" stroke="#666" stroke-width="1" transform="rotate(321.1114892077327)"/>
<path d="M0,-151 L0,-159" stroke="#666" stroke-width="1" transform="rotate(324.9180352140142)"/>
<path d="M0,-151 L0,-159" stroke="#666" stroke-width="1" transform="rotate(329.50950761723385)"/>
<path d="M0,-151 L0,-159" stroke="#666" stroke-width="1" transform="rotate(333.33176963330425)"/>
<path d="M0,-151 L0,-159" stroke="#666" stroke-width="1" transform="rotate(337.2042806986347)"/>
<path d="M0,-145 L0,-150" stroke="#666" stroke-width="2" transform="rotate(37.430385718548976)"/>
<path d="M0,-145 L0,-150" stroke="#666" stroke-width="2" transform="rotate(56.44535195696603)"/>
<path d="M0,-145 L0,-150" stroke="#666" stroke-width="2" transform="rotate(75.4603181953831)"/>
<path d="M0,-145 L0,-150" stroke="#666" stroke-width="2" transform="rotate(94.47528443380016)"/>
<path d="M0,-145 L0,-150" stroke="#666" stroke-width="2" transform="rotate(113.49025067221721)"/>
<path d="M0,-145 L0,-150" stroke="#666" stroke-width="2" transform="rotate(132.50521691063426)"/>
<path d="M0,-145 L0,-150" stroke="#666" stroke-width="2" transform="rotate(151.52018314905132)"/>
<path d="M0,-145 L0,-150" stroke="#666" stroke-width="2" transform="rotate(170.53514938746838)"/>
<path d="M0,-145 L0,-150" stroke="#666" stroke-width="2" transform="rotate(189.55011562588544)"/>
<path d="M0,-145 L0,-150" stroke="#666" stroke-width="2" transform="rotate(208.56508186430253)"/>
<path d="M0,-145 L0,-150" stroke="#666" stroke-width="2" transform="rotate(227.5800481027196)"/>
<path d="M0,-145 L0,-150" stroke="#666" stroke-width="2" transform="rotate(246.59501434113665)"/>
<path d="M0,-145 L0,-150" stroke="#666" stroke-width="2" transform="rotate(265.60998057955373)"/>
<path d="M0,-145 L0,-150" stroke="#666" stroke-width="2" transform="rotate(284.62494681797074)"/>
<path d="M0,-145 L0,-150" stroke="#666" stroke-width="2" transform="rotate(303.6399130563878)"/>
<path d="M0,-145 L0,-150" stroke="#666" stroke-width="2" transform="rotate(322.65487929480486)"/>
</g>
<g transform="translate(180, 180)">
<text text-anchor="middle" x="57.11736393538668" y="-156.9286676712467">
Start
</text>
<text text-anchor="start" x="141.24044629506352" y="-89.10744262053129">
K1
</text>
<text text-anchor="start" x="155.5549488931439" y="65.7590147620202">
K2
</text>
<text text-anchor="middle" x="-40.784660836489024" y="171.94323524140353">
K3
</text>
<text text-anchor="middle" x="-57.139028658075475" y="-156.92078066340235">
K4
</text>
<text text-anchor="end" x="86.91497913091301" y="-103.55521301407943">
 9
</text>
<text text-anchor="end" x="119.17033869036376" y="-69.04068810697432">
10
</text>
<text text-anchor="end" x="138.42028206871623" y="-30.90021604415542">
11
</text>
<text text-anchor="end" x="142.56400525845194" y="16.158154178361606">
12
</text>
<text text-anchor="end" x="131.14929133030793" y="56.99880159756006">
13
</text>
<text text-anchor="end" x="105.42186222193361" y="96.61899898912039">
14
</text>
<text text-anchor="end" x="68.18942936975844" y="125.69487548116957">
15
</text>
<text text-anchor="middle" x="23.515279746016994" y="141.0532935399474">
16
</text>
<text text-anchor="middle" x="-23.725162825053566" y="141.01814297786188">
17
</text>
<text text-anchor="start" x="-68.37640727941955" y="125.59325988108972">
18
</text>
<text text-anchor="start" x="-105.56552950261792" y="96.46200796599615">
19
</text>
<text text-anchor="start" x="-131.23396914114414" y="56.80356805220269">
20
</text>
<text text-anchor="start" x="-142.58045245618806" y="15.94598453263558">
21
</text>
<text text-anchor="start" x="-138.3667037213757" y="-31.106167080999327">
22
</text>
<text text-anchor="start" x="-119.052581963551" y="-69.21794448110839">
23
</text>
<text text-anchor="start" x="-86.74589516910873" y="-103.6844302062072">
Sat
</text>
</g>
</g>
<circle cx="180" cy="180" fill="#333" r="5"/>
</g>
</svg>