<svg height="400" viewBox="(0, 0, 400, 400)" width="400" xmlns="http://www.w3.org/2000/svg">
<path d="M198.0,378.5 L197.9,376.5 L199.4,375.1 L199.4,374.4 L197.3,374.3 L194.1,371.2 L194.8,370.2 L193.4,368.6 L193.2,364.7 L192.1,363.1 L193.2,358.6 L191.0,356.5 L189.3,356.2 L187.0,352.9 L186.4,349.4 L187.0,347.0 L186.1,348.8 L184.3,348.3 L184.2,347.5 L179.8,344.4 L179.1,341.9 L179.7,340.7 L177.4,342.3 L173.4,340.7 L176.8,340.3 L177.5,338.7 L175.8,339.5 L172.3,338.2 L170.4,336.3 L168.7,336.9 L164.4,335.1 L160.0,332.1 L158.7,329.5 L161.6,327.8 L162.2,326.1 L168.0,319.3 L171.0,317.6 L171.6,313.6 L174.9,312.9 L176.4,311.0 L185.3,314.2 L183.9,312.9 L186.4,310.7 L184.9,309.8 L185.6,309.9 L185.2,308.1 L184.1,307.3 L187.8,305.7 L187.4,302.5 L189.3,300.5 L190.1,298.2 L189.1,295.7 L190.2,293.6 L195.7,289.0 L194.3,283.8 L191.1,279.1 L188.4,278.9 L185.5,277.0 L182.4,277.1 L183.1,274.8 L186.9,274.5 L187.9,273.7 L186.0,269.7 L188.7,267.9 L188.1,265.2 L190.0,261.3 L188.0,263.4 L186.8,266.9 L182.8,267.9 L185.0,266.2 L186.5,261.1 L188.4,258.0 L189.9,257.0 L193.2,256.6 L195.1,253.6 L195.1,251.1 L200.3,247.1 L202.5,246.5 L201.6,244.8 L198.7,243.4 L196.0,239.5 L193.2,237.6 L193.0,235.8 L192.2,236.0 L190.5,233.5 L187.9,232.3 L187.4,230.3 L186.2,231.5 L182.6,232.0 L180.0,228.7 L179.7,230.5 L177.5,232.2 L176.1,230.8 L175.2,225.4 L174.4,224.3 L172.9,223.7 L172.7,224.8 L170.8,225.3 L166.8,223.9 L167.9,216.9 L169.5,214.8 L166.2,214.3 L164.8,212.9 L165.1,210.4 L167.0,207.9 L163.2,204.7 L164.7,196.3 L167.8,197.4 L170.1,199.5 L170.8,202.3 L174.5,201.3 L175.1,202.3 L176.7,201.1 L178.0,202.1 L179.5,201.0 L181.3,201.3 L182.1,202.4 L182.5,200.3 L183.9,199.6 L187.7,202.9 L191.8,202.8 L192.5,203.4 L195.0,202.3 L201.3,204.4 L205.0,204.3 L213.0,201.7 L215.0,202.5 L216.3,201.7 L218.1,203.1 L220.5,200.4 L224.3,200.2 L228.6,197.1 L236.1,195.3 L238.7,193.6 L239.6,192.6 L240.4,188.1 L244.9,187.9 L242.7,183.3 L242.9,180.6 L241.9,178.1 L238.2,175.3 L238.5,172.9 L237.5,170.9 L237.5,168.0 L239.0,166.1 L238.5,164.2 L235.2,161.5 L236.4,155.7 L239.5,152.5 L238.7,150.6 L239.2,149.5 L242.2,148.6 L242.7,147.6 L241.7,146.2 L241.1,142.7 L243.2,140.9 L242.8,138.4 L240.3,137.5 L237.4,138.9 L238.1,136.0 L241.1,131.9 L240.6,128.2 L238.4,127.5 L238.0,125.3 L235.5,124.0 L234.6,121.6 L232.2,120.5 L230.3,118.0 L229.8,115.8 L228.0,115.3 L227.3,113.7 L226.5,114.0 L223.3,112.4 L222.1,110.6 L222.1,110.0 L223.3,109.7 L223.2,107.7 L224.4,107.1 L224.2,105.4 L225.7,104.3 L227.1,104.8 L226.9,104.1 L223.8,104.2 L222.9,106.0 L216.6,107.9 L215.7,106.8 L214.4,106.9 L214.4,101.9 L215.3,100.1 L214.7,99.3 L215.7,94.8 L213.0,85.7 L211.3,84.6 L208.4,84.1 L206.0,82.0 L203.0,81.8 L204.5,78.5 L206.9,76.2 L205.2,76.3 L207.2,74.3 L209.3,75.3 L210.3,74.2 L210.0,72.8 L211.6,72.8 L214.6,69.8 L217.5,68.7 L218.5,67.4 L218.6,65.1 L220.5,63.6 L228.1,62.0 L227.3,59.5 L228.1,62.0 L227.5,62.3 L226.3,60.4 L223.9,60.8 L221.7,59.1 L219.0,59.3 L216.4,58.1 L214.5,59.4 L213.7,58.5 L211.3,57.8 L211.1,56.8 L207.6,57.5 L205.7,59.1 L202.7,55.3 L200.9,55.1 L196.9,52.9 L194.6,53.2 L190.3,43.9 L192.8,41.1 L190.2,41.5 L187.8,39.6 L182.5,40.1 L179.1,38.1 L173.3,36.9 L171.3,34.9 L168.5,29.2 L167.1,27.5 L166.4,27.5 L164.7,23.9 L158.3,21.5 L155.1,22.4" fill="transparent" id="track" stroke="black" stroke-linejoin="miter" stroke-miterlimit="1" stroke-width="2"/>
<g>
<g>
<circle cx="202.32920698735688" cy="246.230216877957" fill="Blue" id="9/wp/circle" r="5"/>
</g>
<g transform="translate(202.32920698735688 246.230216877957)">
<rect fill="white" fill-opacity="0.75" height="10" id="label-bg" width="14.875131578947371" x="4" y="-14"/>
<rect fill="none" height="14" id="label-dbg" stroke="blue" stroke-width="2" width="18.87513157894737" x="2" y="-16"/>
<text font-size="14.0" font-style="normal" font-weight="bold" id="9/wp/text" text-anchor="start" x="4.000" y="-4.000">
K3
</text>
</g>
<g>
<circle cx="176.57066646921248" cy="63.88672185377436" fill="Black" id="10/wp/circle" r="5"/>
<circle cx="176.57066646921248" cy="63.88672185377436" fill="white" id="10/wp/circle-little-white" r="3.5"/>
<circle cx="176.57066646921248" cy="63.88672185377436" fill="black" id="10/wp/circle-little-white" r="2.5"/>
</g>
<g transform="translate(176.57066646921248 63.88672185377436)">
<rect fill="white" fill-opacity="0.75" height="10" id="label-bg" width="91.19631578947369" x="-95.19631578947369" y="-14"/>
<rect fill="none" height="14" id="label-dbg" stroke="blue" stroke-width="2" width="95.19631578947369" x="-97.19631578947369" y="-16"/>
<text font-size="14.0" font-style="normal" font-weight="bold" id="10/wp/text" text-anchor="end" x="-4.000" y="-4.000">
Baden-Baden
</text>
</g>
<g>
<circle cx="228.06009902752976" cy="61.95013416321672" fill="Black" id="11/wp/circle" r="5"/>
<circle cx="228.06009902752976" cy="61.95013416321672" fill="white" id="11/wp/circle-little-white" r="3.5"/>
<circle cx="228.06009902752976" cy="61.95013416321672" fill="black" id="11/wp/circle-little-white" r="2.5"/>
</g>
<g transform="translate(228.06009902752976 61.95013416321672)">
<rect fill="white" fill-opacity="0.75" height="10" id="label-bg" width="72.59473684210528" x="4" y="-14"/>
<rect fill="none" height="14" id="label-dbg" stroke="blue" stroke-width="2" width="76.59473684210528" x="2" y="-16"/>
<text font-size="14.0" font-style="normal" font-weight="bold" id="11/wp/text" text-anchor="start" x="4.000" y="-4.000">
Gernsbach
</text>
</g>
<g>
<circle cx="240.8008488179621" cy="129.62253905253965" fill="Black" id="12/wp/circle" r="4"/>
<circle cx="240.8008488179621" cy="129.62253905253965" fill="white" id="12/wp/circle-little-white" r="2.5"/>
</g>
<g transform="translate(240.8008488179621 129.62253905253965)">
<rect fill="white" fill-opacity="0.75" height="9" id="label-bg" width="43.723684210526315" x="4" y="-13"/>
<rect fill="none" height="13" id="label-dbg" stroke="blue" stroke-width="2" width="47.723684210526315" x="2" y="-15"/>
<text font-size="13.0" font-style="normal" font-weight="normal" id="12/wp/text" text-anchor="start" x="4.000" y="-4.000">
Forbach
</text>
</g>
<g>
<circle cx="158.67702830755206" cy="329.45423320607733" fill="Black" id="13/wp/circle" r="4"/>
<circle cx="158.67702830755206" cy="329.45423320607733" fill="white" id="13/wp/circle-little-white" r="2.5"/>
</g>
<g transform="translate(158.67702830755206 329.45423320607733)">
<rect fill="white" fill-opacity="0.75" height="9" id="label-bg" width="74.35921052631579" x="-78.35921052631579" y="-13"/>
<rect fill="none" height="13" id="label-dbg" stroke="blue" stroke-width="2" width="78.35921052631579" x="-80.35921052631579" y="-15"/>
<text font-size="13.0" font-style="normal" font-weight="normal" id="13/wp/text" text-anchor="end" x="-4.000" y="-4.000">
Bad Peterstal
</text>
</g>
<g>
<circle cx="173.9548130887115" cy="313.10597314636107" fill="Black" id="14/wp/circle" r="4"/>
<circle cx="173.9548130887115" cy="313.10597314636107" fill="white" id="14/wp/circle-little-white" r="2.5"/>
</g>
<g transform="translate(173.9548130887115 313.10597314636107)">
<rect fill="white" fill-opacity="0.75" height="9" id="label-bg" width="82.28750000000002" x="-86.28750000000002" y="-13"/>
<rect fill="none" height="13" id="label-dbg" stroke="blue" stroke-width="2" width="86.28750000000002" x="-88.28750000000002" y="-15"/>
<text font-size="13.0" font-style="normal" font-weight="normal" id="14/wp/text" text-anchor="end" x="-4.000" y="-4.000">
Bad Griesbach
</text>
</g>
<g>
<circle cx="167.3068964417107" cy="27.656871291594143" fill="Black" id="15/wp/circle" r="4"/>
<circle cx="167.3068964417107" cy="27.656871291594143" fill="white" id="15/wp/circle-little-white" r="2.5"/>
</g>
<g transform="translate(167.3068964417107 27.656871291594143)">
<rect fill="white" fill-opacity="0.75" height="9" id="label-bg" width="88.29144736842105" x="-92.29144736842105" y="4"/>
<rect fill="none" height="13" id="label-dbg" stroke="blue" stroke-width="2" width="92.29144736842105" x="-94.29144736842105" y="2"/>
<text font-size="13.0" font-style="normal" font-weight="normal" id="15/wp/text" text-anchor="end" x="-4.000" y="13.000">
Haueneberstein
</text>
</g>
<g>
<circle cx="202.17029601584" cy="245.9406366379153" fill="Black" id="16/wp/circle" r="4"/>
<circle cx="202.17029601584" cy="245.9406366379153" fill="white" id="16/wp/circle-little-white" r="2.5"/>
</g>
<g transform="translate(202.17029601584 245.9406366379153)">
<rect fill="white" fill-opacity="0.75" height="9" id="label-bg" width="39.64407894736843" x="4" y="4"/>
<rect fill="none" height="13" id="label-dbg" stroke="blue" stroke-width="2" width="43.64407894736843" x="2" y="2"/>
<text font-size="13.0" font-style="normal" font-weight="normal" id="16/wp/text" text-anchor="start" x="4.000" y="13.000">
Obertal
</text>
</g>
<g>
<circle cx="230.73593444341896" cy="118.60367345450504" fill="Black" id="17/wp/circle" r="4"/>
<circle cx="230.73593444341896" cy="118.60367345450504" fill="white" id="17/wp/circle-little-white" r="2.5"/>
</g>
<g transform="translate(230.73593444341896 118.60367345450504)">
<rect fill="white" fill-opacity="0.75" height="9" id="label-bg" width="73.89736842105265" x="-77.89736842105265" y="4"/>
<rect fill="none" height="13" id="label-dbg" stroke="blue" stroke-width="2" width="77.89736842105265" x="-79.89736842105265" y="2"/>
<text font-size="13.0" font-style="normal" font-weight="normal" id="17/wp/text" text-anchor="end" x="-4.000" y="13.000">
Bermersbach
</text>
</g>
<g>
<circle cx="211.87050954227198" cy="57.99041459095315" fill="Black" id="19/wp/circle" r="4"/>
<circle cx="211.87050954227198" cy="57.99041459095315" fill="white" id="19/wp/circle-little-white" r="2.5"/>
</g>
<g transform="translate(211.87050954227198 57.99041459095315)">
<rect fill="white" fill-opacity="0.75" height="9" id="label-bg" width="68.12434210526315" x="-34.06217105263158" y="-36"/>
<rect fill="none" height="13" id="label-dbg" stroke="blue" stroke-width="2" width="72.12434210526315" x="-36.06217105263158" y="-38"/>
<text font-size="13.0" font-style="normal" font-weight="normal" id="19/wp/text" text-anchor="start" x="-34.062" y="-27.000">
Staufenberg
</text>
</g>
<path d="M211.87,38.99 L211.87,51.99" id="link" stroke="black" stroke-linejoin="miter" stroke-miterlimit="1" stroke-width="0.5"/>
<g>
<circle cx="243.26584591370556" cy="187.99736567048603" fill="Black" id="20/wp/circle" r="4"/>
<circle cx="243.26584591370556" cy="187.99736567048603" fill="white" id="20/wp/circle-little-white" r="2.5"/>
</g>
<g transform="translate(243.26584591370556 187.99736567048603)">
<rect fill="white" fill-opacity="0.75" height="9" id="label-bg" width="85.82828947368422" x="4" y="-13"/>
<rect fill="none" height="13" id="label-dbg" stroke="blue" stroke-width="2" width="89.82828947368422" x="2" y="-15"/>
<text font-size="13.0" font-style="normal" font-weight="normal" id="20/wp/text" text-anchor="start" x="4.000" y="-4.000">
Schönmünzach
</text>
</g>
<g>
<circle cx="195.69962626796223" cy="289.0114508085244" fill="Green" id="21/wp/circle" r="3"/>
</g>
<g transform="translate(195.69962626796223 289.0114508085244)">
<rect fill="white" fill-opacity="0.75" height="9" id="label-bg" width="94.24641148325355" x="4" y="-13"/>
<rect fill="none" height="13" id="label-dbg" stroke="blue" stroke-width="2" width="98.24641148325355" x="2" y="-15"/>
<text font-size="13.0" font-style="italic" font-weight="normal" id="21/wp/text" text-anchor="start" x="4.000" y="-4.000">
Alexanderschanze
</text>
</g>
<g>
<circle cx="164.63903457160995" cy="196.58935329590895" fill="Green" id="22/wp/circle" r="3"/>
</g>
<g transform="translate(164.63903457160995 196.58935329590895)">
<rect fill="white" fill-opacity="0.75" height="9" id="label-bg" width="62.6872009569378" x="4" y="-13"/>
<rect fill="none" height="13" id="label-dbg" stroke="blue" stroke-width="2" width="66.6872009569378" x="2" y="-15"/>
<text font-size="13.0" font-style="italic" font-weight="normal" id="22/wp/text" text-anchor="start" x="4.000" y="-4.000">
Seibelseckle
</text>
</g>
<g>
<circle cx="166.9477480186988" cy="223.98800622981798" fill="Green" id="23/wp/circle" r="3"/>
</g>
<g transform="translate(166.9477480186988 223.98800622981798)">
<rect fill="white" fill-opacity="0.75" height="9" id="label-bg" width="49.11184210526316" x="-53.11184210526316" y="4"/>
<rect fill="none" height="13" id="label-dbg" stroke="blue" stroke-width="2" width="53.11184210526316" x="-55.11184210526316" y="2"/>
<text font-size="13.0" font-style="italic" font-weight="normal" id="23/wp/text" text-anchor="end" x="-4.000" y="13.000">
Ruhestein
</text>
</g>
<g>
<circle cx="179.20483697529835" cy="342.31313339158805" fill="Green" id="24/wp/circle" r="3"/>
</g>
<g transform="translate(179.20483697529835 342.31313339158805)">
<rect fill="white" fill-opacity="0.75" height="9" id="label-bg" width="57.01913875598086" x="4" y="-13"/>
<rect fill="none" height="13" id="label-dbg" stroke="blue" stroke-width="2" width="61.01913875598086" x="2" y="-15"/>
<text font-size="13.0" font-style="italic" font-weight="normal" id="24/wp/text" text-anchor="start" x="4.000" y="-4.000">
Freiersberg
</text>
</g>
<g>
<circle cx="219.06591419774577" cy="107.1673627336495" fill="Green" id="25/wp/circle" r="3"/>
</g>
<g transform="translate(219.06591419774577 107.1673627336495)">
<rect fill="white" fill-opacity="0.75" height="9" id="label-bg" width="55.75956937799043" x="-82.75956937799043" y="-4.5"/>
<rect fill="none" height="13" id="label-dbg" stroke="blue" stroke-width="2" width="59.75956937799043" x="-84.75956937799043" y="-6.5"/>
<text font-size="13.0" font-style="italic" font-weight="normal" id="25/wp/text" text-anchor="end" x="-27.000" y="4.500">
Rote Lache
</text>
</g>
<path d="M200.07,107.17 L213.07,107.17" id="link" stroke="black" stroke-linejoin="miter" stroke-miterlimit="1" stroke-width="0.5"/>
<g>
<circle cx="227.0827283125982" cy="104.80405158247231" fill="Green" id="26/wp/circle" r="3"/>
</g>
<g transform="translate(227.0827283125982 104.80405158247231)">
<rect fill="white" fill-opacity="0.75" height="9" id="label-bg" width="40.92464114832536" x="4" y="-13"/>
<rect fill="none" height="13" id="label-dbg" stroke="blue" stroke-width="2" width="44.92464114832536" x="2" y="-15"/>
<text font-size="13.0" font-style="italic" font-weight="normal" id="26/wp/text" text-anchor="start" x="4.000" y="-4.000">
Hartkopf
</text>
</g>
<g>
<circle cx="209.27487793969885" cy="75.28080306757693" fill="Green" id="27/wp/circle" r="3"/>
</g>
<g transform="translate(209.27487793969885 75.28080306757693)">
<rect fill="white" fill-opacity="0.75" height="9" id="label-bg" width="47.64234449760767" x="27" y="-4.5"/>
<rect fill="none" height="13" id="label-dbg" stroke="blue" stroke-width="2" width="51.64234449760767" x="25" y="-6.5"/>
<text font-size="13.0" font-style="italic" font-weight="normal" id="27/wp/text" text-anchor="start" x="27.000" y="4.500">
Nachtigall
</text>
</g>
<path d="M228.27,75.28 L215.27,75.28" id="link" stroke="black" stroke-linejoin="miter" stroke-miterlimit="1" stroke-width="0.5"/>
<g>
<circle cx="120.6836289720568" cy="117.32486161456109" fill="Black" id="29/wp/circle" r="5"/>
<circle cx="120.6836289720568" cy="117.32486161456109" fill="white" id="29/wp/circle-little-white" r="3.5"/>
<circle cx="120.6836289720568" cy="117.32486161456109" fill="black" id="29/wp/circle-little-white" r="2.5"/>
</g>
<g transform="translate(120.6836289720568 117.32486161456109)">
<rect fill="white" fill-opacity="0.75" height="10" id="label-bg" width="26.911447368421058" x="-30.911447368421058" y="-14"/>
<rect fill="none" height="14" id="label-dbg" stroke="blue" stroke-width="2" width="30.911447368421058" x="-32.91144736842106" y="-16"/>
<text font-size="14.0" font-style="normal" font-weight="bold" id="29/wp/text" text-anchor="end" x="-4.000" y="-4.000">
Bühl
</text>
</g>
<g>
<circle cx="267.2376092368613" cy="302.0122813843882" fill="Black" id="31/wp/circle" r="5"/>
<circle cx="267.2376092368613" cy="302.0122813843882" fill="white" id="31/wp/circle-little-white" r="3.5"/>
<circle cx="267.2376092368613" cy="302.0122813843882" fill="black" id="31/wp/circle-little-white" r="2.5"/>
</g>
<g transform="translate(267.2376092368613 302.0122813843882)">
<rect fill="white" fill-opacity="0.75" height="10" id="label-bg" width="87.64013157894739" x="4" y="4"/>
<rect fill="none" height="14" id="label-dbg" stroke="blue" stroke-width="2" width="91.64013157894739" x="2" y="2"/>
<text font-size="14.0" font-style="normal" font-weight="bold" id="31/wp/text" text-anchor="start" x="4.000" y="14.000">
Freudenstadt
</text>
</g>
<g>
<circle cx="246.5001058778189" cy="267.5141843287165" fill="Black" id="33/wp/circle" r="5"/>
<circle cx="246.5001058778189" cy="267.5141843287165" fill="white" id="33/wp/circle-little-white" r="3.5"/>
<circle cx="246.5001058778189" cy="267.5141843287165" fill="black" id="33/wp/circle-little-white" r="2.5"/>
</g>
<g transform="translate(246.5001058778189 267.5141843287165)">
<rect fill="white" fill-opacity="0.75" height="10" id="label-bg" width="80.2542105263158" x="4" y="-14"/>
<rect fill="none" height="14" id="label-dbg" stroke="blue" stroke-width="2" width="84.2542105263158" x="2" y="-16"/>
<text font-size="14.0" font-style="normal" font-weight="bold" id="33/wp/text" text-anchor="start" x="4.000" y="-4.000">
Baiersbronn
</text>
</g>
<g>
<circle cx="184.31026072266195" cy="10.702930505736731" fill="Black" id="34/wp/circle" r="5"/>
<circle cx="184.31026072266195" cy="10.702930505736731" fill="white" id="34/wp/circle-little-white" r="3.5"/>
<circle cx="184.31026072266195" cy="10.702930505736731" fill="black" id="34/wp/circle-little-white" r="2.5"/>
</g>
<g transform="translate(184.31026072266195 10.702930505736731)">
<rect fill="white" fill-opacity="0.75" height="10" id="label-bg" width="82.53381578947369" x="4" y="-5"/>
<rect fill="none" height="14" id="label-dbg" stroke="blue" stroke-width="2" width="86.53381578947369" x="2" y="-7"/>
<text font-size="14.0" font-style="normal" font-weight="bold" id="34/wp/text" text-anchor="start" x="4.000" y="5.000">
Kuppenheim
</text>
</g>
<g>
<circle cx="281.5795270330191" cy="33.36550360990441" fill="Black" id="35/wp/circle" r="5"/>
<circle cx="281.5795270330191" cy="33.36550360990441" fill="white" id="35/wp/circle-little-white" r="3.5"/>
<circle cx="281.5795270330191" cy="33.36550360990441" fill="black" id="35/wp/circle-little-white" r="2.5"/>
</g>
<g transform="translate(281.5795270330191 33.36550360990441)">
<rect fill="white" fill-opacity="0.75" height="10" id="label-bg" width="94.75250000000003" x="4" y="-14"/>
<rect fill="none" height="14" id="label-dbg" stroke="blue" stroke-width="2" width="98.75250000000003" x="2" y="-16"/>
<text font-size="14.0" font-style="normal" font-weight="bold" id="35/wp/text" text-anchor="start" x="4.000" y="-4.000">
Bad Herrenalb
</text>
</g>
<g>
<circle cx="263.07277095885456" cy="396.2750905530447" fill="Black" id="36/wp/circle" r="5"/>
<circle cx="263.07277095885456" cy="396.2750905530447" fill="white" id="36/wp/circle-little-white" r="3.5"/>
<circle cx="263.07277095885456" cy="396.2750905530447" fill="black" id="36/wp/circle-little-white" r="2.5"/>
</g>
<g transform="translate(263.07277095885456 396.2750905530447)">
<rect fill="white" fill-opacity="0.75" height="10" id="label-bg" width="68.58263157894737" x="4" y="-14"/>
<rect fill="none" height="14" id="label-dbg" stroke="blue" stroke-width="2" width="72.58263157894737" x="2" y="-16"/>
<text font-size="14.0" font-style="normal" font-weight="bold" id="36/wp/text" text-anchor="start" x="4.000" y="-4.000">
Alpirsbach
</text>
</g>
<g>
<circle cx="136.70010322263443" cy="292.91307546668395" fill="Black" id="37/wp/circle" r="5"/>
<circle cx="136.70010322263443" cy="292.91307546668395" fill="white" id="37/wp/circle-little-white" r="3.5"/>
<circle cx="136.70010322263443" cy="292.91307546668395" fill="black" id="37/wp/circle-little-white" r="2.5"/>
</g>
<g transform="translate(136.70010322263443 292.91307546668395)">
<rect fill="white" fill-opacity="0.75" height="10" id="label-bg" width="60.284868421052636" x="-64.28486842105264" y="-14"/>
<rect fill="none" height="14" id="label-dbg" stroke="blue" stroke-width="2" width="64.28486842105264" x="-66.28486842105264" y="-16"/>
<text font-size="14.0" font-style="normal" font-weight="bold" id="37/wp/text" text-anchor="end" x="-4.000" y="-4.000">
Oppenau
</text>
</g>
<g>
<circle cx="193.34146849045283" cy="367.5437568847883" fill="Gray" id="0/wp/circle" r="2" stroke="black" stroke-width="2"/>
</g>
<g>
<circle cx="181.789909037906" cy="345.7646978912344" fill="Gray" id="1/wp/circle" r="2" stroke="black" stroke-width="2"/>
</g>
<g>
<circle cx="184.5677889076469" cy="313.9081130437735" fill="Gray" id="2/wp/circle" r="2" stroke="black" stroke-width="2"/>
</g>
<g>
<circle cx="188.58772322148616" cy="301.23172587348745" fill="Gray" id="3/wp/circle" r="2" stroke="black" stroke-width="2"/>
</g>
<g>
<circle cx="187.9063047790214" cy="232.26997880270937" fill="Gray" id="4/wp/circle" r="2" stroke="black" stroke-width="2"/>
</g>
<g>
<circle cx="164.8830655228321" cy="206.1583892255876" fill="Gray" id="5/wp/circle" r="2" stroke="black" stroke-width="2"/>
</g>
<g>
<circle cx="226.52503918964976" cy="113.95058618528128" fill="Gray" id="6/wp/circle" r="2" stroke="black" stroke-width="2"/>
</g>
<g>
<circle cx="204.3103648723818" cy="78.86627541185226" fill="Gray" id="7/wp/circle" r="2" stroke="black" stroke-width="2"/>
</g>
<g>
<circle cx="209.5796613937182" cy="57.08396884168178" fill="Gray" id="8/wp/circle" r="2" stroke="black" stroke-width="2"/>
</g>
</g>
</svg>