<svg height="400" width="1420" xmlns="http://www.w3.org/2000/svg">
<g font-family="ui-serif" font-size="20" id="world" shape-rendering="crispEdges" transform="translate(5 5)">
<g id="BG"/>
<g id="SL" transform="translate(50 360) scale(-1 -1)">
<text text-anchor="end" transform="translate(10 -5) scale(-1 -1)">
0
</text>
<text text-anchor="end" transform="translate(10 67) scale(-1 -1)">
200
</text>
<text text-anchor="end" transform="translate(10 139) scale(-1 -1)">
400
</text>
<text text-anchor="end" transform="translate(10 211) scale(-1 -1)">
600
</text>
<text text-anchor="end" transform="translate(10 283) scale(-1 -1)">
800
</text>
</g>
<g id="SB" transform="translate(50 360)">
<text text-anchor="middle" transform="translate(0 25)">
80
</text>
<text text-anchor="middle" transform="translate(192 25)">
100
</text>
<text text-anchor="middle" transform="translate(385 25)">
120
</text>
<text text-anchor="middle" transform="translate(578 25)">
140
</text>
<text text-anchor="middle" transform="translate(771 25)">
160
</text>
<text text-anchor="middle" transform="translate(964 25)">
180
</text>
<text text-anchor="middle" transform="translate(1157 25)">
200
</text>
</g>
<g id="SD" transform="translate(50 360) scale(1 -1) scale(1 1)">
<path d="M0,0 L0,360 L1350,360 L1350,0 L0,0" fill="lightgray" id="bg"/>
<path d="M0,0 L1350,0" stroke="black" stroke-width="3"/>
<path d="M0,0 L0,360" stroke="black" stroke-width="3"/>
<path d="M0,360 L1350,360" stroke="black" stroke-width="3"/>
<path d="M1350,0 L1350,360" stroke="black" stroke-width="3"/>
<path d="M0,0 L0,360" stroke="black" stroke-width="1"/>
<path d="M192,0 L192,360" stroke="black" stroke-width="1"/>
<path d="M385,0 L385,360" stroke="black" stroke-width="1"/>
<path d="M578,0 L578,360" stroke="black" stroke-width="1"/>
<path d="M771,0 L771,360" stroke="black" stroke-width="1"/>
<path d="M964,0 L964,360" stroke="black" stroke-width="1"/>
<path d="M1157,0 L1157,360" stroke="black" stroke-width="1"/>
<path d="M96,0 L96,360" stroke="black" stroke-dasharray="1.0,2.5,5.0,5.0,10.0,5.0"/>
<path d="M289,0 L289,360" stroke="black" stroke-dasharray="1.0,2.5,5.0,5.0,10.0,5.0"/>
<path d="M482,0 L482,360" stroke="black" stroke-dasharray="1.0,2.5,5.0,5.0,10.0,5.0"/>
<path d="M675,0 L675,360" stroke="black" stroke-dasharray="1.0,2.5,5.0,5.0,10.0,5.0"/>
<path d="M867,0 L867,360" stroke="black" stroke-dasharray="1.0,2.5,5.0,5.0,10.0,5.0"/>
<path d="M1060,0 L1060,360" stroke="black" stroke-dasharray="1.0,2.5,5.0,5.0,10.0,5.0"/>
<path d="M1253,0 L1253,360" stroke="black" stroke-dasharray="1.0,2.5,5.0,5.0,10.0,5.0"/>
<path d="M0,0 L1350,0" stroke="black" stroke-width="1"/>
<path d="M0,72 L1350,72" stroke="black" stroke-width="1"/>
<path d="M0,144 L1350,144" stroke="black" stroke-width="1"/>
<path d="M0,216 L1350,216" stroke="black" stroke-width="1"/>
<path d="M0,288 L1350,288" stroke="black" stroke-width="1"/>
<path d="M0,36 L1350,36" stroke="black" stroke-dasharray="1.0,2.5,5.0,5.0,10.0,5.0"/>
<path d="M0,108 L1350,108" stroke="black" stroke-dasharray="1.0,2.5,5.0,5.0,10.0,5.0"/>
<path d="M0,180 L1350,180" stroke="black" stroke-dasharray="1.0,2.5,5.0,5.0,10.0,5.0"/>
<path d="M0,252 L1350,252" stroke="black" stroke-dasharray="1.0,2.5,5.0,5.0,10.0,5.0"/>
<path d="M0,324 L1350,324" stroke="black" stroke-dasharray="1.0,2.5,5.0,5.0,10.0,5.0"/>
<path d="M0,175 L0,175 L1,177 L1,177 L1,177 L3,186 L3,190 L4,190 L4,191 L4,191 L4,191 L5,191 L5,191 L5,191 L5,192 L5,192 L5,192 L5,192 L5,193 L5,193 L6,194 L6,195 L6,196 L6,196 L7,198 L7,199 L7,201 L8,202 L8,203 L8,204 L8,204 L9,206 L9,208 L9,210 L11,217 L11,218 L11,220 L11,220 L12,221 L12,222 L13,222 L13,223 L14,224 L14,225 L14,225 L15,227 L15,227 L16,228 L16,230 L17,231 L17,233 L18,234 L18,234 L19,237 L19,238 L20,248 L21,252 L22,252 L22,251 L22,251 L23,252 L23,251 L23,251 L24,250 L25,247 L25,245 L25,244 L26,243 L26,242 L27,241 L27,241 L27,240 L27,240 L28,238 L28,238 L29,235 L29,235 L29,233 L30,232 L31,229 L31,229 L31,227 L31,226 L32,225 L32,224 L32,224 L32,224 L32,224 L33,223 L33,222 L33,222 L34,220 L35,212 L35,210 L36,209 L36,209 L36,209 L36,209 L37,209 L37,209 L37,209 L37,209 L37,209 L38,208 L38,208 L39,209 L40,206 L41,204 L41,205 L41,205 L41,205 L42,206 L43,208 L43,208 L43,212 L44,214 L45,217 L45,218 L45,220 L46,224 L46,226 L47,226 L47,229 L48,230 L48,230 L48,230 L48,231 L48,231 L48,233 L49,235 L49,236 L49,236 L50,243 L51,244 L51,245 L51,246 L51,248 L51,248 L52,248 L52,248 L52,249 L52,250 L53,250 L53,252 L53,254 L54,255 L54,255 L54,255 L55,256 L55,257 L55,258 L55,259 L55,259 L56,261 L57,264 L57,266 L58,267 L58,269 L58,270 L58,270 L59,271 L60,273 L60,274 L60,274 L61,275 L61,275 L61,275 L62,275 L62,275 L63,276 L64,279 L64,279 L64,279 L65,279 L66,279 L68,281 L69,281 L70,281 L71,281 L72,282 L72,282 L72,282 L72,282 L73,283 L73,283 L73,283 L73,283 L73,283 L74,284 L74,284 L74,284 L74,284 L75,285 L75,285 L75,286 L76,287 L76,288 L76,288 L77,287 L78,287 L78,287 L78,287 L78,287 L79,287 L79,287 L81,288 L82,288 L83,288 L83,286 L84,285 L84,282 L85,280 L85,278 L86,277 L86,277 L86,275 L87,275 L87,274 L88,274 L88,273 L88,272 L89,271 L90,269 L90,268 L91,268 L91,268 L91,268 L92,268 L92,267 L94,262 L95,260 L96,259 L96,258 L97,258 L97,258 L97,257 L98,257 L98,255 L98,254 L99,252 L99,252 L99,252 L100,251 L100,250 L100,249 L100,248 L101,248 L101,243 L102,242 L103,240 L103,240 L103,240 L103,240 L104,239 L104,238 L105,238 L105,237 L105,237 L105,236 L106,235 L106,234 L107,232 L107,231 L107,229 L107,228 L108,225 L108,224 L108,224 L109,221 L109,219 L109,218 L110,218 L110,216 L110,213 L111,210 L112,203 L112,200 L113,199 L113,199 L113,198 L113,197 L114,196 L114,196 L114,195 L114,195 L115,192 L115,191 L115,191 L116,190 L116,188 L116,188 L116,188 L117,188 L117,188 L117,188 L117,187 L118,186 L118,185 L119,184 L119,181 L120,177 L121,173 L121,172 L122,171 L122,170 L122,170 L122,169 L123,165 L124,164 L124,162 L125,159 L125,159 L125,159 L125,158 L126,155 L126,155 L127,152 L127,150 L128,150 L128,148 L129,145 L130,144 L130,144 L131,144 L131,144 L132,143 L132,143 L133,142 L134,137 L135,137 L135,135 L135,135 L136,135 L136,135 L137,128 L139,123 L139,123 L139,122 L139,122 L140,121 L140,121 L141,121 L141,120 L141,120 L141,120 L141,119 L141,119 L142,119 L142,119 L142,119 L143,119 L144,119 L144,119 L144,119 L144,119 L145,118 L145,118 L145,118 L145,118 L146,118 L146,117 L147,117 L147,117 L147,116 L147,115 L148,114 L148,114 L148,113 L149,113 L149,113 L149,113 L150,113 L150,112 L150,112 L150,112 L151,113 L151,113 L152,113 L152,113 L152,113 L152,113 L153,114 L153,114 L153,114 L154,115 L155,115 L155,115 L155,116 L155,116 L156,116 L156,116 L157,115 L158,116 L158,117 L159,117 L159,117 L160,117 L160,117 L160,117 L161,117 L162,117 L162,117 L163,117 L163,117 L163,117 L165,119 L165,120 L166,120 L166,120 L166,120 L166,120 L167,120 L167,121 L167,121 L168,121 L168,121 L169,121 L169,122 L169,122 L169,122 L170,122 L170,123 L171,123 L171,123 L172,124 L172,124 L172,124 L173,125 L174,125 L174,126 L175,126 L176,127 L177,128 L177,128 L178,128 L179,128 L179,128 L179,128 L180,129 L180,129 L181,130 L181,130 L181,131 L182,131 L182,131 L183,131 L183,131 L184,131 L184,131 L184,131 L185,131 L185,131 L186,130 L186,130 L186,130 L186,130 L188,131 L188,131 L188,131 L188,131 L189,131 L189,131 L190,132 L192,132 L192,132 L192,133 L193,133 L193,133 L193,134 L193,134 L194,134 L194,135 L195,135 L195,136 L196,137 L196,137 L197,137 L198,137 L198,137 L199,137 L199,137 L199,137 L200,138 L200,138 L200,139 L201,140 L201,141 L201,142 L202,143 L202,143 L202,143 L202,143 L203,144 L203,144 L203,143 L204,143 L204,142 L205,140 L205,140 L205,140 L205,140 L206,139 L206,140 L206,140 L206,140 L207,140 L207,141 L208,144 L208,144 L209,147 L209,148 L209,149 L209,149 L210,150 L211,151 L211,151 L212,152 L212,152 L214,156 L215,157 L215,158 L215,159 L216,159 L216,159 L216,159 L217,160 L217,160 L217,161 L217,161 L217,161 L218,162 L218,163 L219,164 L219,165 L220,166 L220,166 L220,166 L221,167 L221,167 L221,167 L221,168 L222,168 L222,168 L222,168 L222,169 L223,169 L223,169 L223,170 L224,170 L224,170 L224,171 L224,171 L224,171 L224,171 L225,172 L225,172 L225,172 L226,172 L226,172 L226,173 L226,173 L226,173 L226,173 L227,176 L227,176 L227,176 L228,180 L229,180 L229,180 L229,181 L229,182 L230,182 L230,182 L230,182 L231,182 L231,183 L232,184 L232,185 L232,186 L233,188 L233,190 L234,191 L235,194 L235,194 L235,195 L235,196 L235,196 L236,197 L236,197 L236,197 L237,199 L237,199 L237,199 L237,200 L237,200 L238,201 L238,201 L238,201 L239,201 L239,202 L239,203 L239,203 L240,203 L240,204 L240,205 L241,206 L241,207 L241,207 L242,209 L242,210 L242,210 L242,211 L242,211 L242,211 L243,212 L243,213 L244,214 L244,217 L245,218 L246,218 L246,219 L247,220 L247,220 L248,221 L248,221 L249,221 L249,223 L251,226 L251,226 L252,227 L252,228 L252,228 L252,228 L253,229 L253,230 L254,232 L254,236 L255,238 L256,238 L256,239 L256,239 L256,239 L256,239 L256,239 L257,239 L257,239 L257,239 L258,239 L258,240 L259,240 L259,240 L259,240 L259,240 L260,241 L260,241 L261,246 L261,246 L261,246 L261,246 L262,247 L262,248 L262,248 L262,248 L263,249 L264,253 L264,254 L264,255 L264,256 L265,256 L265,257 L265,257 L266,257 L266,258 L266,258 L266,258 L267,258 L267,258 L269,265 L270,266 L270,266 L270,267 L271,268 L271,269 L271,270 L272,271 L272,272 L273,272 L273,272 L273,272 L273,272 L273,272 L273,272 L274,272 L274,271 L274,269 L275,269 L275,269 L275,268 L275,267 L276,267 L276,267 L276,267 L276,267 L276,267 L277,266 L277,266 L279,263 L279,261 L280,260 L280,259 L280,259 L280,258 L281,257 L281,257 L281,256 L282,256 L282,255 L282,255 L282,254 L283,254 L283,254 L283,253 L284,250 L284,249 L285,247 L285,244 L285,244 L286,244 L286,243 L287,240 L287,240 L287,240 L287,240 L287,240 L288,239 L288,238 L289,238 L289,235 L290,235 L290,234 L291,231 L291,230 L292,227 L292,226 L293,225 L293,225 L293,224 L293,223 L294,223 L294,222 L295,221 L295,220 L295,220 L295,220 L295,220 L295,220 L296,218 L297,217 L297,214 L297,212 L298,212 L298,212 L298,208 L299,205 L299,204 L300,201 L300,201 L300,201 L300,199 L301,199 L301,199 L302,197 L302,195 L302,194 L303,192 L303,192 L304,191 L305,185 L306,176 L306,177 L307,176 L307,176 L307,176 L307,176 L308,175 L308,175 L308,174 L309,174 L309,174 L309,173 L309,173 L309,172 L310,171 L311,168 L311,168 L311,168 L311,166 L312,165 L312,164 L313,163 L313,161 L313,161 L313,161 L313,161 L314,161 L314,160 L314,160 L315,159 L315,159 L315,157 L316,156 L316,155 L317,154 L317,153 L318,152 L319,152 L319,151 L319,151 L320,151 L320,152 L321,151 L321,151 L321,151 L322,151 L322,151 L322,151 L322,151 L322,150 L323,151 L323,150 L323,150 L324,150 L324,149 L324,148 L325,146 L325,146 L325,146 L326,145 L326,145 L326,144 L326,144 L326,143 L327,143 L327,142 L327,141 L328,141 L328,141 L328,141 L328,141 L328,141 L328,141 L328,141 L328,141 L328,141 L329,141 L329,141 L329,141 L330,142 L331,143 L332,144 L332,144 L332,144 L332,144 L333,144 L333,145 L333,145 L333,145 L334,146 L335,147 L335,147 L335,147 L336,148 L336,148 L337,148 L337,149 L337,149 L338,149 L338,150 L338,150 L339,150 L339,150 L340,152 L340,152 L341,157 L343,156 L343,156 L343,156 L344,156 L344,156 L345,156 L345,156 L345,156 L345,156 L346,156 L346,156 L346,157 L346,157 L347,158 L347,159 L348,159 L348,160 L348,160 L348,161 L349,162 L349,162 L349,162 L349,162 L350,162 L350,162 L350,163 L351,163 L351,164 L352,164 L352,164 L352,164 L352,164 L353,164 L353,164 L354,164 L354,164 L355,164 L355,165 L356,165 L356,165 L357,166 L357,166 L357,166 L357,166 L357,166 L357,166 L358,166 L358,166 L358,166 L358,166 L358,166 L359,167 L360,167 L360,167 L360,168 L361,168 L361,168 L362,168 L362,168 L362,169 L362,169 L362,169 L363,169 L363,169 L363,170 L363,170 L363,170 L363,170 L364,171 L364,171 L365,172 L365,172 L365,173 L365,174 L365,174 L366,175 L366,175 L366,175 L367,176 L367,178 L368,179 L368,180 L369,184 L369,184 L370,188 L370,189 L371,190 L371,192 L372,192 L372,193 L372,195 L373,198 L374,202 L374,203 L375,203 L375,205 L376,206 L376,208 L377,210 L377,211 L377,211 L378,212 L378,213 L378,213 L379,213 L379,213 L379,213 L379,213 L379,213 L379,214 L380,215 L380,215 L380,215 L380,216 L381,220 L381,220 L381,221 L381,221 L382,224 L382,226 L383,227 L383,229 L383,231 L384,231 L384,231 L384,232 L384,232 L384,233 L385,233 L385,233 L385,234 L386,235 L386,235 L386,235 L386,235 L386,235 L387,237 L387,239 L389,247 L389,248 L389,249 L389,249 L390,249 L390,249 L390,249 L390,249 L390,249 L391,249 L391,249 L391,250 L392,251 L392,251 L392,251 L392,251 L393,252 L393,252 L393,252 L393,252 L393,252 L393,252 L393,252 L394,252 L394,252 L394,256 L396,263 L396,264 L396,265 L396,265 L397,267 L397,267 L398,267 L398,267 L398,267 L398,268 L399,269 L399,269 L399,269 L400,279 L401,280 L401,280 L401,280 L401,280 L401,280 L401,280 L402,281 L402,281 L403,281 L403,281 L403,281 L403,281 L403,281 L403,282 L403,282 L404,283 L405,290 L406,293 L406,294 L407,294 L407,295 L407,295 L408,296 L409,297 L410,300 L410,301 L411,303 L411,303 L411,303 L412,306 L413,313 L414,316 L415,316 L416,317 L416,318 L418,324 L419,326 L419,326 L419,326 L420,327 L420,328 L421,330 L422,332 L422,332 L423,335 L423,336 L424,338 L425,338 L425,339 L425,340 L427,341 L427,342 L428,343 L428,343 L430,344 L430,346 L431,346 L433,347 L433,347 L433,347 L434,347 L434,347 L434,347 L435,347 L435,347 L435,347 L435,347 L436,346 L436,346 L436,346 L436,346 L437,345 L437,345 L438,344 L438,344 L438,344 L438,344 L439,344 L441,341 L442,342 L442,342 L443,342 L443,342 L444,342 L444,342 L445,341 L445,341 L446,339 L446,339 L447,338 L449,338 L449,338 L449,338 L450,338 L450,338 L450,339 L451,339 L451,340 L452,340 L452,341 L452,341 L453,341 L453,341 L453,341 L454,341 L454,342 L455,342 L457,341 L457,342 L457,342 L458,342 L458,342 L459,343 L459,343 L460,343 L460,343 L461,343 L462,343 L462,343 L463,342 L463,342 L463,341 L465,339 L465,339 L465,339 L465,338 L466,338 L466,338 L466,338 L467,338 L467,338 L468,337 L471,330 L471,328 L472,327 L472,326 L472,326 L473,325 L473,324 L474,324 L474,324 L474,324 L474,323 L475,323 L475,323 L477,314 L477,312 L478,312 L478,311 L479,311 L479,310 L480,310 L480,309 L480,309 L481,309 L481,309 L481,309 L482,308 L482,309 L483,308 L484,307 L484,307 L484,307 L484,307 L485,306 L485,306 L485,305 L486,300 L487,299 L488,298 L488,298 L488,298 L490,295 L491,293 L493,286 L493,285 L493,285 L494,285 L494,285 L494,285 L494,285 L494,285 L494,285 L496,283 L498,280 L498,281 L501,274 L501,273 L502,272 L502,271 L502,271 L503,270 L503,270 L503,270 L503,269 L503,269 L504,269 L504,269 L504,269 L504,268 L505,266 L507,260 L508,259 L508,259 L508,259 L509,259 L509,259 L509,259 L509,259 L509,259 L509,259 L509,259 L511,252 L512,251 L512,251 L512,250 L513,250 L513,250 L514,247 L514,247 L515,246 L515,245 L516,243 L517,243 L517,243 L517,242 L518,242 L518,241 L518,241 L519,240 L519,240 L520,239 L520,239 L520,239 L523,235 L523,234 L523,234 L525,233 L525,232 L525,232 L526,232 L526,232 L527,232 L527,232 L527,232 L527,232 L528,232 L529,232 L529,232 L529,232 L529,232 L529,232 L530,232 L532,228 L532,227 L532,227 L532,228 L532,228 L533,227 L534,227 L534,227 L534,227 L535,226 L536,225 L536,224 L536,223 L537,223 L538,222 L538,221 L538,221 L538,221 L538,221 L539,220 L539,220 L540,220 L540,219 L540,219 L542,218 L543,217 L543,216 L543,216 L544,216 L544,216 L544,216 L544,216 L545,216 L545,216 L547,216 L548,216 L548,216 L549,216 L549,216 L549,216 L549,216 L550,215 L550,215 L551,215 L551,215 L552,215 L552,215 L552,215 L552,215 L552,215 L552,215 L552,215 L552,215 L553,215 L553,215 L553,215 L554,215 L555,216 L555,216 L555,216 L556,217 L557,217 L557,218 L558,220 L558,221 L559,223 L559,223 L560,223 L560,224 L560,224 L560,225 L561,225 L561,226 L561,226 L562,227 L564,234 L565,236 L565,236 L566,236 L566,236 L566,237 L567,237 L570,247 L570,248 L571,248 L571,249 L571,250 L571,250 L572,251 L573,251 L573,251 L573,251 L573,251 L573,251 L573,251 L574,251 L574,251 L574,251 L574,251 L574,251 L575,251 L575,251 L576,252 L576,254 L577,257 L577,257 L577,257 L578,257 L578,257 L578,258 L578,258 L578,258 L579,258 L579,258 L579,258 L579,259 L580,259 L580,259 L581,261 L582,264 L583,264 L583,266 L584,268 L585,271 L585,272 L585,272 L585,272 L586,273 L586,272 L586,272 L586,272 L586,272 L587,273 L587,273 L588,273 L588,273 L588,272 L589,275 L591,277 L591,277 L591,277 L592,277 L592,277 L593,277 L593,277 L593,277 L594,278 L594,278 L595,279 L595,279 L595,280 L596,281 L598,288 L598,289 L598,290 L599,290 L599,290 L599,290 L599,290 L599,290 L599,290 L600,291 L600,291 L600,292 L601,292 L601,294 L602,294 L602,295 L602,295 L602,295 L603,295 L603,295 L604,295 L604,295 L604,295 L605,295 L605,296 L606,296 L606,297 L606,297 L607,299 L607,299 L608,300 L608,301 L608,301 L609,302 L609,302 L610,303 L611,303 L613,306 L616,313 L616,314 L616,315 L617,315 L617,315 L618,316 L618,316 L618,317 L619,318 L619,318 L619,319 L620,319 L620,319 L620,319 L620,319 L620,319 L620,319 L621,319 L621,319 L621,319 L621,320 L622,320 L622,320 L622,320 L622,320 L623,320 L624,320 L624,321 L624,322 L625,322 L625,322 L625,323 L626,323 L626,323 L626,324 L627,324 L627,325 L628,326 L628,327 L628,327 L629,327 L629,327 L629,327 L629,327 L630,327 L630,328 L630,328 L630,328 L630,328 L630,328 L630,328 L631,328 L632,327 L632,327 L632,327 L632,327 L633,326 L633,326 L635,322 L636,319 L636,319 L637,317 L639,313 L639,312 L639,311 L640,311 L640,311 L641,311 L641,310 L642,310 L642,310 L643,310 L643,310 L643,310 L643,310 L643,310 L644,310 L644,310 L644,310 L644,310 L644,311 L645,311 L645,311 L646,312 L646,312 L646,312 L647,314 L647,314 L648,315 L648,315 L649,316 L649,317 L649,317 L650,320 L651,320 L651,320 L651,321 L652,322 L652,322 L653,325 L654,327 L654,327 L654,327 L655,327 L656,328 L658,332 L658,332 L658,332 L658,332 L659,332 L659,332 L659,332 L659,333 L660,332 L661,336 L662,337 L663,337 L663,337 L663,338 L664,339 L664,339 L664,340 L665,340 L665,340 L665,340 L665,341 L666,341 L666,341 L666,341 L667,342 L667,342 L668,343 L669,343 L669,344 L670,344 L670,343 L671,343 L672,343 L672,343 L673,343 L673,343 L674,343 L676,344 L676,344 L677,344 L677,344 L677,344 L677,344 L677,343 L678,343 L678,343 L678,343 L678,343 L679,343 L679,342 L681,339 L681,339 L681,338 L682,337 L682,337 L682,337 L683,333 L685,325 L685,324 L685,324 L686,322 L686,322 L686,322 L687,322 L687,321 L687,320 L688,320 L688,320 L689,318 L689,317 L690,316 L690,315 L690,315 L691,315 L691,314 L692,313 L694,302 L695,300 L695,300 L696,300 L696,300 L696,300 L696,300 L696,300 L696,299 L696,299 L697,299 L697,299 L697,299 L697,299 L697,299 L698,298 L698,296 L699,296 L700,289 L700,289 L700,288 L701,287 L701,287 L701,287 L701,287 L701,286 L701,286 L702,285 L702,284 L702,284 L702,284 L703,284 L703,283 L703,281 L704,280 L704,280 L705,277 L705,276 L705,276 L706,275 L706,273 L706,272 L707,270 L708,270 L708,269 L708,269 L709,267 L709,267 L709,267 L709,267 L710,266 L710,265 L710,265 L710,265 L710,265 L712,259 L712,257 L712,253 L713,253 L713,253 L713,252 L714,251 L714,251 L714,251 L715,251 L715,251 L715,251 L715,251 L715,251 L715,251 L716,251 L716,251 L717,251 L717,251 L717,251 L717,251 L717,251 L718,250 L718,249 L719,249 L719,248 L719,248 L719,248 L719,248 L720,247 L720,247 L720,247 L720,247 L720,247 L720,247 L721,247 L721,246 L722,246 L722,246 L722,246 L722,246 L722,246 L723,246 L723,246 L723,245 L723,245 L724,246 L724,246 L724,245 L725,246 L726,246 L726,246 L726,246 L727,247 L728,248 L728,248 L728,248 L729,248 L729,248 L729,248 L729,248 L729,248 L729,247 L730,246 L730,245 L731,245 L731,240 L732,239 L732,238 L733,233 L733,233 L734,229 L734,229 L735,229 L735,227 L735,227 L736,227 L736,226 L737,225 L737,225 L737,225 L737,225 L738,225 L739,225 L739,225 L739,225 L740,225 L740,225 L740,225 L741,224 L741,224 L742,224 L742,225 L742,225 L742,225 L743,225 L743,225 L743,225 L743,226 L744,226 L744,227 L745,228 L745,228 L746,228 L746,226 L747,226 L747,225 L747,223 L748,222 L748,222 L749,220 L749,220 L749,219 L750,219 L750,219 L751,218 L751,219 L752,218 L752,218 L753,217 L753,217 L754,216 L754,217 L754,216 L755,216 L756,216 L757,216 L757,215 L758,215 L758,214 L759,214 L759,213 L759,213 L759,213 L760,212 L760,212 L761,211 L761,211 L761,211 L762,210 L762,209 L763,207 L763,206 L763,205 L764,205 L764,205 L764,204 L764,204 L764,204 L765,204 L765,203 L765,202 L765,201 L765,201 L766,200 L766,199 L766,199 L767,199 L767,200 L767,200 L767,199 L767,199 L768,199 L768,199 L768,199 L769,199 L769,200 L770,200 L770,200 L771,198 L771,198 L772,197 L772,197 L772,197 L773,197 L773,197 L774,196 L774,196 L775,196 L777,193 L777,192 L777,192 L778,192 L778,192 L780,192 L781,192 L782,192 L783,192 L785,190 L785,189 L786,188 L788,184 L788,184 L789,184 L792,183 L793,183 L795,183 L795,183 L796,183 L797,184 L797,184 L798,183 L798,182 L799,181 L799,180 L800,179 L800,177 L801,176 L801,175 L801,174 L802,173 L802,173 L803,172 L803,172 L803,172 L804,172 L804,172 L804,172 L804,172 L804,172 L805,172 L805,172 L806,172 L807,171 L807,171 L807,171 L808,171 L808,170 L808,170 L809,170 L809,170 L809,170 L810,170 L810,170 L811,169 L811,169 L812,168 L812,168 L812,168 L813,168 L813,168 L813,168 L813,168 L813,168 L813,168 L814,168 L814,168 L815,168 L815,169 L816,170 L816,171 L817,171 L817,171 L818,171 L818,170 L819,170 L819,170 L820,169 L820,169 L820,169 L821,169 L821,168 L822,169 L823,169 L823,170 L824,170 L824,170 L824,170 L824,170 L825,170 L825,170 L826,171 L827,171 L827,171 L828,170 L828,170 L829,169 L829,168 L829,168 L830,168 L830,167 L831,167 L831,166 L832,165 L832,164 L834,164 L834,164 L835,163 L835,163 L836,163 L836,164 L836,164 L838,164 L838,164 L838,164 L838,164 L839,163 L839,163 L839,163 L840,162 L840,162 L840,162 L840,162 L841,162 L841,161 L841,161 L842,160 L843,160 L843,159 L844,159 L845,159 L845,158 L845,158 L845,158 L845,158 L846,158 L847,158 L847,158 L847,157 L847,157 L848,157 L848,157 L848,157 L848,157 L849,157 L849,157 L851,156 L851,155 L851,154 L851,154 L852,154 L853,153 L854,152 L855,150 L855,149 L856,149 L856,149 L856,149 L856,149 L856,149 L857,149 L857,149 L857,149 L857,149 L857,148 L858,148 L858,147 L860,145 L861,144 L861,144 L862,144 L862,143 L864,140 L865,140 L865,140 L866,140 L867,140 L868,139 L868,139 L868,138 L869,138 L869,138 L869,138 L869,138 L870,138 L870,138 L871,137 L871,137 L871,137 L871,136 L872,134 L873,134 L873,132 L873,132 L874,132 L874,132 L874,133 L875,133 L876,132 L876,133 L876,131 L877,130 L877,129 L878,128 L878,128 L878,128 L879,128 L879,128 L879,127 L879,127 L879,127 L880,127 L880,127 L880,127 L881,127 L881,127 L881,127 L881,127 L882,127 L882,127 L883,127 L884,127 L884,127 L884,127 L885,128 L885,128 L886,128 L886,128 L887,127 L887,127 L887,126 L888,126 L889,126 L889,125 L889,125 L889,125 L890,125 L890,125 L891,126 L891,126 L891,126 L892,127 L892,127 L893,127 L893,128 L893,128 L895,124 L895,124 L895,123 L896,123 L896,123 L896,123 L896,123 L896,123 L896,123 L896,123 L897,122 L897,122 L898,122 L898,122 L898,122 L898,122 L899,122 L899,121 L899,121 L900,121 L900,121 L900,121 L900,121 L901,121 L901,121 L901,121 L902,121 L903,119 L903,118 L904,118 L904,118 L904,117 L904,117 L905,117 L905,117 L905,117 L905,116 L906,116 L906,116 L906,116 L907,115 L908,114 L909,114 L909,114 L910,114 L910,114 L911,114 L912,113 L913,111 L914,110 L915,110 L915,110 L916,110 L916,110 L917,110 L918,107 L919,106 L919,106 L919,106 L919,106 L920,106 L920,106 L920,106 L921,106 L921,107 L921,107 L921,107 L921,107 L921,107 L922,107 L922,108 L922,108 L922,108 L922,109 L923,109 L923,109 L923,109 L923,110 L923,110 L924,110 L924,111 L924,111 L924,111 L924,111 L924,111 L924,112 L924,112 L925,112 L925,113 L926,113 L926,113 L926,113 L927,113 L927,113 L927,114 L928,114 L928,114 L928,114 L928,114 L928,114 L929,115 L929,115 L930,117 L930,119 L931,120 L931,121 L931,122 L932,122 L932,122 L932,122 L932,123 L933,124 L933,124 L933,124 L933,124 L933,124 L934,125 L934,126 L934,127 L934,127 L935,128 L935,131 L936,132 L936,132 L936,133 L936,133 L937,134 L937,134 L937,134 L937,135 L938,135 L938,136 L939,136 L939,137 L939,139 L939,139 L940,140 L940,140 L940,140 L941,141 L941,142 L941,143 L941,143 L941,143 L942,144 L942,144 L942,146 L943,148 L943,148 L943,148 L943,149 L944,150 L944,150 L944,150 L944,151 L944,151 L945,151 L945,151 L945,151 L945,151 L945,152 L945,152 L946,152 L946,152 L946,152 L946,152 L947,152 L947,152 L947,153 L949,156 L949,156 L949,156 L949,156 L949,157 L950,157 L950,157 L950,156 L950,156 L951,157 L951,158 L952,159 L952,159 L952,160 L952,161 L952,162 L953,164 L953,164 L953,165 L953,165 L954,166 L954,166 L954,167 L954,168 L955,169 L955,169 L955,169 L955,169 L955,169 L955,170 L956,170 L956,171 L957,176 L957,178 L958,179 L958,179 L958,179 L958,179 L959,179 L959,180 L959,181 L960,182 L960,182 L961,185 L961,186 L961,187 L961,187 L962,188 L962,188 L962,188 L962,188 L962,188 L963,190 L964,191 L964,191 L964,191 L964,191 L964,192 L965,192 L965,194 L965,194 L966,195 L966,195 L966,195 L966,196 L966,197 L966,198 L967,198 L967,198 L967,198 L967,198 L967,198 L967,198 L967,199 L968,200 L968,201 L969,202 L969,202 L969,202 L969,205 L970,207 L970,208 L971,209 L971,212 L971,212 L971,213 L972,213 L972,213 L972,214 L972,214 L972,214 L973,214 L973,214 L973,214 L973,214 L974,214 L974,215 L974,215 L974,216 L974,217 L974,218 L975,219 L976,220 L976,220 L976,220 L976,221 L976,221 L976,221 L976,222 L977,222 L977,222 L977,222 L977,222 L977,222 L977,222 L977,222 L977,222 L978,222 L978,222 L978,222 L978,223 L980,227 L980,228 L980,228 L981,229 L981,229 L981,230 L981,230 L982,230 L982,230 L982,230 L982,230 L982,230 L982,231 L983,231 L983,231 L983,231 L983,231 L983,232 L983,234 L984,236 L985,238 L985,238 L985,238 L986,239 L986,239 L986,239 L986,239 L986,239 L986,240 L988,241 L988,241 L988,242 L988,243 L989,243 L989,244 L990,245 L990,246 L990,247 L991,248 L991,248 L991,248 L991,248 L992,249 L992,249 L992,249 L992,249 L993,249 L993,248 L994,245 L994,245 L994,244 L995,243 L995,242 L995,242 L995,241 L995,241 L996,241 L996,240 L996,239 L997,237 L997,237 L997,236 L997,236 L998,235 L998,235 L998,234 L998,234 L998,234 L998,234 L999,234 L999,234 L999,233 L999,233 L999,233 L1000,232 L1000,232 L1000,232 L1000,232 L1000,231 L1000,231 L1001,230 L1001,229 L1001,229 L1002,228 L1002,227 L1002,227 L1002,225 L1002,224 L1003,222 L1004,219 L1004,217 L1004,216 L1004,216 L1005,215 L1005,214 L1005,214 L1006,213 L1006,213 L1006,212 L1007,210 L1007,209 L1007,209 L1008,207 L1008,205 L1008,203 L1008,203 L1009,202 L1009,200 L1009,200 L1010,199 L1010,198 L1010,198 L1010,198 L1011,197 L1011,197 L1011,197 L1011,197 L1011,197 L1011,196 L1012,196 L1012,196 L1012,195 L1012,195 L1013,190 L1014,186 L1014,185 L1014,182 L1015,181 L1015,181 L1015,180 L1015,179 L1016,178 L1016,177 L1016,177 L1016,176 L1017,174 L1017,173 L1018,172 L1018,172 L1018,170 L1018,170 L1019,169 L1019,168 L1020,166 L1020,166 L1020,165 L1020,164 L1021,163 L1021,163 L1022,163 L1022,163 L1022,162 L1022,162 L1022,161 L1023,160 L1023,159 L1024,155 L1025,153 L1025,152 L1025,151 L1026,149 L1027,147 L1028,146 L1028,146 L1028,144 L1029,143 L1030,140 L1030,139 L1030,138 L1031,137 L1031,137 L1031,137 L1031,136 L1032,134 L1032,133 L1033,129 L1034,128 L1035,122 L1035,121 L1036,115 L1036,115 L1037,113 L1037,113 L1037,113 L1037,112 L1037,112 L1037,112 L1038,112 L1038,112 L1038,112 L1038,111 L1039,111 L1039,111 L1039,110 L1040,110 L1040,109 L1041,108 L1041,108 L1041,108 L1042,107 L1042,106 L1042,106 L1042,106 L1043,106 L1043,103 L1043,103 L1044,103 L1044,101 L1045,99 L1045,99 L1046,99 L1046,99 L1046,100 L1046,100 L1046,100 L1047,100 L1047,100 L1047,100 L1048,101 L1048,101 L1048,101 L1049,105 L1051,107 L1051,108 L1052,108 L1052,109 L1053,110 L1054,113 L1054,114 L1055,115 L1055,116 L1056,117 L1056,117 L1056,117 L1056,117 L1056,118 L1056,118 L1056,119 L1057,120 L1057,121 L1057,121 L1057,121 L1058,122 L1058,124 L1058,124 L1058,124 L1059,124 L1059,124 L1059,125 L1059,125 L1060,126 L1060,126 L1060,128 L1061,129 L1061,130 L1061,131 L1062,132 L1062,132 L1062,132 L1063,133 L1063,134 L1063,134 L1063,134 L1063,135 L1064,136 L1064,137 L1065,137 L1065,137 L1066,137 L1066,137 L1067,137 L1067,137 L1067,137 L1068,137 L1068,137 L1068,137 L1069,137 L1069,137 L1069,137 L1069,137 L1070,137 L1070,137 L1070,137 L1070,136 L1070,136 L1070,136 L1070,136 L1072,132 L1072,131 L1072,130 L1072,128 L1073,127 L1073,127 L1074,127 L1074,125 L1074,124 L1075,124 L1075,123 L1076,121 L1076,119 L1077,118 L1078,117 L1078,116 L1078,116 L1078,116 L1079,114 L1080,109 L1080,107 L1081,105 L1082,106 L1082,104 L1082,104 L1082,104 L1083,104 L1083,103 L1083,103 L1083,103 L1083,103 L1084,103 L1084,103 L1084,103 L1084,103 L1085,102 L1085,102 L1085,101 L1085,100 L1086,99 L1086,98 L1086,98 L1086,98 L1086,98 L1086,98 L1086,98 L1087,98 L1087,98 L1087,97 L1087,97 L1087,96 L1088,95 L1088,94 L1088,92 L1089,91 L1089,91 L1089,91 L1089,91 L1089,91 L1090,91 L1090,90 L1090,89 L1090,89 L1090,89 L1090,88 L1092,83 L1092,80 L1093,78 L1093,77 L1094,76 L1095,75 L1096,72 L1097,66 L1097,66 L1098,66 L1098,66 L1098,65 L1098,65 L1098,65 L1099,65 L1099,65 L1099,65 L1099,65 L1099,65 L1099,64 L1099,64 L1100,64 L1100,63 L1100,63 L1101,63 L1101,63 L1101,62 L1101,62 L1101,62 L1101,61 L1102,61 L1102,61 L1102,61 L1102,61 L1102,61 L1102,61 L1103,60 L1103,60 L1103,60 L1103,59 L1104,59 L1104,59 L1104,59 L1104,59 L1105,59 L1105,59 L1105,59 L1105,59 L1106,59 L1106,59 L1107,59 L1107,59 L1107,59 L1108,59 L1108,59 L1108,59 L1108,59 L1109,59 L1109,59 L1109,59 L1110,59 L1110,59 L1110,59 L1110,60 L1110,60 L1111,60 L1111,60 L1111,60 L1112,60 L1112,60 L1112,60 L1113,60 L1113,60 L1113,61 L1114,61 L1114,61 L1114,61 L1114,61 L1115,62 L1115,62 L1115,62 L1115,62 L1116,62 L1116,63 L1116,63 L1116,63 L1117,63 L1118,65 L1118,65 L1118,65 L1118,65 L1119,65 L1119,65 L1119,65 L1119,65 L1120,66 L1120,66 L1120,67 L1121,69 L1122,69 L1122,69 L1122,69 L1122,69 L1123,70 L1124,71 L1124,72 L1125,72 L1125,73 L1126,73 L1126,74 L1127,74 L1127,74 L1127,75 L1128,75 L1128,76 L1129,76 L1129,77 L1129,77 L1130,78 L1130,78 L1131,79 L1131,79 L1131,79 L1131,79 L1132,80 L1132,81 L1132,82 L1133,82 L1133,83 L1134,85 L1134,86 L1134,87 L1135,90 L1135,92 L1136,94 L1136,96 L1136,101 L1137,102 L1137,104 L1138,106 L1138,108 L1138,108 L1138,108 L1138,109 L1139,111 L1139,111 L1139,112 L1139,113 L1140,113 L1140,114 L1140,115 L1140,116 L1141,116 L1141,118 L1141,118 L1142,120 L1142,121 L1143,122 L1143,123 L1143,123 L1144,124 L1144,125 L1144,125 L1145,126 L1145,128 L1146,128 L1146,130 L1147,130 L1147,131 L1148,131 L1148,131 L1148,131 L1152,128 L1152,127 L1153,127 L1153,127 L1154,127 L1154,127 L1154,127 L1154,127 L1154,126 L1155,126 L1155,126 L1156,126 L1156,125 L1156,126 L1157,126 L1157,127 L1157,127 L1158,129 L1158,129 L1159,132 L1159,132 L1159,134 L1160,134 L1160,136 L1161,136 L1162,135 L1162,135 L1162,135 L1162,135 L1163,135 L1163,135 L1163,135 L1164,134 L1164,136 L1165,136 L1165,136 L1165,136 L1165,136 L1165,137 L1166,138 L1166,139 L1166,139 L1166,139 L1167,141 L1167,143 L1167,143 L1167,143 L1168,144 L1168,146 L1168,147 L1169,147 L1169,147 L1169,148 L1169,150 L1170,150 L1170,150 L1170,151 L1171,151 L1171,152 L1171,152 L1171,152 L1171,152 L1171,152 L1171,152 L1172,152 L1172,152 L1172,152 L1172,152 L1173,151 L1173,151 L1173,150 L1174,150 L1174,150 L1174,150 L1174,149 L1174,149 L1175,149 L1175,148 L1175,148 L1175,147 L1176,145 L1177,143 L1177,141 L1177,140 L1177,137 L1178,134 L1178,134 L1179,133 L1179,130 L1179,130 L1179,128 L1180,127 L1180,125 L1181,124 L1181,123 L1182,122 L1182,122 L1182,122 L1182,121 L1183,121 L1184,121 L1184,120 L1184,120 L1184,120 L1185,118 L1185,118 L1185,118 L1186,118 L1186,118 L1186,118 L1186,118 L1186,117 L1186,117 L1187,117 L1187,117 L1187,117 L1187,116 L1187,116 L1188,115 L1188,115 L1188,114 L1189,113 L1189,113 L1189,112 L1190,110 L1190,110 L1190,109 L1191,107 L1191,105 L1192,104 L1192,104 L1192,103 L1193,103 L1193,100 L1193,100 L1193,99 L1194,98 L1195,97 L1195,97 L1195,97 L1195,97 L1195,97 L1197,93 L1198,91 L1198,90 L1199,90 L1200,90 L1200,89 L1201,88 L1202,88 L1203,88 L1203,88 L1204,88 L1204,87 L1206,82 L1207,80 L1208,80 L1208,79 L1210,77 L1210,76 L1211,75 L1212,70 L1214,68 L1214,68 L1214,68 L1215,67 L1215,66 L1215,66 L1216,64 L1218,61 L1219,59 L1220,57 L1221,57 L1221,56 L1222,56 L1222,56 L1222,56 L1222,56 L1222,56 L1222,56 L1222,56 L1223,56 L1223,56 L1223,55 L1223,55 L1224,54 L1224,54 L1225,53 L1225,52 L1225,52 L1225,51 L1226,50 L1226,50 L1227,50 L1227,49 L1228,49 L1228,49 L1228,49 L1228,49 L1228,49 L1228,49 L1229,49 L1229,48 L1229,48 L1229,48 L1230,48 L1230,47 L1231,47 L1231,47 L1231,47 L1231,47 L1231,47 L1232,47 L1232,46 L1232,46 L1233,46 L1234,46 L1235,46 L1235,46 L1236,45 L1237,45 L1237,45 L1238,44 L1239,44 L1239,44 L1239,44 L1240,44 L1240,44 L1240,44 L1240,44 L1240,44 L1241,43 L1242,43 L1242,43 L1242,43 L1242,43 L1242,43 L1243,43 L1243,43 L1244,43 L1244,43 L1245,43 L1245,42 L1245,42 L1245,42 L1245,43 L1245,43 L1245,43 L1246,43 L1246,43 L1246,43 L1246,43 L1246,43 L1247,43 L1247,43 L1247,43 L1247,43 L1247,43 L1248,43 L1248,43 L1248,43 L1248,43 L1248,43 L1248,43 L1248,43 L1249,43 L1249,43 L1249,43 L1250,43 L1250,43 L1250,43 L1250,43 L1251,43 L1251,43 L1251,43 L1251,43 L1251,43 L1252,43 L1252,43 L1252,43 L1252,43 L1252,43 L1253,44 L1254,44 L1254,44 L1255,44 L1255,44 L1255,44 L1255,44 L1255,44 L1255,44 L1256,44 L1256,44 L1256,44 L1256,44 L1257,44 L1257,44 L1258,44 L1258,44 L1259,44 L1260,44 L1260,44 L1260,44 L1260,44 L1260,44 L1260,44 L1261,44 L1262,44 L1262,44 L1262,44 L1263,44 L1263,44 L1264,43 L1264,43 L1265,43 L1265,43 L1266,43 L1266,43 L1267,43 L1268,43 L1270,44 L1271,44 L1272,44 L1273,44 L1273,44 L1274,44 L1275,44 L1275,44 L1275,44 L1275,44 L1277,43 L1277,43 L1277,43 L1279,43 L1282,44 L1283,44 L1285,44 L1286,44 L1286,44 L1287,44 L1287,44 L1287,44 L1289,43 L1290,43 L1290,43 L1291,43 L1291,43 L1292,43 L1292,43 L1293,43 L1293,43 L1293,43 L1293,43 L1293,43 L1293,43 L1293,43 L1293,43 L1294,43 L1294,43 L1294,43 L1294,43 L1294,43 L1294,43 L1295,43 L1295,43 L1295,43 L1295,43 L1296,43 L1296,43 L1296,43 L1297,43 L1297,43 L1297,43 L1297,43 L1298,43 L1300,43 L1300,44 L1300,44 L1301,44 L1302,44 L1302,44 L1302,44 L1302,43 L1303,43 L1303,43 L1303,43 L1303,43 L1303,43 L1304,43 L1304,43 L1304,43 L1304,43 L1305,43 L1305,41 L1305,41 L1306,41 L1307,41 L1307,41 L1307,41 L1307,41 L1307,41 L1308,40 L1308,40 L1309,41 L1310,41 L1310,41 L1311,40 L1311,40 L1312,40 L1313,41 L1314,41 L1314,41 L1315,41 L1316,42 L1317,42 L1317,42 L1318,42 L1318,42 L1318,42 L1319,42 L1319,42 L1320,42 L1320,42 L1320,42 L1320,42 L1321,42 L1321,42 L1322,42 L1323,41 L1323,41 L1324,41 L1324,41 L1325,41 L1326,41 L1326,41 L1326,41 L1327,41 L1327,41 L1327,41 L1327,41 L1327,41 L1327,41 L1327,41 L1327,41 L1327,41 L1328,41 L1328,41 L1329,41 L1330,41 L1330,41 L1331,41 L1331,41 L1332,41 L1333,42 L1334,42 L1337,42 L1337,42 L1338,42 L1338,42 L1340,42 L1340,42 L1340,42 L1340,42 L1342,41 L1343,41 L1345,42 L1346,43 L1346,43 L1347,43" fill="transparent" id="track" shape-rendering="geometricPrecision" stroke="black" stroke-width="2"/>
</g>
</g>
</svg>