<svg height="400" width="1420" xmlns="http://www.w3.org/2000/svg">
<g font-family="ui-serif" font-size="20" id="world" shape-rendering="crispEdges" transform="translate(5 5)">
<g id="BG"/>
<g id="SL" transform="translate(50 360) scale(-1 -1)">
<text text-anchor="end" transform="translate(10 -5) scale(-1 -1)">
0
</text>
<text text-anchor="end" transform="translate(10 60) scale(-1 -1)">
200
</text>
<text text-anchor="end" transform="translate(10 125) scale(-1 -1)">
400
</text>
<text text-anchor="end" transform="translate(10 191) scale(-1 -1)">
600
</text>
<text text-anchor="end" transform="translate(10 256) scale(-1 -1)">
800
</text>
<text text-anchor="end" transform="translate(10 322) scale(-1 -1)">
1000
</text>
</g>
<g id="SB" transform="translate(50 360)">
<text text-anchor="middle" transform="translate(192 25)">
0
</text>
<text text-anchor="middle" transform="translate(385 25)">
20
</text>
<text text-anchor="middle" transform="translate(578 25)">
40
</text>
<text text-anchor="middle" transform="translate(771 25)">
60
</text>
<text text-anchor="middle" transform="translate(964 25)">
80
</text>
<text text-anchor="middle" transform="translate(1157 25)">
100
</text>
</g>
<g id="SD" transform="translate(50 360) scale(1 -1) scale(1 1)">
<path d="M0,0 L0,360 L1350,360 L1350,0 L0,0" fill="lightgray" id="bg"/>
<path d="M0,0 L1350,0" stroke="black" stroke-width="3"/>
<path d="M0,0 L0,360" stroke="black" stroke-width="3"/>
<path d="M0,360 L1350,360" stroke="black" stroke-width="3"/>
<path d="M1350,0 L1350,360" stroke="black" stroke-width="3"/>
<path d="M192,0 L192,360" stroke="black" stroke-width="1"/>
<path d="M385,0 L385,360" stroke="black" stroke-width="1"/>
<path d="M578,0 L578,360" stroke="black" stroke-width="1"/>
<path d="M771,0 L771,360" stroke="black" stroke-width="1"/>
<path d="M964,0 L964,360" stroke="black" stroke-width="1"/>
<path d="M1157,0 L1157,360" stroke="black" stroke-width="1"/>
<path d="M96,0 L96,360" stroke="black" stroke-dasharray="1.0,2.5,5.0,5.0,10.0,5.0"/>
<path d="M289,0 L289,360" stroke="black" stroke-dasharray="1.0,2.5,5.0,5.0,10.0,5.0"/>
<path d="M482,0 L482,360" stroke="black" stroke-dasharray="1.0,2.5,5.0,5.0,10.0,5.0"/>
<path d="M675,0 L675,360" stroke="black" stroke-dasharray="1.0,2.5,5.0,5.0,10.0,5.0"/>
<path d="M867,0 L867,360" stroke="black" stroke-dasharray="1.0,2.5,5.0,5.0,10.0,5.0"/>
<path d="M1060,0 L1060,360" stroke="black" stroke-dasharray="1.0,2.5,5.0,5.0,10.0,5.0"/>
<path d="M1253,0 L1253,360" stroke="black" stroke-dasharray="1.0,2.5,5.0,5.0,10.0,5.0"/>
<path d="M0,0 L1350,0" stroke="black" stroke-width="1"/>
<path d="M0,65 L1350,65" stroke="black" stroke-width="1"/>
<path d="M0,130 L1350,130" stroke="black" stroke-width="1"/>
<path d="M0,196 L1350,196" stroke="black" stroke-width="1"/>
<path d="M0,261 L1350,261" stroke="black" stroke-width="1"/>
<path d="M0,327 L1350,327" stroke="black" stroke-width="1"/>
<path d="M0,32 L1350,32" stroke="black" stroke-dasharray="1.0,2.5,5.0,5.0,10.0,5.0"/>
<path d="M0,98 L1350,98" stroke="black" stroke-dasharray="1.0,2.5,5.0,5.0,10.0,5.0"/>
<path d="M0,163 L1350,163" stroke="black" stroke-dasharray="1.0,2.5,5.0,5.0,10.0,5.0"/>
<path d="M0,229 L1350,229" stroke="black" stroke-dasharray="1.0,2.5,5.0,5.0,10.0,5.0"/>
<path d="M0,294 L1350,294" stroke="black" stroke-dasharray="1.0,2.5,5.0,5.0,10.0,5.0"/>
<path d="M0,360 L1350,360" stroke="black" stroke-dasharray="1.0,2.5,5.0,5.0,10.0,5.0"/>
<path d="M192,227 L192,227 L193,227 L193,227 L193,227 L193,227 L193,227 L193,227 L194,227 L194,227 L194,227 L195,227 L195,227 L196,226 L196,226 L196,226 L197,226 L197,227 L198,227 L198,227 L198,227 L198,226 L199,226 L199,226 L199,226 L200,226 L200,226 L200,226 L201,226 L201,226 L202,226 L203,226 L203,226 L204,226 L204,226 L204,226 L205,226 L205,226 L205,226 L206,226 L207,227 L208,227 L208,227 L209,227 L209,227 L210,227 L210,227 L211,227 L211,227 L212,227 L216,228 L219,229 L220,229 L221,229 L222,229 L222,229 L222,229 L223,229 L224,229 L228,230 L228,230 L228,230 L229,230 L229,230 L230,230 L232,231 L233,231 L233,231 L233,231 L234,231 L234,231 L235,231 L236,231 L236,231 L236,231 L236,231 L236,231 L237,232 L237,232 L237,232 L237,232 L238,232 L238,232 L238,232 L239,232 L239,232 L239,232 L240,232 L241,232 L242,232 L242,232 L242,232 L242,232 L242,232 L243,232 L243,232 L244,232 L245,232 L245,232 L245,232 L246,232 L246,232 L247,233 L247,234 L248,234 L248,234 L248,234 L249,234 L249,234 L249,234 L250,234 L250,234 L250,234 L251,234 L251,234 L251,234 L251,234 L251,234 L251,234 L252,234 L252,234 L252,234 L252,235 L252,235 L253,235 L253,236 L254,236 L254,237 L254,237 L254,238 L255,238 L255,238 L257,237 L257,237 L257,237 L258,237 L259,237 L259,237 L260,237 L260,237 L260,237 L261,237 L264,236 L266,237 L267,237 L268,237 L269,237 L270,237 L270,237 L271,238 L272,238 L272,238 L273,238 L273,238 L274,238 L274,238 L274,238 L276,237 L277,237 L278,237 L279,238 L280,239 L281,239 L283,240 L284,240 L285,240 L286,239 L287,239 L288,239 L288,239 L289,239 L289,239 L290,239 L291,239 L292,241 L294,240 L295,241 L295,241 L296,241 L296,241 L297,241 L297,241 L298,241 L298,241 L299,241 L299,241 L299,241 L300,241 L301,242 L301,242 L302,242 L303,242 L303,242 L303,243 L304,243 L304,243 L304,243 L305,243 L308,244 L308,244 L308,244 L308,244 L309,244 L309,244 L310,244 L310,245 L310,245 L311,245 L311,245 L312,245 L314,245 L314,245 L314,245 L315,245 L316,245 L317,244 L317,244 L320,246 L320,247 L321,247 L322,247 L322,247 L323,247 L323,247 L325,247 L326,247 L327,247 L327,247 L327,247 L327,247 L328,247 L328,247 L328,247 L328,247 L328,247 L329,248 L330,249 L330,250 L330,251 L331,251 L331,252 L332,252 L332,253 L332,253 L333,253 L333,252 L334,251 L334,251 L335,251 L335,251 L336,251 L337,250 L337,250 L337,251 L338,251 L338,251 L338,251 L338,251 L340,250 L341,251 L341,251 L341,251 L342,251 L342,251 L343,251 L344,253 L346,253 L347,253 L347,253 L347,253 L348,253 L348,253 L348,253 L351,259 L351,259 L351,259 L352,259 L352,259 L353,260 L353,261 L354,261 L354,262 L355,262 L355,262 L356,263 L356,263 L357,264 L357,264 L357,264 L358,264 L358,264 L358,265 L359,265 L359,265 L359,265 L360,265 L360,265 L361,266 L362,267 L362,270 L363,271 L364,274 L364,274 L365,275 L366,276 L366,276 L366,276 L366,277 L366,277 L366,277 L367,277 L367,277 L367,277 L367,277 L367,277 L367,277 L368,277 L368,278 L368,278 L368,278 L369,279 L369,279 L369,279 L370,279 L370,279 L371,280 L371,280 L372,280 L373,280 L374,281 L375,281 L375,281 L376,281 L377,281 L377,282 L378,282 L378,282 L379,283 L380,283 L380,283 L381,283 L381,283 L382,283 L382,283 L382,283 L383,283 L383,283 L384,283 L385,286 L385,287 L386,287 L386,287 L386,287 L387,288 L388,287 L388,287 L389,287 L389,287 L389,287 L389,287 L389,287 L390,287 L391,288 L391,288 L392,288 L392,289 L393,289 L393,290 L394,290 L394,290 L394,290 L395,290 L395,291 L395,291 L396,291 L396,291 L397,291 L397,292 L397,292 L398,293 L399,294 L399,295 L400,295 L401,296 L402,297 L403,298 L403,298 L404,298 L404,298 L405,298 L405,298 L405,298 L406,299 L407,300 L408,301 L408,301 L409,301 L409,302 L410,302 L410,302 L411,303 L411,303 L412,304 L412,305 L413,306 L414,306 L414,306 L414,307 L415,307 L415,307 L415,307 L416,308 L417,310 L418,310 L418,311 L418,312 L418,312 L418,312 L419,312 L420,313 L420,312 L420,313 L420,313 L421,313 L421,313 L421,313 L421,313 L421,313 L422,313 L422,313 L422,313 L422,313 L423,313 L423,313 L423,313 L423,313 L423,313 L423,313 L424,313 L424,313 L424,313 L424,314 L426,315 L426,319 L427,320 L428,320 L428,321 L428,321 L429,321 L429,322 L430,323 L430,324 L431,327 L432,328 L432,329 L433,330 L434,333 L435,333 L435,334 L436,334 L436,334 L438,326 L439,322 L440,321 L440,321 L441,318 L441,317 L442,316 L442,315 L442,315 L442,314 L443,313 L445,311 L445,310 L446,309 L447,309 L447,309 L448,306 L449,303 L450,303 L451,301 L452,299 L452,299 L453,296 L454,295 L454,294 L455,293 L455,293 L455,293 L455,293 L456,292 L457,291 L459,289 L460,289 L460,289 L460,289 L461,289 L461,289 L461,289 L461,289 L463,291 L464,291 L464,290 L465,289 L466,289 L466,288 L466,288 L466,288 L466,288 L467,288 L467,288 L467,288 L467,288 L467,288 L467,288 L467,288 L467,288 L468,288 L468,288 L468,287 L469,286 L469,286 L470,285 L470,285 L470,285 L470,285 L471,285 L471,285 L471,285 L471,285 L471,285 L471,285 L471,285 L472,285 L472,285 L472,285 L472,285 L473,285 L473,284 L473,284 L474,284 L474,284 L474,283 L475,283 L475,283 L475,283 L475,283 L475,283 L475,283 L476,283 L476,283 L476,283 L476,283 L476,283 L477,283 L477,283 L477,283 L478,283 L478,283 L479,283 L479,283 L479,283 L479,283 L480,283 L480,283 L480,283 L481,283 L482,282 L482,281 L482,281 L483,281 L483,281 L483,281 L483,281 L483,281 L484,281 L484,281 L484,281 L484,281 L484,281 L484,281 L485,282 L485,282 L485,282 L486,282 L486,283 L486,283 L487,283 L487,283 L487,282 L488,282 L489,282 L489,281 L489,281 L489,281 L489,281 L490,282 L491,283 L491,283 L492,284 L492,284 L493,284 L493,284 L493,283 L493,283 L494,282 L495,282 L495,282 L496,281 L496,281 L496,281 L496,281 L497,282 L498,284 L498,284 L498,284 L499,285 L499,285 L499,285 L499,285 L500,285 L500,285 L500,285 L501,286 L501,286 L501,286 L502,287 L502,287 L503,288 L504,288 L504,288 L506,288 L506,288 L506,289 L507,289 L507,289 L508,289 L509,289 L510,289 L510,289 L510,289 L511,289 L511,289 L512,289 L513,290 L514,290 L515,290 L515,290 L516,290 L516,290 L517,290 L517,290 L517,290 L517,290 L517,290 L520,295 L521,295 L521,295 L522,295 L522,295 L525,297 L526,298 L527,298 L528,301 L531,299 L531,299 L531,299 L531,299 L532,299 L533,299 L534,300 L534,300 L535,300 L535,300 L536,301 L536,301 L536,301 L537,301 L537,301 L538,302 L538,303 L539,304 L539,305 L539,305 L540,306 L540,306 L541,307 L541,307 L542,308 L542,308 L542,309 L543,309 L543,309 L544,309 L544,310 L544,310 L544,310 L545,311 L545,311 L545,311 L546,311 L546,312 L547,313 L547,313 L547,313 L548,313 L548,314 L548,314 L548,314 L548,314 L549,314 L549,314 L549,314 L549,314 L550,315 L550,316 L550,316 L550,317 L551,321 L552,324 L552,325 L553,326 L553,326 L553,326 L554,326 L554,326 L554,326 L555,327 L555,327 L555,327 L555,327 L555,327 L556,328 L556,328 L556,328 L557,328 L557,329 L558,332 L560,334 L560,334 L560,334 L561,334 L563,333 L563,334 L563,334 L563,333 L563,333 L564,334 L565,334 L565,336 L566,337 L567,337 L568,334 L569,332 L569,331 L569,331 L570,331 L570,330 L570,330 L571,330 L571,329 L572,328 L572,327 L573,327 L573,327 L573,326 L573,326 L574,326 L574,326 L574,326 L574,326 L574,326 L575,325 L575,326 L575,326 L575,326 L576,326 L576,326 L576,326 L576,326 L577,327 L577,328 L578,328 L578,328 L578,330 L579,330 L579,330 L579,330 L580,330 L580,331 L580,331 L581,331 L581,331 L582,331 L583,330 L583,329 L584,328 L584,328 L585,328 L585,328 L585,327 L586,327 L586,327 L588,328 L590,328 L590,328 L590,329 L590,329 L591,329 L592,328 L592,328 L592,328 L592,326 L593,324 L594,323 L594,321 L594,321 L594,320 L595,320 L595,320 L595,320 L595,320 L595,319 L596,319 L596,319 L596,318 L596,318 L596,317 L597,317 L597,316 L598,316 L598,314 L599,312 L600,312 L600,311 L601,311 L601,311 L601,310 L601,310 L602,309 L602,309 L602,309 L603,308 L603,308 L603,308 L604,308 L604,307 L604,307 L604,307 L605,307 L607,303 L608,301 L608,298 L609,296 L610,295 L610,294 L610,294 L610,294 L611,292 L611,292 L612,291 L612,291 L612,289 L612,289 L613,289 L613,288 L613,288 L613,288 L614,286 L615,286 L615,286 L615,286 L616,286 L616,286 L616,286 L616,286 L617,287 L617,287 L617,287 L617,287 L618,288 L618,288 L618,289 L619,290 L619,292 L620,292 L620,293 L621,293 L621,293 L621,294 L621,294 L622,296 L622,296 L622,297 L623,298 L623,299 L623,299 L624,300 L625,301 L625,301 L626,303 L626,303 L627,304 L627,305 L627,305 L628,305 L628,305 L628,306 L628,306 L629,306 L629,306 L629,306 L629,306 L629,306 L630,306 L630,307 L630,307 L630,307 L630,308 L632,315 L632,316 L633,318 L633,318 L634,319 L634,319 L634,320 L635,320 L635,320 L636,321 L637,320 L637,320 L637,319 L638,319 L639,319 L639,318 L640,318 L640,318 L641,318 L642,318 L642,318 L643,317 L643,315 L645,312 L645,312 L645,312 L645,312 L645,311 L645,311 L646,311 L646,311 L646,311 L646,311 L647,311 L647,311 L647,311 L647,310 L647,310 L648,310 L648,310 L648,310 L648,310 L649,310 L649,310 L649,310 L649,310 L650,310 L650,310 L651,310 L651,310 L651,309 L652,309 L652,309 L652,309 L653,308 L654,306 L654,305 L654,304 L655,303 L656,302 L656,302 L657,301 L657,301 L657,301 L658,300 L658,300 L658,299 L658,299 L658,299 L659,299 L659,299 L659,298 L660,298 L660,298 L660,298 L660,297 L661,295 L661,294 L662,292 L662,292 L663,292 L663,292 L663,292 L663,292 L663,292 L663,292 L664,292 L664,291 L664,291 L665,291 L665,290 L665,290 L666,290 L666,287 L667,286 L667,285 L667,285 L668,283 L668,283 L668,281 L669,277 L670,271 L670,270 L670,270 L671,268 L672,268 L672,267 L673,263 L674,260 L675,259 L676,258 L677,257 L677,257 L678,257 L678,257 L679,256 L680,257 L681,257 L681,256 L681,256 L683,254 L683,252 L684,249 L685,249 L685,248 L685,249 L686,249 L686,249 L686,249 L686,249 L687,249 L687,249 L687,249 L688,250 L688,250 L688,250 L689,250 L689,250 L689,250 L689,249 L690,248 L690,247 L690,246 L691,245 L691,244 L691,244 L692,243 L692,243 L692,243 L693,242 L693,242 L693,242 L693,241 L694,241 L694,241 L694,241 L695,239 L696,232 L697,232 L697,231 L698,231 L698,230 L698,229 L698,229 L699,227 L700,225 L700,224 L700,223 L701,223 L701,222 L701,222 L701,222 L702,221 L702,221 L703,220 L703,220 L703,219 L703,218 L704,218 L704,218 L705,217 L705,216 L706,214 L707,214 L708,213 L708,213 L708,213 L709,212 L709,211 L710,210 L710,209 L711,209 L711,209 L711,209 L712,207 L713,207 L713,205 L714,202 L714,201 L715,200 L715,200 L715,200 L715,200 L715,200 L715,200 L716,200 L716,200 L717,200 L717,200 L717,200 L717,200 L718,200 L718,200 L718,200 L719,199 L719,199 L720,199 L720,198 L720,198 L720,198 L721,198 L721,198 L721,197 L722,195 L722,191 L723,190 L723,190 L723,190 L723,190 L723,190 L723,190 L724,189 L724,189 L724,189 L724,189 L724,189 L724,189 L724,189 L724,189 L724,189 L724,189 L724,189 L726,187 L726,187 L726,187 L726,185 L728,184 L728,182 L728,182 L729,182 L729,181 L729,181 L730,180 L731,179 L732,177 L732,177 L732,177 L732,177 L733,176 L733,176 L733,176 L733,176 L734,176 L734,176 L734,176 L735,175 L735,175 L735,175 L736,174 L736,174 L737,174 L738,172 L739,171 L739,171 L739,171 L739,171 L740,171 L740,171 L740,171 L740,170 L741,170 L741,170 L741,169 L741,169 L742,168 L743,168 L743,167 L743,167 L744,167 L744,166 L745,166 L745,166 L746,166 L746,166 L746,165 L747,165 L747,165 L748,165 L748,165 L748,164 L749,164 L749,164 L750,163 L750,163 L750,162 L751,162 L751,162 L751,162 L751,162 L751,162 L752,162 L752,162 L752,161 L752,161 L753,161 L753,161 L753,161 L753,161 L753,161 L753,161 L753,161 L753,161 L754,161 L754,161 L754,161 L755,161 L755,161 L755,160 L757,159 L757,158 L757,157 L758,157 L759,157 L759,157 L759,157 L760,156 L760,156 L760,156 L760,156 L761,156 L762,156 L762,156 L762,155 L763,155 L763,155 L763,155 L764,154 L764,154 L765,153 L765,153 L765,153 L766,153 L766,153 L766,153 L766,153 L767,152 L767,152 L767,152 L768,152 L768,152 L768,152 L768,152 L769,152 L769,152 L769,152 L769,152 L769,152 L770,152 L770,152 L770,152 L770,152 L770,153 L771,153 L771,154 L772,154 L772,156 L773,158 L774,160 L775,161 L775,162 L776,164 L777,166 L777,166 L778,167 L778,169 L779,171 L780,173 L780,174 L781,177 L783,178 L783,182 L784,186 L785,186 L785,186 L785,187 L786,189 L786,190 L787,195 L788,195 L788,197 L789,201 L790,203 L790,202 L791,202 L791,202 L791,202 L791,201 L791,201 L792,201 L792,201 L792,200 L792,200 L793,197 L794,194 L794,189 L795,185 L795,181 L796,180 L796,179 L796,179 L796,179 L796,179 L797,178 L797,177 L797,177 L797,177 L797,177 L797,176 L798,176 L798,175 L799,175 L799,174 L799,174 L799,174 L800,174 L800,174 L800,173 L801,172 L801,172 L802,172 L802,172 L802,171 L802,171 L802,171 L802,171 L803,171 L803,171 L803,171 L803,171 L804,168 L805,162 L805,162 L805,162 L806,160 L806,159 L807,158 L807,158 L807,158 L808,156 L808,156 L808,155 L808,154 L809,152 L810,151 L811,149 L811,148 L812,147 L812,146 L812,146 L813,144 L813,143 L813,142 L814,141 L814,140 L814,137 L815,136 L815,134 L816,133 L816,132 L816,132 L817,131 L817,130 L817,130 L818,130 L819,128 L819,127 L820,122 L820,122 L821,121 L821,120 L821,120 L821,120 L822,120 L822,119 L823,119 L823,119 L824,119 L824,119 L824,119 L825,119 L825,119 L825,119 L825,119 L826,119 L827,114 L828,113 L829,113 L829,113 L829,113 L829,114 L830,114 L831,115 L832,115 L832,113 L832,110 L834,106 L834,105 L834,105 L834,105 L835,104 L835,104 L835,104 L836,104 L836,104 L836,105 L837,104 L837,103 L838,103 L838,101 L839,99 L839,99 L840,98 L840,98 L840,97 L841,97 L841,96 L842,96 L843,95 L843,95 L843,95 L844,95 L844,94 L844,94 L846,93 L846,93 L846,93 L846,93 L847,93 L847,92 L848,92 L848,91 L849,90 L849,89 L850,88 L850,88 L851,87 L851,87 L851,87 L852,87 L852,87 L852,87 L852,87 L852,86 L853,86 L853,85 L853,85 L854,85 L854,85 L854,84 L855,84 L855,84 L855,84 L856,84 L856,84 L856,83 L856,83 L856,83 L857,83 L857,83 L857,83 L858,82 L858,82 L858,82 L858,82 L858,82 L859,82 L859,82 L859,82 L859,82 L859,82 L860,82 L860,82 L861,82 L861,82 L863,81 L863,81 L864,81 L864,81 L864,81 L865,81 L865,81 L865,81 L865,81 L866,81 L866,81 L867,81 L867,82 L868,81 L868,81 L870,80 L870,79 L870,78 L871,78 L872,78 L873,76 L874,75 L875,74 L875,74 L879,72 L879,72 L879,72 L879,72 L879,72 L881,73 L881,73 L882,73 L882,73 L882,73 L882,73 L882,73 L883,72 L884,72 L884,72 L885,72 L885,72 L885,72 L885,72 L885,71 L886,71 L886,71 L886,71 L887,71 L887,71 L887,71 L888,70 L889,70 L889,70 L889,70 L890,70 L890,70 L890,70 L890,70 L890,70 L891,70 L891,70 L891,70 L891,70 L891,70 L892,70 L892,70 L892,70 L892,70 L893,70 L893,70 L894,70 L895,70 L896,70 L898,70 L899,70 L900,70 L901,71 L902,71 L904,71 L904,71 L904,71 L905,71 L905,71 L906,71 L908,72 L908,72 L908,73 L909,74 L909,74 L910,75 L910,75 L910,76 L910,76 L911,76 L911,77 L911,77 L912,78 L912,78 L913,80 L913,80 L914,80 L914,80 L914,80 L914,80 L915,80 L915,80 L915,80 L916,79 L916,79 L916,79 L916,79 L917,79 L917,79 L917,79 L917,79 L917,79 L919,81 L920,83 L920,84 L921,84 L921,85 L922,85 L922,85 L922,85 L923,85 L923,85 L923,85 L923,85 L923,85 L923,85 L924,85 L924,85 L925,85 L925,86 L926,86 L927,86 L927,87 L928,88 L929,89 L929,89 L929,90 L930,90 L931,92 L931,92 L932,93 L932,94 L933,94 L933,95 L933,96 L933,96 L934,96 L934,97 L935,97 L935,97 L936,99 L936,99 L936,100 L937,99 L938,100 L938,100 L939,103 L940,104 L940,105 L941,106 L941,106 L942,108 L943,112 L944,113 L944,113 L947,119 L947,121 L948,122 L949,124 L949,124 L950,126 L951,129 L951,132 L952,134 L952,134 L953,135 L953,137 L954,138 L954,138 L955,139 L955,139 L955,140 L957,142 L957,143 L957,143 L958,143 L959,144 L959,144 L960,146 L960,147 L960,147 L960,149 L961,150 L961,152 L961,152 L962,152 L962,155 L962,156 L963,157 L964,159 L964,159 L964,159 L965,161 L965,161 L965,161 L967,169 L968,172 L968,173 L969,173 L969,173 L969,174 L969,174 L969,174 L969,174 L969,174 L969,174 L969,175 L970,175 L970,175 L970,175 L970,176 L970,177 L970,178 L971,178 L971,180 L971,181 L972,183 L972,184 L972,184 L972,185 L972,185 L973,187 L973,189 L973,191 L975,197 L975,198 L975,200 L976,200 L976,201 L977,202 L977,201 L978,203 L978,203 L978,205 L979,205 L979,206 L980,206 L980,207 L981,209 L981,210 L982,212 L982,212 L983,212 L983,215 L983,217 L985,226 L986,229 L986,229 L986,228 L986,228 L987,229 L987,228 L987,228 L988,227 L989,224 L989,223 L990,222 L990,221 L991,220 L991,219 L991,219 L991,218 L992,218 L992,216 L993,216 L993,214 L993,214 L994,212 L994,211 L995,208 L995,208 L995,206 L996,205 L996,204 L996,204 L996,204 L997,204 L997,204 L997,203 L998,202 L998,202 L998,200 L999,193 L1000,190 L1000,190 L1000,190 L1000,190 L1001,190 L1001,190 L1001,190 L1001,190 L1002,190 L1002,190 L1002,189 L1002,189 L1003,190 L1004,187 L1005,186 L1005,186 L1006,186 L1006,186 L1006,187 L1007,189 L1007,189 L1008,193 L1008,195 L1009,197 L1009,198 L1010,200 L1011,204 L1011,205 L1011,205 L1011,208 L1012,209 L1012,209 L1012,209 L1012,210 L1013,210 L1013,212 L1013,213 L1013,214 L1014,215 L1015,221 L1015,222 L1015,222 L1015,223 L1016,225 L1016,225 L1016,226 L1016,226 L1016,226 L1017,227 L1017,228 L1017,229 L1018,230 L1018,231 L1018,232 L1019,232 L1019,233 L1019,234 L1019,234 L1020,235 L1020,236 L1020,237 L1021,240 L1021,242 L1022,243 L1022,245 L1022,245 L1023,246 L1023,247 L1024,248 L1024,249 L1024,249 L1025,250 L1025,250 L1025,250 L1026,250 L1026,250 L1027,251 L1028,253 L1029,253 L1029,253 L1030,254 L1030,254 L1032,255 L1033,256 L1034,256 L1035,256 L1036,256 L1036,256 L1036,257 L1036,257 L1037,257 L1037,257 L1037,258 L1038,258 L1038,258 L1038,258 L1038,258 L1038,258 L1038,259 L1039,259 L1039,259 L1039,260 L1040,261 L1040,261 L1041,261 L1041,261 L1042,261 L1042,261 L1042,261 L1043,261 L1043,261 L1043,261 L1045,262 L1046,262 L1047,261 L1048,260 L1048,259 L1048,256 L1049,254 L1050,253 L1050,252 L1050,251 L1051,250 L1051,250 L1052,249 L1052,249 L1052,248 L1053,248 L1053,246 L1054,244 L1054,244 L1055,244 L1055,243 L1056,243 L1056,243 L1057,242 L1059,238 L1060,236 L1060,235 L1061,235 L1061,234 L1061,234 L1062,234 L1062,233 L1062,232 L1063,231 L1063,229 L1063,229 L1064,229 L1064,228 L1064,227 L1064,226 L1065,226 L1065,226 L1066,221 L1066,220 L1067,218 L1067,218 L1068,218 L1068,218 L1068,217 L1069,216 L1069,216 L1069,216 L1069,215 L1070,214 L1070,214 L1070,213 L1071,211 L1071,210 L1071,208 L1072,207 L1072,205 L1072,203 L1073,203 L1073,201 L1073,199 L1074,198 L1074,198 L1074,196 L1075,193 L1075,191 L1076,184 L1077,182 L1077,181 L1077,181 L1077,180 L1078,179 L1078,179 L1078,179 L1078,177 L1079,177 L1079,174 L1079,173 L1080,173 L1080,173 L1081,171 L1081,171 L1081,171 L1081,171 L1081,171 L1081,170 L1081,170 L1082,169 L1082,169 L1083,167 L1083,164 L1084,161 L1085,157 L1085,156 L1086,156 L1086,154 L1086,154 L1087,154 L1087,150 L1088,149 L1088,148 L1089,145 L1089,145 L1089,144 L1090,143 L1090,140 L1091,140 L1091,139 L1092,137 L1092,137 L1093,134 L1094,132 L1094,131 L1095,131 L1095,130 L1095,130 L1096,130 L1097,130 L1097,129 L1099,124 L1099,124 L1099,123 L1100,123 L1100,123 L1100,123 L1102,116 L1103,112 L1103,112 L1103,111 L1103,111 L1104,110 L1105,110 L1105,110 L1105,109 L1105,109 L1105,109 L1106,108 L1106,108 L1106,108 L1106,108 L1106,108 L1107,108 L1108,108 L1108,108 L1108,108 L1109,108 L1109,108 L1109,107 L1110,107 L1110,107 L1110,107 L1110,107 L1111,106 L1111,106 L1111,105 L1112,105 L1112,104 L1112,103 L1113,103 L1113,103 L1114,102 L1114,102 L1114,102 L1114,102 L1114,102 L1115,102 L1115,102 L1116,102 L1116,103 L1116,103 L1116,103 L1117,103 L1117,103 L1117,104 L1118,104 L1118,104 L1119,105 L1119,105 L1120,105 L1120,105 L1120,105 L1120,105 L1121,105 L1122,106 L1123,106 L1123,106 L1124,106 L1124,106 L1124,106 L1125,106 L1125,106 L1126,106 L1126,106 L1127,106 L1127,106 L1127,106 L1129,108 L1130,109 L1130,109 L1130,109 L1130,109 L1131,109 L1131,109 L1131,110 L1132,110 L1132,110 L1133,110 L1133,110 L1133,110 L1133,111 L1134,110 L1135,111 L1135,111 L1135,112 L1135,112 L1136,112 L1136,112 L1137,113 L1137,114 L1138,114 L1139,114 L1139,115 L1140,116 L1141,116 L1142,116 L1142,116 L1143,116 L1143,117 L1144,117 L1144,117 L1145,118 L1145,118 L1145,118 L1146,119 L1146,119 L1147,119 L1147,119 L1148,119 L1148,119 L1148,119 L1149,119 L1149,119 L1150,119 L1150,118 L1150,118 L1150,118 L1151,118 L1152,119 L1152,119 L1152,119 L1152,119 L1153,119 L1154,119 L1154,120 L1156,120 L1156,120 L1156,121 L1157,121 L1157,121 L1158,121 L1158,121 L1158,122 L1158,122 L1159,123 L1159,124 L1160,125 L1160,125 L1162,125 L1162,124 L1163,124 L1163,124 L1163,124 L1164,125 L1164,125 L1164,126 L1165,127 L1165,128 L1165,128 L1166,129 L1166,130 L1166,130 L1166,130 L1167,130 L1167,131 L1167,131 L1168,130 L1168,130 L1169,129 L1169,127 L1169,127 L1170,127 L1170,127 L1170,127 L1170,127 L1170,127 L1170,127 L1171,127 L1172,128 L1172,131 L1172,131 L1173,134 L1174,135 L1174,135 L1174,135 L1174,137 L1175,137 L1176,137 L1176,138 L1177,138 L1179,142 L1179,142 L1179,144 L1180,145 L1180,145 L1180,145 L1181,145 L1181,146 L1181,146 L1181,146 L1182,146 L1182,146 L1182,147 L1182,148 L1183,149 L1184,150 L1184,151 L1184,151 L1185,151 L1185,151 L1185,152 L1185,152 L1186,152 L1186,153 L1186,153 L1186,153 L1187,153 L1187,154 L1187,154 L1188,154 L1188,155 L1188,155 L1188,155 L1188,155 L1189,156 L1189,156 L1189,156 L1189,156 L1190,157 L1190,157 L1190,157 L1190,157 L1190,157 L1191,157 L1191,157 L1191,160 L1191,160 L1191,160 L1193,164 L1193,164 L1193,164 L1193,164 L1194,165 L1194,165 L1194,165 L1194,165 L1195,165 L1195,166 L1196,167 L1196,168 L1196,169 L1197,171 L1197,172 L1198,174 L1199,176 L1199,176 L1199,177 L1200,178 L1200,178 L1200,179 L1200,179 L1200,179 L1201,180 L1201,181 L1201,181 L1202,181 L1202,182 L1202,182 L1202,183 L1203,183 L1203,183 L1203,183 L1204,184 L1204,184 L1204,184 L1204,185 L1204,186 L1205,188 L1205,188 L1205,188 L1206,190 L1206,191 L1206,191 L1206,192 L1206,192 L1207,192 L1207,192 L1208,194 L1208,194 L1209,197 L1209,198 L1210,199 L1210,199 L1211,200 L1212,200 L1212,201 L1213,201 L1213,201 L1214,203 L1215,206 L1216,206 L1216,206 L1216,207 L1217,207 L1217,207 L1217,208 L1218,209 L1218,211 L1219,215 L1220,216 L1220,216 L1220,217 L1220,217 L1220,217 L1220,217 L1221,217 L1221,217 L1222,217 L1222,217 L1222,217 L1223,218 L1223,218 L1223,218 L1223,218 L1223,218 L1224,219 L1224,219 L1225,223 L1225,224 L1225,224 L1226,224 L1226,224 L1226,225 L1226,225 L1227,226 L1227,226 L1228,230 L1228,231 L1228,232 L1229,233 L1229,233 L1229,233 L1230,233 L1230,234 L1230,234 L1230,234 L1231,234 L1231,235 L1231,235 L1233,241 L1234,242 L1234,242 L1235,243 L1235,243 L1235,245 L1235,245 L1236,247 L1237,247 L1237,247 L1237,247 L1237,247 L1237,247 L1238,247 L1238,247 L1238,247 L1238,246 L1239,245 L1239,245 L1239,244 L1240,244 L1240,243 L1240,243 L1240,243 L1240,243 L1240,243 L1241,243 L1241,242 L1242,241 L1243,239 L1244,237 L1244,236 L1244,236 L1244,235 L1245,235 L1245,234 L1245,234 L1246,233 L1246,233 L1246,232 L1247,231 L1247,231 L1247,231 L1247,231 L1248,230 L1248,228 L1249,226 L1249,225 L1250,221 L1250,221 L1250,221 L1250,221 L1251,218 L1251,218 L1251,218 L1251,218 L1251,218 L1252,217 L1253,217 L1253,216 L1254,214 L1254,214 L1254,212 L1255,210 L1256,209 L1256,207 L1257,205 L1257,205 L1257,205 L1257,204 L1258,203 L1258,203 L1259,202 L1259,201 L1259,200 L1259,200 L1259,200 L1259,200 L1259,200 L1261,198 L1261,197 L1261,194 L1262,192 L1262,192 L1262,192 L1263,189 L1263,186 L1264,186 L1264,183 L1264,183 L1264,183 L1265,181 L1265,181 L1265,181 L1266,179 L1267,177 L1267,177 L1267,175 L1267,175 L1268,174 L1269,169 L1270,160 L1271,161 L1271,160 L1271,160 L1271,160 L1271,160 L1272,159 L1272,159 L1273,159 L1273,159 L1273,158 L1273,157 L1274,157 L1274,157 L1274,156 L1275,153 L1275,153 L1275,153 L1276,151 L1276,150 L1277,149 L1277,148 L1277,147 L1277,147 L1278,146 L1278,146 L1278,146 L1279,145 L1279,145 L1279,144 L1279,144 L1280,143 L1280,141 L1281,140 L1281,140 L1282,139 L1282,138 L1283,138 L1283,137 L1283,137 L1284,138 L1284,138 L1285,138 L1285,137 L1286,137 L1286,137 L1286,137 L1286,137 L1287,137 L1287,137 L1287,137 L1287,137 L1288,136 L1288,136 L1288,135 L1289,134 L1289,133 L1289,133 L1289,133 L1290,132 L1290,132 L1290,131 L1291,130 L1291,130 L1291,130 L1291,129 L1291,129 L1292,128 L1292,128 L1292,128 L1292,128 L1292,128 L1293,128 L1293,128 L1293,128 L1293,128 L1293,128 L1293,128 L1294,128 L1295,129 L1295,130 L1296,130 L1296,130 L1296,130 L1297,131 L1297,131 L1297,131 L1297,132 L1298,132 L1298,133 L1299,133 L1299,133 L1299,134 L1301,134 L1301,134 L1301,134 L1302,135 L1302,135 L1302,135 L1302,136 L1302,136 L1303,137 L1303,137 L1304,139 L1304,139 L1306,143 L1307,142 L1307,142 L1308,142 L1308,142 L1309,142 L1309,142 L1309,142 L1309,141 L1309,141 L1310,142 L1310,142 L1310,143 L1311,143 L1311,143 L1311,144 L1312,145 L1312,145 L1312,145 L1312,146 L1313,147 L1313,147 L1314,147 L1314,147 L1314,147 L1314,148 L1315,148 L1315,148 L1316,149 L1316,149 L1316,149 L1316,149 L1316,149 L1317,149 L1318,149 L1318,149 L1318,149 L1319,149 L1320,150 L1320,150 L1320,150 L1321,151 L1321,151 L1321,151 L1321,151 L1322,151 L1322,151 L1322,151 L1322,151 L1322,151 L1322,151 L1323,151 L1323,151 L1324,152 L1324,152 L1325,152 L1325,153 L1326,153 L1326,153 L1326,153 L1326,153 L1326,153 L1326,154 L1327,154 L1327,154 L1327,154 L1327,154 L1328,155 L1328,155 L1328,155 L1329,156 L1329,156 L1329,157 L1329,157 L1330,158 L1330,158 L1330,159 L1330,159 L1331,159 L1331,160 L1331,162 L1332,163 L1332,163 L1333,167 L1333,167 L1334,170 L1335,172 L1335,173 L1336,175 L1336,175 L1336,175 L1337,177 L1337,180 L1338,183 L1339,184 L1339,185 L1339,187 L1340,187 L1341,189 L1341,191 L1341,192 L1342,192 L1342,193 L1343,193 L1343,194 L1343,194 L1343,194 L1343,194 L1343,194 L1343,194 L1343,194 L1344,195 L1344,196 L1344,196 L1345,196 L1345,200 L1345,200 L1346,201 L1346,201 L1346,204 L1347,205 L1347,207 L1347,208 L1348,210 L1348,210 L1348,210 L1349,211 L1349,211 L1349,212 L1349,212 L1349,212" fill="transparent" id="track" shape-rendering="geometricPrecision" stroke="black" stroke-width="2"/>
</g>
</g>
</svg>