<svg height="400" width="1440" xmlns="http://www.w3.org/2000/svg">
<g font-family="Libertinus Serif" font-size="15" id="world" shape-rendering="crispEdges" transform="translate(5 5)">
<g id="BG"/>
<g id="SL" transform="translate(71 360) scale(-1 -1)">
<text text-anchor="end" transform="translate(10 -5) scale(-1 -1)">
0
</text>
<text text-anchor="end" transform="translate(10 67) scale(-1 -1)">
200
</text>
<text text-anchor="end" transform="translate(10 139) scale(-1 -1)">
400
</text>
<text text-anchor="end" transform="translate(10 211) scale(-1 -1)">
600
</text>
<text text-anchor="end" transform="translate(10 283) scale(-1 -1)">
800
</text>
</g>
<g id="SB" transform="translate(71 360)">
<text text-anchor="middle" transform="translate(0 25)">
180
</text>
<text text-anchor="middle" transform="translate(269 25)">
200
</text>
<text text-anchor="middle" transform="translate(539 25)">
220
</text>
<text text-anchor="middle" transform="translate(809 25)">
240
</text>
<text text-anchor="middle" transform="translate(1079 25)">
260
</text>
</g>
<g id="SD" transform="translate(71 360) scale(1 -1) scale(1 1)">
<path d="M0,0 L0,360 L1349,360 L1349,0 L0,0" fill="lightgray" id="bg"/>
<path d="M0,0 L1349,0" stroke="black" stroke-width="3"/>
<path d="M0,0 L0,360" stroke="black" stroke-width="3"/>
<path d="M0,360 L1349,360" stroke="black" stroke-width="3"/>
<path d="M1349,0 L1349,360" stroke="black" stroke-width="3"/>
<path d="M0,0 L0,360" stroke="black" stroke-width="1"/>
<path d="M269,0 L269,360" stroke="black" stroke-width="1"/>
<path d="M539,0 L539,360" stroke="black" stroke-width="1"/>
<path d="M809,0 L809,360" stroke="black" stroke-width="1"/>
<path d="M1079,0 L1079,360" stroke="black" stroke-width="1"/>
<path d="M134,0 L134,360" stroke="black" stroke-dasharray="1.0,2.5,5.0,5.0,10.0,5.0"/>
<path d="M404,0 L404,360" stroke="black" stroke-dasharray="1.0,2.5,5.0,5.0,10.0,5.0"/>
<path d="M674,0 L674,360" stroke="black" stroke-dasharray="1.0,2.5,5.0,5.0,10.0,5.0"/>
<path d="M944,0 L944,360" stroke="black" stroke-dasharray="1.0,2.5,5.0,5.0,10.0,5.0"/>
<path d="M1214,0 L1214,360" stroke="black" stroke-dasharray="1.0,2.5,5.0,5.0,10.0,5.0"/>
<path d="M0,0 L1349,0" stroke="black" stroke-width="1"/>
<path d="M0,72 L1349,72" stroke="black" stroke-width="1"/>
<path d="M0,144 L1349,144" stroke="black" stroke-width="1"/>
<path d="M0,216 L1349,216" stroke="black" stroke-width="1"/>
<path d="M0,288 L1349,288" stroke="black" stroke-width="1"/>
<path d="M0,36 L1349,36" stroke="black" stroke-dasharray="1.0,2.5,5.0,5.0,10.0,5.0"/>
<path d="M0,108 L1349,108" stroke="black" stroke-dasharray="1.0,2.5,5.0,5.0,10.0,5.0"/>
<path d="M0,180 L1349,180" stroke="black" stroke-dasharray="1.0,2.5,5.0,5.0,10.0,5.0"/>
<path d="M0,252 L1349,252" stroke="black" stroke-dasharray="1.0,2.5,5.0,5.0,10.0,5.0"/>
<path d="M0,324 L1349,324" stroke="black" stroke-dasharray="1.0,2.5,5.0,5.0,10.0,5.0"/>
<path d="M0,191 L0,191 L0,191 L0,191 L0,192 L1,192 L1,194 L2,194 L2,195 L2,195 L2,195 L2,196 L3,197 L3,198 L3,198 L4,198 L4,198 L4,198 L4,198 L4,198 L5,199 L6,200 L6,201 L6,202 L6,202 L7,202 L7,205 L8,207 L9,208 L9,209 L10,212 L10,212 L10,213 L10,213 L11,213 L11,214 L11,214 L12,214 L12,214 L12,214 L13,214 L13,214 L13,214 L13,215 L14,215 L14,216 L14,217 L14,218 L15,219 L16,220 L16,220 L16,220 L17,221 L17,221 L17,221 L17,222 L17,222 L18,222 L18,222 L18,222 L18,222 L18,222 L18,222 L19,222 L19,222 L19,222 L20,222 L20,223 L22,227 L22,228 L23,228 L23,229 L24,229 L24,230 L24,230 L24,230 L25,230 L25,230 L25,230 L25,230 L26,231 L26,231 L26,231 L26,231 L26,231 L26,232 L27,234 L28,236 L29,238 L29,238 L29,238 L30,239 L30,239 L30,239 L31,239 L31,239 L31,240 L33,241 L33,241 L34,242 L34,243 L34,243 L35,244 L36,245 L36,246 L36,247 L37,248 L38,248 L38,248 L38,248 L38,249 L39,249 L39,249 L40,249 L40,249 L41,248 L41,245 L42,245 L42,244 L43,243 L43,242 L44,242 L44,241 L44,241 L44,241 L44,240 L45,239 L46,237 L46,237 L46,236 L47,236 L47,235 L47,235 L47,234 L48,234 L48,234 L48,234 L48,234 L48,234 L49,233 L49,233 L49,233 L50,232 L50,232 L50,232 L50,232 L51,231 L51,231 L51,230 L52,229 L52,229 L52,228 L53,227 L53,227 L53,225 L54,224 L54,222 L55,219 L56,217 L56,216 L56,216 L57,215 L57,214 L57,214 L58,213 L58,213 L59,212 L59,210 L60,209 L60,209 L61,207 L61,205 L62,203 L62,203 L62,202 L63,200 L63,200 L64,199 L64,198 L65,198 L65,198 L65,197 L65,197 L65,197 L66,197 L66,197 L66,196 L66,196 L67,196 L67,195 L67,195 L68,190 L69,186 L69,185 L70,182 L71,181 L71,181 L71,180 L72,179 L72,178 L72,177 L73,177 L73,176 L74,174 L74,173 L75,172 L75,172 L76,170 L76,170 L77,169 L77,168 L78,166 L78,166 L78,165 L79,164 L80,163 L80,163 L80,163 L80,163 L81,162 L81,162 L81,161 L82,160 L82,159 L84,155 L85,153 L85,152 L86,151 L87,149 L88,147 L89,146 L89,146 L90,144 L91,143 L92,140 L92,139 L92,138 L93,137 L94,137 L94,137 L94,136 L95,134 L96,133 L96,129 L97,128 L99,122 L99,121 L100,115 L101,115 L101,113 L102,113 L102,113 L102,112 L102,112 L102,112 L103,112 L103,112 L103,112 L104,111 L104,111 L105,111 L105,110 L106,110 L106,109 L107,108 L107,108 L107,108 L108,107 L109,106 L109,106 L109,106 L110,106 L110,103 L111,103 L111,103 L112,101 L113,99 L113,99 L114,99 L114,99 L115,100 L115,100 L115,100 L116,100 L116,100 L116,100 L117,101 L117,101 L117,101 L119,105 L121,107 L122,108 L123,108 L124,109 L124,110 L125,113 L126,114 L127,115 L127,116 L128,117 L128,117 L128,117 L128,117 L128,118 L129,118 L129,119 L129,120 L130,121 L130,121 L130,121 L131,122 L132,124 L132,124 L132,124 L132,124 L132,124 L133,125 L133,125 L134,126 L134,126 L135,128 L135,129 L135,130 L136,131 L136,132 L137,132 L137,132 L138,133 L138,134 L138,134 L138,134 L139,135 L140,136 L140,137 L141,137 L142,137 L142,137 L142,137 L143,137 L144,137 L144,137 L145,137 L145,137 L146,137 L146,137 L146,137 L147,137 L147,137 L147,137 L148,137 L148,137 L148,136 L148,136 L148,136 L149,136 L150,132 L151,131 L151,130 L151,128 L152,127 L153,127 L153,127 L154,125 L154,124 L155,124 L156,123 L156,121 L157,119 L158,118 L159,117 L159,116 L159,116 L160,116 L160,114 L162,109 L163,107 L164,105 L165,106 L165,104 L165,104 L166,104 L166,104 L166,103 L167,103 L167,103 L167,103 L167,103 L167,103 L168,103 L168,103 L169,102 L169,102 L169,101 L169,100 L170,99 L170,98 L170,98 L171,98 L171,98 L171,98 L171,98 L171,98 L171,98 L172,97 L172,97 L173,96 L173,95 L173,94 L174,92 L174,91 L174,91 L174,91 L175,91 L175,91 L175,91 L176,90 L176,89 L176,89 L177,89 L177,88 L179,83 L179,80 L180,78 L181,77 L182,76 L183,75 L184,72 L186,66 L186,66 L187,66 L187,66 L188,65 L188,65 L188,65 L188,65 L188,65 L188,65 L189,65 L189,65 L189,64 L189,64 L190,64 L190,63 L190,63 L191,63 L191,63 L191,62 L191,62 L192,62 L192,61 L192,61 L192,61 L193,61 L193,61 L193,61 L193,61 L194,60 L194,60 L194,60 L195,59 L195,59 L195,59 L196,59 L196,59 L196,59 L197,59 L198,59 L198,59 L198,59 L199,59 L200,59 L200,59 L200,59 L201,59 L201,59 L201,59 L202,59 L202,59 L203,59 L203,59 L203,59 L204,59 L204,59 L205,60 L205,60 L205,60 L206,60 L206,60 L207,60 L207,60 L207,60 L208,60 L208,60 L209,61 L209,61 L209,61 L209,61 L210,61 L211,62 L211,62 L211,62 L212,62 L212,62 L212,63 L212,63 L213,63 L213,63 L215,65 L215,65 L215,65 L216,65 L216,65 L217,65 L217,65 L217,65 L217,66 L218,66 L219,67 L220,69 L220,69 L221,69 L221,69 L221,69 L222,70 L223,71 L224,72 L224,72 L225,73 L226,73 L227,74 L228,74 L228,74 L228,75 L229,75 L229,76 L230,76 L231,77 L231,77 L232,78 L233,78 L233,79 L233,79 L233,79 L234,79 L235,80 L235,81 L235,82 L236,82 L236,83 L237,85 L237,86 L238,87 L239,90 L239,92 L240,94 L240,96 L241,101 L242,102 L242,104 L243,106 L243,108 L243,108 L243,108 L244,109 L245,111 L245,111 L245,112 L245,113 L246,113 L246,114 L246,115 L247,116 L247,116 L248,118 L248,118 L249,120 L249,121 L250,122 L250,123 L250,123 L251,124 L251,125 L252,125 L252,126 L254,128 L254,128 L254,130 L255,130 L256,131 L257,131 L257,131 L257,131 L262,128 L263,127 L264,127 L265,127 L265,127 L265,127 L266,127 L266,127 L266,126 L267,126 L267,126 L268,126 L268,125 L269,126 L269,126 L270,127 L270,127 L271,129 L271,129 L272,132 L272,132 L273,134 L273,134 L275,136 L276,136 L276,135 L276,135 L277,135 L277,135 L278,135 L278,135 L279,135 L279,134 L280,136 L280,136 L281,136 L281,136 L281,136 L281,137 L282,138 L282,139 L283,139 L283,139 L283,141 L284,143 L284,143 L284,143 L285,144 L286,146 L286,147 L286,147 L287,147 L287,148 L287,150 L288,150 L288,150 L288,151 L289,151 L289,152 L289,152 L290,152 L290,152 L290,152 L290,152 L290,152 L291,152 L291,152 L291,152 L292,151 L292,151 L293,150 L293,150 L293,150 L294,150 L294,149 L294,149 L295,149 L295,148 L295,148 L295,147 L296,145 L297,143 L297,141 L298,140 L298,137 L299,134 L299,134 L300,133 L301,130 L301,130 L301,128 L302,127 L302,125 L303,124 L304,123 L304,122 L304,122 L304,122 L305,121 L306,121 L307,121 L308,120 L308,120 L308,120 L309,118 L309,118 L309,118 L310,118 L310,118 L310,118 L311,118 L311,117 L311,117 L311,117 L311,117 L312,117 L312,116 L312,116 L313,115 L313,115 L313,114 L314,113 L314,113 L315,112 L316,110 L316,110 L317,109 L317,107 L318,105 L318,104 L319,104 L319,103 L319,103 L320,100 L320,100 L321,99 L322,98 L322,97 L322,97 L323,97 L323,97 L323,97 L326,93 L327,91 L328,90 L329,90 L330,90 L330,89 L331,88 L332,88 L334,88 L335,88 L335,88 L336,87 L339,82 L340,80 L341,80 L342,79 L344,77 L344,76 L345,75 L347,70 L349,68 L349,68 L350,68 L350,67 L351,66 L352,66 L353,64 L355,61 L356,59 L358,57 L359,57 L360,56 L360,56 L360,56 L361,56 L361,56 L361,56 L361,56 L361,56 L362,56 L362,56 L362,55 L362,55 L363,54 L363,54 L364,53 L365,52 L365,52 L366,51 L366,50 L367,50 L367,50 L368,49 L369,49 L369,49 L369,49 L369,49 L369,49 L369,49 L370,49 L370,48 L371,48 L371,48 L372,48 L372,47 L373,47 L373,47 L373,47 L374,47 L374,47 L374,47 L375,46 L375,46 L376,46 L377,46 L378,46 L379,46 L381,45 L382,45 L382,45 L383,44 L384,44 L385,44 L385,44 L385,44 L386,44 L386,44 L386,44 L387,44 L387,43 L389,43 L389,43 L389,43 L389,43 L389,43 L390,43 L391,43 L391,43 L391,43 L392,43 L392,42 L393,42 L393,42 L393,43 L394,43 L394,43 L394,43 L394,43 L394,43 L394,43 L394,43 L396,43 L396,43 L396,43 L396,43 L396,43 L396,43 L397,43 L397,43 L397,43 L397,43 L397,43 L397,43 L399,43 L399,43 L399,43 L399,43 L400,43 L400,43 L400,43 L401,43 L401,43 L401,43 L402,43 L402,43 L402,43 L402,43 L402,43 L403,43 L403,43 L405,44 L405,44 L406,44 L406,44 L407,44 L407,44 L407,44 L407,44 L408,44 L408,44 L408,44 L408,44 L409,44 L409,44 L410,44 L411,44 L412,44 L413,44 L414,44 L414,44 L414,44 L414,44 L414,44 L414,44 L416,44 L417,44 L417,44 L417,44 L418,44 L418,44 L419,43 L420,43 L420,43 L421,43 L422,43 L423,43 L424,43 L425,43 L427,44 L429,44 L431,44 L432,44 L432,44 L433,44 L434,44 L435,44 L435,44 L435,44 L438,43 L438,43 L438,43 L440,43 L445,44 L447,44 L449,44 L451,44 L451,44 L451,44 L451,44 L451,44 L454,43 L456,43 L456,43 L457,43 L457,43 L459,43 L459,43 L459,43 L459,43 L460,43 L460,43 L460,43 L460,43 L460,43 L460,43 L461,43 L461,43 L461,43 L462,43 L462,43 L462,43 L463,43 L463,43 L463,43 L463,43 L464,43 L464,43 L464,43 L465,43 L465,43 L465,43 L466,43 L467,43 L469,43 L470,44 L470,44 L471,44 L472,44 L473,44 L473,44 L473,43 L473,43 L474,43 L474,43 L474,43 L475,43 L475,43 L475,43 L475,43 L476,43 L476,43 L477,41 L477,41 L478,41 L479,41 L479,41 L479,41 L479,41 L480,41 L481,40 L482,40 L483,41 L483,41 L484,41 L485,40 L485,40 L486,40 L488,41 L489,41 L490,41 L491,41 L492,42 L493,42 L494,42 L495,42 L495,42 L495,42 L496,42 L497,42 L497,42 L498,42 L498,42 L498,42 L499,42 L499,42 L500,42 L502,41 L502,41 L503,41 L504,41 L505,41 L506,41 L506,41 L507,41 L507,41 L507,41 L507,41 L508,41 L508,41 L508,41 L508,41 L508,41 L508,41 L508,41 L510,41 L511,41 L511,41 L512,41 L513,41 L514,41 L515,41 L516,42 L518,42 L521,42 L522,42 L523,42 L523,42 L525,42 L526,42 L526,42 L526,42 L529,41 L531,41 L532,42 L534,43 L535,43 L535,43 L537,43 L542,42 L546,41 L546,41 L550,40 L551,40 L551,40 L552,40 L552,40 L553,41 L553,41 L553,41 L557,41 L558,41 L558,41 L558,41 L559,41 L559,41 L559,41 L560,41 L560,41 L560,41 L561,41 L562,41 L563,41 L564,41 L564,41 L565,40 L566,40 L567,41 L568,40 L569,41 L570,41 L571,41 L571,41 L572,41 L573,41 L574,41 L574,41 L574,41 L574,41 L575,41 L575,41 L575,41 L575,41 L576,41 L576,41 L577,41 L577,41 L577,41 L578,40 L579,41 L579,41 L579,41 L579,41 L580,41 L580,41 L581,41 L581,41 L583,41 L585,41 L586,41 L586,41 L588,40 L588,40 L590,40 L590,40 L593,40 L593,40 L595,40 L595,40 L595,40 L596,40 L596,40 L596,40 L597,40 L599,40 L602,40 L606,40 L606,40 L609,40 L609,40 L610,40 L611,40 L612,40 L612,40 L612,40 L613,40 L619,41 L619,41 L619,41 L624,41 L630,40 L630,40 L633,41 L635,42 L636,42 L639,41 L639,41 L639,41 L639,41 L639,41 L639,41 L639,41 L640,41 L640,41 L641,41 L641,41 L641,40 L642,40 L642,40 L643,40 L644,40 L645,41 L645,41 L646,41 L646,41 L648,41 L648,41 L658,41 L658,41 L659,41 L660,41 L662,41 L664,41 L669,41 L669,41 L669,41 L670,41 L671,41 L672,41 L672,41 L673,41 L673,41 L677,41 L677,41 L677,41 L678,41 L679,40 L680,40 L680,39 L681,39 L681,39 L682,39 L682,39 L683,39 L684,39 L685,39 L685,39 L686,39 L687,39 L688,39 L688,39 L689,39 L690,39 L690,39 L691,39 L692,39 L692,39 L693,39 L693,40 L694,40 L694,39 L695,39 L695,40 L696,40 L696,40 L697,40 L698,40 L698,40 L698,40 L698,40 L699,40 L700,40 L702,40 L702,40 L703,40 L703,40 L703,39 L704,39 L704,39 L706,39 L707,39 L707,39 L707,39 L707,39 L708,39 L708,39 L710,39 L713,40 L713,40 L714,40 L714,40 L715,40 L715,40 L716,39 L723,39 L723,39 L723,39 L724,40 L726,40 L726,40 L727,40 L727,40 L728,40 L732,40 L736,41 L736,41 L738,41 L738,41 L740,41 L740,41 L741,41 L742,41 L742,41 L745,41 L750,41 L753,40 L758,40 L759,39 L760,39 L760,39 L760,39 L760,39 L761,39 L761,39 L762,39 L762,39 L762,39 L762,39 L762,39 L764,40 L764,40 L764,40 L764,40 L765,40 L766,40 L766,40 L766,40 L767,40 L767,40 L768,40 L769,39 L769,39 L770,39 L770,39 L770,39 L770,39 L771,39 L771,39 L771,39 L771,39 L776,38 L776,38 L777,38 L777,38 L777,38 L778,38 L779,38 L780,38 L780,38 L782,38 L783,38 L783,38 L783,38 L784,38 L785,38 L785,38 L785,38 L785,38 L785,38 L785,39 L786,38 L787,38 L788,38 L789,38 L793,38 L795,39 L796,39 L796,39 L797,39 L797,39 L797,39 L797,39 L797,39 L797,39 L797,39 L798,39 L798,39 L798,39 L799,39 L799,39 L799,39 L801,39 L802,39 L803,39 L803,39 L803,39 L803,39 L803,39 L804,39 L804,39 L804,39 L804,39 L805,39 L805,39 L805,39 L806,40 L806,40 L806,40 L806,40 L807,40 L808,41 L809,42 L809,42 L810,42 L811,42 L811,42 L811,42 L812,42 L812,42 L812,42 L812,42 L812,42 L812,42 L813,42 L813,42 L813,42 L814,42 L815,42 L815,41 L815,41 L816,41 L816,41 L816,41 L816,41 L817,41 L817,41 L817,41 L817,41 L818,41 L818,41 L818,41 L818,41 L819,41 L819,41 L819,41 L819,41 L819,41 L819,41 L819,41 L820,41 L820,41 L821,41 L823,42 L823,42 L823,42 L823,42 L823,42 L823,42 L823,42 L823,42 L824,42 L825,42 L826,42 L834,43 L837,45 L837,46 L837,46 L838,46 L843,45 L843,45 L847,44 L848,44 L849,44 L850,44 L854,45 L855,45 L855,45 L856,45 L856,45 L865,44 L867,44 L868,44 L872,45 L878,45 L878,45 L880,45 L882,44 L883,44 L883,44 L884,44 L888,44 L889,45 L890,45 L890,45 L891,44 L892,44 L893,43 L894,43 L895,41 L896,41 L897,41 L897,41 L899,41 L899,41 L899,41 L900,41 L900,41 L901,41 L901,41 L902,41 L903,40 L903,40 L904,40 L904,39 L905,38 L906,38 L906,38 L907,37 L908,37 L908,37 L910,36 L910,36 L911,36 L911,36 L911,36 L911,36 L911,36 L911,36 L911,36 L912,36 L912,36 L912,36 L912,36 L913,36 L913,36 L913,36 L914,37 L914,37 L915,37 L915,37 L916,37 L916,37 L917,37 L917,37 L918,37 L918,37 L919,37 L919,37 L920,37 L921,37 L922,38 L923,38 L923,38 L923,38 L924,38 L925,38 L926,37 L927,37 L927,37 L927,37 L927,37 L929,37 L930,37 L931,37 L931,37 L931,37 L932,37 L932,37 L932,37 L933,37 L935,37 L936,37 L937,37 L939,38 L939,38 L941,38 L942,38 L942,38 L942,38 L942,39 L946,39 L947,39 L947,39 L948,39 L948,39 L948,39 L948,39 L949,39 L949,39 L949,39 L949,39 L949,39 L951,38 L951,38 L951,38 L952,38 L952,38 L953,38 L953,38 L953,38 L953,38 L954,38 L955,37 L956,37 L957,36 L957,36 L957,36 L957,36 L958,36 L959,36 L960,36 L960,36 L960,36 L961,36 L961,36 L961,36 L961,36 L961,36 L962,36 L963,37 L963,37 L964,37 L964,37 L965,37 L965,37 L965,36 L965,36 L966,36 L966,36 L966,36 L966,36 L967,36 L967,36 L967,36 L968,36 L968,36 L968,36 L968,37 L968,37 L968,37 L969,37 L969,37 L969,37 L969,37 L970,37 L971,37 L971,38 L971,38 L972,38 L972,38 L972,38 L972,38 L972,38 L973,38 L973,38 L974,38 L974,38 L974,38 L975,37 L976,37 L976,37 L977,37 L977,37" fill="transparent" id="track" shape-rendering="geometricPrecision" stroke="black" stroke-width="3"/>
</g>
</g>
</svg>