<svg height="400" width="1420" xmlns="http://www.w3.org/2000/svg">
<g font-family="Libertinus Serif" font-size="15" id="world" shape-rendering="crispEdges">
<g id="BG"/>
<g id="SB" transform="translate(0 360)">
<text text-anchor="middle" x="0" y="14.5">
80
</text>
<text text-anchor="middle" x="202.6428571428571" y="14.5">
100
</text>
<text text-anchor="middle" x="405.28571428571433" y="14.5">
120
</text>
<text text-anchor="middle" x="607.9285714285714" y="14.5">
140
</text>
<text text-anchor="middle" x="810.5714285714286" y="14.5">
160
</text>
<text text-anchor="middle" x="1013.2142857142857" y="14.5">
180
</text>
<text text-anchor="middle" x="1215.8571428571427" y="14.5">
200
</text>
</g>
<g id="SD" transform="translate(0 0)">
<path d="M0,0 L0,358.5 L1418.5,358.5 L1418.5,0 L0,0" fill="lightgray" id="bg"/>
<path d="M0,0 L1418.5,0" stroke="black" stroke-width="3"/>
<path d="M0,0 L0,358.5" stroke="black" stroke-width="3"/>
<path d="M0,358.5 L1418.5,358.5" stroke="black" stroke-width="3"/>
<path d="M1418.5,0 L1418.5,358.5" stroke="black" stroke-width="3"/>
<path d="M0,0 L0,358.5" stroke="black" stroke-width="1"/>
<path d="M202.64285,0 L202.64285,358.5" stroke="black" stroke-width="1"/>
<path d="M405.2857,0 L405.2857,358.5" stroke="black" stroke-width="1"/>
<path d="M607.9286,0 L607.9286,358.5" stroke="black" stroke-width="1"/>
<path d="M810.5714,0 L810.5714,358.5" stroke="black" stroke-width="1"/>
<path d="M1013.2143,0 L1013.2143,358.5" stroke="black" stroke-width="1"/>
<path d="M1215.8572,0 L1215.8572,358.5" stroke="black" stroke-width="1"/>
<path d="M101.32143,0 L101.32143,358.5" stroke="black" stroke-dasharray="1.0,2.5,5.0,5.0,10.0,5.0"/>
<path d="M303.9643,0 L303.9643,358.5" stroke="black" stroke-dasharray="1.0,2.5,5.0,5.0,10.0,5.0"/>
<path d="M506.60715,0 L506.60715,358.5" stroke="black" stroke-dasharray="1.0,2.5,5.0,5.0,10.0,5.0"/>
<path d="M709.25,0 L709.25,358.5" stroke="black" stroke-dasharray="1.0,2.5,5.0,5.0,10.0,5.0"/>
<path d="M911.8929,0 L911.8929,358.5" stroke="black" stroke-dasharray="1.0,2.5,5.0,5.0,10.0,5.0"/>
<path d="M1114.5358,0 L1114.5358,358.5" stroke="black" stroke-dasharray="1.0,2.5,5.0,5.0,10.0,5.0"/>
<path d="M1317.1786,0 L1317.1786,358.5" stroke="black" stroke-dasharray="1.0,2.5,5.0,5.0,10.0,5.0"/>
<path d="M0,358.5 L1418.5,358.5" stroke="black" stroke-width="1"/>
<path d="M0,310.7 L1418.5,310.7" stroke="black" stroke-width="1"/>
<path d="M0,262.9 L1418.5,262.9" stroke="black" stroke-width="1"/>
<path d="M0,215.1 L1418.5,215.1" stroke="black" stroke-width="1"/>
<path d="M0,167.3 L1418.5,167.3" stroke="black" stroke-width="1"/>
<path d="M0,119.5 L1418.5,119.5" stroke="black" stroke-width="1"/>
<path d="M0,71.7 L1418.5,71.7" stroke="black" stroke-width="1"/>
<path d="M0,23.9 L1418.5,23.9" stroke="black" stroke-width="1"/>
<path d="M0,334.6 L1418.5,334.6" stroke="black" stroke-dasharray="1.0,2.5,5.0,5.0,10.0,5.0"/>
<path d="M0,286.8 L1418.5,286.8" stroke="black" stroke-dasharray="1.0,2.5,5.0,5.0,10.0,5.0"/>
<path d="M0,239 L1418.5,239" stroke="black" stroke-dasharray="1.0,2.5,5.0,5.0,10.0,5.0"/>
<path d="M0,191.2 L1418.5,191.2" stroke="black" stroke-dasharray="1.0,2.5,5.0,5.0,10.0,5.0"/>
<path d="M0,143.4 L1418.5,143.4" stroke="black" stroke-dasharray="1.0,2.5,5.0,5.0,10.0,5.0"/>
<path d="M0,95.6 L1418.5,95.6" stroke="black" stroke-dasharray="1.0,2.5,5.0,5.0,10.0,5.0"/>
<path d="M0,47.8 L1418.5,47.8" stroke="black" stroke-dasharray="1.0,2.5,5.0,5.0,10.0,5.0"/>
<path d="M0,0 L1418.5,0" stroke="black" stroke-dasharray="1.0,2.5,5.0,5.0,10.0,5.0"/>
<path d="M0.42668587,241.71777 L0.42668587,241.71777 L1.3114042,240.43741 L1.5525631,240.43741 L1.7537122,240.43741 L3.2978015,234.49963 L3.992707,232.18451 L4.378157,231.86028 L5.0074806,231.5857 L5.117013,231.5857 L5.186735,231.42873 L5.2544284,231.42873 L5.380517,231.21391 L5.41623,231.21391 L5.678769,230.93437 L5.7878485,230.93437 L5.9098935,230.60393 L6.11018,230.43877 L6.2145896,230.05423 L6.2714133,230.05423 L6.550499,229.4663 L6.67766,229.01549 L6.8994427,228.23149 L7.1434464,227.9673 L7.6406903,226.79108 L7.8683333,225.80298 L8.138097,224.7332 L8.507772,223.93275 L8.61799,223.42271 L8.70631,222.8436 L8.7747555,222.8436 L9.477941,221.58168 L9.715625,219.93736 L10.057159,218.47707 L11.621006,214.34416 L11.899668,213.35188 L12.207311,212.10226 L12.515473,212.10226 L13.171037,211.40613 L13.611659,210.83711 L14.161975,211.11401 L14.552313,210.14075 L15.140521,209.78358 L15.417959,208.75056 L15.637489,208.75056 L16.456131,207.67506 L16.613905,207.44603 L17.20173,206.9979 L17.858002,205.19345 L18.078623,204.57338 L18.680182,203.27548 L19.554693,202.98953 L19.676323,202.98953 L20.097324,200.95462 L20.553928,199.86774 L21.999634,193.22125 L22.95401,191.18805 L23.254345,191.18805 L23.65749,191.4151 L23.833498,191.4151 L24.242981,191.18207 L24.454792,191.44962 L24.87363,191.7736 L25.636776,192.4481 L26.37036,194.36377 L26.780348,195.4303 L27.101786,196.17386 L27.676405,196.89351 L28.244337,197.48352 L28.447254,197.87288 L28.590105,197.87288 L29.032545,198.80455 L29.262575,199.16586 L30.037964,200.15381 L30.261675,200.15381 L30.877048,202.05537 L31.018072,202.05537 L31.375454,203.2987 L31.752565,203.867 L32.632442,206.46107 L32.7631,206.46107 L33.226257,207.63922 L33.41514,208.08861 L33.927246,209.01944 L34.141987,209.33643 L34.242496,209.33643 L34.381058,209.33643 L34.509422,209.33643 L34.921036,209.93977 L35.455822,210.9414 L35.675568,210.9414 L36.00107,211.94041 L37.468555,217.4661 L37.77732,219.04132 L38.08849,219.61493 L38.314556,219.53545 L38.572018,219.46266 L38.796265,219.46266 L39.06576,219.46266 L39.223804,219.46266 L39.54851,219.56195 L39.66907,219.56195 L39.837635,219.6629 L40.22985,219.87004 L40.425255,219.87349 L41.410667,219.62393 L42.13656,221.35284 L43.44424,222.42706 L43.772926,221.93839 L43.87279,221.93839 L44.002934,221.93839 L44.192444,221.4335 L45.45558,220.15964 L45.691986,219.82158 L46.150017,217.48659 L46.7768,215.99454 L47.427067,214.30174 L47.782753,213.21788 L48.22021,211.84662 L49.122528,209.20387 L49.25668,208.17697 L49.39566,208.17697 L50.05928,206.314 L50.458824,205.47014 L50.873005,205.47014 L51.079597,205.47014 L51.18154,205.02615 L51.265125,205.02615 L51.451973,203.39117 L51.874233,202.27489 L52.078426,201.786 L52.305088,201.3961 L53.434288,197.10513 L53.742817,196.10133 L53.867172,195.73589 L53.977818,195.081 L54.385883,193.46652 L54.576096,193.46652 L54.658222,193.26643 L54.82402,193.26643 L55.36171,192.79173 L55.59658,192.19424 L55.853725,191.90164 L56.041565,190.76297 L56.60827,189.8616 L56.85056,189.1538 L57.365814,188.87999 L57.613922,188.59674 L57.896328,188.1169 L58.056927,187.50745 L58.155437,187.20653 L58.577427,186.4937 L58.765953,186.09627 L59.152306,185.21196 L60.013485,183.00447 L60.44613,181.69975 L61.00514,180.60036 L61.316166,179.48303 L61.59497,179.10129 L61.98562,178.7242 L62.334476,177.95222 L63.19444,176.9341 L63.426445,176.47229 L63.67645,176.08723 L64.21522,175.90932 L64.53755,175.60823 L64.83131,175.54285 L65.4552,175.35089 L65.73457,175.3543 L66.58376,174.90703 L67.77859,173.13559 L68.02909,173.13559 L68.23349,173.13559 L69.1341,172.75876 L69.639336,172.75876 L71.98096,171.61395 L73.19516,171.46457 L73.57868,171.46457 L74.693214,171.28831 L75.676315,170.99493 L75.809364,170.87631 L75.94407,170.76152 L76.260765,170.63864 L76.71832,170.50772 L77.12571,170.22263 L77.31926,170.07877 L77.661064,169.95888 L77.69358,169.95888 L77.80327,169.79834 L77.925705,169.65414 L78.12402,169.37076 L78.36547,169.31128 L79.070206,168.86716 L79.33712,168.71378 L79.423805,168.5169 L80.00623,167.637 L80.49063,167.21503 L80.73679,167.2546 L81.59028,167.38605 L81.96989,167.38605 L82.37825,167.38232 L82.682144,167.47328 L82.97088,167.57655 L83.20764,167.57655 L83.40818,167.57655 L85.59096,166.78018 L86.642166,166.78854 L87.484116,167.18846 L88.09373,168.45517 L88.52377,169.19493 L88.993,170.89397 L89.806465,172.42256 L90.264786,173.33342 L90.60999,174.22304 L91.01326,174.47717 L91.36698,175.33997 L91.641174,175.33997 L92.21348,175.94225 L92.49952,176.19876 L93.03915,176.82549 L93.304115,177.38846 L93.8271,178.15657 L94.8524,179.61647 L95.28135,179.97298 L95.655785,180.28111 L96.13914,180.40062 L96.41536,180.40062 L96.71171,180.40062 L97.718155,181.19547 L99.72177,184.14471 L100.70645,185.6074 L101.387886,186.45287 L101.652565,186.57137 L101.97399,187.00688 L102.161224,187.00688 L102.9035,187.48355 L103.30251,187.72147 L103.63749,188.77216 L103.828735,189.4314 L104.29191,190.72 L104.74407,190.72 L104.99226,190.84802 L105.37849,191.69972 L105.55328,192.29541 L105.74776,192.7296 L105.93774,193.29364 L106.167816,193.29364 L107.13512,196.8189 L107.41442,197.50243 L108.734604,199.07504 L108.95138,199.00879 L109.0817,199.00879 L109.24457,199.10612 L109.77243,199.31166 L110.209694,200.31786 L110.408,200.31786 L110.64079,200.61844 L110.86299,200.90707 L111.33087,201.56662 L111.87031,202.00714 L112.11254,202.5047 L112.44911,204.29123 L112.68021,204.87949 L112.96735,206.11795 L113.18027,206.733 L113.97949,208.63704 L114.16518,209.54723 L114.47087,209.54723 L114.78883,211.28035 L115.09631,212.6709 L115.28812,213.53455 L115.748405,213.53455 L116.117584,214.85622 L116.54516,216.98279 L117.043846,218.8284 L118.017334,223.57799 L118.54719,225.31526 L118.79004,225.95929 L119.04558,225.95929 L119.39796,226.99352 L119.61215,227.3587 L119.7895,227.72104 L119.953415,227.72104 L120.17151,228.60901 L120.56226,228.60901 L121.221954,231.00146 L121.46786,231.48643 L121.72291,231.68341 L121.99057,232.07819 L122.71473,233.0397 L122.83315,233.0397 L122.91618,233.0397 L123.04026,233.0397 L123.1645,233.4808 L123.28932,233.68501 L123.47824,234.09026 L124.110664,234.64368 L124.70228,235.04854 L125.12385,236.12303 L125.46039,238.08498 L126.40614,240.7686 L127.20886,243.34084 L127.535934,243.90974 L128.40237,244.34763 L128.52519,245.4022 L128.65381,245.4022 L129.20764,245.8354 L129.87953,248.40704 L130.50609,249.40367 L130.80992,250.31964 L131.43173,252.29903 L131.63457,252.29903 L131.84451,252.77357 L132.3653,253.36922 L133.07573,255.58128 L133.18106,255.58128 L133.75102,256.94293 L134.4668,258.43753 L134.93028,258.43753 L135.44617,260.18222 L136.36687,261.6064 L136.95958,262.37762 L137.39415,262.37762 L137.65239,262.87952 L138.18611,262.87952 L138.77126,263.17996 L139.623,263.05774 L140.41682,263.87033 L141.75156,267.50928 L142.02011,267.50928 L142.55319,268.25757 L142.83101,268.25757 L142.93382,268.66672 L143.27614,268.66672 L144.95108,273.28625 L146.21053,276.27206 L146.31677,276.63983 L146.66483,277.18134 L146.79742,277.18134 L147.59772,278.09357 L148.14815,278.15298 L148.2208,278.15298 L148.31232,278.4845 L148.35803,278.8225 L148.41417,278.8225 L148.95262,279.09225 L149.16762,279.09225 L149.3899,279.09225 L149.60005,279.1998 L149.80974,279.33032 L150.35835,279.27948 L151.49696,279.02817 L151.6781,279.0325 L151.97145,279.01337 L152.24423,279.06293 L152.70607,279.52643 L152.89224,279.73663 L153.22798,279.73663 L153.36488,279.9236 L153.72287,280.0694 L154.00287,280.3231 L154.4732,280.67792 L154.65598,280.67792 L154.82718,281.1596 L155.26495,281.65063 L155.51811,282.2311 L155.78633,282.64935 L156.49509,283.05322 L156.7081,283.25482 L157.3609,283.3997 L157.45955,283.37833 L157.65506,283.4605 L157.81966,283.5431 L158.03575,283.55756 L158.55362,283.4981 L159.00183,283.45215 L159.48518,283.38412 L159.73752,283.213 L159.9849,283.04172 L160.25795,282.99554 L160.52158,282.99554 L160.95357,282.63922 L161.16132,282.32635 L161.61522,282.24466 L161.8641,282.12213 L162.94331,281.70212 L163.08806,281.52075 L163.70258,281.19547 L163.8887,281.19547 L164.07831,281.10156 L164.50096,281.1118 L165.29549,281.58298 L166.35294,280.98547 L167.0533,280.81006 L167.3719,280.7772 L167.85341,280.79813 L168.37025,280.79813 L168.58517,280.69653 L168.88289,280.71082 L169.64005,280.7241 L170.45892,280.65472 L170.82089,280.66794 L171.29175,280.67365 L171.61267,280.67365 L171.99121,280.38684 L173.9076,279.02353 L174.13155,278.59036 L174.46376,278.3527 L174.64961,278.3527 L174.9962,278.20795 L175.20636,278.20795 L175.59428,278.24597 L176.04463,278.09442 L176.43748,277.97293 L176.78697,277.80707 L177.50183,277.6415 L177.6949,277.52203 L177.87717,277.4942 L178.2677,277.36603 L178.53369,277.4575 L179.39764,277.0727 L179.62633,276.7946 L179.74947,276.65683 L180.26204,276.48715 L181.0404,276.14957 L181.26369,276.14957 L181.59523,275.7851 L181.90121,275.2085 L183.49074,274.85797 L183.73854,274.71616 L184.15085,274.44968 L184.95094,273.69482 L186.29381,273.10052 L186.90172,273.4126 L187.36108,273.38528 L188.27106,273.2995 L188.76237,272.97784 L188.91989,272.97784 L189.15593,272.70166 L190.11916,272.27597 L190.42903,271.96765 L190.73729,271.96765 L191.02835,271.41138 L191.4388,271.0469 L192.09396,271.31998 L192.32533,271.21243 L193.25618,271.45023 L193.68849,271.41104 L193.99594,271.29324 L194.32668,271.37582 L194.50716,271.46576 L195.33286,271.47745 L195.70132,271.6689 L195.82065,271.73343 L195.8612,271.73343 L196.26773,271.7908 L197.7145,271.44424 L197.74753,271.52524 L197.94394,271.3845 L198.03871,271.3845 L199.17567,271.33328 L199.44379,271.33328 L199.8,270.53366 L201.83012,270.2791 L201.96326,270.2433 L202.28838,269.9266 L203.07062,269.74496 L203.22006,269.74496 L203.54544,269.50293 L203.6926,269.50293 L203.9709,269.36734 L204.22931,268.82004 L205.05664,268.2536 L205.56197,267.8204 L206.00584,266.8953 L206.6811,267.0825 L208.00139,267.12347 L208.49728,267.32748 L209.07838,267.48282 L209.45506,267.33105 L209.7976,267.26285 L210.11462,267.0434 L210.44214,266.84152 L210.67896,266.34958 L211.15092,265.6465 L211.45886,265.0124 L211.6437,264.30826 L211.95346,263.74753 L212.45752,263.38904 L212.62476,263.1111 L212.91306,263.01352 L213.19136,262.91794 L213.49086,262.56973 L213.92828,262.45892 L214.32185,262.9809 L214.70354,263.37064 L215.1509,263.88174 L215.68515,265.0933 L216.03877,265.4991 L216.22743,265.4991 L216.29358,265.4991 L216.49318,265.58676 L216.66765,265.42053 L217.02072,265.3231 L217.18239,265.30396 L217.5088,265.30396 L218.35695,264.41367 L218.57399,262.61102 L218.95447,262.26187 L219.99658,260.52194 L220.39847,259.75415 L220.49112,259.49292 L220.58922,259.49292 L221.11862,258.3385 L222.18741,258.00647 L222.4827,257.94586 L223.32663,257.51056 L223.67296,257.51056 L225.80682,254.48123 L226.35417,254.09798 L226.63263,253.19394 L226.8891,252.35213 L227.08401,252.35213 L227.5025,252.32333 L227.73404,252.3123 L228.47116,251.84166 L228.5837,251.84166 L228.68521,251.57738 L228.77423,251.57738 L228.87894,251.57738 L229.13329,250.87395 L229.54602,250.21344 L230.47955,249.19795 L231.12854,248.52959 L231.53786,248.08798 L231.75375,247.68565 L232.01102,247.68565 L232.33658,247.6279 L232.5462,247.40881 L232.72527,247.40881 L233.07054,246.91432 L233.38496,246.6002 L233.48541,246.6002 L233.76822,246.31499 L234.06163,246.15247 L234.83981,245.65535 L235.00064,245.65535 L235.18204,245.4307 L235.6767,244.98297 L235.74974,244.98297 L235.90456,244.7376 L235.97867,244.7376 L236.2778,244.42978 L236.39548,244.34798 L236.58252,244.27393 L237.1531,243.99776 L237.34138,243.8132 L237.7007,243.8132 L237.83067,243.75012 L238.02278,243.53929 L238.1222,243.53929 L238.38832,243.40863 L238.4743,243.25221 L238.86732,241.57608 L239.07523,241.57608 L239.20918,241.11856 L240.53532,238.61543 L240.70102,238.61543 L240.78915,238.61543 L241.22287,238.03922 L241.59756,237.6138 L241.80084,237.50299 L242.16365,237.3011 L242.36255,237.3011 L242.9135,237.27681 L243.46544,236.63869 L243.79004,235.92407 L244.06935,235.30745 L244.50964,234.47394 L245.07874,233.41936 L245.53166,232.30534 L245.98431,231.31137 L247.09166,229.5834 L247.28438,229.34201 L247.43414,229.03804 L247.69225,228.36649 L247.80075,228.17697 L248.22638,227.65118 L248.41916,227.47337 L248.64102,227.29378 L249.36417,226.37921 L249.48882,225.89803 L249.65625,225.89803 L249.7922,225.63307 L249.97932,225.29164 L250.3929,225.02487 L250.53963,224.82411 L250.92722,224.59785 L251.24454,224.59785 L251.50784,224.32062 L251.93518,223.57256 L252.11023,223.41904 L252.29172,223.41904 L252.51118,223.0109 L252.72375,222.21707 L253.43097,221.10846 L253.72908,220.63365 L253.94658,220.63365 L254.45847,219.32663 L254.62248,218.6225 L254.70868,218.6225 L254.77992,218.26077 L254.89017,218.26077 L255.12015,218.26077 L255.65479,217.69514 L256.29352,216.65567 L256.5839,216.33563 L257.17416,214.14058 L258.13467,213.72746 L258.65982,213.12825 L259.11377,213.02753 L260.05844,212.10353 L260.47714,211.82912 L260.7383,211.33063 L261.53632,211.24414 L261.74072,211.24414 L262.64554,209.99734 L263.85898,208.03456 L264.67062,208.03456 L265.1448,207.36238 L265.46332,206.84918 L265.60394,206.84918 L265.63495,206.84918 L265.86826,206.37172 L266.8137,205.71925 L267.17535,204.2972 L267.88937,201.25473 L268.92697,200.07124 L269.09073,200.03304 L269.2403,199.78662 L269.30212,199.78662 L269.36588,199.78662 L269.44376,199.78662 L269.9367,199.48895 L270.50415,199.69725 L270.88974,199.60982 L271,199.56181 L271.59665,199.43898 L272.0896,199.15218 L272.18738,199.15218 L272.27618,199.15218 L272.4507,199.15218 L272.7872,198.9197 L273.26944,198.19275 L273.70648,197.87607 L274.79916,195.01404 L274.912,194.71547 L274.98804,194.71547 L275.16647,194.71547 L275.32834,194.39304 L275.79053,193.60521 L275.97372,193.60521 L276.1381,193.31117 L276.35974,192.94286 L277.55444,190.05063 L277.73203,189.7899 L278.06546,188.73233 L278.3858,188.24437 L278.50534,187.9735 L279.1454,187.77678 L279.4518,187.77678 L279.67792,187.51741 L279.92453,187.21304 L280.07416,187.21304 L280.27045,186.92668 L280.72528,186.57834 L280.8829,186.57834 L283.33148,181.99252 L283.75717,181.33954 L284.18396,181.33954 L284.57242,180.84532 L284.79333,180.33878 L285.01477,179.53246 L285.23126,179.24402 L286.2796,177.985 L286.65662,177.70386 L286.8697,177.4117 L287.03802,177.57332 L287.1957,177.50162 L287.40424,177.48691 L287.68677,177.48691 L287.8341,177.65724 L287.99564,177.83511 L288.25555,178.28697 L288.9206,179.28093 L289.1451,179.49199 L289.3028,179.72003 L289.8067,180.28111 L289.9034,180.58157 L290.03232,180.78879 L290.16315,180.78879 L290.30878,180.98674 L290.44315,180.98674 L290.81384,180.98674 L291.38824,181.67107 L291.86115,181.87103 L293.32883,183.41458 L293.94278,185.09056 L294.273,185.47993 L294.60696,185.91331 L294.85944,186.3157 L295.05832,186.5614 L295.72217,187.30942 L295.91858,187.30942 L296.10025,187.92911 L296.4133,188.28787 L296.64117,188.6168 L297.07214,189.14659 L297.2158,189.60667 L297.41696,189.60667 L297.52786,189.60667 L298.12372,190.00282 L298.80795,191.96915 L299.21072,192.73177 L299.58905,194.0919 L300.3671,196.46199 L300.49796,196.46199 L300.7531,196.46199 L301.0393,196.94252 L301.64755,198.58075 L301.81824,198.58075 L301.89426,198.73248 L302.05414,198.73248 L302.2098,198.73248 L303.11017,199.56738 L303.40738,199.88657 L303.8451,200.41478 L304.61826,202.10437 L304.90433,202.10437 L305.4012,203.11714 L306.15646,204.78052 L306.60294,205.3249 L307.0838,207.2555 L307.74918,208.23007 L307.90466,208.62788 L308.08368,208.62788 L308.4563,209.42574 L308.7068,210.0332 L309.5095,210.21521 L309.82626,210.6088 L310.17908,211.59105 L310.35074,211.8516 L310.41922,211.8516 L310.48776,211.99951 L310.57498,211.99951 L310.66333,212.31366 L311.92407,213.63214 L312.30286,214.32126 L312.66727,216.37466 L313.10614,217.62543 L313.2848,217.62543 L313.40942,217.62543 L314.05334,220.12335 L314.69275,222.12108 L314.96997,222.6504 L315.5855,224.76038 L315.70862,224.76038 L315.9117,224.76038 L316.16452,225.757 L316.33282,226.1092 L316.505,226.1092 L317.4128,227.64316 L318.1877,228.89296 L318.34003,229.09644 L318.79572,230.64183 L319.08005,230.64183 L319.5116,231.30818 L320.5519,235.02463 L321.71326,241.0554 L322.42667,240.86685 L322.73413,241.34937 L322.85806,241.34937 L322.99344,241.34937 L323.25824,241.4139 L323.76114,242.00957 L324.2092,242.2982 L324.455,242.33313 L324.71732,242.33313 L325.08655,242.6567 L325.3359,243.52507 L325.48175,243.52507 L325.62286,243.84619 L326.1851,244.34073 L327.01175,246.31938 L327.1628,246.70667 L327.28476,246.70667 L327.6352,248.02551 L327.98737,248.93504 L328.7917,249.49394 L328.95,249.78914 L329.43292,251.00331 L329.4847,251.00331 L329.78915,251.27863 L329.85153,251.50337 L329.9436,251.50337 L330.7215,251.99425 L330.8745,252.17686 L331.00494,252.65486 L331.40607,252.65486 L331.82562,253.74391 L332.14746,254.82446 L332.9442,255.5388 L333.4427,256.1568 L334.08258,256.70392 L334.41293,257.0923 L335.38376,257.55237 L335.498,257.74103 L335.67294,257.88696 L336.5572,257.60376 L336.96045,257.5616 L337.58844,257.67242 L337.9352,257.98856 L338.09146,257.98856 L338.34717,258.09427 L338.5288,258.1644 L338.76425,258.24463 L339.20547,258.21927 L339.38013,258.2634 L339.7309,258.21378 L339.93347,258.25485 L340.31302,258.58606 L340.4467,258.7322 L340.77106,259.36108 L341.39935,260.15833 L341.85626,260.91458 L342.05423,261.25943 L342.20285,261.25943 L342.59348,261.80978 L342.74887,262.0157 L342.93802,262.24918 L343.33047,262.83954 L343.4962,263.29303 L343.80615,263.46286 L343.8991,263.78192 L344.31012,264.27112 L344.72922,264.43463 L345.02863,264.64893 L345.04565,264.64893 L345.15033,264.64893 L345.17307,264.64893 L345.42462,264.72687 L345.47357,264.72687 L345.57718,264.7881 L345.68692,264.77167 L345.9028,264.80405 L346.044,264.8359 L346.64014,264.80176 L347.6686,264.17627 L348.4065,263.45767 L349.07388,262.86414 L349.24078,262.86414 L349.41403,262.86414 L349.66525,262.67188 L350.04184,262.48654 L350.3945,262.19098 L350.55576,262.0396 L350.79572,261.8464 L351.67136,261.3412 L352.0922,260.68262 L352.15265,260.68262 L352.60275,260.40842 L353.82327,260.16455 L354.01706,260.16455 L354.29303,260.04263 L354.87607,259.53726 L355.09995,259.53726 L355.39175,259.53726 L355.58926,258.82306 L355.6942,258.82306 L356.3227,258.39352 L356.7887,258.39352 L357.4905,256.98645 L357.576,256.98645 L359.3474,253.94547 L360.8814,254.38562 L361.00555,254.38562 L361.34586,254.71185 L361.7132,254.75488 L362.26025,254.6784 L362.65668,254.64163 L362.86548,254.54182 L363.06235,254.88553 L363.11667,254.88553 L363.70593,254.73616 L363.8959,254.3657 L364.13736,253.89311 L364.48868,253.62167 L364.7098,253.47972 L365.2371,252.6489 L365.79587,252.34355 L365.95868,252.17288 L366.0937,251.98505 L366.37936,251.57324 L366.9344,250.9261 L367.2163,250.7441 L367.4592,250.63731 L367.64005,250.63731 L368.0325,250.4242 L368.23837,250.35066 L368.58087,250.24219 L368.9977,250.09358 L369.66885,249.43713 L369.8964,249.2922 L370.00098,249.2922 L370.21484,249.24832 L370.5733,249.28896 L371.2246,249.53725 L371.88177,249.51839 L372.5305,249.30687 L372.64377,249.29791 L373.33066,249.22621 L373.78815,248.77075 L374.452,248.45074 L374.5611,248.38902 L375.12683,248.19296 L375.43414,248.07858 L375.6088,248.07858 L375.7377,248.07858 L375.98004,247.9864 L376.0834,247.9864 L376.2165,247.9864 L376.40604,247.9864 L376.70398,247.73453 L376.85986,247.7491 L377.20804,247.67754 L377.88016,247.60997 L378.65466,247.22812 L378.83124,247.00252 L379.2896,246.7914 L379.83176,246.73993 L380.0892,246.49948 L380.3916,246.42972 L380.6352,246.33282 L380.6933,246.22258 L380.8328,246.22258 L381.10822,246.00748 L381.5052,245.78282 L381.7781,245.66512 L382.0186,245.44553 L382.0908,245.44553 L382.22333,245.25882 L382.43164,245.093 L383.01038,244.74966 L383.234,244.4475 L383.6252,243.9951 L384.00192,243.67644 L384.21872,243.34245 L384.40942,242.9104 L384.5099,242.74632 L385.2522,241.85696 L385.29944,241.65689 L385.50735,241.65689 L385.84824,241.453 L386.32632,239.94513 L386.84152,239.23369 L387.16248,238.79924 L388.04666,235.97964 L388.1997,235.97964 L389.01013,233.65536 L389.68,232.73521 L389.8308,232.13008 L390.86627,230.59616 L390.97986,230.59616 L391.10406,229.98286 L391.81485,228.68544 L392.512,226.96037 L393.5713,224.14786 L393.9079,223.62433 L394.24316,223.17479 L394.77396,221.83383 L395.18326,221.34853 L395.9673,219.93974 L396.57538,218.4699 L396.7761,218.07317 L397.12656,217.78363 L397.47815,217.40636 L398.03238,216.95782 L398.21246,216.78047 L398.3236,216.78047 L398.40155,216.78047 L398.47644,216.78047 L398.58102,216.78047 L398.66888,216.628 L398.77933,216.42645 L399.3906,215.45428 L399.54004,215.35544 L399.71082,215.35544 L400.18558,214.73105 L400.7315,212.29375 L400.84488,212.01907 L401.1263,211.55882 L401.2555,211.55882 L401.78375,209.38356 L402.3788,208.19489 L402.69202,207.17795 L403.0426,206.02654 L403.4409,204.97375 L403.71924,204.97375 L403.95215,204.70549 L404.32813,204.23187 L404.443,203.84947 L404.52222,203.6743 L404.60126,203.6743 L404.9688,203.47664 L405.16226,203.08945 L406.14807,202.31534 L406.23953,202.31534 L406.30075,202.31534 L406.40338,202.12828 L406.49246,201.97238 L407.0162,200.84497 L407.32684,199.72168 L408.77884,194.45996 L409.22543,193.63129 L409.51645,193.11852 L409.66815,193.11852 L409.79886,193.17374 L409.92618,193.17374 L410.06537,193.17374 L410.3757,193.112 L410.82104,192.8252 L411.04483,192.8252 L411.40457,192.60307 L411.7901,192.27972 L412.27615,191.53061 L412.35855,191.53061 L412.43976,191.4882 L412.55563,191.4882 L413.21594,191.01477 L413.3639,191.01477 L413.41144,191.01477 L413.4965,190.80325 L413.58072,190.80325 L413.84,190.59055 L413.96262,190.59055 L414.11902,190.59055 L414.20013,190.59055 L414.8945,188.42209 L416.29187,183.29208 L416.53067,182.79437 L416.8501,182.56558 L417.108,182.12517 L417.86334,180.96896 L418.1878,180.96896 L418.2968,180.96896 L418.39096,180.72185 L418.46097,180.72185 L418.60223,180.49931 L419.24817,179.26672 L419.43048,179.26672 L419.6828,179.26672 L420.85104,173.10118 L421.73505,172.10942 L421.81082,172.15 L421.88535,172.15 L421.94992,172.15 L422.0075,172.15 L422.21762,172.07681 L422.4913,171.92615 L423.3532,171.47055 L423.4861,171.47055 L423.5481,171.47055 L423.64935,171.47055 L423.71164,171.47055 L423.78476,171.39328 L424.05344,170.94475 L424.36612,170.93063 L425.3541,170.20927 L425.8692,165.63383 L426.9708,163.44527 L427.5983,162.93654 L427.73953,162.93654 L427.92807,162.47903 L428.16165,162.47903 L429.10907,161.90201 L429.88754,161.19354 L430.854,158.74721 L431.52197,158.11842 L431.92416,156.72823 L432.25977,156.72823 L432.638,156.72823 L433.9408,154.81464 L434.79648,150.5461 L436.03012,148.658 L436.26874,148.658 L437.12564,147.98282 L437.8985,147.1045 L439.66647,143.04549 L440.29803,141.89032 L441.08792,141.89032 L441.2793,141.44702 L441.55814,141.06378 L442.10883,140.35872 L443.13556,138.99216 L443.44867,137.96446 L443.69525,137.44093 L444.9193,135.8954 L445.21918,135.14084 L446.1601,133.84796 L446.71844,133.84796 L447.05322,133.08316 L447.39413,132.45778 L448.82004,131.73282 L449.23523,131.3783 L449.90317,130.47488 L450.21906,130.47488 L451.89774,129.61449 L452.30304,128.62183 L452.949,128.62183 L455.76868,127.61405 L455.9416,127.58059 L455.97125,127.58059 L456.0526,127.58059 L456.13846,127.58059 L456.4437,127.623825 L457.10468,127.76598 L457.20856,127.76598 L457.46808,127.76598 L457.94925,127.9128 L458.2843,128.13876 L458.598,128.24501 L458.66812,128.24501 L459.0147,128.67209 L459.6664,129.15361 L459.87943,129.15361 L460.7794,129.64854 L460.86334,129.64854 L460.94504,129.64854 L461.2178,129.84187 L461.4093,129.84187 L464.3861,131.60774 L464.94415,131.38513 L465.09335,131.38513 L465.78577,131.38513 L466.48425,131.42311 L466.8411,131.42311 L466.93558,131.42311 L468.0348,131.79485 L468.45367,131.79485 L469.16812,133.02261 L469.61606,133.02261 L470.7197,133.99933 L471.94595,134.06194 L472.18036,134.06194 L472.5012,134.06194 L473.03677,133.61594 L473.26212,133.48416 L473.73886,133.34766 L474.56183,132.82425 L474.8588,132.54701 L475.18082,132.2889 L475.454,132.01404 L475.7926,131.79176 L476.61276,131.67838 L476.83347,131.7129 L476.99295,131.61464 L477.21872,131.51274 L477.51468,131.4261 L478.70535,131.37148 L480.23746,131.54082 L480.3958,131.4261 L480.93808,131.15921 L481.40863,131.0676 L482.266,130.88322 L482.8267,130.66472 L483.24542,130.3984 L483.7847,130.23508 L484.35367,130.17305 L484.98383,130.40736 L485.86624,130.66812 L486.22177,130.66812 L486.63937,131.0676 L486.76944,131.0676 L487.46655,131.72784 L488.66504,132.83142 L489.18765,133.34076 L489.3735,133.40024 L489.62802,133.54257 L489.91132,133.54257 L490.351,133.73245 L490.6734,133.73245 L490.9251,133.85062 L491.31976,133.9625 L492.35257,134.33234 L495.4486,139.21352 L495.71613,140.39258 L496.29016,141.04884 L496.8748,141.59555 L496.98798,141.59555 L497.6881,142.62325 L497.902,142.95894 L498.1368,142.95894 L498.39893,143.29005 L498.70767,143.29005 L499.0401,143.81825 L499.1532,143.81825 L499.50473,143.81825 L501.72208,150.00835 L502.12683,150.89983 L502.44855,151.33821 L503.29474,151.57115 L503.61554,151.57115 L504.16617,152.63496 L504.42203,152.63496 L504.84525,153.00302 L505.263,153.00302 L505.6962,153.21228 L505.97333,153.2229 L506.1849,153.2229 L506.58118,153.42007 L507.40756,153.27309 L507.86426,153.44518 L508.70673,154.09126 L508.94778,154.09126 L509.176,154.09126 L509.3829,154.09126 L509.80246,155.05524 L510.163,155.27232 L510.64685,155.68991 L511.6503,158.94994 L512.41095,159.7954 L512.81525,160.06786 L513.1202,160.06786 L513.4878,160.06786 L515.8179,162.4244 L516.0628,163.58356 L518.11664,168.2297 L518.3428,168.7393 L518.5601,168.7393 L519.2919,168.7393 L519.4974,169.09727 L519.5925,169.09727 L519.68317,169.09727 L519.754,169.09727 L519.92236,169.09727 L521.4244,170.09288 L523.2883,172.01627 L523.824,171.8649 L526.46436,176.29039 L526.8668,177.23842 L527.7333,177.6878 L528.10034,177.97334 L528.3444,178.29584 L528.7971,178.95033 L528.9008,179.19821 L529.1014,179.19821 L529.3228,179.60298 L529.4918,179.60298 L529.7424,179.60298 L530.0167,179.67422 L530.24963,179.78232 L530.41614,179.92638 L531.1679,181.63104 L533.0238,185.59943 L533.86926,186.12886 L534.4729,186.12886 L534.7649,186.12886 L534.9292,186.12886 L535.05536,186.0854 L535.12726,186.0854 L535.2443,186.0854 L535.37054,186.0854 L535.4383,186.0854 L535.6305,186.0854 L537.7392,190.68445 L538.0884,191.3195 L538.36066,191.3195 L538.82806,192.06339 L539.2698,192.47733 L539.6616,192.47733 L540.4347,193.91095 L540.85156,193.91095 L541.2353,194.69965 L541.84326,195.7888 L542.98425,196.58646 L543.4594,196.85533 L543.6288,196.85533 L544.1755,197.60254 L544.45844,197.60254 L544.9012,197.99194 L545.0509,198.29396 L545.6683,198.6276 L546.00775,198.6276 L546.5609,199.19626 L546.7786,199.19626 L546.9889,199.48135 L549.6107,202.18205 L550.1011,202.94685 L550.46747,203.14522 L552.0343,203.7953 L552.2909,204.0104 L552.6585,204.2255 L553.53326,204.23746 L553.7021,204.23746 L553.8545,204.23746 L554.2557,204.23419 L554.5398,204.2016 L554.7433,204.2255 L555.1289,204.25308 L555.88544,204.21355 L556.0504,204.21355 L556.3183,204.16443 L556.67914,204.11197 L556.835,204.07527 L557.04913,204.07527 L559.1069,206.84425 L559.2146,207.25682 L559.44916,207.16179 L559.71533,207.1174 L559.88275,207.1174 L560.8834,207.20822 L561.26886,207.29964 L561.5666,207.55058 L562.00104,207.79343 L562.8616,208.2221 L563.4308,208.8382 L563.786,209.31023 L564.18805,210.2483 L564.5284,210.2483 L565.40735,211.01907 L565.80707,211.14998 L566.01587,211.30946 L566.1332,211.452 L566.1913,211.452 L566.771,211.9213 L567.2817,211.9213 L567.4315,211.9213 L568.09595,212.57855 L568.3803,212.92111 L569.6525,213.74965 L570.8255,214.40988 L571.083,214.44673 L571.29016,214.44673 L571.8975,214.63794 L571.9671,214.63794 L572.1707,214.63794 L572.37445,214.63794 L573.0103,214.66084 L573.45514,214.64249 L575.3095,215.03786 L575.98474,214.98734 L576.6093,214.87296 L577.08966,214.86897 L577.36395,214.96988 L577.5144,214.96988 L577.78503,214.96988 L578.34125,215.18764 L578.7485,215.27686 L579.1533,215.2897 L579.89374,215.40274 L580.07495,215.40274 L580.11456,215.40274 L580.2123,215.40274 L580.44965,215.49776 L580.6055,215.49776 L580.7511,215.49776 L580.77466,215.49776 L580.8393,215.53532 L581.10474,215.53532 L581.2543,215.55962 L581.78815,215.5078 L582.85767,215.36555 L583.5203,215.00099 L583.7182,215.00099 L583.7193,215.00099 L584.7918,214.36508 L585.40314,214.0484 L585.7863,213.3075 L586.57623,212.29474 L587.1844,211.45923 L587.86786,210.36514 L588.12885,210.36514 L588.4406,210.02364 L588.6736,209.4596 L588.9251,209.4596 L589.45447,208.83102 L589.7427,208.83102 L590.2469,208.32436 L590.50995,208.06999 L591.2714,207.41853 L593.3698,202.68394 L594.2836,201.52878 L594.6808,201.32336 L594.9195,201.32336 L595.1925,201.32336 L595.4825,200.95917 L596.51404,200.64528 L599.4536,194.51527 L599.69574,193.58601 L600.0091,193.22467 L600.35,192.66321 L600.6182,192.18642 L600.8162,191.95561 L601.88916,191.78793 L602.1014,191.68597 L602.2679,191.68597 L602.3907,191.608 L602.514,191.608 L602.6499,191.60814 L602.8113,191.50728 L603.3299,191.44412 L603.4975,191.35774 L603.6415,191.35774 L603.7908,191.35774 L604.0098,191.24939 L604.6966,191.57588 L605.20044,191.45421 L605.5127,190.80167 L606.0189,189.49355 L606.7189,187.82692 L607.0111,187.67873 L607.2355,187.51257 L607.4305,187.51257 L607.9483,187.30981 L608.0661,187.02118 L608.1759,187.02118 L608.277,187.02118 L608.3792,186.88947 L608.571,186.88947 L608.7433,186.88947 L608.91504,186.50023 L610.06757,185.91093 L610.4036,186.25952 L610.78613,184.63945 L612.50775,182.67726 L612.7707,182.67726 L613.2566,181.31973 L613.6501,179.967 L615.1737,177.9833 L615.3266,177.52203 L615.4455,177.52203 L615.6499,177.5444 L615.83417,177.1946 L615.97205,177.28423 L616.13153,177.28423 L616.3178,177.36374 L616.48456,177.36374 L617.49225,177.2185 L617.75494,177.20416 L617.99054,177.03207 L618.2903,177.20953 L618.64417,177.4814 L619.7844,175.62517 L621.22125,174.17978 L621.4076,174.17978 L622.03076,174.19514 L622.3853,174.19514 L622.73505,174.15665 L623.1824,174.11389 L623.54376,174.39565 L623.9072,174.21906 L624.4497,173.9203 L624.8932,173.41309 L625.27826,173.11368 L625.60016,172.82431 L626.015,172.6058 L626.78265,171.6976 L628.4943,166.9893 L629.14124,166.06372 L629.38806,165.73256 L629.5915,165.40639 L629.782,165.40639 L629.9446,165.40639 L630.101,165.40639 L630.2774,165.40639 L630.4417,165.40639 L630.6543,164.85196 L630.92,164.75067 L631.25433,164.45271 L631.5834,164.14998 L632.4893,162.73727 L632.64404,162.73727 L632.80774,162.60843 L632.9677,162.5439 L633.4481,162.53673 L633.8922,162.57019 L634.27435,162.56563 L635.0342,162.34207 L635.3437,162.14412 L635.6712,162.08502 L636.03754,162.11104 L636.39343,161.76051 L636.8069,161.46123 L637.08496,161.11707 L637.3268,161.11707 L638.35925,159.84798 L638.61,159.47939 L638.9629,158.91907 L639.3674,158.05667 L639.7915,158.05667 L640.22705,157.81702 L640.7524,157.51466 L641.3571,157.27794 L642.16846,156.89752 L644.59216,154.8003 L647.5038,150.41066 L647.889,149.40231 L648.20123,149.0882 L648.4013,149.0882 L648.7755,149.04837 L649.578,148.6341 L649.7509,148.44887 L650.0934,147.92628 L650.65186,147.24606 L650.8353,146.83792 L651.34674,146.6998 L651.5805,146.67009 L651.7338,146.53793 L651.90497,146.462 L652.0685,146.462 L652.34717,146.4353 L652.50867,146.38188 L652.75385,146.23514 L653.1152,146.06406 L653.27673,146.06406 L653.43,145.91588 L653.5626,145.91588 L653.69464,145.8378 L653.8299,145.79683 L654.44366,145.76427 L655.34515,145.6944 L655.69214,145.5271 L656.0804,144.90305 L656.41675,144.70016 L656.87604,144.31537 L657.25726,144.31537 L657.72095,143.66528 L657.9167,143.66528 L658.1602,143.43585 L658.71796,143.161 L659.4447,142.73877 L659.56726,142.56828 L660.03033,141.7183 L660.73755,141.15938 L660.81757,141.12473 L661.5094,141.04823 L661.7335,140.95879 L661.85315,140.89847 L661.8903,140.89847 L662.06006,140.75392 L662.2443,140.72638 L662.3685,140.72638 L662.5448,140.72618 L662.6679,140.72618 L662.7312,140.72618 L662.9417,140.51765 L663.78284,140.69632 L664.13354,140.80226 L664.46875,140.9231 L664.8614,141.00104 L665.039,140.99976 L665.3707,141.57166 L665.59607,141.57166 L667.37085,144.36078 L668.3246,146.64442 L668.8351,146.64442 L669.8955,147.78564 L671.63794,150.58594 L672.027,151.22725 L672.44867,151.48845 L672.84503,151.48845 L673.21936,151.62459 L673.82153,151.98607 L674.4139,152.17564 L675.11456,152.425 L675.39465,152.48016 L675.89233,152.48541 L676.04596,152.48541 L676.1898,152.48541 L676.3834,152.39117 L676.5681,152.34372 L676.7824,152.34372 L676.9938,152.22707 L677.0809,152.10857 L677.28687,152.07729 L677.5376,151.87494 L677.90454,151.87494 L678.4014,151.57932 L678.8654,151.18271 L679.09875,151.02628 L679.46606,150.72403 L679.9555,150.00436 L680.54,149.62462 L681.0349,149.21301 L681.5001,148.94139 L681.97394,148.6102 L682.3378,147.74715 L682.7064,147.53171 L683.5576,145.9334 L684.1126,145.63464 L684.30304,145.63464 L684.79315,145.08893 L685.19324,144.65305 L685.42786,144.65305 L686.88776,142.1572 L687.54565,140.80685 L687.89716,140.80685 L688.1451,140.80685 L688.86334,140.80685 L689.43585,140.56068 L691.48,137.77553 L691.9272,137.61919 L692.1076,137.53653 L692.34045,137.53653 L692.4622,137.53653 L692.756,137.53653 L693.01154,137.53653 L693.46106,137.3772 L693.97955,137.4728 L695.4576,135.31839 L696.3298,134.6048 L696.9038,134.37476 L697.07886,134.1268 L697.4293,133.664 L698.23926,132.94283 L698.4666,132.79836 L698.7171,132.65419 L698.9807,132.5255 L699.1236,132.38428 L699.41174,132.3104 L699.709,132.0953 L699.8924,132.0953 L700.13727,132.0953 L700.593,131.65076 L701.4195,131.0729 L701.6143,131.02876 L702.6644,130.54977 L703.2804,130.37108 L703.8229,129.89252 L704.3085,129.89252 L704.995,130.13208 L705.5451,130.21616 L706.49884,130.33694 L706.89514,130.33694 L707.19293,130.50993 L707.55634,130.50993 L708.4899,130.6374 L710.603,129.87791 L711.07684,130.0312 L711.4998,130.0312 L711.69025,130.0312 L711.9711,130.10562 L712.17035,130.10562 L712.25385,130.16675 L712.5467,130.16675 L712.6774,130.27492 L712.9053,130.27492 L713.0793,130.27492 L713.8743,130.65044 L714.2041,130.95288 L715.73944,133.15884 L715.85504,133.15884 L716.0652,133.47809 L717.1385,134.51944 L717.3902,134.51944 L717.57935,134.51944 L718.3851,137.07607 L720.0115,142.45894 L720.4448,143.37013 L720.57086,143.37013 L721.3563,144.09744 L721.5791,144.09744 L721.79425,144.09744 L721.9992,144.09744 L722.3566,144.771 L722.7798,145.6944 L722.9805,145.6944 L723.3025,145.9421 L724.3275,147.2933 L724.7234,147.90276 L725.1358,148.38614 L725.7218,149.27342 L725.8726,149.27342 L726.20966,149.27342 L726.72015,149.60718 L727.3796,150.28798 L729.7484,157.8834 L731.1265,158.81366 L731.2787,158.85306 L731.4498,158.94456 L731.53894,159.09334 L731.651,159.09334 L731.71985,159.09334 L731.9057,159.2696 L732.2611,159.52951 L732.36273,159.52951 L732.6568,159.77994 L732.8422,159.77994 L733.0545,159.77994 L733.1642,159.87158 L733.33307,159.9627 L733.5387,160.04465 L734.24664,161.51436 L734.5121,161.9464 L735.61426,166.50912 L735.9915,166.50912 L736.2419,166.6547 L736.62274,167.50314 L736.81665,167.78653 L737.0712,167.78653 L737.2207,167.78653 L737.3466,168.04727 L737.5256,168.04727 L738.0981,169.27623 L738.3316,169.51314 L738.4761,169.51314 L738.6506,169.73439 L738.7606,169.73439 L739.34644,170.58624 L739.69464,171.68167 L739.8654,171.98073 L740.03534,171.98073 L741.0499,174.34572 L741.386,174.63995 L741.68427,174.63995 L741.8903,175.38086 L742.1371,177.00606 L742.4382,177.30453 L743.81476,178.60709 L744.001,179.16396 L744.15247,179.41078 L744.28577,179.74951 L745.22626,181.06456 L745.56305,181.06456 L745.737,181.06456 L745.875,181.2337 L746.0602,181.32713 L746.35297,182.10605 L746.5575,182.10605 L746.8775,182.52647 L746.95764,182.52647 L748.28375,186.46301 L748.6718,187.4746 L749.0621,189.94658 L749.31976,190.08148 L749.6546,190.50139 L750.0076,190.62811 L750.76227,191.34682 L750.89075,191.34682 L751.0582,191.34682 L751.29846,191.44754 L751.4508,191.3912 L751.54596,191.3912 L751.60126,191.3912 L751.87146,191.21434 L752.11346,191.31471 L752.65924,191.37328 L753.0876,191.21878 L753.4103,191.37926 L753.6365,191.44298 L753.795,191.44298 L754.0603,191.3673 L754.2797,191.5346 L755.00134,192.29343 L755.4095,192.70148 L755.57495,192.9672 L756.18823,193.54903 L756.33575,193.64883 L756.4216,193.75389 L756.5133,193.75389 L756.6431,193.8768 L756.8676,193.8768 L757.01373,193.8768 L757.165,193.98993 L757.3395,194.03285 L757.5599,194.1304 L758.44586,194.44907 L758.6091,194.68097 L759.0496,194.90002 L759.1996,194.98666 L759.3242,194.98666 L759.4327,195.03516 L759.5385,195.03516 L759.8325,195.15375 L760.0638,195.15375 L760.2472,195.19768 L760.58923,195.20325 L760.7475,195.17291 L760.9679,195.17291 L761.2056,195.18579 L762.2186,195.17218 L763.06354,194.94832 L763.45435,194.72923 L763.7399,194.67233 L764.23346,194.48758 L765.2983,193.31316 L765.586,193.43863 L765.78015,193.59 L766.14465,193.59 L766.53326,193.79315 L766.6305,193.79315 L766.73706,193.79315 L766.86005,193.79315 L767.03107,194.24634 L767.5006,194.68756 L767.7809,195.19681 L768.3393,195.44333 L768.91705,198.97546 L769.2009,199.67255 L769.74243,200.27518 L770.49274,203.3412 L770.8397,203.3412 L771.9345,205.97319 L772.1616,206.32605 L772.49005,206.32605 L773.1085,207.74597 L773.29285,207.75401 L773.76953,207.75401 L774.1494,207.97302 L774.54865,208.52032 L774.85846,208.52032 L775.11206,208.60138 L775.29944,208.77367 L776.1935,209.1226 L776.5118,209.01419 L776.90594,208.91786 L777.4781,208.8435 L777.86194,208.86449 L778.1407,208.97073 L778.52747,209.1011 L778.9866,209.14456 L779.4147,209.26105 L779.70264,209.14706 L779.99286,209.11305 L780.3706,208.96965 L780.5231,208.96965 L780.7027,208.884 L781.10077,208.97725 L781.39856,208.645 L781.69745,208.3343 L782.2333,208.09251 L782.64557,207.3803 L783.4049,206.99551 L783.66315,206.71907 L784.3669,207.02478 L784.64264,207.96825 L784.9859,208.08669 L785.1649,208.52989 L785.83185,209.99336 L786.5185,211.10631 L786.6597,211.10631 L787.1188,212.04346 L787.4736,212.38867 L787.86145,212.56958 L788.54425,212.50287 L788.8146,213.03862 L789.3373,213.3075 L790.1221,213.10136 L790.6833,213.2119 L791.1881,213.75894 L791.55133,213.98865 L791.80774,213.98865 L792.33575,214.5025 L792.7569,214.39325 L793.1031,214.46068 L794.067,214.58615 L795.0654,214.45071 L795.85986,214.69029 L796.26074,215.15079 L796.46246,215.45053 L797.448,216.10619 L797.866,216.26024 L798.06244,216.6144 L798.2511,216.66743 L798.41205,216.98375 L798.63055,217.32748 L799.32574,217.40526 L799.8322,217.77028 L800.03674,217.94627 L800.22253,218.09402 L800.78406,218.4221 L801.39374,219.11998 L801.964,220.76797 L802.2033,221.35628 L802.62146,221.98149 L802.8592,222.22049 L803.2985,222.3895 L803.443,222.60118 L803.5403,222.60118 L803.6849,222.60118 L803.8371,222.84837 L804.00055,223.3949 L804.2313,223.97168 L804.64636,224.41537 L804.82623,224.85823 L805.3239,225.33171 L805.79846,225.74825 L805.90533,225.82257 L806.1773,225.76111 L806.5167,225.68599 L806.6448,225.68599 L806.7733,225.93958 L806.8788,226.22821 L807.11084,226.22821 L807.2756,226.19131 L807.9459,226.25533 L808.2945,226.1657 L808.8977,225.64946 L809.19525,225.31725 L809.5744,225.24043 L810.5138,226.74886 L810.8371,226.74886 L811.6681,227.3637 L811.8661,227.3637 L812.14166,227.55455 L812.2977,227.55455 L812.4732,227.55455 L813.5338,227.89247 L813.93164,228.20119 L814.72705,228.1255 L816.81335,229.93393 L817.03394,230.52505 L817.2796,230.52505 L817.6999,230.52505 L818.2128,230.52505 L820.59076,230.50356 L821.213,230.8501 L822.4977,230.8501 L822.83856,231.00943 L825.27386,232.26617 L825.6616,232.48326 L826.7048,233.24608 L828.1542,235.76753 L829.00543,236.16386 L829.50464,236.16386 L832.6586,236.6578 L834.0544,236.69963 L835.6276,236.71158 L836.03827,236.71158 L836.3913,236.66975 L838.24194,236.18776 L838.47125,236.19574 L838.8383,236.67487 L839.1758,237.28218 L840.0132,237.8953 L840.34216,238.65211 L840.6268,239.46472 L841.06354,240.60608 L841.706,241.10054 L842.1626,242.19064 L842.50964,242.92677 L842.81085,243.302 L843.0311,243.4932 L843.90656,243.68839 L844.0057,243.68839 L844.23553,243.73021 L844.9318,243.86908 L845.00305,243.86908 L845.2095,243.9234 L845.5807,243.956 L845.7995,243.956 L846.0441,243.921 L846.397,243.84904 L847.28595,244.13054 L847.9578,244.58464 L848.7931,244.89534 L848.9481,244.9296 L849.0638,244.9296 L849.34143,245.00156 L849.68866,245.17923 L850.05597,245.29765 L850.6869,245.39525 L850.93976,245.40085 L851.47504,245.54594 L851.69916,245.54594 L852.3135,245.86726 L852.55817,246.05267 L853.2787,246.74544 L853.8263,246.87598 L854.0712,246.87598 L854.3433,246.93282 L854.47186,246.85023 L854.64667,246.95671 L854.6971,246.95671 L854.9998,246.83736 L855.2794,246.83736 L855.68207,246.67374 L855.83655,246.67374 L856.4337,246.4568 L856.7497,246.13416 L857.4578,245.36337 L858.07745,244.91696 L859.102,244.72575 L859.4426,244.72404 L859.89136,244.95793 L860.29956,245.12138 L861.1053,245.44823 L861.4647,245.43973 L862.01794,245.67706 L862.2179,245.67706 L862.5738,245.931 L862.94653,245.931 L863.67957,246.43887 L864.5676,246.27621 L865.0754,245.82744 L865.66846,245.60358 L866.18726,245.51408 L866.40283,245.51408 L866.556,245.47212 L866.7801,245.2804 L866.87134,245.2804 L867.54004,245.137 L868.57764,244.61949 L869.08606,244.5209 L869.578,244.79575 L870.40955,245.4291 L870.6947,245.47093 L871.47144,246.12752 L871.71045,246.34029 L871.9943,246.5763 L872.1713,246.5763 L872.86383,247.37097 L873.3825,247.50308 L873.81757,248.1025 L874.48395,248.4405 L875.0054,248.98224 L876.6347,249.19334 L876.9643,249.516 L877.37555,249.73451 L877.94147,249.73451 L878.5147,249.73451 L878.8788,249.19933 L879.2767,249.09946 L880.69366,249.23982 L880.883,249.33197 L881.3197,249.5399 L881.45355,249.5399 L881.72284,249.80714 L881.9163,249.98206 L882.2142,250.10614 L882.7449,250.34514 L883.0229,250.56561 L883.2896,250.56209 L883.5366,250.71317 L883.80225,250.86874 L884.1435,251.08278 L884.676,251.46518 L885.1841,251.66402 L886.3128,251.88551 L886.7649,252.40193 L887.2646,252.66183 L887.8788,252.79826 L888.1833,253.05798 L888.455,253.11693 L888.71173,253.20616 L888.8803,253.42126 L889.4615,253.58553 L890.04626,253.52753 L890.7035,253.57501 L890.84216,253.62878 L890.9753,253.7224 L891.4046,253.7224 L891.59515,253.70567 L891.80505,253.70567 L892.0271,253.70567 L892.29614,253.65787 L892.7512,253.71284 L894.2773,254.8696 L894.68414,255.04486 L894.81494,255.60254 L895.0836,255.60254 L895.59503,255.60254 L896.787,256.38327 L898.1918,257.46786 L898.7418,258.66754 L899.2526,259.0561 L899.7315,258.99512 L899.91327,259.01456 L900.05945,259.01456 L900.2683,259.1624 L900.44275,259.2211 L900.59863,259.2211 L900.74884,259.2211 L900.9114,259.3867 L901.073,259.3867 L901.37994,259.60577 L901.78253,259.79517 L902.467,260.28162 L904.1785,261.82928 L904.7342,262.52237 L905.52234,262.52237 L906.0605,262.52237 L906.5809,263.3015 L908.4769,265.37964 L909.0389,265.30792 L909.21643,265.30792 L910.6542,265.29398 L911.3271,265.2183 L912.24805,265.71222 L912.46747,265.71222 L912.8681,266.44916 L913.40076,266.70276 L913.6254,266.59015 L913.8525,266.42923 L914.0237,266.42923 L914.62384,266.58276 L914.8282,266.58276 L915.53955,266.8913 L915.6699,267.26892 L915.8271,267.26892 L916.1743,268.18906 L917.2908,268.95322 L917.62506,269.29086 L917.92377,270.20743 L918.16364,270.20743 L918.3861,270.34784 L918.57,270.22137 L918.83466,270.14886 L920.3171,270.16858 L920.5788,270.29407 L920.8192,270.17242 L921.34375,271.09238 L922.06573,271.53226 L922.5355,272.20508 L922.9868,272.99176 L923.164,272.99176 L923.3182,273.0759 L923.7043,273.41785 L923.9651,273.43478 L924.2189,273.59183 L924.4243,273.61038 L924.63135,273.7028 L924.99023,273.7013 L925.23157,273.73785 L925.4833,273.79327 L925.74164,273.83148 L926.1572,273.8402 L926.39923,273.93582 L926.68164,273.90118 L926.921,274.0439 L927.16626,274.04456 L928.23083,273.95374 L928.86676,273.62512 L929.20184,273.64474 L929.71747,273.652 L930.4128,273.5116 L930.6821,273.5116 L931.031,273.43726 L931.63165,273.3174 L932.01373,273.66696 L932.33325,273.89136 L932.99084,274.3428 L934.0225,274.66412 L934.2456,274.83142 L934.6973,275.046 L934.87646,275.046 L935.13025,275.23956 L935.6613,275.23956 L936.20593,275.02924 L936.3594,274.77112 L936.5973,274.66098 L936.98987,274.67474 L937.92065,274.07193 L938.23584,273.95078 L938.5403,273.76425 L939.0908,273.28284 L939.2976,273.28284 L940.62274,276.12772 L940.8082,276.09622 L941.3959,276.77396 L941.50305,276.77396 L941.5944,276.7381 L941.74805,276.7381 L941.82556,276.7381 L942.13477,276.75687 L942.25806,276.82574 L942.4125,276.82574 L942.5375,276.90988 L942.81964,277.11154 L943.5664,277.13165 L943.9767,277.04144 L944.25385,277.09845 L944.46497,277.22345 L944.8158,277.37238 L945.0387,277.56726 L945.25824,277.56726 L945.7707,277.71432 L946.1311,277.77377 L946.2978,277.7723 L946.4875,277.6881 L946.77466,277.64413 L946.9939,277.5746 L947.3894,277.8136 L948.4793,277.90323 L948.984,279.06595 L949.47577,279.62283 L950.15454,279.83713 L950.59064,280.1167 L950.72546,280.19763 L950.8222,280.19763 L950.92303,280.28082 L951.0293,280.56808 L951.1323,280.56808 L951.56165,280.89886 L952.0055,280.96243 L952.7079,281.09506 L952.93335,281.12076 L953.7742,281.54996 L954.99603,282.2877 L955.43005,282.33752 L955.9722,282.4502 L956.82513,282.56287 L957.1509,282.63342 L957.4539,282.63342 L958.3402,282.8995 L959.9603,284.52353 L960.7218,284.82108 L961.7485,284.87094 L962.26215,285.0075 L962.5939,285.0075 L962.97705,285.40982 L963.5808,285.40982 L964.7986,287.20972 L966.19305,287.62732 L966.2696,287.62732 L966.33813,287.62732 L966.62354,287.67575 L966.897,287.69455 L967.4591,287.5423 L967.67,287.47583 L967.8397,287.47583 L967.91394,287.41638 L968.03656,287.3545 L968.14417,287.29395 L968.2127,287.29395 L968.36743,287.07675 L968.832,286.91574 L968.95374,286.71194 L969.21686,286.567 L969.35846,286.41873 L969.6959,285.90375 L969.89325,285.6954 L970.0371,285.53848 L970.1583,285.47464 L970.2657,285.26563 L970.4659,285.0087 L970.9316,284.86157 L971.0334,284.73798 L971.29407,284.40335 L971.40125,284.27362 L971.48615,284.27362 L971.5578,284.27362 L971.711,284.08734 L971.786,283.9545 L971.9382,283.80502 L972.3971,283.00787 L973.2953,282.9776 L973.7208,282.93738 L974.0108,282.94614 L974.10315,282.94614 L974.42615,282.92603 L974.72284,282.53476 L975.2068,282.53476 L975.40607,282.68124 L975.6544,282.46307 L975.7829,282.5916 L975.93164,282.3362 L976.4977,282.07214 L976.7204,281.7133 L977.45685,280.52863 L977.9485,278.95428 L978.38403,278.2916 L978.6959,277.8594 L978.96375,277.41754 L979.7137,277.08978 L979.831,277.08978 L979.9505,277.08978 L980.2531,276.53256 L980.44696,276.1581 L980.5718,275.93298 L980.80176,275.8108 L980.92346,275.8108 L980.98956,275.8108 L981.4905,275.29773 L982.0012,274.44186 L982.1385,274.12445 L982.3602,273.6055 L982.5112,273.07117 L983.40857,271.15836 L983.60004,270.7392 L984.0364,270.39725 L984.3544,270.10983 L984.4264,269.6637 L984.7203,269.2315 L985.1696,269.08273 L985.25073,269.08273 L985.53894,268.86398 L985.6505,268.6507 L986.3849,267.85413 L986.7283,267.7517 L986.92896,267.32516 L987.47626,266.12308 L987.6213,265.58533 L987.76385,265.26794 L988.0102,264.92194 L988.3564,264.92194 L988.8747,264.27936 L989.0233,264.0472 L989.2488,263.55487 L989.4302,263.34067 L989.5935,263.10394 L989.8585,262.39468 L989.934,262.39468 L990.4501,261.3274 L991.1206,260.16644 L991.2434,260.16644 L991.39166,259.71146 L991.65234,259.25375 L991.96594,258.51285 L992.11194,258.51285 L992.3907,258.3258 L992.611,258.11603 L992.9047,258.11603 L992.9697,258.05206 L993.27246,257.7812 L993.3519,257.7812 L993.48627,257.62793 L993.70013,257.48877 L993.8967,257.48877 L994.1805,257.29694 L994.4029,257.29694 L994.60736,257.22614 L994.9329,257.20996 L995.41876,257.0858 L995.6391,256.95108 L995.95215,256.447 L997.29816,254.81781 L997.4588,254.69632 L997.7382,254.4546 L997.8528,254.4546 L998.04376,254.10242 L998.258,254.22865 L998.37354,254.22865 L998.9988,254.39711 L999.2135,254.40753 L999.4794,254.21634 L1000.0881,253.2775 L1000.4207,252.6616 L1000.818,252.35327 L1001.04596,251.82065 L1001.1678,251.40251 L1001.3376,250.70145 L1001.8993,249.53427 L1002.0185,249.38057 L1002.12646,248.89726 L1002.2385,248.89726 L1002.7622,248.15622 L1002.93677,247.76201 L1003.1463,247.11404 L1003.31287,246.6958 L1003.464,246.27756 L1003.60046,246.27756 L1003.8673,246.27756 L1003.993,245.91008 L1004.12256,245.8099 L1004.297,245.60927 L1004.5969,245.35399 L1005.158,244.94513 L1005.95935,241.1988 L1006.5287,239.70505 L1007.2344,239.23248 L1007.316,239.23248 L1007.3891,239.23248 L1007.5256,239.23248 L1007.78455,239.23248 L1008.1326,238.71971 L1008.60095,238.10266 L1008.8004,237.39134 L1009.1661,237.39134 L1009.9475,235.49037 L1010.2628,234.91508 L1010.6711,234.1809 L1010.7908,234.10846 L1011.33466,233.26001 L1011.4239,233.3449 L1011.52106,233.40057 L1011.6112,233.40057 L1011.7225,233.37395 L1012.74396,232.31142 L1013.18866,231.59547 L1013.32495,231.47572 L1013.43066,231.27608 L1013.51074,231.24445 L1013.74457,230.92021 L1014.0579,230.43903 L1014.6908,229.29156 L1014.79193,229.06822 L1015.0259,228.77199 L1015.1363,228.6604 L1015.24554,228.39198 L1015.4116,228.07518 L1015.651,227.34946 L1016.05426,226.9544 L1016.1602,226.69853 L1016.24585,226.69853 L1016.33185,226.64636 L1016.7145,226.58633 L1016.83057,226.53217 L1016.9659,226.53217 L1017.09265,226.36111 L1017.7923,225.11888 L1018.11523,224.72533 L1018.2882,224.31345 L1018.4386,224.2537 L1018.5865,224.2537 L1019.14777,221.85936 L1019.53107,220.90402 L1020.09814,220.0951 L1020.2707,219.56134 L1020.9831,217.45757 L1021.08496,217.27649 L1021.2225,216.78575 L1021.38464,216.78575 L1021.7868,216.56537 L1021.9916,216.4238 L1022.0981,216.4238 L1022.23883,216.11708 L1022.7029,215.82895 L1022.8563,215.82895 L1023.0248,215.88167 L1023.2018,215.78607 L1023.46173,215.80426 L1023.72125,215.54364 L1023.84174,215.10149 L1023.994,214.87927 L1024.2587,213.91695 L1024.3533,213.68709 L1025.2008,213.01472 L1025.6436,212.36288 L1025.79,212.15074 L1025.9258,211.95401 L1026.0521,211.66595 L1026.1675,211.52695 L1026.2664,211.52695 L1026.5435,211.0848 L1026.6947,211.0848 L1026.7567,211.0848 L1026.9022,211.0848 L1026.9832,211.0848 L1027.0594,211.0848 L1027.233,210.9741 L1027.3351,210.9741 L1027.6217,210.9741 L1028.0522,210.71646 L1028.1882,210.67104 L1028.3473,210.50778 L1028.524,210.37099 L1029.9484,207.7388 L1030.4047,207.08154 L1030.6047,206.87242 L1031.0984,206.08223 L1031.2733,205.87038 L1031.4357,205.67676 L1031.6976,205.5463 L1031.8783,205.5463 L1032.0878,205.40988 L1032.2466,205.40988 L1032.388,205.40988 L1032.4812,205.23071 L1032.7544,204.75693 L1032.8912,204.75693 L1032.9944,204.75693 L1033.0925,204.75693 L1033.1919,204.54816 L1033.3048,203.92973 L1033.6074,203.0572 L1034.5735,201.27464 L1035.2897,200.20831 L1035.3782,200.0104 L1035.5497,200.0104 L1036.2067,199.69167 L1036.2755,199.69167 L1036.4187,199.5172 L1036.5189,199.36783 L1036.6758,199.22823 L1037.0187,199.06111 L1038.334,198.37218 L1038.4978,198.11665 L1038.8057,197.3131 L1039.098,196.98645 L1039.3265,196.98645 L1040.0369,196.28853 L1040.3528,195.68217 L1040.5459,195.02002 L1040.886,194.32722 L1041.5829,193.7003 L1041.7875,193.7003 L1042.1201,193.44261 L1042.2559,193.40799 L1042.407,193.12595 L1042.5917,192.7926 L1042.839,192.94669 L1043.2706,192.88893 L1043.531,193.16716 L1044.1938,193.84294 L1044.7269,195.25197 L1045.1702,195.84395 L1045.4053,196.46352 L1045.655,196.77866 L1046.1738,197.40034 L1046.298,197.73941 L1046.422,198.01833 L1046.5262,198.27121 L1046.6274,198.27121 L1046.9507,198.99887 L1047.2615,199.41115 L1048.0242,200.63295 L1048.1702,200.63295 L1048.4268,201.23933 L1048.5474,201.50793 L1048.6791,202.25165 L1048.9336,202.38017 L1049.084,202.54985 L1049.4156,202.87453 L1049.4957,202.87453 L1049.5983,202.96597 L1049.7078,203.05667 L1049.8018,203.05667 L1050.1969,203.3651 L1050.5903,203.80844 L1050.6699,203.80844 L1050.848,203.89845 L1050.9382,204.06297 L1051.2191,204.40538 L1051.3566,204.40538 L1051.523,204.78716 L1051.7114,205.10582 L1052.0266,205.59483 L1052.2896,206.03346 L1052.5453,206.03346 L1052.9125,206.56941 L1053.1907,207.29836 L1053.5428,207.7647 L1053.6758,208.65099 L1053.8501,209.54524 L1054.1565,210.80536 L1054.9702,212.72792 L1055.5803,214.03844 L1055.75,214.52858 L1055.8901,215.03548 L1056.0687,215.2195 L1056.2206,215.8083 L1056.5764,216.06396 L1057.2126,216.59575 L1057.4061,216.88882 L1057.9369,217.60081 L1058.1803,218.64317 L1058.5168,219.31238 L1058.8622,219.60841 L1059.3562,221.03317 L1059.5311,221.9852 L1060.014,223.36389 L1060.104,223.36389 L1060.4232,224.15627 L1061.0853,225.20671 L1061.2318,225.2828 L1061.5059,225.77065 L1061.8561,226.50296 L1062.0393,226.50296 L1062.2177,226.9544 L1062.4576,227.30843 L1062.5874,227.30843 L1062.7131,227.30843 L1062.8635,227.30843 L1063.0116,227.65593 L1063.1394,227.7655 L1063.4332,227.85304 L1063.5989,228.37088 L1063.7467,228.86192 L1064.2596,228.9859 L1064.965,232.01921 L1065.4713,234.66324 L1065.6852,235.51712 L1066.3345,237.35307 L1066.5444,237.69148 L1066.7771,237.69148 L1067.2374,238.60963 L1067.4019,239.10847 L1067.7051,239.94681 L1067.8776,240.6969 L1068.1316,240.6969 L1068.5475,241.56584 L1069.1129,242.35197 L1069.3495,243.07893 L1069.7242,243.79395 L1069.877,244.22975 L1070.364,245.51674 L1070.5597,245.51674 L1071.262,246.21997 L1071.4658,246.68277 L1072.0156,247.98242 L1072.2145,248.20702 L1072.3872,248.42343 L1072.7063,249.35973 L1073.3098,249.75316 L1073.776,250.21094 L1073.871,250.21094 L1074.026,250.21094 L1074.1277,250.52179 L1074.2415,250.91307 L1074.6764,251.49536 L1075.148,251.8582 L1075.4426,252.63734 L1076.3132,255.2042 L1077.3882,256.62625 L1077.6877,257.2118 L1077.9338,257.75354 L1078.6989,259.25696 L1079.8773,260.6329 L1080.3778,261.3636 L1080.7025,261.3636 L1080.973,262.89105 L1081.5918,263.4975 L1082.3988,265.13358 L1082.8519,266.13712 L1082.9873,266.246 L1083.5607,267.03232 L1083.8263,267.35867 L1083.9897,267.35867 L1084.2068,267.91183 L1084.8948,269.39017 L1085.4049,269.73242 L1086.0166,272.30295 L1086.5746,273.01367 L1087.7291,277.29974 L1087.9714,278.04578 L1088.7238,281.52527 L1089.3096,282.12662 L1089.8231,283.00842 L1090.0182,283.4595 L1090.0825,283.4595 L1090.161,283.63324 L1090.3115,283.63324 L1090.4155,283.63324 L1090.7777,283.9798 L1090.9402,283.9798 L1091.1061,284.0515 L1091.4435,284.24747 L1091.7703,284.24747 L1092.1108,284.66095 L1092.6672,285.01746 L1093.0223,285.3747 L1093.3468,285.4807 L1093.9386,286.31006 L1094.1058,286.31006 L1094.2719,286.34808 L1095.0331,287.3019 L1095.4094,287.756 L1095.6031,287.756 L1095.8278,288.10654 L1095.9431,288.10654 L1096.3633,289.4792 L1096.7139,289.73752 L1096.991,289.73752 L1097.6367,291.04224 L1098.0941,292.29916 L1098.7264,292.5101 L1099.1865,292.7098 L1099.2798,292.7098 L1099.7463,292.08926 L1099.9641,292.08926 L1100.0764,292.08926 L1100.3546,292.04205 L1100.6079,292.04205 L1100.7976,292.01672 L1101.32,291.4103 L1101.5134,291.4103 L1101.7236,291.4103 L1103.2283,288.69608 L1104.5588,286.9434 L1105.0647,286.79202 L1105.6775,286.5371 L1106.4246,285.68353 L1106.9137,284.93237 L1107.7151,283.36865 L1108.2993,282.27295 L1108.8855,281.77365 L1109.2294,281.41852 L1109.5908,280.50156 L1109.8065,280.2753 L1109.9053,280.2753 L1110.0009,280.2753 L1110.0929,280.02832 L1110.2775,280.02832 L1110.5798,279.37308 L1110.7816,278.596 L1111.2864,278.042 L1111.4205,278.042 L1111.5659,277.88278 L1112.0731,276.84714 L1112.4873,276.09598 L1112.5469,276.09598 L1112.6531,275.75992 L1112.7524,275.67377 L1112.8002,275.67377 L1113.2279,275.277 L1113.4789,274.95413 L1113.9437,274.69635 L1114.1696,274.3498 L1114.7472,273.27075 L1115.1273,272.69104 L1115.3389,272.04773 L1115.7289,271.12344 L1115.9764,270.75024 L1116.4023,270.34946 L1116.705,270.34946 L1117.0215,269.80157 L1117.2548,269.39484 L1117.4142,268.9467 L1117.5508,268.9467 L1117.9629,268.36874 L1118.4121,267.75766 L1118.917,267.26935 L1119.6035,266.99884 L1120.0302,267.04965 L1120.3456,267.3263 L1120.4729,267.24182 L1121.1833,267.35736 L1121.8455,267.34738 L1122.0992,267.36133 L1122.3087,267.28473 L1122.6168,267.26083 L1123.086,267.27667 L1123.2484,267.37527 L1123.4336,267.37527 L1123.6783,267.37527 L1124.0817,267.2944 L1124.3132,267.20712 L1124.465,267.11926 L1124.6139,267.44443 L1124.8243,267.7261 L1124.9286,267.7261 L1125.0702,268.05603 L1125.1757,268.09995 L1126.4917,270.372 L1126.8226,271.13028 L1127.0907,272.02713 L1127.3496,273.3891 L1127.9338,273.72192 L1128.2876,273.72192 L1128.7643,274.16406 L1129.1222,274.91373 L1129.5402,275.63074 L1129.8209,275.63074 L1130.3953,276.69925 L1130.9131,277.51187 L1131.4264,278.8939 L1132.1692,280.06552 L1132.7893,280.5621 L1133.0538,280.9991 L1133.2456,280.9991 L1133.4525,280.9991 L1133.8156,282.16638 L1135.5228,285.61935 L1135.7423,287.08337 L1136.5992,288.46768 L1137.3768,288.0872 L1137.5555,288.8283 L1137.7397,288.8283 L1137.9138,289.10123 L1138.1777,289.32385 L1138.5858,289.75937 L1138.7037,289.94284 L1138.8081,290.0954 L1138.9011,290.0954 L1139.0151,290.0954 L1139.196,290.0954 L1139.405,290.11224 L1139.5327,290.09686 L1140.1812,290.37067 L1140.4425,290.74805 L1140.5739,290.94012 L1140.8247,291.6039 L1141.3923,292.73782 L1141.5181,292.78766 L1141.6161,293.04773 L1141.7173,293.04773 L1141.7994,293.22778 L1142.0365,293.22778 L1142.1438,293.22778 L1142.2604,293.37515 L1142.3715,293.37515 L1142.5016,293.58005 L1142.8431,293.75363 L1143.192,294.3512 L1143.6116,295.1046 L1143.8052,295.83154 L1144.2554,297.0531 L1144.3988,297.6534 L1144.5165,297.6534 L1144.6337,297.8209 L1144.9344,297.94537 L1145.1671,297.94537 L1145.356,298.04324 L1145.7686,298.16537 L1145.9451,298.90628 L1146.0464,298.90628 L1146.1925,299.37823 L1146.3513,299.70782 L1147.8269,303.1984 L1148.1881,305.0835 L1148.5321,306.54617 L1149.2322,306.93176 L1150.1462,307.6647 L1151.0269,308.70435 L1151.6683,310.5757 L1153.2091,314.07986 L1153.3457,314.16183 L1153.9095,314.56668 L1154.2948,314.63394 L1154.547,314.7197 L1154.6384,314.80377 L1154.7407,314.80377 L1154.8911,314.89178 L1154.9336,314.89178 L1154.9734,314.89178 L1155.2335,315.0522 L1155.3458,315.26608 L1155.5961,315.47165 L1155.7644,315.47165 L1156.0854,315.72812 L1156.4644,316.08374 L1156.6174,316.35236 L1156.9163,316.46967 L1157.0609,316.63474 L1157.1844,316.75507 L1157.3097,316.9391 L1157.4243,317.0335 L1157.8268,317.36145 L1157.9623,317.45615 L1158.1185,317.64987 L1158.1951,317.64987 L1158.4598,317.73376 L1158.542,317.8247 L1158.6411,317.8247 L1159.2068,318.29642 L1159.2942,318.39447 L1159.4756,318.6587 L1159.8766,318.76028 L1160.076,318.90613 L1160.2515,319.07614 L1160.7888,319.2176 L1161.0056,319.2306 L1161.1415,319.2306 L1161.4565,319.27213 L1161.982,319.28378 L1162.0645,319.28378 L1162.3273,319.2823 L1162.921,319.31503 L1163.5146,319.2823 L1163.7775,319.28378 L1163.8599,319.28378 L1164.3855,319.27213 L1164.7004,319.2306 L1164.8363,319.2306 L1165.0531,319.2176 L1165.5905,319.07614 L1165.766,319.07614 L1165.9653,318.95575 L1166.3665,318.8754 L1166.5477,318.8277 L1166.6353,318.8277 L1167.2009,318.57965 L1167.2999,318.57965 L1167.3822,318.57965 L1167.9597,318.405 L1168.1464,318.3719 L1168.9009,318.30533 L1169.0696,318.30533 L1169.425,318.2589 L1169.632,318.23248 L1170.0529,318.1787 L1170.3053,318.00238 L1170.5972,317.90073 L1170.6903,317.7999 L1170.8328,317.70718 L1171.4832,317.36652 L1172.0651,317.1546 L1172.2155,317.04202 L1172.3174,317.04202 L1172.5189,316.91583 L1172.7104,316.7706 L1172.7983,316.5754 L1173.086,316.36032 L1173.3474,316.29443 L1173.9302,316.06464 L1174.7631,315.30673 L1174.9395,315.1235 L1175.2368,314.9542 L1175.7314,314.94116 L1176.0787,314.75867 L1176.292,314.75867 L1176.4297,314.75867 L1176.5948,314.75867 L1176.8953,314.41537 L1177.213,314.10248 L1177.872,313.4226 L1178.8597,312.6837 L1179.0717,312.50446 L1179.3915,312.18478 L1179.5459,312.18478 L1179.6962,312.18478 L1180.1134,311.89798 L1181.4014,311.31842 L1181.7604,310.52872 L1182.143,310.2021 L1182.7313,309.9352 L1183.6267,309.45456 L1184.061,309.16245 L1184.4817,308.98816 L1184.7207,308.73224 L1185.0088,308.4056 L1185.3445,308.26697 L1185.7402,308.03992 L1186.7097,307.45438 L1186.8618,307.19864 L1187.3325,306.84125 L1187.6101,306.66568 L1188.2332,306.2068 L1188.5862,305.93103 L1188.7725,305.86823 L1188.9299,305.60132 L1189.1532,305.60132 L1189.8099,304.99225 L1190.2046,304.21576 L1190.4401,304.01996 L1190.5404,304.01996 L1190.9093,303.03897 L1191.6207,301.94543 L1191.9296,301.0635 L1192.1743,300.56857 L1192.7797,298.47647 L1193.1528,297.2257 L1193.7595,296.01743 L1194.0359,294.64185 L1194.6659,291.20755 L1195.0723,290.57837 L1195.5084,288.92313 L1195.8986,287.53354 L1196.204,286.51505 L1196.3644,286.18372 L1196.464,286.18372 L1196.5952,285.86472 L1197.2595,284.2618 L1197.3994,284.2618 L1197.5881,283.50497 L1197.732,283.212 L1198.0676,282.8804 L1198.2379,282.62775 L1198.5311,281.5625 L1198.8156,281.30667 L1198.956,281.30667 L1199.5615,280.04996 L1199.7449,279.7734 L1200.2765,278.62402 L1200.5378,278.07468 L1201.0055,277.15634 L1201.1982,276.83588 L1201.4933,276.83588 L1202.1321,275.98285 L1202.3357,275.45227 L1202.5502,275.45227 L1203.1514,274.6216 L1204.0513,273.51758 L1204.1912,273.2282 L1204.6982,271.979 L1205.4724,271.58466 L1206.2302,271.2172 L1206.4613,271.2172 L1206.5981,271.2172 L1206.7803,271.03555 L1210.7123,273.4359 L1211.1215,273.9896 L1211.5099,273.9657 L1212.3325,273.8701 L1212.6881,273.8701 L1212.9308,273.99915 L1213.1135,274.04828 L1213.3081,274.16776 L1213.542,274.33725 L1213.9973,274.5911 L1214.2847,274.75623 L1215.0226,274.79623 L1215.2224,274.88043 L1215.42,274.69138 L1215.7692,274.79263 L1216.1649,273.83316 L1216.6793,273.8438 L1216.9093,272.73486 L1217.2977,272.25925 L1217.8845,270.56128 L1218.164,270.56128 L1218.7583,269.0184 L1218.9004,269.0184 L1219.86,268.1317 L1220.6053,268.12347 L1221.0173,268.4793 L1221.1283,268.4793 L1221.2859,268.495 L1221.4822,268.495 L1222.421,268.7356 L1222.6522,268.76102 L1222.8679,268.7333 L1223.2822,268.92877 L1224.0226,267.99753 L1224.1809,267.99753 L1224.2925,267.99753 L1224.4916,267.62878 L1224.5387,267.62878 L1224.6985,267.5274 L1225.4557,266.43378 L1225.6427,266.12808 L1225.8456,266.12808 L1226.031,265.8143 L1226.3943,264.8154 L1227.045,263.00583 L1227.103,263.00583 L1227.1862,263.00583 L1227.627,262.24036 L1228.0265,261.4182 L1228.2439,260.88217 L1228.505,260.38367 L1228.781,260.38367 L1229.0111,259.91998 L1229.2211,258.68912 L1229.6161,258.5741 L1229.8147,258.2859 L1230.2297,258.05112 L1230.4595,257.81992 L1230.9166,257.5253 L1230.9979,257.5253 L1231.0587,257.38657 L1231.1398,257.38657 L1231.1948,257.4241 L1231.436,257.29843 L1231.71,257.25812 L1232.0468,257.34256 L1232.3445,257.48798 L1232.3978,257.48798 L1232.8712,257.6747 L1233.2098,258.1242 L1233.5542,258.45758 L1233.8232,258.55817 L1233.9645,258.55817 L1234.1844,258.66116 L1234.3483,258.931 L1234.5488,259.17343 L1234.8182,259.52158 L1234.9423,259.98077 L1235.0057,259.98077 L1235.435,260.49976 L1236.2261,261.78104 L1236.7722,263.47577 L1236.9379,264.43176 L1237.2825,265.54227 L1237.7256,267.34302 L1238.3564,268.99014 L1238.4585,268.99014 L1238.9576,270.05698 L1239.4806,271.78125 L1239.6989,271.78125 L1239.8507,272.8663 L1240.0736,273.71075 L1240.7748,275.07162 L1241.4115,276.0211 L1241.7593,276.81937 L1242.0051,277.1922 L1242.0887,277.1922 L1242.2659,277.5029 L1242.8451,277.81094 L1243.4066,277.6637 L1244.3215,278.0765 L1244.7148,278.3872 L1244.8772,278.61624 L1245.1229,278.8174 L1245.5778,279.5314 L1245.6981,279.5314 L1245.9806,279.66937 L1246.3345,279.7973 L1246.431,279.88165 L1246.6188,279.9606 L1246.8822,280.15714 L1247.1223,280.39346 L1247.218,280.6141 L1247.2802,280.6141 L1247.3938,280.71082 L1247.5872,280.71082 L1247.8373,281.1357 L1248.0999,281.40283 L1248.5983,281.6599 L1248.7443,281.75882 L1249.0367,282.353 L1249.3898,282.8951 L1249.7109,283.41815 L1249.8812,283.5583 L1250.855,285.09116 L1251.0394,285.09116 L1251.3142,285.87985 L1251.7031,287.0303 L1252.3254,288.5273 L1252.6119,288.82153 L1253.1034,289.42422 L1253.3761,290.0934 L1253.5406,290.0934 L1254.0922,291.7179 L1254.2666,292.00168 L1254.4448,292.3117 L1255.2786,292.93143 L1255.7449,293.48404 L1255.8,293.48404 L1256.014,293.48404 L1256.0594,293.48404 L1256.2551,293.78775 L1258.3157,296.74838 L1259.2595,297.8418 L1259.7314,298.2003 L1260.3901,298.5827 L1261.211,298.5827 L1261.617,299.39133 L1262.4126,299.86853 L1263.2637,299.80637 L1264.5918,299.9928 L1264.8427,299.9928 L1265.3103,299.62234 L1265.972,300.3752 L1267.9092,303.56586 L1268.994,304.83255 L1269.7241,305.26035 L1270.0878,305.7288 L1271.6697,306.88556 L1272.1483,307.8559 L1272.5928,308.56094 L1274.548,311.97147 L1275.8528,313.29828 L1276.0775,313.29828 L1276.3469,313.29828 L1276.679,313.7353 L1277.2161,314.1416 L1277.6791,314.1416 L1278.7462,315.4023 L1280.1461,317.47964 L1281.2311,319.02914 L1282.1985,320.00507 L1283.2002,320.4273 L1283.9897,320.68338 L1284.0743,320.68338 L1284.1954,320.68338 L1284.4081,321.03436 L1284.5184,321.03436 L1284.6139,321.03436 L1284.722,321.03436 L1284.9843,321.03436 L1285.1271,321.03436 L1285.3966,321.2176 L1285.682,321.3833 L1285.8042,321.54498 L1286.2733,321.98877 L1286.3835,321.98877 L1287.2194,323.1041 L1287.511,323.3694 L1287.789,323.70877 L1288.1819,324.041 L1288.5964,324.71628 L1289.0931,324.96658 L1289.5939,325.21466 L1289.99,325.38315 L1290.3827,325.5197 L1290.4644,325.5197 L1290.6191,325.5197 L1290.761,325.67505 L1290.8297,325.75064 L1290.8843,325.75064 L1291.5421,325.81503 L1291.7894,326.0677 L1292.003,326.0677 L1292.1586,326.29623 L1292.7089,326.58234 L1292.8114,326.63617 L1293.5874,326.9244 L1293.7604,326.9244 L1294.0833,327.18103 L1294.1844,327.18103 L1294.3003,327.27792 L1294.7062,327.27792 L1294.9349,327.4061 L1295.2646,327.4061 L1295.9143,327.49905 L1296.7375,327.64908 L1297.7245,327.91757 L1298.1273,327.9319 L1299.7494,328.25455 L1300.2672,328.4577 L1300.5411,328.4577 L1301.4913,328.73123 L1302.064,328.82706 L1302.6201,328.93808 L1302.6968,328.93808 L1303.0776,328.93808 L1303.4812,329.01392 L1303.6849,329.1946 L1303.7869,329.1946 L1303.897,329.2372 L1304.3497,329.3625 L1305.4967,329.55197 L1305.5365,329.58282 L1305.6707,329.58282 L1305.8818,329.6918 L1306.0565,329.76505 L1306.2598,329.81784 L1306.9878,329.88147 L1307.2809,329.8693 L1307.4504,329.87662 L1308.2397,329.94397 L1308.3833,329.95703 L1308.6409,329.95703 L1308.9302,329.95636 L1308.9941,329.94748 L1309.1506,329.9488 L1309.198,329.93698 L1309.3124,329.93552 L1309.3746,329.92944 L1309.4236,329.92944 L1309.5068,329.91693 L1309.6494,329.90485 L1310.8263,329.8564 L1310.9438,329.8564 L1311.0172,329.88828 L1311.093,329.89648 L1311.2157,329.9005 L1311.3462,329.91428 L1311.6277,329.88748 L1311.6661,329.88748 L1311.747,329.8663 L1311.7731,329.8439 L1311.9778,329.8439 L1312.0404,329.82797 L1313.0183,329.73157 L1313.3007,329.7098 L1313.3917,329.7033 L1313.4358,329.7033 L1313.7958,329.62482 L1314.012,329.59366 L1314.2542,329.5765 L1314.8145,329.56552 L1314.9144,329.56552 L1314.9731,329.56552 L1315.2518,329.5108 L1315.4958,329.43024 L1315.5985,329.4376 L1315.7158,329.44397 L1315.8118,329.44397 L1315.9354,329.441 L1316.5497,329.41968 L1317.526,329.1204 L1317.6642,328.94672 L1318.6592,328.75922 L1318.8202,328.75922 L1319.0613,328.78375 L1319.5109,328.80505 L1319.5718,328.75302 L1319.6163,328.75302 L1319.6727,328.75302 L1319.7966,328.69302 L1320.184,328.70865 L1320.279,328.70865 L1320.6515,328.70865 L1320.9037,328.7261 L1321.1913,328.7445 L1322.1625,328.94168 L1322.877,328.864 L1323.5486,328.81088 L1324.2404,328.78433 L1324.342,328.78433 L1324.4393,328.7971 L1324.555,328.8097 L1324.6705,328.8097 L1324.8026,328.8097 L1325.7865,328.9596 L1326.4358,329.0791 L1326.558,329.11255 L1327.0402,329.20203 L1327.2216,329.1986 L1327.4377,329.2512 L1328.1548,329.31543 L1329.1067,329.47943 L1329.3179,329.4888 L1329.4242,329.4888 L1330.9038,329.37613 L1331.0656,329.37613 L1331.9578,329.38382 L1332.7722,329.4089 L1334.672,329.25436 L1335.7247,329.2464 L1337.1589,329.04086 L1338.114,328.9596 L1338.2537,328.87994 L1338.9999,328.80127 L1339.8816,328.76498 L1340.1942,328.71265 L1340.2892,328.63934 L1340.366,328.63934 L1342.5408,329.2942 L1342.6438,329.46747 L1342.7727,329.46747 L1344.4166,329.46747 L1347.601,329.26233 L1349.1095,328.7923 L1350.6364,329.0074 L1352.1102,329.02335 L1352.1979,329.02335 L1352.3203,329.02335 L1352.3822,329.02335 L1352.4469,329.02335 L1354.5706,329.28943 L1356.3662,329.42166 L1356.4395,329.42166 L1356.5399,329.44443 L1356.8889,329.57013 L1358.2191,329.5107 L1358.501,329.51727 L1358.6285,329.49286 L1358.7076,329.484 L1358.7443,329.484 L1358.8229,329.484 L1358.8866,329.484 L1358.9623,329.49136 L1359.1774,329.51212 L1359.3442,329.51212 L1359.8796,329.5867 L1359.9048,329.5867 L1359.9663,329.5867 L1360.5582,329.59808 L1360.6292,329.59808 L1360.6719,329.59653 L1361.1066,329.581 L1361.4512,329.57397 L1361.5957,329.57397 L1361.6704,329.57397 L1361.815,329.57397 L1362.2863,329.6305 L1362.3267,329.6256 L1362.8464,329.7045 L1363.1433,329.6918 L1363.216,329.6918 L1363.2887,329.6918 L1364.3478,329.49564 L1366.0848,329.37067 L1366.5452,329.23276 L1366.9385,329.23276 L1367.4169,329.1986 L1368.2452,329.21698 L1368.4838,329.2464 L1368.5553,329.27985 L1369.0288,329.3164 L1369.1251,329.3164 L1369.468,329.4308 L1369.663,329.4308 L1369.8682,329.4308 L1370.1191,329.581 L1370.1831,329.581 L1370.4143,329.61285 L1370.5522,329.6493 L1370.9496,329.78928 L1371.275,329.90762 L1371.9299,330.62234 L1372.129,330.62234 L1372.8079,331.05325 L1373.3456,331.1847 L1373.5332,331.1847 L1373.6315,331.1847 L1373.7324,331.1847 L1373.9478,331.1847 L1374.8352,331.28268 L1375.343,331.28268 L1376.2201,331.27448 L1376.5913,331.27448 L1376.8425,331.26596 L1377.5391,331.31772 L1377.6797,331.31772 L1378.6768,331.55515 L1380.3221,331.24445 L1380.7615,331.254 L1381.4336,331.06757 L1382.2969,330.97516 L1383.159,330.35776 L1383.9823,330.29202 L1384.4762,330.2536 L1385.1099,330.36438 L1385.4224,330.38828 L1385.6975,330.38828 L1385.9679,330.298 L1386.6016,330.2893 L1387.0901,330.2893 L1387.3364,330.35883 L1387.7264,330.40424 L1387.9113,330.40424 L1388.5002,330.42813 L1388.6144,330.42813 L1389.1442,330.40854 L1390.3007,330.66333 L1390.9755,330.93933 L1391.7169,331.0349 L1392.0901,331.06964 L1392.9039,331.08237 L1393.6592,330.95526 L1393.971,330.972 L1394.2399,330.9706 L1394.5679,330.95126 L1394.6793,330.95126 L1394.7571,330.95126 L1394.8337,330.95126 L1394.9364,330.91428 L1395.0488,330.91428 L1395.106,330.91428 L1395.2137,330.91428 L1395.3812,330.95285 L1395.5156,330.98514 L1396.3031,330.945 L1397.3466,330.8985 L1397.5035,330.9433 L1398.0862,330.9672 L1398.625,331.015 L1399.3019,330.9945 L1400.0308,330.7999 L1401.0236,330.6087 L1402.7064,330.4653 L1404.9414,330.07813 L1405.5018,330.0829 L1406.0817,330.0829 L1406.7007,330.00323 L1408.2343,330.2024 L1408.6854,330.2024 L1408.9492,330.44617 L1409.0198,330.44617 L1410.7784,330.88953 L1412.1061,330.9672 L1413.5066,330.1785 L1414.8181,329.64313 L1415.1896,329.64313 L1415.6388,329.33603" fill="transparent" id="track" stroke="black" stroke-width="2"/>
</g>
<g id="SL" transform="translate(0 0)">
<text text-anchor="end" x="0" y="363.5">
0
</text>
<text text-anchor="end" x="0" y="315.7">
200
</text>
<text text-anchor="end" x="0" y="267.9">
400
</text>
<text text-anchor="end" x="0" y="220.1">
600
</text>
<text text-anchor="end" x="0" y="172.3">
800
</text>
<text text-anchor="end" x="0" y="124.5">
1000
</text>
<text text-anchor="end" x="0" y="76.69999999999999">
1200
</text>
<text text-anchor="end" x="0" y="28.900000000000034">
1400
</text>
</g>
</g>
</svg>