<svg height="400" width="1440" xmlns="http://www.w3.org/2000/svg">
<g font-family="ui-serif" font-size="15" id="world" shape-rendering="crispEdges" transform="translate(5 5)">
<g id="BG"/>
<g id="SL" transform="translate(71 360) scale(-1 -1)">
<text text-anchor="end" transform="translate(10 -5) scale(-1 -1)">
0
</text>
<text text-anchor="end" transform="translate(10 67) scale(-1 -1)">
200
</text>
<text text-anchor="end" transform="translate(10 139) scale(-1 -1)">
400
</text>
<text text-anchor="end" transform="translate(10 211) scale(-1 -1)">
600
</text>
<text text-anchor="end" transform="translate(10 283) scale(-1 -1)">
800
</text>
</g>
<g id="SB" transform="translate(71 360)">
<text text-anchor="middle" transform="translate(0 25)">
80
</text>
<text text-anchor="middle" transform="translate(192 25)">
100
</text>
<text text-anchor="middle" transform="translate(385 25)">
120
</text>
<text text-anchor="middle" transform="translate(578 25)">
140
</text>
<text text-anchor="middle" transform="translate(770 25)">
160
</text>
<text text-anchor="middle" transform="translate(963 25)">
180
</text>
<text text-anchor="middle" transform="translate(1156 25)">
200
</text>
</g>
<g id="SD" transform="translate(71 360) scale(1 -1) scale(1 1)">
<path d="M0,0 L0,360 L1349,360 L1349,0 L0,0" fill="lightgray" id="bg"/>
<path d="M0,0 L1349,0" stroke="black" stroke-width="3"/>
<path d="M0,0 L0,360" stroke="black" stroke-width="3"/>
<path d="M0,360 L1349,360" stroke="black" stroke-width="3"/>
<path d="M1349,0 L1349,360" stroke="black" stroke-width="3"/>
<path d="M0,0 L0,360" stroke="black" stroke-width="1"/>
<path d="M192,0 L192,360" stroke="black" stroke-width="1"/>
<path d="M385,0 L385,360" stroke="black" stroke-width="1"/>
<path d="M578,0 L578,360" stroke="black" stroke-width="1"/>
<path d="M770,0 L770,360" stroke="black" stroke-width="1"/>
<path d="M963,0 L963,360" stroke="black" stroke-width="1"/>
<path d="M1156,0 L1156,360" stroke="black" stroke-width="1"/>
<path d="M96,0 L96,360" stroke="black" stroke-dasharray="1.0,2.5,5.0,5.0,10.0,5.0"/>
<path d="M289,0 L289,360" stroke="black" stroke-dasharray="1.0,2.5,5.0,5.0,10.0,5.0"/>
<path d="M481,0 L481,360" stroke="black" stroke-dasharray="1.0,2.5,5.0,5.0,10.0,5.0"/>
<path d="M674,0 L674,360" stroke="black" stroke-dasharray="1.0,2.5,5.0,5.0,10.0,5.0"/>
<path d="M867,0 L867,360" stroke="black" stroke-dasharray="1.0,2.5,5.0,5.0,10.0,5.0"/>
<path d="M1059,0 L1059,360" stroke="black" stroke-dasharray="1.0,2.5,5.0,5.0,10.0,5.0"/>
<path d="M1252,0 L1252,360" stroke="black" stroke-dasharray="1.0,2.5,5.0,5.0,10.0,5.0"/>
<path d="M0,0 L1349,0" stroke="black" stroke-width="1"/>
<path d="M0,72 L1349,72" stroke="black" stroke-width="1"/>
<path d="M0,144 L1349,144" stroke="black" stroke-width="1"/>
<path d="M0,216 L1349,216" stroke="black" stroke-width="1"/>
<path d="M0,288 L1349,288" stroke="black" stroke-width="1"/>
<path d="M0,36 L1349,36" stroke="black" stroke-dasharray="1.0,2.5,5.0,5.0,10.0,5.0"/>
<path d="M0,108 L1349,108" stroke="black" stroke-dasharray="1.0,2.5,5.0,5.0,10.0,5.0"/>
<path d="M0,180 L1349,180" stroke="black" stroke-dasharray="1.0,2.5,5.0,5.0,10.0,5.0"/>
<path d="M0,252 L1349,252" stroke="black" stroke-dasharray="1.0,2.5,5.0,5.0,10.0,5.0"/>
<path d="M0,324 L1349,324" stroke="black" stroke-dasharray="1.0,2.5,5.0,5.0,10.0,5.0"/>
<path d="M0,175 L0,175 L1,177 L1,177 L1,177 L3,186 L3,190 L4,190 L4,191 L4,191 L4,191 L4,191 L5,191 L5,191 L5,192 L5,192 L5,192 L5,192 L5,193 L5,193 L6,194 L6,195 L6,196 L6,196 L7,198 L7,199 L7,201 L8,202 L8,203 L8,204 L8,204 L9,206 L9,208 L9,210 L11,217 L11,218 L11,220 L11,220 L12,221 L12,222 L13,222 L13,223 L14,224 L14,225 L14,225 L15,227 L15,227 L16,228 L16,230 L17,231 L17,233 L18,234 L18,234 L19,237 L19,238 L20,248 L21,252 L22,252 L22,251 L22,251 L23,252 L23,251 L23,251 L24,250 L25,247 L25,245 L25,244 L26,243 L26,242 L27,241 L27,241 L27,240 L27,240 L28,238 L28,238 L29,235 L29,235 L29,233 L30,232 L31,229 L31,229 L31,227 L31,226 L32,225 L32,224 L32,224 L32,224 L32,224 L33,223 L33,222 L33,222 L34,220 L35,212 L35,210 L36,209 L36,209 L36,209 L36,209 L37,209 L37,209 L37,209 L37,209 L37,209 L38,208 L38,208 L39,209 L40,206 L41,204 L41,205 L41,205 L41,205 L42,206 L43,208 L43,208 L43,212 L44,214 L45,217 L45,218 L45,220 L46,224 L46,226 L46,226 L47,229 L47,230 L48,230 L48,230 L48,231 L48,231 L48,233 L49,235 L49,236 L49,236 L50,243 L51,244 L51,245 L51,246 L51,248 L51,248 L51,248 L52,248 L52,249 L52,250 L53,250 L53,252 L53,254 L54,255 L54,255 L54,255 L55,256 L55,257 L55,258 L55,259 L55,259 L56,261 L57,264 L57,266 L58,267 L58,269 L58,270 L58,270 L59,271 L60,273 L60,274 L60,274 L61,275 L61,275 L61,275 L62,275 L62,275 L63,276 L64,279 L64,279 L64,279 L65,279 L66,279 L68,281 L69,281 L69,281 L71,281 L71,282 L72,282 L72,282 L72,282 L72,283 L73,283 L73,283 L73,283 L73,283 L73,284 L74,284 L74,284 L74,284 L75,285 L75,285 L75,286 L76,287 L76,288 L76,288 L77,287 L77,287 L78,287 L78,287 L78,287 L79,287 L79,287 L81,288 L82,288 L83,288 L83,286 L84,285 L84,282 L85,280 L85,278 L86,277 L86,277 L86,275 L87,275 L87,274 L87,274 L88,273 L88,272 L89,271 L90,269 L90,268 L90,268 L91,268 L91,268 L91,268 L92,267 L94,262 L95,260 L96,259 L96,258 L96,258 L97,258 L97,257 L98,257 L98,255 L98,254 L99,252 L99,252 L99,252 L100,251 L100,250 L100,249 L100,248 L100,248 L101,243 L102,242 L103,240 L103,240 L103,240 L103,240 L104,239 L104,238 L104,238 L105,237 L105,237 L105,236 L106,235 L106,234 L106,232 L107,231 L107,229 L107,228 L108,225 L108,224 L108,224 L109,221 L109,219 L109,218 L110,218 L110,216 L110,213 L111,210 L112,203 L112,200 L112,199 L113,199 L113,198 L113,197 L113,196 L114,196 L114,195 L114,195 L115,192 L115,191 L115,191 L116,190 L116,188 L116,188 L116,188 L117,188 L117,188 L117,188 L117,187 L118,186 L118,185 L118,184 L119,181 L120,177 L120,173 L121,172 L122,171 L122,170 L122,170 L122,169 L123,165 L124,164 L124,162 L124,159 L125,159 L125,159 L125,158 L126,155 L126,155 L127,152 L127,150 L128,150 L128,148 L129,145 L130,144 L130,144 L130,144 L131,144 L131,143 L132,143 L133,142 L134,137 L135,137 L135,135 L135,135 L135,135 L136,135 L137,128 L139,123 L139,123 L139,122 L139,122 L140,121 L140,121 L140,121 L141,120 L141,120 L141,120 L141,119 L141,119 L142,119 L142,119 L142,119 L142,119 L144,119 L144,119 L144,119 L144,119 L145,118 L145,118 L145,118 L145,118 L146,118 L146,117 L146,117 L147,117 L147,116 L147,115 L147,114 L148,114 L148,113 L149,113 L149,113 L149,113 L149,113 L150,112 L150,112 L150,112 L151,113 L151,113 L151,113 L152,113 L152,113 L152,113 L153,114 L153,114 L153,114 L153,115 L154,115 L155,115 L155,116 L155,116 L156,116 L156,116 L157,115 L158,116 L158,117 L159,117 L159,117 L160,117 L160,117 L160,117 L161,117 L162,117 L162,117 L162,117 L163,117 L163,117 L165,119 L165,120 L165,120 L166,120 L166,120 L166,120 L166,120 L167,121 L167,121 L168,121 L168,121 L168,121 L169,122 L169,122 L169,122 L170,122 L170,123 L170,123 L171,123 L172,124 L172,124 L172,124 L172,125 L174,125 L174,126 L175,126 L175,127 L177,128 L177,128 L178,128 L179,128 L179,128 L179,128 L179,129 L180,129 L181,130 L181,130 L181,131 L182,131 L182,131 L182,131 L183,131 L184,131 L184,131 L184,131 L184,131 L185,131 L186,130 L186,130 L186,130 L186,130 L188,131 L188,131 L188,131 L188,131 L189,131 L189,131 L190,132 L191,132 L192,132 L192,133 L193,133 L193,133 L193,134 L193,134 L193,134 L194,135 L195,135 L195,136 L195,137 L196,137 L197,137 L198,137 L198,137 L199,137 L199,137 L199,137 L200,138 L200,138 L200,139 L201,140 L201,141 L201,142 L202,143 L202,143 L202,143 L202,143 L203,144 L203,144 L203,143 L204,143 L204,142 L205,140 L205,140 L205,140 L205,140 L205,139 L206,140 L206,140 L206,140 L206,140 L207,141 L207,144 L208,144 L209,147 L209,148 L209,149 L209,149 L210,150 L211,151 L211,151 L212,152 L212,152 L214,156 L215,157 L215,158 L215,159 L215,159 L216,159 L216,159 L217,160 L217,160 L217,161 L217,161 L217,161 L217,162 L218,163 L219,164 L219,165 L220,166 L220,166 L220,166 L220,167 L221,167 L221,167 L221,168 L221,168 L222,168 L222,168 L222,169 L223,169 L223,169 L223,170 L224,170 L224,170 L224,171 L224,171 L224,171 L224,171 L224,172 L225,172 L225,172 L226,172 L226,172 L226,173 L226,173 L226,173 L226,173 L227,176 L227,176 L227,176 L228,180 L228,180 L228,180 L229,181 L229,182 L229,182 L230,182 L230,182 L231,182 L231,183 L231,184 L232,185 L232,186 L233,188 L233,190 L233,191 L234,194 L235,194 L235,195 L235,196 L235,196 L236,197 L236,197 L236,197 L237,199 L237,199 L237,199 L237,200 L237,200 L238,201 L238,201 L238,201 L238,201 L239,202 L239,203 L239,203 L239,203 L240,204 L240,205 L241,206 L241,207 L241,207 L241,209 L242,210 L242,210 L242,211 L242,211 L242,211 L243,212 L243,213 L244,214 L244,217 L245,218 L245,218 L246,219 L247,220 L247,220 L247,221 L248,221 L248,221 L249,223 L250,226 L251,226 L252,227 L252,228 L252,228 L252,228 L252,229 L253,230 L254,232 L254,236 L255,238 L255,238 L256,239 L256,239 L256,239 L256,239 L256,239 L257,239 L257,239 L257,239 L258,239 L258,240 L258,240 L258,240 L259,240 L259,240 L259,241 L260,241 L261,246 L261,246 L261,246 L261,246 L261,247 L262,248 L262,248 L262,248 L262,249 L263,253 L264,254 L264,255 L264,256 L264,256 L265,257 L265,257 L265,257 L266,258 L266,258 L266,258 L266,258 L267,258 L269,265 L269,266 L270,266 L270,267 L270,268 L271,269 L271,270 L272,271 L272,272 L272,272 L272,272 L273,272 L273,272 L273,272 L273,272 L273,272 L274,271 L274,269 L274,269 L275,269 L275,268 L275,267 L275,267 L275,267 L276,267 L276,267 L276,267 L277,266 L277,266 L278,263 L279,261 L279,260 L280,259 L280,259 L280,258 L281,257 L281,257 L281,256 L281,256 L282,255 L282,255 L282,254 L282,254 L282,254 L283,253 L284,250 L284,249 L284,247 L285,244 L285,244 L286,244 L286,243 L286,240 L287,240 L287,240 L287,240 L287,240 L288,239 L288,238 L288,238 L289,235 L289,235 L290,234 L291,231 L291,230 L292,227 L292,226 L292,225 L292,225 L293,224 L293,223 L294,223 L294,222 L294,221 L295,220 L295,220 L295,220 L295,220 L295,220 L296,218 L297,217 L297,214 L297,212 L297,212 L298,212 L298,208 L299,205 L299,204 L300,201 L300,201 L300,201 L300,199 L300,199 L300,199 L301,197 L302,195 L302,194 L303,192 L303,192 L303,191 L304,185 L305,176 L306,177 L306,176 L307,176 L307,176 L307,176 L307,175 L308,175 L308,174 L308,174 L309,174 L309,173 L309,173 L309,172 L310,171 L310,168 L311,168 L311,168 L311,166 L311,165 L312,164 L312,163 L313,161 L313,161 L313,161 L313,161 L313,161 L314,160 L314,160 L314,159 L315,159 L315,157 L315,156 L316,155 L317,154 L317,153 L318,152 L318,152 L319,151 L319,151 L320,151 L320,152 L321,151 L321,151 L321,151 L321,151 L321,151 L322,151 L322,151 L322,150 L323,151 L323,150 L323,150 L323,150 L324,149 L324,148 L325,146 L325,146 L325,146 L325,145 L325,145 L326,144 L326,144 L326,143 L326,143 L327,142 L327,141 L327,141 L328,141 L328,141 L328,141 L328,141 L328,141 L328,141 L328,141 L328,141 L328,141 L329,141 L329,141 L330,142 L331,143 L331,144 L332,144 L332,144 L332,144 L332,144 L333,145 L333,145 L333,145 L334,146 L334,147 L334,147 L335,147 L336,148 L336,148 L336,148 L337,149 L337,149 L337,149 L338,150 L338,150 L338,150 L339,150 L339,152 L340,152 L341,157 L343,156 L343,156 L343,156 L343,156 L344,156 L344,156 L345,156 L345,156 L345,156 L345,156 L346,156 L346,157 L346,157 L346,158 L347,159 L347,159 L348,160 L348,160 L348,161 L348,162 L349,162 L349,162 L349,162 L350,162 L350,162 L350,163 L350,163 L351,164 L351,164 L351,164 L352,164 L352,164 L353,164 L353,164 L354,164 L354,164 L355,164 L355,165 L356,165 L356,165 L356,166 L357,166 L357,166 L357,166 L357,166 L357,166 L357,166 L357,166 L358,166 L358,166 L358,166 L359,167 L360,167 L360,167 L360,168 L361,168 L361,168 L361,168 L361,168 L362,169 L362,169 L362,169 L362,169 L363,169 L363,170 L363,170 L363,170 L363,170 L364,171 L364,171 L364,172 L365,172 L365,173 L365,174 L365,174 L366,175 L366,175 L366,175 L366,176 L367,178 L367,179 L368,180 L369,184 L369,184 L369,188 L370,189 L370,190 L371,192 L371,192 L371,193 L372,195 L373,198 L374,202 L374,203 L374,203 L375,205 L375,206 L376,208 L377,210 L377,211 L377,211 L378,212 L378,213 L378,213 L378,213 L378,213 L378,213 L379,213 L379,213 L379,214 L379,215 L379,215 L380,215 L380,216 L381,220 L381,220 L381,221 L381,221 L382,224 L382,226 L382,227 L383,229 L383,231 L383,231 L384,231 L384,232 L384,232 L384,233 L384,233 L385,233 L385,234 L386,235 L386,235 L386,235 L386,235 L386,235 L387,237 L387,239 L388,247 L389,248 L389,249 L389,249 L389,249 L389,249 L389,249 L390,249 L390,249 L390,249 L391,249 L391,250 L392,251 L392,251 L392,251 L392,251 L392,252 L393,252 L393,252 L393,252 L393,252 L393,252 L393,252 L393,252 L393,252 L394,256 L395,263 L396,264 L396,265 L396,265 L397,267 L397,267 L397,267 L397,267 L397,267 L398,268 L398,269 L398,269 L399,269 L400,279 L401,280 L401,280 L401,280 L401,280 L401,280 L401,280 L401,281 L402,281 L402,281 L402,281 L402,281 L402,281 L403,281 L403,282 L403,282 L404,283 L405,290 L406,293 L406,294 L406,294 L406,295 L407,295 L408,296 L408,297 L409,300 L410,301 L410,303 L411,303 L411,303 L412,306 L413,313 L414,316 L414,316 L415,317 L416,318 L418,324 L418,326 L419,326 L419,326 L419,327 L420,328 L421,330 L421,332 L421,332 L423,335 L423,336 L424,338 L424,338 L425,339 L425,340 L426,341 L427,342 L427,343 L428,343 L429,344 L430,346 L430,346 L433,347 L433,347 L433,347 L433,347 L433,347 L434,347 L434,347 L434,347 L435,347 L435,347 L435,346 L436,346 L436,346 L436,346 L437,345 L437,345 L438,344 L438,344 L438,344 L438,344 L438,344 L441,341 L442,342 L442,342 L442,342 L443,342 L443,342 L444,342 L445,341 L445,341 L446,339 L446,339 L447,338 L448,338 L449,338 L449,338 L449,338 L450,338 L450,339 L451,339 L451,340 L451,340 L452,341 L452,341 L453,341 L453,341 L453,341 L453,341 L454,342 L455,342 L456,341 L456,342 L457,342 L457,342 L458,342 L459,343 L459,343 L460,343 L460,343 L461,343 L462,343 L462,343 L462,342 L462,342 L463,341 L464,339 L465,339 L465,339 L465,338 L465,338 L466,338 L466,338 L466,338 L467,338 L468,337 L471,330 L471,328 L471,327 L472,326 L472,326 L473,325 L473,324 L473,324 L473,324 L474,324 L474,323 L474,323 L475,323 L477,314 L477,312 L477,312 L478,311 L478,311 L479,310 L479,310 L480,309 L480,309 L480,309 L481,309 L481,309 L481,308 L482,309 L482,308 L483,307 L484,307 L484,307 L484,307 L484,306 L485,306 L485,305 L486,300 L487,299 L487,298 L487,298 L488,298 L490,295 L490,293 L492,286 L492,285 L493,285 L493,285 L494,285 L494,285 L494,285 L494,285 L494,285 L495,283 L497,280 L498,281 L500,274 L501,273 L501,272 L502,271 L502,271 L502,270 L502,270 L503,270 L503,269 L503,269 L503,269 L504,269 L504,269 L504,268 L505,266 L506,260 L507,259 L508,259 L508,259 L508,259 L508,259 L508,259 L509,259 L509,259 L509,259 L509,259 L511,252 L511,251 L511,251 L512,250 L512,250 L513,250 L513,247 L514,247 L514,246 L515,245 L516,243 L516,243 L516,243 L517,242 L517,242 L518,241 L518,241 L518,240 L519,240 L519,239 L519,239 L520,239 L522,235 L523,234 L523,234 L524,233 L525,232 L525,232 L526,232 L526,232 L526,232 L527,232 L527,232 L527,232 L527,232 L528,232 L528,232 L529,232 L529,232 L529,232 L529,232 L531,228 L531,227 L532,227 L532,228 L532,228 L533,227 L533,227 L534,227 L534,227 L535,226 L535,225 L536,224 L536,223 L536,223 L537,222 L538,221 L538,221 L538,221 L538,221 L539,220 L539,220 L539,220 L540,219 L540,219 L541,218 L542,217 L543,216 L543,216 L543,216 L543,216 L544,216 L544,216 L544,216 L545,216 L547,216 L547,216 L548,216 L548,216 L549,216 L549,216 L549,216 L550,215 L550,215 L550,215 L551,215 L551,215 L551,215 L551,215 L552,215 L552,215 L552,215 L552,215 L552,215 L552,215 L552,215 L553,215 L554,215 L554,216 L555,216 L555,216 L556,217 L556,217 L557,218 L557,220 L558,221 L559,223 L559,223 L559,223 L559,224 L560,224 L560,225 L560,225 L561,226 L561,226 L562,227 L564,234 L565,236 L565,236 L565,236 L566,236 L566,237 L567,237 L570,247 L570,248 L570,248 L570,249 L571,250 L571,250 L572,251 L572,251 L572,251 L572,251 L572,251 L573,251 L573,251 L573,251 L573,251 L574,251 L574,251 L574,251 L575,251 L575,251 L575,252 L576,254 L576,257 L577,257 L577,257 L577,257 L578,257 L578,258 L578,258 L578,258 L578,258 L578,258 L578,258 L579,259 L580,259 L580,259 L580,261 L582,264 L582,264 L583,266 L583,268 L585,271 L585,272 L585,272 L585,272 L585,273 L585,272 L585,272 L586,272 L586,272 L587,273 L587,273 L587,273 L587,273 L588,272 L589,275 L590,277 L590,277 L591,277 L591,277 L592,277 L592,277 L592,277 L593,277 L593,278 L594,278 L594,279 L594,279 L595,280 L596,281 L597,288 L598,289 L598,290 L598,290 L598,290 L599,290 L599,290 L599,290 L599,290 L599,291 L600,291 L600,292 L600,292 L601,294 L601,294 L601,295 L601,295 L602,295 L602,295 L603,295 L603,295 L604,295 L604,295 L604,295 L605,296 L605,296 L605,297 L606,297 L607,299 L607,299 L607,300 L608,301 L608,301 L608,302 L609,302 L609,303 L610,303 L613,306 L615,313 L616,314 L616,315 L616,315 L616,315 L617,316 L617,316 L618,317 L618,318 L618,318 L619,319 L619,319 L619,319 L619,319 L620,319 L620,319 L620,319 L620,319 L621,319 L621,319 L621,320 L621,320 L621,320 L621,320 L622,320 L623,320 L623,320 L623,321 L624,322 L624,322 L625,322 L625,323 L625,323 L625,323 L626,324 L627,324 L627,325 L627,326 L628,327 L628,327 L629,327 L629,327 L629,327 L629,327 L629,327 L629,328 L629,328 L630,328 L630,328 L630,328 L630,328 L631,328 L631,327 L631,327 L632,327 L632,327 L632,326 L632,326 L634,322 L635,319 L636,319 L637,317 L638,313 L639,312 L639,311 L639,311 L640,311 L640,311 L641,310 L642,310 L642,310 L642,310 L642,310 L643,310 L643,310 L643,310 L643,310 L643,310 L643,310 L644,310 L644,311 L644,311 L645,311 L645,312 L645,312 L646,312 L646,314 L647,314 L647,315 L648,315 L648,316 L648,317 L649,317 L650,320 L650,320 L650,320 L651,321 L651,322 L651,322 L653,325 L653,327 L654,327 L654,327 L655,327 L655,328 L657,332 L658,332 L658,332 L658,332 L658,332 L658,332 L659,332 L659,333 L659,332 L661,336 L662,337 L662,337 L662,337 L663,338 L664,339 L664,339 L664,340 L664,340 L664,340 L665,340 L665,341 L665,341 L665,341 L666,341 L667,342 L667,342 L668,343 L668,343 L669,344 L669,344 L670,343 L670,343 L671,343 L672,343 L672,343 L672,343 L673,343 L675,344 L676,344 L676,344 L676,344 L677,344 L677,344 L677,343 L677,343 L677,343 L677,343 L678,343 L678,343 L679,342 L680,339 L680,339 L680,338 L682,337 L682,337 L682,337 L683,333 L684,325 L685,324 L685,324 L686,322 L686,322 L686,322 L686,322 L686,321 L687,320 L687,320 L687,320 L688,318 L689,317 L689,316 L690,315 L690,315 L690,315 L691,314 L691,313 L693,302 L695,300 L695,300 L695,300 L695,300 L695,300 L695,300 L696,300 L696,299 L696,299 L696,299 L696,299 L697,299 L697,299 L697,299 L697,298 L698,296 L698,296 L699,289 L699,289 L700,288 L700,287 L700,287 L700,287 L701,287 L701,286 L701,286 L701,285 L702,284 L702,284 L702,284 L702,284 L703,283 L703,281 L703,280 L703,280 L704,277 L705,276 L705,276 L705,275 L705,273 L706,272 L707,270 L707,270 L707,269 L707,269 L708,267 L709,267 L709,267 L709,267 L709,266 L709,265 L709,265 L710,265 L710,265 L711,259 L711,257 L712,253 L712,253 L712,253 L713,252 L713,251 L714,251 L714,251 L714,251 L714,251 L714,251 L714,251 L715,251 L715,251 L715,251 L716,251 L716,251 L716,251 L716,251 L717,251 L717,251 L718,250 L718,249 L718,249 L719,248 L719,248 L719,248 L719,248 L719,247 L719,247 L719,247 L720,247 L720,247 L720,247 L721,247 L721,246 L721,246 L722,246 L722,246 L722,246 L722,246 L722,246 L722,246 L722,245 L723,245 L723,246 L723,246 L723,245 L724,246 L725,246 L726,246 L726,246 L726,247 L727,248 L728,248 L728,248 L728,248 L728,248 L729,248 L729,248 L729,248 L729,247 L729,246 L730,245 L730,245 L731,240 L731,239 L732,238 L732,233 L733,233 L734,229 L734,229 L734,229 L735,227 L735,227 L735,227 L736,226 L736,225 L736,225 L737,225 L737,225 L738,225 L738,225 L738,225 L739,225 L739,225 L740,225 L740,225 L740,224 L741,224 L741,224 L741,225 L742,225 L742,225 L742,225 L742,225 L743,225 L743,226 L743,226 L744,227 L745,228 L745,228 L745,228 L746,226 L746,226 L746,225 L747,223 L747,222 L748,222 L748,220 L748,220 L749,219 L749,219 L750,219 L750,218 L751,219 L751,218 L752,218 L752,217 L753,217 L753,216 L753,217 L754,216 L755,216 L756,216 L756,216 L757,215 L757,215 L758,214 L758,214 L758,213 L759,213 L759,213 L759,212 L760,212 L760,211 L760,211 L761,211 L761,210 L762,209 L762,207 L762,206 L763,205 L763,205 L763,205 L764,204 L764,204 L764,204 L764,204 L764,203 L764,202 L765,201 L765,201 L765,200 L766,199 L766,199 L766,199 L767,200 L767,200 L767,199 L767,199 L767,199 L767,199 L768,199 L768,199 L769,200 L769,200 L769,200 L770,198 L771,198 L771,197 L772,197 L772,197 L772,197 L772,197 L773,196 L774,196 L774,196 L776,193 L777,192 L777,192 L777,192 L778,192 L780,192 L780,192 L782,192 L782,192 L784,190 L785,189 L786,188 L787,184 L788,184 L788,184 L791,183 L793,183 L794,183 L795,183 L795,183 L797,184 L797,184 L797,183 L798,182 L798,181 L799,180 L799,179 L799,177 L800,176 L800,175 L801,174 L801,173 L801,173 L802,172 L802,172 L802,172 L803,172 L803,172 L803,172 L804,172 L804,172 L804,172 L804,172 L805,172 L806,171 L807,171 L807,171 L807,171 L807,170 L808,170 L808,170 L809,170 L809,170 L809,170 L809,170 L810,169 L810,169 L811,168 L811,168 L812,168 L812,168 L812,168 L812,168 L812,168 L813,168 L813,168 L813,168 L813,168 L814,168 L814,169 L815,170 L816,171 L817,171 L817,171 L817,171 L818,170 L818,170 L819,170 L819,169 L819,169 L820,169 L820,169 L821,168 L822,169 L822,169 L823,170 L823,170 L823,170 L824,170 L824,170 L824,170 L825,170 L826,171 L826,171 L826,171 L827,170 L828,170 L828,169 L829,168 L829,168 L829,168 L830,167 L830,167 L831,166 L831,165 L832,164 L833,164 L833,164 L834,163 L834,163 L835,163 L835,164 L836,164 L837,164 L837,164 L838,164 L838,164 L838,163 L838,163 L838,163 L839,162 L839,162 L840,162 L840,162 L840,162 L840,161 L841,161 L841,160 L842,160 L843,159 L843,159 L844,159 L844,158 L844,158 L845,158 L845,158 L845,158 L846,158 L847,158 L847,157 L847,157 L847,157 L847,157 L848,157 L848,157 L848,157 L849,157 L850,156 L850,155 L850,154 L851,154 L851,154 L852,153 L854,152 L854,150 L855,149 L855,149 L855,149 L855,149 L856,149 L856,149 L856,149 L856,149 L856,149 L856,149 L857,148 L857,148 L858,147 L859,145 L860,144 L861,144 L861,144 L862,143 L863,140 L864,140 L864,140 L866,140 L866,140 L867,139 L867,139 L868,138 L868,138 L868,138 L869,138 L869,138 L869,138 L870,138 L870,137 L870,137 L870,137 L871,136 L872,134 L872,134 L872,132 L873,132 L873,132 L873,132 L873,133 L875,133 L875,132 L875,133 L876,131 L876,130 L877,129 L877,128 L877,128 L878,128 L878,128 L878,128 L878,127 L879,127 L879,127 L879,127 L879,127 L880,127 L880,127 L880,127 L881,127 L881,127 L881,127 L881,127 L882,127 L883,127 L883,127 L884,127 L884,128 L885,128 L885,128 L885,128 L886,127 L886,127 L887,126 L888,126 L888,126 L888,125 L889,125 L889,125 L889,125 L890,125 L890,126 L890,126 L891,126 L891,127 L892,127 L892,127 L893,128 L893,128 L894,124 L894,124 L895,123 L895,123 L895,123 L895,123 L895,123 L895,123 L896,123 L896,123 L896,122 L896,122 L897,122 L897,122 L897,122 L898,122 L898,122 L898,121 L898,121 L899,121 L899,121 L899,121 L900,121 L900,121 L900,121 L900,121 L902,121 L902,119 L902,118 L903,118 L904,118 L904,117 L904,117 L904,117 L904,117 L904,117 L904,116 L905,116 L906,116 L906,116 L907,115 L908,114 L908,114 L909,114 L909,114 L910,114 L910,114 L911,113 L912,111 L913,110 L914,110 L915,110 L915,110 L915,110 L916,110 L917,107 L918,106 L918,106 L918,106 L919,106 L919,106 L920,106 L920,106 L920,106 L920,107 L920,107 L920,107 L920,107 L920,107 L921,107 L921,108 L921,108 L921,108 L922,109 L922,109 L922,109 L922,109 L922,110 L922,110 L923,110 L923,111 L923,111 L923,111 L923,111 L923,111 L924,112 L924,112 L924,112 L924,113 L925,113 L926,113 L926,113 L926,113 L926,113 L926,114 L927,114 L927,114 L927,114 L927,114 L928,114 L928,115 L928,115 L929,117 L930,119 L930,120 L930,121 L930,122 L931,122 L931,122 L931,122 L932,123 L932,124 L932,124 L932,124 L932,124 L932,124 L933,125 L933,126 L934,127 L934,127 L934,128 L935,131 L935,132 L935,132 L936,133 L936,133 L936,134 L936,134 L936,134 L937,135 L937,135 L938,136 L938,136 L938,137 L939,139 L939,139 L939,140 L939,140 L939,140 L940,141 L940,142 L940,143 L940,143 L941,143 L941,144 L941,144 L941,146 L942,148 L942,148 L942,148 L943,149 L943,150 L943,150 L943,150 L943,151 L944,151 L944,151 L944,151 L944,151 L944,151 L945,152 L945,152 L945,152 L945,152 L945,152 L946,152 L946,152 L946,152 L947,153 L948,156 L948,156 L948,156 L948,156 L949,157 L949,157 L949,157 L950,156 L950,156 L950,157 L951,158 L951,159 L951,159 L951,160 L952,161 L952,162 L952,164 L952,164 L953,165 L953,165 L953,166 L953,166 L953,167 L954,168 L954,169 L954,169 L954,169 L954,169 L954,169 L955,170 L955,170 L955,171 L956,176 L957,178 L957,179 L957,179 L958,179 L958,179 L958,179 L958,180 L959,181 L959,182 L959,182 L960,185 L960,186 L961,187 L961,187 L961,188 L961,188 L961,188 L962,188 L962,188 L963,190 L963,191 L963,191 L963,191 L963,191 L964,192 L964,192 L964,194 L965,194 L965,195 L965,195 L965,195 L965,196 L965,197 L966,198 L966,198 L966,198 L966,198 L966,198 L967,198 L967,198 L967,199 L967,200 L968,201 L968,202 L968,202 L968,202 L969,205 L969,207 L970,208 L970,209 L970,212 L971,212 L971,213 L971,213 L971,213 L971,214 L972,214 L972,214 L972,214 L972,214 L972,214 L973,214 L973,214 L973,215 L973,215 L973,216 L974,217 L974,218 L974,219 L975,220 L975,220 L975,220 L975,221 L975,221 L975,221 L976,222 L976,222 L976,222 L976,222 L976,222 L976,222 L976,222 L977,222 L977,222 L977,222 L977,222 L977,222 L978,223 L979,227 L979,228 L980,228 L980,229 L980,229 L980,230 L981,230 L981,230 L981,230 L981,230 L981,230 L981,230 L982,231 L982,231 L982,231 L982,231 L982,231 L982,232 L982,234 L983,236 L984,238 L984,238 L984,238 L985,239 L985,239 L985,239 L985,239 L985,239 L986,240 L987,241 L987,241 L987,242 L988,243 L988,243 L989,244 L989,245 L989,246 L989,247 L990,248 L990,248 L991,248 L991,248 L991,249 L991,249 L991,249 L992,249 L992,249 L993,248 L993,245 L993,245 L994,244 L994,243 L994,242 L995,242 L995,241 L995,241 L995,241 L995,240 L995,239 L996,237 L996,237 L997,236 L997,236 L997,235 L997,235 L997,234 L997,234 L998,234 L998,234 L998,234 L998,234 L998,233 L999,233 L999,233 L999,232 L999,232 L999,232 L999,232 L1000,231 L1000,231 L1000,230 L1000,229 L1000,229 L1001,228 L1001,227 L1001,227 L1002,225 L1002,224 L1002,222 L1003,219 L1003,217 L1004,216 L1004,216 L1004,215 L1004,214 L1004,214 L1005,213 L1005,213 L1006,212 L1006,210 L1006,209 L1006,209 L1007,207 L1007,205 L1008,203 L1008,203 L1008,202 L1009,200 L1009,200 L1009,199 L1009,198 L1010,198 L1010,198 L1010,197 L1010,197 L1010,197 L1010,197 L1010,197 L1011,196 L1011,196 L1011,196 L1011,195 L1012,195 L1012,190 L1013,186 L1013,185 L1014,182 L1014,181 L1014,181 L1014,180 L1015,179 L1015,178 L1015,177 L1015,177 L1016,176 L1016,174 L1016,173 L1017,172 L1017,172 L1017,170 L1018,170 L1018,169 L1018,168 L1019,166 L1019,166 L1019,165 L1020,164 L1020,163 L1021,163 L1021,163 L1021,163 L1021,162 L1021,162 L1022,161 L1022,160 L1022,159 L1023,155 L1024,153 L1024,152 L1025,151 L1025,149 L1026,147 L1027,146 L1027,146 L1028,144 L1028,143 L1029,140 L1029,139 L1029,138 L1030,137 L1030,137 L1030,137 L1031,136 L1031,134 L1032,133 L1032,129 L1033,128 L1034,122 L1034,121 L1035,115 L1035,115 L1036,113 L1036,113 L1036,113 L1036,112 L1036,112 L1036,112 L1037,112 L1037,112 L1037,112 L1037,111 L1038,111 L1038,111 L1039,110 L1039,110 L1039,109 L1040,108 L1040,108 L1040,108 L1041,107 L1041,106 L1041,106 L1042,106 L1042,106 L1042,103 L1042,103 L1043,103 L1043,101 L1044,99 L1044,99 L1045,99 L1045,99 L1045,100 L1046,100 L1046,100 L1046,100 L1046,100 L1046,100 L1047,101 L1047,101 L1047,101 L1049,105 L1050,107 L1050,108 L1051,108 L1052,109 L1052,110 L1053,113 L1053,114 L1054,115 L1054,116 L1055,117 L1055,117 L1055,117 L1055,117 L1055,118 L1055,118 L1056,119 L1056,120 L1056,121 L1056,121 L1057,121 L1057,122 L1057,124 L1058,124 L1058,124 L1058,124 L1058,124 L1058,125 L1058,125 L1059,126 L1059,126 L1060,128 L1060,129 L1060,130 L1061,131 L1061,132 L1061,132 L1061,132 L1062,133 L1062,134 L1062,134 L1062,134 L1063,135 L1063,136 L1064,137 L1064,137 L1065,137 L1065,137 L1065,137 L1066,137 L1066,137 L1067,137 L1067,137 L1067,137 L1068,137 L1068,137 L1068,137 L1068,137 L1069,137 L1069,137 L1069,137 L1069,137 L1069,136 L1069,136 L1069,136 L1070,136 L1071,132 L1071,131 L1071,130 L1072,128 L1072,127 L1073,127 L1073,127 L1073,125 L1074,124 L1074,124 L1075,123 L1075,121 L1075,119 L1076,118 L1077,117 L1077,116 L1077,116 L1077,116 L1078,114 L1079,109 L1080,107 L1080,105 L1081,106 L1081,104 L1081,104 L1082,104 L1082,104 L1082,103 L1082,103 L1083,103 L1083,103 L1083,103 L1083,103 L1083,103 L1083,103 L1084,102 L1084,102 L1084,101 L1084,100 L1085,99 L1085,98 L1085,98 L1085,98 L1085,98 L1086,98 L1086,98 L1086,98 L1086,98 L1086,97 L1086,97 L1087,96 L1087,95 L1087,94 L1088,92 L1088,91 L1088,91 L1088,91 L1088,91 L1089,91 L1089,91 L1089,90 L1089,89 L1089,89 L1090,89 L1090,88 L1091,83 L1091,80 L1092,78 L1092,77 L1093,76 L1094,75 L1095,72 L1096,66 L1096,66 L1097,66 L1097,66 L1097,65 L1098,65 L1098,65 L1098,65 L1098,65 L1098,65 L1098,65 L1098,65 L1098,64 L1099,64 L1099,64 L1099,63 L1099,63 L1100,63 L1100,63 L1100,62 L1100,62 L1100,62 L1101,61 L1101,61 L1101,61 L1101,61 L1101,61 L1101,61 L1101,61 L1102,60 L1102,60 L1102,60 L1103,59 L1103,59 L1103,59 L1103,59 L1104,59 L1104,59 L1104,59 L1105,59 L1105,59 L1105,59 L1105,59 L1106,59 L1106,59 L1106,59 L1107,59 L1107,59 L1107,59 L1107,59 L1108,59 L1108,59 L1108,59 L1109,59 L1109,59 L1109,59 L1110,60 L1110,60 L1110,60 L1110,60 L1110,60 L1111,60 L1111,60 L1112,60 L1112,60 L1112,60 L1112,61 L1113,61 L1113,61 L1113,61 L1114,61 L1114,62 L1114,62 L1114,62 L1115,62 L1115,62 L1115,63 L1115,63 L1115,63 L1116,63 L1117,65 L1117,65 L1117,65 L1118,65 L1118,65 L1118,65 L1118,65 L1118,65 L1119,66 L1119,66 L1120,67 L1121,69 L1121,69 L1121,69 L1121,69 L1121,69 L1122,70 L1123,71 L1123,72 L1124,72 L1124,73 L1125,73 L1126,74 L1126,74 L1126,74 L1126,75 L1127,75 L1127,76 L1128,76 L1128,77 L1129,77 L1129,78 L1130,78 L1130,79 L1130,79 L1130,79 L1130,79 L1131,80 L1131,81 L1132,82 L1132,82 L1132,83 L1133,85 L1133,86 L1133,87 L1134,90 L1134,92 L1135,94 L1135,96 L1136,101 L1136,102 L1136,104 L1137,106 L1137,108 L1137,108 L1137,108 L1137,109 L1138,111 L1138,111 L1138,112 L1139,113 L1139,113 L1139,114 L1139,115 L1140,116 L1140,116 L1140,118 L1140,118 L1141,120 L1141,121 L1142,122 L1142,123 L1142,123 L1143,124 L1143,125 L1143,125 L1144,126 L1145,128 L1145,128 L1145,130 L1146,130 L1147,131 L1147,131 L1147,131 L1147,131 L1151,128 L1151,127 L1152,127 L1152,127 L1153,127 L1153,127 L1153,127 L1153,127 L1154,126 L1154,126 L1154,126 L1155,126 L1155,125 L1155,126 L1156,126 L1156,127 L1157,127 L1157,129 L1157,129 L1158,132 L1158,132 L1159,134 L1159,134 L1160,136 L1160,136 L1161,135 L1161,135 L1161,135 L1161,135 L1162,135 L1162,135 L1162,135 L1163,134 L1164,136 L1164,136 L1164,136 L1164,136 L1164,136 L1164,137 L1165,138 L1165,139 L1165,139 L1165,139 L1166,141 L1166,143 L1166,143 L1167,143 L1167,144 L1167,146 L1168,147 L1168,147 L1168,147 L1168,148 L1168,150 L1169,150 L1169,150 L1169,151 L1170,151 L1170,152 L1170,152 L1170,152 L1170,152 L1170,152 L1171,152 L1171,152 L1171,152 L1171,152 L1172,152 L1172,151 L1172,151 L1173,150 L1173,150 L1173,150 L1173,150 L1173,149 L1174,149 L1174,149 L1174,148 L1174,148 L1174,147 L1175,145 L1176,143 L1176,141 L1176,140 L1177,137 L1177,134 L1177,134 L1178,133 L1178,130 L1178,130 L1179,128 L1179,127 L1179,125 L1180,124 L1180,123 L1181,122 L1181,122 L1181,122 L1181,121 L1182,121 L1183,121 L1183,120 L1183,120 L1184,120 L1184,118 L1184,118 L1184,118 L1185,118 L1185,118 L1185,118 L1185,118 L1186,117 L1186,117 L1186,117 L1186,117 L1186,117 L1186,116 L1186,116 L1187,115 L1187,115 L1187,114 L1188,113 L1188,113 L1188,112 L1189,110 L1189,110 L1190,109 L1190,107 L1190,105 L1191,104 L1191,104 L1191,103 L1192,103 L1192,100 L1192,100 L1192,99 L1193,98 L1194,97 L1194,97 L1194,97 L1194,97 L1194,97 L1196,93 L1197,91 L1198,90 L1198,90 L1199,90 L1199,89 L1200,88 L1201,88 L1202,88 L1202,88 L1203,88 L1203,87 L1205,82 L1206,80 L1207,80 L1207,79 L1209,77 L1209,76 L1210,75 L1212,70 L1213,68 L1213,68 L1213,68 L1214,67 L1214,66 L1215,66 L1216,64 L1217,61 L1218,59 L1219,57 L1220,57 L1221,56 L1221,56 L1221,56 L1221,56 L1221,56 L1221,56 L1221,56 L1222,56 L1222,56 L1222,56 L1222,55 L1222,55 L1223,54 L1223,54 L1224,53 L1224,52 L1224,52 L1225,51 L1225,50 L1225,50 L1226,50 L1226,49 L1227,49 L1227,49 L1227,49 L1227,49 L1227,49 L1227,49 L1228,49 L1228,48 L1228,48 L1228,48 L1229,48 L1229,47 L1230,47 L1230,47 L1230,47 L1230,47 L1230,47 L1231,47 L1231,46 L1231,46 L1232,46 L1233,46 L1234,46 L1234,46 L1236,45 L1236,45 L1236,45 L1237,44 L1238,44 L1238,44 L1238,44 L1239,44 L1239,44 L1239,44 L1239,44 L1240,44 L1240,43 L1241,43 L1241,43 L1241,43 L1241,43 L1242,43 L1242,43 L1242,43 L1243,43 L1243,43 L1244,43 L1244,42 L1244,42 L1244,42 L1244,43 L1245,43 L1245,43 L1245,43 L1245,43 L1245,43 L1245,43 L1245,43 L1246,43 L1246,43 L1246,43 L1246,43 L1246,43 L1247,43 L1247,43 L1247,43 L1247,43 L1247,43 L1247,43 L1247,43 L1248,43 L1248,43 L1249,43 L1249,43 L1249,43 L1249,43 L1249,43 L1250,43 L1250,43 L1250,43 L1250,43 L1251,43 L1251,43 L1251,43 L1251,43 L1251,43 L1252,43 L1252,44 L1253,44 L1254,44 L1254,44 L1254,44 L1254,44 L1254,44 L1254,44 L1255,44 L1255,44 L1255,44 L1255,44 L1255,44 L1256,44 L1256,44 L1257,44 L1258,44 L1258,44 L1259,44 L1259,44 L1259,44 L1259,44 L1259,44 L1259,44 L1260,44 L1261,44 L1261,44 L1262,44 L1262,44 L1262,44 L1263,43 L1263,43 L1264,43 L1264,43 L1265,43 L1265,43 L1266,43 L1267,43 L1269,44 L1270,44 L1271,44 L1272,44 L1272,44 L1273,44 L1274,44 L1274,44 L1274,44 L1274,44 L1276,43 L1276,43 L1276,43 L1278,43 L1281,44 L1283,44 L1284,44 L1285,44 L1285,44 L1286,44 L1286,44 L1286,44 L1288,43 L1289,43 L1289,43 L1290,43 L1290,43 L1291,43 L1291,43 L1292,43 L1292,43 L1292,43 L1292,43 L1292,43 L1292,43 L1292,43 L1292,43 L1293,43 L1293,43 L1293,43 L1293,43 L1293,43 L1294,43 L1294,43 L1294,43 L1294,43 L1294,43 L1295,43 L1295,43 L1295,43 L1296,43 L1296,43 L1296,43 L1296,43 L1297,43 L1299,43 L1299,44 L1299,44 L1300,44 L1301,44 L1301,44 L1301,44 L1301,43 L1302,43 L1302,43 L1302,43 L1302,43 L1302,43 L1303,43 L1303,43 L1303,43 L1303,43 L1304,43 L1304,41 L1304,41 L1305,41 L1306,41 L1306,41 L1306,41 L1306,41 L1306,41 L1307,40 L1307,40 L1308,41 L1309,41 L1309,41 L1310,40 L1310,40 L1311,40 L1312,41 L1313,41 L1313,41 L1314,41 L1315,42 L1316,42 L1316,42 L1317,42 L1317,42 L1317,42 L1318,42 L1318,42 L1319,42 L1319,42 L1319,42 L1319,42 L1320,42 L1320,42 L1321,42 L1322,41 L1322,41 L1323,41 L1323,41 L1324,41 L1325,41 L1325,41 L1325,41 L1326,41 L1326,41 L1326,41 L1326,41 L1326,41 L1326,41 L1326,41 L1326,41 L1327,41 L1327,41 L1327,41 L1328,41 L1329,41 L1329,41 L1330,41 L1330,41 L1331,41 L1332,42 L1333,42 L1336,42 L1336,42 L1337,42 L1337,42 L1339,42 L1339,42 L1339,42 L1339,42 L1341,41 L1342,41 L1344,42 L1345,43 L1345,43 L1346,43" fill="transparent" id="track" shape-rendering="geometricPrecision" stroke="black" stroke-width="2"/>
</g>
</g>
</svg>