<svg height="400" width="1440" xmlns="http://www.w3.org/2000/svg">
<g font-family="ui-serif" font-size="15" id="world" shape-rendering="crispEdges" transform="translate(5 5)">
<g id="BG"/>
<g id="SL" transform="translate(71 360) scale(-1 -1)">
<text text-anchor="end" transform="translate(10 -5) scale(-1 -1)">
0
</text>
<text text-anchor="end" transform="translate(10 60) scale(-1 -1)">
200
</text>
<text text-anchor="end" transform="translate(10 125) scale(-1 -1)">
400
</text>
<text text-anchor="end" transform="translate(10 191) scale(-1 -1)">
600
</text>
<text text-anchor="end" transform="translate(10 256) scale(-1 -1)">
800
</text>
<text text-anchor="end" transform="translate(10 322) scale(-1 -1)">
1000
</text>
</g>
<g id="SB" transform="translate(71 360)">
<text text-anchor="middle" transform="translate(192 25)">
0
</text>
<text text-anchor="middle" transform="translate(385 25)">
20
</text>
<text text-anchor="middle" transform="translate(578 25)">
40
</text>
<text text-anchor="middle" transform="translate(770 25)">
60
</text>
<text text-anchor="middle" transform="translate(963 25)">
80
</text>
<text text-anchor="middle" transform="translate(1156 25)">
100
</text>
</g>
<g id="SD" transform="translate(71 360) scale(1 -1) scale(1 1)">
<path d="M0,0 L0,360 L1349,360 L1349,0 L0,0" fill="lightgray" id="bg"/>
<path d="M0,0 L1349,0" stroke="black" stroke-width="3"/>
<path d="M0,0 L0,360" stroke="black" stroke-width="3"/>
<path d="M0,360 L1349,360" stroke="black" stroke-width="3"/>
<path d="M1349,0 L1349,360" stroke="black" stroke-width="3"/>
<path d="M192,0 L192,360" stroke="black" stroke-width="1"/>
<path d="M385,0 L385,360" stroke="black" stroke-width="1"/>
<path d="M578,0 L578,360" stroke="black" stroke-width="1"/>
<path d="M770,0 L770,360" stroke="black" stroke-width="1"/>
<path d="M963,0 L963,360" stroke="black" stroke-width="1"/>
<path d="M1156,0 L1156,360" stroke="black" stroke-width="1"/>
<path d="M96,0 L96,360" stroke="black" stroke-dasharray="1.0,2.5,5.0,5.0,10.0,5.0"/>
<path d="M289,0 L289,360" stroke="black" stroke-dasharray="1.0,2.5,5.0,5.0,10.0,5.0"/>
<path d="M481,0 L481,360" stroke="black" stroke-dasharray="1.0,2.5,5.0,5.0,10.0,5.0"/>
<path d="M674,0 L674,360" stroke="black" stroke-dasharray="1.0,2.5,5.0,5.0,10.0,5.0"/>
<path d="M867,0 L867,360" stroke="black" stroke-dasharray="1.0,2.5,5.0,5.0,10.0,5.0"/>
<path d="M1059,0 L1059,360" stroke="black" stroke-dasharray="1.0,2.5,5.0,5.0,10.0,5.0"/>
<path d="M1252,0 L1252,360" stroke="black" stroke-dasharray="1.0,2.5,5.0,5.0,10.0,5.0"/>
<path d="M0,0 L1349,0" stroke="black" stroke-width="1"/>
<path d="M0,65 L1349,65" stroke="black" stroke-width="1"/>
<path d="M0,130 L1349,130" stroke="black" stroke-width="1"/>
<path d="M0,196 L1349,196" stroke="black" stroke-width="1"/>
<path d="M0,261 L1349,261" stroke="black" stroke-width="1"/>
<path d="M0,327 L1349,327" stroke="black" stroke-width="1"/>
<path d="M0,32 L1349,32" stroke="black" stroke-dasharray="1.0,2.5,5.0,5.0,10.0,5.0"/>
<path d="M0,98 L1349,98" stroke="black" stroke-dasharray="1.0,2.5,5.0,5.0,10.0,5.0"/>
<path d="M0,163 L1349,163" stroke="black" stroke-dasharray="1.0,2.5,5.0,5.0,10.0,5.0"/>
<path d="M0,229 L1349,229" stroke="black" stroke-dasharray="1.0,2.5,5.0,5.0,10.0,5.0"/>
<path d="M0,294 L1349,294" stroke="black" stroke-dasharray="1.0,2.5,5.0,5.0,10.0,5.0"/>
<path d="M0,360 L1349,360" stroke="black" stroke-dasharray="1.0,2.5,5.0,5.0,10.0,5.0"/>
<path d="M192,227 L192,227 L192,227 L192,227 L193,227 L193,227 L193,227 L193,227 L193,227 L194,227 L194,227 L195,227 L195,227 L196,226 L196,226 L196,226 L197,226 L197,227 L197,227 L198,227 L198,227 L198,226 L199,226 L199,226 L199,226 L200,226 L200,226 L200,226 L201,226 L201,226 L202,226 L202,226 L203,226 L203,226 L204,226 L204,226 L205,226 L205,226 L205,226 L206,226 L207,227 L208,227 L208,227 L209,227 L209,227 L210,227 L210,227 L211,227 L211,227 L212,227 L216,228 L219,229 L220,229 L221,229 L222,229 L222,229 L222,229 L223,229 L224,229 L228,230 L228,230 L228,230 L229,230 L229,230 L230,230 L232,231 L232,231 L233,231 L233,231 L234,231 L234,231 L235,231 L236,231 L236,231 L236,231 L236,231 L236,231 L237,232 L237,232 L237,232 L237,232 L238,232 L238,232 L238,232 L238,232 L239,232 L239,232 L240,232 L240,232 L241,232 L242,232 L242,232 L242,232 L242,232 L242,232 L243,232 L244,232 L244,232 L245,232 L245,232 L245,232 L246,232 L247,233 L247,234 L247,234 L248,234 L248,234 L248,234 L249,234 L249,234 L249,234 L250,234 L250,234 L250,234 L251,234 L251,234 L251,234 L251,234 L251,234 L251,234 L252,234 L252,234 L252,235 L252,235 L252,235 L253,236 L253,236 L254,237 L254,237 L254,238 L255,238 L255,238 L256,237 L257,237 L257,237 L258,237 L259,237 L259,237 L260,237 L260,237 L260,237 L261,237 L264,236 L266,237 L267,237 L268,237 L269,237 L269,237 L270,237 L271,238 L272,238 L272,238 L273,238 L273,238 L274,238 L274,238 L274,238 L276,237 L276,237 L277,237 L279,238 L280,239 L281,239 L283,240 L284,240 L285,240 L285,239 L286,239 L287,239 L288,239 L289,239 L289,239 L290,239 L290,239 L292,241 L294,240 L294,241 L295,241 L296,241 L296,241 L296,241 L297,241 L297,241 L298,241 L299,241 L299,241 L299,241 L300,241 L301,242 L301,242 L301,242 L303,242 L303,242 L303,243 L303,243 L304,243 L304,243 L304,243 L307,244 L308,244 L308,244 L308,244 L309,244 L309,244 L310,244 L310,245 L310,245 L311,245 L311,245 L312,245 L313,245 L314,245 L314,245 L315,245 L316,245 L316,244 L317,244 L320,246 L320,247 L321,247 L321,247 L322,247 L322,247 L323,247 L325,247 L326,247 L326,247 L327,247 L327,247 L327,247 L327,247 L327,247 L328,247 L328,247 L328,247 L329,248 L329,249 L330,250 L330,251 L331,251 L331,252 L331,252 L332,253 L332,253 L333,253 L333,252 L334,251 L334,251 L335,251 L335,251 L335,251 L336,250 L337,250 L337,251 L337,251 L337,251 L338,251 L338,251 L340,250 L340,251 L341,251 L341,251 L341,251 L342,251 L342,251 L344,253 L346,253 L347,253 L347,253 L347,253 L347,253 L348,253 L348,253 L350,259 L351,259 L351,259 L352,259 L352,259 L353,260 L353,261 L354,261 L354,262 L354,262 L355,262 L356,263 L356,263 L356,264 L357,264 L357,264 L358,264 L358,264 L358,265 L359,265 L359,265 L359,265 L360,265 L360,265 L360,266 L362,267 L362,270 L363,271 L364,274 L364,274 L364,275 L365,276 L366,276 L366,276 L366,277 L366,277 L366,277 L366,277 L367,277 L367,277 L367,277 L367,277 L367,277 L367,277 L368,278 L368,278 L368,278 L368,279 L369,279 L369,279 L369,279 L369,279 L370,280 L371,280 L371,280 L373,280 L374,281 L375,281 L375,281 L375,281 L376,281 L377,282 L377,282 L378,282 L379,283 L379,283 L379,283 L380,283 L381,283 L382,283 L382,283 L382,283 L382,283 L383,283 L383,283 L385,286 L385,287 L386,287 L386,287 L386,287 L387,288 L387,287 L388,287 L388,287 L388,287 L389,287 L389,287 L389,287 L390,287 L390,288 L391,288 L391,288 L392,289 L393,289 L393,290 L393,290 L394,290 L394,290 L394,290 L395,291 L395,291 L396,291 L396,291 L396,291 L396,292 L397,292 L398,293 L398,294 L399,295 L399,295 L401,296 L402,297 L403,298 L403,298 L403,298 L404,298 L404,298 L405,298 L405,298 L406,299 L407,300 L408,301 L408,301 L409,301 L409,302 L409,302 L410,302 L411,303 L411,303 L412,304 L412,305 L413,306 L413,306 L414,306 L414,307 L415,307 L415,307 L415,307 L416,308 L417,310 L417,310 L418,311 L418,312 L418,312 L418,312 L419,312 L420,313 L420,312 L420,313 L420,313 L420,313 L420,313 L421,313 L421,313 L421,313 L421,313 L421,313 L422,313 L422,313 L422,313 L422,313 L423,313 L423,313 L423,313 L423,313 L424,313 L424,313 L424,313 L424,314 L426,315 L426,319 L427,320 L427,320 L428,321 L428,321 L428,321 L429,322 L429,323 L430,324 L431,327 L431,328 L432,329 L433,330 L434,333 L434,333 L435,334 L435,334 L436,334 L438,326 L439,322 L439,321 L440,321 L440,318 L441,317 L441,316 L442,315 L442,315 L442,314 L443,313 L444,311 L445,310 L446,309 L446,309 L447,309 L448,306 L449,303 L449,303 L450,301 L451,299 L452,299 L453,296 L453,295 L453,294 L454,293 L455,293 L455,293 L455,293 L455,292 L457,291 L459,289 L460,289 L460,289 L460,289 L460,289 L461,289 L461,289 L461,289 L463,291 L463,291 L464,290 L465,289 L465,289 L465,288 L466,288 L466,288 L466,288 L466,288 L466,288 L467,288 L467,288 L467,288 L467,288 L467,288 L467,288 L467,288 L467,288 L468,287 L469,286 L469,286 L470,285 L470,285 L470,285 L470,285 L470,285 L471,285 L471,285 L471,285 L471,285 L471,285 L471,285 L471,285 L471,285 L472,285 L472,285 L472,285 L473,284 L473,284 L473,284 L473,284 L474,283 L474,283 L475,283 L475,283 L475,283 L475,283 L475,283 L475,283 L475,283 L476,283 L476,283 L476,283 L476,283 L477,283 L477,283 L477,283 L478,283 L478,283 L479,283 L479,283 L479,283 L479,283 L479,283 L480,283 L480,283 L482,282 L482,281 L482,281 L482,281 L482,281 L483,281 L483,281 L483,281 L483,281 L483,281 L483,281 L484,281 L484,281 L484,281 L484,282 L485,282 L485,282 L485,282 L486,283 L486,283 L486,283 L486,283 L487,282 L488,282 L488,282 L488,281 L488,281 L489,281 L489,281 L489,282 L491,283 L491,283 L491,284 L492,284 L492,284 L493,284 L493,283 L493,283 L494,282 L494,282 L495,282 L495,281 L495,281 L495,281 L496,281 L496,282 L497,284 L498,284 L498,284 L499,285 L499,285 L499,285 L499,285 L499,285 L500,285 L500,285 L500,286 L501,286 L501,286 L502,287 L502,287 L503,288 L503,288 L504,288 L505,288 L505,288 L506,289 L507,289 L507,289 L508,289 L509,289 L509,289 L510,289 L510,289 L510,289 L511,289 L511,289 L513,290 L514,290 L514,290 L515,290 L515,290 L516,290 L516,290 L517,290 L517,290 L517,290 L517,290 L520,295 L520,295 L521,295 L522,295 L522,295 L525,297 L525,298 L527,298 L528,301 L530,299 L531,299 L531,299 L531,299 L532,299 L533,299 L533,300 L534,300 L535,300 L535,300 L535,301 L536,301 L536,301 L536,301 L537,301 L537,302 L538,303 L538,304 L539,305 L539,305 L539,306 L540,306 L540,307 L540,307 L541,308 L542,308 L542,309 L542,309 L543,309 L543,309 L543,310 L544,310 L544,310 L544,311 L545,311 L545,311 L545,311 L546,312 L547,313 L547,313 L547,313 L547,313 L548,314 L548,314 L548,314 L548,314 L548,314 L548,314 L548,314 L549,314 L549,315 L549,316 L550,316 L550,317 L551,321 L551,324 L552,325 L552,326 L553,326 L553,326 L553,326 L553,326 L554,326 L554,327 L554,327 L555,327 L555,327 L555,327 L556,328 L556,328 L556,328 L556,328 L557,329 L558,332 L559,334 L559,334 L560,334 L561,334 L562,333 L562,334 L563,334 L563,333 L563,333 L563,334 L564,334 L565,336 L566,337 L566,337 L567,334 L568,332 L569,331 L569,331 L569,331 L570,330 L570,330 L570,330 L571,329 L571,328 L572,327 L572,327 L573,327 L573,326 L573,326 L573,326 L573,326 L574,326 L574,326 L574,326 L574,325 L575,326 L575,326 L575,326 L575,326 L575,326 L576,326 L576,326 L576,327 L577,328 L577,328 L577,328 L578,330 L578,330 L579,330 L579,330 L579,330 L579,331 L580,331 L580,331 L581,331 L581,331 L582,330 L583,329 L584,328 L584,328 L584,328 L585,328 L585,327 L585,327 L586,327 L588,328 L590,328 L590,328 L590,329 L590,329 L590,329 L591,328 L592,328 L592,328 L592,326 L593,324 L593,323 L594,321 L594,321 L594,320 L594,320 L595,320 L595,320 L595,320 L595,319 L595,319 L596,319 L596,318 L596,318 L596,317 L596,317 L597,316 L597,316 L598,314 L599,312 L599,312 L599,311 L600,311 L600,311 L601,310 L601,310 L601,309 L602,309 L602,309 L602,308 L603,308 L603,308 L603,308 L603,307 L604,307 L604,307 L604,307 L607,303 L607,301 L608,298 L609,296 L609,295 L610,294 L610,294 L610,294 L610,292 L611,292 L611,291 L611,291 L612,289 L612,289 L612,289 L613,288 L613,288 L613,288 L614,286 L614,286 L615,286 L615,286 L615,286 L615,286 L616,286 L616,286 L616,287 L617,287 L617,287 L617,287 L617,288 L618,288 L618,289 L618,290 L619,292 L619,292 L620,293 L620,293 L620,293 L621,294 L621,294 L621,296 L622,296 L622,297 L623,298 L623,299 L623,299 L624,300 L624,301 L624,301 L626,303 L626,303 L626,304 L627,305 L627,305 L627,305 L628,305 L628,306 L628,306 L628,306 L628,306 L628,306 L629,306 L629,306 L629,306 L629,307 L630,307 L630,307 L630,308 L632,315 L632,316 L632,318 L632,318 L633,319 L633,319 L634,320 L635,320 L635,320 L635,321 L636,320 L636,320 L637,319 L637,319 L638,319 L639,318 L639,318 L640,318 L640,318 L641,318 L642,318 L642,317 L643,315 L644,312 L644,312 L645,312 L645,312 L645,311 L645,311 L645,311 L645,311 L646,311 L646,311 L646,311 L646,311 L647,311 L647,310 L647,310 L647,310 L648,310 L648,310 L648,310 L648,310 L648,310 L649,310 L649,310 L650,310 L650,310 L650,310 L650,310 L651,309 L651,309 L651,309 L652,309 L652,308 L653,306 L653,305 L654,304 L655,303 L655,302 L656,302 L657,301 L657,301 L657,301 L657,300 L657,300 L657,299 L657,299 L658,299 L658,299 L659,299 L659,298 L659,298 L659,298 L659,298 L659,297 L660,295 L661,294 L661,292 L662,292 L662,292 L662,292 L662,292 L663,292 L663,292 L663,292 L663,292 L664,291 L664,291 L664,291 L664,290 L665,290 L665,290 L666,287 L666,286 L666,285 L667,285 L667,283 L667,283 L668,281 L668,277 L669,271 L670,270 L670,270 L670,268 L671,268 L672,267 L673,263 L674,260 L675,259 L675,258 L676,257 L677,257 L677,257 L677,257 L679,256 L680,257 L680,257 L681,256 L681,256 L682,254 L683,252 L684,249 L684,249 L684,248 L685,249 L685,249 L685,249 L686,249 L686,249 L687,249 L687,249 L687,249 L687,250 L688,250 L688,250 L688,250 L688,250 L689,250 L689,249 L689,248 L689,247 L690,246 L690,245 L691,244 L691,244 L691,243 L691,243 L692,243 L692,242 L692,242 L692,242 L693,241 L693,241 L694,241 L694,241 L694,239 L696,232 L696,232 L697,231 L697,231 L697,230 L697,229 L698,229 L698,227 L699,225 L699,224 L700,223 L700,223 L700,222 L701,222 L701,222 L701,221 L702,221 L702,220 L702,220 L703,219 L703,218 L703,218 L704,218 L704,217 L705,216 L706,214 L707,214 L707,213 L707,213 L708,213 L708,212 L709,211 L709,210 L710,209 L710,209 L711,209 L711,209 L712,207 L712,207 L712,205 L713,202 L714,201 L714,200 L714,200 L714,200 L715,200 L715,200 L715,200 L715,200 L716,200 L716,200 L717,200 L717,200 L717,200 L717,200 L718,200 L718,200 L719,199 L719,199 L719,199 L719,198 L719,198 L720,198 L720,198 L720,198 L721,197 L721,195 L722,191 L722,190 L722,190 L722,190 L722,190 L723,190 L723,190 L723,189 L723,189 L723,189 L723,189 L723,189 L723,189 L723,189 L723,189 L724,189 L724,189 L724,189 L725,187 L725,187 L726,187 L726,185 L727,184 L728,182 L728,182 L728,182 L728,181 L729,181 L729,180 L730,179 L731,177 L731,177 L732,177 L732,177 L732,176 L732,176 L733,176 L733,176 L733,176 L734,176 L734,176 L734,175 L735,175 L735,175 L736,174 L736,174 L736,174 L738,172 L738,171 L738,171 L739,171 L739,171 L739,171 L739,171 L740,171 L740,170 L740,170 L740,170 L740,169 L741,169 L742,168 L742,168 L743,167 L743,167 L743,167 L744,166 L745,166 L745,166 L745,166 L745,166 L746,165 L746,165 L746,165 L747,165 L748,165 L748,164 L748,164 L749,164 L749,163 L749,163 L750,162 L750,162 L750,162 L751,162 L751,162 L751,162 L751,162 L751,162 L751,161 L752,161 L752,161 L752,161 L752,161 L752,161 L753,161 L753,161 L753,161 L753,161 L753,161 L754,161 L754,161 L754,161 L754,161 L755,160 L756,159 L756,158 L757,157 L757,157 L758,157 L758,157 L758,157 L759,156 L759,156 L759,156 L760,156 L761,156 L761,156 L761,156 L762,155 L762,155 L762,155 L763,155 L763,154 L764,154 L764,153 L764,153 L765,153 L765,153 L765,153 L765,153 L766,153 L766,152 L766,152 L767,152 L767,152 L767,152 L768,152 L768,152 L768,152 L768,152 L768,152 L768,152 L769,152 L769,152 L769,152 L769,152 L770,152 L770,153 L770,153 L771,154 L771,154 L772,156 L772,158 L773,160 L774,161 L774,162 L776,164 L776,166 L777,166 L777,167 L778,169 L779,171 L779,173 L780,174 L781,177 L782,178 L782,182 L784,186 L784,186 L784,186 L785,187 L785,189 L786,190 L787,195 L787,195 L788,197 L788,201 L790,203 L790,202 L790,202 L790,202 L790,202 L791,201 L791,201 L791,201 L792,201 L792,200 L792,200 L792,197 L793,194 L794,189 L794,185 L795,181 L795,180 L795,179 L795,179 L796,179 L796,179 L796,178 L796,177 L796,177 L796,177 L797,177 L797,176 L797,176 L798,175 L798,175 L798,174 L799,174 L799,174 L799,174 L799,174 L800,173 L800,172 L801,172 L801,172 L801,172 L802,171 L802,171 L802,171 L802,171 L802,171 L802,171 L802,171 L802,171 L804,168 L805,162 L805,162 L805,162 L805,160 L806,159 L806,158 L806,158 L807,158 L807,156 L807,156 L807,155 L808,154 L809,152 L809,151 L810,149 L810,148 L811,147 L811,146 L812,146 L812,144 L812,143 L813,142 L813,141 L813,140 L814,137 L814,136 L815,134 L815,133 L815,132 L816,132 L816,131 L816,130 L816,130 L817,130 L818,128 L818,127 L819,122 L820,122 L820,121 L820,120 L821,120 L821,120 L821,120 L821,119 L822,119 L823,119 L823,119 L823,119 L824,119 L824,119 L824,119 L825,119 L825,119 L825,119 L827,114 L828,113 L828,113 L828,113 L828,113 L829,114 L830,114 L830,115 L831,115 L831,113 L832,110 L833,106 L833,105 L833,105 L834,105 L834,104 L834,104 L835,104 L835,104 L835,104 L836,105 L836,104 L836,103 L837,103 L838,101 L838,99 L838,99 L839,98 L839,98 L840,97 L840,97 L841,96 L841,96 L842,95 L842,95 L843,95 L843,95 L843,94 L844,94 L845,93 L845,93 L846,93 L846,93 L846,93 L846,92 L847,92 L848,91 L848,90 L849,89 L850,88 L850,88 L850,87 L850,87 L851,87 L851,87 L851,87 L851,87 L851,87 L852,86 L852,86 L853,85 L853,85 L853,85 L853,85 L854,84 L854,84 L854,84 L855,84 L855,84 L855,84 L855,83 L856,83 L856,83 L856,83 L856,83 L857,83 L857,82 L857,82 L857,82 L858,82 L858,82 L858,82 L858,82 L858,82 L858,82 L859,82 L859,82 L860,82 L860,82 L861,82 L862,81 L862,81 L863,81 L863,81 L863,81 L864,81 L864,81 L864,81 L864,81 L865,81 L865,81 L866,81 L867,82 L867,81 L868,81 L869,80 L869,79 L870,78 L870,78 L871,78 L872,76 L873,75 L875,74 L875,74 L878,72 L878,72 L878,72 L878,72 L879,72 L880,73 L880,73 L881,73 L881,73 L881,73 L881,73 L881,73 L882,72 L883,72 L884,72 L884,72 L884,72 L884,72 L884,72 L885,71 L885,71 L885,71 L886,71 L886,71 L886,71 L886,71 L887,70 L888,70 L888,70 L889,70 L889,70 L889,70 L889,70 L889,70 L890,70 L890,70 L890,70 L890,70 L890,70 L891,70 L891,70 L892,70 L892,70 L892,70 L892,70 L893,70 L894,70 L894,70 L895,70 L897,70 L899,70 L900,70 L901,71 L901,71 L903,71 L904,71 L904,71 L904,71 L905,71 L905,71 L907,72 L907,72 L908,73 L908,74 L908,74 L909,75 L909,75 L910,76 L910,76 L910,76 L910,77 L911,77 L911,78 L911,78 L912,80 L913,80 L913,80 L913,80 L914,80 L914,80 L914,80 L914,80 L915,80 L915,79 L915,79 L915,79 L916,79 L916,79 L916,79 L917,79 L917,79 L917,79 L919,81 L919,83 L920,84 L920,84 L921,85 L921,85 L921,85 L921,85 L922,85 L922,85 L922,85 L922,85 L923,85 L923,85 L923,85 L924,85 L924,85 L925,86 L925,86 L926,86 L926,87 L927,88 L928,89 L928,89 L929,90 L929,90 L930,92 L930,92 L931,93 L931,94 L932,94 L932,95 L932,96 L933,96 L933,96 L933,97 L934,97 L934,97 L935,99 L935,99 L936,100 L936,99 L937,100 L937,100 L938,103 L939,104 L940,105 L940,106 L940,106 L941,108 L943,112 L943,113 L943,113 L946,119 L946,121 L947,122 L948,124 L948,124 L949,126 L950,129 L950,132 L951,134 L951,134 L952,135 L952,137 L953,138 L954,138 L954,139 L954,139 L954,140 L956,142 L957,143 L957,143 L957,143 L958,144 L958,144 L959,146 L959,147 L959,147 L959,149 L960,150 L961,152 L961,152 L961,152 L961,155 L961,156 L962,157 L963,159 L963,159 L963,159 L964,161 L965,161 L965,161 L966,169 L967,172 L967,173 L968,173 L968,173 L968,174 L968,174 L968,174 L968,174 L968,174 L969,174 L969,175 L969,175 L969,175 L969,175 L969,176 L969,177 L970,178 L970,178 L970,180 L971,181 L971,183 L971,184 L971,184 L971,185 L971,185 L972,187 L972,189 L973,191 L974,197 L974,198 L975,200 L975,200 L976,201 L976,202 L977,201 L977,203 L977,203 L978,205 L978,205 L979,206 L979,206 L979,207 L980,209 L980,210 L981,212 L982,212 L982,212 L982,215 L983,217 L984,226 L985,229 L985,229 L986,228 L986,228 L986,229 L986,228 L987,228 L987,227 L988,224 L989,223 L989,222 L989,221 L990,220 L990,219 L990,219 L991,218 L991,218 L992,216 L992,216 L992,214 L993,214 L993,212 L993,211 L994,208 L994,208 L995,206 L995,205 L995,204 L996,204 L996,204 L996,204 L996,204 L996,203 L997,202 L997,202 L997,200 L999,193 L999,190 L999,190 L1000,190 L1000,190 L1000,190 L1000,190 L1000,190 L1001,190 L1001,190 L1001,190 L1001,189 L1002,189 L1002,190 L1003,187 L1004,186 L1005,186 L1005,186 L1005,186 L1005,187 L1006,189 L1007,189 L1007,193 L1008,195 L1008,197 L1009,198 L1009,200 L1010,204 L1010,205 L1010,205 L1011,208 L1011,209 L1011,209 L1012,209 L1012,210 L1012,210 L1012,212 L1012,213 L1013,214 L1013,215 L1014,221 L1014,222 L1014,222 L1014,223 L1015,225 L1015,225 L1015,226 L1015,226 L1016,226 L1016,227 L1016,228 L1016,229 L1017,230 L1017,231 L1018,232 L1018,232 L1018,233 L1018,234 L1018,234 L1019,235 L1019,236 L1019,237 L1020,240 L1021,242 L1021,243 L1021,245 L1022,245 L1022,246 L1022,247 L1023,248 L1023,249 L1024,249 L1024,250 L1024,250 L1025,250 L1025,250 L1026,250 L1026,251 L1028,253 L1028,253 L1028,253 L1029,254 L1029,254 L1032,255 L1033,256 L1033,256 L1034,256 L1035,256 L1035,256 L1035,257 L1036,257 L1036,257 L1036,257 L1037,258 L1037,258 L1037,258 L1037,258 L1037,258 L1037,258 L1038,259 L1038,259 L1039,259 L1039,260 L1039,261 L1040,261 L1040,261 L1041,261 L1041,261 L1041,261 L1042,261 L1042,261 L1042,261 L1042,261 L1044,262 L1045,262 L1046,261 L1047,260 L1047,259 L1048,256 L1048,254 L1049,253 L1049,252 L1050,251 L1050,250 L1050,250 L1051,249 L1051,249 L1052,248 L1052,248 L1052,246 L1053,244 L1054,244 L1054,244 L1055,243 L1055,243 L1055,243 L1056,242 L1058,238 L1059,236 L1059,235 L1060,235 L1060,234 L1060,234 L1061,234 L1061,233 L1062,232 L1062,231 L1062,229 L1063,229 L1063,229 L1063,228 L1063,227 L1064,226 L1064,226 L1064,226 L1065,221 L1065,220 L1066,218 L1067,218 L1067,218 L1067,218 L1067,217 L1068,216 L1068,216 L1068,216 L1069,215 L1069,214 L1069,214 L1070,213 L1070,211 L1070,210 L1071,208 L1071,207 L1071,205 L1072,203 L1072,203 L1072,201 L1073,199 L1073,198 L1073,198 L1073,196 L1074,193 L1074,191 L1075,184 L1076,182 L1076,181 L1076,181 L1077,180 L1077,179 L1077,179 L1077,179 L1077,177 L1078,177 L1078,174 L1079,173 L1079,173 L1079,173 L1080,171 L1080,171 L1080,171 L1080,171 L1080,171 L1080,170 L1080,170 L1081,169 L1082,169 L1082,167 L1082,164 L1083,161 L1084,157 L1084,156 L1085,156 L1085,154 L1085,154 L1086,154 L1087,150 L1087,149 L1087,148 L1088,145 L1088,145 L1088,144 L1089,143 L1090,140 L1090,140 L1090,139 L1091,137 L1091,137 L1092,134 L1093,132 L1093,131 L1094,131 L1094,130 L1094,130 L1095,130 L1096,130 L1097,129 L1098,124 L1098,124 L1099,123 L1099,123 L1099,123 L1099,123 L1101,116 L1102,112 L1102,112 L1103,111 L1103,111 L1103,110 L1104,110 L1104,110 L1104,109 L1104,109 L1104,109 L1105,108 L1105,108 L1105,108 L1105,108 L1106,108 L1106,108 L1107,108 L1107,108 L1108,108 L1108,108 L1108,108 L1108,107 L1109,107 L1109,107 L1109,107 L1110,107 L1110,106 L1110,106 L1110,105 L1111,105 L1111,104 L1111,103 L1112,103 L1112,103 L1113,102 L1113,102 L1113,102 L1113,102 L1113,102 L1114,102 L1114,102 L1115,102 L1115,103 L1115,103 L1115,103 L1116,103 L1116,103 L1116,104 L1117,104 L1117,104 L1118,105 L1118,105 L1119,105 L1119,105 L1119,105 L1120,105 L1120,105 L1121,106 L1122,106 L1122,106 L1123,106 L1123,106 L1123,106 L1124,106 L1124,106 L1125,106 L1126,106 L1126,106 L1126,106 L1127,106 L1128,108 L1129,109 L1129,109 L1129,109 L1129,109 L1130,109 L1130,109 L1130,110 L1131,110 L1131,110 L1132,110 L1132,110 L1132,110 L1133,111 L1133,110 L1134,111 L1134,111 L1134,112 L1135,112 L1135,112 L1135,112 L1136,113 L1136,114 L1138,114 L1138,114 L1138,115 L1139,116 L1140,116 L1141,116 L1141,116 L1142,116 L1143,117 L1143,117 L1143,117 L1144,118 L1144,118 L1144,118 L1145,119 L1145,119 L1146,119 L1146,119 L1147,119 L1147,119 L1148,119 L1148,119 L1148,119 L1149,119 L1149,118 L1149,118 L1149,118 L1150,118 L1151,119 L1151,119 L1151,119 L1151,119 L1152,119 L1153,119 L1153,120 L1155,120 L1155,120 L1155,121 L1156,121 L1156,121 L1157,121 L1157,121 L1157,122 L1157,122 L1158,123 L1159,124 L1159,125 L1160,125 L1161,125 L1161,124 L1162,124 L1162,124 L1163,124 L1163,125 L1163,125 L1163,126 L1164,127 L1164,128 L1164,128 L1165,129 L1165,130 L1165,130 L1166,130 L1166,130 L1166,131 L1167,131 L1167,130 L1167,130 L1168,129 L1168,127 L1169,127 L1169,127 L1169,127 L1169,127 L1169,127 L1169,127 L1170,127 L1170,127 L1171,128 L1171,131 L1171,131 L1172,134 L1173,135 L1173,135 L1173,135 L1173,137 L1174,137 L1175,137 L1175,138 L1176,138 L1178,142 L1178,142 L1179,144 L1179,145 L1179,145 L1179,145 L1180,145 L1180,146 L1180,146 L1181,146 L1181,146 L1181,146 L1181,147 L1181,148 L1182,149 L1183,150 L1183,151 L1183,151 L1184,151 L1184,151 L1184,152 L1184,152 L1185,152 L1185,153 L1185,153 L1185,153 L1186,153 L1186,154 L1187,154 L1187,154 L1187,155 L1187,155 L1187,155 L1187,155 L1188,156 L1188,156 L1188,156 L1189,156 L1189,157 L1189,157 L1189,157 L1189,157 L1190,157 L1190,157 L1190,157 L1190,160 L1190,160 L1191,160 L1192,164 L1192,164 L1192,164 L1192,164 L1193,165 L1193,165 L1193,165 L1194,165 L1194,165 L1195,166 L1195,167 L1195,168 L1196,169 L1196,171 L1197,172 L1197,174 L1198,176 L1198,176 L1198,177 L1199,178 L1199,178 L1199,179 L1199,179 L1200,179 L1200,180 L1200,181 L1200,181 L1201,181 L1201,182 L1201,182 L1201,183 L1202,183 L1202,183 L1202,183 L1203,184 L1203,184 L1203,184 L1203,185 L1203,186 L1204,188 L1204,188 L1205,188 L1205,190 L1205,191 L1205,191 L1205,192 L1205,192 L1206,192 L1206,192 L1207,194 L1207,194 L1208,197 L1209,198 L1209,199 L1209,199 L1210,200 L1211,200 L1211,201 L1212,201 L1212,201 L1213,203 L1214,206 L1215,206 L1215,206 L1216,207 L1216,207 L1216,207 L1216,208 L1217,209 L1217,211 L1218,215 L1219,216 L1219,216 L1219,217 L1219,217 L1219,217 L1219,217 L1220,217 L1220,217 L1221,217 L1221,217 L1221,217 L1222,218 L1222,218 L1222,218 L1222,218 L1222,218 L1223,219 L1223,219 L1224,223 L1225,224 L1225,224 L1225,224 L1225,224 L1225,225 L1226,225 L1226,226 L1226,226 L1227,230 L1227,231 L1228,232 L1228,233 L1228,233 L1229,233 L1229,233 L1229,234 L1229,234 L1229,234 L1230,234 L1230,235 L1230,235 L1233,241 L1233,242 L1233,242 L1234,243 L1234,243 L1234,245 L1234,245 L1235,247 L1236,247 L1236,247 L1236,247 L1236,247 L1236,247 L1237,247 L1237,247 L1237,247 L1237,246 L1238,245 L1238,245 L1238,244 L1239,244 L1239,243 L1239,243 L1239,243 L1239,243 L1239,243 L1240,243 L1240,242 L1241,241 L1242,239 L1243,237 L1243,236 L1243,236 L1243,235 L1244,235 L1244,234 L1244,234 L1245,233 L1245,233 L1245,232 L1246,231 L1246,231 L1246,231 L1246,231 L1247,230 L1247,228 L1248,226 L1248,225 L1249,221 L1249,221 L1249,221 L1249,221 L1250,218 L1250,218 L1250,218 L1250,218 L1250,218 L1251,217 L1252,217 L1252,216 L1253,214 L1253,214 L1254,212 L1254,210 L1255,209 L1255,207 L1256,205 L1256,205 L1256,205 L1256,204 L1257,203 L1257,203 L1258,202 L1258,201 L1258,200 L1258,200 L1258,200 L1258,200 L1259,200 L1260,198 L1260,197 L1260,194 L1261,192 L1261,192 L1261,192 L1262,189 L1262,186 L1263,186 L1263,183 L1263,183 L1264,183 L1264,181 L1264,181 L1264,181 L1265,179 L1266,177 L1266,177 L1266,175 L1267,175 L1267,174 L1268,169 L1269,160 L1270,161 L1270,160 L1270,160 L1270,160 L1270,160 L1271,159 L1271,159 L1272,159 L1272,159 L1272,158 L1272,157 L1273,157 L1273,157 L1273,156 L1274,153 L1274,153 L1274,153 L1275,151 L1275,150 L1276,149 L1276,148 L1276,147 L1276,147 L1277,146 L1277,146 L1277,146 L1278,145 L1278,145 L1278,144 L1278,144 L1279,143 L1279,141 L1280,140 L1280,140 L1281,139 L1281,138 L1282,138 L1282,137 L1282,137 L1283,138 L1284,138 L1284,138 L1284,137 L1285,137 L1285,137 L1285,137 L1285,137 L1286,137 L1286,137 L1286,137 L1286,137 L1287,136 L1287,136 L1287,135 L1288,134 L1288,133 L1288,133 L1289,133 L1289,132 L1289,132 L1289,131 L1290,130 L1290,130 L1290,130 L1290,129 L1291,129 L1291,128 L1291,128 L1291,128 L1291,128 L1291,128 L1292,128 L1292,128 L1292,128 L1292,128 L1292,128 L1292,128 L1293,128 L1294,129 L1294,130 L1295,130 L1295,130 L1295,130 L1296,131 L1296,131 L1296,131 L1296,132 L1297,132 L1298,133 L1298,133 L1298,133 L1298,134 L1300,134 L1300,134 L1300,134 L1301,135 L1301,135 L1301,135 L1301,136 L1301,136 L1302,137 L1302,137 L1303,139 L1303,139 L1305,143 L1306,142 L1306,142 L1307,142 L1307,142 L1308,142 L1308,142 L1308,142 L1308,141 L1308,141 L1309,142 L1309,142 L1309,143 L1310,143 L1310,143 L1310,144 L1311,145 L1311,145 L1311,145 L1311,146 L1312,147 L1312,147 L1313,147 L1313,147 L1313,147 L1313,148 L1314,148 L1314,148 L1315,149 L1315,149 L1315,149 L1315,149 L1315,149 L1316,149 L1317,149 L1317,149 L1317,149 L1318,149 L1319,150 L1319,150 L1319,150 L1320,151 L1320,151 L1320,151 L1320,151 L1321,151 L1321,151 L1321,151 L1321,151 L1321,151 L1321,151 L1322,151 L1322,151 L1323,152 L1323,152 L1324,152 L1324,153 L1325,153 L1325,153 L1325,153 L1325,153 L1325,153 L1326,154 L1326,154 L1326,154 L1326,154 L1326,154 L1327,155 L1327,155 L1327,155 L1328,156 L1328,156 L1328,157 L1328,157 L1329,158 L1329,158 L1329,159 L1329,159 L1330,159 L1330,160 L1330,162 L1331,163 L1331,163 L1332,167 L1332,167 L1333,170 L1334,172 L1334,173 L1335,175 L1335,175 L1335,175 L1336,177 L1336,180 L1337,183 L1338,184 L1338,185 L1339,187 L1339,187 L1340,189 L1340,191 L1340,192 L1341,192 L1341,193 L1342,193 L1342,194 L1342,194 L1342,194 L1342,194 L1342,194 L1342,194 L1342,194 L1343,195 L1343,196 L1343,196 L1344,196 L1344,200 L1344,200 L1345,201 L1345,201 L1345,204 L1346,205 L1346,207 L1346,208 L1347,210 L1347,210 L1347,210 L1348,211 L1348,211 L1348,212 L1348,212 L1348,212" fill="transparent" id="track" shape-rendering="geometricPrecision" stroke="black" stroke-width="2"/>
</g>
</g>
</svg>