<svg height="400" width="1420" xmlns="http://www.w3.org/2000/svg">
<g font-family="Libertinus Serif" font-size="15" id="world" shape-rendering="crispEdges">
<g id="BG"/>
<g id="SB" transform="translate(0 360)">
<text text-anchor="middle" transform="translate(0 15)">
180
</text>
<text text-anchor="middle" transform="translate(283 15)">
200
</text>
<text text-anchor="middle" transform="translate(567 15)">
220
</text>
<text text-anchor="middle" transform="translate(851 15)">
240
</text>
<text text-anchor="middle" transform="translate(1135 15)">
260
</text>
</g>
<g id="SD" transform="translate(0 360) scale(1 -1) scale(1 1)">
<path d="M0,0 L0,359 L1419,359 L1419,0 L0,0" fill="lightgray" id="bg"/>
<path d="M0,0 L1419,0" stroke="black" stroke-width="3"/>
<path d="M0,0 L0,359" stroke="black" stroke-width="3"/>
<path d="M0,359 L1419,359" stroke="black" stroke-width="3"/>
<path d="M1419,0 L1419,359" stroke="black" stroke-width="3"/>
<path d="M0,0 L0,359" stroke="black" stroke-width="1"/>
<path d="M283,0 L283,359" stroke="black" stroke-width="1"/>
<path d="M567,0 L567,359" stroke="black" stroke-width="1"/>
<path d="M851,0 L851,359" stroke="black" stroke-width="1"/>
<path d="M1135,0 L1135,359" stroke="black" stroke-width="1"/>
<path d="M141,0 L141,359" stroke="black" stroke-dasharray="1.0,2.5,5.0,5.0,10.0,5.0"/>
<path d="M425,0 L425,359" stroke="black" stroke-dasharray="1.0,2.5,5.0,5.0,10.0,5.0"/>
<path d="M709,0 L709,359" stroke="black" stroke-dasharray="1.0,2.5,5.0,5.0,10.0,5.0"/>
<path d="M993,0 L993,359" stroke="black" stroke-dasharray="1.0,2.5,5.0,5.0,10.0,5.0"/>
<path d="M1277,0 L1277,359" stroke="black" stroke-dasharray="1.0,2.5,5.0,5.0,10.0,5.0"/>
<path d="M0,0 L1419,0" stroke="black" stroke-width="1"/>
<path d="M0,71 L1419,71" stroke="black" stroke-width="1"/>
<path d="M0,143 L1419,143" stroke="black" stroke-width="1"/>
<path d="M0,215 L1419,215" stroke="black" stroke-width="1"/>
<path d="M0,287 L1419,287" stroke="black" stroke-width="1"/>
<path d="M0,35 L1419,35" stroke="black" stroke-dasharray="1.0,2.5,5.0,5.0,10.0,5.0"/>
<path d="M0,107 L1419,107" stroke="black" stroke-dasharray="1.0,2.5,5.0,5.0,10.0,5.0"/>
<path d="M0,179 L1419,179" stroke="black" stroke-dasharray="1.0,2.5,5.0,5.0,10.0,5.0"/>
<path d="M0,251 L1419,251" stroke="black" stroke-dasharray="1.0,2.5,5.0,5.0,10.0,5.0"/>
<path d="M0,323 L1419,323" stroke="black" stroke-dasharray="1.0,2.5,5.0,5.0,10.0,5.0"/>
<path d="M0,190 L0,190 L0,191 L0,191 L0,191 L1,192 L2,194 L2,194 L2,194 L2,195 L2,195 L3,195 L3,197 L3,197 L4,197 L4,197 L4,198 L4,198 L5,198 L5,198 L5,198 L6,200 L6,200 L7,201 L7,201 L7,201 L8,205 L8,206 L9,207 L9,208 L10,211 L11,212 L11,212 L11,212 L12,213 L12,213 L12,213 L12,213 L13,214 L13,214 L13,214 L13,214 L14,214 L14,214 L14,215 L15,215 L15,217 L15,217 L16,218 L17,219 L17,219 L17,220 L17,220 L18,220 L18,220 L18,221 L18,221 L18,221 L19,221 L19,221 L19,221 L19,221 L19,221 L20,221 L20,221 L20,222 L21,222 L21,222 L23,226 L24,227 L24,227 L25,228 L25,229 L25,229 L25,229 L26,229 L26,229 L26,229 L26,229 L26,230 L27,230 L27,230 L27,230 L27,230 L27,231 L28,232 L28,233 L29,236 L30,237 L31,238 L31,238 L32,238 L32,238 L32,238 L32,239 L32,239 L33,239 L35,240 L35,240 L35,242 L36,242 L36,242 L37,243 L38,244 L38,245 L38,246 L39,247 L40,247 L40,247 L40,247 L40,248 L41,248 L41,248 L42,248 L42,248 L43,247 L44,245 L44,244 L45,243 L45,242 L46,241 L46,241 L46,241 L46,240 L46,240 L47,239 L47,238 L48,237 L48,237 L49,236 L49,235 L49,234 L50,234 L50,234 L50,233 L50,233 L50,233 L51,233 L51,233 L51,233 L52,232 L52,232 L52,232 L52,231 L53,231 L53,231 L53,230 L53,230 L54,229 L54,229 L55,229 L55,228 L55,227 L56,226 L56,225 L56,223 L57,221 L58,218 L59,216 L59,216 L59,215 L60,215 L60,214 L60,213 L61,213 L61,212 L62,211 L62,210 L63,209 L63,208 L64,206 L64,205 L65,202 L65,202 L66,201 L67,200 L67,200 L67,199 L68,198 L68,198 L68,197 L68,197 L69,197 L69,197 L69,197 L69,196 L69,196 L70,196 L70,195 L70,194 L71,194 L72,189 L73,186 L73,184 L74,181 L74,181 L75,181 L75,180 L75,179 L76,178 L76,176 L76,176 L77,175 L78,174 L78,173 L79,172 L79,171 L80,169 L80,169 L81,168 L81,167 L82,166 L82,165 L82,165 L83,163 L84,163 L84,162 L84,162 L85,162 L85,162 L85,161 L86,160 L86,160 L87,159 L88,155 L89,153 L90,152 L90,151 L91,149 L93,147 L94,145 L94,145 L94,143 L95,142 L96,140 L97,138 L97,138 L98,137 L98,136 L99,136 L99,136 L100,133 L101,133 L101,129 L102,128 L104,121 L104,120 L105,115 L106,114 L107,113 L107,112 L107,112 L107,112 L107,112 L108,112 L108,111 L108,111 L109,111 L109,111 L110,111 L110,110 L111,110 L111,109 L112,109 L113,108 L113,108 L113,108 L114,106 L115,106 L115,106 L115,105 L115,105 L116,103 L116,103 L117,103 L118,101 L118,99 L119,99 L120,98 L120,98 L121,99 L121,99 L121,99 L122,99 L122,99 L122,99 L123,100 L123,100 L123,100 L126,104 L127,107 L128,107 L129,108 L130,109 L131,110 L132,112 L133,114 L133,115 L134,115 L134,117 L135,117 L135,117 L135,117 L135,117 L135,117 L136,118 L136,120 L137,120 L137,120 L137,121 L138,122 L139,123 L139,123 L139,124 L139,124 L139,124 L140,125 L140,125 L141,125 L141,126 L142,128 L142,128 L143,129 L143,131 L143,131 L144,132 L144,132 L145,133 L145,133 L145,134 L146,134 L146,135 L147,136 L148,137 L148,137 L149,137 L150,136 L150,137 L151,136 L152,136 L152,136 L152,137 L153,137 L153,137 L154,136 L154,136 L154,136 L155,136 L155,137 L155,137 L156,136 L156,136 L156,136 L156,135 L156,135 L158,132 L159,131 L159,129 L159,127 L160,127 L161,127 L161,126 L162,125 L162,124 L163,124 L164,122 L164,121 L165,119 L166,117 L167,117 L167,116 L168,116 L168,116 L168,114 L171,109 L171,107 L172,105 L173,105 L174,104 L174,104 L174,104 L175,103 L175,103 L175,102 L175,102 L176,102 L176,102 L176,102 L176,102 L176,102 L177,102 L178,101 L178,101 L178,100 L179,98 L179,98 L179,98 L179,98 L180,98 L180,98 L180,98 L180,97 L180,97 L181,97 L181,97 L182,96 L182,95 L182,94 L183,92 L183,91 L183,91 L184,91 L184,90 L184,90 L185,90 L185,90 L185,89 L186,89 L186,88 L186,88 L188,83 L189,80 L189,78 L190,77 L191,76 L193,74 L193,71 L196,66 L196,66 L197,65 L197,65 L197,65 L198,65 L198,65 L198,65 L198,65 L198,65 L198,65 L199,64 L199,64 L199,64 L200,64 L200,63 L200,63 L201,63 L201,62 L201,62 L201,62 L201,62 L202,61 L202,61 L202,61 L203,61 L203,61 L203,61 L203,61 L204,60 L204,60 L204,59 L205,59 L205,59 L205,59 L206,59 L206,58 L207,58 L207,58 L208,58 L208,58 L208,58 L209,58 L210,58 L210,58 L210,58 L211,58 L212,58 L212,58 L212,59 L213,59 L213,59 L213,59 L214,59 L214,59 L214,59 L215,59 L215,59 L215,59 L216,60 L216,60 L218,60 L218,60 L218,60 L219,60 L219,60 L220,60 L220,60 L220,61 L220,61 L221,61 L222,62 L222,62 L222,62 L223,62 L223,62 L223,62 L223,63 L224,63 L225,63 L226,64 L226,65 L226,65 L227,65 L228,65 L228,65 L228,65 L228,65 L229,66 L229,66 L230,67 L231,68 L232,69 L232,69 L232,69 L233,69 L233,70 L235,70 L236,72 L236,72 L237,72 L238,73 L239,74 L239,74 L240,74 L240,75 L241,75 L241,75 L242,76 L243,77 L243,77 L244,77 L245,78 L245,78 L245,79 L246,79 L246,79 L247,80 L247,81 L248,81 L248,81 L248,83 L249,84 L250,86 L250,87 L251,90 L252,92 L252,93 L253,95 L254,101 L254,102 L255,104 L255,106 L256,108 L256,108 L256,108 L256,109 L257,111 L257,111 L258,112 L258,113 L258,113 L259,113 L259,115 L259,115 L260,115 L260,117 L261,118 L261,119 L262,120 L263,122 L263,122 L263,122 L264,123 L264,124 L265,124 L266,125 L267,127 L267,128 L268,129 L269,130 L270,131 L270,131 L270,131 L271,131 L276,127 L277,126 L277,126 L278,127 L279,127 L279,126 L279,126 L280,126 L280,126 L281,126 L281,125 L282,125 L282,125 L283,125 L283,125 L284,127 L284,127 L285,128 L285,129 L286,132 L287,132 L287,134 L288,134 L289,135 L290,135 L291,135 L291,135 L291,135 L291,135 L292,134 L293,134 L293,134 L294,134 L295,135 L295,135 L295,135 L295,136 L295,136 L296,136 L297,138 L297,138 L297,138 L298,139 L298,140 L299,143 L299,143 L299,143 L300,144 L300,145 L301,146 L301,147 L301,147 L302,148 L302,149 L303,150 L303,150 L303,150 L304,151 L304,151 L305,151 L305,151 L305,151 L305,151 L305,152 L306,152 L306,151 L306,151 L306,151 L307,151 L308,150 L308,150 L308,150 L309,150 L309,149 L309,149 L309,149 L310,148 L310,147 L310,147 L311,147 L312,145 L313,142 L313,141 L313,139 L314,136 L315,134 L315,134 L316,132 L316,130 L317,130 L317,128 L317,127 L318,125 L319,123 L320,122 L320,122 L320,122 L320,121 L321,121 L322,121 L323,120 L324,120 L324,119 L324,119 L325,118 L325,118 L325,118 L326,118 L326,118 L326,117 L327,117 L327,117 L327,116 L327,116 L327,116 L328,116 L328,116 L328,115 L329,115 L329,115 L330,114 L330,113 L331,112 L331,112 L332,110 L333,110 L333,109 L334,107 L334,105 L335,104 L335,103 L336,102 L336,102 L337,100 L337,99 L337,99 L339,98 L339,97 L339,97 L340,97 L340,97 L340,97 L343,92 L344,91 L345,90 L346,90 L347,90 L347,88 L349,88 L350,88 L352,87 L352,87 L353,88 L353,87 L356,82 L358,80 L359,79 L359,79 L361,77 L362,76 L363,75 L365,69 L367,67 L368,67 L368,67 L368,67 L369,66 L370,66 L371,64 L373,61 L375,59 L376,57 L378,57 L379,56 L379,56 L379,56 L379,56 L379,56 L380,56 L380,56 L380,56 L380,56 L381,56 L381,55 L381,55 L382,54 L382,54 L383,53 L384,52 L384,52 L385,51 L385,50 L386,50 L387,49 L387,49 L388,49 L388,49 L388,49 L388,49 L388,49 L388,49 L389,49 L390,48 L390,48 L390,48 L391,47 L391,47 L392,47 L392,47 L393,47 L393,47 L393,46 L394,46 L394,46 L395,46 L395,46 L397,46 L398,45 L399,45 L401,45 L402,45 L402,45 L403,44 L404,44 L405,44 L405,44 L405,44 L406,44 L406,44 L406,44 L407,43 L407,43 L409,43 L409,43 L409,43 L409,43 L410,43 L410,43 L411,42 L411,43 L412,42 L413,42 L413,42 L413,42 L414,42 L414,42 L414,42 L414,42 L414,42 L414,42 L414,42 L414,42 L415,42 L416,43 L416,43 L417,42 L417,42 L417,42 L417,42 L417,42 L417,42 L418,43 L418,43 L418,43 L418,43 L419,43 L420,43 L420,43 L420,43 L420,43 L421,43 L421,43 L422,43 L422,43 L422,43 L423,43 L423,43 L423,43 L423,43 L423,43 L423,43 L424,43 L426,44 L426,44 L427,44 L427,44 L428,44 L428,44 L429,44 L429,44 L429,44 L429,44 L429,44 L430,44 L430,44 L430,44 L431,44 L432,44 L433,44 L434,44 L435,44 L435,44 L435,44 L436,44 L436,44 L436,44 L437,44 L438,44 L438,44 L439,44 L439,44 L440,43 L441,43 L442,43 L442,43 L442,43 L444,43 L445,43 L446,43 L447,43 L450,43 L451,43 L453,44 L455,44 L455,44 L456,44 L457,44 L457,44 L458,44 L458,44 L461,43 L461,43 L461,43 L463,43 L468,43 L470,44 L472,44 L474,44 L474,44 L474,44 L475,44 L475,44 L478,43 L480,43 L480,43 L480,43 L481,43 L483,43 L483,43 L483,43 L483,43 L483,43 L484,43 L484,43 L484,43 L484,43 L484,43 L485,43 L485,43 L485,43 L486,43 L486,43 L486,43 L487,43 L487,43 L487,43 L488,43 L488,43 L488,43 L488,43 L489,43 L490,43 L490,43 L490,43 L491,43 L494,43 L494,43 L495,43 L496,44 L497,43 L497,43 L497,43 L498,43 L498,43 L498,43 L499,43 L499,43 L499,43 L499,43 L500,43 L500,43 L501,43 L501,42 L502,41 L502,41 L503,41 L504,41 L504,41 L504,41 L504,41 L505,41 L506,40 L507,40 L508,40 L508,40 L509,40 L510,40 L510,40 L511,40 L514,40 L514,40 L515,41 L516,41 L518,42 L519,42 L519,42 L520,42 L521,42 L521,42 L522,42 L522,42 L523,42 L523,42 L524,42 L524,42 L525,42 L525,42 L526,42 L528,41 L529,41 L530,41 L530,41 L531,41 L532,41 L533,41 L533,41 L534,41 L534,41 L534,41 L534,41 L534,41 L534,41 L534,41 L534,41 L535,41 L535,41 L536,41 L537,41 L538,41 L539,41 L539,41 L540,41 L541,41 L543,41 L545,42 L548,42 L549,42 L550,42 L551,42 L553,42 L553,42 L554,42 L554,42 L556,41 L558,41 L560,42 L562,43 L562,43 L563,43 L564,43 L570,42 L574,41 L574,41 L579,40 L579,40 L580,40 L580,40 L581,40 L582,40 L582,40 L582,40 L586,41 L587,41 L587,41 L587,41 L588,41 L588,41 L588,41 L589,41 L589,41 L589,41 L590,41 L591,41 L592,41 L593,41 L593,41 L594,40 L595,40 L597,40 L597,40 L598,41 L599,41 L600,41 L601,41 L602,41 L603,41 L603,41 L603,41 L604,41 L604,41 L604,41 L605,41 L605,41 L605,41 L606,41 L606,41 L607,40 L607,40 L607,40 L608,40 L609,40 L609,40 L609,41 L609,41 L610,41 L611,41 L611,41 L612,41 L613,41 L615,41 L616,41 L617,41 L618,40 L619,40 L620,40 L621,40 L624,40 L624,40 L626,40 L626,40 L626,40 L627,40 L627,40 L627,40 L628,40 L630,40 L634,40 L637,40 L638,40 L641,40 L641,40 L641,40 L643,40 L644,40 L644,40 L644,40 L645,40 L651,40 L651,40 L651,40 L657,40 L662,40 L663,40 L665,41 L668,41 L669,41 L672,41 L672,41 L672,41 L672,41 L672,41 L672,41 L673,41 L673,41 L673,41 L674,41 L674,41 L675,40 L675,40 L676,40 L677,40 L677,40 L678,40 L679,41 L679,41 L679,41 L681,41 L681,41 L692,41 L692,41 L694,41 L694,41 L696,41 L699,41 L703,40 L704,41 L704,41 L705,41 L706,41 L707,41 L707,41 L708,41 L708,41 L712,41 L712,41 L712,41 L714,40 L715,40 L715,39 L716,39 L716,39 L717,39 L717,39 L718,39 L719,39 L720,39 L720,39 L721,39 L722,39 L723,39 L723,39 L724,39 L725,39 L726,39 L726,39 L727,39 L728,39 L728,39 L729,39 L729,39 L730,39 L730,39 L731,39 L732,40 L732,40 L733,40 L733,40 L734,40 L734,40 L734,40 L735,40 L735,40 L737,40 L738,39 L739,39 L739,39 L739,39 L740,39 L741,39 L741,39 L743,39 L743,39 L743,39 L744,39 L744,39 L745,39 L745,39 L747,39 L750,39 L750,40 L751,39 L751,39 L752,39 L752,39 L753,39 L760,39 L761,39 L761,39 L761,39 L764,40 L764,40 L765,40 L765,40 L766,40 L770,40 L774,40 L775,41 L776,41 L777,41 L778,41 L779,41 L780,41 L780,41 L781,41 L784,41 L789,41 L792,40 L798,40 L799,39 L799,39 L799,39 L799,39 L800,39 L800,39 L801,39 L801,39 L801,39 L801,39 L802,39 L802,39 L803,40 L804,40 L804,40 L804,40 L804,40 L806,40 L806,40 L806,40 L806,40 L807,40 L808,39 L809,39 L809,39 L810,39 L810,39 L810,39 L810,39 L811,39 L811,39 L811,39 L812,39 L816,38 L817,38 L817,38 L817,38 L818,38 L818,38 L819,38 L820,38 L821,38 L823,38 L823,38 L824,38 L824,38 L825,38 L825,38 L826,38 L826,38 L826,38 L826,38 L826,38 L826,38 L828,38 L829,38 L830,38 L834,38 L836,39 L837,39 L837,39 L838,39 L838,39 L838,39 L838,39 L839,39 L839,39 L839,39 L839,39 L839,39 L840,39 L840,39 L841,39 L841,39 L843,39 L843,39 L844,39 L844,39 L845,39 L845,39 L845,39 L845,39 L845,39 L846,39 L846,39 L847,39 L847,39 L847,39 L847,39 L847,39 L847,39 L848,40 L849,40 L850,41 L851,42 L851,42 L852,42 L853,42 L853,42 L854,42 L854,42 L854,42 L854,42 L854,42 L854,42 L855,42 L855,42 L855,42 L855,42 L856,42 L857,41 L857,41 L858,41 L858,41 L858,41 L859,41 L859,41 L859,41 L859,41 L859,41 L860,41 L860,41 L860,41 L861,41 L861,41 L861,41 L861,41 L862,41 L862,41 L862,41 L862,41 L862,41 L862,41 L862,41 L864,41 L865,42 L865,42 L866,42 L866,42 L866,42 L866,42 L866,42 L866,42 L867,42 L868,42 L869,42 L877,43 L880,45 L881,46 L881,46 L882,46 L887,45 L887,45 L891,44 L892,44 L893,44 L894,44 L898,44 L899,44 L900,44 L900,44 L901,44 L910,44 L912,44 L913,44 L917,45 L923,45 L924,45 L925,44 L928,44 L929,44 L929,44 L930,44 L934,44 L935,44 L936,44 L936,44 L937,44 L939,44 L939,43 L940,43 L942,41 L942,41 L943,41 L944,41 L945,41 L946,41 L946,41 L947,41 L947,41 L947,41 L948,41 L949,41 L949,40 L950,40 L951,39 L951,39 L952,38 L953,38 L953,38 L954,37 L955,37 L955,36 L957,36 L958,36 L958,36 L958,36 L958,36 L958,36 L958,36 L959,36 L959,36 L959,36 L959,36 L960,36 L960,36 L960,36 L961,36 L961,36 L961,36 L961,37 L962,37 L962,37 L963,37 L964,37 L964,37 L965,37 L966,37 L966,37 L967,37 L967,37 L967,37 L969,37 L970,37 L971,38 L971,38 L971,38 L972,37 L973,37 L974,37 L975,37 L975,37 L975,37 L976,37 L978,37 L978,37 L980,37 L980,37 L980,37 L980,37 L981,37 L981,37 L981,37 L984,37 L985,37 L985,37 L987,37 L988,38 L990,38 L990,38 L991,38 L991,38 L991,38 L995,39 L996,39 L996,39 L997,39 L997,39 L997,39 L997,39 L998,39 L998,39 L998,39 L998,39 L999,39 L1000,38 L1001,38 L1001,38 L1002,38 L1002,38 L1002,38 L1003,38 L1003,38 L1003,38 L1004,37 L1005,37 L1006,37 L1006,36 L1006,36 L1007,36 L1007,36 L1008,36 L1009,36 L1009,36 L1010,36 L1010,36 L1011,36 L1011,36 L1011,36 L1011,36 L1011,36 L1012,36 L1013,36 L1013,37 L1014,36 L1014,36 L1015,36 L1015,36 L1015,36 L1015,36 L1016,36 L1016,36 L1016,36 L1017,36 L1017,36 L1017,36 L1018,36 L1018,36 L1018,36 L1018,36 L1019,36 L1019,36 L1019,36 L1019,36 L1019,37 L1019,37 L1020,37 L1020,37 L1021,37 L1021,37 L1022,38 L1022,38 L1022,38 L1022,38 L1023,38 L1023,38 L1023,38 L1023,38 L1024,38 L1025,37 L1025,37 L1025,37 L1027,37 L1027,37 L1027,37 L1027,37" fill="transparent" id="track" shape-rendering="geometricPrecision" stroke="black" stroke-width="3"/>
</g>
<g id="SL" transform="translate(0 360) scale(-1 -1)">
<text text-anchor="end" transform="translate(10 -5) scale(-1 -1)">
0
</text>
<text text-anchor="end" transform="translate(10 66) scale(-1 -1)">
200
</text>
<text text-anchor="end" transform="translate(10 138) scale(-1 -1)">
400
</text>
<text text-anchor="end" transform="translate(10 210) scale(-1 -1)">
600
</text>
<text text-anchor="end" transform="translate(10 282) scale(-1 -1)">
800
</text>
</g>
</g>
</svg>