<svg height="400" width="1420" xmlns="http://www.w3.org/2000/svg">
<g font-family="Libertinus Serif" font-size="15" id="world" shape-rendering="crispEdges">
<g id="BG"/>
<g id="SB" transform="translate(0 360)">
<text text-anchor="middle" x="0" y="14.5">
0
</text>
<text text-anchor="middle" x="236.41666666666666" y="14.5">
20
</text>
<text text-anchor="middle" x="472.8333333333333" y="14.5">
40
</text>
<text text-anchor="middle" x="709.25" y="14.5">
60
</text>
<text text-anchor="middle" x="945.6666666666666" y="14.5">
80
</text>
<text text-anchor="middle" x="1182.0833333333333" y="14.5">
100
</text>
</g>
<g id="SD" transform="translate(0 0)">
<path d="M0,0 L0,358.5 L1418.5,358.5 L1418.5,0 L0,0" fill="lightgray" id="bg"/>
<path d="M0,0 L1418.5,0" stroke="black" stroke-width="3"/>
<path d="M0,0 L0,358.5" stroke="black" stroke-width="3"/>
<path d="M0,358.5 L1418.5,358.5" stroke="black" stroke-width="3"/>
<path d="M1418.5,0 L1418.5,358.5" stroke="black" stroke-width="3"/>
<path d="M0,0 L0,358.5" stroke="black" stroke-width="1"/>
<path d="M236.41667,0 L236.41667,358.5" stroke="black" stroke-width="1"/>
<path d="M472.83334,0 L472.83334,358.5" stroke="black" stroke-width="1"/>
<path d="M709.25,0 L709.25,358.5" stroke="black" stroke-width="1"/>
<path d="M945.6667,0 L945.6667,358.5" stroke="black" stroke-width="1"/>
<path d="M1182.0834,0 L1182.0834,358.5" stroke="black" stroke-width="1"/>
<path d="M118.208336,0 L118.208336,358.5" stroke="black" stroke-dasharray="1.0,2.5,5.0,5.0,10.0,5.0"/>
<path d="M354.625,0 L354.625,358.5" stroke="black" stroke-dasharray="1.0,2.5,5.0,5.0,10.0,5.0"/>
<path d="M591.0417,0 L591.0417,358.5" stroke="black" stroke-dasharray="1.0,2.5,5.0,5.0,10.0,5.0"/>
<path d="M827.4583,0 L827.4583,358.5" stroke="black" stroke-dasharray="1.0,2.5,5.0,5.0,10.0,5.0"/>
<path d="M1063.875,0 L1063.875,358.5" stroke="black" stroke-dasharray="1.0,2.5,5.0,5.0,10.0,5.0"/>
<path d="M1300.2916,0 L1300.2916,358.5" stroke="black" stroke-dasharray="1.0,2.5,5.0,5.0,10.0,5.0"/>
<path d="M0,358.5 L1418.5,358.5" stroke="black" stroke-width="1"/>
<path d="M0,310.7 L1418.5,310.7" stroke="black" stroke-width="1"/>
<path d="M0,262.9 L1418.5,262.9" stroke="black" stroke-width="1"/>
<path d="M0,215.1 L1418.5,215.1" stroke="black" stroke-width="1"/>
<path d="M0,167.3 L1418.5,167.3" stroke="black" stroke-width="1"/>
<path d="M0,119.5 L1418.5,119.5" stroke="black" stroke-width="1"/>
<path d="M0,71.7 L1418.5,71.7" stroke="black" stroke-width="1"/>
<path d="M0,23.9 L1418.5,23.9" stroke="black" stroke-width="1"/>
<path d="M0,334.6 L1418.5,334.6" stroke="black" stroke-dasharray="1.0,2.5,5.0,5.0,10.0,5.0"/>
<path d="M0,286.8 L1418.5,286.8" stroke="black" stroke-dasharray="1.0,2.5,5.0,5.0,10.0,5.0"/>
<path d="M0,239 L1418.5,239" stroke="black" stroke-dasharray="1.0,2.5,5.0,5.0,10.0,5.0"/>
<path d="M0,191.2 L1418.5,191.2" stroke="black" stroke-dasharray="1.0,2.5,5.0,5.0,10.0,5.0"/>
<path d="M0,143.4 L1418.5,143.4" stroke="black" stroke-dasharray="1.0,2.5,5.0,5.0,10.0,5.0"/>
<path d="M0,95.6 L1418.5,95.6" stroke="black" stroke-dasharray="1.0,2.5,5.0,5.0,10.0,5.0"/>
<path d="M0,47.8 L1418.5,47.8" stroke="black" stroke-dasharray="1.0,2.5,5.0,5.0,10.0,5.0"/>
<path d="M0,0 L1418.5,0" stroke="black" stroke-dasharray="1.0,2.5,5.0,5.0,10.0,5.0"/>
<path d="M0,192.61807 L0,192.61807 L0.21184301,192.64355 L0.33058763,192.64355 L0.70656735,192.64355 L0.74189365,192.6666 L1.2905313,192.6599 L1.3753153,192.6599 L1.4556718,192.6599 L1.897933,192.6599 L2.380416,192.64922 L3.0852237,192.63002 L3.5256906,192.64052 L4.7449007,192.73917 L4.876602,192.73917 L5.04378,192.73917 L5.3015456,192.73611 L6.003889,192.71873 L6.4203877,192.70969 L6.7291145,192.70969 L7.04961,192.72592 L7.4507313,192.81868 L7.943114,192.8252 L8.325563,192.7993 L8.682422,192.78827 L9.401467,192.78392 L9.714071,192.77023 L9.965757,192.7774 L10.352193,192.85442 L11.15765,193.00743 L11.484705,193.05092 L12.452154,193.00743 L13.432287,193.10138 L13.75055,193.0881 L14.236706,193.0911 L14.673888,193.0911 L15.135175,193.06122 L15.60401,193.06122 L16.057041,192.90884 L17.043293,192.7535 L18.069807,192.58142 L18.889208,192.56628 L19.314386,192.54865 L20.508099,192.56572 L20.851994,192.56572 L21.460964,192.59303 L21.792328,192.54523 L22.662502,192.54523 L23.353033,192.52406 L23.9148,192.54437 L29.352936,191.85725 L32.705845,191.0088 L34.172935,190.81163 L34.91173,191.0088 L36.40354,190.97466 L36.58299,191.0327 L36.71504,191.0327 L37.22166,191.0327 L38.532253,191.1283 L43.7438,190.25993 L43.916454,190.11494 L44.035877,190.11494 L44.965137,190.16434 L45.236,190.16434 L46.562386,190.2918 L48.6246,189.73015 L49.296337,189.61862 L49.704517,189.61862 L50.088535,189.61862 L50.790817,189.58504 L51.095264,189.46725 L52.484947,189.47389 L53.28515,189.31842 L53.343357,189.31842 L53.59513,189.27605 L53.723488,189.22064 L53.985935,189.1665 L54.685337,189.06015 L54.895287,189.01395 L55.08023,189.01395 L55.23408,189.01395 L56.05166,188.94604 L56.246227,188.89763 L56.42612,188.84042 L56.62715,188.84042 L56.947624,188.84984 L57.220398,188.82086 L58.171703,188.75157 L59.157494,188.84718 L60.300297,188.89232 L60.538918,188.87274 L60.73298,188.87274 L61.12307,188.9109 L61.28241,188.9109 L61.59322,188.9056 L61.864326,188.91277 L63.223816,189.0012 L64.03897,189.05583 L64.18999,189.05583 L64.68778,189.0251 L65.20493,188.86377 L65.90625,188.46744 L66.78843,187.67953 L67.2933,187.28279 L67.61252,187.07062 L67.89748,186.99838 L68.44183,186.9219 L68.91661,186.9219 L69.11311,186.99957 L69.64563,186.91592 L70.11462,186.95131 L70.37258,187.04482 L70.685555,187.10265 L71.35384,187.11758 L71.53392,187.08621 L72.04181,187.21349 L72.1817,187.1116 L72.31815,187.1116 L72.48415,187.16249 L72.62107,186.99509 L72.75836,186.97926 L72.90914,186.97926 L73.33356,186.67812 L73.45679,186.48871 L73.8843,186.24075 L74.44508,185.9675 L74.984085,185.54674 L75.3977,184.94537 L75.72533,184.77356 L76.08638,184.62451 L76.52655,184.53488 L76.98818,184.49008 L78.801735,185.02583 L79.34774,185.01389 L79.82713,184.95015 L80.32042,184.97234 L81.62398,185.08691 L81.96469,185.06966 L82.55197,185.05429 L83.03517,185.1294 L83.498955,185.1294 L83.96212,185.1294 L88.3017,185.71893 L90.01002,185.28873 L91.59613,185.07562 L92.972046,184.93222 L93.87998,184.95732 L94.78202,185.19632 L95.55431,184.9382 L96.63275,184.47215 L97.44452,184.3885 L98.19377,184.30997 L98.69754,184.3168 L99.21213,184.20071 L99.72572,184.20071 L100.14016,184.30997 L100.63526,184.45622 L102.21383,184.97166 L103.1746,185.32857 L104.56516,185.09952 L106.38325,184.3168 L107.43667,183.67947 L108.861206,183.313 L111.46168,182.60197 L112.353874,182.7872 L113.38091,182.81589 L114.28103,183.25085 L115.638725,183.5281 L116.64088,183.74718 L117.59734,183.53607 L118.56881,183.42851 L118.77111,183.42851 L119.80159,183.42294 L120.49367,183.23653 L122.366356,182.4048 L124.36412,182.5721 L125.438225,181.98256 L126.32898,182.17946 L126.910576,182.19994 L127.21938,182.19994 L127.76525,182.08215 L128.33476,182.07286 L129.07487,181.95866 L129.92055,182.10306 L130.41545,182.10776 L130.53543,182.10776 L131.08559,181.93362 L131.67723,181.84912 L133.06049,181.74356 L133.47139,181.62407 L134.0363,181.47952 L135.34917,181.22653 L135.7428,181.12482 L136.09578,181.02756 L136.45166,180.94008 L136.7868,180.94008 L137.10245,180.94008 L137.51164,180.94008 L141.18512,179.83556 L141.78348,179.60509 L142.06639,179.60509 L142.37532,179.64136 L142.73453,179.67223 L143.5927,179.59177 L144.08559,179.59177 L144.46054,179.49498 L144.8033,179.47876 L145.30884,179.53339 L145.64201,179.53339 L147.19603,179.07872 L148.66766,178.93452 L149.03827,178.93452 L149.45546,179.16635 L150.09839,179.30577 L151.62514,179.45076 L152.21756,179.60252 L153.398,179.85547 L156.18207,178.33224 L156.99577,178.02632 L157.64256,177.71698 L158.4044,177.71698 L159.04282,177.77219 L159.65338,177.62958 L159.9694,177.62958 L162.79265,177.83034 L163.9752,177.61523 L164.52255,177.57483 L164.87599,177.57483 L165.41937,177.59221 L165.60553,177.59221 L165.72443,177.59221 L165.74214,177.59221 L166.03201,177.62878 L166.14365,177.62878 L166.5222,177.46149 L167.3345,177.38145 L168.2037,176.26515 L168.72026,175.48874 L169.07568,174.9241 L170.13853,174.50287 L170.51907,174.3983 L170.84372,173.88312 L171.17923,173.52994 L171.69963,173.37592 L172.60106,173.51102 L173.00507,174.28145 L173.49068,174.7568 L173.91347,175.0197 L174.97345,174.81058 L175.2965,174.7807 L175.58614,174.95398 L176.70865,175.27065 L177.03986,175.27065 L177.59947,175.16841 L178.13913,174.79094 L178.17809,174.79094 L178.45995,174.82253 L178.7802,174.82253 L180.80574,175.26894 L181.63174,175.10335 L182.022,174.96849 L182.66255,174.96849 L183.04364,174.96849 L183.59956,174.95596 L184.15652,174.68112 L186.32738,173.73706 L188.6749,173.60063 L189.51515,173.60277 L189.873,173.60277 L190.13287,173.60277 L190.43571,173.60277 L190.53976,173.60277 L191.0162,173.60277 L194.09401,169.28769 L194.25974,168.69098 L194.8897,168.76814 L195.58376,168.76814 L196.22398,168.63243 L196.81273,168.07974 L197.01721,167.87094 L198.1964,167.2522 L198.60208,167.1327 L198.81497,167.1327 L199.22601,166.66963 L200.32722,166.14749 L200.532,166.14749 L201.41127,165.51547 L201.94762,165.28523 L202.22272,165.28523 L202.94905,165.00826 L203.13678,165.00826 L203.40956,164.9339 L204.0475,164.80354 L204.31044,164.80354 L204.88208,164.64444 L205.5644,164.34537 L206.05836,164.24763 L206.23457,163.94504 L207.73982,163.22903 L208.45836,160.9904 L209.15883,159.87904 L210.44351,158.20605 L210.72307,158.09584 L211.21394,157.60616 L212.32777,156.38248 L212.6103,156.24028 L212.73961,156.24028 L212.87746,156.15463 L213.14803,155.98096 L213.31036,155.96243 L213.67056,155.81306 L213.8288,155.73662 L214.02832,155.73662 L214.16623,155.65274 L214.38719,155.65274 L214.59714,155.55756 L214.70625,155.50934 L215.41556,155.0899 L215.651,154.93175 L215.87949,154.76685 L216.15681,154.64256 L216.45401,154.53557 L216.75945,154.4657 L217.18286,154.42746 L217.4416,154.37662 L218.43909,154.02057 L219.28201,153.916 L219.67259,153.93034 L221.72386,153.7248 L223.01802,153.24202 L223.67215,153.24202 L224.1118,152.85962 L224.63269,152.8644 L226.04001,152.61743 L226.8695,152.45013 L227.22847,152.13147 L227.80377,151.87085 L229.03654,151.6933 L229.50435,151.49185 L229.65527,151.25513 L230.6591,151.41333 L231.7726,151.44102 L232.30194,151.31987 L232.55183,151.31987 L233.07605,151.39284 L233.26671,151.39284 L233.8014,151.4065 L234.49951,151.3079 L235.9549,148.98918 L236.40717,148.8731 L237.65984,148.74336 L237.8545,148.74336 L237.91393,148.74336 L239.18149,148.17522 L239.55545,148.23431 L240.33916,148.51195 L240.45152,148.51195 L240.59007,148.51195 L240.88503,148.47397 L241.04,148.47397 L241.61777,148.35208 L242.21257,148.26126 L242.98448,148.06648 L243.6919,147.7498 L244.21585,147.47665 L245.28743,147.12541 L245.7645,146.72742 L246.18579,146.61057 L246.89803,146.4353 L247.14745,146.29668 L247.74803,146.08875 L247.98349,146.03552 L248.31668,145.88777 L248.83583,145.7335 L249.45116,145.63943 L249.89662,145.54037 L250.30728,145.312 L250.4814,144.99333 L251.13132,144.87283 L252.44069,144.02823 L252.80034,143.7824 L253.88104,142.60175 L254.12384,142.60175 L256.15063,141.81303 L257.1212,140.91838 L258.39114,140.71423 L258.71027,140.59175 L258.90503,140.59175 L259.22714,140.59175 L260.15982,140.37068 L260.4877,140.37068 L260.87704,140.28958 L262.087,139.6955 L263.40677,138.72516 L264.1891,138.58926 L264.6482,138.33719 L265.45038,138.1932 L265.88367,137.82448 L266.194,137.62517 L267.1114,137.29184 L267.89246,136.99138 L268.40576,136.77571 L269.02374,136.07977 L269.76172,135.69737 L271.01288,134.75882 L271.2262,134.75882 L271.4926,134.59584 L272.139,134.24033 L272.73477,134.24033 L272.9278,134.24033 L273.31516,134.24033 L274.36618,133.22458 L275.75745,131.53065 L276.12106,131.53065 L276.72006,131.13664 L276.88177,130.60022 L277.04623,130.60022 L277.20544,130.36798 L277.6247,130.24948 L278.83902,129.84392 L279.1327,129.93832 L279.43332,129.78383 L279.55908,129.78383 L279.73712,129.79407 L279.86,129.78018 L280.12366,129.76334 L280.2702,129.73079 L280.41736,129.69633 L281.12503,129.61348 L281.23505,129.70398 L281.40167,129.70398 L281.93634,129.78099 L282.21405,129.76372 L282.48886,129.78596 L282.65067,129.81206 L282.80093,129.83675 L282.88412,129.83675 L283.26178,129.83675 L283.79526,129.42937 L283.98886,129.22331 L284.15408,129.22331 L284.3267,129.09259 L286.20236,127.789314 L286.8324,125.2599 L287.7387,124.77849 L288.59644,124.12636 L289.02283,123.71968 L289.4642,123.3718 L289.83884,123.3718 L290.3537,123.12939 L290.98352,122.443115 L291.37213,121.87506 L292.81714,119.2849 L293.4585,118.65394 L294.1242,117.7792 L294.8828,116.87897 L296.51373,114.867386 L297.09683,114.867386 L297.63138,114.3615 L298.25543,114.3615 L298.75192,114.3615 L301.4099,119.80592 L302.847,122.8221 L303.21902,123.46057 L303.60907,123.46057 L304.22925,125.63334 L305.04324,126.5027 L305.45285,127.04178 L305.98215,128.1996 L306.34418,128.1996 L306.61212,128.7493 L307.28363,129.31693 L309.28763,130.89432 L309.6116,131.72087 L311.01343,132.12398 L311.83585,132.72148 L311.97128,132.72148 L313.60464,135.01588 L314.72067,136.5407 L315.421,136.5407 L316.7187,138.03206 L318.03564,139.62859 L318.6545,139.95044 L319.87473,142.28865 L320.20834,142.69627 L320.52548,143.40265 L321.59448,143.91983 L321.8884,143.91983 L322.0277,143.91983 L322.27277,144.45459 L322.80276,144.9262 L324.44965,145.49524 L327.30804,146.9611 L328.24008,147.2031 L328.42926,147.2031 L328.57587,147.2031 L328.84644,147.2031 L329.13687,147.2031 L329.5455,147.2031 L329.84665,146.99098 L332.19077,145.53905 L332.59744,145.92862 L333.2437,146.42847 L334.69083,147.34668 L334.91977,147.39429 L335.11575,147.59296 L335.45636,147.62045 L335.64526,147.77968 L335.71976,147.77968 L336.18045,147.84119 L336.4107,147.84119 L336.49127,147.84119 L336.63086,147.84119 L336.77548,147.84119 L336.85724,147.84119 L337.026,147.99005 L337.1729,148.02864 L337.34695,148.0605 L337.54028,148.07993 L338.38678,148.54149 L339.29614,149.34792 L339.29614,149.34792 L340.21643,149.84026 L340.54977,149.93665 L340.66852,149.93665 L340.81067,150.00203 L341.11258,150.00203 L341.48788,150.01233 L341.57135,150.01233 L341.59616,150.01233 L341.8087,150.10693 L341.94858,150.14684 L342.1243,150.14684 L342.30457,150.19424 L342.58856,150.25266 L342.7359,150.28697 L342.8478,150.28697 L343.56427,150.31458 L344.2585,150.49033 L344.61752,150.70703 L344.9405,150.82175 L345.04385,150.92212 L345.65973,151.20546 L346.07587,151.32497 L346.48776,151.32497 L346.51614,151.32497 L346.66537,151.3587 L346.78058,151.40369 L346.99576,151.4529 L347.3577,151.48418 L347.514,151.51852 L347.69073,151.51852 L347.79407,151.51852 L347.82883,151.51852 L348.37305,151.58426 L349.1333,151.79915 L349.3286,151.81464 L349.81512,151.6933 L350.43237,151.54121 L350.88245,151.4456 L351.48154,151.42642 L351.7254,151.31567 L351.92694,151.31567 L352.03806,151.31567 L352.34506,151.30028 L352.96066,151.42323 L353.51245,151.67537 L355.08707,152.53493 L355.26923,152.57462 L355.44028,152.66843 L355.8015,152.66843 L355.85776,152.66843 L356.24817,152.76242 L356.47812,152.7449 L356.79382,152.7449 L356.94626,152.70834 L356.96997,152.70834 L357.15445,152.70834 L357.3845,152.63602 L357.479,152.68164 L357.56693,152.68164 L358.32208,152.47244 L358.68658,152.21461 L359.22452,152.09619 L359.69373,151.83868 L360.0395,151.61205 L360.34744,151.61205 L360.7952,151.65746 L360.7952,151.65746 L361.74313,151.87581 L362.38684,152.0279 L363.08688,152.29797 L363.31693,152.68814 L363.41144,152.68814 L363.49936,152.68814 L364.25452,152.6015 L364.61902,152.39117 L365.93317,151.53795 L366.4392,151.32285 L366.93564,151.048 L367.6448,150.86874 L368.3662,151.0427 L368.6742,151.0427 L369.12192,151.20468 L369.12192,151.20468 L370.0699,151.92274 L370.71356,152.0279 L371.4136,152.29797 L371.64368,152.68814 L371.7382,152.68814 L371.82608,152.68814 L372.58124,152.6015 L372.94577,152.39117 L374.25992,151.01347 L374.76596,150.88548 L375.26236,150.57434 L375.8026,150.28102 L376.11273,150.18959 L376.24323,150.12141 L376.36008,150.12141 L376.89798,149.94661 L377.27087,149.79434 L377.44855,149.66579 L378.06046,149.49849 L378.30664,149.38152 L378.53162,149.3272 L379.72443,148.61551 L380.15604,148.43991 L381.03058,147.95534 L381.74576,148.00871 L382.05627,148.04001 L384.08392,147.66444 L384.14148,147.62631 L384.95718,147.26384 L385.62695,147.26384 L386.23975,147.16937 L387.15747,146.76193 L388.06003,146.80746 L389.09866,146.83818 L389.77286,146.98158 L389.81625,146.98158 L390.23358,146.98158 L390.5355,147.04475 L391.47778,146.98898 L393.6224,146.46397 L394.48224,146.29588 L395.05807,146.29588 L395.77155,146.35829 L396.32095,146.20348 L396.8377,146.20348 L397.5538,146.18436 L397.8404,146.18436 L397.9193,146.18436 L398.29617,146.12119 L398.56418,146.12119 L401.8665,142.78339 L402.60287,142.46312 L403.4431,142.46312 L404.07877,142.46312 L404.4871,142.7308 L408.22028,141.4163 L408.46768,140.6037 L410.4156,140.16753 L411.38763,138.03445 L414.78616,139.83492 L415.32822,139.6955 L415.4219,139.6955 L415.61383,139.6955 L416.39774,139.48723 L417.4919,139.42236 L418.39063,138.89883 L419.18594,138.73608 L420.18182,138.72888 L420.43683,138.72888 L420.93234,138.6439 L421.47363,138.6439 L421.83755,138.36772 L421.99905,138.36772 L422.40402,138.09659 L423.14984,137.26009 L423.85,136.75049 L424.45218,136.02087 L424.9468,135.19168 L425.0321,135.19168 L425.6199,134.90654 L426.43823,134.32597 L426.9327,134.0073 L427.26715,133.84239 L428.4074,132.982 L428.74026,132.982 L428.96558,132.63066 L429.38684,132.32713 L429.76276,132.23154 L430.52594,132.16501 L430.75787,132.03279 L431.23944,131.80632 L431.46622,131.46738 L432.07507,131.3783 L432.28964,131.26942 L432.4747,131.12495 L432.95126,130.71562 L433.6853,130.29846 L434.66263,129.60458 L434.91882,129.4441 L435.22592,129.4441 L435.49365,129.36702 L435.99362,129.04088 L436.12256,128.85286 L436.22876,128.85286 L436.33978,128.85286 L436.761,128.66415 L436.8792,128.66415 L437.00433,128.66415 L437.2454,128.58678 L437.89224,128.01392 L438.20908,127.58674 L438.46878,127.49731 L438.8614,126.27891 L439.7705,123.631714 L440.55722,121.86849 L441.18994,120.6711 L441.57224,120.0975 L442.19946,119.98017 L442.4705,119.995926 L442.75092,119.98351 L443.1413,119.81269 L443.34686,119.81269 L444.05566,119.56435 L444.3577,119.34123 L444.5152,119.34123 L444.72598,119.168816 L444.92072,119.18562 L445.75113,118.9264 L445.97427,118.9264 L446.20602,118.9264 L446.6421,118.36475 L446.93457,117.78219 L448.8099,115.54694 L450.20508,114.53836 L450.53604,114.53836 L451.28876,114.259926 L452.11804,114.36833 L453.86603,114.822426 L454.2138,114.54374 L454.43536,114.54374 L454.61108,114.597084 L454.92694,114.597084 L455.3921,114.227066 L456.2311,113.86558 L457.3126,112.42082 L458.36346,112.00496 L458.78925,111.85797 L460.31186,114.42296 L461.39508,116.0106 L461.83545,116.1062 L462.06537,116.1062 L462.36465,116.212425 L462.9659,116.78336 L463.39505,116.78336 L463.92838,117.2534 L464.4576,117.72078 L465.18054,118.507065 L465.8487,119.09587 L466.20026,119.27755 L466.81012,119.62633 L466.94547,119.82357 L467.0785,119.91996 L467.49335,120.08555 L467.6851,120.22497 L467.81693,120.25136 L468.23,120.37982 L468.4249,120.346344 L468.59448,120.451515 L469.00003,120.34493 L469.429,120.392265 L469.5362,120.403076 L469.68958,120.27436 L470.1588,120.00509 L470.29642,119.99165 L470.6384,119.97249 L471.2412,119.59927 L471.94608,118.68541 L472.31467,118.27313 L472.45544,118.27313 L473.14886,117.3251 L473.48706,117.3251 L474.04312,117.115974 L474.2888,117.115974 L474.59048,116.992676 L474.94748,116.6559 L475.3903,116.6559 L476.2414,116.161964 L476.38123,116.161964 L477.21777,116.164246 L478.29794,116.91197 L479.2816,117.7314 L480.07248,118.35877 L480.58954,118.4006 L480.90466,118.86067 L481.38837,118.86067 L481.88226,119.209785 L482.11246,119.209785 L482.94553,119.388466 L485.35098,118.53205 L487.43503,118.54059 L487.63232,118.4484 L487.84842,118.17953 L487.98413,118.17953 L488.31863,118.1855 L489.42853,118.44123 L489.9438,118.83558 L490.16116,118.96623 L490.43338,119.95941 L491.42154,121.79624 L492.09985,122.40477 L492.5514,123.67147 L492.7602,123.83785 L492.93945,124.409744 L493.33322,124.5429 L493.51794,124.67584 L493.61478,124.67584 L493.70587,124.67584 L494.11298,124.93805 L494.68427,125.48396 L494.8658,125.48396 L495.0145,125.67895 L495.23413,125.87959 L495.3976,126.28931 L495.71906,126.44755 L496.52893,127.17668 L497.0404,127.51085 L497.67593,128.68358 L498.8896,130.08238 L499.22382,130.5896 L499.45624,130.8764 L500.34952,131.08353 L500.62854,131.25401 L501.01672,131.44565 L501.28452,131.79547 L501.86722,132.34082 L502.27344,132.48367 L502.72873,132.70674 L503.09015,133.04762 L503.4779,133.18674 L503.75327,133.32724 L504.0927,133.32724 L504.3158,133.61534 L505.03674,133.87984 L505.23016,134.01627 L505.40863,134.01627 L508.50797,136.59448 L508.94305,138.27345 L509.8344,140.62163 L511.2015,141.94742 L511.67255,142.58142 L511.91525,143.4454 L512.0863,143.4454 L512.1481,143.4454 L513.0206,144.80612 L513.3249,145.05829 L514.0501,145.97385 L514.158,145.97385 L514.63617,146.81053 L515.01074,146.81053 L515.12213,147.10884 L515.64136,147.63899 L515.9074,147.88603 L516.0182,148.0366 L517.38324,148.91493 L517.9234,149.07227 L518.3712,149.21765 L518.5966,149.35544 L518.76495,149.35544 L518.9662,149.11761 L519.5037,149.11761 L519.72723,148.98065 L519.98364,148.89516 L520.5149,148.62123 L520.66705,148.46169 L521.1651,148.18434 L521.2792,148.00871 L521.8866,147.55643 L522.36316,146.95154 L522.9389,146.20282 L523.605,145.24248 L524.09235,144.80359 L524.66486,144.33644 L524.8516,143.82803 L525.12775,143.82803 L525.55334,143.57208 L525.81537,143.19577 L526.44135,142.28865 L526.7306,142.00511 L527.1548,141.53363 L527.9842,140.35513 L528.2386,140.054 L528.51086,140.054 L529.4442,139.10098 L529.83234,138.53934 L530.2369,138.25354 L531.55945,137.06915 L532.0785,136.54549 L532.43243,136.02359 L532.87195,135.52695 L533.33966,135.42844 L533.56415,135.33546 L534.0072,135.0811 L534.2108,134.97923 L534.5588,134.73177 L534.7493,134.68353 L534.89374,134.6033 L535.21857,134.6033 L535.37354,134.55222 L535.87366,134.46481 L536.26044,134.34558 L536.4353,134.23236 L536.65546,134.12463 L536.8345,133.59503 L537.06256,132.93379 L539.192,128.24442 L539.405,127.43139 L539.7066,126.11347 L540.034,126.11347 L540.86304,125.53077 L541.06464,125.53077 L541.99603,124.6624 L542.7913,124.28299 L543.06647,124.28299 L543.7508,124.06831 L544.7315,124.55485 L544.8649,124.55485 L545.68256,125.08577 L546.2059,125.526215 L547.01404,125.51085 L547.77496,125.789116 L548.48285,125.865364 L548.94836,125.75782 L549.6129,125.65823 L551.03955,125.91317 L551.432,126.01514 L552.26306,126.73692 L553.0219,128.07413 L554.52527,130.19434 L554.736,130.53076 L554.9959,130.59302 L555.1438,130.59302 L555.4196,131.01126 L555.4196,131.01126 L555.743,131.07397 L555.917,131.07397 L556.2426,131.10196 L556.4878,131.13133 L556.7889,131.14307 L556.9984,131.25754 L557.31433,131.35188 L557.5599,131.4528 L557.92255,131.54411 L558.321,131.56631 L558.63275,131.54048 L558.76654,131.58543 L558.8689,131.56609 L559.2541,131.62755 L559.58075,131.72144 L560.00446,131.7607 L560.2957,131.73495 L561.0975,131.7276 L561.35126,131.79547 L561.8435,131.92583 L562.1906,132.0714 L562.60834,132.1168 L562.93463,132.20152 L563.39087,132.45142 L563.9219,132.83885 L564.3172,133.2186 L565.3724,134.39311 L565.87646,135.36618 L566.3529,136.17879 L567.5272,136.90602 L568.19116,137.57796 L568.53827,137.80957 L569.77985,137.96872 L569.9684,138.06378 L570.0972,138.36905 L570.3319,138.97679 L570.5123,139.24936 L570.62115,139.56325 L570.7824,139.76869 L570.9491,139.85165 L571.66174,139.85165 L572.35596,140.10521 L572.51575,140.31007 L572.6577,140.31007 L572.7901,140.48972 L572.9206,140.69333 L573.0968,140.94482 L574.28687,142.67213 L574.81256,143.57098 L575.51526,144.89267 L576.32526,144.92592 L576.5743,144.79303 L576.7428,145.1447 L576.93256,144.97911 L577.08514,144.97911 L577.24963,145.19933 L577.4346,145.19933 L577.69,145.19933 L578.2134,145.33931 L578.5215,145.33931 L578.8675,145.65001 L579.2369,146.01062 L579.612,146.52539 L580.0727,146.31342 L581.0804,148.50374 L581.3237,149.04758 L581.69855,150.35011 L581.9143,150.35011 L582.5125,151.73811 L582.812,151.73811 L583.1918,152.68382 L583.7297,155.53589 L585.5028,159.99684 L585.921,161.26013 L586.0854,161.26013 L586.665,162.1615 L587.6277,162.7351 L588.2629,163.14937 L589.55994,166.35834 L590.9327,168.43526 L591.86273,168.9491 L592.5589,170.01663 L594.0205,170.35521 L594.3992,170.407 L594.7466,170.43489 L595.1346,170.78462 L596.77106,170.90411 L598.0071,170.7177 L598.8479,170.7177 L599.34064,171.21004 L599.5969,171.21004 L601.2442,172.57393 L602.0576,174.231 L603.1012,176.29437 L603.42444,176.42502 L603.7861,176.80157 L604.4236,176.5493 L604.6877,176.2147 L604.8115,176.2147 L605.2702,175.95778 L605.7032,176.01353 L606.4406,176.15771 L606.7082,176.25397 L606.9761,176.143 L607.19403,175.72015 L608.01935,175.45358 L608.15497,175.39842 L608.3182,175.39842 L608.65015,175.39842 L609.01025,175.82863 L609.2197,176.33052 L609.543,176.86551 L610.0182,177.68967 L610.4771,178.1489 L611.22363,179.25919 L611.4715,179.69122 L611.67017,179.92517 L612.0039,180.44699 L612.33466,180.44699 L612.77844,180.8366 L613.17236,181.14912 L613.55176,181.14912 L613.73517,181.32332 L614.0558,181.8464 L614.7458,182.08614 L614.97266,182.08614 L615.26166,182.12697 L616.1386,183.45299 L617.8387,188.35889 L618.0809,188.35889 L618.9884,189.66443 L619.3052,189.66443 L619.5819,190.28914 L619.8202,190.77219 L620.06805,191.18262 L620.96826,192.27312 L621.72235,194.05061 L622.17,194.52689 L622.42194,195.13394 L623.0134,195.57848 L623.41595,195.77924 L623.62537,195.8366 L623.8414,195.8366 L624.6825,196.66513 L624.99713,196.79042 L625.4755,197.22498 L625.90643,197.716 L626.30676,198.22925 L626.54596,198.66637 L626.8341,198.66637 L627.43726,199.08998 L628.0234,199.74425 L628.87537,200.6405 L630.23157,201.58057 L631.1173,202.19742 L631.51654,202.33057 L631.7776,202.55548 L632.67145,202.71638 L633.06433,203.06635 L633.61115,203.98384 L634.0285,204.5123 L635.077,205.19943 L635.5482,205.42946 L635.9313,205.60373 L636.3451,205.86266 L637.1263,206.61848 L637.6258,207.32353 L638.1745,208.54077 L639.4022,210.95534 L639.93414,211.33376 L640.2859,211.89088 L640.3549,211.89088 L640.6496,212.18855 L640.95215,211.993 L641.211,211.86063 L641.2804,211.86063 L641.48193,211.80862 L642.2051,212.02202 L642.84656,212.33128 L643.196,212.2778 L643.4601,212.19017 L643.68646,211.8974 L644.39594,211.95807 L644.6005,212.15111 L644.8018,212.15111 L645.7922,212.79877 L646.02423,212.99312 L646.2223,213.14816 L646.3957,213.30199 L646.56586,213.30199 L646.87915,213.31348 L647.4575,213.45308 L647.82837,213.8664 L648.15466,214.31926 L648.7318,215.49776 L649.4911,218.49022 L649.8897,219.02074 L650.0212,219.02074 L650.2978,219.28609 L650.43536,219.28609 L650.61237,219.5605 L651.0699,219.5605 L651.1629,219.80565 L651.2272,219.80565 L651.2702,219.80565 L651.32697,219.87497 L651.37115,219.87497 L651.4197,219.87497 L651.4628,219.87497 L651.50464,219.87497 L651.7755,219.93019 L652.00684,220.18472 L652.18726,220.18472 L653.685,221.47134 L654.0453,221.82486 L654.2559,221.84663 L654.6586,222.90506 L656.12054,223.84209 L656.7396,224.93484 L656.93787,224.93484 L657.26447,225.3053 L657.8729,225.61899 L658.26904,225.61899 L659.0545,226.4233 L659.8804,227.36966 L660.92444,228.69432 L661.23083,228.723 L661.6258,228.91898 L661.9926,229.0556 L662.6093,229.29262 L662.6873,229.29262 L663.0507,229.41794 L663.27496,229.52536 L663.58575,229.58524 L664.0396,229.77678 L664.0715,229.77678 L664.78754,230.04347 L665.2817,230.33734 L665.56055,230.41751 L666.5018,231.05724 L666.92737,231.05724 L667.4315,230.95766 L669.2972,232.49655 L669.8211,233.2488 L670.0656,233.2488 L670.2948,233.42134 L670.5303,233.5655 L670.964,233.5655 L671.29114,233.5655 L671.6069,233.5655 L671.80206,234.06557 L671.9551,234.06557 L672.14355,234.06557 L672.51166,234.6283 L672.80945,234.8501 L674.1373,235.49866 L674.8513,235.7257 L675.1828,235.86511 L675.55505,236.02957 L676.2707,236.44508 L676.7866,236.56699 L677.7631,237.03064 L677.9872,237.1889 L678.2393,237.1889 L678.5193,237.1889 L678.9891,237.35806 L679.3302,237.49962 L679.6342,237.48235 L680.8878,237.84218 L681.3423,237.97948 L681.72327,238.01114 L682.183,238.45296 L682.6753,238.65823 L683.13403,239.13486 L683.4987,239.30899 L684.0891,239.70964 L684.43384,239.76138 L684.8166,239.92868 L685.04724,240.1444 L685.2616,240.14455 L685.4069,240.13713 L685.47516,240.13713 L685.69403,240.18997 L686.0169,240.22896 L686.5094,240.25664 L687.13654,240.3714 L687.1988,240.36469 L687.27704,240.36469 L687.2975,240.36469 L687.408,240.36469 L687.48486,240.35727 L687.68396,240.357 L687.8704,240.43822 L688.21313,240.46239 L688.77576,240.49136 L689.02844,240.49545 L689.2943,240.61246 L689.48834,240.61246 L690.0949,241.08461 L691.6168,242.14114 L692.1552,242.92984 L692.5528,243.29176 L693.47595,243.52428 L694.018,243.6844 L694.1537,243.6844 L694.5435,243.79593 L695.37354,243.94464 L695.63306,244.03334 L695.7566,244.03334 L696.15125,244.11699 L697.39075,244.19347 L697.77136,244.29623 L698.33356,244.49965 L698.5359,244.74132 L698.9364,244.74132 L699.43915,244.84595 L699.952,244.99413 L700.64465,245.42113 L700.857,245.6681 L701.5252,246.10916 L701.83435,246.2895 L702.3186,246.43724 L702.7443,246.40701 L702.9679,246.43474 L703.081,246.49066 L703.5559,246.58228 L703.98785,246.81163 L704.2264,246.9587 L704.86975,247.2455 L705.3025,247.2948 L705.5049,247.33313 L705.9515,247.33513 L706.1644,247.33513 L706.4032,247.3411 L706.6435,247.34259 L706.8129,247.34259 L706.91766,247.34259 L707.23016,247.34259 L707.5803,247.23505 L707.74347,247.07372 L707.87036,247.07024 L708.26636,247.07024 L708.6822,246.76237 L708.8486,246.69212 L709.91187,245.86407 L710.00195,245.67076 L710.72375,244.34677 L711.6736,242.7762 L712.5678,241.57642 L713.886,240.37186 L714.20886,239.65726 L715.8961,238.0679 L716.6627,236.8251 L716.8851,236.8251 L717.91455,236.16785 L718.343,234.96887 L719.56366,233.17796 L720.3505,231.89214 L720.9635,231.0413 L722.08887,229.11018 L723.47186,227.91837 L723.9255,225.56023 L725.8657,222.33145 L726.0835,222.33145 L726.2745,222.33145 L726.8207,221.69241 L727.6677,220.24747 L728.10065,219.52946 L729.34845,216.07193 L729.816,216.07193 L730.41986,214.24358 L731.47406,211.29459 L732.74677,210.25308 L733.0851,210.5025 L733.3672,210.84181 L733.537,210.84181 L733.71783,210.84181 L734.0952,211.06688 L734.3177,211.06688 L734.70337,211.06688 L735.1936,211.57674 L735.4344,212.08493 L735.647,212.38536 L736.1704,214.30652 L737.13837,216.7252 L737.7045,219.87044 L738.3695,223.31073 L739.2915,225.7389 L739.717,226.82466 L739.85364,227.0994 L740.0349,227.0994 L740.18097,227.73627 L740.402,227.73627 L740.67725,227.96298 L740.9549,228.65767 L741.16376,228.81711 L741.274,228.81711 L741.4226,228.81711 L741.78265,229.33543 L742.10284,229.85193 L742.951,230.56012 L743.15717,230.64696 L743.44916,230.73796 L744.092,231.08475 L744.2054,231.13213 L744.328,231.23468 L744.83124,231.26357 L745.1113,231.56311 L746.09326,232.29047 L746.64716,232.5693 L747.23224,232.83931 L747.36487,232.83931 L747.4907,233.04292 L747.6215,233.04292 L747.73145,233.28055 L747.87006,233.28055 L748.3163,233.28055 L748.43195,233.28055 L748.51373,233.43329 L748.62537,233.43329 L750.0011,235.34113 L751.25616,239.56763 L751.41986,240.06223 L751.55615,240.06223 L752.21356,241.47166 L752.7694,241.95708 L753.1752,242.45753 L753.38007,242.45753 L753.6243,242.91743 L754.1118,244.45158 L754.4085,244.45158 L754.5259,244.75339 L755.24945,245.63092 L756.4055,246.7675 L756.8776,247.84642 L757.8213,249.35895 L758.33856,249.73409 L759.06555,250.97124 L759.30194,251.37123 L759.93,251.68134 L760.2669,252.95042 L760.8334,253.42232 L761.04114,254.1502 L761.67944,255.48569 L762.1209,256.16736 L762.6012,257.83102 L763.29156,259.17398 L763.8354,260.07327 L764.1491,260.89957 L764.52454,261.7313 L764.9409,261.7313 L765.6359,262.41006 L765.7486,262.85458 L765.85657,262.85458 L766.88293,263.0673 L767.66876,264.46844 L768.0535,265.34378 L769.5125,268.92996 L769.6982,268.92996 L770.2139,269.42737 L770.4732,270.27713 L770.8542,270.27713 L771.2182,270.62686 L771.4887,270.62686 L771.8351,270.94434 L772.813,271.18677 L773.2394,271.4586 L773.94,271.51703 L774.1854,271.51703 L774.7957,271.49683 L774.95197,271.49683 L775.511,271.35263 L775.751,271.0499 L775.95325,271.51196 L776.202,271.51196 L778.1567,274.86707 L779.47687,275.86575 L779.9165,275.49872 L780.37415,275.49872 L780.4921,275.49872 L780.72034,275.2324 L782.2701,274.97482 L783.0265,274.40784 L783.6446,274.35767 L783.93225,275.60284 L784.5154,277.90125 L786.0991,280.62848 L786.35547,281.5181 L786.62134,281.5181 L786.8625,281.53723 L787.34106,282.13712 L787.4952,282.13712 L788.26886,281.89453 L788.4919,281.9005 L789.0464,281.8766 L789.36194,281.77304 L790.1466,282.17535 L790.32153,282.57767 L790.9865,283.0208 L791.7393,284.4608 L792.594,285.5678 L792.78973,286.18158 L793.5181,286.78207 L793.9466,286.78207 L794.14966,287.12564 L794.8747,287.2541 L795.3526,287.81873 L796.451,288.23102 L797.0133,288.69608 L797.366,288.86734 L798.0116,289.08417 L798.31665,289.08417 L798.92865,289.41107 L799.11993,289.41107 L800.747,289.9548 L801.26184,290.15927 L801.6033,290.1733 L801.8572,290.1733 L802.05597,290.4059 L802.4469,290.6293 L803.2449,290.99048 L804.2439,291.7917 L804.6712,292.31747 L805.3791,293.0432 L806.41986,293.7051 L806.6881,293.85703 L807.20337,294.30063 L807.5204,294.30063 L807.70807,294.30063 L808.05817,294.69437 L808.2002,294.69437 L808.33923,294.7826 L808.74054,294.8734 L809.2303,295.24866 L809.5376,295.24866 L810.07825,295.79007 L810.194,295.79007 L810.6086,296.0931 L810.907,296.2405 L811.5335,296.42657 L811.92944,296.6007 L812.28156,296.6007 L812.78687,296.87897 L813.07086,296.952 L813.27734,297.13214 L813.44354,297.21527 L813.77014,297.28253 L814.1159,297.44595 L814.25073,297.44595 L814.74774,297.71246 L815.1292,297.75284 L815.4977,297.9346 L815.7246,298.02176 L816.0337,298.09872 L816.23584,298.1764 L816.4682,298.09723 L816.6159,298.25153 L816.90814,298.14453 L817.0222,298.14453 L817.29114,298.19006 L817.606,298.16617 L817.9099,298.14148 L818.8267,298.09753 L819.2337,297.99716 L819.84717,298.04666 L821.63855,298.81772 L821.97345,298.95914 L822.96423,299.15366 L823.1114,299.1061 L823.31146,299.1061 L824.0137,299.1324 L824.22406,299.1324 L824.4779,299.05832 L824.6672,299.05832 L825.3326,299.0153 L825.7516,298.96774 L826.6794,298.7948 L827.4158,298.60263 L827.88727,298.8894 L828.6262,299.16028 L830.1975,300.01273 L830.79395,300.5903 L831.31055,301.02527 L831.8329,301.27145 L832.79803,301.44592 L834.04755,302.32306 L835.4154,303.44037 L837.0953,303.75305 L837.29346,303.75305 L841.32166,305.19104 L841.34796,305.48026 L841.4059,305.48026 L841.7103,305.37372 L842.16486,305.37372 L843.79987,305.02243 L844.04346,305.09546 L844.9396,305.04764 L845.03015,305.04764 L845.1573,305.04764 L845.24554,305.04764 L845.3694,305.15787 L846.21674,305.2532 L847.6503,305.66666 L848.0766,305.78378 L848.5286,305.83527 L848.7607,305.8435 L848.91614,305.90045 L849.1156,305.90045 L849.301,305.95984 L849.81555,306.01743 L850.1925,306.0156 L850.79346,306.11917 L851.1846,306.24744 L851.5244,306.539 L851.6925,306.62106 L852.8011,306.8545 L853.5724,307.01343 L853.8138,307.02124 L854.4097,307.08255 L854.8023,307.08255 L855.0347,307.08255 L855.1855,307.0894 L855.39954,307.0894 L855.62,307.08792 L855.9243,307.07 L856.05505,307.0702 L856.1932,307.072 L856.43976,307.072 L856.75604,307.02985 L857.5211,307.01086 L857.89575,306.9955 L858.1073,306.9975 L858.2247,306.9975 L858.9199,306.93707 L859.3976,306.92978 L860.3494,306.87943 L860.9481,306.85687 L862.43243,306.83417 L864.7775,306.7326 L866.81134,306.74057 L867.9932,306.7087 L869.2709,306.64496 L869.4352,306.64496 L872.3688,306.36612 L872.6306,306.2506 L872.6749,306.2506 L873.792,306.2506 L873.9406,306.2506 L874.8201,305.99854 L876.7118,305.3185 L877.11005,305.3185 L877.5712,304.6772 L878.49646,304.15378 L878.63226,304.15378 L879.63336,303.21713 L879.8568,303.21713 L880.2186,302.813 L880.27386,302.813 L880.85626,302.5023 L881.0787,302.02908 L881.42017,301.69623 L881.93024,301.44672 L882.3172,301.0683 L883.2089,299.90915 L883.63086,299.53436 L884.02356,299.43875 L884.75665,299.54068 L885.0327,299.62878 L885.0652,299.62878 L885.54626,299.69064 L885.9238,299.8016 L886.2592,299.95352 L886.6386,300.1075 L886.75525,300.1075 L886.8861,300.1075 L887.374,300.19424 L887.7622,300.45685 L888.1914,300.6077 L888.5396,300.6883 L888.77515,300.52576 L888.8583,300.52576 L891.04004,298.67032 L891.6927,297.17657 L892.3125,296.8649 L892.889,296.72647 L893.49695,296.32892 L894.04767,296.27728 L894.19196,296.13095 L894.50366,296.1173 L895.2281,296.04745 L895.5291,295.97562 L895.7573,295.95187 L895.8889,295.9298 L895.9519,295.9298 L896.1306,295.9298 L896.6773,295.882 L897.2746,295.78857 L898.0476,295.77924 L898.709,295.53033 L899.448,295.2845 L900.0208,295.12515 L900.629,294.46506 L901.81067,293.71307 L902.528,293.2012 L902.832,292.85013 L903.28894,292.18433 L903.8124,292.18433 L904.94586,291.07468 L905.5562,290.63297 L906.2215,290.00558 L906.90784,289.77954 L907.33875,289.3095 L907.8675,288.88168 L908.06384,288.24356 L908.267,288.24356 L908.87305,288.11716 L909.3368,287.62454 L909.87885,287.26843 L910.38916,286.95297 L911.54333,285.55188 L911.6843,285.55188 L911.9635,285.43173 L912.277,285.48892 L913.58,285.36942 L913.69415,285.36942 L915.03864,282.95688 L916.0888,281.85748 L917.0646,281.45834 L917.509,281.08313 L917.6996,281.08313 L918.6043,279.54874 L920.7912,276.48117 L921.1155,275.48734 L921.4599,275.48734 L924.6459,270.89456 L925.0322,269.60394 L926.23596,269.0702 L927.37665,267.8274 L927.72266,267.59875 L928.1849,266.46906 L929.474,264.28278 L930.16895,261.79663 L930.72266,260.49805 L931.1526,260.2198 L931.9748,259.51303 L932.64417,258.4307 L933.38477,257.6898 L934.0878,257.33813 L934.59283,256.8294 L934.8053,256.33774 L935.033,255.88933 L937.1083,254.07692 L937.61444,254.02513 L937.93396,254.02513 L938.7362,253.41435 L939.5543,252.91458 L939.76196,252.91458 L940.62134,251.29176 L940.7881,250.58281 L940.9327,250.58281 L941.12,249.52469 L941.7869,248.95036 L942.51624,247.47798 L942.7348,247.47798 L942.98987,246.98021 L943.3211,245.1638 L943.54926,244.41467 L944.81067,243.6127 L945.4082,241.945 L945.603,241.945 L946.1645,241.71777 L947.19666,240.43741 L947.47797,240.43741 L947.71265,240.43741 L949.5141,234.49963 L950.3248,232.18451 L950.77454,231.86028 L951.5087,231.5857 L951.63654,231.5857 L951.71783,231.42873 L951.7968,231.42873 L951.9439,231.21391 L951.9856,231.21391 L952.2919,230.93437 L952.4191,230.93437 L952.5615,230.60393 L952.7952,230.43877 L952.917,230.05423 L952.98334,230.05423 L953.3089,229.4663 L953.4573,229.01549 L953.716,228.23149 L954.0007,227.9673 L954.5808,226.79108 L954.8464,225.80298 L955.16113,224.7332 L955.5924,223.93275 L955.721,223.42271 L955.82404,222.8436 L955.9039,222.8436 L956.72424,221.58168 L957.0016,219.93736 L957.4,218.47707 L959.2245,214.34416 L959.5496,213.35188 L959.9085,212.10226 L960.26807,212.10226 L961.0329,211.40613 L961.54694,210.83711 L962.18896,211.11401 L962.64435,210.14075 L963.3306,209.78358 L963.6543,208.75056 L963.9104,208.75056 L964.8655,207.67506 L965.04956,207.44603 L965.73535,206.9979 L966.501,205.19345 L966.7584,204.57338 L967.4602,203.27548 L968.48047,202.98953 L968.6224,202.98953 L969.1135,200.95462 L969.64624,199.86774 L971.3329,193.22125 L972.44635,191.18805 L972.79675,191.18805 L973.2671,191.4151 L973.4724,191.4151 L973.95013,191.18207 L974.19727,191.44962 L974.6859,191.7736 L975.57623,192.4481 L976.43207,194.36377 L976.9104,195.4303 L977.2854,196.17386 L977.9558,196.89351 L978.6184,197.48352 L978.8551,197.87288 L979.0218,197.87288 L979.53796,198.80455 L979.80634,199.16586 L980.71094,200.15381 L980.972,200.15381 L981.6899,202.05537 L981.85443,202.05537 L982.27136,203.2987 L982.7113,203.867 L983.73785,206.46107 L983.89026,206.46107 L984.4306,207.63922 L984.651,208.08861 L985.2485,209.01944 L985.49896,209.33643 L985.6163,209.33643 L985.7779,209.33643 L985.9277,209.33643 L986.4079,209.93977 L987.0318,210.9414 L987.28815,210.9414 L987.6679,211.94041 L989.38,217.4661 L989.74023,219.04132 L990.1032,219.61493 L990.367,219.53545 L990.66736,219.46266 L990.92896,219.46266 L991.2434,219.46266 L991.4278,219.46266 L991.8066,219.56195 L991.94727,219.56195 L992.1439,219.6629 L992.6015,219.87004 L992.82947,219.87349 L993.9791,219.62393 L994.826,221.35284 L996.3516,222.42706 L996.7351,221.93839 L996.85156,221.93839 L997.0034,221.93839 L997.2245,221.4335 L998.6982,220.15964 L998.974,219.82158 L999.50836,217.48659 L1000.2396,215.99454 L1000.9982,214.30174 L1001.4132,213.21788 L1001.9236,211.84662 L1002.97626,209.20387 L1003.1328,208.17697 L1003.2949,208.17697 L1004.06915,206.314 L1004.5353,205.47014 L1005.0185,205.47014 L1005.2595,205.47014 L1005.3785,205.02615 L1005.47595,205.02615 L1005.694,203.39117 L1006.1866,202.27489 L1006.4248,201.786 L1006.6893,201.3961 L1008.00665,197.10513 L1008.36664,196.10133 L1008.5117,195.73589 L1008.6408,195.081 L1009.1169,193.46652 L1009.3388,193.46652 L1009.4346,193.26643 L1009.62805,193.26643 L1010.2553,192.79173 L1010.52936,192.19424 L1010.82935,191.90164 L1011.0485,190.76297 L1011.70966,189.8616 L1011.9923,189.1538 L1012.59344,188.87999 L1012.88293,188.59674 L1013.2124,188.1169 L1013.3998,187.50745 L1013.51465,187.20653 L1014.007,186.4937 L1014.2269,186.09627 L1014.6777,185.21196 L1015.6824,183.00447 L1016.18713,181.69975 L1016.83936,180.60036 L1017.2022,179.48303 L1017.52747,179.10129 L1017.9832,178.7242 L1018.3902,177.95222 L1019.3935,176.9341 L1019.6642,176.47229 L1019.9559,176.08723 L1020.5844,175.90932 L1020.9605,175.60823 L1021.3032,175.54285 L1022.03107,175.35089 L1022.357,175.3543 L1023.3477,174.90703 L1024.7417,173.13559 L1025.0339,173.13559 L1025.2725,173.13559 L1026.3231,172.75876 L1026.9126,172.75876 L1029.6444,171.61395 L1031.061,171.46457 L1031.5084,171.46457 L1032.8087,171.28831 L1033.9557,170.99493 L1034.111,170.87631 L1034.2681,170.76152 L1034.6376,170.63864 L1035.1714,170.50772 L1035.6466,170.22263 L1035.8724,170.07877 L1036.2712,169.95888 L1036.3092,169.95888 L1036.4371,169.79834 L1036.58,169.65414 L1036.8114,169.37076 L1037.093,169.31128 L1037.9153,168.86716 L1038.2267,168.71378 L1038.3278,168.5169 L1039.0073,167.637 L1039.5724,167.21503 L1039.8596,167.2546 L1040.8553,167.38605 L1041.2982,167.38605 L1041.7747,167.38232 L1042.1292,167.47328 L1042.4661,167.57655 L1042.7423,167.57655 L1042.9762,167.57655 L1045.5228,166.78018 L1046.7491,166.78854 L1047.7314,167.18846 L1048.4426,168.45517 L1048.9445,169.19493 L1049.4918,170.89397 L1050.4409,172.42256 L1050.9756,173.33342 L1051.3783,174.22304 L1051.8488,174.47717 L1052.2615,175.33997 L1052.5814,175.33997 L1053.249,175.94225 L1053.5828,176.19876 L1054.2123,176.82549 L1054.5215,177.38846 L1055.1316,178.15657 L1056.3278,179.61647 L1056.8282,179.97298 L1057.2651,180.28111 L1057.829,180.40062 L1058.1512,180.40062 L1058.497,180.40062 L1059.6711,181.19547 L1062.0088,184.14471 L1063.1575,185.6074 L1063.9525,186.45287 L1064.2614,186.57137 L1064.6364,187.00688 L1064.8547,187.00688 L1065.7207,187.48355 L1066.1863,187.72147 L1066.577,188.77216 L1066.8002,189.4314 L1067.3406,190.72 L1067.868,190.72 L1068.1576,190.84802 L1068.6083,191.69972 L1068.8121,192.29541 L1069.0391,192.7296 L1069.2607,193.29364 L1069.5292,193.29364 L1070.6576,196.8189 L1070.9835,197.50243 L1072.5237,199.07504 L1072.7766,199.00879 L1072.9287,199.00879 L1073.1187,199.10612 L1073.7345,199.31166 L1074.2446,200.31786 L1074.476,200.31786 L1074.7476,200.61844 L1075.0068,200.90707 L1075.5527,201.56662 L1076.182,202.00714 L1076.4646,202.5047 L1076.8573,204.29123 L1077.127,204.87949 L1077.4619,206.11795 L1077.7103,206.733 L1078.6427,208.63704 L1078.8594,209.54723 L1079.2161,209.54723 L1079.5869,211.28035 L1079.9457,212.6709 L1080.1694,213.53455 L1080.7064,213.53455 L1081.1372,214.85622 L1081.636,216.98279 L1082.2178,218.8284 L1083.3535,223.57799 L1083.9717,225.31526 L1084.255,225.95929 L1084.5532,225.95929 L1084.9642,226.99352 L1085.2142,227.3587 L1085.421,227.72104 L1085.6123,227.72104 L1085.8668,228.60901 L1086.3226,228.60901 L1087.0923,231.00146 L1087.3792,231.48643 L1087.6768,231.68341 L1087.989,232.07819 L1088.8339,233.0397 L1088.972,233.0397 L1089.0688,233.0397 L1089.2136,233.0397 L1089.3585,233.4808 L1089.5042,233.68501 L1089.7246,234.09026 L1090.4624,234.64368 L1091.1527,235.04854 L1091.6445,236.12303 L1092.0371,238.08498 L1093.1405,240.7686 L1094.077,243.34084 L1094.4586,243.90974 L1095.4695,244.34763 L1095.6127,245.4022 L1095.7628,245.4022 L1096.4089,245.8354 L1097.1927,248.40704 L1097.9237,249.40367 L1098.2782,250.31964 L1099.0037,252.29903 L1099.2404,252.29903 L1099.4852,252.77357 L1100.0929,253.36922 L1100.9216,255.58128 L1101.0446,255.58128 L1101.7095,256.94293 L1102.5446,258.43753 L1103.0853,258.43753 L1103.6871,260.18222 L1104.7614,261.6064 L1105.4529,262.37762 L1105.9598,262.37762 L1106.2611,262.87952 L1106.8838,262.87952 L1107.5664,263.17996 L1108.5602,263.05774 L1109.4863,263.87033 L1111.0435,267.50928 L1111.3568,267.50928 L1111.9788,268.25757 L1112.3029,268.25757 L1112.4227,268.66672 L1112.8221,268.66672 L1114.7762,273.28625 L1116.2456,276.27206 L1116.3696,276.63983 L1116.7756,277.18134 L1116.9303,277.18134 L1117.864,278.09357 L1118.5062,278.15298 L1118.591,278.15298 L1118.6978,278.4845 L1118.7511,278.8225 L1118.8165,278.8225 L1119.4447,279.09225 L1119.6956,279.09225 L1119.9548,279.09225 L1120.2001,279.1998 L1120.4447,279.33032 L1121.0847,279.27948 L1122.4131,279.02817 L1122.6244,279.0325 L1122.9667,279.01337 L1123.2849,279.06293 L1123.8237,279.52643 L1124.0409,279.73663 L1124.4326,279.73663 L1124.5924,279.9236 L1125.01,280.0694 L1125.3367,280.3231 L1125.8854,280.67792 L1126.0986,280.67792 L1126.2983,281.1596 L1126.8091,281.65063 L1127.1045,282.2311 L1127.4174,282.64935 L1128.2443,283.05322 L1128.4928,283.25482 L1129.2544,283.3997 L1129.3695,283.37833 L1129.5975,283.4605 L1129.7896,283.5431 L1130.0417,283.55756 L1130.6459,283.4981 L1131.1688,283.45215 L1131.7327,283.38412 L1132.0271,283.213 L1132.3157,283.04172 L1132.6343,282.99554 L1132.9419,282.99554 L1133.4458,282.63922 L1133.6882,282.32635 L1134.2178,282.24466 L1134.5082,282.12213 L1135.7672,281.70212 L1135.936,281.52075 L1136.653,281.19547 L1136.8701,281.19547 L1137.0913,281.10156 L1137.5845,281.1118 L1138.5114,281.58298 L1139.7451,280.98547 L1140.5621,280.81006 L1140.9338,280.7772 L1141.4956,280.79813 L1142.0986,280.79813 L1142.3494,280.69653 L1142.6967,280.71082 L1143.5801,280.7241 L1144.5354,280.65472 L1144.9578,280.66794 L1145.5071,280.67365 L1145.8815,280.67365 L1146.3231,280.38684 L1148.5588,279.02353 L1148.8202,278.59036 L1149.2078,278.3527 L1149.4246,278.3527 L1149.8289,278.20795 L1150.0741,278.20795 L1150.5266,278.24597 L1151.0521,278.09442 L1151.5104,277.97293 L1151.9181,277.80707 L1152.7521,277.6415 L1152.9774,277.52203 L1153.1901,277.4942 L1153.6456,277.36603 L1153.9559,277.4575 L1154.9639,277.0727 L1155.2307,276.7946 L1155.3744,276.65683 L1155.9724,276.48715 L1156.8805,276.14957 L1157.141,276.14957 L1157.5277,275.7851 L1157.8848,275.2085 L1159.7393,274.85797 L1160.0283,274.71616 L1160.5093,274.44968 L1161.4427,273.69482 L1163.0094,273.10052 L1163.7186,273.4126 L1164.2546,273.38528 L1165.3163,273.2995 L1165.8894,272.97784 L1166.0732,272.97784 L1166.3486,272.70166 L1167.4723,272.27597 L1167.8339,271.96765 L1168.1935,271.96765 L1168.5331,271.41138 L1169.012,271.0469 L1169.7762,271.31998 L1170.0463,271.21243 L1171.1322,271.45023 L1171.6366,271.41104 L1171.9952,271.29324 L1172.3811,271.37582 L1172.5917,271.46576 L1173.555,271.47745 L1173.9849,271.6689 L1174.1241,271.73343 L1174.1714,271.73343 L1174.6456,271.7908 L1176.3336,271.44424 L1176.3721,271.52524 L1176.6013,271.3845 L1176.7118,271.3845 L1178.0383,271.33328 L1178.3511,271.33328 L1178.7667,270.53366 L1181.1351,270.2791 L1181.2905,270.2433 L1181.6698,269.9266 L1182.5824,269.74496 L1182.7567,269.74496 L1183.1364,269.50293 L1183.308,269.50293 L1183.6327,269.36734 L1183.9342,268.82004 L1184.8994,268.2536 L1185.489,267.8204 L1186.0068,266.8953 L1186.7947,267.0825 L1188.335,267.12347 L1188.9135,267.32748 L1189.5914,267.48282 L1190.0309,267.33105 L1190.4305,267.26285 L1190.8004,267.0434 L1191.1825,266.84152 L1191.4587,266.34958 L1192.0094,265.6465 L1192.3687,265.0124 L1192.5844,264.30826 L1192.9457,263.74753 L1193.5338,263.38904 L1193.7289,263.1111 L1194.0652,263.01352 L1194.3899,262.91794 L1194.7394,262.56973 L1195.2496,262.45892 L1195.7089,262.9809 L1196.1542,263.37064 L1196.676,263.88174 L1197.2993,265.0933 L1197.7119,265.4991 L1197.932,265.4991 L1198.0092,265.4991 L1198.2421,265.58676 L1198.4456,265.42053 L1198.8575,265.3231 L1199.0461,265.30396 L1199.4269,265.30396 L1200.4164,264.41367 L1200.6697,262.61102 L1201.1135,262.26187 L1202.3293,260.52194 L1202.7982,259.75415 L1202.9063,259.49292 L1203.0208,259.49292 L1203.6384,258.3385 L1204.8853,258.00647 L1205.2299,257.94586 L1206.2144,257.51056 L1206.6184,257.51056 L1209.1079,254.48123 L1209.7466,254.09798 L1210.0714,253.19394 L1210.3706,252.35213 L1210.598,252.35213 L1211.0863,252.32333 L1211.3563,252.3123 L1212.2163,251.84166 L1212.3477,251.84166 L1212.4661,251.57738 L1212.57,251.57738 L1212.6921,251.57738 L1212.9889,250.87395 L1213.4703,250.21344 L1214.5594,249.19795 L1215.3167,248.52959 L1215.7942,248.08798 L1216.046,247.68565 L1216.3462,247.68565 L1216.7261,247.6279 L1216.9706,247.40881 L1217.1794,247.40881 L1217.5823,246.91432 L1217.9491,246.6002 L1218.0663,246.6002 L1218.3962,246.31499 L1218.7385,246.15247 L1219.6465,245.65535 L1219.8341,245.65535 L1220.0458,245.4307 L1220.6228,244.98297 L1220.708,244.98297 L1220.8887,244.7376 L1220.9751,244.7376 L1221.3241,244.42978 L1221.4614,244.34798 L1221.6796,244.27393 L1222.3453,243.99776 L1222.565,243.8132 L1222.9841,243.8132 L1223.1357,243.75012 L1223.3599,243.53929 L1223.4758,243.53929 L1223.7864,243.40863 L1223.8867,243.25221 L1224.3452,241.57608 L1224.5878,241.57608 L1224.744,241.11856 L1226.2913,238.61543 L1226.4845,238.61543 L1226.5874,238.61543 L1227.0934,238.03922 L1227.5305,237.6138 L1227.7677,237.50299 L1228.1909,237.3011 L1228.423,237.3011 L1229.0658,237.27681 L1229.7097,236.63869 L1230.0884,235.92407 L1230.4142,235.30745 L1230.9279,234.47394 L1231.5919,233.41936 L1232.1202,232.30534 L1232.6483,231.31137 L1233.9403,229.5834 L1234.1652,229.34201 L1234.3398,229.03804 L1234.641,228.36649 L1234.7676,228.17697 L1235.2642,227.65118 L1235.489,227.47337 L1235.7478,227.29378 L1236.5916,226.37921 L1236.7369,225.89803 L1236.9323,225.89803 L1237.091,225.63307 L1237.3092,225.29164 L1237.7917,225.02487 L1237.9629,224.82411 L1238.415,224.59785 L1238.7853,224.59785 L1239.0925,224.32062 L1239.5911,223.57256 L1239.7953,223.41904 L1240.007,223.41904 L1240.2631,223.0109 L1240.511,222.21707 L1241.3362,221.10846 L1241.684,220.63365 L1241.9376,220.63365 L1242.5349,219.32663 L1242.7262,218.6225 L1242.8268,218.6225 L1242.9099,218.26077 L1243.0386,218.26077 L1243.3069,218.26077 L1243.9305,217.69514 L1244.6758,216.65567 L1245.0145,216.33563 L1245.7031,214.14058 L1246.8237,213.72746 L1247.4365,213.12825 L1247.9661,213.02753 L1249.0682,212.10353 L1249.5566,211.82912 L1249.8613,211.33063 L1250.7924,211.24414 L1251.0309,211.24414 L1252.0864,209.99734 L1253.5021,208.03456 L1254.4491,208.03456 L1255.0023,207.36238 L1255.3739,206.84918 L1255.538,206.84918 L1255.5741,206.84918 L1255.8463,206.37172 L1256.9493,205.71925 L1257.3712,204.2972 L1258.2042,201.25473 L1259.4148,200.07124 L1259.6058,200.03304 L1259.7803,199.78662 L1259.8524,199.78662 L1259.9269,199.78662 L1260.0177,199.78662 L1260.5928,199.48895 L1261.2549,199.69725 L1261.7047,199.60982 L1261.8334,199.56181 L1262.5294,199.43898 L1263.1045,199.15218 L1263.2186,199.15218 L1263.3223,199.15218 L1263.5259,199.15218 L1263.9185,198.9197 L1264.481,198.19275 L1264.9908,197.87607 L1266.2657,195.01404 L1266.3973,194.71547 L1266.4861,194.71547 L1266.6942,194.71547 L1266.883,194.39304 L1267.4222,193.60521 L1267.636,193.60521 L1267.8278,193.31117 L1268.0864,192.94286 L1269.4802,190.05063 L1269.6874,189.7899 L1270.0764,188.73233 L1270.4501,188.24437 L1270.5896,187.9735 L1271.3363,187.77678 L1271.6937,187.77678 L1271.9576,187.51741 L1272.2452,187.21304 L1272.4198,187.21304 L1272.6488,186.92668 L1273.1796,186.57834 L1273.3634,186.57834 L1276.2201,181.99252 L1276.7167,181.33954 L1277.2146,181.33954 L1277.6678,180.84532 L1277.9255,180.33878 L1278.184,179.53246 L1278.4364,179.24402 L1279.6595,177.985 L1280.0994,177.70386 L1280.348,177.4117 L1280.5443,177.57332 L1280.7283,177.50162 L1280.9716,177.48691 L1281.3013,177.48691 L1281.4731,177.65724 L1281.6616,177.83511 L1281.9648,178.28697 L1282.7407,179.28093 L1283.0026,179.49199 L1283.1866,179.72003 L1283.7745,180.28111 L1283.8873,180.58157 L1284.0377,180.78879 L1284.1903,180.78879 L1284.3602,180.98674 L1284.517,180.98674 L1284.9495,180.98674 L1285.6196,181.67107 L1286.1713,181.87103 L1287.8837,183.41458 L1288.5999,185.09056 L1288.9852,185.47993 L1289.3748,185.91331 L1289.6693,186.3157 L1289.9014,186.5614 L1290.6759,187.30942 L1290.905,187.30942 L1291.117,187.92911 L1291.4822,188.28787 L1291.748,188.6168 L1292.2509,189.14659 L1292.4185,189.60667 L1292.6531,189.60667 L1292.7825,189.60667 L1293.4777,190.00282 L1294.276,191.96915 L1294.7458,192.73177 L1295.1873,194.0919 L1296.095,196.46199 L1296.2476,196.46199 L1296.5453,196.46199 L1296.8792,196.94252 L1297.5889,198.58075 L1297.788,198.58075 L1297.8766,198.73248 L1298.0631,198.73248 L1298.2448,198.73248 L1299.2952,199.56738 L1299.642,199.88657 L1300.1526,200.41478 L1301.0547,202.10437 L1301.3884,202.10437 L1301.968,203.11714 L1302.8492,204.78052 L1303.3701,205.3249 L1303.9312,207.2555 L1304.7074,208.23007 L1304.8888,208.62788 L1305.0977,208.62788 L1305.5323,209.42574 L1305.8246,210.0332 L1306.7611,210.21521 L1307.1306,210.6088 L1307.5422,211.59105 L1307.7426,211.8516 L1307.8224,211.8516 L1307.9023,211.99951 L1308.0042,211.99951 L1308.1072,212.31366 L1309.5781,213.63214 L1310.02,214.32126 L1310.4452,216.37466 L1310.9572,217.62543 L1311.1656,217.62543 L1311.311,217.62543 L1312.0623,220.12335 L1312.8082,222.12108 L1313.1316,222.6504 L1313.8497,224.76038 L1313.9934,224.76038 L1314.2303,224.76038 L1314.5253,225.757 L1314.7217,226.1092 L1314.9225,226.1092 L1315.9816,227.64316 L1316.8856,228.89296 L1317.0634,229.09644 L1317.595,230.64183 L1317.9268,230.64183 L1318.4302,231.30818 L1319.6439,235.02463 L1320.9988,241.0554 L1321.831,240.86685 L1322.1898,241.34937 L1322.3345,241.34937 L1322.4923,241.34937 L1322.8013,241.4139 L1323.3881,242.00957 L1323.9108,242.2982 L1324.1975,242.33313 L1324.5035,242.33313 L1324.9343,242.6567 L1325.2252,243.52507 L1325.3954,243.52507 L1325.56,243.84619 L1326.216,244.34073 L1327.1804,246.31938 L1327.3566,246.70667 L1327.4989,246.70667 L1327.9077,248.02551 L1328.3186,248.93504 L1329.257,249.49394 L1329.4417,249.78914 L1330.005,251.00331 L1330.0656,251.00331 L1330.4207,251.27863 L1330.4934,251.50337 L1330.6008,251.50337 L1331.5084,251.99425 L1331.6869,252.17686 L1331.8391,252.65486 L1332.3071,252.65486 L1332.7965,253.74391 L1333.172,254.82446 L1334.1016,255.5388 L1334.6831,256.1568 L1335.4297,256.70392 L1335.8151,257.0923 L1336.9478,257.55237 L1337.081,257.74103 L1337.285,257.88696 L1338.3168,257.60376 L1338.7872,257.5616 L1339.5198,257.67242 L1339.9244,257.98856 L1340.1067,257.98856 L1340.405,258.09427 L1340.617,258.1644 L1340.8916,258.24463 L1341.4064,258.21927 L1341.6101,258.2634 L1342.0194,258.21378 L1342.2557,258.25485 L1342.6985,258.58606 L1342.8545,258.7322 L1343.2329,259.36108 L1343.966,260.15833 L1344.499,260.91458 L1344.73,261.25943 L1344.9033,261.25943 L1345.359,261.80978 L1345.5403,262.0157 L1345.761,262.24918 L1346.2189,262.83954 L1346.4122,263.29303 L1346.7738,263.46286 L1346.8823,263.78192 L1347.3618,264.27112 L1347.8508,264.43463 L1348.2001,264.64893 L1348.22,264.64893 L1348.342,264.64893 L1348.3685,264.64893 L1348.6621,264.72687 L1348.7191,264.72687 L1348.8401,264.7881 L1348.968,264.77167 L1349.22,264.80405 L1349.3846,264.8359 L1350.0802,264.80176 L1351.28,264.17627 L1352.1409,263.45767 L1352.9196,262.86414 L1353.1143,262.86414 L1353.3164,262.86414 L1353.6095,262.67188 L1354.0488,262.48654 L1354.4602,262.19098 L1354.6484,262.0396 L1354.9283,261.8464 L1355.95,261.3412 L1356.4409,260.68262 L1356.5115,260.68262 L1357.0365,260.40842 L1358.4604,260.16455 L1358.6865,260.16455 L1359.0085,260.04263 L1359.6887,259.53726 L1359.95,259.53726 L1360.2904,259.53726 L1360.5209,258.82306 L1360.6432,258.82306 L1361.3765,258.39352 L1361.9202,258.39352 L1362.7389,256.98645 L1362.8386,256.98645 L1364.9053,253.94547 L1366.695,254.38562 L1366.8398,254.38562 L1367.2368,254.71185 L1367.6654,254.75488 L1368.3036,254.6784 L1368.7661,254.64163 L1369.0098,254.54182 L1369.2394,254.88553 L1369.3027,254.88553 L1369.9902,254.73616 L1370.2119,254.3657 L1370.4937,253.89311 L1370.9034,253.62167 L1371.1614,253.47972 L1371.7766,252.6489 L1372.4285,252.34355 L1372.6184,252.17288 L1372.776,251.98505 L1373.1093,251.57324 L1373.7568,250.9261 L1374.0857,250.7441 L1374.3691,250.63731 L1374.5801,250.63731 L1375.038,250.4242 L1375.2781,250.35066 L1375.6777,250.24219 L1376.164,250.09358 L1376.947,249.43713 L1377.2125,249.2922 L1377.3345,249.2922 L1377.584,249.24832 L1378.0022,249.28896 L1378.7621,249.53725 L1379.5288,249.51839 L1380.2855,249.30687 L1380.4177,249.29791 L1381.2191,249.22621 L1381.7528,248.77075 L1382.5273,248.45074 L1382.6547,248.38902 L1383.3147,248.19296 L1383.6732,248.07858 L1383.877,248.07858 L1384.0273,248.07858 L1384.31,247.9864 L1384.4307,247.9864 L1384.5859,247.9864 L1384.807,247.9864 L1385.1547,247.73453 L1385.3365,247.7491 L1385.7427,247.67754 L1386.5269,247.60997 L1387.4304,247.22812 L1387.6365,247.00252 L1388.1711,246.7914 L1388.8037,246.73993 L1389.104,246.49948 L1389.4569,246.42972 L1389.7411,246.33282 L1389.8088,246.22258 L1389.9716,246.22258 L1390.2928,246.00748 L1390.7561,245.78282 L1391.0745,245.66512 L1391.355,245.44553 L1391.4392,245.44553 L1391.5939,245.25882 L1391.8369,245.093 L1392.5121,244.74966 L1392.7731,244.4475 L1393.2294,243.9951 L1393.669,243.67644 L1393.9219,243.34245 L1394.1443,242.9104 L1394.2615,242.74632 L1395.1276,241.85696 L1395.1826,241.65689 L1395.4253,241.65689 L1395.8229,241.453 L1396.3807,239.94513 L1396.9818,239.23369 L1397.3562,238.79924 L1398.3878,235.97964 L1398.5663,235.97964 L1399.5118,233.65536 L1400.2933,232.73521 L1400.4692,232.13008 L1401.6774,230.59616 L1401.8098,230.59616 L1401.9547,229.98286 L1402.7839,228.68544 L1403.5973,226.96037 L1404.8331,224.14786 L1405.2258,223.62433 L1405.6171,223.17479 L1406.2363,221.83383 L1406.7137,221.34853 L1407.6285,219.93974 L1408.338,218.4699 L1408.5721,218.07317 L1408.981,217.78363 L1409.3912,217.40636 L1410.0377,216.95782 L1410.2479,216.78047 L1410.3776,216.78047 L1410.4685,216.78047 L1410.5559,216.78047 L1410.6779,216.78047 L1410.7804,216.628 L1410.9092,216.42645 L1411.6224,215.45428 L1411.7968,215.35544 L1411.996,215.35544 L1412.5498,214.73105 L1413.1868,212.29375 L1413.3191,212.01907 L1413.6473,211.55882 L1413.7981,211.55882 L1414.4143,209.38356 L1415.1086,208.19489 L1415.474,207.17795 L1415.883,206.02654 L1416.3477,204.97375 L1416.6725,204.97375 L1416.9442,204.70549 L1417.3828,204.23187 L1417.5168,203.84947 L1417.6093,203.6743 L1417.7014,203.6743 L1418.1302,203.47664" fill="transparent" id="track" stroke="black" stroke-width="2"/>
</g>
<g id="SL" transform="translate(0 0)">
<text text-anchor="end" x="0" y="363.5">
0
</text>
<text text-anchor="end" x="0" y="315.7">
200
</text>
<text text-anchor="end" x="0" y="267.9">
400
</text>
<text text-anchor="end" x="0" y="220.1">
600
</text>
<text text-anchor="end" x="0" y="172.3">
800
</text>
<text text-anchor="end" x="0" y="124.5">
1000
</text>
<text text-anchor="end" x="0" y="76.69999999999999">
1200
</text>
<text text-anchor="end" x="0" y="28.900000000000034">
1400
</text>
</g>
</g>
</svg>