<svg height="400" width="1440" xmlns="http://www.w3.org/2000/svg">
<g font-family="Libertinus Serif" font-size="15" id="world" shape-rendering="crispEdges" transform="translate(5 5)">
<g id="BG"/>
<g id="SL" transform="translate(71 360) scale(-1 -1)">
<text text-anchor="end" transform="translate(10 -5) scale(-1 -1)">
0
</text>
<text text-anchor="end" transform="translate(10 43) scale(-1 -1)">
200
</text>
<text text-anchor="end" transform="translate(10 91) scale(-1 -1)">
400
</text>
<text text-anchor="end" transform="translate(10 139) scale(-1 -1)">
600
</text>
<text text-anchor="end" transform="translate(10 187) scale(-1 -1)">
800
</text>
<text text-anchor="end" transform="translate(10 235) scale(-1 -1)">
1000
</text>
<text text-anchor="end" transform="translate(10 283) scale(-1 -1)">
1200
</text>
<text text-anchor="end" transform="translate(10 331) scale(-1 -1)">
1400
</text>
</g>
<g id="SB" transform="translate(71 360)">
<text text-anchor="middle" transform="translate(192 25)">
0
</text>
<text text-anchor="middle" transform="translate(385 25)">
20
</text>
<text text-anchor="middle" transform="translate(578 25)">
40
</text>
<text text-anchor="middle" transform="translate(770 25)">
60
</text>
<text text-anchor="middle" transform="translate(963 25)">
80
</text>
<text text-anchor="middle" transform="translate(1156 25)">
100
</text>
</g>
<g id="SD" transform="translate(71 360) scale(1 -1) scale(1 1)">
<path d="M0,0 L0,360 L1349,360 L1349,0 L0,0" fill="lightgray" id="bg"/>
<path d="M0,0 L1349,0" stroke="black" stroke-width="3"/>
<path d="M0,0 L0,360" stroke="black" stroke-width="3"/>
<path d="M0,360 L1349,360" stroke="black" stroke-width="3"/>
<path d="M1349,0 L1349,360" stroke="black" stroke-width="3"/>
<path d="M192,0 L192,360" stroke="black" stroke-width="1"/>
<path d="M385,0 L385,360" stroke="black" stroke-width="1"/>
<path d="M578,0 L578,360" stroke="black" stroke-width="1"/>
<path d="M770,0 L770,360" stroke="black" stroke-width="1"/>
<path d="M963,0 L963,360" stroke="black" stroke-width="1"/>
<path d="M1156,0 L1156,360" stroke="black" stroke-width="1"/>
<path d="M96,0 L96,360" stroke="black" stroke-dasharray="1.0,2.5,5.0,5.0,10.0,5.0"/>
<path d="M289,0 L289,360" stroke="black" stroke-dasharray="1.0,2.5,5.0,5.0,10.0,5.0"/>
<path d="M481,0 L481,360" stroke="black" stroke-dasharray="1.0,2.5,5.0,5.0,10.0,5.0"/>
<path d="M674,0 L674,360" stroke="black" stroke-dasharray="1.0,2.5,5.0,5.0,10.0,5.0"/>
<path d="M867,0 L867,360" stroke="black" stroke-dasharray="1.0,2.5,5.0,5.0,10.0,5.0"/>
<path d="M1059,0 L1059,360" stroke="black" stroke-dasharray="1.0,2.5,5.0,5.0,10.0,5.0"/>
<path d="M1252,0 L1252,360" stroke="black" stroke-dasharray="1.0,2.5,5.0,5.0,10.0,5.0"/>
<path d="M0,0 L1349,0" stroke="black" stroke-width="1"/>
<path d="M0,48 L1349,48" stroke="black" stroke-width="1"/>
<path d="M0,96 L1349,96" stroke="black" stroke-width="1"/>
<path d="M0,144 L1349,144" stroke="black" stroke-width="1"/>
<path d="M0,192 L1349,192" stroke="black" stroke-width="1"/>
<path d="M0,240 L1349,240" stroke="black" stroke-width="1"/>
<path d="M0,288 L1349,288" stroke="black" stroke-width="1"/>
<path d="M0,336 L1349,336" stroke="black" stroke-width="1"/>
<path d="M0,24 L1349,24" stroke="black" stroke-dasharray="1.0,2.5,5.0,5.0,10.0,5.0"/>
<path d="M0,72 L1349,72" stroke="black" stroke-dasharray="1.0,2.5,5.0,5.0,10.0,5.0"/>
<path d="M0,120 L1349,120" stroke="black" stroke-dasharray="1.0,2.5,5.0,5.0,10.0,5.0"/>
<path d="M0,168 L1349,168" stroke="black" stroke-dasharray="1.0,2.5,5.0,5.0,10.0,5.0"/>
<path d="M0,216 L1349,216" stroke="black" stroke-dasharray="1.0,2.5,5.0,5.0,10.0,5.0"/>
<path d="M0,264 L1349,264" stroke="black" stroke-dasharray="1.0,2.5,5.0,5.0,10.0,5.0"/>
<path d="M0,312 L1349,312" stroke="black" stroke-dasharray="1.0,2.5,5.0,5.0,10.0,5.0"/>
<path d="M0,360 L1349,360" stroke="black" stroke-dasharray="1.0,2.5,5.0,5.0,10.0,5.0"/>
<path d="M192,166 L192,166 L192,166 L192,166 L193,166 L193,166 L193,166 L193,166 L193,166 L194,166 L194,166 L195,166 L195,166 L196,166 L196,166 L196,166 L197,166 L197,166 L197,166 L198,166 L198,166 L198,166 L199,166 L199,166 L199,166 L200,166 L200,166 L200,166 L201,166 L201,166 L202,166 L202,166 L203,166 L203,166 L204,166 L204,166 L205,166 L205,166 L205,166 L206,166 L207,166 L208,166 L208,166 L209,166 L209,166 L210,166 L210,166 L211,166 L211,166 L212,166 L216,167 L219,168 L220,168 L221,168 L222,168 L222,168 L222,168 L223,168 L224,168 L228,168 L228,169 L228,169 L229,169 L229,169 L230,168 L232,169 L232,169 L233,169 L233,169 L234,169 L234,169 L235,169 L236,169 L236,169 L236,169 L236,169 L236,170 L237,170 L237,170 L237,170 L237,170 L238,170 L238,170 L238,170 L238,170 L239,170 L239,170 L240,170 L240,170 L241,170 L242,170 L242,170 L242,170 L242,170 L242,170 L243,170 L244,170 L244,170 L245,170 L245,170 L245,170 L246,170 L247,171 L247,171 L247,172 L248,172 L248,172 L248,172 L249,172 L249,172 L249,172 L250,172 L250,172 L250,172 L251,172 L251,172 L251,172 L251,172 L251,172 L251,172 L252,172 L252,172 L252,172 L252,172 L252,172 L253,173 L253,173 L254,174 L254,174 L254,174 L255,174 L255,174 L256,174 L257,174 L257,174 L258,174 L259,174 L259,174 L260,174 L260,174 L260,174 L261,174 L264,173 L266,173 L267,174 L268,174 L269,174 L269,174 L270,174 L271,174 L272,174 L272,174 L273,174 L273,175 L274,175 L274,174 L274,174 L276,174 L276,173 L277,174 L279,174 L280,175 L281,175 L283,176 L284,176 L285,176 L285,175 L286,175 L287,175 L288,175 L289,175 L289,175 L290,175 L290,175 L292,176 L294,176 L294,177 L295,177 L296,177 L296,177 L296,177 L297,177 L297,177 L298,177 L299,177 L299,177 L299,177 L300,177 L301,177 L301,177 L301,177 L303,178 L303,178 L303,178 L303,178 L304,178 L304,178 L304,178 L307,179 L308,179 L308,179 L308,179 L309,179 L309,179 L310,179 L310,179 L310,179 L311,179 L311,179 L312,180 L313,180 L314,180 L314,180 L315,179 L316,179 L316,179 L317,179 L320,180 L320,181 L321,181 L321,181 L322,181 L322,181 L323,181 L325,181 L326,181 L326,181 L327,181 L327,181 L327,181 L327,181 L327,181 L328,181 L328,181 L328,181 L329,181 L329,182 L330,183 L330,184 L331,184 L331,184 L331,185 L332,185 L332,185 L333,185 L333,184 L334,184 L334,184 L335,184 L335,184 L335,184 L336,183 L337,183 L337,184 L337,184 L337,184 L338,184 L338,184 L340,183 L340,184 L341,184 L341,184 L341,184 L342,184 L342,184 L344,185 L346,185 L347,185 L347,185 L347,185 L347,185 L348,185 L348,185 L350,190 L351,190 L351,190 L352,190 L352,190 L353,191 L353,191 L354,192 L354,192 L354,192 L355,192 L356,193 L356,193 L356,193 L357,194 L357,194 L358,194 L358,194 L358,194 L359,194 L359,194 L359,194 L360,194 L360,195 L360,195 L362,196 L362,198 L363,199 L364,201 L364,201 L364,201 L365,202 L366,203 L366,203 L366,203 L366,203 L366,203 L366,203 L367,203 L367,203 L367,203 L367,203 L367,203 L367,203 L368,204 L368,204 L368,204 L368,204 L369,204 L369,204 L369,204 L369,204 L370,205 L371,205 L371,205 L373,205 L374,206 L375,206 L375,206 L375,206 L376,206 L377,206 L377,207 L378,207 L379,207 L379,207 L379,208 L380,207 L381,207 L382,208 L382,208 L382,207 L382,207 L383,207 L383,208 L385,210 L385,210 L386,210 L386,210 L386,210 L387,211 L387,211 L388,210 L388,210 L388,210 L389,210 L389,210 L389,211 L390,211 L390,211 L391,211 L391,211 L392,212 L393,212 L393,212 L393,212 L394,213 L394,213 L394,213 L395,213 L395,213 L396,213 L396,213 L396,214 L396,214 L397,214 L398,215 L398,215 L399,216 L399,216 L401,217 L402,218 L403,218 L403,218 L403,218 L404,218 L404,219 L405,219 L405,219 L406,219 L407,220 L408,220 L408,221 L409,221 L409,221 L409,221 L410,222 L411,222 L411,222 L412,223 L412,223 L413,224 L413,224 L414,224 L414,225 L415,225 L415,225 L415,225 L416,226 L417,227 L417,227 L418,228 L418,228 L418,228 L418,229 L419,229 L420,229 L420,229 L420,229 L420,229 L420,229 L420,229 L421,229 L421,229 L421,229 L421,229 L421,229 L422,229 L422,229 L422,229 L422,229 L423,229 L423,229 L423,229 L423,229 L424,230 L424,230 L424,230 L424,230 L426,231 L426,234 L427,234 L427,235 L428,235 L428,236 L428,236 L429,236 L429,237 L430,237 L431,240 L431,240 L432,241 L433,242 L434,244 L434,244 L435,245 L435,245 L436,245 L438,239 L439,236 L439,236 L440,236 L440,233 L441,232 L441,232 L442,231 L442,231 L442,230 L443,230 L444,228 L445,227 L446,227 L446,226 L447,226 L448,224 L449,222 L449,222 L450,221 L451,219 L452,219 L453,217 L453,216 L453,215 L454,215 L455,215 L455,215 L455,214 L455,214 L457,213 L459,212 L460,212 L460,212 L460,212 L460,212 L461,212 L461,212 L461,212 L463,213 L463,213 L464,212 L465,212 L465,211 L465,211 L466,211 L466,211 L466,211 L466,211 L466,211 L467,211 L467,211 L467,211 L467,211 L467,211 L467,211 L467,211 L467,211 L468,210 L469,210 L469,210 L470,209 L470,209 L470,209 L470,209 L470,209 L471,209 L471,209 L471,209 L471,209 L471,209 L471,209 L471,209 L471,209 L472,209 L472,209 L472,209 L473,208 L473,208 L473,208 L473,208 L474,208 L474,208 L475,208 L475,208 L475,208 L475,207 L475,207 L475,207 L475,207 L476,207 L476,207 L476,207 L476,207 L477,207 L477,207 L477,207 L478,207 L478,207 L479,207 L479,208 L479,208 L479,208 L479,208 L480,207 L480,207 L482,206 L482,206 L482,206 L482,206 L482,206 L483,206 L483,206 L483,206 L483,206 L483,206 L483,206 L484,206 L484,206 L484,206 L484,206 L485,207 L485,207 L485,207 L486,207 L486,207 L486,207 L486,207 L487,207 L488,207 L488,207 L488,206 L488,206 L489,206 L489,206 L489,206 L491,207 L491,208 L491,208 L492,208 L492,208 L493,208 L493,208 L493,208 L494,207 L494,207 L495,207 L495,206 L495,206 L495,206 L496,206 L496,206 L497,208 L498,208 L498,208 L499,209 L499,209 L499,209 L499,209 L499,209 L500,209 L500,209 L500,209 L501,209 L501,210 L502,210 L502,210 L503,211 L503,211 L504,211 L505,211 L505,211 L506,212 L507,212 L507,212 L508,212 L509,212 L509,212 L510,212 L510,212 L510,212 L511,212 L511,212 L513,212 L514,213 L514,213 L515,213 L515,213 L516,213 L516,213 L517,213 L517,213 L517,213 L517,213 L520,216 L520,216 L521,216 L522,216 L522,216 L525,217 L525,218 L527,219 L528,221 L530,219 L531,219 L531,219 L531,219 L532,219 L533,219 L533,220 L534,220 L535,220 L535,220 L535,220 L536,220 L536,221 L536,221 L537,221 L537,222 L538,222 L538,223 L539,224 L539,224 L539,224 L540,225 L540,225 L540,225 L541,226 L542,226 L542,226 L542,227 L543,227 L543,227 L543,227 L544,227 L544,227 L544,228 L545,228 L545,228 L545,228 L546,229 L547,229 L547,230 L547,230 L547,230 L548,230 L548,230 L548,230 L548,230 L548,230 L548,230 L548,230 L549,230 L549,231 L549,231 L550,231 L550,233 L551,235 L551,237 L552,238 L552,239 L553,239 L553,239 L553,239 L553,239 L554,239 L554,239 L554,240 L555,240 L555,240 L555,240 L556,240 L556,240 L556,240 L556,241 L557,241 L558,243 L559,244 L559,244 L560,245 L561,245 L562,244 L562,244 L563,244 L563,244 L563,244 L563,245 L564,245 L565,247 L566,247 L566,247 L567,245 L568,243 L569,243 L569,243 L569,243 L570,242 L570,242 L570,242 L571,241 L571,240 L572,240 L572,240 L573,239 L573,239 L573,239 L573,239 L573,239 L574,239 L574,239 L574,239 L574,239 L575,239 L575,239 L575,239 L575,239 L575,239 L576,239 L576,239 L576,239 L577,240 L577,241 L577,241 L578,242 L578,242 L579,242 L579,242 L579,242 L579,242 L580,242 L580,243 L581,243 L581,243 L582,242 L583,241 L584,241 L584,241 L584,240 L585,240 L585,240 L585,240 L586,240 L588,240 L590,240 L590,241 L590,241 L590,241 L590,241 L591,241 L592,240 L592,240 L592,239 L593,237 L593,237 L594,235 L594,235 L594,235 L594,234 L595,234 L595,234 L595,234 L595,234 L595,233 L596,233 L596,233 L596,233 L596,233 L596,233 L597,232 L597,231 L598,230 L599,229 L599,228 L599,228 L600,228 L600,228 L601,228 L601,227 L601,227 L602,226 L602,226 L602,226 L603,226 L603,226 L603,226 L603,225 L604,225 L604,225 L604,225 L607,222 L607,221 L608,218 L609,217 L609,216 L610,215 L610,215 L610,215 L610,214 L611,214 L611,213 L611,213 L612,212 L612,212 L612,212 L613,211 L613,211 L613,211 L614,210 L614,210 L615,210 L615,210 L615,210 L615,210 L616,210 L616,210 L616,210 L617,210 L617,210 L617,211 L617,211 L618,211 L618,212 L618,213 L619,214 L619,214 L620,215 L620,215 L620,215 L621,215 L621,216 L621,217 L622,217 L622,217 L623,219 L623,219 L623,219 L624,220 L624,220 L624,221 L626,222 L626,222 L626,223 L627,223 L627,224 L627,224 L628,224 L628,224 L628,224 L628,224 L628,224 L628,224 L629,224 L629,224 L629,225 L629,225 L630,225 L630,225 L630,226 L632,231 L632,232 L632,233 L632,233 L633,233 L633,233 L634,234 L635,235 L635,235 L635,235 L636,234 L636,234 L637,234 L637,233 L638,233 L639,233 L639,233 L640,233 L640,233 L641,233 L642,233 L642,232 L643,231 L644,229 L644,228 L645,228 L645,228 L645,228 L645,228 L645,228 L645,228 L646,228 L646,228 L646,228 L646,228 L647,228 L647,227 L647,227 L647,227 L648,227 L648,227 L648,227 L648,227 L648,227 L649,227 L649,227 L650,227 L650,227 L650,227 L650,227 L651,227 L651,227 L651,226 L652,226 L652,226 L653,225 L653,224 L654,223 L655,222 L655,221 L656,221 L657,221 L657,221 L657,221 L657,220 L657,220 L657,219 L657,219 L658,219 L658,219 L659,219 L659,219 L659,219 L659,218 L659,218 L659,218 L660,216 L661,215 L661,214 L662,214 L662,214 L662,214 L662,214 L663,214 L663,214 L663,214 L663,214 L664,214 L664,214 L664,213 L664,213 L665,212 L665,213 L666,210 L666,210 L666,209 L667,209 L667,207 L667,207 L668,206 L668,203 L669,199 L670,198 L670,198 L670,197 L671,196 L672,196 L673,192 L674,190 L675,190 L675,189 L676,188 L677,188 L677,188 L677,188 L679,188 L680,188 L680,188 L681,188 L681,188 L682,186 L683,185 L684,182 L684,182 L684,182 L685,182 L685,183 L685,183 L686,183 L686,183 L687,183 L687,183 L687,183 L687,183 L688,183 L688,183 L688,183 L688,183 L689,183 L689,182 L689,182 L689,181 L690,181 L690,179 L691,179 L691,179 L691,178 L691,178 L692,178 L692,178 L692,178 L692,177 L693,177 L693,177 L694,177 L694,177 L694,175 L696,170 L696,170 L697,169 L697,169 L697,168 L697,168 L698,168 L698,166 L699,165 L699,164 L700,164 L700,163 L700,163 L701,163 L701,163 L701,162 L702,162 L702,161 L702,161 L703,160 L703,160 L703,160 L704,160 L704,159 L705,158 L706,157 L707,156 L707,156 L707,156 L708,156 L708,156 L709,155 L709,154 L710,153 L710,153 L711,153 L711,153 L712,152 L712,151 L712,150 L713,148 L714,147 L714,147 L714,147 L714,146 L715,147 L715,147 L715,147 L715,147 L716,147 L716,146 L717,146 L717,146 L717,147 L717,147 L718,146 L718,146 L719,146 L719,146 L719,145 L719,145 L719,145 L720,145 L720,145 L720,145 L721,144 L721,143 L722,140 L722,140 L722,140 L722,139 L722,139 L723,139 L723,139 L723,139 L723,139 L723,139 L723,139 L723,139 L723,139 L723,139 L723,139 L724,139 L724,138 L724,138 L725,137 L725,137 L726,137 L726,136 L727,135 L728,134 L728,134 L728,133 L728,133 L729,133 L729,132 L730,131 L731,130 L731,130 L732,130 L732,129 L732,129 L732,129 L733,129 L733,129 L733,129 L734,129 L734,129 L734,128 L735,128 L735,128 L736,127 L736,127 L736,128 L738,126 L738,125 L738,125 L739,125 L739,125 L739,125 L739,125 L740,125 L740,124 L740,124 L740,124 L740,124 L741,124 L742,123 L742,123 L743,123 L743,122 L743,122 L744,122 L745,121 L745,121 L745,121 L745,121 L746,121 L746,121 L746,121 L747,121 L748,121 L748,120 L748,120 L749,120 L749,119 L749,119 L750,119 L750,119 L750,119 L751,118 L751,118 L751,118 L751,118 L751,118 L751,118 L752,118 L752,118 L752,118 L752,118 L752,118 L753,118 L753,118 L753,118 L753,118 L753,118 L754,118 L754,118 L754,118 L754,118 L755,117 L756,116 L756,116 L757,115 L757,115 L758,115 L758,115 L758,115 L759,115 L759,114 L759,114 L760,114 L761,114 L761,114 L761,114 L762,114 L762,114 L762,114 L763,113 L763,113 L764,113 L764,112 L764,112 L765,112 L765,112 L765,112 L765,112 L766,112 L766,112 L766,112 L767,111 L767,111 L767,111 L768,111 L768,111 L768,111 L768,111 L768,111 L768,111 L769,111 L769,111 L769,111 L769,111 L770,111 L770,112 L770,112 L771,113 L771,113 L772,114 L772,116 L773,117 L774,118 L774,119 L776,120 L776,122 L777,122 L777,122 L778,124 L779,125 L779,127 L780,127 L781,129 L782,131 L782,133 L784,136 L784,136 L784,136 L785,137 L785,138 L786,139 L787,143 L787,143 L788,144 L788,147 L790,148 L790,148 L790,148 L790,148 L790,148 L791,148 L791,148 L791,148 L792,147 L792,147 L792,146 L792,144 L793,142 L794,139 L794,135 L795,133 L795,132 L795,131 L795,131 L796,131 L796,131 L796,131 L796,130 L796,130 L796,130 L797,130 L797,129 L797,129 L798,128 L798,128 L798,128 L799,127 L799,127 L799,127 L799,127 L800,127 L800,126 L801,126 L801,126 L801,126 L802,125 L802,125 L802,125 L802,125 L802,125 L802,125 L802,125 L802,125 L804,123 L805,119 L805,118 L805,118 L805,117 L806,117 L806,116 L806,116 L807,116 L807,114 L807,114 L807,114 L808,113 L809,112 L809,111 L810,109 L810,109 L811,107 L811,107 L812,107 L812,105 L812,105 L813,104 L813,103 L813,102 L814,101 L814,99 L815,98 L815,98 L815,97 L816,97 L816,96 L816,96 L816,96 L817,95 L818,94 L818,93 L819,89 L820,89 L820,89 L820,88 L821,88 L821,88 L821,88 L821,87 L822,87 L823,87 L823,87 L823,87 L824,87 L824,87 L824,87 L825,87 L825,87 L825,87 L827,83 L828,82 L828,83 L828,83 L828,83 L829,83 L830,83 L830,84 L831,84 L831,83 L832,80 L833,78 L833,77 L833,77 L834,77 L834,76 L834,76 L835,76 L835,76 L835,76 L836,77 L836,76 L836,76 L837,75 L838,74 L838,73 L838,72 L839,72 L839,72 L840,71 L840,71 L841,70 L841,70 L842,70 L842,69 L843,69 L843,69 L843,69 L844,69 L845,68 L845,68 L846,68 L846,68 L846,68 L846,68 L847,67 L848,66 L848,66 L849,65 L850,65 L850,64 L850,64 L850,64 L851,64 L851,64 L851,64 L851,63 L851,63 L852,63 L852,63 L853,62 L853,62 L853,62 L853,62 L854,62 L854,62 L854,62 L855,61 L855,61 L855,61 L855,61 L856,61 L856,61 L856,61 L856,61 L857,61 L857,60 L857,60 L857,60 L858,60 L858,60 L858,60 L858,60 L858,60 L858,60 L859,60 L859,60 L860,60 L860,60 L861,60 L862,59 L862,59 L863,59 L863,59 L863,59 L864,59 L864,59 L864,59 L864,59 L865,59 L865,59 L866,59 L867,60 L867,59 L868,59 L869,58 L869,58 L870,57 L870,57 L871,57 L872,56 L873,55 L875,54 L875,54 L878,53 L878,53 L878,53 L878,53 L879,53 L880,53 L880,53 L881,53 L881,53 L881,53 L881,53 L881,53 L882,53 L883,53 L884,52 L884,52 L884,52 L884,52 L884,52 L885,52 L885,52 L885,52 L886,52 L886,52 L886,52 L886,52 L887,51 L888,51 L888,51 L889,51 L889,51 L889,51 L889,51 L889,51 L890,51 L890,51 L890,51 L890,51 L890,51 L891,51 L891,51 L892,51 L892,51 L892,51 L892,51 L893,51 L894,51 L894,51 L895,51 L897,51 L899,51 L900,52 L901,52 L901,52 L903,52 L904,52 L904,52 L904,52 L905,52 L905,52 L907,53 L907,53 L908,54 L908,54 L908,54 L909,55 L909,55 L910,55 L910,55 L910,56 L910,56 L911,57 L911,57 L911,57 L912,58 L913,59 L913,59 L913,59 L914,59 L914,59 L914,59 L914,58 L915,58 L915,58 L915,58 L915,58 L916,58 L916,58 L916,58 L917,58 L917,58 L917,58 L919,60 L919,61 L920,61 L920,62 L921,62 L921,62 L921,62 L921,62 L922,62 L922,62 L922,62 L922,62 L923,62 L923,62 L923,62 L924,62 L924,62 L925,63 L925,63 L926,63 L926,64 L927,65 L928,65 L928,65 L929,66 L929,66 L930,67 L930,68 L931,68 L931,69 L932,69 L932,69 L932,70 L933,70 L933,70 L933,71 L934,71 L934,71 L935,73 L935,73 L936,73 L936,73 L937,73 L937,73 L938,75 L939,76 L940,77 L940,77 L940,77 L941,79 L943,82 L943,83 L943,83 L946,87 L946,89 L947,89 L948,91 L948,91 L949,92 L950,94 L950,97 L951,98 L951,98 L952,99 L952,100 L953,101 L954,101 L954,102 L954,102 L954,103 L956,104 L957,104 L957,104 L957,105 L958,106 L958,106 L959,107 L959,108 L959,108 L959,109 L960,110 L961,111 L961,111 L961,111 L961,113 L961,114 L962,115 L963,117 L963,117 L963,117 L964,118 L965,118 L965,118 L966,124 L967,126 L967,127 L968,127 L968,127 L968,127 L968,127 L968,127 L968,127 L968,128 L969,128 L969,128 L969,128 L969,128 L969,128 L969,129 L969,130 L970,130 L970,131 L970,132 L971,133 L971,134 L971,135 L971,135 L971,136 L971,136 L972,137 L972,139 L973,140 L974,144 L974,145 L975,147 L975,147 L976,147 L976,148 L977,148 L977,148 L977,149 L978,150 L978,150 L979,151 L979,151 L979,152 L980,153 L980,154 L981,155 L982,156 L982,156 L982,158 L983,159 L984,165 L985,168 L985,168 L986,167 L986,167 L986,168 L986,167 L987,167 L987,166 L988,164 L989,163 L989,163 L989,162 L990,161 L990,161 L990,161 L991,160 L991,160 L992,159 L992,159 L992,157 L993,157 L993,155 L993,155 L994,152 L994,152 L995,151 L995,151 L995,150 L996,149 L996,149 L996,149 L996,149 L996,149 L997,148 L997,148 L997,147 L999,141 L999,140 L999,139 L1000,139 L1000,139 L1000,139 L1000,139 L1000,139 L1001,139 L1001,139 L1001,139 L1001,139 L1002,139 L1002,139 L1003,137 L1004,136 L1005,137 L1005,137 L1005,137 L1005,137 L1006,138 L1007,139 L1007,141 L1008,143 L1008,144 L1009,145 L1009,147 L1010,149 L1010,150 L1010,150 L1011,152 L1011,153 L1011,153 L1012,153 L1012,154 L1012,154 L1012,155 L1012,156 L1013,157 L1013,157 L1014,162 L1014,163 L1014,163 L1014,164 L1015,165 L1015,165 L1015,165 L1015,165 L1016,166 L1016,167 L1016,167 L1016,168 L1017,169 L1017,170 L1018,170 L1018,170 L1018,171 L1018,171 L1018,172 L1019,172 L1019,173 L1019,174 L1020,176 L1021,177 L1021,178 L1021,179 L1022,180 L1022,180 L1022,181 L1023,182 L1023,182 L1024,183 L1024,183 L1024,183 L1025,183 L1025,183 L1026,183 L1026,184 L1028,186 L1028,186 L1028,186 L1029,186 L1029,186 L1032,187 L1033,187 L1033,187 L1034,187 L1035,188 L1035,188 L1035,188 L1036,188 L1036,188 L1036,189 L1037,189 L1037,189 L1037,189 L1037,189 L1037,189 L1037,189 L1038,189 L1038,190 L1039,190 L1039,190 L1039,191 L1040,192 L1040,192 L1041,191 L1041,191 L1041,191 L1042,191 L1042,191 L1042,191 L1042,191 L1044,192 L1045,192 L1046,192 L1047,190 L1047,190 L1048,188 L1048,186 L1049,185 L1049,185 L1050,184 L1050,183 L1050,183 L1051,183 L1051,183 L1052,182 L1052,181 L1052,181 L1053,179 L1054,179 L1054,178 L1055,178 L1055,178 L1055,178 L1056,178 L1058,175 L1059,173 L1059,172 L1060,172 L1060,172 L1060,172 L1061,171 L1061,171 L1062,170 L1062,169 L1062,168 L1063,168 L1063,168 L1063,167 L1063,166 L1064,166 L1064,165 L1064,165 L1065,162 L1065,161 L1066,160 L1067,160 L1067,160 L1067,160 L1067,159 L1068,158 L1068,158 L1068,158 L1069,158 L1069,157 L1069,157 L1070,156 L1070,154 L1070,154 L1071,153 L1071,152 L1071,150 L1072,149 L1072,149 L1072,147 L1073,146 L1073,145 L1073,145 L1073,144 L1074,142 L1074,140 L1075,135 L1076,133 L1076,133 L1076,133 L1077,132 L1077,131 L1077,131 L1077,131 L1077,130 L1078,130 L1078,128 L1079,127 L1079,127 L1079,126 L1080,125 L1080,125 L1080,125 L1080,125 L1080,125 L1080,125 L1080,124 L1081,124 L1082,123 L1082,122 L1082,120 L1083,118 L1084,115 L1084,115 L1085,114 L1085,113 L1085,113 L1086,113 L1087,110 L1087,109 L1087,108 L1088,106 L1088,106 L1088,106 L1089,105 L1090,103 L1090,103 L1090,101 L1091,100 L1091,100 L1092,98 L1093,97 L1093,96 L1094,96 L1094,96 L1094,96 L1095,95 L1096,95 L1097,95 L1098,91 L1098,91 L1099,90 L1099,90 L1099,90 L1099,90 L1101,85 L1102,82 L1102,82 L1103,81 L1103,81 L1103,80 L1104,80 L1104,80 L1104,80 L1104,80 L1104,80 L1105,79 L1105,79 L1105,79 L1105,79 L1106,79 L1106,79 L1107,79 L1107,79 L1108,79 L1108,79 L1108,79 L1108,79 L1109,79 L1109,78 L1109,78 L1110,78 L1110,78 L1110,78 L1110,77 L1111,77 L1111,76 L1111,76 L1112,75 L1112,75 L1113,75 L1113,75 L1113,75 L1113,75 L1113,75 L1114,75 L1114,75 L1115,75 L1115,75 L1115,75 L1115,75 L1116,75 L1116,76 L1116,76 L1117,76 L1117,76 L1118,77 L1118,77 L1119,77 L1119,77 L1119,77 L1120,77 L1120,77 L1121,77 L1122,78 L1122,78 L1123,78 L1123,78 L1123,78 L1124,78 L1124,78 L1125,78 L1126,78 L1126,78 L1126,78 L1127,78 L1128,79 L1129,80 L1129,80 L1129,80 L1129,80 L1130,80 L1130,80 L1130,80 L1131,80 L1131,81 L1132,81 L1132,81 L1132,81 L1133,81 L1133,81 L1134,81 L1134,82 L1134,82 L1135,82 L1135,82 L1135,82 L1136,83 L1136,83 L1138,83 L1138,84 L1138,84 L1139,85 L1140,85 L1141,85 L1141,85 L1142,85 L1143,85 L1143,85 L1143,86 L1144,86 L1144,86 L1144,86 L1145,87 L1145,87 L1146,87 L1146,87 L1147,87 L1147,87 L1148,87 L1148,87 L1148,87 L1149,87 L1149,87 L1149,87 L1149,87 L1150,87 L1151,87 L1151,87 L1151,87 L1151,87 L1152,87 L1153,87 L1153,88 L1155,88 L1155,88 L1155,88 L1156,89 L1156,89 L1157,89 L1157,89 L1157,89 L1157,90 L1158,90 L1159,91 L1159,91 L1160,91 L1161,91 L1161,91 L1162,91 L1162,91 L1163,91 L1163,91 L1163,92 L1163,92 L1164,93 L1164,93 L1164,94 L1165,95 L1165,95 L1165,95 L1166,95 L1166,95 L1166,96 L1167,96 L1167,95 L1167,95 L1168,95 L1168,93 L1169,93 L1169,93 L1169,93 L1169,93 L1169,93 L1169,93 L1170,93 L1170,93 L1171,94 L1171,96 L1171,96 L1172,98 L1173,99 L1173,99 L1173,99 L1173,100 L1174,100 L1175,100 L1175,101 L1176,101 L1178,104 L1178,104 L1179,105 L1179,106 L1179,106 L1179,106 L1180,106 L1180,107 L1180,107 L1181,107 L1181,107 L1181,107 L1181,108 L1181,108 L1182,109 L1183,110 L1183,110 L1183,111 L1184,111 L1184,111 L1184,111 L1184,111 L1185,112 L1185,112 L1185,112 L1185,112 L1186,112 L1186,113 L1187,113 L1187,113 L1187,113 L1187,113 L1187,114 L1187,114 L1188,114 L1188,114 L1188,114 L1189,114 L1189,115 L1189,115 L1189,115 L1189,115 L1190,115 L1190,115 L1190,115 L1190,117 L1190,117 L1191,117 L1192,120 L1192,120 L1192,120 L1192,120 L1193,121 L1193,121 L1193,121 L1194,121 L1194,121 L1195,122 L1195,123 L1195,123 L1196,124 L1196,125 L1197,126 L1197,127 L1198,129 L1198,129 L1198,130 L1199,130 L1199,130 L1199,131 L1199,131 L1200,131 L1200,132 L1200,133 L1200,133 L1201,133 L1201,133 L1201,134 L1201,134 L1202,134 L1202,134 L1202,134 L1203,135 L1203,135 L1203,135 L1203,136 L1203,136 L1204,137 L1204,138 L1205,138 L1205,139 L1205,140 L1205,140 L1205,140 L1205,140 L1206,140 L1206,141 L1207,142 L1207,142 L1208,144 L1209,145 L1209,145 L1209,146 L1210,147 L1211,147 L1211,147 L1212,147 L1212,147 L1213,149 L1214,151 L1215,151 L1215,151 L1216,152 L1216,152 L1216,152 L1216,152 L1217,153 L1217,154 L1218,157 L1219,159 L1219,159 L1219,159 L1219,159 L1219,159 L1219,159 L1220,159 L1220,159 L1221,159 L1221,159 L1221,159 L1222,160 L1222,160 L1222,160 L1222,160 L1222,160 L1223,160 L1223,161 L1224,164 L1225,164 L1225,164 L1225,164 L1225,164 L1225,165 L1226,165 L1226,165 L1226,166 L1227,169 L1227,169 L1228,170 L1228,170 L1228,171 L1229,171 L1229,171 L1229,171 L1229,172 L1229,172 L1230,172 L1230,172 L1230,172 L1233,177 L1233,177 L1233,177 L1234,178 L1234,178 L1234,179 L1234,180 L1235,181 L1236,181 L1236,181 L1236,181 L1236,181 L1236,181 L1237,181 L1237,181 L1237,181 L1237,180 L1238,179 L1238,179 L1238,179 L1239,178 L1239,178 L1239,178 L1239,178 L1239,178 L1239,178 L1240,178 L1240,177 L1241,177 L1242,175 L1243,174 L1243,173 L1243,173 L1243,172 L1244,172 L1244,171 L1244,171 L1245,171 L1245,170 L1245,170 L1246,170 L1246,169 L1246,169 L1246,169 L1247,169 L1247,167 L1248,166 L1248,165 L1249,162 L1249,162 L1249,162 L1249,162 L1250,160 L1250,160 L1250,160 L1250,160 L1250,160 L1251,159 L1252,159 L1252,158 L1253,157 L1253,157 L1254,156 L1254,154 L1255,153 L1255,151 L1256,150 L1256,150 L1256,150 L1256,149 L1257,149 L1257,148 L1258,148 L1258,147 L1258,147 L1258,147 L1258,147 L1258,147 L1259,146 L1260,145 L1260,144 L1260,142 L1261,141 L1261,141 L1261,141 L1262,138 L1262,136 L1263,136 L1263,134 L1263,134 L1264,134 L1264,133 L1264,132 L1264,132 L1265,131 L1266,130 L1266,129 L1266,128 L1267,128 L1267,127 L1268,123 L1269,117 L1270,118 L1270,117 L1270,117 L1270,117 L1270,117 L1271,116 L1271,116 L1272,116 L1272,116 L1272,116 L1272,115 L1273,115 L1273,115 L1273,114 L1274,112 L1274,112 L1274,112 L1275,110 L1275,110 L1276,109 L1276,109 L1276,107 L1276,107 L1277,107 L1277,107 L1277,107 L1278,106 L1278,106 L1278,106 L1278,106 L1279,105 L1279,104 L1280,103 L1280,102 L1281,102 L1281,101 L1282,101 L1282,101 L1282,101 L1283,101 L1284,101 L1284,101 L1284,100 L1285,100 L1285,100 L1285,100 L1285,100 L1286,100 L1286,100 L1286,100 L1286,100 L1287,100 L1287,100 L1287,99 L1288,98 L1288,97 L1288,97 L1289,97 L1289,97 L1289,96 L1289,96 L1290,96 L1290,95 L1290,95 L1290,95 L1291,94 L1291,94 L1291,94 L1291,94 L1291,94 L1291,94 L1292,94 L1292,94 L1292,94 L1292,94 L1292,94 L1292,94 L1293,94 L1294,94 L1294,95 L1295,96 L1295,96 L1295,96 L1296,96 L1296,96 L1296,96 L1296,96 L1297,97 L1298,97 L1298,98 L1298,98 L1298,98 L1300,98 L1300,98 L1300,98 L1301,99 L1301,99 L1301,99 L1301,100 L1301,100 L1302,100 L1302,100 L1303,101 L1303,101 L1305,104 L1306,104 L1306,104 L1307,104 L1307,104 L1308,104 L1308,104 L1308,104 L1308,104 L1308,104 L1309,104 L1309,104 L1309,105 L1310,105 L1310,105 L1310,106 L1311,106 L1311,106 L1311,106 L1311,107 L1312,108 L1312,108 L1313,108 L1313,108 L1313,108 L1313,108 L1314,108 L1314,108 L1315,109 L1315,109 L1315,109 L1315,109 L1315,109 L1316,109 L1317,109 L1317,109 L1317,109 L1318,109 L1319,110 L1319,110 L1319,110 L1320,110 L1320,110 L1320,110 L1320,110 L1321,110 L1321,110 L1321,110 L1321,110 L1321,111 L1321,111 L1322,111 L1322,111 L1323,111 L1323,111 L1324,112 L1324,112 L1325,112 L1325,112 L1325,112 L1325,112 L1325,112 L1326,112 L1326,113 L1326,113 L1326,113 L1326,113 L1327,113 L1327,113 L1327,114 L1328,114 L1328,114 L1328,115 L1328,115 L1329,116 L1329,116 L1329,117 L1329,117 L1330,117 L1330,117 L1330,119 L1331,119 L1331,120 L1332,123 L1332,123 L1333,125 L1334,126 L1334,126 L1335,128 L1335,128 L1335,129 L1336,130 L1336,132 L1337,134 L1338,135 L1338,135 L1339,137 L1339,137 L1340,139 L1340,140 L1340,141 L1341,141 L1341,141 L1342,142 L1342,142 L1342,142 L1342,142 L1342,142 L1342,142 L1342,142 L1342,142 L1343,143 L1343,143 L1343,143 L1344,144 L1344,146 L1344,147 L1345,147 L1345,147 L1345,149 L1346,150 L1346,151 L1346,153 L1347,154 L1347,154 L1347,154 L1348,154 L1348,155 L1348,155 L1348,155 L1348,155" fill="transparent" id="track" shape-rendering="geometricPrecision" stroke="black" stroke-width="3"/>
</g>
</g>
</svg>