<svg height="400" width="1420" xmlns="http://www.w3.org/2000/svg">
<g font-family="Libertinus Serif" font-size="15" id="world" shape-rendering="crispEdges">
<g id="BG"/>
<g id="SB" transform="translate(0 360)">
<text text-anchor="middle" x="0" y="15">
80
</text>
<text text-anchor="middle" x="202" y="15">
100
</text>
<text text-anchor="middle" x="405" y="15">
120
</text>
<text text-anchor="middle" x="608" y="15">
140
</text>
<text text-anchor="middle" x="810" y="15">
160
</text>
<text text-anchor="middle" x="1013" y="15">
180
</text>
<text text-anchor="middle" x="1216" y="15">
200
</text>
</g>
<g id="SD" transform="translate(0 360) scale(1 -1) scale(1 1)">
<path d="M0,0 L0,359 L1419,359 L1419,0 L0,0" fill="lightgray" id="bg"/>
<path d="M0,0 L1419,0" stroke="black" stroke-width="3"/>
<path d="M0,0 L0,359" stroke="black" stroke-width="3"/>
<path d="M0,359 L1419,359" stroke="black" stroke-width="3"/>
<path d="M1419,0 L1419,359" stroke="black" stroke-width="3"/>
<path d="M0,0 L0,359" stroke="black" stroke-width="1"/>
<path d="M202,0 L202,359" stroke="black" stroke-width="1"/>
<path d="M405,0 L405,359" stroke="black" stroke-width="1"/>
<path d="M608,0 L608,359" stroke="black" stroke-width="1"/>
<path d="M810,0 L810,359" stroke="black" stroke-width="1"/>
<path d="M1013,0 L1013,359" stroke="black" stroke-width="1"/>
<path d="M1216,0 L1216,359" stroke="black" stroke-width="1"/>
<path d="M101,0 L101,359" stroke="black" stroke-dasharray="1.0,2.5,5.0,5.0,10.0,5.0"/>
<path d="M304,0 L304,359" stroke="black" stroke-dasharray="1.0,2.5,5.0,5.0,10.0,5.0"/>
<path d="M506,0 L506,359" stroke="black" stroke-dasharray="1.0,2.5,5.0,5.0,10.0,5.0"/>
<path d="M709,0 L709,359" stroke="black" stroke-dasharray="1.0,2.5,5.0,5.0,10.0,5.0"/>
<path d="M912,0 L912,359" stroke="black" stroke-dasharray="1.0,2.5,5.0,5.0,10.0,5.0"/>
<path d="M1114,0 L1114,359" stroke="black" stroke-dasharray="1.0,2.5,5.0,5.0,10.0,5.0"/>
<path d="M1317,0 L1317,359" stroke="black" stroke-dasharray="1.0,2.5,5.0,5.0,10.0,5.0"/>
<path d="M0,0 L1419,0" stroke="black" stroke-width="1"/>
<path d="M0,47 L1419,47" stroke="black" stroke-width="1"/>
<path d="M0,95 L1419,95" stroke="black" stroke-width="1"/>
<path d="M0,143 L1419,143" stroke="black" stroke-width="1"/>
<path d="M0,191 L1419,191" stroke="black" stroke-width="1"/>
<path d="M0,239 L1419,239" stroke="black" stroke-width="1"/>
<path d="M0,287 L1419,287" stroke="black" stroke-width="1"/>
<path d="M0,335 L1419,335" stroke="black" stroke-width="1"/>
<path d="M0,23 L1419,23" stroke="black" stroke-dasharray="1.0,2.5,5.0,5.0,10.0,5.0"/>
<path d="M0,71 L1419,71" stroke="black" stroke-dasharray="1.0,2.5,5.0,5.0,10.0,5.0"/>
<path d="M0,119 L1419,119" stroke="black" stroke-dasharray="1.0,2.5,5.0,5.0,10.0,5.0"/>
<path d="M0,167 L1419,167" stroke="black" stroke-dasharray="1.0,2.5,5.0,5.0,10.0,5.0"/>
<path d="M0,215 L1419,215" stroke="black" stroke-dasharray="1.0,2.5,5.0,5.0,10.0,5.0"/>
<path d="M0,263 L1419,263" stroke="black" stroke-dasharray="1.0,2.5,5.0,5.0,10.0,5.0"/>
<path d="M0,311 L1419,311" stroke="black" stroke-dasharray="1.0,2.5,5.0,5.0,10.0,5.0"/>
<path d="M0,359 L1419,359" stroke="black" stroke-dasharray="1.0,2.5,5.0,5.0,10.0,5.0"/>
<path d="M0,116 L0,116 L1,118 L1,118 L1,118 L3,124 L3,126 L4,126 L5,127 L5,127 L5,127 L5,127 L5,127 L5,127 L5,127 L5,127 L5,128 L6,128 L6,128 L6,128 L6,129 L6,129 L6,130 L7,130 L7,131 L7,132 L8,133 L8,134 L8,135 L8,135 L8,135 L9,137 L9,138 L10,140 L11,144 L11,145 L12,146 L12,146 L13,147 L13,147 L14,147 L14,148 L15,148 L15,149 L15,149 L16,151 L16,151 L17,151 L17,153 L18,154 L18,155 L19,155 L19,155 L20,157 L20,158 L22,165 L22,167 L23,167 L23,167 L23,167 L24,167 L24,167 L24,166 L25,166 L26,164 L26,163 L27,162 L27,161 L28,161 L28,160 L28,160 L29,159 L29,159 L30,158 L30,158 L30,156 L31,156 L31,155 L31,154 L32,152 L32,152 L33,151 L33,150 L33,149 L34,149 L34,149 L34,149 L34,149 L34,148 L35,147 L35,147 L36,146 L37,141 L37,139 L38,139 L38,139 L38,139 L38,139 L39,139 L39,139 L39,139 L39,139 L39,139 L40,138 L40,138 L41,139 L42,137 L43,136 L43,136 L43,136 L44,136 L44,137 L45,138 L45,138 L46,141 L46,142 L47,144 L47,145 L48,146 L49,149 L49,150 L49,150 L50,152 L50,153 L50,153 L51,153 L51,153 L51,153 L51,155 L51,156 L52,156 L52,157 L53,161 L53,162 L53,162 L53,163 L54,165 L54,165 L54,165 L54,165 L55,165 L55,166 L55,166 L56,167 L56,168 L56,169 L57,169 L57,170 L57,170 L58,171 L58,171 L58,172 L58,172 L59,173 L60,175 L60,177 L61,178 L61,179 L61,179 L62,180 L62,180 L63,181 L63,182 L63,182 L64,182 L64,183 L64,183 L65,183 L65,183 L66,183 L67,185 L68,185 L68,185 L69,186 L69,186 L72,187 L73,187 L73,187 L74,187 L75,187 L75,187 L75,188 L76,188 L76,188 L77,188 L77,188 L77,188 L77,188 L77,188 L77,189 L78,189 L78,189 L79,189 L79,190 L79,190 L80,191 L80,191 L80,191 L81,191 L81,191 L82,191 L82,191 L83,191 L83,191 L83,191 L85,191 L86,191 L87,191 L88,190 L88,189 L89,187 L89,186 L90,185 L90,184 L91,184 L91,183 L91,183 L92,182 L92,182 L93,181 L93,181 L93,180 L94,179 L95,178 L95,178 L96,178 L96,178 L96,178 L97,177 L99,174 L100,173 L101,172 L101,172 L102,171 L102,171 L102,171 L103,171 L103,169 L103,169 L104,168 L104,168 L105,167 L105,167 L105,166 L105,166 L105,165 L106,165 L107,161 L107,161 L108,159 L108,159 L109,159 L109,159 L109,159 L110,158 L110,158 L110,158 L110,157 L111,157 L111,156 L112,156 L112,154 L112,153 L113,152 L113,151 L114,150 L114,149 L114,149 L114,147 L115,146 L115,145 L115,145 L116,143 L116,141 L117,139 L118,135 L118,133 L118,132 L119,132 L119,131 L119,131 L119,130 L119,130 L120,130 L120,130 L121,127 L121,127 L121,126 L122,126 L122,125 L122,125 L122,125 L123,125 L123,125 L123,124 L123,124 L124,124 L124,123 L125,122 L125,120 L126,117 L127,115 L127,114 L128,114 L128,113 L128,113 L129,112 L129,110 L130,109 L130,108 L131,106 L131,106 L131,105 L132,105 L133,103 L133,103 L133,101 L134,100 L134,100 L135,98 L136,97 L137,96 L137,96 L137,95 L138,95 L138,95 L139,95 L140,94 L141,91 L142,91 L142,90 L142,90 L142,89 L143,89 L145,85 L146,82 L146,81 L146,81 L146,81 L147,80 L148,80 L148,80 L148,80 L148,79 L148,79 L149,79 L149,79 L149,79 L149,79 L149,79 L150,79 L151,79 L151,79 L152,79 L152,79 L152,79 L152,78 L153,78 L153,78 L153,78 L154,78 L154,77 L154,77 L154,77 L155,76 L155,76 L155,75 L156,75 L156,75 L157,75 L157,75 L157,75 L157,75 L158,75 L158,75 L159,75 L159,75 L159,75 L160,75 L160,75 L160,75 L161,75 L161,76 L161,76 L161,76 L163,76 L163,77 L163,77 L163,77 L164,77 L164,77 L165,77 L166,77 L167,77 L167,77 L167,77 L168,77 L168,77 L168,77 L169,77 L170,77 L170,77 L171,77 L171,77 L172,78 L173,79 L174,80 L174,80 L174,80 L175,80 L175,80 L175,80 L176,80 L176,80 L176,80 L177,80 L177,81 L177,81 L178,81 L178,81 L179,81 L179,81 L179,81 L180,82 L181,82 L181,82 L181,82 L181,83 L183,83 L183,83 L184,84 L185,84 L186,85 L186,85 L187,85 L188,85 L188,85 L188,85 L189,85 L190,86 L190,86 L190,86 L191,87 L191,87 L192,87 L192,87 L193,87 L193,87 L194,87 L194,87 L194,87 L195,87 L195,86 L195,86 L195,86 L196,86 L197,87 L197,87 L198,87 L198,87 L199,87 L199,87 L199,88 L201,88 L202,88 L202,88 L203,88 L203,88 L203,89 L203,89 L204,89 L204,89 L205,90 L205,90 L206,91 L206,91 L208,91 L208,91 L209,91 L209,91 L209,91 L210,91 L210,91 L210,92 L211,92 L211,93 L211,94 L212,94 L212,95 L212,95 L212,95 L213,95 L213,96 L214,96 L214,95 L214,95 L215,94 L215,93 L216,93 L216,93 L216,93 L216,93 L216,93 L217,93 L217,93 L217,93 L218,94 L218,96 L219,96 L220,98 L220,98 L220,99 L220,99 L221,100 L222,100 L222,100 L223,101 L223,101 L225,104 L226,104 L226,105 L226,106 L227,106 L227,106 L227,106 L228,106 L228,106 L228,107 L228,107 L228,107 L229,107 L229,108 L230,109 L231,110 L231,110 L231,110 L232,110 L232,111 L232,111 L232,111 L233,111 L233,112 L233,112 L233,112 L234,112 L234,113 L235,113 L235,113 L235,113 L235,113 L235,113 L236,113 L236,114 L236,114 L236,114 L237,114 L237,114 L237,114 L237,114 L238,115 L238,115 L238,115 L238,115 L238,117 L239,117 L239,117 L240,120 L240,120 L240,120 L241,120 L241,121 L241,121 L242,121 L242,121 L242,121 L243,122 L243,122 L244,123 L244,124 L245,125 L245,126 L246,127 L247,129 L247,129 L247,129 L247,130 L247,130 L248,131 L248,131 L248,131 L249,132 L249,132 L249,132 L249,133 L250,133 L250,133 L250,133 L251,134 L251,134 L251,134 L252,135 L252,135 L252,135 L252,135 L252,136 L253,137 L253,138 L254,138 L254,139 L254,140 L254,140 L254,140 L254,140 L255,140 L255,141 L256,142 L256,142 L257,144 L258,144 L258,145 L259,145 L260,146 L260,146 L260,147 L261,147 L261,147 L262,148 L263,150 L264,150 L265,151 L265,151 L265,151 L265,151 L265,152 L266,152 L267,154 L267,157 L269,158 L269,158 L269,158 L269,158 L269,158 L269,158 L270,159 L270,159 L270,159 L271,159 L271,159 L272,159 L272,159 L272,159 L272,159 L272,159 L273,160 L273,160 L274,163 L275,164 L275,164 L275,164 L275,164 L275,165 L276,165 L276,165 L276,165 L277,168 L277,168 L278,170 L278,170 L278,170 L279,170 L279,170 L279,171 L280,171 L280,171 L280,171 L280,172 L280,172 L283,176 L283,177 L284,177 L284,177 L284,178 L285,179 L285,179 L286,180 L286,181 L286,181 L287,181 L287,181 L287,181 L287,181 L287,181 L288,180 L288,180 L289,179 L289,179 L289,179 L289,178 L290,178 L290,177 L290,177 L290,177 L290,177 L290,177 L291,177 L291,176 L293,175 L294,173 L294,173 L294,172 L294,172 L295,172 L295,171 L296,171 L296,170 L296,170 L296,170 L297,169 L297,169 L297,169 L297,169 L298,168 L298,166 L299,165 L299,164 L300,162 L300,162 L300,162 L301,161 L301,160 L301,160 L302,159 L302,159 L302,159 L303,159 L303,158 L303,158 L304,156 L305,156 L305,155 L306,153 L306,153 L307,151 L307,150 L308,150 L308,150 L308,149 L308,148 L309,148 L309,148 L310,147 L310,146 L310,146 L310,146 L310,146 L310,146 L312,145 L312,144 L312,142 L313,141 L313,141 L313,141 L314,138 L314,136 L315,136 L315,133 L315,133 L316,133 L316,132 L316,132 L316,132 L317,131 L318,129 L318,129 L318,128 L319,128 L319,127 L320,123 L321,117 L322,117 L322,117 L322,117 L323,117 L323,117 L323,116 L324,116 L324,116 L324,116 L325,116 L325,115 L325,115 L325,114 L326,114 L327,112 L327,111 L327,111 L327,110 L328,109 L328,109 L329,108 L329,107 L329,107 L329,107 L329,107 L330,107 L330,106 L330,106 L331,105 L331,105 L331,104 L332,103 L333,103 L333,102 L334,101 L334,101 L335,101 L335,100 L335,100 L336,101 L337,101 L337,100 L338,100 L338,100 L338,100 L338,100 L338,100 L339,100 L339,100 L339,100 L340,100 L340,100 L340,99 L340,99 L341,98 L341,97 L342,97 L342,97 L342,96 L342,96 L343,96 L343,95 L343,95 L343,95 L344,94 L344,94 L344,94 L345,93 L345,93 L345,93 L345,93 L345,93 L345,93 L345,93 L345,93 L346,93 L346,93 L346,93 L347,94 L348,95 L349,95 L349,95 L349,95 L349,95 L350,96 L350,96 L350,96 L350,96 L351,97 L352,97 L352,97 L352,98 L353,98 L354,98 L354,98 L355,99 L355,99 L355,99 L355,99 L355,99 L356,100 L356,100 L357,101 L357,101 L359,104 L361,104 L361,104 L361,103 L361,103 L362,103 L362,104 L362,104 L363,103 L363,103 L363,103 L364,104 L364,104 L364,105 L364,105 L365,105 L365,106 L366,106 L366,106 L366,107 L367,107 L367,107 L367,108 L367,108 L368,108 L368,108 L368,108 L369,108 L369,109 L370,109 L370,109 L370,109 L370,109 L371,109 L372,109 L372,109 L372,109 L373,109 L373,109 L374,110 L374,110 L375,110 L375,110 L375,110 L375,110 L376,110 L376,110 L376,110 L376,110 L376,110 L376,110 L377,110 L378,111 L378,111 L378,111 L379,111 L379,111 L380,112 L380,112 L380,112 L380,112 L380,112 L381,112 L381,112 L381,112 L382,113 L382,113 L382,113 L382,113 L383,113 L383,114 L383,114 L384,114 L384,115 L384,115 L384,115 L385,116 L385,117 L385,117 L385,117 L386,118 L386,119 L387,119 L388,122 L388,122 L389,125 L389,125 L389,126 L391,128 L391,128 L391,128 L391,129 L392,131 L393,134 L394,135 L394,135 L394,136 L395,137 L396,138 L396,140 L396,140 L397,140 L397,141 L398,141 L398,141 L398,141 L398,141 L398,141 L398,141 L398,142 L398,142 L399,143 L399,143 L399,143 L400,143 L400,146 L400,146 L401,147 L401,147 L401,149 L402,150 L402,151 L403,152 L403,153 L403,153 L404,154 L404,154 L404,154 L404,155 L404,155 L405,155 L405,155 L406,156 L406,156 L406,156 L406,156 L406,156 L407,157 L407,158 L408,164 L409,165 L409,165 L409,165 L409,165 L410,165 L410,165 L410,165 L410,165 L411,165 L411,166 L411,166 L412,167 L412,167 L412,167 L412,167 L413,167 L413,167 L413,167 L413,167 L413,167 L413,168 L414,168 L414,168 L414,168 L415,170 L416,175 L416,175 L416,176 L417,176 L418,177 L418,177 L418,177 L418,178 L418,178 L418,178 L419,179 L419,179 L419,179 L420,185 L421,186 L421,186 L422,186 L422,186 L422,186 L422,186 L422,186 L423,187 L423,187 L423,187 L423,187 L423,187 L423,187 L424,187 L424,187 L425,188 L426,193 L427,195 L427,195 L427,195 L428,196 L428,196 L429,196 L430,197 L431,200 L431,200 L432,202 L432,202 L432,202 L434,203 L434,208 L436,210 L436,210 L437,210 L438,211 L439,215 L440,216 L441,216 L441,217 L441,217 L442,218 L443,219 L443,220 L443,221 L445,222 L445,223 L446,224 L446,224 L447,225 L447,226 L448,227 L449,227 L450,228 L450,228 L452,229 L452,230 L453,230 L455,231 L456,231 L456,231 L456,231 L456,231 L456,231 L457,231 L457,231 L457,231 L458,230 L458,230 L458,230 L458,230 L459,230 L459,229 L460,229 L460,229 L461,229 L461,229 L461,228 L461,228 L464,227 L465,227 L465,227 L465,227 L466,227 L467,227 L467,227 L468,227 L468,227 L469,225 L469,225 L470,224 L472,224 L472,224 L472,224 L473,225 L473,225 L473,225 L474,225 L475,226 L475,226 L475,226 L475,227 L476,227 L477,227 L477,227 L477,227 L477,227 L478,227 L480,227 L480,227 L481,227 L481,227 L482,227 L482,228 L483,228 L483,228 L484,228 L485,228 L486,228 L486,228 L486,227 L486,227 L487,227 L488,225 L489,225 L489,225 L489,225 L490,225 L490,225 L490,225 L491,224 L491,224 L492,224 L495,219 L495,218 L496,217 L497,217 L497,217 L497,216 L498,215 L498,215 L498,215 L498,215 L499,214 L499,214 L499,214 L501,208 L502,207 L502,207 L503,207 L503,207 L504,206 L504,206 L505,205 L505,205 L505,205 L506,205 L506,205 L506,205 L507,205 L508,205 L508,204 L509,204 L509,204 L509,204 L509,203 L510,203 L510,203 L511,199 L512,198 L512,198 L513,198 L513,198 L515,196 L516,195 L518,190 L518,190 L518,190 L519,190 L519,189 L519,189 L519,189 L519,189 L520,189 L521,188 L523,186 L524,186 L526,182 L527,181 L527,181 L528,180 L528,180 L528,179 L529,179 L529,179 L529,179 L529,179 L529,179 L530,179 L530,178 L530,178 L531,177 L533,173 L534,172 L534,172 L534,172 L535,172 L535,172 L535,172 L535,172 L535,172 L535,172 L535,172 L537,168 L538,167 L538,167 L539,166 L539,166 L539,166 L540,164 L541,164 L541,164 L542,162 L543,162 L543,161 L543,161 L544,161 L544,161 L545,160 L545,160 L545,160 L546,160 L546,159 L546,159 L547,159 L549,156 L550,155 L550,155 L552,154 L552,154 L552,154 L553,154 L553,154 L554,154 L554,154 L554,154 L554,154 L555,154 L556,154 L556,154 L556,154 L556,154 L557,154 L557,154 L559,151 L559,151 L559,151 L559,151 L560,151 L561,151 L561,151 L561,151 L562,150 L563,150 L563,149 L563,149 L564,148 L564,148 L565,147 L566,147 L566,147 L566,147 L566,147 L566,146 L567,146 L567,146 L568,146 L568,145 L569,144 L571,144 L571,144 L571,144 L572,144 L572,144 L572,144 L572,144 L573,144 L573,144 L575,143 L576,143 L576,143 L577,143 L577,143 L577,143 L577,143 L578,143 L578,143 L579,143 L580,143 L580,143 L580,143 L580,143 L580,143 L580,143 L580,143 L580,143 L581,143 L581,143 L581,143 L581,143 L583,143 L583,143 L583,143 L583,143 L584,144 L585,144 L585,145 L586,146 L587,147 L588,148 L588,148 L588,148 L588,149 L589,149 L589,149 L589,149 L590,150 L590,150 L591,151 L593,156 L594,157 L594,157 L595,157 L595,157 L595,157 L596,158 L599,164 L599,165 L600,165 L600,166 L600,166 L601,166 L602,166 L602,167 L602,167 L602,167 L602,167 L602,167 L603,167 L603,167 L603,167 L603,167 L604,167 L604,167 L604,167 L605,167 L605,167 L606,169 L606,170 L607,171 L607,171 L607,171 L608,171 L608,171 L608,171 L608,171 L608,171 L608,171 L608,171 L609,172 L610,172 L610,172 L611,174 L612,176 L612,176 L613,177 L613,178 L615,180 L615,181 L615,181 L615,181 L616,181 L616,181 L616,181 L616,181 L616,181 L617,181 L617,181 L618,181 L618,181 L618,181 L620,183 L621,184 L621,184 L622,184 L622,184 L622,184 L623,184 L623,184 L624,184 L624,184 L625,185 L625,185 L625,185 L626,186 L627,187 L628,191 L629,192 L629,193 L629,193 L630,193 L630,193 L630,193 L630,193 L630,193 L630,193 L631,194 L631,194 L631,194 L632,196 L632,196 L633,196 L633,196 L633,196 L634,196 L634,196 L635,196 L635,196 L635,196 L636,196 L636,197 L637,197 L637,197 L637,197 L638,198 L638,199 L639,199 L639,200 L640,200 L640,200 L640,201 L641,201 L642,201 L644,203 L647,208 L648,209 L648,209 L648,209 L649,209 L649,210 L649,210 L650,210 L650,211 L651,211 L651,212 L651,212 L651,212 L652,212 L652,212 L652,212 L652,212 L652,212 L653,212 L653,212 L653,212 L653,212 L653,212 L654,212 L654,213 L655,213 L655,213 L656,213 L656,214 L657,214 L657,214 L657,215 L658,215 L658,215 L658,215 L659,216 L659,216 L660,217 L660,217 L661,217 L661,217 L661,217 L662,217 L662,217 L662,218 L662,218 L662,218 L662,218 L662,218 L662,218 L663,218 L664,218 L664,218 L664,217 L665,217 L665,217 L665,217 L665,217 L667,214 L668,212 L669,212 L670,211 L671,208 L672,207 L672,207 L673,207 L673,207 L674,206 L674,206 L675,206 L675,206 L676,206 L676,206 L676,206 L676,206 L676,206 L677,206 L677,206 L677,206 L677,206 L677,206 L678,206 L678,207 L679,207 L679,207 L679,208 L680,208 L680,209 L681,209 L681,209 L682,210 L682,211 L682,211 L683,212 L684,213 L684,213 L685,213 L685,214 L685,214 L687,216 L687,217 L688,217 L688,217 L689,217 L689,218 L691,221 L692,221 L692,221 L692,221 L692,221 L693,221 L693,221 L693,221 L694,221 L695,223 L696,224 L697,224 L697,224 L697,225 L698,225 L698,226 L698,226 L699,226 L699,226 L699,226 L699,226 L700,226 L700,226 L700,227 L701,227 L701,227 L702,228 L703,228 L704,228 L704,228 L705,228 L705,228 L706,228 L707,228 L707,228 L707,228 L708,228 L710,228 L711,228 L711,228 L711,228 L712,228 L712,228 L712,228 L712,228 L712,228 L713,228 L713,228 L714,228 L714,227 L715,225 L716,225 L716,225 L717,224 L717,224 L717,224 L718,221 L720,216 L720,215 L720,215 L721,214 L721,214 L722,214 L722,214 L722,214 L723,213 L723,213 L723,212 L724,211 L724,210 L725,210 L725,209 L726,209 L726,209 L726,209 L727,208 L730,200 L731,199 L731,199 L731,199 L731,199 L731,199 L731,199 L732,199 L732,199 L732,199 L732,198 L733,198 L733,198 L733,198 L733,198 L733,198 L734,197 L734,196 L735,192 L736,192 L736,192 L736,191 L737,190 L737,190 L737,190 L737,190 L737,190 L738,189 L738,189 L738,189 L738,189 L739,189 L739,188 L739,187 L740,186 L740,186 L741,184 L741,184 L741,184 L742,183 L742,181 L742,181 L744,180 L744,179 L744,179 L744,178 L745,177 L745,177 L745,177 L746,177 L746,177 L746,176 L746,176 L747,176 L747,176 L748,172 L748,171 L749,168 L749,168 L749,168 L750,168 L751,167 L751,167 L751,167 L751,167 L751,167 L751,167 L751,167 L752,167 L752,167 L752,167 L753,167 L753,167 L753,167 L754,167 L754,167 L754,167 L755,166 L755,166 L755,165 L756,165 L756,165 L756,164 L756,164 L756,164 L757,164 L757,164 L757,164 L757,164 L757,164 L758,164 L758,164 L759,163 L759,163 L759,163 L759,163 L759,163 L760,163 L760,163 L760,163 L760,163 L761,163 L761,163 L761,163 L762,163 L763,163 L763,163 L764,164 L764,164 L765,165 L765,165 L766,165 L766,165 L766,164 L766,164 L767,164 L767,164 L767,164 L767,164 L768,163 L768,163 L769,159 L769,159 L770,158 L770,155 L771,155 L772,152 L772,152 L772,152 L773,150 L773,150 L774,150 L774,150 L774,150 L775,150 L775,150 L775,149 L776,149 L776,149 L777,149 L777,149 L778,149 L778,149 L778,149 L779,149 L779,149 L779,149 L780,149 L780,149 L780,149 L780,149 L781,149 L781,150 L781,150 L782,150 L782,151 L783,151 L783,151 L784,151 L784,150 L785,150 L785,150 L786,148 L786,147 L786,147 L787,146 L787,146 L788,146 L788,146 L789,145 L789,145 L790,145 L790,145 L791,144 L791,144 L792,144 L792,144 L793,144 L793,144 L794,144 L795,144 L796,144 L796,143 L796,143 L797,142 L798,142 L798,142 L798,142 L798,141 L798,141 L799,141 L800,140 L800,140 L800,140 L801,140 L801,139 L802,137 L802,137 L802,136 L803,136 L803,136 L803,136 L803,136 L803,136 L804,135 L804,135 L804,134 L804,134 L805,133 L805,133 L806,132 L806,132 L806,132 L806,132 L806,132 L807,132 L807,132 L807,132 L807,132 L808,132 L808,132 L809,133 L809,133 L809,133 L810,131 L811,131 L811,131 L812,131 L812,131 L812,131 L812,131 L813,130 L814,130 L815,130 L817,128 L817,128 L817,128 L817,128 L818,128 L820,128 L821,127 L822,127 L823,127 L825,126 L825,126 L826,125 L828,122 L829,122 L829,122 L832,122 L834,121 L835,121 L836,121 L836,122 L838,122 L838,122 L839,121 L839,121 L840,120 L840,120 L840,119 L841,118 L842,117 L842,116 L842,115 L843,115 L843,115 L844,114 L844,114 L844,114 L845,114 L845,114 L845,114 L845,114 L846,114 L846,114 L846,114 L847,114 L848,114 L849,113 L849,113 L849,113 L849,113 L849,113 L850,113 L850,113 L851,113 L851,113 L851,113 L852,112 L852,112 L853,111 L854,111 L854,111 L854,111 L854,111 L854,111 L854,111 L855,111 L855,111 L855,111 L856,111 L856,112 L857,112 L857,113 L858,113 L859,113 L859,113 L860,113 L860,113 L861,113 L861,113 L862,112 L862,112 L862,112 L863,112 L863,112 L864,112 L865,112 L865,113 L866,113 L866,113 L866,113 L867,113 L867,113 L867,113 L868,114 L869,114 L869,113 L870,113 L871,113 L871,112 L872,112 L872,112 L872,112 L873,111 L873,111 L874,110 L874,110 L875,109 L876,109 L877,109 L877,108 L878,108 L878,108 L879,109 L879,109 L881,109 L881,109 L881,109 L881,109 L882,108 L882,108 L882,108 L883,108 L883,108 L883,108 L883,107 L884,107 L884,107 L884,107 L885,106 L886,106 L887,106 L887,105 L888,105 L888,105 L888,105 L889,105 L889,105 L889,105 L890,105 L891,105 L891,105 L891,104 L891,104 L891,104 L892,104 L892,104 L892,104 L893,104 L894,103 L894,103 L895,103 L895,103 L895,103 L897,102 L898,101 L899,99 L899,99 L900,99 L900,99 L900,99 L900,99 L900,99 L900,99 L901,99 L901,99 L901,99 L901,99 L902,98 L902,98 L904,96 L905,96 L905,96 L906,96 L906,95 L908,93 L909,93 L909,93 L910,93 L911,93 L912,92 L912,92 L913,92 L913,91 L913,92 L914,92 L914,92 L914,92 L915,92 L915,91 L915,91 L916,91 L916,90 L917,89 L917,89 L918,88 L918,88 L918,88 L918,88 L919,88 L920,88 L920,88 L921,88 L921,87 L922,87 L922,86 L923,85 L923,85 L923,85 L924,85 L924,85 L924,85 L924,85 L924,84 L925,84 L925,84 L925,84 L926,84 L926,84 L926,84 L927,84 L927,84 L927,84 L928,84 L929,84 L929,84 L930,84 L930,85 L931,85 L931,85 L931,85 L932,84 L932,84 L933,84 L934,83 L934,83 L935,83 L935,83 L935,83 L935,83 L936,83 L936,83 L936,83 L937,83 L938,84 L938,84 L938,84 L939,85 L939,85 L940,82 L941,82 L941,81 L941,81 L941,81 L942,81 L942,81 L942,81 L942,81 L942,81 L942,81 L943,81 L943,81 L944,81 L944,81 L944,81 L945,81 L945,81 L945,81 L946,80 L946,80 L946,80 L946,80 L947,80 L947,81 L947,80 L948,80 L949,79 L949,78 L950,78 L950,78 L951,78 L951,78 L951,78 L951,78 L951,78 L951,77 L952,77 L953,77 L953,77 L954,77 L955,76 L955,76 L956,76 L957,76 L957,75 L957,75 L958,75 L960,74 L961,73 L962,73 L962,73 L962,73 L963,73 L963,73 L965,71 L966,70 L966,70 L966,70 L966,70 L967,70 L967,71 L968,71 L968,71 L968,71 L968,71 L968,71 L968,71 L968,71 L969,71 L969,71 L969,72 L969,72 L970,72 L970,72 L970,73 L970,73 L970,73 L970,73 L971,73 L971,73 L971,74 L971,74 L971,74 L971,74 L972,74 L972,74 L972,74 L972,75 L973,75 L974,75 L974,75 L974,75 L974,75 L975,76 L975,76 L975,75 L975,76 L976,76 L976,76 L976,76 L977,76 L977,78 L978,79 L978,80 L979,80 L979,81 L980,81 L980,81 L980,81 L980,82 L980,82 L980,82 L981,82 L981,82 L981,82 L981,83 L982,84 L982,84 L982,85 L982,85 L983,87 L983,87 L984,88 L984,88 L984,88 L985,89 L985,89 L985,89 L985,89 L985,89 L986,90 L987,90 L987,91 L987,92 L987,93 L988,93 L988,93 L988,93 L989,94 L989,94 L989,95 L989,95 L989,95 L990,96 L990,96 L990,97 L991,98 L991,98 L991,98 L992,99 L992,100 L992,100 L992,100 L992,100 L993,100 L993,100 L993,100 L993,100 L993,101 L994,101 L994,101 L994,101 L994,101 L994,101 L995,101 L995,101 L995,101 L996,102 L997,103 L997,103 L998,104 L998,104 L998,104 L998,104 L998,104 L999,104 L999,104 L999,104 L1000,105 L1000,105 L1001,106 L1001,106 L1001,107 L1001,107 L1002,109 L1002,109 L1002,109 L1002,109 L1003,110 L1003,110 L1003,111 L1003,111 L1003,112 L1003,112 L1004,112 L1004,112 L1004,112 L1004,113 L1004,113 L1005,113 L1006,117 L1006,118 L1007,119 L1007,119 L1007,119 L1007,119 L1008,119 L1008,119 L1008,120 L1009,121 L1009,121 L1010,123 L1010,123 L1011,124 L1011,124 L1011,125 L1011,125 L1011,125 L1011,125 L1012,125 L1013,126 L1013,127 L1013,127 L1013,127 L1013,127 L1014,127 L1014,128 L1015,129 L1015,129 L1015,129 L1015,130 L1015,130 L1015,130 L1016,131 L1016,131 L1016,131 L1016,131 L1016,132 L1017,132 L1017,132 L1017,132 L1017,132 L1018,133 L1018,133 L1018,134 L1018,134 L1018,134 L1019,136 L1019,137 L1020,138 L1020,139 L1021,141 L1021,141 L1021,141 L1021,141 L1022,142 L1022,142 L1022,142 L1022,142 L1023,142 L1023,142 L1023,142 L1023,142 L1023,142 L1024,143 L1024,143 L1024,143 L1024,144 L1024,145 L1025,145 L1026,146 L1026,146 L1026,146 L1026,147 L1026,147 L1026,147 L1026,147 L1027,147 L1027,147 L1027,147 L1027,147 L1027,147 L1027,147 L1027,147 L1027,147 L1028,147 L1028,148 L1028,148 L1028,148 L1030,150 L1030,151 L1030,151 L1031,152 L1031,152 L1031,153 L1032,153 L1032,153 L1032,153 L1032,153 L1032,153 L1032,153 L1033,153 L1033,153 L1033,153 L1033,153 L1033,154 L1033,154 L1033,155 L1034,157 L1035,158 L1035,158 L1035,158 L1036,159 L1036,159 L1036,159 L1036,159 L1037,159 L1037,159 L1038,160 L1038,160 L1039,161 L1039,161 L1039,161 L1040,162 L1040,163 L1040,163 L1041,164 L1041,165 L1042,165 L1042,165 L1042,165 L1042,165 L1042,165 L1043,165 L1043,165 L1043,165 L1044,164 L1045,163 L1045,162 L1045,162 L1046,161 L1046,161 L1046,160 L1046,160 L1046,160 L1046,160 L1047,159 L1047,159 L1048,158 L1048,158 L1048,157 L1048,157 L1049,156 L1049,156 L1049,156 L1049,155 L1049,155 L1049,155 L1050,155 L1050,155 L1050,155 L1050,154 L1051,154 L1051,154 L1051,154 L1051,154 L1051,154 L1051,153 L1052,153 L1052,153 L1052,152 L1052,152 L1053,152 L1053,151 L1053,150 L1054,150 L1054,149 L1054,147 L1055,145 L1055,144 L1056,144 L1056,143 L1056,143 L1056,142 L1056,142 L1057,142 L1057,141 L1058,141 L1058,140 L1058,139 L1059,139 L1059,137 L1059,136 L1060,135 L1060,135 L1060,134 L1061,133 L1061,133 L1061,132 L1062,132 L1062,132 L1062,131 L1062,131 L1062,131 L1063,131 L1063,131 L1063,131 L1063,130 L1063,130 L1063,130 L1064,129 L1064,129 L1065,126 L1065,124 L1066,123 L1066,121 L1066,120 L1067,120 L1067,120 L1067,119 L1068,118 L1068,117 L1068,117 L1068,117 L1069,116 L1069,115 L1070,114 L1070,114 L1070,113 L1070,113 L1071,112 L1071,111 L1072,110 L1072,110 L1072,110 L1073,109 L1073,108 L1074,108 L1074,108 L1074,108 L1074,108 L1074,107 L1075,107 L1075,106 L1075,106 L1076,103 L1077,102 L1078,101 L1078,100 L1079,99 L1080,98 L1080,97 L1081,97 L1081,95 L1081,95 L1082,93 L1083,92 L1083,92 L1083,91 L1084,91 L1084,91 L1084,90 L1085,89 L1085,88 L1086,86 L1086,85 L1088,81 L1088,80 L1089,77 L1089,76 L1090,75 L1090,75 L1090,75 L1090,74 L1090,74 L1090,74 L1091,74 L1091,74 L1091,74 L1091,74 L1092,74 L1092,73 L1093,73 L1093,73 L1093,73 L1094,72 L1094,72 L1094,72 L1095,71 L1095,70 L1095,70 L1096,70 L1096,70 L1096,69 L1097,68 L1097,68 L1098,67 L1098,66 L1099,66 L1099,65 L1099,65 L1100,66 L1100,66 L1100,66 L1100,66 L1100,66 L1101,66 L1101,67 L1101,67 L1102,67 L1103,69 L1104,71 L1105,71 L1106,72 L1106,72 L1107,73 L1108,75 L1108,76 L1109,76 L1109,77 L1109,78 L1110,78 L1110,78 L1110,78 L1110,78 L1110,78 L1110,79 L1111,80 L1111,80 L1111,80 L1111,80 L1112,81 L1112,82 L1112,82 L1113,82 L1113,82 L1113,82 L1113,83 L1113,83 L1114,83 L1114,84 L1115,85 L1115,85 L1115,86 L1116,87 L1116,87 L1116,88 L1117,88 L1117,88 L1117,89 L1117,89 L1117,89 L1118,90 L1118,90 L1119,91 L1119,91 L1120,91 L1120,91 L1120,91 L1121,91 L1122,91 L1122,91 L1122,91 L1123,91 L1123,91 L1123,91 L1123,91 L1124,91 L1124,91 L1124,91 L1124,91 L1125,91 L1125,90 L1125,90 L1125,90 L1125,90 L1126,88 L1127,87 L1127,86 L1127,85 L1128,84 L1128,84 L1129,84 L1129,83 L1129,82 L1130,82 L1130,81 L1131,81 L1131,79 L1132,78 L1133,78 L1133,77 L1133,77 L1133,77 L1134,76 L1135,72 L1136,71 L1136,70 L1137,70 L1137,69 L1138,69 L1138,69 L1138,69 L1138,68 L1139,68 L1139,68 L1139,68 L1139,68 L1139,68 L1139,68 L1139,68 L1140,68 L1140,67 L1140,67 L1141,66 L1141,65 L1141,65 L1142,65 L1142,65 L1142,65 L1142,65 L1142,65 L1142,65 L1142,65 L1142,65 L1143,64 L1143,64 L1144,63 L1144,62 L1144,61 L1144,60 L1144,60 L1145,60 L1145,60 L1145,60 L1145,60 L1146,60 L1146,59 L1146,59 L1146,59 L1146,58 L1148,55 L1148,53 L1148,52 L1149,51 L1150,50 L1151,49 L1152,47 L1153,44 L1153,44 L1154,43 L1154,43 L1154,43 L1155,43 L1155,43 L1155,43 L1155,43 L1155,43 L1155,43 L1155,43 L1156,43 L1156,43 L1156,42 L1156,42 L1157,42 L1157,42 L1157,41 L1157,41 L1157,41 L1157,41 L1158,41 L1158,41 L1158,40 L1158,40 L1158,40 L1158,40 L1159,40 L1159,40 L1159,40 L1159,39 L1160,39 L1160,39 L1160,39 L1161,39 L1161,39 L1161,39 L1161,39 L1162,39 L1162,39 L1162,39 L1163,39 L1163,39 L1164,39 L1164,39 L1164,39 L1165,39 L1165,39 L1165,39 L1166,39 L1166,39 L1166,39 L1166,39 L1166,39 L1167,39 L1167,39 L1167,39 L1167,39 L1168,40 L1168,40 L1169,40 L1169,40 L1169,40 L1170,40 L1170,40 L1170,40 L1171,40 L1171,40 L1171,40 L1171,41 L1172,41 L1172,41 L1172,41 L1172,41 L1173,41 L1173,41 L1173,42 L1173,42 L1174,42 L1175,43 L1175,43 L1175,43 L1176,43 L1176,43 L1176,43 L1176,43 L1177,43 L1177,44 L1177,44 L1178,45 L1179,45 L1179,46 L1179,46 L1179,46 L1180,46 L1180,46 L1181,47 L1182,48 L1182,48 L1183,48 L1184,49 L1184,49 L1184,49 L1185,49 L1185,50 L1185,50 L1186,50 L1187,51 L1187,51 L1187,51 L1188,51 L1188,52 L1189,52 L1189,52 L1189,52 L1189,52 L1190,53 L1190,54 L1190,54 L1190,54 L1191,55 L1192,56 L1192,57 L1192,58 L1193,60 L1193,61 L1194,62 L1194,63 L1195,67 L1195,68 L1195,69 L1196,71 L1196,72 L1196,72 L1196,72 L1197,72 L1197,74 L1197,74 L1198,75 L1198,75 L1198,75 L1198,75 L1198,77 L1199,77 L1199,77 L1199,78 L1200,78 L1200,79 L1200,80 L1201,81 L1201,81 L1201,81 L1202,82 L1202,83 L1202,83 L1203,83 L1204,85 L1204,85 L1205,86 L1205,87 L1206,87 L1206,87 L1207,87 L1207,87 L1211,85 L1211,84 L1211,84 L1212,84 L1213,84 L1213,84 L1213,84 L1213,84 L1213,84 L1214,84 L1214,83 L1215,83 L1215,83 L1215,83 L1216,83 L1216,84 L1217,84 L1217,85 L1217,86 L1218,88 L1218,88 L1219,89 L1219,89 L1220,90 L1221,90 L1221,90 L1221,90 L1221,90 L1221,90 L1222,89 L1223,89 L1223,89 L1223,89 L1224,90 L1224,90 L1224,90 L1224,90 L1224,90 L1225,91 L1225,92 L1226,92 L1226,92 L1226,92 L1226,93 L1227,95 L1227,95 L1227,95 L1228,96 L1228,97 L1228,97 L1228,98 L1229,98 L1229,98 L1229,99 L1230,100 L1230,100 L1230,100 L1230,100 L1231,101 L1231,101 L1231,101 L1231,101 L1231,101 L1231,101 L1232,101 L1232,101 L1232,101 L1232,101 L1233,100 L1233,100 L1233,100 L1234,100 L1234,100 L1234,99 L1234,99 L1234,99 L1235,99 L1235,98 L1235,98 L1235,98 L1236,96 L1237,95 L1237,94 L1237,93 L1238,91 L1238,89 L1238,89 L1239,88 L1239,86 L1240,86 L1240,85 L1240,84 L1241,83 L1241,82 L1242,81 L1242,81 L1242,81 L1242,81 L1243,80 L1243,80 L1244,80 L1245,80 L1245,79 L1245,79 L1246,79 L1246,79 L1246,78 L1246,78 L1246,78 L1247,78 L1247,78 L1247,78 L1247,77 L1247,77 L1247,77 L1248,77 L1248,77 L1248,77 L1249,76 L1249,76 L1249,76 L1249,75 L1250,75 L1250,75 L1251,73 L1251,73 L1251,72 L1252,71 L1252,70 L1253,69 L1253,69 L1253,68 L1253,68 L1254,66 L1254,66 L1254,66 L1255,65 L1256,65 L1256,65 L1256,65 L1256,65 L1256,64 L1258,61 L1259,60 L1260,60 L1260,60 L1261,60 L1262,59 L1262,58 L1263,58 L1265,58 L1265,58 L1265,58 L1266,58 L1268,55 L1269,53 L1270,53 L1270,52 L1272,51 L1272,50 L1273,50 L1274,46 L1276,45 L1276,45 L1276,45 L1277,44 L1277,44 L1278,44 L1279,43 L1280,41 L1281,39 L1282,38 L1283,38 L1284,37 L1284,37 L1284,37 L1284,37 L1284,37 L1285,37 L1285,37 L1285,37 L1285,37 L1285,37 L1286,37 L1286,37 L1286,36 L1286,36 L1287,35 L1287,35 L1288,34 L1288,34 L1289,33 L1289,33 L1290,33 L1290,33 L1290,33 L1290,33 L1291,33 L1291,32 L1291,32 L1291,32 L1291,32 L1292,32 L1292,32 L1292,32 L1293,31 L1293,31 L1294,31 L1294,31 L1294,31 L1294,31 L1294,31 L1295,31 L1295,31 L1295,31 L1296,31 L1297,30 L1298,30 L1298,30 L1300,30 L1300,30 L1300,30 L1301,29 L1302,29 L1303,29 L1303,29 L1303,29 L1303,29 L1304,29 L1304,29 L1304,29 L1304,29 L1305,28 L1305,28 L1306,28 L1306,28 L1306,28 L1306,28 L1307,28 L1307,28 L1307,28 L1308,28 L1308,28 L1309,28 L1309,28 L1309,28 L1309,28 L1309,28 L1309,28 L1309,28 L1309,28 L1309,28 L1310,28 L1311,28 L1311,28 L1311,28 L1311,28 L1311,28 L1311,28 L1312,28 L1312,28 L1312,28 L1312,28 L1312,28 L1312,28 L1313,28 L1313,28 L1313,28 L1313,28 L1314,28 L1314,28 L1314,28 L1315,28 L1315,28 L1315,28 L1315,29 L1315,29 L1316,29 L1316,29 L1316,29 L1316,29 L1317,29 L1317,29 L1318,29 L1319,29 L1319,29 L1319,29 L1319,29 L1320,29 L1320,29 L1320,29 L1320,29 L1320,29 L1320,29 L1321,29 L1321,29 L1321,29 L1322,29 L1323,29 L1324,29 L1324,29 L1324,29 L1324,29 L1325,29 L1325,29 L1325,29 L1326,29 L1326,29 L1327,29 L1327,29 L1327,29 L1327,29 L1328,29 L1329,29 L1329,29 L1329,29 L1331,29 L1331,29 L1332,29 L1333,29 L1335,29 L1336,29 L1337,29 L1338,29 L1338,29 L1339,29 L1340,29 L1340,29 L1340,29 L1340,29 L1343,29 L1343,29 L1343,29 L1344,29 L1348,29 L1349,29 L1351,29 L1352,29 L1352,29 L1352,29 L1352,29 L1352,29 L1355,29 L1356,29 L1356,29 L1357,29 L1357,28 L1358,29 L1358,29 L1359,29 L1359,29 L1359,29 L1359,29 L1359,29 L1359,29 L1359,29 L1359,29 L1360,28 L1360,28 L1360,28 L1361,28 L1361,28 L1361,28 L1361,28 L1361,28 L1362,28 L1362,28 L1362,28 L1362,28 L1362,28 L1363,28 L1363,28 L1363,28 L1363,28 L1364,29 L1366,29 L1367,29 L1367,29 L1367,29 L1368,29 L1368,29 L1369,29 L1369,29 L1369,29 L1369,29 L1370,29 L1370,29 L1370,28 L1370,28 L1370,28 L1371,28 L1371,28 L1371,28 L1372,27 L1372,27 L1373,27 L1373,27 L1374,27 L1374,27 L1374,27 L1374,27 L1375,27 L1375,27 L1376,27 L1377,27 L1377,27 L1378,27 L1378,27 L1379,26 L1380,27 L1381,27 L1381,27 L1382,27 L1383,28 L1384,28 L1384,28 L1385,28 L1385,28 L1386,28 L1386,28 L1387,28 L1387,28 L1387,28 L1388,28 L1388,28 L1388,28 L1389,28 L1389,28 L1390,27 L1391,27 L1392,27 L1392,27 L1393,27 L1394,27 L1394,27 L1394,27 L1395,27 L1395,27 L1395,27 L1395,27 L1395,27 L1395,27 L1395,27 L1395,27 L1395,27 L1396,27 L1396,27 L1397,27 L1397,27 L1398,27 L1399,27 L1399,27 L1400,27 L1401,27 L1403,28 L1405,28 L1405,28 L1406,28 L1407,28 L1408,28 L1409,28 L1409,28 L1409,28 L1411,27 L1412,27 L1414,28 L1415,28 L1415,28 L1416,29" fill="transparent" id="track" stroke="black" stroke-width="2"/>
</g>
<g id="SL" transform="translate(0 360) scale(-1 -1)">
<text text-anchor="end" transform="scale(-1 -1)" x="-10" y="5">
0
</text>
<text text-anchor="end" transform="scale(-1 -1)" x="-10" y="-42">
200
</text>
<text text-anchor="end" transform="scale(-1 -1)" x="-10" y="-90">
400
</text>
<text text-anchor="end" transform="scale(-1 -1)" x="-10" y="-138">
600
</text>
<text text-anchor="end" transform="scale(-1 -1)" x="-10" y="-186">
800
</text>
<text text-anchor="end" transform="scale(-1 -1)" x="-10" y="-234">
1000
</text>
<text text-anchor="end" transform="scale(-1 -1)" x="-10" y="-282">
1200
</text>
<text text-anchor="end" transform="scale(-1 -1)" x="-10" y="-330">
1400
</text>
</g>
</g>
</svg>