<svg height="400" width="1420" xmlns="http://www.w3.org/2000/svg">
<g font-family="Libertinus Serif" font-size="15" id="world" shape-rendering="crispEdges">
<g id="BG"/>
<g id="SB" transform="translate(0 360)">
<text text-anchor="middle" x="0" y="15">
0
</text>
<text text-anchor="middle" x="236" y="15">
20
</text>
<text text-anchor="middle" x="473" y="15">
40
</text>
<text text-anchor="middle" x="709" y="15">
60
</text>
<text text-anchor="middle" x="946" y="15">
80
</text>
<text text-anchor="middle" x="1182" y="15">
100
</text>
</g>
<g id="SD" transform="translate(0 360) scale(1 -1) scale(1 1)">
<path d="M0,0 L0,359 L1419,359 L1419,0 L0,0" fill="lightgray" id="bg"/>
<path d="M0,0 L1419,0" stroke="black" stroke-width="3"/>
<path d="M0,0 L0,359" stroke="black" stroke-width="3"/>
<path d="M0,359 L1419,359" stroke="black" stroke-width="3"/>
<path d="M1419,0 L1419,359" stroke="black" stroke-width="3"/>
<path d="M0,0 L0,359" stroke="black" stroke-width="1"/>
<path d="M236,0 L236,359" stroke="black" stroke-width="1"/>
<path d="M473,0 L473,359" stroke="black" stroke-width="1"/>
<path d="M709,0 L709,359" stroke="black" stroke-width="1"/>
<path d="M946,0 L946,359" stroke="black" stroke-width="1"/>
<path d="M1182,0 L1182,359" stroke="black" stroke-width="1"/>
<path d="M118,0 L118,359" stroke="black" stroke-dasharray="1.0,2.5,5.0,5.0,10.0,5.0"/>
<path d="M354,0 L354,359" stroke="black" stroke-dasharray="1.0,2.5,5.0,5.0,10.0,5.0"/>
<path d="M591,0 L591,359" stroke="black" stroke-dasharray="1.0,2.5,5.0,5.0,10.0,5.0"/>
<path d="M827,0 L827,359" stroke="black" stroke-dasharray="1.0,2.5,5.0,5.0,10.0,5.0"/>
<path d="M1064,0 L1064,359" stroke="black" stroke-dasharray="1.0,2.5,5.0,5.0,10.0,5.0"/>
<path d="M1300,0 L1300,359" stroke="black" stroke-dasharray="1.0,2.5,5.0,5.0,10.0,5.0"/>
<path d="M0,0 L1419,0" stroke="black" stroke-width="1"/>
<path d="M0,47 L1419,47" stroke="black" stroke-width="1"/>
<path d="M0,95 L1419,95" stroke="black" stroke-width="1"/>
<path d="M0,143 L1419,143" stroke="black" stroke-width="1"/>
<path d="M0,191 L1419,191" stroke="black" stroke-width="1"/>
<path d="M0,239 L1419,239" stroke="black" stroke-width="1"/>
<path d="M0,287 L1419,287" stroke="black" stroke-width="1"/>
<path d="M0,335 L1419,335" stroke="black" stroke-width="1"/>
<path d="M0,23 L1419,23" stroke="black" stroke-dasharray="1.0,2.5,5.0,5.0,10.0,5.0"/>
<path d="M0,71 L1419,71" stroke="black" stroke-dasharray="1.0,2.5,5.0,5.0,10.0,5.0"/>
<path d="M0,119 L1419,119" stroke="black" stroke-dasharray="1.0,2.5,5.0,5.0,10.0,5.0"/>
<path d="M0,167 L1419,167" stroke="black" stroke-dasharray="1.0,2.5,5.0,5.0,10.0,5.0"/>
<path d="M0,215 L1419,215" stroke="black" stroke-dasharray="1.0,2.5,5.0,5.0,10.0,5.0"/>
<path d="M0,263 L1419,263" stroke="black" stroke-dasharray="1.0,2.5,5.0,5.0,10.0,5.0"/>
<path d="M0,311 L1419,311" stroke="black" stroke-dasharray="1.0,2.5,5.0,5.0,10.0,5.0"/>
<path d="M0,359 L1419,359" stroke="black" stroke-dasharray="1.0,2.5,5.0,5.0,10.0,5.0"/>
<path d="M0,166 L0,166 L0,166 L0,166 L0,166 L0,166 L1,166 L1,166 L1,166 L1,166 L2,166 L3,166 L3,166 L4,165 L4,165 L5,165 L5,165 L6,166 L6,166 L6,166 L7,166 L7,165 L7,165 L8,165 L8,165 L9,165 L9,165 L9,165 L10,165 L11,165 L11,165 L12,165 L13,165 L13,165 L14,165 L14,165 L15,165 L15,165 L16,165 L17,165 L18,166 L18,166 L19,166 L20,166 L20,166 L21,166 L21,166 L22,166 L23,166 L23,166 L29,166 L32,167 L34,167 L34,167 L36,167 L36,167 L36,167 L37,167 L38,167 L43,168 L43,168 L44,168 L44,168 L45,168 L46,168 L48,169 L49,169 L49,169 L50,169 L50,169 L51,169 L52,169 L53,169 L53,169 L53,169 L53,169 L54,169 L54,169 L54,169 L55,169 L55,169 L56,169 L56,169 L56,169 L56,169 L56,169 L57,169 L58,169 L59,169 L60,169 L60,169 L60,169 L61,169 L61,169 L61,169 L61,169 L63,169 L64,169 L64,169 L64,169 L65,169 L65,170 L66,171 L67,171 L67,171 L67,171 L68,171 L68,171 L69,171 L69,171 L70,171 L70,171 L70,171 L71,171 L71,171 L72,171 L72,171 L72,171 L72,171 L72,171 L72,171 L72,171 L73,172 L73,172 L73,172 L74,172 L75,173 L75,173 L75,173 L76,174 L76,174 L77,174 L78,173 L79,173 L79,173 L80,173 L81,173 L81,173 L82,173 L83,173 L83,173 L83,173 L88,173 L90,173 L91,173 L93,173 L93,173 L94,173 L95,173 L96,174 L97,174 L98,174 L98,174 L99,174 L99,174 L100,174 L100,174 L102,173 L103,173 L104,173 L106,174 L107,175 L108,175 L111,176 L112,175 L113,175 L114,175 L115,175 L116,174 L117,175 L118,175 L118,175 L119,175 L120,175 L122,176 L124,176 L125,176 L126,176 L126,176 L127,176 L127,176 L128,176 L129,176 L129,176 L130,176 L130,176 L131,176 L131,176 L133,177 L133,177 L134,177 L135,177 L135,177 L136,177 L136,177 L136,177 L137,177 L137,177 L141,178 L141,179 L142,179 L142,179 L142,179 L143,179 L144,179 L144,179 L144,179 L145,179 L145,179 L147,179 L148,179 L149,179 L149,179 L150,179 L151,179 L152,179 L153,178 L156,180 L157,180 L157,181 L158,181 L159,180 L159,181 L160,181 L162,180 L164,181 L164,181 L164,181 L165,181 L165,181 L165,181 L165,181 L166,181 L166,181 L166,181 L167,181 L168,182 L168,183 L169,183 L170,184 L170,184 L170,184 L171,185 L171,185 L172,185 L173,184 L173,183 L173,183 L175,183 L175,183 L175,183 L176,183 L177,183 L177,183 L178,183 L178,183 L178,183 L178,183 L180,183 L181,183 L182,183 L182,183 L183,183 L183,183 L184,184 L186,185 L188,185 L189,185 L189,185 L190,185 L190,185 L190,185 L191,185 L194,189 L194,190 L194,189 L195,189 L196,190 L196,190 L197,190 L198,191 L198,191 L198,191 L199,192 L200,192 L200,192 L201,193 L202,193 L202,193 L203,193 L203,193 L203,193 L204,193 L204,193 L204,194 L205,194 L206,194 L206,194 L207,195 L208,197 L209,198 L210,200 L210,200 L211,201 L212,202 L212,202 L212,202 L212,202 L213,202 L213,202 L213,202 L213,203 L214,203 L214,203 L214,203 L214,203 L214,203 L215,203 L215,203 L215,204 L216,204 L216,204 L216,204 L217,204 L217,204 L218,204 L219,204 L219,204 L221,205 L223,205 L223,205 L224,205 L224,205 L226,206 L226,206 L227,206 L227,206 L229,207 L229,207 L229,207 L230,207 L231,207 L232,207 L232,207 L233,207 L233,207 L233,207 L234,207 L236,209 L236,209 L237,210 L237,210 L237,210 L239,210 L239,210 L240,210 L240,210 L240,210 L240,210 L241,210 L241,210 L242,210 L243,210 L243,211 L244,211 L245,211 L245,212 L246,212 L246,212 L247,212 L247,212 L248,212 L248,212 L248,213 L249,213 L249,213 L250,213 L250,213 L251,213 L252,214 L252,215 L253,216 L254,216 L256,216 L257,217 L258,218 L258,218 L258,218 L259,218 L260,218 L260,218 L260,218 L262,219 L263,220 L264,220 L264,220 L265,220 L265,220 L266,221 L267,221 L267,221 L268,222 L269,222 L269,223 L271,224 L271,224 L271,224 L272,224 L272,224 L273,224 L273,224 L274,225 L275,227 L276,227 L276,227 L276,228 L277,228 L277,228 L277,228 L278,228 L279,228 L279,229 L279,229 L279,229 L279,229 L280,229 L280,229 L280,229 L281,229 L281,229 L281,229 L282,229 L282,229 L282,229 L282,229 L282,228 L282,228 L283,228 L283,229 L284,229 L284,229 L284,229 L286,231 L286,233 L287,234 L288,234 L289,235 L289,235 L289,235 L290,235 L291,236 L291,236 L292,239 L293,240 L294,241 L294,241 L296,243 L297,243 L297,244 L298,244 L298,244 L301,239 L302,236 L303,235 L303,235 L304,233 L305,232 L305,231 L306,230 L306,230 L306,230 L307,229 L309,227 L309,227 L311,226 L311,226 L312,226 L313,223 L314,222 L315,222 L316,220 L318,219 L318,218 L319,216 L320,216 L320,215 L321,214 L322,214 L322,214 L322,214 L322,213 L324,213 L327,211 L328,211 L328,211 L328,211 L328,211 L329,211 L329,211 L329,211 L332,213 L332,212 L333,212 L334,211 L335,211 L335,211 L335,211 L335,211 L335,211 L336,210 L336,210 L336,210 L336,210 L336,210 L336,210 L337,210 L337,210 L337,210 L337,210 L338,210 L339,209 L339,209 L340,208 L340,208 L340,208 L340,208 L341,208 L341,208 L341,208 L341,208 L341,208 L342,208 L342,208 L342,208 L342,208 L342,208 L342,208 L343,208 L344,208 L344,208 L345,207 L345,207 L345,207 L346,207 L346,207 L346,207 L346,207 L346,207 L347,207 L347,207 L347,207 L347,207 L347,207 L347,207 L348,207 L349,206 L349,206 L349,207 L350,207 L351,207 L351,207 L351,207 L352,207 L352,207 L352,207 L353,207 L353,207 L355,206 L355,206 L355,206 L355,206 L355,206 L356,206 L356,206 L356,206 L357,206 L357,206 L357,206 L357,206 L357,206 L357,206 L358,206 L358,206 L359,206 L359,206 L360,207 L360,207 L360,207 L360,207 L361,206 L362,206 L363,206 L363,206 L363,206 L363,206 L364,206 L364,206 L366,207 L366,207 L367,207 L367,207 L368,207 L368,207 L369,207 L369,207 L370,206 L370,206 L371,206 L371,206 L371,206 L371,206 L372,206 L373,206 L374,207 L374,207 L375,208 L375,208 L376,208 L376,208 L376,208 L377,208 L377,208 L377,209 L378,209 L378,209 L378,209 L379,210 L380,210 L381,210 L381,210 L382,210 L384,211 L384,211 L385,211 L385,211 L386,211 L387,212 L388,211 L389,211 L389,211 L389,211 L390,211 L390,211 L391,211 L393,212 L394,212 L395,212 L395,212 L396,212 L396,212 L397,212 L397,212 L398,212 L398,212 L398,212 L402,216 L402,216 L403,216 L404,216 L404,216 L408,217 L408,218 L410,218 L411,220 L414,218 L415,219 L415,219 L415,219 L416,219 L417,219 L418,219 L419,220 L420,220 L420,220 L421,220 L421,220 L421,220 L422,220 L422,220 L423,221 L423,222 L424,222 L425,223 L425,223 L425,223 L426,224 L427,224 L427,224 L428,225 L428,225 L429,226 L429,226 L429,226 L430,226 L430,226 L431,227 L431,227 L432,227 L432,227 L432,227 L433,228 L433,228 L434,229 L435,229 L435,229 L435,229 L436,229 L436,229 L436,229 L436,229 L436,230 L437,230 L437,230 L437,230 L438,230 L438,231 L438,231 L439,232 L439,235 L440,236 L441,238 L441,238 L442,238 L442,238 L442,238 L443,239 L443,239 L444,239 L444,239 L444,239 L444,239 L445,239 L445,239 L446,239 L446,239 L446,240 L447,241 L448,243 L450,244 L450,244 L451,244 L452,244 L454,244 L454,244 L454,244 L454,244 L455,244 L455,244 L456,244 L457,246 L458,246 L458,246 L460,244 L461,242 L461,242 L462,242 L462,242 L463,242 L463,242 L464,241 L464,241 L465,240 L466,239 L466,239 L466,239 L467,239 L467,238 L467,238 L467,238 L467,238 L468,238 L468,238 L468,238 L469,238 L469,238 L469,238 L469,238 L470,238 L470,238 L470,238 L471,239 L472,240 L472,240 L472,240 L473,241 L473,241 L474,241 L474,241 L474,241 L475,242 L475,242 L476,242 L476,242 L477,242 L478,241 L479,241 L480,240 L480,240 L481,239 L481,239 L482,239 L482,239 L483,239 L485,240 L487,240 L487,240 L488,240 L488,240 L488,240 L489,240 L490,239 L490,239 L490,238 L491,237 L492,236 L492,235 L492,234 L493,234 L493,234 L493,234 L493,234 L493,234 L494,233 L494,233 L495,233 L495,233 L495,232 L495,232 L495,232 L496,231 L497,231 L497,230 L499,228 L499,228 L499,227 L500,227 L500,227 L501,227 L501,227 L502,226 L502,226 L502,226 L503,225 L503,225 L503,225 L504,225 L504,225 L505,224 L505,224 L505,224 L508,222 L509,220 L510,218 L511,216 L511,216 L512,215 L512,215 L512,215 L513,213 L513,213 L514,212 L514,212 L514,211 L515,211 L515,211 L515,211 L516,210 L516,210 L517,209 L518,209 L518,209 L518,209 L518,209 L519,209 L519,209 L519,209 L520,209 L520,210 L520,210 L521,210 L521,210 L522,211 L522,211 L523,212 L523,213 L524,213 L524,214 L525,214 L525,214 L525,215 L526,215 L526,216 L526,216 L527,217 L528,218 L528,218 L528,218 L529,219 L530,220 L530,220 L531,221 L532,222 L532,222 L533,223 L533,223 L533,223 L534,223 L534,223 L534,224 L534,224 L535,224 L535,224 L535,224 L536,224 L536,224 L536,224 L536,224 L537,225 L537,225 L539,230 L539,231 L539,232 L540,232 L541,233 L541,233 L542,234 L542,234 L543,234 L543,234 L544,234 L545,234 L545,233 L546,233 L547,233 L547,233 L548,232 L549,233 L549,233 L551,232 L551,232 L552,232 L553,230 L554,228 L554,228 L555,228 L555,228 L555,227 L555,227 L555,227 L556,227 L556,227 L556,227 L556,227 L557,227 L557,227 L557,227 L558,227 L558,227 L558,227 L558,227 L559,227 L559,227 L559,227 L560,227 L560,227 L561,227 L561,227 L562,226 L562,226 L562,226 L563,226 L563,226 L564,225 L564,225 L565,224 L566,223 L566,222 L567,221 L568,221 L568,220 L569,220 L570,220 L570,220 L570,219 L570,219 L570,219 L570,219 L571,218 L571,218 L572,218 L572,218 L572,218 L572,218 L573,218 L573,217 L574,216 L575,215 L575,213 L576,213 L576,214 L576,213 L577,213 L577,213 L577,213 L577,213 L577,213 L578,213 L578,213 L579,213 L579,212 L579,212 L580,212 L581,210 L581,209 L581,208 L582,208 L582,207 L583,207 L583,206 L583,203 L585,198 L586,197 L586,197 L586,196 L587,196 L588,195 L589,192 L591,190 L592,189 L592,188 L594,188 L594,188 L594,188 L595,187 L596,187 L598,188 L599,188 L599,187 L599,187 L601,186 L602,184 L603,182 L603,182 L603,181 L604,182 L604,182 L605,182 L605,182 L605,182 L606,182 L606,182 L607,182 L607,183 L608,183 L608,183 L608,183 L608,183 L609,182 L609,182 L609,181 L610,181 L610,180 L611,179 L611,179 L611,178 L612,178 L612,178 L612,177 L613,177 L613,177 L613,177 L614,176 L614,176 L615,176 L615,176 L616,175 L618,170 L618,170 L619,169 L619,169 L619,168 L620,167 L620,167 L621,166 L621,164 L622,164 L622,163 L623,163 L623,162 L623,162 L624,162 L624,162 L625,161 L625,161 L626,161 L626,160 L626,160 L627,160 L627,159 L628,158 L629,158 L630,157 L631,156 L631,156 L632,156 L632,156 L633,155 L633,154 L634,154 L635,153 L635,153 L636,153 L636,152 L637,152 L637,151 L638,150 L639,147 L640,147 L640,146 L640,146 L640,146 L641,146 L641,146 L641,146 L641,146 L642,146 L643,146 L643,146 L643,146 L643,146 L644,146 L644,146 L645,146 L646,145 L646,145 L646,145 L646,145 L646,145 L647,145 L647,145 L648,144 L648,144 L648,143 L649,140 L650,139 L650,139 L650,139 L650,139 L650,139 L651,139 L651,138 L651,138 L651,138 L651,138 L651,138 L651,138 L651,138 L651,138 L652,138 L652,138 L652,138 L653,137 L654,136 L654,136 L654,135 L656,134 L656,133 L657,133 L657,133 L658,133 L658,133 L659,132 L660,131 L661,129 L661,129 L661,129 L662,129 L662,129 L662,129 L663,129 L663,129 L663,129 L664,128 L664,128 L665,128 L665,128 L665,128 L666,127 L667,127 L667,127 L669,126 L670,125 L670,125 L670,125 L670,125 L671,125 L671,125 L671,125 L672,124 L672,124 L672,124 L672,124 L673,123 L674,123 L675,122 L675,122 L675,122 L676,122 L677,122 L678,121 L678,121 L678,121 L678,121 L679,121 L679,121 L679,121 L681,120 L681,120 L681,120 L682,120 L682,120 L683,119 L683,119 L684,118 L684,118 L685,118 L685,118 L685,118 L685,118 L685,118 L685,118 L686,118 L686,118 L687,118 L687,118 L687,118 L687,118 L687,118 L687,118 L687,118 L688,118 L688,118 L689,118 L689,118 L689,118 L689,118 L690,117 L691,116 L692,115 L692,115 L693,115 L694,114 L694,114 L694,114 L695,114 L695,114 L696,114 L696,114 L697,114 L698,114 L698,114 L698,113 L699,113 L699,113 L700,113 L700,113 L701,112 L701,112 L702,112 L702,112 L702,112 L703,112 L703,112 L703,112 L704,111 L704,111 L705,111 L705,111 L705,111 L706,111 L706,111 L706,111 L706,111 L707,111 L707,111 L707,111 L707,111 L707,111 L708,111 L708,111 L708,111 L709,111 L710,112 L710,112 L710,114 L711,115 L712,117 L714,118 L714,119 L716,120 L716,121 L717,121 L718,122 L718,123 L719,125 L720,126 L721,127 L722,129 L723,130 L724,133 L726,136 L726,136 L726,136 L727,136 L727,138 L728,139 L729,142 L730,142 L730,144 L731,147 L733,148 L733,148 L733,147 L733,147 L733,147 L734,147 L734,147 L734,147 L735,147 L735,146 L735,146 L736,144 L737,141 L737,138 L738,135 L739,132 L739,131 L740,131 L740,131 L740,130 L740,130 L740,130 L741,130 L741,129 L741,129 L741,129 L742,129 L742,128 L743,128 L743,128 L743,127 L744,127 L744,127 L744,127 L745,127 L745,127 L746,126 L746,126 L747,125 L747,125 L747,125 L747,125 L747,125 L748,125 L748,125 L748,125 L748,125 L748,125 L750,123 L751,119 L751,118 L751,118 L752,117 L753,116 L753,116 L753,116 L753,115 L754,114 L754,114 L754,113 L755,113 L756,111 L757,110 L758,109 L758,108 L759,107 L759,107 L760,106 L760,105 L761,105 L761,104 L761,103 L762,102 L762,100 L763,99 L764,98 L764,97 L764,96 L765,96 L765,96 L766,95 L766,95 L767,95 L767,94 L768,93 L769,89 L769,89 L770,89 L770,88 L771,88 L771,87 L771,87 L772,87 L773,87 L773,87 L774,87 L774,87 L775,87 L775,87 L775,87 L776,87 L776,87 L776,87 L778,83 L779,82 L780,83 L780,83 L780,83 L780,83 L782,83 L783,84 L783,84 L784,83 L784,80 L786,77 L786,77 L786,77 L787,77 L787,76 L787,76 L788,76 L788,76 L789,76 L789,76 L790,76 L790,76 L791,75 L792,74 L792,73 L793,72 L793,71 L794,71 L794,71 L795,71 L795,70 L796,70 L797,69 L797,69 L798,69 L798,69 L799,69 L799,69 L801,68 L801,68 L801,68 L802,68 L802,68 L802,67 L803,67 L804,66 L804,66 L805,65 L806,64 L806,64 L807,64 L807,64 L807,64 L808,63 L808,63 L808,63 L809,63 L809,63 L809,63 L810,62 L810,62 L810,62 L811,62 L811,62 L812,61 L812,61 L813,61 L813,61 L813,61 L813,61 L814,61 L814,61 L814,61 L815,60 L815,60 L815,60 L816,60 L816,60 L816,60 L816,60 L816,60 L817,60 L817,60 L817,60 L817,60 L818,60 L819,60 L819,60 L820,60 L821,59 L822,59 L823,59 L823,59 L823,59 L824,59 L824,59 L824,59 L824,59 L825,59 L826,59 L826,59 L827,59 L828,59 L828,59 L830,58 L831,57 L831,57 L832,57 L833,57 L834,56 L835,55 L837,54 L837,54 L841,53 L841,53 L841,53 L842,53 L842,53 L844,53 L844,53 L845,53 L845,53 L845,53 L845,53 L845,53 L846,53 L847,52 L848,52 L848,52 L849,52 L849,52 L849,52 L849,52 L850,52 L850,52 L851,52 L851,52 L851,52 L851,51 L853,51 L853,51 L854,51 L854,51 L855,51 L855,51 L855,51 L855,51 L855,51 L856,51 L856,51 L856,51 L856,51 L857,51 L857,51 L858,51 L858,51 L858,51 L859,51 L859,51 L860,51 L861,51 L862,51 L865,51 L867,51 L868,51 L869,51 L869,51 L872,52 L872,52 L872,52 L874,52 L874,52 L875,52 L877,53 L877,53 L877,53 L878,54 L878,54 L879,55 L880,55 L880,55 L880,55 L881,56 L881,56 L881,56 L882,57 L882,57 L883,58 L883,59 L884,59 L885,59 L885,58 L885,58 L885,58 L886,58 L886,58 L886,58 L887,58 L887,58 L887,58 L888,58 L888,57 L888,57 L889,58 L889,58 L891,59 L892,61 L892,61 L893,61 L893,62 L894,62 L894,62 L894,62 L895,62 L895,62 L896,62 L896,62 L896,62 L896,62 L896,62 L897,62 L898,62 L899,63 L899,63 L900,63 L900,64 L902,64 L902,65 L903,65 L903,66 L904,66 L905,67 L905,67 L906,68 L907,68 L907,69 L908,69 L908,70 L908,70 L909,70 L909,70 L910,71 L910,71 L911,73 L912,73 L912,73 L912,73 L913,73 L914,73 L915,75 L916,76 L917,77 L917,77 L918,77 L918,79 L921,82 L921,83 L921,83 L924,87 L925,89 L926,89 L927,90 L928,91 L928,92 L929,94 L930,96 L931,98 L931,98 L932,99 L932,100 L933,100 L934,101 L934,101 L935,102 L935,102 L937,104 L937,104 L938,104 L939,105 L939,105 L940,105 L940,107 L941,108 L941,108 L941,109 L942,109 L942,111 L943,111 L943,111 L943,113 L943,114 L945,115 L945,116 L945,116 L946,116 L947,118 L947,118 L948,118 L949,124 L950,126 L951,126 L951,127 L951,127 L952,127 L952,127 L952,127 L952,127 L952,127 L952,127 L952,128 L953,128 L953,128 L953,128 L953,129 L953,129 L954,130 L954,130 L954,131 L955,132 L955,133 L955,134 L956,135 L956,135 L956,135 L957,137 L957,138 L957,140 L959,144 L959,145 L960,146 L960,146 L961,147 L961,147 L962,147 L962,148 L963,148 L963,149 L964,149 L965,151 L965,151 L966,151 L966,153 L967,154 L967,155 L968,155 L968,155 L969,157 L969,158 L971,165 L972,167 L973,167 L973,167 L973,167 L974,167 L974,167 L975,166 L975,166 L976,164 L977,163 L977,162 L978,161 L978,161 L979,160 L979,160 L979,159 L980,159 L981,158 L981,158 L982,156 L982,156 L982,155 L983,154 L984,152 L984,152 L984,151 L984,150 L985,149 L985,149 L985,149 L986,149 L986,149 L986,148 L987,147 L987,147 L988,146 L989,141 L990,139 L990,139 L990,139 L991,139 L991,139 L991,139 L991,139 L992,139 L992,139 L992,139 L992,138 L993,138 L994,139 L995,137 L996,136 L997,136 L997,136 L997,136 L997,137 L999,138 L999,138 L999,141 L1000,142 L1001,144 L1001,145 L1002,146 L1003,149 L1003,150 L1003,150 L1004,152 L1004,153 L1005,153 L1005,153 L1005,153 L1005,153 L1006,155 L1006,156 L1006,156 L1007,157 L1008,161 L1008,162 L1008,162 L1008,163 L1009,165 L1009,165 L1009,165 L1009,165 L1010,165 L1010,166 L1011,166 L1011,167 L1012,168 L1012,169 L1012,169 L1013,170 L1013,170 L1013,171 L1013,171 L1014,172 L1014,172 L1015,173 L1016,175 L1016,177 L1017,178 L1017,179 L1017,179 L1018,180 L1018,180 L1019,181 L1020,182 L1020,182 L1020,182 L1021,183 L1021,183 L1022,183 L1022,183 L1023,183 L1025,185 L1025,185 L1025,185 L1026,186 L1027,186 L1030,187 L1031,187 L1031,187 L1033,187 L1034,187 L1034,187 L1034,188 L1035,188 L1035,188 L1036,188 L1036,188 L1036,188 L1036,188 L1036,188 L1036,189 L1037,189 L1037,189 L1038,189 L1038,190 L1038,190 L1039,191 L1039,191 L1040,191 L1041,191 L1041,191 L1042,191 L1042,191 L1042,191 L1043,191 L1043,191 L1045,191 L1047,191 L1048,191 L1048,190 L1049,189 L1049,187 L1050,186 L1051,185 L1051,184 L1052,184 L1052,183 L1052,183 L1053,182 L1053,182 L1054,181 L1054,181 L1055,180 L1056,179 L1057,178 L1057,178 L1058,178 L1058,178 L1058,178 L1060,177 L1062,174 L1063,173 L1064,172 L1064,172 L1065,171 L1065,171 L1066,171 L1066,171 L1066,169 L1067,169 L1067,168 L1068,168 L1068,167 L1068,167 L1069,166 L1069,166 L1069,165 L1069,165 L1071,161 L1071,161 L1072,159 L1073,159 L1073,159 L1073,159 L1074,159 L1074,158 L1074,158 L1075,158 L1075,157 L1075,157 L1076,156 L1076,156 L1077,154 L1077,153 L1077,152 L1078,151 L1079,150 L1079,149 L1079,149 L1079,147 L1080,146 L1080,145 L1081,145 L1081,143 L1082,141 L1082,139 L1083,135 L1084,133 L1084,132 L1084,132 L1085,131 L1085,131 L1085,130 L1085,130 L1086,130 L1086,130 L1087,127 L1087,127 L1088,126 L1088,126 L1089,125 L1089,125 L1089,125 L1089,125 L1089,125 L1089,124 L1090,124 L1090,124 L1091,123 L1092,122 L1092,120 L1093,117 L1094,115 L1094,114 L1095,114 L1095,113 L1096,113 L1096,112 L1097,110 L1098,109 L1098,108 L1099,106 L1099,106 L1099,105 L1100,105 L1101,103 L1101,103 L1102,101 L1102,100 L1103,100 L1104,98 L1105,97 L1105,96 L1106,96 L1106,95 L1107,95 L1107,95 L1108,95 L1109,94 L1111,91 L1111,91 L1112,90 L1112,90 L1112,89 L1113,89 L1115,85 L1116,82 L1116,81 L1117,81 L1117,81 L1118,80 L1118,80 L1118,80 L1119,80 L1119,79 L1119,79 L1119,79 L1120,79 L1120,79 L1120,79 L1120,79 L1121,79 L1122,79 L1123,79 L1123,79 L1123,79 L1124,79 L1124,78 L1124,78 L1124,78 L1125,78 L1125,78 L1126,77 L1126,77 L1126,77 L1127,76 L1127,76 L1127,75 L1128,75 L1128,75 L1129,75 L1129,75 L1129,75 L1130,75 L1130,75 L1131,75 L1131,75 L1132,75 L1132,75 L1132,75 L1133,75 L1133,75 L1133,75 L1134,76 L1134,76 L1134,76 L1136,76 L1136,77 L1137,77 L1137,77 L1137,77 L1137,77 L1138,77 L1140,77 L1140,77 L1141,77 L1141,77 L1142,77 L1142,77 L1143,77 L1143,77 L1144,77 L1145,77 L1145,77 L1146,77 L1146,78 L1148,79 L1149,80 L1149,80 L1149,80 L1150,80 L1150,80 L1150,80 L1151,80 L1151,80 L1152,80 L1153,80 L1153,81 L1153,81 L1154,81 L1154,81 L1155,81 L1155,81 L1155,81 L1156,82 L1157,82 L1157,82 L1157,82 L1158,83 L1160,83 L1160,83 L1160,84 L1161,84 L1163,85 L1164,85 L1164,85 L1165,85 L1166,85 L1166,85 L1166,85 L1167,86 L1168,86 L1168,86 L1168,87 L1169,87 L1170,87 L1170,87 L1171,87 L1172,87 L1172,87 L1172,87 L1173,87 L1173,87 L1174,86 L1174,86 L1174,86 L1175,86 L1176,87 L1176,87 L1177,87 L1177,87 L1178,87 L1178,87 L1179,88 L1181,88 L1181,88 L1182,88 L1182,88 L1183,88 L1183,89 L1183,89 L1184,89 L1184,89 L1185,90 L1185,90 L1186,91 L1187,91 L1188,91 L1189,91 L1190,91 L1190,91 L1190,91 L1191,91 L1191,91 L1191,92 L1192,92 L1192,93 L1193,94 L1193,94 L1193,95 L1194,95 L1194,95 L1194,95 L1195,96 L1195,96 L1196,95 L1196,95 L1197,94 L1197,93 L1198,93 L1198,93 L1198,93 L1198,93 L1198,93 L1199,93 L1199,93 L1199,93 L1200,94 L1201,96 L1201,96 L1202,98 L1203,98 L1203,99 L1203,99 L1204,100 L1205,100 L1205,100 L1206,101 L1207,101 L1209,104 L1210,104 L1210,105 L1210,106 L1211,106 L1211,106 L1211,106 L1212,106 L1212,106 L1212,107 L1212,107 L1213,107 L1213,107 L1213,108 L1214,109 L1215,110 L1216,110 L1216,110 L1216,110 L1217,111 L1217,111 L1217,111 L1218,111 L1218,112 L1218,112 L1218,112 L1219,112 L1220,113 L1220,113 L1220,113 L1221,113 L1221,113 L1221,113 L1221,113 L1221,114 L1221,114 L1222,114 L1222,114 L1222,114 L1223,114 L1223,114 L1223,115 L1223,115 L1224,115 L1224,115 L1224,117 L1225,117 L1225,117 L1226,120 L1226,120 L1227,120 L1227,120 L1227,121 L1228,121 L1228,121 L1228,121 L1229,121 L1230,122 L1230,122 L1230,123 L1231,124 L1232,125 L1232,126 L1233,127 L1234,129 L1234,129 L1234,129 L1235,130 L1235,130 L1235,131 L1235,131 L1236,131 L1237,132 L1237,132 L1237,132 L1237,133 L1237,133 L1238,133 L1238,133 L1238,134 L1239,134 L1239,134 L1240,135 L1240,135 L1240,135 L1240,135 L1240,136 L1241,137 L1242,138 L1242,138 L1242,139 L1243,140 L1243,140 L1243,140 L1243,140 L1243,140 L1244,141 L1245,142 L1245,142 L1246,144 L1247,144 L1247,145 L1248,145 L1249,146 L1249,146 L1250,147 L1251,147 L1251,147 L1252,148 L1253,150 L1254,150 L1255,151 L1255,151 L1255,151 L1256,151 L1256,152 L1257,152 L1257,154 L1258,157 L1259,158 L1260,158 L1260,158 L1260,158 L1260,158 L1260,158 L1261,159 L1261,159 L1262,159 L1262,159 L1262,159 L1263,159 L1263,159 L1263,159 L1263,159 L1264,159 L1264,160 L1265,160 L1266,163 L1266,164 L1266,164 L1267,164 L1267,164 L1267,165 L1268,165 L1268,165 L1268,165 L1269,168 L1270,168 L1270,170 L1270,170 L1271,170 L1271,170 L1272,170 L1272,171 L1272,171 L1272,171 L1273,171 L1273,172 L1273,172 L1276,176 L1277,177 L1277,177 L1278,177 L1278,178 L1278,179 L1278,179 L1280,180 L1280,181 L1280,181 L1280,181 L1281,181 L1281,181 L1281,181 L1281,181 L1282,180 L1282,180 L1283,179 L1283,179 L1283,179 L1284,178 L1284,178 L1284,177 L1284,177 L1284,177 L1284,177 L1285,177 L1286,177 L1286,176 L1288,175 L1289,173 L1289,173 L1289,172 L1290,172 L1290,172 L1291,171 L1291,171 L1291,170 L1291,170 L1292,170 L1292,169 L1292,169 L1293,169 L1293,169 L1293,168 L1294,166 L1295,165 L1295,164 L1296,162 L1296,162 L1297,162 L1297,161 L1298,160 L1298,160 L1298,159 L1298,159 L1298,159 L1299,159 L1300,158 L1300,158 L1301,156 L1301,156 L1302,155 L1303,153 L1303,153 L1304,151 L1305,150 L1305,150 L1305,150 L1305,149 L1306,148 L1307,148 L1307,148 L1308,147 L1308,146 L1308,146 L1308,146 L1308,146 L1308,146 L1310,145 L1310,144 L1310,142 L1311,141 L1311,141 L1311,141 L1312,138 L1313,136 L1313,136 L1314,133 L1314,133 L1314,133 L1314,132 L1315,132 L1315,132 L1316,131 L1317,129 L1317,129 L1318,128 L1318,128 L1318,127 L1320,123 L1321,117 L1322,117 L1322,117 L1322,117 L1322,117 L1323,117 L1323,116 L1324,116 L1324,116 L1324,116 L1325,116 L1325,115 L1325,115 L1326,114 L1326,114 L1327,112 L1327,111 L1327,111 L1328,110 L1328,109 L1329,109 L1329,108 L1330,107 L1330,107 L1330,107 L1330,107 L1331,107 L1331,106 L1332,106 L1332,105 L1332,105 L1333,104 L1333,103 L1334,103 L1335,102 L1335,101 L1336,101 L1337,101 L1337,100 L1337,100 L1338,101 L1339,101 L1339,100 L1340,100 L1340,100 L1340,100 L1341,100 L1341,100 L1341,100 L1342,100 L1342,100 L1342,100 L1343,100 L1343,99 L1343,99 L1344,98 L1344,97 L1345,97 L1345,97 L1345,96 L1346,96 L1346,96 L1346,95 L1346,95 L1347,95 L1347,94 L1347,94 L1348,94 L1348,93 L1348,93 L1348,93 L1348,93 L1349,93 L1349,93 L1349,93 L1349,93 L1349,93 L1349,93 L1350,93 L1351,94 L1352,95 L1353,95 L1353,95 L1353,95 L1354,95 L1354,96 L1354,96 L1355,96 L1355,96 L1356,97 L1356,97 L1356,97 L1357,98 L1358,98 L1359,98 L1359,98 L1360,99 L1360,99 L1360,99 L1361,99 L1361,99 L1361,100 L1362,100 L1363,101 L1363,101 L1365,104 L1367,104 L1367,104 L1367,103 L1368,103 L1368,103 L1369,104 L1369,104 L1369,103 L1369,103 L1370,103 L1370,104 L1370,104 L1371,105 L1371,105 L1372,105 L1372,106 L1373,106 L1373,106 L1373,107 L1374,107 L1374,107 L1374,108 L1375,108 L1375,108 L1375,108 L1376,108 L1376,108 L1377,109 L1377,109 L1377,109 L1378,109 L1378,109 L1379,109 L1380,109 L1380,109 L1380,109 L1381,109 L1382,109 L1383,110 L1383,110 L1383,110 L1384,110 L1384,110 L1384,110 L1384,110 L1384,110 L1385,110 L1385,110 L1385,110 L1385,110 L1386,110 L1387,111 L1387,111 L1388,111 L1388,111 L1389,111 L1389,112 L1389,112 L1390,112 L1390,112 L1390,112 L1390,112 L1391,112 L1391,112 L1391,113 L1391,113 L1392,113 L1392,113 L1393,113 L1393,114 L1393,114 L1394,114 L1394,115 L1394,115 L1394,115 L1395,116 L1395,117 L1395,117 L1396,117 L1396,118 L1397,119 L1397,119 L1398,122 L1399,122 L1400,125 L1400,125 L1400,126 L1402,128 L1402,128 L1402,128 L1403,129 L1404,131 L1405,134 L1405,135 L1406,135 L1406,136 L1407,137 L1408,138 L1408,140 L1409,140 L1409,140 L1409,141 L1410,141 L1410,141 L1410,141 L1410,141 L1411,141 L1411,141 L1411,142 L1411,142 L1412,143 L1412,143 L1412,143 L1413,143 L1413,146 L1413,146 L1414,147 L1414,147 L1414,149 L1415,150 L1415,151 L1416,152 L1416,153 L1417,153 L1417,154 L1417,154 L1418,154 L1418,155 L1418,155 L1418,155" fill="transparent" id="track" stroke="black" stroke-width="2"/>
</g>
<g id="SL" transform="translate(0 360) scale(-1 -1)">
<text text-anchor="end" transform="scale(-1 -1)" x="-10" y="5">
0
</text>
<text text-anchor="end" transform="scale(-1 -1)" x="-10" y="-42">
200
</text>
<text text-anchor="end" transform="scale(-1 -1)" x="-10" y="-90">
400
</text>
<text text-anchor="end" transform="scale(-1 -1)" x="-10" y="-138">
600
</text>
<text text-anchor="end" transform="scale(-1 -1)" x="-10" y="-186">
800
</text>
<text text-anchor="end" transform="scale(-1 -1)" x="-10" y="-234">
1000
</text>
<text text-anchor="end" transform="scale(-1 -1)" x="-10" y="-282">
1200
</text>
<text text-anchor="end" transform="scale(-1 -1)" x="-10" y="-330">
1400
</text>
</g>
</g>
</svg>