<svg height="400" width="1420" xmlns="http://www.w3.org/2000/svg">
<g font-family="Libertinus Serif" font-size="15" id="world" shape-rendering="crispEdges">
<g id="BG"/>
<g id="SB" transform="translate(0 360)">
<text text-anchor="middle" x="0" y="14.5">
180
</text>
<text text-anchor="middle" x="283.7000000000003" y="14.5">
200
</text>
<text text-anchor="middle" x="567.4000000000001" y="14.5">
220
</text>
<text text-anchor="middle" x="851.1000000000004" y="14.5">
240
</text>
<text text-anchor="middle" x="1134.8000000000002" y="14.5">
260
</text>
</g>
<g id="SD" transform="translate(0 0)">
<path d="M0,0 L0,358.5 L1418.5,358.5 L1418.5,0 L0,0" fill="lightgray" id="bg"/>
<path d="M0,0 L1418.5,0" stroke="black" stroke-width="3"/>
<path d="M0,0 L0,358.5" stroke="black" stroke-width="3"/>
<path d="M0,358.5 L1418.5,358.5" stroke="black" stroke-width="3"/>
<path d="M1418.5,0 L1418.5,358.5" stroke="black" stroke-width="3"/>
<path d="M0,0 L0,358.5" stroke="black" stroke-width="1"/>
<path d="M283.7,0 L283.7,358.5" stroke="black" stroke-width="1"/>
<path d="M567.4,0 L567.4,358.5" stroke="black" stroke-width="1"/>
<path d="M851.1,0 L851.1,358.5" stroke="black" stroke-width="1"/>
<path d="M1134.8,0 L1134.8,358.5" stroke="black" stroke-width="1"/>
<path d="M141.85,0 L141.85,358.5" stroke="black" stroke-dasharray="1.0,2.5,5.0,5.0,10.0,5.0"/>
<path d="M425.55,0 L425.55,358.5" stroke="black" stroke-dasharray="1.0,2.5,5.0,5.0,10.0,5.0"/>
<path d="M709.25,0 L709.25,358.5" stroke="black" stroke-dasharray="1.0,2.5,5.0,5.0,10.0,5.0"/>
<path d="M992.95,0 L992.95,358.5" stroke="black" stroke-dasharray="1.0,2.5,5.0,5.0,10.0,5.0"/>
<path d="M1276.65,0 L1276.65,358.5" stroke="black" stroke-dasharray="1.0,2.5,5.0,5.0,10.0,5.0"/>
<path d="M0,358.5 L1418.5,358.5" stroke="black" stroke-width="1"/>
<path d="M0,286.8 L1418.5,286.8" stroke="black" stroke-width="1"/>
<path d="M0,215.1 L1418.5,215.1" stroke="black" stroke-width="1"/>
<path d="M0,143.4 L1418.5,143.4" stroke="black" stroke-width="1"/>
<path d="M0,71.7 L1418.5,71.7" stroke="black" stroke-width="1"/>
<path d="M0,322.65 L1418.5,322.65" stroke="black" stroke-dasharray="1.0,2.5,5.0,5.0,10.0,5.0"/>
<path d="M0,250.95 L1418.5,250.95" stroke="black" stroke-dasharray="1.0,2.5,5.0,5.0,10.0,5.0"/>
<path d="M0,179.25 L1418.5,179.25" stroke="black" stroke-dasharray="1.0,2.5,5.0,5.0,10.0,5.0"/>
<path d="M0,107.55 L1418.5,107.55" stroke="black" stroke-dasharray="1.0,2.5,5.0,5.0,10.0,5.0"/>
<path d="M0,35.85 L1418.5,35.85" stroke="black" stroke-dasharray="1.0,2.5,5.0,5.0,10.0,5.0"/>
<path d="M0.15493265,167.96358 L0.15493265,167.96358 L0.30290574,167.66412 L0.41508102,167.61667 L0.74240416,167.13031 L1.1811004,166.40852 L2.0670984,164.68735 L2.2086995,164.35234 L2.5362713,163.90799 L2.6907887,163.7406 L2.843787,163.33798 L3.0762396,162.86278 L3.411444,161.77419 L3.975976,161.1816 L4.1243258,160.79779 L4.2441897,160.79779 L4.36461,160.71953 L4.900263,160.62952 L5.0627694,160.54825 L5.252253,160.54825 L5.4297066,160.29167 L6.409212,158.42831 L6.861291,157.838 L7.1034503,157.22017 L7.314004,157.13055 L7.5210958,157.13055 L8.306869,153.53903 L8.843522,152.10603 L9.637403,150.89265 L9.87894,150.092 L10.876358,146.93634 L11.018943,146.66473 L11.21147,145.92862 L11.438509,145.92862 L12.001506,145.59805 L12.288187,145.3857 L12.437281,145.3857 L12.634387,144.92561 L13.283993,144.49342 L13.4988575,144.49342 L13.734695,144.57251 L13.982502,144.42911 L14.346381,144.45638 L14.70979,144.06546 L14.878451,143.40224 L15.091625,143.06891 L15.46211,141.62543 L15.594587,141.28064 L16.781202,140.2721 L17.400957,139.29433 L17.606106,138.9761 L17.796026,138.68102 L17.972933,138.24892 L18.134518,138.04042 L18.272873,138.04042 L18.660883,137.3772 L18.872551,137.3772 L18.95946,137.3772 L19.163157,137.3772 L19.276356,137.3772 L19.383162,137.3772 L19.626202,137.21115 L19.769133,137.21115 L20.170362,137.21115 L20.773066,136.82469 L20.96347,136.75655 L21.186218,136.51167 L21.433622,136.30647 L23.427715,132.3582 L24.066483,131.37233 L24.346554,131.05864 L25.037666,129.87335 L25.28264,129.55557 L25.509977,129.26514 L25.87672,129.06943 L26.129667,129.06943 L26.42282,128.86482 L26.645237,128.86482 L26.843122,128.86482 L26.973753,128.59605 L27.356182,127.88538 L27.547792,127.88538 L27.6921,127.88538 L27.829569,127.88538 L27.968664,127.57223 L28.126778,126.64461 L28.550308,125.335815 L29.902964,122.66197 L30.905525,121.06246 L31.029457,120.76562 L31.26948,120.76562 L32.189293,120.287506 L32.285713,120.287506 L32.486153,120.0258 L32.62653,119.801735 L32.846066,119.59234 L33.326107,119.34166 L35.167583,118.30826 L35.397007,117.92499 L35.827972,116.719635 L36.237152,116.22968 L36.557224,116.22968 L37.551632,115.18279 L37.993977,114.273254 L38.2643,113.28002 L38.7403,112.24084 L39.715984,111.30046 L40.00238,111.30046 L40.468132,110.913925 L40.658253,110.86199 L40.869843,110.43891 L41.128395,109.93891 L41.474667,110.17004 L42.078964,110.0834 L42.443336,110.50073 L43.371326,111.51441 L44.117695,113.62795 L44.738167,114.51593 L45.06745,115.445274 L45.41703,115.917984 L46.143368,116.85052 L46.317158,117.35911 L46.490753,117.7775 L46.636803,118.15682 L46.778442,118.15682 L47.23102,119.24831 L47.66601,119.866714 L48.733772,121.69943 L48.93828,121.69943 L49.29745,122.60899 L49.466232,123.011894 L49.650707,124.127464 L50.007042,124.32025 L50.217617,124.57477 L50.681927,125.06178 L50.794018,125.06178 L50.93757,125.19895 L51.09087,125.335014 L51.222492,125.335014 L51.775677,125.79765 L52.326447,126.46267 L52.437946,126.46267 L52.687298,126.59767 L52.813457,126.84447 L53.206745,127.35807 L53.399197,127.35807 L53.63216,127.930725 L53.895916,128.40872 L54.337242,129.14224 L54.705376,129.8002 L55.06332,129.8002 L55.577503,130.60411 L55.966938,131.69754 L56.460007,132.39703 L56.64613,133.72647 L56.89019,135.06786 L57.31916,136.95804 L58.45835,139.84189 L59.31243,141.80766 L59.550068,142.54286 L59.74612,143.3032 L59.996292,143.57925 L60.208828,144.46246 L60.706974,144.84595 L61.59778,145.64362 L61.868526,146.08324 L62.611595,147.15121 L62.95245,148.71477 L63.423515,149.71857 L63.907055,150.16261 L64.59873,152.29976 L64.84364,153.72778 L65.519684,155.79582 L65.64565,155.79582 L66.09242,156.98439 L67.01943,158.56007 L67.22461,158.67421 L67.60817,159.40598 L68.09844,160.50444 L68.35501,160.50444 L68.60471,161.1816 L68.94074,161.71263 L69.122406,161.71263 L69.298386,161.71263 L69.50892,161.71263 L69.71619,162.2339 L69.89519,162.39825 L70.30644,162.52956 L70.538445,163.3063 L70.74538,164.04288 L71.46345,164.22885 L72.45094,168.77881 L73.159805,172.74486 L73.459335,174.02568 L74.36833,176.7796 L74.66227,177.28722 L74.98793,177.28722 L75.63239,178.66444 L75.86268,179.4127 L76.28703,180.67021 L76.52858,181.79535 L76.88415,181.79535 L77.46647,183.09875 L78.25811,184.27797 L78.58924,185.3684 L79.11386,186.44092 L79.32771,187.09464 L80.009674,189.0251 L80.283646,189.0251 L81.26678,190.07996 L81.55223,190.77414 L82.32182,192.72362 L82.60022,193.06052 L82.84211,193.38515 L83.28876,194.7896 L84.13376,195.37975 L84.786385,196.0664 L84.91934,196.0664 L85.136475,196.0664 L85.27875,196.53268 L85.43809,197.1196 L86.04693,197.99303 L86.70707,198.5373 L87.11971,199.70601 L88.338585,203.5563 L89.843506,205.68938 L90.26278,206.5677 L90.60738,207.3803 L91.678375,209.63544 L93.3282,211.69937 L94.02901,212.79536 L94.48357,212.79536 L94.86216,215.08656 L95.72844,215.99625 L96.858376,218.45035 L97.4927,219.95569 L97.68215,220.119 L98.485,221.29846 L98.85682,221.78801 L99.08568,221.78801 L99.38945,222.61775 L100.35263,224.83527 L101.06692,225.34862 L101.92328,229.2044 L102.70444,230.27052 L104.32073,236.69963 L104.65996,237.81866 L105.71333,243.0379 L106.533356,243.93994 L107.252365,245.26265 L107.5254,245.93927 L107.61556,245.93927 L107.72545,246.19987 L107.936195,246.19987 L108.081764,246.19987 L108.5888,246.7197 L108.81622,246.7197 L109.04848,246.82726 L109.5209,247.12122 L109.978355,247.12122 L110.45514,247.74142 L111.234146,248.27618 L111.73135,248.81204 L112.18559,248.97108 L113.013985,250.21507 L113.248245,250.21507 L113.48058,250.27211 L114.54634,251.70285 L115.07326,252.384 L115.34437,252.384 L115.65892,252.9098 L115.82032,252.9098 L116.40865,254.96878 L116.89937,255.3563 L117.287346,255.3563 L118.191475,257.3134 L118.83177,259.19876 L119.71708,259.51517 L120.36113,259.81473 L120.49174,259.81473 L121.14489,258.88388 L121.44977,258.88388 L121.60694,258.88388 L121.99644,258.8131 L122.35101,258.8131 L122.61659,258.7751 L123.347885,257.86548 L123.61876,257.86548 L123.9131,257.86548 L126.01957,253.7941 L127.882324,251.1651 L128.59058,250.93805 L129.44856,250.55565 L130.4944,249.2753 L131.17915,248.14857 L132.30116,245.80296 L133.1191,244.15941 L133.93971,243.41048 L134.42113,242.87778 L134.9271,241.50233 L135.2292,241.16295 L135.36743,241.16295 L135.50117,241.16295 L135.63005,240.7925 L135.88847,240.7925 L136.31174,239.80962 L136.59431,238.64401 L137.30092,237.81297 L137.4888,237.81297 L137.69229,237.57417 L138.40231,236.02072 L138.98222,234.89398 L139.06561,234.89398 L139.21437,234.38986 L139.35349,234.26064 L139.42027,234.26064 L140.0191,233.66553 L140.3704,233.1812 L141.02122,232.79454 L141.33739,232.2747 L142.146,230.65614 L142.67824,229.78654 L142.97433,228.8216 L143.52043,227.43515 L143.86694,226.87535 L144.4632,226.27417 L144.88687,226.27417 L145.33003,225.45238 L145.65668,224.84224 L145.8798,224.17004 L146.07103,224.17004 L146.64812,223.30313 L147.27696,222.3865 L147.9838,221.65404 L148.945,221.24828 L149.54213,221.32446 L149.98389,221.73943 L150.16199,221.61275 L151.15671,221.78603 L152.08357,221.77109 L152.43893,221.792 L152.73216,221.6771 L153.1636,221.64125 L153.82056,221.66502 L154.04778,221.81291 L154.30705,221.81291 L154.64961,221.81291 L155.21428,221.69162 L155.53854,221.56068 L155.75098,221.42891 L155.9594,221.91663 L156.25406,222.33914 L156.4001,222.33914 L156.59824,222.83405 L156.74599,222.89993 L158.58836,226.30801 L159.05167,227.44543 L159.427,228.79071 L159.78949,230.83366 L160.60736,231.33289 L161.10272,231.33289 L161.76996,231.99611 L162.27112,233.1206 L162.85626,234.1961 L163.24927,234.1961 L164.0533,235.79889 L164.7784,237.01779 L165.497,239.09082 L166.53685,240.84827 L167.40509,241.59315 L167.7754,242.24869 L168.04381,242.24869 L168.33354,242.24869 L168.84177,243.99959 L171.23203,249.17902 L171.53923,251.37508 L172.73903,253.45154 L173.82748,252.88078 L174.07767,253.99248 L174.3357,253.99248 L174.57939,254.40184 L174.94885,254.73576 L175.52007,255.38907 L175.68517,255.66428 L175.83133,255.89308 L175.9616,255.89308 L176.12119,255.89308 L176.37453,255.89308 L176.66711,255.91838 L176.84589,255.89531 L177.7536,256.306 L178.11948,256.87207 L178.30347,257.1602 L178.65451,258.15585 L179.44931,259.85672 L179.62526,259.9315 L179.76253,260.32162 L179.90419,260.32162 L180.0193,260.59164 L180.35104,260.59164 L180.50128,260.59164 L180.66458,260.81274 L180.81998,260.81274 L181.00217,261.1201 L181.48044,261.38046 L181.96884,262.2768 L182.55617,263.40692 L182.82718,264.4973 L183.45746,266.32965 L183.65825,267.2301 L183.82307,267.2301 L183.98715,267.48132 L184.40828,267.66806 L184.73398,267.66806 L184.99828,267.81485 L185.57602,267.99805 L185.82314,269.1094 L185.965,269.1094 L186.16945,269.81735 L186.39189,270.31177 L188.45767,275.54758 L188.9634,278.37524 L189.44502,280.56927 L190.42511,281.14764 L191.70471,282.24704 L192.93756,283.80652 L193.83562,286.6136 L195.9928,291.86978 L196.184,291.99274 L196.97337,292.6 L197.51273,292.7009 L197.86578,292.82953 L197.99384,292.95566 L198.13698,292.95566 L198.34761,293.08768 L198.40703,293.08768 L198.46266,293.08768 L198.82684,293.32828 L198.98413,293.64914 L199.3345,293.95746 L199.57013,293.95746 L200.01959,294.34216 L200.55008,294.8756 L200.7644,295.27853 L201.1827,295.45453 L201.38525,295.70212 L201.5583,295.8826 L201.73354,296.15863 L201.89404,296.30026 L202.4575,296.7922 L202.64726,296.93423 L202.86603,297.2248 L202.97302,297.2248 L203.34369,297.35065 L203.45883,297.48706 L203.59752,297.48706 L204.38943,298.19464 L204.51187,298.3417 L204.76575,298.73804 L205.32722,298.8904 L205.6064,299.1092 L205.85211,299.36423 L206.60442,299.5764 L206.9079,299.5959 L207.09814,299.5959 L207.53911,299.6582 L208.2749,299.67566 L208.39027,299.67566 L208.75818,299.6734 L209.58937,299.72253 L210.42058,299.6734 L210.78848,299.67566 L210.90385,299.67566 L211.63963,299.6582 L212.08061,299.5959 L212.27086,299.5959 L212.57434,299.5764 L213.32664,299.36423 L213.57236,299.36423 L213.85153,299.18362 L214.41301,299.06308 L214.66689,298.99155 L214.78932,298.99155 L215.58122,298.61948 L215.71991,298.61948 L215.83507,298.61948 L216.64363,298.35748 L216.90498,298.30786 L217.96126,298.20798 L218.19737,298.20798 L218.69507,298.13837 L218.98468,298.09872 L219.57408,298.01807 L219.92749,297.75354 L220.33601,297.6011 L220.46649,297.44983 L220.66586,297.31076 L221.57632,296.79977 L222.39107,296.4819 L222.60156,296.31305 L222.74434,296.31305 L223.02646,296.12375 L223.29454,295.9059 L223.4177,295.61313 L223.82053,295.29047 L224.18634,295.19165 L225.00227,294.84695 L226.16833,293.71008 L226.4152,293.43524 L226.83159,293.1813 L227.524,293.16174 L228.01025,292.88797 L228.30885,292.88797 L228.5015,292.88797 L228.73273,292.88797 L229.15337,292.37305 L229.59825,291.90375 L230.5208,290.8839 L231.90363,289.77554 L232.20035,289.50668 L232.64813,289.0272 L232.86418,289.0272 L233.07466,289.0272 L233.6588,288.597 L235.46184,287.72763 L235.96446,286.54306 L236.50012,286.05313 L237.32388,285.6528 L238.57747,284.93182 L239.1855,284.49365 L239.77434,284.23224 L240.10895,283.84836 L240.51233,283.3584 L240.98227,283.15048 L241.53629,282.8099 L242.89355,281.93158 L243.10649,281.54797 L243.76546,281.01184 L244.15408,280.74854 L245.02644,280.0602 L245.52063,279.64655 L245.78142,279.55234 L246.00197,279.152 L246.31447,279.152 L247.23393,278.23837 L247.78638,277.0736 L248.11606,276.77994 L248.2565,276.77994 L248.77303,275.30844 L249.769,273.66815 L250.20137,272.34528 L250.544,271.60284 L251.39148,268.46472 L251.91402,266.58856 L252.76337,264.77615 L253.15024,262.71277 L254.03232,257.56134 L254.60118,256.61755 L255.21185,254.13467 L255.75797,252.05032 L256.18552,250.52255 L256.4102,250.02559 L256.5496,250.02559 L256.7333,249.54707 L257.66336,247.14273 L257.8592,247.14273 L258.1234,246.00748 L258.32486,245.56802 L258.79474,245.0706 L259.03314,244.69162 L259.44357,243.09373 L259.8417,242.71002 L260.03842,242.71002 L260.8861,240.82494 L261.14276,240.4101 L261.88702,238.68604 L262.25305,237.862 L262.90775,236.48453 L263.17746,236.00381 L263.5906,236.00381 L264.48486,234.72429 L264.76996,233.92842 L265.0702,233.92842 L265.912,232.68243 L267.17175,231.02637 L267.36768,230.59232 L268.07755,228.71852 L269.1614,228.127 L270.22232,227.5758 L270.5459,227.5758 L270.73734,227.5758 L270.99234,227.30334 L276.49725,230.90387 L277.07007,231.7344 L277.61386,231.69855 L278.76553,231.55515 L279.2633,231.55515 L279.60315,231.74873 L279.8589,231.8224 L280.1313,232.00165 L280.45883,232.25586 L281.09622,232.63663 L281.49854,232.88435 L282.53168,232.94434 L282.8114,233.07063 L283.088,232.78708 L283.57675,232.93896 L284.13083,231.49974 L284.851,231.51572 L285.1731,229.85228 L285.71677,229.13885 L286.5384,226.59192 L286.92944,226.59192 L287.7617,224.2776 L287.96057,224.2776 L289.30392,222.94757 L290.34744,222.93521 L290.9242,223.46898 L291.0796,223.46898 L291.30032,223.49248 L291.5751,223.49248 L292.88943,223.85338 L293.2132,223.89153 L293.51514,223.84996 L294.09518,224.14316 L295.13168,222.74629 L295.35333,222.74629 L295.5094,222.74629 L295.7882,222.19318 L295.85422,222.19318 L296.0779,222.0411 L297.13794,220.40068 L297.39975,219.94214 L297.6839,219.94214 L297.94336,219.47147 L298.45203,217.97311 L299.36307,215.25876 L299.44415,215.25876 L299.56055,215.25876 L300.17764,214.11053 L300.7371,212.8773 L301.04153,212.07324 L301.40707,211.3255 L301.79346,211.3255 L302.11548,210.62996 L302.40952,208.78368 L302.96262,208.61115 L303.24054,208.17885 L303.8216,207.82666 L304.14322,207.47989 L304.78323,207.03796 L304.89713,207.03796 L304.98227,206.82985 L305.09564,206.82985 L305.1727,206.88614 L305.51053,206.69766 L305.8939,206.63716 L306.3655,206.76382 L306.78232,206.98196 L306.85703,206.98196 L307.51968,207.26205 L307.99368,207.93633 L308.47595,208.43639 L308.85257,208.58725 L309.05035,208.58725 L309.35828,208.74174 L309.5875,209.14651 L309.86838,209.51016 L310.24545,210.03235 L310.41916,210.72118 L310.508,210.72118 L311.109,211.49963 L312.21646,213.42157 L312.98102,215.96365 L313.21304,217.39766 L313.69547,219.06342 L314.31586,221.76451 L315.19904,224.23523 L315.34183,224.23523 L316.0407,225.83545 L316.77277,228.42186 L317.0785,228.42186 L317.29102,230.04945 L317.603,231.31615 L318.58472,233.35742 L319.47614,234.78165 L319.96295,235.97903 L320.3072,236.5383 L320.4242,236.5383 L320.67215,237.00435 L321.4831,237.46642 L322.2693,237.24553 L323.55014,237.86475 L324.10083,238.3308 L324.32813,238.67436 L324.67212,238.9761 L325.3089,240.04712 L325.4773,240.04712 L325.87283,240.25404 L326.36826,240.44595 L326.50342,240.57248 L326.7663,240.69092 L327.1351,240.98569 L327.4712,241.34021 L327.60522,241.67117 L327.69226,241.67117 L327.85135,241.81622 L328.1221,241.81622 L328.47226,242.45355 L328.83975,242.85423 L329.53754,243.23985 L329.742,243.38821 L330.15146,244.27951 L330.64575,245.09267 L331.0953,245.87723 L331.33365,246.08743 L332.69705,248.38672 L332.95526,248.38672 L333.33997,249.56978 L333.8843,251.29547 L334.75565,253.54097 L335.15677,253.98232 L335.84476,254.88634 L336.22653,255.89014 L336.4569,255.89014 L337.22897,258.3268 L337.47318,258.7525 L337.7228,259.21756 L338.89005,260.14716 L339.5428,260.97604 L339.6201,260.97604 L339.91962,260.97604 L339.98325,260.97604 L340.25717,261.43164 L343.14197,265.87256 L344.46335,267.5127 L345.12396,268.05045 L346.0462,268.62405 L347.19547,268.62405 L347.76373,269.83698 L348.8777,270.55276 L350.06906,270.45956 L351.92844,270.7392 L352.27966,270.7392 L352.93442,270.18353 L353.8609,271.3128 L356.57278,276.0988 L358.09167,277.9988 L359.1137,278.64053 L359.6229,279.3432 L361.83752,281.07834 L362.5077,282.53384 L363.12982,283.59143 L365.86722,288.7072 L367.69388,290.69742 L368.0085,290.69742 L368.3857,290.69742 L368.85052,291.35294 L369.60242,291.9624 L370.25076,291.9624 L371.74472,293.8535 L373.7045,296.96945 L375.22345,299.29373 L376.57788,300.7576 L377.98032,301.39096 L379.08566,301.77505 L379.20407,301.77505 L379.37363,301.77505 L379.67136,302.30154 L379.8258,302.30154 L379.95947,302.30154 L380.11078,302.30154 L380.4779,302.30154 L380.6779,302.30154 L381.05533,302.5764 L381.45477,302.82495 L381.62592,303.06747 L382.28268,303.73315 L382.4369,303.73315 L383.60706,305.40616 L384.01544,305.80408 L384.40454,306.31314 L384.95462,306.81146 L385.53494,307.8244 L386.2304,308.1999 L386.93146,308.572 L387.48605,308.8247 L388.03586,309.02957 L388.15015,309.02957 L388.3668,309.02957 L388.56534,309.26257 L388.66162,309.37595 L388.73804,309.37595 L389.65887,309.47256 L390.00528,309.85156 L390.3042,309.85156 L390.52203,310.19437 L391.29245,310.62354 L391.436,310.70425 L392.5223,311.13663 L392.76453,311.13663 L393.21646,311.52158 L393.35815,311.52158 L393.52048,311.66687 L394.0886,311.66687 L394.40897,311.85916 L394.8705,311.85916 L395.78003,311.99857 L396.9325,312.22363 L398.31427,312.62634 L398.87827,312.64786 L401.1491,313.13184 L401.87408,313.43655 L402.25766,313.43655 L403.58792,313.84683 L404.3895,313.9906 L405.16818,314.15714 L405.27542,314.15714 L405.80878,314.15714 L406.37363,314.27087 L406.65897,314.54193 L406.80164,314.54193 L406.95572,314.6058 L407.58972,314.79373 L409.1954,315.07797 L409.2511,315.12427 L409.43887,315.12427 L409.73462,315.28772 L409.97916,315.39755 L410.26364,315.47675 L411.283,315.57217 L411.69327,315.55396 L411.93054,315.5649 L413.03558,315.666 L413.23666,315.68555 L413.59723,315.68555 L414.0023,315.68457 L414.09174,315.6712 L414.3109,315.6732 L414.37726,315.6555 L414.53726,315.6533 L414.62454,315.64417 L414.69302,315.64417 L414.80954,315.6254 L415.0091,315.60727 L416.6568,315.53464 L416.82132,315.53464 L416.92416,315.58243 L417.03027,315.59473 L417.202,315.60077 L417.3846,315.6214 L417.77878,315.58124 L417.8326,315.58124 L417.9457,315.54947 L417.98224,315.51584 L418.2689,315.51584 L418.3565,315.49194 L419.7257,315.34735 L420.1209,315.3147 L420.24838,315.30496 L420.31015,315.30496 L420.81415,315.18723 L421.11676,315.14047 L421.45575,315.11478 L422.24017,315.0983 L422.38028,315.0983 L422.4624,315.0983 L422.8525,315.0162 L423.19415,314.89536 L423.3379,314.9064 L423.5022,314.91595 L423.6364,314.91595 L423.8096,314.91153 L424.6695,314.87952 L426.03644,314.43057 L426.2299,314.1701 L427.62286,313.88882 L427.84827,313.88882 L428.18588,313.92566 L428.81528,313.95758 L428.90045,313.87955 L428.9628,313.87955 L429.04178,313.87955 L429.21533,313.78952 L429.7576,313.813 L429.8906,313.813 L430.41205,313.813 L430.7652,313.83917 L431.16772,313.86676 L432.52753,314.1625 L433.52774,314.046 L434.46802,313.96634 L435.43655,313.9265 L435.57886,313.9265 L435.7151,313.94562 L435.87714,313.9645 L436.03882,313.9645 L436.2236,313.9645 L437.60117,314.1894 L438.51016,314.36865 L438.68124,314.41885 L439.3563,314.553 L439.61017,314.5479 L439.9128,314.62677 L440.91666,314.72318 L442.2493,314.96915 L442.54498,314.98322 L442.6939,314.98322 L444.76526,314.8142 L444.9917,314.8142 L446.24088,314.82574 L447.38113,314.86337 L450.04083,314.63156 L451.51456,314.6196 L453.52252,314.31128 L454.85965,314.1894 L455.05508,314.0699 L456.09988,313.9519 L457.33414,313.8975 L457.77188,313.81894 L457.90485,313.709 L458.0124,313.709 L461.0571,314.6913 L461.20135,314.9512 L461.38174,314.9512 L463.68332,314.9512 L468.14136,314.6435 L470.25323,313.93845 L472.39096,314.2611 L474.4543,314.285 L474.57703,314.285 L474.74847,314.285 L474.83508,314.285 L474.92563,314.285 L477.8987,314.68414 L480.41275,314.8825 L480.51526,314.8825 L480.65588,314.91666 L481.14444,315.1052 L483.00668,315.01605 L483.4014,315.0259 L483.58005,314.9893 L483.69073,314.97598 L483.74203,314.97598 L483.85196,314.97598 L483.94116,314.97598 L484.04712,314.98706 L484.3483,315.01816 L484.58194,315.01816 L485.33142,315.13004 L485.36676,315.13004 L485.4529,315.13004 L486.28152,315.1471 L486.38077,315.1471 L486.44064,315.1448 L487.04916,315.1215 L487.53168,315.11096 L487.73395,315.11096 L487.8386,315.11096 L488.04086,315.11096 L488.70084,315.19577 L488.7574,315.18842 L489.48505,315.30673 L489.9006,315.28772 L490.00235,315.28772 L490.10416,315.28772 L491.58694,314.99347 L494.01874,314.80603 L494.6632,314.59912 L495.2138,314.59912 L495.88358,314.5479 L497.04327,314.57547 L497.37723,314.6196 L497.47745,314.6698 L498.14032,314.72458 L498.27515,314.72458 L498.75528,314.89615 L499.02817,314.89615 L499.3155,314.89615 L499.66672,315.1215 L499.75638,315.1215 L500.0801,315.1693 L500.27316,315.22394 L500.8294,315.4339 L501.2851,315.61145 L502.20193,316.68353 L502.48062,316.68353 L503.43106,317.32986 L504.1838,317.52704 L504.4464,317.52704 L504.584,317.52704 L504.72537,317.52704 L505.0268,317.52704 L506.26935,317.674 L506.9802,317.674 L508.20816,317.66174 L508.7278,317.66174 L509.07962,317.64893 L510.0547,317.7266 L510.25146,317.7266 L511.6475,318.0827 L513.95105,317.61667 L514.566,317.631 L515.50696,317.35138 L516.7156,317.21274 L517.9226,316.28662 L519.0753,316.18805 L519.7667,316.13043 L520.65375,316.29657 L521.09125,316.33243 L521.47656,316.33243 L521.8551,316.197 L522.7421,316.18396 L523.4261,316.18396 L523.77094,316.28827 L524.3171,316.35632 L524.5758,316.35632 L525.4003,316.39218 L525.56006,316.39218 L526.3018,316.3628 L527.92084,316.745 L528.8656,317.15897 L529.90375,317.30237 L530.4261,317.35443 L531.56555,317.37354 L532.6228,317.18286 L533.0593,317.20798 L533.4357,317.20593 L533.89496,317.1769 L534.05096,317.1769 L534.16,317.1769 L534.2673,317.1769 L534.411,317.12143 L534.5684,317.12143 L534.6483,317.12143 L534.7992,317.12143 L535.0336,317.1793 L535.2219,317.2277 L536.32434,317.1675 L537.78516,317.09772 L538.00507,317.16495 L538.82056,317.2008 L539.5751,317.2725 L540.52264,317.24176 L541.54315,316.94986 L542.93304,316.66306 L545.28894,316.44794 L548.41797,315.8672 L549.2026,315.87436 L550.0143,315.87436 L550.8809,315.75485 L553.02795,316.0536 L553.65955,316.0536 L554.0289,316.41928 L554.1277,316.41928 L556.58984,317.0843 L558.4485,317.2008 L560.4091,316.01776 L562.2454,315.21472 L562.7653,315.21472 L563.39435,314.75403 L564.67334,314.75403 L570.0062,316.2687 L574.36865,316.94986 L574.6935,316.80646 L578.9192,317.69672 L579.5779,317.6982 L580.16046,317.6982 L580.58936,317.6982 L581.3287,317.6982 L581.799,317.64124 L582.0238,317.64124 L582.41064,317.64124 L586.0143,317.21872 L586.917,317.1793 L587.5661,317.1793 L587.74634,317.1793 L587.8748,317.1793 L588.0191,317.1845 L588.6061,317.2068 L588.9019,317.1389 L589.01013,317.1389 L589.7514,317.18884 L590.75165,317.33344 L591.29877,317.37607 L592.08215,317.4159 L593.4254,317.54907 L593.48254,317.54907 L594.32635,317.7027 L595.7434,317.7266 L597.0312,317.5832 L597.3762,317.70987 L598.72534,317.50552 L599.461,317.40567 L600.4743,317.17093 L601.2611,317.15778 L602.04755,317.16495 L602.819,317.19183 L603.57965,317.20975 L603.7562,317.28354 L603.8765,317.28354 L604.08167,317.28354 L604.70306,317.357 L604.94916,317.39798 L605.19135,317.4159 L605.4665,317.4159 L605.9577,317.43637 L606.57666,317.52823 L607.0288,317.66428 L607.3253,317.64774 L607.6148,317.6694 L607.978,317.69717 L608.9829,317.62802 L609.28033,317.5979 L609.44366,317.55032 L609.52,317.55032 L609.963,317.5267 L610.91046,317.4159 L611.5604,317.4159 L611.93195,317.3442 L613.2087,316.87814 L615.18945,316.93192 L616.4195,317.35138 L617.073,317.35138 L618.7293,317.92975 L618.8908,317.92975 L620.61017,318.29422 L621.3064,318.23328 L623.9909,318.15338 L624.28546,318.04327 L626.0511,317.88196 L626.25415,317.88196 L626.39484,317.88196 L626.81213,317.88196 L627.2171,317.85635 L627.74835,317.93124 L628.3274,317.93124 L630.34717,317.8939 L633.97406,318.22253 L637.499,317.88196 L637.79425,317.8282 L641.15607,317.85208 L641.3819,317.81622 L641.69806,317.7693 L642.78424,317.7475 L643.9126,317.7475 L644.19574,317.78464 L644.442,317.78036 L645.04004,317.70987 L651.09436,317.58618 L651.30835,317.5832 L651.55414,317.5832 L657.10114,317.5593 L662.50806,318.3241 L663.0767,317.7983 L665.6741,317.1052 L668.10974,316.6272 L669.4988,316.65707 L671.92706,317.1769 L672.1227,317.1769 L672.2169,317.2863 L672.3244,317.2863 L672.4407,317.31134 L672.51483,317.31134 L672.8647,317.4297 L673.1723,317.54138 L673.3621,317.54138 L674.0412,317.54974 L674.501,317.54974 L675.0253,317.72574 L675.4752,318.0648 L675.9345,318.04327 L676.834,317.9178 L677.5084,317.86603 L678.7525,317.63547 L679.07336,317.45175 L679.40466,317.45175 L679.73395,317.42102 L681.4092,317.3502 L681.754,317.30835 L692.08777,316.89966 L692.3445,316.7437 L693.9883,316.72757 L694.448,316.72757 L696.5145,317.06638 L698.8897,317.21872 L703.4845,317.58917 L704.08673,317.55212 L704.3942,317.43384 L704.88556,317.3186 L706.01953,317.2964 L706.95844,317.16495 L707.5411,317.1052 L708.1732,317.11475 L708.70886,317.11475 L711.899,317.26532 L712.46747,317.30835 L712.73883,317.4099 L713.87427,317.58618 L714.75006,317.873 L715.3948,318.5591 L715.9138,318.74683 L716.39026,318.77423 L716.9272,318.88126 L717.7387,319.03314 L718.08264,319.03314 L718.8133,319.2756 L719.83496,319.34155 L720.5324,319.3518 L721.0239,319.0426 L722.3687,319.03812 L723.06177,319.02402 L723.56165,319.16742 L723.80005,319.2532 L725.1964,319.28806 L726.3807,319.21637 L726.57355,319.2308 L727.28375,319.02518 L727.8851,318.8069 L728.5728,318.7531 L729.0032,318.7531 L729.6208,318.64557 L729.8834,318.64557 L730.393,318.7316 L731.0733,318.66705 L731.85767,318.37082 L732.25256,318.3032 L732.7543,318.2828 L733.6841,318.42688 L733.9643,318.42767 L734.0698,318.42767 L734.2657,318.32648 L734.854,318.2484 L735.4355,318.08362 L736.9333,318.09256 L738.5909,318.59448 L738.82574,318.59448 L739.25604,318.59448 L739.57117,318.59448 L739.9829,318.76285 L740.79065,318.71844 L741.019,318.80103 L743.0307,318.97736 L743.4686,318.97736 L743.68726,318.9485 L743.8419,318.9485 L744.12054,318.97986 L744.81055,318.97986 L745.43585,318.97986 L746.87036,319.0919 L749.9667,318.59894 L750.225,318.46152 L750.7871,318.59384 L751.0705,318.59384 L752.1553,318.59384 L752.49347,318.59384 L753.293,318.74234 L760.26166,319.10803 L760.8098,319.03812 L761.19806,318.81406 L761.63,318.6527 L763.8787,318.31216 L764.3337,318.1747 L764.92426,318.0827 L765.3228,318.0827 L766.0774,318.0827 L770.64294,318.348 L774.20105,317.63818 L774.7379,317.52344 L776.40906,317.49954 L776.789,317.49954 L778.46564,317.44662 L779.02374,317.44662 L780.153,317.49478 L780.5137,317.49478 L780.8702,317.49478 L783.9186,316.94986 L789.4484,317.35614 L792.0634,317.73856 L797.73706,318.49588 L798.9827,318.78717 L799.22095,318.8416 L799.31305,318.8416 L799.69495,318.8416 L800.0988,318.8416 L800.3501,318.8416 L801.09064,318.82175 L801.32104,318.77103 L801.4557,318.72443 L801.59344,318.72443 L801.74634,318.68542 L801.9006,318.70203 L803.6814,318.37103 L803.9066,318.35278 L804.0798,318.31982 L804.22784,318.28183 L804.494,318.2016 L805.93756,318.03186 L806.23914,318.03186 L806.4255,318.03186 L806.57306,318.01102 L807.1699,318.38742 L808.3638,318.6527 L809.45215,319.0471 L809.6454,319.0471 L809.8195,319.0471 L810.2281,319.05524 L810.427,319.05524 L810.5713,319.05524 L810.74286,319.05524 L811.04016,319.05524 L811.5085,319.08652 L811.7573,319.08652 L816.0984,319.68982 L816.81445,319.8537 L817.21326,319.8537 L817.61414,319.88956 L817.77075,319.88956 L818.1291,319.9015 L819.28864,319.82233 L820.4212,319.9254 L820.71094,319.98276 L823.1875,319.80988 L823.5723,319.70673 L823.87384,319.7282 L824.2727,319.7282 L825.0492,319.72134 L825.58746,319.72134 L825.7705,319.72134 L826.02997,319.69537 L826.16296,319.69537 L826.3081,319.69537 L826.4672,319.6549 L826.67444,319.7581 L827.74445,319.89282 L829.48047,320.29288 L830.1796,320.43924 L833.872,320.41534 L836.4331,319.53757 L837.1501,319.3656 L837.6822,319.3656 L838.18646,319.37198 L838.2385,319.37198 L838.4531,319.37198 L838.62805,319.37198 L838.80206,319.37198 L838.8902,319.37198 L839.08984,319.37198 L839.301,319.31833 L839.3628,319.31833 L839.7594,319.31833 L840.56696,319.33984 L840.98816,319.33984 L841.01373,319.33984 L842.9247,319.546 L843.338,319.546 L844.3853,319.3595 L844.59827,319.3595 L844.8242,319.14514 L844.9065,319.14514 L845.12396,319.08292 L845.5045,319.08292 L845.62494,319.08292 L846.2412,318.83093 L846.3667,318.83093 L846.77515,318.83093 L846.9613,318.83093 L846.9827,318.83093 L847.52625,318.63928 L847.60583,318.63928 L847.6599,318.63928 L847.7669,318.52725 L848.8275,318.0171 L850.0725,317.12112 L851.3622,315.77478 L851.51105,315.77985 L852.6515,315.8887 L852.9848,315.8337 L853.618,315.8497 L853.8014,315.8497 L854.0181,315.8497 L854.2593,315.8452 L854.3374,315.8452 L854.6061,315.87885 L854.65027,315.87885 L854.7516,315.87885 L854.92615,315.87885 L855.4485,316.01575 L855.6912,316.1021 L856.244,316.33475 L857.02014,316.63852 L857.38385,316.88382 L858.0007,317.10446 L858.109,317.10446 L858.6932,317.33154 L858.7636,317.3502 L858.9037,317.3502 L859.12164,317.42667 L859.377,317.41418 L859.5875,317.38004 L859.863,317.38004 L860.2081,317.38004 L860.67816,317.3996 L860.9799,317.42844 L861.0116,317.42844 L861.4304,317.42844 L861.59033,317.39978 L861.74225,317.43582 L861.8489,317.43582 L861.90424,317.43582 L862.11395,317.46017 L862.2171,317.48087 L862.382,317.48087 L862.63586,317.38678 L864.3412,316.73676 L865.4095,316.3165 L865.606,316.2915 L865.7527,316.2915 L865.8225,316.2915 L865.9034,316.2915 L866.10315,316.2915 L866.283,316.18805 L866.44446,316.18805 L866.83997,316.18805 L867.7302,316.16766 L869.11066,315.7883 L877.03076,315.0498 L880.47064,312.79126 L880.9347,312.22662 L881.05493,312.22662 L881.7999,312.22662 L887.1028,312.91074 L887.2495,313.14975 L890.9738,314.08185 L891.6936,314.27902 L893.0198,314.27902 L894.3411,314.27304 L898.35034,313.6158 L899.3878,313.5656 L899.72485,313.5656 L900.1201,313.5656 L901.0923,313.5656 L910.07117,313.81894 L912.1444,313.81894 L913.4752,313.7054 L916.93396,313.0422 L923.37573,313.1856 L923.83136,313.29315 L925.50806,313.57098 L927.8211,314.46902 L928.7447,314.5479 L929.3094,314.5479 L930.03015,314.5479 L934.3248,313.9743 L934.94507,313.60147 L935.94666,313.6158 L936.5813,313.6158 L937.5612,314.22012 L938.7587,314.25513 L939.6004,315.39636 L940.28125,315.39636 L941.68536,316.8662 L942.38446,316.8662 L943.4876,317.2264 L944.0046,317.31284 L945.5718,317.24063 L945.78973,317.24063 L946.1751,317.11118 L946.69556,317.04147 L947.0815,317.02155 L947.542,317.1506 L947.981,317.30508 L948.6986,317.55573 L949.56335,317.81024 L950.108,318.14883 L950.7336,318.6388 L951.45776,319.02466 L952.1655,319.87363 L952.84174,320.22812 L952.9706,320.46762 L954.36115,321.03674 L954.95703,321.03674 L955.6116,321.61392 L956.9336,322.02005 L957.8214,322.01425 L958.09753,321.93747 L958.29755,321.87607 L958.44073,321.8374 L958.5059,321.89294 L958.6077,321.89294 L958.6854,321.89294 L958.86804,321.85532 L959.0087,321.85532 L959.4684,321.80847 L959.8533,321.79337 L959.9357,321.79337 L960.0935,321.79337 L960.6647,321.74432 L960.9598,321.7179 L961.23865,321.63623 L961.54663,321.3671 L962.20306,321.1443 L962.51245,321.0864 L963.4666,321.0278 L964.0153,321.07913 L964.45447,321.069 L964.9116,321.06934 L965.82666,321.09253 L966.0432,321.03674 L966.76514,321.0447 L967.1744,321.05914 L967.4684,321.05914 L968.8269,320.80173 L970.1398,320.56558 L970.8863,320.48877 L971.3616,320.48877 L971.5901,320.48877 L972.33374,320.5707 L973.26355,320.5707 L974.62994,320.6885 L974.85223,320.76788 L975.16156,320.76788 L975.62195,320.8575 L975.70526,320.8575 L977.66376,321.0726 L978.3349,321.31052 L979.7176,321.44702 L979.8279,321.44702 L979.8893,321.44702 L980.3322,321.44702 L980.70306,321.46246 L980.89484,321.46246 L981.0687,321.46246 L984.2089,321.37732 L985.0948,321.01883 L985.6213,320.92203 L987.6222,320.59937 L988.2928,320.1405 L990.3784,319.88443 L990.5749,319.79993 L990.80554,319.79993 L991.04175,319.79993 L991.27844,319.65295 L994.8129,319.19046 L996.1747,319.19644 L996.52325,319.19644 L997.1946,319.19644 L997.399,319.19644 L997.5096,319.18634 L997.5848,319.18634 L997.89636,319.2144 L998.0614,319.29666 L998.324,319.3851 L998.4697,319.3851 L998.77545,319.3851 L1000.2935,319.66772 L1000.8367,319.86472 L1000.99426,319.92264 L1001.7289,320.11182 L1002.0866,320.11768 L1002.6299,320.11768 L1002.71783,320.11768 L1002.85254,320.3078 L1003.0431,320.3078 L1003.74725,320.62283 L1004.7081,320.98596 L1005.6515,321.28412 L1006.35144,321.65814 L1006.62634,321.87027 L1006.74097,321.8892 L1007.1238,321.8892 L1007.87213,322.0764 L1008.7458,321.9458 L1009.56726,321.80615 L1010.00214,321.75974 L1010.3769,321.75974 L1010.7129,321.74396 L1010.80524,321.7418 L1010.89374,321.7418 L1011.052,321.7418 L1011.1663,321.72617 L1011.73096,321.69034 L1012.76086,321.5633 L1013.5835,321.53625 L1013.987,321.5668 L1014.1763,321.5873 L1014.7637,321.63242 L1014.8452,321.64365 L1015.0915,321.65576 L1015.53357,321.67758 L1015.91736,321.7119 L1016.3156,321.68546 L1016.42535,321.67352 L1016.6879,321.67352 L1016.96826,321.67523 L1017.6202,321.69818 L1017.72424,321.72168 L1017.9728,321.71036 L1018.377,321.72986 L1018.46906,321.68393 L1018.7052,321.63544 L1018.76105,321.6292 L1018.8633,321.6292 L1019.0166,321.6292 L1019.1705,321.5311 L1019.62427,321.2556 L1019.82623,321.12543 L1020.62555,320.81995 L1021.29083,320.7009 L1021.48016,320.63843 L1021.85815,320.4833 L1022.2638,320.4766 L1022.3449,320.4766 L1022.62714,320.4034 L1022.78064,320.41058 L1023.0431,320.41058 L1023.3417,320.41058 L1023.4378,320.41058 L1024.5514,320.5205 L1024.6833,320.59085 L1024.9034,320.6185 L1025.5588,320.89633 L1026.8412,321.41318 L1027.0798,321.41318 L1027.3699,321.41318 L1027.4584,321.44135" fill="transparent" id="track" stroke="black" stroke-width="2"/>
</g>
<g id="SL" transform="translate(0 0)">
<text text-anchor="end" x="0" y="363.5">
0
</text>
<text text-anchor="end" x="0" y="291.8">
200
</text>
<text text-anchor="end" x="0" y="220.1">
400
</text>
<text text-anchor="end" x="0" y="148.4">
600
</text>
<text text-anchor="end" x="0" y="76.69999999999999">
800
</text>
</g>
</g>
</svg>