<svg height="400" width="1440" xmlns="http://www.w3.org/2000/svg">
<g font-family="Libertinus Serif" font-size="15" id="world" shape-rendering="crispEdges" transform="translate(5 5)">
<g id="BG"/>
<g id="SL" transform="translate(71 360) scale(-1 -1)">
<text text-anchor="end" transform="translate(10 -5) scale(-1 -1)">
0
</text>
<text text-anchor="end" transform="translate(10 43) scale(-1 -1)">
200
</text>
<text text-anchor="end" transform="translate(10 91) scale(-1 -1)">
400
</text>
<text text-anchor="end" transform="translate(10 139) scale(-1 -1)">
600
</text>
<text text-anchor="end" transform="translate(10 187) scale(-1 -1)">
800
</text>
<text text-anchor="end" transform="translate(10 235) scale(-1 -1)">
1000
</text>
<text text-anchor="end" transform="translate(10 283) scale(-1 -1)">
1200
</text>
<text text-anchor="end" transform="translate(10 331) scale(-1 -1)">
1400
</text>
</g>
<g id="SB" transform="translate(71 360)">
<text text-anchor="middle" transform="translate(0 25)">
80
</text>
<text text-anchor="middle" transform="translate(192 25)">
100
</text>
<text text-anchor="middle" transform="translate(385 25)">
120
</text>
<text text-anchor="middle" transform="translate(578 25)">
140
</text>
<text text-anchor="middle" transform="translate(770 25)">
160
</text>
<text text-anchor="middle" transform="translate(963 25)">
180
</text>
<text text-anchor="middle" transform="translate(1156 25)">
200
</text>
</g>
<g id="SD" transform="translate(71 360) scale(1 -1) scale(1 1)">
<path d="M0,0 L0,360 L1349,360 L1349,0 L0,0" fill="lightgray" id="bg"/>
<path d="M0,0 L1349,0" stroke="black" stroke-width="3"/>
<path d="M0,0 L0,360" stroke="black" stroke-width="3"/>
<path d="M0,360 L1349,360" stroke="black" stroke-width="3"/>
<path d="M1349,0 L1349,360" stroke="black" stroke-width="3"/>
<path d="M0,0 L0,360" stroke="black" stroke-width="1"/>
<path d="M192,0 L192,360" stroke="black" stroke-width="1"/>
<path d="M385,0 L385,360" stroke="black" stroke-width="1"/>
<path d="M578,0 L578,360" stroke="black" stroke-width="1"/>
<path d="M770,0 L770,360" stroke="black" stroke-width="1"/>
<path d="M963,0 L963,360" stroke="black" stroke-width="1"/>
<path d="M1156,0 L1156,360" stroke="black" stroke-width="1"/>
<path d="M96,0 L96,360" stroke="black" stroke-dasharray="1.0,2.5,5.0,5.0,10.0,5.0"/>
<path d="M289,0 L289,360" stroke="black" stroke-dasharray="1.0,2.5,5.0,5.0,10.0,5.0"/>
<path d="M481,0 L481,360" stroke="black" stroke-dasharray="1.0,2.5,5.0,5.0,10.0,5.0"/>
<path d="M674,0 L674,360" stroke="black" stroke-dasharray="1.0,2.5,5.0,5.0,10.0,5.0"/>
<path d="M867,0 L867,360" stroke="black" stroke-dasharray="1.0,2.5,5.0,5.0,10.0,5.0"/>
<path d="M1059,0 L1059,360" stroke="black" stroke-dasharray="1.0,2.5,5.0,5.0,10.0,5.0"/>
<path d="M1252,0 L1252,360" stroke="black" stroke-dasharray="1.0,2.5,5.0,5.0,10.0,5.0"/>
<path d="M0,0 L1349,0" stroke="black" stroke-width="1"/>
<path d="M0,48 L1349,48" stroke="black" stroke-width="1"/>
<path d="M0,96 L1349,96" stroke="black" stroke-width="1"/>
<path d="M0,144 L1349,144" stroke="black" stroke-width="1"/>
<path d="M0,192 L1349,192" stroke="black" stroke-width="1"/>
<path d="M0,240 L1349,240" stroke="black" stroke-width="1"/>
<path d="M0,288 L1349,288" stroke="black" stroke-width="1"/>
<path d="M0,336 L1349,336" stroke="black" stroke-width="1"/>
<path d="M0,24 L1349,24" stroke="black" stroke-dasharray="1.0,2.5,5.0,5.0,10.0,5.0"/>
<path d="M0,72 L1349,72" stroke="black" stroke-dasharray="1.0,2.5,5.0,5.0,10.0,5.0"/>
<path d="M0,120 L1349,120" stroke="black" stroke-dasharray="1.0,2.5,5.0,5.0,10.0,5.0"/>
<path d="M0,168 L1349,168" stroke="black" stroke-dasharray="1.0,2.5,5.0,5.0,10.0,5.0"/>
<path d="M0,216 L1349,216" stroke="black" stroke-dasharray="1.0,2.5,5.0,5.0,10.0,5.0"/>
<path d="M0,264 L1349,264" stroke="black" stroke-dasharray="1.0,2.5,5.0,5.0,10.0,5.0"/>
<path d="M0,312 L1349,312" stroke="black" stroke-dasharray="1.0,2.5,5.0,5.0,10.0,5.0"/>
<path d="M0,360 L1349,360" stroke="black" stroke-dasharray="1.0,2.5,5.0,5.0,10.0,5.0"/>
<path d="M0,117 L0,117 L1,118 L1,118 L1,118 L3,124 L3,126 L4,127 L4,127 L4,127 L4,127 L4,127 L5,127 L5,127 L5,128 L5,128 L5,128 L5,128 L5,128 L5,128 L6,129 L6,130 L6,130 L6,131 L7,132 L7,133 L7,134 L8,135 L8,135 L8,136 L8,136 L9,137 L9,139 L9,140 L11,144 L11,145 L11,147 L11,147 L12,147 L12,148 L13,148 L13,148 L14,149 L14,150 L14,150 L15,151 L15,151 L16,152 L16,153 L17,154 L17,155 L18,156 L18,156 L19,158 L19,159 L20,165 L21,168 L22,168 L22,167 L22,167 L23,168 L23,167 L23,167 L24,166 L25,164 L25,163 L25,163 L26,162 L26,161 L27,161 L27,161 L27,160 L27,160 L28,159 L28,159 L29,157 L29,157 L29,155 L30,155 L31,152 L31,152 L31,151 L31,151 L32,150 L32,149 L32,149 L32,149 L32,149 L33,149 L33,148 L33,148 L34,147 L35,141 L35,140 L36,139 L36,139 L36,139 L36,139 L37,139 L37,139 L37,139 L37,139 L37,139 L38,139 L38,139 L39,139 L40,137 L41,136 L41,137 L41,137 L41,137 L42,137 L43,138 L43,139 L43,141 L44,143 L45,144 L45,145 L45,147 L46,149 L46,150 L46,150 L47,152 L47,153 L48,153 L48,153 L48,154 L48,154 L48,155 L49,156 L49,157 L49,157 L50,162 L51,163 L51,163 L51,164 L51,165 L51,165 L51,165 L52,165 L52,166 L52,167 L53,167 L53,168 L53,169 L54,170 L54,170 L54,170 L55,171 L55,171 L55,172 L55,172 L55,173 L56,174 L57,176 L57,177 L58,178 L58,179 L58,180 L58,180 L59,181 L60,182 L60,182 L60,183 L61,183 L61,183 L61,183 L62,183 L62,183 L63,184 L64,186 L64,186 L64,186 L65,186 L66,186 L68,187 L69,187 L69,187 L71,187 L71,188 L72,188 L72,188 L72,188 L72,188 L73,189 L73,189 L73,189 L73,189 L73,189 L74,189 L74,189 L74,189 L75,190 L75,190 L75,190 L76,191 L76,192 L76,192 L77,191 L77,191 L78,191 L78,191 L78,191 L79,191 L79,191 L81,192 L82,192 L83,192 L83,190 L84,190 L84,188 L85,186 L85,185 L86,185 L86,184 L86,183 L87,183 L87,183 L87,183 L88,182 L88,181 L89,181 L90,179 L90,179 L90,178 L91,178 L91,178 L91,178 L92,178 L94,175 L95,173 L96,172 L96,172 L96,172 L97,172 L97,171 L98,171 L98,170 L98,169 L99,168 L99,168 L99,168 L100,167 L100,166 L100,166 L100,165 L100,165 L101,162 L102,161 L103,160 L103,160 L103,160 L103,160 L104,159 L104,158 L104,158 L105,158 L105,158 L105,157 L106,157 L106,156 L106,154 L107,154 L107,153 L107,152 L108,150 L108,149 L108,149 L109,147 L109,146 L109,145 L110,145 L110,144 L110,142 L111,140 L112,135 L112,133 L112,133 L113,133 L113,132 L113,131 L113,131 L114,131 L114,130 L114,130 L115,128 L115,127 L115,127 L116,126 L116,125 L116,125 L116,125 L117,125 L117,125 L117,125 L117,124 L118,124 L118,123 L118,122 L119,120 L120,118 L120,115 L121,115 L122,114 L122,113 L122,113 L122,113 L123,110 L124,109 L124,108 L124,106 L125,106 L125,106 L125,105 L126,103 L126,103 L127,101 L127,100 L128,100 L128,98 L129,97 L130,96 L130,96 L130,96 L131,96 L131,95 L132,95 L133,95 L134,91 L135,91 L135,90 L135,90 L135,90 L136,90 L137,85 L139,82 L139,82 L139,81 L139,81 L140,80 L140,80 L140,80 L141,80 L141,80 L141,80 L141,79 L141,79 L142,79 L142,79 L142,79 L142,79 L144,79 L144,79 L144,79 L144,79 L145,79 L145,79 L145,79 L145,78 L146,78 L146,78 L146,78 L147,78 L147,77 L147,77 L147,76 L148,76 L148,75 L149,75 L149,75 L149,75 L149,75 L150,75 L150,75 L150,75 L151,75 L151,75 L151,75 L152,75 L152,75 L152,75 L153,76 L153,76 L153,76 L153,76 L154,77 L155,77 L155,77 L155,77 L156,77 L156,77 L157,77 L158,77 L158,78 L159,78 L159,78 L160,78 L160,78 L160,78 L161,78 L162,78 L162,78 L162,78 L163,78 L163,78 L165,79 L165,80 L165,80 L166,80 L166,80 L166,80 L166,80 L167,80 L167,80 L168,81 L168,81 L168,81 L169,81 L169,81 L169,81 L170,81 L170,82 L170,82 L171,82 L172,82 L172,82 L172,83 L172,83 L174,83 L174,84 L175,84 L175,85 L177,85 L177,85 L178,85 L179,85 L179,85 L179,85 L179,86 L180,86 L181,86 L181,86 L181,87 L182,87 L182,87 L182,87 L183,87 L184,87 L184,87 L184,87 L184,87 L185,87 L186,87 L186,87 L186,87 L186,87 L188,87 L188,87 L188,87 L188,87 L189,87 L189,87 L190,88 L191,88 L192,88 L192,88 L193,89 L193,89 L193,89 L193,89 L193,89 L194,90 L195,90 L195,91 L195,91 L196,91 L197,91 L198,91 L198,91 L199,91 L199,91 L199,91 L200,92 L200,92 L200,93 L201,93 L201,94 L201,95 L202,95 L202,95 L202,95 L202,95 L203,96 L203,96 L203,95 L204,95 L204,95 L205,93 L205,93 L205,93 L205,93 L205,93 L206,93 L206,93 L206,93 L206,93 L207,94 L207,96 L208,96 L209,98 L209,99 L209,99 L209,99 L210,100 L211,100 L211,100 L212,101 L212,101 L214,104 L215,104 L215,105 L215,106 L215,106 L216,106 L216,106 L217,107 L217,107 L217,107 L217,107 L217,107 L217,108 L218,108 L219,109 L219,110 L220,110 L220,111 L220,111 L220,111 L221,111 L221,111 L221,112 L221,112 L222,112 L222,112 L222,112 L223,113 L223,113 L223,113 L224,113 L224,113 L224,114 L224,114 L224,114 L224,114 L224,114 L225,114 L225,115 L226,115 L226,115 L226,115 L226,115 L226,115 L226,115 L227,117 L227,117 L227,117 L228,120 L228,120 L228,120 L229,120 L229,121 L229,121 L230,121 L230,121 L231,121 L231,122 L231,123 L232,123 L232,124 L233,125 L233,126 L233,127 L234,129 L235,129 L235,130 L235,130 L235,130 L236,131 L236,131 L236,131 L237,132 L237,133 L237,133 L237,133 L237,133 L238,134 L238,134 L238,134 L238,134 L239,134 L239,135 L239,135 L239,135 L240,136 L240,136 L241,137 L241,138 L241,138 L241,139 L242,140 L242,140 L242,140 L242,140 L242,140 L243,141 L243,142 L244,142 L244,144 L245,145 L245,145 L246,146 L247,147 L247,147 L247,147 L248,147 L248,147 L249,149 L250,151 L251,151 L252,151 L252,152 L252,152 L252,152 L252,152 L253,153 L254,154 L254,157 L255,159 L255,159 L256,159 L256,159 L256,159 L256,159 L256,159 L257,159 L257,159 L257,159 L258,159 L258,160 L258,160 L258,160 L259,160 L259,160 L259,160 L260,161 L261,164 L261,164 L261,164 L261,164 L261,164 L262,165 L262,165 L262,165 L262,166 L263,169 L264,169 L264,170 L264,170 L264,171 L265,171 L265,171 L265,171 L266,172 L266,172 L266,172 L266,172 L267,172 L269,177 L269,177 L270,177 L270,178 L270,178 L271,179 L271,180 L272,181 L272,181 L272,181 L272,181 L273,181 L273,181 L273,181 L273,181 L273,181 L274,180 L274,179 L274,179 L275,179 L275,178 L275,178 L275,178 L275,178 L276,178 L276,178 L276,178 L277,177 L277,177 L278,175 L279,174 L279,173 L280,173 L280,172 L280,172 L281,171 L281,171 L281,171 L281,170 L282,170 L282,170 L282,169 L282,169 L282,169 L283,169 L284,167 L284,166 L284,165 L285,162 L285,162 L286,162 L286,162 L286,160 L287,160 L287,160 L287,160 L287,160 L288,159 L288,159 L288,158 L289,157 L289,157 L290,156 L291,154 L291,153 L292,151 L292,150 L292,150 L292,150 L293,149 L293,149 L294,148 L294,148 L294,147 L295,147 L295,147 L295,147 L295,147 L295,146 L296,145 L297,144 L297,142 L297,141 L297,141 L298,141 L298,138 L299,136 L299,136 L300,134 L300,134 L300,134 L300,133 L300,132 L300,132 L301,131 L302,130 L302,129 L303,128 L303,128 L303,127 L304,123 L305,117 L306,118 L306,117 L307,117 L307,117 L307,117 L307,116 L308,116 L308,116 L308,116 L309,116 L309,115 L309,115 L309,115 L310,114 L310,112 L311,112 L311,112 L311,110 L311,110 L312,109 L312,109 L313,107 L313,107 L313,107 L313,107 L313,107 L314,106 L314,106 L314,106 L315,106 L315,105 L315,104 L316,103 L317,102 L317,102 L318,101 L318,101 L319,101 L319,101 L320,101 L320,101 L321,101 L321,100 L321,100 L321,100 L321,100 L322,100 L322,100 L322,100 L323,100 L323,100 L323,100 L323,100 L324,99 L324,98 L325,97 L325,97 L325,97 L325,97 L325,96 L326,96 L326,96 L326,95 L326,95 L327,95 L327,94 L327,94 L328,94 L328,94 L328,94 L328,94 L328,94 L328,94 L328,94 L328,94 L328,94 L329,94 L329,94 L330,94 L331,95 L331,96 L332,96 L332,96 L332,96 L332,96 L333,96 L333,96 L333,97 L334,97 L334,98 L334,98 L335,98 L336,98 L336,98 L336,98 L337,99 L337,99 L337,99 L338,100 L338,100 L338,100 L339,100 L339,101 L340,101 L341,104 L343,104 L343,104 L343,104 L343,104 L344,104 L344,104 L345,104 L345,104 L345,104 L345,104 L346,104 L346,105 L346,105 L346,105 L347,106 L347,106 L348,106 L348,106 L348,107 L348,108 L349,108 L349,108 L349,108 L350,108 L350,108 L350,108 L350,108 L351,109 L351,109 L351,109 L352,109 L352,109 L353,109 L353,109 L354,109 L354,109 L355,109 L355,110 L356,110 L356,110 L356,110 L357,110 L357,110 L357,110 L357,110 L357,110 L357,110 L357,110 L358,111 L358,111 L358,111 L359,111 L360,111 L360,111 L360,112 L361,112 L361,112 L361,112 L361,112 L362,112 L362,112 L362,112 L362,113 L363,113 L363,113 L363,113 L363,113 L363,113 L364,114 L364,114 L364,114 L365,115 L365,115 L365,116 L365,116 L366,117 L366,117 L366,117 L366,117 L367,119 L367,119 L368,120 L369,123 L369,123 L369,125 L370,126 L370,126 L371,128 L371,128 L371,129 L372,130 L373,132 L374,134 L374,135 L374,135 L375,137 L375,137 L376,139 L377,140 L377,141 L377,141 L378,141 L378,142 L378,142 L378,142 L378,142 L378,142 L379,142 L379,142 L379,142 L379,143 L379,143 L380,143 L380,144 L381,146 L381,147 L381,147 L381,147 L382,149 L382,150 L382,151 L383,153 L383,154 L383,154 L384,154 L384,154 L384,155 L384,155 L384,155 L385,155 L385,156 L386,156 L386,156 L386,156 L386,157 L386,157 L387,158 L387,159 L388,164 L389,165 L389,166 L389,166 L389,166 L389,166 L389,166 L390,166 L390,166 L390,166 L391,166 L391,166 L392,167 L392,167 L392,167 L392,167 L392,168 L393,168 L393,168 L393,168 L393,168 L393,168 L393,168 L393,168 L393,168 L394,170 L395,175 L396,176 L396,176 L396,177 L397,178 L397,178 L397,178 L397,178 L397,178 L398,178 L398,179 L398,179 L399,179 L400,186 L401,187 L401,187 L401,187 L401,187 L401,187 L401,187 L401,187 L402,187 L402,187 L402,187 L402,187 L402,187 L403,187 L403,188 L403,188 L404,189 L405,193 L406,195 L406,196 L406,196 L406,196 L407,196 L408,197 L408,198 L409,200 L410,201 L410,202 L411,202 L411,202 L412,204 L413,208 L414,210 L414,210 L415,211 L416,212 L418,216 L418,217 L419,217 L419,217 L419,218 L420,219 L421,220 L421,221 L421,221 L423,223 L423,224 L424,225 L424,225 L425,226 L425,226 L426,227 L427,228 L427,228 L428,228 L429,229 L430,230 L430,230 L433,231 L433,231 L433,231 L433,231 L433,231 L434,231 L434,231 L434,231 L435,231 L435,231 L435,231 L436,231 L436,231 L436,230 L437,230 L437,230 L438,229 L438,229 L438,229 L438,229 L438,229 L441,227 L442,228 L442,228 L442,228 L443,228 L443,228 L444,228 L445,227 L445,227 L446,226 L446,226 L447,225 L448,225 L449,225 L449,225 L449,225 L450,225 L450,226 L451,226 L451,226 L451,227 L452,227 L452,227 L453,227 L453,227 L453,227 L453,227 L454,228 L455,228 L456,227 L456,228 L457,228 L457,228 L458,228 L459,228 L459,229 L460,229 L460,229 L461,229 L462,228 L462,228 L462,228 L462,228 L463,227 L464,226 L465,226 L465,226 L465,225 L465,225 L466,225 L466,225 L466,225 L467,225 L468,225 L471,220 L471,219 L471,218 L472,217 L472,217 L473,216 L473,216 L473,216 L473,216 L474,216 L474,215 L474,215 L475,215 L477,209 L477,208 L477,208 L478,207 L478,207 L479,206 L479,206 L480,206 L480,206 L480,206 L481,206 L481,206 L481,205 L482,206 L482,205 L483,205 L484,205 L484,205 L484,205 L484,204 L485,204 L485,203 L486,200 L487,199 L487,199 L487,199 L488,199 L490,196 L490,195 L492,191 L492,190 L493,190 L493,190 L494,190 L494,190 L494,190 L494,190 L494,190 L495,189 L497,187 L498,187 L500,182 L501,182 L501,181 L502,181 L502,180 L502,180 L502,180 L503,180 L503,179 L503,179 L503,179 L504,179 L504,179 L504,179 L505,177 L506,173 L507,173 L508,173 L508,173 L508,173 L508,173 L508,173 L509,173 L509,173 L509,173 L509,173 L511,168 L511,167 L511,167 L512,167 L512,166 L513,166 L513,165 L514,165 L514,164 L515,163 L516,162 L516,162 L516,162 L517,161 L517,161 L518,161 L518,160 L518,160 L519,160 L519,159 L519,159 L520,159 L522,156 L523,156 L523,156 L524,155 L525,155 L525,154 L526,154 L526,154 L526,154 L527,154 L527,154 L527,154 L527,154 L528,154 L528,154 L529,154 L529,155 L529,155 L529,155 L531,152 L531,151 L532,151 L532,152 L532,152 L533,151 L533,151 L534,151 L534,151 L535,150 L535,150 L536,149 L536,148 L536,148 L537,148 L538,147 L538,147 L538,147 L538,147 L539,147 L539,147 L539,147 L540,146 L540,146 L541,145 L542,144 L543,144 L543,144 L543,144 L543,144 L544,144 L544,144 L544,144 L545,144 L547,144 L547,144 L548,144 L548,144 L549,144 L549,144 L549,144 L550,143 L550,143 L550,143 L551,143 L551,143 L551,143 L551,143 L552,143 L552,143 L552,143 L552,143 L552,143 L552,143 L552,143 L553,143 L554,143 L554,144 L555,144 L555,144 L556,144 L556,145 L557,145 L557,146 L558,147 L559,148 L559,148 L559,149 L559,149 L560,149 L560,150 L560,150 L561,150 L561,151 L562,151 L564,156 L565,157 L565,157 L565,157 L566,157 L566,158 L567,158 L570,164 L570,165 L570,165 L570,166 L571,167 L571,167 L572,167 L572,167 L572,167 L572,167 L572,167 L573,167 L573,167 L573,167 L573,167 L574,167 L574,167 L574,167 L575,167 L575,167 L575,168 L576,169 L576,171 L577,171 L577,171 L577,171 L578,171 L578,172 L578,172 L578,172 L578,172 L578,172 L578,172 L579,172 L580,173 L580,172 L580,174 L582,176 L582,176 L583,177 L583,179 L585,181 L585,181 L585,181 L585,181 L585,182 L585,181 L585,181 L586,181 L586,181 L587,182 L587,182 L587,182 L587,182 L588,181 L589,183 L590,185 L590,185 L591,185 L591,185 L592,185 L592,185 L592,184 L593,185 L593,185 L594,185 L594,186 L594,186 L595,186 L596,187 L597,192 L598,193 L598,193 L598,193 L598,193 L599,193 L599,193 L599,193 L599,193 L599,194 L600,194 L600,194 L600,195 L601,196 L601,196 L601,196 L601,196 L602,196 L602,196 L603,196 L603,196 L604,197 L604,197 L604,197 L605,197 L605,197 L605,198 L606,198 L607,199 L607,199 L607,200 L608,201 L608,201 L608,201 L609,201 L609,202 L610,202 L613,204 L615,208 L616,209 L616,210 L616,210 L616,210 L617,210 L617,210 L618,211 L618,212 L618,212 L619,212 L619,212 L619,212 L619,212 L620,212 L620,212 L620,213 L620,213 L621,213 L621,213 L621,213 L621,213 L621,213 L621,213 L622,213 L623,213 L623,213 L623,214 L624,214 L624,215 L625,215 L625,215 L625,215 L625,215 L626,216 L627,216 L627,216 L627,217 L628,218 L628,218 L629,218 L629,218 L629,218 L629,218 L629,218 L629,218 L629,218 L630,218 L630,218 L630,218 L630,218 L631,218 L631,218 L631,218 L632,218 L632,218 L632,217 L632,217 L634,215 L635,212 L636,212 L637,211 L638,208 L639,208 L639,207 L639,207 L640,207 L640,207 L641,207 L642,206 L642,206 L642,206 L642,206 L643,206 L643,206 L643,207 L643,207 L643,207 L643,207 L644,207 L644,207 L644,207 L645,207 L645,208 L645,208 L646,208 L646,209 L647,209 L647,210 L648,210 L648,210 L648,211 L649,211 L650,213 L650,213 L650,213 L651,214 L651,214 L651,214 L653,217 L653,218 L654,218 L654,218 L655,218 L655,218 L657,221 L658,221 L658,221 L658,221 L658,221 L658,221 L659,221 L659,222 L659,221 L661,224 L662,224 L662,225 L662,225 L663,225 L664,226 L664,226 L664,226 L664,226 L664,227 L665,227 L665,227 L665,227 L665,227 L666,227 L667,228 L667,228 L668,228 L668,229 L669,229 L669,229 L670,229 L670,229 L671,229 L672,229 L672,228 L672,228 L673,228 L675,229 L676,229 L676,229 L676,229 L677,229 L677,229 L677,229 L677,229 L677,229 L677,229 L678,229 L678,228 L679,228 L680,226 L680,226 L680,225 L682,224 L682,224 L682,224 L683,222 L684,216 L685,216 L685,216 L686,215 L686,215 L686,215 L686,215 L686,214 L687,213 L687,213 L687,213 L688,212 L689,211 L689,210 L690,210 L690,210 L690,210 L691,209 L691,209 L693,201 L695,200 L695,200 L695,200 L695,200 L695,200 L695,200 L696,200 L696,199 L696,199 L696,199 L696,199 L697,199 L697,199 L697,199 L697,199 L698,197 L698,197 L699,192 L699,192 L700,192 L700,191 L700,191 L700,191 L701,191 L701,191 L701,191 L701,190 L702,189 L702,189 L702,189 L702,189 L703,188 L703,187 L703,187 L703,187 L704,184 L705,184 L705,184 L705,183 L705,182 L706,181 L707,180 L707,180 L707,179 L707,179 L708,178 L709,178 L709,178 L709,178 L709,177 L709,177 L709,177 L710,176 L710,176 L711,172 L711,171 L712,169 L712,169 L712,168 L713,168 L713,167 L714,167 L714,167 L714,167 L714,167 L714,167 L714,167 L715,167 L715,167 L715,167 L716,167 L716,167 L716,167 L716,167 L717,167 L717,167 L718,166 L718,166 L718,166 L719,165 L719,165 L719,165 L719,165 L719,165 L719,165 L719,165 L720,165 L720,165 L720,165 L721,164 L721,164 L721,164 L722,164 L722,164 L722,164 L722,164 L722,164 L722,164 L722,163 L723,163 L723,164 L723,164 L723,163 L724,164 L725,164 L726,164 L726,164 L726,164 L727,165 L728,165 L728,165 L728,165 L728,165 L729,165 L729,165 L729,165 L729,164 L729,164 L730,163 L730,163 L731,160 L731,159 L732,158 L732,155 L733,155 L734,153 L734,152 L734,152 L735,151 L735,151 L735,151 L736,151 L736,150 L736,150 L737,150 L737,150 L738,150 L738,150 L738,150 L739,150 L739,150 L740,150 L740,150 L740,149 L741,149 L741,149 L741,150 L742,150 L742,150 L742,150 L742,150 L743,150 L743,150 L743,151 L744,151 L745,152 L745,152 L745,152 L746,151 L746,151 L746,150 L747,149 L747,148 L748,148 L748,147 L748,146 L749,146 L749,146 L750,146 L750,145 L751,146 L751,145 L752,145 L752,145 L753,145 L753,144 L753,144 L754,144 L755,144 L756,144 L756,144 L757,143 L757,143 L758,142 L758,142 L758,142 L759,142 L759,142 L759,141 L760,141 L760,141 L760,141 L761,140 L761,140 L762,139 L762,138 L762,137 L763,137 L763,136 L763,136 L764,136 L764,136 L764,136 L764,136 L764,135 L764,135 L765,134 L765,134 L765,133 L766,133 L766,133 L766,133 L767,133 L767,133 L767,133 L767,132 L767,132 L767,132 L768,132 L768,132 L769,133 L769,133 L769,133 L770,132 L771,132 L771,131 L772,131 L772,131 L772,131 L772,131 L773,131 L774,130 L774,130 L776,129 L777,128 L777,128 L777,128 L778,128 L780,128 L780,128 L782,128 L782,128 L784,126 L785,126 L786,125 L787,123 L788,122 L788,122 L791,122 L793,122 L794,122 L795,122 L795,122 L797,122 L797,122 L797,122 L798,121 L798,121 L799,120 L799,119 L799,118 L800,117 L800,116 L801,116 L801,115 L801,115 L802,115 L802,115 L802,115 L803,115 L803,115 L803,115 L804,115 L804,115 L804,115 L804,115 L805,114 L806,114 L807,114 L807,114 L807,114 L807,113 L808,113 L808,113 L809,113 L809,113 L809,113 L809,113 L810,113 L810,112 L811,112 L811,112 L812,112 L812,112 L812,112 L812,112 L812,112 L813,112 L813,112 L813,112 L813,112 L814,112 L814,112 L815,113 L816,114 L817,114 L817,114 L817,114 L818,113 L818,113 L819,113 L819,113 L819,113 L820,113 L820,113 L821,112 L822,112 L822,113 L823,113 L823,113 L823,113 L824,113 L824,113 L824,113 L825,113 L826,114 L826,114 L826,114 L827,113 L828,113 L828,112 L829,112 L829,112 L829,112 L830,111 L830,111 L831,110 L831,110 L832,109 L833,109 L833,109 L834,109 L834,109 L835,109 L835,109 L836,109 L837,109 L837,109 L838,109 L838,109 L838,109 L838,108 L838,108 L839,108 L839,108 L840,108 L840,108 L840,108 L840,107 L841,107 L841,107 L842,107 L843,106 L843,106 L844,106 L844,105 L844,105 L845,105 L845,105 L845,105 L846,105 L847,105 L847,105 L847,105 L847,105 L847,105 L848,105 L848,105 L848,105 L849,105 L850,104 L850,103 L850,103 L851,103 L851,103 L852,102 L854,101 L854,100 L855,99 L855,99 L855,99 L855,99 L856,99 L856,99 L856,99 L856,99 L856,99 L856,99 L857,99 L857,99 L858,98 L859,97 L860,96 L861,96 L861,96 L862,95 L863,93 L864,93 L864,93 L866,93 L866,93 L867,93 L867,93 L868,92 L868,92 L868,92 L869,92 L869,92 L869,92 L870,92 L870,91 L870,91 L870,91 L871,90 L872,89 L872,89 L872,88 L873,88 L873,88 L873,88 L873,88 L875,88 L875,88 L875,88 L876,87 L876,87 L877,86 L877,85 L877,85 L878,85 L878,85 L878,85 L878,85 L879,85 L879,85 L879,85 L879,85 L880,85 L880,85 L880,85 L881,84 L881,84 L881,84 L881,84 L882,84 L883,85 L883,85 L884,85 L884,85 L885,85 L885,85 L885,85 L886,85 L886,84 L887,84 L888,84 L888,84 L888,83 L889,83 L889,83 L889,83 L890,83 L890,84 L890,84 L891,84 L891,84 L892,84 L892,85 L893,85 L893,85 L894,82 L894,82 L895,82 L895,82 L895,82 L895,82 L895,82 L895,82 L896,82 L896,82 L896,81 L896,81 L897,81 L897,81 L897,81 L898,81 L898,81 L898,81 L898,81 L899,81 L899,81 L899,81 L900,81 L900,81 L900,81 L900,81 L902,80 L902,79 L902,79 L903,78 L904,78 L904,78 L904,78 L904,78 L904,78 L904,78 L904,77 L905,77 L906,77 L906,77 L907,77 L908,76 L908,76 L909,76 L909,76 L910,76 L910,76 L911,75 L912,74 L913,73 L914,73 L915,73 L915,73 L915,73 L916,73 L917,71 L918,71 L918,71 L918,71 L919,71 L919,71 L920,71 L920,71 L920,71 L920,71 L920,71 L920,71 L920,71 L920,71 L921,71 L921,72 L921,72 L921,72 L922,72 L922,73 L922,73 L922,73 L922,73 L922,73 L923,73 L923,74 L923,74 L923,74 L923,74 L923,74 L924,74 L924,74 L924,75 L924,75 L925,75 L926,75 L926,75 L926,75 L926,75 L926,76 L927,76 L927,76 L927,76 L927,76 L928,76 L928,76 L928,77 L929,78 L930,79 L930,80 L930,80 L930,81 L931,81 L931,81 L931,81 L932,82 L932,82 L932,82 L932,83 L932,83 L932,83 L933,83 L933,84 L934,84 L934,85 L934,85 L935,87 L935,88 L935,88 L936,88 L936,89 L936,89 L936,89 L936,89 L937,90 L937,90 L938,91 L938,91 L938,91 L939,92 L939,93 L939,93 L939,93 L939,93 L940,94 L940,94 L940,95 L940,95 L941,95 L941,96 L941,96 L941,97 L942,98 L942,98 L942,99 L943,99 L943,100 L943,100 L943,100 L943,100 L944,100 L944,100 L944,101 L944,101 L944,101 L945,101 L945,101 L945,101 L945,101 L945,101 L946,101 L946,101 L946,101 L947,102 L948,104 L948,104 L948,104 L948,104 L949,104 L949,104 L949,104 L950,104 L950,104 L950,104 L951,105 L951,106 L951,106 L951,107 L952,107 L952,108 L952,109 L952,109 L953,110 L953,110 L953,110 L953,111 L953,111 L954,112 L954,112 L954,112 L954,112 L954,113 L954,113 L955,113 L955,113 L955,114 L956,117 L957,119 L957,119 L957,119 L958,119 L958,119 L958,119 L958,120 L959,120 L959,121 L959,121 L960,123 L960,124 L961,124 L961,124 L961,125 L961,125 L961,125 L962,125 L962,125 L963,126 L963,127 L963,127 L963,127 L963,127 L964,128 L964,128 L964,129 L965,129 L965,130 L965,130 L965,130 L965,130 L965,131 L966,132 L966,132 L966,132 L966,132 L966,132 L967,132 L967,132 L967,132 L967,133 L968,134 L968,134 L968,134 L968,134 L969,137 L969,138 L970,138 L970,139 L970,141 L971,141 L971,142 L971,142 L971,142 L971,142 L972,142 L972,142 L972,143 L972,143 L972,143 L973,143 L973,143 L973,143 L973,143 L973,144 L974,145 L974,145 L974,146 L975,146 L975,146 L975,147 L975,147 L975,147 L975,147 L976,148 L976,148 L976,148 L976,148 L976,148 L976,148 L976,148 L977,148 L977,148 L977,148 L977,148 L977,148 L978,148 L979,151 L979,152 L980,152 L980,153 L980,153 L980,153 L981,153 L981,153 L981,153 L981,153 L981,153 L981,153 L982,154 L982,154 L982,154 L982,154 L982,154 L982,155 L982,156 L983,157 L984,158 L984,159 L984,159 L985,159 L985,159 L985,159 L985,159 L985,159 L986,160 L987,160 L987,161 L987,161 L988,162 L988,162 L989,162 L989,163 L989,164 L989,164 L990,165 L990,165 L991,165 L991,165 L991,166 L991,166 L991,166 L992,166 L992,166 L993,165 L993,163 L993,163 L994,162 L994,162 L994,161 L995,161 L995,161 L995,160 L995,160 L995,160 L995,159 L996,158 L996,158 L997,157 L997,157 L997,156 L997,156 L997,156 L997,156 L998,156 L998,156 L998,156 L998,156 L998,155 L999,155 L999,155 L999,155 L999,155 L999,154 L999,154 L1000,154 L1000,154 L1000,153 L1000,153 L1000,153 L1001,152 L1001,151 L1001,151 L1002,150 L1002,149 L1002,148 L1003,146 L1003,145 L1004,144 L1004,144 L1004,143 L1004,143 L1004,143 L1005,142 L1005,142 L1006,141 L1006,140 L1006,139 L1006,139 L1007,138 L1007,137 L1008,135 L1008,135 L1008,134 L1009,133 L1009,133 L1009,133 L1009,132 L1010,132 L1010,132 L1010,131 L1010,131 L1010,131 L1010,131 L1010,131 L1011,131 L1011,131 L1011,130 L1011,130 L1012,130 L1012,127 L1013,124 L1013,123 L1014,121 L1014,121 L1014,121 L1014,120 L1015,119 L1015,119 L1015,118 L1015,118 L1016,117 L1016,116 L1016,115 L1017,115 L1017,114 L1017,113 L1018,113 L1018,112 L1018,112 L1019,110 L1019,110 L1019,110 L1020,109 L1020,109 L1021,108 L1021,108 L1021,108 L1021,108 L1021,108 L1022,107 L1022,107 L1022,106 L1023,103 L1024,102 L1024,101 L1025,101 L1025,99 L1026,98 L1027,97 L1027,97 L1028,96 L1028,95 L1029,93 L1029,92 L1029,92 L1030,91 L1030,91 L1030,91 L1031,90 L1031,89 L1032,89 L1032,86 L1033,85 L1034,81 L1034,80 L1035,77 L1035,76 L1036,75 L1036,75 L1036,75 L1036,75 L1036,75 L1036,75 L1037,74 L1037,74 L1037,74 L1037,74 L1038,74 L1038,74 L1039,73 L1039,73 L1039,73 L1040,72 L1040,72 L1040,72 L1041,71 L1041,71 L1041,71 L1042,70 L1042,70 L1042,69 L1042,69 L1043,69 L1043,67 L1044,66 L1044,66 L1045,66 L1045,66 L1045,66 L1046,66 L1046,66 L1046,66 L1046,66 L1046,66 L1047,67 L1047,67 L1047,67 L1049,70 L1050,71 L1050,72 L1051,72 L1052,73 L1052,73 L1053,75 L1053,76 L1054,77 L1054,77 L1055,78 L1055,78 L1055,78 L1055,78 L1055,78 L1055,78 L1056,79 L1056,80 L1056,80 L1056,80 L1057,80 L1057,81 L1057,82 L1058,82 L1058,83 L1058,83 L1058,83 L1058,83 L1058,83 L1059,84 L1059,84 L1060,85 L1060,86 L1060,86 L1061,87 L1061,88 L1061,88 L1061,88 L1062,89 L1062,89 L1062,89 L1062,89 L1063,90 L1063,91 L1064,91 L1064,91 L1065,91 L1065,91 L1065,91 L1066,91 L1066,91 L1067,91 L1067,91 L1067,91 L1068,91 L1068,91 L1068,91 L1068,91 L1069,91 L1069,91 L1069,91 L1069,91 L1069,91 L1069,91 L1069,90 L1070,90 L1071,88 L1071,87 L1071,86 L1072,85 L1072,85 L1073,85 L1073,84 L1073,83 L1074,83 L1074,83 L1075,82 L1075,81 L1075,79 L1076,78 L1077,78 L1077,77 L1077,77 L1077,77 L1078,76 L1079,73 L1080,71 L1080,70 L1081,70 L1081,69 L1081,69 L1082,69 L1082,69 L1082,69 L1082,68 L1083,68 L1083,68 L1083,68 L1083,68 L1083,68 L1083,68 L1084,68 L1084,68 L1084,67 L1084,67 L1085,66 L1085,65 L1085,65 L1085,65 L1085,65 L1086,65 L1086,65 L1086,65 L1086,65 L1086,65 L1086,65 L1087,64 L1087,63 L1087,62 L1088,61 L1088,61 L1088,61 L1088,60 L1088,60 L1089,60 L1089,60 L1089,60 L1089,59 L1089,59 L1090,59 L1090,59 L1091,55 L1091,53 L1092,52 L1092,51 L1093,51 L1094,50 L1095,48 L1096,44 L1096,44 L1097,44 L1097,44 L1097,43 L1098,43 L1098,43 L1098,43 L1098,43 L1098,43 L1098,43 L1098,43 L1098,43 L1099,43 L1099,42 L1099,42 L1099,42 L1100,42 L1100,42 L1100,41 L1100,41 L1100,41 L1101,41 L1101,41 L1101,41 L1101,41 L1101,40 L1101,40 L1101,40 L1102,40 L1102,40 L1102,40 L1103,39 L1103,39 L1103,39 L1103,39 L1104,39 L1104,39 L1104,39 L1105,39 L1105,39 L1105,39 L1105,39 L1106,39 L1106,39 L1106,39 L1107,39 L1107,39 L1107,39 L1107,39 L1108,39 L1108,39 L1108,39 L1109,39 L1109,39 L1109,39 L1110,40 L1110,40 L1110,40 L1110,40 L1110,40 L1111,40 L1111,40 L1112,40 L1112,40 L1112,40 L1112,40 L1113,40 L1113,40 L1113,40 L1114,41 L1114,41 L1114,41 L1114,41 L1115,41 L1115,41 L1115,42 L1115,42 L1115,42 L1116,42 L1117,43 L1117,43 L1117,43 L1118,43 L1118,43 L1118,43 L1118,43 L1118,43 L1119,44 L1119,44 L1120,45 L1121,46 L1121,46 L1121,46 L1121,46 L1121,46 L1122,46 L1123,47 L1123,48 L1124,48 L1124,48 L1125,49 L1126,49 L1126,49 L1126,49 L1126,50 L1127,50 L1127,50 L1128,51 L1128,51 L1129,51 L1129,52 L1130,52 L1130,52 L1130,52 L1130,53 L1130,53 L1131,53 L1131,54 L1132,54 L1132,54 L1132,55 L1133,56 L1133,57 L1133,58 L1134,60 L1134,61 L1135,62 L1135,64 L1136,67 L1136,68 L1136,69 L1137,71 L1137,72 L1137,72 L1137,72 L1137,72 L1138,74 L1138,74 L1138,75 L1139,75 L1139,75 L1139,76 L1139,77 L1140,77 L1140,77 L1140,78 L1140,79 L1141,80 L1141,80 L1142,81 L1142,82 L1142,82 L1143,82 L1143,83 L1143,83 L1144,84 L1145,85 L1145,85 L1145,86 L1146,87 L1147,87 L1147,87 L1147,87 L1147,87 L1151,85 L1151,84 L1152,84 L1152,84 L1153,84 L1153,84 L1153,84 L1153,84 L1154,84 L1154,84 L1154,84 L1155,84 L1155,83 L1155,84 L1156,84 L1156,85 L1157,85 L1157,86 L1157,86 L1158,88 L1158,88 L1159,89 L1159,89 L1160,90 L1160,90 L1161,90 L1161,90 L1161,90 L1161,90 L1162,90 L1162,90 L1162,90 L1163,89 L1164,90 L1164,90 L1164,90 L1164,91 L1164,91 L1164,91 L1165,92 L1165,92 L1165,92 L1165,93 L1166,94 L1166,95 L1166,95 L1167,95 L1167,96 L1167,97 L1168,98 L1168,98 L1168,98 L1168,98 L1168,100 L1169,100 L1169,100 L1169,100 L1170,101 L1170,101 L1170,101 L1170,101 L1170,101 L1170,101 L1171,101 L1171,101 L1171,101 L1171,101 L1172,101 L1172,101 L1172,100 L1173,100 L1173,100 L1173,100 L1173,100 L1173,99 L1174,99 L1174,99 L1174,98 L1174,98 L1174,98 L1175,97 L1176,95 L1176,94 L1176,93 L1177,91 L1177,89 L1177,89 L1178,88 L1178,87 L1178,87 L1179,85 L1179,85 L1179,83 L1180,82 L1180,82 L1181,81 L1181,81 L1181,81 L1181,81 L1182,81 L1183,80 L1183,80 L1183,80 L1184,80 L1184,79 L1184,79 L1184,79 L1185,79 L1185,78 L1185,78 L1185,78 L1186,78 L1186,78 L1186,78 L1186,78 L1186,78 L1186,77 L1186,77 L1187,77 L1187,77 L1187,76 L1188,75 L1188,75 L1188,75 L1189,73 L1189,73 L1190,72 L1190,71 L1190,70 L1191,69 L1191,69 L1191,68 L1192,68 L1192,67 L1192,66 L1192,66 L1193,65 L1194,65 L1194,65 L1194,65 L1194,65 L1194,64 L1196,62 L1197,60 L1198,60 L1198,60 L1199,60 L1199,59 L1200,58 L1201,58 L1202,58 L1202,58 L1203,59 L1203,58 L1205,55 L1206,53 L1207,53 L1207,52 L1209,51 L1209,50 L1210,50 L1212,46 L1213,45 L1213,45 L1213,45 L1214,44 L1214,44 L1215,44 L1216,43 L1217,41 L1218,39 L1219,38 L1220,38 L1221,37 L1221,37 L1221,37 L1221,37 L1221,37 L1221,37 L1221,37 L1222,37 L1222,37 L1222,37 L1222,37 L1222,37 L1223,36 L1223,36 L1224,35 L1224,35 L1224,34 L1225,34 L1225,33 L1225,33 L1226,33 L1226,33 L1227,33 L1227,33 L1227,33 L1227,32 L1227,32 L1227,32 L1228,32 L1228,32 L1228,32 L1228,32 L1229,32 L1229,31 L1230,31 L1230,31 L1230,31 L1230,31 L1230,31 L1231,31 L1231,31 L1231,31 L1232,31 L1233,30 L1234,30 L1234,30 L1236,30 L1236,30 L1236,30 L1237,29 L1238,29 L1238,29 L1238,29 L1239,29 L1239,29 L1239,29 L1239,29 L1240,29 L1240,29 L1241,29 L1241,29 L1241,29 L1241,28 L1242,28 L1242,28 L1242,28 L1243,28 L1243,28 L1244,28 L1244,28 L1244,28 L1244,28 L1244,28 L1245,28 L1245,28 L1245,28 L1245,28 L1245,28 L1245,28 L1245,28 L1246,28 L1246,28 L1246,28 L1246,28 L1246,28 L1247,28 L1247,28 L1247,28 L1247,28 L1247,28 L1247,28 L1247,28 L1248,28 L1248,28 L1249,28 L1249,28 L1249,28 L1249,29 L1249,29 L1250,29 L1250,29 L1250,29 L1250,29 L1251,29 L1251,29 L1251,29 L1251,29 L1251,29 L1252,29 L1252,29 L1253,29 L1254,29 L1254,29 L1254,29 L1254,29 L1254,29 L1254,29 L1255,29 L1255,29 L1255,29 L1255,29 L1255,29 L1256,29 L1256,29 L1257,29 L1258,29 L1258,29 L1259,29 L1259,29 L1259,29 L1259,29 L1259,29 L1259,29 L1260,29 L1261,29 L1261,29 L1262,29 L1262,29 L1262,29 L1263,29 L1263,29 L1264,29 L1264,29 L1265,29 L1265,29 L1266,29 L1267,29 L1269,29 L1270,29 L1271,29 L1272,29 L1272,29 L1273,29 L1274,29 L1274,29 L1274,29 L1274,29 L1276,29 L1276,29 L1276,29 L1278,29 L1281,29 L1283,29 L1284,29 L1285,29 L1285,29 L1286,29 L1286,29 L1286,29 L1288,29 L1289,29 L1289,29 L1290,29 L1290,29 L1291,29 L1291,29 L1292,29 L1292,29 L1292,29 L1292,29 L1292,29 L1292,29 L1292,29 L1292,29 L1293,29 L1293,29 L1293,29 L1293,29 L1293,29 L1294,29 L1294,29 L1294,29 L1294,29 L1294,29 L1295,29 L1295,28 L1295,28 L1296,28 L1296,28 L1296,28 L1296,28 L1297,29 L1299,29 L1299,29 L1299,29 L1300,29 L1301,29 L1301,29 L1301,29 L1301,29 L1302,29 L1302,29 L1302,29 L1302,29 L1302,29 L1303,29 L1303,29 L1303,28 L1303,28 L1304,28 L1304,27 L1304,27 L1305,27 L1306,27 L1306,27 L1306,27 L1306,27 L1306,27 L1307,27 L1307,27 L1308,27 L1309,27 L1309,27 L1310,27 L1310,27 L1311,27 L1312,27 L1313,27 L1313,27 L1314,27 L1315,28 L1316,28 L1316,28 L1317,28 L1317,28 L1317,28 L1318,28 L1318,28 L1319,28 L1319,28 L1319,28 L1319,28 L1320,28 L1320,28 L1321,28 L1322,27 L1322,27 L1323,27 L1323,27 L1324,27 L1325,27 L1325,27 L1325,27 L1326,27 L1326,27 L1326,27 L1326,27 L1326,27 L1326,27 L1326,27 L1326,27 L1327,27 L1327,27 L1327,27 L1328,27 L1329,27 L1329,27 L1330,27 L1330,27 L1331,27 L1332,28 L1333,28 L1336,28 L1336,28 L1337,28 L1337,28 L1339,28 L1339,28 L1339,28 L1339,28 L1341,27 L1342,27 L1344,28 L1345,28 L1345,28 L1346,29" fill="transparent" id="track" shape-rendering="geometricPrecision" stroke="black" stroke-width="3"/>
</g>
</g>
</svg>