<svg height="400" width="1440" xmlns="http://www.w3.org/2000/svg">
<g font-family="ui-serif" font-size="15" id="world" shape-rendering="crispEdges" transform="translate(5 5)">
<g id="BG"/>
<g id="SL" transform="translate(71 360) scale(-1 -1)"/>
<g id="SB" transform="translate(71 360)"/>
<g id="SD" transform="translate(71 360) scale(1 -1) scale(1 1)">
<circle cx="39" cy="251" fill="gray" r="5" stroke="black" stroke-width="2"/>
<text font-size="14" text-anchor="middle" transform="translate(39 266) scale(1 -1)">
698
</text>
<text text-anchor="middle" transform="translate(39 231) scale(1 -1)">
20:11
</text>
<circle cx="104" cy="109" fill="gray" r="5" stroke="black" stroke-width="2"/>
<text font-size="14" text-anchor="middle" transform="translate(104 124) scale(1 -1)">
303
</text>
<text text-anchor="middle" transform="translate(104 89) scale(1 -1)">
20:31
</text>
<circle cx="148" cy="138" fill="gray" r="5" stroke="black" stroke-width="2"/>
<text font-size="14" text-anchor="middle" transform="translate(148 153) scale(1 -1)">
386
</text>
<text text-anchor="middle" transform="translate(148 118) scale(1 -1)">
20:43
</text>
<circle cx="202" cy="59" fill="gray" r="5" stroke="black" stroke-width="2"/>
<text font-size="14" text-anchor="middle" transform="translate(202 74) scale(1 -1)">
164
</text>
<text text-anchor="middle" transform="translate(202 39) scale(1 -1)">
21:00
</text>
<circle cx="290" cy="153" fill="gray" r="5" stroke="black" stroke-width="2"/>
<text font-size="14" text-anchor="middle" transform="translate(290 168) scale(1 -1)">
426
</text>
<text text-anchor="middle" transform="translate(290 133) scale(1 -1)">
21:26
</text>
<circle cx="392" cy="42" fill="gray" r="5" stroke="black" stroke-width="2"/>
<text font-size="14" text-anchor="middle" transform="translate(392 57) scale(1 -1)">
118
</text>
<text text-anchor="middle" transform="translate(392 22) scale(1 -1)">
21:56
</text>
<circle cx="588" cy="41" fill="blue" r="5" stroke="black" stroke-width="2"/>
<text font-size="14" text-anchor="middle" transform="translate(588 56) scale(1 -1)">
114
</text>
<text text-anchor="middle" transform="translate(588 21) scale(1 -1)">
22:54
</text>
<circle cx="782" cy="38" fill="blue" r="5" stroke="black" stroke-width="2"/>
<text font-size="14" text-anchor="middle" transform="translate(782 53) scale(1 -1)">
107
</text>
<text text-anchor="middle" transform="translate(782 18) scale(1 -1)">
23:52
</text>
<circle cx="977" cy="37" fill="black" r="8"/>
<text font-size="14" text-anchor="middle" transform="translate(977 52) scale(1 -1)">
103
</text>
<text text-anchor="middle" transform="translate(977 17) scale(1 -1)">
00:49
</text>
</g>
</g>
</svg>