<svg height="400" width="1420" xmlns="http://www.w3.org/2000/svg">
<g font-family="Libertinus Serif" font-size="15" id="world" shape-rendering="crispEdges">
<g id="BG"/>
<g id="SB" transform="translate(0 360)"/>
<g id="SD" transform="translate(0 360) scale(1 -1) scale(1 1)">
<circle cx="41" cy="250" fill="gray" r="5" stroke="black" stroke-width="2"/>
<text font-size="12" id="wp-elevation-text" text-anchor="middle" transform="scale(1 -1)" x="41" y="-265">
698
</text>
<text font-size="12" id="wp-text" text-anchor="middle" transform="translate(41 230) scale(1 -1)">
 183
</text>
<circle cx="110" cy="108" fill="gray" r="5" stroke="black" stroke-width="2"/>
<text font-size="12" id="wp-text" text-anchor="middle" transform="translate(110 88) scale(1 -1)">
 188
</text>
<circle cx="155" cy="138" fill="gray" r="5" stroke="black" stroke-width="2"/>
<text font-size="12" id="wp-elevation-text" text-anchor="middle" transform="scale(1 -1)" x="155" y="-153">
386
</text>
<text font-size="12" id="wp-text" text-anchor="middle" transform="translate(155 118) scale(1 -1)">
 191
</text>
<circle cx="205" cy="58" fill="gray" r="5" stroke="black" stroke-width="2"/>
<text font-size="12" id="wp-text" text-anchor="middle" transform="translate(205 38) scale(1 -1)">
 195
</text>
<circle cx="305" cy="153" fill="gray" r="5" stroke="black" stroke-width="2"/>
<text font-size="12" id="wp-elevation-text" text-anchor="middle" transform="scale(1 -1)" x="305" y="-168">
426
</text>
<text font-size="12" id="wp-text" text-anchor="middle" transform="translate(305 133) scale(1 -1)">
 202
</text>
<circle cx="413" cy="42" fill="gray" r="5" stroke="black" stroke-width="2"/>
<text font-size="12" id="wp-text" text-anchor="middle" transform="translate(413 22) scale(1 -1)">
 209
</text>
<circle cx="618" cy="40" fill="blue" r="5" stroke="black" stroke-width="2"/>
<text font-size="12" id="wp-text" text-anchor="middle" transform="translate(618 20) scale(1 -1)">
 224
</text>
<circle cx="823" cy="38" fill="blue" r="5" stroke="black" stroke-width="2"/>
<text font-size="12" id="wp-text" text-anchor="middle" transform="translate(823 18) scale(1 -1)">
 238
</text>
<circle cx="1027" cy="36" fill="black" r="8"/>
<text font-size="12" id="wp-text" text-anchor="middle" transform="translate(1027 16) scale(1 -1)">
K4
</text>
</g>
<g id="SL" transform="translate(0 360) scale(-1 -1)"/>
</g>
</svg>