<svg height="400" width="1440" xmlns="http://www.w3.org/2000/svg">
<g font-family="Libertinus Serif" font-size="15" id="world" shape-rendering="crispEdges" transform="translate(5 5)">
<g id="BG"/>
<g id="SL" transform="translate(71 360) scale(-1 -1)"/>
<g id="SB" transform="translate(71 360)"/>
<g id="SD" transform="translate(71 360) scale(1 -1) scale(1 1)">
<circle cx="22" cy="169" fill="gray" r="5" stroke="black" stroke-width="2"/>
<text font-size="12" text-anchor="middle" transform="translate(22 184) scale(1 -1)">
706
</text>
<text font-size="12" text-anchor="middle" transform="translate(22 139) scale(1 -1)">
  82
</text>
<circle cx="41" cy="135" fill="gray" r="5" stroke="black" stroke-width="2"/>
<text font-size="12" text-anchor="middle" transform="translate(41 150) scale(1 -1)">
563
</text>
<text font-size="12" text-anchor="middle" transform="translate(41 105) scale(1 -1)">
  84
</text>
<circle cx="76" cy="192" fill="gray" r="5" stroke="black" stroke-width="2"/>
<text font-size="12" text-anchor="middle" transform="translate(76 207) scale(1 -1)">
803
</text>
<text font-size="12" text-anchor="middle" transform="translate(76 162) scale(1 -1)">
  88
</text>
<circle cx="150" cy="74" fill="gray" r="5" stroke="black" stroke-width="2"/>
<text font-size="12" text-anchor="middle" transform="translate(150 89) scale(1 -1)">
312
</text>
<text font-size="12" text-anchor="middle" transform="translate(150 44) scale(1 -1)">
  96
</text>
<circle cx="206" cy="93" fill="gray" r="5" stroke="black" stroke-width="2"/>
<text font-size="12" text-anchor="middle" transform="translate(206 108) scale(1 -1)">
388
</text>
<text font-size="12" text-anchor="middle" transform="translate(206 63) scale(1 -1)">
 101
</text>
<circle cx="272" cy="183" fill="gray" r="5" stroke="black" stroke-width="2"/>
<text font-size="12" text-anchor="middle" transform="translate(272 198) scale(1 -1)">
764
</text>
<text font-size="12" text-anchor="middle" transform="translate(272 153) scale(1 -1)">
 108
</text>
<circle cx="330" cy="94" fill="gray" r="5" stroke="black" stroke-width="2"/>
<text font-size="12" text-anchor="middle" transform="translate(330 109) scale(1 -1)">
393
</text>
<text font-size="12" text-anchor="middle" transform="translate(330 64) scale(1 -1)">
 114
</text>
<circle cx="366" cy="116" fill="gray" r="5" stroke="black" stroke-width="2"/>
<text font-size="12" text-anchor="middle" transform="translate(366 131) scale(1 -1)">
487
</text>
<text font-size="12" text-anchor="middle" transform="translate(366 86) scale(1 -1)">
 118
</text>
<circle cx="434" cy="232" fill="gray" r="5" stroke="black" stroke-width="2"/>
<text font-size="12" text-anchor="middle" transform="translate(434 247) scale(1 -1)">
968
</text>
<text font-size="12" text-anchor="middle" transform="translate(434 202) scale(1 -1)">
 125
</text>
<circle cx="552" cy="143" fill="black" r="8"/>
<text font-size="12" text-anchor="middle" transform="translate(552 158) scale(1 -1)">
598
</text>
<text font-size="12" text-anchor="middle" transform="translate(552 113) scale(1 -1)">
K3
</text>
<circle cx="675" cy="230" fill="gray" r="5" stroke="black" stroke-width="2"/>
<text font-size="12" text-anchor="middle" transform="translate(675 245) scale(1 -1)">
961
</text>
<text font-size="12" text-anchor="middle" transform="translate(675 200) scale(1 -1)">
 150
</text>
<circle cx="736" cy="149" fill="gray" r="5" stroke="black" stroke-width="2"/>
<text font-size="12" text-anchor="middle" transform="translate(736 164) scale(1 -1)">
622
</text>
<text font-size="12" text-anchor="middle" transform="translate(736 119) scale(1 -1)">
 156
</text>
<circle cx="828" cy="114" fill="blue" r="5" stroke="black" stroke-width="2"/>
<text font-size="12" text-anchor="middle" transform="translate(828 129) scale(1 -1)">
476
</text>
<text font-size="12" text-anchor="middle" transform="translate(828 84) scale(1 -1)">
 166
</text>
<circle cx="918" cy="70" fill="gray" r="5" stroke="black" stroke-width="2"/>
<text font-size="12" text-anchor="middle" transform="translate(918 85) scale(1 -1)">
293
</text>
<text font-size="12" text-anchor="middle" transform="translate(918 40) scale(1 -1)">
 175
</text>
<circle cx="991" cy="167" fill="gray" r="5" stroke="black" stroke-width="2"/>
<text font-size="12" text-anchor="middle" transform="translate(991 182) scale(1 -1)">
698
</text>
<text font-size="12" text-anchor="middle" transform="translate(991 137) scale(1 -1)">
 183
</text>
<circle cx="1038" cy="72" fill="gray" r="5" stroke="black" stroke-width="2"/>
<text font-size="12" text-anchor="middle" transform="translate(1038 87) scale(1 -1)">
303
</text>
<text font-size="12" text-anchor="middle" transform="translate(1038 42) scale(1 -1)">
 188
</text>
<circle cx="1069" cy="92" fill="gray" r="5" stroke="black" stroke-width="2"/>
<text font-size="12" text-anchor="middle" transform="translate(1069 107) scale(1 -1)">
386
</text>
<text font-size="12" text-anchor="middle" transform="translate(1069 62) scale(1 -1)">
 191
</text>
<circle cx="1108" cy="39" fill="gray" r="5" stroke="black" stroke-width="2"/>
<text font-size="12" text-anchor="middle" transform="translate(1108 54) scale(1 -1)">
164
</text>
<text font-size="12" text-anchor="middle" transform="translate(1108 9) scale(1 -1)">
 195
</text>
<circle cx="1170" cy="102" fill="gray" r="5" stroke="black" stroke-width="2"/>
<text font-size="12" text-anchor="middle" transform="translate(1170 117) scale(1 -1)">
426
</text>
<text font-size="12" text-anchor="middle" transform="translate(1170 72) scale(1 -1)">
 202
</text>
<circle cx="1244" cy="28" fill="gray" r="5" stroke="black" stroke-width="2"/>
<text font-size="12" text-anchor="middle" transform="translate(1244 43) scale(1 -1)">
118
</text>
<text font-size="12" text-anchor="middle" transform="translate(1244 -2) scale(1 -1)">
 209
</text>
</g>
</g>
</svg>