<svg height="400" viewBox="0 0 400 400" width="400" xmlns="http://www.w3.org/2000/svg">
<g font-size="12" id="world" shape-rendering="geometricPrecision">
<circle cx="200" cy="200" fill="#f0f0f0" r="180" stroke="#333" stroke-width="3"/>
<circle cx="200" cy="200" fill="#f0f0f0" r="170" stroke="#555" stroke-width="2"/>
<path d="M 200 200 L 137.41031377140263 28.036250396178758 A 183 183 0 0 1 262.5896862285974 28.036250396178758 Z" fill="white" stroke="white" stroke-width="0"/>
<g>
<g transform="translate(200, 200)">
<path d="M0,-170 L0,-180" stroke="#333" stroke-width="3" transform="rotate(340)"/>
<path d="M0,-170 L0,-180" stroke="#333" stroke-width="3" transform="rotate(60)"/>
<path d="M0,-170 L0,-180" stroke="#333" stroke-width="3" transform="rotate(180)"/>
<path d="M0,-170 L0,-180" stroke="#333" stroke-width="3" transform="rotate(250)"/>
<path d="M0,-170 L0,-180" stroke="#333" stroke-width="3" transform="rotate(20)"/>
<path d="M0,-171 L0,-179" stroke="#666" stroke-width="1" transform="rotate(0)"/>
<path d="M0,-171 L0,-179" stroke="#666" stroke-width="1" transform="rotate(7.2)"/>
<path d="M0,-171 L0,-179" stroke="#666" stroke-width="1" transform="rotate(14.4)"/>
<path d="M0,-171 L0,-179" stroke="#666" stroke-width="1" transform="rotate(21.6)"/>
<path d="M0,-171 L0,-179" stroke="#666" stroke-width="1" transform="rotate(28.8)"/>
<path d="M0,-171 L0,-179" stroke="#666" stroke-width="1" transform="rotate(36)"/>
<path d="M0,-171 L0,-179" stroke="#666" stroke-width="1" transform="rotate(43.2)"/>
<path d="M0,-171 L0,-179" stroke="#666" stroke-width="1" transform="rotate(50.4)"/>
<path d="M0,-171 L0,-179" stroke="#666" stroke-width="1" transform="rotate(57.6)"/>
<path d="M0,-171 L0,-179" stroke="#666" stroke-width="1" transform="rotate(64.8)"/>
<path d="M0,-171 L0,-179" stroke="#666" stroke-width="1" transform="rotate(72)"/>
<path d="M0,-171 L0,-179" stroke="#666" stroke-width="1" transform="rotate(79.2)"/>
<path d="M0,-171 L0,-179" stroke="#666" stroke-width="1" transform="rotate(86.4)"/>
<path d="M0,-171 L0,-179" stroke="#666" stroke-width="1" transform="rotate(93.60000000000001)"/>
<path d="M0,-171 L0,-179" stroke="#666" stroke-width="1" transform="rotate(100.8)"/>
<path d="M0,-171 L0,-179" stroke="#666" stroke-width="1" transform="rotate(108)"/>
<path d="M0,-171 L0,-179" stroke="#666" stroke-width="1" transform="rotate(115.2)"/>
<path d="M0,-171 L0,-179" stroke="#666" stroke-width="1" transform="rotate(122.4)"/>
<path d="M0,-171 L0,-179" stroke="#666" stroke-width="1" transform="rotate(129.6)"/>
<path d="M0,-171 L0,-179" stroke="#666" stroke-width="1" transform="rotate(136.8)"/>
<path d="M0,-171 L0,-179" stroke="#666" stroke-width="1" transform="rotate(144)"/>
<path d="M0,-171 L0,-179" stroke="#666" stroke-width="1" transform="rotate(151.20000000000002)"/>
<path d="M0,-171 L0,-179" stroke="#666" stroke-width="1" transform="rotate(158.4)"/>
<path d="M0,-171 L0,-179" stroke="#666" stroke-width="1" transform="rotate(165.6)"/>
<path d="M0,-171 L0,-179" stroke="#666" stroke-width="1" transform="rotate(172.8)"/>
<path d="M0,-171 L0,-179" stroke="#666" stroke-width="1" transform="rotate(180)"/>
<path d="M0,-171 L0,-179" stroke="#666" stroke-width="1" transform="rotate(187.20000000000002)"/>
<path d="M0,-171 L0,-179" stroke="#666" stroke-width="1" transform="rotate(194.4)"/>
<path d="M0,-171 L0,-179" stroke="#666" stroke-width="1" transform="rotate(201.6)"/>
<path d="M0,-171 L0,-179" stroke="#666" stroke-width="1" transform="rotate(208.8)"/>
<path d="M0,-171 L0,-179" stroke="#666" stroke-width="1" transform="rotate(216)"/>
<path d="M0,-171 L0,-179" stroke="#666" stroke-width="1" transform="rotate(223.20000000000002)"/>
<path d="M0,-171 L0,-179" stroke="#666" stroke-width="1" transform="rotate(230.4)"/>
<path d="M0,-171 L0,-179" stroke="#666" stroke-width="1" transform="rotate(237.6)"/>
<path d="M0,-171 L0,-179" stroke="#666" stroke-width="1" transform="rotate(244.8)"/>
<path d="M0,-171 L0,-179" stroke="#666" stroke-width="1" transform="rotate(252)"/>
<path d="M0,-171 L0,-179" stroke="#666" stroke-width="1" transform="rotate(259.2)"/>
<path d="M0,-171 L0,-179" stroke="#666" stroke-width="1" transform="rotate(266.40000000000003)"/>
<path d="M0,-171 L0,-179" stroke="#666" stroke-width="1" transform="rotate(273.6)"/>
<path d="M0,-171 L0,-179" stroke="#666" stroke-width="1" transform="rotate(280.8)"/>
<path d="M0,-171 L0,-179" stroke="#666" stroke-width="1" transform="rotate(288)"/>
<path d="M0,-171 L0,-179" stroke="#666" stroke-width="1" transform="rotate(295.2)"/>
<path d="M0,-171 L0,-179" stroke="#666" stroke-width="1" transform="rotate(302.40000000000003)"/>
<path d="M0,-171 L0,-179" stroke="#666" stroke-width="1" transform="rotate(309.6)"/>
<path d="M0,-171 L0,-179" stroke="#666" stroke-width="1" transform="rotate(316.8)"/>
<path d="M0,-171 L0,-179" stroke="#666" stroke-width="1" transform="rotate(324)"/>
<path d="M0,-171 L0,-179" stroke="#666" stroke-width="1" transform="rotate(331.2)"/>
<path d="M0,-171 L0,-179" stroke="#666" stroke-width="1" transform="rotate(338.40000000000003)"/>
<path d="M0,-171 L0,-179" stroke="#666" stroke-width="1" transform="rotate(345.6)"/>
<path d="M0,-171 L0,-179" stroke="#666" stroke-width="1" transform="rotate(352.8)"/>
<path d="M0,-165 L0,-170" stroke="#666" stroke-width="2" transform="rotate(60)"/>
<path d="M0,-165 L0,-170" stroke="#666" stroke-width="2" transform="rotate(120)"/>
<path d="M0,-165 L0,-170" stroke="#666" stroke-width="2" transform="rotate(180)"/>
<path d="M0,-165 L0,-170" stroke="#666" stroke-width="2" transform="rotate(240)"/>
</g>
<g transform="translate(200, 200)">
<text text-anchor="middle" x="-63.95776680190003" y="-175.72252008696486">
End
</text>
<text text-anchor="start" x="161.94675050769" y="-93.50000000000001">
Angers
</text>
<text text-anchor="middle" x="0.000000000000022900895144055504" y="197">
Winterstettenstadt
</text>
<text text-anchor="end" x="-175.72252008696486" y="68.95776680190002">
Noirmoutiers
</text>
<text text-anchor="middle" x="63.95776680190005" y="-175.72252008696486">
Start
</text>
<text text-anchor="end" x="141.16214081686348" y="-71.50000000000001">
3
</text>
<text text-anchor="end" x="141.1621408168635" y="81.49999999999996">
6
</text>
<text text-anchor="middle" x="0.000000000000019961742826101858" y="163">
12
</text>
<text text-anchor="start" x="-141.16214081686346" y="81.50000000000007">
Wed
</text>
</g>
<g transform="translate(200, 200)">
<g>
<path d="M 56.5685424949238 -56.568542494923804 L 63.63961030678927 -63.63961030678928" fill="none" stroke="black" stroke-width="4"/>
<path d="M 0.000000000000009797174393178826 80 L 0.000000000000011021821192326179 90" fill="none" stroke="black" stroke-width="4"/>
<path d="M 65.11377766511313 -54.63694682335585 M 65.11377766511313 -54.63694682335585 A 85 85 0 0 1 67.88401835401989 -51.15427696792411" fill="none" stroke="black" stroke-width="3"/>
<path d="M 71.28699827536104 -46.294317976277306 M 71.28699827536104 -46.294317976277306 A 85 85 0 0 1 7.408238133550946 84.67654933779838" fill="none" stroke="black" stroke-width="3"/>
</g>
<g>
<path d="M 0.000000000000009797174393178826 80 L 0.000000000000011021821192326179 90" fill="none" stroke="black" stroke-width="4"/>
<path d="M -77.27406610312546 20.705523608201652 L -86.93332436601615 23.293714059226858" fill="none" stroke="black" stroke-width="4"/>
<path d="M -7.408238133550925 84.67654933779838 M -7.408238133550925 84.67654933779838 A 85 85 0 0 1 -79.87387276680222 29.071712182681825" fill="none" stroke="black" stroke-width="3"/>
</g>
<g>
<path d="M 72.50462296293199 -33.809460939255956 L 81.56770083329849 -38.03564355666295" fill="none" stroke="black" stroke-width="4"/>
<path d="M -69.28203230275508 -40.00000000000001 L -77.94228634059948 -45.00000000000001" fill="none" stroke="black" stroke-width="4"/>
<path d="M 79.87387276680221 -29.07171218268185 M 79.87387276680221 -29.07171218268185 A 85 85 0 0 1 2.966457219712597 84.94822029662313" fill="none" stroke="black" stroke-width="3"/>
<path d="M -2.9664572197125767 84.94822029662313 M -2.9664572197125767 84.94822029662313 A 85 85 0 0 1 -77.03616189811524 -35.922552247959466" fill="none" stroke="black" stroke-width="3"/>
</g>
</g>
</g>
<circle cx="200" cy="200" fill="#333" r="5"/>
</g>
</svg>