<svg height="400" viewBox="0 0 400 400" width="400" xmlns="http://www.w3.org/2000/svg">
<g font-size="12" id="world" shape-rendering="geometricPrecision">
<circle cx="200" cy="200" fill="#f0f0f0" r="180" stroke="#333" stroke-width="3"/>
<circle cx="200" cy="200" fill="#f0f0f0" r="170" stroke="#555" stroke-width="2"/>
<path d="M 200 200 L 137.41031377140263 28.036250396178758 A 180 180 0 0 1 262.5896862285974 28.036250396178758 Z" fill="white" stroke="white" stroke-width="0"/>
<g>
<g transform="translate(200, 200)">
<path d="M0,-170 L0,-180" stroke="#333" stroke-width="3" transform="rotate(340)"/>
<path d="M0,-170 L0,-180" stroke="#333" stroke-width="3" transform="rotate(60)"/>
<path d="M0,-170 L0,-180" stroke="#333" stroke-width="3" transform="rotate(180)"/>
<path d="M0,-170 L0,-180" stroke="#333" stroke-width="3" transform="rotate(250)"/>
<path d="M0,-170 L0,-180" stroke="#333" stroke-width="3" transform="rotate(20)"/>
<path d="M0,-171 L0,-179" stroke="#666" stroke-width="1" transform="rotate(0)"/>
<path d="M0,-171 L0,-179" stroke="#666" stroke-width="1" transform="rotate(7.2)"/>
<path d="M0,-171 L0,-179" stroke="#666" stroke-width="1" transform="rotate(14.4)"/>
<path d="M0,-171 L0,-179" stroke="#666" stroke-width="1" transform="rotate(21.6)"/>
<path d="M0,-171 L0,-179" stroke="#666" stroke-width="1" transform="rotate(28.8)"/>
<path d="M0,-171 L0,-179" stroke="#666" stroke-width="1" transform="rotate(36)"/>
<path d="M0,-171 L0,-179" stroke="#666" stroke-width="1" transform="rotate(43.2)"/>
<path d="M0,-171 L0,-179" stroke="#666" stroke-width="1" transform="rotate(50.4)"/>
<path d="M0,-171 L0,-179" stroke="#666" stroke-width="1" transform="rotate(57.6)"/>
<path d="M0,-171 L0,-179" stroke="#666" stroke-width="1" transform="rotate(64.8)"/>
<path d="M0,-171 L0,-179" stroke="#666" stroke-width="1" transform="rotate(72)"/>
<path d="M0,-171 L0,-179" stroke="#666" stroke-width="1" transform="rotate(79.2)"/>
<path d="M0,-171 L0,-179" stroke="#666" stroke-width="1" transform="rotate(86.4)"/>
<path d="M0,-171 L0,-179" stroke="#666" stroke-width="1" transform="rotate(93.60000000000001)"/>
<path d="M0,-171 L0,-179" stroke="#666" stroke-width="1" transform="rotate(100.8)"/>
<path d="M0,-171 L0,-179" stroke="#666" stroke-width="1" transform="rotate(108)"/>
<path d="M0,-171 L0,-179" stroke="#666" stroke-width="1" transform="rotate(115.2)"/>
<path d="M0,-171 L0,-179" stroke="#666" stroke-width="1" transform="rotate(122.4)"/>
<path d="M0,-171 L0,-179" stroke="#666" stroke-width="1" transform="rotate(129.6)"/>
<path d="M0,-171 L0,-179" stroke="#666" stroke-width="1" transform="rotate(136.8)"/>
<path d="M0,-171 L0,-179" stroke="#666" stroke-width="1" transform="rotate(144)"/>
<path d="M0,-171 L0,-179" stroke="#666" stroke-width="1" transform="rotate(151.20000000000002)"/>
<path d="M0,-171 L0,-179" stroke="#666" stroke-width="1" transform="rotate(158.4)"/>
<path d="M0,-171 L0,-179" stroke="#666" stroke-width="1" transform="rotate(165.6)"/>
<path d="M0,-171 L0,-179" stroke="#666" stroke-width="1" transform="rotate(172.8)"/>
<path d="M0,-171 L0,-179" stroke="#666" stroke-width="1" transform="rotate(180)"/>
<path d="M0,-171 L0,-179" stroke="#666" stroke-width="1" transform="rotate(187.20000000000002)"/>
<path d="M0,-171 L0,-179" stroke="#666" stroke-width="1" transform="rotate(194.4)"/>
<path d="M0,-171 L0,-179" stroke="#666" stroke-width="1" transform="rotate(201.6)"/>
<path d="M0,-171 L0,-179" stroke="#666" stroke-width="1" transform="rotate(208.8)"/>
<path d="M0,-171 L0,-179" stroke="#666" stroke-width="1" transform="rotate(216)"/>
<path d="M0,-171 L0,-179" stroke="#666" stroke-width="1" transform="rotate(223.20000000000002)"/>
<path d="M0,-171 L0,-179" stroke="#666" stroke-width="1" transform="rotate(230.4)"/>
<path d="M0,-171 L0,-179" stroke="#666" stroke-width="1" transform="rotate(237.6)"/>
<path d="M0,-171 L0,-179" stroke="#666" stroke-width="1" transform="rotate(244.8)"/>
<path d="M0,-171 L0,-179" stroke="#666" stroke-width="1" transform="rotate(252)"/>
<path d="M0,-171 L0,-179" stroke="#666" stroke-width="1" transform="rotate(259.2)"/>
<path d="M0,-171 L0,-179" stroke="#666" stroke-width="1" transform="rotate(266.40000000000003)"/>
<path d="M0,-171 L0,-179" stroke="#666" stroke-width="1" transform="rotate(273.6)"/>
<path d="M0,-171 L0,-179" stroke="#666" stroke-width="1" transform="rotate(280.8)"/>
<path d="M0,-171 L0,-179" stroke="#666" stroke-width="1" transform="rotate(288)"/>
<path d="M0,-171 L0,-179" stroke="#666" stroke-width="1" transform="rotate(295.2)"/>
<path d="M0,-171 L0,-179" stroke="#666" stroke-width="1" transform="rotate(302.40000000000003)"/>
<path d="M0,-171 L0,-179" stroke="#666" stroke-width="1" transform="rotate(309.6)"/>
<path d="M0,-171 L0,-179" stroke="#666" stroke-width="1" transform="rotate(316.8)"/>
<path d="M0,-171 L0,-179" stroke="#666" stroke-width="1" transform="rotate(324)"/>
<path d="M0,-171 L0,-179" stroke="#666" stroke-width="1" transform="rotate(331.2)"/>
<path d="M0,-171 L0,-179" stroke="#666" stroke-width="1" transform="rotate(338.40000000000003)"/>
<path d="M0,-171 L0,-179" stroke="#666" stroke-width="1" transform="rotate(345.6)"/>
<path d="M0,-171 L0,-179" stroke="#666" stroke-width="1" transform="rotate(352.8)"/>
<path d="M0,-165 L0,-170" stroke="#666" stroke-width="2" transform="rotate(60)"/>
<path d="M0,-165 L0,-170" stroke="#666" stroke-width="2" transform="rotate(120)"/>
<path d="M0,-165 L0,-170" stroke="#666" stroke-width="2" transform="rotate(180)"/>
<path d="M0,-165 L0,-170" stroke="#666" stroke-width="2" transform="rotate(240)"/>
</g>
<g transform="translate(200, 200)">
<text text-anchor="middle" x="-63.95776680190003" y="-175.72252008696486">
End
</text>
<text text-anchor="start" x="161.94675050769" y="-93.50000000000001">
Angers
</text>
<text text-anchor="middle" x="0.000000000000022900895144055504" y="197">
Winterstettenstadt
</text>
<text text-anchor="end" x="-175.72252008696486" y="68.95776680190002">
Noirmoutiers
</text>
<text text-anchor="middle" x="63.95776680190005" y="-175.72252008696486">
Start
</text>
<text text-anchor="end" x="141.16214081686348" y="-71.50000000000001">
3
</text>
<text text-anchor="end" x="141.1621408168635" y="81.49999999999996">
6
</text>
<text text-anchor="middle" x="0.000000000000019961742826101858" y="163">
12
</text>
<text text-anchor="start" x="-141.16214081686346" y="81.50000000000007">
Wed
</text>
</g>
</g>
<circle cx="200" cy="200" fill="#333" r="5"/>
</g>
</svg>