<svg height="400" width="1420" xmlns="http://www.w3.org/2000/svg">
<g id="world" shape-rendering="crispEdges" transform="translate(5 5)">
<g id="frame"/>
<g id="SL" transform="translate(50 350) scale(-1 -1)">
<text font-family="sans" text-anchor="end" transform="translate(10 -5) scale(-1 -1)">
0
</text>
<text font-family="sans" text-anchor="end" transform="translate(10 58) scale(-1 -1)">
200
</text>
<text font-family="sans" text-anchor="end" transform="translate(10 122) scale(-1 -1)">
400
</text>
<text font-family="sans" text-anchor="end" transform="translate(10 185) scale(-1 -1)">
600
</text>
<text font-family="sans" text-anchor="end" transform="translate(10 249) scale(-1 -1)">
800
</text>
<text font-family="sans" text-anchor="end" transform="translate(10 313) scale(-1 -1)">
1000
</text>
</g>
<g id="SB" transform="translate(50 350)">
<text font-family="sans" text-anchor="middle" transform="translate(192 25)">
0
</text>
<text font-family="sans" text-anchor="middle" transform="translate(385 25)">
20
</text>
<text font-family="sans" text-anchor="middle" transform="translate(578 25)">
40
</text>
<text font-family="sans" text-anchor="middle" transform="translate(771 25)">
60
</text>
<text font-family="sans" text-anchor="middle" transform="translate(964 25)">
80
</text>
<text font-family="sans" text-anchor="middle" transform="translate(1157 25)">
100
</text>
</g>
<g id="SD" transform="translate(50 350) scale(1 -1) scale(1 1)">
<path d="M0,0 L0,350 L1350,350 L1350,0 L0,0" fill="lightgray" id="bg"/>
<path d="M0,0 L1350,0" stroke="black" stroke-width="3"/>
<path d="M0,0 L0,350" stroke="black" stroke-width="3"/>
<path d="M0,350 L1350,350" stroke="black" stroke-width="3"/>
<path d="M1350,0 L1350,350" stroke="black" stroke-width="3"/>
<path d="M192,0 L192,350" stroke="black" stroke-width="1"/>
<path d="M385,0 L385,350" stroke="black" stroke-width="1"/>
<path d="M578,0 L578,350" stroke="black" stroke-width="1"/>
<path d="M771,0 L771,350" stroke="black" stroke-width="1"/>
<path d="M964,0 L964,350" stroke="black" stroke-width="1"/>
<path d="M1157,0 L1157,350" stroke="black" stroke-width="1"/>
<path d="M96,0 L96,350" stroke="black" stroke-dasharray="1.0,2.5,5.0,5.0,10.0,5.0"/>
<path d="M289,0 L289,350" stroke="black" stroke-dasharray="1.0,2.5,5.0,5.0,10.0,5.0"/>
<path d="M482,0 L482,350" stroke="black" stroke-dasharray="1.0,2.5,5.0,5.0,10.0,5.0"/>
<path d="M675,0 L675,350" stroke="black" stroke-dasharray="1.0,2.5,5.0,5.0,10.0,5.0"/>
<path d="M867,0 L867,350" stroke="black" stroke-dasharray="1.0,2.5,5.0,5.0,10.0,5.0"/>
<path d="M1060,0 L1060,350" stroke="black" stroke-dasharray="1.0,2.5,5.0,5.0,10.0,5.0"/>
<path d="M1253,0 L1253,350" stroke="black" stroke-dasharray="1.0,2.5,5.0,5.0,10.0,5.0"/>
<path d="M0,0 L1350,0" stroke="black" stroke-width="1"/>
<path d="M0,63 L1350,63" stroke="black" stroke-width="1"/>
<path d="M0,127 L1350,127" stroke="black" stroke-width="1"/>
<path d="M0,190 L1350,190" stroke="black" stroke-width="1"/>
<path d="M0,254 L1350,254" stroke="black" stroke-width="1"/>
<path d="M0,318 L1350,318" stroke="black" stroke-width="1"/>
<path d="M0,31 L1350,31" stroke="black" stroke-dasharray="1.0,2.5,5.0,5.0,10.0,5.0"/>
<path d="M0,95 L1350,95" stroke="black" stroke-dasharray="1.0,2.5,5.0,5.0,10.0,5.0"/>
<path d="M0,159 L1350,159" stroke="black" stroke-dasharray="1.0,2.5,5.0,5.0,10.0,5.0"/>
<path d="M0,222 L1350,222" stroke="black" stroke-dasharray="1.0,2.5,5.0,5.0,10.0,5.0"/>
<path d="M0,286 L1350,286" stroke="black" stroke-dasharray="1.0,2.5,5.0,5.0,10.0,5.0"/>
<path d="M0,350 L1350,350" stroke="black" stroke-dasharray="1.0,2.5,5.0,5.0,10.0,5.0"/>
<path d="M192,220 L192,220 L193,220 L193,220 L193,221 L193,220 L193,220 L193,220 L194,220 L194,220 L194,220 L195,220 L195,220 L196,221 L196,221 L196,220 L197,220 L197,220 L198,220 L198,220 L198,220 L198,220 L199,220 L199,220 L199,220 L200,220 L200,220 L200,220 L201,220 L201,220 L202,220 L203,219 L203,219 L204,219 L204,220 L204,220 L205,219 L205,220 L205,220 L206,220 L207,221 L208,221 L208,221 L209,220 L209,221 L210,221 L210,220 L211,220 L211,221 L212,221 L216,222 L219,222 L220,223 L221,223 L222,223 L222,222 L222,222 L223,222 L224,223 L228,224 L228,224 L228,224 L229,223 L229,223 L230,223 L232,224 L233,225 L233,225 L233,225 L234,224 L234,224 L235,225 L236,225 L236,225 L236,225 L236,224 L236,224 L237,225 L237,225 L237,225 L237,225 L238,226 L238,226 L238,226 L239,226 L239,226 L239,226 L240,225 L241,225 L242,225 L242,225 L242,226 L242,225 L242,225 L243,225 L243,225 L244,225 L245,225 L245,225 L245,225 L246,225 L246,225 L247,226 L247,227 L248,227 L248,228 L248,229 L249,229 L249,229 L249,230 L250,229 L250,228 L250,226 L251,227 L251,227 L251,227 L251,227 L251,227 L251,227 L252,227 L252,227 L252,227 L252,228 L252,229 L253,229 L253,230 L254,231 L254,232 L254,232 L254,232 L255,231 L255,230 L257,230 L257,230 L257,230 L258,231 L259,231 L259,231 L260,230 L260,230 L260,230 L261,230 L264,229 L266,230 L267,232 L268,229 L269,230 L270,230 L270,230 L271,230 L272,231 L272,233 L273,232 L273,231 L274,231 L274,231 L274,231 L276,230 L277,230 L278,230 L279,231 L280,233 L281,233 L283,235 L284,234 L285,233 L286,232 L287,233 L288,233 L288,232 L289,232 L289,232 L290,233 L291,234 L292,233 L294,234 L295,234 L295,233 L296,235 L296,236 L297,234 L297,233 L298,234 L298,235 L299,234 L299,234 L299,235 L300,235 L301,234 L301,235 L302,235 L303,235 L303,236 L303,236 L304,236 L304,236 L304,235 L305,236 L308,237 L308,237 L308,237 L308,238 L309,238 L309,238 L310,238 L310,237 L310,237 L311,238 L311,238 L312,238 L314,239 L314,239 L314,239 L315,239 L316,237 L317,237 L317,239 L320,241 L320,239 L321,239 L322,239 L322,241 L323,241 L323,241 L325,241 L326,238 L327,240 L327,241 L327,241 L327,241 L328,241 L328,241 L328,241 L328,241 L328,241 L329,241 L330,240 L330,240 L330,241 L331,247 L331,247 L332,247 L332,247 L332,245 L333,246 L333,246 L334,245 L334,243 L335,242 L335,242 L336,242 L337,247 L337,247 L337,244 L338,242 L338,242 L338,243 L338,243 L340,244 L341,243 L341,243 L341,244 L342,244 L342,244 L343,245 L344,246 L346,246 L347,246 L347,245 L347,245 L348,245 L348,246 L348,247 L351,252 L351,252 L351,252 L352,252 L352,253 L353,252 L353,252 L354,254 L354,254 L355,255 L355,256 L356,256 L356,256 L357,257 L357,257 L357,256 L358,256 L358,257 L358,257 L359,257 L359,258 L359,259 L360,258 L360,258 L361,258 L362,259 L362,261 L363,263 L364,267 L364,267 L365,267 L366,269 L366,268 L366,268 L366,267 L366,267 L366,267 L367,269 L367,270 L367,270 L367,270 L367,271 L367,272 L368,272 L368,270 L368,270 L368,270 L369,271 L369,271 L369,272 L370,272 L370,271 L371,272 L371,273 L372,272 L373,272 L374,272 L375,273 L375,274 L376,274 L377,274 L377,273 L378,273 L378,274 L379,275 L380,276 L380,277 L381,276 L381,275 L382,274 L382,273 L382,273 L383,274 L383,277 L384,279 L385,275 L385,276 L386,281 L386,280 L386,280 L387,279 L388,279 L388,279 L389,279 L389,279 L389,279 L389,279 L389,279 L390,279 L391,280 L391,281 L392,281 L392,281 L393,281 L393,281 L394,282 L394,282 L394,283 L395,283 L395,282 L395,283 L396,284 L396,284 L397,283 L397,283 L397,283 L398,285 L399,286 L399,287 L400,287 L401,289 L402,288 L403,289 L403,289 L404,290 L404,290 L405,290 L405,290 L405,290 L406,290 L407,291 L408,293 L408,293 L409,293 L409,293 L410,293 L410,294 L411,294 L411,295 L412,296 L412,296 L413,297 L414,297 L414,298 L414,298 L415,298 L415,298 L415,299 L416,300 L417,300 L418,300 L418,302 L418,302 L418,303 L418,303 L419,304 L420,306 L420,306 L420,305 L420,304 L421,304 L421,304 L421,304 L421,305 L421,304 L422,302 L422,302 L422,302 L422,303 L423,304 L423,305 L423,305 L423,305 L423,305 L423,305 L424,305 L424,304 L424,304 L424,305 L426,308 L426,308 L427,310 L428,312 L428,312 L428,312 L429,312 L429,314 L430,314 L430,314 L431,318 L432,320 L432,321 L433,320 L434,323 L435,324 L435,325 L436,325 L436,326 L438,320 L439,315 L440,314 L440,312 L441,310 L441,308 L442,307 L442,305 L442,304 L442,303 L443,304 L445,302 L445,302 L446,301 L447,299 L447,299 L448,298 L449,295 L450,294 L451,293 L452,292 L452,291 L453,289 L454,289 L454,288 L455,284 L455,283 L455,282 L455,282 L456,284 L457,283 L459,282 L460,281 L460,280 L460,280 L461,281 L461,281 L461,281 L461,281 L463,284 L464,284 L464,284 L465,281 L466,280 L466,280 L466,280 L466,280 L466,280 L467,280 L467,280 L467,280 L467,280 L467,280 L467,280 L467,280 L467,280 L468,280 L468,280 L468,279 L469,278 L469,278 L470,277 L470,277 L470,277 L470,277 L471,276 L471,277 L471,277 L471,277 L471,277 L471,277 L471,277 L472,277 L472,277 L472,276 L472,276 L473,277 L473,276 L473,276 L474,276 L474,276 L474,276 L475,277 L475,276 L475,276 L475,275 L475,275 L475,275 L476,275 L476,275 L476,275 L476,275 L476,275 L477,274 L477,274 L477,275 L478,275 L478,275 L479,275 L479,275 L479,275 L479,275 L480,276 L480,276 L480,276 L481,275 L482,275 L482,274 L482,274 L483,274 L483,273 L483,273 L483,273 L483,273 L484,273 L484,273 L484,273 L484,273 L484,273 L484,273 L485,274 L485,274 L485,274 L486,275 L486,276 L486,276 L487,276 L487,276 L487,275 L488,273 L489,273 L489,273 L489,273 L489,273 L489,274 L490,274 L491,274 L491,275 L492,276 L492,277 L493,276 L493,276 L493,276 L493,276 L494,275 L495,273 L495,273 L496,273 L496,273 L496,273 L496,274 L497,274 L498,274 L498,275 L498,276 L499,276 L499,277 L499,278 L499,278 L500,277 L500,277 L500,277 L501,278 L501,278 L501,278 L502,279 L502,279 L503,281 L504,280 L504,280 L506,279 L506,279 L506,280 L507,282 L507,281 L508,283 L509,282 L510,281 L510,281 L510,281 L511,281 L511,281 L512,282 L513,282 L514,281 L515,283 L515,282 L516,283 L516,282 L517,282 L517,282 L517,282 L517,283 L517,283 L520,289 L521,290 L521,287 L522,285 L522,285 L525,287 L526,288 L527,294 L528,292 L531,291 L531,290 L531,290 L531,290 L532,291 L533,293 L534,293 L534,291 L535,291 L535,292 L536,292 L536,293 L536,293 L537,292 L537,292 L538,294 L538,295 L539,296 L539,297 L539,297 L540,297 L540,298 L541,299 L541,299 L542,299 L542,300 L542,300 L543,301 L543,301 L544,301 L544,301 L544,303 L544,303 L545,301 L545,301 L545,302 L546,303 L546,305 L547,304 L547,304 L547,304 L548,305 L548,305 L548,305 L548,305 L548,305 L549,304 L549,304 L549,304 L549,305 L550,307 L550,308 L550,309 L550,309 L551,312 L552,314 L552,318 L553,319 L553,319 L553,318 L554,318 L554,317 L554,316 L555,315 L555,316 L555,316 L555,317 L555,317 L556,319 L556,320 L556,320 L557,322 L557,322 L558,323 L560,324 L560,324 L560,326 L561,325 L563,325 L563,324 L563,324 L563,323 L563,323 L564,324 L565,327 L565,328 L566,329 L567,328 L568,327 L569,323 L569,322 L569,322 L570,321 L570,321 L570,321 L571,321 L571,321 L572,320 L572,319 L573,319 L573,317 L573,317 L573,317 L574,316 L574,317 L574,317 L574,317 L574,317 L575,317 L575,316 L575,315 L575,315 L576,315 L576,316 L576,316 L576,317 L577,319 L577,319 L578,319 L578,319 L578,319 L579,320 L579,322 L579,322 L580,322 L580,322 L580,322 L581,322 L581,321 L582,322 L583,324 L583,322 L584,319 L584,318 L585,318 L585,317 L585,318 L586,318 L586,319 L588,317 L590,320 L590,320 L590,320 L590,319 L591,318 L592,319 L592,320 L592,320 L592,319 L593,316 L594,315 L594,314 L594,313 L594,313 L595,311 L595,310 L595,310 L595,310 L595,309 L596,309 L596,309 L596,309 L596,309 L596,308 L597,308 L597,308 L598,306 L598,305 L599,304 L600,303 L600,302 L601,302 L601,302 L601,302 L601,302 L602,303 L602,302 L602,300 L603,299 L603,299 L603,298 L604,298 L604,298 L604,298 L604,298 L605,298 L607,294 L608,295 L608,293 L609,289 L610,287 L610,287 L610,286 L610,286 L611,284 L611,284 L612,281 L612,281 L612,281 L612,281 L613,281 L613,280 L613,280 L613,280 L614,277 L615,277 L615,278 L615,278 L616,278 L616,278 L616,278 L616,278 L617,278 L617,279 L617,279 L617,280 L618,280 L618,281 L618,281 L619,282 L619,282 L620,283 L620,284 L621,285 L621,286 L621,286 L621,286 L622,287 L622,288 L622,289 L623,291 L623,292 L623,291 L624,291 L625,292 L625,292 L626,294 L626,295 L627,296 L627,297 L627,296 L628,296 L628,296 L628,296 L628,297 L629,298 L629,298 L629,298 L629,298 L629,298 L630,299 L630,299 L630,299 L630,298 L630,298 L632,307 L632,308 L633,309 L633,309 L634,309 L634,310 L634,311 L635,312 L635,313 L636,314 L637,311 L637,311 L637,310 L638,309 L639,308 L639,309 L640,310 L640,310 L641,310 L642,310 L642,309 L643,308 L643,309 L645,305 L645,304 L645,303 L645,303 L645,303 L645,303 L646,302 L646,302 L646,301 L646,301 L647,302 L647,302 L647,302 L647,301 L647,301 L648,302 L648,302 L648,302 L648,302 L649,302 L649,301 L649,302 L649,302 L650,301 L650,301 L651,300 L651,301 L651,302 L652,302 L652,302 L652,300 L653,299 L654,297 L654,296 L654,296 L655,294 L656,292 L656,292 L657,293 L657,293 L657,293 L658,293 L658,293 L658,293 L658,293 L658,293 L659,293 L659,288 L659,287 L660,287 L660,286 L660,286 L660,287 L661,290 L661,289 L662,285 L662,285 L663,284 L663,283 L663,282 L663,281 L663,281 L663,281 L664,281 L664,283 L664,285 L665,286 L665,287 L665,285 L666,283 L666,279 L667,278 L667,277 L667,277 L668,274 L668,272 L668,271 L669,269 L670,263 L670,262 L670,261 L671,260 L672,260 L672,259 L673,256 L674,252 L675,250 L676,252 L677,249 L677,249 L678,250 L678,249 L679,250 L680,247 L681,251 L681,250 L681,250 L683,246 L683,248 L684,244 L685,244 L685,242 L685,239 L686,239 L686,238 L686,238 L686,240 L687,246 L687,247 L687,247 L688,246 L688,243 L688,243 L689,242 L689,241 L689,240 L689,241 L690,242 L690,243 L690,241 L691,238 L691,238 L691,237 L692,236 L692,236 L692,235 L693,234 L693,233 L693,233 L693,234 L694,236 L694,236 L694,236 L695,232 L696,227 L697,226 L697,228 L698,227 L698,225 L698,223 L698,221 L699,218 L700,217 L700,217 L700,217 L701,217 L701,216 L701,217 L701,217 L702,214 L702,215 L703,216 L703,215 L703,213 L703,212 L704,211 L704,210 L705,209 L705,207 L706,209 L707,209 L708,208 L708,208 L708,206 L709,206 L709,206 L710,205 L710,203 L711,202 L711,202 L711,202 L712,202 L713,204 L713,201 L714,197 L714,196 L715,194 L715,194 L715,193 L715,193 L715,192 L715,192 L716,193 L716,196 L717,197 L717,197 L717,197 L717,196 L718,193 L718,192 L718,192 L719,194 L719,194 L720,194 L720,194 L720,193 L720,193 L721,192 L721,192 L721,192 L722,190 L722,189 L723,189 L723,189 L723,188 L723,187 L723,186 L723,183 L724,183 L724,183 L724,183 L724,182 L724,182 L724,182 L724,182 L724,182 L724,182 L724,182 L724,182 L726,182 L726,183 L726,183 L726,181 L728,178 L728,177 L728,177 L729,176 L729,178 L729,177 L730,175 L731,173 L732,172 L732,173 L732,173 L732,172 L733,171 L733,171 L733,171 L733,171 L734,172 L734,171 L734,171 L735,170 L735,169 L735,169 L736,170 L736,169 L737,168 L738,170 L739,169 L739,168 L739,168 L739,167 L740,166 L740,165 L740,165 L740,164 L741,164 L741,163 L741,163 L741,164 L742,162 L743,163 L743,163 L743,163 L744,163 L744,162 L745,161 L745,161 L746,161 L746,160 L746,160 L747,160 L747,160 L748,160 L748,162 L748,161 L749,160 L749,160 L750,159 L750,158 L750,157 L751,157 L751,157 L751,157 L751,157 L751,157 L752,157 L752,157 L752,157 L752,157 L753,157 L753,157 L753,157 L753,157 L753,157 L753,157 L753,157 L753,157 L754,157 L754,157 L754,156 L755,156 L755,156 L755,155 L757,154 L757,154 L757,153 L758,153 L759,152 L759,152 L759,152 L760,152 L760,152 L760,152 L760,152 L761,152 L762,151 L762,152 L762,152 L763,152 L763,151 L763,151 L764,150 L764,149 L765,150 L765,150 L765,149 L766,148 L766,148 L766,148 L766,148 L767,148 L767,148 L767,149 L768,148 L768,148 L768,147 L768,147 L769,147 L769,147 L769,147 L769,147 L769,147 L770,147 L770,147 L770,148 L770,148 L770,148 L771,148 L771,151 L772,152 L772,152 L773,153 L774,156 L775,158 L775,158 L776,160 L777,160 L777,161 L778,163 L778,164 L779,167 L780,170 L780,169 L781,171 L783,173 L783,176 L784,179 L785,180 L785,180 L785,182 L786,184 L786,186 L787,189 L788,190 L788,192 L789,195 L790,198 L790,199 L791,199 L791,199 L791,198 L791,197 L791,196 L792,195 L792,193 L792,192 L792,191 L793,191 L794,190 L794,186 L795,183 L795,179 L796,177 L796,176 L796,174 L796,173 L796,172 L797,171 L797,171 L797,171 L797,171 L797,171 L797,170 L798,169 L798,169 L799,169 L799,169 L799,168 L799,168 L800,169 L800,170 L800,170 L801,169 L801,168 L802,167 L802,166 L802,166 L802,166 L802,166 L802,166 L803,167 L803,166 L803,166 L803,165 L804,162 L805,161 L805,161 L805,160 L806,157 L806,155 L807,153 L807,153 L807,152 L808,150 L808,150 L808,149 L808,147 L809,147 L810,147 L811,151 L811,146 L812,141 L812,141 L812,140 L813,141 L813,139 L813,138 L814,142 L814,139 L814,134 L815,130 L815,128 L816,128 L816,126 L816,126 L817,128 L817,128 L817,128 L818,128 L819,125 L819,124 L820,119 L820,118 L821,119 L821,119 L821,118 L821,116 L822,115 L822,115 L823,114 L823,112 L824,113 L824,115 L824,118 L825,118 L825,117 L825,116 L825,115 L826,115 L827,110 L828,108 L829,108 L829,110 L829,110 L829,111 L830,113 L831,113 L832,111 L832,111 L832,109 L834,102 L834,101 L834,101 L834,100 L835,102 L835,102 L835,101 L836,101 L836,102 L836,101 L837,103 L837,103 L838,101 L838,98 L839,96 L839,96 L840,94 L840,94 L840,94 L841,94 L841,94 L842,94 L843,93 L843,92 L843,92 L844,92 L844,91 L844,91 L846,92 L846,91 L846,91 L846,91 L847,91 L847,89 L848,88 L848,88 L849,87 L849,87 L850,86 L850,86 L851,85 L851,85 L851,85 L852,85 L852,85 L852,84 L852,84 L852,83 L853,83 L853,83 L853,83 L854,83 L854,83 L854,82 L855,81 L855,82 L855,82 L856,82 L856,82 L856,82 L856,81 L856,81 L857,81 L857,81 L857,80 L858,79 L858,80 L858,80 L858,80 L858,79 L859,79 L859,79 L859,79 L859,79 L859,79 L860,80 L860,81 L861,82 L861,80 L863,79 L863,79 L864,79 L864,79 L864,79 L865,78 L865,78 L865,78 L865,78 L866,79 L866,78 L867,79 L867,79 L868,79 L868,79 L870,77 L870,76 L870,76 L871,76 L872,75 L873,74 L874,72 L875,73 L875,72 L879,70 L879,70 L879,70 L879,70 L879,71 L881,71 L881,71 L882,71 L882,71 L882,71 L882,71 L882,71 L883,70 L884,69 L884,70 L885,70 L885,70 L885,70 L885,70 L885,70 L886,69 L886,69 L886,69 L887,69 L887,69 L887,68 L888,68 L889,68 L889,68 L889,68 L890,68 L890,68 L890,68 L890,68 L890,68 L891,68 L891,68 L891,68 L891,68 L891,68 L892,68 L892,68 L892,68 L892,68 L893,69 L893,68 L894,68 L895,68 L896,68 L898,69 L899,68 L900,68 L901,69 L902,69 L904,69 L904,69 L904,69 L905,69 L905,69 L906,70 L908,70 L908,70 L908,70 L909,71 L909,71 L910,73 L910,73 L910,73 L910,73 L911,75 L911,75 L911,75 L912,75 L912,76 L913,79 L913,80 L914,79 L914,79 L914,79 L914,79 L915,79 L915,78 L915,77 L916,76 L916,76 L916,76 L916,76 L917,77 L917,77 L917,77 L917,77 L917,77 L919,79 L920,80 L920,81 L921,81 L921,82 L922,83 L922,83 L922,83 L923,83 L923,83 L923,83 L923,83 L923,83 L923,83 L924,83 L924,82 L925,83 L925,84 L926,84 L927,83 L927,84 L928,85 L929,86 L929,87 L929,88 L930,89 L931,90 L931,90 L932,92 L932,90 L933,90 L933,91 L933,91 L933,92 L934,93 L934,95 L935,97 L935,98 L936,95 L936,95 L936,95 L937,95 L938,99 L938,99 L939,100 L940,100 L940,102 L941,103 L941,103 L942,105 L943,110 L944,110 L944,110 L947,118 L947,119 L948,118 L949,117 L949,118 L950,122 L951,128 L951,130 L952,130 L952,130 L953,130 L953,132 L954,133 L954,134 L955,136 L955,137 L955,138 L957,139 L957,139 L957,140 L958,138 L959,137 L959,138 L960,141 L960,141 L960,141 L960,141 L961,144 L961,149 L961,151 L962,153 L962,153 L962,154 L963,152 L964,153 L964,153 L964,154 L965,158 L965,158 L965,158 L967,164 L968,166 L968,167 L969,169 L969,169 L969,169 L969,169 L969,168 L969,168 L969,167 L969,167 L969,168 L970,169 L970,170 L970,170 L970,170 L970,170 L970,171 L971,172 L971,176 L971,178 L972,180 L972,183 L972,184 L972,184 L972,184 L973,183 L973,182 L973,184 L975,198 L975,198 L975,194 L976,192 L976,191 L977,193 L977,195 L978,198 L978,199 L978,199 L979,200 L979,201 L980,201 L980,203 L981,200 L981,201 L982,204 L982,209 L983,209 L983,211 L983,211 L985,219 L986,223 L986,223 L986,224 L986,224 L987,222 L987,221 L987,220 L988,220 L989,219 L989,218 L990,217 L990,216 L991,214 L991,214 L991,213 L991,211 L992,211 L992,210 L993,210 L993,209 L993,208 L994,207 L994,206 L995,203 L995,202 L995,199 L996,199 L996,199 L996,199 L996,199 L997,198 L997,197 L997,197 L998,196 L998,195 L998,193 L999,187 L1000,186 L1000,185 L1000,184 L1000,184 L1001,184 L1001,183 L1001,183 L1001,184 L1002,184 L1002,185 L1002,186 L1002,186 L1003,186 L1004,181 L1005,180 L1005,180 L1006,180 L1006,179 L1006,179 L1007,186 L1007,186 L1008,187 L1008,189 L1009,191 L1009,192 L1010,193 L1011,196 L1011,197 L1011,197 L1011,201 L1012,203 L1012,205 L1012,206 L1012,207 L1013,206 L1013,204 L1013,205 L1013,206 L1014,208 L1015,214 L1015,215 L1015,216 L1015,217 L1016,220 L1016,221 L1016,221 L1016,220 L1016,220 L1017,222 L1017,223 L1017,223 L1018,223 L1018,223 L1018,226 L1019,226 L1019,226 L1019,227 L1019,228 L1020,229 L1020,229 L1020,230 L1021,236 L1021,239 L1022,236 L1022,236 L1022,236 L1023,239 L1023,239 L1024,242 L1024,242 L1024,243 L1025,246 L1025,245 L1025,243 L1026,241 L1026,241 L1027,244 L1028,245 L1029,247 L1029,247 L1030,248 L1030,247 L1032,248 L1033,249 L1034,249 L1035,248 L1036,247 L1036,248 L1036,249 L1036,250 L1037,250 L1037,249 L1037,249 L1038,250 L1038,251 L1038,251 L1038,251 L1038,252 L1038,252 L1039,253 L1039,253 L1039,253 L1040,254 L1040,255 L1041,255 L1041,255 L1042,255 L1042,255 L1042,254 L1043,252 L1043,252 L1043,253 L1045,256 L1046,255 L1047,255 L1048,254 L1048,253 L1048,252 L1049,246 L1050,246 L1050,245 L1050,244 L1051,243 L1051,243 L1052,243 L1052,243 L1052,241 L1053,240 L1053,238 L1054,237 L1054,237 L1055,237 L1055,237 L1056,236 L1056,235 L1057,237 L1059,233 L1060,230 L1060,229 L1061,229 L1061,228 L1061,228 L1062,225 L1062,226 L1062,227 L1063,228 L1063,227 L1063,225 L1064,224 L1064,220 L1064,219 L1064,219 L1065,218 L1065,218 L1066,213 L1066,212 L1067,210 L1067,209 L1068,210 L1068,211 L1068,215 L1069,213 L1069,212 L1069,213 L1069,213 L1070,209 L1070,203 L1070,203 L1071,205 L1071,205 L1071,205 L1072,205 L1072,200 L1072,199 L1073,197 L1073,195 L1073,193 L1074,192 L1074,190 L1074,189 L1075,186 L1075,185 L1076,182 L1077,180 L1077,179 L1077,179 L1077,175 L1078,173 L1078,172 L1078,172 L1078,171 L1079,169 L1079,169 L1079,169 L1080,168 L1080,167 L1081,166 L1081,167 L1081,167 L1081,167 L1081,168 L1081,168 L1081,166 L1082,163 L1082,161 L1083,158 L1083,158 L1084,158 L1085,155 L1085,154 L1086,150 L1086,150 L1086,149 L1087,148 L1087,147 L1088,147 L1088,145 L1089,141 L1089,141 L1089,141 L1090,137 L1090,134 L1091,134 L1091,135 L1092,133 L1092,132 L1093,132 L1094,129 L1094,127 L1095,125 L1095,124 L1095,125 L1096,129 L1097,127 L1097,127 L1099,122 L1099,122 L1099,120 L1100,119 L1100,118 L1100,117 L1102,116 L1103,113 L1103,112 L1103,108 L1103,107 L1104,106 L1105,105 L1105,105 L1105,105 L1105,105 L1105,105 L1106,105 L1106,106 L1106,106 L1106,105 L1106,105 L1107,106 L1108,103 L1108,104 L1108,105 L1109,105 L1109,107 L1109,107 L1110,106 L1110,105 L1110,106 L1110,105 L1111,102 L1111,101 L1111,101 L1112,101 L1112,101 L1112,100 L1113,99 L1113,99 L1114,99 L1114,99 L1114,99 L1114,99 L1114,99 L1115,100 L1115,100 L1116,100 L1116,99 L1116,99 L1116,100 L1117,100 L1117,100 L1117,100 L1118,101 L1118,102 L1119,106 L1119,105 L1120,101 L1120,101 L1120,101 L1120,102 L1121,103 L1122,102 L1123,103 L1123,103 L1124,103 L1124,103 L1124,103 L1125,103 L1125,103 L1126,104 L1126,103 L1127,103 L1127,103 L1127,103 L1129,105 L1130,105 L1130,105 L1130,106 L1130,106 L1131,106 L1131,106 L1131,108 L1132,109 L1132,108 L1133,106 L1133,106 L1133,107 L1133,107 L1134,107 L1135,107 L1135,107 L1135,108 L1135,110 L1136,111 L1136,110 L1137,110 L1137,110 L1138,111 L1139,111 L1139,112 L1140,111 L1141,115 L1142,114 L1142,113 L1143,113 L1143,112 L1144,112 L1144,112 L1145,114 L1145,115 L1145,116 L1146,117 L1146,116 L1147,116 L1147,117 L1148,116 L1148,114 L1148,114 L1149,115 L1149,115 L1150,116 L1150,116 L1150,116 L1150,116 L1151,115 L1152,113 L1152,113 L1152,114 L1152,115 L1153,117 L1154,118 L1154,119 L1156,116 L1156,116 L1156,117 L1157,118 L1157,117 L1158,116 L1158,117 L1158,119 L1158,121 L1159,120 L1159,121 L1160,123 L1160,124 L1162,119 L1162,119 L1163,120 L1163,121 L1163,121 L1164,121 L1164,122 L1164,123 L1165,122 L1165,122 L1165,122 L1166,123 L1166,124 L1166,127 L1166,132 L1167,134 L1167,133 L1167,130 L1168,127 L1168,124 L1169,123 L1169,123 L1169,123 L1170,123 L1170,123 L1170,122 L1170,123 L1170,123 L1170,123 L1171,123 L1172,126 L1172,126 L1172,126 L1173,132 L1174,133 L1174,133 L1174,133 L1174,132 L1175,134 L1176,134 L1176,134 L1177,134 L1179,139 L1179,138 L1179,137 L1180,139 L1180,139 L1180,139 L1181,139 L1181,143 L1181,144 L1181,145 L1182,144 L1182,144 L1182,141 L1182,141 L1183,144 L1184,146 L1184,149 L1184,149 L1185,148 L1185,147 L1185,147 L1185,147 L1186,146 L1186,147 L1186,147 L1186,147 L1187,148 L1187,153 L1187,151 L1188,152 L1188,152 L1188,151 L1188,150 L1188,150 L1189,150 L1189,150 L1189,150 L1189,151 L1190,151 L1190,152 L1190,152 L1190,153 L1190,153 L1191,153 L1191,153 L1191,155 L1191,156 L1191,156 L1193,163 L1193,162 L1193,162 L1193,159 L1194,160 L1194,159 L1194,159 L1194,159 L1195,159 L1195,162 L1196,162 L1196,164 L1196,166 L1197,168 L1197,169 L1198,167 L1199,170 L1199,171 L1199,171 L1200,171 L1200,172 L1200,173 L1200,175 L1200,175 L1201,176 L1201,176 L1201,176 L1202,176 L1202,176 L1202,177 L1202,178 L1203,179 L1203,180 L1203,180 L1204,178 L1204,178 L1204,178 L1204,179 L1204,180 L1205,181 L1205,182 L1205,182 L1206,184 L1206,186 L1206,187 L1206,187 L1206,187 L1207,188 L1207,190 L1208,190 L1208,191 L1209,190 L1209,192 L1210,194 L1210,195 L1211,193 L1212,194 L1212,194 L1213,197 L1213,197 L1214,199 L1215,196 L1216,201 L1216,200 L1216,200 L1217,200 L1217,200 L1217,202 L1218,206 L1218,207 L1219,208 L1220,210 L1220,210 L1220,211 L1220,211 L1220,212 L1220,212 L1221,212 L1221,212 L1222,211 L1222,211 L1222,212 L1223,210 L1223,210 L1223,210 L1223,211 L1223,213 L1224,213 L1224,216 L1225,215 L1225,215 L1225,215 L1226,216 L1226,217 L1226,221 L1226,221 L1227,222 L1227,222 L1228,223 L1228,223 L1228,224 L1229,226 L1229,226 L1229,227 L1230,227 L1230,228 L1230,229 L1230,230 L1231,230 L1231,228 L1231,228 L1233,234 L1234,234 L1234,235 L1235,235 L1235,236 L1235,236 L1235,237 L1236,241 L1237,242 L1237,243 L1237,243 L1237,242 L1237,242 L1238,241 L1238,241 L1238,240 L1238,239 L1239,238 L1239,238 L1239,238 L1240,237 L1240,237 L1240,236 L1240,234 L1240,234 L1240,234 L1241,235 L1241,235 L1242,235 L1243,232 L1244,233 L1244,233 L1244,231 L1244,231 L1245,230 L1245,227 L1245,226 L1246,226 L1246,224 L1246,223 L1247,225 L1247,225 L1247,225 L1247,225 L1248,222 L1248,222 L1249,223 L1249,222 L1250,216 L1250,215 L1250,214 L1250,214 L1251,215 L1251,213 L1251,212 L1251,209 L1251,209 L1252,211 L1253,210 L1253,210 L1254,212 L1254,210 L1254,206 L1255,201 L1256,201 L1256,200 L1257,203 L1257,203 L1257,201 L1257,197 L1258,196 L1258,195 L1259,194 L1259,196 L1259,195 L1259,195 L1259,195 L1259,195 L1259,195 L1261,193 L1261,191 L1261,190 L1262,189 L1262,188 L1262,187 L1263,185 L1263,182 L1264,180 L1264,178 L1264,177 L1264,175 L1265,174 L1265,175 L1265,175 L1266,175 L1267,172 L1267,171 L1267,170 L1267,170 L1268,168 L1269,163 L1270,158 L1271,155 L1271,154 L1271,154 L1271,154 L1271,154 L1272,156 L1272,158 L1273,157 L1273,156 L1273,155 L1273,154 L1274,153 L1274,152 L1274,149 L1275,148 L1275,147 L1275,147 L1276,147 L1276,147 L1277,144 L1277,144 L1277,144 L1277,144 L1278,144 L1278,143 L1278,143 L1279,140 L1279,139 L1279,139 L1279,138 L1280,138 L1280,139 L1281,136 L1281,136 L1282,134 L1282,134 L1283,134 L1283,134 L1283,134 L1284,133 L1284,133 L1285,132 L1285,133 L1286,134 L1286,135 L1286,135 L1286,134 L1287,133 L1287,133 L1287,132 L1287,131 L1288,131 L1288,132 L1288,132 L1289,132 L1289,132 L1289,131 L1289,130 L1290,128 L1290,127 L1290,127 L1291,126 L1291,126 L1291,125 L1291,125 L1291,125 L1292,124 L1292,124 L1292,124 L1292,124 L1292,124 L1293,124 L1293,124 L1293,124 L1293,124 L1293,124 L1293,124 L1294,124 L1295,125 L1295,126 L1296,126 L1296,126 L1296,126 L1297,127 L1297,127 L1297,128 L1297,129 L1298,129 L1298,130 L1299,130 L1299,130 L1299,131 L1301,131 L1301,131 L1301,130 L1302,130 L1302,130 L1302,131 L1302,131 L1302,131 L1303,134 L1303,135 L1304,137 L1304,137 L1306,138 L1307,141 L1307,140 L1308,139 L1308,136 L1309,138 L1309,137 L1309,136 L1309,136 L1309,136 L1310,138 L1310,138 L1310,138 L1311,138 L1311,140 L1311,141 L1312,142 L1312,142 L1312,143 L1312,143 L1313,141 L1313,141 L1314,141 L1314,142 L1314,144 L1314,145 L1315,146 L1315,146 L1316,144 L1316,144 L1316,144 L1316,144 L1316,144 L1317,145 L1318,147 L1318,145 L1318,144 L1319,145 L1320,144 L1320,144 L1320,145 L1321,146 L1321,147 L1321,147 L1321,148 L1322,148 L1322,148 L1322,147 L1322,147 L1322,147 L1322,147 L1323,147 L1323,146 L1324,147 L1324,147 L1325,147 L1325,149 L1326,149 L1326,150 L1326,149 L1326,149 L1326,149 L1326,149 L1327,149 L1327,149 L1327,149 L1327,150 L1328,150 L1328,151 L1328,151 L1329,152 L1329,152 L1329,153 L1329,153 L1330,153 L1330,153 L1330,155 L1330,155 L1331,154 L1331,155 L1331,157 L1332,159 L1332,161 L1333,164 L1333,164 L1334,164 L1335,165 L1335,166 L1336,170 L1336,171 L1336,171 L1337,174 L1337,177 L1338,177 L1339,178 L1339,179 L1339,181 L1340,183 L1341,183 L1341,185 L1341,186 L1342,187 L1342,188 L1343,186 L1343,187 L1343,187 L1343,187 L1343,188 L1343,189 L1343,190 L1343,190 L1344,190 L1344,190 L1344,190 L1345,192 L1345,193 L1345,193 L1346,195 L1346,196 L1346,200 L1347,201 L1347,202 L1347,202 L1348,202 L1348,203 L1348,204 L1349,204 L1349,205 L1349,207 L1349,207 L1349,206" fill="transparent" shape-rendering="geometricPrecision" stroke="black" stroke-width="2"/>
</g>
</g>
</svg>